G04 #@! TF.GenerationSoftware,KiCad,Pcbnew,(5.1.0-1152-gc9ccd8a64)*
G04 #@! TF.CreationDate,2019-08-01T10:24:24-04:00*
G04 #@! TF.ProjectId,UPS,5550532e-6b69-4636-9164-5f7063625858,rev?*
G04 #@! TF.SameCoordinates,Original*
G04 #@! TF.FileFunction,Legend,Top*
G04 #@! TF.FilePolarity,Positive*
%FSLAX46Y46*%
G04 Gerber Fmt 4.6, Leading zero omitted, Abs format (unit mm)*
G04 Created by KiCad (PCBNEW (5.1.0-1152-gc9ccd8a64)) date 2019-08-01 10:24:24*
%MOMM*%
%LPD*%
G04 APERTURE LIST*
%ADD10C,0.300000*%
%ADD11C,0.120000*%
%ADD12C,0.150000*%
%ADD13C,0.010000*%
G04 APERTURE END LIST*
D10*
X9791228Y-32479942D02*
X11291228Y-32479942D01*
X11291228Y-33051371D01*
X11219800Y-33194228D01*
X11148371Y-33265657D01*
X11005514Y-33337085D01*
X10791228Y-33337085D01*
X10648371Y-33265657D01*
X10576942Y-33194228D01*
X10505514Y-33051371D01*
X10505514Y-32479942D01*
X9862657Y-34551371D02*
X9791228Y-34408514D01*
X9791228Y-34122800D01*
X9862657Y-33979942D01*
X10005514Y-33908514D01*
X10576942Y-33908514D01*
X10719800Y-33979942D01*
X10791228Y-34122800D01*
X10791228Y-34408514D01*
X10719800Y-34551371D01*
X10576942Y-34622800D01*
X10434085Y-34622800D01*
X10291228Y-33908514D01*
X10791228Y-35265657D02*
X9791228Y-35265657D01*
X10648371Y-35265657D02*
X10719800Y-35337085D01*
X10791228Y-35479942D01*
X10791228Y-35694228D01*
X10719800Y-35837085D01*
X10576942Y-35908514D01*
X9791228Y-35908514D01*
X10791228Y-36408514D02*
X10791228Y-36979942D01*
X11291228Y-36622800D02*
X10005514Y-36622800D01*
X9862657Y-36694228D01*
X9791228Y-36837085D01*
X9791228Y-36979942D01*
X9791228Y-37479942D02*
X11291228Y-37479942D01*
X9791228Y-38122800D02*
X10576942Y-38122800D01*
X10719799Y-38051371D01*
X10791228Y-37908514D01*
X10791228Y-37694228D01*
X10719799Y-37551371D01*
X10648371Y-37479942D01*
X9791228Y-39051371D02*
X9862657Y-38908514D01*
X9934085Y-38837085D01*
X10076942Y-38765657D01*
X10505514Y-38765657D01*
X10648371Y-38837085D01*
X10719799Y-38908514D01*
X10791228Y-39051371D01*
X10791228Y-39265657D01*
X10719799Y-39408514D01*
X10648371Y-39479942D01*
X10505514Y-39551371D01*
X10076942Y-39551371D01*
X9934085Y-39479942D01*
X9862657Y-39408514D01*
X9791228Y-39265657D01*
X9791228Y-39051371D01*
X10791228Y-40837085D02*
X9791228Y-40837085D01*
X10791228Y-40194228D02*
X10005514Y-40194228D01*
X9862657Y-40265657D01*
X9791228Y-40408514D01*
X9791228Y-40622800D01*
X9862657Y-40765657D01*
X9934085Y-40837085D01*
X9862657Y-41479942D02*
X9791228Y-41622800D01*
X9791228Y-41908514D01*
X9862657Y-42051371D01*
X10005514Y-42122800D01*
X10076942Y-42122800D01*
X10219799Y-42051371D01*
X10291228Y-41908514D01*
X10291228Y-41694228D01*
X10362657Y-41551371D01*
X10505514Y-41479942D01*
X10576942Y-41479942D01*
X10719799Y-41551371D01*
X10791228Y-41694228D01*
X10791228Y-41908514D01*
X10719799Y-42051371D01*
X9862657Y-43337085D02*
X9791228Y-43194228D01*
X9791228Y-42908514D01*
X9862657Y-42765657D01*
X10005514Y-42694228D01*
X10576942Y-42694228D01*
X10719799Y-42765657D01*
X10791228Y-42908514D01*
X10791228Y-43194228D01*
X10719799Y-43337085D01*
X10576942Y-43408514D01*
X10434085Y-43408514D01*
X10291228Y-42694228D01*
X10362657Y-45194228D02*
X10362657Y-46337085D01*
X9791228Y-48979942D02*
X9791228Y-48122800D01*
X9791228Y-48551371D02*
X11291228Y-48551371D01*
X11076942Y-48408514D01*
X10934085Y-48265657D01*
X10862657Y-48122800D01*
X11148371Y-49551371D02*
X11219799Y-49622800D01*
X11291228Y-49765657D01*
X11291228Y-50122800D01*
X11219799Y-50265657D01*
X11148371Y-50337085D01*
X11005514Y-50408514D01*
X10862657Y-50408514D01*
X10648371Y-50337085D01*
X9791228Y-49479942D01*
X9791228Y-50408514D01*
X11291228Y-50837085D02*
X9791228Y-51337085D01*
X11291228Y-51837085D01*
X11291228Y-54194228D02*
X11291228Y-53479942D01*
X10576942Y-53408514D01*
X10648371Y-53479942D01*
X10719799Y-53622800D01*
X10719799Y-53979942D01*
X10648371Y-54122800D01*
X10576942Y-54194228D01*
X10434085Y-54265657D01*
X10076942Y-54265657D01*
X9934085Y-54194228D01*
X9862657Y-54122800D01*
X9791228Y-53979942D01*
X9791228Y-53622800D01*
X9862657Y-53479942D01*
X9934085Y-53408514D01*
X10219799Y-54837085D02*
X10219799Y-55551371D01*
X9791228Y-54694228D02*
X11291228Y-55194228D01*
X9791228Y-55694228D01*
X9791228Y-57337085D02*
X11291228Y-57337085D01*
X11291228Y-57908514D01*
X11219799Y-58051371D01*
X11148371Y-58122800D01*
X11005514Y-58194228D01*
X10791228Y-58194228D01*
X10648371Y-58122800D01*
X10576942Y-58051371D01*
X10505514Y-57908514D01*
X10505514Y-57337085D01*
X9862657Y-58765657D02*
X9791228Y-58979942D01*
X9791228Y-59337085D01*
X9862657Y-59479942D01*
X9934085Y-59551371D01*
X10076942Y-59622800D01*
X10219799Y-59622800D01*
X10362657Y-59551371D01*
X10434085Y-59479942D01*
X10505514Y-59337085D01*
X10576942Y-59051371D01*
X10648371Y-58908514D01*
X10719799Y-58837085D01*
X10862657Y-58765657D01*
X11005514Y-58765657D01*
X11148371Y-58837085D01*
X11219799Y-58908514D01*
X11291228Y-59051371D01*
X11291228Y-59408514D01*
X11219799Y-59622800D01*
X11291228Y-60265657D02*
X10076942Y-60265657D01*
X9934085Y-60337085D01*
X9862657Y-60408514D01*
X9791228Y-60551371D01*
X9791228Y-60837085D01*
X9862657Y-60979942D01*
X9934085Y-61051371D01*
X10076942Y-61122800D01*
X11291228Y-61122800D01*
X10362657Y-62979942D02*
X10362657Y-64122800D01*
X11291228Y-66265657D02*
X11291228Y-66408514D01*
X11219799Y-66551371D01*
X11148371Y-66622800D01*
X11005514Y-66694228D01*
X10719799Y-66765657D01*
X10362657Y-66765657D01*
X10076942Y-66694228D01*
X9934085Y-66622800D01*
X9862657Y-66551371D01*
X9791228Y-66408514D01*
X9791228Y-66265657D01*
X9862657Y-66122800D01*
X9934085Y-66051371D01*
X10076942Y-65979942D01*
X10362657Y-65908514D01*
X10719799Y-65908514D01*
X11005514Y-65979942D01*
X11148371Y-66051371D01*
X11219799Y-66122800D01*
X11291228Y-66265657D01*
X10648371Y-67622800D02*
X10719799Y-67479942D01*
X10791228Y-67408514D01*
X10934085Y-67337085D01*
X11005514Y-67337085D01*
X11148371Y-67408514D01*
X11219799Y-67479942D01*
X11291228Y-67622800D01*
X11291228Y-67908514D01*
X11219799Y-68051371D01*
X11148371Y-68122800D01*
X11005514Y-68194228D01*
X10934085Y-68194228D01*
X10791228Y-68122800D01*
X10719799Y-68051371D01*
X10648371Y-67908514D01*
X10648371Y-67622800D01*
X10576942Y-67479942D01*
X10505514Y-67408514D01*
X10362657Y-67337085D01*
X10076942Y-67337085D01*
X9934085Y-67408514D01*
X9862657Y-67479942D01*
X9791228Y-67622800D01*
X9791228Y-67908514D01*
X9862657Y-68051371D01*
X9934085Y-68122800D01*
X10076942Y-68194228D01*
X10362657Y-68194228D01*
X10505514Y-68122800D01*
X10576942Y-68051371D01*
X10648371Y-67908514D01*
X11362657Y-69908514D02*
X9434085Y-68622800D01*
X11148371Y-70337085D02*
X11219799Y-70408514D01*
X11291228Y-70551371D01*
X11291228Y-70908514D01*
X11219799Y-71051371D01*
X11148371Y-71122800D01*
X11005514Y-71194228D01*
X10862657Y-71194228D01*
X10648371Y-71122800D01*
X9791228Y-70265657D01*
X9791228Y-71194228D01*
X11291228Y-72122800D02*
X11291228Y-72265657D01*
X11219799Y-72408514D01*
X11148371Y-72479942D01*
X11005514Y-72551371D01*
X10719799Y-72622800D01*
X10362657Y-72622800D01*
X10076942Y-72551371D01*
X9934085Y-72479942D01*
X9862657Y-72408514D01*
X9791228Y-72265657D01*
X9791228Y-72122800D01*
X9862657Y-71979942D01*
X9934085Y-71908514D01*
X10076942Y-71837085D01*
X10362657Y-71765657D01*
X10719799Y-71765657D01*
X11005514Y-71837085D01*
X11148371Y-71908514D01*
X11219799Y-71979942D01*
X11291228Y-72122800D01*
X9791228Y-74051371D02*
X9791228Y-73194228D01*
X9791228Y-73622800D02*
X11291228Y-73622800D01*
X11076942Y-73479942D01*
X10934085Y-73337085D01*
X10862657Y-73194228D01*
X9791228Y-74765657D02*
X9791228Y-75051371D01*
X9862657Y-75194228D01*
X9934085Y-75265657D01*
X10148371Y-75408514D01*
X10434085Y-75479942D01*
X11005514Y-75479942D01*
X11148371Y-75408514D01*
X11219799Y-75337085D01*
X11291228Y-75194228D01*
X11291228Y-74908514D01*
X11219799Y-74765657D01*
X11148371Y-74694228D01*
X11005514Y-74622799D01*
X10648371Y-74622799D01*
X10505514Y-74694228D01*
X10434085Y-74765657D01*
X10362657Y-74908514D01*
X10362657Y-75194228D01*
X10434085Y-75337085D01*
X10505514Y-75408514D01*
X10648371Y-75479942D01*
X7241228Y-32479942D02*
X8741228Y-32479942D01*
X7241228Y-33122800D02*
X8026942Y-33122800D01*
X8169800Y-33051371D01*
X8241228Y-32908514D01*
X8241228Y-32694228D01*
X8169800Y-32551371D01*
X8098371Y-32479942D01*
X8241228Y-33622800D02*
X8241228Y-34194228D01*
X8741228Y-33837085D02*
X7455514Y-33837085D01*
X7312657Y-33908514D01*
X7241228Y-34051371D01*
X7241228Y-34194228D01*
X8241228Y-34479942D02*
X8241228Y-35051371D01*
X8741228Y-34694228D02*
X7455514Y-34694228D01*
X7312657Y-34765657D01*
X7241228Y-34908514D01*
X7241228Y-35051371D01*
X8241228Y-35551371D02*
X6741228Y-35551371D01*
X8169799Y-35551371D02*
X8241228Y-35694228D01*
X8241228Y-35979942D01*
X8169799Y-36122800D01*
X8098371Y-36194228D01*
X7955514Y-36265657D01*
X7526942Y-36265657D01*
X7384085Y-36194228D01*
X7312657Y-36122800D01*
X7241228Y-35979942D01*
X7241228Y-35694228D01*
X7312657Y-35551371D01*
X7312657Y-36837085D02*
X7241228Y-36979942D01*
X7241228Y-37265657D01*
X7312657Y-37408514D01*
X7455514Y-37479942D01*
X7526942Y-37479942D01*
X7669799Y-37408514D01*
X7741228Y-37265657D01*
X7741228Y-37051371D01*
X7812657Y-36908514D01*
X7955514Y-36837085D01*
X8026942Y-36837085D01*
X8169799Y-36908514D01*
X8241228Y-37051371D01*
X8241228Y-37265657D01*
X8169799Y-37408514D01*
X7384085Y-38122800D02*
X7312657Y-38194228D01*
X7241228Y-38122800D01*
X7312657Y-38051371D01*
X7384085Y-38122800D01*
X7241228Y-38122800D01*
X8169799Y-38122800D02*
X8098371Y-38194228D01*
X8026942Y-38122800D01*
X8098371Y-38051371D01*
X8169799Y-38122800D01*
X8026942Y-38122800D01*
X8812657Y-39908514D02*
X6884085Y-38622800D01*
X8812657Y-41479942D02*
X6884085Y-40194228D01*
X8241228Y-42622800D02*
X7026942Y-42622800D01*
X6884085Y-42551371D01*
X6812657Y-42479942D01*
X6741228Y-42337085D01*
X6741228Y-42122800D01*
X6812657Y-41979942D01*
X7312657Y-42622800D02*
X7241228Y-42479942D01*
X7241228Y-42194228D01*
X7312657Y-42051371D01*
X7384085Y-41979942D01*
X7526942Y-41908514D01*
X7955514Y-41908514D01*
X8098371Y-41979942D01*
X8169799Y-42051371D01*
X8241228Y-42194228D01*
X8241228Y-42479942D01*
X8169799Y-42622800D01*
X7241228Y-43337085D02*
X8241228Y-43337085D01*
X8741228Y-43337085D02*
X8669799Y-43265657D01*
X8598371Y-43337085D01*
X8669799Y-43408514D01*
X8741228Y-43337085D01*
X8598371Y-43337085D01*
X8241228Y-43837085D02*
X8241228Y-44408514D01*
X8741228Y-44051371D02*
X7455514Y-44051371D01*
X7312657Y-44122800D01*
X7241228Y-44265657D01*
X7241228Y-44408514D01*
X7241228Y-44908514D02*
X8741228Y-44908514D01*
X7241228Y-45551371D02*
X8026942Y-45551371D01*
X8169799Y-45479942D01*
X8241228Y-45337085D01*
X8241228Y-45122800D01*
X8169799Y-44979942D01*
X8098371Y-44908514D01*
X8241228Y-46908514D02*
X7241228Y-46908514D01*
X8241228Y-46265657D02*
X7455514Y-46265657D01*
X7312657Y-46337085D01*
X7241228Y-46479942D01*
X7241228Y-46694228D01*
X7312657Y-46837085D01*
X7384085Y-46908514D01*
X7241228Y-47622800D02*
X8741228Y-47622800D01*
X8169799Y-47622800D02*
X8241228Y-47765657D01*
X8241228Y-48051371D01*
X8169799Y-48194228D01*
X8098371Y-48265657D01*
X7955514Y-48337085D01*
X7526942Y-48337085D01*
X7384085Y-48265657D01*
X7312657Y-48194228D01*
X7241228Y-48051371D01*
X7241228Y-47765657D01*
X7312657Y-47622800D01*
X7384085Y-48979942D02*
X7312657Y-49051371D01*
X7241228Y-48979942D01*
X7312657Y-48908514D01*
X7384085Y-48979942D01*
X7241228Y-48979942D01*
X7312657Y-50337085D02*
X7241228Y-50194228D01*
X7241228Y-49908514D01*
X7312657Y-49765657D01*
X7384085Y-49694228D01*
X7526942Y-49622800D01*
X7955514Y-49622800D01*
X8098371Y-49694228D01*
X8169799Y-49765657D01*
X8241228Y-49908514D01*
X8241228Y-50194228D01*
X8169799Y-50337085D01*
X7241228Y-51194228D02*
X7312657Y-51051371D01*
X7384085Y-50979942D01*
X7526942Y-50908514D01*
X7955514Y-50908514D01*
X8098371Y-50979942D01*
X8169799Y-51051371D01*
X8241228Y-51194228D01*
X8241228Y-51408514D01*
X8169799Y-51551371D01*
X8098371Y-51622800D01*
X7955514Y-51694228D01*
X7526942Y-51694228D01*
X7384085Y-51622800D01*
X7312657Y-51551371D01*
X7241228Y-51408514D01*
X7241228Y-51194228D01*
X7241228Y-52337085D02*
X8241228Y-52337085D01*
X8098371Y-52337085D02*
X8169799Y-52408514D01*
X8241228Y-52551371D01*
X8241228Y-52765657D01*
X8169799Y-52908514D01*
X8026942Y-52979942D01*
X7241228Y-52979942D01*
X8026942Y-52979942D02*
X8169799Y-53051371D01*
X8241228Y-53194228D01*
X8241228Y-53408514D01*
X8169799Y-53551371D01*
X8026942Y-53622800D01*
X7241228Y-53622800D01*
X8812657Y-55408514D02*
X6884085Y-54122800D01*
X8026942Y-55908514D02*
X8026942Y-56408514D01*
X7241228Y-56622800D02*
X7241228Y-55908514D01*
X8741228Y-55908514D01*
X8741228Y-56622800D01*
X8241228Y-57265657D02*
X7241228Y-57265657D01*
X8098371Y-57265657D02*
X8169799Y-57337085D01*
X8241228Y-57479942D01*
X8241228Y-57694228D01*
X8169799Y-57837085D01*
X8026942Y-57908514D01*
X7241228Y-57908514D01*
X8241228Y-58622800D02*
X7241228Y-58622800D01*
X8098371Y-58622800D02*
X8169799Y-58694228D01*
X8241228Y-58837085D01*
X8241228Y-59051371D01*
X8169799Y-59194228D01*
X8026942Y-59265657D01*
X7241228Y-59265657D01*
X7241228Y-60194228D02*
X7312657Y-60051371D01*
X7384085Y-59979942D01*
X7526942Y-59908514D01*
X7955514Y-59908514D01*
X8098371Y-59979942D01*
X8169799Y-60051371D01*
X8241228Y-60194228D01*
X8241228Y-60408514D01*
X8169799Y-60551371D01*
X8098371Y-60622800D01*
X7955514Y-60694228D01*
X7526942Y-60694228D01*
X7384085Y-60622800D01*
X7312657Y-60551371D01*
X7241228Y-60408514D01*
X7241228Y-60194228D01*
X7241228Y-61337085D02*
X8241228Y-61337085D01*
X8741228Y-61337085D02*
X8669799Y-61265657D01*
X8598371Y-61337085D01*
X8669799Y-61408514D01*
X8741228Y-61337085D01*
X8598371Y-61337085D01*
X7241228Y-62694228D02*
X8741228Y-62694228D01*
X7312657Y-62694228D02*
X7241228Y-62551371D01*
X7241228Y-62265657D01*
X7312657Y-62122800D01*
X7384085Y-62051371D01*
X7526942Y-61979942D01*
X7955514Y-61979942D01*
X8098371Y-62051371D01*
X8169799Y-62122800D01*
X8241228Y-62265657D01*
X8241228Y-62551371D01*
X8169799Y-62694228D01*
X7241228Y-63408514D02*
X8741228Y-63408514D01*
X7669799Y-63908514D01*
X8741228Y-64408514D01*
X7241228Y-64408514D01*
X7312657Y-65694228D02*
X7241228Y-65551371D01*
X7241228Y-65265657D01*
X7312657Y-65122800D01*
X7455514Y-65051371D01*
X8026942Y-65051371D01*
X8169799Y-65122800D01*
X8241228Y-65265657D01*
X8241228Y-65551371D01*
X8169799Y-65694228D01*
X8026942Y-65765657D01*
X7884085Y-65765657D01*
X7741228Y-65051371D01*
X8812657Y-67479942D02*
X6884085Y-66194228D01*
X8026942Y-67979942D02*
X8026942Y-68479942D01*
X7241228Y-68694228D02*
X7241228Y-67979942D01*
X8741228Y-67979942D01*
X8741228Y-68694228D01*
X7241228Y-69337085D02*
X8741228Y-69337085D01*
X7241228Y-70194228D01*
X8741228Y-70194228D01*
X7241228Y-70908514D02*
X8741228Y-70908514D01*
X7241228Y-71765657D01*
X8741228Y-71765657D01*
X8741228Y-72765657D02*
X8741228Y-73051371D01*
X8669799Y-73194228D01*
X8526942Y-73337085D01*
X8241228Y-73408514D01*
X7741228Y-73408514D01*
X7455514Y-73337085D01*
X7312657Y-73194228D01*
X7241228Y-73051371D01*
X7241228Y-72765657D01*
X7312657Y-72622800D01*
X7455514Y-72479942D01*
X7741228Y-72408514D01*
X8241228Y-72408514D01*
X8526942Y-72479942D01*
X8669799Y-72622800D01*
X8741228Y-72765657D01*
X7241228Y-74051371D02*
X8741228Y-74051371D01*
X7241228Y-74765657D02*
X8741228Y-74765657D01*
X8741228Y-75122800D01*
X8669799Y-75337085D01*
X8526942Y-75479942D01*
X8384085Y-75551371D01*
X8098371Y-75622800D01*
X7884085Y-75622800D01*
X7598371Y-75551371D01*
X7455514Y-75479942D01*
X7312657Y-75337085D01*
X7241228Y-75122800D01*
X7241228Y-74765657D01*
X7812657Y-76265657D02*
X7812657Y-77408514D01*
X8026942Y-78622800D02*
X7955514Y-78837085D01*
X7884085Y-78908514D01*
X7741228Y-78979942D01*
X7526942Y-78979942D01*
X7384085Y-78908514D01*
X7312657Y-78837085D01*
X7241228Y-78694228D01*
X7241228Y-78122800D01*
X8741228Y-78122800D01*
X8741228Y-78622800D01*
X8669799Y-78765657D01*
X8598371Y-78837085D01*
X8455514Y-78908514D01*
X8312657Y-78908514D01*
X8169799Y-78837085D01*
X8098371Y-78765657D01*
X8026942Y-78622800D01*
X8026942Y-78122800D01*
X7241228Y-79622800D02*
X8741228Y-79622800D01*
X7669799Y-80122800D01*
X8741228Y-80622800D01*
X7241228Y-80622800D01*
X7312657Y-81265657D02*
X7241228Y-81479942D01*
X7241228Y-81837085D01*
X7312657Y-81979942D01*
X7384085Y-82051371D01*
X7526942Y-82122800D01*
X7669799Y-82122800D01*
X7812657Y-82051371D01*
X7884085Y-81979942D01*
X7955514Y-81837085D01*
X8026942Y-81551371D01*
X8098371Y-81408514D01*
X8169799Y-81337085D01*
X8312657Y-81265657D01*
X8455514Y-81265657D01*
X8598371Y-81337085D01*
X8669799Y-81408514D01*
X8741228Y-81551371D01*
X8741228Y-81908514D01*
X8669799Y-82122800D01*
D11*
X72636841Y-7815821D02*
G75*
G02X68650000Y-7800000I-1986841J1665821D01*
G01*
X77636841Y-7815821D02*
G75*
G02X73650000Y-7800000I-1986841J1665821D01*
G01*
X67040000Y-690000D02*
X67040000Y-9510000D01*
X67040000Y-9510000D02*
X79260000Y-9510000D01*
X79260000Y-9510000D02*
X79260000Y-690000D01*
X79260000Y-690000D02*
X67040000Y-690000D01*
X67040000Y-1500000D02*
X69540000Y-1500000D01*
X79260000Y-1500000D02*
X76760000Y-1500000D01*
X71650000Y-1500000D02*
X74650000Y-1500000D01*
X69650000Y-2500000D02*
X69650000Y-690000D01*
X69650000Y-690000D02*
X71650000Y-690000D01*
X71650000Y-690000D02*
X71650000Y-2500000D01*
X71650000Y-2500000D02*
X69650000Y-2500000D01*
X74650000Y-2500000D02*
X74650000Y-690000D01*
X74650000Y-690000D02*
X76650000Y-690000D01*
X76650000Y-690000D02*
X76650000Y-2500000D01*
X76650000Y-2500000D02*
X74650000Y-2500000D01*
X72650000Y-7800000D02*
X73650000Y-7800000D01*
X68650000Y-7800000D02*
X67950000Y-7800000D01*
X67950000Y-7800000D02*
X67950000Y-2500000D01*
X67950000Y-2500000D02*
X78350000Y-2500000D01*
X78350000Y-2500000D02*
X78350000Y-7800000D01*
X78350000Y-7800000D02*
X77650000Y-7800000D01*
X70950000Y110000D02*
X70650000Y-490000D01*
X70650000Y-490000D02*
X70350000Y110000D01*
X70350000Y110000D02*
X70950000Y110000D01*
X84643400Y-72085200D02*
G75*
G03X84643400Y-72085200I-9120000J0D01*
G01*
X98140400Y-66171400D02*
X98140400Y-33531400D01*
X98140400Y-33531400D02*
X91140400Y-33531400D01*
X91140400Y-66171400D02*
X98140400Y-66171400D01*
X91140400Y-66171400D02*
X91140400Y-33531400D01*
D12*
X94640400Y-66951400D02*
X94640400Y-66171400D01*
X94640400Y-33531400D02*
X94640400Y-32851400D01*
D11*
X92446400Y-83398000D02*
X92446400Y-71158000D01*
X97088400Y-83398000D02*
X97088400Y-71158000D01*
X92446400Y-83398000D02*
X97088400Y-83398000D01*
X92446400Y-71158000D02*
X97088400Y-71158000D01*
X60569400Y-82128000D02*
X60569400Y-69888000D01*
X65211400Y-82128000D02*
X65211400Y-69888000D01*
X60569400Y-82128000D02*
X65211400Y-82128000D01*
X60569400Y-69888000D02*
X65211400Y-69888000D01*
X64155000Y-89749000D02*
G75*
G03X64155000Y-89749000I-6370000J0D01*
G01*
X89072400Y-90028400D02*
G75*
G03X89072400Y-90028400I-6370000J0D01*
G01*
X50464400Y-89952200D02*
G75*
G03X50464400Y-89952200I-6370000J0D01*
G01*
X91070000Y-90780000D02*
X97090000Y-90780000D01*
X97090000Y-90780000D02*
X97090000Y-85480000D01*
X97090000Y-85480000D02*
X91070000Y-85480000D01*
X91070000Y-85480000D02*
X91070000Y-90780000D01*
X92100000Y-91070000D02*
X96100000Y-91070000D01*
X97090000Y-89400000D02*
X96090000Y-89400000D01*
X96090000Y-89400000D02*
X96090000Y-86860000D01*
X96090000Y-86860000D02*
X97090000Y-86860000D01*
X96090000Y-89400000D02*
X95560000Y-89150000D01*
X95560000Y-89150000D02*
X95560000Y-87110000D01*
X95560000Y-87110000D02*
X96090000Y-86860000D01*
X97090000Y-89150000D02*
X96090000Y-89150000D01*
X97090000Y-87110000D02*
X96090000Y-87110000D01*
X91070000Y-90200000D02*
X91670000Y-90200000D01*
X91670000Y-90200000D02*
X91670000Y-88600000D01*
X91670000Y-88600000D02*
X91070000Y-88600000D01*
X91070000Y-87660000D02*
X91670000Y-87660000D01*
X91670000Y-87660000D02*
X91670000Y-86060000D01*
X91670000Y-86060000D02*
X91070000Y-86060000D01*
D12*
X27076000Y-82228800D02*
X58776000Y-82228800D01*
X58776000Y-35728800D02*
X27076000Y-35728800D01*
X27076000Y-35728800D02*
X27076000Y-82228800D01*
X58776000Y-35728800D02*
X58776000Y-82228800D01*
D11*
X73310400Y-89499800D02*
X67710400Y-89499800D01*
X67710400Y-89499800D02*
X67710400Y-88799800D01*
X73310400Y-88799800D02*
X73310400Y-89499800D01*
X73310400Y-85099800D02*
X73310400Y-85699800D01*
X73310400Y-85699800D02*
X73310400Y-85799800D01*
X73310400Y-85099800D02*
X67710400Y-85099800D01*
X67710400Y-85099800D02*
X67710400Y-85799800D01*
X67710400Y-85799800D02*
X67710400Y-85599800D01*
X67710400Y-85599800D02*
X67710400Y-85799800D01*
D13*
G36*
X12432150Y-63627476D02*
G01*
X12432150Y-62279505D01*
X19779913Y-62279505D01*
X19779913Y-63627476D01*
X12432150Y-63627476D01*
X12432150Y-63627476D01*
G37*
X12432150Y-63627476D02*
X12432150Y-62279505D01*
X19779913Y-62279505D01*
X19779913Y-63627476D01*
X12432150Y-63627476D01*
G36*
X19548643Y-47496473D02*
G01*
X19300525Y-47715571D01*
X19025393Y-47948694D01*
X18719989Y-48198451D01*
X18381054Y-48467446D01*
X18005332Y-48758287D01*
X17589563Y-49073580D01*
X17395814Y-49218700D01*
X17226406Y-49344040D01*
X17034673Y-49483973D01*
X16826321Y-49634488D01*
X16607051Y-49791579D01*
X16382569Y-49951234D01*
X16158576Y-50109446D01*
X15940778Y-50262206D01*
X15734877Y-50405504D01*
X15546578Y-50535332D01*
X15381583Y-50647681D01*
X15245596Y-50738541D01*
X15144321Y-50803905D01*
X15114497Y-50822199D01*
X14982722Y-50901045D01*
X17381317Y-50907793D01*
X19779913Y-50914540D01*
X19779913Y-52262232D01*
X12432150Y-52262232D01*
X12432150Y-51111438D01*
X12623773Y-50994780D01*
X12918183Y-50813390D01*
X13245311Y-50608052D01*
X13594821Y-50385486D01*
X13956375Y-50152412D01*
X14319635Y-49915549D01*
X14674264Y-49681619D01*
X15009925Y-49457341D01*
X15316280Y-49249434D01*
X15445261Y-49160629D01*
X15595936Y-49054822D01*
X15774222Y-48927140D01*
X15973041Y-48782858D01*
X16185313Y-48627253D01*
X16403961Y-48465598D01*
X16621905Y-48303170D01*
X16832065Y-48145243D01*
X17027363Y-47997093D01*
X17200721Y-47863995D01*
X17345058Y-47751225D01*
X17451082Y-47665886D01*
X17646393Y-47504687D01*
X12432150Y-47504687D01*
X12432150Y-46156717D01*
X19779913Y-46156717D01*
X19779913Y-47287521D01*
X19548643Y-47496473D01*
X19548643Y-47496473D01*
G37*
X19548643Y-47496473D02*
X19300525Y-47715571D01*
X19025393Y-47948694D01*
X18719989Y-48198451D01*
X18381054Y-48467446D01*
X18005332Y-48758287D01*
X17589563Y-49073580D01*
X17395814Y-49218700D01*
X17226406Y-49344040D01*
X17034673Y-49483973D01*
X16826321Y-49634488D01*
X16607051Y-49791579D01*
X16382569Y-49951234D01*
X16158576Y-50109446D01*
X15940778Y-50262206D01*
X15734877Y-50405504D01*
X15546578Y-50535332D01*
X15381583Y-50647681D01*
X15245596Y-50738541D01*
X15144321Y-50803905D01*
X15114497Y-50822199D01*
X14982722Y-50901045D01*
X17381317Y-50907793D01*
X19779913Y-50914540D01*
X19779913Y-52262232D01*
X12432150Y-52262232D01*
X12432150Y-51111438D01*
X12623773Y-50994780D01*
X12918183Y-50813390D01*
X13245311Y-50608052D01*
X13594821Y-50385486D01*
X13956375Y-50152412D01*
X14319635Y-49915549D01*
X14674264Y-49681619D01*
X15009925Y-49457341D01*
X15316280Y-49249434D01*
X15445261Y-49160629D01*
X15595936Y-49054822D01*
X15774222Y-48927140D01*
X15973041Y-48782858D01*
X16185313Y-48627253D01*
X16403961Y-48465598D01*
X16621905Y-48303170D01*
X16832065Y-48145243D01*
X17027363Y-47997093D01*
X17200721Y-47863995D01*
X17345058Y-47751225D01*
X17451082Y-47665886D01*
X17646393Y-47504687D01*
X12432150Y-47504687D01*
X12432150Y-46156717D01*
X19779913Y-46156717D01*
X19779913Y-47287521D01*
X19548643Y-47496473D01*
G36*
X19429705Y-39766619D02*
G01*
X19096091Y-40052659D01*
X18722184Y-40360274D01*
X18313758Y-40685111D01*
X17876587Y-41022817D01*
X17416444Y-41369040D01*
X16939102Y-41719425D01*
X16450336Y-42069621D01*
X15955918Y-42415274D01*
X15539631Y-42699490D01*
X14960015Y-43090744D01*
X19779913Y-43090744D01*
X19779913Y-44438714D01*
X12432150Y-44438714D01*
X12432150Y-43274458D01*
X12553397Y-43202424D01*
X12673493Y-43129712D01*
X12830567Y-43032522D01*
X13017443Y-42915442D01*
X13226946Y-42783057D01*
X13451899Y-42639956D01*
X13685125Y-42490724D01*
X13919450Y-42339948D01*
X14147696Y-42192216D01*
X14362689Y-42052114D01*
X14557251Y-41924229D01*
X14665204Y-41852599D01*
X15256300Y-41452387D01*
X15823469Y-41055931D01*
X16360603Y-40667649D01*
X16861590Y-40291954D01*
X17318330Y-39934860D01*
X17618767Y-39694386D01*
X15025458Y-39687648D01*
X12432150Y-39680911D01*
X12432150Y-38333199D01*
X19779913Y-38333199D01*
X19779913Y-39458836D01*
X19429705Y-39766619D01*
X19429705Y-39766619D01*
G37*
X19429705Y-39766619D02*
X19096091Y-40052659D01*
X18722184Y-40360274D01*
X18313758Y-40685111D01*
X17876587Y-41022817D01*
X17416444Y-41369040D01*
X16939102Y-41719425D01*
X16450336Y-42069621D01*
X15955918Y-42415274D01*
X15539631Y-42699490D01*
X14960015Y-43090744D01*
X19779913Y-43090744D01*
X19779913Y-44438714D01*
X12432150Y-44438714D01*
X12432150Y-43274458D01*
X12553397Y-43202424D01*
X12673493Y-43129712D01*
X12830567Y-43032522D01*
X13017443Y-42915442D01*
X13226946Y-42783057D01*
X13451899Y-42639956D01*
X13685125Y-42490724D01*
X13919450Y-42339948D01*
X14147696Y-42192216D01*
X14362689Y-42052114D01*
X14557251Y-41924229D01*
X14665204Y-41852599D01*
X15256300Y-41452387D01*
X15823469Y-41055931D01*
X16360603Y-40667649D01*
X16861590Y-40291954D01*
X17318330Y-39934860D01*
X17618767Y-39694386D01*
X15025458Y-39687648D01*
X12432150Y-39680911D01*
X12432150Y-38333199D01*
X19779913Y-38333199D01*
X19779913Y-39458836D01*
X19429705Y-39766619D01*
G36*
X18616957Y-36879505D02*
G01*
X18616957Y-33496363D01*
X16846094Y-33496363D01*
X16846094Y-36509474D01*
X15709569Y-36509474D01*
X15709569Y-33496363D01*
X13595105Y-33496363D01*
X13595105Y-37117383D01*
X12432150Y-37117383D01*
X12432150Y-32121961D01*
X19779913Y-32121961D01*
X19779913Y-36879505D01*
X18616957Y-36879505D01*
X18616957Y-36879505D01*
G37*
X18616957Y-36879505D02*
X18616957Y-33496363D01*
X16846094Y-33496363D01*
X16846094Y-36509474D01*
X15709569Y-36509474D01*
X15709569Y-33496363D01*
X13595105Y-33496363D01*
X13595105Y-37117383D01*
X12432150Y-37117383D01*
X12432150Y-32121961D01*
X19779913Y-32121961D01*
X19779913Y-36879505D01*
X18616957Y-36879505D01*
G36*
X19845003Y-67670843D02*
G01*
X19837278Y-67930776D01*
X19823316Y-68163203D01*
X19802811Y-68360096D01*
X19798063Y-68393406D01*
X19716083Y-68842514D01*
X19610604Y-69247948D01*
X19479456Y-69614404D01*
X19320465Y-69946578D01*
X19131458Y-70249165D01*
X18910263Y-70526863D01*
X18719915Y-70723559D01*
X18425831Y-70970504D01*
X18102508Y-71176750D01*
X17748366Y-71342918D01*
X17361824Y-71469631D01*
X16941302Y-71557511D01*
X16485219Y-71607179D01*
X16472450Y-71607992D01*
X15971646Y-71618883D01*
X15499622Y-71587333D01*
X15057127Y-71513712D01*
X14644912Y-71398392D01*
X14263726Y-71241742D01*
X13914318Y-71044134D01*
X13597439Y-70805939D01*
X13313837Y-70527526D01*
X13064263Y-70209268D01*
X12849466Y-69851534D01*
X12825119Y-69804100D01*
X12681368Y-69485431D01*
X12565544Y-69152436D01*
X12476448Y-68798829D01*
X12412879Y-68418322D01*
X12373635Y-68004626D01*
X12357516Y-67551456D01*
X12357301Y-67354381D01*
X12359020Y-67179211D01*
X12361275Y-67015680D01*
X12363882Y-66873428D01*
X12366658Y-66762097D01*
X12369419Y-66691328D01*
X12370153Y-66680234D01*
X12398041Y-66352902D01*
X12426223Y-66067516D01*
X12454410Y-65826413D01*
X12482310Y-65631933D01*
X12509631Y-65486416D01*
X12527257Y-65418163D01*
X12531311Y-65411590D01*
X12540986Y-65405669D01*
X12558907Y-65400366D01*
X12587701Y-65395647D01*
X12629992Y-65391479D01*
X12688406Y-65387827D01*
X12765568Y-65384658D01*
X12864105Y-65381937D01*
X12986640Y-65379631D01*
X13135800Y-65377705D01*
X13314210Y-65376127D01*
X13524495Y-65374861D01*
X13769281Y-65373874D01*
X14051194Y-65373132D01*
X14372858Y-65372601D01*
X14736900Y-65372247D01*
X15145944Y-65372037D01*
X15602616Y-65371935D01*
X16106031Y-65371909D01*
X16612614Y-65371936D01*
X17068961Y-65372037D01*
X17477696Y-65372249D01*
X17841445Y-65372604D01*
X18162834Y-65373136D01*
X18444486Y-65373879D01*
X18637223Y-65374657D01*
X18637223Y-66746311D01*
X13542244Y-66746311D01*
X13542399Y-67334396D01*
X13544933Y-67598637D01*
X13552187Y-67830126D01*
X13563864Y-68022299D01*
X13579667Y-68168590D01*
X13580424Y-68173684D01*
X13657699Y-68543671D01*
X13772397Y-68876405D01*
X13924581Y-69171943D01*
X14114316Y-69430342D01*
X14341668Y-69651658D01*
X14606700Y-69835946D01*
X14909477Y-69983263D01*
X15250065Y-70093665D01*
X15628527Y-70167208D01*
X15907800Y-70196211D01*
X16199250Y-70201714D01*
X16503803Y-70179998D01*
X16807553Y-70133512D01*
X17096593Y-70064706D01*
X17357014Y-69976031D01*
X17486039Y-69918172D01*
X17764332Y-69753514D01*
X18004228Y-69555333D01*
X18206542Y-69322372D01*
X18372093Y-69053371D01*
X18501698Y-68747071D01*
X18596174Y-68402216D01*
X18641650Y-68138623D01*
X18649809Y-68052783D01*
X18656665Y-67930651D01*
X18662135Y-67781935D01*
X18666134Y-67616342D01*
X18668580Y-67443579D01*
X18669387Y-67273354D01*
X18668473Y-67115373D01*
X18665753Y-66979345D01*
X18661143Y-66874977D01*
X18654560Y-66811976D01*
X18653160Y-66805780D01*
X18637223Y-66746311D01*
X18637223Y-65374657D01*
X18689028Y-65374867D01*
X18899085Y-65376135D01*
X19077281Y-65377715D01*
X19226243Y-65379643D01*
X19348594Y-65381951D01*
X19446961Y-65384675D01*
X19523968Y-65387847D01*
X19582241Y-65391501D01*
X19624405Y-65395673D01*
X19653084Y-65400394D01*
X19670905Y-65405701D01*
X19680492Y-65411626D01*
X19684459Y-65418163D01*
X19719070Y-65564425D01*
X19750203Y-65755427D01*
X19777551Y-65983140D01*
X19800809Y-66239538D01*
X19819669Y-66516594D01*
X19833825Y-66806279D01*
X19842970Y-67100567D01*
X19846799Y-67391431D01*
X19845003Y-67670843D01*
X19845003Y-67670843D01*
G37*
X19845003Y-67670843D02*
X19837278Y-67930776D01*
X19823316Y-68163203D01*
X19802811Y-68360096D01*
X19798063Y-68393406D01*
X19716083Y-68842514D01*
X19610604Y-69247948D01*
X19479456Y-69614404D01*
X19320465Y-69946578D01*
X19131458Y-70249165D01*
X18910263Y-70526863D01*
X18719915Y-70723559D01*
X18425831Y-70970504D01*
X18102508Y-71176750D01*
X17748366Y-71342918D01*
X17361824Y-71469631D01*
X16941302Y-71557511D01*
X16485219Y-71607179D01*
X16472450Y-71607992D01*
X15971646Y-71618883D01*
X15499622Y-71587333D01*
X15057127Y-71513712D01*
X14644912Y-71398392D01*
X14263726Y-71241742D01*
X13914318Y-71044134D01*
X13597439Y-70805939D01*
X13313837Y-70527526D01*
X13064263Y-70209268D01*
X12849466Y-69851534D01*
X12825119Y-69804100D01*
X12681368Y-69485431D01*
X12565544Y-69152436D01*
X12476448Y-68798829D01*
X12412879Y-68418322D01*
X12373635Y-68004626D01*
X12357516Y-67551456D01*
X12357301Y-67354381D01*
X12359020Y-67179211D01*
X12361275Y-67015680D01*
X12363882Y-66873428D01*
X12366658Y-66762097D01*
X12369419Y-66691328D01*
X12370153Y-66680234D01*
X12398041Y-66352902D01*
X12426223Y-66067516D01*
X12454410Y-65826413D01*
X12482310Y-65631933D01*
X12509631Y-65486416D01*
X12527257Y-65418163D01*
X12531311Y-65411590D01*
X12540986Y-65405669D01*
X12558907Y-65400366D01*
X12587701Y-65395647D01*
X12629992Y-65391479D01*
X12688406Y-65387827D01*
X12765568Y-65384658D01*
X12864105Y-65381937D01*
X12986640Y-65379631D01*
X13135800Y-65377705D01*
X13314210Y-65376127D01*
X13524495Y-65374861D01*
X13769281Y-65373874D01*
X14051194Y-65373132D01*
X14372858Y-65372601D01*
X14736900Y-65372247D01*
X15145944Y-65372037D01*
X15602616Y-65371935D01*
X16106031Y-65371909D01*
X16612614Y-65371936D01*
X17068961Y-65372037D01*
X17477696Y-65372249D01*
X17841445Y-65372604D01*
X18162834Y-65373136D01*
X18444486Y-65373879D01*
X18637223Y-65374657D01*
X18637223Y-66746311D01*
X13542244Y-66746311D01*
X13542399Y-67334396D01*
X13544933Y-67598637D01*
X13552187Y-67830126D01*
X13563864Y-68022299D01*
X13579667Y-68168590D01*
X13580424Y-68173684D01*
X13657699Y-68543671D01*
X13772397Y-68876405D01*
X13924581Y-69171943D01*
X14114316Y-69430342D01*
X14341668Y-69651658D01*
X14606700Y-69835946D01*
X14909477Y-69983263D01*
X15250065Y-70093665D01*
X15628527Y-70167208D01*
X15907800Y-70196211D01*
X16199250Y-70201714D01*
X16503803Y-70179998D01*
X16807553Y-70133512D01*
X17096593Y-70064706D01*
X17357014Y-69976031D01*
X17486039Y-69918172D01*
X17764332Y-69753514D01*
X18004228Y-69555333D01*
X18206542Y-69322372D01*
X18372093Y-69053371D01*
X18501698Y-68747071D01*
X18596174Y-68402216D01*
X18641650Y-68138623D01*
X18649809Y-68052783D01*
X18656665Y-67930651D01*
X18662135Y-67781935D01*
X18666134Y-67616342D01*
X18668580Y-67443579D01*
X18669387Y-67273354D01*
X18668473Y-67115373D01*
X18665753Y-66979345D01*
X18661143Y-66874977D01*
X18654560Y-66811976D01*
X18653160Y-66805780D01*
X18637223Y-66746311D01*
X18637223Y-65374657D01*
X18689028Y-65374867D01*
X18899085Y-65376135D01*
X19077281Y-65377715D01*
X19226243Y-65379643D01*
X19348594Y-65381951D01*
X19446961Y-65384675D01*
X19523968Y-65387847D01*
X19582241Y-65391501D01*
X19624405Y-65395673D01*
X19653084Y-65400394D01*
X19670905Y-65405701D01*
X19680492Y-65411626D01*
X19684459Y-65418163D01*
X19719070Y-65564425D01*
X19750203Y-65755427D01*
X19777551Y-65983140D01*
X19800809Y-66239538D01*
X19819669Y-66516594D01*
X19833825Y-66806279D01*
X19842970Y-67100567D01*
X19846799Y-67391431D01*
X19845003Y-67670843D01*
G36*
X19926312Y-57673264D02*
G01*
X19904971Y-57892055D01*
X19868558Y-58104368D01*
X19815375Y-58325347D01*
X19788804Y-58420324D01*
X19652864Y-58797230D01*
X19470950Y-59150693D01*
X19245665Y-59478117D01*
X18979612Y-59776905D01*
X18675395Y-60044462D01*
X18335617Y-60278189D01*
X17962882Y-60475492D01*
X17574255Y-60628965D01*
X17203345Y-60730682D01*
X16802782Y-60800051D01*
X16383683Y-60837136D01*
X15957164Y-60842003D01*
X15534341Y-60814716D01*
X15126333Y-60755340D01*
X14744255Y-60663939D01*
X14581281Y-60611515D01*
X14169136Y-60441899D01*
X13795521Y-60236387D01*
X13460967Y-59995577D01*
X13166011Y-59720070D01*
X12911184Y-59410465D01*
X12697022Y-59067361D01*
X12524058Y-58691358D01*
X12392826Y-58283054D01*
X12351685Y-58108698D01*
X12328394Y-57966713D01*
X12309248Y-57786763D01*
X12294778Y-57582904D01*
X12285517Y-57369194D01*
X12281995Y-57159690D01*
X12284745Y-56968448D01*
X12294297Y-56809524D01*
X12300511Y-56755468D01*
X12384985Y-56312455D01*
X12510745Y-55902368D01*
X12677718Y-55525306D01*
X12885834Y-55181370D01*
X13135022Y-54870658D01*
X13425212Y-54593270D01*
X13756333Y-54349305D01*
X14128314Y-54138863D01*
X14178851Y-54114362D01*
X14460932Y-53990236D01*
X14733212Y-53893283D01*
X15008105Y-53820738D01*
X15298024Y-53769835D01*
X15615384Y-53737808D01*
X15936313Y-53722794D01*
X15947373Y-53722783D01*
X15947373Y-55123194D01*
X15575499Y-55156319D01*
X15215659Y-55223972D01*
X14874991Y-55325426D01*
X14560633Y-55459951D01*
X14279726Y-55626820D01*
X14210731Y-55677181D01*
X14045636Y-55827481D01*
X13887639Y-56016281D01*
X13746314Y-56229275D01*
X13631234Y-56452158D01*
X13556424Y-56654842D01*
X13496620Y-56943182D01*
X13475166Y-57250208D01*
X13492305Y-57557973D01*
X13540768Y-57820147D01*
X13643819Y-58118635D01*
X13793124Y-58393783D01*
X13986075Y-58642425D01*
X14220066Y-58861396D01*
X14492488Y-59047528D01*
X14599476Y-59105892D01*
X14890218Y-59229366D01*
X15214524Y-59322278D01*
X15562719Y-59384484D01*
X15925132Y-59415838D01*
X16292089Y-59416193D01*
X16653919Y-59385404D01*
X17000949Y-59323326D01*
X17323506Y-59229812D01*
X17520227Y-59149907D01*
X17824244Y-58983405D01*
X18087592Y-58784587D01*
X18308910Y-58555531D01*
X18486838Y-58298317D01*
X18620017Y-58015024D01*
X18707086Y-57707733D01*
X18746686Y-57378521D01*
X18749111Y-57270868D01*
X18724594Y-56935508D01*
X18652246Y-56620924D01*
X18533869Y-56329707D01*
X18371269Y-56064449D01*
X18166250Y-55827742D01*
X17920615Y-55622177D01*
X17636168Y-55450346D01*
X17412418Y-55350547D01*
X17063802Y-55238275D01*
X16698663Y-55163444D01*
X16324140Y-55125326D01*
X15947373Y-55123194D01*
X15947373Y-53722783D01*
X16352116Y-53722372D01*
X16729303Y-53745821D01*
X17077328Y-53795011D01*
X17405641Y-53871816D01*
X17723694Y-53978106D01*
X18040940Y-54115754D01*
X18121934Y-54155638D01*
X18454169Y-54350110D01*
X18764826Y-54585767D01*
X19047347Y-54855881D01*
X19295176Y-55153725D01*
X19501754Y-55472573D01*
X19606625Y-55678699D01*
X19712300Y-55927164D01*
X19793321Y-56160238D01*
X19852756Y-56391917D01*
X19893675Y-56636195D01*
X19919148Y-56907067D01*
X19930568Y-57155668D01*
X19934279Y-57432849D01*
X19926312Y-57673264D01*
X19926312Y-57673264D01*
G37*
X19926312Y-57673264D02*
X19904971Y-57892055D01*
X19868558Y-58104368D01*
X19815375Y-58325347D01*
X19788804Y-58420324D01*
X19652864Y-58797230D01*
X19470950Y-59150693D01*
X19245665Y-59478117D01*
X18979612Y-59776905D01*
X18675395Y-60044462D01*
X18335617Y-60278189D01*
X17962882Y-60475492D01*
X17574255Y-60628965D01*
X17203345Y-60730682D01*
X16802782Y-60800051D01*
X16383683Y-60837136D01*
X15957164Y-60842003D01*
X15534341Y-60814716D01*
X15126333Y-60755340D01*
X14744255Y-60663939D01*
X14581281Y-60611515D01*
X14169136Y-60441899D01*
X13795521Y-60236387D01*
X13460967Y-59995577D01*
X13166011Y-59720070D01*
X12911184Y-59410465D01*
X12697022Y-59067361D01*
X12524058Y-58691358D01*
X12392826Y-58283054D01*
X12351685Y-58108698D01*
X12328394Y-57966713D01*
X12309248Y-57786763D01*
X12294778Y-57582904D01*
X12285517Y-57369194D01*
X12281995Y-57159690D01*
X12284745Y-56968448D01*
X12294297Y-56809524D01*
X12300511Y-56755468D01*
X12384985Y-56312455D01*
X12510745Y-55902368D01*
X12677718Y-55525306D01*
X12885834Y-55181370D01*
X13135022Y-54870658D01*
X13425212Y-54593270D01*
X13756333Y-54349305D01*
X14128314Y-54138863D01*
X14178851Y-54114362D01*
X14460932Y-53990236D01*
X14733212Y-53893283D01*
X15008105Y-53820738D01*
X15298024Y-53769835D01*
X15615384Y-53737808D01*
X15936313Y-53722794D01*
X15947373Y-53722783D01*
X15947373Y-55123194D01*
X15575499Y-55156319D01*
X15215659Y-55223972D01*
X14874991Y-55325426D01*
X14560633Y-55459951D01*
X14279726Y-55626820D01*
X14210731Y-55677181D01*
X14045636Y-55827481D01*
X13887639Y-56016281D01*
X13746314Y-56229275D01*
X13631234Y-56452158D01*
X13556424Y-56654842D01*
X13496620Y-56943182D01*
X13475166Y-57250208D01*
X13492305Y-57557973D01*
X13540768Y-57820147D01*
X13643819Y-58118635D01*
X13793124Y-58393783D01*
X13986075Y-58642425D01*
X14220066Y-58861396D01*
X14492488Y-59047528D01*
X14599476Y-59105892D01*
X14890218Y-59229366D01*
X15214524Y-59322278D01*
X15562719Y-59384484D01*
X15925132Y-59415838D01*
X16292089Y-59416193D01*
X16653919Y-59385404D01*
X17000949Y-59323326D01*
X17323506Y-59229812D01*
X17520227Y-59149907D01*
X17824244Y-58983405D01*
X18087592Y-58784587D01*
X18308910Y-58555531D01*
X18486838Y-58298317D01*
X18620017Y-58015024D01*
X18707086Y-57707733D01*
X18746686Y-57378521D01*
X18749111Y-57270868D01*
X18724594Y-56935508D01*
X18652246Y-56620924D01*
X18533869Y-56329707D01*
X18371269Y-56064449D01*
X18166250Y-55827742D01*
X17920615Y-55622177D01*
X17636168Y-55450346D01*
X17412418Y-55350547D01*
X17063802Y-55238275D01*
X16698663Y-55163444D01*
X16324140Y-55125326D01*
X15947373Y-55123194D01*
X15947373Y-53722783D01*
X16352116Y-53722372D01*
X16729303Y-53745821D01*
X17077328Y-53795011D01*
X17405641Y-53871816D01*
X17723694Y-53978106D01*
X18040940Y-54115754D01*
X18121934Y-54155638D01*
X18454169Y-54350110D01*
X18764826Y-54585767D01*
X19047347Y-54855881D01*
X19295176Y-55153725D01*
X19501754Y-55472573D01*
X19606625Y-55678699D01*
X19712300Y-55927164D01*
X19793321Y-56160238D01*
X19852756Y-56391917D01*
X19893675Y-56636195D01*
X19919148Y-56907067D01*
X19930568Y-57155668D01*
X19934279Y-57432849D01*
X19926312Y-57673264D01*
D12*
X72816666Y947619D02*
X72816666Y233333D01*
X72769047Y90476D01*
X72673809Y-4761D01*
X72530952Y-52380D01*
X72435714Y-52380D01*
X73816666Y-52380D02*
X73245238Y-52380D01*
X73530952Y-52380D02*
X73530952Y947619D01*
X73435714Y804761D01*
X73340476Y709523D01*
X73245238Y661904D01*
X75356733Y-82692342D02*
X75309114Y-82739961D01*
X75166257Y-82787580D01*
X75071019Y-82787580D01*
X74928161Y-82739961D01*
X74832923Y-82644723D01*
X74785304Y-82549485D01*
X74737685Y-82359009D01*
X74737685Y-82216152D01*
X74785304Y-82025676D01*
X74832923Y-81930438D01*
X74928161Y-81835200D01*
X75071019Y-81787580D01*
X75166257Y-81787580D01*
X75309114Y-81835200D01*
X75356733Y-81882819D01*
X76309114Y-82787580D02*
X75737685Y-82787580D01*
X76023400Y-82787580D02*
X76023400Y-81787580D01*
X75928161Y-81930438D01*
X75832923Y-82025676D01*
X75737685Y-82073295D01*
X99648971Y-50904733D02*
X99648971Y-51238066D01*
X100172780Y-51238066D02*
X99172780Y-51238066D01*
X99172780Y-50761876D01*
X100172780Y-49857114D02*
X100172780Y-50428542D01*
X100172780Y-50142828D02*
X99172780Y-50142828D01*
X99315638Y-50238066D01*
X99410876Y-50333304D01*
X99458495Y-50428542D01*
X91674542Y-77444666D02*
X91722161Y-77492285D01*
X91769780Y-77635142D01*
X91769780Y-77730380D01*
X91722161Y-77873238D01*
X91626923Y-77968476D01*
X91531685Y-78016095D01*
X91341209Y-78063714D01*
X91198352Y-78063714D01*
X91007876Y-78016095D01*
X90912638Y-77968476D01*
X90817400Y-77873238D01*
X90769780Y-77730380D01*
X90769780Y-77635142D01*
X90817400Y-77492285D01*
X90865019Y-77444666D01*
X90769780Y-76539904D02*
X90769780Y-77016095D01*
X91245971Y-77063714D01*
X91198352Y-77016095D01*
X91150733Y-76920857D01*
X91150733Y-76682761D01*
X91198352Y-76587523D01*
X91245971Y-76539904D01*
X91341209Y-76492285D01*
X91579304Y-76492285D01*
X91674542Y-76539904D01*
X91722161Y-76587523D01*
X91769780Y-76682761D01*
X91769780Y-76920857D01*
X91722161Y-77016095D01*
X91674542Y-77063714D01*
X59797542Y-76174666D02*
X59845161Y-76222285D01*
X59892780Y-76365142D01*
X59892780Y-76460380D01*
X59845161Y-76603238D01*
X59749923Y-76698476D01*
X59654685Y-76746095D01*
X59464209Y-76793714D01*
X59321352Y-76793714D01*
X59130876Y-76746095D01*
X59035638Y-76698476D01*
X58940400Y-76603238D01*
X58892780Y-76460380D01*
X58892780Y-76365142D01*
X58940400Y-76222285D01*
X58988019Y-76174666D01*
X59226114Y-75317523D02*
X59892780Y-75317523D01*
X58845161Y-75555619D02*
X59559447Y-75793714D01*
X59559447Y-75174666D01*
X65642142Y-89915666D02*
X65689761Y-89963285D01*
X65737380Y-90106142D01*
X65737380Y-90201380D01*
X65689761Y-90344238D01*
X65594523Y-90439476D01*
X65499285Y-90487095D01*
X65308809Y-90534714D01*
X65165952Y-90534714D01*
X64975476Y-90487095D01*
X64880238Y-90439476D01*
X64785000Y-90344238D01*
X64737380Y-90201380D01*
X64737380Y-90106142D01*
X64785000Y-89963285D01*
X64832619Y-89915666D01*
X64737380Y-89058523D02*
X64737380Y-89249000D01*
X64785000Y-89344238D01*
X64832619Y-89391857D01*
X64975476Y-89487095D01*
X65165952Y-89534714D01*
X65546904Y-89534714D01*
X65642142Y-89487095D01*
X65689761Y-89439476D01*
X65737380Y-89344238D01*
X65737380Y-89153761D01*
X65689761Y-89058523D01*
X65642142Y-89010904D01*
X65546904Y-88963285D01*
X65308809Y-88963285D01*
X65213571Y-89010904D01*
X65165952Y-89058523D01*
X65118333Y-89153761D01*
X65118333Y-89344238D01*
X65165952Y-89439476D01*
X65213571Y-89487095D01*
X65308809Y-89534714D01*
X90559542Y-90195066D02*
X90607161Y-90242685D01*
X90654780Y-90385542D01*
X90654780Y-90480780D01*
X90607161Y-90623638D01*
X90511923Y-90718876D01*
X90416685Y-90766495D01*
X90226209Y-90814114D01*
X90083352Y-90814114D01*
X89892876Y-90766495D01*
X89797638Y-90718876D01*
X89702400Y-90623638D01*
X89654780Y-90480780D01*
X89654780Y-90385542D01*
X89702400Y-90242685D01*
X89750019Y-90195066D01*
X89654780Y-89861733D02*
X89654780Y-89242685D01*
X90035733Y-89576019D01*
X90035733Y-89433161D01*
X90083352Y-89337923D01*
X90130971Y-89290304D01*
X90226209Y-89242685D01*
X90464304Y-89242685D01*
X90559542Y-89290304D01*
X90607161Y-89337923D01*
X90654780Y-89433161D01*
X90654780Y-89718876D01*
X90607161Y-89814114D01*
X90559542Y-89861733D01*
X51951542Y-90118866D02*
X51999161Y-90166485D01*
X52046780Y-90309342D01*
X52046780Y-90404580D01*
X51999161Y-90547438D01*
X51903923Y-90642676D01*
X51808685Y-90690295D01*
X51618209Y-90737914D01*
X51475352Y-90737914D01*
X51284876Y-90690295D01*
X51189638Y-90642676D01*
X51094400Y-90547438D01*
X51046780Y-90404580D01*
X51046780Y-90309342D01*
X51094400Y-90166485D01*
X51142019Y-90118866D01*
X51142019Y-89737914D02*
X51094400Y-89690295D01*
X51046780Y-89595057D01*
X51046780Y-89356961D01*
X51094400Y-89261723D01*
X51142019Y-89214104D01*
X51237257Y-89166485D01*
X51332495Y-89166485D01*
X51475352Y-89214104D01*
X52046780Y-89785533D01*
X52046780Y-89166485D01*
X89432380Y-88463333D02*
X90146666Y-88463333D01*
X90289523Y-88510952D01*
X90384761Y-88606190D01*
X90432380Y-88749047D01*
X90432380Y-88844285D01*
X89527619Y-88034761D02*
X89480000Y-87987142D01*
X89432380Y-87891904D01*
X89432380Y-87653809D01*
X89480000Y-87558571D01*
X89527619Y-87510952D01*
X89622857Y-87463333D01*
X89718095Y-87463333D01*
X89860952Y-87510952D01*
X90432380Y-88082380D01*
X90432380Y-87463333D01*
X41878380Y-59740704D02*
X42687904Y-59740704D01*
X42783142Y-59693085D01*
X42830761Y-59645466D01*
X42878380Y-59550228D01*
X42878380Y-59359752D01*
X42830761Y-59264514D01*
X42783142Y-59216895D01*
X42687904Y-59169276D01*
X41878380Y-59169276D01*
X42878380Y-58169276D02*
X42878380Y-58740704D01*
X42878380Y-58454990D02*
X41878380Y-58454990D01*
X42021238Y-58550228D01*
X42116476Y-58645466D01*
X42164095Y-58740704D01*
X70343733Y-84752180D02*
X69867542Y-84752180D01*
X69867542Y-83752180D01*
X71200876Y-84752180D02*
X70629447Y-84752180D01*
X70915161Y-84752180D02*
X70915161Y-83752180D01*
X70819923Y-83895038D01*
X70724685Y-83990276D01*
X70629447Y-84037895D01*
M02*
