G04 #@! TF.GenerationSoftware,KiCad,Pcbnew,(5.1.0-1152-gc9ccd8a64)*
G04 #@! TF.CreationDate,2019-08-01T10:24:24-04:00*
G04 #@! TF.ProjectId,UPS,5550532e-6b69-4636-9164-5f7063625858,rev?*
G04 #@! TF.SameCoordinates,Original*
G04 #@! TF.FileFunction,Copper,L2,Bot*
G04 #@! TF.FilePolarity,Positive*
%FSLAX46Y46*%
G04 Gerber Fmt 4.6, Leading zero omitted, Abs format (unit mm)*
G04 Created by KiCad (PCBNEW (5.1.0-1152-gc9ccd8a64)) date 2019-08-01 10:24:24*
%MOMM*%
%LPD*%
G04 APERTURE LIST*
%ADD10O,2.000000X3.600000*%
%ADD11C,0.100000*%
%ADD12C,2.000000*%
%ADD13C,2.400000*%
%ADD14C,1.600000*%
%ADD15O,2.200000X1.740000*%
%ADD16C,1.740000*%
%ADD17O,2.500000X3.000000*%
%ADD18C,3.000000*%
%ADD19C,0.800000*%
%ADD20C,5.400000*%
%ADD21C,0.250000*%
%ADD22C,2.000000*%
G04 APERTURE END LIST*
D10*
X75650000Y-5600000D03*
D11*
G36*
X71495671Y-3819030D02*
G01*
X71576777Y-3873223D01*
X71630970Y-3954329D01*
X71650000Y-4050000D01*
X71650000Y-7150000D01*
X71630970Y-7245671D01*
X71576777Y-7326777D01*
X71495671Y-7380970D01*
X71400000Y-7400000D01*
X69900000Y-7400000D01*
X69804329Y-7380970D01*
X69723223Y-7326777D01*
X69669030Y-7245671D01*
X69650000Y-7150000D01*
X69650000Y-4050000D01*
X69669030Y-3954329D01*
X69723223Y-3873223D01*
X69804329Y-3819030D01*
X69900000Y-3800000D01*
X71400000Y-3800000D01*
X71495671Y-3819030D01*
X71495671Y-3819030D01*
G37*
D12*
X70650000Y-5600000D03*
X71773400Y-72085200D03*
X79273400Y-72085200D03*
D13*
X94640400Y-68351400D03*
X94640400Y-31351400D03*
X94767400Y-73403000D03*
X94767400Y-81153000D03*
X62890400Y-72133000D03*
X62890400Y-79883000D03*
D14*
X57785000Y-92249000D03*
X57785000Y-87249000D03*
X82702400Y-92528400D03*
X82702400Y-87528400D03*
X44094400Y-92452200D03*
X44094400Y-87452200D03*
D15*
X94100000Y-86860000D03*
D11*
G36*
X95045671Y-88549030D02*
G01*
X95126777Y-88603223D01*
X95180970Y-88684329D01*
X95200000Y-88779999D01*
X95200000Y-90020001D01*
X95180970Y-90115671D01*
X95126777Y-90196777D01*
X95045671Y-90250970D01*
X94950001Y-90270000D01*
X93249999Y-90270000D01*
X93154329Y-90250970D01*
X93073223Y-90196777D01*
X93019030Y-90115671D01*
X93000000Y-90020001D01*
X93000000Y-88779999D01*
X93019030Y-88684329D01*
X93073223Y-88603223D01*
X93154329Y-88549030D01*
X93249999Y-88530000D01*
X94950001Y-88530000D01*
X95045671Y-88549030D01*
X95045671Y-88549030D01*
G37*
D16*
X94100000Y-89400000D03*
D17*
X54676000Y-69978800D03*
X34176000Y-69978800D03*
X37176000Y-69978800D03*
X40176000Y-69978800D03*
X45676000Y-69978800D03*
X48676000Y-69978800D03*
X31176000Y-69978800D03*
X35376000Y-47978800D03*
X38376000Y-47978800D03*
X32376000Y-47978800D03*
X41376000Y-47978800D03*
D18*
X47376000Y-47978800D03*
X53376000Y-47978800D03*
D17*
X51676000Y-69978800D03*
D19*
X6431891Y-3568109D03*
X5000000Y-2975000D03*
X3568109Y-3568109D03*
X2975000Y-5000000D03*
X3568109Y-6431891D03*
X5000000Y-7025000D03*
X6431891Y-6431891D03*
X7025000Y-5000000D03*
D20*
X5000000Y-5000000D03*
X5000000Y-95000000D03*
D19*
X7025000Y-95000000D03*
X6431891Y-96431891D03*
X5000000Y-97025000D03*
X3568109Y-96431891D03*
X2975000Y-95000000D03*
X3568109Y-93568109D03*
X5000000Y-92975000D03*
X6431891Y-93568109D03*
X96431891Y-3568109D03*
X95000000Y-2975000D03*
X93568109Y-3568109D03*
X92975000Y-5000000D03*
X93568109Y-6431891D03*
X95000000Y-7025000D03*
X96431891Y-6431891D03*
X97025000Y-5000000D03*
D20*
X95000000Y-5000000D03*
X95000000Y-95000000D03*
D19*
X97025000Y-95000000D03*
X96431891Y-96431891D03*
X95000000Y-97025000D03*
X93568109Y-96431891D03*
X92975000Y-95000000D03*
X93568109Y-93568109D03*
X95000000Y-92975000D03*
X96431891Y-93568109D03*
D21*
X41376000Y-44226600D02*
X69026800Y-16575800D01*
X70650000Y-5600000D02*
X69579290Y-6670710D01*
X69579290Y-6670710D02*
X69579290Y-16023310D01*
X69579290Y-16023310D02*
X69026800Y-16575800D01*
X83282800Y-19993800D02*
X83282800Y-7692400D01*
X94640400Y-31351400D02*
X83282800Y-19993800D01*
X83282800Y-7692400D02*
X81190400Y-5600000D01*
X81190400Y-5600000D02*
X75650000Y-5600000D01*
X41376000Y-47978800D02*
X41376000Y-44226600D01*
X79273400Y-61391800D02*
X65860400Y-47978800D01*
X79273400Y-72085200D02*
X79273400Y-61391800D01*
X65860400Y-47978800D02*
X53376000Y-47978800D01*
X62890400Y-72133000D02*
X62890400Y-64693800D01*
X62890400Y-64693800D02*
X58089800Y-59893200D01*
X71773400Y-72085200D02*
X62938200Y-72085200D01*
X62938200Y-72085200D02*
X62890400Y-72133000D01*
X79273400Y-72085200D02*
X93449600Y-72085200D01*
X93449600Y-72085200D02*
X94767400Y-73403000D01*
X41376000Y-49728800D02*
X51540400Y-59893200D01*
X41376000Y-47978800D02*
X41376000Y-49728800D01*
X51540400Y-59893200D02*
X58089800Y-59893200D01*
X41376000Y-47728800D02*
X41376000Y-47978800D01*
X94640400Y-68351400D02*
X94640400Y-73276000D01*
X94640400Y-73276000D02*
X94767400Y-73403000D01*
D22*
X90101800Y-86860000D02*
X94100000Y-86860000D01*
X82702400Y-92528400D02*
X84433400Y-92528400D01*
X84433400Y-92528400D02*
X90101800Y-86860000D01*
M02*
