M48
; DRILL file {KiCad (5.1.0-1152-gc9ccd8a64)} date 2019-08-07 8:54:50 PM
; FORMAT={-:-/ absolute / inch / decimal}
; #@! TF.CreationDate,2019-08-07T20:54:50-04:00
; #@! TF.GenerationSoftware,Kicad,Pcbnew,(5.1.0-1152-gc9ccd8a64)
FMAT,2
INCH
T1C0.0197
T2C0.0315
T3C0.0394
T4C0.0472
T5C0.0551
T6C0.1063
%
G90
G05
T1
X0.1171Y-3.7402
X0.1405Y-3.6838
X0.1969Y-3.6604
X0.1969Y-3.8199
X0.1171Y-0.1969
X0.1405Y-0.1405
X0.1405Y-0.2532
X0.1969Y-0.1171
X0.1969Y-0.2766
X0.2532Y-0.1405
X0.1405Y-3.7965
X0.2532Y-0.2532
X0.2766Y-0.1969
X0.2532Y-3.6838
X0.2532Y-3.7965
X0.2766Y-3.7402
X3.6604Y-3.7402
X3.6838Y-3.6838
X3.6838Y-3.7965
X3.7402Y-3.6604
X3.7402Y-3.8199
X3.7965Y-3.6838
X3.7965Y-3.7965
X3.8199Y-3.7402
X3.6604Y-0.1969
X3.6838Y-0.1405
X3.6838Y-0.2532
X3.7402Y-0.1171
X3.7402Y-0.2766
X3.7965Y-0.1405
X3.7965Y-0.2532
X3.8199Y-0.1969
T2
X2.275Y-3.435
X2.275Y-3.6319
X1.736Y-3.443
X1.736Y-3.6399
X3.256Y-3.446
X3.256Y-3.6429
T3
X2.8257Y-2.838
X3.121Y-2.838
T4
X3.7047Y-3.4197
X3.7047Y-3.5197
X2.476Y-2.8399
X2.476Y-3.145
X3.731Y-2.8899
X3.731Y-3.195
X3.726Y-1.2343
X3.726Y-2.691
T5
X2.7815Y-0.2205
X2.9783Y-0.2205
X1.2274Y-2.7551
X1.2746Y-1.8889
X1.3455Y-2.7551
X1.3928Y-1.8889
X1.4636Y-2.7551
X1.5109Y-1.8889
X1.5817Y-2.7551
X1.629Y-1.8889
X1.7983Y-2.7551
X1.8652Y-1.8889
X1.9164Y-2.7551
X2.0345Y-2.7551
X2.1014Y-1.8889
X2.1526Y-2.7551
T6
X0.1969Y-0.1969
X0.1969Y-3.7402
X3.7402Y-3.7402
X3.7402Y-0.1969
T0
M30
