G04 #@! TF.GenerationSoftware,KiCad,Pcbnew,6.0.0-rc1-unknown-5edf350~66~ubuntu18.10.1*
G04 #@! TF.CreationDate,2019-02-07T09:44:38-05:00
G04 #@! TF.ProjectId,UPS,5550532e-6b69-4636-9164-5f7063625858,rev?*
G04 #@! TF.SameCoordinates,Original*
G04 #@! TF.FileFunction,Copper,L2,Bot*
G04 #@! TF.FilePolarity,Positive*
%FSLAX46Y46*%
G04 Gerber Fmt 4.6, Leading zero omitted, Abs format (unit mm)*
G04 Created by KiCad (PCBNEW 6.0.0-rc1-unknown-5edf350~66~ubuntu18.10.1) date 2019-02-07 09:44:38*
%MOMM*%
%LPD*%
G04 APERTURE LIST*
%ADD10C,2.350000*%
%ADD11R,2.500000X2.500000*%
%ADD12C,2.500000*%
%ADD13C,2.400000*%
%ADD14R,2.400000X2.400000*%
%ADD15C,2.000000*%
%ADD16R,2.000000X2.000000*%
%ADD17O,2.000000X2.600000*%
%ADD18R,2.000000X2.600000*%
%ADD19C,2.250000*%
%ADD20C,0.800000*%
%ADD21C,5.400000*%
%ADD22R,0.750000X1.200000*%
%ADD23R,1.200000X0.750000*%
%ADD24R,1.200000X0.900000*%
%ADD25R,0.900000X1.200000*%
%ADD26R,2.400000X2.500000*%
%ADD27O,1.600000X1.600000*%
%ADD28C,1.600000*%
%ADD29R,1.450000X0.450000*%
%ADD30R,0.800000X0.700000*%
%ADD31R,4.290000X4.500000*%
%ADD32R,1.600000X1.550000*%
%ADD33R,1.200000X1.550000*%
%ADD34C,0.250000*%
%ADD35C,2.000000*%
%ADD36C,1.000000*%
%ADD37C,0.254000*%
G04 APERTURE END LIST*
D10*
X29460000Y-2960000D03*
X29460000Y-8040000D03*
X14140000Y-2960000D03*
X14140000Y-8040000D03*
X32000000Y-5500000D03*
X26920000Y-5500000D03*
X11600000Y-5500000D03*
X16680000Y-5500000D03*
D11*
X8000000Y-22000000D03*
D12*
X8000000Y-17000000D03*
D13*
X24500000Y-24000000D03*
D14*
X24500000Y-16500000D03*
D15*
X88000000Y-12000000D03*
D16*
X88000000Y-19500000D03*
X74000000Y-19500000D03*
D15*
X74000000Y-12000000D03*
D17*
X86860000Y-5900000D03*
D18*
X89400000Y-5900000D03*
D19*
X50000000Y-28000000D03*
X53000000Y-28000000D03*
X56000000Y-28000000D03*
X63000000Y-28000000D03*
X49000000Y-4000000D03*
X54000000Y-4000000D03*
X57000000Y-4000000D03*
X60000000Y-4000000D03*
X63000000Y-4000000D03*
X41000000Y-4000000D03*
D20*
X6431891Y-3568109D03*
X5000000Y-2975000D03*
X3568109Y-3568109D03*
X2975000Y-5000000D03*
X3568109Y-6431891D03*
X5000000Y-7025000D03*
X6431891Y-6431891D03*
X7025000Y-5000000D03*
D21*
X5000000Y-5000000D03*
X5000000Y-95000000D03*
D20*
X7025000Y-95000000D03*
X6431891Y-96431891D03*
X5000000Y-97025000D03*
X3568109Y-96431891D03*
X2975000Y-95000000D03*
X3568109Y-93568109D03*
X5000000Y-92975000D03*
X6431891Y-93568109D03*
X96431891Y-3568109D03*
X95000000Y-2975000D03*
X93568109Y-3568109D03*
X92975000Y-5000000D03*
X93568109Y-6431891D03*
X95000000Y-7025000D03*
X96431891Y-6431891D03*
X97025000Y-5000000D03*
D21*
X95000000Y-5000000D03*
X95000000Y-95000000D03*
D20*
X97025000Y-95000000D03*
X96431891Y-96431891D03*
X95000000Y-97025000D03*
X93568109Y-96431891D03*
X92975000Y-95000000D03*
X93568109Y-93568109D03*
X95000000Y-92975000D03*
X96431891Y-93568109D03*
D22*
X69883867Y-44197580D03*
X69883867Y-46097580D03*
D23*
X67333867Y-38697580D03*
X65433867Y-38697580D03*
D22*
X69883867Y-50597580D03*
X69883867Y-48697580D03*
D23*
X65433867Y-42197580D03*
X67333867Y-42197580D03*
X68333867Y-59697580D03*
X66433867Y-59697580D03*
D22*
X69883867Y-53747580D03*
X69883867Y-55647580D03*
D23*
X60433867Y-59697580D03*
X62333867Y-59697580D03*
X55383867Y-59697580D03*
X53483867Y-59697580D03*
D24*
X73983867Y-38697580D03*
X71783867Y-38697580D03*
X71783867Y-44197580D03*
X73983867Y-44197580D03*
X73983867Y-48697580D03*
X71783867Y-48697580D03*
X71783867Y-53697580D03*
X73983867Y-53697580D03*
D25*
X64383867Y-62297580D03*
X64383867Y-60097580D03*
X58383867Y-62297580D03*
X58383867Y-60097580D03*
D26*
X64533867Y-65197580D03*
X58233867Y-65197580D03*
D24*
X47383867Y-47197580D03*
X45183867Y-47197580D03*
X44083867Y-73697580D03*
X41883867Y-73697580D03*
D25*
X44383867Y-60597580D03*
X44383867Y-62797580D03*
X30383867Y-63197580D03*
X30383867Y-60997580D03*
D24*
X27683867Y-73697580D03*
X29883867Y-73697580D03*
X47483867Y-50697580D03*
X45283867Y-50697580D03*
D27*
X40883867Y-48777580D03*
D28*
X40883867Y-43697580D03*
D29*
X55433867Y-45772580D03*
X55433867Y-46422580D03*
X55433867Y-47072580D03*
X55433867Y-47722580D03*
X55433867Y-48372580D03*
X55433867Y-49022580D03*
X55433867Y-49672580D03*
X55433867Y-50322580D03*
X55433867Y-50972580D03*
X55433867Y-51622580D03*
X61333867Y-51622580D03*
X61333867Y-50972580D03*
X61333867Y-50322580D03*
X61333867Y-49672580D03*
X61333867Y-49022580D03*
X61333867Y-48372580D03*
X61333867Y-47722580D03*
X61333867Y-47072580D03*
X61333867Y-46422580D03*
X61333867Y-45772580D03*
D30*
X41133867Y-66287580D03*
X41133867Y-67557580D03*
X41133867Y-68837580D03*
X41133867Y-70107580D03*
X35633867Y-70107580D03*
X35633867Y-68837580D03*
X35633867Y-67557580D03*
X35633867Y-66287580D03*
D31*
X37883867Y-68197580D03*
D32*
X37133867Y-67107580D03*
X37133867Y-69287580D03*
D33*
X39133867Y-67107580D03*
X39133867Y-69287580D03*
X28133867Y-69287580D03*
X28133867Y-67107580D03*
D32*
X26133867Y-69287580D03*
X26133867Y-67107580D03*
D31*
X26883867Y-68197580D03*
D30*
X24633867Y-66287580D03*
X24633867Y-67557580D03*
X24633867Y-68837580D03*
X24633867Y-70107580D03*
X30133867Y-70107580D03*
X30133867Y-68837580D03*
X30133867Y-67557580D03*
X30133867Y-66287580D03*
D20*
X79000000Y-42500000D03*
X67250000Y-36250000D03*
X71500000Y-65000000D03*
X77000000Y-84500000D03*
X78000000Y-84500000D03*
X79000000Y-84500000D03*
X80000000Y-84500000D03*
X81000000Y-84500000D03*
X82000000Y-84500000D03*
X83000000Y-84500000D03*
X84000000Y-84500000D03*
X76000000Y-85500000D03*
X77000000Y-85500000D03*
X78000000Y-85500000D03*
X79000000Y-85500000D03*
X80000000Y-85500000D03*
X81000000Y-85500000D03*
X82000000Y-85500000D03*
X83000000Y-85500000D03*
X84000000Y-85500000D03*
X85000000Y-85500000D03*
X77000000Y-86500000D03*
X78000000Y-86500000D03*
X79000000Y-86500000D03*
X80000000Y-86500000D03*
X81000000Y-86500000D03*
X82000000Y-86500000D03*
X83000000Y-86500000D03*
X84000000Y-86500000D03*
X76000000Y-87500000D03*
X77000000Y-87500000D03*
X78000000Y-87500000D03*
X79000000Y-87500000D03*
X80000000Y-87500000D03*
X81000000Y-87500000D03*
X82000000Y-87500000D03*
X83000000Y-87500000D03*
X84000000Y-87500000D03*
X85000000Y-87500000D03*
X77000000Y-88500000D03*
X78000000Y-88500000D03*
X79000000Y-88500000D03*
X80000000Y-88500000D03*
X81000000Y-88500000D03*
X82000000Y-88500000D03*
X83000000Y-88500000D03*
X84000000Y-88500000D03*
X76000000Y-89500000D03*
X77000000Y-89500000D03*
X78000000Y-89500000D03*
X79000000Y-89500000D03*
X80000000Y-89500000D03*
X81000000Y-89500000D03*
X82000000Y-89500000D03*
X83000000Y-89500000D03*
X84000000Y-89500000D03*
X85000000Y-89500000D03*
X77000000Y-90500000D03*
X78000000Y-90500000D03*
X79000000Y-90500000D03*
X80000000Y-90500000D03*
X81000000Y-90500000D03*
X82000000Y-90500000D03*
X83000000Y-90500000D03*
X84000000Y-90500000D03*
X76000000Y-91500000D03*
X77000000Y-91500000D03*
X78000000Y-91500000D03*
X79000000Y-91500000D03*
X80000000Y-91500000D03*
X81000000Y-91500000D03*
X82000000Y-91500000D03*
X83000000Y-91500000D03*
X84000000Y-91500000D03*
X85000000Y-91500000D03*
X77000000Y-92500000D03*
X78000000Y-92500000D03*
X79000000Y-92500000D03*
X80000000Y-92500000D03*
X81000000Y-92500000D03*
X82000000Y-92500000D03*
X83000000Y-92500000D03*
X84000000Y-92500000D03*
X77000000Y-93500000D03*
X78000000Y-93500000D03*
X79000000Y-93500000D03*
X80000000Y-93500000D03*
X81000000Y-93500000D03*
X82000000Y-93500000D03*
X83000000Y-93500000D03*
X84000000Y-93500000D03*
X43000000Y-65499996D03*
X43000000Y-70000000D03*
X32383867Y-63197580D03*
X32383867Y-70197580D03*
D34*
X73983867Y-47516133D02*
X79000000Y-42500000D01*
X73983867Y-48697580D02*
X73983867Y-47516133D01*
X73983867Y-38697580D02*
X73983867Y-44197580D01*
X73983867Y-19516133D02*
X74000000Y-19500000D01*
X71386287Y-36250000D02*
X67250000Y-36250000D01*
X73833867Y-38697580D02*
X71386287Y-36250000D01*
X73983867Y-38697580D02*
X73833867Y-38697580D01*
X73983867Y-53697580D02*
X73983867Y-62516133D01*
X73983867Y-62516133D02*
X71500000Y-65000000D01*
X27683867Y-68997580D02*
X26883867Y-68197580D01*
X27683867Y-73697580D02*
X27683867Y-68997580D01*
D35*
X61875001Y-29124999D02*
X63000000Y-28000000D01*
X55000000Y-36000000D02*
X61875001Y-29124999D01*
X37500000Y-36000000D02*
X55000000Y-36000000D01*
X26883867Y-46616133D02*
X37500000Y-36000000D01*
D34*
X27070154Y-50697580D02*
X26883867Y-50883867D01*
X45283867Y-50697580D02*
X27070154Y-50697580D01*
D35*
X26883867Y-68197580D02*
X26883867Y-50883867D01*
X26883867Y-50883867D02*
X26883867Y-46616133D01*
D36*
X24633867Y-66287580D02*
X24633867Y-70107580D01*
X26243867Y-67557580D02*
X26883867Y-68197580D01*
X24633867Y-67557580D02*
X26243867Y-67557580D01*
D35*
X81000000Y-15500000D02*
X85000000Y-19500000D01*
X63909010Y-15500000D02*
X81000000Y-15500000D01*
X53000000Y-28000000D02*
X53000000Y-26409010D01*
X85000000Y-19500000D02*
X88000000Y-19500000D01*
X53000000Y-26409010D02*
X63909010Y-15500000D01*
D34*
X57758867Y-47722580D02*
X55433867Y-47722580D01*
X61333867Y-50322580D02*
X60358867Y-50322580D01*
X60358867Y-50322580D02*
X57758867Y-47722580D01*
X69883867Y-44422580D02*
X69883867Y-44197580D01*
X61333867Y-47072580D02*
X67233867Y-47072580D01*
X67233867Y-47072580D02*
X69883867Y-44422580D01*
X69883867Y-44197580D02*
X71783867Y-44197580D01*
X61333867Y-47072580D02*
X61333867Y-48372580D01*
X71783867Y-38697580D02*
X67333867Y-38697580D01*
X63418869Y-45772580D02*
X62308867Y-45772580D01*
X62308867Y-45772580D02*
X61333867Y-45772580D01*
X66408866Y-40247581D02*
X66408866Y-42782583D01*
X67333867Y-38697580D02*
X67333867Y-39322580D01*
X66408866Y-42782583D02*
X63418869Y-45772580D01*
X67333867Y-39322580D02*
X66408866Y-40247581D01*
X71783867Y-48697580D02*
X69883867Y-48697580D01*
X62308867Y-49022580D02*
X61333867Y-49022580D01*
X68933867Y-49022580D02*
X62308867Y-49022580D01*
X69883867Y-48697580D02*
X69258867Y-48697580D01*
X69258867Y-48697580D02*
X68933867Y-49022580D01*
X67333867Y-42822580D02*
X67333867Y-42197580D01*
X61333867Y-46422580D02*
X63733867Y-46422580D01*
X63733867Y-46422580D02*
X67333867Y-42822580D01*
X64383867Y-59247580D02*
X64383867Y-60097580D01*
X64383867Y-53047580D02*
X64383867Y-59247580D01*
X61333867Y-50972580D02*
X62308867Y-50972580D01*
X62308867Y-50972580D02*
X64383867Y-53047580D01*
X64783867Y-59697580D02*
X64383867Y-60097580D01*
X66433867Y-59697580D02*
X64783867Y-59697580D01*
X63983867Y-59697580D02*
X64383867Y-60097580D01*
X62333867Y-59697580D02*
X63983867Y-59697580D01*
X69933867Y-53697580D02*
X69883867Y-53747580D01*
X71783867Y-53697580D02*
X69933867Y-53697580D01*
X69883867Y-53747580D02*
X68933867Y-53747580D01*
X64858867Y-49672580D02*
X61333867Y-49672580D01*
X68933867Y-53747580D02*
X64858867Y-49672580D01*
X60658867Y-59697580D02*
X60433867Y-59697580D01*
X61333867Y-51622580D02*
X61333867Y-59022580D01*
X61333867Y-59022580D02*
X60658867Y-59697580D01*
X58783867Y-59697580D02*
X58383867Y-60097580D01*
X60433867Y-59697580D02*
X58783867Y-59697580D01*
X55783867Y-60097580D02*
X55383867Y-59697580D01*
X58383867Y-60097580D02*
X55783867Y-60097580D01*
X58383867Y-65047580D02*
X58233867Y-65197580D01*
X58383867Y-62297580D02*
X58383867Y-65047580D01*
D36*
X41133867Y-68837580D02*
X41133867Y-66287580D01*
D35*
X58233867Y-65197580D02*
X55033867Y-65197580D01*
X55033867Y-65197580D02*
X52673867Y-67557580D01*
D34*
X44083867Y-68083867D02*
X43557580Y-67557580D01*
D35*
X52673867Y-67557580D02*
X43557580Y-67557580D01*
D34*
X44083867Y-73697580D02*
X44083867Y-68083867D01*
D35*
X43557580Y-67557580D02*
X41228868Y-67557580D01*
D34*
X55433867Y-48372580D02*
X54458867Y-48372580D01*
X48233867Y-47197580D02*
X47383867Y-47197580D01*
X53283867Y-47197580D02*
X48233867Y-47197580D01*
X54458867Y-48372580D02*
X53283867Y-47197580D01*
X40883867Y-48777580D02*
X52963867Y-48777580D01*
X53208867Y-49022580D02*
X55433867Y-49022580D01*
X52963867Y-48777580D02*
X53208867Y-49022580D01*
X42463867Y-47197580D02*
X40883867Y-48777580D01*
X45183867Y-47197580D02*
X42463867Y-47197580D01*
X41883867Y-72997580D02*
X41883867Y-73697580D01*
X41883867Y-70807580D02*
X41883867Y-72997580D01*
X41133867Y-70107580D02*
X41183867Y-70107580D01*
X41183867Y-70107580D02*
X41883867Y-70807580D01*
X43399999Y-65099997D02*
X43000000Y-65499996D01*
X44383867Y-64116129D02*
X43399999Y-65099997D01*
X44383867Y-62797580D02*
X44383867Y-64116129D01*
X41241447Y-70000000D02*
X41133867Y-70107580D01*
X43000000Y-70000000D02*
X41241447Y-70000000D01*
X54458867Y-51622580D02*
X55433867Y-51622580D01*
X53208867Y-51622580D02*
X54458867Y-51622580D01*
X44383867Y-60597580D02*
X44383867Y-60447580D01*
X44383867Y-60447580D02*
X53208867Y-51622580D01*
X30133867Y-73447580D02*
X29883867Y-73697580D01*
X30133867Y-70107580D02*
X30133867Y-73447580D01*
X30383867Y-63197580D02*
X32383867Y-63197580D01*
X30223867Y-70197580D02*
X30133867Y-70107580D01*
X32383867Y-70197580D02*
X30223867Y-70197580D01*
X55433867Y-50322580D02*
X52258867Y-50322580D01*
X52258867Y-50322580D02*
X44883867Y-57697580D01*
X44883867Y-57697580D02*
X32383867Y-57697580D01*
X30383867Y-59697580D02*
X30383867Y-60997580D01*
X32383867Y-57697580D02*
X30383867Y-59697580D01*
X47483867Y-49997580D02*
X47483867Y-50697580D01*
X55433867Y-49672580D02*
X47808867Y-49672580D01*
X47808867Y-49672580D02*
X47483867Y-49997580D01*
D36*
X35633867Y-66287580D02*
X35633867Y-70107580D01*
X37243867Y-67557580D02*
X37883867Y-68197580D01*
X35633867Y-67557580D02*
X37243867Y-67557580D01*
X30133867Y-66287580D02*
X30133867Y-68837580D01*
D35*
X33098867Y-67557580D02*
X30228868Y-67557580D01*
X37883867Y-68197580D02*
X33738867Y-68197580D01*
X33738867Y-68197580D02*
X33098867Y-67557580D01*
D37*
G36*
X12648546Y-33333443D02*
G01*
X12448275Y-33633170D01*
X12310325Y-33966209D01*
X12240000Y-34319761D01*
X12240000Y-34680239D01*
X12310325Y-35033791D01*
X12448275Y-35366830D01*
X12648546Y-35666557D01*
X12903443Y-35921454D01*
X13203170Y-36121725D01*
X13536209Y-36259675D01*
X13889761Y-36330000D01*
X14250239Y-36330000D01*
X14603791Y-36259675D01*
X14936830Y-36121725D01*
X15236557Y-35921454D01*
X15491454Y-35666557D01*
X15691725Y-35366830D01*
X15829675Y-35033791D01*
X15900000Y-34680239D01*
X15900000Y-34319761D01*
X15829675Y-33966209D01*
X15691725Y-33633170D01*
X15491454Y-33333443D01*
X15285011Y-33127000D01*
X55560762Y-33127000D01*
X54322762Y-34365000D01*
X37580319Y-34365000D01*
X37499999Y-34357089D01*
X37419680Y-34365000D01*
X37419678Y-34365000D01*
X37179484Y-34388657D01*
X36871285Y-34482148D01*
X36587248Y-34633969D01*
X36338286Y-34838286D01*
X36287080Y-34900681D01*
X25784549Y-45403213D01*
X25722154Y-45454419D01*
X25517837Y-45703381D01*
X25366015Y-45987419D01*
X25272525Y-46295617D01*
X25240956Y-46616133D01*
X25248868Y-46696462D01*
X25248867Y-50964188D01*
X25248868Y-50964198D01*
X25248867Y-65309508D01*
X25211760Y-65309508D01*
X25070313Y-65233904D01*
X24856365Y-65169003D01*
X24633867Y-65147089D01*
X24411368Y-65169003D01*
X24197420Y-65233904D01*
X24000244Y-65339296D01*
X23989274Y-65348299D01*
X23879373Y-65407043D01*
X23782682Y-65486395D01*
X23703330Y-65583086D01*
X23644365Y-65693400D01*
X23617941Y-65780507D01*
X23580191Y-65851134D01*
X23515290Y-66065082D01*
X23498867Y-66231829D01*
X23498867Y-67501825D01*
X23493376Y-67557580D01*
X23498867Y-67613335D01*
X23498868Y-70163332D01*
X23515291Y-70330079D01*
X23580192Y-70544027D01*
X23617940Y-70614650D01*
X23644365Y-70701760D01*
X23703330Y-70812074D01*
X23782682Y-70908765D01*
X23879373Y-70988117D01*
X23989277Y-71046863D01*
X24000245Y-71055864D01*
X24197421Y-71161256D01*
X24411369Y-71226157D01*
X24633867Y-71248071D01*
X24856366Y-71226157D01*
X25070314Y-71161256D01*
X25211760Y-71085652D01*
X26923868Y-71085652D01*
X26923867Y-72632542D01*
X26839687Y-72658078D01*
X26729373Y-72717043D01*
X26632682Y-72796395D01*
X26553330Y-72893086D01*
X26494365Y-73003400D01*
X26458055Y-73123098D01*
X26445795Y-73247580D01*
X26445795Y-74147580D01*
X26458055Y-74272062D01*
X26494365Y-74391760D01*
X26553330Y-74502074D01*
X26632682Y-74598765D01*
X26729373Y-74678117D01*
X26839687Y-74737082D01*
X26959385Y-74773392D01*
X27083867Y-74785652D01*
X28283867Y-74785652D01*
X28408349Y-74773392D01*
X28528047Y-74737082D01*
X28638361Y-74678117D01*
X28735052Y-74598765D01*
X28783867Y-74539284D01*
X28832682Y-74598765D01*
X28929373Y-74678117D01*
X29039687Y-74737082D01*
X29159385Y-74773392D01*
X29283867Y-74785652D01*
X30483867Y-74785652D01*
X30608349Y-74773392D01*
X30728047Y-74737082D01*
X30838361Y-74678117D01*
X30935052Y-74598765D01*
X31014404Y-74502074D01*
X31073369Y-74391760D01*
X31109679Y-74272062D01*
X31121939Y-74147580D01*
X31121939Y-73247580D01*
X31109679Y-73123098D01*
X31073369Y-73003400D01*
X31014404Y-72893086D01*
X30935052Y-72796395D01*
X30893867Y-72762595D01*
X30893867Y-70983598D01*
X30925571Y-70957580D01*
X31680156Y-70957580D01*
X31724093Y-71001517D01*
X31893611Y-71114785D01*
X32081969Y-71192806D01*
X32281928Y-71232580D01*
X32485806Y-71232580D01*
X32685765Y-71192806D01*
X32874123Y-71114785D01*
X33043641Y-71001517D01*
X33187804Y-70857354D01*
X33301072Y-70687836D01*
X33379093Y-70499478D01*
X33418867Y-70299519D01*
X33418867Y-70095641D01*
X33379093Y-69895682D01*
X33332350Y-69782835D01*
X33418350Y-69808923D01*
X33738867Y-69840491D01*
X33819189Y-69832580D01*
X34498868Y-69832580D01*
X34498868Y-70163332D01*
X34515291Y-70330079D01*
X34580192Y-70544027D01*
X34617940Y-70614650D01*
X34644365Y-70701760D01*
X34703330Y-70812074D01*
X34782682Y-70908765D01*
X34879373Y-70988117D01*
X34989277Y-71046863D01*
X35000245Y-71055864D01*
X35197421Y-71161256D01*
X35411369Y-71226157D01*
X35633867Y-71248071D01*
X35856366Y-71226157D01*
X36070314Y-71161256D01*
X36211760Y-71085652D01*
X40028867Y-71085652D01*
X40153349Y-71073392D01*
X40273047Y-71037082D01*
X40373567Y-70983352D01*
X40379373Y-70988117D01*
X40489687Y-71047082D01*
X40609385Y-71083392D01*
X40733867Y-71095652D01*
X41097137Y-71095652D01*
X41123867Y-71122382D01*
X41123868Y-72632542D01*
X41039687Y-72658078D01*
X40929373Y-72717043D01*
X40832682Y-72796395D01*
X40753330Y-72893086D01*
X40694365Y-73003400D01*
X40658055Y-73123098D01*
X40645795Y-73247580D01*
X40645795Y-74147580D01*
X40658055Y-74272062D01*
X40694365Y-74391760D01*
X40753330Y-74502074D01*
X40832682Y-74598765D01*
X40929373Y-74678117D01*
X41039687Y-74737082D01*
X41159385Y-74773392D01*
X41283867Y-74785652D01*
X42483867Y-74785652D01*
X42608349Y-74773392D01*
X42728047Y-74737082D01*
X42838361Y-74678117D01*
X42935052Y-74598765D01*
X42983867Y-74539284D01*
X43032682Y-74598765D01*
X43129373Y-74678117D01*
X43239687Y-74737082D01*
X43359385Y-74773392D01*
X43483867Y-74785652D01*
X44683867Y-74785652D01*
X44808349Y-74773392D01*
X44928047Y-74737082D01*
X45038361Y-74678117D01*
X45135052Y-74598765D01*
X45214404Y-74502074D01*
X45273369Y-74391760D01*
X45309679Y-74272062D01*
X45321939Y-74147580D01*
X45321939Y-73247580D01*
X45309679Y-73123098D01*
X45273369Y-73003400D01*
X45214404Y-72893086D01*
X45135052Y-72796395D01*
X45038361Y-72717043D01*
X44928047Y-72658078D01*
X44843867Y-72632542D01*
X44843867Y-69192580D01*
X52593548Y-69192580D01*
X52673867Y-69200491D01*
X52754186Y-69192580D01*
X52754189Y-69192580D01*
X52994383Y-69168923D01*
X53302582Y-69075432D01*
X53586619Y-68923611D01*
X53835581Y-68719294D01*
X53886792Y-68656893D01*
X55711106Y-66832580D01*
X56528366Y-66832580D01*
X56582682Y-66898765D01*
X56679373Y-66978117D01*
X56789687Y-67037082D01*
X56909385Y-67073392D01*
X57033867Y-67085652D01*
X59433867Y-67085652D01*
X59558349Y-67073392D01*
X59678047Y-67037082D01*
X59788361Y-66978117D01*
X59885052Y-66898765D01*
X59964404Y-66802074D01*
X60023369Y-66691760D01*
X60059679Y-66572062D01*
X60071939Y-66447580D01*
X60071939Y-65483330D01*
X62698867Y-65483330D01*
X62698867Y-66510122D01*
X62723270Y-66632803D01*
X62771137Y-66748365D01*
X62840630Y-66852369D01*
X62929078Y-66940817D01*
X63033082Y-67010310D01*
X63148644Y-67058177D01*
X63271325Y-67082580D01*
X64248117Y-67082580D01*
X64406867Y-66923830D01*
X64406867Y-65324580D01*
X64660867Y-65324580D01*
X64660867Y-66923830D01*
X64819617Y-67082580D01*
X65796409Y-67082580D01*
X65919090Y-67058177D01*
X66034652Y-67010310D01*
X66138656Y-66940817D01*
X66227104Y-66852369D01*
X66296597Y-66748365D01*
X66344464Y-66632803D01*
X66368867Y-66510122D01*
X66368867Y-65483330D01*
X66210117Y-65324580D01*
X64660867Y-65324580D01*
X64406867Y-65324580D01*
X62857617Y-65324580D01*
X62698867Y-65483330D01*
X60071939Y-65483330D01*
X60071939Y-63947580D01*
X60065780Y-63885038D01*
X62698867Y-63885038D01*
X62698867Y-64911830D01*
X62857617Y-65070580D01*
X64406867Y-65070580D01*
X64406867Y-65050580D01*
X64660867Y-65050580D01*
X64660867Y-65070580D01*
X66210117Y-65070580D01*
X66368867Y-64911830D01*
X66368867Y-63885038D01*
X66344464Y-63762357D01*
X66296597Y-63646795D01*
X66227104Y-63542791D01*
X66138656Y-63454343D01*
X66034652Y-63384850D01*
X65919090Y-63336983D01*
X65796409Y-63312580D01*
X65316893Y-63312580D01*
X65327104Y-63302369D01*
X65396597Y-63198365D01*
X65444464Y-63082803D01*
X65468867Y-62960122D01*
X65468867Y-62583330D01*
X65310117Y-62424580D01*
X64510867Y-62424580D01*
X64510867Y-62444580D01*
X64256867Y-62444580D01*
X64256867Y-62424580D01*
X63457617Y-62424580D01*
X63298867Y-62583330D01*
X63298867Y-62960122D01*
X63323270Y-63082803D01*
X63371137Y-63198365D01*
X63440630Y-63302369D01*
X63450841Y-63312580D01*
X63271325Y-63312580D01*
X63148644Y-63336983D01*
X63033082Y-63384850D01*
X62929078Y-63454343D01*
X62840630Y-63542791D01*
X62771137Y-63646795D01*
X62723270Y-63762357D01*
X62698867Y-63885038D01*
X60065780Y-63885038D01*
X60059679Y-63823098D01*
X60023369Y-63703400D01*
X59964404Y-63593086D01*
X59885052Y-63496395D01*
X59788361Y-63417043D01*
X59678047Y-63358078D01*
X59558349Y-63321768D01*
X59433867Y-63309508D01*
X59317269Y-63309508D01*
X59364404Y-63252074D01*
X59423369Y-63141760D01*
X59459679Y-63022062D01*
X59471939Y-62897580D01*
X59471939Y-61697580D01*
X59459679Y-61573098D01*
X59423369Y-61453400D01*
X59364404Y-61343086D01*
X59285052Y-61246395D01*
X59225571Y-61197580D01*
X59285052Y-61148765D01*
X59364404Y-61052074D01*
X59423369Y-60941760D01*
X59459679Y-60822062D01*
X59471939Y-60697580D01*
X59471939Y-60597016D01*
X59479373Y-60603117D01*
X59589687Y-60662082D01*
X59709385Y-60698392D01*
X59833867Y-60710652D01*
X61033867Y-60710652D01*
X61158349Y-60698392D01*
X61278047Y-60662082D01*
X61383867Y-60605519D01*
X61489687Y-60662082D01*
X61609385Y-60698392D01*
X61733867Y-60710652D01*
X62933867Y-60710652D01*
X63058349Y-60698392D01*
X63178047Y-60662082D01*
X63288361Y-60603117D01*
X63295795Y-60597016D01*
X63295795Y-60697580D01*
X63308055Y-60822062D01*
X63344365Y-60941760D01*
X63403330Y-61052074D01*
X63482682Y-61148765D01*
X63540833Y-61196488D01*
X63529078Y-61204343D01*
X63440630Y-61292791D01*
X63371137Y-61396795D01*
X63323270Y-61512357D01*
X63298867Y-61635038D01*
X63298867Y-62011830D01*
X63457617Y-62170580D01*
X64256867Y-62170580D01*
X64256867Y-62150580D01*
X64510867Y-62150580D01*
X64510867Y-62170580D01*
X65310117Y-62170580D01*
X65468867Y-62011830D01*
X65468867Y-61635038D01*
X65444464Y-61512357D01*
X65396597Y-61396795D01*
X65327104Y-61292791D01*
X65238656Y-61204343D01*
X65226901Y-61196488D01*
X65285052Y-61148765D01*
X65364404Y-61052074D01*
X65423369Y-60941760D01*
X65459679Y-60822062D01*
X65471939Y-60697580D01*
X65471939Y-60597016D01*
X65479373Y-60603117D01*
X65589687Y-60662082D01*
X65709385Y-60698392D01*
X65833867Y-60710652D01*
X67033867Y-60710652D01*
X67158349Y-60698392D01*
X67278047Y-60662082D01*
X67386439Y-60604144D01*
X67433082Y-60635310D01*
X67548644Y-60683177D01*
X67671325Y-60707580D01*
X68048117Y-60707580D01*
X68206867Y-60548830D01*
X68206867Y-59824580D01*
X68460867Y-59824580D01*
X68460867Y-60548830D01*
X68619617Y-60707580D01*
X68996409Y-60707580D01*
X69119090Y-60683177D01*
X69234652Y-60635310D01*
X69338656Y-60565817D01*
X69427104Y-60477369D01*
X69496597Y-60373365D01*
X69544464Y-60257803D01*
X69568867Y-60135122D01*
X69568867Y-59983330D01*
X69410117Y-59824580D01*
X68460867Y-59824580D01*
X68206867Y-59824580D01*
X68186867Y-59824580D01*
X68186867Y-59570580D01*
X68206867Y-59570580D01*
X68206867Y-58846330D01*
X68460867Y-58846330D01*
X68460867Y-59570580D01*
X69410117Y-59570580D01*
X69568867Y-59411830D01*
X69568867Y-59260038D01*
X69544464Y-59137357D01*
X69496597Y-59021795D01*
X69427104Y-58917791D01*
X69338656Y-58829343D01*
X69234652Y-58759850D01*
X69119090Y-58711983D01*
X68996409Y-58687580D01*
X68619617Y-58687580D01*
X68460867Y-58846330D01*
X68206867Y-58846330D01*
X68048117Y-58687580D01*
X67671325Y-58687580D01*
X67548644Y-58711983D01*
X67433082Y-58759850D01*
X67386439Y-58791016D01*
X67278047Y-58733078D01*
X67158349Y-58696768D01*
X67033867Y-58684508D01*
X65833867Y-58684508D01*
X65709385Y-58696768D01*
X65589687Y-58733078D01*
X65479373Y-58792043D01*
X65382682Y-58871395D01*
X65328366Y-58937580D01*
X65143867Y-58937580D01*
X65143867Y-55933330D01*
X68873867Y-55933330D01*
X68873867Y-56310122D01*
X68898270Y-56432803D01*
X68946137Y-56548365D01*
X69015630Y-56652369D01*
X69104078Y-56740817D01*
X69208082Y-56810310D01*
X69323644Y-56858177D01*
X69446325Y-56882580D01*
X69598117Y-56882580D01*
X69756867Y-56723830D01*
X69756867Y-55774580D01*
X70010867Y-55774580D01*
X70010867Y-56723830D01*
X70169617Y-56882580D01*
X70321409Y-56882580D01*
X70444090Y-56858177D01*
X70559652Y-56810310D01*
X70663656Y-56740817D01*
X70752104Y-56652369D01*
X70821597Y-56548365D01*
X70869464Y-56432803D01*
X70893867Y-56310122D01*
X70893867Y-55933330D01*
X70735117Y-55774580D01*
X70010867Y-55774580D01*
X69756867Y-55774580D01*
X69032617Y-55774580D01*
X68873867Y-55933330D01*
X65143867Y-55933330D01*
X65143867Y-53084902D01*
X65147543Y-53047579D01*
X65143867Y-53010256D01*
X65143867Y-53010247D01*
X65132870Y-52898594D01*
X65089413Y-52755333D01*
X65057910Y-52696395D01*
X65018841Y-52623303D01*
X64947666Y-52536577D01*
X64923868Y-52507579D01*
X64894871Y-52483782D01*
X62872671Y-50461583D01*
X62848869Y-50432580D01*
X64544066Y-50432580D01*
X68370068Y-54258583D01*
X68393866Y-54287581D01*
X68509591Y-54382554D01*
X68641620Y-54453126D01*
X68784881Y-54496583D01*
X68893746Y-54507305D01*
X68919365Y-54591760D01*
X68977303Y-54700152D01*
X68946137Y-54746795D01*
X68898270Y-54862357D01*
X68873867Y-54985038D01*
X68873867Y-55361830D01*
X69032617Y-55520580D01*
X69756867Y-55520580D01*
X69756867Y-55500580D01*
X70010867Y-55500580D01*
X70010867Y-55520580D01*
X70735117Y-55520580D01*
X70893867Y-55361830D01*
X70893867Y-54985038D01*
X70869464Y-54862357D01*
X70821597Y-54746795D01*
X70790431Y-54700152D01*
X70810492Y-54662622D01*
X70829373Y-54678117D01*
X70939687Y-54737082D01*
X71059385Y-54773392D01*
X71183867Y-54785652D01*
X72383867Y-54785652D01*
X72508349Y-54773392D01*
X72628047Y-54737082D01*
X72738361Y-54678117D01*
X72835052Y-54598765D01*
X72883867Y-54539284D01*
X72932682Y-54598765D01*
X73029373Y-54678117D01*
X73139687Y-54737082D01*
X73223867Y-54762618D01*
X73223868Y-62201329D01*
X71460199Y-63965000D01*
X71398061Y-63965000D01*
X71198102Y-64004774D01*
X71009744Y-64082795D01*
X70840226Y-64196063D01*
X70696063Y-64340226D01*
X70582795Y-64509744D01*
X70504774Y-64698102D01*
X70465000Y-64898061D01*
X70465000Y-65101939D01*
X70504774Y-65301898D01*
X70582795Y-65490256D01*
X70696063Y-65659774D01*
X70840226Y-65803937D01*
X71009744Y-65917205D01*
X71198102Y-65995226D01*
X71398061Y-66035000D01*
X71601939Y-66035000D01*
X71801898Y-65995226D01*
X71990256Y-65917205D01*
X72159774Y-65803937D01*
X72303937Y-65659774D01*
X72417205Y-65490256D01*
X72495226Y-65301898D01*
X72535000Y-65101939D01*
X72535000Y-65039801D01*
X74494875Y-63079928D01*
X74523868Y-63056134D01*
X74547662Y-63027141D01*
X74547666Y-63027137D01*
X74618840Y-62940410D01*
X74618841Y-62940409D01*
X74689413Y-62808380D01*
X74732870Y-62665119D01*
X74743867Y-62553466D01*
X74743867Y-62553457D01*
X74747543Y-62516134D01*
X74743867Y-62478811D01*
X74743867Y-56767560D01*
X75240000Y-56767560D01*
X75240000Y-57232440D01*
X75330694Y-57688387D01*
X75508595Y-58117879D01*
X75766868Y-58504412D01*
X76095588Y-58833132D01*
X76482121Y-59091405D01*
X76911613Y-59269306D01*
X77367560Y-59360000D01*
X77832440Y-59360000D01*
X78288387Y-59269306D01*
X78717879Y-59091405D01*
X79104412Y-58833132D01*
X79433132Y-58504412D01*
X79691405Y-58117879D01*
X79869306Y-57688387D01*
X79960000Y-57232440D01*
X79960000Y-56767560D01*
X79869306Y-56311613D01*
X79691405Y-55882121D01*
X79433132Y-55495588D01*
X79104412Y-55166868D01*
X78717879Y-54908595D01*
X78288387Y-54730694D01*
X77832440Y-54640000D01*
X77367560Y-54640000D01*
X76911613Y-54730694D01*
X76482121Y-54908595D01*
X76095588Y-55166868D01*
X75766868Y-55495588D01*
X75508595Y-55882121D01*
X75330694Y-56311613D01*
X75240000Y-56767560D01*
X74743867Y-56767560D01*
X74743867Y-54762618D01*
X74828047Y-54737082D01*
X74938361Y-54678117D01*
X75035052Y-54598765D01*
X75114404Y-54502074D01*
X75173369Y-54391760D01*
X75209679Y-54272062D01*
X75221939Y-54147580D01*
X75221939Y-53247580D01*
X75209679Y-53123098D01*
X75173369Y-53003400D01*
X75114404Y-52893086D01*
X75035052Y-52796395D01*
X74938361Y-52717043D01*
X74828047Y-52658078D01*
X74708349Y-52621768D01*
X74583867Y-52609508D01*
X73383867Y-52609508D01*
X73259385Y-52621768D01*
X73139687Y-52658078D01*
X73029373Y-52717043D01*
X72932682Y-52796395D01*
X72883867Y-52855876D01*
X72835052Y-52796395D01*
X72738361Y-52717043D01*
X72628047Y-52658078D01*
X72508349Y-52621768D01*
X72383867Y-52609508D01*
X71183867Y-52609508D01*
X71059385Y-52621768D01*
X70939687Y-52658078D01*
X70829373Y-52717043D01*
X70768199Y-52767247D01*
X70710052Y-52696395D01*
X70613361Y-52617043D01*
X70503047Y-52558078D01*
X70383349Y-52521768D01*
X70258867Y-52509508D01*
X69508867Y-52509508D01*
X69384385Y-52521768D01*
X69264687Y-52558078D01*
X69154373Y-52617043D01*
X69057682Y-52696395D01*
X69012517Y-52751428D01*
X67144419Y-50883330D01*
X68873867Y-50883330D01*
X68873867Y-51260122D01*
X68898270Y-51382803D01*
X68946137Y-51498365D01*
X69015630Y-51602369D01*
X69104078Y-51690817D01*
X69208082Y-51760310D01*
X69323644Y-51808177D01*
X69446325Y-51832580D01*
X69598117Y-51832580D01*
X69756867Y-51673830D01*
X69756867Y-50724580D01*
X70010867Y-50724580D01*
X70010867Y-51673830D01*
X70169617Y-51832580D01*
X70321409Y-51832580D01*
X70444090Y-51808177D01*
X70559652Y-51760310D01*
X70663656Y-51690817D01*
X70752104Y-51602369D01*
X70821597Y-51498365D01*
X70869464Y-51382803D01*
X70893867Y-51260122D01*
X70893867Y-50883330D01*
X70735117Y-50724580D01*
X70010867Y-50724580D01*
X69756867Y-50724580D01*
X69032617Y-50724580D01*
X68873867Y-50883330D01*
X67144419Y-50883330D01*
X66043668Y-49782580D01*
X68896545Y-49782580D01*
X68910053Y-49783910D01*
X68898270Y-49812357D01*
X68873867Y-49935038D01*
X68873867Y-50311830D01*
X69032617Y-50470580D01*
X69756867Y-50470580D01*
X69756867Y-50450580D01*
X70010867Y-50450580D01*
X70010867Y-50470580D01*
X70735117Y-50470580D01*
X70893867Y-50311830D01*
X70893867Y-49935038D01*
X70869464Y-49812357D01*
X70821597Y-49696795D01*
X70790431Y-49650152D01*
X70791915Y-49647376D01*
X70829373Y-49678117D01*
X70939687Y-49737082D01*
X71059385Y-49773392D01*
X71183867Y-49785652D01*
X72383867Y-49785652D01*
X72508349Y-49773392D01*
X72628047Y-49737082D01*
X72738361Y-49678117D01*
X72835052Y-49598765D01*
X72883867Y-49539284D01*
X72932682Y-49598765D01*
X73029373Y-49678117D01*
X73139687Y-49737082D01*
X73259385Y-49773392D01*
X73383867Y-49785652D01*
X74583867Y-49785652D01*
X74708349Y-49773392D01*
X74828047Y-49737082D01*
X74938361Y-49678117D01*
X75035052Y-49598765D01*
X75114404Y-49502074D01*
X75173369Y-49391760D01*
X75209679Y-49272062D01*
X75221939Y-49147580D01*
X75221939Y-48247580D01*
X75209679Y-48123098D01*
X75173369Y-48003400D01*
X75114404Y-47893086D01*
X75035052Y-47796395D01*
X74938361Y-47717043D01*
X74885835Y-47688967D01*
X79039802Y-43535000D01*
X79101939Y-43535000D01*
X79301898Y-43495226D01*
X79490256Y-43417205D01*
X79659774Y-43303937D01*
X79803937Y-43159774D01*
X79917205Y-42990256D01*
X79995226Y-42801898D01*
X80035000Y-42601939D01*
X80035000Y-42398061D01*
X79995226Y-42198102D01*
X79917205Y-42009744D01*
X79803937Y-41840226D01*
X79659774Y-41696063D01*
X79490256Y-41582795D01*
X79301898Y-41504774D01*
X79101939Y-41465000D01*
X78898061Y-41465000D01*
X78698102Y-41504774D01*
X78509744Y-41582795D01*
X78340226Y-41696063D01*
X78196063Y-41840226D01*
X78082795Y-42009744D01*
X78004774Y-42198102D01*
X77965000Y-42398061D01*
X77965000Y-42460198D01*
X73472865Y-46952334D01*
X73443867Y-46976132D01*
X73420069Y-47005130D01*
X73420068Y-47005131D01*
X73348893Y-47091857D01*
X73278321Y-47223887D01*
X73252753Y-47308177D01*
X73241109Y-47346565D01*
X73234865Y-47367148D01*
X73220191Y-47516133D01*
X73223868Y-47553465D01*
X73223868Y-47632542D01*
X73139687Y-47658078D01*
X73029373Y-47717043D01*
X72932682Y-47796395D01*
X72883867Y-47855876D01*
X72835052Y-47796395D01*
X72738361Y-47717043D01*
X72628047Y-47658078D01*
X72508349Y-47621768D01*
X72383867Y-47609508D01*
X71183867Y-47609508D01*
X71059385Y-47621768D01*
X70939687Y-47658078D01*
X70829373Y-47717043D01*
X70791915Y-47747784D01*
X70789404Y-47743086D01*
X70710052Y-47646395D01*
X70613361Y-47567043D01*
X70503047Y-47508078D01*
X70383349Y-47471768D01*
X70258867Y-47459508D01*
X69508867Y-47459508D01*
X69384385Y-47471768D01*
X69264687Y-47508078D01*
X69154373Y-47567043D01*
X69057682Y-47646395D01*
X68978330Y-47743086D01*
X68919365Y-47853400D01*
X68883055Y-47973098D01*
X68876443Y-48040235D01*
X68834591Y-48062606D01*
X68718866Y-48157579D01*
X68695067Y-48186578D01*
X68619065Y-48262580D01*
X62696939Y-48262580D01*
X62696939Y-48147580D01*
X62687090Y-48047580D01*
X62696939Y-47947580D01*
X62696939Y-47832580D01*
X67196545Y-47832580D01*
X67233867Y-47836256D01*
X67271189Y-47832580D01*
X67271200Y-47832580D01*
X67382853Y-47821583D01*
X67526114Y-47778126D01*
X67658143Y-47707554D01*
X67773868Y-47612581D01*
X67797671Y-47583577D01*
X68873867Y-46507381D01*
X68873867Y-46760122D01*
X68898270Y-46882803D01*
X68946137Y-46998365D01*
X69015630Y-47102369D01*
X69104078Y-47190817D01*
X69208082Y-47260310D01*
X69323644Y-47308177D01*
X69446325Y-47332580D01*
X69598117Y-47332580D01*
X69756867Y-47173830D01*
X69756867Y-46224580D01*
X70010867Y-46224580D01*
X70010867Y-47173830D01*
X70169617Y-47332580D01*
X70321409Y-47332580D01*
X70444090Y-47308177D01*
X70559652Y-47260310D01*
X70663656Y-47190817D01*
X70752104Y-47102369D01*
X70821597Y-46998365D01*
X70869464Y-46882803D01*
X70893867Y-46760122D01*
X70893867Y-46383330D01*
X70735117Y-46224580D01*
X70010867Y-46224580D01*
X69756867Y-46224580D01*
X69736867Y-46224580D01*
X69736867Y-45970580D01*
X69756867Y-45970580D01*
X69756867Y-45950580D01*
X70010867Y-45950580D01*
X70010867Y-45970580D01*
X70735117Y-45970580D01*
X70893867Y-45811830D01*
X70893867Y-45435038D01*
X70869464Y-45312357D01*
X70821597Y-45196795D01*
X70790431Y-45150152D01*
X70791915Y-45147376D01*
X70829373Y-45178117D01*
X70939687Y-45237082D01*
X71059385Y-45273392D01*
X71183867Y-45285652D01*
X72383867Y-45285652D01*
X72508349Y-45273392D01*
X72628047Y-45237082D01*
X72738361Y-45178117D01*
X72835052Y-45098765D01*
X72883867Y-45039284D01*
X72932682Y-45098765D01*
X73029373Y-45178117D01*
X73139687Y-45237082D01*
X73259385Y-45273392D01*
X73383867Y-45285652D01*
X74583867Y-45285652D01*
X74708349Y-45273392D01*
X74828047Y-45237082D01*
X74938361Y-45178117D01*
X75035052Y-45098765D01*
X75114404Y-45002074D01*
X75173369Y-44891760D01*
X75209679Y-44772062D01*
X75221939Y-44647580D01*
X75221939Y-43747580D01*
X75209679Y-43623098D01*
X75173369Y-43503400D01*
X75114404Y-43393086D01*
X75035052Y-43296395D01*
X74938361Y-43217043D01*
X74828047Y-43158078D01*
X74743867Y-43132542D01*
X74743867Y-39762618D01*
X74828047Y-39737082D01*
X74938361Y-39678117D01*
X75035052Y-39598765D01*
X75114404Y-39502074D01*
X75173369Y-39391760D01*
X75209679Y-39272062D01*
X75221939Y-39147580D01*
X75221939Y-38247580D01*
X75209679Y-38123098D01*
X75173369Y-38003400D01*
X75114404Y-37893086D01*
X75035052Y-37796395D01*
X74938361Y-37717043D01*
X74828047Y-37658078D01*
X74708349Y-37621768D01*
X74583867Y-37609508D01*
X73820597Y-37609508D01*
X71950091Y-35739003D01*
X71926288Y-35709999D01*
X71810563Y-35615026D01*
X71678534Y-35544454D01*
X71535273Y-35500997D01*
X71423620Y-35490000D01*
X71423609Y-35490000D01*
X71386287Y-35486324D01*
X71348965Y-35490000D01*
X67953711Y-35490000D01*
X67909774Y-35446063D01*
X67740256Y-35332795D01*
X67551898Y-35254774D01*
X67351939Y-35215000D01*
X67148061Y-35215000D01*
X66948102Y-35254774D01*
X66759744Y-35332795D01*
X66590226Y-35446063D01*
X66446063Y-35590226D01*
X66332795Y-35759744D01*
X66254774Y-35948102D01*
X66215000Y-36148061D01*
X66215000Y-36351939D01*
X66254774Y-36551898D01*
X66332795Y-36740256D01*
X66446063Y-36909774D01*
X66590226Y-37053937D01*
X66759744Y-37167205D01*
X66948102Y-37245226D01*
X67148061Y-37285000D01*
X67351939Y-37285000D01*
X67551898Y-37245226D01*
X67740256Y-37167205D01*
X67909774Y-37053937D01*
X67953711Y-37010000D01*
X71071486Y-37010000D01*
X71670994Y-37609508D01*
X71183867Y-37609508D01*
X71059385Y-37621768D01*
X70939687Y-37658078D01*
X70829373Y-37717043D01*
X70732682Y-37796395D01*
X70653330Y-37893086D01*
X70629547Y-37937580D01*
X68439368Y-37937580D01*
X68385052Y-37871395D01*
X68288361Y-37792043D01*
X68178047Y-37733078D01*
X68058349Y-37696768D01*
X67933867Y-37684508D01*
X66733867Y-37684508D01*
X66609385Y-37696768D01*
X66489687Y-37733078D01*
X66381295Y-37791016D01*
X66334652Y-37759850D01*
X66219090Y-37711983D01*
X66096409Y-37687580D01*
X65719617Y-37687580D01*
X65560867Y-37846330D01*
X65560867Y-38570580D01*
X65580867Y-38570580D01*
X65580867Y-38824580D01*
X65560867Y-38824580D01*
X65560867Y-39548830D01*
X65719617Y-39707580D01*
X65868865Y-39707580D01*
X65814855Y-39773392D01*
X65773892Y-39823305D01*
X65703321Y-39955334D01*
X65703320Y-39955335D01*
X65659863Y-40098596D01*
X65648866Y-40210249D01*
X65648866Y-40210259D01*
X65645190Y-40247581D01*
X65648866Y-40284904D01*
X65648866Y-41258331D01*
X65560867Y-41346330D01*
X65560867Y-42070580D01*
X65580867Y-42070580D01*
X65580867Y-42324580D01*
X65560867Y-42324580D01*
X65560867Y-42344580D01*
X65306867Y-42344580D01*
X65306867Y-42324580D01*
X64357617Y-42324580D01*
X64198867Y-42483330D01*
X64198867Y-42635122D01*
X64223270Y-42757803D01*
X64271137Y-42873365D01*
X64340630Y-42977369D01*
X64429078Y-43065817D01*
X64533082Y-43135310D01*
X64648644Y-43183177D01*
X64771325Y-43207580D01*
X64909067Y-43207580D01*
X63104068Y-45012580D01*
X62405011Y-45012580D01*
X62303047Y-44958078D01*
X62183349Y-44921768D01*
X62058867Y-44909508D01*
X60608867Y-44909508D01*
X60484385Y-44921768D01*
X60364687Y-44958078D01*
X60254373Y-45017043D01*
X60157682Y-45096395D01*
X60078330Y-45193086D01*
X60019365Y-45303400D01*
X59983055Y-45423098D01*
X59970795Y-45547580D01*
X59970795Y-45997580D01*
X59980644Y-46097580D01*
X59970795Y-46197580D01*
X59970795Y-46647580D01*
X59980644Y-46747580D01*
X59970795Y-46847580D01*
X59970795Y-47297580D01*
X59980644Y-47397580D01*
X59970795Y-47497580D01*
X59970795Y-47947580D01*
X59980644Y-48047580D01*
X59970795Y-48147580D01*
X59970795Y-48597580D01*
X59980644Y-48697580D01*
X59970795Y-48797580D01*
X59970795Y-49247580D01*
X59980644Y-49347580D01*
X59970795Y-49447580D01*
X59970795Y-49897580D01*
X59980867Y-49999847D01*
X59973867Y-50035038D01*
X59973867Y-50051330D01*
X59999800Y-50077263D01*
X60019365Y-50141760D01*
X60078330Y-50252074D01*
X60136193Y-50322580D01*
X60078330Y-50393086D01*
X60019365Y-50503400D01*
X59999800Y-50567897D01*
X59973867Y-50593830D01*
X59973867Y-50610122D01*
X59980867Y-50645313D01*
X59970795Y-50747580D01*
X59970795Y-51197580D01*
X59980644Y-51297580D01*
X59970795Y-51397580D01*
X59970795Y-51847580D01*
X59983055Y-51972062D01*
X60019365Y-52091760D01*
X60078330Y-52202074D01*
X60157682Y-52298765D01*
X60254373Y-52378117D01*
X60364687Y-52437082D01*
X60484385Y-52473392D01*
X60573867Y-52482205D01*
X60573868Y-58684508D01*
X59833867Y-58684508D01*
X59709385Y-58696768D01*
X59589687Y-58733078D01*
X59479373Y-58792043D01*
X59382682Y-58871395D01*
X59328366Y-58937580D01*
X59133240Y-58937580D01*
X59078047Y-58908078D01*
X58958349Y-58871768D01*
X58833867Y-58859508D01*
X57933867Y-58859508D01*
X57809385Y-58871768D01*
X57689687Y-58908078D01*
X57579373Y-58967043D01*
X57482682Y-59046395D01*
X57403330Y-59143086D01*
X57344365Y-59253400D01*
X57318829Y-59337580D01*
X56621939Y-59337580D01*
X56621939Y-59322580D01*
X56609679Y-59198098D01*
X56573369Y-59078400D01*
X56514404Y-58968086D01*
X56435052Y-58871395D01*
X56338361Y-58792043D01*
X56228047Y-58733078D01*
X56108349Y-58696768D01*
X55983867Y-58684508D01*
X54783867Y-58684508D01*
X54659385Y-58696768D01*
X54539687Y-58733078D01*
X54431295Y-58791016D01*
X54384652Y-58759850D01*
X54269090Y-58711983D01*
X54146409Y-58687580D01*
X53769617Y-58687580D01*
X53610867Y-58846330D01*
X53610867Y-59570580D01*
X53630867Y-59570580D01*
X53630867Y-59824580D01*
X53610867Y-59824580D01*
X53610867Y-60548830D01*
X53769617Y-60707580D01*
X54146409Y-60707580D01*
X54269090Y-60683177D01*
X54384652Y-60635310D01*
X54431295Y-60604144D01*
X54539687Y-60662082D01*
X54659385Y-60698392D01*
X54783867Y-60710652D01*
X55332903Y-60710652D01*
X55359591Y-60732554D01*
X55491620Y-60803126D01*
X55634881Y-60846583D01*
X55746534Y-60857580D01*
X55746543Y-60857580D01*
X55783866Y-60861256D01*
X55821189Y-60857580D01*
X57318829Y-60857580D01*
X57344365Y-60941760D01*
X57403330Y-61052074D01*
X57482682Y-61148765D01*
X57542163Y-61197580D01*
X57482682Y-61246395D01*
X57403330Y-61343086D01*
X57344365Y-61453400D01*
X57308055Y-61573098D01*
X57295795Y-61697580D01*
X57295795Y-62897580D01*
X57308055Y-63022062D01*
X57344365Y-63141760D01*
X57403330Y-63252074D01*
X57450465Y-63309508D01*
X57033867Y-63309508D01*
X56909385Y-63321768D01*
X56789687Y-63358078D01*
X56679373Y-63417043D01*
X56582682Y-63496395D01*
X56528366Y-63562580D01*
X55114186Y-63562580D01*
X55033866Y-63554669D01*
X54953547Y-63562580D01*
X54953545Y-63562580D01*
X54713351Y-63586237D01*
X54405152Y-63679728D01*
X54121115Y-63831549D01*
X53872153Y-64035866D01*
X53820947Y-64098262D01*
X51996629Y-65922580D01*
X43945236Y-65922580D01*
X43995226Y-65801894D01*
X44035000Y-65601935D01*
X44035000Y-65539797D01*
X44894875Y-64679924D01*
X44923868Y-64656130D01*
X44947662Y-64627137D01*
X44947666Y-64627133D01*
X45018840Y-64540406D01*
X45018841Y-64540405D01*
X45089413Y-64408376D01*
X45132870Y-64265115D01*
X45143867Y-64153462D01*
X45143867Y-64153453D01*
X45147543Y-64116130D01*
X45143867Y-64078807D01*
X45143867Y-63951900D01*
X45188361Y-63928117D01*
X45285052Y-63848765D01*
X45364404Y-63752074D01*
X45423369Y-63641760D01*
X45459679Y-63522062D01*
X45471939Y-63397580D01*
X45471939Y-62197580D01*
X45459679Y-62073098D01*
X45423369Y-61953400D01*
X45364404Y-61843086D01*
X45285052Y-61746395D01*
X45225571Y-61697580D01*
X45285052Y-61648765D01*
X45364404Y-61552074D01*
X45423369Y-61441760D01*
X45459679Y-61322062D01*
X45471939Y-61197580D01*
X45471939Y-60434309D01*
X45922918Y-59983330D01*
X52248867Y-59983330D01*
X52248867Y-60135122D01*
X52273270Y-60257803D01*
X52321137Y-60373365D01*
X52390630Y-60477369D01*
X52479078Y-60565817D01*
X52583082Y-60635310D01*
X52698644Y-60683177D01*
X52821325Y-60707580D01*
X53198117Y-60707580D01*
X53356867Y-60548830D01*
X53356867Y-59824580D01*
X52407617Y-59824580D01*
X52248867Y-59983330D01*
X45922918Y-59983330D01*
X46646210Y-59260038D01*
X52248867Y-59260038D01*
X52248867Y-59411830D01*
X52407617Y-59570580D01*
X53356867Y-59570580D01*
X53356867Y-58846330D01*
X53198117Y-58687580D01*
X52821325Y-58687580D01*
X52698644Y-58711983D01*
X52583082Y-58759850D01*
X52479078Y-58829343D01*
X52390630Y-58917791D01*
X52321137Y-59021795D01*
X52273270Y-59137357D01*
X52248867Y-59260038D01*
X46646210Y-59260038D01*
X53523669Y-52382580D01*
X54362723Y-52382580D01*
X54464687Y-52437082D01*
X54584385Y-52473392D01*
X54708867Y-52485652D01*
X56158867Y-52485652D01*
X56283349Y-52473392D01*
X56403047Y-52437082D01*
X56513361Y-52378117D01*
X56610052Y-52298765D01*
X56689404Y-52202074D01*
X56748369Y-52091760D01*
X56784679Y-51972062D01*
X56796939Y-51847580D01*
X56796939Y-51397580D01*
X56787090Y-51297580D01*
X56796939Y-51197580D01*
X56796939Y-50747580D01*
X56787090Y-50647580D01*
X56796939Y-50547580D01*
X56796939Y-50097580D01*
X56787090Y-49997580D01*
X56796939Y-49897580D01*
X56796939Y-49447580D01*
X56787090Y-49347580D01*
X56796939Y-49247580D01*
X56796939Y-48797580D01*
X56787090Y-48697580D01*
X56796939Y-48597580D01*
X56796939Y-48147580D01*
X56786867Y-48045313D01*
X56793867Y-48010122D01*
X56793867Y-47993830D01*
X56767934Y-47967897D01*
X56748369Y-47903400D01*
X56689404Y-47793086D01*
X56631700Y-47722773D01*
X56652104Y-47702369D01*
X56721597Y-47598365D01*
X56769464Y-47482803D01*
X56771220Y-47473977D01*
X56793867Y-47451330D01*
X56793867Y-47435038D01*
X56786416Y-47397580D01*
X56793867Y-47360122D01*
X56793867Y-47343830D01*
X56771220Y-47321183D01*
X56769464Y-47312357D01*
X56721597Y-47196795D01*
X56652104Y-47092791D01*
X56631893Y-47072580D01*
X56652104Y-47052369D01*
X56721597Y-46948365D01*
X56769464Y-46832803D01*
X56771220Y-46823977D01*
X56793867Y-46801330D01*
X56793867Y-46785038D01*
X56786416Y-46747580D01*
X56793867Y-46710122D01*
X56793867Y-46693830D01*
X56771220Y-46671183D01*
X56769464Y-46662357D01*
X56721597Y-46546795D01*
X56652104Y-46442791D01*
X56631893Y-46422580D01*
X56652104Y-46402369D01*
X56721597Y-46298365D01*
X56769464Y-46182803D01*
X56771220Y-46173977D01*
X56793867Y-46151330D01*
X56793867Y-46135038D01*
X56786416Y-46097580D01*
X56793867Y-46060122D01*
X56793867Y-46043830D01*
X56771220Y-46021183D01*
X56769464Y-46012357D01*
X56721597Y-45896795D01*
X56652104Y-45792791D01*
X56563656Y-45704343D01*
X56497411Y-45660080D01*
X56635117Y-45660080D01*
X56793867Y-45501330D01*
X56793867Y-45485038D01*
X56769464Y-45362357D01*
X56721597Y-45246795D01*
X56652104Y-45142791D01*
X56563656Y-45054343D01*
X56459652Y-44984850D01*
X56344090Y-44936983D01*
X56221409Y-44912580D01*
X55719617Y-44912580D01*
X55560867Y-45071330D01*
X55560867Y-45660080D01*
X55622117Y-45660080D01*
X55560867Y-45721330D01*
X55560867Y-47219580D01*
X55306867Y-47219580D01*
X55306867Y-45721330D01*
X55245617Y-45660080D01*
X55306867Y-45660080D01*
X55306867Y-45071330D01*
X55148117Y-44912580D01*
X54646325Y-44912580D01*
X54523644Y-44936983D01*
X54408082Y-44984850D01*
X54304078Y-45054343D01*
X54215630Y-45142791D01*
X54146137Y-45246795D01*
X54098270Y-45362357D01*
X54073867Y-45485038D01*
X54073867Y-45501330D01*
X54232617Y-45660080D01*
X54370323Y-45660080D01*
X54304078Y-45704343D01*
X54215630Y-45792791D01*
X54146137Y-45896795D01*
X54098270Y-46012357D01*
X54096514Y-46021183D01*
X54073867Y-46043830D01*
X54073867Y-46060122D01*
X54081318Y-46097580D01*
X54073867Y-46135038D01*
X54073867Y-46151330D01*
X54096514Y-46173977D01*
X54098270Y-46182803D01*
X54146137Y-46298365D01*
X54215630Y-46402369D01*
X54235841Y-46422580D01*
X54215630Y-46442791D01*
X54146137Y-46546795D01*
X54098270Y-46662357D01*
X54096514Y-46671183D01*
X54073867Y-46693830D01*
X54073867Y-46710122D01*
X54081318Y-46747580D01*
X54073867Y-46785038D01*
X54073867Y-46801330D01*
X54096514Y-46823977D01*
X54098270Y-46832803D01*
X54144983Y-46945578D01*
X54106667Y-46945578D01*
X53847671Y-46686583D01*
X53823868Y-46657579D01*
X53708143Y-46562606D01*
X53576114Y-46492034D01*
X53432853Y-46448577D01*
X53321200Y-46437580D01*
X53321189Y-46437580D01*
X53283867Y-46433904D01*
X53246545Y-46437580D01*
X48538187Y-46437580D01*
X48514404Y-46393086D01*
X48435052Y-46296395D01*
X48338361Y-46217043D01*
X48228047Y-46158078D01*
X48108349Y-46121768D01*
X47983867Y-46109508D01*
X46783867Y-46109508D01*
X46659385Y-46121768D01*
X46539687Y-46158078D01*
X46429373Y-46217043D01*
X46332682Y-46296395D01*
X46283867Y-46355876D01*
X46235052Y-46296395D01*
X46138361Y-46217043D01*
X46028047Y-46158078D01*
X45908349Y-46121768D01*
X45783867Y-46109508D01*
X44583867Y-46109508D01*
X44459385Y-46121768D01*
X44339687Y-46158078D01*
X44229373Y-46217043D01*
X44132682Y-46296395D01*
X44053330Y-46393086D01*
X44029547Y-46437580D01*
X42501189Y-46437580D01*
X42463866Y-46433904D01*
X42426543Y-46437580D01*
X42426534Y-46437580D01*
X42314881Y-46448577D01*
X42171620Y-46492034D01*
X42039591Y-46562606D01*
X42039589Y-46562607D01*
X42039590Y-46562607D01*
X41952863Y-46633781D01*
X41952859Y-46633785D01*
X41923866Y-46657579D01*
X41900072Y-46686572D01*
X41209773Y-47376872D01*
X41165176Y-47363344D01*
X40954359Y-47342580D01*
X40813375Y-47342580D01*
X40602558Y-47363344D01*
X40332059Y-47445398D01*
X40082766Y-47578648D01*
X39864259Y-47757972D01*
X39684935Y-47976479D01*
X39551685Y-48225772D01*
X39469631Y-48496271D01*
X39441924Y-48777580D01*
X39469631Y-49058889D01*
X39551685Y-49329388D01*
X39684935Y-49578681D01*
X39864259Y-49797188D01*
X40035327Y-49937580D01*
X28518867Y-49937580D01*
X28518867Y-47293371D01*
X31121956Y-44690282D01*
X40070770Y-44690282D01*
X40142353Y-44934251D01*
X40397863Y-45055151D01*
X40672051Y-45123880D01*
X40954379Y-45137797D01*
X41233997Y-45096367D01*
X41500159Y-45001183D01*
X41625381Y-44934251D01*
X41696964Y-44690282D01*
X40883867Y-43877185D01*
X40070770Y-44690282D01*
X31121956Y-44690282D01*
X32044146Y-43768092D01*
X39443650Y-43768092D01*
X39485080Y-44047710D01*
X39580264Y-44313872D01*
X39647196Y-44439094D01*
X39891165Y-44510677D01*
X40704262Y-43697580D01*
X41063472Y-43697580D01*
X41876569Y-44510677D01*
X42120538Y-44439094D01*
X42241438Y-44183584D01*
X42310167Y-43909396D01*
X42324084Y-43627068D01*
X42282654Y-43347450D01*
X42187470Y-43081288D01*
X42120538Y-42956066D01*
X41876569Y-42884483D01*
X41063472Y-43697580D01*
X40704262Y-43697580D01*
X39891165Y-42884483D01*
X39647196Y-42956066D01*
X39526296Y-43211576D01*
X39457567Y-43485764D01*
X39443650Y-43768092D01*
X32044146Y-43768092D01*
X33107360Y-42704878D01*
X40070770Y-42704878D01*
X40883867Y-43517975D01*
X41696964Y-42704878D01*
X41625381Y-42460909D01*
X41369871Y-42340009D01*
X41095683Y-42271280D01*
X40813355Y-42257363D01*
X40533737Y-42298793D01*
X40267575Y-42393977D01*
X40142353Y-42460909D01*
X40070770Y-42704878D01*
X33107360Y-42704878D01*
X34052200Y-41760038D01*
X64198867Y-41760038D01*
X64198867Y-41911830D01*
X64357617Y-42070580D01*
X65306867Y-42070580D01*
X65306867Y-41346330D01*
X65148117Y-41187580D01*
X64771325Y-41187580D01*
X64648644Y-41211983D01*
X64533082Y-41259850D01*
X64429078Y-41329343D01*
X64340630Y-41417791D01*
X64271137Y-41521795D01*
X64223270Y-41637357D01*
X64198867Y-41760038D01*
X34052200Y-41760038D01*
X36828908Y-38983330D01*
X64198867Y-38983330D01*
X64198867Y-39135122D01*
X64223270Y-39257803D01*
X64271137Y-39373365D01*
X64340630Y-39477369D01*
X64429078Y-39565817D01*
X64533082Y-39635310D01*
X64648644Y-39683177D01*
X64771325Y-39707580D01*
X65148117Y-39707580D01*
X65306867Y-39548830D01*
X65306867Y-38824580D01*
X64357617Y-38824580D01*
X64198867Y-38983330D01*
X36828908Y-38983330D01*
X37552200Y-38260038D01*
X64198867Y-38260038D01*
X64198867Y-38411830D01*
X64357617Y-38570580D01*
X65306867Y-38570580D01*
X65306867Y-37846330D01*
X65148117Y-37687580D01*
X64771325Y-37687580D01*
X64648644Y-37711983D01*
X64533082Y-37759850D01*
X64429078Y-37829343D01*
X64340630Y-37917791D01*
X64271137Y-38021795D01*
X64223270Y-38137357D01*
X64198867Y-38260038D01*
X37552200Y-38260038D01*
X38177239Y-37635000D01*
X54919681Y-37635000D01*
X55000000Y-37642911D01*
X55080319Y-37635000D01*
X55080322Y-37635000D01*
X55320516Y-37611343D01*
X55628715Y-37517852D01*
X55912752Y-37366031D01*
X56161714Y-37161714D01*
X56212925Y-37099313D01*
X60185239Y-33127000D01*
X75679061Y-33127000D01*
X75508595Y-33382121D01*
X75330694Y-33811613D01*
X75240000Y-34267560D01*
X75240000Y-34732440D01*
X75330694Y-35188387D01*
X75508595Y-35617879D01*
X75766868Y-36004412D01*
X76095588Y-36333132D01*
X76482121Y-36591405D01*
X76911613Y-36769306D01*
X77367560Y-36860000D01*
X77832440Y-36860000D01*
X78288387Y-36769306D01*
X78717879Y-36591405D01*
X79104412Y-36333132D01*
X79433132Y-36004412D01*
X79691405Y-35617879D01*
X79869306Y-35188387D01*
X79960000Y-34732440D01*
X79960000Y-34267560D01*
X79869306Y-33811613D01*
X79691405Y-33382121D01*
X79520939Y-33127000D01*
X99305000Y-33127000D01*
X99305001Y-94969032D01*
X99234243Y-95761862D01*
X99032411Y-96499637D01*
X98703116Y-97190018D01*
X98256775Y-97811168D01*
X97707483Y-98343469D01*
X97072617Y-98770080D01*
X96372240Y-99077525D01*
X95623140Y-99257368D01*
X94974510Y-99305000D01*
X5030957Y-99305000D01*
X4238138Y-99234243D01*
X3500363Y-99032411D01*
X2809982Y-98703116D01*
X2188832Y-98256775D01*
X1656531Y-97707483D01*
X1229920Y-97072617D01*
X922475Y-96372240D01*
X742632Y-95623140D01*
X695000Y-94974510D01*
X695000Y-94671531D01*
X1665000Y-94671531D01*
X1665000Y-95328469D01*
X1793162Y-95972784D01*
X2044561Y-96579715D01*
X2409536Y-97125939D01*
X2874061Y-97590464D01*
X3420285Y-97955439D01*
X4027216Y-98206838D01*
X4671531Y-98335000D01*
X5328469Y-98335000D01*
X5972784Y-98206838D01*
X6579715Y-97955439D01*
X7125939Y-97590464D01*
X7590464Y-97125939D01*
X7955439Y-96579715D01*
X8206838Y-95972784D01*
X8335000Y-95328469D01*
X8335000Y-95267560D01*
X20040000Y-95267560D01*
X20040000Y-95732440D01*
X20130694Y-96188387D01*
X20308595Y-96617879D01*
X20566868Y-97004412D01*
X20895588Y-97333132D01*
X21282121Y-97591405D01*
X21711613Y-97769306D01*
X22167560Y-97860000D01*
X22632440Y-97860000D01*
X23088387Y-97769306D01*
X23517879Y-97591405D01*
X23904412Y-97333132D01*
X24233132Y-97004412D01*
X24491405Y-96617879D01*
X24669306Y-96188387D01*
X24760000Y-95732440D01*
X24760000Y-95267560D01*
X24669306Y-94811613D01*
X24611283Y-94671531D01*
X91665000Y-94671531D01*
X91665000Y-95328469D01*
X91793162Y-95972784D01*
X92044561Y-96579715D01*
X92409536Y-97125939D01*
X92874061Y-97590464D01*
X93420285Y-97955439D01*
X94027216Y-98206838D01*
X94671531Y-98335000D01*
X95328469Y-98335000D01*
X95972784Y-98206838D01*
X96579715Y-97955439D01*
X97125939Y-97590464D01*
X97590464Y-97125939D01*
X97955439Y-96579715D01*
X98206838Y-95972784D01*
X98335000Y-95328469D01*
X98335000Y-94671531D01*
X98206838Y-94027216D01*
X97955439Y-93420285D01*
X97590464Y-92874061D01*
X97125939Y-92409536D01*
X96579715Y-92044561D01*
X95972784Y-91793162D01*
X95328469Y-91665000D01*
X94671531Y-91665000D01*
X94027216Y-91793162D01*
X93420285Y-92044561D01*
X92874061Y-92409536D01*
X92409536Y-92874061D01*
X92044561Y-93420285D01*
X91793162Y-94027216D01*
X91665000Y-94671531D01*
X24611283Y-94671531D01*
X24491405Y-94382121D01*
X24233132Y-93995588D01*
X23904412Y-93666868D01*
X23517879Y-93408595D01*
X23088387Y-93230694D01*
X22632440Y-93140000D01*
X22167560Y-93140000D01*
X21711613Y-93230694D01*
X21282121Y-93408595D01*
X20895588Y-93666868D01*
X20566868Y-93995588D01*
X20308595Y-94382121D01*
X20130694Y-94811613D01*
X20040000Y-95267560D01*
X8335000Y-95267560D01*
X8335000Y-94671531D01*
X8206838Y-94027216D01*
X7955439Y-93420285D01*
X7590464Y-92874061D01*
X7125939Y-92409536D01*
X6579715Y-92044561D01*
X5972784Y-91793162D01*
X5328469Y-91665000D01*
X4671531Y-91665000D01*
X4027216Y-91793162D01*
X3420285Y-92044561D01*
X2874061Y-92409536D01*
X2409536Y-92874061D01*
X2044561Y-93420285D01*
X1793162Y-94027216D01*
X1665000Y-94671531D01*
X695000Y-94671531D01*
X695000Y-79319761D01*
X12240000Y-79319761D01*
X12240000Y-79680239D01*
X12310325Y-80033791D01*
X12448275Y-80366830D01*
X12648546Y-80666557D01*
X12903443Y-80921454D01*
X13203170Y-81121725D01*
X13536209Y-81259675D01*
X13889761Y-81330000D01*
X14250239Y-81330000D01*
X14603791Y-81259675D01*
X14936830Y-81121725D01*
X15236557Y-80921454D01*
X15491454Y-80666557D01*
X15691725Y-80366830D01*
X15829675Y-80033791D01*
X15900000Y-79680239D01*
X15900000Y-79319761D01*
X15889617Y-79267560D01*
X75240000Y-79267560D01*
X75240000Y-79732440D01*
X75330694Y-80188387D01*
X75508595Y-80617879D01*
X75766868Y-81004412D01*
X76095588Y-81333132D01*
X76482121Y-81591405D01*
X76911613Y-81769306D01*
X77367560Y-81860000D01*
X77832440Y-81860000D01*
X78288387Y-81769306D01*
X78717879Y-81591405D01*
X79104412Y-81333132D01*
X79433132Y-81004412D01*
X79691405Y-80617879D01*
X79869306Y-80188387D01*
X79960000Y-79732440D01*
X79960000Y-79267560D01*
X79869306Y-78811613D01*
X79691405Y-78382121D01*
X79433132Y-77995588D01*
X79104412Y-77666868D01*
X78717879Y-77408595D01*
X78288387Y-77230694D01*
X77832440Y-77140000D01*
X77367560Y-77140000D01*
X76911613Y-77230694D01*
X76482121Y-77408595D01*
X76095588Y-77666868D01*
X75766868Y-77995588D01*
X75508595Y-78382121D01*
X75330694Y-78811613D01*
X75240000Y-79267560D01*
X15889617Y-79267560D01*
X15829675Y-78966209D01*
X15691725Y-78633170D01*
X15491454Y-78333443D01*
X15236557Y-78078546D01*
X14936830Y-77878275D01*
X14603791Y-77740325D01*
X14250239Y-77670000D01*
X13889761Y-77670000D01*
X13536209Y-77740325D01*
X13203170Y-77878275D01*
X12903443Y-78078546D01*
X12648546Y-78333443D01*
X12448275Y-78633170D01*
X12310325Y-78966209D01*
X12240000Y-79319761D01*
X695000Y-79319761D01*
X695000Y-72767560D01*
X20040000Y-72767560D01*
X20040000Y-73232440D01*
X20130694Y-73688387D01*
X20308595Y-74117879D01*
X20566868Y-74504412D01*
X20895588Y-74833132D01*
X21282121Y-75091405D01*
X21711613Y-75269306D01*
X22167560Y-75360000D01*
X22632440Y-75360000D01*
X23088387Y-75269306D01*
X23517879Y-75091405D01*
X23904412Y-74833132D01*
X24233132Y-74504412D01*
X24491405Y-74117879D01*
X24669306Y-73688387D01*
X24760000Y-73232440D01*
X24760000Y-72767560D01*
X24669306Y-72311613D01*
X24491405Y-71882121D01*
X24233132Y-71495588D01*
X23904412Y-71166868D01*
X23517879Y-70908595D01*
X23088387Y-70730694D01*
X22632440Y-70640000D01*
X22167560Y-70640000D01*
X21711613Y-70730694D01*
X21282121Y-70908595D01*
X20895588Y-71166868D01*
X20566868Y-71495588D01*
X20308595Y-71882121D01*
X20130694Y-72311613D01*
X20040000Y-72767560D01*
X695000Y-72767560D01*
X695000Y-56819761D01*
X12240000Y-56819761D01*
X12240000Y-57180239D01*
X12310325Y-57533791D01*
X12448275Y-57866830D01*
X12648546Y-58166557D01*
X12903443Y-58421454D01*
X13203170Y-58621725D01*
X13536209Y-58759675D01*
X13889761Y-58830000D01*
X14250239Y-58830000D01*
X14603791Y-58759675D01*
X14936830Y-58621725D01*
X15236557Y-58421454D01*
X15491454Y-58166557D01*
X15691725Y-57866830D01*
X15829675Y-57533791D01*
X15900000Y-57180239D01*
X15900000Y-56819761D01*
X15829675Y-56466209D01*
X15691725Y-56133170D01*
X15491454Y-55833443D01*
X15236557Y-55578546D01*
X14936830Y-55378275D01*
X14603791Y-55240325D01*
X14250239Y-55170000D01*
X13889761Y-55170000D01*
X13536209Y-55240325D01*
X13203170Y-55378275D01*
X12903443Y-55578546D01*
X12648546Y-55833443D01*
X12448275Y-56133170D01*
X12310325Y-56466209D01*
X12240000Y-56819761D01*
X695000Y-56819761D01*
X695000Y-50267560D01*
X20040000Y-50267560D01*
X20040000Y-50732440D01*
X20130694Y-51188387D01*
X20308595Y-51617879D01*
X20566868Y-52004412D01*
X20895588Y-52333132D01*
X21282121Y-52591405D01*
X21711613Y-52769306D01*
X22167560Y-52860000D01*
X22632440Y-52860000D01*
X23088387Y-52769306D01*
X23517879Y-52591405D01*
X23904412Y-52333132D01*
X24233132Y-52004412D01*
X24491405Y-51617879D01*
X24669306Y-51188387D01*
X24760000Y-50732440D01*
X24760000Y-50267560D01*
X24669306Y-49811613D01*
X24491405Y-49382121D01*
X24233132Y-48995588D01*
X23904412Y-48666868D01*
X23517879Y-48408595D01*
X23088387Y-48230694D01*
X22632440Y-48140000D01*
X22167560Y-48140000D01*
X21711613Y-48230694D01*
X21282121Y-48408595D01*
X20895588Y-48666868D01*
X20566868Y-48995588D01*
X20308595Y-49382121D01*
X20130694Y-49811613D01*
X20040000Y-50267560D01*
X695000Y-50267560D01*
X695000Y-33127000D01*
X12854989Y-33127000D01*
X12648546Y-33333443D01*
X12648546Y-33333443D01*
G37*
X12648546Y-33333443D02*
X12448275Y-33633170D01*
X12310325Y-33966209D01*
X12240000Y-34319761D01*
X12240000Y-34680239D01*
X12310325Y-35033791D01*
X12448275Y-35366830D01*
X12648546Y-35666557D01*
X12903443Y-35921454D01*
X13203170Y-36121725D01*
X13536209Y-36259675D01*
X13889761Y-36330000D01*
X14250239Y-36330000D01*
X14603791Y-36259675D01*
X14936830Y-36121725D01*
X15236557Y-35921454D01*
X15491454Y-35666557D01*
X15691725Y-35366830D01*
X15829675Y-35033791D01*
X15900000Y-34680239D01*
X15900000Y-34319761D01*
X15829675Y-33966209D01*
X15691725Y-33633170D01*
X15491454Y-33333443D01*
X15285011Y-33127000D01*
X55560762Y-33127000D01*
X54322762Y-34365000D01*
X37580319Y-34365000D01*
X37499999Y-34357089D01*
X37419680Y-34365000D01*
X37419678Y-34365000D01*
X37179484Y-34388657D01*
X36871285Y-34482148D01*
X36587248Y-34633969D01*
X36338286Y-34838286D01*
X36287080Y-34900681D01*
X25784549Y-45403213D01*
X25722154Y-45454419D01*
X25517837Y-45703381D01*
X25366015Y-45987419D01*
X25272525Y-46295617D01*
X25240956Y-46616133D01*
X25248868Y-46696462D01*
X25248867Y-50964188D01*
X25248868Y-50964198D01*
X25248867Y-65309508D01*
X25211760Y-65309508D01*
X25070313Y-65233904D01*
X24856365Y-65169003D01*
X24633867Y-65147089D01*
X24411368Y-65169003D01*
X24197420Y-65233904D01*
X24000244Y-65339296D01*
X23989274Y-65348299D01*
X23879373Y-65407043D01*
X23782682Y-65486395D01*
X23703330Y-65583086D01*
X23644365Y-65693400D01*
X23617941Y-65780507D01*
X23580191Y-65851134D01*
X23515290Y-66065082D01*
X23498867Y-66231829D01*
X23498867Y-67501825D01*
X23493376Y-67557580D01*
X23498867Y-67613335D01*
X23498868Y-70163332D01*
X23515291Y-70330079D01*
X23580192Y-70544027D01*
X23617940Y-70614650D01*
X23644365Y-70701760D01*
X23703330Y-70812074D01*
X23782682Y-70908765D01*
X23879373Y-70988117D01*
X23989277Y-71046863D01*
X24000245Y-71055864D01*
X24197421Y-71161256D01*
X24411369Y-71226157D01*
X24633867Y-71248071D01*
X24856366Y-71226157D01*
X25070314Y-71161256D01*
X25211760Y-71085652D01*
X26923868Y-71085652D01*
X26923867Y-72632542D01*
X26839687Y-72658078D01*
X26729373Y-72717043D01*
X26632682Y-72796395D01*
X26553330Y-72893086D01*
X26494365Y-73003400D01*
X26458055Y-73123098D01*
X26445795Y-73247580D01*
X26445795Y-74147580D01*
X26458055Y-74272062D01*
X26494365Y-74391760D01*
X26553330Y-74502074D01*
X26632682Y-74598765D01*
X26729373Y-74678117D01*
X26839687Y-74737082D01*
X26959385Y-74773392D01*
X27083867Y-74785652D01*
X28283867Y-74785652D01*
X28408349Y-74773392D01*
X28528047Y-74737082D01*
X28638361Y-74678117D01*
X28735052Y-74598765D01*
X28783867Y-74539284D01*
X28832682Y-74598765D01*
X28929373Y-74678117D01*
X29039687Y-74737082D01*
X29159385Y-74773392D01*
X29283867Y-74785652D01*
X30483867Y-74785652D01*
X30608349Y-74773392D01*
X30728047Y-74737082D01*
X30838361Y-74678117D01*
X30935052Y-74598765D01*
X31014404Y-74502074D01*
X31073369Y-74391760D01*
X31109679Y-74272062D01*
X31121939Y-74147580D01*
X31121939Y-73247580D01*
X31109679Y-73123098D01*
X31073369Y-73003400D01*
X31014404Y-72893086D01*
X30935052Y-72796395D01*
X30893867Y-72762595D01*
X30893867Y-70983598D01*
X30925571Y-70957580D01*
X31680156Y-70957580D01*
X31724093Y-71001517D01*
X31893611Y-71114785D01*
X32081969Y-71192806D01*
X32281928Y-71232580D01*
X32485806Y-71232580D01*
X32685765Y-71192806D01*
X32874123Y-71114785D01*
X33043641Y-71001517D01*
X33187804Y-70857354D01*
X33301072Y-70687836D01*
X33379093Y-70499478D01*
X33418867Y-70299519D01*
X33418867Y-70095641D01*
X33379093Y-69895682D01*
X33332350Y-69782835D01*
X33418350Y-69808923D01*
X33738867Y-69840491D01*
X33819189Y-69832580D01*
X34498868Y-69832580D01*
X34498868Y-70163332D01*
X34515291Y-70330079D01*
X34580192Y-70544027D01*
X34617940Y-70614650D01*
X34644365Y-70701760D01*
X34703330Y-70812074D01*
X34782682Y-70908765D01*
X34879373Y-70988117D01*
X34989277Y-71046863D01*
X35000245Y-71055864D01*
X35197421Y-71161256D01*
X35411369Y-71226157D01*
X35633867Y-71248071D01*
X35856366Y-71226157D01*
X36070314Y-71161256D01*
X36211760Y-71085652D01*
X40028867Y-71085652D01*
X40153349Y-71073392D01*
X40273047Y-71037082D01*
X40373567Y-70983352D01*
X40379373Y-70988117D01*
X40489687Y-71047082D01*
X40609385Y-71083392D01*
X40733867Y-71095652D01*
X41097137Y-71095652D01*
X41123867Y-71122382D01*
X41123868Y-72632542D01*
X41039687Y-72658078D01*
X40929373Y-72717043D01*
X40832682Y-72796395D01*
X40753330Y-72893086D01*
X40694365Y-73003400D01*
X40658055Y-73123098D01*
X40645795Y-73247580D01*
X40645795Y-74147580D01*
X40658055Y-74272062D01*
X40694365Y-74391760D01*
X40753330Y-74502074D01*
X40832682Y-74598765D01*
X40929373Y-74678117D01*
X41039687Y-74737082D01*
X41159385Y-74773392D01*
X41283867Y-74785652D01*
X42483867Y-74785652D01*
X42608349Y-74773392D01*
X42728047Y-74737082D01*
X42838361Y-74678117D01*
X42935052Y-74598765D01*
X42983867Y-74539284D01*
X43032682Y-74598765D01*
X43129373Y-74678117D01*
X43239687Y-74737082D01*
X43359385Y-74773392D01*
X43483867Y-74785652D01*
X44683867Y-74785652D01*
X44808349Y-74773392D01*
X44928047Y-74737082D01*
X45038361Y-74678117D01*
X45135052Y-74598765D01*
X45214404Y-74502074D01*
X45273369Y-74391760D01*
X45309679Y-74272062D01*
X45321939Y-74147580D01*
X45321939Y-73247580D01*
X45309679Y-73123098D01*
X45273369Y-73003400D01*
X45214404Y-72893086D01*
X45135052Y-72796395D01*
X45038361Y-72717043D01*
X44928047Y-72658078D01*
X44843867Y-72632542D01*
X44843867Y-69192580D01*
X52593548Y-69192580D01*
X52673867Y-69200491D01*
X52754186Y-69192580D01*
X52754189Y-69192580D01*
X52994383Y-69168923D01*
X53302582Y-69075432D01*
X53586619Y-68923611D01*
X53835581Y-68719294D01*
X53886792Y-68656893D01*
X55711106Y-66832580D01*
X56528366Y-66832580D01*
X56582682Y-66898765D01*
X56679373Y-66978117D01*
X56789687Y-67037082D01*
X56909385Y-67073392D01*
X57033867Y-67085652D01*
X59433867Y-67085652D01*
X59558349Y-67073392D01*
X59678047Y-67037082D01*
X59788361Y-66978117D01*
X59885052Y-66898765D01*
X59964404Y-66802074D01*
X60023369Y-66691760D01*
X60059679Y-66572062D01*
X60071939Y-66447580D01*
X60071939Y-65483330D01*
X62698867Y-65483330D01*
X62698867Y-66510122D01*
X62723270Y-66632803D01*
X62771137Y-66748365D01*
X62840630Y-66852369D01*
X62929078Y-66940817D01*
X63033082Y-67010310D01*
X63148644Y-67058177D01*
X63271325Y-67082580D01*
X64248117Y-67082580D01*
X64406867Y-66923830D01*
X64406867Y-65324580D01*
X64660867Y-65324580D01*
X64660867Y-66923830D01*
X64819617Y-67082580D01*
X65796409Y-67082580D01*
X65919090Y-67058177D01*
X66034652Y-67010310D01*
X66138656Y-66940817D01*
X66227104Y-66852369D01*
X66296597Y-66748365D01*
X66344464Y-66632803D01*
X66368867Y-66510122D01*
X66368867Y-65483330D01*
X66210117Y-65324580D01*
X64660867Y-65324580D01*
X64406867Y-65324580D01*
X62857617Y-65324580D01*
X62698867Y-65483330D01*
X60071939Y-65483330D01*
X60071939Y-63947580D01*
X60065780Y-63885038D01*
X62698867Y-63885038D01*
X62698867Y-64911830D01*
X62857617Y-65070580D01*
X64406867Y-65070580D01*
X64406867Y-65050580D01*
X64660867Y-65050580D01*
X64660867Y-65070580D01*
X66210117Y-65070580D01*
X66368867Y-64911830D01*
X66368867Y-63885038D01*
X66344464Y-63762357D01*
X66296597Y-63646795D01*
X66227104Y-63542791D01*
X66138656Y-63454343D01*
X66034652Y-63384850D01*
X65919090Y-63336983D01*
X65796409Y-63312580D01*
X65316893Y-63312580D01*
X65327104Y-63302369D01*
X65396597Y-63198365D01*
X65444464Y-63082803D01*
X65468867Y-62960122D01*
X65468867Y-62583330D01*
X65310117Y-62424580D01*
X64510867Y-62424580D01*
X64510867Y-62444580D01*
X64256867Y-62444580D01*
X64256867Y-62424580D01*
X63457617Y-62424580D01*
X63298867Y-62583330D01*
X63298867Y-62960122D01*
X63323270Y-63082803D01*
X63371137Y-63198365D01*
X63440630Y-63302369D01*
X63450841Y-63312580D01*
X63271325Y-63312580D01*
X63148644Y-63336983D01*
X63033082Y-63384850D01*
X62929078Y-63454343D01*
X62840630Y-63542791D01*
X62771137Y-63646795D01*
X62723270Y-63762357D01*
X62698867Y-63885038D01*
X60065780Y-63885038D01*
X60059679Y-63823098D01*
X60023369Y-63703400D01*
X59964404Y-63593086D01*
X59885052Y-63496395D01*
X59788361Y-63417043D01*
X59678047Y-63358078D01*
X59558349Y-63321768D01*
X59433867Y-63309508D01*
X59317269Y-63309508D01*
X59364404Y-63252074D01*
X59423369Y-63141760D01*
X59459679Y-63022062D01*
X59471939Y-62897580D01*
X59471939Y-61697580D01*
X59459679Y-61573098D01*
X59423369Y-61453400D01*
X59364404Y-61343086D01*
X59285052Y-61246395D01*
X59225571Y-61197580D01*
X59285052Y-61148765D01*
X59364404Y-61052074D01*
X59423369Y-60941760D01*
X59459679Y-60822062D01*
X59471939Y-60697580D01*
X59471939Y-60597016D01*
X59479373Y-60603117D01*
X59589687Y-60662082D01*
X59709385Y-60698392D01*
X59833867Y-60710652D01*
X61033867Y-60710652D01*
X61158349Y-60698392D01*
X61278047Y-60662082D01*
X61383867Y-60605519D01*
X61489687Y-60662082D01*
X61609385Y-60698392D01*
X61733867Y-60710652D01*
X62933867Y-60710652D01*
X63058349Y-60698392D01*
X63178047Y-60662082D01*
X63288361Y-60603117D01*
X63295795Y-60597016D01*
X63295795Y-60697580D01*
X63308055Y-60822062D01*
X63344365Y-60941760D01*
X63403330Y-61052074D01*
X63482682Y-61148765D01*
X63540833Y-61196488D01*
X63529078Y-61204343D01*
X63440630Y-61292791D01*
X63371137Y-61396795D01*
X63323270Y-61512357D01*
X63298867Y-61635038D01*
X63298867Y-62011830D01*
X63457617Y-62170580D01*
X64256867Y-62170580D01*
X64256867Y-62150580D01*
X64510867Y-62150580D01*
X64510867Y-62170580D01*
X65310117Y-62170580D01*
X65468867Y-62011830D01*
X65468867Y-61635038D01*
X65444464Y-61512357D01*
X65396597Y-61396795D01*
X65327104Y-61292791D01*
X65238656Y-61204343D01*
X65226901Y-61196488D01*
X65285052Y-61148765D01*
X65364404Y-61052074D01*
X65423369Y-60941760D01*
X65459679Y-60822062D01*
X65471939Y-60697580D01*
X65471939Y-60597016D01*
X65479373Y-60603117D01*
X65589687Y-60662082D01*
X65709385Y-60698392D01*
X65833867Y-60710652D01*
X67033867Y-60710652D01*
X67158349Y-60698392D01*
X67278047Y-60662082D01*
X67386439Y-60604144D01*
X67433082Y-60635310D01*
X67548644Y-60683177D01*
X67671325Y-60707580D01*
X68048117Y-60707580D01*
X68206867Y-60548830D01*
X68206867Y-59824580D01*
X68460867Y-59824580D01*
X68460867Y-60548830D01*
X68619617Y-60707580D01*
X68996409Y-60707580D01*
X69119090Y-60683177D01*
X69234652Y-60635310D01*
X69338656Y-60565817D01*
X69427104Y-60477369D01*
X69496597Y-60373365D01*
X69544464Y-60257803D01*
X69568867Y-60135122D01*
X69568867Y-59983330D01*
X69410117Y-59824580D01*
X68460867Y-59824580D01*
X68206867Y-59824580D01*
X68186867Y-59824580D01*
X68186867Y-59570580D01*
X68206867Y-59570580D01*
X68206867Y-58846330D01*
X68460867Y-58846330D01*
X68460867Y-59570580D01*
X69410117Y-59570580D01*
X69568867Y-59411830D01*
X69568867Y-59260038D01*
X69544464Y-59137357D01*
X69496597Y-59021795D01*
X69427104Y-58917791D01*
X69338656Y-58829343D01*
X69234652Y-58759850D01*
X69119090Y-58711983D01*
X68996409Y-58687580D01*
X68619617Y-58687580D01*
X68460867Y-58846330D01*
X68206867Y-58846330D01*
X68048117Y-58687580D01*
X67671325Y-58687580D01*
X67548644Y-58711983D01*
X67433082Y-58759850D01*
X67386439Y-58791016D01*
X67278047Y-58733078D01*
X67158349Y-58696768D01*
X67033867Y-58684508D01*
X65833867Y-58684508D01*
X65709385Y-58696768D01*
X65589687Y-58733078D01*
X65479373Y-58792043D01*
X65382682Y-58871395D01*
X65328366Y-58937580D01*
X65143867Y-58937580D01*
X65143867Y-55933330D01*
X68873867Y-55933330D01*
X68873867Y-56310122D01*
X68898270Y-56432803D01*
X68946137Y-56548365D01*
X69015630Y-56652369D01*
X69104078Y-56740817D01*
X69208082Y-56810310D01*
X69323644Y-56858177D01*
X69446325Y-56882580D01*
X69598117Y-56882580D01*
X69756867Y-56723830D01*
X69756867Y-55774580D01*
X70010867Y-55774580D01*
X70010867Y-56723830D01*
X70169617Y-56882580D01*
X70321409Y-56882580D01*
X70444090Y-56858177D01*
X70559652Y-56810310D01*
X70663656Y-56740817D01*
X70752104Y-56652369D01*
X70821597Y-56548365D01*
X70869464Y-56432803D01*
X70893867Y-56310122D01*
X70893867Y-55933330D01*
X70735117Y-55774580D01*
X70010867Y-55774580D01*
X69756867Y-55774580D01*
X69032617Y-55774580D01*
X68873867Y-55933330D01*
X65143867Y-55933330D01*
X65143867Y-53084902D01*
X65147543Y-53047579D01*
X65143867Y-53010256D01*
X65143867Y-53010247D01*
X65132870Y-52898594D01*
X65089413Y-52755333D01*
X65057910Y-52696395D01*
X65018841Y-52623303D01*
X64947666Y-52536577D01*
X64923868Y-52507579D01*
X64894871Y-52483782D01*
X62872671Y-50461583D01*
X62848869Y-50432580D01*
X64544066Y-50432580D01*
X68370068Y-54258583D01*
X68393866Y-54287581D01*
X68509591Y-54382554D01*
X68641620Y-54453126D01*
X68784881Y-54496583D01*
X68893746Y-54507305D01*
X68919365Y-54591760D01*
X68977303Y-54700152D01*
X68946137Y-54746795D01*
X68898270Y-54862357D01*
X68873867Y-54985038D01*
X68873867Y-55361830D01*
X69032617Y-55520580D01*
X69756867Y-55520580D01*
X69756867Y-55500580D01*
X70010867Y-55500580D01*
X70010867Y-55520580D01*
X70735117Y-55520580D01*
X70893867Y-55361830D01*
X70893867Y-54985038D01*
X70869464Y-54862357D01*
X70821597Y-54746795D01*
X70790431Y-54700152D01*
X70810492Y-54662622D01*
X70829373Y-54678117D01*
X70939687Y-54737082D01*
X71059385Y-54773392D01*
X71183867Y-54785652D01*
X72383867Y-54785652D01*
X72508349Y-54773392D01*
X72628047Y-54737082D01*
X72738361Y-54678117D01*
X72835052Y-54598765D01*
X72883867Y-54539284D01*
X72932682Y-54598765D01*
X73029373Y-54678117D01*
X73139687Y-54737082D01*
X73223867Y-54762618D01*
X73223868Y-62201329D01*
X71460199Y-63965000D01*
X71398061Y-63965000D01*
X71198102Y-64004774D01*
X71009744Y-64082795D01*
X70840226Y-64196063D01*
X70696063Y-64340226D01*
X70582795Y-64509744D01*
X70504774Y-64698102D01*
X70465000Y-64898061D01*
X70465000Y-65101939D01*
X70504774Y-65301898D01*
X70582795Y-65490256D01*
X70696063Y-65659774D01*
X70840226Y-65803937D01*
X71009744Y-65917205D01*
X71198102Y-65995226D01*
X71398061Y-66035000D01*
X71601939Y-66035000D01*
X71801898Y-65995226D01*
X71990256Y-65917205D01*
X72159774Y-65803937D01*
X72303937Y-65659774D01*
X72417205Y-65490256D01*
X72495226Y-65301898D01*
X72535000Y-65101939D01*
X72535000Y-65039801D01*
X74494875Y-63079928D01*
X74523868Y-63056134D01*
X74547662Y-63027141D01*
X74547666Y-63027137D01*
X74618840Y-62940410D01*
X74618841Y-62940409D01*
X74689413Y-62808380D01*
X74732870Y-62665119D01*
X74743867Y-62553466D01*
X74743867Y-62553457D01*
X74747543Y-62516134D01*
X74743867Y-62478811D01*
X74743867Y-56767560D01*
X75240000Y-56767560D01*
X75240000Y-57232440D01*
X75330694Y-57688387D01*
X75508595Y-58117879D01*
X75766868Y-58504412D01*
X76095588Y-58833132D01*
X76482121Y-59091405D01*
X76911613Y-59269306D01*
X77367560Y-59360000D01*
X77832440Y-59360000D01*
X78288387Y-59269306D01*
X78717879Y-59091405D01*
X79104412Y-58833132D01*
X79433132Y-58504412D01*
X79691405Y-58117879D01*
X79869306Y-57688387D01*
X79960000Y-57232440D01*
X79960000Y-56767560D01*
X79869306Y-56311613D01*
X79691405Y-55882121D01*
X79433132Y-55495588D01*
X79104412Y-55166868D01*
X78717879Y-54908595D01*
X78288387Y-54730694D01*
X77832440Y-54640000D01*
X77367560Y-54640000D01*
X76911613Y-54730694D01*
X76482121Y-54908595D01*
X76095588Y-55166868D01*
X75766868Y-55495588D01*
X75508595Y-55882121D01*
X75330694Y-56311613D01*
X75240000Y-56767560D01*
X74743867Y-56767560D01*
X74743867Y-54762618D01*
X74828047Y-54737082D01*
X74938361Y-54678117D01*
X75035052Y-54598765D01*
X75114404Y-54502074D01*
X75173369Y-54391760D01*
X75209679Y-54272062D01*
X75221939Y-54147580D01*
X75221939Y-53247580D01*
X75209679Y-53123098D01*
X75173369Y-53003400D01*
X75114404Y-52893086D01*
X75035052Y-52796395D01*
X74938361Y-52717043D01*
X74828047Y-52658078D01*
X74708349Y-52621768D01*
X74583867Y-52609508D01*
X73383867Y-52609508D01*
X73259385Y-52621768D01*
X73139687Y-52658078D01*
X73029373Y-52717043D01*
X72932682Y-52796395D01*
X72883867Y-52855876D01*
X72835052Y-52796395D01*
X72738361Y-52717043D01*
X72628047Y-52658078D01*
X72508349Y-52621768D01*
X72383867Y-52609508D01*
X71183867Y-52609508D01*
X71059385Y-52621768D01*
X70939687Y-52658078D01*
X70829373Y-52717043D01*
X70768199Y-52767247D01*
X70710052Y-52696395D01*
X70613361Y-52617043D01*
X70503047Y-52558078D01*
X70383349Y-52521768D01*
X70258867Y-52509508D01*
X69508867Y-52509508D01*
X69384385Y-52521768D01*
X69264687Y-52558078D01*
X69154373Y-52617043D01*
X69057682Y-52696395D01*
X69012517Y-52751428D01*
X67144419Y-50883330D01*
X68873867Y-50883330D01*
X68873867Y-51260122D01*
X68898270Y-51382803D01*
X68946137Y-51498365D01*
X69015630Y-51602369D01*
X69104078Y-51690817D01*
X69208082Y-51760310D01*
X69323644Y-51808177D01*
X69446325Y-51832580D01*
X69598117Y-51832580D01*
X69756867Y-51673830D01*
X69756867Y-50724580D01*
X70010867Y-50724580D01*
X70010867Y-51673830D01*
X70169617Y-51832580D01*
X70321409Y-51832580D01*
X70444090Y-51808177D01*
X70559652Y-51760310D01*
X70663656Y-51690817D01*
X70752104Y-51602369D01*
X70821597Y-51498365D01*
X70869464Y-51382803D01*
X70893867Y-51260122D01*
X70893867Y-50883330D01*
X70735117Y-50724580D01*
X70010867Y-50724580D01*
X69756867Y-50724580D01*
X69032617Y-50724580D01*
X68873867Y-50883330D01*
X67144419Y-50883330D01*
X66043668Y-49782580D01*
X68896545Y-49782580D01*
X68910053Y-49783910D01*
X68898270Y-49812357D01*
X68873867Y-49935038D01*
X68873867Y-50311830D01*
X69032617Y-50470580D01*
X69756867Y-50470580D01*
X69756867Y-50450580D01*
X70010867Y-50450580D01*
X70010867Y-50470580D01*
X70735117Y-50470580D01*
X70893867Y-50311830D01*
X70893867Y-49935038D01*
X70869464Y-49812357D01*
X70821597Y-49696795D01*
X70790431Y-49650152D01*
X70791915Y-49647376D01*
X70829373Y-49678117D01*
X70939687Y-49737082D01*
X71059385Y-49773392D01*
X71183867Y-49785652D01*
X72383867Y-49785652D01*
X72508349Y-49773392D01*
X72628047Y-49737082D01*
X72738361Y-49678117D01*
X72835052Y-49598765D01*
X72883867Y-49539284D01*
X72932682Y-49598765D01*
X73029373Y-49678117D01*
X73139687Y-49737082D01*
X73259385Y-49773392D01*
X73383867Y-49785652D01*
X74583867Y-49785652D01*
X74708349Y-49773392D01*
X74828047Y-49737082D01*
X74938361Y-49678117D01*
X75035052Y-49598765D01*
X75114404Y-49502074D01*
X75173369Y-49391760D01*
X75209679Y-49272062D01*
X75221939Y-49147580D01*
X75221939Y-48247580D01*
X75209679Y-48123098D01*
X75173369Y-48003400D01*
X75114404Y-47893086D01*
X75035052Y-47796395D01*
X74938361Y-47717043D01*
X74885835Y-47688967D01*
X79039802Y-43535000D01*
X79101939Y-43535000D01*
X79301898Y-43495226D01*
X79490256Y-43417205D01*
X79659774Y-43303937D01*
X79803937Y-43159774D01*
X79917205Y-42990256D01*
X79995226Y-42801898D01*
X80035000Y-42601939D01*
X80035000Y-42398061D01*
X79995226Y-42198102D01*
X79917205Y-42009744D01*
X79803937Y-41840226D01*
X79659774Y-41696063D01*
X79490256Y-41582795D01*
X79301898Y-41504774D01*
X79101939Y-41465000D01*
X78898061Y-41465000D01*
X78698102Y-41504774D01*
X78509744Y-41582795D01*
X78340226Y-41696063D01*
X78196063Y-41840226D01*
X78082795Y-42009744D01*
X78004774Y-42198102D01*
X77965000Y-42398061D01*
X77965000Y-42460198D01*
X73472865Y-46952334D01*
X73443867Y-46976132D01*
X73420069Y-47005130D01*
X73420068Y-47005131D01*
X73348893Y-47091857D01*
X73278321Y-47223887D01*
X73252753Y-47308177D01*
X73241109Y-47346565D01*
X73234865Y-47367148D01*
X73220191Y-47516133D01*
X73223868Y-47553465D01*
X73223868Y-47632542D01*
X73139687Y-47658078D01*
X73029373Y-47717043D01*
X72932682Y-47796395D01*
X72883867Y-47855876D01*
X72835052Y-47796395D01*
X72738361Y-47717043D01*
X72628047Y-47658078D01*
X72508349Y-47621768D01*
X72383867Y-47609508D01*
X71183867Y-47609508D01*
X71059385Y-47621768D01*
X70939687Y-47658078D01*
X70829373Y-47717043D01*
X70791915Y-47747784D01*
X70789404Y-47743086D01*
X70710052Y-47646395D01*
X70613361Y-47567043D01*
X70503047Y-47508078D01*
X70383349Y-47471768D01*
X70258867Y-47459508D01*
X69508867Y-47459508D01*
X69384385Y-47471768D01*
X69264687Y-47508078D01*
X69154373Y-47567043D01*
X69057682Y-47646395D01*
X68978330Y-47743086D01*
X68919365Y-47853400D01*
X68883055Y-47973098D01*
X68876443Y-48040235D01*
X68834591Y-48062606D01*
X68718866Y-48157579D01*
X68695067Y-48186578D01*
X68619065Y-48262580D01*
X62696939Y-48262580D01*
X62696939Y-48147580D01*
X62687090Y-48047580D01*
X62696939Y-47947580D01*
X62696939Y-47832580D01*
X67196545Y-47832580D01*
X67233867Y-47836256D01*
X67271189Y-47832580D01*
X67271200Y-47832580D01*
X67382853Y-47821583D01*
X67526114Y-47778126D01*
X67658143Y-47707554D01*
X67773868Y-47612581D01*
X67797671Y-47583577D01*
X68873867Y-46507381D01*
X68873867Y-46760122D01*
X68898270Y-46882803D01*
X68946137Y-46998365D01*
X69015630Y-47102369D01*
X69104078Y-47190817D01*
X69208082Y-47260310D01*
X69323644Y-47308177D01*
X69446325Y-47332580D01*
X69598117Y-47332580D01*
X69756867Y-47173830D01*
X69756867Y-46224580D01*
X70010867Y-46224580D01*
X70010867Y-47173830D01*
X70169617Y-47332580D01*
X70321409Y-47332580D01*
X70444090Y-47308177D01*
X70559652Y-47260310D01*
X70663656Y-47190817D01*
X70752104Y-47102369D01*
X70821597Y-46998365D01*
X70869464Y-46882803D01*
X70893867Y-46760122D01*
X70893867Y-46383330D01*
X70735117Y-46224580D01*
X70010867Y-46224580D01*
X69756867Y-46224580D01*
X69736867Y-46224580D01*
X69736867Y-45970580D01*
X69756867Y-45970580D01*
X69756867Y-45950580D01*
X70010867Y-45950580D01*
X70010867Y-45970580D01*
X70735117Y-45970580D01*
X70893867Y-45811830D01*
X70893867Y-45435038D01*
X70869464Y-45312357D01*
X70821597Y-45196795D01*
X70790431Y-45150152D01*
X70791915Y-45147376D01*
X70829373Y-45178117D01*
X70939687Y-45237082D01*
X71059385Y-45273392D01*
X71183867Y-45285652D01*
X72383867Y-45285652D01*
X72508349Y-45273392D01*
X72628047Y-45237082D01*
X72738361Y-45178117D01*
X72835052Y-45098765D01*
X72883867Y-45039284D01*
X72932682Y-45098765D01*
X73029373Y-45178117D01*
X73139687Y-45237082D01*
X73259385Y-45273392D01*
X73383867Y-45285652D01*
X74583867Y-45285652D01*
X74708349Y-45273392D01*
X74828047Y-45237082D01*
X74938361Y-45178117D01*
X75035052Y-45098765D01*
X75114404Y-45002074D01*
X75173369Y-44891760D01*
X75209679Y-44772062D01*
X75221939Y-44647580D01*
X75221939Y-43747580D01*
X75209679Y-43623098D01*
X75173369Y-43503400D01*
X75114404Y-43393086D01*
X75035052Y-43296395D01*
X74938361Y-43217043D01*
X74828047Y-43158078D01*
X74743867Y-43132542D01*
X74743867Y-39762618D01*
X74828047Y-39737082D01*
X74938361Y-39678117D01*
X75035052Y-39598765D01*
X75114404Y-39502074D01*
X75173369Y-39391760D01*
X75209679Y-39272062D01*
X75221939Y-39147580D01*
X75221939Y-38247580D01*
X75209679Y-38123098D01*
X75173369Y-38003400D01*
X75114404Y-37893086D01*
X75035052Y-37796395D01*
X74938361Y-37717043D01*
X74828047Y-37658078D01*
X74708349Y-37621768D01*
X74583867Y-37609508D01*
X73820597Y-37609508D01*
X71950091Y-35739003D01*
X71926288Y-35709999D01*
X71810563Y-35615026D01*
X71678534Y-35544454D01*
X71535273Y-35500997D01*
X71423620Y-35490000D01*
X71423609Y-35490000D01*
X71386287Y-35486324D01*
X71348965Y-35490000D01*
X67953711Y-35490000D01*
X67909774Y-35446063D01*
X67740256Y-35332795D01*
X67551898Y-35254774D01*
X67351939Y-35215000D01*
X67148061Y-35215000D01*
X66948102Y-35254774D01*
X66759744Y-35332795D01*
X66590226Y-35446063D01*
X66446063Y-35590226D01*
X66332795Y-35759744D01*
X66254774Y-35948102D01*
X66215000Y-36148061D01*
X66215000Y-36351939D01*
X66254774Y-36551898D01*
X66332795Y-36740256D01*
X66446063Y-36909774D01*
X66590226Y-37053937D01*
X66759744Y-37167205D01*
X66948102Y-37245226D01*
X67148061Y-37285000D01*
X67351939Y-37285000D01*
X67551898Y-37245226D01*
X67740256Y-37167205D01*
X67909774Y-37053937D01*
X67953711Y-37010000D01*
X71071486Y-37010000D01*
X71670994Y-37609508D01*
X71183867Y-37609508D01*
X71059385Y-37621768D01*
X70939687Y-37658078D01*
X70829373Y-37717043D01*
X70732682Y-37796395D01*
X70653330Y-37893086D01*
X70629547Y-37937580D01*
X68439368Y-37937580D01*
X68385052Y-37871395D01*
X68288361Y-37792043D01*
X68178047Y-37733078D01*
X68058349Y-37696768D01*
X67933867Y-37684508D01*
X66733867Y-37684508D01*
X66609385Y-37696768D01*
X66489687Y-37733078D01*
X66381295Y-37791016D01*
X66334652Y-37759850D01*
X66219090Y-37711983D01*
X66096409Y-37687580D01*
X65719617Y-37687580D01*
X65560867Y-37846330D01*
X65560867Y-38570580D01*
X65580867Y-38570580D01*
X65580867Y-38824580D01*
X65560867Y-38824580D01*
X65560867Y-39548830D01*
X65719617Y-39707580D01*
X65868865Y-39707580D01*
X65814855Y-39773392D01*
X65773892Y-39823305D01*
X65703321Y-39955334D01*
X65703320Y-39955335D01*
X65659863Y-40098596D01*
X65648866Y-40210249D01*
X65648866Y-40210259D01*
X65645190Y-40247581D01*
X65648866Y-40284904D01*
X65648866Y-41258331D01*
X65560867Y-41346330D01*
X65560867Y-42070580D01*
X65580867Y-42070580D01*
X65580867Y-42324580D01*
X65560867Y-42324580D01*
X65560867Y-42344580D01*
X65306867Y-42344580D01*
X65306867Y-42324580D01*
X64357617Y-42324580D01*
X64198867Y-42483330D01*
X64198867Y-42635122D01*
X64223270Y-42757803D01*
X64271137Y-42873365D01*
X64340630Y-42977369D01*
X64429078Y-43065817D01*
X64533082Y-43135310D01*
X64648644Y-43183177D01*
X64771325Y-43207580D01*
X64909067Y-43207580D01*
X63104068Y-45012580D01*
X62405011Y-45012580D01*
X62303047Y-44958078D01*
X62183349Y-44921768D01*
X62058867Y-44909508D01*
X60608867Y-44909508D01*
X60484385Y-44921768D01*
X60364687Y-44958078D01*
X60254373Y-45017043D01*
X60157682Y-45096395D01*
X60078330Y-45193086D01*
X60019365Y-45303400D01*
X59983055Y-45423098D01*
X59970795Y-45547580D01*
X59970795Y-45997580D01*
X59980644Y-46097580D01*
X59970795Y-46197580D01*
X59970795Y-46647580D01*
X59980644Y-46747580D01*
X59970795Y-46847580D01*
X59970795Y-47297580D01*
X59980644Y-47397580D01*
X59970795Y-47497580D01*
X59970795Y-47947580D01*
X59980644Y-48047580D01*
X59970795Y-48147580D01*
X59970795Y-48597580D01*
X59980644Y-48697580D01*
X59970795Y-48797580D01*
X59970795Y-49247580D01*
X59980644Y-49347580D01*
X59970795Y-49447580D01*
X59970795Y-49897580D01*
X59980867Y-49999847D01*
X59973867Y-50035038D01*
X59973867Y-50051330D01*
X59999800Y-50077263D01*
X60019365Y-50141760D01*
X60078330Y-50252074D01*
X60136193Y-50322580D01*
X60078330Y-50393086D01*
X60019365Y-50503400D01*
X59999800Y-50567897D01*
X59973867Y-50593830D01*
X59973867Y-50610122D01*
X59980867Y-50645313D01*
X59970795Y-50747580D01*
X59970795Y-51197580D01*
X59980644Y-51297580D01*
X59970795Y-51397580D01*
X59970795Y-51847580D01*
X59983055Y-51972062D01*
X60019365Y-52091760D01*
X60078330Y-52202074D01*
X60157682Y-52298765D01*
X60254373Y-52378117D01*
X60364687Y-52437082D01*
X60484385Y-52473392D01*
X60573867Y-52482205D01*
X60573868Y-58684508D01*
X59833867Y-58684508D01*
X59709385Y-58696768D01*
X59589687Y-58733078D01*
X59479373Y-58792043D01*
X59382682Y-58871395D01*
X59328366Y-58937580D01*
X59133240Y-58937580D01*
X59078047Y-58908078D01*
X58958349Y-58871768D01*
X58833867Y-58859508D01*
X57933867Y-58859508D01*
X57809385Y-58871768D01*
X57689687Y-58908078D01*
X57579373Y-58967043D01*
X57482682Y-59046395D01*
X57403330Y-59143086D01*
X57344365Y-59253400D01*
X57318829Y-59337580D01*
X56621939Y-59337580D01*
X56621939Y-59322580D01*
X56609679Y-59198098D01*
X56573369Y-59078400D01*
X56514404Y-58968086D01*
X56435052Y-58871395D01*
X56338361Y-58792043D01*
X56228047Y-58733078D01*
X56108349Y-58696768D01*
X55983867Y-58684508D01*
X54783867Y-58684508D01*
X54659385Y-58696768D01*
X54539687Y-58733078D01*
X54431295Y-58791016D01*
X54384652Y-58759850D01*
X54269090Y-58711983D01*
X54146409Y-58687580D01*
X53769617Y-58687580D01*
X53610867Y-58846330D01*
X53610867Y-59570580D01*
X53630867Y-59570580D01*
X53630867Y-59824580D01*
X53610867Y-59824580D01*
X53610867Y-60548830D01*
X53769617Y-60707580D01*
X54146409Y-60707580D01*
X54269090Y-60683177D01*
X54384652Y-60635310D01*
X54431295Y-60604144D01*
X54539687Y-60662082D01*
X54659385Y-60698392D01*
X54783867Y-60710652D01*
X55332903Y-60710652D01*
X55359591Y-60732554D01*
X55491620Y-60803126D01*
X55634881Y-60846583D01*
X55746534Y-60857580D01*
X55746543Y-60857580D01*
X55783866Y-60861256D01*
X55821189Y-60857580D01*
X57318829Y-60857580D01*
X57344365Y-60941760D01*
X57403330Y-61052074D01*
X57482682Y-61148765D01*
X57542163Y-61197580D01*
X57482682Y-61246395D01*
X57403330Y-61343086D01*
X57344365Y-61453400D01*
X57308055Y-61573098D01*
X57295795Y-61697580D01*
X57295795Y-62897580D01*
X57308055Y-63022062D01*
X57344365Y-63141760D01*
X57403330Y-63252074D01*
X57450465Y-63309508D01*
X57033867Y-63309508D01*
X56909385Y-63321768D01*
X56789687Y-63358078D01*
X56679373Y-63417043D01*
X56582682Y-63496395D01*
X56528366Y-63562580D01*
X55114186Y-63562580D01*
X55033866Y-63554669D01*
X54953547Y-63562580D01*
X54953545Y-63562580D01*
X54713351Y-63586237D01*
X54405152Y-63679728D01*
X54121115Y-63831549D01*
X53872153Y-64035866D01*
X53820947Y-64098262D01*
X51996629Y-65922580D01*
X43945236Y-65922580D01*
X43995226Y-65801894D01*
X44035000Y-65601935D01*
X44035000Y-65539797D01*
X44894875Y-64679924D01*
X44923868Y-64656130D01*
X44947662Y-64627137D01*
X44947666Y-64627133D01*
X45018840Y-64540406D01*
X45018841Y-64540405D01*
X45089413Y-64408376D01*
X45132870Y-64265115D01*
X45143867Y-64153462D01*
X45143867Y-64153453D01*
X45147543Y-64116130D01*
X45143867Y-64078807D01*
X45143867Y-63951900D01*
X45188361Y-63928117D01*
X45285052Y-63848765D01*
X45364404Y-63752074D01*
X45423369Y-63641760D01*
X45459679Y-63522062D01*
X45471939Y-63397580D01*
X45471939Y-62197580D01*
X45459679Y-62073098D01*
X45423369Y-61953400D01*
X45364404Y-61843086D01*
X45285052Y-61746395D01*
X45225571Y-61697580D01*
X45285052Y-61648765D01*
X45364404Y-61552074D01*
X45423369Y-61441760D01*
X45459679Y-61322062D01*
X45471939Y-61197580D01*
X45471939Y-60434309D01*
X45922918Y-59983330D01*
X52248867Y-59983330D01*
X52248867Y-60135122D01*
X52273270Y-60257803D01*
X52321137Y-60373365D01*
X52390630Y-60477369D01*
X52479078Y-60565817D01*
X52583082Y-60635310D01*
X52698644Y-60683177D01*
X52821325Y-60707580D01*
X53198117Y-60707580D01*
X53356867Y-60548830D01*
X53356867Y-59824580D01*
X52407617Y-59824580D01*
X52248867Y-59983330D01*
X45922918Y-59983330D01*
X46646210Y-59260038D01*
X52248867Y-59260038D01*
X52248867Y-59411830D01*
X52407617Y-59570580D01*
X53356867Y-59570580D01*
X53356867Y-58846330D01*
X53198117Y-58687580D01*
X52821325Y-58687580D01*
X52698644Y-58711983D01*
X52583082Y-58759850D01*
X52479078Y-58829343D01*
X52390630Y-58917791D01*
X52321137Y-59021795D01*
X52273270Y-59137357D01*
X52248867Y-59260038D01*
X46646210Y-59260038D01*
X53523669Y-52382580D01*
X54362723Y-52382580D01*
X54464687Y-52437082D01*
X54584385Y-52473392D01*
X54708867Y-52485652D01*
X56158867Y-52485652D01*
X56283349Y-52473392D01*
X56403047Y-52437082D01*
X56513361Y-52378117D01*
X56610052Y-52298765D01*
X56689404Y-52202074D01*
X56748369Y-52091760D01*
X56784679Y-51972062D01*
X56796939Y-51847580D01*
X56796939Y-51397580D01*
X56787090Y-51297580D01*
X56796939Y-51197580D01*
X56796939Y-50747580D01*
X56787090Y-50647580D01*
X56796939Y-50547580D01*
X56796939Y-50097580D01*
X56787090Y-49997580D01*
X56796939Y-49897580D01*
X56796939Y-49447580D01*
X56787090Y-49347580D01*
X56796939Y-49247580D01*
X56796939Y-48797580D01*
X56787090Y-48697580D01*
X56796939Y-48597580D01*
X56796939Y-48147580D01*
X56786867Y-48045313D01*
X56793867Y-48010122D01*
X56793867Y-47993830D01*
X56767934Y-47967897D01*
X56748369Y-47903400D01*
X56689404Y-47793086D01*
X56631700Y-47722773D01*
X56652104Y-47702369D01*
X56721597Y-47598365D01*
X56769464Y-47482803D01*
X56771220Y-47473977D01*
X56793867Y-47451330D01*
X56793867Y-47435038D01*
X56786416Y-47397580D01*
X56793867Y-47360122D01*
X56793867Y-47343830D01*
X56771220Y-47321183D01*
X56769464Y-47312357D01*
X56721597Y-47196795D01*
X56652104Y-47092791D01*
X56631893Y-47072580D01*
X56652104Y-47052369D01*
X56721597Y-46948365D01*
X56769464Y-46832803D01*
X56771220Y-46823977D01*
X56793867Y-46801330D01*
X56793867Y-46785038D01*
X56786416Y-46747580D01*
X56793867Y-46710122D01*
X56793867Y-46693830D01*
X56771220Y-46671183D01*
X56769464Y-46662357D01*
X56721597Y-46546795D01*
X56652104Y-46442791D01*
X56631893Y-46422580D01*
X56652104Y-46402369D01*
X56721597Y-46298365D01*
X56769464Y-46182803D01*
X56771220Y-46173977D01*
X56793867Y-46151330D01*
X56793867Y-46135038D01*
X56786416Y-46097580D01*
X56793867Y-46060122D01*
X56793867Y-46043830D01*
X56771220Y-46021183D01*
X56769464Y-46012357D01*
X56721597Y-45896795D01*
X56652104Y-45792791D01*
X56563656Y-45704343D01*
X56497411Y-45660080D01*
X56635117Y-45660080D01*
X56793867Y-45501330D01*
X56793867Y-45485038D01*
X56769464Y-45362357D01*
X56721597Y-45246795D01*
X56652104Y-45142791D01*
X56563656Y-45054343D01*
X56459652Y-44984850D01*
X56344090Y-44936983D01*
X56221409Y-44912580D01*
X55719617Y-44912580D01*
X55560867Y-45071330D01*
X55560867Y-45660080D01*
X55622117Y-45660080D01*
X55560867Y-45721330D01*
X55560867Y-47219580D01*
X55306867Y-47219580D01*
X55306867Y-45721330D01*
X55245617Y-45660080D01*
X55306867Y-45660080D01*
X55306867Y-45071330D01*
X55148117Y-44912580D01*
X54646325Y-44912580D01*
X54523644Y-44936983D01*
X54408082Y-44984850D01*
X54304078Y-45054343D01*
X54215630Y-45142791D01*
X54146137Y-45246795D01*
X54098270Y-45362357D01*
X54073867Y-45485038D01*
X54073867Y-45501330D01*
X54232617Y-45660080D01*
X54370323Y-45660080D01*
X54304078Y-45704343D01*
X54215630Y-45792791D01*
X54146137Y-45896795D01*
X54098270Y-46012357D01*
X54096514Y-46021183D01*
X54073867Y-46043830D01*
X54073867Y-46060122D01*
X54081318Y-46097580D01*
X54073867Y-46135038D01*
X54073867Y-46151330D01*
X54096514Y-46173977D01*
X54098270Y-46182803D01*
X54146137Y-46298365D01*
X54215630Y-46402369D01*
X54235841Y-46422580D01*
X54215630Y-46442791D01*
X54146137Y-46546795D01*
X54098270Y-46662357D01*
X54096514Y-46671183D01*
X54073867Y-46693830D01*
X54073867Y-46710122D01*
X54081318Y-46747580D01*
X54073867Y-46785038D01*
X54073867Y-46801330D01*
X54096514Y-46823977D01*
X54098270Y-46832803D01*
X54144983Y-46945578D01*
X54106667Y-46945578D01*
X53847671Y-46686583D01*
X53823868Y-46657579D01*
X53708143Y-46562606D01*
X53576114Y-46492034D01*
X53432853Y-46448577D01*
X53321200Y-46437580D01*
X53321189Y-46437580D01*
X53283867Y-46433904D01*
X53246545Y-46437580D01*
X48538187Y-46437580D01*
X48514404Y-46393086D01*
X48435052Y-46296395D01*
X48338361Y-46217043D01*
X48228047Y-46158078D01*
X48108349Y-46121768D01*
X47983867Y-46109508D01*
X46783867Y-46109508D01*
X46659385Y-46121768D01*
X46539687Y-46158078D01*
X46429373Y-46217043D01*
X46332682Y-46296395D01*
X46283867Y-46355876D01*
X46235052Y-46296395D01*
X46138361Y-46217043D01*
X46028047Y-46158078D01*
X45908349Y-46121768D01*
X45783867Y-46109508D01*
X44583867Y-46109508D01*
X44459385Y-46121768D01*
X44339687Y-46158078D01*
X44229373Y-46217043D01*
X44132682Y-46296395D01*
X44053330Y-46393086D01*
X44029547Y-46437580D01*
X42501189Y-46437580D01*
X42463866Y-46433904D01*
X42426543Y-46437580D01*
X42426534Y-46437580D01*
X42314881Y-46448577D01*
X42171620Y-46492034D01*
X42039591Y-46562606D01*
X42039589Y-46562607D01*
X42039590Y-46562607D01*
X41952863Y-46633781D01*
X41952859Y-46633785D01*
X41923866Y-46657579D01*
X41900072Y-46686572D01*
X41209773Y-47376872D01*
X41165176Y-47363344D01*
X40954359Y-47342580D01*
X40813375Y-47342580D01*
X40602558Y-47363344D01*
X40332059Y-47445398D01*
X40082766Y-47578648D01*
X39864259Y-47757972D01*
X39684935Y-47976479D01*
X39551685Y-48225772D01*
X39469631Y-48496271D01*
X39441924Y-48777580D01*
X39469631Y-49058889D01*
X39551685Y-49329388D01*
X39684935Y-49578681D01*
X39864259Y-49797188D01*
X40035327Y-49937580D01*
X28518867Y-49937580D01*
X28518867Y-47293371D01*
X31121956Y-44690282D01*
X40070770Y-44690282D01*
X40142353Y-44934251D01*
X40397863Y-45055151D01*
X40672051Y-45123880D01*
X40954379Y-45137797D01*
X41233997Y-45096367D01*
X41500159Y-45001183D01*
X41625381Y-44934251D01*
X41696964Y-44690282D01*
X40883867Y-43877185D01*
X40070770Y-44690282D01*
X31121956Y-44690282D01*
X32044146Y-43768092D01*
X39443650Y-43768092D01*
X39485080Y-44047710D01*
X39580264Y-44313872D01*
X39647196Y-44439094D01*
X39891165Y-44510677D01*
X40704262Y-43697580D01*
X41063472Y-43697580D01*
X41876569Y-44510677D01*
X42120538Y-44439094D01*
X42241438Y-44183584D01*
X42310167Y-43909396D01*
X42324084Y-43627068D01*
X42282654Y-43347450D01*
X42187470Y-43081288D01*
X42120538Y-42956066D01*
X41876569Y-42884483D01*
X41063472Y-43697580D01*
X40704262Y-43697580D01*
X39891165Y-42884483D01*
X39647196Y-42956066D01*
X39526296Y-43211576D01*
X39457567Y-43485764D01*
X39443650Y-43768092D01*
X32044146Y-43768092D01*
X33107360Y-42704878D01*
X40070770Y-42704878D01*
X40883867Y-43517975D01*
X41696964Y-42704878D01*
X41625381Y-42460909D01*
X41369871Y-42340009D01*
X41095683Y-42271280D01*
X40813355Y-42257363D01*
X40533737Y-42298793D01*
X40267575Y-42393977D01*
X40142353Y-42460909D01*
X40070770Y-42704878D01*
X33107360Y-42704878D01*
X34052200Y-41760038D01*
X64198867Y-41760038D01*
X64198867Y-41911830D01*
X64357617Y-42070580D01*
X65306867Y-42070580D01*
X65306867Y-41346330D01*
X65148117Y-41187580D01*
X64771325Y-41187580D01*
X64648644Y-41211983D01*
X64533082Y-41259850D01*
X64429078Y-41329343D01*
X64340630Y-41417791D01*
X64271137Y-41521795D01*
X64223270Y-41637357D01*
X64198867Y-41760038D01*
X34052200Y-41760038D01*
X36828908Y-38983330D01*
X64198867Y-38983330D01*
X64198867Y-39135122D01*
X64223270Y-39257803D01*
X64271137Y-39373365D01*
X64340630Y-39477369D01*
X64429078Y-39565817D01*
X64533082Y-39635310D01*
X64648644Y-39683177D01*
X64771325Y-39707580D01*
X65148117Y-39707580D01*
X65306867Y-39548830D01*
X65306867Y-38824580D01*
X64357617Y-38824580D01*
X64198867Y-38983330D01*
X36828908Y-38983330D01*
X37552200Y-38260038D01*
X64198867Y-38260038D01*
X64198867Y-38411830D01*
X64357617Y-38570580D01*
X65306867Y-38570580D01*
X65306867Y-37846330D01*
X65148117Y-37687580D01*
X64771325Y-37687580D01*
X64648644Y-37711983D01*
X64533082Y-37759850D01*
X64429078Y-37829343D01*
X64340630Y-37917791D01*
X64271137Y-38021795D01*
X64223270Y-38137357D01*
X64198867Y-38260038D01*
X37552200Y-38260038D01*
X38177239Y-37635000D01*
X54919681Y-37635000D01*
X55000000Y-37642911D01*
X55080319Y-37635000D01*
X55080322Y-37635000D01*
X55320516Y-37611343D01*
X55628715Y-37517852D01*
X55912752Y-37366031D01*
X56161714Y-37161714D01*
X56212925Y-37099313D01*
X60185239Y-33127000D01*
X75679061Y-33127000D01*
X75508595Y-33382121D01*
X75330694Y-33811613D01*
X75240000Y-34267560D01*
X75240000Y-34732440D01*
X75330694Y-35188387D01*
X75508595Y-35617879D01*
X75766868Y-36004412D01*
X76095588Y-36333132D01*
X76482121Y-36591405D01*
X76911613Y-36769306D01*
X77367560Y-36860000D01*
X77832440Y-36860000D01*
X78288387Y-36769306D01*
X78717879Y-36591405D01*
X79104412Y-36333132D01*
X79433132Y-36004412D01*
X79691405Y-35617879D01*
X79869306Y-35188387D01*
X79960000Y-34732440D01*
X79960000Y-34267560D01*
X79869306Y-33811613D01*
X79691405Y-33382121D01*
X79520939Y-33127000D01*
X99305000Y-33127000D01*
X99305001Y-94969032D01*
X99234243Y-95761862D01*
X99032411Y-96499637D01*
X98703116Y-97190018D01*
X98256775Y-97811168D01*
X97707483Y-98343469D01*
X97072617Y-98770080D01*
X96372240Y-99077525D01*
X95623140Y-99257368D01*
X94974510Y-99305000D01*
X5030957Y-99305000D01*
X4238138Y-99234243D01*
X3500363Y-99032411D01*
X2809982Y-98703116D01*
X2188832Y-98256775D01*
X1656531Y-97707483D01*
X1229920Y-97072617D01*
X922475Y-96372240D01*
X742632Y-95623140D01*
X695000Y-94974510D01*
X695000Y-94671531D01*
X1665000Y-94671531D01*
X1665000Y-95328469D01*
X1793162Y-95972784D01*
X2044561Y-96579715D01*
X2409536Y-97125939D01*
X2874061Y-97590464D01*
X3420285Y-97955439D01*
X4027216Y-98206838D01*
X4671531Y-98335000D01*
X5328469Y-98335000D01*
X5972784Y-98206838D01*
X6579715Y-97955439D01*
X7125939Y-97590464D01*
X7590464Y-97125939D01*
X7955439Y-96579715D01*
X8206838Y-95972784D01*
X8335000Y-95328469D01*
X8335000Y-95267560D01*
X20040000Y-95267560D01*
X20040000Y-95732440D01*
X20130694Y-96188387D01*
X20308595Y-96617879D01*
X20566868Y-97004412D01*
X20895588Y-97333132D01*
X21282121Y-97591405D01*
X21711613Y-97769306D01*
X22167560Y-97860000D01*
X22632440Y-97860000D01*
X23088387Y-97769306D01*
X23517879Y-97591405D01*
X23904412Y-97333132D01*
X24233132Y-97004412D01*
X24491405Y-96617879D01*
X24669306Y-96188387D01*
X24760000Y-95732440D01*
X24760000Y-95267560D01*
X24669306Y-94811613D01*
X24611283Y-94671531D01*
X91665000Y-94671531D01*
X91665000Y-95328469D01*
X91793162Y-95972784D01*
X92044561Y-96579715D01*
X92409536Y-97125939D01*
X92874061Y-97590464D01*
X93420285Y-97955439D01*
X94027216Y-98206838D01*
X94671531Y-98335000D01*
X95328469Y-98335000D01*
X95972784Y-98206838D01*
X96579715Y-97955439D01*
X97125939Y-97590464D01*
X97590464Y-97125939D01*
X97955439Y-96579715D01*
X98206838Y-95972784D01*
X98335000Y-95328469D01*
X98335000Y-94671531D01*
X98206838Y-94027216D01*
X97955439Y-93420285D01*
X97590464Y-92874061D01*
X97125939Y-92409536D01*
X96579715Y-92044561D01*
X95972784Y-91793162D01*
X95328469Y-91665000D01*
X94671531Y-91665000D01*
X94027216Y-91793162D01*
X93420285Y-92044561D01*
X92874061Y-92409536D01*
X92409536Y-92874061D01*
X92044561Y-93420285D01*
X91793162Y-94027216D01*
X91665000Y-94671531D01*
X24611283Y-94671531D01*
X24491405Y-94382121D01*
X24233132Y-93995588D01*
X23904412Y-93666868D01*
X23517879Y-93408595D01*
X23088387Y-93230694D01*
X22632440Y-93140000D01*
X22167560Y-93140000D01*
X21711613Y-93230694D01*
X21282121Y-93408595D01*
X20895588Y-93666868D01*
X20566868Y-93995588D01*
X20308595Y-94382121D01*
X20130694Y-94811613D01*
X20040000Y-95267560D01*
X8335000Y-95267560D01*
X8335000Y-94671531D01*
X8206838Y-94027216D01*
X7955439Y-93420285D01*
X7590464Y-92874061D01*
X7125939Y-92409536D01*
X6579715Y-92044561D01*
X5972784Y-91793162D01*
X5328469Y-91665000D01*
X4671531Y-91665000D01*
X4027216Y-91793162D01*
X3420285Y-92044561D01*
X2874061Y-92409536D01*
X2409536Y-92874061D01*
X2044561Y-93420285D01*
X1793162Y-94027216D01*
X1665000Y-94671531D01*
X695000Y-94671531D01*
X695000Y-79319761D01*
X12240000Y-79319761D01*
X12240000Y-79680239D01*
X12310325Y-80033791D01*
X12448275Y-80366830D01*
X12648546Y-80666557D01*
X12903443Y-80921454D01*
X13203170Y-81121725D01*
X13536209Y-81259675D01*
X13889761Y-81330000D01*
X14250239Y-81330000D01*
X14603791Y-81259675D01*
X14936830Y-81121725D01*
X15236557Y-80921454D01*
X15491454Y-80666557D01*
X15691725Y-80366830D01*
X15829675Y-80033791D01*
X15900000Y-79680239D01*
X15900000Y-79319761D01*
X15889617Y-79267560D01*
X75240000Y-79267560D01*
X75240000Y-79732440D01*
X75330694Y-80188387D01*
X75508595Y-80617879D01*
X75766868Y-81004412D01*
X76095588Y-81333132D01*
X76482121Y-81591405D01*
X76911613Y-81769306D01*
X77367560Y-81860000D01*
X77832440Y-81860000D01*
X78288387Y-81769306D01*
X78717879Y-81591405D01*
X79104412Y-81333132D01*
X79433132Y-81004412D01*
X79691405Y-80617879D01*
X79869306Y-80188387D01*
X79960000Y-79732440D01*
X79960000Y-79267560D01*
X79869306Y-78811613D01*
X79691405Y-78382121D01*
X79433132Y-77995588D01*
X79104412Y-77666868D01*
X78717879Y-77408595D01*
X78288387Y-77230694D01*
X77832440Y-77140000D01*
X77367560Y-77140000D01*
X76911613Y-77230694D01*
X76482121Y-77408595D01*
X76095588Y-77666868D01*
X75766868Y-77995588D01*
X75508595Y-78382121D01*
X75330694Y-78811613D01*
X75240000Y-79267560D01*
X15889617Y-79267560D01*
X15829675Y-78966209D01*
X15691725Y-78633170D01*
X15491454Y-78333443D01*
X15236557Y-78078546D01*
X14936830Y-77878275D01*
X14603791Y-77740325D01*
X14250239Y-77670000D01*
X13889761Y-77670000D01*
X13536209Y-77740325D01*
X13203170Y-77878275D01*
X12903443Y-78078546D01*
X12648546Y-78333443D01*
X12448275Y-78633170D01*
X12310325Y-78966209D01*
X12240000Y-79319761D01*
X695000Y-79319761D01*
X695000Y-72767560D01*
X20040000Y-72767560D01*
X20040000Y-73232440D01*
X20130694Y-73688387D01*
X20308595Y-74117879D01*
X20566868Y-74504412D01*
X20895588Y-74833132D01*
X21282121Y-75091405D01*
X21711613Y-75269306D01*
X22167560Y-75360000D01*
X22632440Y-75360000D01*
X23088387Y-75269306D01*
X23517879Y-75091405D01*
X23904412Y-74833132D01*
X24233132Y-74504412D01*
X24491405Y-74117879D01*
X24669306Y-73688387D01*
X24760000Y-73232440D01*
X24760000Y-72767560D01*
X24669306Y-72311613D01*
X24491405Y-71882121D01*
X24233132Y-71495588D01*
X23904412Y-71166868D01*
X23517879Y-70908595D01*
X23088387Y-70730694D01*
X22632440Y-70640000D01*
X22167560Y-70640000D01*
X21711613Y-70730694D01*
X21282121Y-70908595D01*
X20895588Y-71166868D01*
X20566868Y-71495588D01*
X20308595Y-71882121D01*
X20130694Y-72311613D01*
X20040000Y-72767560D01*
X695000Y-72767560D01*
X695000Y-56819761D01*
X12240000Y-56819761D01*
X12240000Y-57180239D01*
X12310325Y-57533791D01*
X12448275Y-57866830D01*
X12648546Y-58166557D01*
X12903443Y-58421454D01*
X13203170Y-58621725D01*
X13536209Y-58759675D01*
X13889761Y-58830000D01*
X14250239Y-58830000D01*
X14603791Y-58759675D01*
X14936830Y-58621725D01*
X15236557Y-58421454D01*
X15491454Y-58166557D01*
X15691725Y-57866830D01*
X15829675Y-57533791D01*
X15900000Y-57180239D01*
X15900000Y-56819761D01*
X15829675Y-56466209D01*
X15691725Y-56133170D01*
X15491454Y-55833443D01*
X15236557Y-55578546D01*
X14936830Y-55378275D01*
X14603791Y-55240325D01*
X14250239Y-55170000D01*
X13889761Y-55170000D01*
X13536209Y-55240325D01*
X13203170Y-55378275D01*
X12903443Y-55578546D01*
X12648546Y-55833443D01*
X12448275Y-56133170D01*
X12310325Y-56466209D01*
X12240000Y-56819761D01*
X695000Y-56819761D01*
X695000Y-50267560D01*
X20040000Y-50267560D01*
X20040000Y-50732440D01*
X20130694Y-51188387D01*
X20308595Y-51617879D01*
X20566868Y-52004412D01*
X20895588Y-52333132D01*
X21282121Y-52591405D01*
X21711613Y-52769306D01*
X22167560Y-52860000D01*
X22632440Y-52860000D01*
X23088387Y-52769306D01*
X23517879Y-52591405D01*
X23904412Y-52333132D01*
X24233132Y-52004412D01*
X24491405Y-51617879D01*
X24669306Y-51188387D01*
X24760000Y-50732440D01*
X24760000Y-50267560D01*
X24669306Y-49811613D01*
X24491405Y-49382121D01*
X24233132Y-48995588D01*
X23904412Y-48666868D01*
X23517879Y-48408595D01*
X23088387Y-48230694D01*
X22632440Y-48140000D01*
X22167560Y-48140000D01*
X21711613Y-48230694D01*
X21282121Y-48408595D01*
X20895588Y-48666868D01*
X20566868Y-48995588D01*
X20308595Y-49382121D01*
X20130694Y-49811613D01*
X20040000Y-50267560D01*
X695000Y-50267560D01*
X695000Y-33127000D01*
X12854989Y-33127000D01*
X12648546Y-33333443D01*
M02*
