G04 #@! TF.GenerationSoftware,KiCad,Pcbnew,6.0.0-rc1-unknown-5edf350~66~ubuntu18.10.1*
G04 #@! TF.CreationDate,2019-02-07T09:44:38-05:00
G04 #@! TF.ProjectId,UPS,5550532e-6b69-4636-9164-5f7063625858,rev?*
G04 #@! TF.SameCoordinates,Original*
G04 #@! TF.FileFunction,Legend,Bot*
G04 #@! TF.FilePolarity,Positive*
%FSLAX46Y46*%
G04 Gerber Fmt 4.6, Leading zero omitted, Abs format (unit mm)*
G04 Created by KiCad (PCBNEW 6.0.0-rc1-unknown-5edf350~66~ubuntu18.10.1) date 2019-02-07 09:44:38*
%MOMM*%
%LPD*%
G04 APERTURE LIST*
%ADD10C,0.300000*%
%ADD11C,0.120000*%
%ADD12C,0.150000*%
%ADD13C,0.010000*%
G04 APERTURE END LIST*
D10*
X26052142Y-81096428D02*
X26052142Y-79882142D01*
X26123571Y-79739285D01*
X26195000Y-79667857D01*
X26337857Y-79596428D01*
X26623571Y-79596428D01*
X26766428Y-79667857D01*
X26837857Y-79739285D01*
X26909285Y-79882142D01*
X26909285Y-81096428D01*
X27623571Y-79596428D02*
X27623571Y-81096428D01*
X28195000Y-81096428D01*
X28337857Y-81025000D01*
X28409285Y-80953571D01*
X28480714Y-80810714D01*
X28480714Y-80596428D01*
X28409285Y-80453571D01*
X28337857Y-80382142D01*
X28195000Y-80310714D01*
X27623571Y-80310714D01*
X29052142Y-79667857D02*
X29266428Y-79596428D01*
X29623571Y-79596428D01*
X29766428Y-79667857D01*
X29837857Y-79739285D01*
X29909285Y-79882142D01*
X29909285Y-80025000D01*
X29837857Y-80167857D01*
X29766428Y-80239285D01*
X29623571Y-80310714D01*
X29337857Y-80382142D01*
X29195000Y-80453571D01*
X29123571Y-80525000D01*
X29052142Y-80667857D01*
X29052142Y-80810714D01*
X29123571Y-80953571D01*
X29195000Y-81025000D01*
X29337857Y-81096428D01*
X29695000Y-81096428D01*
X29909285Y-81025000D01*
X33623571Y-79596428D02*
X32766428Y-79596428D01*
X33194999Y-79596428D02*
X33194999Y-81096428D01*
X33052142Y-80882142D01*
X32909285Y-80739285D01*
X32766428Y-80667857D01*
X35052142Y-79596428D02*
X34195000Y-79596428D01*
X34623571Y-79596428D02*
X34623571Y-81096428D01*
X34480714Y-80882142D01*
X34337857Y-80739285D01*
X34195000Y-80667857D01*
X35980714Y-81096428D02*
X36123571Y-81096428D01*
X36266428Y-81025000D01*
X36337857Y-80953571D01*
X36409285Y-80810714D01*
X36480714Y-80525000D01*
X36480714Y-80167857D01*
X36409285Y-79882142D01*
X36337857Y-79739285D01*
X36266428Y-79667857D01*
X36123571Y-79596428D01*
X35980714Y-79596428D01*
X35837857Y-79667857D01*
X35766428Y-79739285D01*
X35695000Y-79882142D01*
X35623571Y-80167857D01*
X35623571Y-80525000D01*
X35695000Y-80810714D01*
X35766428Y-80953571D01*
X35837857Y-81025000D01*
X35980714Y-81096428D01*
X36909285Y-81096428D02*
X37409285Y-79596428D01*
X37909285Y-81096428D01*
X39552142Y-80167857D02*
X40695000Y-80167857D01*
X43195000Y-80596428D02*
X43195000Y-79596428D01*
X42837857Y-81167857D02*
X42480714Y-80096428D01*
X43409285Y-80096428D01*
X44695000Y-81096428D02*
X43980714Y-81096428D01*
X43909285Y-80382142D01*
X43980714Y-80453571D01*
X44123571Y-80525000D01*
X44480714Y-80525000D01*
X44623571Y-80453571D01*
X44695000Y-80382142D01*
X44766428Y-80239285D01*
X44766428Y-79882142D01*
X44695000Y-79739285D01*
X44623571Y-79667857D01*
X44480714Y-79596428D01*
X44123571Y-79596428D01*
X43980714Y-79667857D01*
X43909285Y-79739285D01*
X45695000Y-81096428D02*
X45837857Y-81096428D01*
X45980714Y-81025000D01*
X46052142Y-80953571D01*
X46123571Y-80810714D01*
X46195000Y-80525000D01*
X46195000Y-80167857D01*
X46123571Y-79882142D01*
X46052142Y-79739285D01*
X45980714Y-79667857D01*
X45837857Y-79596428D01*
X45695000Y-79596428D01*
X45552142Y-79667857D01*
X45480714Y-79739285D01*
X45409285Y-79882142D01*
X45337857Y-80167857D01*
X45337857Y-80525000D01*
X45409285Y-80810714D01*
X45480714Y-80953571D01*
X45552142Y-81025000D01*
X45695000Y-81096428D01*
X46623571Y-81096428D02*
X47123571Y-79596428D01*
X47623571Y-81096428D01*
X49266428Y-79596428D02*
X49266428Y-81096428D01*
X49623571Y-81096428D01*
X49837857Y-81025000D01*
X49980714Y-80882142D01*
X50052142Y-80739285D01*
X50123571Y-80453571D01*
X50123571Y-80239285D01*
X50052142Y-79953571D01*
X49980714Y-79810714D01*
X49837857Y-79667857D01*
X49623571Y-79596428D01*
X49266428Y-79596428D01*
X51623571Y-79739285D02*
X51552142Y-79667857D01*
X51337857Y-79596428D01*
X51195000Y-79596428D01*
X50980714Y-79667857D01*
X50837857Y-79810714D01*
X50766428Y-79953571D01*
X50695000Y-80239285D01*
X50695000Y-80453571D01*
X50766428Y-80739285D01*
X50837857Y-80882142D01*
X50980714Y-81025000D01*
X51195000Y-81096428D01*
X51337857Y-81096428D01*
X51552142Y-81025000D01*
X51623571Y-80953571D01*
X26337857Y-78546428D02*
X26480714Y-78546428D01*
X26623571Y-78475000D01*
X26695000Y-78403571D01*
X26766428Y-78260714D01*
X26837857Y-77975000D01*
X26837857Y-77617857D01*
X26766428Y-77332142D01*
X26695000Y-77189285D01*
X26623571Y-77117857D01*
X26480714Y-77046428D01*
X26337857Y-77046428D01*
X26195000Y-77117857D01*
X26123571Y-77189285D01*
X26052142Y-77332142D01*
X25980714Y-77617857D01*
X25980714Y-77975000D01*
X26052142Y-78260714D01*
X26123571Y-78403571D01*
X26195000Y-78475000D01*
X26337857Y-78546428D01*
X28266428Y-77046428D02*
X27409285Y-77046428D01*
X27837857Y-77046428D02*
X27837857Y-78546428D01*
X27695000Y-78332142D01*
X27552142Y-78189285D01*
X27409285Y-78117857D01*
X29980714Y-78617857D02*
X28694999Y-76689285D01*
X30409285Y-78403571D02*
X30480714Y-78475000D01*
X30623571Y-78546428D01*
X30980714Y-78546428D01*
X31123571Y-78475000D01*
X31195000Y-78403571D01*
X31266428Y-78260714D01*
X31266428Y-78117857D01*
X31195000Y-77903571D01*
X30337857Y-77046428D01*
X31266428Y-77046428D01*
X32194999Y-78546428D02*
X32337857Y-78546428D01*
X32480714Y-78475000D01*
X32552142Y-78403571D01*
X32623571Y-78260714D01*
X32694999Y-77975000D01*
X32694999Y-77617857D01*
X32623571Y-77332142D01*
X32552142Y-77189285D01*
X32480714Y-77117857D01*
X32337857Y-77046428D01*
X32194999Y-77046428D01*
X32052142Y-77117857D01*
X31980714Y-77189285D01*
X31909285Y-77332142D01*
X31837857Y-77617857D01*
X31837857Y-77975000D01*
X31909285Y-78260714D01*
X31980714Y-78403571D01*
X32052142Y-78475000D01*
X32194999Y-78546428D01*
X34123571Y-77046428D02*
X33266428Y-77046428D01*
X33694999Y-77046428D02*
X33694999Y-78546428D01*
X33552142Y-78332142D01*
X33409285Y-78189285D01*
X33266428Y-78117857D01*
X34837857Y-77046428D02*
X35123571Y-77046428D01*
X35266428Y-77117857D01*
X35337857Y-77189285D01*
X35480714Y-77403571D01*
X35552142Y-77689285D01*
X35552142Y-78260714D01*
X35480714Y-78403571D01*
X35409285Y-78475000D01*
X35266428Y-78546428D01*
X34980714Y-78546428D01*
X34837857Y-78475000D01*
X34766428Y-78403571D01*
X34694999Y-78260714D01*
X34694999Y-77903571D01*
X34766428Y-77760714D01*
X34837857Y-77689285D01*
X34980714Y-77617857D01*
X35266428Y-77617857D01*
X35409285Y-77689285D01*
X35480714Y-77760714D01*
X35552142Y-77903571D01*
X37337857Y-77617857D02*
X38480714Y-77617857D01*
X40337857Y-77046428D02*
X40337857Y-78546428D01*
X40980714Y-77046428D02*
X40980714Y-77832142D01*
X40909285Y-77975000D01*
X40766428Y-78046428D01*
X40552142Y-78046428D01*
X40409285Y-77975000D01*
X40337857Y-77903571D01*
X41480714Y-78046428D02*
X42052142Y-78046428D01*
X41694999Y-78546428D02*
X41694999Y-77260714D01*
X41766428Y-77117857D01*
X41909285Y-77046428D01*
X42052142Y-77046428D01*
X42337857Y-78046428D02*
X42909285Y-78046428D01*
X42552142Y-78546428D02*
X42552142Y-77260714D01*
X42623571Y-77117857D01*
X42766428Y-77046428D01*
X42909285Y-77046428D01*
X43409285Y-78046428D02*
X43409285Y-76546428D01*
X43409285Y-77975000D02*
X43552142Y-78046428D01*
X43837857Y-78046428D01*
X43980714Y-77975000D01*
X44052142Y-77903571D01*
X44123571Y-77760714D01*
X44123571Y-77332142D01*
X44052142Y-77189285D01*
X43980714Y-77117857D01*
X43837857Y-77046428D01*
X43552142Y-77046428D01*
X43409285Y-77117857D01*
X44694999Y-77117857D02*
X44837857Y-77046428D01*
X45123571Y-77046428D01*
X45266428Y-77117857D01*
X45337857Y-77260714D01*
X45337857Y-77332142D01*
X45266428Y-77475000D01*
X45123571Y-77546428D01*
X44909285Y-77546428D01*
X44766428Y-77617857D01*
X44694999Y-77760714D01*
X44694999Y-77832142D01*
X44766428Y-77975000D01*
X44909285Y-78046428D01*
X45123571Y-78046428D01*
X45266428Y-77975000D01*
X45980714Y-77189285D02*
X46052142Y-77117857D01*
X45980714Y-77046428D01*
X45909285Y-77117857D01*
X45980714Y-77189285D01*
X45980714Y-77046428D01*
X45980714Y-77975000D02*
X46052142Y-77903571D01*
X45980714Y-77832142D01*
X45909285Y-77903571D01*
X45980714Y-77975000D01*
X45980714Y-77832142D01*
X47766428Y-78617857D02*
X46480714Y-76689285D01*
X49337857Y-78617857D02*
X48052142Y-76689285D01*
X50480714Y-78046428D02*
X50480714Y-76832142D01*
X50409285Y-76689285D01*
X50337857Y-76617857D01*
X50195000Y-76546428D01*
X49980714Y-76546428D01*
X49837857Y-76617857D01*
X50480714Y-77117857D02*
X50337857Y-77046428D01*
X50052142Y-77046428D01*
X49909285Y-77117857D01*
X49837857Y-77189285D01*
X49766428Y-77332142D01*
X49766428Y-77760714D01*
X49837857Y-77903571D01*
X49909285Y-77975000D01*
X50052142Y-78046428D01*
X50337857Y-78046428D01*
X50480714Y-77975000D01*
X51195000Y-77046428D02*
X51195000Y-78046428D01*
X51195000Y-78546428D02*
X51123571Y-78475000D01*
X51195000Y-78403571D01*
X51266428Y-78475000D01*
X51195000Y-78546428D01*
X51195000Y-78403571D01*
X51695000Y-78046428D02*
X52266428Y-78046428D01*
X51909285Y-78546428D02*
X51909285Y-77260714D01*
X51980714Y-77117857D01*
X52123571Y-77046428D01*
X52266428Y-77046428D01*
X52766428Y-77046428D02*
X52766428Y-78546428D01*
X53409285Y-77046428D02*
X53409285Y-77832142D01*
X53337857Y-77975000D01*
X53195000Y-78046428D01*
X52980714Y-78046428D01*
X52837857Y-77975000D01*
X52766428Y-77903571D01*
X54766428Y-78046428D02*
X54766428Y-77046428D01*
X54123571Y-78046428D02*
X54123571Y-77260714D01*
X54195000Y-77117857D01*
X54337857Y-77046428D01*
X54552142Y-77046428D01*
X54695000Y-77117857D01*
X54766428Y-77189285D01*
X55480714Y-77046428D02*
X55480714Y-78546428D01*
X55480714Y-77975000D02*
X55623571Y-78046428D01*
X55909285Y-78046428D01*
X56052142Y-77975000D01*
X56123571Y-77903571D01*
X56195000Y-77760714D01*
X56195000Y-77332142D01*
X56123571Y-77189285D01*
X56052142Y-77117857D01*
X55909285Y-77046428D01*
X55623571Y-77046428D01*
X55480714Y-77117857D01*
X56837857Y-77189285D02*
X56909285Y-77117857D01*
X56837857Y-77046428D01*
X56766428Y-77117857D01*
X56837857Y-77189285D01*
X56837857Y-77046428D01*
X58195000Y-77117857D02*
X58052142Y-77046428D01*
X57766428Y-77046428D01*
X57623571Y-77117857D01*
X57552142Y-77189285D01*
X57480714Y-77332142D01*
X57480714Y-77760714D01*
X57552142Y-77903571D01*
X57623571Y-77975000D01*
X57766428Y-78046428D01*
X58052142Y-78046428D01*
X58195000Y-77975000D01*
X59052142Y-77046428D02*
X58909285Y-77117857D01*
X58837857Y-77189285D01*
X58766428Y-77332142D01*
X58766428Y-77760714D01*
X58837857Y-77903571D01*
X58909285Y-77975000D01*
X59052142Y-78046428D01*
X59266428Y-78046428D01*
X59409285Y-77975000D01*
X59480714Y-77903571D01*
X59552142Y-77760714D01*
X59552142Y-77332142D01*
X59480714Y-77189285D01*
X59409285Y-77117857D01*
X59266428Y-77046428D01*
X59052142Y-77046428D01*
X60195000Y-77046428D02*
X60195000Y-78046428D01*
X60195000Y-77903571D02*
X60266428Y-77975000D01*
X60409285Y-78046428D01*
X60623571Y-78046428D01*
X60766428Y-77975000D01*
X60837857Y-77832142D01*
X60837857Y-77046428D01*
X60837857Y-77832142D02*
X60909285Y-77975000D01*
X61052142Y-78046428D01*
X61266428Y-78046428D01*
X61409285Y-77975000D01*
X61480714Y-77832142D01*
X61480714Y-77046428D01*
X63266428Y-78617857D02*
X61980714Y-76689285D01*
X63766428Y-77832142D02*
X64266428Y-77832142D01*
X64480714Y-77046428D02*
X63766428Y-77046428D01*
X63766428Y-78546428D01*
X64480714Y-78546428D01*
X65123571Y-78046428D02*
X65123571Y-77046428D01*
X65123571Y-77903571D02*
X65195000Y-77975000D01*
X65337857Y-78046428D01*
X65552142Y-78046428D01*
X65695000Y-77975000D01*
X65766428Y-77832142D01*
X65766428Y-77046428D01*
X66480714Y-78046428D02*
X66480714Y-77046428D01*
X66480714Y-77903571D02*
X66552142Y-77975000D01*
X66695000Y-78046428D01*
X66909285Y-78046428D01*
X67052142Y-77975000D01*
X67123571Y-77832142D01*
X67123571Y-77046428D01*
X68052142Y-77046428D02*
X67909285Y-77117857D01*
X67837857Y-77189285D01*
X67766428Y-77332142D01*
X67766428Y-77760714D01*
X67837857Y-77903571D01*
X67909285Y-77975000D01*
X68052142Y-78046428D01*
X68266428Y-78046428D01*
X68409285Y-77975000D01*
X68480714Y-77903571D01*
X68552142Y-77760714D01*
X68552142Y-77332142D01*
X68480714Y-77189285D01*
X68409285Y-77117857D01*
X68266428Y-77046428D01*
X68052142Y-77046428D01*
X69195000Y-77046428D02*
X69195000Y-78046428D01*
X69195000Y-78546428D02*
X69123571Y-78475000D01*
X69195000Y-78403571D01*
X69266428Y-78475000D01*
X69195000Y-78546428D01*
X69195000Y-78403571D01*
X70552142Y-77046428D02*
X70552142Y-78546428D01*
X70552142Y-77117857D02*
X70409285Y-77046428D01*
X70123571Y-77046428D01*
X69980714Y-77117857D01*
X69909285Y-77189285D01*
X69837857Y-77332142D01*
X69837857Y-77760714D01*
X69909285Y-77903571D01*
X69980714Y-77975000D01*
X70123571Y-78046428D01*
X70409285Y-78046428D01*
X70552142Y-77975000D01*
X71266428Y-77046428D02*
X71266428Y-78546428D01*
X71766428Y-77475000D01*
X72266428Y-78546428D01*
X72266428Y-77046428D01*
X73552142Y-77117857D02*
X73409285Y-77046428D01*
X73123571Y-77046428D01*
X72980714Y-77117857D01*
X72909285Y-77260714D01*
X72909285Y-77832142D01*
X72980714Y-77975000D01*
X73123571Y-78046428D01*
X73409285Y-78046428D01*
X73552142Y-77975000D01*
X73623571Y-77832142D01*
X73623571Y-77689285D01*
X72909285Y-77546428D01*
X75337857Y-78617857D02*
X74052142Y-76689285D01*
X75837857Y-77832142D02*
X76337857Y-77832142D01*
X76552142Y-77046428D02*
X75837857Y-77046428D01*
X75837857Y-78546428D01*
X76552142Y-78546428D01*
X77195000Y-77046428D02*
X77195000Y-78546428D01*
X78052142Y-77046428D01*
X78052142Y-78546428D01*
X78766428Y-77046428D02*
X78766428Y-78546428D01*
X79623571Y-77046428D01*
X79623571Y-78546428D01*
X80623571Y-78546428D02*
X80909285Y-78546428D01*
X81052142Y-78475000D01*
X81195000Y-78332142D01*
X81266428Y-78046428D01*
X81266428Y-77546428D01*
X81195000Y-77260714D01*
X81052142Y-77117857D01*
X80909285Y-77046428D01*
X80623571Y-77046428D01*
X80480714Y-77117857D01*
X80337857Y-77260714D01*
X80266428Y-77546428D01*
X80266428Y-78046428D01*
X80337857Y-78332142D01*
X80480714Y-78475000D01*
X80623571Y-78546428D01*
X81909285Y-77046428D02*
X81909285Y-78546428D01*
X82623571Y-77046428D02*
X82623571Y-78546428D01*
X82980714Y-78546428D01*
X83195000Y-78475000D01*
X83337857Y-78332142D01*
X83409285Y-78189285D01*
X83480714Y-77903571D01*
X83480714Y-77689285D01*
X83409285Y-77403571D01*
X83337857Y-77260714D01*
X83195000Y-77117857D01*
X82980714Y-77046428D01*
X82623571Y-77046428D01*
X84123571Y-77617857D02*
X85266428Y-77617857D01*
X86480714Y-77832142D02*
X86695000Y-77760714D01*
X86766428Y-77689285D01*
X86837857Y-77546428D01*
X86837857Y-77332142D01*
X86766428Y-77189285D01*
X86695000Y-77117857D01*
X86552142Y-77046428D01*
X85980714Y-77046428D01*
X85980714Y-78546428D01*
X86480714Y-78546428D01*
X86623571Y-78475000D01*
X86695000Y-78403571D01*
X86766428Y-78260714D01*
X86766428Y-78117857D01*
X86695000Y-77975000D01*
X86623571Y-77903571D01*
X86480714Y-77832142D01*
X85980714Y-77832142D01*
X87480714Y-77046428D02*
X87480714Y-78546428D01*
X87980714Y-77475000D01*
X88480714Y-78546428D01*
X88480714Y-77046428D01*
X89123571Y-77117857D02*
X89337857Y-77046428D01*
X89695000Y-77046428D01*
X89837857Y-77117857D01*
X89909285Y-77189285D01*
X89980714Y-77332142D01*
X89980714Y-77475000D01*
X89909285Y-77617857D01*
X89837857Y-77689285D01*
X89695000Y-77760714D01*
X89409285Y-77832142D01*
X89266428Y-77903571D01*
X89195000Y-77975000D01*
X89123571Y-78117857D01*
X89123571Y-78260714D01*
X89195000Y-78403571D01*
X89266428Y-78475000D01*
X89409285Y-78546428D01*
X89766428Y-78546428D01*
X89980714Y-78475000D01*
D11*
X86060000Y-3500000D02*
X86060000Y-2880000D01*
X87660000Y-3500000D02*
X86060000Y-3500000D01*
X87660000Y-2880000D02*
X87660000Y-3500000D01*
X88600000Y-3500000D02*
X88600000Y-2880000D01*
X90200000Y-3500000D02*
X88600000Y-3500000D01*
X90200000Y-2880000D02*
X90200000Y-3500000D01*
X87110000Y-8880000D02*
X87110000Y-7880000D01*
X89150000Y-8880000D02*
X89150000Y-7880000D01*
X87110000Y-7450000D02*
X86860000Y-7880000D01*
X89150000Y-7450000D02*
X87110000Y-7450000D01*
X89400000Y-7880000D02*
X89150000Y-7450000D01*
X86860000Y-7880000D02*
X86860000Y-8880000D01*
X89400000Y-7880000D02*
X86860000Y-7880000D01*
X89400000Y-8880000D02*
X89400000Y-7880000D01*
X85490000Y-2880000D02*
X90770000Y-2880000D01*
X85490000Y-8880000D02*
X85490000Y-2880000D01*
X90770000Y-8880000D02*
X85490000Y-8880000D01*
X90770000Y-2880000D02*
X90770000Y-8880000D01*
X69283867Y-44797580D02*
X69283867Y-45497580D01*
X70483867Y-45497580D02*
X70483867Y-44797580D01*
X66733867Y-38097580D02*
X66033867Y-38097580D01*
X66033867Y-39297580D02*
X66733867Y-39297580D01*
X70483867Y-49997580D02*
X70483867Y-49297580D01*
X69283867Y-49297580D02*
X69283867Y-49997580D01*
X66033867Y-42797580D02*
X66733867Y-42797580D01*
X66733867Y-41597580D02*
X66033867Y-41597580D01*
X67733867Y-59097580D02*
X67033867Y-59097580D01*
X67033867Y-60297580D02*
X67733867Y-60297580D01*
X69283867Y-54347580D02*
X69283867Y-55047580D01*
X70483867Y-55047580D02*
X70483867Y-54347580D01*
X61033867Y-60297580D02*
X61733867Y-60297580D01*
X61733867Y-59097580D02*
X61033867Y-59097580D01*
X54783867Y-59097580D02*
X54083867Y-59097580D01*
X54083867Y-60297580D02*
X54783867Y-60297580D01*
X72383867Y-39377580D02*
X73383867Y-39377580D01*
X73383867Y-38017580D02*
X72383867Y-38017580D01*
X73383867Y-43517580D02*
X72383867Y-43517580D01*
X72383867Y-44877580D02*
X73383867Y-44877580D01*
X72383867Y-49377580D02*
X73383867Y-49377580D01*
X73383867Y-48017580D02*
X72383867Y-48017580D01*
X73383867Y-53017580D02*
X72383867Y-53017580D01*
X72383867Y-54377580D02*
X73383867Y-54377580D01*
X63703867Y-60697580D02*
X63703867Y-61697580D01*
X65063867Y-61697580D02*
X65063867Y-60697580D01*
X57703867Y-60697580D02*
X57703867Y-61697580D01*
X59063867Y-61697580D02*
X59063867Y-60697580D01*
X59433867Y-66677580D02*
X63333867Y-66677580D01*
X63333867Y-63717580D02*
X59433867Y-63717580D01*
X45783867Y-47877580D02*
X46783867Y-47877580D01*
X46783867Y-46517580D02*
X45783867Y-46517580D01*
X42483867Y-74377580D02*
X43483867Y-74377580D01*
X43483867Y-73017580D02*
X42483867Y-73017580D01*
X45063867Y-62197580D02*
X45063867Y-61197580D01*
X43703867Y-61197580D02*
X43703867Y-62197580D01*
X29703867Y-61597580D02*
X29703867Y-62597580D01*
X31063867Y-62597580D02*
X31063867Y-61597580D01*
X29283867Y-73017580D02*
X28283867Y-73017580D01*
X28283867Y-74377580D02*
X29283867Y-74377580D01*
X45883867Y-51377580D02*
X46883867Y-51377580D01*
X46883867Y-50017580D02*
X45883867Y-50017580D01*
X40883867Y-45007580D02*
X40883867Y-47677580D01*
X42193867Y-43697580D02*
G75*
G03X42193867Y-43697580I-1310000J0D01*
G01*
D12*
X62133867Y-45247580D02*
X56158867Y-45247580D01*
X60608867Y-52147580D02*
X56158867Y-52147580D01*
D11*
X41983867Y-65397580D02*
X41983867Y-65797580D01*
X35383867Y-65397580D02*
X41983867Y-65397580D01*
X35783867Y-70997580D02*
X40983867Y-70997580D01*
X24783867Y-70997580D02*
X29983867Y-70997580D01*
X24383867Y-65397580D02*
X30983867Y-65397580D01*
X30983867Y-65397580D02*
X30983867Y-65797580D01*
D13*
G36*
X57235276Y-82039750D02*
G01*
X55887305Y-82039750D01*
X55887305Y-89387513D01*
X57235276Y-89387513D01*
X57235276Y-82039750D01*
X57235276Y-82039750D01*
G37*
X57235276Y-82039750D02*
X55887305Y-82039750D01*
X55887305Y-89387513D01*
X57235276Y-89387513D01*
X57235276Y-82039750D01*
G36*
X41104273Y-89156243D02*
G01*
X41323371Y-88908125D01*
X41556494Y-88632993D01*
X41806251Y-88327589D01*
X42075246Y-87988654D01*
X42366087Y-87612932D01*
X42681380Y-87197163D01*
X42826500Y-87003414D01*
X42951840Y-86834006D01*
X43091773Y-86642273D01*
X43242288Y-86433921D01*
X43399379Y-86214651D01*
X43559034Y-85990169D01*
X43717246Y-85766176D01*
X43870006Y-85548378D01*
X44013304Y-85342477D01*
X44143132Y-85154178D01*
X44255481Y-84989183D01*
X44346341Y-84853196D01*
X44411705Y-84751921D01*
X44429999Y-84722097D01*
X44508845Y-84590322D01*
X44515593Y-86988917D01*
X44522340Y-89387513D01*
X45870032Y-89387513D01*
X45870032Y-82039750D01*
X44719238Y-82039750D01*
X44602580Y-82231373D01*
X44421190Y-82525783D01*
X44215852Y-82852911D01*
X43993286Y-83202421D01*
X43760212Y-83563975D01*
X43523349Y-83927235D01*
X43289419Y-84281864D01*
X43065141Y-84617525D01*
X42857234Y-84923880D01*
X42768429Y-85052861D01*
X42662622Y-85203536D01*
X42534940Y-85381822D01*
X42390658Y-85580641D01*
X42235053Y-85792913D01*
X42073398Y-86011561D01*
X41910970Y-86229505D01*
X41753043Y-86439665D01*
X41604893Y-86634963D01*
X41471795Y-86808321D01*
X41359025Y-86952658D01*
X41273686Y-87058682D01*
X41112487Y-87253993D01*
X41112487Y-82039750D01*
X39764517Y-82039750D01*
X39764517Y-89387513D01*
X40895321Y-89387513D01*
X41104273Y-89156243D01*
X41104273Y-89156243D01*
G37*
X41104273Y-89156243D02*
X41323371Y-88908125D01*
X41556494Y-88632993D01*
X41806251Y-88327589D01*
X42075246Y-87988654D01*
X42366087Y-87612932D01*
X42681380Y-87197163D01*
X42826500Y-87003414D01*
X42951840Y-86834006D01*
X43091773Y-86642273D01*
X43242288Y-86433921D01*
X43399379Y-86214651D01*
X43559034Y-85990169D01*
X43717246Y-85766176D01*
X43870006Y-85548378D01*
X44013304Y-85342477D01*
X44143132Y-85154178D01*
X44255481Y-84989183D01*
X44346341Y-84853196D01*
X44411705Y-84751921D01*
X44429999Y-84722097D01*
X44508845Y-84590322D01*
X44515593Y-86988917D01*
X44522340Y-89387513D01*
X45870032Y-89387513D01*
X45870032Y-82039750D01*
X44719238Y-82039750D01*
X44602580Y-82231373D01*
X44421190Y-82525783D01*
X44215852Y-82852911D01*
X43993286Y-83202421D01*
X43760212Y-83563975D01*
X43523349Y-83927235D01*
X43289419Y-84281864D01*
X43065141Y-84617525D01*
X42857234Y-84923880D01*
X42768429Y-85052861D01*
X42662622Y-85203536D01*
X42534940Y-85381822D01*
X42390658Y-85580641D01*
X42235053Y-85792913D01*
X42073398Y-86011561D01*
X41910970Y-86229505D01*
X41753043Y-86439665D01*
X41604893Y-86634963D01*
X41471795Y-86808321D01*
X41359025Y-86952658D01*
X41273686Y-87058682D01*
X41112487Y-87253993D01*
X41112487Y-82039750D01*
X39764517Y-82039750D01*
X39764517Y-89387513D01*
X40895321Y-89387513D01*
X41104273Y-89156243D01*
G36*
X33374419Y-89037305D02*
G01*
X33660459Y-88703691D01*
X33968074Y-88329784D01*
X34292911Y-87921358D01*
X34630617Y-87484187D01*
X34976840Y-87024044D01*
X35327225Y-86546702D01*
X35677421Y-86057936D01*
X36023074Y-85563518D01*
X36307290Y-85147231D01*
X36698544Y-84567615D01*
X36698544Y-89387513D01*
X38046514Y-89387513D01*
X38046514Y-82039750D01*
X36882258Y-82039750D01*
X36810224Y-82160997D01*
X36737512Y-82281093D01*
X36640322Y-82438167D01*
X36523242Y-82625043D01*
X36390857Y-82834546D01*
X36247756Y-83059499D01*
X36098524Y-83292725D01*
X35947748Y-83527050D01*
X35800016Y-83755296D01*
X35659914Y-83970289D01*
X35532029Y-84164851D01*
X35460399Y-84272804D01*
X35060187Y-84863900D01*
X34663731Y-85431069D01*
X34275449Y-85968203D01*
X33899754Y-86469190D01*
X33542660Y-86925930D01*
X33302186Y-87226367D01*
X33295448Y-84633058D01*
X33288711Y-82039750D01*
X31940999Y-82039750D01*
X31940999Y-89387513D01*
X33066636Y-89387513D01*
X33374419Y-89037305D01*
X33374419Y-89037305D01*
G37*
X33374419Y-89037305D02*
X33660459Y-88703691D01*
X33968074Y-88329784D01*
X34292911Y-87921358D01*
X34630617Y-87484187D01*
X34976840Y-87024044D01*
X35327225Y-86546702D01*
X35677421Y-86057936D01*
X36023074Y-85563518D01*
X36307290Y-85147231D01*
X36698544Y-84567615D01*
X36698544Y-89387513D01*
X38046514Y-89387513D01*
X38046514Y-82039750D01*
X36882258Y-82039750D01*
X36810224Y-82160997D01*
X36737512Y-82281093D01*
X36640322Y-82438167D01*
X36523242Y-82625043D01*
X36390857Y-82834546D01*
X36247756Y-83059499D01*
X36098524Y-83292725D01*
X35947748Y-83527050D01*
X35800016Y-83755296D01*
X35659914Y-83970289D01*
X35532029Y-84164851D01*
X35460399Y-84272804D01*
X35060187Y-84863900D01*
X34663731Y-85431069D01*
X34275449Y-85968203D01*
X33899754Y-86469190D01*
X33542660Y-86925930D01*
X33302186Y-87226367D01*
X33295448Y-84633058D01*
X33288711Y-82039750D01*
X31940999Y-82039750D01*
X31940999Y-89387513D01*
X33066636Y-89387513D01*
X33374419Y-89037305D01*
G36*
X30487305Y-88224557D02*
G01*
X27104163Y-88224557D01*
X27104163Y-86453694D01*
X30117274Y-86453694D01*
X30117274Y-85317169D01*
X27104163Y-85317169D01*
X27104163Y-83202705D01*
X30725183Y-83202705D01*
X30725183Y-82039750D01*
X25729761Y-82039750D01*
X25729761Y-89387513D01*
X30487305Y-89387513D01*
X30487305Y-88224557D01*
X30487305Y-88224557D01*
G37*
X30487305Y-88224557D02*
X27104163Y-88224557D01*
X27104163Y-86453694D01*
X30117274Y-86453694D01*
X30117274Y-85317169D01*
X27104163Y-85317169D01*
X27104163Y-83202705D01*
X30725183Y-83202705D01*
X30725183Y-82039750D01*
X25729761Y-82039750D01*
X25729761Y-89387513D01*
X30487305Y-89387513D01*
X30487305Y-88224557D01*
G36*
X61278643Y-89452603D02*
G01*
X61538576Y-89444878D01*
X61771003Y-89430916D01*
X61967896Y-89410411D01*
X62001206Y-89405663D01*
X62450314Y-89323683D01*
X62855748Y-89218204D01*
X63222204Y-89087056D01*
X63554378Y-88928065D01*
X63856965Y-88739058D01*
X64134663Y-88517863D01*
X64331359Y-88327515D01*
X64578304Y-88033431D01*
X64784550Y-87710108D01*
X64950718Y-87355966D01*
X65077431Y-86969424D01*
X65165311Y-86548902D01*
X65214979Y-86092819D01*
X65215792Y-86080050D01*
X65226683Y-85579246D01*
X65195133Y-85107222D01*
X65121512Y-84664727D01*
X65006192Y-84252512D01*
X64849542Y-83871326D01*
X64651934Y-83521918D01*
X64413739Y-83205039D01*
X64135326Y-82921437D01*
X63817068Y-82671863D01*
X63459334Y-82457066D01*
X63411900Y-82432719D01*
X63093231Y-82288968D01*
X62760236Y-82173144D01*
X62406629Y-82084048D01*
X62026122Y-82020479D01*
X61612426Y-81981235D01*
X61159256Y-81965116D01*
X60962181Y-81964901D01*
X60787011Y-81966620D01*
X60623480Y-81968875D01*
X60481228Y-81971482D01*
X60369897Y-81974258D01*
X60299128Y-81977019D01*
X60288034Y-81977753D01*
X59960702Y-82005641D01*
X59675316Y-82033823D01*
X59434213Y-82062010D01*
X59239733Y-82089910D01*
X59094216Y-82117231D01*
X59025963Y-82134857D01*
X59019390Y-82138911D01*
X59013469Y-82148586D01*
X59008166Y-82166507D01*
X59003447Y-82195301D01*
X58999279Y-82237592D01*
X58995627Y-82296006D01*
X58992458Y-82373168D01*
X58989737Y-82471705D01*
X58987431Y-82594240D01*
X58985505Y-82743400D01*
X58983927Y-82921810D01*
X58982661Y-83132095D01*
X58981674Y-83376881D01*
X58980932Y-83658794D01*
X58980401Y-83980458D01*
X58980047Y-84344500D01*
X58979837Y-84753544D01*
X58979735Y-85210216D01*
X58979709Y-85713631D01*
X58979736Y-86220214D01*
X58979837Y-86676561D01*
X58980049Y-87085296D01*
X58980404Y-87449045D01*
X58980936Y-87770434D01*
X58981679Y-88052086D01*
X58982457Y-88244823D01*
X60354111Y-88244823D01*
X60354111Y-83149844D01*
X60942196Y-83149999D01*
X61206437Y-83152533D01*
X61437926Y-83159787D01*
X61630099Y-83171464D01*
X61776390Y-83187267D01*
X61781484Y-83188024D01*
X62151471Y-83265299D01*
X62484205Y-83379997D01*
X62779743Y-83532181D01*
X63038142Y-83721916D01*
X63259458Y-83949268D01*
X63443746Y-84214300D01*
X63591063Y-84517077D01*
X63701465Y-84857665D01*
X63775008Y-85236127D01*
X63804011Y-85515400D01*
X63809514Y-85806850D01*
X63787798Y-86111403D01*
X63741312Y-86415153D01*
X63672506Y-86704193D01*
X63583831Y-86964614D01*
X63525972Y-87093639D01*
X63361314Y-87371932D01*
X63163133Y-87611828D01*
X62930172Y-87814142D01*
X62661171Y-87979693D01*
X62354871Y-88109298D01*
X62010016Y-88203774D01*
X61746423Y-88249250D01*
X61660583Y-88257409D01*
X61538451Y-88264265D01*
X61389735Y-88269735D01*
X61224142Y-88273734D01*
X61051379Y-88276180D01*
X60881154Y-88276987D01*
X60723173Y-88276073D01*
X60587145Y-88273353D01*
X60482777Y-88268743D01*
X60419776Y-88262160D01*
X60413580Y-88260760D01*
X60354111Y-88244823D01*
X58982457Y-88244823D01*
X58982667Y-88296628D01*
X58983935Y-88506685D01*
X58985515Y-88684881D01*
X58987443Y-88833843D01*
X58989751Y-88956194D01*
X58992475Y-89054561D01*
X58995647Y-89131568D01*
X58999301Y-89189841D01*
X59003473Y-89232005D01*
X59008194Y-89260684D01*
X59013501Y-89278505D01*
X59019426Y-89288092D01*
X59025963Y-89292059D01*
X59172225Y-89326670D01*
X59363227Y-89357803D01*
X59590940Y-89385151D01*
X59847338Y-89408409D01*
X60124394Y-89427269D01*
X60414079Y-89441425D01*
X60708367Y-89450570D01*
X60999231Y-89454399D01*
X61278643Y-89452603D01*
X61278643Y-89452603D01*
G37*
X61278643Y-89452603D02*
X61538576Y-89444878D01*
X61771003Y-89430916D01*
X61967896Y-89410411D01*
X62001206Y-89405663D01*
X62450314Y-89323683D01*
X62855748Y-89218204D01*
X63222204Y-89087056D01*
X63554378Y-88928065D01*
X63856965Y-88739058D01*
X64134663Y-88517863D01*
X64331359Y-88327515D01*
X64578304Y-88033431D01*
X64784550Y-87710108D01*
X64950718Y-87355966D01*
X65077431Y-86969424D01*
X65165311Y-86548902D01*
X65214979Y-86092819D01*
X65215792Y-86080050D01*
X65226683Y-85579246D01*
X65195133Y-85107222D01*
X65121512Y-84664727D01*
X65006192Y-84252512D01*
X64849542Y-83871326D01*
X64651934Y-83521918D01*
X64413739Y-83205039D01*
X64135326Y-82921437D01*
X63817068Y-82671863D01*
X63459334Y-82457066D01*
X63411900Y-82432719D01*
X63093231Y-82288968D01*
X62760236Y-82173144D01*
X62406629Y-82084048D01*
X62026122Y-82020479D01*
X61612426Y-81981235D01*
X61159256Y-81965116D01*
X60962181Y-81964901D01*
X60787011Y-81966620D01*
X60623480Y-81968875D01*
X60481228Y-81971482D01*
X60369897Y-81974258D01*
X60299128Y-81977019D01*
X60288034Y-81977753D01*
X59960702Y-82005641D01*
X59675316Y-82033823D01*
X59434213Y-82062010D01*
X59239733Y-82089910D01*
X59094216Y-82117231D01*
X59025963Y-82134857D01*
X59019390Y-82138911D01*
X59013469Y-82148586D01*
X59008166Y-82166507D01*
X59003447Y-82195301D01*
X58999279Y-82237592D01*
X58995627Y-82296006D01*
X58992458Y-82373168D01*
X58989737Y-82471705D01*
X58987431Y-82594240D01*
X58985505Y-82743400D01*
X58983927Y-82921810D01*
X58982661Y-83132095D01*
X58981674Y-83376881D01*
X58980932Y-83658794D01*
X58980401Y-83980458D01*
X58980047Y-84344500D01*
X58979837Y-84753544D01*
X58979735Y-85210216D01*
X58979709Y-85713631D01*
X58979736Y-86220214D01*
X58979837Y-86676561D01*
X58980049Y-87085296D01*
X58980404Y-87449045D01*
X58980936Y-87770434D01*
X58981679Y-88052086D01*
X58982457Y-88244823D01*
X60354111Y-88244823D01*
X60354111Y-83149844D01*
X60942196Y-83149999D01*
X61206437Y-83152533D01*
X61437926Y-83159787D01*
X61630099Y-83171464D01*
X61776390Y-83187267D01*
X61781484Y-83188024D01*
X62151471Y-83265299D01*
X62484205Y-83379997D01*
X62779743Y-83532181D01*
X63038142Y-83721916D01*
X63259458Y-83949268D01*
X63443746Y-84214300D01*
X63591063Y-84517077D01*
X63701465Y-84857665D01*
X63775008Y-85236127D01*
X63804011Y-85515400D01*
X63809514Y-85806850D01*
X63787798Y-86111403D01*
X63741312Y-86415153D01*
X63672506Y-86704193D01*
X63583831Y-86964614D01*
X63525972Y-87093639D01*
X63361314Y-87371932D01*
X63163133Y-87611828D01*
X62930172Y-87814142D01*
X62661171Y-87979693D01*
X62354871Y-88109298D01*
X62010016Y-88203774D01*
X61746423Y-88249250D01*
X61660583Y-88257409D01*
X61538451Y-88264265D01*
X61389735Y-88269735D01*
X61224142Y-88273734D01*
X61051379Y-88276180D01*
X60881154Y-88276987D01*
X60723173Y-88276073D01*
X60587145Y-88273353D01*
X60482777Y-88268743D01*
X60419776Y-88262160D01*
X60413580Y-88260760D01*
X60354111Y-88244823D01*
X58982457Y-88244823D01*
X58982667Y-88296628D01*
X58983935Y-88506685D01*
X58985515Y-88684881D01*
X58987443Y-88833843D01*
X58989751Y-88956194D01*
X58992475Y-89054561D01*
X58995647Y-89131568D01*
X58999301Y-89189841D01*
X59003473Y-89232005D01*
X59008194Y-89260684D01*
X59013501Y-89278505D01*
X59019426Y-89288092D01*
X59025963Y-89292059D01*
X59172225Y-89326670D01*
X59363227Y-89357803D01*
X59590940Y-89385151D01*
X59847338Y-89408409D01*
X60124394Y-89427269D01*
X60414079Y-89441425D01*
X60708367Y-89450570D01*
X60999231Y-89454399D01*
X61278643Y-89452603D01*
G36*
X51281064Y-89533912D02*
G01*
X51499855Y-89512571D01*
X51712168Y-89476158D01*
X51933147Y-89422975D01*
X52028124Y-89396404D01*
X52405030Y-89260464D01*
X52758493Y-89078550D01*
X53085917Y-88853265D01*
X53384705Y-88587212D01*
X53652262Y-88282995D01*
X53885989Y-87943217D01*
X54083292Y-87570482D01*
X54236765Y-87181855D01*
X54338482Y-86810945D01*
X54407851Y-86410382D01*
X54444936Y-85991283D01*
X54449803Y-85564764D01*
X54422516Y-85141941D01*
X54363140Y-84733933D01*
X54271739Y-84351855D01*
X54219315Y-84188881D01*
X54049699Y-83776736D01*
X53844187Y-83403121D01*
X53603377Y-83068567D01*
X53327870Y-82773611D01*
X53018265Y-82518784D01*
X52675161Y-82304622D01*
X52299158Y-82131658D01*
X51890854Y-82000426D01*
X51716498Y-81959285D01*
X51574513Y-81935994D01*
X51394563Y-81916848D01*
X51190704Y-81902378D01*
X50976994Y-81893117D01*
X50767490Y-81889595D01*
X50576248Y-81892345D01*
X50417324Y-81901897D01*
X50363268Y-81908111D01*
X49920255Y-81992585D01*
X49510168Y-82118345D01*
X49133106Y-82285318D01*
X48789170Y-82493434D01*
X48478458Y-82742622D01*
X48201070Y-83032812D01*
X47957105Y-83363933D01*
X47746663Y-83735914D01*
X47722162Y-83786451D01*
X47598036Y-84068532D01*
X47501083Y-84340812D01*
X47428538Y-84615705D01*
X47377635Y-84905624D01*
X47345608Y-85222984D01*
X47330594Y-85543913D01*
X47330583Y-85554973D01*
X48730994Y-85554973D01*
X48764119Y-85183099D01*
X48831772Y-84823259D01*
X48933226Y-84482591D01*
X49067751Y-84168233D01*
X49234620Y-83887326D01*
X49284981Y-83818331D01*
X49435281Y-83653236D01*
X49624081Y-83495239D01*
X49837075Y-83353914D01*
X50059958Y-83238834D01*
X50262642Y-83164024D01*
X50550982Y-83104220D01*
X50858008Y-83082766D01*
X51165773Y-83099905D01*
X51427947Y-83148368D01*
X51726435Y-83251419D01*
X52001583Y-83400724D01*
X52250225Y-83593675D01*
X52469196Y-83827666D01*
X52655328Y-84100088D01*
X52713692Y-84207076D01*
X52837166Y-84497818D01*
X52930078Y-84822124D01*
X52992284Y-85170319D01*
X53023638Y-85532732D01*
X53023993Y-85899689D01*
X52993204Y-86261519D01*
X52931126Y-86608549D01*
X52837612Y-86931106D01*
X52757707Y-87127827D01*
X52591205Y-87431844D01*
X52392387Y-87695192D01*
X52163331Y-87916510D01*
X51906117Y-88094438D01*
X51622824Y-88227617D01*
X51315533Y-88314686D01*
X50986321Y-88354286D01*
X50878668Y-88356711D01*
X50543308Y-88332194D01*
X50228724Y-88259846D01*
X49937507Y-88141469D01*
X49672249Y-87978869D01*
X49435542Y-87773850D01*
X49229977Y-87528215D01*
X49058146Y-87243768D01*
X48958347Y-87020018D01*
X48846075Y-86671402D01*
X48771244Y-86306263D01*
X48733126Y-85931740D01*
X48730994Y-85554973D01*
X47330583Y-85554973D01*
X47330172Y-85959716D01*
X47353621Y-86336903D01*
X47402811Y-86684928D01*
X47479616Y-87013241D01*
X47585906Y-87331294D01*
X47723554Y-87648540D01*
X47763438Y-87729534D01*
X47957910Y-88061769D01*
X48193567Y-88372426D01*
X48463681Y-88654947D01*
X48761525Y-88902776D01*
X49080373Y-89109354D01*
X49286499Y-89214225D01*
X49534964Y-89319900D01*
X49768038Y-89400921D01*
X49999717Y-89460356D01*
X50243995Y-89501275D01*
X50514867Y-89526748D01*
X50763468Y-89538168D01*
X51040649Y-89541879D01*
X51281064Y-89533912D01*
X51281064Y-89533912D01*
G37*
X51281064Y-89533912D02*
X51499855Y-89512571D01*
X51712168Y-89476158D01*
X51933147Y-89422975D01*
X52028124Y-89396404D01*
X52405030Y-89260464D01*
X52758493Y-89078550D01*
X53085917Y-88853265D01*
X53384705Y-88587212D01*
X53652262Y-88282995D01*
X53885989Y-87943217D01*
X54083292Y-87570482D01*
X54236765Y-87181855D01*
X54338482Y-86810945D01*
X54407851Y-86410382D01*
X54444936Y-85991283D01*
X54449803Y-85564764D01*
X54422516Y-85141941D01*
X54363140Y-84733933D01*
X54271739Y-84351855D01*
X54219315Y-84188881D01*
X54049699Y-83776736D01*
X53844187Y-83403121D01*
X53603377Y-83068567D01*
X53327870Y-82773611D01*
X53018265Y-82518784D01*
X52675161Y-82304622D01*
X52299158Y-82131658D01*
X51890854Y-82000426D01*
X51716498Y-81959285D01*
X51574513Y-81935994D01*
X51394563Y-81916848D01*
X51190704Y-81902378D01*
X50976994Y-81893117D01*
X50767490Y-81889595D01*
X50576248Y-81892345D01*
X50417324Y-81901897D01*
X50363268Y-81908111D01*
X49920255Y-81992585D01*
X49510168Y-82118345D01*
X49133106Y-82285318D01*
X48789170Y-82493434D01*
X48478458Y-82742622D01*
X48201070Y-83032812D01*
X47957105Y-83363933D01*
X47746663Y-83735914D01*
X47722162Y-83786451D01*
X47598036Y-84068532D01*
X47501083Y-84340812D01*
X47428538Y-84615705D01*
X47377635Y-84905624D01*
X47345608Y-85222984D01*
X47330594Y-85543913D01*
X47330583Y-85554973D01*
X48730994Y-85554973D01*
X48764119Y-85183099D01*
X48831772Y-84823259D01*
X48933226Y-84482591D01*
X49067751Y-84168233D01*
X49234620Y-83887326D01*
X49284981Y-83818331D01*
X49435281Y-83653236D01*
X49624081Y-83495239D01*
X49837075Y-83353914D01*
X50059958Y-83238834D01*
X50262642Y-83164024D01*
X50550982Y-83104220D01*
X50858008Y-83082766D01*
X51165773Y-83099905D01*
X51427947Y-83148368D01*
X51726435Y-83251419D01*
X52001583Y-83400724D01*
X52250225Y-83593675D01*
X52469196Y-83827666D01*
X52655328Y-84100088D01*
X52713692Y-84207076D01*
X52837166Y-84497818D01*
X52930078Y-84822124D01*
X52992284Y-85170319D01*
X53023638Y-85532732D01*
X53023993Y-85899689D01*
X52993204Y-86261519D01*
X52931126Y-86608549D01*
X52837612Y-86931106D01*
X52757707Y-87127827D01*
X52591205Y-87431844D01*
X52392387Y-87695192D01*
X52163331Y-87916510D01*
X51906117Y-88094438D01*
X51622824Y-88227617D01*
X51315533Y-88314686D01*
X50986321Y-88354286D01*
X50878668Y-88356711D01*
X50543308Y-88332194D01*
X50228724Y-88259846D01*
X49937507Y-88141469D01*
X49672249Y-87978869D01*
X49435542Y-87773850D01*
X49229977Y-87528215D01*
X49058146Y-87243768D01*
X48958347Y-87020018D01*
X48846075Y-86671402D01*
X48771244Y-86306263D01*
X48733126Y-85931740D01*
X48730994Y-85554973D01*
X47330583Y-85554973D01*
X47330172Y-85959716D01*
X47353621Y-86336903D01*
X47402811Y-86684928D01*
X47479616Y-87013241D01*
X47585906Y-87331294D01*
X47723554Y-87648540D01*
X47763438Y-87729534D01*
X47957910Y-88061769D01*
X48193567Y-88372426D01*
X48463681Y-88654947D01*
X48761525Y-88902776D01*
X49080373Y-89109354D01*
X49286499Y-89214225D01*
X49534964Y-89319900D01*
X49768038Y-89400921D01*
X49999717Y-89460356D01*
X50243995Y-89501275D01*
X50514867Y-89526748D01*
X50763468Y-89538168D01*
X51040649Y-89541879D01*
X51281064Y-89533912D01*
D12*
X88733333Y-852380D02*
X88733333Y-1566666D01*
X88780952Y-1709523D01*
X88876190Y-1804761D01*
X89019047Y-1852380D01*
X89114285Y-1852380D01*
X88304761Y-947619D02*
X88257142Y-900000D01*
X88161904Y-852380D01*
X87923809Y-852380D01*
X87828571Y-900000D01*
X87780952Y-947619D01*
X87733333Y-1042857D01*
X87733333Y-1138095D01*
X87780952Y-1280952D01*
X88352380Y-1852380D01*
X87733333Y-1852380D01*
X68991009Y-44980913D02*
X69038628Y-44933294D01*
X69086247Y-44790437D01*
X69086247Y-44695199D01*
X69038628Y-44552341D01*
X68943390Y-44457103D01*
X68848152Y-44409484D01*
X68657676Y-44361865D01*
X68514819Y-44361865D01*
X68324343Y-44409484D01*
X68229105Y-44457103D01*
X68133867Y-44552341D01*
X68086247Y-44695199D01*
X68086247Y-44790437D01*
X68133867Y-44933294D01*
X68181486Y-44980913D01*
X68419581Y-45838056D02*
X69086247Y-45838056D01*
X68038628Y-45599960D02*
X68752914Y-45361865D01*
X68752914Y-45980913D01*
X66550533Y-37804722D02*
X66598152Y-37852341D01*
X66741009Y-37899960D01*
X66836247Y-37899960D01*
X66979105Y-37852341D01*
X67074343Y-37757103D01*
X67121962Y-37661865D01*
X67169581Y-37471389D01*
X67169581Y-37328532D01*
X67121962Y-37138056D01*
X67074343Y-37042818D01*
X66979105Y-36947580D01*
X66836247Y-36899960D01*
X66741009Y-36899960D01*
X66598152Y-36947580D01*
X66550533Y-36995199D01*
X65645771Y-36899960D02*
X66121962Y-36899960D01*
X66169581Y-37376151D01*
X66121962Y-37328532D01*
X66026724Y-37280913D01*
X65788628Y-37280913D01*
X65693390Y-37328532D01*
X65645771Y-37376151D01*
X65598152Y-37471389D01*
X65598152Y-37709484D01*
X65645771Y-37804722D01*
X65693390Y-37852341D01*
X65788628Y-37899960D01*
X66026724Y-37899960D01*
X66121962Y-37852341D01*
X66169581Y-37804722D01*
X68991009Y-49480913D02*
X69038628Y-49433294D01*
X69086247Y-49290437D01*
X69086247Y-49195199D01*
X69038628Y-49052341D01*
X68943390Y-48957103D01*
X68848152Y-48909484D01*
X68657676Y-48861865D01*
X68514819Y-48861865D01*
X68324343Y-48909484D01*
X68229105Y-48957103D01*
X68133867Y-49052341D01*
X68086247Y-49195199D01*
X68086247Y-49290437D01*
X68133867Y-49433294D01*
X68181486Y-49480913D01*
X68086247Y-50338056D02*
X68086247Y-50147580D01*
X68133867Y-50052341D01*
X68181486Y-50004722D01*
X68324343Y-49909484D01*
X68514819Y-49861865D01*
X68895771Y-49861865D01*
X68991009Y-49909484D01*
X69038628Y-49957103D01*
X69086247Y-50052341D01*
X69086247Y-50242818D01*
X69038628Y-50338056D01*
X68991009Y-50385675D01*
X68895771Y-50433294D01*
X68657676Y-50433294D01*
X68562438Y-50385675D01*
X68514819Y-50338056D01*
X68467200Y-50242818D01*
X68467200Y-50052341D01*
X68514819Y-49957103D01*
X68562438Y-49909484D01*
X68657676Y-49861865D01*
X66550533Y-41304722D02*
X66598152Y-41352341D01*
X66741009Y-41399960D01*
X66836247Y-41399960D01*
X66979105Y-41352341D01*
X67074343Y-41257103D01*
X67121962Y-41161865D01*
X67169581Y-40971389D01*
X67169581Y-40828532D01*
X67121962Y-40638056D01*
X67074343Y-40542818D01*
X66979105Y-40447580D01*
X66836247Y-40399960D01*
X66741009Y-40399960D01*
X66598152Y-40447580D01*
X66550533Y-40495199D01*
X66217200Y-40399960D02*
X65550533Y-40399960D01*
X65979105Y-41399960D01*
X67550533Y-61304722D02*
X67598152Y-61352341D01*
X67741009Y-61399960D01*
X67836247Y-61399960D01*
X67979105Y-61352341D01*
X68074343Y-61257103D01*
X68121962Y-61161865D01*
X68169581Y-60971389D01*
X68169581Y-60828532D01*
X68121962Y-60638056D01*
X68074343Y-60542818D01*
X67979105Y-60447580D01*
X67836247Y-60399960D01*
X67741009Y-60399960D01*
X67598152Y-60447580D01*
X67550533Y-60495199D01*
X66979105Y-60828532D02*
X67074343Y-60780913D01*
X67121962Y-60733294D01*
X67169581Y-60638056D01*
X67169581Y-60590437D01*
X67121962Y-60495199D01*
X67074343Y-60447580D01*
X66979105Y-60399960D01*
X66788628Y-60399960D01*
X66693390Y-60447580D01*
X66645771Y-60495199D01*
X66598152Y-60590437D01*
X66598152Y-60638056D01*
X66645771Y-60733294D01*
X66693390Y-60780913D01*
X66788628Y-60828532D01*
X66979105Y-60828532D01*
X67074343Y-60876151D01*
X67121962Y-60923770D01*
X67169581Y-61019008D01*
X67169581Y-61209484D01*
X67121962Y-61304722D01*
X67074343Y-61352341D01*
X66979105Y-61399960D01*
X66788628Y-61399960D01*
X66693390Y-61352341D01*
X66645771Y-61304722D01*
X66598152Y-61209484D01*
X66598152Y-61019008D01*
X66645771Y-60923770D01*
X66693390Y-60876151D01*
X66788628Y-60828532D01*
X68991009Y-54530913D02*
X69038628Y-54483294D01*
X69086247Y-54340437D01*
X69086247Y-54245199D01*
X69038628Y-54102341D01*
X68943390Y-54007103D01*
X68848152Y-53959484D01*
X68657676Y-53911865D01*
X68514819Y-53911865D01*
X68324343Y-53959484D01*
X68229105Y-54007103D01*
X68133867Y-54102341D01*
X68086247Y-54245199D01*
X68086247Y-54340437D01*
X68133867Y-54483294D01*
X68181486Y-54530913D01*
X69086247Y-55007103D02*
X69086247Y-55197580D01*
X69038628Y-55292818D01*
X68991009Y-55340437D01*
X68848152Y-55435675D01*
X68657676Y-55483294D01*
X68276724Y-55483294D01*
X68181486Y-55435675D01*
X68133867Y-55388056D01*
X68086247Y-55292818D01*
X68086247Y-55102341D01*
X68133867Y-55007103D01*
X68181486Y-54959484D01*
X68276724Y-54911865D01*
X68514819Y-54911865D01*
X68610057Y-54959484D01*
X68657676Y-55007103D01*
X68705295Y-55102341D01*
X68705295Y-55292818D01*
X68657676Y-55388056D01*
X68610057Y-55435675D01*
X68514819Y-55483294D01*
X62026724Y-58804722D02*
X62074343Y-58852341D01*
X62217200Y-58899960D01*
X62312438Y-58899960D01*
X62455295Y-58852341D01*
X62550533Y-58757103D01*
X62598152Y-58661865D01*
X62645771Y-58471389D01*
X62645771Y-58328532D01*
X62598152Y-58138056D01*
X62550533Y-58042818D01*
X62455295Y-57947580D01*
X62312438Y-57899960D01*
X62217200Y-57899960D01*
X62074343Y-57947580D01*
X62026724Y-57995199D01*
X61074343Y-58899960D02*
X61645771Y-58899960D01*
X61360057Y-58899960D02*
X61360057Y-57899960D01*
X61455295Y-58042818D01*
X61550533Y-58138056D01*
X61645771Y-58185675D01*
X60455295Y-57899960D02*
X60360057Y-57899960D01*
X60264819Y-57947580D01*
X60217200Y-57995199D01*
X60169581Y-58090437D01*
X60121962Y-58280913D01*
X60121962Y-58519008D01*
X60169581Y-58709484D01*
X60217200Y-58804722D01*
X60264819Y-58852341D01*
X60360057Y-58899960D01*
X60455295Y-58899960D01*
X60550533Y-58852341D01*
X60598152Y-58804722D01*
X60645771Y-58709484D01*
X60693390Y-58519008D01*
X60693390Y-58280913D01*
X60645771Y-58090437D01*
X60598152Y-57995199D01*
X60550533Y-57947580D01*
X60455295Y-57899960D01*
X55076724Y-58804722D02*
X55124343Y-58852341D01*
X55267200Y-58899960D01*
X55362438Y-58899960D01*
X55505295Y-58852341D01*
X55600533Y-58757103D01*
X55648152Y-58661865D01*
X55695771Y-58471389D01*
X55695771Y-58328532D01*
X55648152Y-58138056D01*
X55600533Y-58042818D01*
X55505295Y-57947580D01*
X55362438Y-57899960D01*
X55267200Y-57899960D01*
X55124343Y-57947580D01*
X55076724Y-57995199D01*
X54124343Y-58899960D02*
X54695771Y-58899960D01*
X54410057Y-58899960D02*
X54410057Y-57899960D01*
X54505295Y-58042818D01*
X54600533Y-58138056D01*
X54695771Y-58185675D01*
X53171962Y-58899960D02*
X53743390Y-58899960D01*
X53457676Y-58899960D02*
X53457676Y-57899960D01*
X53552914Y-58042818D01*
X53648152Y-58138056D01*
X53743390Y-58185675D01*
X73050533Y-40599960D02*
X73383867Y-40123770D01*
X73621962Y-40599960D02*
X73621962Y-39599960D01*
X73241009Y-39599960D01*
X73145771Y-39647580D01*
X73098152Y-39695199D01*
X73050533Y-39790437D01*
X73050533Y-39933294D01*
X73098152Y-40028532D01*
X73145771Y-40076151D01*
X73241009Y-40123770D01*
X73621962Y-40123770D01*
X72098152Y-40599960D02*
X72669581Y-40599960D01*
X72383867Y-40599960D02*
X72383867Y-39599960D01*
X72479105Y-39742818D01*
X72574343Y-39838056D01*
X72669581Y-39885675D01*
X73050533Y-46099960D02*
X73383867Y-45623770D01*
X73621962Y-46099960D02*
X73621962Y-45099960D01*
X73241009Y-45099960D01*
X73145771Y-45147580D01*
X73098152Y-45195199D01*
X73050533Y-45290437D01*
X73050533Y-45433294D01*
X73098152Y-45528532D01*
X73145771Y-45576151D01*
X73241009Y-45623770D01*
X73621962Y-45623770D01*
X72669581Y-45195199D02*
X72621962Y-45147580D01*
X72526724Y-45099960D01*
X72288628Y-45099960D01*
X72193390Y-45147580D01*
X72145771Y-45195199D01*
X72098152Y-45290437D01*
X72098152Y-45385675D01*
X72145771Y-45528532D01*
X72717200Y-46099960D01*
X72098152Y-46099960D01*
X73050533Y-50599960D02*
X73383867Y-50123770D01*
X73621962Y-50599960D02*
X73621962Y-49599960D01*
X73241009Y-49599960D01*
X73145771Y-49647580D01*
X73098152Y-49695199D01*
X73050533Y-49790437D01*
X73050533Y-49933294D01*
X73098152Y-50028532D01*
X73145771Y-50076151D01*
X73241009Y-50123770D01*
X73621962Y-50123770D01*
X72717200Y-49599960D02*
X72098152Y-49599960D01*
X72431486Y-49980913D01*
X72288628Y-49980913D01*
X72193390Y-50028532D01*
X72145771Y-50076151D01*
X72098152Y-50171389D01*
X72098152Y-50409484D01*
X72145771Y-50504722D01*
X72193390Y-50552341D01*
X72288628Y-50599960D01*
X72574343Y-50599960D01*
X72669581Y-50552341D01*
X72717200Y-50504722D01*
X73050533Y-55599960D02*
X73383867Y-55123770D01*
X73621962Y-55599960D02*
X73621962Y-54599960D01*
X73241009Y-54599960D01*
X73145771Y-54647580D01*
X73098152Y-54695199D01*
X73050533Y-54790437D01*
X73050533Y-54933294D01*
X73098152Y-55028532D01*
X73145771Y-55076151D01*
X73241009Y-55123770D01*
X73621962Y-55123770D01*
X72193390Y-54933294D02*
X72193390Y-55599960D01*
X72431486Y-54552341D02*
X72669581Y-55266627D01*
X72050533Y-55266627D01*
X63386247Y-61030913D02*
X62910057Y-60697580D01*
X63386247Y-60459484D02*
X62386247Y-60459484D01*
X62386247Y-60840437D01*
X62433867Y-60935675D01*
X62481486Y-60983294D01*
X62576724Y-61030913D01*
X62719581Y-61030913D01*
X62814819Y-60983294D01*
X62862438Y-60935675D01*
X62910057Y-60840437D01*
X62910057Y-60459484D01*
X62386247Y-61935675D02*
X62386247Y-61459484D01*
X62862438Y-61411865D01*
X62814819Y-61459484D01*
X62767200Y-61554722D01*
X62767200Y-61792818D01*
X62814819Y-61888056D01*
X62862438Y-61935675D01*
X62957676Y-61983294D01*
X63195771Y-61983294D01*
X63291009Y-61935675D01*
X63338628Y-61888056D01*
X63386247Y-61792818D01*
X63386247Y-61554722D01*
X63338628Y-61459484D01*
X63291009Y-61411865D01*
X57386247Y-61030913D02*
X56910057Y-60697580D01*
X57386247Y-60459484D02*
X56386247Y-60459484D01*
X56386247Y-60840437D01*
X56433867Y-60935675D01*
X56481486Y-60983294D01*
X56576724Y-61030913D01*
X56719581Y-61030913D01*
X56814819Y-60983294D01*
X56862438Y-60935675D01*
X56910057Y-60840437D01*
X56910057Y-60459484D01*
X56386247Y-61888056D02*
X56386247Y-61697580D01*
X56433867Y-61602341D01*
X56481486Y-61554722D01*
X56624343Y-61459484D01*
X56814819Y-61411865D01*
X57195771Y-61411865D01*
X57291009Y-61459484D01*
X57338628Y-61507103D01*
X57386247Y-61602341D01*
X57386247Y-61792818D01*
X57338628Y-61888056D01*
X57291009Y-61935675D01*
X57195771Y-61983294D01*
X56957676Y-61983294D01*
X56862438Y-61935675D01*
X56814819Y-61888056D01*
X56767200Y-61792818D01*
X56767200Y-61602341D01*
X56814819Y-61507103D01*
X56862438Y-61459484D01*
X56957676Y-61411865D01*
X61550533Y-67899960D02*
X61883867Y-67423770D01*
X62121962Y-67899960D02*
X62121962Y-66899960D01*
X61741009Y-66899960D01*
X61645771Y-66947580D01*
X61598152Y-66995199D01*
X61550533Y-67090437D01*
X61550533Y-67233294D01*
X61598152Y-67328532D01*
X61645771Y-67376151D01*
X61741009Y-67423770D01*
X62121962Y-67423770D01*
X61217200Y-66899960D02*
X60550533Y-66899960D01*
X60979105Y-67899960D01*
X46450533Y-46199960D02*
X46783867Y-45723770D01*
X47021962Y-46199960D02*
X47021962Y-45199960D01*
X46641009Y-45199960D01*
X46545771Y-45247580D01*
X46498152Y-45295199D01*
X46450533Y-45390437D01*
X46450533Y-45533294D01*
X46498152Y-45628532D01*
X46545771Y-45676151D01*
X46641009Y-45723770D01*
X47021962Y-45723770D01*
X45879105Y-45628532D02*
X45974343Y-45580913D01*
X46021962Y-45533294D01*
X46069581Y-45438056D01*
X46069581Y-45390437D01*
X46021962Y-45295199D01*
X45974343Y-45247580D01*
X45879105Y-45199960D01*
X45688628Y-45199960D01*
X45593390Y-45247580D01*
X45545771Y-45295199D01*
X45498152Y-45390437D01*
X45498152Y-45438056D01*
X45545771Y-45533294D01*
X45593390Y-45580913D01*
X45688628Y-45628532D01*
X45879105Y-45628532D01*
X45974343Y-45676151D01*
X46021962Y-45723770D01*
X46069581Y-45819008D01*
X46069581Y-46009484D01*
X46021962Y-46104722D01*
X45974343Y-46152341D01*
X45879105Y-46199960D01*
X45688628Y-46199960D01*
X45593390Y-46152341D01*
X45545771Y-46104722D01*
X45498152Y-46009484D01*
X45498152Y-45819008D01*
X45545771Y-45723770D01*
X45593390Y-45676151D01*
X45688628Y-45628532D01*
X43150533Y-72699960D02*
X43483867Y-72223770D01*
X43721962Y-72699960D02*
X43721962Y-71699960D01*
X43341009Y-71699960D01*
X43245771Y-71747580D01*
X43198152Y-71795199D01*
X43150533Y-71890437D01*
X43150533Y-72033294D01*
X43198152Y-72128532D01*
X43245771Y-72176151D01*
X43341009Y-72223770D01*
X43721962Y-72223770D01*
X42674343Y-72699960D02*
X42483867Y-72699960D01*
X42388628Y-72652341D01*
X42341009Y-72604722D01*
X42245771Y-72461865D01*
X42198152Y-72271389D01*
X42198152Y-71890437D01*
X42245771Y-71795199D01*
X42293390Y-71747580D01*
X42388628Y-71699960D01*
X42579105Y-71699960D01*
X42674343Y-71747580D01*
X42721962Y-71795199D01*
X42769581Y-71890437D01*
X42769581Y-72128532D01*
X42721962Y-72223770D01*
X42674343Y-72271389D01*
X42579105Y-72319008D01*
X42388628Y-72319008D01*
X42293390Y-72271389D01*
X42245771Y-72223770D01*
X42198152Y-72128532D01*
X46286247Y-61054722D02*
X45810057Y-60721389D01*
X46286247Y-60483294D02*
X45286247Y-60483294D01*
X45286247Y-60864246D01*
X45333867Y-60959484D01*
X45381486Y-61007103D01*
X45476724Y-61054722D01*
X45619581Y-61054722D01*
X45714819Y-61007103D01*
X45762438Y-60959484D01*
X45810057Y-60864246D01*
X45810057Y-60483294D01*
X46286247Y-62007103D02*
X46286247Y-61435675D01*
X46286247Y-61721389D02*
X45286247Y-61721389D01*
X45429105Y-61626151D01*
X45524343Y-61530913D01*
X45571962Y-61435675D01*
X45286247Y-62626151D02*
X45286247Y-62721389D01*
X45333867Y-62816627D01*
X45381486Y-62864246D01*
X45476724Y-62911865D01*
X45667200Y-62959484D01*
X45905295Y-62959484D01*
X46095771Y-62911865D01*
X46191009Y-62864246D01*
X46238628Y-62816627D01*
X46286247Y-62721389D01*
X46286247Y-62626151D01*
X46238628Y-62530913D01*
X46191009Y-62483294D01*
X46095771Y-62435675D01*
X45905295Y-62388056D01*
X45667200Y-62388056D01*
X45476724Y-62435675D01*
X45381486Y-62483294D01*
X45333867Y-62530913D01*
X45286247Y-62626151D01*
X32286247Y-61454722D02*
X31810057Y-61121389D01*
X32286247Y-60883294D02*
X31286247Y-60883294D01*
X31286247Y-61264246D01*
X31333867Y-61359484D01*
X31381486Y-61407103D01*
X31476724Y-61454722D01*
X31619581Y-61454722D01*
X31714819Y-61407103D01*
X31762438Y-61359484D01*
X31810057Y-61264246D01*
X31810057Y-60883294D01*
X32286247Y-62407103D02*
X32286247Y-61835675D01*
X32286247Y-62121389D02*
X31286247Y-62121389D01*
X31429105Y-62026151D01*
X31524343Y-61930913D01*
X31571962Y-61835675D01*
X32286247Y-63359484D02*
X32286247Y-62788056D01*
X32286247Y-63073770D02*
X31286247Y-63073770D01*
X31429105Y-62978532D01*
X31524343Y-62883294D01*
X31571962Y-62788056D01*
X29426724Y-75599960D02*
X29760057Y-75123770D01*
X29998152Y-75599960D02*
X29998152Y-74599960D01*
X29617200Y-74599960D01*
X29521962Y-74647580D01*
X29474343Y-74695199D01*
X29426724Y-74790437D01*
X29426724Y-74933294D01*
X29474343Y-75028532D01*
X29521962Y-75076151D01*
X29617200Y-75123770D01*
X29998152Y-75123770D01*
X28474343Y-75599960D02*
X29045771Y-75599960D01*
X28760057Y-75599960D02*
X28760057Y-74599960D01*
X28855295Y-74742818D01*
X28950533Y-74838056D01*
X29045771Y-74885675D01*
X28093390Y-74695199D02*
X28045771Y-74647580D01*
X27950533Y-74599960D01*
X27712438Y-74599960D01*
X27617200Y-74647580D01*
X27569581Y-74695199D01*
X27521962Y-74790437D01*
X27521962Y-74885675D01*
X27569581Y-75028532D01*
X28141009Y-75599960D01*
X27521962Y-75599960D01*
X47026724Y-52599960D02*
X47360057Y-52123770D01*
X47598152Y-52599960D02*
X47598152Y-51599960D01*
X47217200Y-51599960D01*
X47121962Y-51647580D01*
X47074343Y-51695199D01*
X47026724Y-51790437D01*
X47026724Y-51933294D01*
X47074343Y-52028532D01*
X47121962Y-52076151D01*
X47217200Y-52123770D01*
X47598152Y-52123770D01*
X46074343Y-52599960D02*
X46645771Y-52599960D01*
X46360057Y-52599960D02*
X46360057Y-51599960D01*
X46455295Y-51742818D01*
X46550533Y-51838056D01*
X46645771Y-51885675D01*
X45741009Y-51599960D02*
X45121962Y-51599960D01*
X45455295Y-51980913D01*
X45312438Y-51980913D01*
X45217200Y-52028532D01*
X45169581Y-52076151D01*
X45121962Y-52171389D01*
X45121962Y-52409484D01*
X45169581Y-52504722D01*
X45217200Y-52552341D01*
X45312438Y-52599960D01*
X45598152Y-52599960D01*
X45693390Y-52552341D01*
X45741009Y-52504722D01*
X38026247Y-44951865D02*
X38026247Y-45523294D01*
X39026247Y-45237580D02*
X38026247Y-45237580D01*
X39026247Y-45856627D02*
X38026247Y-45856627D01*
X38502438Y-45856627D02*
X38502438Y-46428056D01*
X39026247Y-46428056D02*
X38026247Y-46428056D01*
X39026247Y-47428056D02*
X39026247Y-46856627D01*
X39026247Y-47142341D02*
X38026247Y-47142341D01*
X38169105Y-47047103D01*
X38264343Y-46951865D01*
X38311962Y-46856627D01*
X59145771Y-43849960D02*
X59145771Y-44659484D01*
X59098152Y-44754722D01*
X59050533Y-44802341D01*
X58955295Y-44849960D01*
X58764819Y-44849960D01*
X58669581Y-44802341D01*
X58621962Y-44754722D01*
X58574343Y-44659484D01*
X58574343Y-43849960D01*
X58145771Y-43945199D02*
X58098152Y-43897580D01*
X58002914Y-43849960D01*
X57764819Y-43849960D01*
X57669581Y-43897580D01*
X57621962Y-43945199D01*
X57574343Y-44040437D01*
X57574343Y-44135675D01*
X57621962Y-44278532D01*
X58193390Y-44849960D01*
X57574343Y-44849960D01*
X38479105Y-72745199D02*
X38574343Y-72697580D01*
X38669581Y-72602341D01*
X38812438Y-72459484D01*
X38907676Y-72411865D01*
X39002914Y-72411865D01*
X38955295Y-72649960D02*
X39050533Y-72602341D01*
X39145771Y-72507103D01*
X39193390Y-72316627D01*
X39193390Y-71983294D01*
X39145771Y-71792818D01*
X39050533Y-71697580D01*
X38955295Y-71649960D01*
X38764819Y-71649960D01*
X38669581Y-71697580D01*
X38574343Y-71792818D01*
X38526724Y-71983294D01*
X38526724Y-72316627D01*
X38574343Y-72507103D01*
X38669581Y-72602341D01*
X38764819Y-72649960D01*
X38955295Y-72649960D01*
X37574343Y-72649960D02*
X38145771Y-72649960D01*
X37860057Y-72649960D02*
X37860057Y-71649960D01*
X37955295Y-71792818D01*
X38050533Y-71888056D01*
X38145771Y-71935675D01*
X27479105Y-72745199D02*
X27574343Y-72697580D01*
X27669581Y-72602341D01*
X27812438Y-72459484D01*
X27907676Y-72411865D01*
X28002914Y-72411865D01*
X27955295Y-72649960D02*
X28050533Y-72602341D01*
X28145771Y-72507103D01*
X28193390Y-72316627D01*
X28193390Y-71983294D01*
X28145771Y-71792818D01*
X28050533Y-71697580D01*
X27955295Y-71649960D01*
X27764819Y-71649960D01*
X27669581Y-71697580D01*
X27574343Y-71792818D01*
X27526724Y-71983294D01*
X27526724Y-72316627D01*
X27574343Y-72507103D01*
X27669581Y-72602341D01*
X27764819Y-72649960D01*
X27955295Y-72649960D01*
X27145771Y-71745199D02*
X27098152Y-71697580D01*
X27002914Y-71649960D01*
X26764819Y-71649960D01*
X26669581Y-71697580D01*
X26621962Y-71745199D01*
X26574343Y-71840437D01*
X26574343Y-71935675D01*
X26621962Y-72078532D01*
X27193390Y-72649960D01*
X26574343Y-72649960D01*
M02*
