M48
; DRILL file {KiCad 6.0.0-rc1-unknown-5edf350~66~ubuntu18.10.1} date Thu 07 Feb 2019 09:44:45 AM EST
; FORMAT={2:4/ absolute / inch / suppress leading zeros}
; #@! TF.CreationDate,2019-02-07T09:44:45-05:00
; #@! TF.GenerationSoftware,Kicad,Pcbnew,6.0.0-rc1-unknown-5edf350~66~ubuntu18.10.1
FMAT,2
INCH,TZ
T1C0.0157
T2C0.0197
T3C0.0315
T4C0.0394
T5C0.0472
T6C0.0512
T7C0.0531
T8C0.1063
T9C0.0941
T10C0.1358
%
G90
G05
T1
X12750Y-24881
X12750Y-27637
X16929Y-25787
X16929Y-27559
X26476Y-14272
X28150Y-25591
X29921Y-33661
X29921Y-34449
X29921Y-35236
X29921Y-36024
X30315Y-33268
X30315Y-33661
X30315Y-34055
X30315Y-34449
X30315Y-34843
X30315Y-35236
X30315Y-35630
X30315Y-36024
X30315Y-36417
X30315Y-36811
X30709Y-33268
X30709Y-33661
X30709Y-34055
X30709Y-34449
X30709Y-34843
X30709Y-35236
X30709Y-35630
X30709Y-36024
X30709Y-36417
X30709Y-36811
X31102Y-16732
X31102Y-33268
X31102Y-33661
X31102Y-34055
X31102Y-34449
X31102Y-34843
X31102Y-35236
X31102Y-35630
X31102Y-36024
X31102Y-36417
X31102Y-36811
X31496Y-33268
X31496Y-33661
X31496Y-34055
X31496Y-34449
X31496Y-34843
X31496Y-35236
X31496Y-35630
X31496Y-36024
X31496Y-36417
X31496Y-36811
X31890Y-33268
X31890Y-33661
X31890Y-34055
X31890Y-34449
X31890Y-34843
X31890Y-35236
X31890Y-35630
X31890Y-36024
X31890Y-36417
X31890Y-36811
X32283Y-33268
X32283Y-33661
X32283Y-34055
X32283Y-34449
X32283Y-34843
X32283Y-35236
X32283Y-35630
X32283Y-36024
X32283Y-36417
X32283Y-36811
X32677Y-33268
X32677Y-33661
X32677Y-34055
X32677Y-34449
X32677Y-34843
X32677Y-35236
X32677Y-35630
X32677Y-36024
X32677Y-36417
X32677Y-36811
X33071Y-33268
X33071Y-33661
X33071Y-34055
X33071Y-34449
X33071Y-34843
X33071Y-35236
X33071Y-35630
X33071Y-36024
X33071Y-36417
X33071Y-36811
X33465Y-33661
X33465Y-34449
X33465Y-35236
X33465Y-36024
T2
X1171Y-37402
X1405Y-36838
X1405Y-37965
X1969Y-36604
X1969Y-38199
X2532Y-36838
X2532Y-37965
X2766Y-37402
X1171Y-1969
X1405Y-1405
X1405Y-2532
X1969Y-1171
X1969Y-2766
X2532Y-1405
X2532Y-2532
X2766Y-1969
X36604Y-1969
X36838Y-1405
X36838Y-2532
X37402Y-1171
X37402Y-2766
X37965Y-1405
X37965Y-2532
X38199Y-1969
X36604Y-37402
X36838Y-36838
X36838Y-37965
X37402Y-36604
X37402Y-38199
X37965Y-36838
X37965Y-37965
X38199Y-37402
T3
X16096Y-17204
X16096Y-19204
T4
X34646Y-4724
X34646Y-7677
X29134Y-4724
X29134Y-7677
T5
X16142Y-1575
X19291Y-1575
X19685Y-11024
X20866Y-11024
X21260Y-1575
X22047Y-11024
X22441Y-1575
X23622Y-1575
X24803Y-1575
X24803Y-11024
X34197Y-2323
X35197Y-2323
X9646Y-6496
X9646Y-9449
T6
X3150Y-6693
X3150Y-8661
T7
X4567Y-2165
X5567Y-1165
X5567Y-3165
X6567Y-2165
X10598Y-2165
X11598Y-1165
X11598Y-3165
X12598Y-2165
T8
X1969Y-37402
X1969Y-1969
X37402Y-1969
X37402Y-37402
T9
X5539Y-22441
X5539Y-31299
X5539Y-13583
T10
X8819Y-28740
X30551Y-22441
X8819Y-37598
X30551Y-31299
X8819Y-19882
X30551Y-13583
T0
M30
