G04 #@! TF.GenerationSoftware,KiCad,Pcbnew,6.0.0-rc1-unknown-5edf350~66~ubuntu18.10.1*
G04 #@! TF.CreationDate,2019-02-07T09:42:41-05:00
G04 #@! TF.ProjectId,BMS-Slave,424d532d-536c-4617-9665-2e6b69636164,V0.2*
G04 #@! TF.SameCoordinates,Original*
G04 #@! TF.FileFunction,Copper,L1,Top*
G04 #@! TF.FilePolarity,Positive*
%FSLAX46Y46*%
G04 Gerber Fmt 4.6, Leading zero omitted, Abs format (unit mm)*
G04 Created by KiCad (PCBNEW 6.0.0-rc1-unknown-5edf350~66~ubuntu18.10.1) date 2019-02-07 09:42:41*
%MOMM*%
%LPD*%
G04 APERTURE LIST*
%ADD10R,1.700000X1.700000*%
%ADD11O,1.700000X1.700000*%
%ADD12R,0.750000X1.200000*%
%ADD13R,0.900000X1.200000*%
%ADD14R,2.030000X2.650000*%
%ADD15R,0.300000X1.500000*%
%ADD16R,1.500000X0.300000*%
%ADD17R,8.000000X8.000000*%
%ADD18R,1.750000X1.000000*%
%ADD19R,1.753000X1.000000*%
%ADD20R,2.000000X3.800000*%
%ADD21R,2.000000X1.500000*%
%ADD22R,2.600000X2.000000*%
%ADD23O,2.600000X2.000000*%
%ADD24R,1.200000X0.750000*%
%ADD25R,1.200000X0.900000*%
%ADD26R,3.200000X1.000000*%
%ADD27R,1.000000X3.200000*%
%ADD28C,0.800000*%
%ADD29C,5.400000*%
%ADD30R,2.650000X2.030000*%
%ADD31R,0.800000X0.900000*%
%ADD32R,0.900000X0.800000*%
%ADD33C,0.250000*%
%ADD34C,0.500000*%
%ADD35C,1.000000*%
%ADD36C,0.254000*%
G04 APERTURE END LIST*
D10*
X67500000Y-97500000D03*
D11*
X70040000Y-97500000D03*
X72580000Y-97500000D03*
X75120000Y-97500000D03*
X77660000Y-97500000D03*
X80200000Y-97500000D03*
X82740000Y-97500000D03*
X85280000Y-97500000D03*
X87820000Y-97500000D03*
X90360000Y-97500000D03*
D12*
X56300000Y-36050000D03*
X56300000Y-34150000D03*
D13*
X57100000Y-30100000D03*
X57100000Y-32300000D03*
X55500000Y-30100000D03*
X55500000Y-32300000D03*
D14*
X89900000Y-10810000D03*
X89900000Y-14990000D03*
D15*
X58450000Y-44100000D03*
X57950000Y-44100000D03*
X57450000Y-44100000D03*
X56950000Y-44100000D03*
X56450000Y-44100000D03*
X55950000Y-44100000D03*
X55450000Y-44100000D03*
X54950000Y-44100000D03*
X54450000Y-44100000D03*
X53950000Y-44100000D03*
X53450000Y-44100000D03*
X52950000Y-44100000D03*
X52450000Y-44100000D03*
X51950000Y-44100000D03*
X51450000Y-44100000D03*
X50950000Y-44100000D03*
D16*
X49000000Y-46050000D03*
X49000000Y-46550000D03*
X49000000Y-47050000D03*
X49000000Y-47550000D03*
X49000000Y-48050000D03*
X49000000Y-48550000D03*
X49000000Y-49050000D03*
X49000000Y-49550000D03*
X49000000Y-50050000D03*
X49000000Y-50550000D03*
X49000000Y-51050000D03*
X49000000Y-51550000D03*
X49000000Y-52050000D03*
X49000000Y-52550000D03*
X49000000Y-53050000D03*
X49000000Y-53550000D03*
D15*
X50950000Y-55500000D03*
X51450000Y-55500000D03*
X51950000Y-55500000D03*
X52450000Y-55500000D03*
X52950000Y-55500000D03*
X53450000Y-55500000D03*
X53950000Y-55500000D03*
X54450000Y-55500000D03*
X54950000Y-55500000D03*
X55450000Y-55500000D03*
X55950000Y-55500000D03*
X56450000Y-55500000D03*
X56950000Y-55500000D03*
X57450000Y-55500000D03*
X57950000Y-55500000D03*
X58450000Y-55500000D03*
D16*
X60400000Y-53550000D03*
X60400000Y-53050000D03*
X60400000Y-52550000D03*
X60400000Y-52050000D03*
X60400000Y-51550000D03*
X60400000Y-51050000D03*
X60400000Y-50550000D03*
X60400000Y-50050000D03*
X60400000Y-49550000D03*
X60400000Y-49050000D03*
X60400000Y-48550000D03*
X60400000Y-48050000D03*
X60400000Y-47550000D03*
X60400000Y-47050000D03*
X60400000Y-46550000D03*
X60400000Y-46050000D03*
D17*
X54700000Y-49800000D03*
D18*
X87675120Y-44598920D03*
X87675120Y-46598920D03*
X87675120Y-48598920D03*
X87675120Y-42598920D03*
X87675120Y-40598920D03*
X87675120Y-38598920D03*
D19*
X73925120Y-38598920D03*
D18*
X73925120Y-40598920D03*
X73925120Y-42598920D03*
X73925120Y-44598920D03*
X73925120Y-46598920D03*
X73925120Y-48598920D03*
D13*
X67137240Y-92310480D03*
X67137240Y-94510480D03*
X70137240Y-92310480D03*
X70137240Y-94510480D03*
X73137240Y-92310480D03*
X73137240Y-94510480D03*
X76137240Y-92310480D03*
X76137240Y-94510480D03*
X79137240Y-92310480D03*
X79137240Y-94510480D03*
X82137240Y-92310480D03*
X82137240Y-94510480D03*
X85137240Y-92310480D03*
X85137240Y-94510480D03*
X88137240Y-92310480D03*
X88137240Y-94510480D03*
X91137240Y-92310480D03*
X91137240Y-94510480D03*
D20*
X84337320Y-65020400D03*
D21*
X78037320Y-65020400D03*
X78037320Y-67320400D03*
X78037320Y-62720400D03*
D10*
X93918320Y-72841520D03*
D11*
X93918320Y-70301520D03*
X93918320Y-67761520D03*
D10*
X93918320Y-59034080D03*
D11*
X93918320Y-61574080D03*
X93918320Y-64114080D03*
D10*
X3378200Y-70764400D03*
D11*
X3378200Y-68224400D03*
X3378200Y-65684400D03*
X3378200Y-63144400D03*
X3378200Y-60604400D03*
X3378200Y-58064400D03*
X3378200Y-55524400D03*
X3378200Y-52984400D03*
X3378200Y-50444400D03*
X3378200Y-47904400D03*
X3378200Y-45364400D03*
X3378200Y-42824400D03*
X3378200Y-40284400D03*
X3378200Y-37744400D03*
X3378200Y-35204400D03*
X3378200Y-32664400D03*
X3378200Y-30124400D03*
X3378200Y-27584400D03*
X3378200Y-25044400D03*
D22*
X93900000Y-38800000D03*
D23*
X93900000Y-41340000D03*
D12*
X65637240Y-94360480D03*
X65637240Y-92460480D03*
X68637240Y-94360480D03*
X68637240Y-92460480D03*
X71637240Y-94360480D03*
X71637240Y-92460480D03*
X74637240Y-94360480D03*
X74637240Y-92460480D03*
X77637240Y-94360480D03*
X77637240Y-92460480D03*
X80637240Y-94360480D03*
X80637240Y-92460480D03*
X83637240Y-94360480D03*
X83637240Y-92460480D03*
X86637240Y-94360480D03*
X86637240Y-92460480D03*
X89637240Y-94360480D03*
X89637240Y-92460480D03*
X54000000Y-64850000D03*
X54000000Y-66750000D03*
X50100000Y-66671600D03*
X50100000Y-64771600D03*
X46000000Y-64870000D03*
X46000000Y-66770000D03*
D24*
X36650000Y-66600000D03*
X38550000Y-66600000D03*
X38550000Y-62400000D03*
X36650000Y-62400000D03*
X36650000Y-58400000D03*
X38550000Y-58400000D03*
X36650000Y-54400000D03*
X38550000Y-54400000D03*
X38650000Y-50500000D03*
X36750000Y-50500000D03*
X38650000Y-46500000D03*
X36750000Y-46500000D03*
X36750000Y-42600000D03*
X38650000Y-42600000D03*
X36750000Y-38500000D03*
X38650000Y-38500000D03*
X38550000Y-34500000D03*
X36650000Y-34500000D03*
D12*
X44300000Y-34150000D03*
X44300000Y-36050000D03*
X48300000Y-36150000D03*
X48300000Y-34250000D03*
X52400000Y-36050000D03*
X52400000Y-34150000D03*
X60300000Y-34150000D03*
X60300000Y-36050000D03*
X64300000Y-34150000D03*
X64300000Y-36050000D03*
D13*
X53266480Y-68568760D03*
X53266480Y-70768760D03*
X54800000Y-70778920D03*
X54800000Y-68578920D03*
X49278080Y-70745720D03*
X49278080Y-68545720D03*
X50900000Y-68517960D03*
X50900000Y-70717960D03*
X45216960Y-70831600D03*
X45216960Y-68631600D03*
X46800000Y-68600000D03*
X46800000Y-70800000D03*
D25*
X32600000Y-65800000D03*
X34800000Y-65800000D03*
X34800000Y-67400000D03*
X32600000Y-67400000D03*
X32598800Y-61706400D03*
X34798800Y-61706400D03*
X32614040Y-63300000D03*
X34814040Y-63300000D03*
X32536240Y-57614800D03*
X34736240Y-57614800D03*
X34751480Y-59200000D03*
X32551480Y-59200000D03*
X34800000Y-53600000D03*
X32600000Y-53600000D03*
X34800000Y-55200000D03*
X32600000Y-55200000D03*
X34839720Y-49819560D03*
X32639720Y-49819560D03*
X34834640Y-51400000D03*
X32634640Y-51400000D03*
X32705760Y-45814320D03*
X34905760Y-45814320D03*
X34900000Y-47400000D03*
X32700000Y-47400000D03*
X34892120Y-41841440D03*
X32692120Y-41841440D03*
X32700000Y-43400000D03*
X34900000Y-43400000D03*
X34899080Y-37824440D03*
X32699080Y-37824440D03*
X32700000Y-39400000D03*
X34900000Y-39400000D03*
X32580360Y-33825880D03*
X34780360Y-33825880D03*
X34800000Y-35400000D03*
X32600000Y-35400000D03*
D13*
X45100000Y-30096160D03*
X45100000Y-32296160D03*
X43500000Y-32300000D03*
X43500000Y-30100000D03*
X49000000Y-30200000D03*
X49000000Y-32400000D03*
X47400000Y-32400000D03*
X47400000Y-30200000D03*
X53200000Y-30100000D03*
X53200000Y-32300000D03*
X51600000Y-32300000D03*
X51600000Y-30100000D03*
X61200000Y-32300000D03*
X61200000Y-30100000D03*
X59600000Y-30100000D03*
X59600000Y-32300000D03*
X65000000Y-32300000D03*
X65000000Y-30100000D03*
X63500000Y-30100000D03*
X63500000Y-32300000D03*
D24*
X69786640Y-40515360D03*
X71686640Y-40515360D03*
X72057480Y-46585960D03*
X70157480Y-46585960D03*
D13*
X67876600Y-39323920D03*
X67876600Y-41523920D03*
X68216960Y-47477680D03*
X68216960Y-45277680D03*
D12*
X67118400Y-36354120D03*
X67118400Y-34454120D03*
D24*
X75584120Y-65696040D03*
X73684120Y-65696040D03*
X75584120Y-67133680D03*
X73684120Y-67133680D03*
D13*
X61764280Y-79200680D03*
X61764280Y-81400680D03*
X67118400Y-32262320D03*
X67118400Y-30062320D03*
D25*
X67537961Y-51173440D03*
X69737959Y-51173440D03*
X73371560Y-64233000D03*
X75571560Y-64233000D03*
X69737959Y-52682200D03*
X67537961Y-52682200D03*
D24*
X67804801Y-55242520D03*
X69704799Y-55242520D03*
X69704799Y-56690320D03*
X67804801Y-56690320D03*
D26*
X59000000Y-83200000D03*
X59000000Y-89400000D03*
X50200000Y-83200000D03*
X50200000Y-89400000D03*
X41200000Y-83100000D03*
X41200000Y-89300000D03*
D27*
X21500000Y-90500000D03*
X15300000Y-90500000D03*
X15300000Y-81600000D03*
X21500000Y-81600000D03*
X15300000Y-72700000D03*
X21500000Y-72700000D03*
X15200000Y-63700000D03*
X21400000Y-63700000D03*
X21400000Y-54800000D03*
X15200000Y-54800000D03*
X21400000Y-45900000D03*
X15200000Y-45900000D03*
X21300000Y-36900000D03*
X15100000Y-36900000D03*
X15200000Y-27900000D03*
X21400000Y-27900000D03*
X15200000Y-19000000D03*
X21400000Y-19000000D03*
D26*
X40400000Y-14400000D03*
X40400000Y-20600000D03*
X49200000Y-14400000D03*
X49200000Y-20600000D03*
X58100000Y-14400000D03*
X58100000Y-20600000D03*
X67000000Y-14400000D03*
X67000000Y-20600000D03*
X75900000Y-20600000D03*
X75900000Y-14400000D03*
X84800000Y-20600000D03*
X84800000Y-14400000D03*
D22*
X93900000Y-45600000D03*
D23*
X93900000Y-48140000D03*
D28*
X6431891Y-3568109D03*
X5000000Y-2975000D03*
X3568109Y-3568109D03*
X2975000Y-5000000D03*
X3568109Y-6431891D03*
X5000000Y-7025000D03*
X6431891Y-6431891D03*
X7025000Y-5000000D03*
D29*
X5000000Y-5000000D03*
X95000000Y-5000000D03*
D28*
X97025000Y-5000000D03*
X96431891Y-6431891D03*
X95000000Y-7025000D03*
X93568109Y-6431891D03*
X92975000Y-5000000D03*
X93568109Y-3568109D03*
X95000000Y-2975000D03*
X96431891Y-3568109D03*
X6431891Y-93568109D03*
X5000000Y-92975000D03*
X3568109Y-93568109D03*
X2975000Y-95000000D03*
X3568109Y-96431891D03*
X5000000Y-97025000D03*
X6431891Y-96431891D03*
X7025000Y-95000000D03*
D29*
X5000000Y-95000000D03*
X95000000Y-95000000D03*
D28*
X97025000Y-95000000D03*
X96431891Y-96431891D03*
X95000000Y-97025000D03*
X93568109Y-96431891D03*
X92975000Y-95000000D03*
X93568109Y-93568109D03*
X95000000Y-92975000D03*
X96431891Y-93568109D03*
D14*
X81000000Y-14990000D03*
X81000000Y-10810000D03*
X72100000Y-10410000D03*
X72100000Y-14590000D03*
X63300000Y-10310000D03*
X63300000Y-14490000D03*
X54300000Y-14490000D03*
X54300000Y-10310000D03*
X45500000Y-14890000D03*
X45500000Y-10710000D03*
D30*
X11410000Y-13900000D03*
X15590000Y-13900000D03*
X15790000Y-22800000D03*
X11610000Y-22800000D03*
X11610000Y-31800000D03*
X15790000Y-31800000D03*
X11410000Y-40800000D03*
X15590000Y-40800000D03*
X15690000Y-49700000D03*
X11510000Y-49700000D03*
X15590000Y-58600000D03*
X11410000Y-58600000D03*
X11410000Y-67500000D03*
X15590000Y-67500000D03*
X15890000Y-76500000D03*
X11710000Y-76500000D03*
X11610000Y-85400000D03*
X15790000Y-85400000D03*
D14*
X36100000Y-93090000D03*
X36100000Y-88910000D03*
X45000000Y-89010000D03*
X45000000Y-93190000D03*
X54000000Y-89210000D03*
X54000000Y-93390000D03*
D31*
X54700000Y-84900000D03*
X53750000Y-82900000D03*
X55650000Y-82900000D03*
X45600000Y-84900000D03*
X44650000Y-82900000D03*
X46550000Y-82900000D03*
X37450000Y-82900000D03*
X35550000Y-82900000D03*
X36500000Y-84900000D03*
D32*
X21600000Y-86950000D03*
X21600000Y-85050000D03*
X19600000Y-86000000D03*
X19600000Y-77000000D03*
X21600000Y-76050000D03*
X21600000Y-77950000D03*
X21600000Y-68950000D03*
X21600000Y-67050000D03*
X19600000Y-68000000D03*
X19600000Y-59100000D03*
X21600000Y-58150000D03*
X21600000Y-60050000D03*
X21600000Y-51150000D03*
X21600000Y-49250000D03*
X19600000Y-50200000D03*
X21600000Y-42150000D03*
X21600000Y-40250000D03*
X19600000Y-41200000D03*
X19500000Y-32400000D03*
X21500000Y-31450000D03*
X21500000Y-33350000D03*
X19500000Y-23500000D03*
X21500000Y-22550000D03*
X21500000Y-24450000D03*
X19500000Y-14500000D03*
X21500000Y-13550000D03*
X21500000Y-15450000D03*
D31*
X43950000Y-20700000D03*
X45850000Y-20700000D03*
X44900000Y-18700000D03*
X52750000Y-20700000D03*
X54650000Y-20700000D03*
X53700000Y-18700000D03*
X62600000Y-18700000D03*
X63550000Y-20700000D03*
X61650000Y-20700000D03*
X70450000Y-20700000D03*
X72350000Y-20700000D03*
X71400000Y-18700000D03*
X79350000Y-20700000D03*
X81250000Y-20700000D03*
X80300000Y-18700000D03*
X89600000Y-18800000D03*
X90550000Y-20800000D03*
X88650000Y-20800000D03*
D28*
X87800000Y-88800000D03*
X85099994Y-88800000D03*
X82699996Y-88800000D03*
X80200002Y-88900000D03*
X77600000Y-88900000D03*
X75100000Y-88900000D03*
X72500000Y-88900000D03*
X70000000Y-88900000D03*
X67500000Y-88800000D03*
X62200000Y-50900000D03*
X60000000Y-55500000D03*
X67800000Y-57800000D03*
X65900000Y-84400000D03*
X65900000Y-83400000D03*
X65900000Y-82500000D03*
X67800000Y-58700000D03*
X67800000Y-59600000D03*
X59000000Y-84750000D03*
X57750000Y-84750000D03*
X60250000Y-84750000D03*
X51200000Y-46300000D03*
X44300000Y-37500000D03*
X40000000Y-34500000D03*
X40000000Y-38500000D03*
X52400000Y-37600000D03*
X56300000Y-37500000D03*
X60300000Y-37500000D03*
X64300000Y-37500000D03*
X69700000Y-49900000D03*
X71900000Y-65700000D03*
X54000000Y-63400000D03*
X50100000Y-63400000D03*
X46000000Y-63400000D03*
X89600000Y-91000000D03*
X86600000Y-91000000D03*
X83700000Y-91000000D03*
X81100000Y-90900000D03*
X61700000Y-77600000D03*
X52200000Y-46300000D03*
X53200000Y-46300000D03*
X54200000Y-46300000D03*
X55200000Y-46300000D03*
X56200000Y-46300000D03*
X57200000Y-46300000D03*
X58200000Y-46300000D03*
X51200000Y-47300000D03*
X52200000Y-47300000D03*
X53200000Y-47300000D03*
X54200000Y-47300000D03*
X55200000Y-47300000D03*
X56200000Y-47300000D03*
X57200000Y-47300000D03*
X58200000Y-47300000D03*
X51200000Y-48300000D03*
X52200000Y-48300000D03*
X53200000Y-48300000D03*
X54200000Y-48300000D03*
X55200000Y-48300000D03*
X56200000Y-48300000D03*
X57200000Y-48300000D03*
X58200000Y-48300000D03*
X51200000Y-49300000D03*
X52200000Y-49300000D03*
X53200000Y-49300000D03*
X54200000Y-49300000D03*
X55200000Y-49300000D03*
X56200000Y-49300000D03*
X57200000Y-49300000D03*
X58200000Y-49300000D03*
X51200000Y-50300000D03*
X52200000Y-50300000D03*
X53200000Y-50300000D03*
X54200000Y-50300000D03*
X55200000Y-50300000D03*
X56200000Y-50300000D03*
X57200000Y-50300000D03*
X58200000Y-50300000D03*
X51200000Y-51300000D03*
X52200000Y-51300000D03*
X53200000Y-51300000D03*
X54200000Y-51300000D03*
X55200000Y-51300000D03*
X56200000Y-51300000D03*
X57200000Y-51300000D03*
X58200000Y-51300000D03*
X51200000Y-52300000D03*
X52200000Y-52300000D03*
X53200000Y-52300000D03*
X54200000Y-52300000D03*
X55200000Y-52300000D03*
X56200000Y-52300000D03*
X57200000Y-52300000D03*
X58200000Y-52300000D03*
X51200000Y-53300000D03*
X52200000Y-53300000D03*
X53200000Y-53300000D03*
X54200000Y-53300000D03*
X55200000Y-53300000D03*
X56200000Y-53300000D03*
X57200000Y-53300000D03*
X58200000Y-53300000D03*
X39900000Y-42600000D03*
X40000000Y-46500000D03*
X39900000Y-50500000D03*
X39900000Y-54400000D03*
X39900000Y-58400000D03*
X39900000Y-62400000D03*
X39900000Y-66600000D03*
X68637240Y-91100000D03*
X65637236Y-91100000D03*
X71200000Y-91000000D03*
X74100000Y-91000000D03*
X76900000Y-90900000D03*
X48300000Y-37524990D03*
X68250000Y-36250000D03*
X70250000Y-58000000D03*
X63800000Y-48600000D03*
X66250000Y-46500000D03*
X66112660Y-40612660D03*
X71700000Y-64300000D03*
X71700000Y-30062320D03*
X84750000Y-19000000D03*
X83500000Y-19000000D03*
X86000000Y-19000000D03*
X74750000Y-19000000D03*
X75999990Y-19000000D03*
X77250000Y-19000000D03*
X67000000Y-19000000D03*
X65750000Y-19000000D03*
X68250000Y-19000000D03*
X59500000Y-19000000D03*
X58250000Y-19000000D03*
X56750000Y-19000000D03*
X49250000Y-19000000D03*
X50500000Y-19000000D03*
X47750000Y-19000000D03*
X40500000Y-19000000D03*
X39250000Y-19000000D03*
X41750000Y-19000000D03*
X19750000Y-19000000D03*
X19750000Y-18000000D03*
X19750000Y-20000000D03*
X19750000Y-28000000D03*
X19750000Y-27000000D03*
X19750000Y-29000000D03*
X19750000Y-36750000D03*
X19750000Y-35500000D03*
X19750000Y-38000000D03*
X19750000Y-45750000D03*
X19750000Y-44500000D03*
X19750000Y-47000000D03*
X19750000Y-54750000D03*
X19750000Y-56000000D03*
X19750000Y-53500000D03*
X19750000Y-63500000D03*
X19750000Y-62250000D03*
X19750000Y-64750000D03*
X19750000Y-72500000D03*
X19750000Y-71250000D03*
X19750000Y-73750000D03*
X19750000Y-81500000D03*
X19750000Y-80250000D03*
X19750000Y-82750000D03*
X19750000Y-90500000D03*
X19750000Y-89250000D03*
X19750000Y-91750000D03*
X40000000Y-84750000D03*
X42500000Y-84750000D03*
X41250000Y-84750000D03*
X50250000Y-84750000D03*
X51500000Y-84750000D03*
X49000000Y-84750000D03*
D33*
X89787240Y-94510480D02*
X89637240Y-94360480D01*
X91137240Y-94510480D02*
X89787240Y-94510480D01*
X89637240Y-95574480D02*
X87787480Y-97424240D01*
X89637240Y-94360480D02*
X89637240Y-95574480D01*
X57950000Y-55500000D02*
X57950000Y-58550000D01*
X57950000Y-58550000D02*
X87800000Y-88400000D01*
X87800000Y-88400000D02*
X87800000Y-88800000D01*
X86787240Y-94510480D02*
X86637240Y-94360480D01*
X88137240Y-94510480D02*
X86787240Y-94510480D01*
X86637240Y-96034480D02*
X85247480Y-97424240D01*
X86637240Y-94360480D02*
X86637240Y-96034480D01*
X85099994Y-88234315D02*
X85099994Y-88800000D01*
X57450000Y-58750000D02*
X85099994Y-86399994D01*
X85099994Y-86399994D02*
X85099994Y-88234315D01*
X57450000Y-55500000D02*
X57450000Y-58750000D01*
X83787240Y-94510480D02*
X83637240Y-94360480D01*
X85137240Y-94510480D02*
X83787240Y-94510480D01*
X83637240Y-96494480D02*
X82707480Y-97424240D01*
X83637240Y-94360480D02*
X83637240Y-96494480D01*
X56950000Y-58950000D02*
X82699996Y-84699996D01*
X82699996Y-88234315D02*
X82699996Y-88800000D01*
X82699996Y-84699996D02*
X82699996Y-88234315D01*
X56950000Y-55500000D02*
X56950000Y-58950000D01*
X80787240Y-94510480D02*
X80637240Y-94360480D01*
X82137240Y-94510480D02*
X80787240Y-94510480D01*
X80637240Y-96954480D02*
X80167480Y-97424240D01*
X80637240Y-94360480D02*
X80637240Y-96954480D01*
X80200002Y-88334315D02*
X80200002Y-88900000D01*
X56450000Y-55500000D02*
X56450000Y-59150000D01*
X56450000Y-59150000D02*
X80200002Y-82900002D01*
X80200002Y-82900002D02*
X80200002Y-88334315D01*
X78987240Y-94360480D02*
X79137240Y-94510480D01*
X77637240Y-94360480D02*
X78987240Y-94360480D01*
X77637240Y-97414480D02*
X77627480Y-97424240D01*
X77637240Y-94360480D02*
X77637240Y-97414480D01*
X55950000Y-56500000D02*
X55950000Y-55500000D01*
X77600000Y-80936410D02*
X55950000Y-59286410D01*
X77600000Y-88900000D02*
X77600000Y-80936410D01*
X55950000Y-59286410D02*
X55950000Y-56500000D01*
X75987240Y-94360480D02*
X76137240Y-94510480D01*
X74637240Y-94360480D02*
X75987240Y-94360480D01*
X76137240Y-96374480D02*
X75087480Y-97424240D01*
X76137240Y-94510480D02*
X76137240Y-96374480D01*
X55450000Y-56500000D02*
X55450000Y-55500000D01*
X75100000Y-79072821D02*
X55450000Y-59422821D01*
X55450000Y-59422821D02*
X55450000Y-56500000D01*
X75100000Y-88900000D02*
X75100000Y-79072821D01*
X72987240Y-94360480D02*
X73137240Y-94510480D01*
X71637240Y-94360480D02*
X72987240Y-94360480D01*
X73137240Y-96834480D02*
X72547480Y-97424240D01*
X73137240Y-94510480D02*
X73137240Y-96834480D01*
X54950000Y-56500000D02*
X54950000Y-55500000D01*
X54950000Y-59559232D02*
X54950000Y-56500000D01*
X72500000Y-77109232D02*
X54950000Y-59559232D01*
X72500000Y-88900000D02*
X72500000Y-77109232D01*
X69987240Y-94360480D02*
X70137240Y-94510480D01*
X68637240Y-94360480D02*
X69987240Y-94360480D01*
X70137240Y-97294480D02*
X70007480Y-97424240D01*
X70137240Y-94510480D02*
X70137240Y-97294480D01*
X54450000Y-56500000D02*
X54450000Y-55500000D01*
X54450000Y-59695643D02*
X54450000Y-56500000D01*
X70000000Y-75245643D02*
X54450000Y-59695643D01*
X70000000Y-88900000D02*
X70000000Y-75245643D01*
X66987240Y-94360480D02*
X67137240Y-94510480D01*
X65637240Y-94360480D02*
X66987240Y-94360480D01*
X67137240Y-97094000D02*
X67467480Y-97424240D01*
X67137240Y-94510480D02*
X67137240Y-97094000D01*
X53950000Y-59832054D02*
X53950000Y-56500000D01*
X67500000Y-73382054D02*
X53950000Y-59832054D01*
X67500000Y-88800000D02*
X67500000Y-73382054D01*
X53950000Y-56500000D02*
X53950000Y-55500000D01*
X93698920Y-38598920D02*
X93900000Y-38800000D01*
X87675120Y-38598920D02*
X93698920Y-38598920D01*
X87675120Y-42598920D02*
X93101080Y-42598920D01*
X93900000Y-41800000D02*
X93900000Y-41340000D01*
X93101080Y-42598920D02*
X93900000Y-41800000D01*
X4580281Y-68224400D02*
X5600000Y-69244119D01*
X3378200Y-68224400D02*
X4580281Y-68224400D01*
X5600000Y-69244119D02*
X5600000Y-87700000D01*
X5600000Y-87700000D02*
X15100000Y-97200000D01*
X52735000Y-93390000D02*
X54000000Y-93390000D01*
X15100000Y-97200000D02*
X48925000Y-97200000D01*
X48925000Y-97200000D02*
X52735000Y-93390000D01*
X3378200Y-65684400D02*
X6500000Y-68806200D01*
X6500000Y-68806200D02*
X6500000Y-87200000D01*
X6500000Y-87200000D02*
X15600000Y-96300000D01*
X43735000Y-93190000D02*
X45000000Y-93190000D01*
X15600000Y-96300000D02*
X40625000Y-96300000D01*
X40625000Y-96300000D02*
X43735000Y-93190000D01*
X7200000Y-66966200D02*
X7200000Y-86500000D01*
X3378200Y-63144400D02*
X7200000Y-66966200D01*
X13790000Y-93090000D02*
X36100000Y-93090000D01*
X7200000Y-86500000D02*
X13790000Y-93090000D01*
X3378200Y-60604400D02*
X8800000Y-66026200D01*
X8800000Y-66026200D02*
X8800000Y-81325000D01*
X11610000Y-84135000D02*
X11610000Y-85400000D01*
X8800000Y-81325000D02*
X11610000Y-84135000D01*
X3378200Y-58064400D02*
X9500000Y-64186200D01*
X11710000Y-75235000D02*
X11710000Y-76500000D01*
X9500000Y-64186200D02*
X9500000Y-73025000D01*
X9500000Y-73025000D02*
X11710000Y-75235000D01*
X11410000Y-63556200D02*
X11410000Y-67500000D01*
X3378200Y-55524400D02*
X11410000Y-63556200D01*
X11410000Y-57335000D02*
X11410000Y-58600000D01*
X3378200Y-52984400D02*
X7059400Y-52984400D01*
X7059400Y-52984400D02*
X11410000Y-57335000D01*
X4122600Y-49700000D02*
X3378200Y-50444400D01*
X11510000Y-49700000D02*
X4122600Y-49700000D01*
X10482600Y-40800000D02*
X11410000Y-40800000D01*
X3378200Y-47904400D02*
X10482600Y-40800000D01*
X10035000Y-31800000D02*
X9100000Y-32735000D01*
X11610000Y-31800000D02*
X10035000Y-31800000D01*
X9100000Y-39642600D02*
X3378200Y-45364400D01*
X9100000Y-32735000D02*
X9100000Y-39642600D01*
X11610000Y-22800000D02*
X9300000Y-22800000D01*
X9300000Y-22800000D02*
X8600000Y-23500000D01*
X8600000Y-37602600D02*
X3378200Y-42824400D01*
X8600000Y-23500000D02*
X8600000Y-37602600D01*
X7900000Y-35762600D02*
X3378200Y-40284400D01*
X7900000Y-15835000D02*
X7900000Y-35762600D01*
X11410000Y-13900000D02*
X9835000Y-13900000D01*
X9835000Y-13900000D02*
X7900000Y-15835000D01*
X44100000Y-7800000D02*
X45500000Y-9200000D01*
X7400000Y-12372820D02*
X11972820Y-7800000D01*
X45500000Y-9200000D02*
X45500000Y-10710000D01*
X11972820Y-7800000D02*
X44100000Y-7800000D01*
X3378200Y-37744400D02*
X7400000Y-33722600D01*
X7400000Y-33722600D02*
X7400000Y-12372820D01*
X54300000Y-8600000D02*
X54300000Y-10310000D01*
X11836410Y-7300000D02*
X53000000Y-7300000D01*
X6900000Y-12236410D02*
X11836410Y-7300000D01*
X6900000Y-31682600D02*
X6900000Y-12236410D01*
X3378200Y-35204400D02*
X6900000Y-31682600D01*
X53000000Y-7300000D02*
X54300000Y-8600000D01*
X4228199Y-31814401D02*
X3378200Y-32664400D01*
X11650010Y-6849989D02*
X6400000Y-12100000D01*
X53186422Y-6850011D02*
X53186400Y-6849989D01*
X6400000Y-29642600D02*
X4228199Y-31814401D01*
X6400000Y-12100000D02*
X6400000Y-29642600D01*
X61350011Y-6850011D02*
X53186422Y-6850011D01*
X62900000Y-8400000D02*
X61350011Y-6850011D01*
X62900000Y-10320000D02*
X62900000Y-8400000D01*
X53186400Y-6849989D02*
X11650010Y-6849989D01*
X3378200Y-30124400D02*
X5900000Y-27602600D01*
X66825000Y-6400000D02*
X70835000Y-10410000D01*
X5900000Y-11900000D02*
X11400022Y-6399978D01*
X11400022Y-6399978D02*
X53372800Y-6399978D01*
X5900000Y-27602600D02*
X5900000Y-11900000D01*
X70835000Y-10410000D02*
X72100000Y-10410000D01*
X53372822Y-6400000D02*
X66825000Y-6400000D01*
X53372800Y-6399978D02*
X53372822Y-6400000D01*
X81000000Y-7300000D02*
X81000000Y-10810000D01*
X79600000Y-5900000D02*
X81000000Y-7300000D01*
X11200000Y-5900000D02*
X79600000Y-5900000D01*
X5400000Y-11700000D02*
X11200000Y-5900000D01*
X3378200Y-27584400D02*
X5400000Y-25562600D01*
X5400000Y-25562600D02*
X5400000Y-11700000D01*
X4580281Y-25044400D02*
X4900000Y-24724681D01*
X3378200Y-25044400D02*
X4580281Y-25044400D01*
X4900000Y-24724681D02*
X4900000Y-11500000D01*
X89900000Y-6800000D02*
X89900000Y-10810000D01*
X4900000Y-11500000D02*
X11000000Y-5400000D01*
X11000000Y-5400000D02*
X88500000Y-5400000D01*
X88500000Y-5400000D02*
X89900000Y-6800000D01*
X58450000Y-55500000D02*
X60000000Y-55500000D01*
X77850600Y-67133680D02*
X78037320Y-67320400D01*
X75584120Y-67133680D02*
X77850600Y-67133680D01*
X60400000Y-50550000D02*
X61850000Y-50550000D01*
X61850000Y-50550000D02*
X62200000Y-50900000D01*
X80500000Y-72900000D02*
X93859840Y-72900000D01*
X93859840Y-72900000D02*
X93918320Y-72841520D01*
X78037320Y-67320400D02*
X78037320Y-70437320D01*
X78037320Y-70437320D02*
X80500000Y-72900000D01*
X75359120Y-67133680D02*
X75584120Y-67133680D01*
X74192800Y-68300000D02*
X75359120Y-67133680D01*
X68400000Y-68300000D02*
X74192800Y-68300000D01*
X60000000Y-55500000D02*
X60000000Y-59900000D01*
X60000000Y-59900000D02*
X68400000Y-68300000D01*
X95018320Y-59034080D02*
X93918320Y-59034080D01*
X96300000Y-60315760D02*
X95018320Y-59034080D01*
X93918320Y-72841520D02*
X95018320Y-72841520D01*
X96300000Y-71559840D02*
X96300000Y-60315760D01*
X95018320Y-72841520D02*
X96300000Y-71559840D01*
X61400000Y-50050000D02*
X61450000Y-50100000D01*
X65857201Y-53457201D02*
X82557201Y-53457201D01*
X60400000Y-50050000D02*
X61400000Y-50050000D01*
X62500000Y-50100000D02*
X65857201Y-53457201D01*
X61450000Y-50100000D02*
X62500000Y-50100000D01*
X90674080Y-61574080D02*
X93918320Y-61574080D01*
X82557201Y-53457201D02*
X90674080Y-61574080D01*
X93068321Y-69451521D02*
X93918320Y-70301520D01*
X63050000Y-52050000D02*
X65000000Y-54000000D01*
X65000000Y-54000000D02*
X82400000Y-54000000D01*
X90400000Y-62000000D02*
X90400000Y-66783200D01*
X90400000Y-66783200D02*
X93068321Y-69451521D01*
X60400000Y-52050000D02*
X63050000Y-52050000D01*
X82400000Y-54000000D02*
X90400000Y-62000000D01*
X66290320Y-56690320D02*
X67804801Y-56690320D01*
X60400000Y-53050000D02*
X62650000Y-53050000D01*
X62650000Y-53050000D02*
X66290320Y-56690320D01*
D34*
X67804801Y-56690320D02*
X67804801Y-57795199D01*
X67804801Y-57795199D02*
X67800000Y-57800000D01*
D33*
X91137240Y-92310480D02*
X91137240Y-90537240D01*
X91137240Y-90537240D02*
X90400000Y-89800000D01*
D34*
X65900000Y-88900000D02*
X65900000Y-84400000D01*
X66800000Y-89800000D02*
X65900000Y-88900000D01*
D33*
X88137240Y-89837240D02*
X88100000Y-89800000D01*
X88137240Y-92310480D02*
X88137240Y-89837240D01*
D34*
X90400000Y-89800000D02*
X88100000Y-89800000D01*
D33*
X85137240Y-89862760D02*
X85200000Y-89800000D01*
X85137240Y-92310480D02*
X85137240Y-89862760D01*
D34*
X88100000Y-89800000D02*
X85200000Y-89800000D01*
D33*
X82137240Y-89962760D02*
X82300000Y-89800000D01*
X82137240Y-92310480D02*
X82137240Y-89962760D01*
D34*
X85200000Y-89800000D02*
X82300000Y-89800000D01*
D33*
X79137240Y-92310480D02*
X79137240Y-89962760D01*
X79137240Y-89962760D02*
X79300000Y-89800000D01*
D34*
X82300000Y-89800000D02*
X79300000Y-89800000D01*
D33*
X76137240Y-89862760D02*
X76200000Y-89800000D01*
D34*
X79300000Y-89800000D02*
X76200000Y-89800000D01*
D33*
X76137240Y-92310480D02*
X76137240Y-89862760D01*
X73137240Y-92310480D02*
X73137240Y-89862760D01*
D34*
X76200000Y-89800000D02*
X73200000Y-89800000D01*
D33*
X73137240Y-89862760D02*
X73200000Y-89800000D01*
X70137240Y-89862760D02*
X70200000Y-89800000D01*
X70137240Y-92310480D02*
X70137240Y-89862760D01*
D34*
X73200000Y-89800000D02*
X70200000Y-89800000D01*
X70200000Y-89800000D02*
X66800000Y-89800000D01*
D33*
X67137240Y-90137240D02*
X66800000Y-89800000D01*
X67137240Y-92310480D02*
X67137240Y-90137240D01*
D34*
X65900000Y-84400000D02*
X65900000Y-83400000D01*
X65900000Y-83400000D02*
X65900000Y-82500000D01*
X67800000Y-57800000D02*
X67800000Y-58700000D01*
X67800000Y-58700000D02*
X67800000Y-59600000D01*
D33*
X73200120Y-39323920D02*
X73925120Y-38598920D01*
X67876600Y-39323920D02*
X73200120Y-39323920D01*
X67176600Y-39323920D02*
X67876600Y-39323920D01*
X60400000Y-46050000D02*
X60400000Y-45300000D01*
X60400000Y-45300000D02*
X66376080Y-39323920D01*
X66376080Y-39323920D02*
X67176600Y-39323920D01*
X62450000Y-46550000D02*
X60400000Y-46550000D01*
X67476080Y-41523920D02*
X62450000Y-46550000D01*
X67876600Y-41523920D02*
X67476080Y-41523920D01*
X69102680Y-42750000D02*
X73024040Y-42750000D01*
X67876600Y-41523920D02*
X69102680Y-42750000D01*
X73024040Y-42750000D02*
X73175120Y-42598920D01*
X73175120Y-42598920D02*
X73925120Y-42598920D01*
X62586410Y-47050000D02*
X61400000Y-47050000D01*
X61400000Y-47050000D02*
X60400000Y-47050000D01*
X64358730Y-45277680D02*
X62586410Y-47050000D01*
X68216960Y-45277680D02*
X64358730Y-45277680D01*
X73246360Y-45277680D02*
X73925120Y-44598920D01*
X68216960Y-45277680D02*
X73246360Y-45277680D01*
X32000000Y-59200000D02*
X32551480Y-59200000D01*
X21600000Y-68950000D02*
X22250000Y-68950000D01*
X22250000Y-68950000D02*
X32000000Y-59200000D01*
X73925120Y-47848920D02*
X73925120Y-48598920D01*
X68216960Y-47477680D02*
X73553880Y-47477680D01*
X73553880Y-47477680D02*
X73925120Y-47848920D01*
X61400000Y-47550000D02*
X60400000Y-47550000D01*
X67444640Y-47550000D02*
X61400000Y-47550000D01*
X68216960Y-47477680D02*
X67516960Y-47477680D01*
X67516960Y-47477680D02*
X67444640Y-47550000D01*
X73841560Y-40515360D02*
X73925120Y-40598920D01*
X71686640Y-40515360D02*
X73841560Y-40515360D01*
X61764280Y-81535720D02*
X61764280Y-81400680D01*
X59000000Y-83200000D02*
X60100000Y-83200000D01*
X60100000Y-83200000D02*
X61764280Y-81535720D01*
X61764280Y-81250680D02*
X61764280Y-81400680D01*
X53450000Y-55500000D02*
X53450000Y-59968465D01*
X62800000Y-80214960D02*
X61764280Y-81250680D01*
X62800000Y-69318465D02*
X62800000Y-80214960D01*
X53450000Y-59968465D02*
X62800000Y-69318465D01*
D35*
X59000000Y-83200000D02*
X59000000Y-84750000D01*
X59000000Y-84750000D02*
X57750000Y-84750000D01*
X59000000Y-84750000D02*
X60250000Y-84750000D01*
D33*
X61400000Y-52550000D02*
X60400000Y-52550000D01*
X62850000Y-52550000D02*
X61400000Y-52550000D01*
X67804801Y-55242520D02*
X65542520Y-55242520D01*
X65542520Y-55242520D02*
X62850000Y-52550000D01*
X18900000Y-59100000D02*
X19600000Y-59100000D01*
X15200000Y-63700000D02*
X15200000Y-62600000D01*
X18700000Y-59100000D02*
X18900000Y-59100000D01*
X15200000Y-62600000D02*
X18700000Y-59100000D01*
X15200000Y-54800000D02*
X15200000Y-53700000D01*
X18900000Y-50200000D02*
X19600000Y-50200000D01*
X15200000Y-53700000D02*
X18700000Y-50200000D01*
X18700000Y-50200000D02*
X18900000Y-50200000D01*
X19600000Y-41850000D02*
X19600000Y-41200000D01*
X19600000Y-42250000D02*
X19600000Y-41850000D01*
X15200000Y-45900000D02*
X15950000Y-45900000D01*
X15950000Y-45900000D02*
X19600000Y-42250000D01*
X19500000Y-33050000D02*
X19500000Y-32400000D01*
X19500000Y-33250000D02*
X19500000Y-33050000D01*
X15100000Y-36900000D02*
X15850000Y-36900000D01*
X15850000Y-36900000D02*
X19500000Y-33250000D01*
X19500000Y-24350000D02*
X19500000Y-24150000D01*
X15200000Y-27900000D02*
X15950000Y-27900000D01*
X19500000Y-24150000D02*
X19500000Y-23500000D01*
X15950000Y-27900000D02*
X19500000Y-24350000D01*
X19500000Y-15150000D02*
X19500000Y-14500000D01*
X15200000Y-19000000D02*
X15950000Y-19000000D01*
X19500000Y-15450000D02*
X19500000Y-15150000D01*
X15950000Y-19000000D02*
X19500000Y-15450000D01*
X43700000Y-18700000D02*
X44900000Y-18700000D01*
X40400000Y-14400000D02*
X40400000Y-15400000D01*
X40400000Y-15400000D02*
X43700000Y-18700000D01*
X53050000Y-18700000D02*
X53700000Y-18700000D01*
X52750000Y-18700000D02*
X53050000Y-18700000D01*
X49200000Y-14400000D02*
X49200000Y-15150000D01*
X49200000Y-15150000D02*
X52750000Y-18700000D01*
X61950000Y-18700000D02*
X62600000Y-18700000D01*
X61650000Y-18700000D02*
X61950000Y-18700000D01*
X58100000Y-14400000D02*
X58100000Y-15150000D01*
X58100000Y-15150000D02*
X61650000Y-18700000D01*
X70750000Y-18700000D02*
X71400000Y-18700000D01*
X70550000Y-18700000D02*
X70750000Y-18700000D01*
X67000000Y-14400000D02*
X67000000Y-15150000D01*
X67000000Y-15150000D02*
X70550000Y-18700000D01*
X80300000Y-18000000D02*
X80300000Y-18700000D01*
X75900000Y-14400000D02*
X77000000Y-14400000D01*
X80300000Y-17700000D02*
X80300000Y-18000000D01*
X77000000Y-14400000D02*
X80300000Y-17700000D01*
X88950000Y-18800000D02*
X89600000Y-18800000D01*
X88450000Y-18800000D02*
X88950000Y-18800000D01*
X84800000Y-14400000D02*
X84800000Y-15150000D01*
X84800000Y-15150000D02*
X88450000Y-18800000D01*
X53266480Y-67483520D02*
X54000000Y-66750000D01*
X53266480Y-68568760D02*
X53266480Y-67483520D01*
X52450000Y-61450000D02*
X52450000Y-55500000D01*
X52450000Y-65825000D02*
X52450000Y-61450000D01*
X54000000Y-66750000D02*
X53375000Y-66750000D01*
X53375000Y-66750000D02*
X52450000Y-65825000D01*
X49475000Y-66671600D02*
X50100000Y-66671600D01*
X49278080Y-68545720D02*
X49278080Y-66868520D01*
X49278080Y-66868520D02*
X49475000Y-66671600D01*
X48500000Y-60500000D02*
X51450000Y-57550000D01*
X51450000Y-56500000D02*
X51450000Y-55500000D01*
X48500000Y-65800000D02*
X48500000Y-60500000D01*
X51450000Y-57550000D02*
X51450000Y-56500000D01*
X50100000Y-66671600D02*
X49371600Y-66671600D01*
X49371600Y-66671600D02*
X48500000Y-65800000D01*
X45216960Y-68631600D02*
X45216960Y-66928040D01*
X45375000Y-66770000D02*
X46000000Y-66770000D01*
X45216960Y-66928040D02*
X45375000Y-66770000D01*
X45070000Y-66770000D02*
X46000000Y-66770000D01*
X44250000Y-65950000D02*
X45070000Y-66770000D01*
X44250000Y-57700000D02*
X44250000Y-65950000D01*
X49000000Y-53550000D02*
X48400000Y-53550000D01*
X48400000Y-53550000D02*
X44250000Y-57700000D01*
X36650000Y-65975000D02*
X36650000Y-66600000D01*
X34800000Y-65800000D02*
X36475000Y-65800000D01*
X36475000Y-65800000D02*
X36650000Y-65975000D01*
X38025000Y-64600000D02*
X40786411Y-64600000D01*
X36650000Y-65975000D02*
X38025000Y-64600000D01*
X43250000Y-57178587D02*
X47878587Y-52550000D01*
X40786411Y-64600000D02*
X43250000Y-62136411D01*
X43250000Y-62136411D02*
X43250000Y-57178587D01*
X48000000Y-52550000D02*
X49000000Y-52550000D01*
X47878587Y-52550000D02*
X48000000Y-52550000D01*
X36650000Y-61775000D02*
X36650000Y-62400000D01*
X34798800Y-61706400D02*
X36581400Y-61706400D01*
X36581400Y-61706400D02*
X36650000Y-61775000D01*
X37925000Y-60500000D02*
X41250000Y-60500000D01*
X36650000Y-61775000D02*
X37925000Y-60500000D01*
X41250000Y-60500000D02*
X42000000Y-59750000D01*
X48000000Y-51550000D02*
X49000000Y-51550000D01*
X47605765Y-51550000D02*
X48000000Y-51550000D01*
X42000000Y-57155765D02*
X47605765Y-51550000D01*
X42000000Y-59750000D02*
X42000000Y-57155765D01*
X34736240Y-57614800D02*
X36489800Y-57614800D01*
X36650000Y-57775000D02*
X36650000Y-58400000D01*
X36489800Y-57614800D02*
X36650000Y-57775000D01*
X48000000Y-50550000D02*
X49000000Y-50550000D01*
X47250000Y-50550000D02*
X48000000Y-50550000D01*
X41300000Y-56500000D02*
X47250000Y-50550000D01*
X36650000Y-57775000D02*
X37925000Y-56500000D01*
X37925000Y-56500000D02*
X41300000Y-56500000D01*
X36650000Y-53775000D02*
X36650000Y-54400000D01*
X34800000Y-53600000D02*
X36475000Y-53600000D01*
X36475000Y-53600000D02*
X36650000Y-53775000D01*
X45050000Y-49550000D02*
X49000000Y-49550000D01*
X41850000Y-52750000D02*
X45050000Y-49550000D01*
X36650000Y-53775000D02*
X37675000Y-52750000D01*
X37675000Y-52750000D02*
X41850000Y-52750000D01*
X36750000Y-49875000D02*
X36750000Y-50500000D01*
X36575000Y-49700000D02*
X36750000Y-49875000D01*
X34839720Y-49819560D02*
X34959280Y-49700000D01*
X34959280Y-49700000D02*
X36575000Y-49700000D01*
X48975001Y-48574999D02*
X49000000Y-48550000D01*
X37875000Y-48750000D02*
X44363590Y-48750000D01*
X44363590Y-48750000D02*
X44513600Y-48599990D01*
X47989999Y-48574999D02*
X48975001Y-48574999D01*
X36750000Y-49875000D02*
X37875000Y-48750000D01*
X44513600Y-48599990D02*
X47965008Y-48599990D01*
X47965008Y-48599990D02*
X47989999Y-48574999D01*
X36064320Y-45814320D02*
X36750000Y-46500000D01*
X34905760Y-45814320D02*
X36064320Y-45814320D01*
X48000000Y-47550000D02*
X49000000Y-47550000D01*
X47875023Y-47674977D02*
X48000000Y-47550000D01*
X47617199Y-47674977D02*
X47875023Y-47674977D01*
X47592208Y-47699968D02*
X47617199Y-47674977D01*
X44140800Y-47699968D02*
X47592208Y-47699968D01*
X44090768Y-47750000D02*
X44140800Y-47699968D01*
X37375000Y-47750000D02*
X44090768Y-47750000D01*
X36750000Y-47125000D02*
X37375000Y-47750000D01*
X36750000Y-46500000D02*
X36750000Y-47125000D01*
X36750000Y-41975000D02*
X36750000Y-42600000D01*
X34892120Y-41841440D02*
X36616440Y-41841440D01*
X36616440Y-41841440D02*
X36750000Y-41975000D01*
X46150000Y-46550000D02*
X49000000Y-46550000D01*
X37600000Y-44500000D02*
X44100000Y-44500000D01*
X44100000Y-44500000D02*
X46150000Y-46550000D01*
X36750000Y-42600000D02*
X36750000Y-43650000D01*
X36750000Y-43650000D02*
X37600000Y-44500000D01*
X36074440Y-37824440D02*
X36750000Y-38500000D01*
X34899080Y-37824440D02*
X36074440Y-37824440D01*
X46690768Y-44100000D02*
X50550000Y-44100000D01*
X50550000Y-44100000D02*
X50950000Y-44100000D01*
X42890768Y-40300000D02*
X46690768Y-44100000D01*
X36750000Y-38500000D02*
X36750000Y-39550000D01*
X37500000Y-40300000D02*
X42890768Y-40300000D01*
X36750000Y-39550000D02*
X37500000Y-40300000D01*
X36650000Y-33875000D02*
X36650000Y-34500000D01*
X34780360Y-33825880D02*
X36600880Y-33825880D01*
X36600880Y-33825880D02*
X36650000Y-33875000D01*
X51950000Y-43100000D02*
X51950000Y-44100000D01*
X51950000Y-42382054D02*
X51950000Y-43100000D01*
X50517958Y-40950011D02*
X51950000Y-42382054D01*
X44813600Y-40950011D02*
X50517958Y-40950011D01*
X37499989Y-36299989D02*
X40163578Y-36299989D01*
X40163578Y-36299989D02*
X44813600Y-40950011D01*
X36650000Y-35450000D02*
X37499989Y-36299989D01*
X36650000Y-34500000D02*
X36650000Y-35450000D01*
X44925000Y-34150000D02*
X44300000Y-34150000D01*
X45100000Y-32296160D02*
X45100000Y-33975000D01*
X45100000Y-33975000D02*
X44925000Y-34150000D01*
X52950000Y-43100000D02*
X52950000Y-44100000D01*
X52950000Y-42109232D02*
X52950000Y-43100000D01*
X45900000Y-37536411D02*
X48313600Y-39950011D01*
X48313600Y-39950011D02*
X50790779Y-39950011D01*
X45050000Y-34150000D02*
X45900000Y-35000000D01*
X44300000Y-34150000D02*
X45050000Y-34150000D01*
X45900000Y-35000000D02*
X45900000Y-37536411D01*
X50790779Y-39950011D02*
X52950000Y-42109232D01*
X48925000Y-34250000D02*
X48300000Y-34250000D01*
X49000000Y-32400000D02*
X49000000Y-34175000D01*
X49000000Y-34175000D02*
X48925000Y-34250000D01*
X53925001Y-44075001D02*
X53950000Y-44100000D01*
X53925000Y-41811411D02*
X53925001Y-44075001D01*
X50000000Y-37886411D02*
X53925000Y-41811411D01*
X50000000Y-35300000D02*
X50000000Y-37886411D01*
X48300000Y-34250000D02*
X48950000Y-34250000D01*
X48950000Y-34250000D02*
X50000000Y-35300000D01*
X52400000Y-34150000D02*
X53025000Y-34150000D01*
X53200000Y-33975000D02*
X53025000Y-34150000D01*
X53200000Y-32300000D02*
X53200000Y-33975000D01*
X54950000Y-41563590D02*
X54950000Y-43236411D01*
X54149989Y-40763579D02*
X54950000Y-41563590D01*
X54100000Y-40713589D02*
X54149989Y-40763579D01*
X54950000Y-43236411D02*
X54950000Y-44100000D01*
X53025000Y-34150000D02*
X54100000Y-35225000D01*
X54100000Y-35225000D02*
X54100000Y-40713589D01*
X56925000Y-34150000D02*
X56300000Y-34150000D01*
X57100000Y-32300000D02*
X57100000Y-33975000D01*
X57100000Y-33975000D02*
X56925000Y-34150000D01*
X55950000Y-43100000D02*
X55950000Y-44100000D01*
X55950000Y-40050000D02*
X55950000Y-43100000D01*
X57750000Y-34650000D02*
X57750000Y-38250000D01*
X56925000Y-34150000D02*
X57250000Y-34150000D01*
X57750000Y-38250000D02*
X55950000Y-40050000D01*
X57250000Y-34150000D02*
X57750000Y-34650000D01*
X60925000Y-34150000D02*
X60300000Y-34150000D01*
X61200000Y-32300000D02*
X61200000Y-33875000D01*
X61200000Y-33875000D02*
X60925000Y-34150000D01*
X56950000Y-41350000D02*
X56950000Y-43100000D01*
X58750000Y-39550000D02*
X56950000Y-41350000D01*
X58750000Y-35050000D02*
X58750000Y-39550000D01*
X60300000Y-34150000D02*
X59650000Y-34150000D01*
X56950000Y-43100000D02*
X56950000Y-44100000D01*
X59650000Y-34150000D02*
X58750000Y-35050000D01*
X64925000Y-34150000D02*
X64300000Y-34150000D01*
X65000000Y-32300000D02*
X65000000Y-34075000D01*
X65000000Y-34075000D02*
X64925000Y-34150000D01*
X64300000Y-34150000D02*
X64300000Y-34375000D01*
X64300000Y-34375000D02*
X62950011Y-35724989D01*
X62950011Y-38186400D02*
X57950000Y-43186410D01*
X57950000Y-43186410D02*
X57950000Y-44100000D01*
X62950011Y-35724989D02*
X62950011Y-38186400D01*
X52950000Y-60200000D02*
X52950000Y-56500000D01*
X55750000Y-63000000D02*
X52950000Y-60200000D01*
X52950000Y-56500000D02*
X52950000Y-55500000D01*
X54800000Y-68578920D02*
X55750000Y-67628920D01*
X55750000Y-67628920D02*
X55750000Y-63000000D01*
X51950000Y-56500000D02*
X51950000Y-55500000D01*
X50900000Y-68517960D02*
X51950000Y-67467960D01*
X51950000Y-67467960D02*
X51950000Y-56500000D01*
X50950000Y-57050000D02*
X50950000Y-55500000D01*
X46800000Y-68600000D02*
X48000000Y-67400000D01*
X48000000Y-60000000D02*
X50950000Y-57050000D01*
X48000000Y-67400000D02*
X48000000Y-60000000D01*
X48014998Y-53050000D02*
X49000000Y-53050000D01*
X43750000Y-57314998D02*
X48014998Y-53050000D01*
X43750000Y-65500000D02*
X43750000Y-57314998D01*
X34800000Y-67400000D02*
X41850000Y-67400000D01*
X41850000Y-67400000D02*
X43750000Y-65500000D01*
X48000000Y-52050000D02*
X49000000Y-52050000D01*
X35614040Y-64100000D02*
X40650000Y-64100000D01*
X47742176Y-52050000D02*
X48000000Y-52050000D01*
X42750000Y-57042176D02*
X47742176Y-52050000D01*
X34814040Y-63300000D02*
X35614040Y-64100000D01*
X40650000Y-64100000D02*
X42750000Y-62000000D01*
X42750000Y-62000000D02*
X42750000Y-57042176D01*
X48000000Y-51050000D02*
X49000000Y-51050000D01*
X35551480Y-60000000D02*
X41000000Y-60000000D01*
X41000000Y-60000000D02*
X41500000Y-59500000D01*
X34751480Y-59200000D02*
X35551480Y-60000000D01*
X41500000Y-59500000D02*
X41500000Y-56936410D01*
X41500000Y-56936410D02*
X47386410Y-51050000D01*
X47386410Y-51050000D02*
X48000000Y-51050000D01*
X46950000Y-50050000D02*
X48000000Y-50050000D01*
X41000000Y-56000000D02*
X46950000Y-50050000D01*
X48000000Y-50050000D02*
X49000000Y-50050000D01*
X34800000Y-55200000D02*
X35600000Y-56000000D01*
X35600000Y-56000000D02*
X41000000Y-56000000D01*
X48000000Y-49050000D02*
X49000000Y-49050000D01*
X44700000Y-49050000D02*
X48000000Y-49050000D01*
X41500000Y-52250000D02*
X44700000Y-49050000D01*
X34834640Y-51400000D02*
X35684640Y-52250000D01*
X35684640Y-52250000D02*
X41500000Y-52250000D01*
X48061423Y-48124988D02*
X48136411Y-48050000D01*
X47803599Y-48124988D02*
X48061423Y-48124988D01*
X35750000Y-47400000D02*
X36600000Y-48250000D01*
X34900000Y-47400000D02*
X35750000Y-47400000D01*
X48136411Y-48050000D02*
X49000000Y-48050000D01*
X44227179Y-48250000D02*
X44327200Y-48149979D01*
X47778608Y-48149979D02*
X47803599Y-48124988D01*
X36600000Y-48250000D02*
X44227179Y-48250000D01*
X44327200Y-48149979D02*
X47778608Y-48149979D01*
X35750000Y-43400000D02*
X37350000Y-45000000D01*
X34900000Y-43400000D02*
X35750000Y-43400000D01*
X37350000Y-45000000D02*
X43900000Y-45000000D01*
X45950000Y-47050000D02*
X49000000Y-47050000D01*
X43900000Y-45000000D02*
X45950000Y-47050000D01*
X47150000Y-46050000D02*
X49000000Y-46050000D01*
X41900000Y-40800000D02*
X47150000Y-46050000D01*
X34900000Y-39400000D02*
X35700000Y-39400000D01*
X37100000Y-40800000D02*
X41900000Y-40800000D01*
X35700000Y-39400000D02*
X37100000Y-40800000D01*
X51450000Y-43100000D02*
X51450000Y-44100000D01*
X34800000Y-35400000D02*
X35650000Y-35400000D01*
X50331558Y-41400022D02*
X51450000Y-42518464D01*
X44627200Y-41400022D02*
X50331558Y-41400022D01*
X51450000Y-42518464D02*
X51450000Y-43100000D01*
X37000000Y-36750000D02*
X39977178Y-36750000D01*
X39977178Y-36750000D02*
X44627200Y-41400022D01*
X35650000Y-35400000D02*
X37000000Y-36750000D01*
X43500000Y-32150000D02*
X44450000Y-31200000D01*
X43500000Y-32300000D02*
X43500000Y-32150000D01*
X52450000Y-43100000D02*
X52450000Y-44100000D01*
X42250000Y-33550000D02*
X42250000Y-37750000D01*
X43500000Y-32300000D02*
X42250000Y-33550000D01*
X42250000Y-37750000D02*
X44900022Y-40400022D01*
X44900022Y-40400022D02*
X50604378Y-40400022D01*
X50604378Y-40400022D02*
X52450000Y-42245644D01*
X52450000Y-42245644D02*
X52450000Y-43100000D01*
X53450000Y-43251410D02*
X53450000Y-44100000D01*
X46400000Y-33400000D02*
X46400000Y-37400000D01*
X46400000Y-37400000D02*
X48500000Y-39500000D01*
X47400000Y-32400000D02*
X46400000Y-33400000D01*
X48500000Y-39500000D02*
X50977179Y-39500000D01*
X50977179Y-39500000D02*
X53450000Y-41972821D01*
X53450000Y-41972821D02*
X53450000Y-43251410D01*
X54425001Y-41675002D02*
X54425001Y-44075001D01*
X54425001Y-44075001D02*
X54450000Y-44100000D01*
X51600000Y-32300000D02*
X51600000Y-38850001D01*
X51600000Y-38850001D02*
X54425001Y-41675002D01*
X55450000Y-43100000D02*
X55450000Y-44100000D01*
X55450000Y-41427179D02*
X55450000Y-43100000D01*
X54600000Y-34050000D02*
X54600000Y-40577179D01*
X55500000Y-32300000D02*
X55500000Y-33150000D01*
X54600000Y-40577179D02*
X55450000Y-41427179D01*
X55500000Y-33150000D02*
X54600000Y-34050000D01*
X56450000Y-40950000D02*
X56450000Y-43100000D01*
X56450000Y-43100000D02*
X56450000Y-44100000D01*
X58250000Y-39150000D02*
X56450000Y-40950000D01*
X58250000Y-33800000D02*
X58250000Y-39150000D01*
X59600000Y-32300000D02*
X59600000Y-32450000D01*
X59600000Y-32450000D02*
X58250000Y-33800000D01*
X57450000Y-43100000D02*
X57450000Y-44100000D01*
X62500000Y-33450000D02*
X62500000Y-38000000D01*
X62500000Y-38000000D02*
X57450000Y-43050000D01*
X57450000Y-43050000D02*
X57450000Y-43100000D01*
X63500000Y-32300000D02*
X63500000Y-32450000D01*
X63500000Y-32450000D02*
X62500000Y-33450000D01*
X93441080Y-48598920D02*
X93900000Y-48140000D01*
X87675120Y-48598920D02*
X93441080Y-48598920D01*
X92898920Y-44598920D02*
X93900000Y-45600000D01*
X87675120Y-44598920D02*
X92898920Y-44598920D01*
X44300000Y-36050000D02*
X44300000Y-37500000D01*
X38550000Y-34500000D02*
X40000000Y-34500000D01*
X38650000Y-38500000D02*
X40000000Y-38500000D01*
X52400000Y-36050000D02*
X52400000Y-37600000D01*
X56300000Y-36050000D02*
X56300000Y-37500000D01*
X60300000Y-36050000D02*
X60300000Y-37500000D01*
X64300000Y-36050000D02*
X64300000Y-37500000D01*
X69737959Y-51173440D02*
X69737959Y-49937959D01*
X69737959Y-49937959D02*
X69700000Y-49900000D01*
X69704799Y-55242520D02*
X69704799Y-56690320D01*
X73684120Y-67133680D02*
X73684120Y-65696040D01*
X73684120Y-65696040D02*
X71903960Y-65696040D01*
X71903960Y-65696040D02*
X71900000Y-65700000D01*
X54000000Y-64850000D02*
X54000000Y-63400000D01*
X50100000Y-64771600D02*
X50100000Y-63400000D01*
X46000000Y-64870000D02*
X46000000Y-63400000D01*
X89637240Y-92460480D02*
X89637240Y-91037240D01*
X89637240Y-91037240D02*
X89600000Y-91000000D01*
X86637240Y-92460480D02*
X86637240Y-91037240D01*
X86637240Y-91037240D02*
X86600000Y-91000000D01*
X83637240Y-92460480D02*
X83637240Y-91062760D01*
X83637240Y-91062760D02*
X83700000Y-91000000D01*
X80637240Y-92460480D02*
X80637240Y-91362760D01*
X80637240Y-91362760D02*
X81100000Y-90900000D01*
X61764280Y-79200680D02*
X61764280Y-77664280D01*
X61764280Y-77664280D02*
X61700000Y-77600000D01*
X60400000Y-48050000D02*
X60400000Y-48550000D01*
X38650000Y-42600000D02*
X39900000Y-42600000D01*
X38650000Y-46500000D02*
X40000000Y-46500000D01*
X38650000Y-50500000D02*
X39900000Y-50500000D01*
X38550000Y-54400000D02*
X39900000Y-54400000D01*
X38550000Y-58400000D02*
X39900000Y-58400000D01*
X38550000Y-62400000D02*
X39900000Y-62400000D01*
X38550000Y-66600000D02*
X39900000Y-66600000D01*
X68637240Y-92460480D02*
X68637240Y-91100000D01*
X65637240Y-91100004D02*
X65637236Y-91100000D01*
X65637240Y-92460480D02*
X65637240Y-91100004D01*
X71637240Y-92460480D02*
X71637240Y-91437240D01*
X71637240Y-91437240D02*
X71599999Y-91399999D01*
X71599999Y-91399999D02*
X71200000Y-91000000D01*
X74637240Y-91537240D02*
X74499999Y-91399999D01*
X74499999Y-91399999D02*
X74100000Y-91000000D01*
X74637240Y-92460480D02*
X74637240Y-91537240D01*
X77637240Y-91637240D02*
X76900000Y-90900000D01*
X77637240Y-92460480D02*
X77637240Y-91637240D01*
X48300000Y-36150000D02*
X48300000Y-37524990D01*
X67118400Y-36354120D02*
X68145880Y-36354120D01*
X68145880Y-36354120D02*
X68250000Y-36250000D01*
X69704799Y-57454799D02*
X69850001Y-57600001D01*
X69704799Y-56690320D02*
X69704799Y-57454799D01*
X69850001Y-57600001D02*
X70250000Y-58000000D01*
X60400000Y-48050000D02*
X63250000Y-48050000D01*
X63250000Y-48050000D02*
X63800000Y-48600000D01*
X70157480Y-46585960D02*
X69307480Y-46585960D01*
X69221520Y-46500000D02*
X66250000Y-46500000D01*
X69307480Y-46585960D02*
X69221520Y-46500000D01*
X66209960Y-40515360D02*
X66112660Y-40612660D01*
X69786640Y-40515360D02*
X66209960Y-40515360D01*
X65037680Y-30062320D02*
X65000000Y-30100000D01*
X67118400Y-30062320D02*
X65037680Y-30062320D01*
X73304560Y-64300000D02*
X73371560Y-64233000D01*
X71700000Y-64300000D02*
X73304560Y-64300000D01*
X67118400Y-30062320D02*
X71700000Y-30062320D01*
X91200000Y-20100000D02*
X90550000Y-20750000D01*
X91200000Y-16600000D02*
X91200000Y-20100000D01*
X90550000Y-20750000D02*
X90550000Y-20800000D01*
X89900000Y-14990000D02*
X89900000Y-15300000D01*
X89900000Y-15300000D02*
X91200000Y-16600000D01*
X90550000Y-21500000D02*
X90550000Y-20800000D01*
X87905462Y-30062320D02*
X90550000Y-27417782D01*
X90550000Y-27417782D02*
X90550000Y-21500000D01*
X67118400Y-30062320D02*
X87905462Y-30062320D01*
D35*
X84800000Y-20600000D02*
X84800000Y-19050000D01*
X84800000Y-19050000D02*
X84750000Y-19000000D01*
X83500000Y-19000000D02*
X86000000Y-19000000D01*
D33*
X81250000Y-20000000D02*
X81250000Y-20700000D01*
X81250000Y-16815000D02*
X81250000Y-20000000D01*
X81000000Y-14990000D02*
X81000000Y-16565000D01*
X81000000Y-16565000D02*
X81250000Y-16815000D01*
X84700000Y-20700000D02*
X84800000Y-20600000D01*
X81250000Y-20700000D02*
X84700000Y-20700000D01*
X61200000Y-28100000D02*
X61200000Y-30100000D01*
X61950011Y-27349989D02*
X61200000Y-28100000D01*
X78650011Y-27349989D02*
X61950011Y-27349989D01*
X81250000Y-20700000D02*
X81250000Y-24750000D01*
X81250000Y-24750000D02*
X78650011Y-27349989D01*
D35*
X75900000Y-19100000D02*
X76000000Y-19000000D01*
X75900000Y-20600000D02*
X75900000Y-19100000D01*
X76000000Y-19000000D02*
X75999990Y-19000000D01*
X74750000Y-19000000D02*
X77250000Y-19000000D01*
D33*
X72350000Y-20000000D02*
X72350000Y-20700000D01*
X72350000Y-16415000D02*
X72350000Y-20000000D01*
X72100000Y-14590000D02*
X72100000Y-16165000D01*
X72100000Y-16165000D02*
X72350000Y-16415000D01*
X57100000Y-26600000D02*
X57100000Y-30100000D01*
X58100000Y-25600000D02*
X57100000Y-26600000D01*
X70600000Y-25600000D02*
X58100000Y-25600000D01*
X72350000Y-20700000D02*
X72350000Y-23850000D01*
X72350000Y-23850000D02*
X70600000Y-25600000D01*
X75800000Y-20700000D02*
X75900000Y-20600000D01*
X72350000Y-20700000D02*
X75800000Y-20700000D01*
D35*
X67000000Y-20600000D02*
X67000000Y-19000000D01*
X65750000Y-19000000D02*
X68250000Y-19000000D01*
D33*
X66900000Y-20700000D02*
X67000000Y-20600000D01*
X63550000Y-20700000D02*
X66900000Y-20700000D01*
X55300000Y-24100000D02*
X53200000Y-26200000D01*
X62300000Y-24100000D02*
X55300000Y-24100000D01*
X63550000Y-20700000D02*
X63550000Y-22850000D01*
X53200000Y-26200000D02*
X53200000Y-30100000D01*
X63550000Y-22850000D02*
X62300000Y-24100000D01*
X63550000Y-20000000D02*
X63550000Y-20700000D01*
X63300000Y-14490000D02*
X63300000Y-16065000D01*
X63550000Y-16315000D02*
X63550000Y-20000000D01*
X63300000Y-16065000D02*
X63550000Y-16315000D01*
D35*
X58100000Y-20600000D02*
X58100000Y-19150000D01*
X58100000Y-19150000D02*
X58250000Y-19000000D01*
X56750000Y-19000000D02*
X59500000Y-19000000D01*
D33*
X54650000Y-14840000D02*
X54300000Y-14490000D01*
X54650000Y-20700000D02*
X54650000Y-14840000D01*
X58000000Y-20700000D02*
X58100000Y-20600000D01*
X54650000Y-20700000D02*
X58000000Y-20700000D01*
X53400000Y-23800000D02*
X54650000Y-22550000D01*
X49900000Y-23800000D02*
X53400000Y-23800000D01*
X54650000Y-21650000D02*
X54650000Y-20700000D01*
X54650000Y-22550000D02*
X54650000Y-21650000D01*
X49000000Y-30200000D02*
X49000000Y-24700000D01*
X49000000Y-24700000D02*
X49900000Y-23800000D01*
X45380000Y-29816160D02*
X45100000Y-30096160D01*
D35*
X49200000Y-20600000D02*
X49200000Y-19050000D01*
X49200000Y-19050000D02*
X49250000Y-19000000D01*
X47750000Y-19000000D02*
X50500000Y-19000000D01*
D33*
X45100000Y-21450000D02*
X45850000Y-20700000D01*
X45100000Y-30096160D02*
X45100000Y-21450000D01*
X45850000Y-16815000D02*
X45850000Y-20000000D01*
X45850000Y-20000000D02*
X45850000Y-20700000D01*
X45500000Y-14890000D02*
X45500000Y-16465000D01*
X45500000Y-16465000D02*
X45850000Y-16815000D01*
X49100000Y-20700000D02*
X49200000Y-20600000D01*
X45850000Y-20700000D02*
X49100000Y-20700000D01*
X32580360Y-20580360D02*
X32580360Y-33825880D01*
X32600000Y-20600000D02*
X32580360Y-20580360D01*
X40400000Y-20600000D02*
X32600000Y-20600000D01*
D35*
X40400000Y-20600000D02*
X40400000Y-19100000D01*
X40400000Y-19100000D02*
X40500000Y-19000000D01*
X39250000Y-19000000D02*
X41750000Y-19000000D01*
D33*
X20800000Y-13550000D02*
X21500000Y-13550000D01*
X17515000Y-13550000D02*
X20800000Y-13550000D01*
X15590000Y-13900000D02*
X17165000Y-13900000D01*
X17165000Y-13900000D02*
X17515000Y-13550000D01*
X21500000Y-13550000D02*
X29450000Y-13550000D01*
X32580360Y-16680360D02*
X32580360Y-20580360D01*
X29450000Y-13550000D02*
X32580360Y-16680360D01*
D35*
X21400000Y-19000000D02*
X19750000Y-19000000D01*
X19750000Y-19000000D02*
X19750000Y-18000000D01*
D33*
X15790000Y-22800000D02*
X17365000Y-22800000D01*
X20800000Y-22550000D02*
X21500000Y-22550000D01*
X17615000Y-22550000D02*
X20800000Y-22550000D01*
X17365000Y-22800000D02*
X17615000Y-22550000D01*
X21500000Y-19100000D02*
X21400000Y-19000000D01*
X21500000Y-22550000D02*
X21500000Y-19100000D01*
D35*
X19750000Y-19000000D02*
X19750000Y-20000000D01*
D33*
X29400000Y-36100000D02*
X31124440Y-37824440D01*
X31124440Y-37824440D02*
X32699080Y-37824440D01*
X29400000Y-25100000D02*
X29400000Y-36100000D01*
X21500000Y-22550000D02*
X26850000Y-22550000D01*
X26850000Y-22550000D02*
X29400000Y-25100000D01*
D35*
X21400000Y-27900000D02*
X19850000Y-27900000D01*
X19850000Y-27900000D02*
X19750000Y-28000000D01*
X19750000Y-28000000D02*
X19750000Y-27000000D01*
X19750000Y-28000000D02*
X19750000Y-29000000D01*
D33*
X21500000Y-28000000D02*
X21400000Y-27900000D01*
X21500000Y-31450000D02*
X21500000Y-28000000D01*
X20800000Y-31450000D02*
X21500000Y-31450000D01*
X17715000Y-31450000D02*
X20800000Y-31450000D01*
X15790000Y-31800000D02*
X17365000Y-31800000D01*
X17365000Y-31800000D02*
X17715000Y-31450000D01*
X26700000Y-33400000D02*
X26700000Y-40300000D01*
X21500000Y-31450000D02*
X24750000Y-31450000D01*
X28241440Y-41841440D02*
X32692120Y-41841440D01*
X26700000Y-40300000D02*
X28241440Y-41841440D01*
X24750000Y-31450000D02*
X26700000Y-33400000D01*
D35*
X21300000Y-36900000D02*
X19900000Y-36900000D01*
X19900000Y-36900000D02*
X19750000Y-36750000D01*
X19750000Y-36750000D02*
X19750000Y-35500000D01*
X19750000Y-36750000D02*
X19750000Y-38000000D01*
D33*
X21600000Y-40250000D02*
X22650000Y-40250000D01*
X28214320Y-45814320D02*
X32705760Y-45814320D01*
X22650000Y-40250000D02*
X28214320Y-45814320D01*
X21600000Y-37200000D02*
X21300000Y-36900000D01*
X21600000Y-40250000D02*
X21600000Y-37200000D01*
X19184315Y-38000000D02*
X19750000Y-38000000D01*
X18700000Y-38000000D02*
X19184315Y-38000000D01*
X15590000Y-40800000D02*
X15900000Y-40800000D01*
X15900000Y-40800000D02*
X18700000Y-38000000D01*
X32624480Y-49804320D02*
X32639720Y-49819560D01*
D35*
X21400000Y-45900000D02*
X19900000Y-45900000D01*
X19900000Y-45900000D02*
X19750000Y-45750000D01*
X19750000Y-45750000D02*
X19750000Y-44500000D01*
X19750000Y-45750000D02*
X19750000Y-47000000D01*
D33*
X32070160Y-49250000D02*
X32639720Y-49819560D01*
X21600000Y-49250000D02*
X32070160Y-49250000D01*
X21600000Y-46100000D02*
X21400000Y-45900000D01*
X21600000Y-49250000D02*
X21600000Y-46100000D01*
X19184315Y-47000000D02*
X19750000Y-47000000D01*
X18700000Y-47000000D02*
X19184315Y-47000000D01*
X15690000Y-49700000D02*
X16000000Y-49700000D01*
X16000000Y-49700000D02*
X18700000Y-47000000D01*
D35*
X21400000Y-54800000D02*
X19800000Y-54800000D01*
X19800000Y-54800000D02*
X19750000Y-54750000D01*
X19750000Y-54750000D02*
X19750000Y-56000000D01*
X19750000Y-54750000D02*
X19750000Y-53500000D01*
D33*
X21600000Y-58150000D02*
X26750000Y-58150000D01*
X31300000Y-53600000D02*
X32600000Y-53600000D01*
X26750000Y-58150000D02*
X31300000Y-53600000D01*
X21600000Y-55000000D02*
X21400000Y-54800000D01*
X21600000Y-58150000D02*
X21600000Y-55000000D01*
X20900000Y-58150000D02*
X21600000Y-58150000D01*
X17615000Y-58150000D02*
X20900000Y-58150000D01*
X15590000Y-58600000D02*
X17165000Y-58600000D01*
X17165000Y-58600000D02*
X17615000Y-58150000D01*
D35*
X21400000Y-63700000D02*
X19950000Y-63700000D01*
X19950000Y-63700000D02*
X19750000Y-63500000D01*
X19750000Y-63500000D02*
X19750000Y-62250000D01*
X19750000Y-63500000D02*
X19750000Y-64750000D01*
D33*
X20900000Y-67050000D02*
X21600000Y-67050000D01*
X17615000Y-67050000D02*
X20900000Y-67050000D01*
X15590000Y-67500000D02*
X17165000Y-67500000D01*
X17165000Y-67500000D02*
X17615000Y-67050000D01*
X21600000Y-63900000D02*
X21400000Y-63700000D01*
X21600000Y-67050000D02*
X21600000Y-63900000D01*
X31785200Y-57614800D02*
X32536240Y-57614800D01*
X21600000Y-67050000D02*
X22350000Y-67050000D01*
X22350000Y-67050000D02*
X31785200Y-57614800D01*
D35*
X21500000Y-72700000D02*
X19950000Y-72700000D01*
X19950000Y-72700000D02*
X19750000Y-72500000D01*
X19750000Y-72500000D02*
X19750000Y-71250000D01*
X19750000Y-72500000D02*
X19750000Y-73750000D01*
D33*
X20900000Y-76050000D02*
X21600000Y-76050000D01*
X17915000Y-76050000D02*
X20900000Y-76050000D01*
X15890000Y-76500000D02*
X17465000Y-76500000D01*
X17465000Y-76500000D02*
X17915000Y-76050000D01*
X21500000Y-75950000D02*
X21600000Y-76050000D01*
X21500000Y-72700000D02*
X21500000Y-75950000D01*
X24900000Y-74900000D02*
X24900000Y-68555200D01*
X31748800Y-61706400D02*
X32598800Y-61706400D01*
X23750000Y-76050000D02*
X24900000Y-74900000D01*
X21600000Y-76050000D02*
X23750000Y-76050000D01*
X24900000Y-68555200D02*
X31748800Y-61706400D01*
D35*
X21500000Y-81600000D02*
X19850000Y-81600000D01*
X19850000Y-81600000D02*
X19750000Y-81500000D01*
X19750000Y-81500000D02*
X19750000Y-80250000D01*
X19750000Y-81500000D02*
X19750000Y-82750000D01*
D33*
X21600000Y-81700000D02*
X21500000Y-81600000D01*
X21600000Y-85050000D02*
X21600000Y-81700000D01*
X20900000Y-85050000D02*
X21600000Y-85050000D01*
X17715000Y-85050000D02*
X20900000Y-85050000D01*
X15790000Y-85400000D02*
X17365000Y-85400000D01*
X17365000Y-85400000D02*
X17715000Y-85050000D01*
X27300000Y-69700000D02*
X27300000Y-83400000D01*
X25650000Y-85050000D02*
X21600000Y-85050000D01*
X32600000Y-65800000D02*
X31200000Y-65800000D01*
X27300000Y-83400000D02*
X25650000Y-85050000D01*
X31200000Y-65800000D02*
X27300000Y-69700000D01*
D35*
X21500000Y-90500000D02*
X19750000Y-90500000D01*
X19750000Y-90500000D02*
X19750000Y-89250000D01*
X19750000Y-90500000D02*
X19750000Y-91750000D01*
D33*
X35550000Y-88360000D02*
X36100000Y-88910000D01*
X35550000Y-82900000D02*
X35550000Y-88360000D01*
X45216960Y-74183040D02*
X45216960Y-70831600D01*
X44200000Y-75200000D02*
X45216960Y-74183040D01*
X37300000Y-75200000D02*
X44200000Y-75200000D01*
X35550000Y-82900000D02*
X35550000Y-76950000D01*
X35550000Y-76950000D02*
X37300000Y-75200000D01*
X34835000Y-88910000D02*
X36100000Y-88910000D01*
X21500000Y-90500000D02*
X23090000Y-88910000D01*
X23090000Y-88910000D02*
X34835000Y-88910000D01*
D35*
X41200000Y-83100000D02*
X41200000Y-84700000D01*
X41200000Y-84700000D02*
X41250000Y-84750000D01*
X41250000Y-84750000D02*
X40000000Y-84750000D01*
D33*
X49278080Y-70745720D02*
X49278080Y-73221920D01*
X44650000Y-77850000D02*
X44650000Y-82900000D01*
X49278080Y-73221920D02*
X44650000Y-77850000D01*
D35*
X41250000Y-84750000D02*
X42500000Y-84750000D01*
D33*
X45000000Y-89010000D02*
X45000000Y-87435000D01*
X44650000Y-83600000D02*
X44650000Y-82900000D01*
X45000000Y-87435000D02*
X44650000Y-87085000D01*
X44650000Y-87085000D02*
X44650000Y-84750000D01*
X44650000Y-84750000D02*
X44650000Y-83600000D01*
X41400000Y-82900000D02*
X41200000Y-83100000D01*
X44650000Y-82900000D02*
X41400000Y-82900000D01*
D35*
X50200000Y-83200000D02*
X50200000Y-84700000D01*
X50200000Y-84700000D02*
X50250000Y-84750000D01*
X50250000Y-84750000D02*
X51500000Y-84750000D01*
X50250000Y-84750000D02*
X49000000Y-84750000D01*
D33*
X53750000Y-88960000D02*
X54000000Y-89210000D01*
X53750000Y-82900000D02*
X53750000Y-84750000D01*
X53750000Y-84750000D02*
X53750000Y-88960000D01*
X50500000Y-82900000D02*
X50200000Y-83200000D01*
X53750000Y-82900000D02*
X50500000Y-82900000D01*
X53750000Y-74050000D02*
X53750000Y-82900000D01*
X53266480Y-70768760D02*
X53266480Y-73566480D01*
X53266480Y-73566480D02*
X53750000Y-74050000D01*
X67118400Y-32262320D02*
X67118400Y-34454120D01*
X59900000Y-44100000D02*
X58450000Y-44100000D01*
X65700000Y-38300000D02*
X59900000Y-44100000D01*
X65700000Y-36097520D02*
X65700000Y-38300000D01*
X67118400Y-34454120D02*
X67118400Y-34679120D01*
X67118400Y-34679120D02*
X65700000Y-36097520D01*
X75571560Y-65683480D02*
X75584120Y-65696040D01*
X75571560Y-64233000D02*
X75571560Y-65683480D01*
X77361680Y-65696040D02*
X78037320Y-65020400D01*
X75584120Y-65696040D02*
X77361680Y-65696040D01*
X73912160Y-46585960D02*
X73925120Y-46598920D01*
X72057480Y-46585960D02*
X73912160Y-46585960D01*
X69620400Y-62720400D02*
X78037320Y-62720400D01*
X60400000Y-53550000D02*
X60450000Y-53550000D01*
X60450000Y-53550000D02*
X69620400Y-62720400D01*
X59000000Y-89250000D02*
X59000000Y-89400000D01*
X54700000Y-84900000D02*
X54700000Y-84950000D01*
X54700000Y-84950000D02*
X59000000Y-89250000D01*
X45600000Y-84900000D02*
X45600000Y-84950000D01*
X50050000Y-89400000D02*
X50200000Y-89400000D01*
X45600000Y-84950000D02*
X50050000Y-89400000D01*
X36500000Y-84900000D02*
X36500000Y-84950000D01*
X40850000Y-89300000D02*
X41200000Y-89300000D01*
X36500000Y-84950000D02*
X40850000Y-89300000D01*
X19600000Y-86650000D02*
X19600000Y-86000000D01*
X19600000Y-86950000D02*
X19600000Y-86650000D01*
X15300000Y-90500000D02*
X16050000Y-90500000D01*
X16050000Y-90500000D02*
X19600000Y-86950000D01*
X18900000Y-77000000D02*
X19600000Y-77000000D01*
X18800000Y-77000000D02*
X18900000Y-77000000D01*
X15300000Y-81600000D02*
X15300000Y-80500000D01*
X15300000Y-80500000D02*
X18800000Y-77000000D01*
X19600000Y-68650000D02*
X19600000Y-68000000D01*
X15300000Y-72700000D02*
X16050000Y-72700000D01*
X19600000Y-69150000D02*
X19600000Y-68650000D01*
X16050000Y-72700000D02*
X19600000Y-69150000D01*
X62850000Y-49050000D02*
X60400000Y-49050000D01*
X67537961Y-51173440D02*
X64973440Y-51173440D01*
X64973440Y-51173440D02*
X62850000Y-49050000D01*
X69182200Y-52682200D02*
X69737959Y-52682200D01*
X67537961Y-51173440D02*
X67673440Y-51173440D01*
X67673440Y-51173440D02*
X69182200Y-52682200D01*
X65800000Y-52700000D02*
X62650000Y-49550000D01*
X66670161Y-52700000D02*
X65800000Y-52700000D01*
X67537961Y-52682200D02*
X66687961Y-52682200D01*
X62650000Y-49550000D02*
X60400000Y-49550000D01*
X66687961Y-52682200D02*
X66670161Y-52700000D01*
X54800000Y-72700000D02*
X54800000Y-70778920D01*
X55650000Y-82900000D02*
X55650000Y-73550000D01*
X55650000Y-73550000D02*
X54800000Y-72700000D01*
X50900000Y-73100000D02*
X50900000Y-70717960D01*
X46550000Y-82900000D02*
X46550000Y-77450000D01*
X46550000Y-77450000D02*
X50900000Y-73100000D01*
X44600000Y-76000000D02*
X46800000Y-73800000D01*
X46800000Y-73800000D02*
X46800000Y-70800000D01*
X38900000Y-76000000D02*
X44600000Y-76000000D01*
X37450000Y-82900000D02*
X37450000Y-77450000D01*
X37450000Y-77450000D02*
X38900000Y-76000000D01*
X26250000Y-86950000D02*
X21600000Y-86950000D01*
X27800000Y-85400000D02*
X26250000Y-86950000D01*
X27800000Y-70500000D02*
X27800000Y-85400000D01*
X32600000Y-67400000D02*
X30900000Y-67400000D01*
X30900000Y-67400000D02*
X27800000Y-70500000D01*
X22486411Y-77950000D02*
X22300000Y-77950000D01*
X22300000Y-77950000D02*
X21600000Y-77950000D01*
X32614040Y-63300000D02*
X32464040Y-63300000D01*
X25350011Y-75086400D02*
X22486411Y-77950000D01*
X25350011Y-70414029D02*
X25350011Y-75086400D01*
X32464040Y-63300000D02*
X25350011Y-70414029D01*
X31400000Y-55200000D02*
X32600000Y-55200000D01*
X21600000Y-60050000D02*
X26550000Y-60050000D01*
X26550000Y-60050000D02*
X31400000Y-55200000D01*
X32384640Y-51150000D02*
X32634640Y-51400000D01*
X21600000Y-51150000D02*
X32384640Y-51150000D01*
X27550000Y-47400000D02*
X32700000Y-47400000D01*
X21600000Y-42150000D02*
X22300000Y-42150000D01*
X22300000Y-42150000D02*
X27550000Y-47400000D01*
X28400000Y-43400000D02*
X32700000Y-43400000D01*
X25600000Y-40600000D02*
X28400000Y-43400000D01*
X25600000Y-34500000D02*
X25600000Y-40600000D01*
X21500000Y-33350000D02*
X24450000Y-33350000D01*
X24450000Y-33350000D02*
X25600000Y-34500000D01*
X32100000Y-39400000D02*
X32700000Y-39400000D01*
X30800000Y-39400000D02*
X32700000Y-39400000D01*
X28200000Y-36800000D02*
X30800000Y-39400000D01*
X28200000Y-25600000D02*
X28200000Y-36800000D01*
X21500000Y-24450000D02*
X27050000Y-24450000D01*
X27050000Y-24450000D02*
X28200000Y-25600000D01*
X31300000Y-35400000D02*
X32600000Y-35400000D01*
X30500000Y-34600000D02*
X31300000Y-35400000D01*
X30500000Y-17000000D02*
X30500000Y-34600000D01*
X21500000Y-15450000D02*
X28950000Y-15450000D01*
X28950000Y-15450000D02*
X30500000Y-17000000D01*
X43500000Y-21150000D02*
X43950000Y-20700000D01*
X43500000Y-30100000D02*
X43500000Y-21150000D01*
X48600000Y-22900000D02*
X47400000Y-24100000D01*
X47400000Y-26750000D02*
X47400000Y-30200000D01*
X47400000Y-24100000D02*
X47400000Y-26750000D01*
X52500000Y-22900000D02*
X48600000Y-22900000D01*
X52750000Y-20700000D02*
X52750000Y-22650000D01*
X52750000Y-22650000D02*
X52500000Y-22900000D01*
X60800000Y-23600000D02*
X61650000Y-22750000D01*
X61650000Y-22750000D02*
X61650000Y-20700000D01*
X55000000Y-23600000D02*
X60800000Y-23600000D01*
X51600000Y-30100000D02*
X51600000Y-27000000D01*
X51600000Y-27000000D02*
X55000000Y-23600000D01*
X55500000Y-29950000D02*
X55500000Y-30100000D01*
X55500000Y-26000000D02*
X55500000Y-30100000D01*
X56600000Y-24900000D02*
X55500000Y-26000000D01*
X70450000Y-20700000D02*
X70450000Y-23850000D01*
X69400000Y-24900000D02*
X56600000Y-24900000D01*
X70450000Y-23850000D02*
X69400000Y-24900000D01*
X59600000Y-27800000D02*
X59600000Y-30100000D01*
X60600000Y-26800000D02*
X59600000Y-27800000D01*
X77800000Y-26800000D02*
X60600000Y-26800000D01*
X79350000Y-20700000D02*
X79350000Y-25250000D01*
X79350000Y-25250000D02*
X77800000Y-26800000D01*
X63500000Y-28400000D02*
X63500000Y-30100000D01*
X64100000Y-27800000D02*
X63500000Y-28400000D01*
X87200000Y-27800000D02*
X64100000Y-27800000D01*
X88650000Y-20800000D02*
X88650000Y-26350000D01*
X88650000Y-26350000D02*
X87200000Y-27800000D01*
D36*
G36*
X85166504Y-59746385D02*
G01*
X85427593Y-59803181D01*
X85677940Y-59896556D01*
X85912445Y-60024605D01*
X86126338Y-60184724D01*
X86315276Y-60373662D01*
X86475395Y-60587555D01*
X86603444Y-60822060D01*
X86696819Y-61072407D01*
X86753615Y-61333496D01*
X86773000Y-61604530D01*
X86773000Y-67995470D01*
X86753615Y-68266504D01*
X86696819Y-68527593D01*
X86603444Y-68777940D01*
X86475395Y-69012445D01*
X86315276Y-69226338D01*
X86126338Y-69415276D01*
X85912445Y-69575395D01*
X85677940Y-69703444D01*
X85427593Y-69796819D01*
X85166504Y-69853615D01*
X84895470Y-69873000D01*
X78804530Y-69873000D01*
X78797320Y-69872484D01*
X78797320Y-68708472D01*
X79037320Y-68708472D01*
X79161802Y-68696212D01*
X79281500Y-68659902D01*
X79391814Y-68600937D01*
X79488505Y-68521585D01*
X79567857Y-68424894D01*
X79626822Y-68314580D01*
X79663132Y-68194882D01*
X79675392Y-68070400D01*
X79675392Y-66570400D01*
X79663132Y-66445918D01*
X79626822Y-66326220D01*
X79567857Y-66215906D01*
X79532300Y-66172580D01*
X79600050Y-66071185D01*
X79647917Y-65955623D01*
X79672320Y-65832942D01*
X79672320Y-65306150D01*
X82702320Y-65306150D01*
X82702320Y-66982942D01*
X82726723Y-67105623D01*
X82774590Y-67221185D01*
X82844083Y-67325189D01*
X82932531Y-67413637D01*
X83036535Y-67483130D01*
X83152097Y-67530997D01*
X83274778Y-67555400D01*
X84051570Y-67555400D01*
X84210320Y-67396650D01*
X84210320Y-65147400D01*
X84464320Y-65147400D01*
X84464320Y-67396650D01*
X84623070Y-67555400D01*
X85399862Y-67555400D01*
X85522543Y-67530997D01*
X85638105Y-67483130D01*
X85742109Y-67413637D01*
X85830557Y-67325189D01*
X85900050Y-67221185D01*
X85947917Y-67105623D01*
X85972320Y-66982942D01*
X85972320Y-65306150D01*
X85813570Y-65147400D01*
X84464320Y-65147400D01*
X84210320Y-65147400D01*
X82861070Y-65147400D01*
X82702320Y-65306150D01*
X79672320Y-65306150D01*
X79513570Y-65147400D01*
X78164320Y-65147400D01*
X78164320Y-65167400D01*
X77910320Y-65167400D01*
X77910320Y-65147400D01*
X77890320Y-65147400D01*
X77890320Y-64893400D01*
X77910320Y-64893400D01*
X77910320Y-64873400D01*
X78164320Y-64873400D01*
X78164320Y-64893400D01*
X79513570Y-64893400D01*
X79672320Y-64734650D01*
X79672320Y-64207858D01*
X79647917Y-64085177D01*
X79600050Y-63969615D01*
X79532300Y-63868220D01*
X79567857Y-63824894D01*
X79626822Y-63714580D01*
X79663132Y-63594882D01*
X79675392Y-63470400D01*
X79675392Y-63057858D01*
X82702320Y-63057858D01*
X82702320Y-64734650D01*
X82861070Y-64893400D01*
X84210320Y-64893400D01*
X84210320Y-62644150D01*
X84464320Y-62644150D01*
X84464320Y-64893400D01*
X85813570Y-64893400D01*
X85972320Y-64734650D01*
X85972320Y-63057858D01*
X85947917Y-62935177D01*
X85900050Y-62819615D01*
X85830557Y-62715611D01*
X85742109Y-62627163D01*
X85638105Y-62557670D01*
X85522543Y-62509803D01*
X85399862Y-62485400D01*
X84623070Y-62485400D01*
X84464320Y-62644150D01*
X84210320Y-62644150D01*
X84051570Y-62485400D01*
X83274778Y-62485400D01*
X83152097Y-62509803D01*
X83036535Y-62557670D01*
X82932531Y-62627163D01*
X82844083Y-62715611D01*
X82774590Y-62819615D01*
X82726723Y-62935177D01*
X82702320Y-63057858D01*
X79675392Y-63057858D01*
X79675392Y-61970400D01*
X79663132Y-61845918D01*
X79626822Y-61726220D01*
X79567857Y-61615906D01*
X79488505Y-61519215D01*
X79391814Y-61439863D01*
X79281500Y-61380898D01*
X79161802Y-61344588D01*
X79037320Y-61332328D01*
X77037320Y-61332328D01*
X76945824Y-61341339D01*
X76946385Y-61333496D01*
X77003181Y-61072407D01*
X77096556Y-60822060D01*
X77224605Y-60587555D01*
X77384724Y-60373662D01*
X77573662Y-60184724D01*
X77787555Y-60024605D01*
X78022060Y-59896556D01*
X78272407Y-59803181D01*
X78533496Y-59746385D01*
X78804530Y-59727000D01*
X84895470Y-59727000D01*
X85166504Y-59746385D01*
X85166504Y-59746385D01*
G37*
X85166504Y-59746385D02*
X85427593Y-59803181D01*
X85677940Y-59896556D01*
X85912445Y-60024605D01*
X86126338Y-60184724D01*
X86315276Y-60373662D01*
X86475395Y-60587555D01*
X86603444Y-60822060D01*
X86696819Y-61072407D01*
X86753615Y-61333496D01*
X86773000Y-61604530D01*
X86773000Y-67995470D01*
X86753615Y-68266504D01*
X86696819Y-68527593D01*
X86603444Y-68777940D01*
X86475395Y-69012445D01*
X86315276Y-69226338D01*
X86126338Y-69415276D01*
X85912445Y-69575395D01*
X85677940Y-69703444D01*
X85427593Y-69796819D01*
X85166504Y-69853615D01*
X84895470Y-69873000D01*
X78804530Y-69873000D01*
X78797320Y-69872484D01*
X78797320Y-68708472D01*
X79037320Y-68708472D01*
X79161802Y-68696212D01*
X79281500Y-68659902D01*
X79391814Y-68600937D01*
X79488505Y-68521585D01*
X79567857Y-68424894D01*
X79626822Y-68314580D01*
X79663132Y-68194882D01*
X79675392Y-68070400D01*
X79675392Y-66570400D01*
X79663132Y-66445918D01*
X79626822Y-66326220D01*
X79567857Y-66215906D01*
X79532300Y-66172580D01*
X79600050Y-66071185D01*
X79647917Y-65955623D01*
X79672320Y-65832942D01*
X79672320Y-65306150D01*
X82702320Y-65306150D01*
X82702320Y-66982942D01*
X82726723Y-67105623D01*
X82774590Y-67221185D01*
X82844083Y-67325189D01*
X82932531Y-67413637D01*
X83036535Y-67483130D01*
X83152097Y-67530997D01*
X83274778Y-67555400D01*
X84051570Y-67555400D01*
X84210320Y-67396650D01*
X84210320Y-65147400D01*
X84464320Y-65147400D01*
X84464320Y-67396650D01*
X84623070Y-67555400D01*
X85399862Y-67555400D01*
X85522543Y-67530997D01*
X85638105Y-67483130D01*
X85742109Y-67413637D01*
X85830557Y-67325189D01*
X85900050Y-67221185D01*
X85947917Y-67105623D01*
X85972320Y-66982942D01*
X85972320Y-65306150D01*
X85813570Y-65147400D01*
X84464320Y-65147400D01*
X84210320Y-65147400D01*
X82861070Y-65147400D01*
X82702320Y-65306150D01*
X79672320Y-65306150D01*
X79513570Y-65147400D01*
X78164320Y-65147400D01*
X78164320Y-65167400D01*
X77910320Y-65167400D01*
X77910320Y-65147400D01*
X77890320Y-65147400D01*
X77890320Y-64893400D01*
X77910320Y-64893400D01*
X77910320Y-64873400D01*
X78164320Y-64873400D01*
X78164320Y-64893400D01*
X79513570Y-64893400D01*
X79672320Y-64734650D01*
X79672320Y-64207858D01*
X79647917Y-64085177D01*
X79600050Y-63969615D01*
X79532300Y-63868220D01*
X79567857Y-63824894D01*
X79626822Y-63714580D01*
X79663132Y-63594882D01*
X79675392Y-63470400D01*
X79675392Y-63057858D01*
X82702320Y-63057858D01*
X82702320Y-64734650D01*
X82861070Y-64893400D01*
X84210320Y-64893400D01*
X84210320Y-62644150D01*
X84464320Y-62644150D01*
X84464320Y-64893400D01*
X85813570Y-64893400D01*
X85972320Y-64734650D01*
X85972320Y-63057858D01*
X85947917Y-62935177D01*
X85900050Y-62819615D01*
X85830557Y-62715611D01*
X85742109Y-62627163D01*
X85638105Y-62557670D01*
X85522543Y-62509803D01*
X85399862Y-62485400D01*
X84623070Y-62485400D01*
X84464320Y-62644150D01*
X84210320Y-62644150D01*
X84051570Y-62485400D01*
X83274778Y-62485400D01*
X83152097Y-62509803D01*
X83036535Y-62557670D01*
X82932531Y-62627163D01*
X82844083Y-62715611D01*
X82774590Y-62819615D01*
X82726723Y-62935177D01*
X82702320Y-63057858D01*
X79675392Y-63057858D01*
X79675392Y-61970400D01*
X79663132Y-61845918D01*
X79626822Y-61726220D01*
X79567857Y-61615906D01*
X79488505Y-61519215D01*
X79391814Y-61439863D01*
X79281500Y-61380898D01*
X79161802Y-61344588D01*
X79037320Y-61332328D01*
X77037320Y-61332328D01*
X76945824Y-61341339D01*
X76946385Y-61333496D01*
X77003181Y-61072407D01*
X77096556Y-60822060D01*
X77224605Y-60587555D01*
X77384724Y-60373662D01*
X77573662Y-60184724D01*
X77787555Y-60024605D01*
X78022060Y-59896556D01*
X78272407Y-59803181D01*
X78533496Y-59746385D01*
X78804530Y-59727000D01*
X84895470Y-59727000D01*
X85166504Y-59746385D01*
M02*
