G04 #@! TF.GenerationSoftware,KiCad,Pcbnew,6.0.0-rc1-unknown-5edf350~66~ubuntu18.10.1*
G04 #@! TF.CreationDate,2019-02-07T09:42:41-05:00
G04 #@! TF.ProjectId,BMS-Slave,424d532d-536c-4617-9665-2e6b69636164,V0.2*
G04 #@! TF.SameCoordinates,Original*
G04 #@! TF.FileFunction,Soldermask,Bot*
G04 #@! TF.FilePolarity,Negative*
%FSLAX46Y46*%
G04 Gerber Fmt 4.6, Leading zero omitted, Abs format (unit mm)*
G04 Created by KiCad (PCBNEW 6.0.0-rc1-unknown-5edf350~66~ubuntu18.10.1) date 2019-02-07 09:42:41*
%MOMM*%
%LPD*%
G04 APERTURE LIST*
%ADD10C,0.100000*%
G04 APERTURE END LIST*
D10*
G36*
X68401000Y-98401000D02*
G01*
X66599000Y-98401000D01*
X66599000Y-96599000D01*
X68401000Y-96599000D01*
X68401000Y-98401000D01*
X68401000Y-98401000D01*
G37*
G36*
X87930442Y-96605518D02*
G01*
X87996627Y-96612037D01*
X88166466Y-96663557D01*
X88322991Y-96747222D01*
X88358729Y-96776552D01*
X88460186Y-96859814D01*
X88543448Y-96961271D01*
X88572778Y-96997009D01*
X88656443Y-97153534D01*
X88707963Y-97323373D01*
X88725359Y-97500000D01*
X88707963Y-97676627D01*
X88656443Y-97846466D01*
X88572778Y-98002991D01*
X88543448Y-98038729D01*
X88460186Y-98140186D01*
X88358729Y-98223448D01*
X88322991Y-98252778D01*
X88166466Y-98336443D01*
X87996627Y-98387963D01*
X87930442Y-98394482D01*
X87864260Y-98401000D01*
X87775740Y-98401000D01*
X87709558Y-98394482D01*
X87643373Y-98387963D01*
X87473534Y-98336443D01*
X87317009Y-98252778D01*
X87281271Y-98223448D01*
X87179814Y-98140186D01*
X87096552Y-98038729D01*
X87067222Y-98002991D01*
X86983557Y-97846466D01*
X86932037Y-97676627D01*
X86914641Y-97500000D01*
X86932037Y-97323373D01*
X86983557Y-97153534D01*
X87067222Y-96997009D01*
X87096552Y-96961271D01*
X87179814Y-96859814D01*
X87281271Y-96776552D01*
X87317009Y-96747222D01*
X87473534Y-96663557D01*
X87643373Y-96612037D01*
X87709558Y-96605518D01*
X87775740Y-96599000D01*
X87864260Y-96599000D01*
X87930442Y-96605518D01*
X87930442Y-96605518D01*
G37*
G36*
X90470442Y-96605518D02*
G01*
X90536627Y-96612037D01*
X90706466Y-96663557D01*
X90862991Y-96747222D01*
X90898729Y-96776552D01*
X91000186Y-96859814D01*
X91083448Y-96961271D01*
X91112778Y-96997009D01*
X91196443Y-97153534D01*
X91247963Y-97323373D01*
X91265359Y-97500000D01*
X91247963Y-97676627D01*
X91196443Y-97846466D01*
X91112778Y-98002991D01*
X91083448Y-98038729D01*
X91000186Y-98140186D01*
X90898729Y-98223448D01*
X90862991Y-98252778D01*
X90706466Y-98336443D01*
X90536627Y-98387963D01*
X90470442Y-98394482D01*
X90404260Y-98401000D01*
X90315740Y-98401000D01*
X90249558Y-98394482D01*
X90183373Y-98387963D01*
X90013534Y-98336443D01*
X89857009Y-98252778D01*
X89821271Y-98223448D01*
X89719814Y-98140186D01*
X89636552Y-98038729D01*
X89607222Y-98002991D01*
X89523557Y-97846466D01*
X89472037Y-97676627D01*
X89454641Y-97500000D01*
X89472037Y-97323373D01*
X89523557Y-97153534D01*
X89607222Y-96997009D01*
X89636552Y-96961271D01*
X89719814Y-96859814D01*
X89821271Y-96776552D01*
X89857009Y-96747222D01*
X90013534Y-96663557D01*
X90183373Y-96612037D01*
X90249558Y-96605518D01*
X90315740Y-96599000D01*
X90404260Y-96599000D01*
X90470442Y-96605518D01*
X90470442Y-96605518D01*
G37*
G36*
X85390442Y-96605518D02*
G01*
X85456627Y-96612037D01*
X85626466Y-96663557D01*
X85782991Y-96747222D01*
X85818729Y-96776552D01*
X85920186Y-96859814D01*
X86003448Y-96961271D01*
X86032778Y-96997009D01*
X86116443Y-97153534D01*
X86167963Y-97323373D01*
X86185359Y-97500000D01*
X86167963Y-97676627D01*
X86116443Y-97846466D01*
X86032778Y-98002991D01*
X86003448Y-98038729D01*
X85920186Y-98140186D01*
X85818729Y-98223448D01*
X85782991Y-98252778D01*
X85626466Y-98336443D01*
X85456627Y-98387963D01*
X85390442Y-98394482D01*
X85324260Y-98401000D01*
X85235740Y-98401000D01*
X85169558Y-98394482D01*
X85103373Y-98387963D01*
X84933534Y-98336443D01*
X84777009Y-98252778D01*
X84741271Y-98223448D01*
X84639814Y-98140186D01*
X84556552Y-98038729D01*
X84527222Y-98002991D01*
X84443557Y-97846466D01*
X84392037Y-97676627D01*
X84374641Y-97500000D01*
X84392037Y-97323373D01*
X84443557Y-97153534D01*
X84527222Y-96997009D01*
X84556552Y-96961271D01*
X84639814Y-96859814D01*
X84741271Y-96776552D01*
X84777009Y-96747222D01*
X84933534Y-96663557D01*
X85103373Y-96612037D01*
X85169558Y-96605518D01*
X85235740Y-96599000D01*
X85324260Y-96599000D01*
X85390442Y-96605518D01*
X85390442Y-96605518D01*
G37*
G36*
X82850442Y-96605518D02*
G01*
X82916627Y-96612037D01*
X83086466Y-96663557D01*
X83242991Y-96747222D01*
X83278729Y-96776552D01*
X83380186Y-96859814D01*
X83463448Y-96961271D01*
X83492778Y-96997009D01*
X83576443Y-97153534D01*
X83627963Y-97323373D01*
X83645359Y-97500000D01*
X83627963Y-97676627D01*
X83576443Y-97846466D01*
X83492778Y-98002991D01*
X83463448Y-98038729D01*
X83380186Y-98140186D01*
X83278729Y-98223448D01*
X83242991Y-98252778D01*
X83086466Y-98336443D01*
X82916627Y-98387963D01*
X82850442Y-98394482D01*
X82784260Y-98401000D01*
X82695740Y-98401000D01*
X82629558Y-98394482D01*
X82563373Y-98387963D01*
X82393534Y-98336443D01*
X82237009Y-98252778D01*
X82201271Y-98223448D01*
X82099814Y-98140186D01*
X82016552Y-98038729D01*
X81987222Y-98002991D01*
X81903557Y-97846466D01*
X81852037Y-97676627D01*
X81834641Y-97500000D01*
X81852037Y-97323373D01*
X81903557Y-97153534D01*
X81987222Y-96997009D01*
X82016552Y-96961271D01*
X82099814Y-96859814D01*
X82201271Y-96776552D01*
X82237009Y-96747222D01*
X82393534Y-96663557D01*
X82563373Y-96612037D01*
X82629558Y-96605518D01*
X82695740Y-96599000D01*
X82784260Y-96599000D01*
X82850442Y-96605518D01*
X82850442Y-96605518D01*
G37*
G36*
X80310442Y-96605518D02*
G01*
X80376627Y-96612037D01*
X80546466Y-96663557D01*
X80702991Y-96747222D01*
X80738729Y-96776552D01*
X80840186Y-96859814D01*
X80923448Y-96961271D01*
X80952778Y-96997009D01*
X81036443Y-97153534D01*
X81087963Y-97323373D01*
X81105359Y-97500000D01*
X81087963Y-97676627D01*
X81036443Y-97846466D01*
X80952778Y-98002991D01*
X80923448Y-98038729D01*
X80840186Y-98140186D01*
X80738729Y-98223448D01*
X80702991Y-98252778D01*
X80546466Y-98336443D01*
X80376627Y-98387963D01*
X80310442Y-98394482D01*
X80244260Y-98401000D01*
X80155740Y-98401000D01*
X80089558Y-98394482D01*
X80023373Y-98387963D01*
X79853534Y-98336443D01*
X79697009Y-98252778D01*
X79661271Y-98223448D01*
X79559814Y-98140186D01*
X79476552Y-98038729D01*
X79447222Y-98002991D01*
X79363557Y-97846466D01*
X79312037Y-97676627D01*
X79294641Y-97500000D01*
X79312037Y-97323373D01*
X79363557Y-97153534D01*
X79447222Y-96997009D01*
X79476552Y-96961271D01*
X79559814Y-96859814D01*
X79661271Y-96776552D01*
X79697009Y-96747222D01*
X79853534Y-96663557D01*
X80023373Y-96612037D01*
X80089558Y-96605518D01*
X80155740Y-96599000D01*
X80244260Y-96599000D01*
X80310442Y-96605518D01*
X80310442Y-96605518D01*
G37*
G36*
X77770442Y-96605518D02*
G01*
X77836627Y-96612037D01*
X78006466Y-96663557D01*
X78162991Y-96747222D01*
X78198729Y-96776552D01*
X78300186Y-96859814D01*
X78383448Y-96961271D01*
X78412778Y-96997009D01*
X78496443Y-97153534D01*
X78547963Y-97323373D01*
X78565359Y-97500000D01*
X78547963Y-97676627D01*
X78496443Y-97846466D01*
X78412778Y-98002991D01*
X78383448Y-98038729D01*
X78300186Y-98140186D01*
X78198729Y-98223448D01*
X78162991Y-98252778D01*
X78006466Y-98336443D01*
X77836627Y-98387963D01*
X77770442Y-98394482D01*
X77704260Y-98401000D01*
X77615740Y-98401000D01*
X77549558Y-98394482D01*
X77483373Y-98387963D01*
X77313534Y-98336443D01*
X77157009Y-98252778D01*
X77121271Y-98223448D01*
X77019814Y-98140186D01*
X76936552Y-98038729D01*
X76907222Y-98002991D01*
X76823557Y-97846466D01*
X76772037Y-97676627D01*
X76754641Y-97500000D01*
X76772037Y-97323373D01*
X76823557Y-97153534D01*
X76907222Y-96997009D01*
X76936552Y-96961271D01*
X77019814Y-96859814D01*
X77121271Y-96776552D01*
X77157009Y-96747222D01*
X77313534Y-96663557D01*
X77483373Y-96612037D01*
X77549558Y-96605518D01*
X77615740Y-96599000D01*
X77704260Y-96599000D01*
X77770442Y-96605518D01*
X77770442Y-96605518D01*
G37*
G36*
X75230442Y-96605518D02*
G01*
X75296627Y-96612037D01*
X75466466Y-96663557D01*
X75622991Y-96747222D01*
X75658729Y-96776552D01*
X75760186Y-96859814D01*
X75843448Y-96961271D01*
X75872778Y-96997009D01*
X75956443Y-97153534D01*
X76007963Y-97323373D01*
X76025359Y-97500000D01*
X76007963Y-97676627D01*
X75956443Y-97846466D01*
X75872778Y-98002991D01*
X75843448Y-98038729D01*
X75760186Y-98140186D01*
X75658729Y-98223448D01*
X75622991Y-98252778D01*
X75466466Y-98336443D01*
X75296627Y-98387963D01*
X75230442Y-98394482D01*
X75164260Y-98401000D01*
X75075740Y-98401000D01*
X75009558Y-98394482D01*
X74943373Y-98387963D01*
X74773534Y-98336443D01*
X74617009Y-98252778D01*
X74581271Y-98223448D01*
X74479814Y-98140186D01*
X74396552Y-98038729D01*
X74367222Y-98002991D01*
X74283557Y-97846466D01*
X74232037Y-97676627D01*
X74214641Y-97500000D01*
X74232037Y-97323373D01*
X74283557Y-97153534D01*
X74367222Y-96997009D01*
X74396552Y-96961271D01*
X74479814Y-96859814D01*
X74581271Y-96776552D01*
X74617009Y-96747222D01*
X74773534Y-96663557D01*
X74943373Y-96612037D01*
X75009558Y-96605518D01*
X75075740Y-96599000D01*
X75164260Y-96599000D01*
X75230442Y-96605518D01*
X75230442Y-96605518D01*
G37*
G36*
X72690442Y-96605518D02*
G01*
X72756627Y-96612037D01*
X72926466Y-96663557D01*
X73082991Y-96747222D01*
X73118729Y-96776552D01*
X73220186Y-96859814D01*
X73303448Y-96961271D01*
X73332778Y-96997009D01*
X73416443Y-97153534D01*
X73467963Y-97323373D01*
X73485359Y-97500000D01*
X73467963Y-97676627D01*
X73416443Y-97846466D01*
X73332778Y-98002991D01*
X73303448Y-98038729D01*
X73220186Y-98140186D01*
X73118729Y-98223448D01*
X73082991Y-98252778D01*
X72926466Y-98336443D01*
X72756627Y-98387963D01*
X72690442Y-98394482D01*
X72624260Y-98401000D01*
X72535740Y-98401000D01*
X72469558Y-98394482D01*
X72403373Y-98387963D01*
X72233534Y-98336443D01*
X72077009Y-98252778D01*
X72041271Y-98223448D01*
X71939814Y-98140186D01*
X71856552Y-98038729D01*
X71827222Y-98002991D01*
X71743557Y-97846466D01*
X71692037Y-97676627D01*
X71674641Y-97500000D01*
X71692037Y-97323373D01*
X71743557Y-97153534D01*
X71827222Y-96997009D01*
X71856552Y-96961271D01*
X71939814Y-96859814D01*
X72041271Y-96776552D01*
X72077009Y-96747222D01*
X72233534Y-96663557D01*
X72403373Y-96612037D01*
X72469558Y-96605518D01*
X72535740Y-96599000D01*
X72624260Y-96599000D01*
X72690442Y-96605518D01*
X72690442Y-96605518D01*
G37*
G36*
X70150442Y-96605518D02*
G01*
X70216627Y-96612037D01*
X70386466Y-96663557D01*
X70542991Y-96747222D01*
X70578729Y-96776552D01*
X70680186Y-96859814D01*
X70763448Y-96961271D01*
X70792778Y-96997009D01*
X70876443Y-97153534D01*
X70927963Y-97323373D01*
X70945359Y-97500000D01*
X70927963Y-97676627D01*
X70876443Y-97846466D01*
X70792778Y-98002991D01*
X70763448Y-98038729D01*
X70680186Y-98140186D01*
X70578729Y-98223448D01*
X70542991Y-98252778D01*
X70386466Y-98336443D01*
X70216627Y-98387963D01*
X70150442Y-98394482D01*
X70084260Y-98401000D01*
X69995740Y-98401000D01*
X69929558Y-98394482D01*
X69863373Y-98387963D01*
X69693534Y-98336443D01*
X69537009Y-98252778D01*
X69501271Y-98223448D01*
X69399814Y-98140186D01*
X69316552Y-98038729D01*
X69287222Y-98002991D01*
X69203557Y-97846466D01*
X69152037Y-97676627D01*
X69134641Y-97500000D01*
X69152037Y-97323373D01*
X69203557Y-97153534D01*
X69287222Y-96997009D01*
X69316552Y-96961271D01*
X69399814Y-96859814D01*
X69501271Y-96776552D01*
X69537009Y-96747222D01*
X69693534Y-96663557D01*
X69863373Y-96612037D01*
X69929558Y-96605518D01*
X69995740Y-96599000D01*
X70084260Y-96599000D01*
X70150442Y-96605518D01*
X70150442Y-96605518D01*
G37*
G36*
X5536693Y-92301859D02*
G01*
X5802437Y-92354719D01*
X6303087Y-92562095D01*
X6483561Y-92682684D01*
X6753660Y-92863158D01*
X7136842Y-93246340D01*
X7317316Y-93516439D01*
X7437905Y-93696913D01*
X7571363Y-94019109D01*
X7645281Y-94197564D01*
X7751000Y-94729049D01*
X7751000Y-95270951D01*
X7715186Y-95451000D01*
X7645281Y-95802437D01*
X7437905Y-96303087D01*
X7381521Y-96387471D01*
X7136842Y-96753660D01*
X6753660Y-97136842D01*
X6490774Y-97312496D01*
X6303087Y-97437905D01*
X5802437Y-97645281D01*
X5536694Y-97698140D01*
X5270951Y-97751000D01*
X4729049Y-97751000D01*
X4463306Y-97698140D01*
X4197563Y-97645281D01*
X3696913Y-97437905D01*
X3509226Y-97312496D01*
X3246340Y-97136842D01*
X2863158Y-96753660D01*
X2618479Y-96387471D01*
X2562095Y-96303087D01*
X2354719Y-95802437D01*
X2284814Y-95451000D01*
X2249000Y-95270951D01*
X2249000Y-94729049D01*
X2354719Y-94197564D01*
X2428637Y-94019109D01*
X2562095Y-93696913D01*
X2682684Y-93516439D01*
X2863158Y-93246340D01*
X3246340Y-92863158D01*
X3516439Y-92682684D01*
X3696913Y-92562095D01*
X4197563Y-92354719D01*
X4463307Y-92301859D01*
X4729049Y-92249000D01*
X5270951Y-92249000D01*
X5536693Y-92301859D01*
X5536693Y-92301859D01*
G37*
G36*
X95536693Y-92301859D02*
G01*
X95802437Y-92354719D01*
X96303087Y-92562095D01*
X96483561Y-92682684D01*
X96753660Y-92863158D01*
X97136842Y-93246340D01*
X97317316Y-93516439D01*
X97437905Y-93696913D01*
X97571363Y-94019109D01*
X97645281Y-94197564D01*
X97751000Y-94729049D01*
X97751000Y-95270951D01*
X97715186Y-95451000D01*
X97645281Y-95802437D01*
X97437905Y-96303087D01*
X97381521Y-96387471D01*
X97136842Y-96753660D01*
X96753660Y-97136842D01*
X96490774Y-97312496D01*
X96303087Y-97437905D01*
X95802437Y-97645281D01*
X95536693Y-97698141D01*
X95270951Y-97751000D01*
X94729049Y-97751000D01*
X94463306Y-97698140D01*
X94197563Y-97645281D01*
X93696913Y-97437905D01*
X93509226Y-97312496D01*
X93246340Y-97136842D01*
X92863158Y-96753660D01*
X92618479Y-96387471D01*
X92562095Y-96303087D01*
X92354719Y-95802437D01*
X92284814Y-95451000D01*
X92249000Y-95270951D01*
X92249000Y-94729049D01*
X92354719Y-94197564D01*
X92428637Y-94019109D01*
X92562095Y-93696913D01*
X92682684Y-93516439D01*
X92863158Y-93246340D01*
X93246340Y-92863158D01*
X93516439Y-92682684D01*
X93696913Y-92562095D01*
X94197563Y-92354719D01*
X94463307Y-92301859D01*
X94729049Y-92249000D01*
X95270951Y-92249000D01*
X95536693Y-92301859D01*
X95536693Y-92301859D01*
G37*
G36*
X94819320Y-73742520D02*
G01*
X93017320Y-73742520D01*
X93017320Y-71940520D01*
X94819320Y-71940520D01*
X94819320Y-73742520D01*
X94819320Y-73742520D01*
G37*
G36*
X4279200Y-71665400D02*
G01*
X2477200Y-71665400D01*
X2477200Y-69863400D01*
X4279200Y-69863400D01*
X4279200Y-71665400D01*
X4279200Y-71665400D01*
G37*
G36*
X94028763Y-69407039D02*
G01*
X94094947Y-69413557D01*
X94264786Y-69465077D01*
X94421311Y-69548742D01*
X94457049Y-69578072D01*
X94558506Y-69661334D01*
X94641768Y-69762791D01*
X94671098Y-69798529D01*
X94754763Y-69955054D01*
X94806283Y-70124893D01*
X94823679Y-70301520D01*
X94806283Y-70478147D01*
X94754763Y-70647986D01*
X94671098Y-70804511D01*
X94641768Y-70840249D01*
X94558506Y-70941706D01*
X94457049Y-71024968D01*
X94421311Y-71054298D01*
X94264786Y-71137963D01*
X94094947Y-71189483D01*
X94028762Y-71196002D01*
X93962580Y-71202520D01*
X93874060Y-71202520D01*
X93807878Y-71196002D01*
X93741693Y-71189483D01*
X93571854Y-71137963D01*
X93415329Y-71054298D01*
X93379591Y-71024968D01*
X93278134Y-70941706D01*
X93194872Y-70840249D01*
X93165542Y-70804511D01*
X93081877Y-70647986D01*
X93030357Y-70478147D01*
X93012961Y-70301520D01*
X93030357Y-70124893D01*
X93081877Y-69955054D01*
X93165542Y-69798529D01*
X93194872Y-69762791D01*
X93278134Y-69661334D01*
X93379591Y-69578072D01*
X93415329Y-69548742D01*
X93571854Y-69465077D01*
X93741693Y-69413557D01*
X93807877Y-69407039D01*
X93874060Y-69400520D01*
X93962580Y-69400520D01*
X94028763Y-69407039D01*
X94028763Y-69407039D01*
G37*
G36*
X3488643Y-67329919D02*
G01*
X3554827Y-67336437D01*
X3724666Y-67387957D01*
X3881191Y-67471622D01*
X3916929Y-67500952D01*
X4018386Y-67584214D01*
X4101648Y-67685671D01*
X4130978Y-67721409D01*
X4214643Y-67877934D01*
X4266163Y-68047773D01*
X4283559Y-68224400D01*
X4266163Y-68401027D01*
X4214643Y-68570866D01*
X4130978Y-68727391D01*
X4101648Y-68763129D01*
X4018386Y-68864586D01*
X3916929Y-68947848D01*
X3881191Y-68977178D01*
X3724666Y-69060843D01*
X3554827Y-69112363D01*
X3488643Y-69118881D01*
X3422460Y-69125400D01*
X3333940Y-69125400D01*
X3267757Y-69118881D01*
X3201573Y-69112363D01*
X3031734Y-69060843D01*
X2875209Y-68977178D01*
X2839471Y-68947848D01*
X2738014Y-68864586D01*
X2654752Y-68763129D01*
X2625422Y-68727391D01*
X2541757Y-68570866D01*
X2490237Y-68401027D01*
X2472841Y-68224400D01*
X2490237Y-68047773D01*
X2541757Y-67877934D01*
X2625422Y-67721409D01*
X2654752Y-67685671D01*
X2738014Y-67584214D01*
X2839471Y-67500952D01*
X2875209Y-67471622D01*
X3031734Y-67387957D01*
X3201573Y-67336437D01*
X3267757Y-67329919D01*
X3333940Y-67323400D01*
X3422460Y-67323400D01*
X3488643Y-67329919D01*
X3488643Y-67329919D01*
G37*
G36*
X94028763Y-66867039D02*
G01*
X94094947Y-66873557D01*
X94264786Y-66925077D01*
X94421311Y-67008742D01*
X94457049Y-67038072D01*
X94558506Y-67121334D01*
X94641768Y-67222791D01*
X94671098Y-67258529D01*
X94754763Y-67415054D01*
X94806283Y-67584893D01*
X94823679Y-67761520D01*
X94806283Y-67938147D01*
X94754763Y-68107986D01*
X94671098Y-68264511D01*
X94641768Y-68300249D01*
X94558506Y-68401706D01*
X94457049Y-68484968D01*
X94421311Y-68514298D01*
X94264786Y-68597963D01*
X94094947Y-68649483D01*
X94028763Y-68656001D01*
X93962580Y-68662520D01*
X93874060Y-68662520D01*
X93807877Y-68656001D01*
X93741693Y-68649483D01*
X93571854Y-68597963D01*
X93415329Y-68514298D01*
X93379591Y-68484968D01*
X93278134Y-68401706D01*
X93194872Y-68300249D01*
X93165542Y-68264511D01*
X93081877Y-68107986D01*
X93030357Y-67938147D01*
X93012961Y-67761520D01*
X93030357Y-67584893D01*
X93081877Y-67415054D01*
X93165542Y-67258529D01*
X93194872Y-67222791D01*
X93278134Y-67121334D01*
X93379591Y-67038072D01*
X93415329Y-67008742D01*
X93571854Y-66925077D01*
X93741693Y-66873557D01*
X93807877Y-66867039D01*
X93874060Y-66860520D01*
X93962580Y-66860520D01*
X94028763Y-66867039D01*
X94028763Y-66867039D01*
G37*
G36*
X3488643Y-64789919D02*
G01*
X3554827Y-64796437D01*
X3724666Y-64847957D01*
X3881191Y-64931622D01*
X3916929Y-64960952D01*
X4018386Y-65044214D01*
X4101648Y-65145671D01*
X4130978Y-65181409D01*
X4214643Y-65337934D01*
X4266163Y-65507773D01*
X4283559Y-65684400D01*
X4266163Y-65861027D01*
X4214643Y-66030866D01*
X4130978Y-66187391D01*
X4101648Y-66223129D01*
X4018386Y-66324586D01*
X3916929Y-66407848D01*
X3881191Y-66437178D01*
X3724666Y-66520843D01*
X3554827Y-66572363D01*
X3488643Y-66578881D01*
X3422460Y-66585400D01*
X3333940Y-66585400D01*
X3267757Y-66578881D01*
X3201573Y-66572363D01*
X3031734Y-66520843D01*
X2875209Y-66437178D01*
X2839471Y-66407848D01*
X2738014Y-66324586D01*
X2654752Y-66223129D01*
X2625422Y-66187391D01*
X2541757Y-66030866D01*
X2490237Y-65861027D01*
X2472841Y-65684400D01*
X2490237Y-65507773D01*
X2541757Y-65337934D01*
X2625422Y-65181409D01*
X2654752Y-65145671D01*
X2738014Y-65044214D01*
X2839471Y-64960952D01*
X2875209Y-64931622D01*
X3031734Y-64847957D01*
X3201573Y-64796437D01*
X3267757Y-64789919D01*
X3333940Y-64783400D01*
X3422460Y-64783400D01*
X3488643Y-64789919D01*
X3488643Y-64789919D01*
G37*
G36*
X94028763Y-63219599D02*
G01*
X94094947Y-63226117D01*
X94264786Y-63277637D01*
X94421311Y-63361302D01*
X94457049Y-63390632D01*
X94558506Y-63473894D01*
X94641768Y-63575351D01*
X94671098Y-63611089D01*
X94754763Y-63767614D01*
X94806283Y-63937453D01*
X94823679Y-64114080D01*
X94806283Y-64290707D01*
X94754763Y-64460546D01*
X94671098Y-64617071D01*
X94641768Y-64652809D01*
X94558506Y-64754266D01*
X94457049Y-64837528D01*
X94421311Y-64866858D01*
X94264786Y-64950523D01*
X94094947Y-65002043D01*
X94028763Y-65008561D01*
X93962580Y-65015080D01*
X93874060Y-65015080D01*
X93807877Y-65008561D01*
X93741693Y-65002043D01*
X93571854Y-64950523D01*
X93415329Y-64866858D01*
X93379591Y-64837528D01*
X93278134Y-64754266D01*
X93194872Y-64652809D01*
X93165542Y-64617071D01*
X93081877Y-64460546D01*
X93030357Y-64290707D01*
X93012961Y-64114080D01*
X93030357Y-63937453D01*
X93081877Y-63767614D01*
X93165542Y-63611089D01*
X93194872Y-63575351D01*
X93278134Y-63473894D01*
X93379591Y-63390632D01*
X93415329Y-63361302D01*
X93571854Y-63277637D01*
X93741693Y-63226117D01*
X93807877Y-63219599D01*
X93874060Y-63213080D01*
X93962580Y-63213080D01*
X94028763Y-63219599D01*
X94028763Y-63219599D01*
G37*
G36*
X3488643Y-62249919D02*
G01*
X3554827Y-62256437D01*
X3724666Y-62307957D01*
X3881191Y-62391622D01*
X3916929Y-62420952D01*
X4018386Y-62504214D01*
X4101648Y-62605671D01*
X4130978Y-62641409D01*
X4214643Y-62797934D01*
X4266163Y-62967773D01*
X4283559Y-63144400D01*
X4266163Y-63321027D01*
X4214643Y-63490866D01*
X4130978Y-63647391D01*
X4101648Y-63683129D01*
X4018386Y-63784586D01*
X3916929Y-63867848D01*
X3881191Y-63897178D01*
X3724666Y-63980843D01*
X3554827Y-64032363D01*
X3488643Y-64038881D01*
X3422460Y-64045400D01*
X3333940Y-64045400D01*
X3267757Y-64038881D01*
X3201573Y-64032363D01*
X3031734Y-63980843D01*
X2875209Y-63897178D01*
X2839471Y-63867848D01*
X2738014Y-63784586D01*
X2654752Y-63683129D01*
X2625422Y-63647391D01*
X2541757Y-63490866D01*
X2490237Y-63321027D01*
X2472841Y-63144400D01*
X2490237Y-62967773D01*
X2541757Y-62797934D01*
X2625422Y-62641409D01*
X2654752Y-62605671D01*
X2738014Y-62504214D01*
X2839471Y-62420952D01*
X2875209Y-62391622D01*
X3031734Y-62307957D01*
X3201573Y-62256437D01*
X3267757Y-62249919D01*
X3333940Y-62243400D01*
X3422460Y-62243400D01*
X3488643Y-62249919D01*
X3488643Y-62249919D01*
G37*
G36*
X94028763Y-60679599D02*
G01*
X94094947Y-60686117D01*
X94264786Y-60737637D01*
X94421311Y-60821302D01*
X94457049Y-60850632D01*
X94558506Y-60933894D01*
X94641768Y-61035351D01*
X94671098Y-61071089D01*
X94754763Y-61227614D01*
X94806283Y-61397453D01*
X94823679Y-61574080D01*
X94806283Y-61750707D01*
X94754763Y-61920546D01*
X94671098Y-62077071D01*
X94641768Y-62112809D01*
X94558506Y-62214266D01*
X94457049Y-62297528D01*
X94421311Y-62326858D01*
X94264786Y-62410523D01*
X94094947Y-62462043D01*
X94028762Y-62468562D01*
X93962580Y-62475080D01*
X93874060Y-62475080D01*
X93807878Y-62468562D01*
X93741693Y-62462043D01*
X93571854Y-62410523D01*
X93415329Y-62326858D01*
X93379591Y-62297528D01*
X93278134Y-62214266D01*
X93194872Y-62112809D01*
X93165542Y-62077071D01*
X93081877Y-61920546D01*
X93030357Y-61750707D01*
X93012961Y-61574080D01*
X93030357Y-61397453D01*
X93081877Y-61227614D01*
X93165542Y-61071089D01*
X93194872Y-61035351D01*
X93278134Y-60933894D01*
X93379591Y-60850632D01*
X93415329Y-60821302D01*
X93571854Y-60737637D01*
X93741693Y-60686117D01*
X93807877Y-60679599D01*
X93874060Y-60673080D01*
X93962580Y-60673080D01*
X94028763Y-60679599D01*
X94028763Y-60679599D01*
G37*
G36*
X3488642Y-59709918D02*
G01*
X3554827Y-59716437D01*
X3724666Y-59767957D01*
X3881191Y-59851622D01*
X3916929Y-59880952D01*
X4018386Y-59964214D01*
X4101648Y-60065671D01*
X4130978Y-60101409D01*
X4214643Y-60257934D01*
X4266163Y-60427773D01*
X4283559Y-60604400D01*
X4266163Y-60781027D01*
X4214643Y-60950866D01*
X4130978Y-61107391D01*
X4101648Y-61143129D01*
X4018386Y-61244586D01*
X3916929Y-61327848D01*
X3881191Y-61357178D01*
X3724666Y-61440843D01*
X3554827Y-61492363D01*
X3488642Y-61498882D01*
X3422460Y-61505400D01*
X3333940Y-61505400D01*
X3267758Y-61498882D01*
X3201573Y-61492363D01*
X3031734Y-61440843D01*
X2875209Y-61357178D01*
X2839471Y-61327848D01*
X2738014Y-61244586D01*
X2654752Y-61143129D01*
X2625422Y-61107391D01*
X2541757Y-60950866D01*
X2490237Y-60781027D01*
X2472841Y-60604400D01*
X2490237Y-60427773D01*
X2541757Y-60257934D01*
X2625422Y-60101409D01*
X2654752Y-60065671D01*
X2738014Y-59964214D01*
X2839471Y-59880952D01*
X2875209Y-59851622D01*
X3031734Y-59767957D01*
X3201573Y-59716437D01*
X3267758Y-59709918D01*
X3333940Y-59703400D01*
X3422460Y-59703400D01*
X3488642Y-59709918D01*
X3488642Y-59709918D01*
G37*
G36*
X94819320Y-59935080D02*
G01*
X93017320Y-59935080D01*
X93017320Y-58133080D01*
X94819320Y-58133080D01*
X94819320Y-59935080D01*
X94819320Y-59935080D01*
G37*
G36*
X3488643Y-57169919D02*
G01*
X3554827Y-57176437D01*
X3724666Y-57227957D01*
X3881191Y-57311622D01*
X3916929Y-57340952D01*
X4018386Y-57424214D01*
X4101648Y-57525671D01*
X4130978Y-57561409D01*
X4214643Y-57717934D01*
X4266163Y-57887773D01*
X4283559Y-58064400D01*
X4266163Y-58241027D01*
X4214643Y-58410866D01*
X4130978Y-58567391D01*
X4101648Y-58603129D01*
X4018386Y-58704586D01*
X3916929Y-58787848D01*
X3881191Y-58817178D01*
X3724666Y-58900843D01*
X3554827Y-58952363D01*
X3488642Y-58958882D01*
X3422460Y-58965400D01*
X3333940Y-58965400D01*
X3267758Y-58958882D01*
X3201573Y-58952363D01*
X3031734Y-58900843D01*
X2875209Y-58817178D01*
X2839471Y-58787848D01*
X2738014Y-58704586D01*
X2654752Y-58603129D01*
X2625422Y-58567391D01*
X2541757Y-58410866D01*
X2490237Y-58241027D01*
X2472841Y-58064400D01*
X2490237Y-57887773D01*
X2541757Y-57717934D01*
X2625422Y-57561409D01*
X2654752Y-57525671D01*
X2738014Y-57424214D01*
X2839471Y-57340952D01*
X2875209Y-57311622D01*
X3031734Y-57227957D01*
X3201573Y-57176437D01*
X3267757Y-57169919D01*
X3333940Y-57163400D01*
X3422460Y-57163400D01*
X3488643Y-57169919D01*
X3488643Y-57169919D01*
G37*
G36*
X3488642Y-54629918D02*
G01*
X3554827Y-54636437D01*
X3724666Y-54687957D01*
X3881191Y-54771622D01*
X3916929Y-54800952D01*
X4018386Y-54884214D01*
X4101648Y-54985671D01*
X4130978Y-55021409D01*
X4214643Y-55177934D01*
X4266163Y-55347773D01*
X4283559Y-55524400D01*
X4266163Y-55701027D01*
X4214643Y-55870866D01*
X4130978Y-56027391D01*
X4101648Y-56063129D01*
X4018386Y-56164586D01*
X3916929Y-56247848D01*
X3881191Y-56277178D01*
X3724666Y-56360843D01*
X3554827Y-56412363D01*
X3488643Y-56418881D01*
X3422460Y-56425400D01*
X3333940Y-56425400D01*
X3267757Y-56418881D01*
X3201573Y-56412363D01*
X3031734Y-56360843D01*
X2875209Y-56277178D01*
X2839471Y-56247848D01*
X2738014Y-56164586D01*
X2654752Y-56063129D01*
X2625422Y-56027391D01*
X2541757Y-55870866D01*
X2490237Y-55701027D01*
X2472841Y-55524400D01*
X2490237Y-55347773D01*
X2541757Y-55177934D01*
X2625422Y-55021409D01*
X2654752Y-54985671D01*
X2738014Y-54884214D01*
X2839471Y-54800952D01*
X2875209Y-54771622D01*
X3031734Y-54687957D01*
X3201573Y-54636437D01*
X3267758Y-54629918D01*
X3333940Y-54623400D01*
X3422460Y-54623400D01*
X3488642Y-54629918D01*
X3488642Y-54629918D01*
G37*
G36*
X3488643Y-52089919D02*
G01*
X3554827Y-52096437D01*
X3724666Y-52147957D01*
X3881191Y-52231622D01*
X3916929Y-52260952D01*
X4018386Y-52344214D01*
X4101648Y-52445671D01*
X4130978Y-52481409D01*
X4214643Y-52637934D01*
X4266163Y-52807773D01*
X4283559Y-52984400D01*
X4266163Y-53161027D01*
X4214643Y-53330866D01*
X4130978Y-53487391D01*
X4101648Y-53523129D01*
X4018386Y-53624586D01*
X3916929Y-53707848D01*
X3881191Y-53737178D01*
X3724666Y-53820843D01*
X3554827Y-53872363D01*
X3488642Y-53878882D01*
X3422460Y-53885400D01*
X3333940Y-53885400D01*
X3267758Y-53878882D01*
X3201573Y-53872363D01*
X3031734Y-53820843D01*
X2875209Y-53737178D01*
X2839471Y-53707848D01*
X2738014Y-53624586D01*
X2654752Y-53523129D01*
X2625422Y-53487391D01*
X2541757Y-53330866D01*
X2490237Y-53161027D01*
X2472841Y-52984400D01*
X2490237Y-52807773D01*
X2541757Y-52637934D01*
X2625422Y-52481409D01*
X2654752Y-52445671D01*
X2738014Y-52344214D01*
X2839471Y-52260952D01*
X2875209Y-52231622D01*
X3031734Y-52147957D01*
X3201573Y-52096437D01*
X3267757Y-52089919D01*
X3333940Y-52083400D01*
X3422460Y-52083400D01*
X3488643Y-52089919D01*
X3488643Y-52089919D01*
G37*
G36*
X3488643Y-49549919D02*
G01*
X3554827Y-49556437D01*
X3724666Y-49607957D01*
X3881191Y-49691622D01*
X3916929Y-49720952D01*
X4018386Y-49804214D01*
X4101648Y-49905671D01*
X4130978Y-49941409D01*
X4214643Y-50097934D01*
X4266163Y-50267773D01*
X4283559Y-50444400D01*
X4266163Y-50621027D01*
X4214643Y-50790866D01*
X4130978Y-50947391D01*
X4101648Y-50983129D01*
X4018386Y-51084586D01*
X3916929Y-51167848D01*
X3881191Y-51197178D01*
X3724666Y-51280843D01*
X3554827Y-51332363D01*
X3488643Y-51338881D01*
X3422460Y-51345400D01*
X3333940Y-51345400D01*
X3267757Y-51338881D01*
X3201573Y-51332363D01*
X3031734Y-51280843D01*
X2875209Y-51197178D01*
X2839471Y-51167848D01*
X2738014Y-51084586D01*
X2654752Y-50983129D01*
X2625422Y-50947391D01*
X2541757Y-50790866D01*
X2490237Y-50621027D01*
X2472841Y-50444400D01*
X2490237Y-50267773D01*
X2541757Y-50097934D01*
X2625422Y-49941409D01*
X2654752Y-49905671D01*
X2738014Y-49804214D01*
X2839471Y-49720952D01*
X2875209Y-49691622D01*
X3031734Y-49607957D01*
X3201573Y-49556437D01*
X3267757Y-49549919D01*
X3333940Y-49543400D01*
X3422460Y-49543400D01*
X3488643Y-49549919D01*
X3488643Y-49549919D01*
G37*
G36*
X94303097Y-47094069D02*
G01*
X94406032Y-47104207D01*
X94562336Y-47151622D01*
X94604149Y-47164306D01*
X94700975Y-47216061D01*
X94786729Y-47261897D01*
X94946765Y-47393235D01*
X95078103Y-47553271D01*
X95080594Y-47557932D01*
X95175694Y-47735851D01*
X95175695Y-47735854D01*
X95235793Y-47933968D01*
X95256085Y-48140000D01*
X95235793Y-48346032D01*
X95175695Y-48544146D01*
X95175694Y-48544149D01*
X95175460Y-48544586D01*
X95078103Y-48726729D01*
X94946765Y-48886765D01*
X94786729Y-49018103D01*
X94700975Y-49063939D01*
X94604149Y-49115694D01*
X94604146Y-49115695D01*
X94406032Y-49175793D01*
X94303097Y-49185931D01*
X94251631Y-49191000D01*
X93548369Y-49191000D01*
X93496903Y-49185931D01*
X93393968Y-49175793D01*
X93195854Y-49115695D01*
X93195851Y-49115694D01*
X93099025Y-49063939D01*
X93013271Y-49018103D01*
X92853235Y-48886765D01*
X92721897Y-48726729D01*
X92624540Y-48544586D01*
X92624306Y-48544149D01*
X92624305Y-48544146D01*
X92564207Y-48346032D01*
X92543915Y-48140000D01*
X92564207Y-47933968D01*
X92624305Y-47735854D01*
X92624306Y-47735851D01*
X92719406Y-47557932D01*
X92721897Y-47553271D01*
X92853235Y-47393235D01*
X93013271Y-47261897D01*
X93099025Y-47216061D01*
X93195851Y-47164306D01*
X93237664Y-47151622D01*
X93393968Y-47104207D01*
X93496903Y-47094069D01*
X93548369Y-47089000D01*
X94251631Y-47089000D01*
X94303097Y-47094069D01*
X94303097Y-47094069D01*
G37*
G36*
X3488643Y-47009919D02*
G01*
X3554827Y-47016437D01*
X3724666Y-47067957D01*
X3881191Y-47151622D01*
X3896645Y-47164305D01*
X4018386Y-47264214D01*
X4101648Y-47365671D01*
X4130978Y-47401409D01*
X4214643Y-47557934D01*
X4266163Y-47727773D01*
X4283559Y-47904400D01*
X4266163Y-48081027D01*
X4214643Y-48250866D01*
X4130978Y-48407391D01*
X4101648Y-48443129D01*
X4018386Y-48544586D01*
X3916929Y-48627848D01*
X3881191Y-48657178D01*
X3724666Y-48740843D01*
X3554827Y-48792363D01*
X3488643Y-48798881D01*
X3422460Y-48805400D01*
X3333940Y-48805400D01*
X3267757Y-48798881D01*
X3201573Y-48792363D01*
X3031734Y-48740843D01*
X2875209Y-48657178D01*
X2839471Y-48627848D01*
X2738014Y-48544586D01*
X2654752Y-48443129D01*
X2625422Y-48407391D01*
X2541757Y-48250866D01*
X2490237Y-48081027D01*
X2472841Y-47904400D01*
X2490237Y-47727773D01*
X2541757Y-47557934D01*
X2625422Y-47401409D01*
X2654752Y-47365671D01*
X2738014Y-47264214D01*
X2859755Y-47164305D01*
X2875209Y-47151622D01*
X3031734Y-47067957D01*
X3201573Y-47016437D01*
X3267757Y-47009919D01*
X3333940Y-47003400D01*
X3422460Y-47003400D01*
X3488643Y-47009919D01*
X3488643Y-47009919D01*
G37*
G36*
X95251000Y-46651000D02*
G01*
X92549000Y-46651000D01*
X92549000Y-44549000D01*
X95251000Y-44549000D01*
X95251000Y-46651000D01*
X95251000Y-46651000D01*
G37*
G36*
X3488643Y-44469919D02*
G01*
X3554827Y-44476437D01*
X3724666Y-44527957D01*
X3881191Y-44611622D01*
X3916929Y-44640952D01*
X4018386Y-44724214D01*
X4101648Y-44825671D01*
X4130978Y-44861409D01*
X4214643Y-45017934D01*
X4266163Y-45187773D01*
X4283559Y-45364400D01*
X4266163Y-45541027D01*
X4214643Y-45710866D01*
X4130978Y-45867391D01*
X4101648Y-45903129D01*
X4018386Y-46004586D01*
X3916929Y-46087848D01*
X3881191Y-46117178D01*
X3724666Y-46200843D01*
X3554827Y-46252363D01*
X3488643Y-46258881D01*
X3422460Y-46265400D01*
X3333940Y-46265400D01*
X3267757Y-46258881D01*
X3201573Y-46252363D01*
X3031734Y-46200843D01*
X2875209Y-46117178D01*
X2839471Y-46087848D01*
X2738014Y-46004586D01*
X2654752Y-45903129D01*
X2625422Y-45867391D01*
X2541757Y-45710866D01*
X2490237Y-45541027D01*
X2472841Y-45364400D01*
X2490237Y-45187773D01*
X2541757Y-45017934D01*
X2625422Y-44861409D01*
X2654752Y-44825671D01*
X2738014Y-44724214D01*
X2839471Y-44640952D01*
X2875209Y-44611622D01*
X3031734Y-44527957D01*
X3201573Y-44476437D01*
X3267757Y-44469919D01*
X3333940Y-44463400D01*
X3422460Y-44463400D01*
X3488643Y-44469919D01*
X3488643Y-44469919D01*
G37*
G36*
X3488642Y-41929918D02*
G01*
X3554827Y-41936437D01*
X3724666Y-41987957D01*
X3881191Y-42071622D01*
X3916929Y-42100952D01*
X4018386Y-42184214D01*
X4101648Y-42285671D01*
X4130978Y-42321409D01*
X4214643Y-42477934D01*
X4266163Y-42647773D01*
X4283559Y-42824400D01*
X4266163Y-43001027D01*
X4214643Y-43170866D01*
X4130978Y-43327391D01*
X4101648Y-43363129D01*
X4018386Y-43464586D01*
X3916929Y-43547848D01*
X3881191Y-43577178D01*
X3724666Y-43660843D01*
X3554827Y-43712363D01*
X3488643Y-43718881D01*
X3422460Y-43725400D01*
X3333940Y-43725400D01*
X3267757Y-43718881D01*
X3201573Y-43712363D01*
X3031734Y-43660843D01*
X2875209Y-43577178D01*
X2839471Y-43547848D01*
X2738014Y-43464586D01*
X2654752Y-43363129D01*
X2625422Y-43327391D01*
X2541757Y-43170866D01*
X2490237Y-43001027D01*
X2472841Y-42824400D01*
X2490237Y-42647773D01*
X2541757Y-42477934D01*
X2625422Y-42321409D01*
X2654752Y-42285671D01*
X2738014Y-42184214D01*
X2839471Y-42100952D01*
X2875209Y-42071622D01*
X3031734Y-41987957D01*
X3201573Y-41936437D01*
X3267758Y-41929918D01*
X3333940Y-41923400D01*
X3422460Y-41923400D01*
X3488642Y-41929918D01*
X3488642Y-41929918D01*
G37*
G36*
X94303097Y-40294069D02*
G01*
X94406032Y-40304207D01*
X94604146Y-40364305D01*
X94604149Y-40364306D01*
X94700975Y-40416061D01*
X94786729Y-40461897D01*
X94946765Y-40593235D01*
X95078103Y-40753271D01*
X95096339Y-40787389D01*
X95175694Y-40935851D01*
X95175695Y-40935854D01*
X95235793Y-41133968D01*
X95256085Y-41340000D01*
X95235793Y-41546032D01*
X95175695Y-41744146D01*
X95175694Y-41744149D01*
X95123939Y-41840975D01*
X95078103Y-41926729D01*
X94946765Y-42086765D01*
X94786729Y-42218103D01*
X94700975Y-42263939D01*
X94604149Y-42315694D01*
X94604146Y-42315695D01*
X94406032Y-42375793D01*
X94303097Y-42385931D01*
X94251631Y-42391000D01*
X93548369Y-42391000D01*
X93496903Y-42385931D01*
X93393968Y-42375793D01*
X93195854Y-42315695D01*
X93195851Y-42315694D01*
X93099025Y-42263939D01*
X93013271Y-42218103D01*
X92853235Y-42086765D01*
X92721897Y-41926729D01*
X92676061Y-41840975D01*
X92624306Y-41744149D01*
X92624305Y-41744146D01*
X92564207Y-41546032D01*
X92543915Y-41340000D01*
X92564207Y-41133968D01*
X92624305Y-40935854D01*
X92624306Y-40935851D01*
X92703661Y-40787389D01*
X92721897Y-40753271D01*
X92853235Y-40593235D01*
X93013271Y-40461897D01*
X93099025Y-40416061D01*
X93195851Y-40364306D01*
X93195854Y-40364305D01*
X93393968Y-40304207D01*
X93496903Y-40294069D01*
X93548369Y-40289000D01*
X94251631Y-40289000D01*
X94303097Y-40294069D01*
X94303097Y-40294069D01*
G37*
G36*
X3488643Y-39389919D02*
G01*
X3554827Y-39396437D01*
X3724666Y-39447957D01*
X3881191Y-39531622D01*
X3916929Y-39560952D01*
X4018386Y-39644214D01*
X4101648Y-39745671D01*
X4130978Y-39781409D01*
X4214643Y-39937934D01*
X4266163Y-40107773D01*
X4283559Y-40284400D01*
X4266163Y-40461027D01*
X4214643Y-40630866D01*
X4130978Y-40787391D01*
X4101648Y-40823129D01*
X4018386Y-40924586D01*
X3916929Y-41007848D01*
X3881191Y-41037178D01*
X3724666Y-41120843D01*
X3554827Y-41172363D01*
X3488643Y-41178881D01*
X3422460Y-41185400D01*
X3333940Y-41185400D01*
X3267757Y-41178881D01*
X3201573Y-41172363D01*
X3031734Y-41120843D01*
X2875209Y-41037178D01*
X2839471Y-41007848D01*
X2738014Y-40924586D01*
X2654752Y-40823129D01*
X2625422Y-40787391D01*
X2541757Y-40630866D01*
X2490237Y-40461027D01*
X2472841Y-40284400D01*
X2490237Y-40107773D01*
X2541757Y-39937934D01*
X2625422Y-39781409D01*
X2654752Y-39745671D01*
X2738014Y-39644214D01*
X2839471Y-39560952D01*
X2875209Y-39531622D01*
X3031734Y-39447957D01*
X3201573Y-39396437D01*
X3267757Y-39389919D01*
X3333940Y-39383400D01*
X3422460Y-39383400D01*
X3488643Y-39389919D01*
X3488643Y-39389919D01*
G37*
G36*
X95251000Y-39851000D02*
G01*
X92549000Y-39851000D01*
X92549000Y-37749000D01*
X95251000Y-37749000D01*
X95251000Y-39851000D01*
X95251000Y-39851000D01*
G37*
G36*
X3488642Y-36849918D02*
G01*
X3554827Y-36856437D01*
X3724666Y-36907957D01*
X3881191Y-36991622D01*
X3916929Y-37020952D01*
X4018386Y-37104214D01*
X4101648Y-37205671D01*
X4130978Y-37241409D01*
X4214643Y-37397934D01*
X4266163Y-37567773D01*
X4283559Y-37744400D01*
X4266163Y-37921027D01*
X4214643Y-38090866D01*
X4130978Y-38247391D01*
X4101648Y-38283129D01*
X4018386Y-38384586D01*
X3916929Y-38467848D01*
X3881191Y-38497178D01*
X3724666Y-38580843D01*
X3554827Y-38632363D01*
X3488643Y-38638881D01*
X3422460Y-38645400D01*
X3333940Y-38645400D01*
X3267757Y-38638881D01*
X3201573Y-38632363D01*
X3031734Y-38580843D01*
X2875209Y-38497178D01*
X2839471Y-38467848D01*
X2738014Y-38384586D01*
X2654752Y-38283129D01*
X2625422Y-38247391D01*
X2541757Y-38090866D01*
X2490237Y-37921027D01*
X2472841Y-37744400D01*
X2490237Y-37567773D01*
X2541757Y-37397934D01*
X2625422Y-37241409D01*
X2654752Y-37205671D01*
X2738014Y-37104214D01*
X2839471Y-37020952D01*
X2875209Y-36991622D01*
X3031734Y-36907957D01*
X3201573Y-36856437D01*
X3267758Y-36849918D01*
X3333940Y-36843400D01*
X3422460Y-36843400D01*
X3488642Y-36849918D01*
X3488642Y-36849918D01*
G37*
G36*
X3488643Y-34309919D02*
G01*
X3554827Y-34316437D01*
X3724666Y-34367957D01*
X3881191Y-34451622D01*
X3916929Y-34480952D01*
X4018386Y-34564214D01*
X4101648Y-34665671D01*
X4130978Y-34701409D01*
X4214643Y-34857934D01*
X4266163Y-35027773D01*
X4283559Y-35204400D01*
X4266163Y-35381027D01*
X4214643Y-35550866D01*
X4130978Y-35707391D01*
X4101648Y-35743129D01*
X4018386Y-35844586D01*
X3916929Y-35927848D01*
X3881191Y-35957178D01*
X3724666Y-36040843D01*
X3554827Y-36092363D01*
X3488642Y-36098882D01*
X3422460Y-36105400D01*
X3333940Y-36105400D01*
X3267758Y-36098882D01*
X3201573Y-36092363D01*
X3031734Y-36040843D01*
X2875209Y-35957178D01*
X2839471Y-35927848D01*
X2738014Y-35844586D01*
X2654752Y-35743129D01*
X2625422Y-35707391D01*
X2541757Y-35550866D01*
X2490237Y-35381027D01*
X2472841Y-35204400D01*
X2490237Y-35027773D01*
X2541757Y-34857934D01*
X2625422Y-34701409D01*
X2654752Y-34665671D01*
X2738014Y-34564214D01*
X2839471Y-34480952D01*
X2875209Y-34451622D01*
X3031734Y-34367957D01*
X3201573Y-34316437D01*
X3267757Y-34309919D01*
X3333940Y-34303400D01*
X3422460Y-34303400D01*
X3488643Y-34309919D01*
X3488643Y-34309919D01*
G37*
G36*
X3488642Y-31769918D02*
G01*
X3554827Y-31776437D01*
X3724666Y-31827957D01*
X3881191Y-31911622D01*
X3916929Y-31940952D01*
X4018386Y-32024214D01*
X4101648Y-32125671D01*
X4130978Y-32161409D01*
X4214643Y-32317934D01*
X4266163Y-32487773D01*
X4283559Y-32664400D01*
X4266163Y-32841027D01*
X4214643Y-33010866D01*
X4130978Y-33167391D01*
X4101648Y-33203129D01*
X4018386Y-33304586D01*
X3916929Y-33387848D01*
X3881191Y-33417178D01*
X3724666Y-33500843D01*
X3554827Y-33552363D01*
X3488642Y-33558882D01*
X3422460Y-33565400D01*
X3333940Y-33565400D01*
X3267758Y-33558882D01*
X3201573Y-33552363D01*
X3031734Y-33500843D01*
X2875209Y-33417178D01*
X2839471Y-33387848D01*
X2738014Y-33304586D01*
X2654752Y-33203129D01*
X2625422Y-33167391D01*
X2541757Y-33010866D01*
X2490237Y-32841027D01*
X2472841Y-32664400D01*
X2490237Y-32487773D01*
X2541757Y-32317934D01*
X2625422Y-32161409D01*
X2654752Y-32125671D01*
X2738014Y-32024214D01*
X2839471Y-31940952D01*
X2875209Y-31911622D01*
X3031734Y-31827957D01*
X3201573Y-31776437D01*
X3267758Y-31769918D01*
X3333940Y-31763400D01*
X3422460Y-31763400D01*
X3488642Y-31769918D01*
X3488642Y-31769918D01*
G37*
G36*
X3488642Y-29229918D02*
G01*
X3554827Y-29236437D01*
X3724666Y-29287957D01*
X3881191Y-29371622D01*
X3916929Y-29400952D01*
X4018386Y-29484214D01*
X4101648Y-29585671D01*
X4130978Y-29621409D01*
X4214643Y-29777934D01*
X4266163Y-29947773D01*
X4283559Y-30124400D01*
X4266163Y-30301027D01*
X4214643Y-30470866D01*
X4130978Y-30627391D01*
X4101648Y-30663129D01*
X4018386Y-30764586D01*
X3916929Y-30847848D01*
X3881191Y-30877178D01*
X3724666Y-30960843D01*
X3554827Y-31012363D01*
X3488642Y-31018882D01*
X3422460Y-31025400D01*
X3333940Y-31025400D01*
X3267758Y-31018882D01*
X3201573Y-31012363D01*
X3031734Y-30960843D01*
X2875209Y-30877178D01*
X2839471Y-30847848D01*
X2738014Y-30764586D01*
X2654752Y-30663129D01*
X2625422Y-30627391D01*
X2541757Y-30470866D01*
X2490237Y-30301027D01*
X2472841Y-30124400D01*
X2490237Y-29947773D01*
X2541757Y-29777934D01*
X2625422Y-29621409D01*
X2654752Y-29585671D01*
X2738014Y-29484214D01*
X2839471Y-29400952D01*
X2875209Y-29371622D01*
X3031734Y-29287957D01*
X3201573Y-29236437D01*
X3267758Y-29229918D01*
X3333940Y-29223400D01*
X3422460Y-29223400D01*
X3488642Y-29229918D01*
X3488642Y-29229918D01*
G37*
G36*
X3488642Y-26689918D02*
G01*
X3554827Y-26696437D01*
X3724666Y-26747957D01*
X3881191Y-26831622D01*
X3916929Y-26860952D01*
X4018386Y-26944214D01*
X4101648Y-27045671D01*
X4130978Y-27081409D01*
X4214643Y-27237934D01*
X4266163Y-27407773D01*
X4283559Y-27584400D01*
X4266163Y-27761027D01*
X4214643Y-27930866D01*
X4130978Y-28087391D01*
X4101648Y-28123129D01*
X4018386Y-28224586D01*
X3916929Y-28307848D01*
X3881191Y-28337178D01*
X3724666Y-28420843D01*
X3554827Y-28472363D01*
X3488642Y-28478882D01*
X3422460Y-28485400D01*
X3333940Y-28485400D01*
X3267758Y-28478882D01*
X3201573Y-28472363D01*
X3031734Y-28420843D01*
X2875209Y-28337178D01*
X2839471Y-28307848D01*
X2738014Y-28224586D01*
X2654752Y-28123129D01*
X2625422Y-28087391D01*
X2541757Y-27930866D01*
X2490237Y-27761027D01*
X2472841Y-27584400D01*
X2490237Y-27407773D01*
X2541757Y-27237934D01*
X2625422Y-27081409D01*
X2654752Y-27045671D01*
X2738014Y-26944214D01*
X2839471Y-26860952D01*
X2875209Y-26831622D01*
X3031734Y-26747957D01*
X3201573Y-26696437D01*
X3267758Y-26689918D01*
X3333940Y-26683400D01*
X3422460Y-26683400D01*
X3488642Y-26689918D01*
X3488642Y-26689918D01*
G37*
G36*
X3488643Y-24149919D02*
G01*
X3554827Y-24156437D01*
X3724666Y-24207957D01*
X3881191Y-24291622D01*
X3916929Y-24320952D01*
X4018386Y-24404214D01*
X4101648Y-24505671D01*
X4130978Y-24541409D01*
X4214643Y-24697934D01*
X4266163Y-24867773D01*
X4283559Y-25044400D01*
X4266163Y-25221027D01*
X4214643Y-25390866D01*
X4130978Y-25547391D01*
X4101648Y-25583129D01*
X4018386Y-25684586D01*
X3916929Y-25767848D01*
X3881191Y-25797178D01*
X3724666Y-25880843D01*
X3554827Y-25932363D01*
X3488642Y-25938882D01*
X3422460Y-25945400D01*
X3333940Y-25945400D01*
X3267758Y-25938882D01*
X3201573Y-25932363D01*
X3031734Y-25880843D01*
X2875209Y-25797178D01*
X2839471Y-25767848D01*
X2738014Y-25684586D01*
X2654752Y-25583129D01*
X2625422Y-25547391D01*
X2541757Y-25390866D01*
X2490237Y-25221027D01*
X2472841Y-25044400D01*
X2490237Y-24867773D01*
X2541757Y-24697934D01*
X2625422Y-24541409D01*
X2654752Y-24505671D01*
X2738014Y-24404214D01*
X2839471Y-24320952D01*
X2875209Y-24291622D01*
X3031734Y-24207957D01*
X3201573Y-24156437D01*
X3267757Y-24149919D01*
X3333940Y-24143400D01*
X3422460Y-24143400D01*
X3488643Y-24149919D01*
X3488643Y-24149919D01*
G37*
G36*
X5536694Y-2301860D02*
G01*
X5802437Y-2354719D01*
X6303087Y-2562095D01*
X6483561Y-2682684D01*
X6753660Y-2863158D01*
X7136842Y-3246340D01*
X7317316Y-3516439D01*
X7437905Y-3696913D01*
X7571363Y-4019109D01*
X7645281Y-4197564D01*
X7751000Y-4729049D01*
X7751000Y-5270951D01*
X7715186Y-5451000D01*
X7645281Y-5802437D01*
X7437905Y-6303087D01*
X7381521Y-6387471D01*
X7136842Y-6753660D01*
X6753660Y-7136842D01*
X6490774Y-7312496D01*
X6303087Y-7437905D01*
X5802437Y-7645281D01*
X5536694Y-7698140D01*
X5270951Y-7751000D01*
X4729049Y-7751000D01*
X4463306Y-7698140D01*
X4197563Y-7645281D01*
X3696913Y-7437905D01*
X3509226Y-7312496D01*
X3246340Y-7136842D01*
X2863158Y-6753660D01*
X2618479Y-6387471D01*
X2562095Y-6303087D01*
X2354719Y-5802437D01*
X2284814Y-5451000D01*
X2249000Y-5270951D01*
X2249000Y-4729049D01*
X2354719Y-4197564D01*
X2428637Y-4019109D01*
X2562095Y-3696913D01*
X2682684Y-3516439D01*
X2863158Y-3246340D01*
X3246340Y-2863158D01*
X3516439Y-2682684D01*
X3696913Y-2562095D01*
X4197563Y-2354719D01*
X4463306Y-2301860D01*
X4729049Y-2249000D01*
X5270951Y-2249000D01*
X5536694Y-2301860D01*
X5536694Y-2301860D01*
G37*
G36*
X95536694Y-2301860D02*
G01*
X95802437Y-2354719D01*
X96303087Y-2562095D01*
X96483561Y-2682684D01*
X96753660Y-2863158D01*
X97136842Y-3246340D01*
X97317316Y-3516439D01*
X97437905Y-3696913D01*
X97571363Y-4019109D01*
X97645281Y-4197564D01*
X97751000Y-4729049D01*
X97751000Y-5270951D01*
X97715186Y-5451000D01*
X97645281Y-5802437D01*
X97437905Y-6303087D01*
X97381521Y-6387471D01*
X97136842Y-6753660D01*
X96753660Y-7136842D01*
X96490774Y-7312496D01*
X96303087Y-7437905D01*
X95802437Y-7645281D01*
X95536694Y-7698140D01*
X95270951Y-7751000D01*
X94729049Y-7751000D01*
X94463306Y-7698140D01*
X94197563Y-7645281D01*
X93696913Y-7437905D01*
X93509226Y-7312496D01*
X93246340Y-7136842D01*
X92863158Y-6753660D01*
X92618479Y-6387471D01*
X92562095Y-6303087D01*
X92354719Y-5802437D01*
X92284814Y-5451000D01*
X92249000Y-5270951D01*
X92249000Y-4729049D01*
X92354719Y-4197564D01*
X92428637Y-4019109D01*
X92562095Y-3696913D01*
X92682684Y-3516439D01*
X92863158Y-3246340D01*
X93246340Y-2863158D01*
X93516439Y-2682684D01*
X93696913Y-2562095D01*
X94197563Y-2354719D01*
X94463306Y-2301860D01*
X94729049Y-2249000D01*
X95270951Y-2249000D01*
X95536694Y-2301860D01*
X95536694Y-2301860D01*
G37*
M02*
