G04 #@! TF.GenerationSoftware,KiCad,Pcbnew,6.0.0-rc1-unknown-5edf350~66~ubuntu18.10.1*
G04 #@! TF.CreationDate,2019-02-07T09:42:41-05:00
G04 #@! TF.ProjectId,BMS-Slave,424d532d-536c-4617-9665-2e6b69636164,V0.2*
G04 #@! TF.SameCoordinates,Original*
G04 #@! TF.FileFunction,Legend,Bot*
G04 #@! TF.FilePolarity,Positive*
%FSLAX46Y46*%
G04 Gerber Fmt 4.6, Leading zero omitted, Abs format (unit mm)*
G04 Created by KiCad (PCBNEW 6.0.0-rc1-unknown-5edf350~66~ubuntu18.10.1) date 2019-02-07 09:42:41*
%MOMM*%
%LPD*%
G04 APERTURE LIST*
%ADD10C,0.300000*%
%ADD11C,0.010000*%
G04 APERTURE END LIST*
D10*
X87719285Y-47332142D02*
X87505000Y-47403571D01*
X87147857Y-47403571D01*
X87005000Y-47332142D01*
X86933571Y-47260714D01*
X86862142Y-47117857D01*
X86862142Y-46975000D01*
X86933571Y-46832142D01*
X87005000Y-46760714D01*
X87147857Y-46689285D01*
X87433571Y-46617857D01*
X87576428Y-46546428D01*
X87647857Y-46475000D01*
X87719285Y-46332142D01*
X87719285Y-46189285D01*
X87647857Y-46046428D01*
X87576428Y-45975000D01*
X87433571Y-45903571D01*
X87076428Y-45903571D01*
X86862142Y-45975000D01*
X86005000Y-47403571D02*
X86147857Y-47332142D01*
X86219285Y-47189285D01*
X86219285Y-45903571D01*
X84790714Y-47403571D02*
X84790714Y-46617857D01*
X84862142Y-46475000D01*
X85005000Y-46403571D01*
X85290714Y-46403571D01*
X85433571Y-46475000D01*
X84790714Y-47332142D02*
X84933571Y-47403571D01*
X85290714Y-47403571D01*
X85433571Y-47332142D01*
X85505000Y-47189285D01*
X85505000Y-47046428D01*
X85433571Y-46903571D01*
X85290714Y-46832142D01*
X84933571Y-46832142D01*
X84790714Y-46760714D01*
X84219285Y-46403571D02*
X83862142Y-47403571D01*
X83505000Y-46403571D01*
X82362142Y-47332142D02*
X82505000Y-47403571D01*
X82790714Y-47403571D01*
X82933571Y-47332142D01*
X83005000Y-47189285D01*
X83005000Y-46617857D01*
X82933571Y-46475000D01*
X82790714Y-46403571D01*
X82505000Y-46403571D01*
X82362142Y-46475000D01*
X82290714Y-46617857D01*
X82290714Y-46760714D01*
X83005000Y-46903571D01*
X79790714Y-47403571D02*
X80505000Y-47403571D01*
X80505000Y-45903571D01*
X79505000Y-45903571D02*
X78647857Y-45903571D01*
X79076428Y-47403571D02*
X79076428Y-45903571D01*
X77290714Y-47260714D02*
X77362142Y-47332142D01*
X77576428Y-47403571D01*
X77719285Y-47403571D01*
X77933571Y-47332142D01*
X78076428Y-47189285D01*
X78147857Y-47046428D01*
X78219285Y-46760714D01*
X78219285Y-46546428D01*
X78147857Y-46260714D01*
X78076428Y-46117857D01*
X77933571Y-45975000D01*
X77719285Y-45903571D01*
X77576428Y-45903571D01*
X77362142Y-45975000D01*
X77290714Y-46046428D01*
X76005000Y-45903571D02*
X76290714Y-45903571D01*
X76433571Y-45975000D01*
X76505000Y-46046428D01*
X76647857Y-46260714D01*
X76719285Y-46546428D01*
X76719285Y-47117857D01*
X76647857Y-47260714D01*
X76576428Y-47332142D01*
X76433571Y-47403571D01*
X76147857Y-47403571D01*
X76005000Y-47332142D01*
X75933571Y-47260714D01*
X75862142Y-47117857D01*
X75862142Y-46760714D01*
X75933571Y-46617857D01*
X76005000Y-46546428D01*
X76147857Y-46475000D01*
X76433571Y-46475000D01*
X76576428Y-46546428D01*
X76647857Y-46617857D01*
X76719285Y-46760714D01*
X75005000Y-46546428D02*
X75147857Y-46475000D01*
X75219285Y-46403571D01*
X75290714Y-46260714D01*
X75290714Y-46189285D01*
X75219285Y-46046428D01*
X75147857Y-45975000D01*
X75005000Y-45903571D01*
X74719285Y-45903571D01*
X74576428Y-45975000D01*
X74505000Y-46046428D01*
X74433571Y-46189285D01*
X74433571Y-46260714D01*
X74505000Y-46403571D01*
X74576428Y-46475000D01*
X74719285Y-46546428D01*
X75005000Y-46546428D01*
X75147857Y-46617857D01*
X75219285Y-46689285D01*
X75290714Y-46832142D01*
X75290714Y-47117857D01*
X75219285Y-47260714D01*
X75147857Y-47332142D01*
X75005000Y-47403571D01*
X74719285Y-47403571D01*
X74576428Y-47332142D01*
X74505000Y-47260714D01*
X74433571Y-47117857D01*
X74433571Y-46832142D01*
X74505000Y-46689285D01*
X74576428Y-46617857D01*
X74719285Y-46546428D01*
X73005000Y-47403571D02*
X73862142Y-47403571D01*
X73433571Y-47403571D02*
X73433571Y-45903571D01*
X73576428Y-46117857D01*
X73719285Y-46260714D01*
X73862142Y-46332142D01*
X72505000Y-45903571D02*
X71576428Y-45903571D01*
X72076428Y-46475000D01*
X71862142Y-46475000D01*
X71719285Y-46546428D01*
X71647857Y-46617857D01*
X71576428Y-46760714D01*
X71576428Y-47117857D01*
X71647857Y-47260714D01*
X71719285Y-47332142D01*
X71862142Y-47403571D01*
X72290714Y-47403571D01*
X72433571Y-47332142D01*
X72505000Y-47260714D01*
X69790714Y-46832142D02*
X68647857Y-46832142D01*
X66505000Y-45903571D02*
X66362142Y-45903571D01*
X66219285Y-45975000D01*
X66147857Y-46046428D01*
X66076428Y-46189285D01*
X66005000Y-46475000D01*
X66005000Y-46832142D01*
X66076428Y-47117857D01*
X66147857Y-47260714D01*
X66219285Y-47332142D01*
X66362142Y-47403571D01*
X66505000Y-47403571D01*
X66647857Y-47332142D01*
X66719285Y-47260714D01*
X66790714Y-47117857D01*
X66862142Y-46832142D01*
X66862142Y-46475000D01*
X66790714Y-46189285D01*
X66719285Y-46046428D01*
X66647857Y-45975000D01*
X66505000Y-45903571D01*
X64576428Y-47403571D02*
X65433571Y-47403571D01*
X65005000Y-47403571D02*
X65005000Y-45903571D01*
X65147857Y-46117857D01*
X65290714Y-46260714D01*
X65433571Y-46332142D01*
X62862142Y-45832142D02*
X64147857Y-47760714D01*
X62433571Y-46046428D02*
X62362142Y-45975000D01*
X62219285Y-45903571D01*
X61862142Y-45903571D01*
X61719285Y-45975000D01*
X61647857Y-46046428D01*
X61576428Y-46189285D01*
X61576428Y-46332142D01*
X61647857Y-46546428D01*
X62505000Y-47403571D01*
X61576428Y-47403571D01*
X60647857Y-45903571D02*
X60505000Y-45903571D01*
X60362142Y-45975000D01*
X60290714Y-46046428D01*
X60219285Y-46189285D01*
X60147857Y-46475000D01*
X60147857Y-46832142D01*
X60219285Y-47117857D01*
X60290714Y-47260714D01*
X60362142Y-47332142D01*
X60505000Y-47403571D01*
X60647857Y-47403571D01*
X60790714Y-47332142D01*
X60862142Y-47260714D01*
X60933571Y-47117857D01*
X61005000Y-46832142D01*
X61005000Y-46475000D01*
X60933571Y-46189285D01*
X60862142Y-46046428D01*
X60790714Y-45975000D01*
X60647857Y-45903571D01*
X58719285Y-47403571D02*
X59576428Y-47403571D01*
X59147857Y-47403571D02*
X59147857Y-45903571D01*
X59290714Y-46117857D01*
X59433571Y-46260714D01*
X59576428Y-46332142D01*
X57862142Y-46546428D02*
X58005000Y-46475000D01*
X58076428Y-46403571D01*
X58147857Y-46260714D01*
X58147857Y-46189285D01*
X58076428Y-46046428D01*
X58005000Y-45975000D01*
X57862142Y-45903571D01*
X57576428Y-45903571D01*
X57433571Y-45975000D01*
X57362142Y-46046428D01*
X57290714Y-46189285D01*
X57290714Y-46260714D01*
X57362142Y-46403571D01*
X57433571Y-46475000D01*
X57576428Y-46546428D01*
X57862142Y-46546428D01*
X58005000Y-46617857D01*
X58076428Y-46689285D01*
X58147857Y-46832142D01*
X58147857Y-47117857D01*
X58076428Y-47260714D01*
X58005000Y-47332142D01*
X57862142Y-47403571D01*
X57576428Y-47403571D01*
X57433571Y-47332142D01*
X57362142Y-47260714D01*
X57290714Y-47117857D01*
X57290714Y-46832142D01*
X57362142Y-46689285D01*
X57433571Y-46617857D01*
X57576428Y-46546428D01*
X87647857Y-49953571D02*
X87647857Y-48453571D01*
X87005000Y-49953571D02*
X87005000Y-49167857D01*
X87076428Y-49025000D01*
X87219285Y-48953571D01*
X87433571Y-48953571D01*
X87576428Y-49025000D01*
X87647857Y-49096428D01*
X86505000Y-48953571D02*
X85933571Y-48953571D01*
X86290714Y-48453571D02*
X86290714Y-49739285D01*
X86219285Y-49882142D01*
X86076428Y-49953571D01*
X85933571Y-49953571D01*
X85647857Y-48953571D02*
X85076428Y-48953571D01*
X85433571Y-48453571D02*
X85433571Y-49739285D01*
X85362142Y-49882142D01*
X85219285Y-49953571D01*
X85076428Y-49953571D01*
X84576428Y-48953571D02*
X84576428Y-50453571D01*
X84576428Y-49025000D02*
X84433571Y-48953571D01*
X84147857Y-48953571D01*
X84005000Y-49025000D01*
X83933571Y-49096428D01*
X83862142Y-49239285D01*
X83862142Y-49667857D01*
X83933571Y-49810714D01*
X84005000Y-49882142D01*
X84147857Y-49953571D01*
X84433571Y-49953571D01*
X84576428Y-49882142D01*
X83290714Y-49882142D02*
X83147857Y-49953571D01*
X82862142Y-49953571D01*
X82719285Y-49882142D01*
X82647857Y-49739285D01*
X82647857Y-49667857D01*
X82719285Y-49525000D01*
X82862142Y-49453571D01*
X83076428Y-49453571D01*
X83219285Y-49382142D01*
X83290714Y-49239285D01*
X83290714Y-49167857D01*
X83219285Y-49025000D01*
X83076428Y-48953571D01*
X82862142Y-48953571D01*
X82719285Y-49025000D01*
X82005000Y-49810714D02*
X81933571Y-49882142D01*
X82005000Y-49953571D01*
X82076428Y-49882142D01*
X82005000Y-49810714D01*
X82005000Y-49953571D01*
X82005000Y-49025000D02*
X81933571Y-49096428D01*
X82005000Y-49167857D01*
X82076428Y-49096428D01*
X82005000Y-49025000D01*
X82005000Y-49167857D01*
X80219285Y-48382142D02*
X81505000Y-50310714D01*
X78647857Y-48382142D02*
X79933571Y-50310714D01*
X77504999Y-48953571D02*
X77504999Y-50167857D01*
X77576428Y-50310714D01*
X77647857Y-50382142D01*
X77790714Y-50453571D01*
X78004999Y-50453571D01*
X78147857Y-50382142D01*
X77504999Y-49882142D02*
X77647857Y-49953571D01*
X77933571Y-49953571D01*
X78076428Y-49882142D01*
X78147857Y-49810714D01*
X78219285Y-49667857D01*
X78219285Y-49239285D01*
X78147857Y-49096428D01*
X78076428Y-49025000D01*
X77933571Y-48953571D01*
X77647857Y-48953571D01*
X77504999Y-49025000D01*
X76790714Y-49953571D02*
X76790714Y-48953571D01*
X76790714Y-48453571D02*
X76862142Y-48525000D01*
X76790714Y-48596428D01*
X76719285Y-48525000D01*
X76790714Y-48453571D01*
X76790714Y-48596428D01*
X76290714Y-48953571D02*
X75719285Y-48953571D01*
X76076428Y-48453571D02*
X76076428Y-49739285D01*
X76004999Y-49882142D01*
X75862142Y-49953571D01*
X75719285Y-49953571D01*
X75219285Y-49953571D02*
X75219285Y-48453571D01*
X74576428Y-49953571D02*
X74576428Y-49167857D01*
X74647857Y-49025000D01*
X74790714Y-48953571D01*
X75004999Y-48953571D01*
X75147857Y-49025000D01*
X75219285Y-49096428D01*
X73219285Y-48953571D02*
X73219285Y-49953571D01*
X73862142Y-48953571D02*
X73862142Y-49739285D01*
X73790714Y-49882142D01*
X73647857Y-49953571D01*
X73433571Y-49953571D01*
X73290714Y-49882142D01*
X73219285Y-49810714D01*
X72504999Y-49953571D02*
X72504999Y-48453571D01*
X72504999Y-49025000D02*
X72362142Y-48953571D01*
X72076428Y-48953571D01*
X71933571Y-49025000D01*
X71862142Y-49096428D01*
X71790714Y-49239285D01*
X71790714Y-49667857D01*
X71862142Y-49810714D01*
X71933571Y-49882142D01*
X72076428Y-49953571D01*
X72362142Y-49953571D01*
X72504999Y-49882142D01*
X71147857Y-49810714D02*
X71076428Y-49882142D01*
X71147857Y-49953571D01*
X71219285Y-49882142D01*
X71147857Y-49810714D01*
X71147857Y-49953571D01*
X69790714Y-49882142D02*
X69933571Y-49953571D01*
X70219285Y-49953571D01*
X70362142Y-49882142D01*
X70433571Y-49810714D01*
X70504999Y-49667857D01*
X70504999Y-49239285D01*
X70433571Y-49096428D01*
X70362142Y-49025000D01*
X70219285Y-48953571D01*
X69933571Y-48953571D01*
X69790714Y-49025000D01*
X68933571Y-49953571D02*
X69076428Y-49882142D01*
X69147857Y-49810714D01*
X69219285Y-49667857D01*
X69219285Y-49239285D01*
X69147857Y-49096428D01*
X69076428Y-49025000D01*
X68933571Y-48953571D01*
X68719285Y-48953571D01*
X68576428Y-49025000D01*
X68504999Y-49096428D01*
X68433571Y-49239285D01*
X68433571Y-49667857D01*
X68504999Y-49810714D01*
X68576428Y-49882142D01*
X68719285Y-49953571D01*
X68933571Y-49953571D01*
X67790714Y-49953571D02*
X67790714Y-48953571D01*
X67790714Y-49096428D02*
X67719285Y-49025000D01*
X67576428Y-48953571D01*
X67362142Y-48953571D01*
X67219285Y-49025000D01*
X67147857Y-49167857D01*
X67147857Y-49953571D01*
X67147857Y-49167857D02*
X67076428Y-49025000D01*
X66933571Y-48953571D01*
X66719285Y-48953571D01*
X66576428Y-49025000D01*
X66504999Y-49167857D01*
X66504999Y-49953571D01*
X64719285Y-48382142D02*
X66004999Y-50310714D01*
X64219285Y-49167857D02*
X63719285Y-49167857D01*
X63504999Y-49953571D02*
X64219285Y-49953571D01*
X64219285Y-48453571D01*
X63504999Y-48453571D01*
X62862142Y-48953571D02*
X62862142Y-49953571D01*
X62862142Y-49096428D02*
X62790714Y-49025000D01*
X62647857Y-48953571D01*
X62433571Y-48953571D01*
X62290714Y-49025000D01*
X62219285Y-49167857D01*
X62219285Y-49953571D01*
X61504999Y-48953571D02*
X61504999Y-49953571D01*
X61504999Y-49096428D02*
X61433571Y-49025000D01*
X61290714Y-48953571D01*
X61076428Y-48953571D01*
X60933571Y-49025000D01*
X60862142Y-49167857D01*
X60862142Y-49953571D01*
X59933571Y-49953571D02*
X60076428Y-49882142D01*
X60147857Y-49810714D01*
X60219285Y-49667857D01*
X60219285Y-49239285D01*
X60147857Y-49096428D01*
X60076428Y-49025000D01*
X59933571Y-48953571D01*
X59719285Y-48953571D01*
X59576428Y-49025000D01*
X59504999Y-49096428D01*
X59433571Y-49239285D01*
X59433571Y-49667857D01*
X59504999Y-49810714D01*
X59576428Y-49882142D01*
X59719285Y-49953571D01*
X59933571Y-49953571D01*
X58790714Y-49953571D02*
X58790714Y-48953571D01*
X58790714Y-48453571D02*
X58862142Y-48525000D01*
X58790714Y-48596428D01*
X58719285Y-48525000D01*
X58790714Y-48453571D01*
X58790714Y-48596428D01*
X57433571Y-49953571D02*
X57433571Y-48453571D01*
X57433571Y-49882142D02*
X57576428Y-49953571D01*
X57862142Y-49953571D01*
X58004999Y-49882142D01*
X58076428Y-49810714D01*
X58147857Y-49667857D01*
X58147857Y-49239285D01*
X58076428Y-49096428D01*
X58004999Y-49025000D01*
X57862142Y-48953571D01*
X57576428Y-48953571D01*
X57433571Y-49025000D01*
X56719285Y-49953571D02*
X56719285Y-48453571D01*
X56219285Y-49525000D01*
X55719285Y-48453571D01*
X55719285Y-49953571D01*
X54433571Y-49882142D02*
X54576428Y-49953571D01*
X54862142Y-49953571D01*
X55004999Y-49882142D01*
X55076428Y-49739285D01*
X55076428Y-49167857D01*
X55004999Y-49025000D01*
X54862142Y-48953571D01*
X54576428Y-48953571D01*
X54433571Y-49025000D01*
X54362142Y-49167857D01*
X54362142Y-49310714D01*
X55076428Y-49453571D01*
X52647857Y-48382142D02*
X53933571Y-50310714D01*
X52147857Y-49167857D02*
X51647857Y-49167857D01*
X51433571Y-49953571D02*
X52147857Y-49953571D01*
X52147857Y-48453571D01*
X51433571Y-48453571D01*
X50790714Y-49953571D02*
X50790714Y-48453571D01*
X49933571Y-49953571D01*
X49933571Y-48453571D01*
X49219285Y-49953571D02*
X49219285Y-48453571D01*
X48362142Y-49953571D01*
X48362142Y-48453571D01*
X47362142Y-48453571D02*
X47076428Y-48453571D01*
X46933571Y-48525000D01*
X46790714Y-48667857D01*
X46719285Y-48953571D01*
X46719285Y-49453571D01*
X46790714Y-49739285D01*
X46933571Y-49882142D01*
X47076428Y-49953571D01*
X47362142Y-49953571D01*
X47504999Y-49882142D01*
X47647857Y-49739285D01*
X47719285Y-49453571D01*
X47719285Y-48953571D01*
X47647857Y-48667857D01*
X47504999Y-48525000D01*
X47362142Y-48453571D01*
X46076428Y-49953571D02*
X46076428Y-48453571D01*
X45362142Y-49953571D02*
X45362142Y-48453571D01*
X45004999Y-48453571D01*
X44790714Y-48525000D01*
X44647857Y-48667857D01*
X44576428Y-48810714D01*
X44504999Y-49096428D01*
X44504999Y-49310714D01*
X44576428Y-49596428D01*
X44647857Y-49739285D01*
X44790714Y-49882142D01*
X45004999Y-49953571D01*
X45362142Y-49953571D01*
X43862142Y-49382142D02*
X42719285Y-49382142D01*
X41504999Y-49167857D02*
X41290714Y-49239285D01*
X41219285Y-49310714D01*
X41147857Y-49453571D01*
X41147857Y-49667857D01*
X41219285Y-49810714D01*
X41290714Y-49882142D01*
X41433571Y-49953571D01*
X42004999Y-49953571D01*
X42004999Y-48453571D01*
X41504999Y-48453571D01*
X41362142Y-48525000D01*
X41290714Y-48596428D01*
X41219285Y-48739285D01*
X41219285Y-48882142D01*
X41290714Y-49025000D01*
X41362142Y-49096428D01*
X41504999Y-49167857D01*
X42004999Y-49167857D01*
X40504999Y-49953571D02*
X40504999Y-48453571D01*
X40004999Y-49525000D01*
X39504999Y-48453571D01*
X39504999Y-49953571D01*
X38862142Y-49882142D02*
X38647857Y-49953571D01*
X38290714Y-49953571D01*
X38147857Y-49882142D01*
X38076428Y-49810714D01*
X38004999Y-49667857D01*
X38004999Y-49525000D01*
X38076428Y-49382142D01*
X38147857Y-49310714D01*
X38290714Y-49239285D01*
X38576428Y-49167857D01*
X38719285Y-49096428D01*
X38790714Y-49025000D01*
X38862142Y-48882142D01*
X38862142Y-48739285D01*
X38790714Y-48596428D01*
X38719285Y-48525000D01*
X38576428Y-48453571D01*
X38219285Y-48453571D01*
X38004999Y-48525000D01*
D11*
G36*
X56064724Y-43560250D02*
G01*
X57412695Y-43560250D01*
X57412695Y-36212487D01*
X56064724Y-36212487D01*
X56064724Y-43560250D01*
X56064724Y-43560250D01*
G37*
X56064724Y-43560250D02*
X57412695Y-43560250D01*
X57412695Y-36212487D01*
X56064724Y-36212487D01*
X56064724Y-43560250D01*
G36*
X72195727Y-36443757D02*
G01*
X71976629Y-36691875D01*
X71743506Y-36967007D01*
X71493749Y-37272411D01*
X71224754Y-37611346D01*
X70933913Y-37987068D01*
X70618620Y-38402837D01*
X70473500Y-38596586D01*
X70348160Y-38765994D01*
X70208227Y-38957727D01*
X70057712Y-39166079D01*
X69900621Y-39385349D01*
X69740966Y-39609831D01*
X69582754Y-39833824D01*
X69429994Y-40051622D01*
X69286696Y-40257523D01*
X69156868Y-40445822D01*
X69044519Y-40610817D01*
X68953659Y-40746804D01*
X68888295Y-40848079D01*
X68870001Y-40877903D01*
X68791155Y-41009678D01*
X68784407Y-38611083D01*
X68777660Y-36212487D01*
X67429968Y-36212487D01*
X67429968Y-43560250D01*
X68580762Y-43560250D01*
X68697420Y-43368627D01*
X68878810Y-43074217D01*
X69084148Y-42747089D01*
X69306714Y-42397579D01*
X69539788Y-42036025D01*
X69776651Y-41672765D01*
X70010581Y-41318136D01*
X70234859Y-40982475D01*
X70442766Y-40676120D01*
X70531571Y-40547139D01*
X70637378Y-40396464D01*
X70765060Y-40218178D01*
X70909342Y-40019359D01*
X71064947Y-39807087D01*
X71226602Y-39588439D01*
X71389030Y-39370495D01*
X71546957Y-39160335D01*
X71695107Y-38965037D01*
X71828205Y-38791679D01*
X71940975Y-38647342D01*
X72026314Y-38541318D01*
X72187513Y-38346007D01*
X72187513Y-43560250D01*
X73535483Y-43560250D01*
X73535483Y-36212487D01*
X72404679Y-36212487D01*
X72195727Y-36443757D01*
X72195727Y-36443757D01*
G37*
X72195727Y-36443757D02*
X71976629Y-36691875D01*
X71743506Y-36967007D01*
X71493749Y-37272411D01*
X71224754Y-37611346D01*
X70933913Y-37987068D01*
X70618620Y-38402837D01*
X70473500Y-38596586D01*
X70348160Y-38765994D01*
X70208227Y-38957727D01*
X70057712Y-39166079D01*
X69900621Y-39385349D01*
X69740966Y-39609831D01*
X69582754Y-39833824D01*
X69429994Y-40051622D01*
X69286696Y-40257523D01*
X69156868Y-40445822D01*
X69044519Y-40610817D01*
X68953659Y-40746804D01*
X68888295Y-40848079D01*
X68870001Y-40877903D01*
X68791155Y-41009678D01*
X68784407Y-38611083D01*
X68777660Y-36212487D01*
X67429968Y-36212487D01*
X67429968Y-43560250D01*
X68580762Y-43560250D01*
X68697420Y-43368627D01*
X68878810Y-43074217D01*
X69084148Y-42747089D01*
X69306714Y-42397579D01*
X69539788Y-42036025D01*
X69776651Y-41672765D01*
X70010581Y-41318136D01*
X70234859Y-40982475D01*
X70442766Y-40676120D01*
X70531571Y-40547139D01*
X70637378Y-40396464D01*
X70765060Y-40218178D01*
X70909342Y-40019359D01*
X71064947Y-39807087D01*
X71226602Y-39588439D01*
X71389030Y-39370495D01*
X71546957Y-39160335D01*
X71695107Y-38965037D01*
X71828205Y-38791679D01*
X71940975Y-38647342D01*
X72026314Y-38541318D01*
X72187513Y-38346007D01*
X72187513Y-43560250D01*
X73535483Y-43560250D01*
X73535483Y-36212487D01*
X72404679Y-36212487D01*
X72195727Y-36443757D01*
G36*
X79925581Y-36562695D02*
G01*
X79639541Y-36896309D01*
X79331926Y-37270216D01*
X79007089Y-37678642D01*
X78669383Y-38115813D01*
X78323160Y-38575956D01*
X77972775Y-39053298D01*
X77622579Y-39542064D01*
X77276926Y-40036482D01*
X76992710Y-40452769D01*
X76601456Y-41032385D01*
X76601456Y-36212487D01*
X75253486Y-36212487D01*
X75253486Y-43560250D01*
X76417742Y-43560250D01*
X76489776Y-43439003D01*
X76562488Y-43318907D01*
X76659678Y-43161833D01*
X76776758Y-42974957D01*
X76909143Y-42765454D01*
X77052244Y-42540501D01*
X77201476Y-42307275D01*
X77352252Y-42072950D01*
X77499984Y-41844704D01*
X77640086Y-41629711D01*
X77767971Y-41435149D01*
X77839601Y-41327196D01*
X78239813Y-40736100D01*
X78636269Y-40168931D01*
X79024551Y-39631797D01*
X79400246Y-39130810D01*
X79757340Y-38674070D01*
X79997814Y-38373633D01*
X80004552Y-40966942D01*
X80011289Y-43560250D01*
X81359001Y-43560250D01*
X81359001Y-36212487D01*
X80233364Y-36212487D01*
X79925581Y-36562695D01*
X79925581Y-36562695D01*
G37*
X79925581Y-36562695D02*
X79639541Y-36896309D01*
X79331926Y-37270216D01*
X79007089Y-37678642D01*
X78669383Y-38115813D01*
X78323160Y-38575956D01*
X77972775Y-39053298D01*
X77622579Y-39542064D01*
X77276926Y-40036482D01*
X76992710Y-40452769D01*
X76601456Y-41032385D01*
X76601456Y-36212487D01*
X75253486Y-36212487D01*
X75253486Y-43560250D01*
X76417742Y-43560250D01*
X76489776Y-43439003D01*
X76562488Y-43318907D01*
X76659678Y-43161833D01*
X76776758Y-42974957D01*
X76909143Y-42765454D01*
X77052244Y-42540501D01*
X77201476Y-42307275D01*
X77352252Y-42072950D01*
X77499984Y-41844704D01*
X77640086Y-41629711D01*
X77767971Y-41435149D01*
X77839601Y-41327196D01*
X78239813Y-40736100D01*
X78636269Y-40168931D01*
X79024551Y-39631797D01*
X79400246Y-39130810D01*
X79757340Y-38674070D01*
X79997814Y-38373633D01*
X80004552Y-40966942D01*
X80011289Y-43560250D01*
X81359001Y-43560250D01*
X81359001Y-36212487D01*
X80233364Y-36212487D01*
X79925581Y-36562695D01*
G36*
X82812695Y-37375443D02*
G01*
X86195837Y-37375443D01*
X86195837Y-39146306D01*
X83182726Y-39146306D01*
X83182726Y-40282831D01*
X86195837Y-40282831D01*
X86195837Y-42397295D01*
X82574817Y-42397295D01*
X82574817Y-43560250D01*
X87570239Y-43560250D01*
X87570239Y-36212487D01*
X82812695Y-36212487D01*
X82812695Y-37375443D01*
X82812695Y-37375443D01*
G37*
X82812695Y-37375443D02*
X86195837Y-37375443D01*
X86195837Y-39146306D01*
X83182726Y-39146306D01*
X83182726Y-40282831D01*
X86195837Y-40282831D01*
X86195837Y-42397295D01*
X82574817Y-42397295D01*
X82574817Y-43560250D01*
X87570239Y-43560250D01*
X87570239Y-36212487D01*
X82812695Y-36212487D01*
X82812695Y-37375443D01*
G36*
X52021357Y-36147397D02*
G01*
X51761424Y-36155122D01*
X51528997Y-36169084D01*
X51332104Y-36189589D01*
X51298794Y-36194337D01*
X50849686Y-36276317D01*
X50444252Y-36381796D01*
X50077796Y-36512944D01*
X49745622Y-36671935D01*
X49443035Y-36860942D01*
X49165337Y-37082137D01*
X48968641Y-37272485D01*
X48721696Y-37566569D01*
X48515450Y-37889892D01*
X48349282Y-38244034D01*
X48222569Y-38630576D01*
X48134689Y-39051098D01*
X48085021Y-39507181D01*
X48084208Y-39519950D01*
X48073317Y-40020754D01*
X48104867Y-40492778D01*
X48178488Y-40935273D01*
X48293808Y-41347488D01*
X48450458Y-41728674D01*
X48648066Y-42078082D01*
X48886261Y-42394961D01*
X49164674Y-42678563D01*
X49482932Y-42928137D01*
X49840666Y-43142934D01*
X49888100Y-43167281D01*
X50206769Y-43311032D01*
X50539764Y-43426856D01*
X50893371Y-43515952D01*
X51273878Y-43579521D01*
X51687574Y-43618765D01*
X52140744Y-43634884D01*
X52337819Y-43635099D01*
X52512989Y-43633380D01*
X52676520Y-43631125D01*
X52818772Y-43628518D01*
X52930103Y-43625742D01*
X53000872Y-43622981D01*
X53011966Y-43622247D01*
X53339298Y-43594359D01*
X53624684Y-43566177D01*
X53865787Y-43537990D01*
X54060267Y-43510090D01*
X54205784Y-43482769D01*
X54274037Y-43465143D01*
X54280610Y-43461089D01*
X54286531Y-43451414D01*
X54291834Y-43433493D01*
X54296553Y-43404699D01*
X54300721Y-43362408D01*
X54304373Y-43303994D01*
X54307542Y-43226832D01*
X54310263Y-43128295D01*
X54312569Y-43005760D01*
X54314495Y-42856600D01*
X54316073Y-42678190D01*
X54317339Y-42467905D01*
X54318326Y-42223119D01*
X54319068Y-41941206D01*
X54319599Y-41619542D01*
X54319953Y-41255500D01*
X54320163Y-40846456D01*
X54320265Y-40389784D01*
X54320291Y-39886369D01*
X54320264Y-39379786D01*
X54320163Y-38923439D01*
X54319951Y-38514704D01*
X54319596Y-38150955D01*
X54319064Y-37829566D01*
X54318321Y-37547914D01*
X54317543Y-37355177D01*
X52945889Y-37355177D01*
X52945889Y-42450156D01*
X52357804Y-42450001D01*
X52093563Y-42447467D01*
X51862074Y-42440213D01*
X51669901Y-42428536D01*
X51523610Y-42412733D01*
X51518516Y-42411976D01*
X51148529Y-42334701D01*
X50815795Y-42220003D01*
X50520257Y-42067819D01*
X50261858Y-41878084D01*
X50040542Y-41650732D01*
X49856254Y-41385700D01*
X49708937Y-41082923D01*
X49598535Y-40742335D01*
X49524992Y-40363873D01*
X49495989Y-40084600D01*
X49490486Y-39793150D01*
X49512202Y-39488597D01*
X49558688Y-39184847D01*
X49627494Y-38895807D01*
X49716169Y-38635386D01*
X49774028Y-38506361D01*
X49938686Y-38228068D01*
X50136867Y-37988172D01*
X50369828Y-37785858D01*
X50638829Y-37620307D01*
X50945129Y-37490702D01*
X51289984Y-37396226D01*
X51553577Y-37350750D01*
X51639417Y-37342591D01*
X51761549Y-37335735D01*
X51910265Y-37330265D01*
X52075858Y-37326266D01*
X52248621Y-37323820D01*
X52418846Y-37323013D01*
X52576827Y-37323927D01*
X52712855Y-37326647D01*
X52817223Y-37331257D01*
X52880224Y-37337840D01*
X52886420Y-37339240D01*
X52945889Y-37355177D01*
X54317543Y-37355177D01*
X54317333Y-37303372D01*
X54316065Y-37093315D01*
X54314485Y-36915119D01*
X54312557Y-36766157D01*
X54310249Y-36643806D01*
X54307525Y-36545439D01*
X54304353Y-36468432D01*
X54300699Y-36410159D01*
X54296527Y-36367995D01*
X54291806Y-36339316D01*
X54286499Y-36321495D01*
X54280574Y-36311908D01*
X54274037Y-36307941D01*
X54127775Y-36273330D01*
X53936773Y-36242197D01*
X53709060Y-36214849D01*
X53452662Y-36191591D01*
X53175606Y-36172731D01*
X52885921Y-36158575D01*
X52591633Y-36149430D01*
X52300769Y-36145601D01*
X52021357Y-36147397D01*
X52021357Y-36147397D01*
G37*
X52021357Y-36147397D02*
X51761424Y-36155122D01*
X51528997Y-36169084D01*
X51332104Y-36189589D01*
X51298794Y-36194337D01*
X50849686Y-36276317D01*
X50444252Y-36381796D01*
X50077796Y-36512944D01*
X49745622Y-36671935D01*
X49443035Y-36860942D01*
X49165337Y-37082137D01*
X48968641Y-37272485D01*
X48721696Y-37566569D01*
X48515450Y-37889892D01*
X48349282Y-38244034D01*
X48222569Y-38630576D01*
X48134689Y-39051098D01*
X48085021Y-39507181D01*
X48084208Y-39519950D01*
X48073317Y-40020754D01*
X48104867Y-40492778D01*
X48178488Y-40935273D01*
X48293808Y-41347488D01*
X48450458Y-41728674D01*
X48648066Y-42078082D01*
X48886261Y-42394961D01*
X49164674Y-42678563D01*
X49482932Y-42928137D01*
X49840666Y-43142934D01*
X49888100Y-43167281D01*
X50206769Y-43311032D01*
X50539764Y-43426856D01*
X50893371Y-43515952D01*
X51273878Y-43579521D01*
X51687574Y-43618765D01*
X52140744Y-43634884D01*
X52337819Y-43635099D01*
X52512989Y-43633380D01*
X52676520Y-43631125D01*
X52818772Y-43628518D01*
X52930103Y-43625742D01*
X53000872Y-43622981D01*
X53011966Y-43622247D01*
X53339298Y-43594359D01*
X53624684Y-43566177D01*
X53865787Y-43537990D01*
X54060267Y-43510090D01*
X54205784Y-43482769D01*
X54274037Y-43465143D01*
X54280610Y-43461089D01*
X54286531Y-43451414D01*
X54291834Y-43433493D01*
X54296553Y-43404699D01*
X54300721Y-43362408D01*
X54304373Y-43303994D01*
X54307542Y-43226832D01*
X54310263Y-43128295D01*
X54312569Y-43005760D01*
X54314495Y-42856600D01*
X54316073Y-42678190D01*
X54317339Y-42467905D01*
X54318326Y-42223119D01*
X54319068Y-41941206D01*
X54319599Y-41619542D01*
X54319953Y-41255500D01*
X54320163Y-40846456D01*
X54320265Y-40389784D01*
X54320291Y-39886369D01*
X54320264Y-39379786D01*
X54320163Y-38923439D01*
X54319951Y-38514704D01*
X54319596Y-38150955D01*
X54319064Y-37829566D01*
X54318321Y-37547914D01*
X54317543Y-37355177D01*
X52945889Y-37355177D01*
X52945889Y-42450156D01*
X52357804Y-42450001D01*
X52093563Y-42447467D01*
X51862074Y-42440213D01*
X51669901Y-42428536D01*
X51523610Y-42412733D01*
X51518516Y-42411976D01*
X51148529Y-42334701D01*
X50815795Y-42220003D01*
X50520257Y-42067819D01*
X50261858Y-41878084D01*
X50040542Y-41650732D01*
X49856254Y-41385700D01*
X49708937Y-41082923D01*
X49598535Y-40742335D01*
X49524992Y-40363873D01*
X49495989Y-40084600D01*
X49490486Y-39793150D01*
X49512202Y-39488597D01*
X49558688Y-39184847D01*
X49627494Y-38895807D01*
X49716169Y-38635386D01*
X49774028Y-38506361D01*
X49938686Y-38228068D01*
X50136867Y-37988172D01*
X50369828Y-37785858D01*
X50638829Y-37620307D01*
X50945129Y-37490702D01*
X51289984Y-37396226D01*
X51553577Y-37350750D01*
X51639417Y-37342591D01*
X51761549Y-37335735D01*
X51910265Y-37330265D01*
X52075858Y-37326266D01*
X52248621Y-37323820D01*
X52418846Y-37323013D01*
X52576827Y-37323927D01*
X52712855Y-37326647D01*
X52817223Y-37331257D01*
X52880224Y-37337840D01*
X52886420Y-37339240D01*
X52945889Y-37355177D01*
X54317543Y-37355177D01*
X54317333Y-37303372D01*
X54316065Y-37093315D01*
X54314485Y-36915119D01*
X54312557Y-36766157D01*
X54310249Y-36643806D01*
X54307525Y-36545439D01*
X54304353Y-36468432D01*
X54300699Y-36410159D01*
X54296527Y-36367995D01*
X54291806Y-36339316D01*
X54286499Y-36321495D01*
X54280574Y-36311908D01*
X54274037Y-36307941D01*
X54127775Y-36273330D01*
X53936773Y-36242197D01*
X53709060Y-36214849D01*
X53452662Y-36191591D01*
X53175606Y-36172731D01*
X52885921Y-36158575D01*
X52591633Y-36149430D01*
X52300769Y-36145601D01*
X52021357Y-36147397D01*
G36*
X62018936Y-36066088D02*
G01*
X61800145Y-36087429D01*
X61587832Y-36123842D01*
X61366853Y-36177025D01*
X61271876Y-36203596D01*
X60894970Y-36339536D01*
X60541507Y-36521450D01*
X60214083Y-36746735D01*
X59915295Y-37012788D01*
X59647738Y-37317005D01*
X59414011Y-37656783D01*
X59216708Y-38029518D01*
X59063235Y-38418145D01*
X58961518Y-38789055D01*
X58892149Y-39189618D01*
X58855064Y-39608717D01*
X58850197Y-40035236D01*
X58877484Y-40458059D01*
X58936860Y-40866067D01*
X59028261Y-41248145D01*
X59080685Y-41411119D01*
X59250301Y-41823264D01*
X59455813Y-42196879D01*
X59696623Y-42531433D01*
X59972130Y-42826389D01*
X60281735Y-43081216D01*
X60624839Y-43295378D01*
X61000842Y-43468342D01*
X61409146Y-43599574D01*
X61583502Y-43640715D01*
X61725487Y-43664006D01*
X61905437Y-43683152D01*
X62109296Y-43697622D01*
X62323006Y-43706883D01*
X62532510Y-43710405D01*
X62723752Y-43707655D01*
X62882676Y-43698103D01*
X62936732Y-43691889D01*
X63379745Y-43607415D01*
X63789832Y-43481655D01*
X64166894Y-43314682D01*
X64510830Y-43106566D01*
X64821542Y-42857378D01*
X65098930Y-42567188D01*
X65342895Y-42236067D01*
X65553337Y-41864086D01*
X65577838Y-41813549D01*
X65701964Y-41531468D01*
X65798917Y-41259188D01*
X65871462Y-40984295D01*
X65922365Y-40694376D01*
X65954392Y-40377016D01*
X65969406Y-40056087D01*
X65969417Y-40045027D01*
X64569006Y-40045027D01*
X64535881Y-40416901D01*
X64468228Y-40776741D01*
X64366774Y-41117409D01*
X64232249Y-41431767D01*
X64065380Y-41712674D01*
X64015019Y-41781669D01*
X63864719Y-41946764D01*
X63675919Y-42104761D01*
X63462925Y-42246086D01*
X63240042Y-42361166D01*
X63037358Y-42435976D01*
X62749018Y-42495780D01*
X62441992Y-42517234D01*
X62134227Y-42500095D01*
X61872053Y-42451632D01*
X61573565Y-42348581D01*
X61298417Y-42199276D01*
X61049775Y-42006325D01*
X60830804Y-41772334D01*
X60644672Y-41499912D01*
X60586308Y-41392924D01*
X60462834Y-41102182D01*
X60369922Y-40777876D01*
X60307716Y-40429681D01*
X60276362Y-40067268D01*
X60276007Y-39700311D01*
X60306796Y-39338481D01*
X60368874Y-38991451D01*
X60462388Y-38668894D01*
X60542293Y-38472173D01*
X60708795Y-38168156D01*
X60907613Y-37904808D01*
X61136669Y-37683490D01*
X61393883Y-37505562D01*
X61677176Y-37372383D01*
X61984467Y-37285314D01*
X62313679Y-37245714D01*
X62421332Y-37243289D01*
X62756692Y-37267806D01*
X63071276Y-37340154D01*
X63362493Y-37458531D01*
X63627751Y-37621131D01*
X63864458Y-37826150D01*
X64070023Y-38071785D01*
X64241854Y-38356232D01*
X64341653Y-38579982D01*
X64453925Y-38928598D01*
X64528756Y-39293737D01*
X64566874Y-39668260D01*
X64569006Y-40045027D01*
X65969417Y-40045027D01*
X65969828Y-39640284D01*
X65946379Y-39263097D01*
X65897189Y-38915072D01*
X65820384Y-38586759D01*
X65714094Y-38268706D01*
X65576446Y-37951460D01*
X65536562Y-37870466D01*
X65342090Y-37538231D01*
X65106433Y-37227574D01*
X64836319Y-36945053D01*
X64538475Y-36697224D01*
X64219627Y-36490646D01*
X64013501Y-36385775D01*
X63765036Y-36280100D01*
X63531962Y-36199079D01*
X63300283Y-36139644D01*
X63056005Y-36098725D01*
X62785133Y-36073252D01*
X62536532Y-36061832D01*
X62259351Y-36058121D01*
X62018936Y-36066088D01*
X62018936Y-36066088D01*
G37*
X62018936Y-36066088D02*
X61800145Y-36087429D01*
X61587832Y-36123842D01*
X61366853Y-36177025D01*
X61271876Y-36203596D01*
X60894970Y-36339536D01*
X60541507Y-36521450D01*
X60214083Y-36746735D01*
X59915295Y-37012788D01*
X59647738Y-37317005D01*
X59414011Y-37656783D01*
X59216708Y-38029518D01*
X59063235Y-38418145D01*
X58961518Y-38789055D01*
X58892149Y-39189618D01*
X58855064Y-39608717D01*
X58850197Y-40035236D01*
X58877484Y-40458059D01*
X58936860Y-40866067D01*
X59028261Y-41248145D01*
X59080685Y-41411119D01*
X59250301Y-41823264D01*
X59455813Y-42196879D01*
X59696623Y-42531433D01*
X59972130Y-42826389D01*
X60281735Y-43081216D01*
X60624839Y-43295378D01*
X61000842Y-43468342D01*
X61409146Y-43599574D01*
X61583502Y-43640715D01*
X61725487Y-43664006D01*
X61905437Y-43683152D01*
X62109296Y-43697622D01*
X62323006Y-43706883D01*
X62532510Y-43710405D01*
X62723752Y-43707655D01*
X62882676Y-43698103D01*
X62936732Y-43691889D01*
X63379745Y-43607415D01*
X63789832Y-43481655D01*
X64166894Y-43314682D01*
X64510830Y-43106566D01*
X64821542Y-42857378D01*
X65098930Y-42567188D01*
X65342895Y-42236067D01*
X65553337Y-41864086D01*
X65577838Y-41813549D01*
X65701964Y-41531468D01*
X65798917Y-41259188D01*
X65871462Y-40984295D01*
X65922365Y-40694376D01*
X65954392Y-40377016D01*
X65969406Y-40056087D01*
X65969417Y-40045027D01*
X64569006Y-40045027D01*
X64535881Y-40416901D01*
X64468228Y-40776741D01*
X64366774Y-41117409D01*
X64232249Y-41431767D01*
X64065380Y-41712674D01*
X64015019Y-41781669D01*
X63864719Y-41946764D01*
X63675919Y-42104761D01*
X63462925Y-42246086D01*
X63240042Y-42361166D01*
X63037358Y-42435976D01*
X62749018Y-42495780D01*
X62441992Y-42517234D01*
X62134227Y-42500095D01*
X61872053Y-42451632D01*
X61573565Y-42348581D01*
X61298417Y-42199276D01*
X61049775Y-42006325D01*
X60830804Y-41772334D01*
X60644672Y-41499912D01*
X60586308Y-41392924D01*
X60462834Y-41102182D01*
X60369922Y-40777876D01*
X60307716Y-40429681D01*
X60276362Y-40067268D01*
X60276007Y-39700311D01*
X60306796Y-39338481D01*
X60368874Y-38991451D01*
X60462388Y-38668894D01*
X60542293Y-38472173D01*
X60708795Y-38168156D01*
X60907613Y-37904808D01*
X61136669Y-37683490D01*
X61393883Y-37505562D01*
X61677176Y-37372383D01*
X61984467Y-37285314D01*
X62313679Y-37245714D01*
X62421332Y-37243289D01*
X62756692Y-37267806D01*
X63071276Y-37340154D01*
X63362493Y-37458531D01*
X63627751Y-37621131D01*
X63864458Y-37826150D01*
X64070023Y-38071785D01*
X64241854Y-38356232D01*
X64341653Y-38579982D01*
X64453925Y-38928598D01*
X64528756Y-39293737D01*
X64566874Y-39668260D01*
X64569006Y-40045027D01*
X65969417Y-40045027D01*
X65969828Y-39640284D01*
X65946379Y-39263097D01*
X65897189Y-38915072D01*
X65820384Y-38586759D01*
X65714094Y-38268706D01*
X65576446Y-37951460D01*
X65536562Y-37870466D01*
X65342090Y-37538231D01*
X65106433Y-37227574D01*
X64836319Y-36945053D01*
X64538475Y-36697224D01*
X64219627Y-36490646D01*
X64013501Y-36385775D01*
X63765036Y-36280100D01*
X63531962Y-36199079D01*
X63300283Y-36139644D01*
X63056005Y-36098725D01*
X62785133Y-36073252D01*
X62536532Y-36061832D01*
X62259351Y-36058121D01*
X62018936Y-36066088D01*
M02*
