G04 #@! TF.GenerationSoftware,KiCad,Pcbnew,6.0.0-rc1-unknown-5edf350~66~ubuntu18.10.1*
G04 #@! TF.CreationDate,2019-02-07T09:42:41-05:00
G04 #@! TF.ProjectId,BMS-Slave,424d532d-536c-4617-9665-2e6b69636164,V0.2*
G04 #@! TF.SameCoordinates,Original*
G04 #@! TF.FileFunction,Paste,Top*
G04 #@! TF.FilePolarity,Positive*
%FSLAX46Y46*%
G04 Gerber Fmt 4.6, Leading zero omitted, Abs format (unit mm)*
G04 Created by KiCad (PCBNEW 6.0.0-rc1-unknown-5edf350~66~ubuntu18.10.1) date 2019-02-07 09:42:41*
%MOMM*%
%LPD*%
G04 APERTURE LIST*
%ADD10R,0.750000X1.200000*%
%ADD11R,0.900000X1.200000*%
%ADD12R,2.030000X2.650000*%
%ADD13R,0.300000X1.500000*%
%ADD14R,1.500000X0.300000*%
%ADD15R,4.400000X4.400000*%
%ADD16R,1.750000X1.000000*%
%ADD17R,1.753000X1.000000*%
%ADD18R,2.000000X3.800000*%
%ADD19R,2.000000X1.500000*%
%ADD20R,1.200000X0.750000*%
%ADD21R,1.200000X0.900000*%
%ADD22R,3.200000X1.000000*%
%ADD23R,1.000000X3.200000*%
%ADD24R,2.650000X2.030000*%
%ADD25R,0.800000X0.900000*%
%ADD26R,0.900000X0.800000*%
G04 APERTURE END LIST*
D10*
X56300000Y-36050000D03*
X56300000Y-34150000D03*
D11*
X57100000Y-30100000D03*
X57100000Y-32300000D03*
X55500000Y-30100000D03*
X55500000Y-32300000D03*
D12*
X89900000Y-10810000D03*
X89900000Y-14990000D03*
D13*
X58450000Y-44100000D03*
X57950000Y-44100000D03*
X57450000Y-44100000D03*
X56950000Y-44100000D03*
X56450000Y-44100000D03*
X55950000Y-44100000D03*
X55450000Y-44100000D03*
X54950000Y-44100000D03*
X54450000Y-44100000D03*
X53950000Y-44100000D03*
X53450000Y-44100000D03*
X52950000Y-44100000D03*
X52450000Y-44100000D03*
X51950000Y-44100000D03*
X51450000Y-44100000D03*
X50950000Y-44100000D03*
D14*
X49000000Y-46050000D03*
X49000000Y-46550000D03*
X49000000Y-47050000D03*
X49000000Y-47550000D03*
X49000000Y-48050000D03*
X49000000Y-48550000D03*
X49000000Y-49050000D03*
X49000000Y-49550000D03*
X49000000Y-50050000D03*
X49000000Y-50550000D03*
X49000000Y-51050000D03*
X49000000Y-51550000D03*
X49000000Y-52050000D03*
X49000000Y-52550000D03*
X49000000Y-53050000D03*
X49000000Y-53550000D03*
D13*
X50950000Y-55500000D03*
X51450000Y-55500000D03*
X51950000Y-55500000D03*
X52450000Y-55500000D03*
X52950000Y-55500000D03*
X53450000Y-55500000D03*
X53950000Y-55500000D03*
X54450000Y-55500000D03*
X54950000Y-55500000D03*
X55450000Y-55500000D03*
X55950000Y-55500000D03*
X56450000Y-55500000D03*
X56950000Y-55500000D03*
X57450000Y-55500000D03*
X57950000Y-55500000D03*
X58450000Y-55500000D03*
D14*
X60400000Y-53550000D03*
X60400000Y-53050000D03*
X60400000Y-52550000D03*
X60400000Y-52050000D03*
X60400000Y-51550000D03*
X60400000Y-51050000D03*
X60400000Y-50550000D03*
X60400000Y-50050000D03*
X60400000Y-49550000D03*
X60400000Y-49050000D03*
X60400000Y-48550000D03*
X60400000Y-48050000D03*
X60400000Y-47550000D03*
X60400000Y-47050000D03*
X60400000Y-46550000D03*
X60400000Y-46050000D03*
D15*
X54700000Y-49800000D03*
D16*
X87675120Y-44598920D03*
X87675120Y-46598920D03*
X87675120Y-48598920D03*
X87675120Y-42598920D03*
X87675120Y-40598920D03*
X87675120Y-38598920D03*
D17*
X73925120Y-38598920D03*
D16*
X73925120Y-40598920D03*
X73925120Y-42598920D03*
X73925120Y-44598920D03*
X73925120Y-46598920D03*
X73925120Y-48598920D03*
D11*
X67137240Y-92310480D03*
X67137240Y-94510480D03*
X70137240Y-92310480D03*
X70137240Y-94510480D03*
X73137240Y-92310480D03*
X73137240Y-94510480D03*
X76137240Y-92310480D03*
X76137240Y-94510480D03*
X79137240Y-92310480D03*
X79137240Y-94510480D03*
X82137240Y-92310480D03*
X82137240Y-94510480D03*
X85137240Y-92310480D03*
X85137240Y-94510480D03*
X88137240Y-92310480D03*
X88137240Y-94510480D03*
X91137240Y-92310480D03*
X91137240Y-94510480D03*
D18*
X84337320Y-65020400D03*
D19*
X78037320Y-65020400D03*
X78037320Y-67320400D03*
X78037320Y-62720400D03*
D10*
X65637240Y-94360480D03*
X65637240Y-92460480D03*
X68637240Y-94360480D03*
X68637240Y-92460480D03*
X71637240Y-94360480D03*
X71637240Y-92460480D03*
X74637240Y-94360480D03*
X74637240Y-92460480D03*
X77637240Y-94360480D03*
X77637240Y-92460480D03*
X80637240Y-94360480D03*
X80637240Y-92460480D03*
X83637240Y-94360480D03*
X83637240Y-92460480D03*
X86637240Y-94360480D03*
X86637240Y-92460480D03*
X89637240Y-94360480D03*
X89637240Y-92460480D03*
X54000000Y-64850000D03*
X54000000Y-66750000D03*
X50100000Y-66671600D03*
X50100000Y-64771600D03*
X46000000Y-64870000D03*
X46000000Y-66770000D03*
D20*
X36650000Y-66600000D03*
X38550000Y-66600000D03*
X38550000Y-62400000D03*
X36650000Y-62400000D03*
X36650000Y-58400000D03*
X38550000Y-58400000D03*
X36650000Y-54400000D03*
X38550000Y-54400000D03*
X38650000Y-50500000D03*
X36750000Y-50500000D03*
X38650000Y-46500000D03*
X36750000Y-46500000D03*
X36750000Y-42600000D03*
X38650000Y-42600000D03*
X36750000Y-38500000D03*
X38650000Y-38500000D03*
X38550000Y-34500000D03*
X36650000Y-34500000D03*
D10*
X44300000Y-34150000D03*
X44300000Y-36050000D03*
X48300000Y-36150000D03*
X48300000Y-34250000D03*
X52400000Y-36050000D03*
X52400000Y-34150000D03*
X60300000Y-34150000D03*
X60300000Y-36050000D03*
X64300000Y-34150000D03*
X64300000Y-36050000D03*
D11*
X53266480Y-68568760D03*
X53266480Y-70768760D03*
X54800000Y-70778920D03*
X54800000Y-68578920D03*
X49278080Y-70745720D03*
X49278080Y-68545720D03*
X50900000Y-68517960D03*
X50900000Y-70717960D03*
X45216960Y-70831600D03*
X45216960Y-68631600D03*
X46800000Y-68600000D03*
X46800000Y-70800000D03*
D21*
X32600000Y-65800000D03*
X34800000Y-65800000D03*
X34800000Y-67400000D03*
X32600000Y-67400000D03*
X32598800Y-61706400D03*
X34798800Y-61706400D03*
X32614040Y-63300000D03*
X34814040Y-63300000D03*
X32536240Y-57614800D03*
X34736240Y-57614800D03*
X34751480Y-59200000D03*
X32551480Y-59200000D03*
X34800000Y-53600000D03*
X32600000Y-53600000D03*
X34800000Y-55200000D03*
X32600000Y-55200000D03*
X34839720Y-49819560D03*
X32639720Y-49819560D03*
X34834640Y-51400000D03*
X32634640Y-51400000D03*
X32705760Y-45814320D03*
X34905760Y-45814320D03*
X34900000Y-47400000D03*
X32700000Y-47400000D03*
X34892120Y-41841440D03*
X32692120Y-41841440D03*
X32700000Y-43400000D03*
X34900000Y-43400000D03*
X34899080Y-37824440D03*
X32699080Y-37824440D03*
X32700000Y-39400000D03*
X34900000Y-39400000D03*
X32580360Y-33825880D03*
X34780360Y-33825880D03*
X34800000Y-35400000D03*
X32600000Y-35400000D03*
D11*
X45100000Y-30096160D03*
X45100000Y-32296160D03*
X43500000Y-32300000D03*
X43500000Y-30100000D03*
X49000000Y-30200000D03*
X49000000Y-32400000D03*
X47400000Y-32400000D03*
X47400000Y-30200000D03*
X53200000Y-30100000D03*
X53200000Y-32300000D03*
X51600000Y-32300000D03*
X51600000Y-30100000D03*
X61200000Y-32300000D03*
X61200000Y-30100000D03*
X59600000Y-30100000D03*
X59600000Y-32300000D03*
X65000000Y-32300000D03*
X65000000Y-30100000D03*
X63500000Y-30100000D03*
X63500000Y-32300000D03*
D20*
X69786640Y-40515360D03*
X71686640Y-40515360D03*
X72057480Y-46585960D03*
X70157480Y-46585960D03*
D11*
X67876600Y-39323920D03*
X67876600Y-41523920D03*
X68216960Y-47477680D03*
X68216960Y-45277680D03*
D10*
X67118400Y-36354120D03*
X67118400Y-34454120D03*
D20*
X75584120Y-65696040D03*
X73684120Y-65696040D03*
X75584120Y-67133680D03*
X73684120Y-67133680D03*
D11*
X61764280Y-79200680D03*
X61764280Y-81400680D03*
X67118400Y-32262320D03*
X67118400Y-30062320D03*
D21*
X67537961Y-51173440D03*
X69737959Y-51173440D03*
X73371560Y-64233000D03*
X75571560Y-64233000D03*
X69737959Y-52682200D03*
X67537961Y-52682200D03*
D20*
X67804801Y-55242520D03*
X69704799Y-55242520D03*
X69704799Y-56690320D03*
X67804801Y-56690320D03*
D22*
X59000000Y-83200000D03*
X59000000Y-89400000D03*
X50200000Y-83200000D03*
X50200000Y-89400000D03*
X41200000Y-83100000D03*
X41200000Y-89300000D03*
D23*
X21500000Y-90500000D03*
X15300000Y-90500000D03*
X15300000Y-81600000D03*
X21500000Y-81600000D03*
X15300000Y-72700000D03*
X21500000Y-72700000D03*
X15200000Y-63700000D03*
X21400000Y-63700000D03*
X21400000Y-54800000D03*
X15200000Y-54800000D03*
X21400000Y-45900000D03*
X15200000Y-45900000D03*
X21300000Y-36900000D03*
X15100000Y-36900000D03*
X15200000Y-27900000D03*
X21400000Y-27900000D03*
X15200000Y-19000000D03*
X21400000Y-19000000D03*
D22*
X40400000Y-14400000D03*
X40400000Y-20600000D03*
X49200000Y-14400000D03*
X49200000Y-20600000D03*
X58100000Y-14400000D03*
X58100000Y-20600000D03*
X67000000Y-14400000D03*
X67000000Y-20600000D03*
X75900000Y-20600000D03*
X75900000Y-14400000D03*
X84800000Y-20600000D03*
X84800000Y-14400000D03*
D12*
X81000000Y-14990000D03*
X81000000Y-10810000D03*
X72100000Y-10410000D03*
X72100000Y-14590000D03*
X63300000Y-10310000D03*
X63300000Y-14490000D03*
X54300000Y-14490000D03*
X54300000Y-10310000D03*
X45500000Y-14890000D03*
X45500000Y-10710000D03*
D24*
X11410000Y-13900000D03*
X15590000Y-13900000D03*
X15790000Y-22800000D03*
X11610000Y-22800000D03*
X11610000Y-31800000D03*
X15790000Y-31800000D03*
X11410000Y-40800000D03*
X15590000Y-40800000D03*
X15690000Y-49700000D03*
X11510000Y-49700000D03*
X15590000Y-58600000D03*
X11410000Y-58600000D03*
X11410000Y-67500000D03*
X15590000Y-67500000D03*
X15890000Y-76500000D03*
X11710000Y-76500000D03*
X11610000Y-85400000D03*
X15790000Y-85400000D03*
D12*
X36100000Y-93090000D03*
X36100000Y-88910000D03*
X45000000Y-89010000D03*
X45000000Y-93190000D03*
X54000000Y-89210000D03*
X54000000Y-93390000D03*
D25*
X54700000Y-84900000D03*
X53750000Y-82900000D03*
X55650000Y-82900000D03*
X45600000Y-84900000D03*
X44650000Y-82900000D03*
X46550000Y-82900000D03*
X37450000Y-82900000D03*
X35550000Y-82900000D03*
X36500000Y-84900000D03*
D26*
X21600000Y-86950000D03*
X21600000Y-85050000D03*
X19600000Y-86000000D03*
X19600000Y-77000000D03*
X21600000Y-76050000D03*
X21600000Y-77950000D03*
X21600000Y-68950000D03*
X21600000Y-67050000D03*
X19600000Y-68000000D03*
X19600000Y-59100000D03*
X21600000Y-58150000D03*
X21600000Y-60050000D03*
X21600000Y-51150000D03*
X21600000Y-49250000D03*
X19600000Y-50200000D03*
X21600000Y-42150000D03*
X21600000Y-40250000D03*
X19600000Y-41200000D03*
X19500000Y-32400000D03*
X21500000Y-31450000D03*
X21500000Y-33350000D03*
X19500000Y-23500000D03*
X21500000Y-22550000D03*
X21500000Y-24450000D03*
X19500000Y-14500000D03*
X21500000Y-13550000D03*
X21500000Y-15450000D03*
D25*
X43950000Y-20700000D03*
X45850000Y-20700000D03*
X44900000Y-18700000D03*
X52750000Y-20700000D03*
X54650000Y-20700000D03*
X53700000Y-18700000D03*
X62600000Y-18700000D03*
X63550000Y-20700000D03*
X61650000Y-20700000D03*
X70450000Y-20700000D03*
X72350000Y-20700000D03*
X71400000Y-18700000D03*
X79350000Y-20700000D03*
X81250000Y-20700000D03*
X80300000Y-18700000D03*
X89600000Y-18800000D03*
X90550000Y-20800000D03*
X88650000Y-20800000D03*
M02*
