G04 #@! TF.GenerationSoftware,KiCad,Pcbnew,6.0.0-rc1-unknown-5edf350~66~ubuntu18.10.1*
G04 #@! TF.CreationDate,2019-02-07T09:42:41-05:00
G04 #@! TF.ProjectId,BMS-Slave,424d532d-536c-4617-9665-2e6b69636164,V0.2*
G04 #@! TF.SameCoordinates,Original*
G04 #@! TF.FileFunction,Copper,L2,Bot*
G04 #@! TF.FilePolarity,Positive*
%FSLAX46Y46*%
G04 Gerber Fmt 4.6, Leading zero omitted, Abs format (unit mm)*
G04 Created by KiCad (PCBNEW 6.0.0-rc1-unknown-5edf350~66~ubuntu18.10.1) date 2019-02-07 09:42:41*
%MOMM*%
%LPD*%
G04 APERTURE LIST*
%ADD10R,1.700000X1.700000*%
%ADD11O,1.700000X1.700000*%
%ADD12R,2.600000X2.000000*%
%ADD13O,2.600000X2.000000*%
%ADD14C,0.800000*%
%ADD15C,5.400000*%
%ADD16C,0.250000*%
%ADD17C,0.500000*%
%ADD18C,0.254000*%
G04 APERTURE END LIST*
D10*
X67500000Y-97500000D03*
D11*
X70040000Y-97500000D03*
X72580000Y-97500000D03*
X75120000Y-97500000D03*
X77660000Y-97500000D03*
X80200000Y-97500000D03*
X82740000Y-97500000D03*
X85280000Y-97500000D03*
X87820000Y-97500000D03*
X90360000Y-97500000D03*
D10*
X93918320Y-72841520D03*
D11*
X93918320Y-70301520D03*
X93918320Y-67761520D03*
D10*
X93918320Y-59034080D03*
D11*
X93918320Y-61574080D03*
X93918320Y-64114080D03*
D10*
X3378200Y-70764400D03*
D11*
X3378200Y-68224400D03*
X3378200Y-65684400D03*
X3378200Y-63144400D03*
X3378200Y-60604400D03*
X3378200Y-58064400D03*
X3378200Y-55524400D03*
X3378200Y-52984400D03*
X3378200Y-50444400D03*
X3378200Y-47904400D03*
X3378200Y-45364400D03*
X3378200Y-42824400D03*
X3378200Y-40284400D03*
X3378200Y-37744400D03*
X3378200Y-35204400D03*
X3378200Y-32664400D03*
X3378200Y-30124400D03*
X3378200Y-27584400D03*
X3378200Y-25044400D03*
D12*
X93900000Y-38800000D03*
D13*
X93900000Y-41340000D03*
D12*
X93900000Y-45600000D03*
D13*
X93900000Y-48140000D03*
D14*
X6431891Y-3568109D03*
X5000000Y-2975000D03*
X3568109Y-3568109D03*
X2975000Y-5000000D03*
X3568109Y-6431891D03*
X5000000Y-7025000D03*
X6431891Y-6431891D03*
X7025000Y-5000000D03*
D15*
X5000000Y-5000000D03*
X95000000Y-5000000D03*
D14*
X97025000Y-5000000D03*
X96431891Y-6431891D03*
X95000000Y-7025000D03*
X93568109Y-6431891D03*
X92975000Y-5000000D03*
X93568109Y-3568109D03*
X95000000Y-2975000D03*
X96431891Y-3568109D03*
X6431891Y-93568109D03*
X5000000Y-92975000D03*
X3568109Y-93568109D03*
X2975000Y-95000000D03*
X3568109Y-96431891D03*
X5000000Y-97025000D03*
X6431891Y-96431891D03*
X7025000Y-95000000D03*
D15*
X5000000Y-95000000D03*
X95000000Y-95000000D03*
D14*
X97025000Y-95000000D03*
X96431891Y-96431891D03*
X95000000Y-97025000D03*
X93568109Y-96431891D03*
X92975000Y-95000000D03*
X93568109Y-93568109D03*
X95000000Y-92975000D03*
X96431891Y-93568109D03*
X87800000Y-88800000D03*
X85099994Y-88800000D03*
X82699996Y-88800000D03*
X80200002Y-88900000D03*
X77600000Y-88900000D03*
X75100000Y-88900000D03*
X72500000Y-88900000D03*
X70000000Y-88900000D03*
X67500000Y-88800000D03*
X62200000Y-50900000D03*
X60000000Y-55500000D03*
X67800000Y-57800000D03*
X65900000Y-84400000D03*
X65900000Y-83400000D03*
X65900000Y-82500000D03*
X67800000Y-58700000D03*
X67800000Y-59600000D03*
X59000000Y-84750000D03*
X57750000Y-84750000D03*
X60250000Y-84750000D03*
X51200000Y-46300000D03*
X44300000Y-37500000D03*
X40000000Y-34500000D03*
X40000000Y-38500000D03*
X52400000Y-37600000D03*
X56300000Y-37500000D03*
X60300000Y-37500000D03*
X64300000Y-37500000D03*
X69700000Y-49900000D03*
X71900000Y-65700000D03*
X54000000Y-63400000D03*
X50100000Y-63400000D03*
X46000000Y-63400000D03*
X89600000Y-91000000D03*
X86600000Y-91000000D03*
X83700000Y-91000000D03*
X81100000Y-90900000D03*
X61700000Y-77600000D03*
X52200000Y-46300000D03*
X53200000Y-46300000D03*
X54200000Y-46300000D03*
X55200000Y-46300000D03*
X56200000Y-46300000D03*
X57200000Y-46300000D03*
X58200000Y-46300000D03*
X51200000Y-47300000D03*
X52200000Y-47300000D03*
X53200000Y-47300000D03*
X54200000Y-47300000D03*
X55200000Y-47300000D03*
X56200000Y-47300000D03*
X57200000Y-47300000D03*
X58200000Y-47300000D03*
X51200000Y-48300000D03*
X52200000Y-48300000D03*
X53200000Y-48300000D03*
X54200000Y-48300000D03*
X55200000Y-48300000D03*
X56200000Y-48300000D03*
X57200000Y-48300000D03*
X58200000Y-48300000D03*
X51200000Y-49300000D03*
X52200000Y-49300000D03*
X53200000Y-49300000D03*
X54200000Y-49300000D03*
X55200000Y-49300000D03*
X56200000Y-49300000D03*
X57200000Y-49300000D03*
X58200000Y-49300000D03*
X51200000Y-50300000D03*
X52200000Y-50300000D03*
X53200000Y-50300000D03*
X54200000Y-50300000D03*
X55200000Y-50300000D03*
X56200000Y-50300000D03*
X57200000Y-50300000D03*
X58200000Y-50300000D03*
X51200000Y-51300000D03*
X52200000Y-51300000D03*
X53200000Y-51300000D03*
X54200000Y-51300000D03*
X55200000Y-51300000D03*
X56200000Y-51300000D03*
X57200000Y-51300000D03*
X58200000Y-51300000D03*
X51200000Y-52300000D03*
X52200000Y-52300000D03*
X53200000Y-52300000D03*
X54200000Y-52300000D03*
X55200000Y-52300000D03*
X56200000Y-52300000D03*
X57200000Y-52300000D03*
X58200000Y-52300000D03*
X51200000Y-53300000D03*
X52200000Y-53300000D03*
X53200000Y-53300000D03*
X54200000Y-53300000D03*
X55200000Y-53300000D03*
X56200000Y-53300000D03*
X57200000Y-53300000D03*
X58200000Y-53300000D03*
X39900000Y-42600000D03*
X40000000Y-46500000D03*
X39900000Y-50500000D03*
X39900000Y-54400000D03*
X39900000Y-58400000D03*
X39900000Y-62400000D03*
X39900000Y-66600000D03*
X68637240Y-91100000D03*
X65637236Y-91100000D03*
X71200000Y-91000000D03*
X74100000Y-91000000D03*
X76900000Y-90900000D03*
X48300000Y-37524990D03*
X68250000Y-36250000D03*
X70250000Y-58000000D03*
X63800000Y-48600000D03*
X66250000Y-46500000D03*
X66112660Y-40612660D03*
X71700000Y-64300000D03*
X71700000Y-30062320D03*
X84750000Y-19000000D03*
X83500000Y-19000000D03*
X86000000Y-19000000D03*
X74750000Y-19000000D03*
X75999990Y-19000000D03*
X77250000Y-19000000D03*
X67000000Y-19000000D03*
X65750000Y-19000000D03*
X68250000Y-19000000D03*
X59500000Y-19000000D03*
X58250000Y-19000000D03*
X56750000Y-19000000D03*
X49250000Y-19000000D03*
X50500000Y-19000000D03*
X47750000Y-19000000D03*
X40500000Y-19000000D03*
X39250000Y-19000000D03*
X41750000Y-19000000D03*
X19750000Y-19000000D03*
X19750000Y-18000000D03*
X19750000Y-20000000D03*
X19750000Y-28000000D03*
X19750000Y-27000000D03*
X19750000Y-29000000D03*
X19750000Y-36750000D03*
X19750000Y-35500000D03*
X19750000Y-38000000D03*
X19750000Y-45750000D03*
X19750000Y-44500000D03*
X19750000Y-47000000D03*
X19750000Y-54750000D03*
X19750000Y-56000000D03*
X19750000Y-53500000D03*
X19750000Y-63500000D03*
X19750000Y-62250000D03*
X19750000Y-64750000D03*
X19750000Y-72500000D03*
X19750000Y-71250000D03*
X19750000Y-73750000D03*
X19750000Y-81500000D03*
X19750000Y-80250000D03*
X19750000Y-82750000D03*
X19750000Y-90500000D03*
X19750000Y-89250000D03*
X19750000Y-91750000D03*
X40000000Y-84750000D03*
X42500000Y-84750000D03*
X41250000Y-84750000D03*
X50250000Y-84750000D03*
X51500000Y-84750000D03*
X49000000Y-84750000D03*
D16*
X87800000Y-97411720D02*
X87787480Y-97424240D01*
X87800000Y-88800000D02*
X87800000Y-97411720D01*
X85247480Y-88947486D02*
X85099994Y-88800000D01*
X85247480Y-97424240D02*
X85247480Y-88947486D01*
X82707480Y-97424240D02*
X82707480Y-88807484D01*
X82707480Y-88807484D02*
X82699996Y-88800000D01*
X80167480Y-97424240D02*
X80167480Y-88932522D01*
X80167480Y-88932522D02*
X80200002Y-88900000D01*
X77627480Y-97424240D02*
X78477479Y-96574241D01*
X78477479Y-89777479D02*
X77999999Y-89299999D01*
X77999999Y-89299999D02*
X77600000Y-88900000D01*
X78477479Y-96574241D02*
X78477479Y-89777479D01*
X75087480Y-97424240D02*
X75937479Y-96574241D01*
X75499999Y-89299999D02*
X75100000Y-88900000D01*
X75937479Y-96574241D02*
X75937479Y-89737479D01*
X75937479Y-89737479D02*
X75499999Y-89299999D01*
X72547480Y-97424240D02*
X72547480Y-88947480D01*
X72547480Y-88947480D02*
X72500000Y-88900000D01*
X70007480Y-97424240D02*
X70007480Y-88907480D01*
X70007480Y-88907480D02*
X70000000Y-88900000D01*
X67467480Y-97424240D02*
X67467480Y-88832520D01*
X67467480Y-88832520D02*
X67500000Y-88800000D01*
X62200000Y-50900000D02*
X60000000Y-53100000D01*
X60000000Y-53100000D02*
X60000000Y-55500000D01*
D17*
X65900000Y-83400000D02*
X65900000Y-84400000D01*
X65900000Y-82500000D02*
X65900000Y-83400000D01*
X67800000Y-57800000D02*
X67800000Y-58700000D01*
X67800000Y-60500000D02*
X67800000Y-59600000D01*
X65900000Y-82500000D02*
X65900000Y-62400000D01*
X65900000Y-62400000D02*
X67800000Y-60500000D01*
X67800000Y-59600000D02*
X67800000Y-58700000D01*
D16*
X71700000Y-64300000D02*
X71700000Y-30062320D01*
D18*
G36*
X95761865Y-765758D02*
G01*
X96499637Y-967589D01*
X97190018Y-1296884D01*
X97811168Y-1743225D01*
X98343467Y-2292514D01*
X98770080Y-2927383D01*
X99077524Y-3627759D01*
X99257368Y-4376860D01*
X99305000Y-5025490D01*
X99305001Y-94969032D01*
X99234243Y-95761862D01*
X99032411Y-96499637D01*
X98703116Y-97190018D01*
X98256775Y-97811168D01*
X97707483Y-98343469D01*
X97072617Y-98770080D01*
X96372240Y-99077525D01*
X95623140Y-99257368D01*
X94974510Y-99305000D01*
X5030957Y-99305000D01*
X4238138Y-99234243D01*
X3500363Y-99032411D01*
X2809982Y-98703116D01*
X2188832Y-98256775D01*
X1656531Y-97707483D01*
X1229920Y-97072617D01*
X922475Y-96372240D01*
X742632Y-95623140D01*
X695000Y-94974510D01*
X695000Y-94671531D01*
X1665000Y-94671531D01*
X1665000Y-95328469D01*
X1793162Y-95972784D01*
X2044561Y-96579715D01*
X2409536Y-97125939D01*
X2874061Y-97590464D01*
X3420285Y-97955439D01*
X4027216Y-98206838D01*
X4671531Y-98335000D01*
X5328469Y-98335000D01*
X5972784Y-98206838D01*
X6579715Y-97955439D01*
X7125939Y-97590464D01*
X7590464Y-97125939D01*
X7908476Y-96650000D01*
X66011928Y-96650000D01*
X66011928Y-98350000D01*
X66024188Y-98474482D01*
X66060498Y-98594180D01*
X66119463Y-98704494D01*
X66198815Y-98801185D01*
X66295506Y-98880537D01*
X66405820Y-98939502D01*
X66525518Y-98975812D01*
X66650000Y-98988072D01*
X68350000Y-98988072D01*
X68474482Y-98975812D01*
X68594180Y-98939502D01*
X68704494Y-98880537D01*
X68801185Y-98801185D01*
X68880537Y-98704494D01*
X68939502Y-98594180D01*
X68960393Y-98525313D01*
X68984866Y-98555134D01*
X69210986Y-98740706D01*
X69468966Y-98878599D01*
X69748889Y-98963513D01*
X69967050Y-98985000D01*
X70112950Y-98985000D01*
X70331111Y-98963513D01*
X70611034Y-98878599D01*
X70869014Y-98740706D01*
X71095134Y-98555134D01*
X71280706Y-98329014D01*
X71310000Y-98274209D01*
X71339294Y-98329014D01*
X71524866Y-98555134D01*
X71750986Y-98740706D01*
X72008966Y-98878599D01*
X72288889Y-98963513D01*
X72507050Y-98985000D01*
X72652950Y-98985000D01*
X72871111Y-98963513D01*
X73151034Y-98878599D01*
X73409014Y-98740706D01*
X73635134Y-98555134D01*
X73820706Y-98329014D01*
X73850000Y-98274209D01*
X73879294Y-98329014D01*
X74064866Y-98555134D01*
X74290986Y-98740706D01*
X74548966Y-98878599D01*
X74828889Y-98963513D01*
X75047050Y-98985000D01*
X75192950Y-98985000D01*
X75411111Y-98963513D01*
X75691034Y-98878599D01*
X75949014Y-98740706D01*
X76175134Y-98555134D01*
X76360706Y-98329014D01*
X76390000Y-98274209D01*
X76419294Y-98329014D01*
X76604866Y-98555134D01*
X76830986Y-98740706D01*
X77088966Y-98878599D01*
X77368889Y-98963513D01*
X77587050Y-98985000D01*
X77732950Y-98985000D01*
X77951111Y-98963513D01*
X78231034Y-98878599D01*
X78489014Y-98740706D01*
X78715134Y-98555134D01*
X78900706Y-98329014D01*
X78930000Y-98274209D01*
X78959294Y-98329014D01*
X79144866Y-98555134D01*
X79370986Y-98740706D01*
X79628966Y-98878599D01*
X79908889Y-98963513D01*
X80127050Y-98985000D01*
X80272950Y-98985000D01*
X80491111Y-98963513D01*
X80771034Y-98878599D01*
X81029014Y-98740706D01*
X81255134Y-98555134D01*
X81440706Y-98329014D01*
X81470000Y-98274209D01*
X81499294Y-98329014D01*
X81684866Y-98555134D01*
X81910986Y-98740706D01*
X82168966Y-98878599D01*
X82448889Y-98963513D01*
X82667050Y-98985000D01*
X82812950Y-98985000D01*
X83031111Y-98963513D01*
X83311034Y-98878599D01*
X83569014Y-98740706D01*
X83795134Y-98555134D01*
X83980706Y-98329014D01*
X84010000Y-98274209D01*
X84039294Y-98329014D01*
X84224866Y-98555134D01*
X84450986Y-98740706D01*
X84708966Y-98878599D01*
X84988889Y-98963513D01*
X85207050Y-98985000D01*
X85352950Y-98985000D01*
X85571111Y-98963513D01*
X85851034Y-98878599D01*
X86109014Y-98740706D01*
X86335134Y-98555134D01*
X86520706Y-98329014D01*
X86550000Y-98274209D01*
X86579294Y-98329014D01*
X86764866Y-98555134D01*
X86990986Y-98740706D01*
X87248966Y-98878599D01*
X87528889Y-98963513D01*
X87747050Y-98985000D01*
X87892950Y-98985000D01*
X88111111Y-98963513D01*
X88391034Y-98878599D01*
X88649014Y-98740706D01*
X88875134Y-98555134D01*
X89060706Y-98329014D01*
X89095201Y-98264477D01*
X89164822Y-98381355D01*
X89359731Y-98597588D01*
X89593080Y-98771641D01*
X89855901Y-98896825D01*
X90003110Y-98941476D01*
X90233000Y-98820155D01*
X90233000Y-97627000D01*
X90487000Y-97627000D01*
X90487000Y-98820155D01*
X90716890Y-98941476D01*
X90864099Y-98896825D01*
X91126920Y-98771641D01*
X91360269Y-98597588D01*
X91555178Y-98381355D01*
X91704157Y-98131252D01*
X91801481Y-97856891D01*
X91680814Y-97627000D01*
X90487000Y-97627000D01*
X90233000Y-97627000D01*
X90213000Y-97627000D01*
X90213000Y-97373000D01*
X90233000Y-97373000D01*
X90233000Y-96179845D01*
X90487000Y-96179845D01*
X90487000Y-97373000D01*
X91680814Y-97373000D01*
X91801481Y-97143109D01*
X91704157Y-96868748D01*
X91555178Y-96618645D01*
X91360269Y-96402412D01*
X91126920Y-96228359D01*
X90864099Y-96103175D01*
X90716890Y-96058524D01*
X90487000Y-96179845D01*
X90233000Y-96179845D01*
X90003110Y-96058524D01*
X89855901Y-96103175D01*
X89593080Y-96228359D01*
X89359731Y-96402412D01*
X89164822Y-96618645D01*
X89095201Y-96735523D01*
X89060706Y-96670986D01*
X88875134Y-96444866D01*
X88649014Y-96259294D01*
X88560000Y-96211715D01*
X88560000Y-94671531D01*
X91665000Y-94671531D01*
X91665000Y-95328469D01*
X91793162Y-95972784D01*
X92044561Y-96579715D01*
X92409536Y-97125939D01*
X92874061Y-97590464D01*
X93420285Y-97955439D01*
X94027216Y-98206838D01*
X94671531Y-98335000D01*
X95328469Y-98335000D01*
X95972784Y-98206838D01*
X96579715Y-97955439D01*
X97125939Y-97590464D01*
X97590464Y-97125939D01*
X97955439Y-96579715D01*
X98206838Y-95972784D01*
X98335000Y-95328469D01*
X98335000Y-94671531D01*
X98206838Y-94027216D01*
X97955439Y-93420285D01*
X97590464Y-92874061D01*
X97125939Y-92409536D01*
X96579715Y-92044561D01*
X95972784Y-91793162D01*
X95328469Y-91665000D01*
X94671531Y-91665000D01*
X94027216Y-91793162D01*
X93420285Y-92044561D01*
X92874061Y-92409536D01*
X92409536Y-92874061D01*
X92044561Y-93420285D01*
X91793162Y-94027216D01*
X91665000Y-94671531D01*
X88560000Y-94671531D01*
X88560000Y-89503711D01*
X88603937Y-89459774D01*
X88717205Y-89290256D01*
X88795226Y-89101898D01*
X88835000Y-88901939D01*
X88835000Y-88698061D01*
X88795226Y-88498102D01*
X88717205Y-88309744D01*
X88603937Y-88140226D01*
X88459774Y-87996063D01*
X88290256Y-87882795D01*
X88101898Y-87804774D01*
X87901939Y-87765000D01*
X87698061Y-87765000D01*
X87498102Y-87804774D01*
X87309744Y-87882795D01*
X87140226Y-87996063D01*
X86996063Y-88140226D01*
X86882795Y-88309744D01*
X86804774Y-88498102D01*
X86765000Y-88698061D01*
X86765000Y-88901939D01*
X86804774Y-89101898D01*
X86882795Y-89290256D01*
X86996063Y-89459774D01*
X87040000Y-89503711D01*
X87040001Y-96233095D01*
X86990986Y-96259294D01*
X86764866Y-96444866D01*
X86579294Y-96670986D01*
X86550000Y-96725791D01*
X86520706Y-96670986D01*
X86335134Y-96444866D01*
X86109014Y-96259294D01*
X86007480Y-96205023D01*
X86007480Y-89304802D01*
X86017199Y-89290256D01*
X86095220Y-89101898D01*
X86134994Y-88901939D01*
X86134994Y-88698061D01*
X86095220Y-88498102D01*
X86017199Y-88309744D01*
X85903931Y-88140226D01*
X85759768Y-87996063D01*
X85590250Y-87882795D01*
X85401892Y-87804774D01*
X85201933Y-87765000D01*
X84998055Y-87765000D01*
X84798096Y-87804774D01*
X84609738Y-87882795D01*
X84440220Y-87996063D01*
X84296057Y-88140226D01*
X84182789Y-88309744D01*
X84104768Y-88498102D01*
X84064994Y-88698061D01*
X84064994Y-88901939D01*
X84104768Y-89101898D01*
X84182789Y-89290256D01*
X84296057Y-89459774D01*
X84440220Y-89603937D01*
X84487481Y-89635516D01*
X84487480Y-96239788D01*
X84450986Y-96259294D01*
X84224866Y-96444866D01*
X84039294Y-96670986D01*
X84010000Y-96725791D01*
X83980706Y-96670986D01*
X83795134Y-96444866D01*
X83569014Y-96259294D01*
X83467480Y-96205023D01*
X83467480Y-89496227D01*
X83503933Y-89459774D01*
X83617201Y-89290256D01*
X83695222Y-89101898D01*
X83734996Y-88901939D01*
X83734996Y-88698061D01*
X83695222Y-88498102D01*
X83617201Y-88309744D01*
X83503933Y-88140226D01*
X83359770Y-87996063D01*
X83190252Y-87882795D01*
X83001894Y-87804774D01*
X82801935Y-87765000D01*
X82598057Y-87765000D01*
X82398098Y-87804774D01*
X82209740Y-87882795D01*
X82040222Y-87996063D01*
X81896059Y-88140226D01*
X81782791Y-88309744D01*
X81704770Y-88498102D01*
X81664996Y-88698061D01*
X81664996Y-88901939D01*
X81704770Y-89101898D01*
X81782791Y-89290256D01*
X81896059Y-89459774D01*
X81947481Y-89511196D01*
X81947480Y-96239788D01*
X81910986Y-96259294D01*
X81684866Y-96444866D01*
X81499294Y-96670986D01*
X81470000Y-96725791D01*
X81440706Y-96670986D01*
X81255134Y-96444866D01*
X81029014Y-96259294D01*
X80927480Y-96205023D01*
X80927480Y-89636233D01*
X81003939Y-89559774D01*
X81117207Y-89390256D01*
X81195228Y-89201898D01*
X81235002Y-89001939D01*
X81235002Y-88798061D01*
X81195228Y-88598102D01*
X81117207Y-88409744D01*
X81003939Y-88240226D01*
X80859776Y-88096063D01*
X80690258Y-87982795D01*
X80501900Y-87904774D01*
X80301941Y-87865000D01*
X80098063Y-87865000D01*
X79898104Y-87904774D01*
X79709746Y-87982795D01*
X79540228Y-88096063D01*
X79396065Y-88240226D01*
X79282797Y-88409744D01*
X79204776Y-88598102D01*
X79165002Y-88798061D01*
X79165002Y-89001939D01*
X79204776Y-89201898D01*
X79282797Y-89390256D01*
X79396065Y-89559774D01*
X79407481Y-89571190D01*
X79407480Y-96239788D01*
X79370986Y-96259294D01*
X79237479Y-96368860D01*
X79237479Y-89814804D01*
X79241155Y-89777479D01*
X79237479Y-89740154D01*
X79237479Y-89740146D01*
X79226482Y-89628493D01*
X79183025Y-89485232D01*
X79112453Y-89353203D01*
X79017480Y-89237478D01*
X78988476Y-89213675D01*
X78635000Y-88860199D01*
X78635000Y-88798061D01*
X78595226Y-88598102D01*
X78517205Y-88409744D01*
X78403937Y-88240226D01*
X78259774Y-88096063D01*
X78090256Y-87982795D01*
X77901898Y-87904774D01*
X77701939Y-87865000D01*
X77498061Y-87865000D01*
X77298102Y-87904774D01*
X77109744Y-87982795D01*
X76940226Y-88096063D01*
X76796063Y-88240226D01*
X76682795Y-88409744D01*
X76604774Y-88598102D01*
X76565000Y-88798061D01*
X76565000Y-89001939D01*
X76604774Y-89201898D01*
X76682795Y-89390256D01*
X76796063Y-89559774D01*
X76940226Y-89703937D01*
X77109744Y-89817205D01*
X77298102Y-89895226D01*
X77498061Y-89935000D01*
X77560199Y-89935000D01*
X77717480Y-90092281D01*
X77717479Y-96015000D01*
X77587050Y-96015000D01*
X77368889Y-96036487D01*
X77088966Y-96121401D01*
X76830986Y-96259294D01*
X76697479Y-96368860D01*
X76697479Y-89774801D01*
X76701155Y-89737478D01*
X76697479Y-89700155D01*
X76697479Y-89700146D01*
X76686482Y-89588493D01*
X76643025Y-89445232D01*
X76641542Y-89442458D01*
X76572453Y-89313202D01*
X76526161Y-89256796D01*
X76477480Y-89197478D01*
X76448476Y-89173675D01*
X76135000Y-88860199D01*
X76135000Y-88798061D01*
X76095226Y-88598102D01*
X76017205Y-88409744D01*
X75903937Y-88240226D01*
X75759774Y-88096063D01*
X75590256Y-87982795D01*
X75401898Y-87904774D01*
X75201939Y-87865000D01*
X74998061Y-87865000D01*
X74798102Y-87904774D01*
X74609744Y-87982795D01*
X74440226Y-88096063D01*
X74296063Y-88240226D01*
X74182795Y-88409744D01*
X74104774Y-88598102D01*
X74065000Y-88798061D01*
X74065000Y-89001939D01*
X74104774Y-89201898D01*
X74182795Y-89390256D01*
X74296063Y-89559774D01*
X74440226Y-89703937D01*
X74609744Y-89817205D01*
X74798102Y-89895226D01*
X74998061Y-89935000D01*
X75060199Y-89935000D01*
X75177480Y-90052281D01*
X75177479Y-96015000D01*
X75047050Y-96015000D01*
X74828889Y-96036487D01*
X74548966Y-96121401D01*
X74290986Y-96259294D01*
X74064866Y-96444866D01*
X73879294Y-96670986D01*
X73850000Y-96725791D01*
X73820706Y-96670986D01*
X73635134Y-96444866D01*
X73409014Y-96259294D01*
X73307480Y-96205023D01*
X73307480Y-89554472D01*
X73417205Y-89390256D01*
X73495226Y-89201898D01*
X73535000Y-89001939D01*
X73535000Y-88798061D01*
X73495226Y-88598102D01*
X73417205Y-88409744D01*
X73303937Y-88240226D01*
X73159774Y-88096063D01*
X72990256Y-87982795D01*
X72801898Y-87904774D01*
X72601939Y-87865000D01*
X72398061Y-87865000D01*
X72198102Y-87904774D01*
X72009744Y-87982795D01*
X71840226Y-88096063D01*
X71696063Y-88240226D01*
X71582795Y-88409744D01*
X71504774Y-88598102D01*
X71465000Y-88798061D01*
X71465000Y-89001939D01*
X71504774Y-89201898D01*
X71582795Y-89390256D01*
X71696063Y-89559774D01*
X71787481Y-89651192D01*
X71787480Y-96239788D01*
X71750986Y-96259294D01*
X71524866Y-96444866D01*
X71339294Y-96670986D01*
X71310000Y-96725791D01*
X71280706Y-96670986D01*
X71095134Y-96444866D01*
X70869014Y-96259294D01*
X70767480Y-96205023D01*
X70767480Y-89596231D01*
X70803937Y-89559774D01*
X70917205Y-89390256D01*
X70995226Y-89201898D01*
X71035000Y-89001939D01*
X71035000Y-88798061D01*
X70995226Y-88598102D01*
X70917205Y-88409744D01*
X70803937Y-88240226D01*
X70659774Y-88096063D01*
X70490256Y-87982795D01*
X70301898Y-87904774D01*
X70101939Y-87865000D01*
X69898061Y-87865000D01*
X69698102Y-87904774D01*
X69509744Y-87982795D01*
X69340226Y-88096063D01*
X69196063Y-88240226D01*
X69082795Y-88409744D01*
X69004774Y-88598102D01*
X68965000Y-88798061D01*
X68965000Y-89001939D01*
X69004774Y-89201898D01*
X69082795Y-89390256D01*
X69196063Y-89559774D01*
X69247481Y-89611192D01*
X69247480Y-96239788D01*
X69210986Y-96259294D01*
X68984866Y-96444866D01*
X68960393Y-96474687D01*
X68939502Y-96405820D01*
X68880537Y-96295506D01*
X68801185Y-96198815D01*
X68704494Y-96119463D01*
X68594180Y-96060498D01*
X68474482Y-96024188D01*
X68350000Y-96011928D01*
X68227480Y-96011928D01*
X68227480Y-89536231D01*
X68303937Y-89459774D01*
X68417205Y-89290256D01*
X68495226Y-89101898D01*
X68535000Y-88901939D01*
X68535000Y-88698061D01*
X68495226Y-88498102D01*
X68417205Y-88309744D01*
X68303937Y-88140226D01*
X68159774Y-87996063D01*
X67990256Y-87882795D01*
X67801898Y-87804774D01*
X67601939Y-87765000D01*
X67398061Y-87765000D01*
X67198102Y-87804774D01*
X67009744Y-87882795D01*
X66840226Y-87996063D01*
X66696063Y-88140226D01*
X66582795Y-88309744D01*
X66504774Y-88498102D01*
X66465000Y-88698061D01*
X66465000Y-88901939D01*
X66504774Y-89101898D01*
X66582795Y-89290256D01*
X66696063Y-89459774D01*
X66707481Y-89471192D01*
X66707480Y-96011928D01*
X66650000Y-96011928D01*
X66525518Y-96024188D01*
X66405820Y-96060498D01*
X66295506Y-96119463D01*
X66198815Y-96198815D01*
X66119463Y-96295506D01*
X66060498Y-96405820D01*
X66024188Y-96525518D01*
X66011928Y-96650000D01*
X7908476Y-96650000D01*
X7955439Y-96579715D01*
X8206838Y-95972784D01*
X8335000Y-95328469D01*
X8335000Y-94671531D01*
X8206838Y-94027216D01*
X7955439Y-93420285D01*
X7590464Y-92874061D01*
X7125939Y-92409536D01*
X6579715Y-92044561D01*
X5972784Y-91793162D01*
X5328469Y-91665000D01*
X4671531Y-91665000D01*
X4027216Y-91793162D01*
X3420285Y-92044561D01*
X2874061Y-92409536D01*
X2409536Y-92874061D01*
X2044561Y-93420285D01*
X1793162Y-94027216D01*
X1665000Y-94671531D01*
X695000Y-94671531D01*
X695000Y-88000000D01*
X9199156Y-88000000D01*
X9199156Y-93000000D01*
X9220811Y-93219867D01*
X9284944Y-93431284D01*
X9389090Y-93626128D01*
X9529247Y-93796909D01*
X9700028Y-93937066D01*
X9894872Y-94041212D01*
X10106289Y-94105345D01*
X10326156Y-94127000D01*
X22326156Y-94127000D01*
X22546023Y-94105345D01*
X22757440Y-94041212D01*
X22952284Y-93937066D01*
X23123065Y-93796909D01*
X23263222Y-93626128D01*
X23367368Y-93431284D01*
X23431501Y-93219867D01*
X23453156Y-93000000D01*
X23453156Y-88000000D01*
X23431501Y-87780133D01*
X23367368Y-87568716D01*
X23263222Y-87373872D01*
X23123065Y-87203091D01*
X22952284Y-87062934D01*
X22757440Y-86958788D01*
X22546023Y-86894655D01*
X22326156Y-86873000D01*
X10326156Y-86873000D01*
X10106289Y-86894655D01*
X9894872Y-86958788D01*
X9700028Y-87062934D01*
X9529247Y-87203091D01*
X9389090Y-87373872D01*
X9284944Y-87568716D01*
X9220811Y-87780133D01*
X9199156Y-88000000D01*
X695000Y-88000000D01*
X695000Y-79000000D01*
X9199156Y-79000000D01*
X9199156Y-84000000D01*
X9220811Y-84219867D01*
X9284944Y-84431284D01*
X9389090Y-84626128D01*
X9529247Y-84796909D01*
X9700028Y-84937066D01*
X9894872Y-85041212D01*
X10106289Y-85105345D01*
X10326156Y-85127000D01*
X22326156Y-85127000D01*
X22546023Y-85105345D01*
X22757440Y-85041212D01*
X22952284Y-84937066D01*
X23123065Y-84796909D01*
X23263222Y-84626128D01*
X23367368Y-84431284D01*
X23431501Y-84219867D01*
X23453156Y-84000000D01*
X23453156Y-82183819D01*
X37623000Y-82183819D01*
X37623000Y-94183819D01*
X37644655Y-94403686D01*
X37708788Y-94615103D01*
X37812934Y-94809947D01*
X37953091Y-94980728D01*
X38123872Y-95120885D01*
X38318716Y-95225031D01*
X38530133Y-95289164D01*
X38750000Y-95310819D01*
X43750000Y-95310819D01*
X43969867Y-95289164D01*
X44181284Y-95225031D01*
X44376128Y-95120885D01*
X44546909Y-94980728D01*
X44687066Y-94809947D01*
X44791212Y-94615103D01*
X44855345Y-94403686D01*
X44877000Y-94183819D01*
X44877000Y-82183819D01*
X46623000Y-82183819D01*
X46623000Y-94183819D01*
X46644655Y-94403686D01*
X46708788Y-94615103D01*
X46812934Y-94809947D01*
X46953091Y-94980728D01*
X47123872Y-95120885D01*
X47318716Y-95225031D01*
X47530133Y-95289164D01*
X47750000Y-95310819D01*
X52750000Y-95310819D01*
X52969867Y-95289164D01*
X53181284Y-95225031D01*
X53376128Y-95120885D01*
X53546909Y-94980728D01*
X53687066Y-94809947D01*
X53791212Y-94615103D01*
X53855345Y-94403686D01*
X53877000Y-94183819D01*
X53877000Y-82183819D01*
X55373000Y-82183819D01*
X55373000Y-94183819D01*
X55394655Y-94403686D01*
X55458788Y-94615103D01*
X55562934Y-94809947D01*
X55703091Y-94980728D01*
X55873872Y-95120885D01*
X56068716Y-95225031D01*
X56280133Y-95289164D01*
X56500000Y-95310819D01*
X61500000Y-95310819D01*
X61719867Y-95289164D01*
X61931284Y-95225031D01*
X62126128Y-95120885D01*
X62296909Y-94980728D01*
X62437066Y-94809947D01*
X62541212Y-94615103D01*
X62605345Y-94403686D01*
X62627000Y-94183819D01*
X62627000Y-82398061D01*
X64865000Y-82398061D01*
X64865000Y-82601939D01*
X64904774Y-82801898D01*
X64966120Y-82950000D01*
X64904774Y-83098102D01*
X64865000Y-83298061D01*
X64865000Y-83501939D01*
X64904774Y-83701898D01*
X64982795Y-83890256D01*
X64989306Y-83900000D01*
X64982795Y-83909744D01*
X64904774Y-84098102D01*
X64865000Y-84298061D01*
X64865000Y-84501939D01*
X64904774Y-84701898D01*
X64982795Y-84890256D01*
X65096063Y-85059774D01*
X65240226Y-85203937D01*
X65409744Y-85317205D01*
X65598102Y-85395226D01*
X65798061Y-85435000D01*
X66001939Y-85435000D01*
X66201898Y-85395226D01*
X66390256Y-85317205D01*
X66559774Y-85203937D01*
X66703937Y-85059774D01*
X66817205Y-84890256D01*
X66895226Y-84701898D01*
X66935000Y-84501939D01*
X66935000Y-84298061D01*
X66895226Y-84098102D01*
X66817205Y-83909744D01*
X66810694Y-83900000D01*
X66817205Y-83890256D01*
X66895226Y-83701898D01*
X66935000Y-83501939D01*
X66935000Y-83298061D01*
X66895226Y-83098102D01*
X66833880Y-82950000D01*
X66895226Y-82801898D01*
X66935000Y-82601939D01*
X66935000Y-82398061D01*
X66895226Y-82198102D01*
X66817205Y-82009744D01*
X66785000Y-81961546D01*
X66785000Y-70301520D01*
X92426135Y-70301520D01*
X92454807Y-70592631D01*
X92539721Y-70872554D01*
X92677614Y-71130534D01*
X92863186Y-71356654D01*
X92893007Y-71381127D01*
X92824140Y-71402018D01*
X92713826Y-71460983D01*
X92617135Y-71540335D01*
X92537783Y-71637026D01*
X92478818Y-71747340D01*
X92442508Y-71867038D01*
X92430248Y-71991520D01*
X92430248Y-73691520D01*
X92442508Y-73816002D01*
X92478818Y-73935700D01*
X92537783Y-74046014D01*
X92617135Y-74142705D01*
X92713826Y-74222057D01*
X92824140Y-74281022D01*
X92943838Y-74317332D01*
X93068320Y-74329592D01*
X94768320Y-74329592D01*
X94892802Y-74317332D01*
X95012500Y-74281022D01*
X95122814Y-74222057D01*
X95219505Y-74142705D01*
X95298857Y-74046014D01*
X95357822Y-73935700D01*
X95394132Y-73816002D01*
X95406392Y-73691520D01*
X95406392Y-71991520D01*
X95394132Y-71867038D01*
X95357822Y-71747340D01*
X95298857Y-71637026D01*
X95219505Y-71540335D01*
X95122814Y-71460983D01*
X95012500Y-71402018D01*
X94943633Y-71381127D01*
X94973454Y-71356654D01*
X95159026Y-71130534D01*
X95296919Y-70872554D01*
X95381833Y-70592631D01*
X95410505Y-70301520D01*
X95381833Y-70010409D01*
X95296919Y-69730486D01*
X95159026Y-69472506D01*
X94973454Y-69246386D01*
X94747334Y-69060814D01*
X94682797Y-69026319D01*
X94799675Y-68956698D01*
X95015908Y-68761789D01*
X95189961Y-68528440D01*
X95315145Y-68265619D01*
X95359796Y-68118410D01*
X95238475Y-67888520D01*
X94045320Y-67888520D01*
X94045320Y-67908520D01*
X93791320Y-67908520D01*
X93791320Y-67888520D01*
X92598165Y-67888520D01*
X92476844Y-68118410D01*
X92521495Y-68265619D01*
X92646679Y-68528440D01*
X92820732Y-68761789D01*
X93036965Y-68956698D01*
X93153843Y-69026319D01*
X93089306Y-69060814D01*
X92863186Y-69246386D01*
X92677614Y-69472506D01*
X92539721Y-69730486D01*
X92454807Y-70010409D01*
X92426135Y-70301520D01*
X66785000Y-70301520D01*
X66785000Y-67404630D01*
X92476844Y-67404630D01*
X92598165Y-67634520D01*
X93791320Y-67634520D01*
X93791320Y-66440706D01*
X94045320Y-66440706D01*
X94045320Y-67634520D01*
X95238475Y-67634520D01*
X95359796Y-67404630D01*
X95315145Y-67257421D01*
X95189961Y-66994600D01*
X95015908Y-66761251D01*
X94799675Y-66566342D01*
X94549572Y-66417363D01*
X94275211Y-66320039D01*
X94045320Y-66440706D01*
X93791320Y-66440706D01*
X93561429Y-66320039D01*
X93287068Y-66417363D01*
X93036965Y-66566342D01*
X92820732Y-66761251D01*
X92646679Y-66994600D01*
X92521495Y-67257421D01*
X92476844Y-67404630D01*
X66785000Y-67404630D01*
X66785000Y-62766578D01*
X68395050Y-61156529D01*
X68428817Y-61128817D01*
X68532036Y-61003046D01*
X68539411Y-60994059D01*
X68621588Y-60840314D01*
X68621589Y-60840313D01*
X68672195Y-60673490D01*
X68685000Y-60543477D01*
X68685000Y-60543469D01*
X68689281Y-60500000D01*
X68685000Y-60456531D01*
X68685000Y-60138454D01*
X68717205Y-60090256D01*
X68795226Y-59901898D01*
X68835000Y-59701939D01*
X68835000Y-59498061D01*
X68795226Y-59298102D01*
X68733880Y-59150000D01*
X68795226Y-59001898D01*
X68835000Y-58801939D01*
X68835000Y-58598061D01*
X68795226Y-58398102D01*
X68733880Y-58250000D01*
X68795226Y-58101898D01*
X68835000Y-57901939D01*
X68835000Y-57698061D01*
X68795226Y-57498102D01*
X68717205Y-57309744D01*
X68603937Y-57140226D01*
X68459774Y-56996063D01*
X68290256Y-56882795D01*
X68101898Y-56804774D01*
X67901939Y-56765000D01*
X67698061Y-56765000D01*
X67498102Y-56804774D01*
X67309744Y-56882795D01*
X67140226Y-56996063D01*
X66996063Y-57140226D01*
X66882795Y-57309744D01*
X66804774Y-57498102D01*
X66765000Y-57698061D01*
X66765000Y-57901939D01*
X66804774Y-58101898D01*
X66866120Y-58250000D01*
X66804774Y-58398102D01*
X66765000Y-58598061D01*
X66765000Y-58801939D01*
X66804774Y-59001898D01*
X66866120Y-59150000D01*
X66804774Y-59298102D01*
X66765000Y-59498061D01*
X66765000Y-59701939D01*
X66804774Y-59901898D01*
X66882795Y-60090256D01*
X66912984Y-60135437D01*
X65304951Y-61743471D01*
X65271184Y-61771183D01*
X65243471Y-61804951D01*
X65243468Y-61804954D01*
X65160590Y-61905941D01*
X65078412Y-62059687D01*
X65027805Y-62226510D01*
X65010719Y-62400000D01*
X65015001Y-62443479D01*
X65015000Y-81961546D01*
X64982795Y-82009744D01*
X64904774Y-82198102D01*
X64865000Y-82398061D01*
X62627000Y-82398061D01*
X62627000Y-82183819D01*
X62605345Y-81963952D01*
X62541212Y-81752535D01*
X62437066Y-81557691D01*
X62296909Y-81386910D01*
X62126128Y-81246753D01*
X61931284Y-81142607D01*
X61719867Y-81078474D01*
X61500000Y-81056819D01*
X56500000Y-81056819D01*
X56280133Y-81078474D01*
X56068716Y-81142607D01*
X55873872Y-81246753D01*
X55703091Y-81386910D01*
X55562934Y-81557691D01*
X55458788Y-81752535D01*
X55394655Y-81963952D01*
X55373000Y-82183819D01*
X53877000Y-82183819D01*
X53855345Y-81963952D01*
X53791212Y-81752535D01*
X53687066Y-81557691D01*
X53546909Y-81386910D01*
X53376128Y-81246753D01*
X53181284Y-81142607D01*
X52969867Y-81078474D01*
X52750000Y-81056819D01*
X47750000Y-81056819D01*
X47530133Y-81078474D01*
X47318716Y-81142607D01*
X47123872Y-81246753D01*
X46953091Y-81386910D01*
X46812934Y-81557691D01*
X46708788Y-81752535D01*
X46644655Y-81963952D01*
X46623000Y-82183819D01*
X44877000Y-82183819D01*
X44855345Y-81963952D01*
X44791212Y-81752535D01*
X44687066Y-81557691D01*
X44546909Y-81386910D01*
X44376128Y-81246753D01*
X44181284Y-81142607D01*
X43969867Y-81078474D01*
X43750000Y-81056819D01*
X38750000Y-81056819D01*
X38530133Y-81078474D01*
X38318716Y-81142607D01*
X38123872Y-81246753D01*
X37953091Y-81386910D01*
X37812934Y-81557691D01*
X37708788Y-81752535D01*
X37644655Y-81963952D01*
X37623000Y-82183819D01*
X23453156Y-82183819D01*
X23453156Y-79000000D01*
X23431501Y-78780133D01*
X23367368Y-78568716D01*
X23263222Y-78373872D01*
X23123065Y-78203091D01*
X22952284Y-78062934D01*
X22757440Y-77958788D01*
X22546023Y-77894655D01*
X22326156Y-77873000D01*
X10326156Y-77873000D01*
X10106289Y-77894655D01*
X9894872Y-77958788D01*
X9700028Y-78062934D01*
X9529247Y-78203091D01*
X9389090Y-78373872D01*
X9284944Y-78568716D01*
X9220811Y-78780133D01*
X9199156Y-79000000D01*
X695000Y-79000000D01*
X695000Y-71050150D01*
X1893200Y-71050150D01*
X1893200Y-71676942D01*
X1917603Y-71799623D01*
X1965470Y-71915185D01*
X2034963Y-72019189D01*
X2123411Y-72107637D01*
X2227415Y-72177130D01*
X2342977Y-72224997D01*
X2465658Y-72249400D01*
X3092450Y-72249400D01*
X3251200Y-72090650D01*
X3251200Y-70891400D01*
X3505200Y-70891400D01*
X3505200Y-72090650D01*
X3663950Y-72249400D01*
X4290742Y-72249400D01*
X4413423Y-72224997D01*
X4528985Y-72177130D01*
X4632989Y-72107637D01*
X4721437Y-72019189D01*
X4790930Y-71915185D01*
X4838797Y-71799623D01*
X4863200Y-71676942D01*
X4863200Y-71050150D01*
X4704450Y-70891400D01*
X3505200Y-70891400D01*
X3251200Y-70891400D01*
X2051950Y-70891400D01*
X1893200Y-71050150D01*
X695000Y-71050150D01*
X695000Y-25044400D01*
X1886015Y-25044400D01*
X1914687Y-25335511D01*
X1999601Y-25615434D01*
X2137494Y-25873414D01*
X2323066Y-26099534D01*
X2549186Y-26285106D01*
X2603991Y-26314400D01*
X2549186Y-26343694D01*
X2323066Y-26529266D01*
X2137494Y-26755386D01*
X1999601Y-27013366D01*
X1914687Y-27293289D01*
X1886015Y-27584400D01*
X1914687Y-27875511D01*
X1999601Y-28155434D01*
X2137494Y-28413414D01*
X2323066Y-28639534D01*
X2549186Y-28825106D01*
X2603991Y-28854400D01*
X2549186Y-28883694D01*
X2323066Y-29069266D01*
X2137494Y-29295386D01*
X1999601Y-29553366D01*
X1914687Y-29833289D01*
X1886015Y-30124400D01*
X1914687Y-30415511D01*
X1999601Y-30695434D01*
X2137494Y-30953414D01*
X2323066Y-31179534D01*
X2549186Y-31365106D01*
X2603991Y-31394400D01*
X2549186Y-31423694D01*
X2323066Y-31609266D01*
X2137494Y-31835386D01*
X1999601Y-32093366D01*
X1914687Y-32373289D01*
X1886015Y-32664400D01*
X1914687Y-32955511D01*
X1999601Y-33235434D01*
X2137494Y-33493414D01*
X2323066Y-33719534D01*
X2549186Y-33905106D01*
X2603991Y-33934400D01*
X2549186Y-33963694D01*
X2323066Y-34149266D01*
X2137494Y-34375386D01*
X1999601Y-34633366D01*
X1914687Y-34913289D01*
X1886015Y-35204400D01*
X1914687Y-35495511D01*
X1999601Y-35775434D01*
X2137494Y-36033414D01*
X2323066Y-36259534D01*
X2549186Y-36445106D01*
X2603991Y-36474400D01*
X2549186Y-36503694D01*
X2323066Y-36689266D01*
X2137494Y-36915386D01*
X1999601Y-37173366D01*
X1914687Y-37453289D01*
X1886015Y-37744400D01*
X1914687Y-38035511D01*
X1999601Y-38315434D01*
X2137494Y-38573414D01*
X2323066Y-38799534D01*
X2549186Y-38985106D01*
X2603991Y-39014400D01*
X2549186Y-39043694D01*
X2323066Y-39229266D01*
X2137494Y-39455386D01*
X1999601Y-39713366D01*
X1914687Y-39993289D01*
X1886015Y-40284400D01*
X1914687Y-40575511D01*
X1999601Y-40855434D01*
X2137494Y-41113414D01*
X2323066Y-41339534D01*
X2549186Y-41525106D01*
X2603991Y-41554400D01*
X2549186Y-41583694D01*
X2323066Y-41769266D01*
X2137494Y-41995386D01*
X1999601Y-42253366D01*
X1914687Y-42533289D01*
X1886015Y-42824400D01*
X1914687Y-43115511D01*
X1999601Y-43395434D01*
X2137494Y-43653414D01*
X2323066Y-43879534D01*
X2549186Y-44065106D01*
X2603991Y-44094400D01*
X2549186Y-44123694D01*
X2323066Y-44309266D01*
X2137494Y-44535386D01*
X1999601Y-44793366D01*
X1914687Y-45073289D01*
X1886015Y-45364400D01*
X1914687Y-45655511D01*
X1999601Y-45935434D01*
X2137494Y-46193414D01*
X2323066Y-46419534D01*
X2549186Y-46605106D01*
X2603991Y-46634400D01*
X2549186Y-46663694D01*
X2323066Y-46849266D01*
X2137494Y-47075386D01*
X1999601Y-47333366D01*
X1914687Y-47613289D01*
X1886015Y-47904400D01*
X1914687Y-48195511D01*
X1999601Y-48475434D01*
X2137494Y-48733414D01*
X2323066Y-48959534D01*
X2549186Y-49145106D01*
X2603991Y-49174400D01*
X2549186Y-49203694D01*
X2323066Y-49389266D01*
X2137494Y-49615386D01*
X1999601Y-49873366D01*
X1914687Y-50153289D01*
X1886015Y-50444400D01*
X1914687Y-50735511D01*
X1999601Y-51015434D01*
X2137494Y-51273414D01*
X2323066Y-51499534D01*
X2549186Y-51685106D01*
X2603991Y-51714400D01*
X2549186Y-51743694D01*
X2323066Y-51929266D01*
X2137494Y-52155386D01*
X1999601Y-52413366D01*
X1914687Y-52693289D01*
X1886015Y-52984400D01*
X1914687Y-53275511D01*
X1999601Y-53555434D01*
X2137494Y-53813414D01*
X2323066Y-54039534D01*
X2549186Y-54225106D01*
X2603991Y-54254400D01*
X2549186Y-54283694D01*
X2323066Y-54469266D01*
X2137494Y-54695386D01*
X1999601Y-54953366D01*
X1914687Y-55233289D01*
X1886015Y-55524400D01*
X1914687Y-55815511D01*
X1999601Y-56095434D01*
X2137494Y-56353414D01*
X2323066Y-56579534D01*
X2549186Y-56765106D01*
X2603991Y-56794400D01*
X2549186Y-56823694D01*
X2323066Y-57009266D01*
X2137494Y-57235386D01*
X1999601Y-57493366D01*
X1914687Y-57773289D01*
X1886015Y-58064400D01*
X1914687Y-58355511D01*
X1999601Y-58635434D01*
X2137494Y-58893414D01*
X2323066Y-59119534D01*
X2549186Y-59305106D01*
X2603991Y-59334400D01*
X2549186Y-59363694D01*
X2323066Y-59549266D01*
X2137494Y-59775386D01*
X1999601Y-60033366D01*
X1914687Y-60313289D01*
X1886015Y-60604400D01*
X1914687Y-60895511D01*
X1999601Y-61175434D01*
X2137494Y-61433414D01*
X2323066Y-61659534D01*
X2549186Y-61845106D01*
X2603991Y-61874400D01*
X2549186Y-61903694D01*
X2323066Y-62089266D01*
X2137494Y-62315386D01*
X1999601Y-62573366D01*
X1914687Y-62853289D01*
X1886015Y-63144400D01*
X1914687Y-63435511D01*
X1999601Y-63715434D01*
X2137494Y-63973414D01*
X2323066Y-64199534D01*
X2549186Y-64385106D01*
X2603991Y-64414400D01*
X2549186Y-64443694D01*
X2323066Y-64629266D01*
X2137494Y-64855386D01*
X1999601Y-65113366D01*
X1914687Y-65393289D01*
X1886015Y-65684400D01*
X1914687Y-65975511D01*
X1999601Y-66255434D01*
X2137494Y-66513414D01*
X2323066Y-66739534D01*
X2549186Y-66925106D01*
X2603991Y-66954400D01*
X2549186Y-66983694D01*
X2323066Y-67169266D01*
X2137494Y-67395386D01*
X1999601Y-67653366D01*
X1914687Y-67933289D01*
X1886015Y-68224400D01*
X1914687Y-68515511D01*
X1999601Y-68795434D01*
X2137494Y-69053414D01*
X2323066Y-69279534D01*
X2350753Y-69302256D01*
X2342977Y-69303803D01*
X2227415Y-69351670D01*
X2123411Y-69421163D01*
X2034963Y-69509611D01*
X1965470Y-69613615D01*
X1917603Y-69729177D01*
X1893200Y-69851858D01*
X1893200Y-70478650D01*
X2051950Y-70637400D01*
X3251200Y-70637400D01*
X3251200Y-70617400D01*
X3505200Y-70617400D01*
X3505200Y-70637400D01*
X4704450Y-70637400D01*
X4863200Y-70478650D01*
X4863200Y-70000000D01*
X9199156Y-70000000D01*
X9199156Y-75000000D01*
X9220811Y-75219867D01*
X9284944Y-75431284D01*
X9389090Y-75626128D01*
X9529247Y-75796909D01*
X9700028Y-75937066D01*
X9894872Y-76041212D01*
X10106289Y-76105345D01*
X10326156Y-76127000D01*
X22326156Y-76127000D01*
X22546023Y-76105345D01*
X22757440Y-76041212D01*
X22952284Y-75937066D01*
X23123065Y-75796909D01*
X23263222Y-75626128D01*
X23367368Y-75431284D01*
X23431501Y-75219867D01*
X23453156Y-75000000D01*
X23453156Y-70000000D01*
X23431501Y-69780133D01*
X23367368Y-69568716D01*
X23263222Y-69373872D01*
X23123065Y-69203091D01*
X22952284Y-69062934D01*
X22757440Y-68958788D01*
X22546023Y-68894655D01*
X22326156Y-68873000D01*
X10326156Y-68873000D01*
X10106289Y-68894655D01*
X9894872Y-68958788D01*
X9700028Y-69062934D01*
X9529247Y-69203091D01*
X9389090Y-69373872D01*
X9284944Y-69568716D01*
X9220811Y-69780133D01*
X9199156Y-70000000D01*
X4863200Y-70000000D01*
X4863200Y-69851858D01*
X4838797Y-69729177D01*
X4790930Y-69613615D01*
X4721437Y-69509611D01*
X4632989Y-69421163D01*
X4528985Y-69351670D01*
X4413423Y-69303803D01*
X4405647Y-69302256D01*
X4433334Y-69279534D01*
X4618906Y-69053414D01*
X4756799Y-68795434D01*
X4841713Y-68515511D01*
X4870385Y-68224400D01*
X4841713Y-67933289D01*
X4756799Y-67653366D01*
X4618906Y-67395386D01*
X4433334Y-67169266D01*
X4207214Y-66983694D01*
X4152409Y-66954400D01*
X4207214Y-66925106D01*
X4433334Y-66739534D01*
X4618906Y-66513414D01*
X4756799Y-66255434D01*
X4841713Y-65975511D01*
X4870385Y-65684400D01*
X4841713Y-65393289D01*
X4756799Y-65113366D01*
X4618906Y-64855386D01*
X4433334Y-64629266D01*
X4207214Y-64443694D01*
X4152409Y-64414400D01*
X4207214Y-64385106D01*
X4433334Y-64199534D01*
X4618906Y-63973414D01*
X4756799Y-63715434D01*
X4841713Y-63435511D01*
X4870385Y-63144400D01*
X4841713Y-62853289D01*
X4756799Y-62573366D01*
X4618906Y-62315386D01*
X4433334Y-62089266D01*
X4207214Y-61903694D01*
X4152409Y-61874400D01*
X4207214Y-61845106D01*
X4433334Y-61659534D01*
X4618906Y-61433414D01*
X4756799Y-61175434D01*
X4810016Y-61000000D01*
X9199156Y-61000000D01*
X9199156Y-66000000D01*
X9220811Y-66219867D01*
X9284944Y-66431284D01*
X9389090Y-66626128D01*
X9529247Y-66796909D01*
X9700028Y-66937066D01*
X9894872Y-67041212D01*
X10106289Y-67105345D01*
X10326156Y-67127000D01*
X22326156Y-67127000D01*
X22546023Y-67105345D01*
X22757440Y-67041212D01*
X22952284Y-66937066D01*
X23123065Y-66796909D01*
X23263222Y-66626128D01*
X23367368Y-66431284D01*
X23431501Y-66219867D01*
X23453156Y-66000000D01*
X23453156Y-61000000D01*
X23431501Y-60780133D01*
X23367368Y-60568716D01*
X23263222Y-60373872D01*
X23123065Y-60203091D01*
X22952284Y-60062934D01*
X22757440Y-59958788D01*
X22546023Y-59894655D01*
X22326156Y-59873000D01*
X10326156Y-59873000D01*
X10106289Y-59894655D01*
X9894872Y-59958788D01*
X9700028Y-60062934D01*
X9529247Y-60203091D01*
X9389090Y-60373872D01*
X9284944Y-60568716D01*
X9220811Y-60780133D01*
X9199156Y-61000000D01*
X4810016Y-61000000D01*
X4841713Y-60895511D01*
X4870385Y-60604400D01*
X4841713Y-60313289D01*
X4756799Y-60033366D01*
X4618906Y-59775386D01*
X4433334Y-59549266D01*
X4207214Y-59363694D01*
X4152409Y-59334400D01*
X4207214Y-59305106D01*
X4433334Y-59119534D01*
X4618906Y-58893414D01*
X4756799Y-58635434D01*
X4841713Y-58355511D01*
X4870385Y-58064400D01*
X4841713Y-57773289D01*
X4756799Y-57493366D01*
X4618906Y-57235386D01*
X4433334Y-57009266D01*
X4207214Y-56823694D01*
X4152409Y-56794400D01*
X4207214Y-56765106D01*
X4433334Y-56579534D01*
X4618906Y-56353414D01*
X4756799Y-56095434D01*
X4841713Y-55815511D01*
X4870385Y-55524400D01*
X4841713Y-55233289D01*
X4756799Y-54953366D01*
X4618906Y-54695386D01*
X4433334Y-54469266D01*
X4207214Y-54283694D01*
X4152409Y-54254400D01*
X4207214Y-54225106D01*
X4433334Y-54039534D01*
X4618906Y-53813414D01*
X4756799Y-53555434D01*
X4841713Y-53275511D01*
X4870385Y-52984400D01*
X4841713Y-52693289D01*
X4756799Y-52413366D01*
X4669479Y-52250000D01*
X9199156Y-52250000D01*
X9199156Y-57250000D01*
X9220811Y-57469867D01*
X9284944Y-57681284D01*
X9389090Y-57876128D01*
X9529247Y-58046909D01*
X9700028Y-58187066D01*
X9894872Y-58291212D01*
X10106289Y-58355345D01*
X10326156Y-58377000D01*
X22326156Y-58377000D01*
X22546023Y-58355345D01*
X22757440Y-58291212D01*
X22952284Y-58187066D01*
X23123065Y-58046909D01*
X23263222Y-57876128D01*
X23367368Y-57681284D01*
X23431501Y-57469867D01*
X23453156Y-57250000D01*
X23453156Y-55398061D01*
X58965000Y-55398061D01*
X58965000Y-55601939D01*
X59004774Y-55801898D01*
X59082795Y-55990256D01*
X59196063Y-56159774D01*
X59340226Y-56303937D01*
X59509744Y-56417205D01*
X59698102Y-56495226D01*
X59898061Y-56535000D01*
X60101939Y-56535000D01*
X60301898Y-56495226D01*
X60490256Y-56417205D01*
X60659774Y-56303937D01*
X60803937Y-56159774D01*
X60917205Y-55990256D01*
X60995226Y-55801898D01*
X61035000Y-55601939D01*
X61035000Y-55398061D01*
X60995226Y-55198102D01*
X60917205Y-55009744D01*
X60803937Y-54840226D01*
X60760000Y-54796289D01*
X60760000Y-53414801D01*
X62239802Y-51935000D01*
X62301939Y-51935000D01*
X62501898Y-51895226D01*
X62690256Y-51817205D01*
X62859774Y-51703937D01*
X63003937Y-51559774D01*
X63117205Y-51390256D01*
X63195226Y-51201898D01*
X63235000Y-51001939D01*
X63235000Y-50798061D01*
X63195226Y-50598102D01*
X63117205Y-50409744D01*
X63003937Y-50240226D01*
X62859774Y-50096063D01*
X62690256Y-49982795D01*
X62501898Y-49904774D01*
X62301939Y-49865000D01*
X62098061Y-49865000D01*
X61898102Y-49904774D01*
X61709744Y-49982795D01*
X61540226Y-50096063D01*
X61396063Y-50240226D01*
X61282795Y-50409744D01*
X61204774Y-50598102D01*
X61165000Y-50798061D01*
X61165000Y-50860198D01*
X59489003Y-52536196D01*
X59459999Y-52559999D01*
X59404871Y-52627174D01*
X59365026Y-52675724D01*
X59354155Y-52696063D01*
X59294454Y-52807754D01*
X59250997Y-52951015D01*
X59240000Y-53062668D01*
X59240000Y-53062678D01*
X59236324Y-53100000D01*
X59240000Y-53137323D01*
X59240001Y-54796288D01*
X59196063Y-54840226D01*
X59082795Y-55009744D01*
X59004774Y-55198102D01*
X58965000Y-55398061D01*
X23453156Y-55398061D01*
X23453156Y-52250000D01*
X23431501Y-52030133D01*
X23367368Y-51818716D01*
X23263222Y-51623872D01*
X23123065Y-51453091D01*
X22952284Y-51312934D01*
X22757440Y-51208788D01*
X22546023Y-51144655D01*
X22326156Y-51123000D01*
X10326156Y-51123000D01*
X10106289Y-51144655D01*
X9894872Y-51208788D01*
X9700028Y-51312934D01*
X9529247Y-51453091D01*
X9389090Y-51623872D01*
X9284944Y-51818716D01*
X9220811Y-52030133D01*
X9199156Y-52250000D01*
X4669479Y-52250000D01*
X4618906Y-52155386D01*
X4433334Y-51929266D01*
X4207214Y-51743694D01*
X4152409Y-51714400D01*
X4207214Y-51685106D01*
X4433334Y-51499534D01*
X4618906Y-51273414D01*
X4756799Y-51015434D01*
X4841713Y-50735511D01*
X4870385Y-50444400D01*
X4841713Y-50153289D01*
X4756799Y-49873366D01*
X4618906Y-49615386D01*
X4433334Y-49389266D01*
X4207214Y-49203694D01*
X4152409Y-49174400D01*
X4207214Y-49145106D01*
X4433334Y-48959534D01*
X4618906Y-48733414D01*
X4756799Y-48475434D01*
X4841713Y-48195511D01*
X4870385Y-47904400D01*
X4841713Y-47613289D01*
X4756799Y-47333366D01*
X4618906Y-47075386D01*
X4433334Y-46849266D01*
X4207214Y-46663694D01*
X4152409Y-46634400D01*
X4207214Y-46605106D01*
X4433334Y-46419534D01*
X4618906Y-46193414D01*
X4756799Y-45935434D01*
X4841713Y-45655511D01*
X4870385Y-45364400D01*
X4841713Y-45073289D01*
X4756799Y-44793366D01*
X4618906Y-44535386D01*
X4433334Y-44309266D01*
X4207214Y-44123694D01*
X4152409Y-44094400D01*
X4207214Y-44065106D01*
X4433334Y-43879534D01*
X4618906Y-43653414D01*
X4756799Y-43395434D01*
X4800916Y-43250000D01*
X9199156Y-43250000D01*
X9199156Y-48250000D01*
X9220811Y-48469867D01*
X9284944Y-48681284D01*
X9389090Y-48876128D01*
X9529247Y-49046909D01*
X9700028Y-49187066D01*
X9894872Y-49291212D01*
X10106289Y-49355345D01*
X10326156Y-49377000D01*
X22326156Y-49377000D01*
X22546023Y-49355345D01*
X22757440Y-49291212D01*
X22952284Y-49187066D01*
X23123065Y-49046909D01*
X23263222Y-48876128D01*
X23367368Y-48681284D01*
X23431501Y-48469867D01*
X23453156Y-48250000D01*
X23453156Y-43250000D01*
X23431501Y-43030133D01*
X23367368Y-42818716D01*
X23263222Y-42623872D01*
X23123065Y-42453091D01*
X22952284Y-42312934D01*
X22757440Y-42208788D01*
X22546023Y-42144655D01*
X22326156Y-42123000D01*
X10326156Y-42123000D01*
X10106289Y-42144655D01*
X9894872Y-42208788D01*
X9700028Y-42312934D01*
X9529247Y-42453091D01*
X9389090Y-42623872D01*
X9284944Y-42818716D01*
X9220811Y-43030133D01*
X9199156Y-43250000D01*
X4800916Y-43250000D01*
X4841713Y-43115511D01*
X4870385Y-42824400D01*
X4841713Y-42533289D01*
X4756799Y-42253366D01*
X4618906Y-41995386D01*
X4433334Y-41769266D01*
X4207214Y-41583694D01*
X4152409Y-41554400D01*
X4207214Y-41525106D01*
X4433334Y-41339534D01*
X4618906Y-41113414D01*
X4756799Y-40855434D01*
X4841713Y-40575511D01*
X4870385Y-40284400D01*
X4841713Y-39993289D01*
X4756799Y-39713366D01*
X4618906Y-39455386D01*
X4433334Y-39229266D01*
X4207214Y-39043694D01*
X4152409Y-39014400D01*
X4207214Y-38985106D01*
X4433334Y-38799534D01*
X4618906Y-38573414D01*
X4756799Y-38315434D01*
X4841713Y-38035511D01*
X4870385Y-37744400D01*
X4841713Y-37453289D01*
X4756799Y-37173366D01*
X4618906Y-36915386D01*
X4433334Y-36689266D01*
X4207214Y-36503694D01*
X4152409Y-36474400D01*
X4207214Y-36445106D01*
X4433334Y-36259534D01*
X4618906Y-36033414D01*
X4756799Y-35775434D01*
X4841713Y-35495511D01*
X4870385Y-35204400D01*
X4841713Y-34913289D01*
X4756799Y-34633366D01*
X4618906Y-34375386D01*
X4516005Y-34250000D01*
X9123000Y-34250000D01*
X9123000Y-39250000D01*
X9144655Y-39469867D01*
X9208788Y-39681284D01*
X9312934Y-39876128D01*
X9453091Y-40046909D01*
X9623872Y-40187066D01*
X9818716Y-40291212D01*
X10030133Y-40355345D01*
X10250000Y-40377000D01*
X22250000Y-40377000D01*
X22469867Y-40355345D01*
X22681284Y-40291212D01*
X22876128Y-40187066D01*
X23046909Y-40046909D01*
X23187066Y-39876128D01*
X23291212Y-39681284D01*
X23355345Y-39469867D01*
X23377000Y-39250000D01*
X23377000Y-34250000D01*
X23355345Y-34030133D01*
X23291212Y-33818716D01*
X23187066Y-33623872D01*
X23046909Y-33453091D01*
X22876128Y-33312934D01*
X22681284Y-33208788D01*
X22469867Y-33144655D01*
X22250000Y-33123000D01*
X10250000Y-33123000D01*
X10030133Y-33144655D01*
X9818716Y-33208788D01*
X9623872Y-33312934D01*
X9453091Y-33453091D01*
X9312934Y-33623872D01*
X9208788Y-33818716D01*
X9144655Y-34030133D01*
X9123000Y-34250000D01*
X4516005Y-34250000D01*
X4433334Y-34149266D01*
X4207214Y-33963694D01*
X4152409Y-33934400D01*
X4207214Y-33905106D01*
X4433334Y-33719534D01*
X4618906Y-33493414D01*
X4756799Y-33235434D01*
X4841713Y-32955511D01*
X4870385Y-32664400D01*
X4841713Y-32373289D01*
X4756799Y-32093366D01*
X4618906Y-31835386D01*
X4433334Y-31609266D01*
X4207214Y-31423694D01*
X4152409Y-31394400D01*
X4207214Y-31365106D01*
X4433334Y-31179534D01*
X4618906Y-30953414D01*
X4756799Y-30695434D01*
X4841713Y-30415511D01*
X4870385Y-30124400D01*
X4841713Y-29833289D01*
X4756799Y-29553366D01*
X4618906Y-29295386D01*
X4433334Y-29069266D01*
X4207214Y-28883694D01*
X4152409Y-28854400D01*
X4207214Y-28825106D01*
X4433334Y-28639534D01*
X4618906Y-28413414D01*
X4756799Y-28155434D01*
X4841713Y-27875511D01*
X4870385Y-27584400D01*
X4841713Y-27293289D01*
X4756799Y-27013366D01*
X4618906Y-26755386D01*
X4433334Y-26529266D01*
X4207214Y-26343694D01*
X4152409Y-26314400D01*
X4207214Y-26285106D01*
X4433334Y-26099534D01*
X4618906Y-25873414D01*
X4756799Y-25615434D01*
X4791815Y-25500000D01*
X9123000Y-25500000D01*
X9123000Y-30500000D01*
X9144655Y-30719867D01*
X9208788Y-30931284D01*
X9312934Y-31126128D01*
X9453091Y-31296909D01*
X9623872Y-31437066D01*
X9818716Y-31541212D01*
X10030133Y-31605345D01*
X10250000Y-31627000D01*
X22250000Y-31627000D01*
X22469867Y-31605345D01*
X22681284Y-31541212D01*
X22876128Y-31437066D01*
X23046909Y-31296909D01*
X23187066Y-31126128D01*
X23291212Y-30931284D01*
X23355345Y-30719867D01*
X23377000Y-30500000D01*
X23377000Y-29911924D01*
X70173000Y-29911924D01*
X70173000Y-30212716D01*
X70231681Y-30507730D01*
X70346790Y-30785626D01*
X70448001Y-30937099D01*
X70448000Y-63425222D01*
X70346790Y-63576694D01*
X70231681Y-63854590D01*
X70173000Y-64149604D01*
X70173000Y-64450396D01*
X70231681Y-64745410D01*
X70346790Y-65023306D01*
X70513901Y-65273406D01*
X70726594Y-65486099D01*
X70976694Y-65653210D01*
X71254590Y-65768319D01*
X71549604Y-65827000D01*
X71850396Y-65827000D01*
X72145410Y-65768319D01*
X72423306Y-65653210D01*
X72673406Y-65486099D01*
X72886099Y-65273406D01*
X73053210Y-65023306D01*
X73168319Y-64745410D01*
X73222907Y-64470970D01*
X92476844Y-64470970D01*
X92521495Y-64618179D01*
X92646679Y-64881000D01*
X92820732Y-65114349D01*
X93036965Y-65309258D01*
X93287068Y-65458237D01*
X93561429Y-65555561D01*
X93791320Y-65434894D01*
X93791320Y-64241080D01*
X94045320Y-64241080D01*
X94045320Y-65434894D01*
X94275211Y-65555561D01*
X94549572Y-65458237D01*
X94799675Y-65309258D01*
X95015908Y-65114349D01*
X95189961Y-64881000D01*
X95315145Y-64618179D01*
X95359796Y-64470970D01*
X95238475Y-64241080D01*
X94045320Y-64241080D01*
X93791320Y-64241080D01*
X92598165Y-64241080D01*
X92476844Y-64470970D01*
X73222907Y-64470970D01*
X73227000Y-64450396D01*
X73227000Y-64149604D01*
X73168319Y-63854590D01*
X73053210Y-63576694D01*
X72952000Y-63425222D01*
X72952000Y-61574080D01*
X92426135Y-61574080D01*
X92454807Y-61865191D01*
X92539721Y-62145114D01*
X92677614Y-62403094D01*
X92863186Y-62629214D01*
X93089306Y-62814786D01*
X93153843Y-62849281D01*
X93036965Y-62918902D01*
X92820732Y-63113811D01*
X92646679Y-63347160D01*
X92521495Y-63609981D01*
X92476844Y-63757190D01*
X92598165Y-63987080D01*
X93791320Y-63987080D01*
X93791320Y-63967080D01*
X94045320Y-63967080D01*
X94045320Y-63987080D01*
X95238475Y-63987080D01*
X95359796Y-63757190D01*
X95315145Y-63609981D01*
X95189961Y-63347160D01*
X95015908Y-63113811D01*
X94799675Y-62918902D01*
X94682797Y-62849281D01*
X94747334Y-62814786D01*
X94973454Y-62629214D01*
X95159026Y-62403094D01*
X95296919Y-62145114D01*
X95381833Y-61865191D01*
X95410505Y-61574080D01*
X95381833Y-61282969D01*
X95296919Y-61003046D01*
X95159026Y-60745066D01*
X94973454Y-60518946D01*
X94943633Y-60494473D01*
X95012500Y-60473582D01*
X95122814Y-60414617D01*
X95219505Y-60335265D01*
X95298857Y-60238574D01*
X95357822Y-60128260D01*
X95394132Y-60008562D01*
X95406392Y-59884080D01*
X95406392Y-58184080D01*
X95394132Y-58059598D01*
X95357822Y-57939900D01*
X95298857Y-57829586D01*
X95219505Y-57732895D01*
X95122814Y-57653543D01*
X95012500Y-57594578D01*
X94892802Y-57558268D01*
X94768320Y-57546008D01*
X93068320Y-57546008D01*
X92943838Y-57558268D01*
X92824140Y-57594578D01*
X92713826Y-57653543D01*
X92617135Y-57732895D01*
X92537783Y-57829586D01*
X92478818Y-57939900D01*
X92442508Y-58059598D01*
X92430248Y-58184080D01*
X92430248Y-59884080D01*
X92442508Y-60008562D01*
X92478818Y-60128260D01*
X92537783Y-60238574D01*
X92617135Y-60335265D01*
X92713826Y-60414617D01*
X92824140Y-60473582D01*
X92893007Y-60494473D01*
X92863186Y-60518946D01*
X92677614Y-60745066D01*
X92539721Y-61003046D01*
X92454807Y-61282969D01*
X92426135Y-61574080D01*
X72952000Y-61574080D01*
X72952000Y-48140000D01*
X91957089Y-48140000D01*
X91988657Y-48460516D01*
X92082148Y-48768715D01*
X92233969Y-49052752D01*
X92438286Y-49301714D01*
X92687248Y-49506031D01*
X92971285Y-49657852D01*
X93279484Y-49751343D01*
X93519678Y-49775000D01*
X94280322Y-49775000D01*
X94520516Y-49751343D01*
X94828715Y-49657852D01*
X95112752Y-49506031D01*
X95361714Y-49301714D01*
X95566031Y-49052752D01*
X95717852Y-48768715D01*
X95811343Y-48460516D01*
X95842911Y-48140000D01*
X95811343Y-47819484D01*
X95717852Y-47511285D01*
X95566031Y-47227248D01*
X95507345Y-47155739D01*
X95554494Y-47130537D01*
X95651185Y-47051185D01*
X95730537Y-46954494D01*
X95789502Y-46844180D01*
X95825812Y-46724482D01*
X95838072Y-46600000D01*
X95838072Y-44600000D01*
X95825812Y-44475518D01*
X95789502Y-44355820D01*
X95730537Y-44245506D01*
X95651185Y-44148815D01*
X95554494Y-44069463D01*
X95444180Y-44010498D01*
X95324482Y-43974188D01*
X95200000Y-43961928D01*
X92600000Y-43961928D01*
X92475518Y-43974188D01*
X92355820Y-44010498D01*
X92245506Y-44069463D01*
X92148815Y-44148815D01*
X92069463Y-44245506D01*
X92010498Y-44355820D01*
X91974188Y-44475518D01*
X91961928Y-44600000D01*
X91961928Y-46600000D01*
X91974188Y-46724482D01*
X92010498Y-46844180D01*
X92069463Y-46954494D01*
X92148815Y-47051185D01*
X92245506Y-47130537D01*
X92292655Y-47155739D01*
X92233969Y-47227248D01*
X92082148Y-47511285D01*
X91988657Y-47819484D01*
X91957089Y-48140000D01*
X72952000Y-48140000D01*
X72952000Y-41340000D01*
X91957089Y-41340000D01*
X91988657Y-41660516D01*
X92082148Y-41968715D01*
X92233969Y-42252752D01*
X92438286Y-42501714D01*
X92687248Y-42706031D01*
X92971285Y-42857852D01*
X93279484Y-42951343D01*
X93519678Y-42975000D01*
X94280322Y-42975000D01*
X94520516Y-42951343D01*
X94828715Y-42857852D01*
X95112752Y-42706031D01*
X95361714Y-42501714D01*
X95566031Y-42252752D01*
X95717852Y-41968715D01*
X95811343Y-41660516D01*
X95842911Y-41340000D01*
X95811343Y-41019484D01*
X95717852Y-40711285D01*
X95566031Y-40427248D01*
X95507345Y-40355739D01*
X95554494Y-40330537D01*
X95651185Y-40251185D01*
X95730537Y-40154494D01*
X95789502Y-40044180D01*
X95825812Y-39924482D01*
X95838072Y-39800000D01*
X95838072Y-37800000D01*
X95825812Y-37675518D01*
X95789502Y-37555820D01*
X95730537Y-37445506D01*
X95651185Y-37348815D01*
X95554494Y-37269463D01*
X95444180Y-37210498D01*
X95324482Y-37174188D01*
X95200000Y-37161928D01*
X92600000Y-37161928D01*
X92475518Y-37174188D01*
X92355820Y-37210498D01*
X92245506Y-37269463D01*
X92148815Y-37348815D01*
X92069463Y-37445506D01*
X92010498Y-37555820D01*
X91974188Y-37675518D01*
X91961928Y-37800000D01*
X91961928Y-39800000D01*
X91974188Y-39924482D01*
X92010498Y-40044180D01*
X92069463Y-40154494D01*
X92148815Y-40251185D01*
X92245506Y-40330537D01*
X92292655Y-40355739D01*
X92233969Y-40427248D01*
X92082148Y-40711285D01*
X91988657Y-41019484D01*
X91957089Y-41340000D01*
X72952000Y-41340000D01*
X72952000Y-30937098D01*
X73053210Y-30785626D01*
X73168319Y-30507730D01*
X73227000Y-30212716D01*
X73227000Y-29911924D01*
X73168319Y-29616910D01*
X73053210Y-29339014D01*
X72886099Y-29088914D01*
X72673406Y-28876221D01*
X72423306Y-28709110D01*
X72145410Y-28594001D01*
X71850396Y-28535320D01*
X71549604Y-28535320D01*
X71254590Y-28594001D01*
X70976694Y-28709110D01*
X70726594Y-28876221D01*
X70513901Y-29088914D01*
X70346790Y-29339014D01*
X70231681Y-29616910D01*
X70173000Y-29911924D01*
X23377000Y-29911924D01*
X23377000Y-25500000D01*
X23355345Y-25280133D01*
X23291212Y-25068716D01*
X23187066Y-24873872D01*
X23046909Y-24703091D01*
X22876128Y-24562934D01*
X22681284Y-24458788D01*
X22469867Y-24394655D01*
X22250000Y-24373000D01*
X10250000Y-24373000D01*
X10030133Y-24394655D01*
X9818716Y-24458788D01*
X9623872Y-24562934D01*
X9453091Y-24703091D01*
X9312934Y-24873872D01*
X9208788Y-25068716D01*
X9144655Y-25280133D01*
X9123000Y-25500000D01*
X4791815Y-25500000D01*
X4841713Y-25335511D01*
X4870385Y-25044400D01*
X4841713Y-24753289D01*
X4756799Y-24473366D01*
X4618906Y-24215386D01*
X4433334Y-23989266D01*
X4207214Y-23803694D01*
X3949234Y-23665801D01*
X3669311Y-23580887D01*
X3451150Y-23559400D01*
X3305250Y-23559400D01*
X3087089Y-23580887D01*
X2807166Y-23665801D01*
X2549186Y-23803694D01*
X2323066Y-23989266D01*
X2137494Y-24215386D01*
X1999601Y-24473366D01*
X1914687Y-24753289D01*
X1886015Y-25044400D01*
X695000Y-25044400D01*
X695000Y-16500000D01*
X9123000Y-16500000D01*
X9123000Y-21500000D01*
X9144655Y-21719867D01*
X9208788Y-21931284D01*
X9312934Y-22126128D01*
X9453091Y-22296909D01*
X9623872Y-22437066D01*
X9818716Y-22541212D01*
X10030133Y-22605345D01*
X10250000Y-22627000D01*
X22250000Y-22627000D01*
X22469867Y-22605345D01*
X22681284Y-22541212D01*
X22876128Y-22437066D01*
X23046909Y-22296909D01*
X23187066Y-22126128D01*
X23291212Y-21931284D01*
X23355345Y-21719867D01*
X23377000Y-21500000D01*
X23377000Y-16500000D01*
X23355345Y-16280133D01*
X23291212Y-16068716D01*
X23187066Y-15873872D01*
X23046909Y-15703091D01*
X22876128Y-15562934D01*
X22681284Y-15458788D01*
X22469867Y-15394655D01*
X22250000Y-15373000D01*
X10250000Y-15373000D01*
X10030133Y-15394655D01*
X9818716Y-15458788D01*
X9623872Y-15562934D01*
X9453091Y-15703091D01*
X9312934Y-15873872D01*
X9208788Y-16068716D01*
X9144655Y-16280133D01*
X9123000Y-16500000D01*
X695000Y-16500000D01*
X695000Y-9425973D01*
X36873000Y-9425973D01*
X36873000Y-21425973D01*
X36894655Y-21645840D01*
X36958788Y-21857257D01*
X37062934Y-22052101D01*
X37203091Y-22222882D01*
X37373872Y-22363039D01*
X37568716Y-22467185D01*
X37780133Y-22531318D01*
X38000000Y-22552973D01*
X43000000Y-22552973D01*
X43219867Y-22531318D01*
X43431284Y-22467185D01*
X43626128Y-22363039D01*
X43796909Y-22222882D01*
X43937066Y-22052101D01*
X44041212Y-21857257D01*
X44105345Y-21645840D01*
X44127000Y-21425973D01*
X44127000Y-9425973D01*
X45623000Y-9425973D01*
X45623000Y-21425973D01*
X45644655Y-21645840D01*
X45708788Y-21857257D01*
X45812934Y-22052101D01*
X45953091Y-22222882D01*
X46123872Y-22363039D01*
X46318716Y-22467185D01*
X46530133Y-22531318D01*
X46750000Y-22552973D01*
X51750000Y-22552973D01*
X51969867Y-22531318D01*
X52181284Y-22467185D01*
X52376128Y-22363039D01*
X52546909Y-22222882D01*
X52687066Y-22052101D01*
X52791212Y-21857257D01*
X52855345Y-21645840D01*
X52877000Y-21425973D01*
X52877000Y-9425973D01*
X54623000Y-9425973D01*
X54623000Y-21425973D01*
X54644655Y-21645840D01*
X54708788Y-21857257D01*
X54812934Y-22052101D01*
X54953091Y-22222882D01*
X55123872Y-22363039D01*
X55318716Y-22467185D01*
X55530133Y-22531318D01*
X55750000Y-22552973D01*
X60750000Y-22552973D01*
X60969867Y-22531318D01*
X61181284Y-22467185D01*
X61376128Y-22363039D01*
X61546909Y-22222882D01*
X61687066Y-22052101D01*
X61791212Y-21857257D01*
X61855345Y-21645840D01*
X61877000Y-21425973D01*
X61877000Y-9425973D01*
X63373000Y-9425973D01*
X63373000Y-21425973D01*
X63394655Y-21645840D01*
X63458788Y-21857257D01*
X63562934Y-22052101D01*
X63703091Y-22222882D01*
X63873872Y-22363039D01*
X64068716Y-22467185D01*
X64280133Y-22531318D01*
X64500000Y-22552973D01*
X69500000Y-22552973D01*
X69719867Y-22531318D01*
X69931284Y-22467185D01*
X70126128Y-22363039D01*
X70296909Y-22222882D01*
X70437066Y-22052101D01*
X70541212Y-21857257D01*
X70605345Y-21645840D01*
X70627000Y-21425973D01*
X70627000Y-9425973D01*
X72181241Y-9425973D01*
X72181241Y-21425973D01*
X72202896Y-21645840D01*
X72267029Y-21857257D01*
X72371175Y-22052101D01*
X72511332Y-22222882D01*
X72682113Y-22363039D01*
X72876957Y-22467185D01*
X73088374Y-22531318D01*
X73308241Y-22552973D01*
X78308241Y-22552973D01*
X78528108Y-22531318D01*
X78739525Y-22467185D01*
X78934369Y-22363039D01*
X79105150Y-22222882D01*
X79245307Y-22052101D01*
X79349453Y-21857257D01*
X79413586Y-21645840D01*
X79435241Y-21425973D01*
X79435241Y-9425973D01*
X81123000Y-9425973D01*
X81123000Y-21425973D01*
X81144655Y-21645840D01*
X81208788Y-21857257D01*
X81312934Y-22052101D01*
X81453091Y-22222882D01*
X81623872Y-22363039D01*
X81818716Y-22467185D01*
X82030133Y-22531318D01*
X82250000Y-22552973D01*
X87250000Y-22552973D01*
X87469867Y-22531318D01*
X87681284Y-22467185D01*
X87876128Y-22363039D01*
X88046909Y-22222882D01*
X88187066Y-22052101D01*
X88291212Y-21857257D01*
X88355345Y-21645840D01*
X88377000Y-21425973D01*
X88377000Y-9425973D01*
X88355345Y-9206106D01*
X88291212Y-8994689D01*
X88187066Y-8799845D01*
X88046909Y-8629064D01*
X87876128Y-8488907D01*
X87681284Y-8384761D01*
X87469867Y-8320628D01*
X87250000Y-8298973D01*
X82250000Y-8298973D01*
X82030133Y-8320628D01*
X81818716Y-8384761D01*
X81623872Y-8488907D01*
X81453091Y-8629064D01*
X81312934Y-8799845D01*
X81208788Y-8994689D01*
X81144655Y-9206106D01*
X81123000Y-9425973D01*
X79435241Y-9425973D01*
X79413586Y-9206106D01*
X79349453Y-8994689D01*
X79245307Y-8799845D01*
X79105150Y-8629064D01*
X78934369Y-8488907D01*
X78739525Y-8384761D01*
X78528108Y-8320628D01*
X78308241Y-8298973D01*
X73308241Y-8298973D01*
X73088374Y-8320628D01*
X72876957Y-8384761D01*
X72682113Y-8488907D01*
X72511332Y-8629064D01*
X72371175Y-8799845D01*
X72267029Y-8994689D01*
X72202896Y-9206106D01*
X72181241Y-9425973D01*
X70627000Y-9425973D01*
X70605345Y-9206106D01*
X70541212Y-8994689D01*
X70437066Y-8799845D01*
X70296909Y-8629064D01*
X70126128Y-8488907D01*
X69931284Y-8384761D01*
X69719867Y-8320628D01*
X69500000Y-8298973D01*
X64500000Y-8298973D01*
X64280133Y-8320628D01*
X64068716Y-8384761D01*
X63873872Y-8488907D01*
X63703091Y-8629064D01*
X63562934Y-8799845D01*
X63458788Y-8994689D01*
X63394655Y-9206106D01*
X63373000Y-9425973D01*
X61877000Y-9425973D01*
X61855345Y-9206106D01*
X61791212Y-8994689D01*
X61687066Y-8799845D01*
X61546909Y-8629064D01*
X61376128Y-8488907D01*
X61181284Y-8384761D01*
X60969867Y-8320628D01*
X60750000Y-8298973D01*
X55750000Y-8298973D01*
X55530133Y-8320628D01*
X55318716Y-8384761D01*
X55123872Y-8488907D01*
X54953091Y-8629064D01*
X54812934Y-8799845D01*
X54708788Y-8994689D01*
X54644655Y-9206106D01*
X54623000Y-9425973D01*
X52877000Y-9425973D01*
X52855345Y-9206106D01*
X52791212Y-8994689D01*
X52687066Y-8799845D01*
X52546909Y-8629064D01*
X52376128Y-8488907D01*
X52181284Y-8384761D01*
X51969867Y-8320628D01*
X51750000Y-8298973D01*
X46750000Y-8298973D01*
X46530133Y-8320628D01*
X46318716Y-8384761D01*
X46123872Y-8488907D01*
X45953091Y-8629064D01*
X45812934Y-8799845D01*
X45708788Y-8994689D01*
X45644655Y-9206106D01*
X45623000Y-9425973D01*
X44127000Y-9425973D01*
X44105345Y-9206106D01*
X44041212Y-8994689D01*
X43937066Y-8799845D01*
X43796909Y-8629064D01*
X43626128Y-8488907D01*
X43431284Y-8384761D01*
X43219867Y-8320628D01*
X43000000Y-8298973D01*
X38000000Y-8298973D01*
X37780133Y-8320628D01*
X37568716Y-8384761D01*
X37373872Y-8488907D01*
X37203091Y-8629064D01*
X37062934Y-8799845D01*
X36958788Y-8994689D01*
X36894655Y-9206106D01*
X36873000Y-9425973D01*
X695000Y-9425973D01*
X695000Y-5030958D01*
X727078Y-4671531D01*
X1665000Y-4671531D01*
X1665000Y-5328469D01*
X1793162Y-5972784D01*
X2044561Y-6579715D01*
X2409536Y-7125939D01*
X2874061Y-7590464D01*
X3420285Y-7955439D01*
X4027216Y-8206838D01*
X4671531Y-8335000D01*
X5328469Y-8335000D01*
X5972784Y-8206838D01*
X6579715Y-7955439D01*
X7125939Y-7590464D01*
X7590464Y-7125939D01*
X7955439Y-6579715D01*
X8206838Y-5972784D01*
X8335000Y-5328469D01*
X8335000Y-4671531D01*
X91665000Y-4671531D01*
X91665000Y-5328469D01*
X91793162Y-5972784D01*
X92044561Y-6579715D01*
X92409536Y-7125939D01*
X92874061Y-7590464D01*
X93420285Y-7955439D01*
X94027216Y-8206838D01*
X94671531Y-8335000D01*
X95328469Y-8335000D01*
X95972784Y-8206838D01*
X96579715Y-7955439D01*
X97125939Y-7590464D01*
X97590464Y-7125939D01*
X97955439Y-6579715D01*
X98206838Y-5972784D01*
X98335000Y-5328469D01*
X98335000Y-4671531D01*
X98206838Y-4027216D01*
X97955439Y-3420285D01*
X97590464Y-2874061D01*
X97125939Y-2409536D01*
X96579715Y-2044561D01*
X95972784Y-1793162D01*
X95328469Y-1665000D01*
X94671531Y-1665000D01*
X94027216Y-1793162D01*
X93420285Y-2044561D01*
X92874061Y-2409536D01*
X92409536Y-2874061D01*
X92044561Y-3420285D01*
X91793162Y-4027216D01*
X91665000Y-4671531D01*
X8335000Y-4671531D01*
X8206838Y-4027216D01*
X7955439Y-3420285D01*
X7590464Y-2874061D01*
X7125939Y-2409536D01*
X6579715Y-2044561D01*
X5972784Y-1793162D01*
X5328469Y-1665000D01*
X4671531Y-1665000D01*
X4027216Y-1793162D01*
X3420285Y-2044561D01*
X2874061Y-2409536D01*
X2409536Y-2874061D01*
X2044561Y-3420285D01*
X1793162Y-4027216D01*
X1665000Y-4671531D01*
X727078Y-4671531D01*
X765758Y-4238135D01*
X967589Y-3500363D01*
X1296884Y-2809982D01*
X1743225Y-2188832D01*
X2292514Y-1656533D01*
X2927383Y-1229920D01*
X3627759Y-922476D01*
X4376860Y-742632D01*
X5025490Y-695000D01*
X94969042Y-695000D01*
X95761865Y-765758D01*
X95761865Y-765758D01*
G37*
X95761865Y-765758D02*
X96499637Y-967589D01*
X97190018Y-1296884D01*
X97811168Y-1743225D01*
X98343467Y-2292514D01*
X98770080Y-2927383D01*
X99077524Y-3627759D01*
X99257368Y-4376860D01*
X99305000Y-5025490D01*
X99305001Y-94969032D01*
X99234243Y-95761862D01*
X99032411Y-96499637D01*
X98703116Y-97190018D01*
X98256775Y-97811168D01*
X97707483Y-98343469D01*
X97072617Y-98770080D01*
X96372240Y-99077525D01*
X95623140Y-99257368D01*
X94974510Y-99305000D01*
X5030957Y-99305000D01*
X4238138Y-99234243D01*
X3500363Y-99032411D01*
X2809982Y-98703116D01*
X2188832Y-98256775D01*
X1656531Y-97707483D01*
X1229920Y-97072617D01*
X922475Y-96372240D01*
X742632Y-95623140D01*
X695000Y-94974510D01*
X695000Y-94671531D01*
X1665000Y-94671531D01*
X1665000Y-95328469D01*
X1793162Y-95972784D01*
X2044561Y-96579715D01*
X2409536Y-97125939D01*
X2874061Y-97590464D01*
X3420285Y-97955439D01*
X4027216Y-98206838D01*
X4671531Y-98335000D01*
X5328469Y-98335000D01*
X5972784Y-98206838D01*
X6579715Y-97955439D01*
X7125939Y-97590464D01*
X7590464Y-97125939D01*
X7908476Y-96650000D01*
X66011928Y-96650000D01*
X66011928Y-98350000D01*
X66024188Y-98474482D01*
X66060498Y-98594180D01*
X66119463Y-98704494D01*
X66198815Y-98801185D01*
X66295506Y-98880537D01*
X66405820Y-98939502D01*
X66525518Y-98975812D01*
X66650000Y-98988072D01*
X68350000Y-98988072D01*
X68474482Y-98975812D01*
X68594180Y-98939502D01*
X68704494Y-98880537D01*
X68801185Y-98801185D01*
X68880537Y-98704494D01*
X68939502Y-98594180D01*
X68960393Y-98525313D01*
X68984866Y-98555134D01*
X69210986Y-98740706D01*
X69468966Y-98878599D01*
X69748889Y-98963513D01*
X69967050Y-98985000D01*
X70112950Y-98985000D01*
X70331111Y-98963513D01*
X70611034Y-98878599D01*
X70869014Y-98740706D01*
X71095134Y-98555134D01*
X71280706Y-98329014D01*
X71310000Y-98274209D01*
X71339294Y-98329014D01*
X71524866Y-98555134D01*
X71750986Y-98740706D01*
X72008966Y-98878599D01*
X72288889Y-98963513D01*
X72507050Y-98985000D01*
X72652950Y-98985000D01*
X72871111Y-98963513D01*
X73151034Y-98878599D01*
X73409014Y-98740706D01*
X73635134Y-98555134D01*
X73820706Y-98329014D01*
X73850000Y-98274209D01*
X73879294Y-98329014D01*
X74064866Y-98555134D01*
X74290986Y-98740706D01*
X74548966Y-98878599D01*
X74828889Y-98963513D01*
X75047050Y-98985000D01*
X75192950Y-98985000D01*
X75411111Y-98963513D01*
X75691034Y-98878599D01*
X75949014Y-98740706D01*
X76175134Y-98555134D01*
X76360706Y-98329014D01*
X76390000Y-98274209D01*
X76419294Y-98329014D01*
X76604866Y-98555134D01*
X76830986Y-98740706D01*
X77088966Y-98878599D01*
X77368889Y-98963513D01*
X77587050Y-98985000D01*
X77732950Y-98985000D01*
X77951111Y-98963513D01*
X78231034Y-98878599D01*
X78489014Y-98740706D01*
X78715134Y-98555134D01*
X78900706Y-98329014D01*
X78930000Y-98274209D01*
X78959294Y-98329014D01*
X79144866Y-98555134D01*
X79370986Y-98740706D01*
X79628966Y-98878599D01*
X79908889Y-98963513D01*
X80127050Y-98985000D01*
X80272950Y-98985000D01*
X80491111Y-98963513D01*
X80771034Y-98878599D01*
X81029014Y-98740706D01*
X81255134Y-98555134D01*
X81440706Y-98329014D01*
X81470000Y-98274209D01*
X81499294Y-98329014D01*
X81684866Y-98555134D01*
X81910986Y-98740706D01*
X82168966Y-98878599D01*
X82448889Y-98963513D01*
X82667050Y-98985000D01*
X82812950Y-98985000D01*
X83031111Y-98963513D01*
X83311034Y-98878599D01*
X83569014Y-98740706D01*
X83795134Y-98555134D01*
X83980706Y-98329014D01*
X84010000Y-98274209D01*
X84039294Y-98329014D01*
X84224866Y-98555134D01*
X84450986Y-98740706D01*
X84708966Y-98878599D01*
X84988889Y-98963513D01*
X85207050Y-98985000D01*
X85352950Y-98985000D01*
X85571111Y-98963513D01*
X85851034Y-98878599D01*
X86109014Y-98740706D01*
X86335134Y-98555134D01*
X86520706Y-98329014D01*
X86550000Y-98274209D01*
X86579294Y-98329014D01*
X86764866Y-98555134D01*
X86990986Y-98740706D01*
X87248966Y-98878599D01*
X87528889Y-98963513D01*
X87747050Y-98985000D01*
X87892950Y-98985000D01*
X88111111Y-98963513D01*
X88391034Y-98878599D01*
X88649014Y-98740706D01*
X88875134Y-98555134D01*
X89060706Y-98329014D01*
X89095201Y-98264477D01*
X89164822Y-98381355D01*
X89359731Y-98597588D01*
X89593080Y-98771641D01*
X89855901Y-98896825D01*
X90003110Y-98941476D01*
X90233000Y-98820155D01*
X90233000Y-97627000D01*
X90487000Y-97627000D01*
X90487000Y-98820155D01*
X90716890Y-98941476D01*
X90864099Y-98896825D01*
X91126920Y-98771641D01*
X91360269Y-98597588D01*
X91555178Y-98381355D01*
X91704157Y-98131252D01*
X91801481Y-97856891D01*
X91680814Y-97627000D01*
X90487000Y-97627000D01*
X90233000Y-97627000D01*
X90213000Y-97627000D01*
X90213000Y-97373000D01*
X90233000Y-97373000D01*
X90233000Y-96179845D01*
X90487000Y-96179845D01*
X90487000Y-97373000D01*
X91680814Y-97373000D01*
X91801481Y-97143109D01*
X91704157Y-96868748D01*
X91555178Y-96618645D01*
X91360269Y-96402412D01*
X91126920Y-96228359D01*
X90864099Y-96103175D01*
X90716890Y-96058524D01*
X90487000Y-96179845D01*
X90233000Y-96179845D01*
X90003110Y-96058524D01*
X89855901Y-96103175D01*
X89593080Y-96228359D01*
X89359731Y-96402412D01*
X89164822Y-96618645D01*
X89095201Y-96735523D01*
X89060706Y-96670986D01*
X88875134Y-96444866D01*
X88649014Y-96259294D01*
X88560000Y-96211715D01*
X88560000Y-94671531D01*
X91665000Y-94671531D01*
X91665000Y-95328469D01*
X91793162Y-95972784D01*
X92044561Y-96579715D01*
X92409536Y-97125939D01*
X92874061Y-97590464D01*
X93420285Y-97955439D01*
X94027216Y-98206838D01*
X94671531Y-98335000D01*
X95328469Y-98335000D01*
X95972784Y-98206838D01*
X96579715Y-97955439D01*
X97125939Y-97590464D01*
X97590464Y-97125939D01*
X97955439Y-96579715D01*
X98206838Y-95972784D01*
X98335000Y-95328469D01*
X98335000Y-94671531D01*
X98206838Y-94027216D01*
X97955439Y-93420285D01*
X97590464Y-92874061D01*
X97125939Y-92409536D01*
X96579715Y-92044561D01*
X95972784Y-91793162D01*
X95328469Y-91665000D01*
X94671531Y-91665000D01*
X94027216Y-91793162D01*
X93420285Y-92044561D01*
X92874061Y-92409536D01*
X92409536Y-92874061D01*
X92044561Y-93420285D01*
X91793162Y-94027216D01*
X91665000Y-94671531D01*
X88560000Y-94671531D01*
X88560000Y-89503711D01*
X88603937Y-89459774D01*
X88717205Y-89290256D01*
X88795226Y-89101898D01*
X88835000Y-88901939D01*
X88835000Y-88698061D01*
X88795226Y-88498102D01*
X88717205Y-88309744D01*
X88603937Y-88140226D01*
X88459774Y-87996063D01*
X88290256Y-87882795D01*
X88101898Y-87804774D01*
X87901939Y-87765000D01*
X87698061Y-87765000D01*
X87498102Y-87804774D01*
X87309744Y-87882795D01*
X87140226Y-87996063D01*
X86996063Y-88140226D01*
X86882795Y-88309744D01*
X86804774Y-88498102D01*
X86765000Y-88698061D01*
X86765000Y-88901939D01*
X86804774Y-89101898D01*
X86882795Y-89290256D01*
X86996063Y-89459774D01*
X87040000Y-89503711D01*
X87040001Y-96233095D01*
X86990986Y-96259294D01*
X86764866Y-96444866D01*
X86579294Y-96670986D01*
X86550000Y-96725791D01*
X86520706Y-96670986D01*
X86335134Y-96444866D01*
X86109014Y-96259294D01*
X86007480Y-96205023D01*
X86007480Y-89304802D01*
X86017199Y-89290256D01*
X86095220Y-89101898D01*
X86134994Y-88901939D01*
X86134994Y-88698061D01*
X86095220Y-88498102D01*
X86017199Y-88309744D01*
X85903931Y-88140226D01*
X85759768Y-87996063D01*
X85590250Y-87882795D01*
X85401892Y-87804774D01*
X85201933Y-87765000D01*
X84998055Y-87765000D01*
X84798096Y-87804774D01*
X84609738Y-87882795D01*
X84440220Y-87996063D01*
X84296057Y-88140226D01*
X84182789Y-88309744D01*
X84104768Y-88498102D01*
X84064994Y-88698061D01*
X84064994Y-88901939D01*
X84104768Y-89101898D01*
X84182789Y-89290256D01*
X84296057Y-89459774D01*
X84440220Y-89603937D01*
X84487481Y-89635516D01*
X84487480Y-96239788D01*
X84450986Y-96259294D01*
X84224866Y-96444866D01*
X84039294Y-96670986D01*
X84010000Y-96725791D01*
X83980706Y-96670986D01*
X83795134Y-96444866D01*
X83569014Y-96259294D01*
X83467480Y-96205023D01*
X83467480Y-89496227D01*
X83503933Y-89459774D01*
X83617201Y-89290256D01*
X83695222Y-89101898D01*
X83734996Y-88901939D01*
X83734996Y-88698061D01*
X83695222Y-88498102D01*
X83617201Y-88309744D01*
X83503933Y-88140226D01*
X83359770Y-87996063D01*
X83190252Y-87882795D01*
X83001894Y-87804774D01*
X82801935Y-87765000D01*
X82598057Y-87765000D01*
X82398098Y-87804774D01*
X82209740Y-87882795D01*
X82040222Y-87996063D01*
X81896059Y-88140226D01*
X81782791Y-88309744D01*
X81704770Y-88498102D01*
X81664996Y-88698061D01*
X81664996Y-88901939D01*
X81704770Y-89101898D01*
X81782791Y-89290256D01*
X81896059Y-89459774D01*
X81947481Y-89511196D01*
X81947480Y-96239788D01*
X81910986Y-96259294D01*
X81684866Y-96444866D01*
X81499294Y-96670986D01*
X81470000Y-96725791D01*
X81440706Y-96670986D01*
X81255134Y-96444866D01*
X81029014Y-96259294D01*
X80927480Y-96205023D01*
X80927480Y-89636233D01*
X81003939Y-89559774D01*
X81117207Y-89390256D01*
X81195228Y-89201898D01*
X81235002Y-89001939D01*
X81235002Y-88798061D01*
X81195228Y-88598102D01*
X81117207Y-88409744D01*
X81003939Y-88240226D01*
X80859776Y-88096063D01*
X80690258Y-87982795D01*
X80501900Y-87904774D01*
X80301941Y-87865000D01*
X80098063Y-87865000D01*
X79898104Y-87904774D01*
X79709746Y-87982795D01*
X79540228Y-88096063D01*
X79396065Y-88240226D01*
X79282797Y-88409744D01*
X79204776Y-88598102D01*
X79165002Y-88798061D01*
X79165002Y-89001939D01*
X79204776Y-89201898D01*
X79282797Y-89390256D01*
X79396065Y-89559774D01*
X79407481Y-89571190D01*
X79407480Y-96239788D01*
X79370986Y-96259294D01*
X79237479Y-96368860D01*
X79237479Y-89814804D01*
X79241155Y-89777479D01*
X79237479Y-89740154D01*
X79237479Y-89740146D01*
X79226482Y-89628493D01*
X79183025Y-89485232D01*
X79112453Y-89353203D01*
X79017480Y-89237478D01*
X78988476Y-89213675D01*
X78635000Y-88860199D01*
X78635000Y-88798061D01*
X78595226Y-88598102D01*
X78517205Y-88409744D01*
X78403937Y-88240226D01*
X78259774Y-88096063D01*
X78090256Y-87982795D01*
X77901898Y-87904774D01*
X77701939Y-87865000D01*
X77498061Y-87865000D01*
X77298102Y-87904774D01*
X77109744Y-87982795D01*
X76940226Y-88096063D01*
X76796063Y-88240226D01*
X76682795Y-88409744D01*
X76604774Y-88598102D01*
X76565000Y-88798061D01*
X76565000Y-89001939D01*
X76604774Y-89201898D01*
X76682795Y-89390256D01*
X76796063Y-89559774D01*
X76940226Y-89703937D01*
X77109744Y-89817205D01*
X77298102Y-89895226D01*
X77498061Y-89935000D01*
X77560199Y-89935000D01*
X77717480Y-90092281D01*
X77717479Y-96015000D01*
X77587050Y-96015000D01*
X77368889Y-96036487D01*
X77088966Y-96121401D01*
X76830986Y-96259294D01*
X76697479Y-96368860D01*
X76697479Y-89774801D01*
X76701155Y-89737478D01*
X76697479Y-89700155D01*
X76697479Y-89700146D01*
X76686482Y-89588493D01*
X76643025Y-89445232D01*
X76641542Y-89442458D01*
X76572453Y-89313202D01*
X76526161Y-89256796D01*
X76477480Y-89197478D01*
X76448476Y-89173675D01*
X76135000Y-88860199D01*
X76135000Y-88798061D01*
X76095226Y-88598102D01*
X76017205Y-88409744D01*
X75903937Y-88240226D01*
X75759774Y-88096063D01*
X75590256Y-87982795D01*
X75401898Y-87904774D01*
X75201939Y-87865000D01*
X74998061Y-87865000D01*
X74798102Y-87904774D01*
X74609744Y-87982795D01*
X74440226Y-88096063D01*
X74296063Y-88240226D01*
X74182795Y-88409744D01*
X74104774Y-88598102D01*
X74065000Y-88798061D01*
X74065000Y-89001939D01*
X74104774Y-89201898D01*
X74182795Y-89390256D01*
X74296063Y-89559774D01*
X74440226Y-89703937D01*
X74609744Y-89817205D01*
X74798102Y-89895226D01*
X74998061Y-89935000D01*
X75060199Y-89935000D01*
X75177480Y-90052281D01*
X75177479Y-96015000D01*
X75047050Y-96015000D01*
X74828889Y-96036487D01*
X74548966Y-96121401D01*
X74290986Y-96259294D01*
X74064866Y-96444866D01*
X73879294Y-96670986D01*
X73850000Y-96725791D01*
X73820706Y-96670986D01*
X73635134Y-96444866D01*
X73409014Y-96259294D01*
X73307480Y-96205023D01*
X73307480Y-89554472D01*
X73417205Y-89390256D01*
X73495226Y-89201898D01*
X73535000Y-89001939D01*
X73535000Y-88798061D01*
X73495226Y-88598102D01*
X73417205Y-88409744D01*
X73303937Y-88240226D01*
X73159774Y-88096063D01*
X72990256Y-87982795D01*
X72801898Y-87904774D01*
X72601939Y-87865000D01*
X72398061Y-87865000D01*
X72198102Y-87904774D01*
X72009744Y-87982795D01*
X71840226Y-88096063D01*
X71696063Y-88240226D01*
X71582795Y-88409744D01*
X71504774Y-88598102D01*
X71465000Y-88798061D01*
X71465000Y-89001939D01*
X71504774Y-89201898D01*
X71582795Y-89390256D01*
X71696063Y-89559774D01*
X71787481Y-89651192D01*
X71787480Y-96239788D01*
X71750986Y-96259294D01*
X71524866Y-96444866D01*
X71339294Y-96670986D01*
X71310000Y-96725791D01*
X71280706Y-96670986D01*
X71095134Y-96444866D01*
X70869014Y-96259294D01*
X70767480Y-96205023D01*
X70767480Y-89596231D01*
X70803937Y-89559774D01*
X70917205Y-89390256D01*
X70995226Y-89201898D01*
X71035000Y-89001939D01*
X71035000Y-88798061D01*
X70995226Y-88598102D01*
X70917205Y-88409744D01*
X70803937Y-88240226D01*
X70659774Y-88096063D01*
X70490256Y-87982795D01*
X70301898Y-87904774D01*
X70101939Y-87865000D01*
X69898061Y-87865000D01*
X69698102Y-87904774D01*
X69509744Y-87982795D01*
X69340226Y-88096063D01*
X69196063Y-88240226D01*
X69082795Y-88409744D01*
X69004774Y-88598102D01*
X68965000Y-88798061D01*
X68965000Y-89001939D01*
X69004774Y-89201898D01*
X69082795Y-89390256D01*
X69196063Y-89559774D01*
X69247481Y-89611192D01*
X69247480Y-96239788D01*
X69210986Y-96259294D01*
X68984866Y-96444866D01*
X68960393Y-96474687D01*
X68939502Y-96405820D01*
X68880537Y-96295506D01*
X68801185Y-96198815D01*
X68704494Y-96119463D01*
X68594180Y-96060498D01*
X68474482Y-96024188D01*
X68350000Y-96011928D01*
X68227480Y-96011928D01*
X68227480Y-89536231D01*
X68303937Y-89459774D01*
X68417205Y-89290256D01*
X68495226Y-89101898D01*
X68535000Y-88901939D01*
X68535000Y-88698061D01*
X68495226Y-88498102D01*
X68417205Y-88309744D01*
X68303937Y-88140226D01*
X68159774Y-87996063D01*
X67990256Y-87882795D01*
X67801898Y-87804774D01*
X67601939Y-87765000D01*
X67398061Y-87765000D01*
X67198102Y-87804774D01*
X67009744Y-87882795D01*
X66840226Y-87996063D01*
X66696063Y-88140226D01*
X66582795Y-88309744D01*
X66504774Y-88498102D01*
X66465000Y-88698061D01*
X66465000Y-88901939D01*
X66504774Y-89101898D01*
X66582795Y-89290256D01*
X66696063Y-89459774D01*
X66707481Y-89471192D01*
X66707480Y-96011928D01*
X66650000Y-96011928D01*
X66525518Y-96024188D01*
X66405820Y-96060498D01*
X66295506Y-96119463D01*
X66198815Y-96198815D01*
X66119463Y-96295506D01*
X66060498Y-96405820D01*
X66024188Y-96525518D01*
X66011928Y-96650000D01*
X7908476Y-96650000D01*
X7955439Y-96579715D01*
X8206838Y-95972784D01*
X8335000Y-95328469D01*
X8335000Y-94671531D01*
X8206838Y-94027216D01*
X7955439Y-93420285D01*
X7590464Y-92874061D01*
X7125939Y-92409536D01*
X6579715Y-92044561D01*
X5972784Y-91793162D01*
X5328469Y-91665000D01*
X4671531Y-91665000D01*
X4027216Y-91793162D01*
X3420285Y-92044561D01*
X2874061Y-92409536D01*
X2409536Y-92874061D01*
X2044561Y-93420285D01*
X1793162Y-94027216D01*
X1665000Y-94671531D01*
X695000Y-94671531D01*
X695000Y-88000000D01*
X9199156Y-88000000D01*
X9199156Y-93000000D01*
X9220811Y-93219867D01*
X9284944Y-93431284D01*
X9389090Y-93626128D01*
X9529247Y-93796909D01*
X9700028Y-93937066D01*
X9894872Y-94041212D01*
X10106289Y-94105345D01*
X10326156Y-94127000D01*
X22326156Y-94127000D01*
X22546023Y-94105345D01*
X22757440Y-94041212D01*
X22952284Y-93937066D01*
X23123065Y-93796909D01*
X23263222Y-93626128D01*
X23367368Y-93431284D01*
X23431501Y-93219867D01*
X23453156Y-93000000D01*
X23453156Y-88000000D01*
X23431501Y-87780133D01*
X23367368Y-87568716D01*
X23263222Y-87373872D01*
X23123065Y-87203091D01*
X22952284Y-87062934D01*
X22757440Y-86958788D01*
X22546023Y-86894655D01*
X22326156Y-86873000D01*
X10326156Y-86873000D01*
X10106289Y-86894655D01*
X9894872Y-86958788D01*
X9700028Y-87062934D01*
X9529247Y-87203091D01*
X9389090Y-87373872D01*
X9284944Y-87568716D01*
X9220811Y-87780133D01*
X9199156Y-88000000D01*
X695000Y-88000000D01*
X695000Y-79000000D01*
X9199156Y-79000000D01*
X9199156Y-84000000D01*
X9220811Y-84219867D01*
X9284944Y-84431284D01*
X9389090Y-84626128D01*
X9529247Y-84796909D01*
X9700028Y-84937066D01*
X9894872Y-85041212D01*
X10106289Y-85105345D01*
X10326156Y-85127000D01*
X22326156Y-85127000D01*
X22546023Y-85105345D01*
X22757440Y-85041212D01*
X22952284Y-84937066D01*
X23123065Y-84796909D01*
X23263222Y-84626128D01*
X23367368Y-84431284D01*
X23431501Y-84219867D01*
X23453156Y-84000000D01*
X23453156Y-82183819D01*
X37623000Y-82183819D01*
X37623000Y-94183819D01*
X37644655Y-94403686D01*
X37708788Y-94615103D01*
X37812934Y-94809947D01*
X37953091Y-94980728D01*
X38123872Y-95120885D01*
X38318716Y-95225031D01*
X38530133Y-95289164D01*
X38750000Y-95310819D01*
X43750000Y-95310819D01*
X43969867Y-95289164D01*
X44181284Y-95225031D01*
X44376128Y-95120885D01*
X44546909Y-94980728D01*
X44687066Y-94809947D01*
X44791212Y-94615103D01*
X44855345Y-94403686D01*
X44877000Y-94183819D01*
X44877000Y-82183819D01*
X46623000Y-82183819D01*
X46623000Y-94183819D01*
X46644655Y-94403686D01*
X46708788Y-94615103D01*
X46812934Y-94809947D01*
X46953091Y-94980728D01*
X47123872Y-95120885D01*
X47318716Y-95225031D01*
X47530133Y-95289164D01*
X47750000Y-95310819D01*
X52750000Y-95310819D01*
X52969867Y-95289164D01*
X53181284Y-95225031D01*
X53376128Y-95120885D01*
X53546909Y-94980728D01*
X53687066Y-94809947D01*
X53791212Y-94615103D01*
X53855345Y-94403686D01*
X53877000Y-94183819D01*
X53877000Y-82183819D01*
X55373000Y-82183819D01*
X55373000Y-94183819D01*
X55394655Y-94403686D01*
X55458788Y-94615103D01*
X55562934Y-94809947D01*
X55703091Y-94980728D01*
X55873872Y-95120885D01*
X56068716Y-95225031D01*
X56280133Y-95289164D01*
X56500000Y-95310819D01*
X61500000Y-95310819D01*
X61719867Y-95289164D01*
X61931284Y-95225031D01*
X62126128Y-95120885D01*
X62296909Y-94980728D01*
X62437066Y-94809947D01*
X62541212Y-94615103D01*
X62605345Y-94403686D01*
X62627000Y-94183819D01*
X62627000Y-82398061D01*
X64865000Y-82398061D01*
X64865000Y-82601939D01*
X64904774Y-82801898D01*
X64966120Y-82950000D01*
X64904774Y-83098102D01*
X64865000Y-83298061D01*
X64865000Y-83501939D01*
X64904774Y-83701898D01*
X64982795Y-83890256D01*
X64989306Y-83900000D01*
X64982795Y-83909744D01*
X64904774Y-84098102D01*
X64865000Y-84298061D01*
X64865000Y-84501939D01*
X64904774Y-84701898D01*
X64982795Y-84890256D01*
X65096063Y-85059774D01*
X65240226Y-85203937D01*
X65409744Y-85317205D01*
X65598102Y-85395226D01*
X65798061Y-85435000D01*
X66001939Y-85435000D01*
X66201898Y-85395226D01*
X66390256Y-85317205D01*
X66559774Y-85203937D01*
X66703937Y-85059774D01*
X66817205Y-84890256D01*
X66895226Y-84701898D01*
X66935000Y-84501939D01*
X66935000Y-84298061D01*
X66895226Y-84098102D01*
X66817205Y-83909744D01*
X66810694Y-83900000D01*
X66817205Y-83890256D01*
X66895226Y-83701898D01*
X66935000Y-83501939D01*
X66935000Y-83298061D01*
X66895226Y-83098102D01*
X66833880Y-82950000D01*
X66895226Y-82801898D01*
X66935000Y-82601939D01*
X66935000Y-82398061D01*
X66895226Y-82198102D01*
X66817205Y-82009744D01*
X66785000Y-81961546D01*
X66785000Y-70301520D01*
X92426135Y-70301520D01*
X92454807Y-70592631D01*
X92539721Y-70872554D01*
X92677614Y-71130534D01*
X92863186Y-71356654D01*
X92893007Y-71381127D01*
X92824140Y-71402018D01*
X92713826Y-71460983D01*
X92617135Y-71540335D01*
X92537783Y-71637026D01*
X92478818Y-71747340D01*
X92442508Y-71867038D01*
X92430248Y-71991520D01*
X92430248Y-73691520D01*
X92442508Y-73816002D01*
X92478818Y-73935700D01*
X92537783Y-74046014D01*
X92617135Y-74142705D01*
X92713826Y-74222057D01*
X92824140Y-74281022D01*
X92943838Y-74317332D01*
X93068320Y-74329592D01*
X94768320Y-74329592D01*
X94892802Y-74317332D01*
X95012500Y-74281022D01*
X95122814Y-74222057D01*
X95219505Y-74142705D01*
X95298857Y-74046014D01*
X95357822Y-73935700D01*
X95394132Y-73816002D01*
X95406392Y-73691520D01*
X95406392Y-71991520D01*
X95394132Y-71867038D01*
X95357822Y-71747340D01*
X95298857Y-71637026D01*
X95219505Y-71540335D01*
X95122814Y-71460983D01*
X95012500Y-71402018D01*
X94943633Y-71381127D01*
X94973454Y-71356654D01*
X95159026Y-71130534D01*
X95296919Y-70872554D01*
X95381833Y-70592631D01*
X95410505Y-70301520D01*
X95381833Y-70010409D01*
X95296919Y-69730486D01*
X95159026Y-69472506D01*
X94973454Y-69246386D01*
X94747334Y-69060814D01*
X94682797Y-69026319D01*
X94799675Y-68956698D01*
X95015908Y-68761789D01*
X95189961Y-68528440D01*
X95315145Y-68265619D01*
X95359796Y-68118410D01*
X95238475Y-67888520D01*
X94045320Y-67888520D01*
X94045320Y-67908520D01*
X93791320Y-67908520D01*
X93791320Y-67888520D01*
X92598165Y-67888520D01*
X92476844Y-68118410D01*
X92521495Y-68265619D01*
X92646679Y-68528440D01*
X92820732Y-68761789D01*
X93036965Y-68956698D01*
X93153843Y-69026319D01*
X93089306Y-69060814D01*
X92863186Y-69246386D01*
X92677614Y-69472506D01*
X92539721Y-69730486D01*
X92454807Y-70010409D01*
X92426135Y-70301520D01*
X66785000Y-70301520D01*
X66785000Y-67404630D01*
X92476844Y-67404630D01*
X92598165Y-67634520D01*
X93791320Y-67634520D01*
X93791320Y-66440706D01*
X94045320Y-66440706D01*
X94045320Y-67634520D01*
X95238475Y-67634520D01*
X95359796Y-67404630D01*
X95315145Y-67257421D01*
X95189961Y-66994600D01*
X95015908Y-66761251D01*
X94799675Y-66566342D01*
X94549572Y-66417363D01*
X94275211Y-66320039D01*
X94045320Y-66440706D01*
X93791320Y-66440706D01*
X93561429Y-66320039D01*
X93287068Y-66417363D01*
X93036965Y-66566342D01*
X92820732Y-66761251D01*
X92646679Y-66994600D01*
X92521495Y-67257421D01*
X92476844Y-67404630D01*
X66785000Y-67404630D01*
X66785000Y-62766578D01*
X68395050Y-61156529D01*
X68428817Y-61128817D01*
X68532036Y-61003046D01*
X68539411Y-60994059D01*
X68621588Y-60840314D01*
X68621589Y-60840313D01*
X68672195Y-60673490D01*
X68685000Y-60543477D01*
X68685000Y-60543469D01*
X68689281Y-60500000D01*
X68685000Y-60456531D01*
X68685000Y-60138454D01*
X68717205Y-60090256D01*
X68795226Y-59901898D01*
X68835000Y-59701939D01*
X68835000Y-59498061D01*
X68795226Y-59298102D01*
X68733880Y-59150000D01*
X68795226Y-59001898D01*
X68835000Y-58801939D01*
X68835000Y-58598061D01*
X68795226Y-58398102D01*
X68733880Y-58250000D01*
X68795226Y-58101898D01*
X68835000Y-57901939D01*
X68835000Y-57698061D01*
X68795226Y-57498102D01*
X68717205Y-57309744D01*
X68603937Y-57140226D01*
X68459774Y-56996063D01*
X68290256Y-56882795D01*
X68101898Y-56804774D01*
X67901939Y-56765000D01*
X67698061Y-56765000D01*
X67498102Y-56804774D01*
X67309744Y-56882795D01*
X67140226Y-56996063D01*
X66996063Y-57140226D01*
X66882795Y-57309744D01*
X66804774Y-57498102D01*
X66765000Y-57698061D01*
X66765000Y-57901939D01*
X66804774Y-58101898D01*
X66866120Y-58250000D01*
X66804774Y-58398102D01*
X66765000Y-58598061D01*
X66765000Y-58801939D01*
X66804774Y-59001898D01*
X66866120Y-59150000D01*
X66804774Y-59298102D01*
X66765000Y-59498061D01*
X66765000Y-59701939D01*
X66804774Y-59901898D01*
X66882795Y-60090256D01*
X66912984Y-60135437D01*
X65304951Y-61743471D01*
X65271184Y-61771183D01*
X65243471Y-61804951D01*
X65243468Y-61804954D01*
X65160590Y-61905941D01*
X65078412Y-62059687D01*
X65027805Y-62226510D01*
X65010719Y-62400000D01*
X65015001Y-62443479D01*
X65015000Y-81961546D01*
X64982795Y-82009744D01*
X64904774Y-82198102D01*
X64865000Y-82398061D01*
X62627000Y-82398061D01*
X62627000Y-82183819D01*
X62605345Y-81963952D01*
X62541212Y-81752535D01*
X62437066Y-81557691D01*
X62296909Y-81386910D01*
X62126128Y-81246753D01*
X61931284Y-81142607D01*
X61719867Y-81078474D01*
X61500000Y-81056819D01*
X56500000Y-81056819D01*
X56280133Y-81078474D01*
X56068716Y-81142607D01*
X55873872Y-81246753D01*
X55703091Y-81386910D01*
X55562934Y-81557691D01*
X55458788Y-81752535D01*
X55394655Y-81963952D01*
X55373000Y-82183819D01*
X53877000Y-82183819D01*
X53855345Y-81963952D01*
X53791212Y-81752535D01*
X53687066Y-81557691D01*
X53546909Y-81386910D01*
X53376128Y-81246753D01*
X53181284Y-81142607D01*
X52969867Y-81078474D01*
X52750000Y-81056819D01*
X47750000Y-81056819D01*
X47530133Y-81078474D01*
X47318716Y-81142607D01*
X47123872Y-81246753D01*
X46953091Y-81386910D01*
X46812934Y-81557691D01*
X46708788Y-81752535D01*
X46644655Y-81963952D01*
X46623000Y-82183819D01*
X44877000Y-82183819D01*
X44855345Y-81963952D01*
X44791212Y-81752535D01*
X44687066Y-81557691D01*
X44546909Y-81386910D01*
X44376128Y-81246753D01*
X44181284Y-81142607D01*
X43969867Y-81078474D01*
X43750000Y-81056819D01*
X38750000Y-81056819D01*
X38530133Y-81078474D01*
X38318716Y-81142607D01*
X38123872Y-81246753D01*
X37953091Y-81386910D01*
X37812934Y-81557691D01*
X37708788Y-81752535D01*
X37644655Y-81963952D01*
X37623000Y-82183819D01*
X23453156Y-82183819D01*
X23453156Y-79000000D01*
X23431501Y-78780133D01*
X23367368Y-78568716D01*
X23263222Y-78373872D01*
X23123065Y-78203091D01*
X22952284Y-78062934D01*
X22757440Y-77958788D01*
X22546023Y-77894655D01*
X22326156Y-77873000D01*
X10326156Y-77873000D01*
X10106289Y-77894655D01*
X9894872Y-77958788D01*
X9700028Y-78062934D01*
X9529247Y-78203091D01*
X9389090Y-78373872D01*
X9284944Y-78568716D01*
X9220811Y-78780133D01*
X9199156Y-79000000D01*
X695000Y-79000000D01*
X695000Y-71050150D01*
X1893200Y-71050150D01*
X1893200Y-71676942D01*
X1917603Y-71799623D01*
X1965470Y-71915185D01*
X2034963Y-72019189D01*
X2123411Y-72107637D01*
X2227415Y-72177130D01*
X2342977Y-72224997D01*
X2465658Y-72249400D01*
X3092450Y-72249400D01*
X3251200Y-72090650D01*
X3251200Y-70891400D01*
X3505200Y-70891400D01*
X3505200Y-72090650D01*
X3663950Y-72249400D01*
X4290742Y-72249400D01*
X4413423Y-72224997D01*
X4528985Y-72177130D01*
X4632989Y-72107637D01*
X4721437Y-72019189D01*
X4790930Y-71915185D01*
X4838797Y-71799623D01*
X4863200Y-71676942D01*
X4863200Y-71050150D01*
X4704450Y-70891400D01*
X3505200Y-70891400D01*
X3251200Y-70891400D01*
X2051950Y-70891400D01*
X1893200Y-71050150D01*
X695000Y-71050150D01*
X695000Y-25044400D01*
X1886015Y-25044400D01*
X1914687Y-25335511D01*
X1999601Y-25615434D01*
X2137494Y-25873414D01*
X2323066Y-26099534D01*
X2549186Y-26285106D01*
X2603991Y-26314400D01*
X2549186Y-26343694D01*
X2323066Y-26529266D01*
X2137494Y-26755386D01*
X1999601Y-27013366D01*
X1914687Y-27293289D01*
X1886015Y-27584400D01*
X1914687Y-27875511D01*
X1999601Y-28155434D01*
X2137494Y-28413414D01*
X2323066Y-28639534D01*
X2549186Y-28825106D01*
X2603991Y-28854400D01*
X2549186Y-28883694D01*
X2323066Y-29069266D01*
X2137494Y-29295386D01*
X1999601Y-29553366D01*
X1914687Y-29833289D01*
X1886015Y-30124400D01*
X1914687Y-30415511D01*
X1999601Y-30695434D01*
X2137494Y-30953414D01*
X2323066Y-31179534D01*
X2549186Y-31365106D01*
X2603991Y-31394400D01*
X2549186Y-31423694D01*
X2323066Y-31609266D01*
X2137494Y-31835386D01*
X1999601Y-32093366D01*
X1914687Y-32373289D01*
X1886015Y-32664400D01*
X1914687Y-32955511D01*
X1999601Y-33235434D01*
X2137494Y-33493414D01*
X2323066Y-33719534D01*
X2549186Y-33905106D01*
X2603991Y-33934400D01*
X2549186Y-33963694D01*
X2323066Y-34149266D01*
X2137494Y-34375386D01*
X1999601Y-34633366D01*
X1914687Y-34913289D01*
X1886015Y-35204400D01*
X1914687Y-35495511D01*
X1999601Y-35775434D01*
X2137494Y-36033414D01*
X2323066Y-36259534D01*
X2549186Y-36445106D01*
X2603991Y-36474400D01*
X2549186Y-36503694D01*
X2323066Y-36689266D01*
X2137494Y-36915386D01*
X1999601Y-37173366D01*
X1914687Y-37453289D01*
X1886015Y-37744400D01*
X1914687Y-38035511D01*
X1999601Y-38315434D01*
X2137494Y-38573414D01*
X2323066Y-38799534D01*
X2549186Y-38985106D01*
X2603991Y-39014400D01*
X2549186Y-39043694D01*
X2323066Y-39229266D01*
X2137494Y-39455386D01*
X1999601Y-39713366D01*
X1914687Y-39993289D01*
X1886015Y-40284400D01*
X1914687Y-40575511D01*
X1999601Y-40855434D01*
X2137494Y-41113414D01*
X2323066Y-41339534D01*
X2549186Y-41525106D01*
X2603991Y-41554400D01*
X2549186Y-41583694D01*
X2323066Y-41769266D01*
X2137494Y-41995386D01*
X1999601Y-42253366D01*
X1914687Y-42533289D01*
X1886015Y-42824400D01*
X1914687Y-43115511D01*
X1999601Y-43395434D01*
X2137494Y-43653414D01*
X2323066Y-43879534D01*
X2549186Y-44065106D01*
X2603991Y-44094400D01*
X2549186Y-44123694D01*
X2323066Y-44309266D01*
X2137494Y-44535386D01*
X1999601Y-44793366D01*
X1914687Y-45073289D01*
X1886015Y-45364400D01*
X1914687Y-45655511D01*
X1999601Y-45935434D01*
X2137494Y-46193414D01*
X2323066Y-46419534D01*
X2549186Y-46605106D01*
X2603991Y-46634400D01*
X2549186Y-46663694D01*
X2323066Y-46849266D01*
X2137494Y-47075386D01*
X1999601Y-47333366D01*
X1914687Y-47613289D01*
X1886015Y-47904400D01*
X1914687Y-48195511D01*
X1999601Y-48475434D01*
X2137494Y-48733414D01*
X2323066Y-48959534D01*
X2549186Y-49145106D01*
X2603991Y-49174400D01*
X2549186Y-49203694D01*
X2323066Y-49389266D01*
X2137494Y-49615386D01*
X1999601Y-49873366D01*
X1914687Y-50153289D01*
X1886015Y-50444400D01*
X1914687Y-50735511D01*
X1999601Y-51015434D01*
X2137494Y-51273414D01*
X2323066Y-51499534D01*
X2549186Y-51685106D01*
X2603991Y-51714400D01*
X2549186Y-51743694D01*
X2323066Y-51929266D01*
X2137494Y-52155386D01*
X1999601Y-52413366D01*
X1914687Y-52693289D01*
X1886015Y-52984400D01*
X1914687Y-53275511D01*
X1999601Y-53555434D01*
X2137494Y-53813414D01*
X2323066Y-54039534D01*
X2549186Y-54225106D01*
X2603991Y-54254400D01*
X2549186Y-54283694D01*
X2323066Y-54469266D01*
X2137494Y-54695386D01*
X1999601Y-54953366D01*
X1914687Y-55233289D01*
X1886015Y-55524400D01*
X1914687Y-55815511D01*
X1999601Y-56095434D01*
X2137494Y-56353414D01*
X2323066Y-56579534D01*
X2549186Y-56765106D01*
X2603991Y-56794400D01*
X2549186Y-56823694D01*
X2323066Y-57009266D01*
X2137494Y-57235386D01*
X1999601Y-57493366D01*
X1914687Y-57773289D01*
X1886015Y-58064400D01*
X1914687Y-58355511D01*
X1999601Y-58635434D01*
X2137494Y-58893414D01*
X2323066Y-59119534D01*
X2549186Y-59305106D01*
X2603991Y-59334400D01*
X2549186Y-59363694D01*
X2323066Y-59549266D01*
X2137494Y-59775386D01*
X1999601Y-60033366D01*
X1914687Y-60313289D01*
X1886015Y-60604400D01*
X1914687Y-60895511D01*
X1999601Y-61175434D01*
X2137494Y-61433414D01*
X2323066Y-61659534D01*
X2549186Y-61845106D01*
X2603991Y-61874400D01*
X2549186Y-61903694D01*
X2323066Y-62089266D01*
X2137494Y-62315386D01*
X1999601Y-62573366D01*
X1914687Y-62853289D01*
X1886015Y-63144400D01*
X1914687Y-63435511D01*
X1999601Y-63715434D01*
X2137494Y-63973414D01*
X2323066Y-64199534D01*
X2549186Y-64385106D01*
X2603991Y-64414400D01*
X2549186Y-64443694D01*
X2323066Y-64629266D01*
X2137494Y-64855386D01*
X1999601Y-65113366D01*
X1914687Y-65393289D01*
X1886015Y-65684400D01*
X1914687Y-65975511D01*
X1999601Y-66255434D01*
X2137494Y-66513414D01*
X2323066Y-66739534D01*
X2549186Y-66925106D01*
X2603991Y-66954400D01*
X2549186Y-66983694D01*
X2323066Y-67169266D01*
X2137494Y-67395386D01*
X1999601Y-67653366D01*
X1914687Y-67933289D01*
X1886015Y-68224400D01*
X1914687Y-68515511D01*
X1999601Y-68795434D01*
X2137494Y-69053414D01*
X2323066Y-69279534D01*
X2350753Y-69302256D01*
X2342977Y-69303803D01*
X2227415Y-69351670D01*
X2123411Y-69421163D01*
X2034963Y-69509611D01*
X1965470Y-69613615D01*
X1917603Y-69729177D01*
X1893200Y-69851858D01*
X1893200Y-70478650D01*
X2051950Y-70637400D01*
X3251200Y-70637400D01*
X3251200Y-70617400D01*
X3505200Y-70617400D01*
X3505200Y-70637400D01*
X4704450Y-70637400D01*
X4863200Y-70478650D01*
X4863200Y-70000000D01*
X9199156Y-70000000D01*
X9199156Y-75000000D01*
X9220811Y-75219867D01*
X9284944Y-75431284D01*
X9389090Y-75626128D01*
X9529247Y-75796909D01*
X9700028Y-75937066D01*
X9894872Y-76041212D01*
X10106289Y-76105345D01*
X10326156Y-76127000D01*
X22326156Y-76127000D01*
X22546023Y-76105345D01*
X22757440Y-76041212D01*
X22952284Y-75937066D01*
X23123065Y-75796909D01*
X23263222Y-75626128D01*
X23367368Y-75431284D01*
X23431501Y-75219867D01*
X23453156Y-75000000D01*
X23453156Y-70000000D01*
X23431501Y-69780133D01*
X23367368Y-69568716D01*
X23263222Y-69373872D01*
X23123065Y-69203091D01*
X22952284Y-69062934D01*
X22757440Y-68958788D01*
X22546023Y-68894655D01*
X22326156Y-68873000D01*
X10326156Y-68873000D01*
X10106289Y-68894655D01*
X9894872Y-68958788D01*
X9700028Y-69062934D01*
X9529247Y-69203091D01*
X9389090Y-69373872D01*
X9284944Y-69568716D01*
X9220811Y-69780133D01*
X9199156Y-70000000D01*
X4863200Y-70000000D01*
X4863200Y-69851858D01*
X4838797Y-69729177D01*
X4790930Y-69613615D01*
X4721437Y-69509611D01*
X4632989Y-69421163D01*
X4528985Y-69351670D01*
X4413423Y-69303803D01*
X4405647Y-69302256D01*
X4433334Y-69279534D01*
X4618906Y-69053414D01*
X4756799Y-68795434D01*
X4841713Y-68515511D01*
X4870385Y-68224400D01*
X4841713Y-67933289D01*
X4756799Y-67653366D01*
X4618906Y-67395386D01*
X4433334Y-67169266D01*
X4207214Y-66983694D01*
X4152409Y-66954400D01*
X4207214Y-66925106D01*
X4433334Y-66739534D01*
X4618906Y-66513414D01*
X4756799Y-66255434D01*
X4841713Y-65975511D01*
X4870385Y-65684400D01*
X4841713Y-65393289D01*
X4756799Y-65113366D01*
X4618906Y-64855386D01*
X4433334Y-64629266D01*
X4207214Y-64443694D01*
X4152409Y-64414400D01*
X4207214Y-64385106D01*
X4433334Y-64199534D01*
X4618906Y-63973414D01*
X4756799Y-63715434D01*
X4841713Y-63435511D01*
X4870385Y-63144400D01*
X4841713Y-62853289D01*
X4756799Y-62573366D01*
X4618906Y-62315386D01*
X4433334Y-62089266D01*
X4207214Y-61903694D01*
X4152409Y-61874400D01*
X4207214Y-61845106D01*
X4433334Y-61659534D01*
X4618906Y-61433414D01*
X4756799Y-61175434D01*
X4810016Y-61000000D01*
X9199156Y-61000000D01*
X9199156Y-66000000D01*
X9220811Y-66219867D01*
X9284944Y-66431284D01*
X9389090Y-66626128D01*
X9529247Y-66796909D01*
X9700028Y-66937066D01*
X9894872Y-67041212D01*
X10106289Y-67105345D01*
X10326156Y-67127000D01*
X22326156Y-67127000D01*
X22546023Y-67105345D01*
X22757440Y-67041212D01*
X22952284Y-66937066D01*
X23123065Y-66796909D01*
X23263222Y-66626128D01*
X23367368Y-66431284D01*
X23431501Y-66219867D01*
X23453156Y-66000000D01*
X23453156Y-61000000D01*
X23431501Y-60780133D01*
X23367368Y-60568716D01*
X23263222Y-60373872D01*
X23123065Y-60203091D01*
X22952284Y-60062934D01*
X22757440Y-59958788D01*
X22546023Y-59894655D01*
X22326156Y-59873000D01*
X10326156Y-59873000D01*
X10106289Y-59894655D01*
X9894872Y-59958788D01*
X9700028Y-60062934D01*
X9529247Y-60203091D01*
X9389090Y-60373872D01*
X9284944Y-60568716D01*
X9220811Y-60780133D01*
X9199156Y-61000000D01*
X4810016Y-61000000D01*
X4841713Y-60895511D01*
X4870385Y-60604400D01*
X4841713Y-60313289D01*
X4756799Y-60033366D01*
X4618906Y-59775386D01*
X4433334Y-59549266D01*
X4207214Y-59363694D01*
X4152409Y-59334400D01*
X4207214Y-59305106D01*
X4433334Y-59119534D01*
X4618906Y-58893414D01*
X4756799Y-58635434D01*
X4841713Y-58355511D01*
X4870385Y-58064400D01*
X4841713Y-57773289D01*
X4756799Y-57493366D01*
X4618906Y-57235386D01*
X4433334Y-57009266D01*
X4207214Y-56823694D01*
X4152409Y-56794400D01*
X4207214Y-56765106D01*
X4433334Y-56579534D01*
X4618906Y-56353414D01*
X4756799Y-56095434D01*
X4841713Y-55815511D01*
X4870385Y-55524400D01*
X4841713Y-55233289D01*
X4756799Y-54953366D01*
X4618906Y-54695386D01*
X4433334Y-54469266D01*
X4207214Y-54283694D01*
X4152409Y-54254400D01*
X4207214Y-54225106D01*
X4433334Y-54039534D01*
X4618906Y-53813414D01*
X4756799Y-53555434D01*
X4841713Y-53275511D01*
X4870385Y-52984400D01*
X4841713Y-52693289D01*
X4756799Y-52413366D01*
X4669479Y-52250000D01*
X9199156Y-52250000D01*
X9199156Y-57250000D01*
X9220811Y-57469867D01*
X9284944Y-57681284D01*
X9389090Y-57876128D01*
X9529247Y-58046909D01*
X9700028Y-58187066D01*
X9894872Y-58291212D01*
X10106289Y-58355345D01*
X10326156Y-58377000D01*
X22326156Y-58377000D01*
X22546023Y-58355345D01*
X22757440Y-58291212D01*
X22952284Y-58187066D01*
X23123065Y-58046909D01*
X23263222Y-57876128D01*
X23367368Y-57681284D01*
X23431501Y-57469867D01*
X23453156Y-57250000D01*
X23453156Y-55398061D01*
X58965000Y-55398061D01*
X58965000Y-55601939D01*
X59004774Y-55801898D01*
X59082795Y-55990256D01*
X59196063Y-56159774D01*
X59340226Y-56303937D01*
X59509744Y-56417205D01*
X59698102Y-56495226D01*
X59898061Y-56535000D01*
X60101939Y-56535000D01*
X60301898Y-56495226D01*
X60490256Y-56417205D01*
X60659774Y-56303937D01*
X60803937Y-56159774D01*
X60917205Y-55990256D01*
X60995226Y-55801898D01*
X61035000Y-55601939D01*
X61035000Y-55398061D01*
X60995226Y-55198102D01*
X60917205Y-55009744D01*
X60803937Y-54840226D01*
X60760000Y-54796289D01*
X60760000Y-53414801D01*
X62239802Y-51935000D01*
X62301939Y-51935000D01*
X62501898Y-51895226D01*
X62690256Y-51817205D01*
X62859774Y-51703937D01*
X63003937Y-51559774D01*
X63117205Y-51390256D01*
X63195226Y-51201898D01*
X63235000Y-51001939D01*
X63235000Y-50798061D01*
X63195226Y-50598102D01*
X63117205Y-50409744D01*
X63003937Y-50240226D01*
X62859774Y-50096063D01*
X62690256Y-49982795D01*
X62501898Y-49904774D01*
X62301939Y-49865000D01*
X62098061Y-49865000D01*
X61898102Y-49904774D01*
X61709744Y-49982795D01*
X61540226Y-50096063D01*
X61396063Y-50240226D01*
X61282795Y-50409744D01*
X61204774Y-50598102D01*
X61165000Y-50798061D01*
X61165000Y-50860198D01*
X59489003Y-52536196D01*
X59459999Y-52559999D01*
X59404871Y-52627174D01*
X59365026Y-52675724D01*
X59354155Y-52696063D01*
X59294454Y-52807754D01*
X59250997Y-52951015D01*
X59240000Y-53062668D01*
X59240000Y-53062678D01*
X59236324Y-53100000D01*
X59240000Y-53137323D01*
X59240001Y-54796288D01*
X59196063Y-54840226D01*
X59082795Y-55009744D01*
X59004774Y-55198102D01*
X58965000Y-55398061D01*
X23453156Y-55398061D01*
X23453156Y-52250000D01*
X23431501Y-52030133D01*
X23367368Y-51818716D01*
X23263222Y-51623872D01*
X23123065Y-51453091D01*
X22952284Y-51312934D01*
X22757440Y-51208788D01*
X22546023Y-51144655D01*
X22326156Y-51123000D01*
X10326156Y-51123000D01*
X10106289Y-51144655D01*
X9894872Y-51208788D01*
X9700028Y-51312934D01*
X9529247Y-51453091D01*
X9389090Y-51623872D01*
X9284944Y-51818716D01*
X9220811Y-52030133D01*
X9199156Y-52250000D01*
X4669479Y-52250000D01*
X4618906Y-52155386D01*
X4433334Y-51929266D01*
X4207214Y-51743694D01*
X4152409Y-51714400D01*
X4207214Y-51685106D01*
X4433334Y-51499534D01*
X4618906Y-51273414D01*
X4756799Y-51015434D01*
X4841713Y-50735511D01*
X4870385Y-50444400D01*
X4841713Y-50153289D01*
X4756799Y-49873366D01*
X4618906Y-49615386D01*
X4433334Y-49389266D01*
X4207214Y-49203694D01*
X4152409Y-49174400D01*
X4207214Y-49145106D01*
X4433334Y-48959534D01*
X4618906Y-48733414D01*
X4756799Y-48475434D01*
X4841713Y-48195511D01*
X4870385Y-47904400D01*
X4841713Y-47613289D01*
X4756799Y-47333366D01*
X4618906Y-47075386D01*
X4433334Y-46849266D01*
X4207214Y-46663694D01*
X4152409Y-46634400D01*
X4207214Y-46605106D01*
X4433334Y-46419534D01*
X4618906Y-46193414D01*
X4756799Y-45935434D01*
X4841713Y-45655511D01*
X4870385Y-45364400D01*
X4841713Y-45073289D01*
X4756799Y-44793366D01*
X4618906Y-44535386D01*
X4433334Y-44309266D01*
X4207214Y-44123694D01*
X4152409Y-44094400D01*
X4207214Y-44065106D01*
X4433334Y-43879534D01*
X4618906Y-43653414D01*
X4756799Y-43395434D01*
X4800916Y-43250000D01*
X9199156Y-43250000D01*
X9199156Y-48250000D01*
X9220811Y-48469867D01*
X9284944Y-48681284D01*
X9389090Y-48876128D01*
X9529247Y-49046909D01*
X9700028Y-49187066D01*
X9894872Y-49291212D01*
X10106289Y-49355345D01*
X10326156Y-49377000D01*
X22326156Y-49377000D01*
X22546023Y-49355345D01*
X22757440Y-49291212D01*
X22952284Y-49187066D01*
X23123065Y-49046909D01*
X23263222Y-48876128D01*
X23367368Y-48681284D01*
X23431501Y-48469867D01*
X23453156Y-48250000D01*
X23453156Y-43250000D01*
X23431501Y-43030133D01*
X23367368Y-42818716D01*
X23263222Y-42623872D01*
X23123065Y-42453091D01*
X22952284Y-42312934D01*
X22757440Y-42208788D01*
X22546023Y-42144655D01*
X22326156Y-42123000D01*
X10326156Y-42123000D01*
X10106289Y-42144655D01*
X9894872Y-42208788D01*
X9700028Y-42312934D01*
X9529247Y-42453091D01*
X9389090Y-42623872D01*
X9284944Y-42818716D01*
X9220811Y-43030133D01*
X9199156Y-43250000D01*
X4800916Y-43250000D01*
X4841713Y-43115511D01*
X4870385Y-42824400D01*
X4841713Y-42533289D01*
X4756799Y-42253366D01*
X4618906Y-41995386D01*
X4433334Y-41769266D01*
X4207214Y-41583694D01*
X4152409Y-41554400D01*
X4207214Y-41525106D01*
X4433334Y-41339534D01*
X4618906Y-41113414D01*
X4756799Y-40855434D01*
X4841713Y-40575511D01*
X4870385Y-40284400D01*
X4841713Y-39993289D01*
X4756799Y-39713366D01*
X4618906Y-39455386D01*
X4433334Y-39229266D01*
X4207214Y-39043694D01*
X4152409Y-39014400D01*
X4207214Y-38985106D01*
X4433334Y-38799534D01*
X4618906Y-38573414D01*
X4756799Y-38315434D01*
X4841713Y-38035511D01*
X4870385Y-37744400D01*
X4841713Y-37453289D01*
X4756799Y-37173366D01*
X4618906Y-36915386D01*
X4433334Y-36689266D01*
X4207214Y-36503694D01*
X4152409Y-36474400D01*
X4207214Y-36445106D01*
X4433334Y-36259534D01*
X4618906Y-36033414D01*
X4756799Y-35775434D01*
X4841713Y-35495511D01*
X4870385Y-35204400D01*
X4841713Y-34913289D01*
X4756799Y-34633366D01*
X4618906Y-34375386D01*
X4516005Y-34250000D01*
X9123000Y-34250000D01*
X9123000Y-39250000D01*
X9144655Y-39469867D01*
X9208788Y-39681284D01*
X9312934Y-39876128D01*
X9453091Y-40046909D01*
X9623872Y-40187066D01*
X9818716Y-40291212D01*
X10030133Y-40355345D01*
X10250000Y-40377000D01*
X22250000Y-40377000D01*
X22469867Y-40355345D01*
X22681284Y-40291212D01*
X22876128Y-40187066D01*
X23046909Y-40046909D01*
X23187066Y-39876128D01*
X23291212Y-39681284D01*
X23355345Y-39469867D01*
X23377000Y-39250000D01*
X23377000Y-34250000D01*
X23355345Y-34030133D01*
X23291212Y-33818716D01*
X23187066Y-33623872D01*
X23046909Y-33453091D01*
X22876128Y-33312934D01*
X22681284Y-33208788D01*
X22469867Y-33144655D01*
X22250000Y-33123000D01*
X10250000Y-33123000D01*
X10030133Y-33144655D01*
X9818716Y-33208788D01*
X9623872Y-33312934D01*
X9453091Y-33453091D01*
X9312934Y-33623872D01*
X9208788Y-33818716D01*
X9144655Y-34030133D01*
X9123000Y-34250000D01*
X4516005Y-34250000D01*
X4433334Y-34149266D01*
X4207214Y-33963694D01*
X4152409Y-33934400D01*
X4207214Y-33905106D01*
X4433334Y-33719534D01*
X4618906Y-33493414D01*
X4756799Y-33235434D01*
X4841713Y-32955511D01*
X4870385Y-32664400D01*
X4841713Y-32373289D01*
X4756799Y-32093366D01*
X4618906Y-31835386D01*
X4433334Y-31609266D01*
X4207214Y-31423694D01*
X4152409Y-31394400D01*
X4207214Y-31365106D01*
X4433334Y-31179534D01*
X4618906Y-30953414D01*
X4756799Y-30695434D01*
X4841713Y-30415511D01*
X4870385Y-30124400D01*
X4841713Y-29833289D01*
X4756799Y-29553366D01*
X4618906Y-29295386D01*
X4433334Y-29069266D01*
X4207214Y-28883694D01*
X4152409Y-28854400D01*
X4207214Y-28825106D01*
X4433334Y-28639534D01*
X4618906Y-28413414D01*
X4756799Y-28155434D01*
X4841713Y-27875511D01*
X4870385Y-27584400D01*
X4841713Y-27293289D01*
X4756799Y-27013366D01*
X4618906Y-26755386D01*
X4433334Y-26529266D01*
X4207214Y-26343694D01*
X4152409Y-26314400D01*
X4207214Y-26285106D01*
X4433334Y-26099534D01*
X4618906Y-25873414D01*
X4756799Y-25615434D01*
X4791815Y-25500000D01*
X9123000Y-25500000D01*
X9123000Y-30500000D01*
X9144655Y-30719867D01*
X9208788Y-30931284D01*
X9312934Y-31126128D01*
X9453091Y-31296909D01*
X9623872Y-31437066D01*
X9818716Y-31541212D01*
X10030133Y-31605345D01*
X10250000Y-31627000D01*
X22250000Y-31627000D01*
X22469867Y-31605345D01*
X22681284Y-31541212D01*
X22876128Y-31437066D01*
X23046909Y-31296909D01*
X23187066Y-31126128D01*
X23291212Y-30931284D01*
X23355345Y-30719867D01*
X23377000Y-30500000D01*
X23377000Y-29911924D01*
X70173000Y-29911924D01*
X70173000Y-30212716D01*
X70231681Y-30507730D01*
X70346790Y-30785626D01*
X70448001Y-30937099D01*
X70448000Y-63425222D01*
X70346790Y-63576694D01*
X70231681Y-63854590D01*
X70173000Y-64149604D01*
X70173000Y-64450396D01*
X70231681Y-64745410D01*
X70346790Y-65023306D01*
X70513901Y-65273406D01*
X70726594Y-65486099D01*
X70976694Y-65653210D01*
X71254590Y-65768319D01*
X71549604Y-65827000D01*
X71850396Y-65827000D01*
X72145410Y-65768319D01*
X72423306Y-65653210D01*
X72673406Y-65486099D01*
X72886099Y-65273406D01*
X73053210Y-65023306D01*
X73168319Y-64745410D01*
X73222907Y-64470970D01*
X92476844Y-64470970D01*
X92521495Y-64618179D01*
X92646679Y-64881000D01*
X92820732Y-65114349D01*
X93036965Y-65309258D01*
X93287068Y-65458237D01*
X93561429Y-65555561D01*
X93791320Y-65434894D01*
X93791320Y-64241080D01*
X94045320Y-64241080D01*
X94045320Y-65434894D01*
X94275211Y-65555561D01*
X94549572Y-65458237D01*
X94799675Y-65309258D01*
X95015908Y-65114349D01*
X95189961Y-64881000D01*
X95315145Y-64618179D01*
X95359796Y-64470970D01*
X95238475Y-64241080D01*
X94045320Y-64241080D01*
X93791320Y-64241080D01*
X92598165Y-64241080D01*
X92476844Y-64470970D01*
X73222907Y-64470970D01*
X73227000Y-64450396D01*
X73227000Y-64149604D01*
X73168319Y-63854590D01*
X73053210Y-63576694D01*
X72952000Y-63425222D01*
X72952000Y-61574080D01*
X92426135Y-61574080D01*
X92454807Y-61865191D01*
X92539721Y-62145114D01*
X92677614Y-62403094D01*
X92863186Y-62629214D01*
X93089306Y-62814786D01*
X93153843Y-62849281D01*
X93036965Y-62918902D01*
X92820732Y-63113811D01*
X92646679Y-63347160D01*
X92521495Y-63609981D01*
X92476844Y-63757190D01*
X92598165Y-63987080D01*
X93791320Y-63987080D01*
X93791320Y-63967080D01*
X94045320Y-63967080D01*
X94045320Y-63987080D01*
X95238475Y-63987080D01*
X95359796Y-63757190D01*
X95315145Y-63609981D01*
X95189961Y-63347160D01*
X95015908Y-63113811D01*
X94799675Y-62918902D01*
X94682797Y-62849281D01*
X94747334Y-62814786D01*
X94973454Y-62629214D01*
X95159026Y-62403094D01*
X95296919Y-62145114D01*
X95381833Y-61865191D01*
X95410505Y-61574080D01*
X95381833Y-61282969D01*
X95296919Y-61003046D01*
X95159026Y-60745066D01*
X94973454Y-60518946D01*
X94943633Y-60494473D01*
X95012500Y-60473582D01*
X95122814Y-60414617D01*
X95219505Y-60335265D01*
X95298857Y-60238574D01*
X95357822Y-60128260D01*
X95394132Y-60008562D01*
X95406392Y-59884080D01*
X95406392Y-58184080D01*
X95394132Y-58059598D01*
X95357822Y-57939900D01*
X95298857Y-57829586D01*
X95219505Y-57732895D01*
X95122814Y-57653543D01*
X95012500Y-57594578D01*
X94892802Y-57558268D01*
X94768320Y-57546008D01*
X93068320Y-57546008D01*
X92943838Y-57558268D01*
X92824140Y-57594578D01*
X92713826Y-57653543D01*
X92617135Y-57732895D01*
X92537783Y-57829586D01*
X92478818Y-57939900D01*
X92442508Y-58059598D01*
X92430248Y-58184080D01*
X92430248Y-59884080D01*
X92442508Y-60008562D01*
X92478818Y-60128260D01*
X92537783Y-60238574D01*
X92617135Y-60335265D01*
X92713826Y-60414617D01*
X92824140Y-60473582D01*
X92893007Y-60494473D01*
X92863186Y-60518946D01*
X92677614Y-60745066D01*
X92539721Y-61003046D01*
X92454807Y-61282969D01*
X92426135Y-61574080D01*
X72952000Y-61574080D01*
X72952000Y-48140000D01*
X91957089Y-48140000D01*
X91988657Y-48460516D01*
X92082148Y-48768715D01*
X92233969Y-49052752D01*
X92438286Y-49301714D01*
X92687248Y-49506031D01*
X92971285Y-49657852D01*
X93279484Y-49751343D01*
X93519678Y-49775000D01*
X94280322Y-49775000D01*
X94520516Y-49751343D01*
X94828715Y-49657852D01*
X95112752Y-49506031D01*
X95361714Y-49301714D01*
X95566031Y-49052752D01*
X95717852Y-48768715D01*
X95811343Y-48460516D01*
X95842911Y-48140000D01*
X95811343Y-47819484D01*
X95717852Y-47511285D01*
X95566031Y-47227248D01*
X95507345Y-47155739D01*
X95554494Y-47130537D01*
X95651185Y-47051185D01*
X95730537Y-46954494D01*
X95789502Y-46844180D01*
X95825812Y-46724482D01*
X95838072Y-46600000D01*
X95838072Y-44600000D01*
X95825812Y-44475518D01*
X95789502Y-44355820D01*
X95730537Y-44245506D01*
X95651185Y-44148815D01*
X95554494Y-44069463D01*
X95444180Y-44010498D01*
X95324482Y-43974188D01*
X95200000Y-43961928D01*
X92600000Y-43961928D01*
X92475518Y-43974188D01*
X92355820Y-44010498D01*
X92245506Y-44069463D01*
X92148815Y-44148815D01*
X92069463Y-44245506D01*
X92010498Y-44355820D01*
X91974188Y-44475518D01*
X91961928Y-44600000D01*
X91961928Y-46600000D01*
X91974188Y-46724482D01*
X92010498Y-46844180D01*
X92069463Y-46954494D01*
X92148815Y-47051185D01*
X92245506Y-47130537D01*
X92292655Y-47155739D01*
X92233969Y-47227248D01*
X92082148Y-47511285D01*
X91988657Y-47819484D01*
X91957089Y-48140000D01*
X72952000Y-48140000D01*
X72952000Y-41340000D01*
X91957089Y-41340000D01*
X91988657Y-41660516D01*
X92082148Y-41968715D01*
X92233969Y-42252752D01*
X92438286Y-42501714D01*
X92687248Y-42706031D01*
X92971285Y-42857852D01*
X93279484Y-42951343D01*
X93519678Y-42975000D01*
X94280322Y-42975000D01*
X94520516Y-42951343D01*
X94828715Y-42857852D01*
X95112752Y-42706031D01*
X95361714Y-42501714D01*
X95566031Y-42252752D01*
X95717852Y-41968715D01*
X95811343Y-41660516D01*
X95842911Y-41340000D01*
X95811343Y-41019484D01*
X95717852Y-40711285D01*
X95566031Y-40427248D01*
X95507345Y-40355739D01*
X95554494Y-40330537D01*
X95651185Y-40251185D01*
X95730537Y-40154494D01*
X95789502Y-40044180D01*
X95825812Y-39924482D01*
X95838072Y-39800000D01*
X95838072Y-37800000D01*
X95825812Y-37675518D01*
X95789502Y-37555820D01*
X95730537Y-37445506D01*
X95651185Y-37348815D01*
X95554494Y-37269463D01*
X95444180Y-37210498D01*
X95324482Y-37174188D01*
X95200000Y-37161928D01*
X92600000Y-37161928D01*
X92475518Y-37174188D01*
X92355820Y-37210498D01*
X92245506Y-37269463D01*
X92148815Y-37348815D01*
X92069463Y-37445506D01*
X92010498Y-37555820D01*
X91974188Y-37675518D01*
X91961928Y-37800000D01*
X91961928Y-39800000D01*
X91974188Y-39924482D01*
X92010498Y-40044180D01*
X92069463Y-40154494D01*
X92148815Y-40251185D01*
X92245506Y-40330537D01*
X92292655Y-40355739D01*
X92233969Y-40427248D01*
X92082148Y-40711285D01*
X91988657Y-41019484D01*
X91957089Y-41340000D01*
X72952000Y-41340000D01*
X72952000Y-30937098D01*
X73053210Y-30785626D01*
X73168319Y-30507730D01*
X73227000Y-30212716D01*
X73227000Y-29911924D01*
X73168319Y-29616910D01*
X73053210Y-29339014D01*
X72886099Y-29088914D01*
X72673406Y-28876221D01*
X72423306Y-28709110D01*
X72145410Y-28594001D01*
X71850396Y-28535320D01*
X71549604Y-28535320D01*
X71254590Y-28594001D01*
X70976694Y-28709110D01*
X70726594Y-28876221D01*
X70513901Y-29088914D01*
X70346790Y-29339014D01*
X70231681Y-29616910D01*
X70173000Y-29911924D01*
X23377000Y-29911924D01*
X23377000Y-25500000D01*
X23355345Y-25280133D01*
X23291212Y-25068716D01*
X23187066Y-24873872D01*
X23046909Y-24703091D01*
X22876128Y-24562934D01*
X22681284Y-24458788D01*
X22469867Y-24394655D01*
X22250000Y-24373000D01*
X10250000Y-24373000D01*
X10030133Y-24394655D01*
X9818716Y-24458788D01*
X9623872Y-24562934D01*
X9453091Y-24703091D01*
X9312934Y-24873872D01*
X9208788Y-25068716D01*
X9144655Y-25280133D01*
X9123000Y-25500000D01*
X4791815Y-25500000D01*
X4841713Y-25335511D01*
X4870385Y-25044400D01*
X4841713Y-24753289D01*
X4756799Y-24473366D01*
X4618906Y-24215386D01*
X4433334Y-23989266D01*
X4207214Y-23803694D01*
X3949234Y-23665801D01*
X3669311Y-23580887D01*
X3451150Y-23559400D01*
X3305250Y-23559400D01*
X3087089Y-23580887D01*
X2807166Y-23665801D01*
X2549186Y-23803694D01*
X2323066Y-23989266D01*
X2137494Y-24215386D01*
X1999601Y-24473366D01*
X1914687Y-24753289D01*
X1886015Y-25044400D01*
X695000Y-25044400D01*
X695000Y-16500000D01*
X9123000Y-16500000D01*
X9123000Y-21500000D01*
X9144655Y-21719867D01*
X9208788Y-21931284D01*
X9312934Y-22126128D01*
X9453091Y-22296909D01*
X9623872Y-22437066D01*
X9818716Y-22541212D01*
X10030133Y-22605345D01*
X10250000Y-22627000D01*
X22250000Y-22627000D01*
X22469867Y-22605345D01*
X22681284Y-22541212D01*
X22876128Y-22437066D01*
X23046909Y-22296909D01*
X23187066Y-22126128D01*
X23291212Y-21931284D01*
X23355345Y-21719867D01*
X23377000Y-21500000D01*
X23377000Y-16500000D01*
X23355345Y-16280133D01*
X23291212Y-16068716D01*
X23187066Y-15873872D01*
X23046909Y-15703091D01*
X22876128Y-15562934D01*
X22681284Y-15458788D01*
X22469867Y-15394655D01*
X22250000Y-15373000D01*
X10250000Y-15373000D01*
X10030133Y-15394655D01*
X9818716Y-15458788D01*
X9623872Y-15562934D01*
X9453091Y-15703091D01*
X9312934Y-15873872D01*
X9208788Y-16068716D01*
X9144655Y-16280133D01*
X9123000Y-16500000D01*
X695000Y-16500000D01*
X695000Y-9425973D01*
X36873000Y-9425973D01*
X36873000Y-21425973D01*
X36894655Y-21645840D01*
X36958788Y-21857257D01*
X37062934Y-22052101D01*
X37203091Y-22222882D01*
X37373872Y-22363039D01*
X37568716Y-22467185D01*
X37780133Y-22531318D01*
X38000000Y-22552973D01*
X43000000Y-22552973D01*
X43219867Y-22531318D01*
X43431284Y-22467185D01*
X43626128Y-22363039D01*
X43796909Y-22222882D01*
X43937066Y-22052101D01*
X44041212Y-21857257D01*
X44105345Y-21645840D01*
X44127000Y-21425973D01*
X44127000Y-9425973D01*
X45623000Y-9425973D01*
X45623000Y-21425973D01*
X45644655Y-21645840D01*
X45708788Y-21857257D01*
X45812934Y-22052101D01*
X45953091Y-22222882D01*
X46123872Y-22363039D01*
X46318716Y-22467185D01*
X46530133Y-22531318D01*
X46750000Y-22552973D01*
X51750000Y-22552973D01*
X51969867Y-22531318D01*
X52181284Y-22467185D01*
X52376128Y-22363039D01*
X52546909Y-22222882D01*
X52687066Y-22052101D01*
X52791212Y-21857257D01*
X52855345Y-21645840D01*
X52877000Y-21425973D01*
X52877000Y-9425973D01*
X54623000Y-9425973D01*
X54623000Y-21425973D01*
X54644655Y-21645840D01*
X54708788Y-21857257D01*
X54812934Y-22052101D01*
X54953091Y-22222882D01*
X55123872Y-22363039D01*
X55318716Y-22467185D01*
X55530133Y-22531318D01*
X55750000Y-22552973D01*
X60750000Y-22552973D01*
X60969867Y-22531318D01*
X61181284Y-22467185D01*
X61376128Y-22363039D01*
X61546909Y-22222882D01*
X61687066Y-22052101D01*
X61791212Y-21857257D01*
X61855345Y-21645840D01*
X61877000Y-21425973D01*
X61877000Y-9425973D01*
X63373000Y-9425973D01*
X63373000Y-21425973D01*
X63394655Y-21645840D01*
X63458788Y-21857257D01*
X63562934Y-22052101D01*
X63703091Y-22222882D01*
X63873872Y-22363039D01*
X64068716Y-22467185D01*
X64280133Y-22531318D01*
X64500000Y-22552973D01*
X69500000Y-22552973D01*
X69719867Y-22531318D01*
X69931284Y-22467185D01*
X70126128Y-22363039D01*
X70296909Y-22222882D01*
X70437066Y-22052101D01*
X70541212Y-21857257D01*
X70605345Y-21645840D01*
X70627000Y-21425973D01*
X70627000Y-9425973D01*
X72181241Y-9425973D01*
X72181241Y-21425973D01*
X72202896Y-21645840D01*
X72267029Y-21857257D01*
X72371175Y-22052101D01*
X72511332Y-22222882D01*
X72682113Y-22363039D01*
X72876957Y-22467185D01*
X73088374Y-22531318D01*
X73308241Y-22552973D01*
X78308241Y-22552973D01*
X78528108Y-22531318D01*
X78739525Y-22467185D01*
X78934369Y-22363039D01*
X79105150Y-22222882D01*
X79245307Y-22052101D01*
X79349453Y-21857257D01*
X79413586Y-21645840D01*
X79435241Y-21425973D01*
X79435241Y-9425973D01*
X81123000Y-9425973D01*
X81123000Y-21425973D01*
X81144655Y-21645840D01*
X81208788Y-21857257D01*
X81312934Y-22052101D01*
X81453091Y-22222882D01*
X81623872Y-22363039D01*
X81818716Y-22467185D01*
X82030133Y-22531318D01*
X82250000Y-22552973D01*
X87250000Y-22552973D01*
X87469867Y-22531318D01*
X87681284Y-22467185D01*
X87876128Y-22363039D01*
X88046909Y-22222882D01*
X88187066Y-22052101D01*
X88291212Y-21857257D01*
X88355345Y-21645840D01*
X88377000Y-21425973D01*
X88377000Y-9425973D01*
X88355345Y-9206106D01*
X88291212Y-8994689D01*
X88187066Y-8799845D01*
X88046909Y-8629064D01*
X87876128Y-8488907D01*
X87681284Y-8384761D01*
X87469867Y-8320628D01*
X87250000Y-8298973D01*
X82250000Y-8298973D01*
X82030133Y-8320628D01*
X81818716Y-8384761D01*
X81623872Y-8488907D01*
X81453091Y-8629064D01*
X81312934Y-8799845D01*
X81208788Y-8994689D01*
X81144655Y-9206106D01*
X81123000Y-9425973D01*
X79435241Y-9425973D01*
X79413586Y-9206106D01*
X79349453Y-8994689D01*
X79245307Y-8799845D01*
X79105150Y-8629064D01*
X78934369Y-8488907D01*
X78739525Y-8384761D01*
X78528108Y-8320628D01*
X78308241Y-8298973D01*
X73308241Y-8298973D01*
X73088374Y-8320628D01*
X72876957Y-8384761D01*
X72682113Y-8488907D01*
X72511332Y-8629064D01*
X72371175Y-8799845D01*
X72267029Y-8994689D01*
X72202896Y-9206106D01*
X72181241Y-9425973D01*
X70627000Y-9425973D01*
X70605345Y-9206106D01*
X70541212Y-8994689D01*
X70437066Y-8799845D01*
X70296909Y-8629064D01*
X70126128Y-8488907D01*
X69931284Y-8384761D01*
X69719867Y-8320628D01*
X69500000Y-8298973D01*
X64500000Y-8298973D01*
X64280133Y-8320628D01*
X64068716Y-8384761D01*
X63873872Y-8488907D01*
X63703091Y-8629064D01*
X63562934Y-8799845D01*
X63458788Y-8994689D01*
X63394655Y-9206106D01*
X63373000Y-9425973D01*
X61877000Y-9425973D01*
X61855345Y-9206106D01*
X61791212Y-8994689D01*
X61687066Y-8799845D01*
X61546909Y-8629064D01*
X61376128Y-8488907D01*
X61181284Y-8384761D01*
X60969867Y-8320628D01*
X60750000Y-8298973D01*
X55750000Y-8298973D01*
X55530133Y-8320628D01*
X55318716Y-8384761D01*
X55123872Y-8488907D01*
X54953091Y-8629064D01*
X54812934Y-8799845D01*
X54708788Y-8994689D01*
X54644655Y-9206106D01*
X54623000Y-9425973D01*
X52877000Y-9425973D01*
X52855345Y-9206106D01*
X52791212Y-8994689D01*
X52687066Y-8799845D01*
X52546909Y-8629064D01*
X52376128Y-8488907D01*
X52181284Y-8384761D01*
X51969867Y-8320628D01*
X51750000Y-8298973D01*
X46750000Y-8298973D01*
X46530133Y-8320628D01*
X46318716Y-8384761D01*
X46123872Y-8488907D01*
X45953091Y-8629064D01*
X45812934Y-8799845D01*
X45708788Y-8994689D01*
X45644655Y-9206106D01*
X45623000Y-9425973D01*
X44127000Y-9425973D01*
X44105345Y-9206106D01*
X44041212Y-8994689D01*
X43937066Y-8799845D01*
X43796909Y-8629064D01*
X43626128Y-8488907D01*
X43431284Y-8384761D01*
X43219867Y-8320628D01*
X43000000Y-8298973D01*
X38000000Y-8298973D01*
X37780133Y-8320628D01*
X37568716Y-8384761D01*
X37373872Y-8488907D01*
X37203091Y-8629064D01*
X37062934Y-8799845D01*
X36958788Y-8994689D01*
X36894655Y-9206106D01*
X36873000Y-9425973D01*
X695000Y-9425973D01*
X695000Y-5030958D01*
X727078Y-4671531D01*
X1665000Y-4671531D01*
X1665000Y-5328469D01*
X1793162Y-5972784D01*
X2044561Y-6579715D01*
X2409536Y-7125939D01*
X2874061Y-7590464D01*
X3420285Y-7955439D01*
X4027216Y-8206838D01*
X4671531Y-8335000D01*
X5328469Y-8335000D01*
X5972784Y-8206838D01*
X6579715Y-7955439D01*
X7125939Y-7590464D01*
X7590464Y-7125939D01*
X7955439Y-6579715D01*
X8206838Y-5972784D01*
X8335000Y-5328469D01*
X8335000Y-4671531D01*
X91665000Y-4671531D01*
X91665000Y-5328469D01*
X91793162Y-5972784D01*
X92044561Y-6579715D01*
X92409536Y-7125939D01*
X92874061Y-7590464D01*
X93420285Y-7955439D01*
X94027216Y-8206838D01*
X94671531Y-8335000D01*
X95328469Y-8335000D01*
X95972784Y-8206838D01*
X96579715Y-7955439D01*
X97125939Y-7590464D01*
X97590464Y-7125939D01*
X97955439Y-6579715D01*
X98206838Y-5972784D01*
X98335000Y-5328469D01*
X98335000Y-4671531D01*
X98206838Y-4027216D01*
X97955439Y-3420285D01*
X97590464Y-2874061D01*
X97125939Y-2409536D01*
X96579715Y-2044561D01*
X95972784Y-1793162D01*
X95328469Y-1665000D01*
X94671531Y-1665000D01*
X94027216Y-1793162D01*
X93420285Y-2044561D01*
X92874061Y-2409536D01*
X92409536Y-2874061D01*
X92044561Y-3420285D01*
X91793162Y-4027216D01*
X91665000Y-4671531D01*
X8335000Y-4671531D01*
X8206838Y-4027216D01*
X7955439Y-3420285D01*
X7590464Y-2874061D01*
X7125939Y-2409536D01*
X6579715Y-2044561D01*
X5972784Y-1793162D01*
X5328469Y-1665000D01*
X4671531Y-1665000D01*
X4027216Y-1793162D01*
X3420285Y-2044561D01*
X2874061Y-2409536D01*
X2409536Y-2874061D01*
X2044561Y-3420285D01*
X1793162Y-4027216D01*
X1665000Y-4671531D01*
X727078Y-4671531D01*
X765758Y-4238135D01*
X967589Y-3500363D01*
X1296884Y-2809982D01*
X1743225Y-2188832D01*
X2292514Y-1656533D01*
X2927383Y-1229920D01*
X3627759Y-922476D01*
X4376860Y-742632D01*
X5025490Y-695000D01*
X94969042Y-695000D01*
X95761865Y-765758D01*
G36*
X87123000Y-21298973D02*
G01*
X82377000Y-21298973D01*
X82377000Y-9552973D01*
X87123000Y-9552973D01*
X87123000Y-21298973D01*
X87123000Y-21298973D01*
G37*
X87123000Y-21298973D02*
X82377000Y-21298973D01*
X82377000Y-9552973D01*
X87123000Y-9552973D01*
X87123000Y-21298973D01*
G36*
X78181241Y-21298973D02*
G01*
X73435241Y-21298973D01*
X73435241Y-9552973D01*
X78181241Y-9552973D01*
X78181241Y-21298973D01*
X78181241Y-21298973D01*
G37*
X78181241Y-21298973D02*
X73435241Y-21298973D01*
X73435241Y-9552973D01*
X78181241Y-9552973D01*
X78181241Y-21298973D01*
G36*
X69373000Y-21298973D02*
G01*
X64627000Y-21298973D01*
X64627000Y-9552973D01*
X69373000Y-9552973D01*
X69373000Y-21298973D01*
X69373000Y-21298973D01*
G37*
X69373000Y-21298973D02*
X64627000Y-21298973D01*
X64627000Y-9552973D01*
X69373000Y-9552973D01*
X69373000Y-21298973D01*
G36*
X60623000Y-21298973D02*
G01*
X55877000Y-21298973D01*
X55877000Y-9552973D01*
X60623000Y-9552973D01*
X60623000Y-21298973D01*
X60623000Y-21298973D01*
G37*
X60623000Y-21298973D02*
X55877000Y-21298973D01*
X55877000Y-9552973D01*
X60623000Y-9552973D01*
X60623000Y-21298973D01*
G36*
X51623000Y-21298973D02*
G01*
X46877000Y-21298973D01*
X46877000Y-9552973D01*
X51623000Y-9552973D01*
X51623000Y-21298973D01*
X51623000Y-21298973D01*
G37*
X51623000Y-21298973D02*
X46877000Y-21298973D01*
X46877000Y-9552973D01*
X51623000Y-9552973D01*
X51623000Y-21298973D01*
G36*
X42873000Y-21298973D02*
G01*
X38127000Y-21298973D01*
X38127000Y-9552973D01*
X42873000Y-9552973D01*
X42873000Y-21298973D01*
X42873000Y-21298973D01*
G37*
X42873000Y-21298973D02*
X38127000Y-21298973D01*
X38127000Y-9552973D01*
X42873000Y-9552973D01*
X42873000Y-21298973D01*
G36*
X22123000Y-21373000D02*
G01*
X10377000Y-21373000D01*
X10377000Y-16627000D01*
X22123000Y-16627000D01*
X22123000Y-21373000D01*
X22123000Y-21373000D01*
G37*
X22123000Y-21373000D02*
X10377000Y-21373000D01*
X10377000Y-16627000D01*
X22123000Y-16627000D01*
X22123000Y-21373000D01*
G36*
X22123000Y-30373000D02*
G01*
X10377000Y-30373000D01*
X10377000Y-25627000D01*
X22123000Y-25627000D01*
X22123000Y-30373000D01*
X22123000Y-30373000D01*
G37*
X22123000Y-30373000D02*
X10377000Y-30373000D01*
X10377000Y-25627000D01*
X22123000Y-25627000D01*
X22123000Y-30373000D01*
G36*
X22123000Y-39123000D02*
G01*
X10377000Y-39123000D01*
X10377000Y-34377000D01*
X22123000Y-34377000D01*
X22123000Y-39123000D01*
X22123000Y-39123000D01*
G37*
X22123000Y-39123000D02*
X10377000Y-39123000D01*
X10377000Y-34377000D01*
X22123000Y-34377000D01*
X22123000Y-39123000D01*
G36*
X22199156Y-48123000D02*
G01*
X10453156Y-48123000D01*
X10453156Y-43377000D01*
X22199156Y-43377000D01*
X22199156Y-48123000D01*
X22199156Y-48123000D01*
G37*
X22199156Y-48123000D02*
X10453156Y-48123000D01*
X10453156Y-43377000D01*
X22199156Y-43377000D01*
X22199156Y-48123000D01*
G36*
X22199156Y-57123000D02*
G01*
X10453156Y-57123000D01*
X10453156Y-52377000D01*
X22199156Y-52377000D01*
X22199156Y-57123000D01*
X22199156Y-57123000D01*
G37*
X22199156Y-57123000D02*
X10453156Y-57123000D01*
X10453156Y-52377000D01*
X22199156Y-52377000D01*
X22199156Y-57123000D01*
G36*
X22199156Y-65873000D02*
G01*
X10453156Y-65873000D01*
X10453156Y-61127000D01*
X22199156Y-61127000D01*
X22199156Y-65873000D01*
X22199156Y-65873000D01*
G37*
X22199156Y-65873000D02*
X10453156Y-65873000D01*
X10453156Y-61127000D01*
X22199156Y-61127000D01*
X22199156Y-65873000D01*
G36*
X22199156Y-74873000D02*
G01*
X10453156Y-74873000D01*
X10453156Y-70127000D01*
X22199156Y-70127000D01*
X22199156Y-74873000D01*
X22199156Y-74873000D01*
G37*
X22199156Y-74873000D02*
X10453156Y-74873000D01*
X10453156Y-70127000D01*
X22199156Y-70127000D01*
X22199156Y-74873000D01*
G36*
X22199156Y-83873000D02*
G01*
X10453156Y-83873000D01*
X10453156Y-79127000D01*
X22199156Y-79127000D01*
X22199156Y-83873000D01*
X22199156Y-83873000D01*
G37*
X22199156Y-83873000D02*
X10453156Y-83873000D01*
X10453156Y-79127000D01*
X22199156Y-79127000D01*
X22199156Y-83873000D01*
G36*
X22199156Y-92873000D02*
G01*
X10453156Y-92873000D01*
X10453156Y-88127000D01*
X22199156Y-88127000D01*
X22199156Y-92873000D01*
X22199156Y-92873000D01*
G37*
X22199156Y-92873000D02*
X10453156Y-92873000D01*
X10453156Y-88127000D01*
X22199156Y-88127000D01*
X22199156Y-92873000D01*
G36*
X43623000Y-94056819D02*
G01*
X38877000Y-94056819D01*
X38877000Y-82310819D01*
X43623000Y-82310819D01*
X43623000Y-94056819D01*
X43623000Y-94056819D01*
G37*
X43623000Y-94056819D02*
X38877000Y-94056819D01*
X38877000Y-82310819D01*
X43623000Y-82310819D01*
X43623000Y-94056819D01*
G36*
X52623000Y-94056819D02*
G01*
X47877000Y-94056819D01*
X47877000Y-82310819D01*
X52623000Y-82310819D01*
X52623000Y-94056819D01*
X52623000Y-94056819D01*
G37*
X52623000Y-94056819D02*
X47877000Y-94056819D01*
X47877000Y-82310819D01*
X52623000Y-82310819D01*
X52623000Y-94056819D01*
G36*
X61373000Y-94056819D02*
G01*
X56627000Y-94056819D01*
X56627000Y-82310819D01*
X61373000Y-82310819D01*
X61373000Y-94056819D01*
X61373000Y-94056819D01*
G37*
X61373000Y-94056819D02*
X56627000Y-94056819D01*
X56627000Y-82310819D01*
X61373000Y-82310819D01*
X61373000Y-94056819D01*
M02*
