G04 #@! TF.GenerationSoftware,KiCad,Pcbnew,6.0.0-rc1-unknown-5edf350~66~ubuntu18.10.1*
G04 #@! TF.CreationDate,2019-02-07T09:42:41-05:00
G04 #@! TF.ProjectId,BMS-Slave,424d532d-536c-4617-9665-2e6b69636164,V0.2*
G04 #@! TF.SameCoordinates,Original*
G04 #@! TF.FileFunction,Soldermask,Top*
G04 #@! TF.FilePolarity,Negative*
%FSLAX46Y46*%
G04 Gerber Fmt 4.6, Leading zero omitted, Abs format (unit mm)*
G04 Created by KiCad (PCBNEW 6.0.0-rc1-unknown-5edf350~66~ubuntu18.10.1) date 2019-02-07 09:42:41*
%MOMM*%
%LPD*%
G04 APERTURE LIST*
%ADD10C,0.100000*%
G04 APERTURE END LIST*
D10*
G36*
X90470442Y-96605518D02*
G01*
X90536627Y-96612037D01*
X90706466Y-96663557D01*
X90862991Y-96747222D01*
X90898729Y-96776552D01*
X91000186Y-96859814D01*
X91083448Y-96961271D01*
X91112778Y-96997009D01*
X91196443Y-97153534D01*
X91247963Y-97323373D01*
X91265359Y-97500000D01*
X91247963Y-97676627D01*
X91196443Y-97846466D01*
X91112778Y-98002991D01*
X91083448Y-98038729D01*
X91000186Y-98140186D01*
X90898729Y-98223448D01*
X90862991Y-98252778D01*
X90706466Y-98336443D01*
X90536627Y-98387963D01*
X90470442Y-98394482D01*
X90404260Y-98401000D01*
X90315740Y-98401000D01*
X90249558Y-98394482D01*
X90183373Y-98387963D01*
X90013534Y-98336443D01*
X89857009Y-98252778D01*
X89821271Y-98223448D01*
X89719814Y-98140186D01*
X89636552Y-98038729D01*
X89607222Y-98002991D01*
X89523557Y-97846466D01*
X89472037Y-97676627D01*
X89454641Y-97500000D01*
X89472037Y-97323373D01*
X89523557Y-97153534D01*
X89607222Y-96997009D01*
X89636552Y-96961271D01*
X89719814Y-96859814D01*
X89821271Y-96776552D01*
X89857009Y-96747222D01*
X90013534Y-96663557D01*
X90183373Y-96612037D01*
X90249558Y-96605518D01*
X90315740Y-96599000D01*
X90404260Y-96599000D01*
X90470442Y-96605518D01*
X90470442Y-96605518D01*
G37*
G36*
X87930442Y-96605518D02*
G01*
X87996627Y-96612037D01*
X88166466Y-96663557D01*
X88322991Y-96747222D01*
X88358729Y-96776552D01*
X88460186Y-96859814D01*
X88543448Y-96961271D01*
X88572778Y-96997009D01*
X88656443Y-97153534D01*
X88707963Y-97323373D01*
X88725359Y-97500000D01*
X88707963Y-97676627D01*
X88656443Y-97846466D01*
X88572778Y-98002991D01*
X88543448Y-98038729D01*
X88460186Y-98140186D01*
X88358729Y-98223448D01*
X88322991Y-98252778D01*
X88166466Y-98336443D01*
X87996627Y-98387963D01*
X87930442Y-98394482D01*
X87864260Y-98401000D01*
X87775740Y-98401000D01*
X87709558Y-98394482D01*
X87643373Y-98387963D01*
X87473534Y-98336443D01*
X87317009Y-98252778D01*
X87281271Y-98223448D01*
X87179814Y-98140186D01*
X87096552Y-98038729D01*
X87067222Y-98002991D01*
X86983557Y-97846466D01*
X86932037Y-97676627D01*
X86914641Y-97500000D01*
X86932037Y-97323373D01*
X86983557Y-97153534D01*
X87067222Y-96997009D01*
X87096552Y-96961271D01*
X87179814Y-96859814D01*
X87281271Y-96776552D01*
X87317009Y-96747222D01*
X87473534Y-96663557D01*
X87643373Y-96612037D01*
X87709558Y-96605518D01*
X87775740Y-96599000D01*
X87864260Y-96599000D01*
X87930442Y-96605518D01*
X87930442Y-96605518D01*
G37*
G36*
X68401000Y-98401000D02*
G01*
X66599000Y-98401000D01*
X66599000Y-96599000D01*
X68401000Y-96599000D01*
X68401000Y-98401000D01*
X68401000Y-98401000D01*
G37*
G36*
X70150442Y-96605518D02*
G01*
X70216627Y-96612037D01*
X70386466Y-96663557D01*
X70542991Y-96747222D01*
X70578729Y-96776552D01*
X70680186Y-96859814D01*
X70763448Y-96961271D01*
X70792778Y-96997009D01*
X70876443Y-97153534D01*
X70927963Y-97323373D01*
X70945359Y-97500000D01*
X70927963Y-97676627D01*
X70876443Y-97846466D01*
X70792778Y-98002991D01*
X70763448Y-98038729D01*
X70680186Y-98140186D01*
X70578729Y-98223448D01*
X70542991Y-98252778D01*
X70386466Y-98336443D01*
X70216627Y-98387963D01*
X70150442Y-98394482D01*
X70084260Y-98401000D01*
X69995740Y-98401000D01*
X69929558Y-98394482D01*
X69863373Y-98387963D01*
X69693534Y-98336443D01*
X69537009Y-98252778D01*
X69501271Y-98223448D01*
X69399814Y-98140186D01*
X69316552Y-98038729D01*
X69287222Y-98002991D01*
X69203557Y-97846466D01*
X69152037Y-97676627D01*
X69134641Y-97500000D01*
X69152037Y-97323373D01*
X69203557Y-97153534D01*
X69287222Y-96997009D01*
X69316552Y-96961271D01*
X69399814Y-96859814D01*
X69501271Y-96776552D01*
X69537009Y-96747222D01*
X69693534Y-96663557D01*
X69863373Y-96612037D01*
X69929558Y-96605518D01*
X69995740Y-96599000D01*
X70084260Y-96599000D01*
X70150442Y-96605518D01*
X70150442Y-96605518D01*
G37*
G36*
X72690442Y-96605518D02*
G01*
X72756627Y-96612037D01*
X72926466Y-96663557D01*
X73082991Y-96747222D01*
X73118729Y-96776552D01*
X73220186Y-96859814D01*
X73303448Y-96961271D01*
X73332778Y-96997009D01*
X73416443Y-97153534D01*
X73467963Y-97323373D01*
X73485359Y-97500000D01*
X73467963Y-97676627D01*
X73416443Y-97846466D01*
X73332778Y-98002991D01*
X73303448Y-98038729D01*
X73220186Y-98140186D01*
X73118729Y-98223448D01*
X73082991Y-98252778D01*
X72926466Y-98336443D01*
X72756627Y-98387963D01*
X72690442Y-98394482D01*
X72624260Y-98401000D01*
X72535740Y-98401000D01*
X72469558Y-98394482D01*
X72403373Y-98387963D01*
X72233534Y-98336443D01*
X72077009Y-98252778D01*
X72041271Y-98223448D01*
X71939814Y-98140186D01*
X71856552Y-98038729D01*
X71827222Y-98002991D01*
X71743557Y-97846466D01*
X71692037Y-97676627D01*
X71674641Y-97500000D01*
X71692037Y-97323373D01*
X71743557Y-97153534D01*
X71827222Y-96997009D01*
X71856552Y-96961271D01*
X71939814Y-96859814D01*
X72041271Y-96776552D01*
X72077009Y-96747222D01*
X72233534Y-96663557D01*
X72403373Y-96612037D01*
X72469558Y-96605518D01*
X72535740Y-96599000D01*
X72624260Y-96599000D01*
X72690442Y-96605518D01*
X72690442Y-96605518D01*
G37*
G36*
X75230442Y-96605518D02*
G01*
X75296627Y-96612037D01*
X75466466Y-96663557D01*
X75622991Y-96747222D01*
X75658729Y-96776552D01*
X75760186Y-96859814D01*
X75843448Y-96961271D01*
X75872778Y-96997009D01*
X75956443Y-97153534D01*
X76007963Y-97323373D01*
X76025359Y-97500000D01*
X76007963Y-97676627D01*
X75956443Y-97846466D01*
X75872778Y-98002991D01*
X75843448Y-98038729D01*
X75760186Y-98140186D01*
X75658729Y-98223448D01*
X75622991Y-98252778D01*
X75466466Y-98336443D01*
X75296627Y-98387963D01*
X75230442Y-98394482D01*
X75164260Y-98401000D01*
X75075740Y-98401000D01*
X75009558Y-98394482D01*
X74943373Y-98387963D01*
X74773534Y-98336443D01*
X74617009Y-98252778D01*
X74581271Y-98223448D01*
X74479814Y-98140186D01*
X74396552Y-98038729D01*
X74367222Y-98002991D01*
X74283557Y-97846466D01*
X74232037Y-97676627D01*
X74214641Y-97500000D01*
X74232037Y-97323373D01*
X74283557Y-97153534D01*
X74367222Y-96997009D01*
X74396552Y-96961271D01*
X74479814Y-96859814D01*
X74581271Y-96776552D01*
X74617009Y-96747222D01*
X74773534Y-96663557D01*
X74943373Y-96612037D01*
X75009558Y-96605518D01*
X75075740Y-96599000D01*
X75164260Y-96599000D01*
X75230442Y-96605518D01*
X75230442Y-96605518D01*
G37*
G36*
X80310442Y-96605518D02*
G01*
X80376627Y-96612037D01*
X80546466Y-96663557D01*
X80702991Y-96747222D01*
X80738729Y-96776552D01*
X80840186Y-96859814D01*
X80923448Y-96961271D01*
X80952778Y-96997009D01*
X81036443Y-97153534D01*
X81087963Y-97323373D01*
X81105359Y-97500000D01*
X81087963Y-97676627D01*
X81036443Y-97846466D01*
X80952778Y-98002991D01*
X80923448Y-98038729D01*
X80840186Y-98140186D01*
X80738729Y-98223448D01*
X80702991Y-98252778D01*
X80546466Y-98336443D01*
X80376627Y-98387963D01*
X80310442Y-98394482D01*
X80244260Y-98401000D01*
X80155740Y-98401000D01*
X80089558Y-98394482D01*
X80023373Y-98387963D01*
X79853534Y-98336443D01*
X79697009Y-98252778D01*
X79661271Y-98223448D01*
X79559814Y-98140186D01*
X79476552Y-98038729D01*
X79447222Y-98002991D01*
X79363557Y-97846466D01*
X79312037Y-97676627D01*
X79294641Y-97500000D01*
X79312037Y-97323373D01*
X79363557Y-97153534D01*
X79447222Y-96997009D01*
X79476552Y-96961271D01*
X79559814Y-96859814D01*
X79661271Y-96776552D01*
X79697009Y-96747222D01*
X79853534Y-96663557D01*
X80023373Y-96612037D01*
X80089558Y-96605518D01*
X80155740Y-96599000D01*
X80244260Y-96599000D01*
X80310442Y-96605518D01*
X80310442Y-96605518D01*
G37*
G36*
X77770442Y-96605518D02*
G01*
X77836627Y-96612037D01*
X78006466Y-96663557D01*
X78162991Y-96747222D01*
X78198729Y-96776552D01*
X78300186Y-96859814D01*
X78383448Y-96961271D01*
X78412778Y-96997009D01*
X78496443Y-97153534D01*
X78547963Y-97323373D01*
X78565359Y-97500000D01*
X78547963Y-97676627D01*
X78496443Y-97846466D01*
X78412778Y-98002991D01*
X78383448Y-98038729D01*
X78300186Y-98140186D01*
X78198729Y-98223448D01*
X78162991Y-98252778D01*
X78006466Y-98336443D01*
X77836627Y-98387963D01*
X77770442Y-98394482D01*
X77704260Y-98401000D01*
X77615740Y-98401000D01*
X77549558Y-98394482D01*
X77483373Y-98387963D01*
X77313534Y-98336443D01*
X77157009Y-98252778D01*
X77121271Y-98223448D01*
X77019814Y-98140186D01*
X76936552Y-98038729D01*
X76907222Y-98002991D01*
X76823557Y-97846466D01*
X76772037Y-97676627D01*
X76754641Y-97500000D01*
X76772037Y-97323373D01*
X76823557Y-97153534D01*
X76907222Y-96997009D01*
X76936552Y-96961271D01*
X77019814Y-96859814D01*
X77121271Y-96776552D01*
X77157009Y-96747222D01*
X77313534Y-96663557D01*
X77483373Y-96612037D01*
X77549558Y-96605518D01*
X77615740Y-96599000D01*
X77704260Y-96599000D01*
X77770442Y-96605518D01*
X77770442Y-96605518D01*
G37*
G36*
X85390442Y-96605518D02*
G01*
X85456627Y-96612037D01*
X85626466Y-96663557D01*
X85782991Y-96747222D01*
X85818729Y-96776552D01*
X85920186Y-96859814D01*
X86003448Y-96961271D01*
X86032778Y-96997009D01*
X86116443Y-97153534D01*
X86167963Y-97323373D01*
X86185359Y-97500000D01*
X86167963Y-97676627D01*
X86116443Y-97846466D01*
X86032778Y-98002991D01*
X86003448Y-98038729D01*
X85920186Y-98140186D01*
X85818729Y-98223448D01*
X85782991Y-98252778D01*
X85626466Y-98336443D01*
X85456627Y-98387963D01*
X85390442Y-98394482D01*
X85324260Y-98401000D01*
X85235740Y-98401000D01*
X85169558Y-98394482D01*
X85103373Y-98387963D01*
X84933534Y-98336443D01*
X84777009Y-98252778D01*
X84741271Y-98223448D01*
X84639814Y-98140186D01*
X84556552Y-98038729D01*
X84527222Y-98002991D01*
X84443557Y-97846466D01*
X84392037Y-97676627D01*
X84374641Y-97500000D01*
X84392037Y-97323373D01*
X84443557Y-97153534D01*
X84527222Y-96997009D01*
X84556552Y-96961271D01*
X84639814Y-96859814D01*
X84741271Y-96776552D01*
X84777009Y-96747222D01*
X84933534Y-96663557D01*
X85103373Y-96612037D01*
X85169558Y-96605518D01*
X85235740Y-96599000D01*
X85324260Y-96599000D01*
X85390442Y-96605518D01*
X85390442Y-96605518D01*
G37*
G36*
X82850442Y-96605518D02*
G01*
X82916627Y-96612037D01*
X83086466Y-96663557D01*
X83242991Y-96747222D01*
X83278729Y-96776552D01*
X83380186Y-96859814D01*
X83463448Y-96961271D01*
X83492778Y-96997009D01*
X83576443Y-97153534D01*
X83627963Y-97323373D01*
X83645359Y-97500000D01*
X83627963Y-97676627D01*
X83576443Y-97846466D01*
X83492778Y-98002991D01*
X83463448Y-98038729D01*
X83380186Y-98140186D01*
X83278729Y-98223448D01*
X83242991Y-98252778D01*
X83086466Y-98336443D01*
X82916627Y-98387963D01*
X82850442Y-98394482D01*
X82784260Y-98401000D01*
X82695740Y-98401000D01*
X82629558Y-98394482D01*
X82563373Y-98387963D01*
X82393534Y-98336443D01*
X82237009Y-98252778D01*
X82201271Y-98223448D01*
X82099814Y-98140186D01*
X82016552Y-98038729D01*
X81987222Y-98002991D01*
X81903557Y-97846466D01*
X81852037Y-97676627D01*
X81834641Y-97500000D01*
X81852037Y-97323373D01*
X81903557Y-97153534D01*
X81987222Y-96997009D01*
X82016552Y-96961271D01*
X82099814Y-96859814D01*
X82201271Y-96776552D01*
X82237009Y-96747222D01*
X82393534Y-96663557D01*
X82563373Y-96612037D01*
X82629558Y-96605518D01*
X82695740Y-96599000D01*
X82784260Y-96599000D01*
X82850442Y-96605518D01*
X82850442Y-96605518D01*
G37*
G36*
X5536693Y-92301859D02*
G01*
X5802437Y-92354719D01*
X6303087Y-92562095D01*
X6483561Y-92682684D01*
X6753660Y-92863158D01*
X7136842Y-93246340D01*
X7317316Y-93516439D01*
X7437905Y-93696913D01*
X7571363Y-94019109D01*
X7645281Y-94197564D01*
X7751000Y-94729049D01*
X7751000Y-95270951D01*
X7715186Y-95451000D01*
X7645281Y-95802437D01*
X7437905Y-96303087D01*
X7381521Y-96387471D01*
X7136842Y-96753660D01*
X6753660Y-97136842D01*
X6490774Y-97312496D01*
X6303087Y-97437905D01*
X5802437Y-97645281D01*
X5536694Y-97698140D01*
X5270951Y-97751000D01*
X4729049Y-97751000D01*
X4463306Y-97698140D01*
X4197563Y-97645281D01*
X3696913Y-97437905D01*
X3509226Y-97312496D01*
X3246340Y-97136842D01*
X2863158Y-96753660D01*
X2618479Y-96387471D01*
X2562095Y-96303087D01*
X2354719Y-95802437D01*
X2284814Y-95451000D01*
X2249000Y-95270951D01*
X2249000Y-94729049D01*
X2354719Y-94197564D01*
X2428637Y-94019109D01*
X2562095Y-93696913D01*
X2682684Y-93516439D01*
X2863158Y-93246340D01*
X3246340Y-92863158D01*
X3516439Y-92682684D01*
X3696913Y-92562095D01*
X4197563Y-92354719D01*
X4463307Y-92301859D01*
X4729049Y-92249000D01*
X5270951Y-92249000D01*
X5536693Y-92301859D01*
X5536693Y-92301859D01*
G37*
G36*
X95536693Y-92301859D02*
G01*
X95802437Y-92354719D01*
X96303087Y-92562095D01*
X96483561Y-92682684D01*
X96753660Y-92863158D01*
X97136842Y-93246340D01*
X97317316Y-93516439D01*
X97437905Y-93696913D01*
X97571363Y-94019109D01*
X97645281Y-94197564D01*
X97751000Y-94729049D01*
X97751000Y-95270951D01*
X97715186Y-95451000D01*
X97645281Y-95802437D01*
X97437905Y-96303087D01*
X97381521Y-96387471D01*
X97136842Y-96753660D01*
X96753660Y-97136842D01*
X96490774Y-97312496D01*
X96303087Y-97437905D01*
X95802437Y-97645281D01*
X95536693Y-97698141D01*
X95270951Y-97751000D01*
X94729049Y-97751000D01*
X94463306Y-97698140D01*
X94197563Y-97645281D01*
X93696913Y-97437905D01*
X93509226Y-97312496D01*
X93246340Y-97136842D01*
X92863158Y-96753660D01*
X92618479Y-96387471D01*
X92562095Y-96303087D01*
X92354719Y-95802437D01*
X92284814Y-95451000D01*
X92249000Y-95270951D01*
X92249000Y-94729049D01*
X92354719Y-94197564D01*
X92428637Y-94019109D01*
X92562095Y-93696913D01*
X92682684Y-93516439D01*
X92863158Y-93246340D01*
X93246340Y-92863158D01*
X93516439Y-92682684D01*
X93696913Y-92562095D01*
X94197563Y-92354719D01*
X94463307Y-92301859D01*
X94729049Y-92249000D01*
X95270951Y-92249000D01*
X95536693Y-92301859D01*
X95536693Y-92301859D01*
G37*
G36*
X91638240Y-95161480D02*
G01*
X90636240Y-95161480D01*
X90636240Y-93859480D01*
X91638240Y-93859480D01*
X91638240Y-95161480D01*
X91638240Y-95161480D01*
G37*
G36*
X76638240Y-95161480D02*
G01*
X75636240Y-95161480D01*
X75636240Y-93859480D01*
X76638240Y-93859480D01*
X76638240Y-95161480D01*
X76638240Y-95161480D01*
G37*
G36*
X73638240Y-95161480D02*
G01*
X72636240Y-95161480D01*
X72636240Y-93859480D01*
X73638240Y-93859480D01*
X73638240Y-95161480D01*
X73638240Y-95161480D01*
G37*
G36*
X79638240Y-95161480D02*
G01*
X78636240Y-95161480D01*
X78636240Y-93859480D01*
X79638240Y-93859480D01*
X79638240Y-95161480D01*
X79638240Y-95161480D01*
G37*
G36*
X70638240Y-95161480D02*
G01*
X69636240Y-95161480D01*
X69636240Y-93859480D01*
X70638240Y-93859480D01*
X70638240Y-95161480D01*
X70638240Y-95161480D01*
G37*
G36*
X82638240Y-95161480D02*
G01*
X81636240Y-95161480D01*
X81636240Y-93859480D01*
X82638240Y-93859480D01*
X82638240Y-95161480D01*
X82638240Y-95161480D01*
G37*
G36*
X67638240Y-95161480D02*
G01*
X66636240Y-95161480D01*
X66636240Y-93859480D01*
X67638240Y-93859480D01*
X67638240Y-95161480D01*
X67638240Y-95161480D01*
G37*
G36*
X85638240Y-95161480D02*
G01*
X84636240Y-95161480D01*
X84636240Y-93859480D01*
X85638240Y-93859480D01*
X85638240Y-95161480D01*
X85638240Y-95161480D01*
G37*
G36*
X88638240Y-95161480D02*
G01*
X87636240Y-95161480D01*
X87636240Y-93859480D01*
X88638240Y-93859480D01*
X88638240Y-95161480D01*
X88638240Y-95161480D01*
G37*
G36*
X87063240Y-95011480D02*
G01*
X86211240Y-95011480D01*
X86211240Y-93709480D01*
X87063240Y-93709480D01*
X87063240Y-95011480D01*
X87063240Y-95011480D01*
G37*
G36*
X90063240Y-95011480D02*
G01*
X89211240Y-95011480D01*
X89211240Y-93709480D01*
X90063240Y-93709480D01*
X90063240Y-95011480D01*
X90063240Y-95011480D01*
G37*
G36*
X84063240Y-95011480D02*
G01*
X83211240Y-95011480D01*
X83211240Y-93709480D01*
X84063240Y-93709480D01*
X84063240Y-95011480D01*
X84063240Y-95011480D01*
G37*
G36*
X81063240Y-95011480D02*
G01*
X80211240Y-95011480D01*
X80211240Y-93709480D01*
X81063240Y-93709480D01*
X81063240Y-95011480D01*
X81063240Y-95011480D01*
G37*
G36*
X78063240Y-95011480D02*
G01*
X77211240Y-95011480D01*
X77211240Y-93709480D01*
X78063240Y-93709480D01*
X78063240Y-95011480D01*
X78063240Y-95011480D01*
G37*
G36*
X75063240Y-95011480D02*
G01*
X74211240Y-95011480D01*
X74211240Y-93709480D01*
X75063240Y-93709480D01*
X75063240Y-95011480D01*
X75063240Y-95011480D01*
G37*
G36*
X72063240Y-95011480D02*
G01*
X71211240Y-95011480D01*
X71211240Y-93709480D01*
X72063240Y-93709480D01*
X72063240Y-95011480D01*
X72063240Y-95011480D01*
G37*
G36*
X69063240Y-95011480D02*
G01*
X68211240Y-95011480D01*
X68211240Y-93709480D01*
X69063240Y-93709480D01*
X69063240Y-95011480D01*
X69063240Y-95011480D01*
G37*
G36*
X66063240Y-95011480D02*
G01*
X65211240Y-95011480D01*
X65211240Y-93709480D01*
X66063240Y-93709480D01*
X66063240Y-95011480D01*
X66063240Y-95011480D01*
G37*
G36*
X55066000Y-94766000D02*
G01*
X52934000Y-94766000D01*
X52934000Y-92014000D01*
X55066000Y-92014000D01*
X55066000Y-94766000D01*
X55066000Y-94766000D01*
G37*
G36*
X46066000Y-94566000D02*
G01*
X43934000Y-94566000D01*
X43934000Y-91814000D01*
X46066000Y-91814000D01*
X46066000Y-94566000D01*
X46066000Y-94566000D01*
G37*
G36*
X37166000Y-94466000D02*
G01*
X35034000Y-94466000D01*
X35034000Y-91714000D01*
X37166000Y-91714000D01*
X37166000Y-94466000D01*
X37166000Y-94466000D01*
G37*
G36*
X72063240Y-93111480D02*
G01*
X71211240Y-93111480D01*
X71211240Y-91809480D01*
X72063240Y-91809480D01*
X72063240Y-93111480D01*
X72063240Y-93111480D01*
G37*
G36*
X90063240Y-93111480D02*
G01*
X89211240Y-93111480D01*
X89211240Y-91809480D01*
X90063240Y-91809480D01*
X90063240Y-93111480D01*
X90063240Y-93111480D01*
G37*
G36*
X87063240Y-93111480D02*
G01*
X86211240Y-93111480D01*
X86211240Y-91809480D01*
X87063240Y-91809480D01*
X87063240Y-93111480D01*
X87063240Y-93111480D01*
G37*
G36*
X84063240Y-93111480D02*
G01*
X83211240Y-93111480D01*
X83211240Y-91809480D01*
X84063240Y-91809480D01*
X84063240Y-93111480D01*
X84063240Y-93111480D01*
G37*
G36*
X66063240Y-93111480D02*
G01*
X65211240Y-93111480D01*
X65211240Y-91809480D01*
X66063240Y-91809480D01*
X66063240Y-93111480D01*
X66063240Y-93111480D01*
G37*
G36*
X81063240Y-93111480D02*
G01*
X80211240Y-93111480D01*
X80211240Y-91809480D01*
X81063240Y-91809480D01*
X81063240Y-93111480D01*
X81063240Y-93111480D01*
G37*
G36*
X69063240Y-93111480D02*
G01*
X68211240Y-93111480D01*
X68211240Y-91809480D01*
X69063240Y-91809480D01*
X69063240Y-93111480D01*
X69063240Y-93111480D01*
G37*
G36*
X78063240Y-93111480D02*
G01*
X77211240Y-93111480D01*
X77211240Y-91809480D01*
X78063240Y-91809480D01*
X78063240Y-93111480D01*
X78063240Y-93111480D01*
G37*
G36*
X75063240Y-93111480D02*
G01*
X74211240Y-93111480D01*
X74211240Y-91809480D01*
X75063240Y-91809480D01*
X75063240Y-93111480D01*
X75063240Y-93111480D01*
G37*
G36*
X91638240Y-92961480D02*
G01*
X90636240Y-92961480D01*
X90636240Y-91659480D01*
X91638240Y-91659480D01*
X91638240Y-92961480D01*
X91638240Y-92961480D01*
G37*
G36*
X76638240Y-92961480D02*
G01*
X75636240Y-92961480D01*
X75636240Y-91659480D01*
X76638240Y-91659480D01*
X76638240Y-92961480D01*
X76638240Y-92961480D01*
G37*
G36*
X73638240Y-92961480D02*
G01*
X72636240Y-92961480D01*
X72636240Y-91659480D01*
X73638240Y-91659480D01*
X73638240Y-92961480D01*
X73638240Y-92961480D01*
G37*
G36*
X82638240Y-92961480D02*
G01*
X81636240Y-92961480D01*
X81636240Y-91659480D01*
X82638240Y-91659480D01*
X82638240Y-92961480D01*
X82638240Y-92961480D01*
G37*
G36*
X88638240Y-92961480D02*
G01*
X87636240Y-92961480D01*
X87636240Y-91659480D01*
X88638240Y-91659480D01*
X88638240Y-92961480D01*
X88638240Y-92961480D01*
G37*
G36*
X67638240Y-92961480D02*
G01*
X66636240Y-92961480D01*
X66636240Y-91659480D01*
X67638240Y-91659480D01*
X67638240Y-92961480D01*
X67638240Y-92961480D01*
G37*
G36*
X85638240Y-92961480D02*
G01*
X84636240Y-92961480D01*
X84636240Y-91659480D01*
X85638240Y-91659480D01*
X85638240Y-92961480D01*
X85638240Y-92961480D01*
G37*
G36*
X70638240Y-92961480D02*
G01*
X69636240Y-92961480D01*
X69636240Y-91659480D01*
X70638240Y-91659480D01*
X70638240Y-92961480D01*
X70638240Y-92961480D01*
G37*
G36*
X79638240Y-92961480D02*
G01*
X78636240Y-92961480D01*
X78636240Y-91659480D01*
X79638240Y-91659480D01*
X79638240Y-92961480D01*
X79638240Y-92961480D01*
G37*
G36*
X15851000Y-92151000D02*
G01*
X14749000Y-92151000D01*
X14749000Y-88849000D01*
X15851000Y-88849000D01*
X15851000Y-92151000D01*
X15851000Y-92151000D01*
G37*
G36*
X22051000Y-92151000D02*
G01*
X20949000Y-92151000D01*
X20949000Y-88849000D01*
X22051000Y-88849000D01*
X22051000Y-92151000D01*
X22051000Y-92151000D01*
G37*
G36*
X55066000Y-90586000D02*
G01*
X52934000Y-90586000D01*
X52934000Y-87834000D01*
X55066000Y-87834000D01*
X55066000Y-90586000D01*
X55066000Y-90586000D01*
G37*
G36*
X46066000Y-90386000D02*
G01*
X43934000Y-90386000D01*
X43934000Y-87634000D01*
X46066000Y-87634000D01*
X46066000Y-90386000D01*
X46066000Y-90386000D01*
G37*
G36*
X37166000Y-90286000D02*
G01*
X35034000Y-90286000D01*
X35034000Y-87534000D01*
X37166000Y-87534000D01*
X37166000Y-90286000D01*
X37166000Y-90286000D01*
G37*
G36*
X51851000Y-89951000D02*
G01*
X48549000Y-89951000D01*
X48549000Y-88849000D01*
X51851000Y-88849000D01*
X51851000Y-89951000D01*
X51851000Y-89951000D01*
G37*
G36*
X60651000Y-89951000D02*
G01*
X57349000Y-89951000D01*
X57349000Y-88849000D01*
X60651000Y-88849000D01*
X60651000Y-89951000D01*
X60651000Y-89951000D01*
G37*
G36*
X42851000Y-89851000D02*
G01*
X39549000Y-89851000D01*
X39549000Y-88749000D01*
X42851000Y-88749000D01*
X42851000Y-89851000D01*
X42851000Y-89851000D01*
G37*
G36*
X22101000Y-87401000D02*
G01*
X21099000Y-87401000D01*
X21099000Y-86499000D01*
X22101000Y-86499000D01*
X22101000Y-87401000D01*
X22101000Y-87401000D01*
G37*
G36*
X12986000Y-86466000D02*
G01*
X10234000Y-86466000D01*
X10234000Y-84334000D01*
X12986000Y-84334000D01*
X12986000Y-86466000D01*
X12986000Y-86466000D01*
G37*
G36*
X17166000Y-86466000D02*
G01*
X14414000Y-86466000D01*
X14414000Y-84334000D01*
X17166000Y-84334000D01*
X17166000Y-86466000D01*
X17166000Y-86466000D01*
G37*
G36*
X20101000Y-86451000D02*
G01*
X19099000Y-86451000D01*
X19099000Y-85549000D01*
X20101000Y-85549000D01*
X20101000Y-86451000D01*
X20101000Y-86451000D01*
G37*
G36*
X22101000Y-85501000D02*
G01*
X21099000Y-85501000D01*
X21099000Y-84599000D01*
X22101000Y-84599000D01*
X22101000Y-85501000D01*
X22101000Y-85501000D01*
G37*
G36*
X55151000Y-85401000D02*
G01*
X54249000Y-85401000D01*
X54249000Y-84399000D01*
X55151000Y-84399000D01*
X55151000Y-85401000D01*
X55151000Y-85401000D01*
G37*
G36*
X46051000Y-85401000D02*
G01*
X45149000Y-85401000D01*
X45149000Y-84399000D01*
X46051000Y-84399000D01*
X46051000Y-85401000D01*
X46051000Y-85401000D01*
G37*
G36*
X36951000Y-85401000D02*
G01*
X36049000Y-85401000D01*
X36049000Y-84399000D01*
X36951000Y-84399000D01*
X36951000Y-85401000D01*
X36951000Y-85401000D01*
G37*
G36*
X60651000Y-83751000D02*
G01*
X57349000Y-83751000D01*
X57349000Y-82649000D01*
X60651000Y-82649000D01*
X60651000Y-83751000D01*
X60651000Y-83751000D01*
G37*
G36*
X51851000Y-83751000D02*
G01*
X48549000Y-83751000D01*
X48549000Y-82649000D01*
X51851000Y-82649000D01*
X51851000Y-83751000D01*
X51851000Y-83751000D01*
G37*
G36*
X42851000Y-83651000D02*
G01*
X39549000Y-83651000D01*
X39549000Y-82549000D01*
X42851000Y-82549000D01*
X42851000Y-83651000D01*
X42851000Y-83651000D01*
G37*
G36*
X56101000Y-83401000D02*
G01*
X55199000Y-83401000D01*
X55199000Y-82399000D01*
X56101000Y-82399000D01*
X56101000Y-83401000D01*
X56101000Y-83401000D01*
G37*
G36*
X45101000Y-83401000D02*
G01*
X44199000Y-83401000D01*
X44199000Y-82399000D01*
X45101000Y-82399000D01*
X45101000Y-83401000D01*
X45101000Y-83401000D01*
G37*
G36*
X47001000Y-83401000D02*
G01*
X46099000Y-83401000D01*
X46099000Y-82399000D01*
X47001000Y-82399000D01*
X47001000Y-83401000D01*
X47001000Y-83401000D01*
G37*
G36*
X36001000Y-83401000D02*
G01*
X35099000Y-83401000D01*
X35099000Y-82399000D01*
X36001000Y-82399000D01*
X36001000Y-83401000D01*
X36001000Y-83401000D01*
G37*
G36*
X54201000Y-83401000D02*
G01*
X53299000Y-83401000D01*
X53299000Y-82399000D01*
X54201000Y-82399000D01*
X54201000Y-83401000D01*
X54201000Y-83401000D01*
G37*
G36*
X37901000Y-83401000D02*
G01*
X36999000Y-83401000D01*
X36999000Y-82399000D01*
X37901000Y-82399000D01*
X37901000Y-83401000D01*
X37901000Y-83401000D01*
G37*
G36*
X22051000Y-83251000D02*
G01*
X20949000Y-83251000D01*
X20949000Y-79949000D01*
X22051000Y-79949000D01*
X22051000Y-83251000D01*
X22051000Y-83251000D01*
G37*
G36*
X15851000Y-83251000D02*
G01*
X14749000Y-83251000D01*
X14749000Y-79949000D01*
X15851000Y-79949000D01*
X15851000Y-83251000D01*
X15851000Y-83251000D01*
G37*
G36*
X62265280Y-82051680D02*
G01*
X61263280Y-82051680D01*
X61263280Y-80749680D01*
X62265280Y-80749680D01*
X62265280Y-82051680D01*
X62265280Y-82051680D01*
G37*
G36*
X62265280Y-79851680D02*
G01*
X61263280Y-79851680D01*
X61263280Y-78549680D01*
X62265280Y-78549680D01*
X62265280Y-79851680D01*
X62265280Y-79851680D01*
G37*
G36*
X22101000Y-78401000D02*
G01*
X21099000Y-78401000D01*
X21099000Y-77499000D01*
X22101000Y-77499000D01*
X22101000Y-78401000D01*
X22101000Y-78401000D01*
G37*
G36*
X13086000Y-77566000D02*
G01*
X10334000Y-77566000D01*
X10334000Y-75434000D01*
X13086000Y-75434000D01*
X13086000Y-77566000D01*
X13086000Y-77566000D01*
G37*
G36*
X17266000Y-77566000D02*
G01*
X14514000Y-77566000D01*
X14514000Y-75434000D01*
X17266000Y-75434000D01*
X17266000Y-77566000D01*
X17266000Y-77566000D01*
G37*
G36*
X20101000Y-77451000D02*
G01*
X19099000Y-77451000D01*
X19099000Y-76549000D01*
X20101000Y-76549000D01*
X20101000Y-77451000D01*
X20101000Y-77451000D01*
G37*
G36*
X22101000Y-76501000D02*
G01*
X21099000Y-76501000D01*
X21099000Y-75599000D01*
X22101000Y-75599000D01*
X22101000Y-76501000D01*
X22101000Y-76501000D01*
G37*
G36*
X22051000Y-74351000D02*
G01*
X20949000Y-74351000D01*
X20949000Y-71049000D01*
X22051000Y-71049000D01*
X22051000Y-74351000D01*
X22051000Y-74351000D01*
G37*
G36*
X15851000Y-74351000D02*
G01*
X14749000Y-74351000D01*
X14749000Y-71049000D01*
X15851000Y-71049000D01*
X15851000Y-74351000D01*
X15851000Y-74351000D01*
G37*
G36*
X94819320Y-73742520D02*
G01*
X93017320Y-73742520D01*
X93017320Y-71940520D01*
X94819320Y-71940520D01*
X94819320Y-73742520D01*
X94819320Y-73742520D01*
G37*
G36*
X4279200Y-71665400D02*
G01*
X2477200Y-71665400D01*
X2477200Y-69863400D01*
X4279200Y-69863400D01*
X4279200Y-71665400D01*
X4279200Y-71665400D01*
G37*
G36*
X45717960Y-71482600D02*
G01*
X44715960Y-71482600D01*
X44715960Y-70180600D01*
X45717960Y-70180600D01*
X45717960Y-71482600D01*
X45717960Y-71482600D01*
G37*
G36*
X47301000Y-71451000D02*
G01*
X46299000Y-71451000D01*
X46299000Y-70149000D01*
X47301000Y-70149000D01*
X47301000Y-71451000D01*
X47301000Y-71451000D01*
G37*
G36*
X55301000Y-71429920D02*
G01*
X54299000Y-71429920D01*
X54299000Y-70127920D01*
X55301000Y-70127920D01*
X55301000Y-71429920D01*
X55301000Y-71429920D01*
G37*
G36*
X53767480Y-71419760D02*
G01*
X52765480Y-71419760D01*
X52765480Y-70117760D01*
X53767480Y-70117760D01*
X53767480Y-71419760D01*
X53767480Y-71419760D01*
G37*
G36*
X49779080Y-71396720D02*
G01*
X48777080Y-71396720D01*
X48777080Y-70094720D01*
X49779080Y-70094720D01*
X49779080Y-71396720D01*
X49779080Y-71396720D01*
G37*
G36*
X51401000Y-71368960D02*
G01*
X50399000Y-71368960D01*
X50399000Y-70066960D01*
X51401000Y-70066960D01*
X51401000Y-71368960D01*
X51401000Y-71368960D01*
G37*
G36*
X94028763Y-69407039D02*
G01*
X94094947Y-69413557D01*
X94264786Y-69465077D01*
X94421311Y-69548742D01*
X94457049Y-69578072D01*
X94558506Y-69661334D01*
X94641768Y-69762791D01*
X94671098Y-69798529D01*
X94754763Y-69955054D01*
X94806283Y-70124893D01*
X94823679Y-70301520D01*
X94806283Y-70478147D01*
X94754763Y-70647986D01*
X94671098Y-70804511D01*
X94641768Y-70840249D01*
X94558506Y-70941706D01*
X94457049Y-71024968D01*
X94421311Y-71054298D01*
X94264786Y-71137963D01*
X94094947Y-71189483D01*
X94028762Y-71196002D01*
X93962580Y-71202520D01*
X93874060Y-71202520D01*
X93807878Y-71196002D01*
X93741693Y-71189483D01*
X93571854Y-71137963D01*
X93415329Y-71054298D01*
X93379591Y-71024968D01*
X93278134Y-70941706D01*
X93194872Y-70840249D01*
X93165542Y-70804511D01*
X93081877Y-70647986D01*
X93030357Y-70478147D01*
X93012961Y-70301520D01*
X93030357Y-70124893D01*
X93081877Y-69955054D01*
X93165542Y-69798529D01*
X93194872Y-69762791D01*
X93278134Y-69661334D01*
X93379591Y-69578072D01*
X93415329Y-69548742D01*
X93571854Y-69465077D01*
X93741693Y-69413557D01*
X93807877Y-69407039D01*
X93874060Y-69400520D01*
X93962580Y-69400520D01*
X94028763Y-69407039D01*
X94028763Y-69407039D01*
G37*
G36*
X22101000Y-69401000D02*
G01*
X21099000Y-69401000D01*
X21099000Y-68499000D01*
X22101000Y-68499000D01*
X22101000Y-69401000D01*
X22101000Y-69401000D01*
G37*
G36*
X45717960Y-69282600D02*
G01*
X44715960Y-69282600D01*
X44715960Y-67980600D01*
X45717960Y-67980600D01*
X45717960Y-69282600D01*
X45717960Y-69282600D01*
G37*
G36*
X47301000Y-69251000D02*
G01*
X46299000Y-69251000D01*
X46299000Y-67949000D01*
X47301000Y-67949000D01*
X47301000Y-69251000D01*
X47301000Y-69251000D01*
G37*
G36*
X55301000Y-69229920D02*
G01*
X54299000Y-69229920D01*
X54299000Y-67927920D01*
X55301000Y-67927920D01*
X55301000Y-69229920D01*
X55301000Y-69229920D01*
G37*
G36*
X53767480Y-69219760D02*
G01*
X52765480Y-69219760D01*
X52765480Y-67917760D01*
X53767480Y-67917760D01*
X53767480Y-69219760D01*
X53767480Y-69219760D01*
G37*
G36*
X49779080Y-69196720D02*
G01*
X48777080Y-69196720D01*
X48777080Y-67894720D01*
X49779080Y-67894720D01*
X49779080Y-69196720D01*
X49779080Y-69196720D01*
G37*
G36*
X51401000Y-69168960D02*
G01*
X50399000Y-69168960D01*
X50399000Y-67866960D01*
X51401000Y-67866960D01*
X51401000Y-69168960D01*
X51401000Y-69168960D01*
G37*
G36*
X3488643Y-67329919D02*
G01*
X3554827Y-67336437D01*
X3724666Y-67387957D01*
X3881191Y-67471622D01*
X3916929Y-67500952D01*
X4018386Y-67584214D01*
X4101648Y-67685671D01*
X4130978Y-67721409D01*
X4214643Y-67877934D01*
X4266163Y-68047773D01*
X4283559Y-68224400D01*
X4266163Y-68401027D01*
X4214643Y-68570866D01*
X4130978Y-68727391D01*
X4101648Y-68763129D01*
X4018386Y-68864586D01*
X3916929Y-68947848D01*
X3881191Y-68977178D01*
X3724666Y-69060843D01*
X3554827Y-69112363D01*
X3488643Y-69118881D01*
X3422460Y-69125400D01*
X3333940Y-69125400D01*
X3267757Y-69118881D01*
X3201573Y-69112363D01*
X3031734Y-69060843D01*
X2875209Y-68977178D01*
X2839471Y-68947848D01*
X2738014Y-68864586D01*
X2654752Y-68763129D01*
X2625422Y-68727391D01*
X2541757Y-68570866D01*
X2490237Y-68401027D01*
X2472841Y-68224400D01*
X2490237Y-68047773D01*
X2541757Y-67877934D01*
X2625422Y-67721409D01*
X2654752Y-67685671D01*
X2738014Y-67584214D01*
X2839471Y-67500952D01*
X2875209Y-67471622D01*
X3031734Y-67387957D01*
X3201573Y-67336437D01*
X3267757Y-67329919D01*
X3333940Y-67323400D01*
X3422460Y-67323400D01*
X3488643Y-67329919D01*
X3488643Y-67329919D01*
G37*
G36*
X94028763Y-66867039D02*
G01*
X94094947Y-66873557D01*
X94264786Y-66925077D01*
X94421311Y-67008742D01*
X94457049Y-67038072D01*
X94558506Y-67121334D01*
X94641768Y-67222791D01*
X94671098Y-67258529D01*
X94754763Y-67415054D01*
X94806283Y-67584893D01*
X94823679Y-67761520D01*
X94806283Y-67938147D01*
X94754763Y-68107986D01*
X94671098Y-68264511D01*
X94641768Y-68300249D01*
X94558506Y-68401706D01*
X94457049Y-68484968D01*
X94421311Y-68514298D01*
X94264786Y-68597963D01*
X94094947Y-68649483D01*
X94028763Y-68656001D01*
X93962580Y-68662520D01*
X93874060Y-68662520D01*
X93807877Y-68656001D01*
X93741693Y-68649483D01*
X93571854Y-68597963D01*
X93415329Y-68514298D01*
X93379591Y-68484968D01*
X93278134Y-68401706D01*
X93194872Y-68300249D01*
X93165542Y-68264511D01*
X93081877Y-68107986D01*
X93030357Y-67938147D01*
X93012961Y-67761520D01*
X93030357Y-67584893D01*
X93081877Y-67415054D01*
X93165542Y-67258529D01*
X93194872Y-67222791D01*
X93278134Y-67121334D01*
X93379591Y-67038072D01*
X93415329Y-67008742D01*
X93571854Y-66925077D01*
X93741693Y-66873557D01*
X93807877Y-66867039D01*
X93874060Y-66860520D01*
X93962580Y-66860520D01*
X94028763Y-66867039D01*
X94028763Y-66867039D01*
G37*
G36*
X12786000Y-68566000D02*
G01*
X10034000Y-68566000D01*
X10034000Y-66434000D01*
X12786000Y-66434000D01*
X12786000Y-68566000D01*
X12786000Y-68566000D01*
G37*
G36*
X16966000Y-68566000D02*
G01*
X14214000Y-68566000D01*
X14214000Y-66434000D01*
X16966000Y-66434000D01*
X16966000Y-68566000D01*
X16966000Y-68566000D01*
G37*
G36*
X20101000Y-68451000D02*
G01*
X19099000Y-68451000D01*
X19099000Y-67549000D01*
X20101000Y-67549000D01*
X20101000Y-68451000D01*
X20101000Y-68451000D01*
G37*
G36*
X79088320Y-68121400D02*
G01*
X76986320Y-68121400D01*
X76986320Y-66519400D01*
X79088320Y-66519400D01*
X79088320Y-68121400D01*
X79088320Y-68121400D01*
G37*
G36*
X35451000Y-67901000D02*
G01*
X34149000Y-67901000D01*
X34149000Y-66899000D01*
X35451000Y-66899000D01*
X35451000Y-67901000D01*
X35451000Y-67901000D01*
G37*
G36*
X33251000Y-67901000D02*
G01*
X31949000Y-67901000D01*
X31949000Y-66899000D01*
X33251000Y-66899000D01*
X33251000Y-67901000D01*
X33251000Y-67901000D01*
G37*
G36*
X76235120Y-67559680D02*
G01*
X74933120Y-67559680D01*
X74933120Y-66707680D01*
X76235120Y-66707680D01*
X76235120Y-67559680D01*
X76235120Y-67559680D01*
G37*
G36*
X74335120Y-67559680D02*
G01*
X73033120Y-67559680D01*
X73033120Y-66707680D01*
X74335120Y-66707680D01*
X74335120Y-67559680D01*
X74335120Y-67559680D01*
G37*
G36*
X22101000Y-67501000D02*
G01*
X21099000Y-67501000D01*
X21099000Y-66599000D01*
X22101000Y-66599000D01*
X22101000Y-67501000D01*
X22101000Y-67501000D01*
G37*
G36*
X46426000Y-67421000D02*
G01*
X45574000Y-67421000D01*
X45574000Y-66119000D01*
X46426000Y-66119000D01*
X46426000Y-67421000D01*
X46426000Y-67421000D01*
G37*
G36*
X54426000Y-67401000D02*
G01*
X53574000Y-67401000D01*
X53574000Y-66099000D01*
X54426000Y-66099000D01*
X54426000Y-67401000D01*
X54426000Y-67401000D01*
G37*
G36*
X50526000Y-67322600D02*
G01*
X49674000Y-67322600D01*
X49674000Y-66020600D01*
X50526000Y-66020600D01*
X50526000Y-67322600D01*
X50526000Y-67322600D01*
G37*
G36*
X39201000Y-67026000D02*
G01*
X37899000Y-67026000D01*
X37899000Y-66174000D01*
X39201000Y-66174000D01*
X39201000Y-67026000D01*
X39201000Y-67026000D01*
G37*
G36*
X37301000Y-67026000D02*
G01*
X35999000Y-67026000D01*
X35999000Y-66174000D01*
X37301000Y-66174000D01*
X37301000Y-67026000D01*
X37301000Y-67026000D01*
G37*
G36*
X85388320Y-66971400D02*
G01*
X83286320Y-66971400D01*
X83286320Y-63069400D01*
X85388320Y-63069400D01*
X85388320Y-66971400D01*
X85388320Y-66971400D01*
G37*
G36*
X3488643Y-64789919D02*
G01*
X3554827Y-64796437D01*
X3724666Y-64847957D01*
X3881191Y-64931622D01*
X3916929Y-64960952D01*
X4018386Y-65044214D01*
X4101648Y-65145671D01*
X4130978Y-65181409D01*
X4214643Y-65337934D01*
X4266163Y-65507773D01*
X4283559Y-65684400D01*
X4266163Y-65861027D01*
X4214643Y-66030866D01*
X4130978Y-66187391D01*
X4101648Y-66223129D01*
X4018386Y-66324586D01*
X3916929Y-66407848D01*
X3881191Y-66437178D01*
X3724666Y-66520843D01*
X3554827Y-66572363D01*
X3488643Y-66578881D01*
X3422460Y-66585400D01*
X3333940Y-66585400D01*
X3267757Y-66578881D01*
X3201573Y-66572363D01*
X3031734Y-66520843D01*
X2875209Y-66437178D01*
X2839471Y-66407848D01*
X2738014Y-66324586D01*
X2654752Y-66223129D01*
X2625422Y-66187391D01*
X2541757Y-66030866D01*
X2490237Y-65861027D01*
X2472841Y-65684400D01*
X2490237Y-65507773D01*
X2541757Y-65337934D01*
X2625422Y-65181409D01*
X2654752Y-65145671D01*
X2738014Y-65044214D01*
X2839471Y-64960952D01*
X2875209Y-64931622D01*
X3031734Y-64847957D01*
X3201573Y-64796437D01*
X3267757Y-64789919D01*
X3333940Y-64783400D01*
X3422460Y-64783400D01*
X3488643Y-64789919D01*
X3488643Y-64789919D01*
G37*
G36*
X35451000Y-66301000D02*
G01*
X34149000Y-66301000D01*
X34149000Y-65299000D01*
X35451000Y-65299000D01*
X35451000Y-66301000D01*
X35451000Y-66301000D01*
G37*
G36*
X33251000Y-66301000D02*
G01*
X31949000Y-66301000D01*
X31949000Y-65299000D01*
X33251000Y-65299000D01*
X33251000Y-66301000D01*
X33251000Y-66301000D01*
G37*
G36*
X74335120Y-66122040D02*
G01*
X73033120Y-66122040D01*
X73033120Y-65270040D01*
X74335120Y-65270040D01*
X74335120Y-66122040D01*
X74335120Y-66122040D01*
G37*
G36*
X76235120Y-66122040D02*
G01*
X74933120Y-66122040D01*
X74933120Y-65270040D01*
X76235120Y-65270040D01*
X76235120Y-66122040D01*
X76235120Y-66122040D01*
G37*
G36*
X79088320Y-65821400D02*
G01*
X76986320Y-65821400D01*
X76986320Y-64219400D01*
X79088320Y-64219400D01*
X79088320Y-65821400D01*
X79088320Y-65821400D01*
G37*
G36*
X46426000Y-65521000D02*
G01*
X45574000Y-65521000D01*
X45574000Y-64219000D01*
X46426000Y-64219000D01*
X46426000Y-65521000D01*
X46426000Y-65521000D01*
G37*
G36*
X54426000Y-65501000D02*
G01*
X53574000Y-65501000D01*
X53574000Y-64199000D01*
X54426000Y-64199000D01*
X54426000Y-65501000D01*
X54426000Y-65501000D01*
G37*
G36*
X50526000Y-65422600D02*
G01*
X49674000Y-65422600D01*
X49674000Y-64120600D01*
X50526000Y-64120600D01*
X50526000Y-65422600D01*
X50526000Y-65422600D01*
G37*
G36*
X21951000Y-65351000D02*
G01*
X20849000Y-65351000D01*
X20849000Y-62049000D01*
X21951000Y-62049000D01*
X21951000Y-65351000D01*
X21951000Y-65351000D01*
G37*
G36*
X15751000Y-65351000D02*
G01*
X14649000Y-65351000D01*
X14649000Y-62049000D01*
X15751000Y-62049000D01*
X15751000Y-65351000D01*
X15751000Y-65351000D01*
G37*
G36*
X94028763Y-63219599D02*
G01*
X94094947Y-63226117D01*
X94264786Y-63277637D01*
X94421311Y-63361302D01*
X94457049Y-63390632D01*
X94558506Y-63473894D01*
X94641768Y-63575351D01*
X94671098Y-63611089D01*
X94754763Y-63767614D01*
X94806283Y-63937453D01*
X94823679Y-64114080D01*
X94806283Y-64290707D01*
X94754763Y-64460546D01*
X94671098Y-64617071D01*
X94641768Y-64652809D01*
X94558506Y-64754266D01*
X94457049Y-64837528D01*
X94421311Y-64866858D01*
X94264786Y-64950523D01*
X94094947Y-65002043D01*
X94028763Y-65008561D01*
X93962580Y-65015080D01*
X93874060Y-65015080D01*
X93807877Y-65008561D01*
X93741693Y-65002043D01*
X93571854Y-64950523D01*
X93415329Y-64866858D01*
X93379591Y-64837528D01*
X93278134Y-64754266D01*
X93194872Y-64652809D01*
X93165542Y-64617071D01*
X93081877Y-64460546D01*
X93030357Y-64290707D01*
X93012961Y-64114080D01*
X93030357Y-63937453D01*
X93081877Y-63767614D01*
X93165542Y-63611089D01*
X93194872Y-63575351D01*
X93278134Y-63473894D01*
X93379591Y-63390632D01*
X93415329Y-63361302D01*
X93571854Y-63277637D01*
X93741693Y-63226117D01*
X93807877Y-63219599D01*
X93874060Y-63213080D01*
X93962580Y-63213080D01*
X94028763Y-63219599D01*
X94028763Y-63219599D01*
G37*
G36*
X76222560Y-64734000D02*
G01*
X74920560Y-64734000D01*
X74920560Y-63732000D01*
X76222560Y-63732000D01*
X76222560Y-64734000D01*
X76222560Y-64734000D01*
G37*
G36*
X74022560Y-64734000D02*
G01*
X72720560Y-64734000D01*
X72720560Y-63732000D01*
X74022560Y-63732000D01*
X74022560Y-64734000D01*
X74022560Y-64734000D01*
G37*
G36*
X3488643Y-62249919D02*
G01*
X3554827Y-62256437D01*
X3724666Y-62307957D01*
X3881191Y-62391622D01*
X3916929Y-62420952D01*
X4018386Y-62504214D01*
X4101648Y-62605671D01*
X4130978Y-62641409D01*
X4214643Y-62797934D01*
X4266163Y-62967773D01*
X4283559Y-63144400D01*
X4266163Y-63321027D01*
X4214643Y-63490866D01*
X4130978Y-63647391D01*
X4101648Y-63683129D01*
X4018386Y-63784586D01*
X3916929Y-63867848D01*
X3881191Y-63897178D01*
X3724666Y-63980843D01*
X3554827Y-64032363D01*
X3488643Y-64038881D01*
X3422460Y-64045400D01*
X3333940Y-64045400D01*
X3267757Y-64038881D01*
X3201573Y-64032363D01*
X3031734Y-63980843D01*
X2875209Y-63897178D01*
X2839471Y-63867848D01*
X2738014Y-63784586D01*
X2654752Y-63683129D01*
X2625422Y-63647391D01*
X2541757Y-63490866D01*
X2490237Y-63321027D01*
X2472841Y-63144400D01*
X2490237Y-62967773D01*
X2541757Y-62797934D01*
X2625422Y-62641409D01*
X2654752Y-62605671D01*
X2738014Y-62504214D01*
X2839471Y-62420952D01*
X2875209Y-62391622D01*
X3031734Y-62307957D01*
X3201573Y-62256437D01*
X3267757Y-62249919D01*
X3333940Y-62243400D01*
X3422460Y-62243400D01*
X3488643Y-62249919D01*
X3488643Y-62249919D01*
G37*
G36*
X33265040Y-63801000D02*
G01*
X31963040Y-63801000D01*
X31963040Y-62799000D01*
X33265040Y-62799000D01*
X33265040Y-63801000D01*
X33265040Y-63801000D01*
G37*
G36*
X35465040Y-63801000D02*
G01*
X34163040Y-63801000D01*
X34163040Y-62799000D01*
X35465040Y-62799000D01*
X35465040Y-63801000D01*
X35465040Y-63801000D01*
G37*
G36*
X79088320Y-63521400D02*
G01*
X76986320Y-63521400D01*
X76986320Y-61919400D01*
X79088320Y-61919400D01*
X79088320Y-63521400D01*
X79088320Y-63521400D01*
G37*
G36*
X39201000Y-62826000D02*
G01*
X37899000Y-62826000D01*
X37899000Y-61974000D01*
X39201000Y-61974000D01*
X39201000Y-62826000D01*
X39201000Y-62826000D01*
G37*
G36*
X37301000Y-62826000D02*
G01*
X35999000Y-62826000D01*
X35999000Y-61974000D01*
X37301000Y-61974000D01*
X37301000Y-62826000D01*
X37301000Y-62826000D01*
G37*
G36*
X94028763Y-60679599D02*
G01*
X94094947Y-60686117D01*
X94264786Y-60737637D01*
X94421311Y-60821302D01*
X94457049Y-60850632D01*
X94558506Y-60933894D01*
X94641768Y-61035351D01*
X94671098Y-61071089D01*
X94754763Y-61227614D01*
X94806283Y-61397453D01*
X94823679Y-61574080D01*
X94806283Y-61750707D01*
X94754763Y-61920546D01*
X94671098Y-62077071D01*
X94641768Y-62112809D01*
X94558506Y-62214266D01*
X94457049Y-62297528D01*
X94421311Y-62326858D01*
X94264786Y-62410523D01*
X94094947Y-62462043D01*
X94028762Y-62468562D01*
X93962580Y-62475080D01*
X93874060Y-62475080D01*
X93807878Y-62468562D01*
X93741693Y-62462043D01*
X93571854Y-62410523D01*
X93415329Y-62326858D01*
X93379591Y-62297528D01*
X93278134Y-62214266D01*
X93194872Y-62112809D01*
X93165542Y-62077071D01*
X93081877Y-61920546D01*
X93030357Y-61750707D01*
X93012961Y-61574080D01*
X93030357Y-61397453D01*
X93081877Y-61227614D01*
X93165542Y-61071089D01*
X93194872Y-61035351D01*
X93278134Y-60933894D01*
X93379591Y-60850632D01*
X93415329Y-60821302D01*
X93571854Y-60737637D01*
X93741693Y-60686117D01*
X93807877Y-60679599D01*
X93874060Y-60673080D01*
X93962580Y-60673080D01*
X94028763Y-60679599D01*
X94028763Y-60679599D01*
G37*
G36*
X35449800Y-62207400D02*
G01*
X34147800Y-62207400D01*
X34147800Y-61205400D01*
X35449800Y-61205400D01*
X35449800Y-62207400D01*
X35449800Y-62207400D01*
G37*
G36*
X33249800Y-62207400D02*
G01*
X31947800Y-62207400D01*
X31947800Y-61205400D01*
X33249800Y-61205400D01*
X33249800Y-62207400D01*
X33249800Y-62207400D01*
G37*
G36*
X3488642Y-59709918D02*
G01*
X3554827Y-59716437D01*
X3724666Y-59767957D01*
X3881191Y-59851622D01*
X3916929Y-59880952D01*
X4018386Y-59964214D01*
X4101648Y-60065671D01*
X4130978Y-60101409D01*
X4214643Y-60257934D01*
X4266163Y-60427773D01*
X4283559Y-60604400D01*
X4266163Y-60781027D01*
X4214643Y-60950866D01*
X4130978Y-61107391D01*
X4101648Y-61143129D01*
X4018386Y-61244586D01*
X3916929Y-61327848D01*
X3881191Y-61357178D01*
X3724666Y-61440843D01*
X3554827Y-61492363D01*
X3488642Y-61498882D01*
X3422460Y-61505400D01*
X3333940Y-61505400D01*
X3267758Y-61498882D01*
X3201573Y-61492363D01*
X3031734Y-61440843D01*
X2875209Y-61357178D01*
X2839471Y-61327848D01*
X2738014Y-61244586D01*
X2654752Y-61143129D01*
X2625422Y-61107391D01*
X2541757Y-60950866D01*
X2490237Y-60781027D01*
X2472841Y-60604400D01*
X2490237Y-60427773D01*
X2541757Y-60257934D01*
X2625422Y-60101409D01*
X2654752Y-60065671D01*
X2738014Y-59964214D01*
X2839471Y-59880952D01*
X2875209Y-59851622D01*
X3031734Y-59767957D01*
X3201573Y-59716437D01*
X3267758Y-59709918D01*
X3333940Y-59703400D01*
X3422460Y-59703400D01*
X3488642Y-59709918D01*
X3488642Y-59709918D01*
G37*
G36*
X22101000Y-60501000D02*
G01*
X21099000Y-60501000D01*
X21099000Y-59599000D01*
X22101000Y-59599000D01*
X22101000Y-60501000D01*
X22101000Y-60501000D01*
G37*
G36*
X94819320Y-59935080D02*
G01*
X93017320Y-59935080D01*
X93017320Y-58133080D01*
X94819320Y-58133080D01*
X94819320Y-59935080D01*
X94819320Y-59935080D01*
G37*
G36*
X35402480Y-59701000D02*
G01*
X34100480Y-59701000D01*
X34100480Y-58699000D01*
X35402480Y-58699000D01*
X35402480Y-59701000D01*
X35402480Y-59701000D01*
G37*
G36*
X33202480Y-59701000D02*
G01*
X31900480Y-59701000D01*
X31900480Y-58699000D01*
X33202480Y-58699000D01*
X33202480Y-59701000D01*
X33202480Y-59701000D01*
G37*
G36*
X16966000Y-59666000D02*
G01*
X14214000Y-59666000D01*
X14214000Y-57534000D01*
X16966000Y-57534000D01*
X16966000Y-59666000D01*
X16966000Y-59666000D01*
G37*
G36*
X12786000Y-59666000D02*
G01*
X10034000Y-59666000D01*
X10034000Y-57534000D01*
X12786000Y-57534000D01*
X12786000Y-59666000D01*
X12786000Y-59666000D01*
G37*
G36*
X20101000Y-59551000D02*
G01*
X19099000Y-59551000D01*
X19099000Y-58649000D01*
X20101000Y-58649000D01*
X20101000Y-59551000D01*
X20101000Y-59551000D01*
G37*
G36*
X3488643Y-57169919D02*
G01*
X3554827Y-57176437D01*
X3724666Y-57227957D01*
X3881191Y-57311622D01*
X3916929Y-57340952D01*
X4018386Y-57424214D01*
X4101648Y-57525671D01*
X4130978Y-57561409D01*
X4130979Y-57561411D01*
X4204523Y-57699000D01*
X4214643Y-57717934D01*
X4266163Y-57887773D01*
X4283559Y-58064400D01*
X4266163Y-58241027D01*
X4214643Y-58410866D01*
X4130978Y-58567391D01*
X4103396Y-58601000D01*
X4018386Y-58704586D01*
X3916929Y-58787848D01*
X3881191Y-58817178D01*
X3724666Y-58900843D01*
X3554827Y-58952363D01*
X3488642Y-58958882D01*
X3422460Y-58965400D01*
X3333940Y-58965400D01*
X3267758Y-58958882D01*
X3201573Y-58952363D01*
X3031734Y-58900843D01*
X2875209Y-58817178D01*
X2839471Y-58787848D01*
X2738014Y-58704586D01*
X2653004Y-58601000D01*
X2625422Y-58567391D01*
X2541757Y-58410866D01*
X2490237Y-58241027D01*
X2472841Y-58064400D01*
X2490237Y-57887773D01*
X2541757Y-57717934D01*
X2551878Y-57699000D01*
X2625421Y-57561411D01*
X2625422Y-57561409D01*
X2654752Y-57525671D01*
X2738014Y-57424214D01*
X2839471Y-57340952D01*
X2875209Y-57311622D01*
X3031734Y-57227957D01*
X3201573Y-57176437D01*
X3267757Y-57169919D01*
X3333940Y-57163400D01*
X3422460Y-57163400D01*
X3488643Y-57169919D01*
X3488643Y-57169919D01*
G37*
G36*
X37301000Y-58826000D02*
G01*
X35999000Y-58826000D01*
X35999000Y-57974000D01*
X37301000Y-57974000D01*
X37301000Y-58826000D01*
X37301000Y-58826000D01*
G37*
G36*
X39201000Y-58826000D02*
G01*
X37899000Y-58826000D01*
X37899000Y-57974000D01*
X39201000Y-57974000D01*
X39201000Y-58826000D01*
X39201000Y-58826000D01*
G37*
G36*
X22101000Y-58601000D02*
G01*
X21099000Y-58601000D01*
X21099000Y-57699000D01*
X22101000Y-57699000D01*
X22101000Y-58601000D01*
X22101000Y-58601000D01*
G37*
G36*
X35387240Y-58115800D02*
G01*
X34085240Y-58115800D01*
X34085240Y-57113800D01*
X35387240Y-57113800D01*
X35387240Y-58115800D01*
X35387240Y-58115800D01*
G37*
G36*
X33187240Y-58115800D02*
G01*
X31885240Y-58115800D01*
X31885240Y-57113800D01*
X33187240Y-57113800D01*
X33187240Y-58115800D01*
X33187240Y-58115800D01*
G37*
G36*
X68455801Y-57116320D02*
G01*
X67153801Y-57116320D01*
X67153801Y-56264320D01*
X68455801Y-56264320D01*
X68455801Y-57116320D01*
X68455801Y-57116320D01*
G37*
G36*
X70355799Y-57116320D02*
G01*
X69053799Y-57116320D01*
X69053799Y-56264320D01*
X70355799Y-56264320D01*
X70355799Y-57116320D01*
X70355799Y-57116320D01*
G37*
G36*
X21951000Y-56451000D02*
G01*
X20849000Y-56451000D01*
X20849000Y-53149000D01*
X21951000Y-53149000D01*
X21951000Y-56451000D01*
X21951000Y-56451000D01*
G37*
G36*
X15751000Y-56451000D02*
G01*
X14649000Y-56451000D01*
X14649000Y-53149000D01*
X15751000Y-53149000D01*
X15751000Y-56451000D01*
X15751000Y-56451000D01*
G37*
G36*
X3488642Y-54629918D02*
G01*
X3554827Y-54636437D01*
X3724666Y-54687957D01*
X3881191Y-54771622D01*
X3916929Y-54800952D01*
X4018386Y-54884214D01*
X4101648Y-54985671D01*
X4130978Y-55021409D01*
X4214643Y-55177934D01*
X4266163Y-55347773D01*
X4283559Y-55524400D01*
X4266163Y-55701027D01*
X4214643Y-55870866D01*
X4130978Y-56027391D01*
X4101648Y-56063129D01*
X4018386Y-56164586D01*
X3916929Y-56247848D01*
X3881191Y-56277178D01*
X3724666Y-56360843D01*
X3554827Y-56412363D01*
X3488643Y-56418881D01*
X3422460Y-56425400D01*
X3333940Y-56425400D01*
X3267757Y-56418881D01*
X3201573Y-56412363D01*
X3031734Y-56360843D01*
X2875209Y-56277178D01*
X2839471Y-56247848D01*
X2738014Y-56164586D01*
X2654752Y-56063129D01*
X2625422Y-56027391D01*
X2541757Y-55870866D01*
X2490237Y-55701027D01*
X2472841Y-55524400D01*
X2490237Y-55347773D01*
X2541757Y-55177934D01*
X2625422Y-55021409D01*
X2654752Y-54985671D01*
X2738014Y-54884214D01*
X2839471Y-54800952D01*
X2875209Y-54771622D01*
X3031734Y-54687957D01*
X3201573Y-54636437D01*
X3267758Y-54629918D01*
X3333940Y-54623400D01*
X3422460Y-54623400D01*
X3488642Y-54629918D01*
X3488642Y-54629918D01*
G37*
G36*
X58651000Y-56301000D02*
G01*
X50749000Y-56301000D01*
X50749000Y-54699000D01*
X58651000Y-54699000D01*
X58651000Y-56301000D01*
X58651000Y-56301000D01*
G37*
G36*
X35451000Y-55701000D02*
G01*
X34149000Y-55701000D01*
X34149000Y-54699000D01*
X35451000Y-54699000D01*
X35451000Y-55701000D01*
X35451000Y-55701000D01*
G37*
G36*
X33251000Y-55701000D02*
G01*
X31949000Y-55701000D01*
X31949000Y-54699000D01*
X33251000Y-54699000D01*
X33251000Y-55701000D01*
X33251000Y-55701000D01*
G37*
G36*
X68455801Y-55668520D02*
G01*
X67153801Y-55668520D01*
X67153801Y-54816520D01*
X68455801Y-54816520D01*
X68455801Y-55668520D01*
X68455801Y-55668520D01*
G37*
G36*
X70355799Y-55668520D02*
G01*
X69053799Y-55668520D01*
X69053799Y-54816520D01*
X70355799Y-54816520D01*
X70355799Y-55668520D01*
X70355799Y-55668520D01*
G37*
G36*
X39201000Y-54826000D02*
G01*
X37899000Y-54826000D01*
X37899000Y-53974000D01*
X39201000Y-53974000D01*
X39201000Y-54826000D01*
X39201000Y-54826000D01*
G37*
G36*
X37301000Y-54826000D02*
G01*
X35999000Y-54826000D01*
X35999000Y-53974000D01*
X37301000Y-53974000D01*
X37301000Y-54826000D01*
X37301000Y-54826000D01*
G37*
G36*
X35451000Y-54101000D02*
G01*
X34149000Y-54101000D01*
X34149000Y-53099000D01*
X35451000Y-53099000D01*
X35451000Y-54101000D01*
X35451000Y-54101000D01*
G37*
G36*
X33251000Y-54101000D02*
G01*
X31949000Y-54101000D01*
X31949000Y-53099000D01*
X33251000Y-53099000D01*
X33251000Y-54101000D01*
X33251000Y-54101000D01*
G37*
G36*
X3488643Y-52089919D02*
G01*
X3554827Y-52096437D01*
X3724666Y-52147957D01*
X3881191Y-52231622D01*
X3904803Y-52251000D01*
X4018386Y-52344214D01*
X4101648Y-52445671D01*
X4130978Y-52481409D01*
X4214643Y-52637934D01*
X4266163Y-52807773D01*
X4283559Y-52984400D01*
X4266163Y-53161027D01*
X4214643Y-53330866D01*
X4130978Y-53487391D01*
X4101648Y-53523129D01*
X4018386Y-53624586D01*
X3916929Y-53707848D01*
X3881191Y-53737178D01*
X3724666Y-53820843D01*
X3554827Y-53872363D01*
X3488642Y-53878882D01*
X3422460Y-53885400D01*
X3333940Y-53885400D01*
X3267758Y-53878882D01*
X3201573Y-53872363D01*
X3031734Y-53820843D01*
X2875209Y-53737178D01*
X2839471Y-53707848D01*
X2738014Y-53624586D01*
X2654752Y-53523129D01*
X2625422Y-53487391D01*
X2541757Y-53330866D01*
X2490237Y-53161027D01*
X2472841Y-52984400D01*
X2490237Y-52807773D01*
X2541757Y-52637934D01*
X2625422Y-52481409D01*
X2654752Y-52445671D01*
X2738014Y-52344214D01*
X2851597Y-52251000D01*
X2875209Y-52231622D01*
X3031734Y-52147957D01*
X3201573Y-52096437D01*
X3267757Y-52089919D01*
X3333940Y-52083400D01*
X3422460Y-52083400D01*
X3488643Y-52089919D01*
X3488643Y-52089919D01*
G37*
G36*
X49801000Y-53751000D02*
G01*
X48199000Y-53751000D01*
X48199000Y-45849000D01*
X49801000Y-45849000D01*
X49801000Y-53751000D01*
X49801000Y-53751000D01*
G37*
G36*
X61201000Y-53751000D02*
G01*
X59599000Y-53751000D01*
X59599000Y-45849000D01*
X61201000Y-45849000D01*
X61201000Y-53751000D01*
X61201000Y-53751000D01*
G37*
G36*
X70388959Y-53183200D02*
G01*
X69086959Y-53183200D01*
X69086959Y-52181200D01*
X70388959Y-52181200D01*
X70388959Y-53183200D01*
X70388959Y-53183200D01*
G37*
G36*
X68188961Y-53183200D02*
G01*
X66886961Y-53183200D01*
X66886961Y-52181200D01*
X68188961Y-52181200D01*
X68188961Y-53183200D01*
X68188961Y-53183200D01*
G37*
G36*
X56900000Y-52000000D02*
G01*
X52500000Y-52000000D01*
X52500000Y-47600000D01*
X56900000Y-47600000D01*
X56900000Y-52000000D01*
X56900000Y-52000000D01*
G37*
G36*
X33285640Y-51901000D02*
G01*
X31983640Y-51901000D01*
X31983640Y-50899000D01*
X33285640Y-50899000D01*
X33285640Y-51901000D01*
X33285640Y-51901000D01*
G37*
G36*
X35485640Y-51901000D02*
G01*
X34183640Y-51901000D01*
X34183640Y-50899000D01*
X35485640Y-50899000D01*
X35485640Y-51901000D01*
X35485640Y-51901000D01*
G37*
G36*
X68188961Y-51674440D02*
G01*
X66886961Y-51674440D01*
X66886961Y-50672440D01*
X68188961Y-50672440D01*
X68188961Y-51674440D01*
X68188961Y-51674440D01*
G37*
G36*
X70388959Y-51674440D02*
G01*
X69086959Y-51674440D01*
X69086959Y-50672440D01*
X70388959Y-50672440D01*
X70388959Y-51674440D01*
X70388959Y-51674440D01*
G37*
G36*
X22101000Y-51601000D02*
G01*
X21099000Y-51601000D01*
X21099000Y-50699000D01*
X22101000Y-50699000D01*
X22101000Y-51601000D01*
X22101000Y-51601000D01*
G37*
G36*
X3488643Y-49549919D02*
G01*
X3554827Y-49556437D01*
X3724666Y-49607957D01*
X3881191Y-49691622D01*
X3892618Y-49701000D01*
X4018386Y-49804214D01*
X4101648Y-49905671D01*
X4130978Y-49941409D01*
X4214643Y-50097934D01*
X4266163Y-50267773D01*
X4283559Y-50444400D01*
X4266163Y-50621027D01*
X4250567Y-50672440D01*
X4214642Y-50790868D01*
X4172810Y-50869129D01*
X4130978Y-50947391D01*
X4101648Y-50983129D01*
X4018386Y-51084586D01*
X3916929Y-51167848D01*
X3881191Y-51197178D01*
X3724666Y-51280843D01*
X3554827Y-51332363D01*
X3488643Y-51338881D01*
X3422460Y-51345400D01*
X3333940Y-51345400D01*
X3267757Y-51338881D01*
X3201573Y-51332363D01*
X3031734Y-51280843D01*
X2875209Y-51197178D01*
X2839471Y-51167848D01*
X2738014Y-51084586D01*
X2654752Y-50983129D01*
X2625422Y-50947391D01*
X2583590Y-50869129D01*
X2541758Y-50790868D01*
X2505833Y-50672440D01*
X2490237Y-50621027D01*
X2472841Y-50444400D01*
X2490237Y-50267773D01*
X2541757Y-50097934D01*
X2625422Y-49941409D01*
X2654752Y-49905671D01*
X2738014Y-49804214D01*
X2863782Y-49701000D01*
X2875209Y-49691622D01*
X3031734Y-49607957D01*
X3201573Y-49556437D01*
X3267757Y-49549919D01*
X3333940Y-49543400D01*
X3422460Y-49543400D01*
X3488643Y-49549919D01*
X3488643Y-49549919D01*
G37*
G36*
X37401000Y-50926000D02*
G01*
X36099000Y-50926000D01*
X36099000Y-50074000D01*
X37401000Y-50074000D01*
X37401000Y-50926000D01*
X37401000Y-50926000D01*
G37*
G36*
X39301000Y-50926000D02*
G01*
X37999000Y-50926000D01*
X37999000Y-50074000D01*
X39301000Y-50074000D01*
X39301000Y-50926000D01*
X39301000Y-50926000D01*
G37*
G36*
X17066000Y-50766000D02*
G01*
X14314000Y-50766000D01*
X14314000Y-48634000D01*
X17066000Y-48634000D01*
X17066000Y-50766000D01*
X17066000Y-50766000D01*
G37*
G36*
X12886000Y-50766000D02*
G01*
X10134000Y-50766000D01*
X10134000Y-48634000D01*
X12886000Y-48634000D01*
X12886000Y-50766000D01*
X12886000Y-50766000D01*
G37*
G36*
X20101000Y-50651000D02*
G01*
X19099000Y-50651000D01*
X19099000Y-49749000D01*
X20101000Y-49749000D01*
X20101000Y-50651000D01*
X20101000Y-50651000D01*
G37*
G36*
X35490720Y-50320560D02*
G01*
X34188720Y-50320560D01*
X34188720Y-49318560D01*
X35490720Y-49318560D01*
X35490720Y-50320560D01*
X35490720Y-50320560D01*
G37*
G36*
X33290720Y-50320560D02*
G01*
X31988720Y-50320560D01*
X31988720Y-49318560D01*
X33290720Y-49318560D01*
X33290720Y-50320560D01*
X33290720Y-50320560D01*
G37*
G36*
X22101000Y-49701000D02*
G01*
X21099000Y-49701000D01*
X21099000Y-48799000D01*
X22101000Y-48799000D01*
X22101000Y-49701000D01*
X22101000Y-49701000D01*
G37*
G36*
X94303097Y-47094069D02*
G01*
X94406032Y-47104207D01*
X94562336Y-47151622D01*
X94604149Y-47164306D01*
X94700975Y-47216061D01*
X94786729Y-47261897D01*
X94946765Y-47393235D01*
X95078103Y-47553271D01*
X95080594Y-47557932D01*
X95175694Y-47735851D01*
X95175695Y-47735854D01*
X95235793Y-47933968D01*
X95256085Y-48140000D01*
X95235793Y-48346032D01*
X95175695Y-48544146D01*
X95175694Y-48544149D01*
X95175460Y-48544586D01*
X95078103Y-48726729D01*
X94946765Y-48886765D01*
X94786729Y-49018103D01*
X94700975Y-49063939D01*
X94604149Y-49115694D01*
X94604146Y-49115695D01*
X94406032Y-49175793D01*
X94303097Y-49185931D01*
X94251631Y-49191000D01*
X93548369Y-49191000D01*
X93496903Y-49185931D01*
X93393968Y-49175793D01*
X93195854Y-49115695D01*
X93195851Y-49115694D01*
X93099025Y-49063939D01*
X93013271Y-49018103D01*
X92853235Y-48886765D01*
X92721897Y-48726729D01*
X92624540Y-48544586D01*
X92624306Y-48544149D01*
X92624305Y-48544146D01*
X92564207Y-48346032D01*
X92543915Y-48140000D01*
X92564207Y-47933968D01*
X92624305Y-47735854D01*
X92624306Y-47735851D01*
X92719406Y-47557932D01*
X92721897Y-47553271D01*
X92853235Y-47393235D01*
X93013271Y-47261897D01*
X93099025Y-47216061D01*
X93195851Y-47164306D01*
X93237664Y-47151622D01*
X93393968Y-47104207D01*
X93496903Y-47094069D01*
X93548369Y-47089000D01*
X94251631Y-47089000D01*
X94303097Y-47094069D01*
X94303097Y-47094069D01*
G37*
G36*
X88601120Y-49149920D02*
G01*
X86749120Y-49149920D01*
X86749120Y-48047920D01*
X88601120Y-48047920D01*
X88601120Y-49149920D01*
X88601120Y-49149920D01*
G37*
G36*
X74851120Y-49149920D02*
G01*
X72999120Y-49149920D01*
X72999120Y-48047920D01*
X74851120Y-48047920D01*
X74851120Y-49149920D01*
X74851120Y-49149920D01*
G37*
G36*
X3488643Y-47009919D02*
G01*
X3554827Y-47016437D01*
X3724666Y-47067957D01*
X3881191Y-47151622D01*
X3896645Y-47164305D01*
X4018386Y-47264214D01*
X4087967Y-47349000D01*
X4130978Y-47401409D01*
X4214643Y-47557934D01*
X4266163Y-47727773D01*
X4283559Y-47904400D01*
X4266163Y-48081027D01*
X4214643Y-48250866D01*
X4130978Y-48407391D01*
X4101648Y-48443129D01*
X4018386Y-48544586D01*
X3916929Y-48627848D01*
X3881191Y-48657178D01*
X3724666Y-48740843D01*
X3554827Y-48792363D01*
X3488643Y-48798881D01*
X3422460Y-48805400D01*
X3333940Y-48805400D01*
X3267757Y-48798881D01*
X3201573Y-48792363D01*
X3031734Y-48740843D01*
X2875209Y-48657178D01*
X2839471Y-48627848D01*
X2738014Y-48544586D01*
X2654752Y-48443129D01*
X2625422Y-48407391D01*
X2541757Y-48250866D01*
X2490237Y-48081027D01*
X2472841Y-47904400D01*
X2490237Y-47727773D01*
X2541757Y-47557934D01*
X2625422Y-47401409D01*
X2668433Y-47349000D01*
X2738014Y-47264214D01*
X2859755Y-47164305D01*
X2875209Y-47151622D01*
X3031734Y-47067957D01*
X3201573Y-47016437D01*
X3267757Y-47009919D01*
X3333940Y-47003400D01*
X3422460Y-47003400D01*
X3488643Y-47009919D01*
X3488643Y-47009919D01*
G37*
G36*
X68717960Y-48128680D02*
G01*
X67715960Y-48128680D01*
X67715960Y-46826680D01*
X68717960Y-46826680D01*
X68717960Y-48128680D01*
X68717960Y-48128680D01*
G37*
G36*
X35551000Y-47901000D02*
G01*
X34249000Y-47901000D01*
X34249000Y-46899000D01*
X35551000Y-46899000D01*
X35551000Y-47901000D01*
X35551000Y-47901000D01*
G37*
G36*
X33351000Y-47901000D02*
G01*
X32049000Y-47901000D01*
X32049000Y-46899000D01*
X33351000Y-46899000D01*
X33351000Y-47901000D01*
X33351000Y-47901000D01*
G37*
G36*
X15751000Y-47551000D02*
G01*
X14649000Y-47551000D01*
X14649000Y-44249000D01*
X15751000Y-44249000D01*
X15751000Y-47551000D01*
X15751000Y-47551000D01*
G37*
G36*
X21951000Y-47551000D02*
G01*
X20849000Y-47551000D01*
X20849000Y-44249000D01*
X21951000Y-44249000D01*
X21951000Y-47551000D01*
X21951000Y-47551000D01*
G37*
G36*
X74851120Y-47149920D02*
G01*
X72999120Y-47149920D01*
X72999120Y-46047920D01*
X74851120Y-46047920D01*
X74851120Y-47149920D01*
X74851120Y-47149920D01*
G37*
G36*
X88601120Y-47149920D02*
G01*
X86749120Y-47149920D01*
X86749120Y-46047920D01*
X88601120Y-46047920D01*
X88601120Y-47149920D01*
X88601120Y-47149920D01*
G37*
G36*
X70808480Y-47011960D02*
G01*
X69506480Y-47011960D01*
X69506480Y-46159960D01*
X70808480Y-46159960D01*
X70808480Y-47011960D01*
X70808480Y-47011960D01*
G37*
G36*
X72708480Y-47011960D02*
G01*
X71406480Y-47011960D01*
X71406480Y-46159960D01*
X72708480Y-46159960D01*
X72708480Y-47011960D01*
X72708480Y-47011960D01*
G37*
G36*
X37401000Y-46926000D02*
G01*
X36099000Y-46926000D01*
X36099000Y-46074000D01*
X37401000Y-46074000D01*
X37401000Y-46926000D01*
X37401000Y-46926000D01*
G37*
G36*
X39301000Y-46926000D02*
G01*
X37999000Y-46926000D01*
X37999000Y-46074000D01*
X39301000Y-46074000D01*
X39301000Y-46926000D01*
X39301000Y-46926000D01*
G37*
G36*
X95251000Y-46651000D02*
G01*
X92549000Y-46651000D01*
X92549000Y-44549000D01*
X95251000Y-44549000D01*
X95251000Y-46651000D01*
X95251000Y-46651000D01*
G37*
G36*
X35556760Y-46315320D02*
G01*
X34254760Y-46315320D01*
X34254760Y-45313320D01*
X35556760Y-45313320D01*
X35556760Y-46315320D01*
X35556760Y-46315320D01*
G37*
G36*
X33356760Y-46315320D02*
G01*
X32054760Y-46315320D01*
X32054760Y-45313320D01*
X33356760Y-45313320D01*
X33356760Y-46315320D01*
X33356760Y-46315320D01*
G37*
G36*
X3488643Y-44469919D02*
G01*
X3554827Y-44476437D01*
X3724666Y-44527957D01*
X3881191Y-44611622D01*
X3899539Y-44626680D01*
X4018386Y-44724214D01*
X4101648Y-44825671D01*
X4130978Y-44861409D01*
X4214643Y-45017934D01*
X4266163Y-45187773D01*
X4283559Y-45364400D01*
X4266163Y-45541027D01*
X4214643Y-45710866D01*
X4130978Y-45867391D01*
X4101648Y-45903129D01*
X4018386Y-46004586D01*
X3916929Y-46087848D01*
X3881191Y-46117178D01*
X3724666Y-46200843D01*
X3554827Y-46252363D01*
X3488643Y-46258881D01*
X3422460Y-46265400D01*
X3333940Y-46265400D01*
X3267757Y-46258881D01*
X3201573Y-46252363D01*
X3031734Y-46200843D01*
X2875209Y-46117178D01*
X2839471Y-46087848D01*
X2738014Y-46004586D01*
X2654752Y-45903129D01*
X2625422Y-45867391D01*
X2541757Y-45710866D01*
X2490237Y-45541027D01*
X2472841Y-45364400D01*
X2490237Y-45187773D01*
X2541757Y-45017934D01*
X2625422Y-44861409D01*
X2654752Y-44825671D01*
X2738014Y-44724214D01*
X2856861Y-44626680D01*
X2875209Y-44611622D01*
X3031734Y-44527957D01*
X3201573Y-44476437D01*
X3267757Y-44469919D01*
X3333940Y-44463400D01*
X3422460Y-44463400D01*
X3488643Y-44469919D01*
X3488643Y-44469919D01*
G37*
G36*
X68717960Y-45928680D02*
G01*
X67715960Y-45928680D01*
X67715960Y-44626680D01*
X68717960Y-44626680D01*
X68717960Y-45928680D01*
X68717960Y-45928680D01*
G37*
G36*
X74851120Y-45149920D02*
G01*
X72999120Y-45149920D01*
X72999120Y-44047920D01*
X74851120Y-44047920D01*
X74851120Y-45149920D01*
X74851120Y-45149920D01*
G37*
G36*
X88601120Y-45149920D02*
G01*
X86749120Y-45149920D01*
X86749120Y-44047920D01*
X88601120Y-44047920D01*
X88601120Y-45149920D01*
X88601120Y-45149920D01*
G37*
G36*
X58651000Y-44901000D02*
G01*
X50749000Y-44901000D01*
X50749000Y-43299000D01*
X58651000Y-43299000D01*
X58651000Y-44901000D01*
X58651000Y-44901000D01*
G37*
G36*
X33351000Y-43901000D02*
G01*
X32049000Y-43901000D01*
X32049000Y-42899000D01*
X33351000Y-42899000D01*
X33351000Y-43901000D01*
X33351000Y-43901000D01*
G37*
G36*
X35551000Y-43901000D02*
G01*
X34249000Y-43901000D01*
X34249000Y-42899000D01*
X35551000Y-42899000D01*
X35551000Y-43901000D01*
X35551000Y-43901000D01*
G37*
G36*
X3488642Y-41929918D02*
G01*
X3554827Y-41936437D01*
X3724666Y-41987957D01*
X3881191Y-42071622D01*
X3916929Y-42100952D01*
X4018386Y-42184214D01*
X4101648Y-42285671D01*
X4130978Y-42321409D01*
X4214643Y-42477934D01*
X4266163Y-42647773D01*
X4283559Y-42824400D01*
X4266163Y-43001027D01*
X4214643Y-43170866D01*
X4130978Y-43327391D01*
X4101648Y-43363129D01*
X4018386Y-43464586D01*
X3916929Y-43547848D01*
X3881191Y-43577178D01*
X3724666Y-43660843D01*
X3554827Y-43712363D01*
X3488643Y-43718881D01*
X3422460Y-43725400D01*
X3333940Y-43725400D01*
X3267757Y-43718881D01*
X3201573Y-43712363D01*
X3031734Y-43660843D01*
X2875209Y-43577178D01*
X2839471Y-43547848D01*
X2738014Y-43464586D01*
X2654752Y-43363129D01*
X2625422Y-43327391D01*
X2541757Y-43170866D01*
X2490237Y-43001027D01*
X2472841Y-42824400D01*
X2490237Y-42647773D01*
X2541757Y-42477934D01*
X2625422Y-42321409D01*
X2654752Y-42285671D01*
X2738014Y-42184214D01*
X2839471Y-42100952D01*
X2875209Y-42071622D01*
X3031734Y-41987957D01*
X3201573Y-41936437D01*
X3267758Y-41929918D01*
X3333940Y-41923400D01*
X3422460Y-41923400D01*
X3488642Y-41929918D01*
X3488642Y-41929918D01*
G37*
G36*
X74851120Y-43149920D02*
G01*
X72999120Y-43149920D01*
X72999120Y-42047920D01*
X74851120Y-42047920D01*
X74851120Y-43149920D01*
X74851120Y-43149920D01*
G37*
G36*
X88601120Y-43149920D02*
G01*
X86749120Y-43149920D01*
X86749120Y-42047920D01*
X88601120Y-42047920D01*
X88601120Y-43149920D01*
X88601120Y-43149920D01*
G37*
G36*
X37401000Y-43026000D02*
G01*
X36099000Y-43026000D01*
X36099000Y-42174000D01*
X37401000Y-42174000D01*
X37401000Y-43026000D01*
X37401000Y-43026000D01*
G37*
G36*
X39301000Y-43026000D02*
G01*
X37999000Y-43026000D01*
X37999000Y-42174000D01*
X39301000Y-42174000D01*
X39301000Y-43026000D01*
X39301000Y-43026000D01*
G37*
G36*
X22101000Y-42601000D02*
G01*
X21099000Y-42601000D01*
X21099000Y-41699000D01*
X22101000Y-41699000D01*
X22101000Y-42601000D01*
X22101000Y-42601000D01*
G37*
G36*
X94303097Y-40294069D02*
G01*
X94406032Y-40304207D01*
X94604146Y-40364305D01*
X94604149Y-40364306D01*
X94700975Y-40416061D01*
X94786729Y-40461897D01*
X94946765Y-40593235D01*
X95078103Y-40753271D01*
X95096339Y-40787389D01*
X95175694Y-40935851D01*
X95175695Y-40935854D01*
X95235793Y-41133968D01*
X95256085Y-41340000D01*
X95235793Y-41546032D01*
X95203951Y-41651000D01*
X95175694Y-41744149D01*
X95123939Y-41840975D01*
X95078103Y-41926729D01*
X94946765Y-42086765D01*
X94786729Y-42218103D01*
X94700975Y-42263939D01*
X94604149Y-42315694D01*
X94604146Y-42315695D01*
X94406032Y-42375793D01*
X94303097Y-42385931D01*
X94251631Y-42391000D01*
X93548369Y-42391000D01*
X93496903Y-42385931D01*
X93393968Y-42375793D01*
X93195854Y-42315695D01*
X93195851Y-42315694D01*
X93099025Y-42263939D01*
X93013271Y-42218103D01*
X92853235Y-42086765D01*
X92721897Y-41926729D01*
X92676061Y-41840975D01*
X92624306Y-41744149D01*
X92596049Y-41651000D01*
X92564207Y-41546032D01*
X92543915Y-41340000D01*
X92564207Y-41133968D01*
X92624305Y-40935854D01*
X92624306Y-40935851D01*
X92703661Y-40787389D01*
X92721897Y-40753271D01*
X92853235Y-40593235D01*
X93013271Y-40461897D01*
X93099025Y-40416061D01*
X93195851Y-40364306D01*
X93195854Y-40364305D01*
X93393968Y-40304207D01*
X93496903Y-40294069D01*
X93548369Y-40289000D01*
X94251631Y-40289000D01*
X94303097Y-40294069D01*
X94303097Y-40294069D01*
G37*
G36*
X35543120Y-42342440D02*
G01*
X34241120Y-42342440D01*
X34241120Y-41340440D01*
X35543120Y-41340440D01*
X35543120Y-42342440D01*
X35543120Y-42342440D01*
G37*
G36*
X33343120Y-42342440D02*
G01*
X32041120Y-42342440D01*
X32041120Y-41340440D01*
X33343120Y-41340440D01*
X33343120Y-42342440D01*
X33343120Y-42342440D01*
G37*
G36*
X68377600Y-42174920D02*
G01*
X67375600Y-42174920D01*
X67375600Y-40872920D01*
X68377600Y-40872920D01*
X68377600Y-42174920D01*
X68377600Y-42174920D01*
G37*
G36*
X16966000Y-41866000D02*
G01*
X14214000Y-41866000D01*
X14214000Y-39734000D01*
X16966000Y-39734000D01*
X16966000Y-41866000D01*
X16966000Y-41866000D01*
G37*
G36*
X12786000Y-41866000D02*
G01*
X10034000Y-41866000D01*
X10034000Y-39734000D01*
X12786000Y-39734000D01*
X12786000Y-41866000D01*
X12786000Y-41866000D01*
G37*
G36*
X20101000Y-41651000D02*
G01*
X19099000Y-41651000D01*
X19099000Y-40749000D01*
X20101000Y-40749000D01*
X20101000Y-41651000D01*
X20101000Y-41651000D01*
G37*
G36*
X3488643Y-39389919D02*
G01*
X3554827Y-39396437D01*
X3724666Y-39447957D01*
X3881191Y-39531622D01*
X3916929Y-39560952D01*
X4018386Y-39644214D01*
X4092070Y-39734000D01*
X4130978Y-39781409D01*
X4214643Y-39937934D01*
X4266163Y-40107773D01*
X4283559Y-40284400D01*
X4266163Y-40461027D01*
X4214643Y-40630866D01*
X4130978Y-40787391D01*
X4101648Y-40823129D01*
X4018386Y-40924586D01*
X3916929Y-41007848D01*
X3881191Y-41037178D01*
X3724666Y-41120843D01*
X3554827Y-41172363D01*
X3488643Y-41178881D01*
X3422460Y-41185400D01*
X3333940Y-41185400D01*
X3267757Y-41178881D01*
X3201573Y-41172363D01*
X3031734Y-41120843D01*
X2875209Y-41037178D01*
X2839471Y-41007848D01*
X2738014Y-40924586D01*
X2654752Y-40823129D01*
X2625422Y-40787391D01*
X2541757Y-40630866D01*
X2490237Y-40461027D01*
X2472841Y-40284400D01*
X2490237Y-40107773D01*
X2541757Y-39937934D01*
X2625422Y-39781409D01*
X2664330Y-39734000D01*
X2738014Y-39644214D01*
X2839471Y-39560952D01*
X2875209Y-39531622D01*
X3031734Y-39447957D01*
X3201573Y-39396437D01*
X3267757Y-39389919D01*
X3333940Y-39383400D01*
X3422460Y-39383400D01*
X3488643Y-39389919D01*
X3488643Y-39389919D01*
G37*
G36*
X74851120Y-41149920D02*
G01*
X72999120Y-41149920D01*
X72999120Y-40047920D01*
X74851120Y-40047920D01*
X74851120Y-41149920D01*
X74851120Y-41149920D01*
G37*
G36*
X88601120Y-41149920D02*
G01*
X86749120Y-41149920D01*
X86749120Y-40047920D01*
X88601120Y-40047920D01*
X88601120Y-41149920D01*
X88601120Y-41149920D01*
G37*
G36*
X70437640Y-40941360D02*
G01*
X69135640Y-40941360D01*
X69135640Y-40089360D01*
X70437640Y-40089360D01*
X70437640Y-40941360D01*
X70437640Y-40941360D01*
G37*
G36*
X72337640Y-40941360D02*
G01*
X71035640Y-40941360D01*
X71035640Y-40089360D01*
X72337640Y-40089360D01*
X72337640Y-40941360D01*
X72337640Y-40941360D01*
G37*
G36*
X22101000Y-40701000D02*
G01*
X21099000Y-40701000D01*
X21099000Y-39799000D01*
X22101000Y-39799000D01*
X22101000Y-40701000D01*
X22101000Y-40701000D01*
G37*
G36*
X68377600Y-39974920D02*
G01*
X67375600Y-39974920D01*
X67375600Y-38672920D01*
X68377600Y-38672920D01*
X68377600Y-39974920D01*
X68377600Y-39974920D01*
G37*
G36*
X33351000Y-39901000D02*
G01*
X32049000Y-39901000D01*
X32049000Y-38899000D01*
X33351000Y-38899000D01*
X33351000Y-39901000D01*
X33351000Y-39901000D01*
G37*
G36*
X35551000Y-39901000D02*
G01*
X34249000Y-39901000D01*
X34249000Y-38899000D01*
X35551000Y-38899000D01*
X35551000Y-39901000D01*
X35551000Y-39901000D01*
G37*
G36*
X95251000Y-39851000D02*
G01*
X92549000Y-39851000D01*
X92549000Y-37749000D01*
X95251000Y-37749000D01*
X95251000Y-39851000D01*
X95251000Y-39851000D01*
G37*
G36*
X88601120Y-39149920D02*
G01*
X86749120Y-39149920D01*
X86749120Y-38047920D01*
X88601120Y-38047920D01*
X88601120Y-39149920D01*
X88601120Y-39149920D01*
G37*
G36*
X74852620Y-39149920D02*
G01*
X72997620Y-39149920D01*
X72997620Y-38047920D01*
X74852620Y-38047920D01*
X74852620Y-39149920D01*
X74852620Y-39149920D01*
G37*
G36*
X39301000Y-38926000D02*
G01*
X37999000Y-38926000D01*
X37999000Y-38074000D01*
X39301000Y-38074000D01*
X39301000Y-38926000D01*
X39301000Y-38926000D01*
G37*
G36*
X37401000Y-38926000D02*
G01*
X36099000Y-38926000D01*
X36099000Y-38074000D01*
X37401000Y-38074000D01*
X37401000Y-38926000D01*
X37401000Y-38926000D01*
G37*
G36*
X3488642Y-36849918D02*
G01*
X3554827Y-36856437D01*
X3724666Y-36907957D01*
X3881191Y-36991622D01*
X3897638Y-37005120D01*
X4018386Y-37104214D01*
X4101648Y-37205671D01*
X4130978Y-37241409D01*
X4214643Y-37397934D01*
X4266163Y-37567773D01*
X4283559Y-37744400D01*
X4266163Y-37921027D01*
X4214643Y-38090866D01*
X4130978Y-38247391D01*
X4101648Y-38283129D01*
X4018386Y-38384586D01*
X3916929Y-38467848D01*
X3881191Y-38497178D01*
X3724666Y-38580843D01*
X3554827Y-38632363D01*
X3488643Y-38638881D01*
X3422460Y-38645400D01*
X3333940Y-38645400D01*
X3267757Y-38638881D01*
X3201573Y-38632363D01*
X3031734Y-38580843D01*
X2875209Y-38497178D01*
X2839471Y-38467848D01*
X2738014Y-38384586D01*
X2654752Y-38283129D01*
X2625422Y-38247391D01*
X2541757Y-38090866D01*
X2490237Y-37921027D01*
X2472841Y-37744400D01*
X2490237Y-37567773D01*
X2541757Y-37397934D01*
X2625422Y-37241409D01*
X2654752Y-37205671D01*
X2738014Y-37104214D01*
X2858762Y-37005120D01*
X2875209Y-36991622D01*
X3031734Y-36907957D01*
X3201573Y-36856437D01*
X3267758Y-36849918D01*
X3333940Y-36843400D01*
X3422460Y-36843400D01*
X3488642Y-36849918D01*
X3488642Y-36849918D01*
G37*
G36*
X21851000Y-38551000D02*
G01*
X20749000Y-38551000D01*
X20749000Y-35249000D01*
X21851000Y-35249000D01*
X21851000Y-38551000D01*
X21851000Y-38551000D01*
G37*
G36*
X15651000Y-38551000D02*
G01*
X14549000Y-38551000D01*
X14549000Y-35249000D01*
X15651000Y-35249000D01*
X15651000Y-38551000D01*
X15651000Y-38551000D01*
G37*
G36*
X33350080Y-38325440D02*
G01*
X32048080Y-38325440D01*
X32048080Y-37323440D01*
X33350080Y-37323440D01*
X33350080Y-38325440D01*
X33350080Y-38325440D01*
G37*
G36*
X35550080Y-38325440D02*
G01*
X34248080Y-38325440D01*
X34248080Y-37323440D01*
X35550080Y-37323440D01*
X35550080Y-38325440D01*
X35550080Y-38325440D01*
G37*
G36*
X67544400Y-37005120D02*
G01*
X66692400Y-37005120D01*
X66692400Y-35703120D01*
X67544400Y-35703120D01*
X67544400Y-37005120D01*
X67544400Y-37005120D01*
G37*
G36*
X48726000Y-36801000D02*
G01*
X47874000Y-36801000D01*
X47874000Y-35499000D01*
X48726000Y-35499000D01*
X48726000Y-36801000D01*
X48726000Y-36801000D01*
G37*
G36*
X52826000Y-36701000D02*
G01*
X51974000Y-36701000D01*
X51974000Y-35399000D01*
X52826000Y-35399000D01*
X52826000Y-36701000D01*
X52826000Y-36701000D01*
G37*
G36*
X64726000Y-36701000D02*
G01*
X63874000Y-36701000D01*
X63874000Y-35399000D01*
X64726000Y-35399000D01*
X64726000Y-36701000D01*
X64726000Y-36701000D01*
G37*
G36*
X60726000Y-36701000D02*
G01*
X59874000Y-36701000D01*
X59874000Y-35399000D01*
X60726000Y-35399000D01*
X60726000Y-36701000D01*
X60726000Y-36701000D01*
G37*
G36*
X44726000Y-36701000D02*
G01*
X43874000Y-36701000D01*
X43874000Y-35399000D01*
X44726000Y-35399000D01*
X44726000Y-36701000D01*
X44726000Y-36701000D01*
G37*
G36*
X56726000Y-36701000D02*
G01*
X55874000Y-36701000D01*
X55874000Y-35399000D01*
X56726000Y-35399000D01*
X56726000Y-36701000D01*
X56726000Y-36701000D01*
G37*
G36*
X3488643Y-34309919D02*
G01*
X3554827Y-34316437D01*
X3724666Y-34367957D01*
X3881191Y-34451622D01*
X3916929Y-34480952D01*
X4018386Y-34564214D01*
X4101648Y-34665671D01*
X4130978Y-34701409D01*
X4214643Y-34857934D01*
X4266163Y-35027773D01*
X4283559Y-35204400D01*
X4266163Y-35381027D01*
X4214643Y-35550866D01*
X4130978Y-35707391D01*
X4101648Y-35743129D01*
X4018386Y-35844586D01*
X3949644Y-35901000D01*
X3881191Y-35957178D01*
X3724666Y-36040843D01*
X3554827Y-36092363D01*
X3488642Y-36098882D01*
X3422460Y-36105400D01*
X3333940Y-36105400D01*
X3267758Y-36098882D01*
X3201573Y-36092363D01*
X3031734Y-36040843D01*
X2875209Y-35957178D01*
X2806756Y-35901000D01*
X2738014Y-35844586D01*
X2654752Y-35743129D01*
X2625422Y-35707391D01*
X2541757Y-35550866D01*
X2490237Y-35381027D01*
X2472841Y-35204400D01*
X2490237Y-35027773D01*
X2541757Y-34857934D01*
X2625422Y-34701409D01*
X2654752Y-34665671D01*
X2738014Y-34564214D01*
X2839471Y-34480952D01*
X2875209Y-34451622D01*
X3031734Y-34367957D01*
X3201573Y-34316437D01*
X3267757Y-34309919D01*
X3333940Y-34303400D01*
X3422460Y-34303400D01*
X3488643Y-34309919D01*
X3488643Y-34309919D01*
G37*
G36*
X33251000Y-35901000D02*
G01*
X31949000Y-35901000D01*
X31949000Y-34899000D01*
X33251000Y-34899000D01*
X33251000Y-35901000D01*
X33251000Y-35901000D01*
G37*
G36*
X35451000Y-35901000D02*
G01*
X34149000Y-35901000D01*
X34149000Y-34899000D01*
X35451000Y-34899000D01*
X35451000Y-35901000D01*
X35451000Y-35901000D01*
G37*
G36*
X67544400Y-35105120D02*
G01*
X66692400Y-35105120D01*
X66692400Y-33803120D01*
X67544400Y-33803120D01*
X67544400Y-35105120D01*
X67544400Y-35105120D01*
G37*
G36*
X39201000Y-34926000D02*
G01*
X37899000Y-34926000D01*
X37899000Y-34074000D01*
X39201000Y-34074000D01*
X39201000Y-34926000D01*
X39201000Y-34926000D01*
G37*
G36*
X37301000Y-34926000D02*
G01*
X35999000Y-34926000D01*
X35999000Y-34074000D01*
X37301000Y-34074000D01*
X37301000Y-34926000D01*
X37301000Y-34926000D01*
G37*
G36*
X48726000Y-34901000D02*
G01*
X47874000Y-34901000D01*
X47874000Y-33599000D01*
X48726000Y-33599000D01*
X48726000Y-34901000D01*
X48726000Y-34901000D01*
G37*
G36*
X56726000Y-34801000D02*
G01*
X55874000Y-34801000D01*
X55874000Y-33499000D01*
X56726000Y-33499000D01*
X56726000Y-34801000D01*
X56726000Y-34801000D01*
G37*
G36*
X64726000Y-34801000D02*
G01*
X63874000Y-34801000D01*
X63874000Y-33499000D01*
X64726000Y-33499000D01*
X64726000Y-34801000D01*
X64726000Y-34801000D01*
G37*
G36*
X52826000Y-34801000D02*
G01*
X51974000Y-34801000D01*
X51974000Y-33499000D01*
X52826000Y-33499000D01*
X52826000Y-34801000D01*
X52826000Y-34801000D01*
G37*
G36*
X60726000Y-34801000D02*
G01*
X59874000Y-34801000D01*
X59874000Y-33499000D01*
X60726000Y-33499000D01*
X60726000Y-34801000D01*
X60726000Y-34801000D01*
G37*
G36*
X44726000Y-34801000D02*
G01*
X43874000Y-34801000D01*
X43874000Y-33499000D01*
X44726000Y-33499000D01*
X44726000Y-34801000D01*
X44726000Y-34801000D01*
G37*
G36*
X33231360Y-34326880D02*
G01*
X31929360Y-34326880D01*
X31929360Y-33324880D01*
X33231360Y-33324880D01*
X33231360Y-34326880D01*
X33231360Y-34326880D01*
G37*
G36*
X35431360Y-34326880D02*
G01*
X34129360Y-34326880D01*
X34129360Y-33324880D01*
X35431360Y-33324880D01*
X35431360Y-34326880D01*
X35431360Y-34326880D01*
G37*
G36*
X22001000Y-33801000D02*
G01*
X20999000Y-33801000D01*
X20999000Y-32899000D01*
X22001000Y-32899000D01*
X22001000Y-33801000D01*
X22001000Y-33801000D01*
G37*
G36*
X3488642Y-31769918D02*
G01*
X3554827Y-31776437D01*
X3724666Y-31827957D01*
X3881191Y-31911622D01*
X3916929Y-31940952D01*
X4018386Y-32024214D01*
X4101648Y-32125671D01*
X4130978Y-32161409D01*
X4214643Y-32317934D01*
X4266163Y-32487773D01*
X4283559Y-32664400D01*
X4266163Y-32841027D01*
X4214643Y-33010866D01*
X4130978Y-33167391D01*
X4101648Y-33203129D01*
X4018386Y-33304586D01*
X3916929Y-33387848D01*
X3881191Y-33417178D01*
X3724666Y-33500843D01*
X3554827Y-33552363D01*
X3488642Y-33558882D01*
X3422460Y-33565400D01*
X3333940Y-33565400D01*
X3267758Y-33558882D01*
X3201573Y-33552363D01*
X3031734Y-33500843D01*
X2875209Y-33417178D01*
X2839471Y-33387848D01*
X2738014Y-33304586D01*
X2654752Y-33203129D01*
X2625422Y-33167391D01*
X2541757Y-33010866D01*
X2490237Y-32841027D01*
X2472841Y-32664400D01*
X2490237Y-32487773D01*
X2541757Y-32317934D01*
X2625422Y-32161409D01*
X2654752Y-32125671D01*
X2738014Y-32024214D01*
X2839471Y-31940952D01*
X2875209Y-31911622D01*
X3031734Y-31827957D01*
X3201573Y-31776437D01*
X3267758Y-31769918D01*
X3333940Y-31763400D01*
X3422460Y-31763400D01*
X3488642Y-31769918D01*
X3488642Y-31769918D01*
G37*
G36*
X49501000Y-33051000D02*
G01*
X48499000Y-33051000D01*
X48499000Y-31749000D01*
X49501000Y-31749000D01*
X49501000Y-33051000D01*
X49501000Y-33051000D01*
G37*
G36*
X47901000Y-33051000D02*
G01*
X46899000Y-33051000D01*
X46899000Y-31749000D01*
X47901000Y-31749000D01*
X47901000Y-33051000D01*
X47901000Y-33051000D01*
G37*
G36*
X56001000Y-32951000D02*
G01*
X54999000Y-32951000D01*
X54999000Y-31649000D01*
X56001000Y-31649000D01*
X56001000Y-32951000D01*
X56001000Y-32951000D01*
G37*
G36*
X65501000Y-32951000D02*
G01*
X64499000Y-32951000D01*
X64499000Y-31649000D01*
X65501000Y-31649000D01*
X65501000Y-32951000D01*
X65501000Y-32951000D01*
G37*
G36*
X64001000Y-32951000D02*
G01*
X62999000Y-32951000D01*
X62999000Y-31649000D01*
X64001000Y-31649000D01*
X64001000Y-32951000D01*
X64001000Y-32951000D01*
G37*
G36*
X61701000Y-32951000D02*
G01*
X60699000Y-32951000D01*
X60699000Y-31649000D01*
X61701000Y-31649000D01*
X61701000Y-32951000D01*
X61701000Y-32951000D01*
G37*
G36*
X60101000Y-32951000D02*
G01*
X59099000Y-32951000D01*
X59099000Y-31649000D01*
X60101000Y-31649000D01*
X60101000Y-32951000D01*
X60101000Y-32951000D01*
G37*
G36*
X53701000Y-32951000D02*
G01*
X52699000Y-32951000D01*
X52699000Y-31649000D01*
X53701000Y-31649000D01*
X53701000Y-32951000D01*
X53701000Y-32951000D01*
G37*
G36*
X52101000Y-32951000D02*
G01*
X51099000Y-32951000D01*
X51099000Y-31649000D01*
X52101000Y-31649000D01*
X52101000Y-32951000D01*
X52101000Y-32951000D01*
G37*
G36*
X44001000Y-32951000D02*
G01*
X42999000Y-32951000D01*
X42999000Y-31649000D01*
X44001000Y-31649000D01*
X44001000Y-32951000D01*
X44001000Y-32951000D01*
G37*
G36*
X57601000Y-32951000D02*
G01*
X56599000Y-32951000D01*
X56599000Y-31649000D01*
X57601000Y-31649000D01*
X57601000Y-32951000D01*
X57601000Y-32951000D01*
G37*
G36*
X45601000Y-32947160D02*
G01*
X44599000Y-32947160D01*
X44599000Y-31645160D01*
X45601000Y-31645160D01*
X45601000Y-32947160D01*
X45601000Y-32947160D01*
G37*
G36*
X67619400Y-32913320D02*
G01*
X66617400Y-32913320D01*
X66617400Y-31611320D01*
X67619400Y-31611320D01*
X67619400Y-32913320D01*
X67619400Y-32913320D01*
G37*
G36*
X17166000Y-32866000D02*
G01*
X14414000Y-32866000D01*
X14414000Y-30734000D01*
X17166000Y-30734000D01*
X17166000Y-32866000D01*
X17166000Y-32866000D01*
G37*
G36*
X12986000Y-32866000D02*
G01*
X10234000Y-32866000D01*
X10234000Y-30734000D01*
X12986000Y-30734000D01*
X12986000Y-32866000D01*
X12986000Y-32866000D01*
G37*
G36*
X20001000Y-32851000D02*
G01*
X18999000Y-32851000D01*
X18999000Y-31949000D01*
X20001000Y-31949000D01*
X20001000Y-32851000D01*
X20001000Y-32851000D01*
G37*
G36*
X22001000Y-31901000D02*
G01*
X20999000Y-31901000D01*
X20999000Y-30999000D01*
X22001000Y-30999000D01*
X22001000Y-31901000D01*
X22001000Y-31901000D01*
G37*
G36*
X3488642Y-29229918D02*
G01*
X3554827Y-29236437D01*
X3724666Y-29287957D01*
X3881191Y-29371622D01*
X3916929Y-29400952D01*
X4018386Y-29484214D01*
X4101648Y-29585671D01*
X4130978Y-29621409D01*
X4214643Y-29777934D01*
X4266163Y-29947773D01*
X4283559Y-30124400D01*
X4266163Y-30301027D01*
X4214643Y-30470866D01*
X4130978Y-30627391D01*
X4101648Y-30663129D01*
X4018386Y-30764586D01*
X3916929Y-30847848D01*
X3881191Y-30877178D01*
X3724666Y-30960843D01*
X3554827Y-31012363D01*
X3488642Y-31018882D01*
X3422460Y-31025400D01*
X3333940Y-31025400D01*
X3267758Y-31018882D01*
X3201573Y-31012363D01*
X3031734Y-30960843D01*
X2875209Y-30877178D01*
X2839471Y-30847848D01*
X2738014Y-30764586D01*
X2654752Y-30663129D01*
X2625422Y-30627391D01*
X2541757Y-30470866D01*
X2490237Y-30301027D01*
X2472841Y-30124400D01*
X2490237Y-29947773D01*
X2541757Y-29777934D01*
X2625422Y-29621409D01*
X2654752Y-29585671D01*
X2738014Y-29484214D01*
X2839471Y-29400952D01*
X2875209Y-29371622D01*
X3031734Y-29287957D01*
X3201573Y-29236437D01*
X3267758Y-29229918D01*
X3333940Y-29223400D01*
X3422460Y-29223400D01*
X3488642Y-29229918D01*
X3488642Y-29229918D01*
G37*
G36*
X47901000Y-30851000D02*
G01*
X46899000Y-30851000D01*
X46899000Y-29549000D01*
X47901000Y-29549000D01*
X47901000Y-30851000D01*
X47901000Y-30851000D01*
G37*
G36*
X49501000Y-30851000D02*
G01*
X48499000Y-30851000D01*
X48499000Y-29549000D01*
X49501000Y-29549000D01*
X49501000Y-30851000D01*
X49501000Y-30851000D01*
G37*
G36*
X52101000Y-30751000D02*
G01*
X51099000Y-30751000D01*
X51099000Y-29449000D01*
X52101000Y-29449000D01*
X52101000Y-30751000D01*
X52101000Y-30751000D01*
G37*
G36*
X61701000Y-30751000D02*
G01*
X60699000Y-30751000D01*
X60699000Y-29449000D01*
X61701000Y-29449000D01*
X61701000Y-30751000D01*
X61701000Y-30751000D01*
G37*
G36*
X57601000Y-30751000D02*
G01*
X56599000Y-30751000D01*
X56599000Y-29449000D01*
X57601000Y-29449000D01*
X57601000Y-30751000D01*
X57601000Y-30751000D01*
G37*
G36*
X60101000Y-30751000D02*
G01*
X59099000Y-30751000D01*
X59099000Y-29449000D01*
X60101000Y-29449000D01*
X60101000Y-30751000D01*
X60101000Y-30751000D01*
G37*
G36*
X65501000Y-30751000D02*
G01*
X64499000Y-30751000D01*
X64499000Y-29449000D01*
X65501000Y-29449000D01*
X65501000Y-30751000D01*
X65501000Y-30751000D01*
G37*
G36*
X64001000Y-30751000D02*
G01*
X62999000Y-30751000D01*
X62999000Y-29449000D01*
X64001000Y-29449000D01*
X64001000Y-30751000D01*
X64001000Y-30751000D01*
G37*
G36*
X44001000Y-30751000D02*
G01*
X42999000Y-30751000D01*
X42999000Y-29449000D01*
X44001000Y-29449000D01*
X44001000Y-30751000D01*
X44001000Y-30751000D01*
G37*
G36*
X53701000Y-30751000D02*
G01*
X52699000Y-30751000D01*
X52699000Y-29449000D01*
X53701000Y-29449000D01*
X53701000Y-30751000D01*
X53701000Y-30751000D01*
G37*
G36*
X56001000Y-30751000D02*
G01*
X54999000Y-30751000D01*
X54999000Y-29449000D01*
X56001000Y-29449000D01*
X56001000Y-30751000D01*
X56001000Y-30751000D01*
G37*
G36*
X45601000Y-30747160D02*
G01*
X44599000Y-30747160D01*
X44599000Y-29445160D01*
X45601000Y-29445160D01*
X45601000Y-30747160D01*
X45601000Y-30747160D01*
G37*
G36*
X67619400Y-30713320D02*
G01*
X66617400Y-30713320D01*
X66617400Y-29411320D01*
X67619400Y-29411320D01*
X67619400Y-30713320D01*
X67619400Y-30713320D01*
G37*
G36*
X21951000Y-29551000D02*
G01*
X20849000Y-29551000D01*
X20849000Y-26249000D01*
X21951000Y-26249000D01*
X21951000Y-29551000D01*
X21951000Y-29551000D01*
G37*
G36*
X15751000Y-29551000D02*
G01*
X14649000Y-29551000D01*
X14649000Y-26249000D01*
X15751000Y-26249000D01*
X15751000Y-29551000D01*
X15751000Y-29551000D01*
G37*
G36*
X3488642Y-26689918D02*
G01*
X3554827Y-26696437D01*
X3724666Y-26747957D01*
X3881191Y-26831622D01*
X3916929Y-26860952D01*
X4018386Y-26944214D01*
X4101648Y-27045671D01*
X4130978Y-27081409D01*
X4214643Y-27237934D01*
X4266163Y-27407773D01*
X4283559Y-27584400D01*
X4266163Y-27761027D01*
X4214643Y-27930866D01*
X4130978Y-28087391D01*
X4101648Y-28123129D01*
X4018386Y-28224586D01*
X3916929Y-28307848D01*
X3881191Y-28337178D01*
X3724666Y-28420843D01*
X3554827Y-28472363D01*
X3488642Y-28478882D01*
X3422460Y-28485400D01*
X3333940Y-28485400D01*
X3267758Y-28478882D01*
X3201573Y-28472363D01*
X3031734Y-28420843D01*
X2875209Y-28337178D01*
X2839471Y-28307848D01*
X2738014Y-28224586D01*
X2654752Y-28123129D01*
X2625422Y-28087391D01*
X2541757Y-27930866D01*
X2490237Y-27761027D01*
X2472841Y-27584400D01*
X2490237Y-27407773D01*
X2541757Y-27237934D01*
X2625422Y-27081409D01*
X2654752Y-27045671D01*
X2738014Y-26944214D01*
X2839471Y-26860952D01*
X2875209Y-26831622D01*
X3031734Y-26747957D01*
X3201573Y-26696437D01*
X3267758Y-26689918D01*
X3333940Y-26683400D01*
X3422460Y-26683400D01*
X3488642Y-26689918D01*
X3488642Y-26689918D01*
G37*
G36*
X3488643Y-24149919D02*
G01*
X3554827Y-24156437D01*
X3724666Y-24207957D01*
X3881191Y-24291622D01*
X3916929Y-24320952D01*
X4018386Y-24404214D01*
X4101648Y-24505671D01*
X4130978Y-24541409D01*
X4214643Y-24697934D01*
X4266163Y-24867773D01*
X4283559Y-25044400D01*
X4266163Y-25221027D01*
X4214643Y-25390866D01*
X4130978Y-25547391D01*
X4101648Y-25583129D01*
X4018386Y-25684586D01*
X3916929Y-25767848D01*
X3881191Y-25797178D01*
X3724666Y-25880843D01*
X3554827Y-25932363D01*
X3488642Y-25938882D01*
X3422460Y-25945400D01*
X3333940Y-25945400D01*
X3267758Y-25938882D01*
X3201573Y-25932363D01*
X3031734Y-25880843D01*
X2875209Y-25797178D01*
X2839471Y-25767848D01*
X2738014Y-25684586D01*
X2654752Y-25583129D01*
X2625422Y-25547391D01*
X2541757Y-25390866D01*
X2490237Y-25221027D01*
X2472841Y-25044400D01*
X2490237Y-24867773D01*
X2541757Y-24697934D01*
X2625422Y-24541409D01*
X2654752Y-24505671D01*
X2738014Y-24404214D01*
X2839471Y-24320952D01*
X2875209Y-24291622D01*
X3031734Y-24207957D01*
X3201573Y-24156437D01*
X3267757Y-24149919D01*
X3333940Y-24143400D01*
X3422460Y-24143400D01*
X3488643Y-24149919D01*
X3488643Y-24149919D01*
G37*
G36*
X22001000Y-24901000D02*
G01*
X20999000Y-24901000D01*
X20999000Y-23999000D01*
X22001000Y-23999000D01*
X22001000Y-24901000D01*
X22001000Y-24901000D01*
G37*
G36*
X20001000Y-23951000D02*
G01*
X18999000Y-23951000D01*
X18999000Y-23049000D01*
X20001000Y-23049000D01*
X20001000Y-23951000D01*
X20001000Y-23951000D01*
G37*
G36*
X12986000Y-23866000D02*
G01*
X10234000Y-23866000D01*
X10234000Y-21734000D01*
X12986000Y-21734000D01*
X12986000Y-23866000D01*
X12986000Y-23866000D01*
G37*
G36*
X17166000Y-23866000D02*
G01*
X14414000Y-23866000D01*
X14414000Y-21734000D01*
X17166000Y-21734000D01*
X17166000Y-23866000D01*
X17166000Y-23866000D01*
G37*
G36*
X22001000Y-23001000D02*
G01*
X20999000Y-23001000D01*
X20999000Y-22099000D01*
X22001000Y-22099000D01*
X22001000Y-23001000D01*
X22001000Y-23001000D01*
G37*
G36*
X91001000Y-21301000D02*
G01*
X90099000Y-21301000D01*
X90099000Y-20299000D01*
X91001000Y-20299000D01*
X91001000Y-21301000D01*
X91001000Y-21301000D01*
G37*
G36*
X89101000Y-21301000D02*
G01*
X88199000Y-21301000D01*
X88199000Y-20299000D01*
X89101000Y-20299000D01*
X89101000Y-21301000D01*
X89101000Y-21301000D01*
G37*
G36*
X81701000Y-21201000D02*
G01*
X80799000Y-21201000D01*
X80799000Y-20199000D01*
X81701000Y-20199000D01*
X81701000Y-21201000D01*
X81701000Y-21201000D01*
G37*
G36*
X72801000Y-21201000D02*
G01*
X71899000Y-21201000D01*
X71899000Y-20199000D01*
X72801000Y-20199000D01*
X72801000Y-21201000D01*
X72801000Y-21201000D01*
G37*
G36*
X70901000Y-21201000D02*
G01*
X69999000Y-21201000D01*
X69999000Y-20199000D01*
X70901000Y-20199000D01*
X70901000Y-21201000D01*
X70901000Y-21201000D01*
G37*
G36*
X64001000Y-21201000D02*
G01*
X63099000Y-21201000D01*
X63099000Y-20199000D01*
X64001000Y-20199000D01*
X64001000Y-21201000D01*
X64001000Y-21201000D01*
G37*
G36*
X55101000Y-21201000D02*
G01*
X54199000Y-21201000D01*
X54199000Y-20199000D01*
X55101000Y-20199000D01*
X55101000Y-21201000D01*
X55101000Y-21201000D01*
G37*
G36*
X53201000Y-21201000D02*
G01*
X52299000Y-21201000D01*
X52299000Y-20199000D01*
X53201000Y-20199000D01*
X53201000Y-21201000D01*
X53201000Y-21201000D01*
G37*
G36*
X62101000Y-21201000D02*
G01*
X61199000Y-21201000D01*
X61199000Y-20199000D01*
X62101000Y-20199000D01*
X62101000Y-21201000D01*
X62101000Y-21201000D01*
G37*
G36*
X79801000Y-21201000D02*
G01*
X78899000Y-21201000D01*
X78899000Y-20199000D01*
X79801000Y-20199000D01*
X79801000Y-21201000D01*
X79801000Y-21201000D01*
G37*
G36*
X46301000Y-21201000D02*
G01*
X45399000Y-21201000D01*
X45399000Y-20199000D01*
X46301000Y-20199000D01*
X46301000Y-21201000D01*
X46301000Y-21201000D01*
G37*
G36*
X44401000Y-21201000D02*
G01*
X43499000Y-21201000D01*
X43499000Y-20199000D01*
X44401000Y-20199000D01*
X44401000Y-21201000D01*
X44401000Y-21201000D01*
G37*
G36*
X77551000Y-21151000D02*
G01*
X74249000Y-21151000D01*
X74249000Y-20049000D01*
X77551000Y-20049000D01*
X77551000Y-21151000D01*
X77551000Y-21151000D01*
G37*
G36*
X42051000Y-21151000D02*
G01*
X38749000Y-21151000D01*
X38749000Y-20049000D01*
X42051000Y-20049000D01*
X42051000Y-21151000D01*
X42051000Y-21151000D01*
G37*
G36*
X50851000Y-21151000D02*
G01*
X47549000Y-21151000D01*
X47549000Y-20049000D01*
X50851000Y-20049000D01*
X50851000Y-21151000D01*
X50851000Y-21151000D01*
G37*
G36*
X59751000Y-21151000D02*
G01*
X56449000Y-21151000D01*
X56449000Y-20049000D01*
X59751000Y-20049000D01*
X59751000Y-21151000D01*
X59751000Y-21151000D01*
G37*
G36*
X86451000Y-21151000D02*
G01*
X83149000Y-21151000D01*
X83149000Y-20049000D01*
X86451000Y-20049000D01*
X86451000Y-21151000D01*
X86451000Y-21151000D01*
G37*
G36*
X68651000Y-21151000D02*
G01*
X65349000Y-21151000D01*
X65349000Y-20049000D01*
X68651000Y-20049000D01*
X68651000Y-21151000D01*
X68651000Y-21151000D01*
G37*
G36*
X21951000Y-20651000D02*
G01*
X20849000Y-20651000D01*
X20849000Y-17349000D01*
X21951000Y-17349000D01*
X21951000Y-20651000D01*
X21951000Y-20651000D01*
G37*
G36*
X15751000Y-20651000D02*
G01*
X14649000Y-20651000D01*
X14649000Y-17349000D01*
X15751000Y-17349000D01*
X15751000Y-20651000D01*
X15751000Y-20651000D01*
G37*
G36*
X90051000Y-19301000D02*
G01*
X89149000Y-19301000D01*
X89149000Y-18299000D01*
X90051000Y-18299000D01*
X90051000Y-19301000D01*
X90051000Y-19301000D01*
G37*
G36*
X45351000Y-19201000D02*
G01*
X44449000Y-19201000D01*
X44449000Y-18199000D01*
X45351000Y-18199000D01*
X45351000Y-19201000D01*
X45351000Y-19201000D01*
G37*
G36*
X54151000Y-19201000D02*
G01*
X53249000Y-19201000D01*
X53249000Y-18199000D01*
X54151000Y-18199000D01*
X54151000Y-19201000D01*
X54151000Y-19201000D01*
G37*
G36*
X63051000Y-19201000D02*
G01*
X62149000Y-19201000D01*
X62149000Y-18199000D01*
X63051000Y-18199000D01*
X63051000Y-19201000D01*
X63051000Y-19201000D01*
G37*
G36*
X71851000Y-19201000D02*
G01*
X70949000Y-19201000D01*
X70949000Y-18199000D01*
X71851000Y-18199000D01*
X71851000Y-19201000D01*
X71851000Y-19201000D01*
G37*
G36*
X80751000Y-19201000D02*
G01*
X79849000Y-19201000D01*
X79849000Y-18199000D01*
X80751000Y-18199000D01*
X80751000Y-19201000D01*
X80751000Y-19201000D01*
G37*
G36*
X90966000Y-16366000D02*
G01*
X88834000Y-16366000D01*
X88834000Y-13614000D01*
X90966000Y-13614000D01*
X90966000Y-16366000D01*
X90966000Y-16366000D01*
G37*
G36*
X82066000Y-16366000D02*
G01*
X79934000Y-16366000D01*
X79934000Y-13614000D01*
X82066000Y-13614000D01*
X82066000Y-16366000D01*
X82066000Y-16366000D01*
G37*
G36*
X46566000Y-16266000D02*
G01*
X44434000Y-16266000D01*
X44434000Y-13514000D01*
X46566000Y-13514000D01*
X46566000Y-16266000D01*
X46566000Y-16266000D01*
G37*
G36*
X73166000Y-15966000D02*
G01*
X71034000Y-15966000D01*
X71034000Y-13214000D01*
X73166000Y-13214000D01*
X73166000Y-15966000D01*
X73166000Y-15966000D01*
G37*
G36*
X22001000Y-15901000D02*
G01*
X20999000Y-15901000D01*
X20999000Y-14999000D01*
X22001000Y-14999000D01*
X22001000Y-15901000D01*
X22001000Y-15901000D01*
G37*
G36*
X55366000Y-15866000D02*
G01*
X53234000Y-15866000D01*
X53234000Y-13114000D01*
X55366000Y-13114000D01*
X55366000Y-15866000D01*
X55366000Y-15866000D01*
G37*
G36*
X64366000Y-15866000D02*
G01*
X62234000Y-15866000D01*
X62234000Y-13114000D01*
X64366000Y-13114000D01*
X64366000Y-15866000D01*
X64366000Y-15866000D01*
G37*
G36*
X16966000Y-14966000D02*
G01*
X14214000Y-14966000D01*
X14214000Y-12834000D01*
X16966000Y-12834000D01*
X16966000Y-14966000D01*
X16966000Y-14966000D01*
G37*
G36*
X12786000Y-14966000D02*
G01*
X10034000Y-14966000D01*
X10034000Y-12834000D01*
X12786000Y-12834000D01*
X12786000Y-14966000D01*
X12786000Y-14966000D01*
G37*
G36*
X50851000Y-14951000D02*
G01*
X47549000Y-14951000D01*
X47549000Y-13849000D01*
X50851000Y-13849000D01*
X50851000Y-14951000D01*
X50851000Y-14951000D01*
G37*
G36*
X86451000Y-14951000D02*
G01*
X83149000Y-14951000D01*
X83149000Y-13849000D01*
X86451000Y-13849000D01*
X86451000Y-14951000D01*
X86451000Y-14951000D01*
G37*
G36*
X77551000Y-14951000D02*
G01*
X74249000Y-14951000D01*
X74249000Y-13849000D01*
X77551000Y-13849000D01*
X77551000Y-14951000D01*
X77551000Y-14951000D01*
G37*
G36*
X42051000Y-14951000D02*
G01*
X38749000Y-14951000D01*
X38749000Y-13849000D01*
X42051000Y-13849000D01*
X42051000Y-14951000D01*
X42051000Y-14951000D01*
G37*
G36*
X68651000Y-14951000D02*
G01*
X65349000Y-14951000D01*
X65349000Y-13849000D01*
X68651000Y-13849000D01*
X68651000Y-14951000D01*
X68651000Y-14951000D01*
G37*
G36*
X59751000Y-14951000D02*
G01*
X56449000Y-14951000D01*
X56449000Y-13849000D01*
X59751000Y-13849000D01*
X59751000Y-14951000D01*
X59751000Y-14951000D01*
G37*
G36*
X20001000Y-14951000D02*
G01*
X18999000Y-14951000D01*
X18999000Y-14049000D01*
X20001000Y-14049000D01*
X20001000Y-14951000D01*
X20001000Y-14951000D01*
G37*
G36*
X22001000Y-14001000D02*
G01*
X20999000Y-14001000D01*
X20999000Y-13099000D01*
X22001000Y-13099000D01*
X22001000Y-14001000D01*
X22001000Y-14001000D01*
G37*
G36*
X90966000Y-12186000D02*
G01*
X88834000Y-12186000D01*
X88834000Y-9434000D01*
X90966000Y-9434000D01*
X90966000Y-12186000D01*
X90966000Y-12186000D01*
G37*
G36*
X82066000Y-12186000D02*
G01*
X79934000Y-12186000D01*
X79934000Y-9434000D01*
X82066000Y-9434000D01*
X82066000Y-12186000D01*
X82066000Y-12186000D01*
G37*
G36*
X46566000Y-12086000D02*
G01*
X44434000Y-12086000D01*
X44434000Y-9334000D01*
X46566000Y-9334000D01*
X46566000Y-12086000D01*
X46566000Y-12086000D01*
G37*
G36*
X73166000Y-11786000D02*
G01*
X71034000Y-11786000D01*
X71034000Y-9034000D01*
X73166000Y-9034000D01*
X73166000Y-11786000D01*
X73166000Y-11786000D01*
G37*
G36*
X64366000Y-11686000D02*
G01*
X62234000Y-11686000D01*
X62234000Y-8934000D01*
X64366000Y-8934000D01*
X64366000Y-11686000D01*
X64366000Y-11686000D01*
G37*
G36*
X55366000Y-11686000D02*
G01*
X53234000Y-11686000D01*
X53234000Y-8934000D01*
X55366000Y-8934000D01*
X55366000Y-11686000D01*
X55366000Y-11686000D01*
G37*
G36*
X5536694Y-2301860D02*
G01*
X5802437Y-2354719D01*
X6303087Y-2562095D01*
X6483561Y-2682684D01*
X6753660Y-2863158D01*
X7136842Y-3246340D01*
X7317316Y-3516439D01*
X7437905Y-3696913D01*
X7571363Y-4019109D01*
X7645281Y-4197564D01*
X7751000Y-4729049D01*
X7751000Y-5270951D01*
X7715186Y-5451000D01*
X7645281Y-5802437D01*
X7437905Y-6303087D01*
X7381521Y-6387471D01*
X7136842Y-6753660D01*
X6753660Y-7136842D01*
X6490774Y-7312496D01*
X6303087Y-7437905D01*
X5802437Y-7645281D01*
X5536694Y-7698140D01*
X5270951Y-7751000D01*
X4729049Y-7751000D01*
X4463306Y-7698140D01*
X4197563Y-7645281D01*
X3696913Y-7437905D01*
X3509226Y-7312496D01*
X3246340Y-7136842D01*
X2863158Y-6753660D01*
X2618479Y-6387471D01*
X2562095Y-6303087D01*
X2354719Y-5802437D01*
X2284814Y-5451000D01*
X2249000Y-5270951D01*
X2249000Y-4729049D01*
X2354719Y-4197564D01*
X2428637Y-4019109D01*
X2562095Y-3696913D01*
X2682684Y-3516439D01*
X2863158Y-3246340D01*
X3246340Y-2863158D01*
X3516439Y-2682684D01*
X3696913Y-2562095D01*
X4197563Y-2354719D01*
X4463306Y-2301860D01*
X4729049Y-2249000D01*
X5270951Y-2249000D01*
X5536694Y-2301860D01*
X5536694Y-2301860D01*
G37*
G36*
X95536694Y-2301860D02*
G01*
X95802437Y-2354719D01*
X96303087Y-2562095D01*
X96483561Y-2682684D01*
X96753660Y-2863158D01*
X97136842Y-3246340D01*
X97317316Y-3516439D01*
X97437905Y-3696913D01*
X97571363Y-4019109D01*
X97645281Y-4197564D01*
X97751000Y-4729049D01*
X97751000Y-5270951D01*
X97715186Y-5451000D01*
X97645281Y-5802437D01*
X97437905Y-6303087D01*
X97381521Y-6387471D01*
X97136842Y-6753660D01*
X96753660Y-7136842D01*
X96490774Y-7312496D01*
X96303087Y-7437905D01*
X95802437Y-7645281D01*
X95536694Y-7698140D01*
X95270951Y-7751000D01*
X94729049Y-7751000D01*
X94463306Y-7698140D01*
X94197563Y-7645281D01*
X93696913Y-7437905D01*
X93509226Y-7312496D01*
X93246340Y-7136842D01*
X92863158Y-6753660D01*
X92618479Y-6387471D01*
X92562095Y-6303087D01*
X92354719Y-5802437D01*
X92284814Y-5451000D01*
X92249000Y-5270951D01*
X92249000Y-4729049D01*
X92354719Y-4197564D01*
X92428637Y-4019109D01*
X92562095Y-3696913D01*
X92682684Y-3516439D01*
X92863158Y-3246340D01*
X93246340Y-2863158D01*
X93516439Y-2682684D01*
X93696913Y-2562095D01*
X94197563Y-2354719D01*
X94463306Y-2301860D01*
X94729049Y-2249000D01*
X95270951Y-2249000D01*
X95536694Y-2301860D01*
X95536694Y-2301860D01*
G37*
M02*
