M48
; DRILL file {KiCad 6.0.0-rc1-unknown-5edf350~66~ubuntu18.10.1} date Thu 07 Feb 2019 09:42:45 AM EST
; FORMAT={2:4/ absolute / inch / suppress leading zeros}
; #@! TF.CreationDate,2019-02-07T09:42:45-05:00
; #@! TF.GenerationSoftware,Kicad,Pcbnew,6.0.0-rc1-unknown-5edf350~66~ubuntu18.10.1
FMAT,2
INCH,TZ
T1C0.0157
T2C0.0197
T3C0.0394
T4C0.0472
T5C0.1063
%
G90
G05
T1
X7776Y-7087
X7776Y-7480
X7776Y-7874
X7776Y-10630
X7776Y-11024
X7776Y-11417
X7776Y-13976
X7776Y-14469
X7776Y-14961
X7776Y-17520
X7776Y-18012
X7776Y-18504
X7776Y-21063
X7776Y-21555
X7776Y-22047
X7776Y-24508
X7776Y-25000
X7776Y-25492
X7776Y-28051
X7776Y-28543
X7776Y-29035
X7776Y-31594
X7776Y-32087
X7776Y-32579
X7776Y-35138
X7776Y-35630
X7776Y-36122
X15453Y-7480
X15709Y-16772
X15709Y-19882
X15709Y-21417
X15709Y-22992
X15709Y-24567
X15709Y-26220
X15748Y-13583
X15748Y-15157
X15748Y-18307
X15748Y-33366
X15945Y-7480
X16240Y-33366
X16437Y-7480
X16732Y-33366
X17441Y-14764
X18110Y-24961
X18799Y-7480
X19016Y-14774
X19291Y-33366
X19390Y-7480
X19724Y-24961
X19783Y-33366
X19882Y-7480
X20157Y-18228
X20157Y-18622
X20157Y-19016
X20157Y-19409
X20157Y-19803
X20157Y-20197
X20157Y-20591
X20157Y-20984
X20276Y-33366
X20551Y-18228
X20551Y-18622
X20551Y-19016
X20551Y-19409
X20551Y-19803
X20551Y-20197
X20551Y-20591
X20551Y-20984
X20630Y-14803
X20945Y-18228
X20945Y-18622
X20945Y-19016
X20945Y-19409
X20945Y-19803
X20945Y-20197
X20945Y-20591
X20945Y-20984
X21260Y-24961
X21339Y-18228
X21339Y-18622
X21339Y-19016
X21339Y-19409
X21339Y-19803
X21339Y-20197
X21339Y-20591
X21339Y-20984
X21732Y-18228
X21732Y-18622
X21732Y-19016
X21732Y-19409
X21732Y-19803
X21732Y-20197
X21732Y-20591
X21732Y-20984
X22126Y-18228
X22126Y-18622
X22126Y-19016
X22126Y-19409
X22126Y-19803
X22126Y-20197
X22126Y-20591
X22126Y-20984
X22165Y-14764
X22343Y-7480
X22520Y-18228
X22520Y-18622
X22520Y-19016
X22520Y-19409
X22520Y-19803
X22520Y-20197
X22520Y-20591
X22520Y-20984
X22736Y-33366
X22913Y-18228
X22913Y-18622
X22913Y-19016
X22913Y-19409
X22913Y-19803
X22913Y-20197
X22913Y-20591
X22913Y-20984
X22933Y-7480
X23228Y-33366
X23425Y-7480
X23622Y-21850
X23720Y-33366
X23740Y-14764
X24291Y-30551
X24488Y-20039
X25118Y-19134
X25315Y-14764
X25841Y-35866
X25886Y-7480
X25945Y-32480
X25945Y-32835
X25945Y-33228
X26029Y-15989
X26083Y-18307
X26378Y-7480
X26575Y-34961
X26693Y-22756
X26693Y-23110
X26693Y-23465
X26870Y-7480
X26870Y-14272
X27023Y-35866
X27441Y-19646
X27559Y-35000
X27657Y-22835
X28031Y-35827
X28228Y-11836
X28228Y-25315
X28307Y-25866
X28543Y-35000
X29173Y-35827
X29429Y-7480
X29567Y-35000
X29921Y-7480
X30276Y-35787
X30413Y-7480
X30551Y-35000
X31575Y-35000
X31929Y-35787
X32559Y-34961
X32874Y-7480
X32953Y-35827
X33366Y-7480
X33504Y-34961
X33858Y-7480
X34094Y-35827
X34567Y-34961
X35276Y-35827
T2
X1171Y-37402
X1405Y-36838
X1405Y-37965
X1969Y-36604
X1969Y-38199
X2532Y-36838
X2532Y-37965
X2766Y-37402
X36604Y-37402
X36838Y-36838
X36838Y-37965
X37402Y-36604
X37402Y-38199
X37965Y-36838
X37965Y-37965
X38199Y-37402
X36604Y-1969
X36838Y-1405
X36838Y-2532
X37402Y-1171
X37402Y-2766
X37965Y-1405
X37965Y-2532
X38199Y-1969
X1171Y-1969
X1405Y-1405
X1405Y-2532
X1969Y-1171
X1969Y-2766
X2532Y-1405
X2532Y-2532
X2766Y-1969
T3
X36976Y-26678
X36976Y-27678
X36976Y-28678
X1330Y-9860
X1330Y-10860
X1330Y-11860
X1330Y-12860
X1330Y-13860
X1330Y-14860
X1330Y-15860
X1330Y-16860
X1330Y-17860
X1330Y-18860
X1330Y-19860
X1330Y-20860
X1330Y-21860
X1330Y-22860
X1330Y-23860
X1330Y-24860
X1330Y-25860
X1330Y-26860
X1330Y-27860
X36976Y-23242
X36976Y-24242
X36976Y-25242
X26575Y-38386
X27575Y-38386
X28575Y-38386
X29575Y-38386
X30575Y-38386
X31575Y-38386
X32575Y-38386
X33575Y-38386
X34575Y-38386
X35575Y-38386
T4
X36969Y-17953
X36969Y-18953
X36969Y-15276
X36969Y-16276
T5
X1969Y-37402
X37402Y-37402
X37402Y-1969
X1969Y-1969
T0
M30
