G04 #@! TF.GenerationSoftware,KiCad,Pcbnew,6.0.0-rc1-unknown-5edf350~66~ubuntu18.10.1*
G04 #@! TF.CreationDate,2019-02-07T09:42:41-05:00
G04 #@! TF.ProjectId,BMS-Slave,424d532d-536c-4617-9665-2e6b69636164,V0.2*
G04 #@! TF.SameCoordinates,Original*
G04 #@! TF.FileFunction,Legend,Top*
G04 #@! TF.FilePolarity,Positive*
%FSLAX46Y46*%
G04 Gerber Fmt 4.6, Leading zero omitted, Abs format (unit mm)*
G04 Created by KiCad (PCBNEW 6.0.0-rc1-unknown-5edf350~66~ubuntu18.10.1) date 2019-02-07 09:42:41*
%MOMM*%
%LPD*%
G04 APERTURE LIST*
%ADD10C,0.300000*%
%ADD11C,0.120000*%
%ADD12C,0.150000*%
G04 APERTURE END LIST*
D10*
X46285714Y-3678571D02*
X45571428Y-3678571D01*
X45571428Y-2178571D01*
X46571428Y-2178571D02*
X47428571Y-2178571D01*
X47000000Y-3678571D02*
X47000000Y-2178571D01*
X48785714Y-3535714D02*
X48714285Y-3607142D01*
X48500000Y-3678571D01*
X48357142Y-3678571D01*
X48142857Y-3607142D01*
X48000000Y-3464285D01*
X47928571Y-3321428D01*
X47857142Y-3035714D01*
X47857142Y-2821428D01*
X47928571Y-2535714D01*
X48000000Y-2392857D01*
X48142857Y-2250000D01*
X48357142Y-2178571D01*
X48500000Y-2178571D01*
X48714285Y-2250000D01*
X48785714Y-2321428D01*
X50071428Y-2178571D02*
X49785714Y-2178571D01*
X49642857Y-2250000D01*
X49571428Y-2321428D01*
X49428571Y-2535714D01*
X49357142Y-2821428D01*
X49357142Y-3392857D01*
X49428571Y-3535714D01*
X49500000Y-3607142D01*
X49642857Y-3678571D01*
X49928571Y-3678571D01*
X50071428Y-3607142D01*
X50142857Y-3535714D01*
X50214285Y-3392857D01*
X50214285Y-3035714D01*
X50142857Y-2892857D01*
X50071428Y-2821428D01*
X49928571Y-2750000D01*
X49642857Y-2750000D01*
X49500000Y-2821428D01*
X49428571Y-2892857D01*
X49357142Y-3035714D01*
X51071428Y-2821428D02*
X50928571Y-2750000D01*
X50857142Y-2678571D01*
X50785714Y-2535714D01*
X50785714Y-2464285D01*
X50857142Y-2321428D01*
X50928571Y-2250000D01*
X51071428Y-2178571D01*
X51357142Y-2178571D01*
X51500000Y-2250000D01*
X51571428Y-2321428D01*
X51642857Y-2464285D01*
X51642857Y-2535714D01*
X51571428Y-2678571D01*
X51500000Y-2750000D01*
X51357142Y-2821428D01*
X51071428Y-2821428D01*
X50928571Y-2892857D01*
X50857142Y-2964285D01*
X50785714Y-3107142D01*
X50785714Y-3392857D01*
X50857142Y-3535714D01*
X50928571Y-3607142D01*
X51071428Y-3678571D01*
X51357142Y-3678571D01*
X51500000Y-3607142D01*
X51571428Y-3535714D01*
X51642857Y-3392857D01*
X51642857Y-3107142D01*
X51571428Y-2964285D01*
X51500000Y-2892857D01*
X51357142Y-2821428D01*
X53071428Y-3678571D02*
X52214285Y-3678571D01*
X52642857Y-3678571D02*
X52642857Y-2178571D01*
X52500000Y-2392857D01*
X52357142Y-2535714D01*
X52214285Y-2607142D01*
X53571428Y-2178571D02*
X54500000Y-2178571D01*
X54000000Y-2750000D01*
X54214285Y-2750000D01*
X54357142Y-2821428D01*
X54428571Y-2892857D01*
X54500000Y-3035714D01*
X54500000Y-3392857D01*
X54428571Y-3535714D01*
X54357142Y-3607142D01*
X54214285Y-3678571D01*
X53785714Y-3678571D01*
X53642857Y-3607142D01*
X53571428Y-3535714D01*
D11*
X91690000Y-98830000D02*
X91690000Y-96170000D01*
X68770000Y-98830000D02*
X91690000Y-98830000D01*
X68770000Y-96170000D02*
X91690000Y-96170000D01*
X68770000Y-98830000D02*
X68770000Y-96170000D01*
X67500000Y-98830000D02*
X66170000Y-98830000D01*
X66170000Y-98830000D02*
X66170000Y-97500000D01*
X55700000Y-35450000D02*
X55700000Y-34750000D01*
X56900000Y-34750000D02*
X56900000Y-35450000D01*
X56420000Y-31700000D02*
X56420000Y-30700000D01*
X57780000Y-30700000D02*
X57780000Y-31700000D01*
X54820000Y-31700000D02*
X54820000Y-30700000D01*
X56180000Y-30700000D02*
X56180000Y-31700000D01*
X88830000Y-13900000D02*
X88830000Y-11900000D01*
X90970000Y-11900000D02*
X90970000Y-13900000D01*
X59875000Y-44625000D02*
X58925000Y-44625000D01*
X59875000Y-54975000D02*
X58825000Y-54975000D01*
X49525000Y-54975000D02*
X50575000Y-54975000D01*
X49525000Y-44625000D02*
X50575000Y-44625000D01*
X59875000Y-44625000D02*
X59875000Y-45675000D01*
X49525000Y-44625000D02*
X49525000Y-45675000D01*
X49525000Y-54975000D02*
X49525000Y-53925000D01*
X59875000Y-54975000D02*
X59875000Y-53925000D01*
X58925000Y-44625000D02*
X58925000Y-43350000D01*
X73050120Y-49598920D02*
X73050120Y-37598920D01*
X88550120Y-49598920D02*
X73050120Y-49598920D01*
X88550120Y-37598920D02*
X88550120Y-49598920D01*
X73050120Y-37598920D02*
X88550120Y-37598920D01*
D12*
X85868950Y-48501120D02*
G75*
G03X85868950Y-48501120I-369830J0D01*
G01*
D11*
X66457240Y-93910480D02*
X66457240Y-92910480D01*
X67817240Y-92910480D02*
X67817240Y-93910480D01*
X69457240Y-93910480D02*
X69457240Y-92910480D01*
X70817240Y-92910480D02*
X70817240Y-93910480D01*
X72457240Y-93910480D02*
X72457240Y-92910480D01*
X73817240Y-92910480D02*
X73817240Y-93910480D01*
X75457240Y-93910480D02*
X75457240Y-92910480D01*
X76817240Y-92910480D02*
X76817240Y-93910480D01*
X78457240Y-93910480D02*
X78457240Y-92910480D01*
X79817240Y-92910480D02*
X79817240Y-93910480D01*
X81457240Y-93910480D02*
X81457240Y-92910480D01*
X82817240Y-92910480D02*
X82817240Y-93910480D01*
X84457240Y-93910480D02*
X84457240Y-92910480D01*
X85817240Y-92910480D02*
X85817240Y-93910480D01*
X87457240Y-93910480D02*
X87457240Y-92910480D01*
X88817240Y-92910480D02*
X88817240Y-93910480D01*
X90457240Y-93910480D02*
X90457240Y-92910480D01*
X91817240Y-92910480D02*
X91817240Y-93910480D01*
X83097320Y-68430400D02*
X83097320Y-67170400D01*
X83097320Y-61610400D02*
X83097320Y-62870400D01*
X79337320Y-68430400D02*
X83097320Y-68430400D01*
X77087320Y-61610400D02*
X83097320Y-61610400D01*
X95248320Y-66431520D02*
X92588320Y-66431520D01*
X95248320Y-71571520D02*
X95248320Y-66431520D01*
X92588320Y-71571520D02*
X92588320Y-66431520D01*
X95248320Y-71571520D02*
X92588320Y-71571520D01*
X95248320Y-72841520D02*
X95248320Y-74171520D01*
X95248320Y-74171520D02*
X93918320Y-74171520D01*
X92588320Y-65444080D02*
X95248320Y-65444080D01*
X92588320Y-60304080D02*
X92588320Y-65444080D01*
X95248320Y-60304080D02*
X95248320Y-65444080D01*
X92588320Y-60304080D02*
X95248320Y-60304080D01*
X92588320Y-59034080D02*
X92588320Y-57704080D01*
X92588320Y-57704080D02*
X93918320Y-57704080D01*
X1938200Y-72094400D02*
X1938200Y-23714400D01*
X1938200Y-23714400D02*
X-721800Y-23714400D01*
X-721800Y-23714400D02*
X-721800Y-72094400D01*
X-721800Y-72094400D02*
X1938200Y-72094400D01*
X-721800Y-71144400D02*
X-6721800Y-71144400D01*
X-6721800Y-71144400D02*
X-6721800Y-70384400D01*
X-6721800Y-70384400D02*
X-721800Y-70384400D01*
X-721800Y-71084400D02*
X-6721800Y-71084400D01*
X-721800Y-70964400D02*
X-6721800Y-70964400D01*
X-721800Y-70844400D02*
X-6721800Y-70844400D01*
X-721800Y-70724400D02*
X-6721800Y-70724400D01*
X-721800Y-70604400D02*
X-6721800Y-70604400D01*
X-721800Y-70484400D02*
X-6721800Y-70484400D01*
X2268200Y-71144400D02*
X1938200Y-71144400D01*
X2268200Y-70384400D02*
X1938200Y-70384400D01*
X1938200Y-69494400D02*
X-721800Y-69494400D01*
X-721800Y-68604400D02*
X-6721800Y-68604400D01*
X-6721800Y-68604400D02*
X-6721800Y-67844400D01*
X-6721800Y-67844400D02*
X-721800Y-67844400D01*
X2335271Y-68604400D02*
X1938200Y-68604400D01*
X2335271Y-67844400D02*
X1938200Y-67844400D01*
X1938200Y-66954400D02*
X-721800Y-66954400D01*
X-721800Y-66064400D02*
X-6721800Y-66064400D01*
X-6721800Y-66064400D02*
X-6721800Y-65304400D01*
X-6721800Y-65304400D02*
X-721800Y-65304400D01*
X2335271Y-66064400D02*
X1938200Y-66064400D01*
X2335271Y-65304400D02*
X1938200Y-65304400D01*
X1938200Y-64414400D02*
X-721800Y-64414400D01*
X-721800Y-63524400D02*
X-6721800Y-63524400D01*
X-6721800Y-63524400D02*
X-6721800Y-62764400D01*
X-6721800Y-62764400D02*
X-721800Y-62764400D01*
X2335271Y-63524400D02*
X1938200Y-63524400D01*
X2335271Y-62764400D02*
X1938200Y-62764400D01*
X1938200Y-61874400D02*
X-721800Y-61874400D01*
X-721800Y-60984400D02*
X-6721800Y-60984400D01*
X-6721800Y-60984400D02*
X-6721800Y-60224400D01*
X-6721800Y-60224400D02*
X-721800Y-60224400D01*
X2335271Y-60984400D02*
X1938200Y-60984400D01*
X2335271Y-60224400D02*
X1938200Y-60224400D01*
X1938200Y-59334400D02*
X-721800Y-59334400D01*
X-721800Y-58444400D02*
X-6721800Y-58444400D01*
X-6721800Y-58444400D02*
X-6721800Y-57684400D01*
X-6721800Y-57684400D02*
X-721800Y-57684400D01*
X2335271Y-58444400D02*
X1938200Y-58444400D01*
X2335271Y-57684400D02*
X1938200Y-57684400D01*
X1938200Y-56794400D02*
X-721800Y-56794400D01*
X-721800Y-55904400D02*
X-6721800Y-55904400D01*
X-6721800Y-55904400D02*
X-6721800Y-55144400D01*
X-6721800Y-55144400D02*
X-721800Y-55144400D01*
X2335271Y-55904400D02*
X1938200Y-55904400D01*
X2335271Y-55144400D02*
X1938200Y-55144400D01*
X1938200Y-54254400D02*
X-721800Y-54254400D01*
X-721800Y-53364400D02*
X-6721800Y-53364400D01*
X-6721800Y-53364400D02*
X-6721800Y-52604400D01*
X-6721800Y-52604400D02*
X-721800Y-52604400D01*
X2335271Y-53364400D02*
X1938200Y-53364400D01*
X2335271Y-52604400D02*
X1938200Y-52604400D01*
X1938200Y-51714400D02*
X-721800Y-51714400D01*
X-721800Y-50824400D02*
X-6721800Y-50824400D01*
X-6721800Y-50824400D02*
X-6721800Y-50064400D01*
X-6721800Y-50064400D02*
X-721800Y-50064400D01*
X2335271Y-50824400D02*
X1938200Y-50824400D01*
X2335271Y-50064400D02*
X1938200Y-50064400D01*
X1938200Y-49174400D02*
X-721800Y-49174400D01*
X-721800Y-48284400D02*
X-6721800Y-48284400D01*
X-6721800Y-48284400D02*
X-6721800Y-47524400D01*
X-6721800Y-47524400D02*
X-721800Y-47524400D01*
X2335271Y-48284400D02*
X1938200Y-48284400D01*
X2335271Y-47524400D02*
X1938200Y-47524400D01*
X1938200Y-46634400D02*
X-721800Y-46634400D01*
X-721800Y-45744400D02*
X-6721800Y-45744400D01*
X-6721800Y-45744400D02*
X-6721800Y-44984400D01*
X-6721800Y-44984400D02*
X-721800Y-44984400D01*
X2335271Y-45744400D02*
X1938200Y-45744400D01*
X2335271Y-44984400D02*
X1938200Y-44984400D01*
X1938200Y-44094400D02*
X-721800Y-44094400D01*
X-721800Y-43204400D02*
X-6721800Y-43204400D01*
X-6721800Y-43204400D02*
X-6721800Y-42444400D01*
X-6721800Y-42444400D02*
X-721800Y-42444400D01*
X2335271Y-43204400D02*
X1938200Y-43204400D01*
X2335271Y-42444400D02*
X1938200Y-42444400D01*
X1938200Y-41554400D02*
X-721800Y-41554400D01*
X-721800Y-40664400D02*
X-6721800Y-40664400D01*
X-6721800Y-40664400D02*
X-6721800Y-39904400D01*
X-6721800Y-39904400D02*
X-721800Y-39904400D01*
X2335271Y-40664400D02*
X1938200Y-40664400D01*
X2335271Y-39904400D02*
X1938200Y-39904400D01*
X1938200Y-39014400D02*
X-721800Y-39014400D01*
X-721800Y-38124400D02*
X-6721800Y-38124400D01*
X-6721800Y-38124400D02*
X-6721800Y-37364400D01*
X-6721800Y-37364400D02*
X-721800Y-37364400D01*
X2335271Y-38124400D02*
X1938200Y-38124400D01*
X2335271Y-37364400D02*
X1938200Y-37364400D01*
X1938200Y-36474400D02*
X-721800Y-36474400D01*
X-721800Y-35584400D02*
X-6721800Y-35584400D01*
X-6721800Y-35584400D02*
X-6721800Y-34824400D01*
X-6721800Y-34824400D02*
X-721800Y-34824400D01*
X2335271Y-35584400D02*
X1938200Y-35584400D01*
X2335271Y-34824400D02*
X1938200Y-34824400D01*
X1938200Y-33934400D02*
X-721800Y-33934400D01*
X-721800Y-33044400D02*
X-6721800Y-33044400D01*
X-6721800Y-33044400D02*
X-6721800Y-32284400D01*
X-6721800Y-32284400D02*
X-721800Y-32284400D01*
X2335271Y-33044400D02*
X1938200Y-33044400D01*
X2335271Y-32284400D02*
X1938200Y-32284400D01*
X1938200Y-31394400D02*
X-721800Y-31394400D01*
X-721800Y-30504400D02*
X-6721800Y-30504400D01*
X-6721800Y-30504400D02*
X-6721800Y-29744400D01*
X-6721800Y-29744400D02*
X-721800Y-29744400D01*
X2335271Y-30504400D02*
X1938200Y-30504400D01*
X2335271Y-29744400D02*
X1938200Y-29744400D01*
X1938200Y-28854400D02*
X-721800Y-28854400D01*
X-721800Y-27964400D02*
X-6721800Y-27964400D01*
X-6721800Y-27964400D02*
X-6721800Y-27204400D01*
X-6721800Y-27204400D02*
X-721800Y-27204400D01*
X2335271Y-27964400D02*
X1938200Y-27964400D01*
X2335271Y-27204400D02*
X1938200Y-27204400D01*
X1938200Y-26314400D02*
X-721800Y-26314400D01*
X-721800Y-25424400D02*
X-6721800Y-25424400D01*
X-6721800Y-25424400D02*
X-6721800Y-24664400D01*
X-6721800Y-24664400D02*
X-721800Y-24664400D01*
X2335271Y-25424400D02*
X1938200Y-25424400D01*
X2335271Y-24664400D02*
X1938200Y-24664400D01*
X4648200Y-70764400D02*
X4648200Y-72034400D01*
X4648200Y-72034400D02*
X3378200Y-72034400D01*
X96920000Y-37430000D02*
X90920000Y-37430000D01*
X90920000Y-37430000D02*
X90920000Y-42710000D01*
X90920000Y-42710000D02*
X96920000Y-42710000D01*
X96920000Y-42710000D02*
X96920000Y-37430000D01*
X90920000Y-38800000D02*
X91920000Y-38800000D01*
X91920000Y-38800000D02*
X91920000Y-41340000D01*
X91920000Y-41340000D02*
X90920000Y-41340000D01*
X91920000Y-38800000D02*
X92350000Y-39050000D01*
X92350000Y-39050000D02*
X92350000Y-41090000D01*
X92350000Y-41090000D02*
X91920000Y-41340000D01*
X90920000Y-39050000D02*
X91920000Y-39050000D01*
X90920000Y-41090000D02*
X91920000Y-41090000D01*
X96920000Y-38000000D02*
X96300000Y-38000000D01*
X96300000Y-38000000D02*
X96300000Y-39600000D01*
X96300000Y-39600000D02*
X96920000Y-39600000D01*
X96920000Y-40540000D02*
X96300000Y-40540000D01*
X96300000Y-40540000D02*
X96300000Y-42140000D01*
X96300000Y-42140000D02*
X96920000Y-42140000D01*
X65037240Y-93760480D02*
X65037240Y-93060480D01*
X66237240Y-93060480D02*
X66237240Y-93760480D01*
X68037240Y-93760480D02*
X68037240Y-93060480D01*
X69237240Y-93060480D02*
X69237240Y-93760480D01*
X71037240Y-93760480D02*
X71037240Y-93060480D01*
X72237240Y-93060480D02*
X72237240Y-93760480D01*
X74037240Y-93760480D02*
X74037240Y-93060480D01*
X75237240Y-93060480D02*
X75237240Y-93760480D01*
X77037240Y-93760480D02*
X77037240Y-93060480D01*
X78237240Y-93060480D02*
X78237240Y-93760480D01*
X80037240Y-93760480D02*
X80037240Y-93060480D01*
X81237240Y-93060480D02*
X81237240Y-93760480D01*
X83037240Y-93760480D02*
X83037240Y-93060480D01*
X84237240Y-93060480D02*
X84237240Y-93760480D01*
X86037240Y-93760480D02*
X86037240Y-93060480D01*
X87237240Y-93060480D02*
X87237240Y-93760480D01*
X89037240Y-93760480D02*
X89037240Y-93060480D01*
X90237240Y-93060480D02*
X90237240Y-93760480D01*
X54600000Y-65450000D02*
X54600000Y-66150000D01*
X53400000Y-66150000D02*
X53400000Y-65450000D01*
X49500000Y-66071600D02*
X49500000Y-65371600D01*
X50700000Y-65371600D02*
X50700000Y-66071600D01*
X46600000Y-65470000D02*
X46600000Y-66170000D01*
X45400000Y-66170000D02*
X45400000Y-65470000D01*
X37250000Y-66000000D02*
X37950000Y-66000000D01*
X37950000Y-67200000D02*
X37250000Y-67200000D01*
X37950000Y-63000000D02*
X37250000Y-63000000D01*
X37250000Y-61800000D02*
X37950000Y-61800000D01*
X37250000Y-57800000D02*
X37950000Y-57800000D01*
X37950000Y-59000000D02*
X37250000Y-59000000D01*
X37250000Y-53800000D02*
X37950000Y-53800000D01*
X37950000Y-55000000D02*
X37250000Y-55000000D01*
X38050000Y-51100000D02*
X37350000Y-51100000D01*
X37350000Y-49900000D02*
X38050000Y-49900000D01*
X38050000Y-47100000D02*
X37350000Y-47100000D01*
X37350000Y-45900000D02*
X38050000Y-45900000D01*
X37350000Y-42000000D02*
X38050000Y-42000000D01*
X38050000Y-43200000D02*
X37350000Y-43200000D01*
X37350000Y-37900000D02*
X38050000Y-37900000D01*
X38050000Y-39100000D02*
X37350000Y-39100000D01*
X37950000Y-35100000D02*
X37250000Y-35100000D01*
X37250000Y-33900000D02*
X37950000Y-33900000D01*
X44900000Y-34750000D02*
X44900000Y-35450000D01*
X43700000Y-35450000D02*
X43700000Y-34750000D01*
X47700000Y-35550000D02*
X47700000Y-34850000D01*
X48900000Y-34850000D02*
X48900000Y-35550000D01*
X51800000Y-35450000D02*
X51800000Y-34750000D01*
X53000000Y-34750000D02*
X53000000Y-35450000D01*
X60900000Y-34750000D02*
X60900000Y-35450000D01*
X59700000Y-35450000D02*
X59700000Y-34750000D01*
X64900000Y-34750000D02*
X64900000Y-35450000D01*
X63700000Y-35450000D02*
X63700000Y-34750000D01*
X52586480Y-70168760D02*
X52586480Y-69168760D01*
X53946480Y-69168760D02*
X53946480Y-70168760D01*
X55480000Y-69178920D02*
X55480000Y-70178920D01*
X54120000Y-70178920D02*
X54120000Y-69178920D01*
X49958080Y-69145720D02*
X49958080Y-70145720D01*
X48598080Y-70145720D02*
X48598080Y-69145720D01*
X50220000Y-70117960D02*
X50220000Y-69117960D01*
X51580000Y-69117960D02*
X51580000Y-70117960D01*
X45896960Y-69231600D02*
X45896960Y-70231600D01*
X44536960Y-70231600D02*
X44536960Y-69231600D01*
X46120000Y-70200000D02*
X46120000Y-69200000D01*
X47480000Y-69200000D02*
X47480000Y-70200000D01*
X34200000Y-66480000D02*
X33200000Y-66480000D01*
X33200000Y-65120000D02*
X34200000Y-65120000D01*
X33200000Y-66720000D02*
X34200000Y-66720000D01*
X34200000Y-68080000D02*
X33200000Y-68080000D01*
X34198800Y-62386400D02*
X33198800Y-62386400D01*
X33198800Y-61026400D02*
X34198800Y-61026400D01*
X34214040Y-63980000D02*
X33214040Y-63980000D01*
X33214040Y-62620000D02*
X34214040Y-62620000D01*
X34136240Y-58294800D02*
X33136240Y-58294800D01*
X33136240Y-56934800D02*
X34136240Y-56934800D01*
X33151480Y-58520000D02*
X34151480Y-58520000D01*
X34151480Y-59880000D02*
X33151480Y-59880000D01*
X33200000Y-52920000D02*
X34200000Y-52920000D01*
X34200000Y-54280000D02*
X33200000Y-54280000D01*
X33200000Y-54520000D02*
X34200000Y-54520000D01*
X34200000Y-55880000D02*
X33200000Y-55880000D01*
X33239720Y-49139560D02*
X34239720Y-49139560D01*
X34239720Y-50499560D02*
X33239720Y-50499560D01*
X33234640Y-50720000D02*
X34234640Y-50720000D01*
X34234640Y-52080000D02*
X33234640Y-52080000D01*
X34305760Y-46494320D02*
X33305760Y-46494320D01*
X33305760Y-45134320D02*
X34305760Y-45134320D01*
X33300000Y-46720000D02*
X34300000Y-46720000D01*
X34300000Y-48080000D02*
X33300000Y-48080000D01*
X33292120Y-41161440D02*
X34292120Y-41161440D01*
X34292120Y-42521440D02*
X33292120Y-42521440D01*
X34300000Y-44080000D02*
X33300000Y-44080000D01*
X33300000Y-42720000D02*
X34300000Y-42720000D01*
X33299080Y-37144440D02*
X34299080Y-37144440D01*
X34299080Y-38504440D02*
X33299080Y-38504440D01*
X34300000Y-40080000D02*
X33300000Y-40080000D01*
X33300000Y-38720000D02*
X34300000Y-38720000D01*
X34180360Y-34505880D02*
X33180360Y-34505880D01*
X33180360Y-33145880D02*
X34180360Y-33145880D01*
X33200000Y-34720000D02*
X34200000Y-34720000D01*
X34200000Y-36080000D02*
X33200000Y-36080000D01*
X44420000Y-31696160D02*
X44420000Y-30696160D01*
X45780000Y-30696160D02*
X45780000Y-31696160D01*
X44180000Y-30700000D02*
X44180000Y-31700000D01*
X42820000Y-31700000D02*
X42820000Y-30700000D01*
X48320000Y-31800000D02*
X48320000Y-30800000D01*
X49680000Y-30800000D02*
X49680000Y-31800000D01*
X48080000Y-30800000D02*
X48080000Y-31800000D01*
X46720000Y-31800000D02*
X46720000Y-30800000D01*
X52520000Y-31700000D02*
X52520000Y-30700000D01*
X53880000Y-30700000D02*
X53880000Y-31700000D01*
X52280000Y-30700000D02*
X52280000Y-31700000D01*
X50920000Y-31700000D02*
X50920000Y-30700000D01*
X61880000Y-30700000D02*
X61880000Y-31700000D01*
X60520000Y-31700000D02*
X60520000Y-30700000D01*
X58920000Y-31700000D02*
X58920000Y-30700000D01*
X60280000Y-30700000D02*
X60280000Y-31700000D01*
X65680000Y-30700000D02*
X65680000Y-31700000D01*
X64320000Y-31700000D02*
X64320000Y-30700000D01*
X62820000Y-31700000D02*
X62820000Y-30700000D01*
X64180000Y-30700000D02*
X64180000Y-31700000D01*
X70386640Y-39915360D02*
X71086640Y-39915360D01*
X71086640Y-41115360D02*
X70386640Y-41115360D01*
X71457480Y-47185960D02*
X70757480Y-47185960D01*
X70757480Y-45985960D02*
X71457480Y-45985960D01*
X67196600Y-40923920D02*
X67196600Y-39923920D01*
X68556600Y-39923920D02*
X68556600Y-40923920D01*
X68896960Y-45877680D02*
X68896960Y-46877680D01*
X67536960Y-46877680D02*
X67536960Y-45877680D01*
X66518400Y-35754120D02*
X66518400Y-35054120D01*
X67718400Y-35054120D02*
X67718400Y-35754120D01*
X74984120Y-66296040D02*
X74284120Y-66296040D01*
X74284120Y-65096040D02*
X74984120Y-65096040D01*
X74984120Y-67733680D02*
X74284120Y-67733680D01*
X74284120Y-66533680D02*
X74984120Y-66533680D01*
X61084280Y-80800680D02*
X61084280Y-79800680D01*
X62444280Y-79800680D02*
X62444280Y-80800680D01*
X67798400Y-30662320D02*
X67798400Y-31662320D01*
X66438400Y-31662320D02*
X66438400Y-30662320D01*
X69137960Y-51853440D02*
X68137960Y-51853440D01*
X68137960Y-50493440D02*
X69137960Y-50493440D01*
X74971560Y-64913000D02*
X73971560Y-64913000D01*
X73971560Y-63553000D02*
X74971560Y-63553000D01*
X68137960Y-52002200D02*
X69137960Y-52002200D01*
X69137960Y-53362200D02*
X68137960Y-53362200D01*
X68404801Y-54642520D02*
X69104799Y-54642520D01*
X69104799Y-55842520D02*
X68404801Y-55842520D01*
X69104799Y-57290320D02*
X68404801Y-57290320D01*
X68404801Y-56090320D02*
X69104799Y-56090320D01*
X57180000Y-88900000D02*
X57180000Y-83700000D01*
X60820000Y-83700000D02*
X60820000Y-88900000D01*
X48380000Y-88900000D02*
X48380000Y-83700000D01*
X52020000Y-83700000D02*
X52020000Y-88900000D01*
X39380000Y-88800000D02*
X39380000Y-83600000D01*
X43020000Y-83600000D02*
X43020000Y-88800000D01*
X15800000Y-88680000D02*
X21000000Y-88680000D01*
X21000000Y-92320000D02*
X15800000Y-92320000D01*
X21000000Y-83420000D02*
X15800000Y-83420000D01*
X15800000Y-79780000D02*
X21000000Y-79780000D01*
X21000000Y-74520000D02*
X15800000Y-74520000D01*
X15800000Y-70880000D02*
X21000000Y-70880000D01*
X20900000Y-65520000D02*
X15700000Y-65520000D01*
X15700000Y-61880000D02*
X20900000Y-61880000D01*
X15700000Y-52980000D02*
X20900000Y-52980000D01*
X20900000Y-56620000D02*
X15700000Y-56620000D01*
X15700000Y-44080000D02*
X20900000Y-44080000D01*
X20900000Y-47720000D02*
X15700000Y-47720000D01*
X15600000Y-35080000D02*
X20800000Y-35080000D01*
X20800000Y-38720000D02*
X15600000Y-38720000D01*
X20900000Y-29720000D02*
X15700000Y-29720000D01*
X15700000Y-26080000D02*
X20900000Y-26080000D01*
X20900000Y-20820000D02*
X15700000Y-20820000D01*
X15700000Y-17180000D02*
X20900000Y-17180000D01*
X38580000Y-20100000D02*
X38580000Y-14900000D01*
X42220000Y-14900000D02*
X42220000Y-20100000D01*
X47380000Y-20100000D02*
X47380000Y-14900000D01*
X51020000Y-14900000D02*
X51020000Y-20100000D01*
X56280000Y-20100000D02*
X56280000Y-14900000D01*
X59920000Y-14900000D02*
X59920000Y-20100000D01*
X65180000Y-20100000D02*
X65180000Y-14900000D01*
X68820000Y-14900000D02*
X68820000Y-20100000D01*
X77720000Y-14900000D02*
X77720000Y-20100000D01*
X74080000Y-20100000D02*
X74080000Y-14900000D01*
X86620000Y-14900000D02*
X86620000Y-20100000D01*
X82980000Y-20100000D02*
X82980000Y-14900000D01*
X96920000Y-44230000D02*
X90920000Y-44230000D01*
X90920000Y-44230000D02*
X90920000Y-49510000D01*
X90920000Y-49510000D02*
X96920000Y-49510000D01*
X96920000Y-49510000D02*
X96920000Y-44230000D01*
X90920000Y-45600000D02*
X91920000Y-45600000D01*
X91920000Y-45600000D02*
X91920000Y-48140000D01*
X91920000Y-48140000D02*
X90920000Y-48140000D01*
X91920000Y-45600000D02*
X92350000Y-45850000D01*
X92350000Y-45850000D02*
X92350000Y-47890000D01*
X92350000Y-47890000D02*
X91920000Y-48140000D01*
X90920000Y-45850000D02*
X91920000Y-45850000D01*
X90920000Y-47890000D02*
X91920000Y-47890000D01*
X96920000Y-44800000D02*
X96300000Y-44800000D01*
X96300000Y-44800000D02*
X96300000Y-46400000D01*
X96300000Y-46400000D02*
X96920000Y-46400000D01*
X96920000Y-47340000D02*
X96300000Y-47340000D01*
X96300000Y-47340000D02*
X96300000Y-48940000D01*
X96300000Y-48940000D02*
X96920000Y-48940000D01*
X82070000Y-11900000D02*
X82070000Y-13900000D01*
X79930000Y-13900000D02*
X79930000Y-11900000D01*
X71030000Y-13500000D02*
X71030000Y-11500000D01*
X73170000Y-11500000D02*
X73170000Y-13500000D01*
X62230000Y-13400000D02*
X62230000Y-11400000D01*
X64370000Y-11400000D02*
X64370000Y-13400000D01*
X55370000Y-11400000D02*
X55370000Y-13400000D01*
X53230000Y-13400000D02*
X53230000Y-11400000D01*
X46570000Y-11800000D02*
X46570000Y-13800000D01*
X44430000Y-13800000D02*
X44430000Y-11800000D01*
X14500000Y-14970000D02*
X12500000Y-14970000D01*
X12500000Y-12830000D02*
X14500000Y-12830000D01*
X12700000Y-21730000D02*
X14700000Y-21730000D01*
X14700000Y-23870000D02*
X12700000Y-23870000D01*
X14700000Y-32870000D02*
X12700000Y-32870000D01*
X12700000Y-30730000D02*
X14700000Y-30730000D01*
X14500000Y-41870000D02*
X12500000Y-41870000D01*
X12500000Y-39730000D02*
X14500000Y-39730000D01*
X12600000Y-48630000D02*
X14600000Y-48630000D01*
X14600000Y-50770000D02*
X12600000Y-50770000D01*
X12500000Y-57530000D02*
X14500000Y-57530000D01*
X14500000Y-59670000D02*
X12500000Y-59670000D01*
X14500000Y-68570000D02*
X12500000Y-68570000D01*
X12500000Y-66430000D02*
X14500000Y-66430000D01*
X12800000Y-75430000D02*
X14800000Y-75430000D01*
X14800000Y-77570000D02*
X12800000Y-77570000D01*
X14700000Y-86470000D02*
X12700000Y-86470000D01*
X12700000Y-84330000D02*
X14700000Y-84330000D01*
X37170000Y-90000000D02*
X37170000Y-92000000D01*
X35030000Y-92000000D02*
X35030000Y-90000000D01*
X43930000Y-92100000D02*
X43930000Y-90100000D01*
X46070000Y-90100000D02*
X46070000Y-92100000D01*
X52930000Y-92300000D02*
X52930000Y-90300000D01*
X55070000Y-90300000D02*
X55070000Y-92300000D01*
X53120000Y-84660000D02*
X53120000Y-83200000D01*
X56280000Y-84660000D02*
X56280000Y-82500000D01*
X56280000Y-84660000D02*
X55350000Y-84660000D01*
X53120000Y-84660000D02*
X54050000Y-84660000D01*
X44020000Y-84660000D02*
X44020000Y-83200000D01*
X47180000Y-84660000D02*
X47180000Y-82500000D01*
X47180000Y-84660000D02*
X46250000Y-84660000D01*
X44020000Y-84660000D02*
X44950000Y-84660000D01*
X34920000Y-84660000D02*
X35850000Y-84660000D01*
X38080000Y-84660000D02*
X37150000Y-84660000D01*
X38080000Y-84660000D02*
X38080000Y-82500000D01*
X34920000Y-84660000D02*
X34920000Y-83200000D01*
X19840000Y-84420000D02*
X19840000Y-85350000D01*
X19840000Y-87580000D02*
X19840000Y-86650000D01*
X19840000Y-87580000D02*
X22000000Y-87580000D01*
X19840000Y-84420000D02*
X21300000Y-84420000D01*
X19840000Y-75420000D02*
X21300000Y-75420000D01*
X19840000Y-78580000D02*
X22000000Y-78580000D01*
X19840000Y-78580000D02*
X19840000Y-77650000D01*
X19840000Y-75420000D02*
X19840000Y-76350000D01*
X19840000Y-66420000D02*
X19840000Y-67350000D01*
X19840000Y-69580000D02*
X19840000Y-68650000D01*
X19840000Y-69580000D02*
X22000000Y-69580000D01*
X19840000Y-66420000D02*
X21300000Y-66420000D01*
X19840000Y-57520000D02*
X21300000Y-57520000D01*
X19840000Y-60680000D02*
X22000000Y-60680000D01*
X19840000Y-60680000D02*
X19840000Y-59750000D01*
X19840000Y-57520000D02*
X19840000Y-58450000D01*
X19840000Y-48620000D02*
X19840000Y-49550000D01*
X19840000Y-51780000D02*
X19840000Y-50850000D01*
X19840000Y-51780000D02*
X22000000Y-51780000D01*
X19840000Y-48620000D02*
X21300000Y-48620000D01*
X19840000Y-39620000D02*
X19840000Y-40550000D01*
X19840000Y-42780000D02*
X19840000Y-41850000D01*
X19840000Y-42780000D02*
X22000000Y-42780000D01*
X19840000Y-39620000D02*
X21300000Y-39620000D01*
X19740000Y-30820000D02*
X21200000Y-30820000D01*
X19740000Y-33980000D02*
X21900000Y-33980000D01*
X19740000Y-33980000D02*
X19740000Y-33050000D01*
X19740000Y-30820000D02*
X19740000Y-31750000D01*
X19740000Y-21920000D02*
X21200000Y-21920000D01*
X19740000Y-25080000D02*
X21900000Y-25080000D01*
X19740000Y-25080000D02*
X19740000Y-24150000D01*
X19740000Y-21920000D02*
X19740000Y-22850000D01*
X19740000Y-12920000D02*
X21200000Y-12920000D01*
X19740000Y-16080000D02*
X21900000Y-16080000D01*
X19740000Y-16080000D02*
X19740000Y-15150000D01*
X19740000Y-12920000D02*
X19740000Y-13850000D01*
X46480000Y-18940000D02*
X45550000Y-18940000D01*
X43320000Y-18940000D02*
X44250000Y-18940000D01*
X43320000Y-18940000D02*
X43320000Y-21100000D01*
X46480000Y-18940000D02*
X46480000Y-20400000D01*
X55280000Y-18940000D02*
X54350000Y-18940000D01*
X52120000Y-18940000D02*
X53050000Y-18940000D01*
X52120000Y-18940000D02*
X52120000Y-21100000D01*
X55280000Y-18940000D02*
X55280000Y-20400000D01*
X64180000Y-18940000D02*
X64180000Y-20400000D01*
X61020000Y-18940000D02*
X61020000Y-21100000D01*
X61020000Y-18940000D02*
X61950000Y-18940000D01*
X64180000Y-18940000D02*
X63250000Y-18940000D01*
X72980000Y-18940000D02*
X72050000Y-18940000D01*
X69820000Y-18940000D02*
X70750000Y-18940000D01*
X69820000Y-18940000D02*
X69820000Y-21100000D01*
X72980000Y-18940000D02*
X72980000Y-20400000D01*
X81880000Y-18940000D02*
X80950000Y-18940000D01*
X78720000Y-18940000D02*
X79650000Y-18940000D01*
X78720000Y-18940000D02*
X78720000Y-21100000D01*
X81880000Y-18940000D02*
X81880000Y-20400000D01*
X91180000Y-19040000D02*
X91180000Y-20500000D01*
X88020000Y-19040000D02*
X88020000Y-21200000D01*
X88020000Y-19040000D02*
X88950000Y-19040000D01*
X91180000Y-19040000D02*
X90250000Y-19040000D01*
D12*
X56032520Y-97028140D02*
X56603948Y-97028140D01*
X56318234Y-98028140D02*
X56318234Y-97028140D01*
X57318234Y-97980521D02*
X57222996Y-98028140D01*
X57032520Y-98028140D01*
X56937281Y-97980521D01*
X56889662Y-97885283D01*
X56889662Y-97504331D01*
X56937281Y-97409093D01*
X57032520Y-97361474D01*
X57222996Y-97361474D01*
X57318234Y-97409093D01*
X57365853Y-97504331D01*
X57365853Y-97599569D01*
X56889662Y-97694807D01*
X57794424Y-98028140D02*
X57794424Y-97361474D01*
X57794424Y-97456712D02*
X57842043Y-97409093D01*
X57937281Y-97361474D01*
X58080139Y-97361474D01*
X58175377Y-97409093D01*
X58222996Y-97504331D01*
X58222996Y-98028140D01*
X58222996Y-97504331D02*
X58270615Y-97409093D01*
X58365853Y-97361474D01*
X58508710Y-97361474D01*
X58603948Y-97409093D01*
X58651567Y-97504331D01*
X58651567Y-98028140D01*
X59127758Y-97361474D02*
X59127758Y-98361474D01*
X59127758Y-97409093D02*
X59222996Y-97361474D01*
X59413472Y-97361474D01*
X59508710Y-97409093D01*
X59556329Y-97456712D01*
X59603948Y-97551950D01*
X59603948Y-97837664D01*
X59556329Y-97932902D01*
X59508710Y-97980521D01*
X59413472Y-98028140D01*
X59222996Y-98028140D01*
X59127758Y-97980521D01*
X60413472Y-97980521D02*
X60318234Y-98028140D01*
X60127758Y-98028140D01*
X60032520Y-97980521D01*
X59984900Y-97885283D01*
X59984900Y-97504331D01*
X60032520Y-97409093D01*
X60127758Y-97361474D01*
X60318234Y-97361474D01*
X60413472Y-97409093D01*
X60461091Y-97504331D01*
X60461091Y-97599569D01*
X59984900Y-97694807D01*
X60889662Y-98028140D02*
X60889662Y-97361474D01*
X60889662Y-97551950D02*
X60937281Y-97456712D01*
X60984900Y-97409093D01*
X61080139Y-97361474D01*
X61175377Y-97361474D01*
X61937281Y-98028140D02*
X61937281Y-97504331D01*
X61889662Y-97409093D01*
X61794424Y-97361474D01*
X61603948Y-97361474D01*
X61508710Y-97409093D01*
X61937281Y-97980521D02*
X61842043Y-98028140D01*
X61603948Y-98028140D01*
X61508710Y-97980521D01*
X61461091Y-97885283D01*
X61461091Y-97790045D01*
X61508710Y-97694807D01*
X61603948Y-97647188D01*
X61842043Y-97647188D01*
X61937281Y-97599569D01*
X62270615Y-97361474D02*
X62651567Y-97361474D01*
X62413472Y-97028140D02*
X62413472Y-97885283D01*
X62461091Y-97980521D01*
X62556329Y-98028140D01*
X62651567Y-98028140D01*
X63413472Y-97361474D02*
X63413472Y-98028140D01*
X62984900Y-97361474D02*
X62984900Y-97885283D01*
X63032520Y-97980521D01*
X63127758Y-98028140D01*
X63270615Y-98028140D01*
X63365853Y-97980521D01*
X63413472Y-97932902D01*
X63889662Y-98028140D02*
X63889662Y-97361474D01*
X63889662Y-97551950D02*
X63937281Y-97456712D01*
X63984900Y-97409093D01*
X64080139Y-97361474D01*
X64175377Y-97361474D01*
X64889662Y-97980521D02*
X64794424Y-98028140D01*
X64603948Y-98028140D01*
X64508710Y-97980521D01*
X64461091Y-97885283D01*
X64461091Y-97504331D01*
X64508710Y-97409093D01*
X64603948Y-97361474D01*
X64794424Y-97361474D01*
X64889662Y-97409093D01*
X64937281Y-97504331D01*
X64937281Y-97599569D01*
X64461091Y-97694807D01*
X56757142Y-39042857D02*
X56804761Y-39090476D01*
X56852380Y-39233333D01*
X56852380Y-39328571D01*
X56804761Y-39471428D01*
X56709523Y-39566666D01*
X56614285Y-39614285D01*
X56423809Y-39661904D01*
X56280952Y-39661904D01*
X56090476Y-39614285D01*
X55995238Y-39566666D01*
X55900000Y-39471428D01*
X55852380Y-39328571D01*
X55852380Y-39233333D01*
X55900000Y-39090476D01*
X55947619Y-39042857D01*
X55852380Y-38709523D02*
X55852380Y-38090476D01*
X56233333Y-38423809D01*
X56233333Y-38280952D01*
X56280952Y-38185714D01*
X56328571Y-38138095D01*
X56423809Y-38090476D01*
X56661904Y-38090476D01*
X56757142Y-38138095D01*
X56804761Y-38185714D01*
X56852380Y-38280952D01*
X56852380Y-38566666D01*
X56804761Y-38661904D01*
X56757142Y-38709523D01*
X55947619Y-37709523D02*
X55900000Y-37661904D01*
X55852380Y-37566666D01*
X55852380Y-37328571D01*
X55900000Y-37233333D01*
X55947619Y-37185714D01*
X56042857Y-37138095D01*
X56138095Y-37138095D01*
X56280952Y-37185714D01*
X56852380Y-37757142D01*
X56852380Y-37138095D01*
X58152380Y-35742857D02*
X57676190Y-36076190D01*
X58152380Y-36314285D02*
X57152380Y-36314285D01*
X57152380Y-35933333D01*
X57200000Y-35838095D01*
X57247619Y-35790476D01*
X57342857Y-35742857D01*
X57485714Y-35742857D01*
X57580952Y-35790476D01*
X57628571Y-35838095D01*
X57676190Y-35933333D01*
X57676190Y-36314285D01*
X57152380Y-34885714D02*
X57152380Y-35076190D01*
X57200000Y-35171428D01*
X57247619Y-35219047D01*
X57390476Y-35314285D01*
X57580952Y-35361904D01*
X57961904Y-35361904D01*
X58057142Y-35314285D01*
X58104761Y-35266666D01*
X58152380Y-35171428D01*
X58152380Y-34980952D01*
X58104761Y-34885714D01*
X58057142Y-34838095D01*
X57961904Y-34790476D01*
X57723809Y-34790476D01*
X57628571Y-34838095D01*
X57580952Y-34885714D01*
X57533333Y-34980952D01*
X57533333Y-35171428D01*
X57580952Y-35266666D01*
X57628571Y-35314285D01*
X57723809Y-35361904D01*
X57152380Y-34457142D02*
X57152380Y-33838095D01*
X57533333Y-34171428D01*
X57533333Y-34028571D01*
X57580952Y-33933333D01*
X57628571Y-33885714D01*
X57723809Y-33838095D01*
X57961904Y-33838095D01*
X58057142Y-33885714D01*
X58104761Y-33933333D01*
X58152380Y-34028571D01*
X58152380Y-34314285D01*
X58104761Y-34409523D01*
X58057142Y-34457142D01*
X55452380Y-35742857D02*
X54976190Y-36076190D01*
X55452380Y-36314285D02*
X54452380Y-36314285D01*
X54452380Y-35933333D01*
X54500000Y-35838095D01*
X54547619Y-35790476D01*
X54642857Y-35742857D01*
X54785714Y-35742857D01*
X54880952Y-35790476D01*
X54928571Y-35838095D01*
X54976190Y-35933333D01*
X54976190Y-36314285D01*
X54452380Y-34885714D02*
X54452380Y-35076190D01*
X54500000Y-35171428D01*
X54547619Y-35219047D01*
X54690476Y-35314285D01*
X54880952Y-35361904D01*
X55261904Y-35361904D01*
X55357142Y-35314285D01*
X55404761Y-35266666D01*
X55452380Y-35171428D01*
X55452380Y-34980952D01*
X55404761Y-34885714D01*
X55357142Y-34838095D01*
X55261904Y-34790476D01*
X55023809Y-34790476D01*
X54928571Y-34838095D01*
X54880952Y-34885714D01*
X54833333Y-34980952D01*
X54833333Y-35171428D01*
X54880952Y-35266666D01*
X54928571Y-35314285D01*
X55023809Y-35361904D01*
X54785714Y-33933333D02*
X55452380Y-33933333D01*
X54404761Y-34171428D02*
X55119047Y-34409523D01*
X55119047Y-33790476D01*
X89566666Y-8428571D02*
X89233333Y-8428571D01*
X89233333Y-8952380D02*
X89233333Y-7952380D01*
X89709523Y-7952380D01*
X90614285Y-8952380D02*
X90042857Y-8952380D01*
X90328571Y-8952380D02*
X90328571Y-7952380D01*
X90233333Y-8095238D01*
X90138095Y-8190476D01*
X90042857Y-8238095D01*
X61625060Y-44699584D02*
X62434584Y-44699584D01*
X62529822Y-44651965D01*
X62577441Y-44604346D01*
X62625060Y-44509108D01*
X62625060Y-44318632D01*
X62577441Y-44223394D01*
X62529822Y-44175775D01*
X62434584Y-44128156D01*
X61625060Y-44128156D01*
X62625060Y-43128156D02*
X62625060Y-43699584D01*
X62625060Y-43413870D02*
X61625060Y-43413870D01*
X61767918Y-43509108D01*
X61863156Y-43604346D01*
X61910775Y-43699584D01*
X71565700Y-44860824D02*
X71565700Y-44289396D01*
X72565700Y-44575110D02*
X71565700Y-44575110D01*
X72565700Y-43384634D02*
X72089510Y-43717967D01*
X72565700Y-43956062D02*
X71565700Y-43956062D01*
X71565700Y-43575110D01*
X71613320Y-43479872D01*
X71660939Y-43432253D01*
X71756177Y-43384634D01*
X71899034Y-43384634D01*
X71994272Y-43432253D01*
X72041891Y-43479872D01*
X72089510Y-43575110D01*
X72089510Y-43956062D01*
X72565700Y-42432253D02*
X72565700Y-43003681D01*
X72565700Y-42717967D02*
X71565700Y-42717967D01*
X71708558Y-42813205D01*
X71803796Y-42908443D01*
X71851415Y-43003681D01*
X67630300Y-90153786D02*
X67154110Y-90487120D01*
X67630300Y-90725215D02*
X66630300Y-90725215D01*
X66630300Y-90344262D01*
X66677920Y-90249024D01*
X66725539Y-90201405D01*
X66820777Y-90153786D01*
X66963634Y-90153786D01*
X67058872Y-90201405D01*
X67106491Y-90249024D01*
X67154110Y-90344262D01*
X67154110Y-90725215D01*
X67630300Y-89677596D02*
X67630300Y-89487120D01*
X67582681Y-89391881D01*
X67535062Y-89344262D01*
X67392205Y-89249024D01*
X67201729Y-89201405D01*
X66820777Y-89201405D01*
X66725539Y-89249024D01*
X66677920Y-89296643D01*
X66630300Y-89391881D01*
X66630300Y-89582358D01*
X66677920Y-89677596D01*
X66725539Y-89725215D01*
X66820777Y-89772834D01*
X67058872Y-89772834D01*
X67154110Y-89725215D01*
X67201729Y-89677596D01*
X67249348Y-89582358D01*
X67249348Y-89391881D01*
X67201729Y-89296643D01*
X67154110Y-89249024D01*
X67058872Y-89201405D01*
X70652900Y-90199506D02*
X70176710Y-90532840D01*
X70652900Y-90770935D02*
X69652900Y-90770935D01*
X69652900Y-90389982D01*
X69700520Y-90294744D01*
X69748139Y-90247125D01*
X69843377Y-90199506D01*
X69986234Y-90199506D01*
X70081472Y-90247125D01*
X70129091Y-90294744D01*
X70176710Y-90389982D01*
X70176710Y-90770935D01*
X70081472Y-89628078D02*
X70033853Y-89723316D01*
X69986234Y-89770935D01*
X69890996Y-89818554D01*
X69843377Y-89818554D01*
X69748139Y-89770935D01*
X69700520Y-89723316D01*
X69652900Y-89628078D01*
X69652900Y-89437601D01*
X69700520Y-89342363D01*
X69748139Y-89294744D01*
X69843377Y-89247125D01*
X69890996Y-89247125D01*
X69986234Y-89294744D01*
X70033853Y-89342363D01*
X70081472Y-89437601D01*
X70081472Y-89628078D01*
X70129091Y-89723316D01*
X70176710Y-89770935D01*
X70271948Y-89818554D01*
X70462424Y-89818554D01*
X70557662Y-89770935D01*
X70605281Y-89723316D01*
X70652900Y-89628078D01*
X70652900Y-89437601D01*
X70605281Y-89342363D01*
X70557662Y-89294744D01*
X70462424Y-89247125D01*
X70271948Y-89247125D01*
X70176710Y-89294744D01*
X70129091Y-89342363D01*
X70081472Y-89437601D01*
X73604860Y-90214186D02*
X73128670Y-90547520D01*
X73604860Y-90785615D02*
X72604860Y-90785615D01*
X72604860Y-90404662D01*
X72652480Y-90309424D01*
X72700099Y-90261805D01*
X72795337Y-90214186D01*
X72938194Y-90214186D01*
X73033432Y-90261805D01*
X73081051Y-90309424D01*
X73128670Y-90404662D01*
X73128670Y-90785615D01*
X72604860Y-89880853D02*
X72604860Y-89214186D01*
X73604860Y-89642758D01*
X76599780Y-90186426D02*
X76123590Y-90519760D01*
X76599780Y-90757855D02*
X75599780Y-90757855D01*
X75599780Y-90376902D01*
X75647400Y-90281664D01*
X75695019Y-90234045D01*
X75790257Y-90186426D01*
X75933114Y-90186426D01*
X76028352Y-90234045D01*
X76075971Y-90281664D01*
X76123590Y-90376902D01*
X76123590Y-90757855D01*
X75599780Y-89329283D02*
X75599780Y-89519760D01*
X75647400Y-89614998D01*
X75695019Y-89662617D01*
X75837876Y-89757855D01*
X76028352Y-89805474D01*
X76409304Y-89805474D01*
X76504542Y-89757855D01*
X76552161Y-89710236D01*
X76599780Y-89614998D01*
X76599780Y-89424521D01*
X76552161Y-89329283D01*
X76504542Y-89281664D01*
X76409304Y-89234045D01*
X76171209Y-89234045D01*
X76075971Y-89281664D01*
X76028352Y-89329283D01*
X75980733Y-89424521D01*
X75980733Y-89614998D01*
X76028352Y-89710236D01*
X76075971Y-89757855D01*
X76171209Y-89805474D01*
X79625180Y-90186426D02*
X79148990Y-90519760D01*
X79625180Y-90757855D02*
X78625180Y-90757855D01*
X78625180Y-90376902D01*
X78672800Y-90281664D01*
X78720419Y-90234045D01*
X78815657Y-90186426D01*
X78958514Y-90186426D01*
X79053752Y-90234045D01*
X79101371Y-90281664D01*
X79148990Y-90376902D01*
X79148990Y-90757855D01*
X78625180Y-89281664D02*
X78625180Y-89757855D01*
X79101371Y-89805474D01*
X79053752Y-89757855D01*
X79006133Y-89662617D01*
X79006133Y-89424521D01*
X79053752Y-89329283D01*
X79101371Y-89281664D01*
X79196609Y-89234045D01*
X79434704Y-89234045D01*
X79529942Y-89281664D01*
X79577561Y-89329283D01*
X79625180Y-89424521D01*
X79625180Y-89662617D01*
X79577561Y-89757855D01*
X79529942Y-89805474D01*
X82726780Y-90640906D02*
X82250590Y-90974240D01*
X82726780Y-91212335D02*
X81726780Y-91212335D01*
X81726780Y-90831382D01*
X81774400Y-90736144D01*
X81822019Y-90688525D01*
X81917257Y-90640906D01*
X82060114Y-90640906D01*
X82155352Y-90688525D01*
X82202971Y-90736144D01*
X82250590Y-90831382D01*
X82250590Y-91212335D01*
X82060114Y-89783763D02*
X82726780Y-89783763D01*
X81679161Y-90021859D02*
X82393447Y-90259954D01*
X82393447Y-89640906D01*
X85670900Y-90696786D02*
X85194710Y-91030120D01*
X85670900Y-91268215D02*
X84670900Y-91268215D01*
X84670900Y-90887262D01*
X84718520Y-90792024D01*
X84766139Y-90744405D01*
X84861377Y-90696786D01*
X85004234Y-90696786D01*
X85099472Y-90744405D01*
X85147091Y-90792024D01*
X85194710Y-90887262D01*
X85194710Y-91268215D01*
X84670900Y-90363453D02*
X84670900Y-89744405D01*
X85051853Y-90077739D01*
X85051853Y-89934881D01*
X85099472Y-89839643D01*
X85147091Y-89792024D01*
X85242329Y-89744405D01*
X85480424Y-89744405D01*
X85575662Y-89792024D01*
X85623281Y-89839643D01*
X85670900Y-89934881D01*
X85670900Y-90220596D01*
X85623281Y-90315834D01*
X85575662Y-90363453D01*
X88615020Y-90699506D02*
X88138830Y-91032840D01*
X88615020Y-91270935D02*
X87615020Y-91270935D01*
X87615020Y-90889982D01*
X87662640Y-90794744D01*
X87710259Y-90747125D01*
X87805497Y-90699506D01*
X87948354Y-90699506D01*
X88043592Y-90747125D01*
X88091211Y-90794744D01*
X88138830Y-90889982D01*
X88138830Y-91270935D01*
X87710259Y-90318554D02*
X87662640Y-90270935D01*
X87615020Y-90175697D01*
X87615020Y-89937601D01*
X87662640Y-89842363D01*
X87710259Y-89794744D01*
X87805497Y-89747125D01*
X87900735Y-89747125D01*
X88043592Y-89794744D01*
X88615020Y-90366173D01*
X88615020Y-89747125D01*
X91640420Y-90676466D02*
X91164230Y-91009800D01*
X91640420Y-91247895D02*
X90640420Y-91247895D01*
X90640420Y-90866942D01*
X90688040Y-90771704D01*
X90735659Y-90724085D01*
X90830897Y-90676466D01*
X90973754Y-90676466D01*
X91068992Y-90724085D01*
X91116611Y-90771704D01*
X91164230Y-90866942D01*
X91164230Y-91247895D01*
X91640420Y-89724085D02*
X91640420Y-90295514D01*
X91640420Y-90009800D02*
X90640420Y-90009800D01*
X90783278Y-90105038D01*
X90878516Y-90200276D01*
X90926135Y-90295514D01*
X81092081Y-61068019D02*
X80996843Y-61020400D01*
X80901605Y-60925161D01*
X80758748Y-60782304D01*
X80663510Y-60734685D01*
X80568272Y-60734685D01*
X80615891Y-60972780D02*
X80520653Y-60925161D01*
X80425415Y-60829923D01*
X80377796Y-60639447D01*
X80377796Y-60306114D01*
X80425415Y-60115638D01*
X80520653Y-60020400D01*
X80615891Y-59972780D01*
X80806367Y-59972780D01*
X80901605Y-60020400D01*
X80996843Y-60115638D01*
X81044462Y-60306114D01*
X81044462Y-60639447D01*
X80996843Y-60829923D01*
X80901605Y-60925161D01*
X80806367Y-60972780D01*
X80615891Y-60972780D01*
X81996843Y-60972780D02*
X81425415Y-60972780D01*
X81711129Y-60972780D02*
X81711129Y-59972780D01*
X81615891Y-60115638D01*
X81520653Y-60210876D01*
X81425415Y-60258495D01*
X93084986Y-74852380D02*
X93084986Y-75566666D01*
X93037367Y-75709523D01*
X92942129Y-75804761D01*
X92799272Y-75852380D01*
X92704034Y-75852380D01*
X93561177Y-75852380D02*
X93561177Y-74852380D01*
X93942129Y-74852380D01*
X94037367Y-74900000D01*
X94084986Y-74947619D01*
X94132605Y-75042857D01*
X94132605Y-75185714D01*
X94084986Y-75280952D01*
X94037367Y-75328571D01*
X93942129Y-75376190D01*
X93561177Y-75376190D01*
X94513558Y-74947619D02*
X94561177Y-74900000D01*
X94656415Y-74852380D01*
X94894510Y-74852380D01*
X94989748Y-74900000D01*
X95037367Y-74947619D01*
X95084986Y-75042857D01*
X95084986Y-75138095D01*
X95037367Y-75280952D01*
X94465939Y-75852380D01*
X95084986Y-75852380D01*
X93066666Y-55952380D02*
X93066666Y-56666666D01*
X93019047Y-56809523D01*
X92923809Y-56904761D01*
X92780952Y-56952380D01*
X92685714Y-56952380D01*
X93542857Y-56952380D02*
X93542857Y-55952380D01*
X93923809Y-55952380D01*
X94019047Y-56000000D01*
X94066666Y-56047619D01*
X94114285Y-56142857D01*
X94114285Y-56285714D01*
X94066666Y-56380952D01*
X94019047Y-56428571D01*
X93923809Y-56476190D01*
X93542857Y-56476190D01*
X95066666Y-56952380D02*
X94495238Y-56952380D01*
X94780952Y-56952380D02*
X94780952Y-55952380D01*
X94685714Y-56095238D01*
X94590476Y-56190476D01*
X94495238Y-56238095D01*
X6357142Y-50547619D02*
X6404761Y-50595238D01*
X6452380Y-50738095D01*
X6452380Y-50833333D01*
X6404761Y-50976190D01*
X6309523Y-51071428D01*
X6214285Y-51119047D01*
X6023809Y-51166666D01*
X5880952Y-51166666D01*
X5690476Y-51119047D01*
X5595238Y-51071428D01*
X5500000Y-50976190D01*
X5452380Y-50833333D01*
X5452380Y-50738095D01*
X5500000Y-50595238D01*
X5547619Y-50547619D01*
X6404761Y-49738095D02*
X6452380Y-49833333D01*
X6452380Y-50023809D01*
X6404761Y-50119047D01*
X6309523Y-50166666D01*
X5928571Y-50166666D01*
X5833333Y-50119047D01*
X5785714Y-50023809D01*
X5785714Y-49833333D01*
X5833333Y-49738095D01*
X5928571Y-49690476D01*
X6023809Y-49690476D01*
X6119047Y-50166666D01*
X6452380Y-49119047D02*
X6404761Y-49214285D01*
X6309523Y-49261904D01*
X5452380Y-49261904D01*
X6452380Y-48595238D02*
X6404761Y-48690476D01*
X6309523Y-48738095D01*
X5452380Y-48738095D01*
X6404761Y-48261904D02*
X6452380Y-48166666D01*
X6452380Y-47976190D01*
X6404761Y-47880952D01*
X6309523Y-47833333D01*
X6261904Y-47833333D01*
X6166666Y-47880952D01*
X6119047Y-47976190D01*
X6119047Y-48119047D01*
X6071428Y-48214285D01*
X5976190Y-48261904D01*
X5928571Y-48261904D01*
X5833333Y-48214285D01*
X5785714Y-48119047D01*
X5785714Y-47976190D01*
X5833333Y-47880952D01*
X98704761Y-41909523D02*
X98752380Y-41766666D01*
X98752380Y-41528571D01*
X98704761Y-41433333D01*
X98657142Y-41385714D01*
X98561904Y-41338095D01*
X98466666Y-41338095D01*
X98371428Y-41385714D01*
X98323809Y-41433333D01*
X98276190Y-41528571D01*
X98228571Y-41719047D01*
X98180952Y-41814285D01*
X98133333Y-41861904D01*
X98038095Y-41909523D01*
X97942857Y-41909523D01*
X97847619Y-41861904D01*
X97800000Y-41814285D01*
X97752380Y-41719047D01*
X97752380Y-41480952D01*
X97800000Y-41338095D01*
X98752380Y-40766666D02*
X98704761Y-40861904D01*
X98609523Y-40909523D01*
X97752380Y-40909523D01*
X98752380Y-39957142D02*
X98228571Y-39957142D01*
X98133333Y-40004761D01*
X98085714Y-40100000D01*
X98085714Y-40290476D01*
X98133333Y-40385714D01*
X98704761Y-39957142D02*
X98752380Y-40052380D01*
X98752380Y-40290476D01*
X98704761Y-40385714D01*
X98609523Y-40433333D01*
X98514285Y-40433333D01*
X98419047Y-40385714D01*
X98371428Y-40290476D01*
X98371428Y-40052380D01*
X98323809Y-39957142D01*
X98085714Y-39576190D02*
X98752380Y-39338095D01*
X98085714Y-39100000D01*
X98704761Y-38338095D02*
X98752380Y-38433333D01*
X98752380Y-38623809D01*
X98704761Y-38719047D01*
X98609523Y-38766666D01*
X98228571Y-38766666D01*
X98133333Y-38719047D01*
X98085714Y-38623809D01*
X98085714Y-38433333D01*
X98133333Y-38338095D01*
X98228571Y-38290476D01*
X98323809Y-38290476D01*
X98419047Y-38766666D01*
X66056782Y-90758306D02*
X66104401Y-90805925D01*
X66152020Y-90948782D01*
X66152020Y-91044020D01*
X66104401Y-91186878D01*
X66009163Y-91282116D01*
X65913925Y-91329735D01*
X65723449Y-91377354D01*
X65580592Y-91377354D01*
X65390116Y-91329735D01*
X65294878Y-91282116D01*
X65199640Y-91186878D01*
X65152020Y-91044020D01*
X65152020Y-90948782D01*
X65199640Y-90805925D01*
X65247259Y-90758306D01*
X66152020Y-90282116D02*
X66152020Y-90091640D01*
X66104401Y-89996401D01*
X66056782Y-89948782D01*
X65913925Y-89853544D01*
X65723449Y-89805925D01*
X65342497Y-89805925D01*
X65247259Y-89853544D01*
X65199640Y-89901163D01*
X65152020Y-89996401D01*
X65152020Y-90186878D01*
X65199640Y-90282116D01*
X65247259Y-90329735D01*
X65342497Y-90377354D01*
X65580592Y-90377354D01*
X65675830Y-90329735D01*
X65723449Y-90282116D01*
X65771068Y-90186878D01*
X65771068Y-89996401D01*
X65723449Y-89901163D01*
X65675830Y-89853544D01*
X65580592Y-89805925D01*
X69008262Y-90758306D02*
X69055881Y-90805925D01*
X69103500Y-90948782D01*
X69103500Y-91044020D01*
X69055881Y-91186878D01*
X68960643Y-91282116D01*
X68865405Y-91329735D01*
X68674929Y-91377354D01*
X68532072Y-91377354D01*
X68341596Y-91329735D01*
X68246358Y-91282116D01*
X68151120Y-91186878D01*
X68103500Y-91044020D01*
X68103500Y-90948782D01*
X68151120Y-90805925D01*
X68198739Y-90758306D01*
X68532072Y-90186878D02*
X68484453Y-90282116D01*
X68436834Y-90329735D01*
X68341596Y-90377354D01*
X68293977Y-90377354D01*
X68198739Y-90329735D01*
X68151120Y-90282116D01*
X68103500Y-90186878D01*
X68103500Y-89996401D01*
X68151120Y-89901163D01*
X68198739Y-89853544D01*
X68293977Y-89805925D01*
X68341596Y-89805925D01*
X68436834Y-89853544D01*
X68484453Y-89901163D01*
X68532072Y-89996401D01*
X68532072Y-90186878D01*
X68579691Y-90282116D01*
X68627310Y-90329735D01*
X68722548Y-90377354D01*
X68913024Y-90377354D01*
X69008262Y-90329735D01*
X69055881Y-90282116D01*
X69103500Y-90186878D01*
X69103500Y-89996401D01*
X69055881Y-89901163D01*
X69008262Y-89853544D01*
X68913024Y-89805925D01*
X68722548Y-89805925D01*
X68627310Y-89853544D01*
X68579691Y-89901163D01*
X68532072Y-89996401D01*
X71994382Y-90762826D02*
X72042001Y-90810445D01*
X72089620Y-90953302D01*
X72089620Y-91048540D01*
X72042001Y-91191398D01*
X71946763Y-91286636D01*
X71851525Y-91334255D01*
X71661049Y-91381874D01*
X71518192Y-91381874D01*
X71327716Y-91334255D01*
X71232478Y-91286636D01*
X71137240Y-91191398D01*
X71089620Y-91048540D01*
X71089620Y-90953302D01*
X71137240Y-90810445D01*
X71184859Y-90762826D01*
X71089620Y-90429493D02*
X71089620Y-89762826D01*
X72089620Y-90191398D01*
X75029942Y-90757746D02*
X75077561Y-90805365D01*
X75125180Y-90948222D01*
X75125180Y-91043460D01*
X75077561Y-91186318D01*
X74982323Y-91281556D01*
X74887085Y-91329175D01*
X74696609Y-91376794D01*
X74553752Y-91376794D01*
X74363276Y-91329175D01*
X74268038Y-91281556D01*
X74172800Y-91186318D01*
X74125180Y-91043460D01*
X74125180Y-90948222D01*
X74172800Y-90805365D01*
X74220419Y-90757746D01*
X74125180Y-89900603D02*
X74125180Y-90091080D01*
X74172800Y-90186318D01*
X74220419Y-90233937D01*
X74363276Y-90329175D01*
X74553752Y-90376794D01*
X74934704Y-90376794D01*
X75029942Y-90329175D01*
X75077561Y-90281556D01*
X75125180Y-90186318D01*
X75125180Y-89995841D01*
X75077561Y-89900603D01*
X75029942Y-89852984D01*
X74934704Y-89805365D01*
X74696609Y-89805365D01*
X74601371Y-89852984D01*
X74553752Y-89900603D01*
X74506133Y-89995841D01*
X74506133Y-90186318D01*
X74553752Y-90281556D01*
X74601371Y-90329175D01*
X74696609Y-90376794D01*
X78040102Y-90757706D02*
X78087721Y-90805325D01*
X78135340Y-90948182D01*
X78135340Y-91043420D01*
X78087721Y-91186278D01*
X77992483Y-91281516D01*
X77897245Y-91329135D01*
X77706769Y-91376754D01*
X77563912Y-91376754D01*
X77373436Y-91329135D01*
X77278198Y-91281516D01*
X77182960Y-91186278D01*
X77135340Y-91043420D01*
X77135340Y-90948182D01*
X77182960Y-90805325D01*
X77230579Y-90757706D01*
X77135340Y-89852944D02*
X77135340Y-90329135D01*
X77611531Y-90376754D01*
X77563912Y-90329135D01*
X77516293Y-90233897D01*
X77516293Y-89995801D01*
X77563912Y-89900563D01*
X77611531Y-89852944D01*
X77706769Y-89805325D01*
X77944864Y-89805325D01*
X78040102Y-89852944D01*
X78087721Y-89900563D01*
X78135340Y-89995801D01*
X78135340Y-90233897D01*
X78087721Y-90329135D01*
X78040102Y-90376754D01*
X81065502Y-90712066D02*
X81113121Y-90759685D01*
X81160740Y-90902542D01*
X81160740Y-90997780D01*
X81113121Y-91140638D01*
X81017883Y-91235876D01*
X80922645Y-91283495D01*
X80732169Y-91331114D01*
X80589312Y-91331114D01*
X80398836Y-91283495D01*
X80303598Y-91235876D01*
X80208360Y-91140638D01*
X80160740Y-90997780D01*
X80160740Y-90902542D01*
X80208360Y-90759685D01*
X80255979Y-90712066D01*
X80494074Y-89854923D02*
X81160740Y-89854923D01*
X80113121Y-90093019D02*
X80827407Y-90331114D01*
X80827407Y-89712066D01*
X83948662Y-90793346D02*
X83996281Y-90840965D01*
X84043900Y-90983822D01*
X84043900Y-91079060D01*
X83996281Y-91221918D01*
X83901043Y-91317156D01*
X83805805Y-91364775D01*
X83615329Y-91412394D01*
X83472472Y-91412394D01*
X83281996Y-91364775D01*
X83186758Y-91317156D01*
X83091520Y-91221918D01*
X83043900Y-91079060D01*
X83043900Y-90983822D01*
X83091520Y-90840965D01*
X83139139Y-90793346D01*
X83043900Y-90460013D02*
X83043900Y-89840965D01*
X83424853Y-90174299D01*
X83424853Y-90031441D01*
X83472472Y-89936203D01*
X83520091Y-89888584D01*
X83615329Y-89840965D01*
X83853424Y-89840965D01*
X83948662Y-89888584D01*
X83996281Y-89936203D01*
X84043900Y-90031441D01*
X84043900Y-90317156D01*
X83996281Y-90412394D01*
X83948662Y-90460013D01*
X86958822Y-90788226D02*
X87006441Y-90835845D01*
X87054060Y-90978702D01*
X87054060Y-91073940D01*
X87006441Y-91216798D01*
X86911203Y-91312036D01*
X86815965Y-91359655D01*
X86625489Y-91407274D01*
X86482632Y-91407274D01*
X86292156Y-91359655D01*
X86196918Y-91312036D01*
X86101680Y-91216798D01*
X86054060Y-91073940D01*
X86054060Y-90978702D01*
X86101680Y-90835845D01*
X86149299Y-90788226D01*
X86149299Y-90407274D02*
X86101680Y-90359655D01*
X86054060Y-90264417D01*
X86054060Y-90026321D01*
X86101680Y-89931083D01*
X86149299Y-89883464D01*
X86244537Y-89835845D01*
X86339775Y-89835845D01*
X86482632Y-89883464D01*
X87054060Y-90454893D01*
X87054060Y-89835845D01*
X90065502Y-90651066D02*
X90113121Y-90698685D01*
X90160740Y-90841542D01*
X90160740Y-90936780D01*
X90113121Y-91079638D01*
X90017883Y-91174876D01*
X89922645Y-91222495D01*
X89732169Y-91270114D01*
X89589312Y-91270114D01*
X89398836Y-91222495D01*
X89303598Y-91174876D01*
X89208360Y-91079638D01*
X89160740Y-90936780D01*
X89160740Y-90841542D01*
X89208360Y-90698685D01*
X89255979Y-90651066D01*
X90160740Y-89698685D02*
X90160740Y-90270114D01*
X90160740Y-89984400D02*
X89160740Y-89984400D01*
X89303598Y-90079638D01*
X89398836Y-90174876D01*
X89446455Y-90270114D01*
X54328862Y-63130417D02*
X54376481Y-63178036D01*
X54424100Y-63320893D01*
X54424100Y-63416131D01*
X54376481Y-63558988D01*
X54281243Y-63654226D01*
X54186005Y-63701845D01*
X53995529Y-63749464D01*
X53852672Y-63749464D01*
X53662196Y-63701845D01*
X53566958Y-63654226D01*
X53471720Y-63558988D01*
X53424100Y-63416131D01*
X53424100Y-63320893D01*
X53471720Y-63178036D01*
X53519339Y-63130417D01*
X54424100Y-62178036D02*
X54424100Y-62749464D01*
X54424100Y-62463750D02*
X53424100Y-62463750D01*
X53566958Y-62558988D01*
X53662196Y-62654226D01*
X53709815Y-62749464D01*
X53424100Y-61844702D02*
X53424100Y-61178036D01*
X54424100Y-61606607D01*
X50535542Y-63087417D02*
X50583161Y-63135036D01*
X50630780Y-63277893D01*
X50630780Y-63373131D01*
X50583161Y-63515988D01*
X50487923Y-63611226D01*
X50392685Y-63658845D01*
X50202209Y-63706464D01*
X50059352Y-63706464D01*
X49868876Y-63658845D01*
X49773638Y-63611226D01*
X49678400Y-63515988D01*
X49630780Y-63373131D01*
X49630780Y-63277893D01*
X49678400Y-63135036D01*
X49726019Y-63087417D01*
X50630780Y-62135036D02*
X50630780Y-62706464D01*
X50630780Y-62420750D02*
X49630780Y-62420750D01*
X49773638Y-62515988D01*
X49868876Y-62611226D01*
X49916495Y-62706464D01*
X50059352Y-61563607D02*
X50011733Y-61658845D01*
X49964114Y-61706464D01*
X49868876Y-61754083D01*
X49821257Y-61754083D01*
X49726019Y-61706464D01*
X49678400Y-61658845D01*
X49630780Y-61563607D01*
X49630780Y-61373131D01*
X49678400Y-61277893D01*
X49726019Y-61230274D01*
X49821257Y-61182655D01*
X49868876Y-61182655D01*
X49964114Y-61230274D01*
X50011733Y-61277893D01*
X50059352Y-61373131D01*
X50059352Y-61563607D01*
X50106971Y-61658845D01*
X50154590Y-61706464D01*
X50249828Y-61754083D01*
X50440304Y-61754083D01*
X50535542Y-61706464D01*
X50583161Y-61658845D01*
X50630780Y-61563607D01*
X50630780Y-61373131D01*
X50583161Y-61277893D01*
X50535542Y-61230274D01*
X50440304Y-61182655D01*
X50249828Y-61182655D01*
X50154590Y-61230274D01*
X50106971Y-61277893D01*
X50059352Y-61373131D01*
X46337142Y-63224697D02*
X46384761Y-63272316D01*
X46432380Y-63415173D01*
X46432380Y-63510411D01*
X46384761Y-63653268D01*
X46289523Y-63748506D01*
X46194285Y-63796125D01*
X46003809Y-63843744D01*
X45860952Y-63843744D01*
X45670476Y-63796125D01*
X45575238Y-63748506D01*
X45480000Y-63653268D01*
X45432380Y-63510411D01*
X45432380Y-63415173D01*
X45480000Y-63272316D01*
X45527619Y-63224697D01*
X46432380Y-62272316D02*
X46432380Y-62843744D01*
X46432380Y-62558030D02*
X45432380Y-62558030D01*
X45575238Y-62653268D01*
X45670476Y-62748506D01*
X45718095Y-62843744D01*
X46432380Y-61796125D02*
X46432380Y-61605649D01*
X46384761Y-61510411D01*
X46337142Y-61462792D01*
X46194285Y-61367554D01*
X46003809Y-61319935D01*
X45622857Y-61319935D01*
X45527619Y-61367554D01*
X45480000Y-61415173D01*
X45432380Y-61510411D01*
X45432380Y-61700887D01*
X45480000Y-61796125D01*
X45527619Y-61843744D01*
X45622857Y-61891363D01*
X45860952Y-61891363D01*
X45956190Y-61843744D01*
X46003809Y-61796125D01*
X46051428Y-61700887D01*
X46051428Y-61510411D01*
X46003809Y-61415173D01*
X45956190Y-61367554D01*
X45860952Y-61319935D01*
X40257142Y-67057142D02*
X40209523Y-67104761D01*
X40066666Y-67152380D01*
X39971428Y-67152380D01*
X39828571Y-67104761D01*
X39733333Y-67009523D01*
X39685714Y-66914285D01*
X39638095Y-66723809D01*
X39638095Y-66580952D01*
X39685714Y-66390476D01*
X39733333Y-66295238D01*
X39828571Y-66200000D01*
X39971428Y-66152380D01*
X40066666Y-66152380D01*
X40209523Y-66200000D01*
X40257142Y-66247619D01*
X40638095Y-66247619D02*
X40685714Y-66200000D01*
X40780952Y-66152380D01*
X41019047Y-66152380D01*
X41114285Y-66200000D01*
X41161904Y-66247619D01*
X41209523Y-66342857D01*
X41209523Y-66438095D01*
X41161904Y-66580952D01*
X40590476Y-67152380D01*
X41209523Y-67152380D01*
X41828571Y-66152380D02*
X41923809Y-66152380D01*
X42019047Y-66200000D01*
X42066666Y-66247619D01*
X42114285Y-66342857D01*
X42161904Y-66533333D01*
X42161904Y-66771428D01*
X42114285Y-66961904D01*
X42066666Y-67057142D01*
X42019047Y-67104761D01*
X41923809Y-67152380D01*
X41828571Y-67152380D01*
X41733333Y-67104761D01*
X41685714Y-67057142D01*
X41638095Y-66961904D01*
X41590476Y-66771428D01*
X41590476Y-66533333D01*
X41638095Y-66342857D01*
X41685714Y-66247619D01*
X41733333Y-66200000D01*
X41828571Y-66152380D01*
X40157142Y-62757142D02*
X40109523Y-62804761D01*
X39966666Y-62852380D01*
X39871428Y-62852380D01*
X39728571Y-62804761D01*
X39633333Y-62709523D01*
X39585714Y-62614285D01*
X39538095Y-62423809D01*
X39538095Y-62280952D01*
X39585714Y-62090476D01*
X39633333Y-61995238D01*
X39728571Y-61900000D01*
X39871428Y-61852380D01*
X39966666Y-61852380D01*
X40109523Y-61900000D01*
X40157142Y-61947619D01*
X40538095Y-61947619D02*
X40585714Y-61900000D01*
X40680952Y-61852380D01*
X40919047Y-61852380D01*
X41014285Y-61900000D01*
X41061904Y-61947619D01*
X41109523Y-62042857D01*
X41109523Y-62138095D01*
X41061904Y-62280952D01*
X40490476Y-62852380D01*
X41109523Y-62852380D01*
X42061904Y-62852380D02*
X41490476Y-62852380D01*
X41776190Y-62852380D02*
X41776190Y-61852380D01*
X41680952Y-61995238D01*
X41585714Y-62090476D01*
X41490476Y-62138095D01*
X40157142Y-58757142D02*
X40109523Y-58804761D01*
X39966666Y-58852380D01*
X39871428Y-58852380D01*
X39728571Y-58804761D01*
X39633333Y-58709523D01*
X39585714Y-58614285D01*
X39538095Y-58423809D01*
X39538095Y-58280952D01*
X39585714Y-58090476D01*
X39633333Y-57995238D01*
X39728571Y-57900000D01*
X39871428Y-57852380D01*
X39966666Y-57852380D01*
X40109523Y-57900000D01*
X40157142Y-57947619D01*
X40538095Y-57947619D02*
X40585714Y-57900000D01*
X40680952Y-57852380D01*
X40919047Y-57852380D01*
X41014285Y-57900000D01*
X41061904Y-57947619D01*
X41109523Y-58042857D01*
X41109523Y-58138095D01*
X41061904Y-58280952D01*
X40490476Y-58852380D01*
X41109523Y-58852380D01*
X41490476Y-57947619D02*
X41538095Y-57900000D01*
X41633333Y-57852380D01*
X41871428Y-57852380D01*
X41966666Y-57900000D01*
X42014285Y-57947619D01*
X42061904Y-58042857D01*
X42061904Y-58138095D01*
X42014285Y-58280952D01*
X41442857Y-58852380D01*
X42061904Y-58852380D01*
X40257142Y-54757142D02*
X40209523Y-54804761D01*
X40066666Y-54852380D01*
X39971428Y-54852380D01*
X39828571Y-54804761D01*
X39733333Y-54709523D01*
X39685714Y-54614285D01*
X39638095Y-54423809D01*
X39638095Y-54280952D01*
X39685714Y-54090476D01*
X39733333Y-53995238D01*
X39828571Y-53900000D01*
X39971428Y-53852380D01*
X40066666Y-53852380D01*
X40209523Y-53900000D01*
X40257142Y-53947619D01*
X40638095Y-53947619D02*
X40685714Y-53900000D01*
X40780952Y-53852380D01*
X41019047Y-53852380D01*
X41114285Y-53900000D01*
X41161904Y-53947619D01*
X41209523Y-54042857D01*
X41209523Y-54138095D01*
X41161904Y-54280952D01*
X40590476Y-54852380D01*
X41209523Y-54852380D01*
X41542857Y-53852380D02*
X42161904Y-53852380D01*
X41828571Y-54233333D01*
X41971428Y-54233333D01*
X42066666Y-54280952D01*
X42114285Y-54328571D01*
X42161904Y-54423809D01*
X42161904Y-54661904D01*
X42114285Y-54757142D01*
X42066666Y-54804761D01*
X41971428Y-54852380D01*
X41685714Y-54852380D01*
X41590476Y-54804761D01*
X41542857Y-54757142D01*
X40257142Y-50857142D02*
X40209523Y-50904761D01*
X40066666Y-50952380D01*
X39971428Y-50952380D01*
X39828571Y-50904761D01*
X39733333Y-50809523D01*
X39685714Y-50714285D01*
X39638095Y-50523809D01*
X39638095Y-50380952D01*
X39685714Y-50190476D01*
X39733333Y-50095238D01*
X39828571Y-50000000D01*
X39971428Y-49952380D01*
X40066666Y-49952380D01*
X40209523Y-50000000D01*
X40257142Y-50047619D01*
X40638095Y-50047619D02*
X40685714Y-50000000D01*
X40780952Y-49952380D01*
X41019047Y-49952380D01*
X41114285Y-50000000D01*
X41161904Y-50047619D01*
X41209523Y-50142857D01*
X41209523Y-50238095D01*
X41161904Y-50380952D01*
X40590476Y-50952380D01*
X41209523Y-50952380D01*
X42066666Y-50285714D02*
X42066666Y-50952380D01*
X41828571Y-49904761D02*
X41590476Y-50619047D01*
X42209523Y-50619047D01*
X40357142Y-46857142D02*
X40309523Y-46904761D01*
X40166666Y-46952380D01*
X40071428Y-46952380D01*
X39928571Y-46904761D01*
X39833333Y-46809523D01*
X39785714Y-46714285D01*
X39738095Y-46523809D01*
X39738095Y-46380952D01*
X39785714Y-46190476D01*
X39833333Y-46095238D01*
X39928571Y-46000000D01*
X40071428Y-45952380D01*
X40166666Y-45952380D01*
X40309523Y-46000000D01*
X40357142Y-46047619D01*
X40738095Y-46047619D02*
X40785714Y-46000000D01*
X40880952Y-45952380D01*
X41119047Y-45952380D01*
X41214285Y-46000000D01*
X41261904Y-46047619D01*
X41309523Y-46142857D01*
X41309523Y-46238095D01*
X41261904Y-46380952D01*
X40690476Y-46952380D01*
X41309523Y-46952380D01*
X42214285Y-45952380D02*
X41738095Y-45952380D01*
X41690476Y-46428571D01*
X41738095Y-46380952D01*
X41833333Y-46333333D01*
X42071428Y-46333333D01*
X42166666Y-46380952D01*
X42214285Y-46428571D01*
X42261904Y-46523809D01*
X42261904Y-46761904D01*
X42214285Y-46857142D01*
X42166666Y-46904761D01*
X42071428Y-46952380D01*
X41833333Y-46952380D01*
X41738095Y-46904761D01*
X41690476Y-46857142D01*
X40257142Y-42957142D02*
X40209523Y-43004761D01*
X40066666Y-43052380D01*
X39971428Y-43052380D01*
X39828571Y-43004761D01*
X39733333Y-42909523D01*
X39685714Y-42814285D01*
X39638095Y-42623809D01*
X39638095Y-42480952D01*
X39685714Y-42290476D01*
X39733333Y-42195238D01*
X39828571Y-42100000D01*
X39971428Y-42052380D01*
X40066666Y-42052380D01*
X40209523Y-42100000D01*
X40257142Y-42147619D01*
X40638095Y-42147619D02*
X40685714Y-42100000D01*
X40780952Y-42052380D01*
X41019047Y-42052380D01*
X41114285Y-42100000D01*
X41161904Y-42147619D01*
X41209523Y-42242857D01*
X41209523Y-42338095D01*
X41161904Y-42480952D01*
X40590476Y-43052380D01*
X41209523Y-43052380D01*
X42066666Y-42052380D02*
X41876190Y-42052380D01*
X41780952Y-42100000D01*
X41733333Y-42147619D01*
X41638095Y-42290476D01*
X41590476Y-42480952D01*
X41590476Y-42861904D01*
X41638095Y-42957142D01*
X41685714Y-43004761D01*
X41780952Y-43052380D01*
X41971428Y-43052380D01*
X42066666Y-43004761D01*
X42114285Y-42957142D01*
X42161904Y-42861904D01*
X42161904Y-42623809D01*
X42114285Y-42528571D01*
X42066666Y-42480952D01*
X41971428Y-42433333D01*
X41780952Y-42433333D01*
X41685714Y-42480952D01*
X41638095Y-42528571D01*
X41590476Y-42623809D01*
X40357142Y-38857142D02*
X40309523Y-38904761D01*
X40166666Y-38952380D01*
X40071428Y-38952380D01*
X39928571Y-38904761D01*
X39833333Y-38809523D01*
X39785714Y-38714285D01*
X39738095Y-38523809D01*
X39738095Y-38380952D01*
X39785714Y-38190476D01*
X39833333Y-38095238D01*
X39928571Y-38000000D01*
X40071428Y-37952380D01*
X40166666Y-37952380D01*
X40309523Y-38000000D01*
X40357142Y-38047619D01*
X40738095Y-38047619D02*
X40785714Y-38000000D01*
X40880952Y-37952380D01*
X41119047Y-37952380D01*
X41214285Y-38000000D01*
X41261904Y-38047619D01*
X41309523Y-38142857D01*
X41309523Y-38238095D01*
X41261904Y-38380952D01*
X40690476Y-38952380D01*
X41309523Y-38952380D01*
X41642857Y-37952380D02*
X42309523Y-37952380D01*
X41880952Y-38952380D01*
X40075342Y-34857142D02*
X40027723Y-34904761D01*
X39884866Y-34952380D01*
X39789628Y-34952380D01*
X39646771Y-34904761D01*
X39551533Y-34809523D01*
X39503914Y-34714285D01*
X39456295Y-34523809D01*
X39456295Y-34380952D01*
X39503914Y-34190476D01*
X39551533Y-34095238D01*
X39646771Y-34000000D01*
X39789628Y-33952380D01*
X39884866Y-33952380D01*
X40027723Y-34000000D01*
X40075342Y-34047619D01*
X40456295Y-34047619D02*
X40503914Y-34000000D01*
X40599152Y-33952380D01*
X40837247Y-33952380D01*
X40932485Y-34000000D01*
X40980104Y-34047619D01*
X41027723Y-34142857D01*
X41027723Y-34238095D01*
X40980104Y-34380952D01*
X40408676Y-34952380D01*
X41027723Y-34952380D01*
X41599152Y-34380952D02*
X41503914Y-34333333D01*
X41456295Y-34285714D01*
X41408676Y-34190476D01*
X41408676Y-34142857D01*
X41456295Y-34047619D01*
X41503914Y-34000000D01*
X41599152Y-33952380D01*
X41789628Y-33952380D01*
X41884866Y-34000000D01*
X41932485Y-34047619D01*
X41980104Y-34142857D01*
X41980104Y-34190476D01*
X41932485Y-34285714D01*
X41884866Y-34333333D01*
X41789628Y-34380952D01*
X41599152Y-34380952D01*
X41503914Y-34428571D01*
X41456295Y-34476190D01*
X41408676Y-34571428D01*
X41408676Y-34761904D01*
X41456295Y-34857142D01*
X41503914Y-34904761D01*
X41599152Y-34952380D01*
X41789628Y-34952380D01*
X41884866Y-34904761D01*
X41932485Y-34857142D01*
X41980104Y-34761904D01*
X41980104Y-34571428D01*
X41932485Y-34476190D01*
X41884866Y-34428571D01*
X41789628Y-34380952D01*
X44757142Y-38942857D02*
X44804761Y-38990476D01*
X44852380Y-39133333D01*
X44852380Y-39228571D01*
X44804761Y-39371428D01*
X44709523Y-39466666D01*
X44614285Y-39514285D01*
X44423809Y-39561904D01*
X44280952Y-39561904D01*
X44090476Y-39514285D01*
X43995238Y-39466666D01*
X43900000Y-39371428D01*
X43852380Y-39228571D01*
X43852380Y-39133333D01*
X43900000Y-38990476D01*
X43947619Y-38942857D01*
X43947619Y-38561904D02*
X43900000Y-38514285D01*
X43852380Y-38419047D01*
X43852380Y-38180952D01*
X43900000Y-38085714D01*
X43947619Y-38038095D01*
X44042857Y-37990476D01*
X44138095Y-37990476D01*
X44280952Y-38038095D01*
X44852380Y-38609523D01*
X44852380Y-37990476D01*
X44852380Y-37514285D02*
X44852380Y-37323809D01*
X44804761Y-37228571D01*
X44757142Y-37180952D01*
X44614285Y-37085714D01*
X44423809Y-37038095D01*
X44042857Y-37038095D01*
X43947619Y-37085714D01*
X43900000Y-37133333D01*
X43852380Y-37228571D01*
X43852380Y-37419047D01*
X43900000Y-37514285D01*
X43947619Y-37561904D01*
X44042857Y-37609523D01*
X44280952Y-37609523D01*
X44376190Y-37561904D01*
X44423809Y-37514285D01*
X44471428Y-37419047D01*
X44471428Y-37228571D01*
X44423809Y-37133333D01*
X44376190Y-37085714D01*
X44280952Y-37038095D01*
X48657142Y-39142857D02*
X48704761Y-39190476D01*
X48752380Y-39333333D01*
X48752380Y-39428571D01*
X48704761Y-39571428D01*
X48609523Y-39666666D01*
X48514285Y-39714285D01*
X48323809Y-39761904D01*
X48180952Y-39761904D01*
X47990476Y-39714285D01*
X47895238Y-39666666D01*
X47800000Y-39571428D01*
X47752380Y-39428571D01*
X47752380Y-39333333D01*
X47800000Y-39190476D01*
X47847619Y-39142857D01*
X47752380Y-38809523D02*
X47752380Y-38190476D01*
X48133333Y-38523809D01*
X48133333Y-38380952D01*
X48180952Y-38285714D01*
X48228571Y-38238095D01*
X48323809Y-38190476D01*
X48561904Y-38190476D01*
X48657142Y-38238095D01*
X48704761Y-38285714D01*
X48752380Y-38380952D01*
X48752380Y-38666666D01*
X48704761Y-38761904D01*
X48657142Y-38809523D01*
X47752380Y-37571428D02*
X47752380Y-37476190D01*
X47800000Y-37380952D01*
X47847619Y-37333333D01*
X47942857Y-37285714D01*
X48133333Y-37238095D01*
X48371428Y-37238095D01*
X48561904Y-37285714D01*
X48657142Y-37333333D01*
X48704761Y-37380952D01*
X48752380Y-37476190D01*
X48752380Y-37571428D01*
X48704761Y-37666666D01*
X48657142Y-37714285D01*
X48561904Y-37761904D01*
X48371428Y-37809523D01*
X48133333Y-37809523D01*
X47942857Y-37761904D01*
X47847619Y-37714285D01*
X47800000Y-37666666D01*
X47752380Y-37571428D01*
X52657142Y-38992857D02*
X52704761Y-39040476D01*
X52752380Y-39183333D01*
X52752380Y-39278571D01*
X52704761Y-39421428D01*
X52609523Y-39516666D01*
X52514285Y-39564285D01*
X52323809Y-39611904D01*
X52180952Y-39611904D01*
X51990476Y-39564285D01*
X51895238Y-39516666D01*
X51800000Y-39421428D01*
X51752380Y-39278571D01*
X51752380Y-39183333D01*
X51800000Y-39040476D01*
X51847619Y-38992857D01*
X51752380Y-38659523D02*
X51752380Y-38040476D01*
X52133333Y-38373809D01*
X52133333Y-38230952D01*
X52180952Y-38135714D01*
X52228571Y-38088095D01*
X52323809Y-38040476D01*
X52561904Y-38040476D01*
X52657142Y-38088095D01*
X52704761Y-38135714D01*
X52752380Y-38230952D01*
X52752380Y-38516666D01*
X52704761Y-38611904D01*
X52657142Y-38659523D01*
X52752380Y-37088095D02*
X52752380Y-37659523D01*
X52752380Y-37373809D02*
X51752380Y-37373809D01*
X51895238Y-37469047D01*
X51990476Y-37564285D01*
X52038095Y-37659523D01*
X60757142Y-39042857D02*
X60804761Y-39090476D01*
X60852380Y-39233333D01*
X60852380Y-39328571D01*
X60804761Y-39471428D01*
X60709523Y-39566666D01*
X60614285Y-39614285D01*
X60423809Y-39661904D01*
X60280952Y-39661904D01*
X60090476Y-39614285D01*
X59995238Y-39566666D01*
X59900000Y-39471428D01*
X59852380Y-39328571D01*
X59852380Y-39233333D01*
X59900000Y-39090476D01*
X59947619Y-39042857D01*
X59852380Y-38709523D02*
X59852380Y-38090476D01*
X60233333Y-38423809D01*
X60233333Y-38280952D01*
X60280952Y-38185714D01*
X60328571Y-38138095D01*
X60423809Y-38090476D01*
X60661904Y-38090476D01*
X60757142Y-38138095D01*
X60804761Y-38185714D01*
X60852380Y-38280952D01*
X60852380Y-38566666D01*
X60804761Y-38661904D01*
X60757142Y-38709523D01*
X59852380Y-37757142D02*
X59852380Y-37138095D01*
X60233333Y-37471428D01*
X60233333Y-37328571D01*
X60280952Y-37233333D01*
X60328571Y-37185714D01*
X60423809Y-37138095D01*
X60661904Y-37138095D01*
X60757142Y-37185714D01*
X60804761Y-37233333D01*
X60852380Y-37328571D01*
X60852380Y-37614285D01*
X60804761Y-37709523D01*
X60757142Y-37757142D01*
X64757142Y-39042857D02*
X64804761Y-39090476D01*
X64852380Y-39233333D01*
X64852380Y-39328571D01*
X64804761Y-39471428D01*
X64709523Y-39566666D01*
X64614285Y-39614285D01*
X64423809Y-39661904D01*
X64280952Y-39661904D01*
X64090476Y-39614285D01*
X63995238Y-39566666D01*
X63900000Y-39471428D01*
X63852380Y-39328571D01*
X63852380Y-39233333D01*
X63900000Y-39090476D01*
X63947619Y-39042857D01*
X63852380Y-38709523D02*
X63852380Y-38090476D01*
X64233333Y-38423809D01*
X64233333Y-38280952D01*
X64280952Y-38185714D01*
X64328571Y-38138095D01*
X64423809Y-38090476D01*
X64661904Y-38090476D01*
X64757142Y-38138095D01*
X64804761Y-38185714D01*
X64852380Y-38280952D01*
X64852380Y-38566666D01*
X64804761Y-38661904D01*
X64757142Y-38709523D01*
X64185714Y-37233333D02*
X64852380Y-37233333D01*
X63804761Y-37471428D02*
X64519047Y-37709523D01*
X64519047Y-37090476D01*
X53152380Y-66842857D02*
X52676190Y-67176190D01*
X53152380Y-67414285D02*
X52152380Y-67414285D01*
X52152380Y-67033333D01*
X52200000Y-66938095D01*
X52247619Y-66890476D01*
X52342857Y-66842857D01*
X52485714Y-66842857D01*
X52580952Y-66890476D01*
X52628571Y-66938095D01*
X52676190Y-67033333D01*
X52676190Y-67414285D01*
X53152380Y-65890476D02*
X53152380Y-66461904D01*
X53152380Y-66176190D02*
X52152380Y-66176190D01*
X52295238Y-66271428D01*
X52390476Y-66366666D01*
X52438095Y-66461904D01*
X52580952Y-65319047D02*
X52533333Y-65414285D01*
X52485714Y-65461904D01*
X52390476Y-65509523D01*
X52342857Y-65509523D01*
X52247619Y-65461904D01*
X52200000Y-65414285D01*
X52152380Y-65319047D01*
X52152380Y-65128571D01*
X52200000Y-65033333D01*
X52247619Y-64985714D01*
X52342857Y-64938095D01*
X52390476Y-64938095D01*
X52485714Y-64985714D01*
X52533333Y-65033333D01*
X52580952Y-65128571D01*
X52580952Y-65319047D01*
X52628571Y-65414285D01*
X52676190Y-65461904D01*
X52771428Y-65509523D01*
X52961904Y-65509523D01*
X53057142Y-65461904D01*
X53104761Y-65414285D01*
X53152380Y-65319047D01*
X53152380Y-65128571D01*
X53104761Y-65033333D01*
X53057142Y-64985714D01*
X52961904Y-64938095D01*
X52771428Y-64938095D01*
X52676190Y-64985714D01*
X52628571Y-65033333D01*
X52580952Y-65128571D01*
X55852380Y-66942857D02*
X55376190Y-67276190D01*
X55852380Y-67514285D02*
X54852380Y-67514285D01*
X54852380Y-67133333D01*
X54900000Y-67038095D01*
X54947619Y-66990476D01*
X55042857Y-66942857D01*
X55185714Y-66942857D01*
X55280952Y-66990476D01*
X55328571Y-67038095D01*
X55376190Y-67133333D01*
X55376190Y-67514285D01*
X55852380Y-65990476D02*
X55852380Y-66561904D01*
X55852380Y-66276190D02*
X54852380Y-66276190D01*
X54995238Y-66371428D01*
X55090476Y-66466666D01*
X55138095Y-66561904D01*
X55852380Y-65514285D02*
X55852380Y-65323809D01*
X55804761Y-65228571D01*
X55757142Y-65180952D01*
X55614285Y-65085714D01*
X55423809Y-65038095D01*
X55042857Y-65038095D01*
X54947619Y-65085714D01*
X54900000Y-65133333D01*
X54852380Y-65228571D01*
X54852380Y-65419047D01*
X54900000Y-65514285D01*
X54947619Y-65561904D01*
X55042857Y-65609523D01*
X55280952Y-65609523D01*
X55376190Y-65561904D01*
X55423809Y-65514285D01*
X55471428Y-65419047D01*
X55471428Y-65228571D01*
X55423809Y-65133333D01*
X55376190Y-65085714D01*
X55280952Y-65038095D01*
X49252380Y-66842857D02*
X48776190Y-67176190D01*
X49252380Y-67414285D02*
X48252380Y-67414285D01*
X48252380Y-67033333D01*
X48300000Y-66938095D01*
X48347619Y-66890476D01*
X48442857Y-66842857D01*
X48585714Y-66842857D01*
X48680952Y-66890476D01*
X48728571Y-66938095D01*
X48776190Y-67033333D01*
X48776190Y-67414285D01*
X48347619Y-66461904D02*
X48300000Y-66414285D01*
X48252380Y-66319047D01*
X48252380Y-66080952D01*
X48300000Y-65985714D01*
X48347619Y-65938095D01*
X48442857Y-65890476D01*
X48538095Y-65890476D01*
X48680952Y-65938095D01*
X49252380Y-66509523D01*
X49252380Y-65890476D01*
X49252380Y-64938095D02*
X49252380Y-65509523D01*
X49252380Y-65223809D02*
X48252380Y-65223809D01*
X48395238Y-65319047D01*
X48490476Y-65414285D01*
X48538095Y-65509523D01*
X51952380Y-66842857D02*
X51476190Y-67176190D01*
X51952380Y-67414285D02*
X50952380Y-67414285D01*
X50952380Y-67033333D01*
X51000000Y-66938095D01*
X51047619Y-66890476D01*
X51142857Y-66842857D01*
X51285714Y-66842857D01*
X51380952Y-66890476D01*
X51428571Y-66938095D01*
X51476190Y-67033333D01*
X51476190Y-67414285D01*
X51047619Y-66461904D02*
X51000000Y-66414285D01*
X50952380Y-66319047D01*
X50952380Y-66080952D01*
X51000000Y-65985714D01*
X51047619Y-65938095D01*
X51142857Y-65890476D01*
X51238095Y-65890476D01*
X51380952Y-65938095D01*
X51952380Y-66509523D01*
X51952380Y-65890476D01*
X51047619Y-65509523D02*
X51000000Y-65461904D01*
X50952380Y-65366666D01*
X50952380Y-65128571D01*
X51000000Y-65033333D01*
X51047619Y-64985714D01*
X51142857Y-64938095D01*
X51238095Y-64938095D01*
X51380952Y-64985714D01*
X51952380Y-65557142D01*
X51952380Y-64938095D01*
X45152380Y-66942857D02*
X44676190Y-67276190D01*
X45152380Y-67514285D02*
X44152380Y-67514285D01*
X44152380Y-67133333D01*
X44200000Y-67038095D01*
X44247619Y-66990476D01*
X44342857Y-66942857D01*
X44485714Y-66942857D01*
X44580952Y-66990476D01*
X44628571Y-67038095D01*
X44676190Y-67133333D01*
X44676190Y-67514285D01*
X44247619Y-66561904D02*
X44200000Y-66514285D01*
X44152380Y-66419047D01*
X44152380Y-66180952D01*
X44200000Y-66085714D01*
X44247619Y-66038095D01*
X44342857Y-65990476D01*
X44438095Y-65990476D01*
X44580952Y-66038095D01*
X45152380Y-66609523D01*
X45152380Y-65990476D01*
X44485714Y-65133333D02*
X45152380Y-65133333D01*
X44104761Y-65371428D02*
X44819047Y-65609523D01*
X44819047Y-64990476D01*
X47852380Y-66942857D02*
X47376190Y-67276190D01*
X47852380Y-67514285D02*
X46852380Y-67514285D01*
X46852380Y-67133333D01*
X46900000Y-67038095D01*
X46947619Y-66990476D01*
X47042857Y-66942857D01*
X47185714Y-66942857D01*
X47280952Y-66990476D01*
X47328571Y-67038095D01*
X47376190Y-67133333D01*
X47376190Y-67514285D01*
X46947619Y-66561904D02*
X46900000Y-66514285D01*
X46852380Y-66419047D01*
X46852380Y-66180952D01*
X46900000Y-66085714D01*
X46947619Y-66038095D01*
X47042857Y-65990476D01*
X47138095Y-65990476D01*
X47280952Y-66038095D01*
X47852380Y-66609523D01*
X47852380Y-65990476D01*
X46852380Y-65085714D02*
X46852380Y-65561904D01*
X47328571Y-65609523D01*
X47280952Y-65561904D01*
X47233333Y-65466666D01*
X47233333Y-65228571D01*
X47280952Y-65133333D01*
X47328571Y-65085714D01*
X47423809Y-65038095D01*
X47661904Y-65038095D01*
X47757142Y-65085714D01*
X47804761Y-65133333D01*
X47852380Y-65228571D01*
X47852380Y-65466666D01*
X47804761Y-65561904D01*
X47757142Y-65609523D01*
X36457142Y-65652380D02*
X36123809Y-65176190D01*
X35885714Y-65652380D02*
X35885714Y-64652380D01*
X36266666Y-64652380D01*
X36361904Y-64700000D01*
X36409523Y-64747619D01*
X36457142Y-64842857D01*
X36457142Y-64985714D01*
X36409523Y-65080952D01*
X36361904Y-65128571D01*
X36266666Y-65176190D01*
X35885714Y-65176190D01*
X36838095Y-64747619D02*
X36885714Y-64700000D01*
X36980952Y-64652380D01*
X37219047Y-64652380D01*
X37314285Y-64700000D01*
X37361904Y-64747619D01*
X37409523Y-64842857D01*
X37409523Y-64938095D01*
X37361904Y-65080952D01*
X36790476Y-65652380D01*
X37409523Y-65652380D01*
X37742857Y-64652380D02*
X38409523Y-64652380D01*
X37980952Y-65652380D01*
X36457142Y-68452380D02*
X36123809Y-67976190D01*
X35885714Y-68452380D02*
X35885714Y-67452380D01*
X36266666Y-67452380D01*
X36361904Y-67500000D01*
X36409523Y-67547619D01*
X36457142Y-67642857D01*
X36457142Y-67785714D01*
X36409523Y-67880952D01*
X36361904Y-67928571D01*
X36266666Y-67976190D01*
X35885714Y-67976190D01*
X36838095Y-67547619D02*
X36885714Y-67500000D01*
X36980952Y-67452380D01*
X37219047Y-67452380D01*
X37314285Y-67500000D01*
X37361904Y-67547619D01*
X37409523Y-67642857D01*
X37409523Y-67738095D01*
X37361904Y-67880952D01*
X36790476Y-68452380D01*
X37409523Y-68452380D01*
X37980952Y-67880952D02*
X37885714Y-67833333D01*
X37838095Y-67785714D01*
X37790476Y-67690476D01*
X37790476Y-67642857D01*
X37838095Y-67547619D01*
X37885714Y-67500000D01*
X37980952Y-67452380D01*
X38171428Y-67452380D01*
X38266666Y-67500000D01*
X38314285Y-67547619D01*
X38361904Y-67642857D01*
X38361904Y-67690476D01*
X38314285Y-67785714D01*
X38266666Y-67833333D01*
X38171428Y-67880952D01*
X37980952Y-67880952D01*
X37885714Y-67928571D01*
X37838095Y-67976190D01*
X37790476Y-68071428D01*
X37790476Y-68261904D01*
X37838095Y-68357142D01*
X37885714Y-68404761D01*
X37980952Y-68452380D01*
X38171428Y-68452380D01*
X38266666Y-68404761D01*
X38314285Y-68357142D01*
X38361904Y-68261904D01*
X38361904Y-68071428D01*
X38314285Y-67976190D01*
X38266666Y-67928571D01*
X38171428Y-67880952D01*
X36457142Y-61552380D02*
X36123809Y-61076190D01*
X35885714Y-61552380D02*
X35885714Y-60552380D01*
X36266666Y-60552380D01*
X36361904Y-60600000D01*
X36409523Y-60647619D01*
X36457142Y-60742857D01*
X36457142Y-60885714D01*
X36409523Y-60980952D01*
X36361904Y-61028571D01*
X36266666Y-61076190D01*
X35885714Y-61076190D01*
X36790476Y-60552380D02*
X37409523Y-60552380D01*
X37076190Y-60933333D01*
X37219047Y-60933333D01*
X37314285Y-60980952D01*
X37361904Y-61028571D01*
X37409523Y-61123809D01*
X37409523Y-61361904D01*
X37361904Y-61457142D01*
X37314285Y-61504761D01*
X37219047Y-61552380D01*
X36933333Y-61552380D01*
X36838095Y-61504761D01*
X36790476Y-61457142D01*
X38028571Y-60552380D02*
X38123809Y-60552380D01*
X38219047Y-60600000D01*
X38266666Y-60647619D01*
X38314285Y-60742857D01*
X38361904Y-60933333D01*
X38361904Y-61171428D01*
X38314285Y-61361904D01*
X38266666Y-61457142D01*
X38219047Y-61504761D01*
X38123809Y-61552380D01*
X38028571Y-61552380D01*
X37933333Y-61504761D01*
X37885714Y-61457142D01*
X37838095Y-61361904D01*
X37790476Y-61171428D01*
X37790476Y-60933333D01*
X37838095Y-60742857D01*
X37885714Y-60647619D01*
X37933333Y-60600000D01*
X38028571Y-60552380D01*
X36457142Y-64252380D02*
X36123809Y-63776190D01*
X35885714Y-64252380D02*
X35885714Y-63252380D01*
X36266666Y-63252380D01*
X36361904Y-63300000D01*
X36409523Y-63347619D01*
X36457142Y-63442857D01*
X36457142Y-63585714D01*
X36409523Y-63680952D01*
X36361904Y-63728571D01*
X36266666Y-63776190D01*
X35885714Y-63776190D01*
X36790476Y-63252380D02*
X37409523Y-63252380D01*
X37076190Y-63633333D01*
X37219047Y-63633333D01*
X37314285Y-63680952D01*
X37361904Y-63728571D01*
X37409523Y-63823809D01*
X37409523Y-64061904D01*
X37361904Y-64157142D01*
X37314285Y-64204761D01*
X37219047Y-64252380D01*
X36933333Y-64252380D01*
X36838095Y-64204761D01*
X36790476Y-64157142D01*
X38361904Y-64252380D02*
X37790476Y-64252380D01*
X38076190Y-64252380D02*
X38076190Y-63252380D01*
X37980952Y-63395238D01*
X37885714Y-63490476D01*
X37790476Y-63538095D01*
X36457142Y-57452380D02*
X36123809Y-56976190D01*
X35885714Y-57452380D02*
X35885714Y-56452380D01*
X36266666Y-56452380D01*
X36361904Y-56500000D01*
X36409523Y-56547619D01*
X36457142Y-56642857D01*
X36457142Y-56785714D01*
X36409523Y-56880952D01*
X36361904Y-56928571D01*
X36266666Y-56976190D01*
X35885714Y-56976190D01*
X36790476Y-56452380D02*
X37409523Y-56452380D01*
X37076190Y-56833333D01*
X37219047Y-56833333D01*
X37314285Y-56880952D01*
X37361904Y-56928571D01*
X37409523Y-57023809D01*
X37409523Y-57261904D01*
X37361904Y-57357142D01*
X37314285Y-57404761D01*
X37219047Y-57452380D01*
X36933333Y-57452380D01*
X36838095Y-57404761D01*
X36790476Y-57357142D01*
X37742857Y-56452380D02*
X38361904Y-56452380D01*
X38028571Y-56833333D01*
X38171428Y-56833333D01*
X38266666Y-56880952D01*
X38314285Y-56928571D01*
X38361904Y-57023809D01*
X38361904Y-57261904D01*
X38314285Y-57357142D01*
X38266666Y-57404761D01*
X38171428Y-57452380D01*
X37885714Y-57452380D01*
X37790476Y-57404761D01*
X37742857Y-57357142D01*
X36457142Y-60252380D02*
X36123809Y-59776190D01*
X35885714Y-60252380D02*
X35885714Y-59252380D01*
X36266666Y-59252380D01*
X36361904Y-59300000D01*
X36409523Y-59347619D01*
X36457142Y-59442857D01*
X36457142Y-59585714D01*
X36409523Y-59680952D01*
X36361904Y-59728571D01*
X36266666Y-59776190D01*
X35885714Y-59776190D01*
X36790476Y-59252380D02*
X37409523Y-59252380D01*
X37076190Y-59633333D01*
X37219047Y-59633333D01*
X37314285Y-59680952D01*
X37361904Y-59728571D01*
X37409523Y-59823809D01*
X37409523Y-60061904D01*
X37361904Y-60157142D01*
X37314285Y-60204761D01*
X37219047Y-60252380D01*
X36933333Y-60252380D01*
X36838095Y-60204761D01*
X36790476Y-60157142D01*
X38266666Y-59585714D02*
X38266666Y-60252380D01*
X38028571Y-59204761D02*
X37790476Y-59919047D01*
X38409523Y-59919047D01*
X36447902Y-53552380D02*
X36114569Y-53076190D01*
X35876474Y-53552380D02*
X35876474Y-52552380D01*
X36257426Y-52552380D01*
X36352664Y-52600000D01*
X36400283Y-52647619D01*
X36447902Y-52742857D01*
X36447902Y-52885714D01*
X36400283Y-52980952D01*
X36352664Y-53028571D01*
X36257426Y-53076190D01*
X35876474Y-53076190D01*
X36781236Y-52552380D02*
X37400283Y-52552380D01*
X37066950Y-52933333D01*
X37209807Y-52933333D01*
X37305045Y-52980952D01*
X37352664Y-53028571D01*
X37400283Y-53123809D01*
X37400283Y-53361904D01*
X37352664Y-53457142D01*
X37305045Y-53504761D01*
X37209807Y-53552380D01*
X36924093Y-53552380D01*
X36828855Y-53504761D01*
X36781236Y-53457142D01*
X38257426Y-52552380D02*
X38066950Y-52552380D01*
X37971712Y-52600000D01*
X37924093Y-52647619D01*
X37828855Y-52790476D01*
X37781236Y-52980952D01*
X37781236Y-53361904D01*
X37828855Y-53457142D01*
X37876474Y-53504761D01*
X37971712Y-53552380D01*
X38162188Y-53552380D01*
X38257426Y-53504761D01*
X38305045Y-53457142D01*
X38352664Y-53361904D01*
X38352664Y-53123809D01*
X38305045Y-53028571D01*
X38257426Y-52980952D01*
X38162188Y-52933333D01*
X37971712Y-52933333D01*
X37876474Y-52980952D01*
X37828855Y-53028571D01*
X37781236Y-53123809D01*
X36457142Y-56252380D02*
X36123809Y-55776190D01*
X35885714Y-56252380D02*
X35885714Y-55252380D01*
X36266666Y-55252380D01*
X36361904Y-55300000D01*
X36409523Y-55347619D01*
X36457142Y-55442857D01*
X36457142Y-55585714D01*
X36409523Y-55680952D01*
X36361904Y-55728571D01*
X36266666Y-55776190D01*
X35885714Y-55776190D01*
X36790476Y-55252380D02*
X37409523Y-55252380D01*
X37076190Y-55633333D01*
X37219047Y-55633333D01*
X37314285Y-55680952D01*
X37361904Y-55728571D01*
X37409523Y-55823809D01*
X37409523Y-56061904D01*
X37361904Y-56157142D01*
X37314285Y-56204761D01*
X37219047Y-56252380D01*
X36933333Y-56252380D01*
X36838095Y-56204761D01*
X36790476Y-56157142D01*
X37742857Y-55252380D02*
X38409523Y-55252380D01*
X37980952Y-56252380D01*
X36557142Y-49652380D02*
X36223809Y-49176190D01*
X35985714Y-49652380D02*
X35985714Y-48652380D01*
X36366666Y-48652380D01*
X36461904Y-48700000D01*
X36509523Y-48747619D01*
X36557142Y-48842857D01*
X36557142Y-48985714D01*
X36509523Y-49080952D01*
X36461904Y-49128571D01*
X36366666Y-49176190D01*
X35985714Y-49176190D01*
X36890476Y-48652380D02*
X37509523Y-48652380D01*
X37176190Y-49033333D01*
X37319047Y-49033333D01*
X37414285Y-49080952D01*
X37461904Y-49128571D01*
X37509523Y-49223809D01*
X37509523Y-49461904D01*
X37461904Y-49557142D01*
X37414285Y-49604761D01*
X37319047Y-49652380D01*
X37033333Y-49652380D01*
X36938095Y-49604761D01*
X36890476Y-49557142D01*
X37985714Y-49652380D02*
X38176190Y-49652380D01*
X38271428Y-49604761D01*
X38319047Y-49557142D01*
X38414285Y-49414285D01*
X38461904Y-49223809D01*
X38461904Y-48842857D01*
X38414285Y-48747619D01*
X38366666Y-48700000D01*
X38271428Y-48652380D01*
X38080952Y-48652380D01*
X37985714Y-48700000D01*
X37938095Y-48747619D01*
X37890476Y-48842857D01*
X37890476Y-49080952D01*
X37938095Y-49176190D01*
X37985714Y-49223809D01*
X38080952Y-49271428D01*
X38271428Y-49271428D01*
X38366666Y-49223809D01*
X38414285Y-49176190D01*
X38461904Y-49080952D01*
X36457142Y-52352380D02*
X36123809Y-51876190D01*
X35885714Y-52352380D02*
X35885714Y-51352380D01*
X36266666Y-51352380D01*
X36361904Y-51400000D01*
X36409523Y-51447619D01*
X36457142Y-51542857D01*
X36457142Y-51685714D01*
X36409523Y-51780952D01*
X36361904Y-51828571D01*
X36266666Y-51876190D01*
X35885714Y-51876190D01*
X37314285Y-51685714D02*
X37314285Y-52352380D01*
X37076190Y-51304761D02*
X36838095Y-52019047D01*
X37457142Y-52019047D01*
X38028571Y-51352380D02*
X38123809Y-51352380D01*
X38219047Y-51400000D01*
X38266666Y-51447619D01*
X38314285Y-51542857D01*
X38361904Y-51733333D01*
X38361904Y-51971428D01*
X38314285Y-52161904D01*
X38266666Y-52257142D01*
X38219047Y-52304761D01*
X38123809Y-52352380D01*
X38028571Y-52352380D01*
X37933333Y-52304761D01*
X37885714Y-52257142D01*
X37838095Y-52161904D01*
X37790476Y-51971428D01*
X37790476Y-51733333D01*
X37838095Y-51542857D01*
X37885714Y-51447619D01*
X37933333Y-51400000D01*
X38028571Y-51352380D01*
X36557142Y-45652380D02*
X36223809Y-45176190D01*
X35985714Y-45652380D02*
X35985714Y-44652380D01*
X36366666Y-44652380D01*
X36461904Y-44700000D01*
X36509523Y-44747619D01*
X36557142Y-44842857D01*
X36557142Y-44985714D01*
X36509523Y-45080952D01*
X36461904Y-45128571D01*
X36366666Y-45176190D01*
X35985714Y-45176190D01*
X37414285Y-44985714D02*
X37414285Y-45652380D01*
X37176190Y-44604761D02*
X36938095Y-45319047D01*
X37557142Y-45319047D01*
X37890476Y-44747619D02*
X37938095Y-44700000D01*
X38033333Y-44652380D01*
X38271428Y-44652380D01*
X38366666Y-44700000D01*
X38414285Y-44747619D01*
X38461904Y-44842857D01*
X38461904Y-44938095D01*
X38414285Y-45080952D01*
X37842857Y-45652380D01*
X38461904Y-45652380D01*
X36557142Y-48352380D02*
X36223809Y-47876190D01*
X35985714Y-48352380D02*
X35985714Y-47352380D01*
X36366666Y-47352380D01*
X36461904Y-47400000D01*
X36509523Y-47447619D01*
X36557142Y-47542857D01*
X36557142Y-47685714D01*
X36509523Y-47780952D01*
X36461904Y-47828571D01*
X36366666Y-47876190D01*
X35985714Y-47876190D01*
X37414285Y-47685714D02*
X37414285Y-48352380D01*
X37176190Y-47304761D02*
X36938095Y-48019047D01*
X37557142Y-48019047D01*
X37842857Y-47352380D02*
X38461904Y-47352380D01*
X38128571Y-47733333D01*
X38271428Y-47733333D01*
X38366666Y-47780952D01*
X38414285Y-47828571D01*
X38461904Y-47923809D01*
X38461904Y-48161904D01*
X38414285Y-48257142D01*
X38366666Y-48304761D01*
X38271428Y-48352380D01*
X37985714Y-48352380D01*
X37890476Y-48304761D01*
X37842857Y-48257142D01*
X36557142Y-41652380D02*
X36223809Y-41176190D01*
X35985714Y-41652380D02*
X35985714Y-40652380D01*
X36366666Y-40652380D01*
X36461904Y-40700000D01*
X36509523Y-40747619D01*
X36557142Y-40842857D01*
X36557142Y-40985714D01*
X36509523Y-41080952D01*
X36461904Y-41128571D01*
X36366666Y-41176190D01*
X35985714Y-41176190D01*
X37414285Y-40985714D02*
X37414285Y-41652380D01*
X37176190Y-40604761D02*
X36938095Y-41319047D01*
X37557142Y-41319047D01*
X38414285Y-40652380D02*
X37938095Y-40652380D01*
X37890476Y-41128571D01*
X37938095Y-41080952D01*
X38033333Y-41033333D01*
X38271428Y-41033333D01*
X38366666Y-41080952D01*
X38414285Y-41128571D01*
X38461904Y-41223809D01*
X38461904Y-41461904D01*
X38414285Y-41557142D01*
X38366666Y-41604761D01*
X38271428Y-41652380D01*
X38033333Y-41652380D01*
X37938095Y-41604761D01*
X37890476Y-41557142D01*
X36557142Y-44452380D02*
X36223809Y-43976190D01*
X35985714Y-44452380D02*
X35985714Y-43452380D01*
X36366666Y-43452380D01*
X36461904Y-43500000D01*
X36509523Y-43547619D01*
X36557142Y-43642857D01*
X36557142Y-43785714D01*
X36509523Y-43880952D01*
X36461904Y-43928571D01*
X36366666Y-43976190D01*
X35985714Y-43976190D01*
X37414285Y-43785714D02*
X37414285Y-44452380D01*
X37176190Y-43404761D02*
X36938095Y-44119047D01*
X37557142Y-44119047D01*
X38366666Y-43452380D02*
X38176190Y-43452380D01*
X38080952Y-43500000D01*
X38033333Y-43547619D01*
X37938095Y-43690476D01*
X37890476Y-43880952D01*
X37890476Y-44261904D01*
X37938095Y-44357142D01*
X37985714Y-44404761D01*
X38080952Y-44452380D01*
X38271428Y-44452380D01*
X38366666Y-44404761D01*
X38414285Y-44357142D01*
X38461904Y-44261904D01*
X38461904Y-44023809D01*
X38414285Y-43928571D01*
X38366666Y-43880952D01*
X38271428Y-43833333D01*
X38080952Y-43833333D01*
X37985714Y-43880952D01*
X37938095Y-43928571D01*
X37890476Y-44023809D01*
X36557142Y-37652380D02*
X36223809Y-37176190D01*
X35985714Y-37652380D02*
X35985714Y-36652380D01*
X36366666Y-36652380D01*
X36461904Y-36700000D01*
X36509523Y-36747619D01*
X36557142Y-36842857D01*
X36557142Y-36985714D01*
X36509523Y-37080952D01*
X36461904Y-37128571D01*
X36366666Y-37176190D01*
X35985714Y-37176190D01*
X37414285Y-36985714D02*
X37414285Y-37652380D01*
X37176190Y-36604761D02*
X36938095Y-37319047D01*
X37557142Y-37319047D01*
X38080952Y-37080952D02*
X37985714Y-37033333D01*
X37938095Y-36985714D01*
X37890476Y-36890476D01*
X37890476Y-36842857D01*
X37938095Y-36747619D01*
X37985714Y-36700000D01*
X38080952Y-36652380D01*
X38271428Y-36652380D01*
X38366666Y-36700000D01*
X38414285Y-36747619D01*
X38461904Y-36842857D01*
X38461904Y-36890476D01*
X38414285Y-36985714D01*
X38366666Y-37033333D01*
X38271428Y-37080952D01*
X38080952Y-37080952D01*
X37985714Y-37128571D01*
X37938095Y-37176190D01*
X37890476Y-37271428D01*
X37890476Y-37461904D01*
X37938095Y-37557142D01*
X37985714Y-37604761D01*
X38080952Y-37652380D01*
X38271428Y-37652380D01*
X38366666Y-37604761D01*
X38414285Y-37557142D01*
X38461904Y-37461904D01*
X38461904Y-37271428D01*
X38414285Y-37176190D01*
X38366666Y-37128571D01*
X38271428Y-37080952D01*
X36557142Y-40352380D02*
X36223809Y-39876190D01*
X35985714Y-40352380D02*
X35985714Y-39352380D01*
X36366666Y-39352380D01*
X36461904Y-39400000D01*
X36509523Y-39447619D01*
X36557142Y-39542857D01*
X36557142Y-39685714D01*
X36509523Y-39780952D01*
X36461904Y-39828571D01*
X36366666Y-39876190D01*
X35985714Y-39876190D01*
X37414285Y-39685714D02*
X37414285Y-40352380D01*
X37176190Y-39304761D02*
X36938095Y-40019047D01*
X37557142Y-40019047D01*
X37985714Y-40352380D02*
X38176190Y-40352380D01*
X38271428Y-40304761D01*
X38319047Y-40257142D01*
X38414285Y-40114285D01*
X38461904Y-39923809D01*
X38461904Y-39542857D01*
X38414285Y-39447619D01*
X38366666Y-39400000D01*
X38271428Y-39352380D01*
X38080952Y-39352380D01*
X37985714Y-39400000D01*
X37938095Y-39447619D01*
X37890476Y-39542857D01*
X37890476Y-39780952D01*
X37938095Y-39876190D01*
X37985714Y-39923809D01*
X38080952Y-39971428D01*
X38271428Y-39971428D01*
X38366666Y-39923809D01*
X38414285Y-39876190D01*
X38461904Y-39780952D01*
X36457142Y-33652380D02*
X36123809Y-33176190D01*
X35885714Y-33652380D02*
X35885714Y-32652380D01*
X36266666Y-32652380D01*
X36361904Y-32700000D01*
X36409523Y-32747619D01*
X36457142Y-32842857D01*
X36457142Y-32985714D01*
X36409523Y-33080952D01*
X36361904Y-33128571D01*
X36266666Y-33176190D01*
X35885714Y-33176190D01*
X37361904Y-32652380D02*
X36885714Y-32652380D01*
X36838095Y-33128571D01*
X36885714Y-33080952D01*
X36980952Y-33033333D01*
X37219047Y-33033333D01*
X37314285Y-33080952D01*
X37361904Y-33128571D01*
X37409523Y-33223809D01*
X37409523Y-33461904D01*
X37361904Y-33557142D01*
X37314285Y-33604761D01*
X37219047Y-33652380D01*
X36980952Y-33652380D01*
X36885714Y-33604761D01*
X36838095Y-33557142D01*
X38361904Y-33652380D02*
X37790476Y-33652380D01*
X38076190Y-33652380D02*
X38076190Y-32652380D01*
X37980952Y-32795238D01*
X37885714Y-32890476D01*
X37790476Y-32938095D01*
X36457142Y-36352380D02*
X36123809Y-35876190D01*
X35885714Y-36352380D02*
X35885714Y-35352380D01*
X36266666Y-35352380D01*
X36361904Y-35400000D01*
X36409523Y-35447619D01*
X36457142Y-35542857D01*
X36457142Y-35685714D01*
X36409523Y-35780952D01*
X36361904Y-35828571D01*
X36266666Y-35876190D01*
X35885714Y-35876190D01*
X37361904Y-35352380D02*
X36885714Y-35352380D01*
X36838095Y-35828571D01*
X36885714Y-35780952D01*
X36980952Y-35733333D01*
X37219047Y-35733333D01*
X37314285Y-35780952D01*
X37361904Y-35828571D01*
X37409523Y-35923809D01*
X37409523Y-36161904D01*
X37361904Y-36257142D01*
X37314285Y-36304761D01*
X37219047Y-36352380D01*
X36980952Y-36352380D01*
X36885714Y-36304761D01*
X36838095Y-36257142D01*
X37790476Y-35447619D02*
X37838095Y-35400000D01*
X37933333Y-35352380D01*
X38171428Y-35352380D01*
X38266666Y-35400000D01*
X38314285Y-35447619D01*
X38361904Y-35542857D01*
X38361904Y-35638095D01*
X38314285Y-35780952D01*
X37742857Y-36352380D01*
X38361904Y-36352380D01*
X46152380Y-35342857D02*
X45676190Y-35676190D01*
X46152380Y-35914285D02*
X45152380Y-35914285D01*
X45152380Y-35533333D01*
X45200000Y-35438095D01*
X45247619Y-35390476D01*
X45342857Y-35342857D01*
X45485714Y-35342857D01*
X45580952Y-35390476D01*
X45628571Y-35438095D01*
X45676190Y-35533333D01*
X45676190Y-35914285D01*
X45152380Y-34438095D02*
X45152380Y-34914285D01*
X45628571Y-34961904D01*
X45580952Y-34914285D01*
X45533333Y-34819047D01*
X45533333Y-34580952D01*
X45580952Y-34485714D01*
X45628571Y-34438095D01*
X45723809Y-34390476D01*
X45961904Y-34390476D01*
X46057142Y-34438095D01*
X46104761Y-34485714D01*
X46152380Y-34580952D01*
X46152380Y-34819047D01*
X46104761Y-34914285D01*
X46057142Y-34961904D01*
X45485714Y-33533333D02*
X46152380Y-33533333D01*
X45104761Y-33771428D02*
X45819047Y-34009523D01*
X45819047Y-33390476D01*
X43452380Y-35342857D02*
X42976190Y-35676190D01*
X43452380Y-35914285D02*
X42452380Y-35914285D01*
X42452380Y-35533333D01*
X42500000Y-35438095D01*
X42547619Y-35390476D01*
X42642857Y-35342857D01*
X42785714Y-35342857D01*
X42880952Y-35390476D01*
X42928571Y-35438095D01*
X42976190Y-35533333D01*
X42976190Y-35914285D01*
X42452380Y-34438095D02*
X42452380Y-34914285D01*
X42928571Y-34961904D01*
X42880952Y-34914285D01*
X42833333Y-34819047D01*
X42833333Y-34580952D01*
X42880952Y-34485714D01*
X42928571Y-34438095D01*
X43023809Y-34390476D01*
X43261904Y-34390476D01*
X43357142Y-34438095D01*
X43404761Y-34485714D01*
X43452380Y-34580952D01*
X43452380Y-34819047D01*
X43404761Y-34914285D01*
X43357142Y-34961904D01*
X42452380Y-33485714D02*
X42452380Y-33961904D01*
X42928571Y-34009523D01*
X42880952Y-33961904D01*
X42833333Y-33866666D01*
X42833333Y-33628571D01*
X42880952Y-33533333D01*
X42928571Y-33485714D01*
X43023809Y-33438095D01*
X43261904Y-33438095D01*
X43357142Y-33485714D01*
X43404761Y-33533333D01*
X43452380Y-33628571D01*
X43452380Y-33866666D01*
X43404761Y-33961904D01*
X43357142Y-34009523D01*
X50152380Y-35442857D02*
X49676190Y-35776190D01*
X50152380Y-36014285D02*
X49152380Y-36014285D01*
X49152380Y-35633333D01*
X49200000Y-35538095D01*
X49247619Y-35490476D01*
X49342857Y-35442857D01*
X49485714Y-35442857D01*
X49580952Y-35490476D01*
X49628571Y-35538095D01*
X49676190Y-35633333D01*
X49676190Y-36014285D01*
X49152380Y-34538095D02*
X49152380Y-35014285D01*
X49628571Y-35061904D01*
X49580952Y-35014285D01*
X49533333Y-34919047D01*
X49533333Y-34680952D01*
X49580952Y-34585714D01*
X49628571Y-34538095D01*
X49723809Y-34490476D01*
X49961904Y-34490476D01*
X50057142Y-34538095D01*
X50104761Y-34585714D01*
X50152380Y-34680952D01*
X50152380Y-34919047D01*
X50104761Y-35014285D01*
X50057142Y-35061904D01*
X49152380Y-34157142D02*
X49152380Y-33490476D01*
X50152380Y-33919047D01*
X47452380Y-35442857D02*
X46976190Y-35776190D01*
X47452380Y-36014285D02*
X46452380Y-36014285D01*
X46452380Y-35633333D01*
X46500000Y-35538095D01*
X46547619Y-35490476D01*
X46642857Y-35442857D01*
X46785714Y-35442857D01*
X46880952Y-35490476D01*
X46928571Y-35538095D01*
X46976190Y-35633333D01*
X46976190Y-36014285D01*
X46452380Y-34538095D02*
X46452380Y-35014285D01*
X46928571Y-35061904D01*
X46880952Y-35014285D01*
X46833333Y-34919047D01*
X46833333Y-34680952D01*
X46880952Y-34585714D01*
X46928571Y-34538095D01*
X47023809Y-34490476D01*
X47261904Y-34490476D01*
X47357142Y-34538095D01*
X47404761Y-34585714D01*
X47452380Y-34680952D01*
X47452380Y-34919047D01*
X47404761Y-35014285D01*
X47357142Y-35061904D01*
X46880952Y-33919047D02*
X46833333Y-34014285D01*
X46785714Y-34061904D01*
X46690476Y-34109523D01*
X46642857Y-34109523D01*
X46547619Y-34061904D01*
X46500000Y-34014285D01*
X46452380Y-33919047D01*
X46452380Y-33728571D01*
X46500000Y-33633333D01*
X46547619Y-33585714D01*
X46642857Y-33538095D01*
X46690476Y-33538095D01*
X46785714Y-33585714D01*
X46833333Y-33633333D01*
X46880952Y-33728571D01*
X46880952Y-33919047D01*
X46928571Y-34014285D01*
X46976190Y-34061904D01*
X47071428Y-34109523D01*
X47261904Y-34109523D01*
X47357142Y-34061904D01*
X47404761Y-34014285D01*
X47452380Y-33919047D01*
X47452380Y-33728571D01*
X47404761Y-33633333D01*
X47357142Y-33585714D01*
X47261904Y-33538095D01*
X47071428Y-33538095D01*
X46976190Y-33585714D01*
X46928571Y-33633333D01*
X46880952Y-33728571D01*
X54252380Y-35342857D02*
X53776190Y-35676190D01*
X54252380Y-35914285D02*
X53252380Y-35914285D01*
X53252380Y-35533333D01*
X53300000Y-35438095D01*
X53347619Y-35390476D01*
X53442857Y-35342857D01*
X53585714Y-35342857D01*
X53680952Y-35390476D01*
X53728571Y-35438095D01*
X53776190Y-35533333D01*
X53776190Y-35914285D01*
X53252380Y-34485714D02*
X53252380Y-34676190D01*
X53300000Y-34771428D01*
X53347619Y-34819047D01*
X53490476Y-34914285D01*
X53680952Y-34961904D01*
X54061904Y-34961904D01*
X54157142Y-34914285D01*
X54204761Y-34866666D01*
X54252380Y-34771428D01*
X54252380Y-34580952D01*
X54204761Y-34485714D01*
X54157142Y-34438095D01*
X54061904Y-34390476D01*
X53823809Y-34390476D01*
X53728571Y-34438095D01*
X53680952Y-34485714D01*
X53633333Y-34580952D01*
X53633333Y-34771428D01*
X53680952Y-34866666D01*
X53728571Y-34914285D01*
X53823809Y-34961904D01*
X53252380Y-33771428D02*
X53252380Y-33676190D01*
X53300000Y-33580952D01*
X53347619Y-33533333D01*
X53442857Y-33485714D01*
X53633333Y-33438095D01*
X53871428Y-33438095D01*
X54061904Y-33485714D01*
X54157142Y-33533333D01*
X54204761Y-33580952D01*
X54252380Y-33676190D01*
X54252380Y-33771428D01*
X54204761Y-33866666D01*
X54157142Y-33914285D01*
X54061904Y-33961904D01*
X53871428Y-34009523D01*
X53633333Y-34009523D01*
X53442857Y-33961904D01*
X53347619Y-33914285D01*
X53300000Y-33866666D01*
X53252380Y-33771428D01*
X51552380Y-35442857D02*
X51076190Y-35776190D01*
X51552380Y-36014285D02*
X50552380Y-36014285D01*
X50552380Y-35633333D01*
X50600000Y-35538095D01*
X50647619Y-35490476D01*
X50742857Y-35442857D01*
X50885714Y-35442857D01*
X50980952Y-35490476D01*
X51028571Y-35538095D01*
X51076190Y-35633333D01*
X51076190Y-36014285D01*
X50552380Y-34585714D02*
X50552380Y-34776190D01*
X50600000Y-34871428D01*
X50647619Y-34919047D01*
X50790476Y-35014285D01*
X50980952Y-35061904D01*
X51361904Y-35061904D01*
X51457142Y-35014285D01*
X51504761Y-34966666D01*
X51552380Y-34871428D01*
X51552380Y-34680952D01*
X51504761Y-34585714D01*
X51457142Y-34538095D01*
X51361904Y-34490476D01*
X51123809Y-34490476D01*
X51028571Y-34538095D01*
X50980952Y-34585714D01*
X50933333Y-34680952D01*
X50933333Y-34871428D01*
X50980952Y-34966666D01*
X51028571Y-35014285D01*
X51123809Y-35061904D01*
X51552380Y-33538095D02*
X51552380Y-34109523D01*
X51552380Y-33823809D02*
X50552380Y-33823809D01*
X50695238Y-33919047D01*
X50790476Y-34014285D01*
X50838095Y-34109523D01*
X62152380Y-35742857D02*
X61676190Y-36076190D01*
X62152380Y-36314285D02*
X61152380Y-36314285D01*
X61152380Y-35933333D01*
X61200000Y-35838095D01*
X61247619Y-35790476D01*
X61342857Y-35742857D01*
X61485714Y-35742857D01*
X61580952Y-35790476D01*
X61628571Y-35838095D01*
X61676190Y-35933333D01*
X61676190Y-36314285D01*
X61152380Y-34885714D02*
X61152380Y-35076190D01*
X61200000Y-35171428D01*
X61247619Y-35219047D01*
X61390476Y-35314285D01*
X61580952Y-35361904D01*
X61961904Y-35361904D01*
X62057142Y-35314285D01*
X62104761Y-35266666D01*
X62152380Y-35171428D01*
X62152380Y-34980952D01*
X62104761Y-34885714D01*
X62057142Y-34838095D01*
X61961904Y-34790476D01*
X61723809Y-34790476D01*
X61628571Y-34838095D01*
X61580952Y-34885714D01*
X61533333Y-34980952D01*
X61533333Y-35171428D01*
X61580952Y-35266666D01*
X61628571Y-35314285D01*
X61723809Y-35361904D01*
X61152380Y-33933333D02*
X61152380Y-34123809D01*
X61200000Y-34219047D01*
X61247619Y-34266666D01*
X61390476Y-34361904D01*
X61580952Y-34409523D01*
X61961904Y-34409523D01*
X62057142Y-34361904D01*
X62104761Y-34314285D01*
X62152380Y-34219047D01*
X62152380Y-34028571D01*
X62104761Y-33933333D01*
X62057142Y-33885714D01*
X61961904Y-33838095D01*
X61723809Y-33838095D01*
X61628571Y-33885714D01*
X61580952Y-33933333D01*
X61533333Y-34028571D01*
X61533333Y-34219047D01*
X61580952Y-34314285D01*
X61628571Y-34361904D01*
X61723809Y-34409523D01*
X59452380Y-35742857D02*
X58976190Y-36076190D01*
X59452380Y-36314285D02*
X58452380Y-36314285D01*
X58452380Y-35933333D01*
X58500000Y-35838095D01*
X58547619Y-35790476D01*
X58642857Y-35742857D01*
X58785714Y-35742857D01*
X58880952Y-35790476D01*
X58928571Y-35838095D01*
X58976190Y-35933333D01*
X58976190Y-36314285D01*
X58452380Y-34885714D02*
X58452380Y-35076190D01*
X58500000Y-35171428D01*
X58547619Y-35219047D01*
X58690476Y-35314285D01*
X58880952Y-35361904D01*
X59261904Y-35361904D01*
X59357142Y-35314285D01*
X59404761Y-35266666D01*
X59452380Y-35171428D01*
X59452380Y-34980952D01*
X59404761Y-34885714D01*
X59357142Y-34838095D01*
X59261904Y-34790476D01*
X59023809Y-34790476D01*
X58928571Y-34838095D01*
X58880952Y-34885714D01*
X58833333Y-34980952D01*
X58833333Y-35171428D01*
X58880952Y-35266666D01*
X58928571Y-35314285D01*
X59023809Y-35361904D01*
X58452380Y-34457142D02*
X58452380Y-33790476D01*
X59452380Y-34219047D01*
X66152380Y-35742857D02*
X65676190Y-36076190D01*
X66152380Y-36314285D02*
X65152380Y-36314285D01*
X65152380Y-35933333D01*
X65200000Y-35838095D01*
X65247619Y-35790476D01*
X65342857Y-35742857D01*
X65485714Y-35742857D01*
X65580952Y-35790476D01*
X65628571Y-35838095D01*
X65676190Y-35933333D01*
X65676190Y-36314285D01*
X65152380Y-34885714D02*
X65152380Y-35076190D01*
X65200000Y-35171428D01*
X65247619Y-35219047D01*
X65390476Y-35314285D01*
X65580952Y-35361904D01*
X65961904Y-35361904D01*
X66057142Y-35314285D01*
X66104761Y-35266666D01*
X66152380Y-35171428D01*
X66152380Y-34980952D01*
X66104761Y-34885714D01*
X66057142Y-34838095D01*
X65961904Y-34790476D01*
X65723809Y-34790476D01*
X65628571Y-34838095D01*
X65580952Y-34885714D01*
X65533333Y-34980952D01*
X65533333Y-35171428D01*
X65580952Y-35266666D01*
X65628571Y-35314285D01*
X65723809Y-35361904D01*
X66152380Y-34314285D02*
X66152380Y-34123809D01*
X66104761Y-34028571D01*
X66057142Y-33980952D01*
X65914285Y-33885714D01*
X65723809Y-33838095D01*
X65342857Y-33838095D01*
X65247619Y-33885714D01*
X65200000Y-33933333D01*
X65152380Y-34028571D01*
X65152380Y-34219047D01*
X65200000Y-34314285D01*
X65247619Y-34361904D01*
X65342857Y-34409523D01*
X65580952Y-34409523D01*
X65676190Y-34361904D01*
X65723809Y-34314285D01*
X65771428Y-34219047D01*
X65771428Y-34028571D01*
X65723809Y-33933333D01*
X65676190Y-33885714D01*
X65580952Y-33838095D01*
X63452380Y-35642857D02*
X62976190Y-35976190D01*
X63452380Y-36214285D02*
X62452380Y-36214285D01*
X62452380Y-35833333D01*
X62500000Y-35738095D01*
X62547619Y-35690476D01*
X62642857Y-35642857D01*
X62785714Y-35642857D01*
X62880952Y-35690476D01*
X62928571Y-35738095D01*
X62976190Y-35833333D01*
X62976190Y-36214285D01*
X62452380Y-35309523D02*
X62452380Y-34642857D01*
X63452380Y-35071428D01*
X62452380Y-34071428D02*
X62452380Y-33976190D01*
X62500000Y-33880952D01*
X62547619Y-33833333D01*
X62642857Y-33785714D01*
X62833333Y-33738095D01*
X63071428Y-33738095D01*
X63261904Y-33785714D01*
X63357142Y-33833333D01*
X63404761Y-33880952D01*
X63452380Y-33976190D01*
X63452380Y-34071428D01*
X63404761Y-34166666D01*
X63357142Y-34214285D01*
X63261904Y-34261904D01*
X63071428Y-34309523D01*
X62833333Y-34309523D01*
X62642857Y-34261904D01*
X62547619Y-34214285D01*
X62500000Y-34166666D01*
X62452380Y-34071428D01*
X70093782Y-39622502D02*
X70046163Y-39670121D01*
X69903306Y-39717740D01*
X69808068Y-39717740D01*
X69665211Y-39670121D01*
X69569973Y-39574883D01*
X69522354Y-39479645D01*
X69474735Y-39289169D01*
X69474735Y-39146312D01*
X69522354Y-38955836D01*
X69569973Y-38860598D01*
X69665211Y-38765360D01*
X69808068Y-38717740D01*
X69903306Y-38717740D01*
X70046163Y-38765360D01*
X70093782Y-38812979D01*
X71046163Y-39717740D02*
X70474735Y-39717740D01*
X70760449Y-39717740D02*
X70760449Y-38717740D01*
X70665211Y-38860598D01*
X70569973Y-38955836D01*
X70474735Y-39003455D01*
X71950925Y-38717740D02*
X71474735Y-38717740D01*
X71427116Y-39193931D01*
X71474735Y-39146312D01*
X71569973Y-39098693D01*
X71808068Y-39098693D01*
X71903306Y-39146312D01*
X71950925Y-39193931D01*
X71998544Y-39289169D01*
X71998544Y-39527264D01*
X71950925Y-39622502D01*
X71903306Y-39670121D01*
X71808068Y-39717740D01*
X71569973Y-39717740D01*
X71474735Y-39670121D01*
X71427116Y-39622502D01*
X70850702Y-48533142D02*
X70803083Y-48580761D01*
X70660226Y-48628380D01*
X70564988Y-48628380D01*
X70422131Y-48580761D01*
X70326893Y-48485523D01*
X70279274Y-48390285D01*
X70231655Y-48199809D01*
X70231655Y-48056952D01*
X70279274Y-47866476D01*
X70326893Y-47771238D01*
X70422131Y-47676000D01*
X70564988Y-47628380D01*
X70660226Y-47628380D01*
X70803083Y-47676000D01*
X70850702Y-47723619D01*
X71803083Y-48628380D02*
X71231655Y-48628380D01*
X71517369Y-48628380D02*
X71517369Y-47628380D01*
X71422131Y-47771238D01*
X71326893Y-47866476D01*
X71231655Y-47914095D01*
X72660226Y-47628380D02*
X72469750Y-47628380D01*
X72374512Y-47676000D01*
X72326893Y-47723619D01*
X72231655Y-47866476D01*
X72184036Y-48056952D01*
X72184036Y-48437904D01*
X72231655Y-48533142D01*
X72279274Y-48580761D01*
X72374512Y-48628380D01*
X72564988Y-48628380D01*
X72660226Y-48580761D01*
X72707845Y-48533142D01*
X72755464Y-48437904D01*
X72755464Y-48199809D01*
X72707845Y-48104571D01*
X72660226Y-48056952D01*
X72564988Y-48009333D01*
X72374512Y-48009333D01*
X72279274Y-48056952D01*
X72231655Y-48104571D01*
X72184036Y-48199809D01*
X66878980Y-41066777D02*
X66402790Y-41400110D01*
X66878980Y-41638205D02*
X65878980Y-41638205D01*
X65878980Y-41257253D01*
X65926600Y-41162015D01*
X65974219Y-41114396D01*
X66069457Y-41066777D01*
X66212314Y-41066777D01*
X66307552Y-41114396D01*
X66355171Y-41162015D01*
X66402790Y-41257253D01*
X66402790Y-41638205D01*
X66878980Y-40114396D02*
X66878980Y-40685824D01*
X66878980Y-40400110D02*
X65878980Y-40400110D01*
X66021838Y-40495348D01*
X66117076Y-40590586D01*
X66164695Y-40685824D01*
X65878980Y-39209634D02*
X65878980Y-39685824D01*
X66355171Y-39733443D01*
X66307552Y-39685824D01*
X66259933Y-39590586D01*
X66259933Y-39352491D01*
X66307552Y-39257253D01*
X66355171Y-39209634D01*
X66450409Y-39162015D01*
X66688504Y-39162015D01*
X66783742Y-39209634D01*
X66831361Y-39257253D01*
X66878980Y-39352491D01*
X66878980Y-39590586D01*
X66831361Y-39685824D01*
X66783742Y-39733443D01*
X67219340Y-47020537D02*
X66743150Y-47353870D01*
X67219340Y-47591965D02*
X66219340Y-47591965D01*
X66219340Y-47211013D01*
X66266960Y-47115775D01*
X66314579Y-47068156D01*
X66409817Y-47020537D01*
X66552674Y-47020537D01*
X66647912Y-47068156D01*
X66695531Y-47115775D01*
X66743150Y-47211013D01*
X66743150Y-47591965D01*
X67219340Y-46068156D02*
X67219340Y-46639584D01*
X67219340Y-46353870D02*
X66219340Y-46353870D01*
X66362198Y-46449108D01*
X66457436Y-46544346D01*
X66505055Y-46639584D01*
X66219340Y-45211013D02*
X66219340Y-45401489D01*
X66266960Y-45496727D01*
X66314579Y-45544346D01*
X66457436Y-45639584D01*
X66647912Y-45687203D01*
X67028864Y-45687203D01*
X67124102Y-45639584D01*
X67171721Y-45591965D01*
X67219340Y-45496727D01*
X67219340Y-45306251D01*
X67171721Y-45211013D01*
X67124102Y-45163394D01*
X67028864Y-45115775D01*
X66790769Y-45115775D01*
X66695531Y-45163394D01*
X66647912Y-45211013D01*
X66600293Y-45306251D01*
X66600293Y-45496727D01*
X66647912Y-45591965D01*
X66695531Y-45639584D01*
X66790769Y-45687203D01*
X69057142Y-36042857D02*
X69104761Y-36090476D01*
X69152380Y-36233333D01*
X69152380Y-36328571D01*
X69104761Y-36471428D01*
X69009523Y-36566666D01*
X68914285Y-36614285D01*
X68723809Y-36661904D01*
X68580952Y-36661904D01*
X68390476Y-36614285D01*
X68295238Y-36566666D01*
X68200000Y-36471428D01*
X68152380Y-36328571D01*
X68152380Y-36233333D01*
X68200000Y-36090476D01*
X68247619Y-36042857D01*
X69152380Y-35090476D02*
X69152380Y-35661904D01*
X69152380Y-35376190D02*
X68152380Y-35376190D01*
X68295238Y-35471428D01*
X68390476Y-35566666D01*
X68438095Y-35661904D01*
X68152380Y-34471428D02*
X68152380Y-34376190D01*
X68200000Y-34280952D01*
X68247619Y-34233333D01*
X68342857Y-34185714D01*
X68533333Y-34138095D01*
X68771428Y-34138095D01*
X68961904Y-34185714D01*
X69057142Y-34233333D01*
X69104761Y-34280952D01*
X69152380Y-34376190D01*
X69152380Y-34471428D01*
X69104761Y-34566666D01*
X69057142Y-34614285D01*
X68961904Y-34661904D01*
X68771428Y-34709523D01*
X68533333Y-34709523D01*
X68342857Y-34661904D01*
X68247619Y-34614285D01*
X68200000Y-34566666D01*
X68152380Y-34471428D01*
X70770542Y-66053182D02*
X70722923Y-66100801D01*
X70580066Y-66148420D01*
X70484828Y-66148420D01*
X70341971Y-66100801D01*
X70246733Y-66005563D01*
X70199114Y-65910325D01*
X70151495Y-65719849D01*
X70151495Y-65576992D01*
X70199114Y-65386516D01*
X70246733Y-65291278D01*
X70341971Y-65196040D01*
X70484828Y-65148420D01*
X70580066Y-65148420D01*
X70722923Y-65196040D01*
X70770542Y-65243659D01*
X71722923Y-66148420D02*
X71151495Y-66148420D01*
X71437209Y-66148420D02*
X71437209Y-65148420D01*
X71341971Y-65291278D01*
X71246733Y-65386516D01*
X71151495Y-65434135D01*
X72056257Y-65148420D02*
X72675304Y-65148420D01*
X72341971Y-65529373D01*
X72484828Y-65529373D01*
X72580066Y-65576992D01*
X72627685Y-65624611D01*
X72675304Y-65719849D01*
X72675304Y-65957944D01*
X72627685Y-66053182D01*
X72580066Y-66100801D01*
X72484828Y-66148420D01*
X72199114Y-66148420D01*
X72103876Y-66100801D01*
X72056257Y-66053182D01*
X70795942Y-67556862D02*
X70748323Y-67604481D01*
X70605466Y-67652100D01*
X70510228Y-67652100D01*
X70367371Y-67604481D01*
X70272133Y-67509243D01*
X70224514Y-67414005D01*
X70176895Y-67223529D01*
X70176895Y-67080672D01*
X70224514Y-66890196D01*
X70272133Y-66794958D01*
X70367371Y-66699720D01*
X70510228Y-66652100D01*
X70605466Y-66652100D01*
X70748323Y-66699720D01*
X70795942Y-66747339D01*
X71748323Y-67652100D02*
X71176895Y-67652100D01*
X71462609Y-67652100D02*
X71462609Y-66652100D01*
X71367371Y-66794958D01*
X71272133Y-66890196D01*
X71176895Y-66937815D01*
X72605466Y-66985434D02*
X72605466Y-67652100D01*
X72367371Y-66604481D02*
X72129276Y-67318767D01*
X72748323Y-67318767D01*
X62257300Y-84413177D02*
X61781110Y-84746510D01*
X62257300Y-84984605D02*
X61257300Y-84984605D01*
X61257300Y-84603653D01*
X61304920Y-84508415D01*
X61352539Y-84460796D01*
X61447777Y-84413177D01*
X61590634Y-84413177D01*
X61685872Y-84460796D01*
X61733491Y-84508415D01*
X61781110Y-84603653D01*
X61781110Y-84984605D01*
X62257300Y-83460796D02*
X62257300Y-84032224D01*
X62257300Y-83746510D02*
X61257300Y-83746510D01*
X61400158Y-83841748D01*
X61495396Y-83936986D01*
X61543015Y-84032224D01*
X61257300Y-82841748D02*
X61257300Y-82746510D01*
X61304920Y-82651272D01*
X61352539Y-82603653D01*
X61447777Y-82556034D01*
X61638253Y-82508415D01*
X61876348Y-82508415D01*
X62066824Y-82556034D01*
X62162062Y-82603653D01*
X62209681Y-82651272D01*
X62257300Y-82746510D01*
X62257300Y-82841748D01*
X62209681Y-82936986D01*
X62162062Y-82984605D01*
X62066824Y-83032224D01*
X61876348Y-83079843D01*
X61638253Y-83079843D01*
X61447777Y-83032224D01*
X61352539Y-82984605D01*
X61304920Y-82936986D01*
X61257300Y-82841748D01*
X69152380Y-31942857D02*
X68676190Y-32276190D01*
X69152380Y-32514285D02*
X68152380Y-32514285D01*
X68152380Y-32133333D01*
X68200000Y-32038095D01*
X68247619Y-31990476D01*
X68342857Y-31942857D01*
X68485714Y-31942857D01*
X68580952Y-31990476D01*
X68628571Y-32038095D01*
X68676190Y-32133333D01*
X68676190Y-32514285D01*
X69152380Y-30990476D02*
X69152380Y-31561904D01*
X69152380Y-31276190D02*
X68152380Y-31276190D01*
X68295238Y-31371428D01*
X68390476Y-31466666D01*
X68438095Y-31561904D01*
X69152380Y-30038095D02*
X69152380Y-30609523D01*
X69152380Y-30323809D02*
X68152380Y-30323809D01*
X68295238Y-30419047D01*
X68390476Y-30514285D01*
X68438095Y-30609523D01*
X71439342Y-51722340D02*
X71106009Y-51246150D01*
X70867914Y-51722340D02*
X70867914Y-50722340D01*
X71248866Y-50722340D01*
X71344104Y-50769960D01*
X71391723Y-50817579D01*
X71439342Y-50912817D01*
X71439342Y-51055674D01*
X71391723Y-51150912D01*
X71344104Y-51198531D01*
X71248866Y-51246150D01*
X70867914Y-51246150D01*
X72391723Y-51722340D02*
X71820295Y-51722340D01*
X72106009Y-51722340D02*
X72106009Y-50722340D01*
X72010771Y-50865198D01*
X71915533Y-50960436D01*
X71820295Y-51008055D01*
X72772676Y-50817579D02*
X72820295Y-50769960D01*
X72915533Y-50722340D01*
X73153628Y-50722340D01*
X73248866Y-50769960D01*
X73296485Y-50817579D01*
X73344104Y-50912817D01*
X73344104Y-51008055D01*
X73296485Y-51150912D01*
X72725057Y-51722340D01*
X73344104Y-51722340D01*
X70384462Y-64705700D02*
X70051129Y-64229510D01*
X69813034Y-64705700D02*
X69813034Y-63705700D01*
X70193986Y-63705700D01*
X70289224Y-63753320D01*
X70336843Y-63800939D01*
X70384462Y-63896177D01*
X70384462Y-64039034D01*
X70336843Y-64134272D01*
X70289224Y-64181891D01*
X70193986Y-64229510D01*
X69813034Y-64229510D01*
X71336843Y-64705700D02*
X70765415Y-64705700D01*
X71051129Y-64705700D02*
X71051129Y-63705700D01*
X70955891Y-63848558D01*
X70860653Y-63943796D01*
X70765415Y-63991415D01*
X71670177Y-63705700D02*
X72289224Y-63705700D01*
X71955891Y-64086653D01*
X72098748Y-64086653D01*
X72193986Y-64134272D01*
X72241605Y-64181891D01*
X72289224Y-64277129D01*
X72289224Y-64515224D01*
X72241605Y-64610462D01*
X72193986Y-64658081D01*
X72098748Y-64705700D01*
X71813034Y-64705700D01*
X71717796Y-64658081D01*
X71670177Y-64610462D01*
X71383462Y-53144740D02*
X71050129Y-52668550D01*
X70812034Y-53144740D02*
X70812034Y-52144740D01*
X71192986Y-52144740D01*
X71288224Y-52192360D01*
X71335843Y-52239979D01*
X71383462Y-52335217D01*
X71383462Y-52478074D01*
X71335843Y-52573312D01*
X71288224Y-52620931D01*
X71192986Y-52668550D01*
X70812034Y-52668550D01*
X72335843Y-53144740D02*
X71764415Y-53144740D01*
X72050129Y-53144740D02*
X72050129Y-52144740D01*
X71954891Y-52287598D01*
X71859653Y-52382836D01*
X71764415Y-52430455D01*
X73192986Y-52478074D02*
X73192986Y-53144740D01*
X72954891Y-52097121D02*
X72716796Y-52811407D01*
X73335843Y-52811407D01*
X71327582Y-55625062D02*
X71279963Y-55672681D01*
X71137106Y-55720300D01*
X71041868Y-55720300D01*
X70899011Y-55672681D01*
X70803773Y-55577443D01*
X70756154Y-55482205D01*
X70708535Y-55291729D01*
X70708535Y-55148872D01*
X70756154Y-54958396D01*
X70803773Y-54863158D01*
X70899011Y-54767920D01*
X71041868Y-54720300D01*
X71137106Y-54720300D01*
X71279963Y-54767920D01*
X71327582Y-54815539D01*
X72279963Y-55720300D02*
X71708535Y-55720300D01*
X71994249Y-55720300D02*
X71994249Y-54720300D01*
X71899011Y-54863158D01*
X71803773Y-54958396D01*
X71708535Y-55006015D01*
X73232344Y-55720300D02*
X72660916Y-55720300D01*
X72946630Y-55720300D02*
X72946630Y-54720300D01*
X72851392Y-54863158D01*
X72756154Y-54958396D01*
X72660916Y-55006015D01*
X71368222Y-57138902D02*
X71320603Y-57186521D01*
X71177746Y-57234140D01*
X71082508Y-57234140D01*
X70939651Y-57186521D01*
X70844413Y-57091283D01*
X70796794Y-56996045D01*
X70749175Y-56805569D01*
X70749175Y-56662712D01*
X70796794Y-56472236D01*
X70844413Y-56376998D01*
X70939651Y-56281760D01*
X71082508Y-56234140D01*
X71177746Y-56234140D01*
X71320603Y-56281760D01*
X71368222Y-56329379D01*
X72320603Y-57234140D02*
X71749175Y-57234140D01*
X72034889Y-57234140D02*
X72034889Y-56234140D01*
X71939651Y-56376998D01*
X71844413Y-56472236D01*
X71749175Y-56519855D01*
X72701556Y-56329379D02*
X72749175Y-56281760D01*
X72844413Y-56234140D01*
X73082508Y-56234140D01*
X73177746Y-56281760D01*
X73225365Y-56329379D01*
X73272984Y-56424617D01*
X73272984Y-56519855D01*
X73225365Y-56662712D01*
X72653937Y-57234140D01*
X73272984Y-57234140D01*
X58357142Y-91452380D02*
X58023809Y-90976190D01*
X57785714Y-91452380D02*
X57785714Y-90452380D01*
X58166666Y-90452380D01*
X58261904Y-90500000D01*
X58309523Y-90547619D01*
X58357142Y-90642857D01*
X58357142Y-90785714D01*
X58309523Y-90880952D01*
X58261904Y-90928571D01*
X58166666Y-90976190D01*
X57785714Y-90976190D01*
X59309523Y-91452380D02*
X58738095Y-91452380D01*
X59023809Y-91452380D02*
X59023809Y-90452380D01*
X58928571Y-90595238D01*
X58833333Y-90690476D01*
X58738095Y-90738095D01*
X59642857Y-90452380D02*
X60309523Y-90452380D01*
X59880952Y-91452380D01*
X49557142Y-91452380D02*
X49223809Y-90976190D01*
X48985714Y-91452380D02*
X48985714Y-90452380D01*
X49366666Y-90452380D01*
X49461904Y-90500000D01*
X49509523Y-90547619D01*
X49557142Y-90642857D01*
X49557142Y-90785714D01*
X49509523Y-90880952D01*
X49461904Y-90928571D01*
X49366666Y-90976190D01*
X48985714Y-90976190D01*
X49938095Y-90547619D02*
X49985714Y-90500000D01*
X50080952Y-90452380D01*
X50319047Y-90452380D01*
X50414285Y-90500000D01*
X50461904Y-90547619D01*
X50509523Y-90642857D01*
X50509523Y-90738095D01*
X50461904Y-90880952D01*
X49890476Y-91452380D01*
X50509523Y-91452380D01*
X51128571Y-90452380D02*
X51223809Y-90452380D01*
X51319047Y-90500000D01*
X51366666Y-90547619D01*
X51414285Y-90642857D01*
X51461904Y-90833333D01*
X51461904Y-91071428D01*
X51414285Y-91261904D01*
X51366666Y-91357142D01*
X51319047Y-91404761D01*
X51223809Y-91452380D01*
X51128571Y-91452380D01*
X51033333Y-91404761D01*
X50985714Y-91357142D01*
X50938095Y-91261904D01*
X50890476Y-91071428D01*
X50890476Y-90833333D01*
X50938095Y-90642857D01*
X50985714Y-90547619D01*
X51033333Y-90500000D01*
X51128571Y-90452380D01*
X40557142Y-91352380D02*
X40223809Y-90876190D01*
X39985714Y-91352380D02*
X39985714Y-90352380D01*
X40366666Y-90352380D01*
X40461904Y-90400000D01*
X40509523Y-90447619D01*
X40557142Y-90542857D01*
X40557142Y-90685714D01*
X40509523Y-90780952D01*
X40461904Y-90828571D01*
X40366666Y-90876190D01*
X39985714Y-90876190D01*
X40938095Y-90447619D02*
X40985714Y-90400000D01*
X41080952Y-90352380D01*
X41319047Y-90352380D01*
X41414285Y-90400000D01*
X41461904Y-90447619D01*
X41509523Y-90542857D01*
X41509523Y-90638095D01*
X41461904Y-90780952D01*
X40890476Y-91352380D01*
X41509523Y-91352380D01*
X41842857Y-90352380D02*
X42461904Y-90352380D01*
X42128571Y-90733333D01*
X42271428Y-90733333D01*
X42366666Y-90780952D01*
X42414285Y-90828571D01*
X42461904Y-90923809D01*
X42461904Y-91161904D01*
X42414285Y-91257142D01*
X42366666Y-91304761D01*
X42271428Y-91352380D01*
X41985714Y-91352380D01*
X41890476Y-91304761D01*
X41842857Y-91257142D01*
X14152380Y-91142857D02*
X13676190Y-91476190D01*
X14152380Y-91714285D02*
X13152380Y-91714285D01*
X13152380Y-91333333D01*
X13200000Y-91238095D01*
X13247619Y-91190476D01*
X13342857Y-91142857D01*
X13485714Y-91142857D01*
X13580952Y-91190476D01*
X13628571Y-91238095D01*
X13676190Y-91333333D01*
X13676190Y-91714285D01*
X13247619Y-90761904D02*
X13200000Y-90714285D01*
X13152380Y-90619047D01*
X13152380Y-90380952D01*
X13200000Y-90285714D01*
X13247619Y-90238095D01*
X13342857Y-90190476D01*
X13438095Y-90190476D01*
X13580952Y-90238095D01*
X14152380Y-90809523D01*
X14152380Y-90190476D01*
X13152380Y-89333333D02*
X13152380Y-89523809D01*
X13200000Y-89619047D01*
X13247619Y-89666666D01*
X13390476Y-89761904D01*
X13580952Y-89809523D01*
X13961904Y-89809523D01*
X14057142Y-89761904D01*
X14104761Y-89714285D01*
X14152380Y-89619047D01*
X14152380Y-89428571D01*
X14104761Y-89333333D01*
X14057142Y-89285714D01*
X13961904Y-89238095D01*
X13723809Y-89238095D01*
X13628571Y-89285714D01*
X13580952Y-89333333D01*
X13533333Y-89428571D01*
X13533333Y-89619047D01*
X13580952Y-89714285D01*
X13628571Y-89761904D01*
X13723809Y-89809523D01*
X14152380Y-82342857D02*
X13676190Y-82676190D01*
X14152380Y-82914285D02*
X13152380Y-82914285D01*
X13152380Y-82533333D01*
X13200000Y-82438095D01*
X13247619Y-82390476D01*
X13342857Y-82342857D01*
X13485714Y-82342857D01*
X13580952Y-82390476D01*
X13628571Y-82438095D01*
X13676190Y-82533333D01*
X13676190Y-82914285D01*
X13247619Y-81961904D02*
X13200000Y-81914285D01*
X13152380Y-81819047D01*
X13152380Y-81580952D01*
X13200000Y-81485714D01*
X13247619Y-81438095D01*
X13342857Y-81390476D01*
X13438095Y-81390476D01*
X13580952Y-81438095D01*
X14152380Y-82009523D01*
X14152380Y-81390476D01*
X14152380Y-80914285D02*
X14152380Y-80723809D01*
X14104761Y-80628571D01*
X14057142Y-80580952D01*
X13914285Y-80485714D01*
X13723809Y-80438095D01*
X13342857Y-80438095D01*
X13247619Y-80485714D01*
X13200000Y-80533333D01*
X13152380Y-80628571D01*
X13152380Y-80819047D01*
X13200000Y-80914285D01*
X13247619Y-80961904D01*
X13342857Y-81009523D01*
X13580952Y-81009523D01*
X13676190Y-80961904D01*
X13723809Y-80914285D01*
X13771428Y-80819047D01*
X13771428Y-80628571D01*
X13723809Y-80533333D01*
X13676190Y-80485714D01*
X13580952Y-80438095D01*
X14252380Y-73442857D02*
X13776190Y-73776190D01*
X14252380Y-74014285D02*
X13252380Y-74014285D01*
X13252380Y-73633333D01*
X13300000Y-73538095D01*
X13347619Y-73490476D01*
X13442857Y-73442857D01*
X13585714Y-73442857D01*
X13680952Y-73490476D01*
X13728571Y-73538095D01*
X13776190Y-73633333D01*
X13776190Y-74014285D01*
X13252380Y-73109523D02*
X13252380Y-72490476D01*
X13633333Y-72823809D01*
X13633333Y-72680952D01*
X13680952Y-72585714D01*
X13728571Y-72538095D01*
X13823809Y-72490476D01*
X14061904Y-72490476D01*
X14157142Y-72538095D01*
X14204761Y-72585714D01*
X14252380Y-72680952D01*
X14252380Y-72966666D01*
X14204761Y-73061904D01*
X14157142Y-73109523D01*
X13347619Y-72109523D02*
X13300000Y-72061904D01*
X13252380Y-71966666D01*
X13252380Y-71728571D01*
X13300000Y-71633333D01*
X13347619Y-71585714D01*
X13442857Y-71538095D01*
X13538095Y-71538095D01*
X13680952Y-71585714D01*
X14252380Y-72157142D01*
X14252380Y-71538095D01*
X14252380Y-64342857D02*
X13776190Y-64676190D01*
X14252380Y-64914285D02*
X13252380Y-64914285D01*
X13252380Y-64533333D01*
X13300000Y-64438095D01*
X13347619Y-64390476D01*
X13442857Y-64342857D01*
X13585714Y-64342857D01*
X13680952Y-64390476D01*
X13728571Y-64438095D01*
X13776190Y-64533333D01*
X13776190Y-64914285D01*
X13252380Y-64009523D02*
X13252380Y-63390476D01*
X13633333Y-63723809D01*
X13633333Y-63580952D01*
X13680952Y-63485714D01*
X13728571Y-63438095D01*
X13823809Y-63390476D01*
X14061904Y-63390476D01*
X14157142Y-63438095D01*
X14204761Y-63485714D01*
X14252380Y-63580952D01*
X14252380Y-63866666D01*
X14204761Y-63961904D01*
X14157142Y-64009523D01*
X13252380Y-62485714D02*
X13252380Y-62961904D01*
X13728571Y-63009523D01*
X13680952Y-62961904D01*
X13633333Y-62866666D01*
X13633333Y-62628571D01*
X13680952Y-62533333D01*
X13728571Y-62485714D01*
X13823809Y-62438095D01*
X14061904Y-62438095D01*
X14157142Y-62485714D01*
X14204761Y-62533333D01*
X14252380Y-62628571D01*
X14252380Y-62866666D01*
X14204761Y-62961904D01*
X14157142Y-63009523D01*
X14152380Y-55442857D02*
X13676190Y-55776190D01*
X14152380Y-56014285D02*
X13152380Y-56014285D01*
X13152380Y-55633333D01*
X13200000Y-55538095D01*
X13247619Y-55490476D01*
X13342857Y-55442857D01*
X13485714Y-55442857D01*
X13580952Y-55490476D01*
X13628571Y-55538095D01*
X13676190Y-55633333D01*
X13676190Y-56014285D01*
X13152380Y-55109523D02*
X13152380Y-54490476D01*
X13533333Y-54823809D01*
X13533333Y-54680952D01*
X13580952Y-54585714D01*
X13628571Y-54538095D01*
X13723809Y-54490476D01*
X13961904Y-54490476D01*
X14057142Y-54538095D01*
X14104761Y-54585714D01*
X14152380Y-54680952D01*
X14152380Y-54966666D01*
X14104761Y-55061904D01*
X14057142Y-55109523D01*
X13580952Y-53919047D02*
X13533333Y-54014285D01*
X13485714Y-54061904D01*
X13390476Y-54109523D01*
X13342857Y-54109523D01*
X13247619Y-54061904D01*
X13200000Y-54014285D01*
X13152380Y-53919047D01*
X13152380Y-53728571D01*
X13200000Y-53633333D01*
X13247619Y-53585714D01*
X13342857Y-53538095D01*
X13390476Y-53538095D01*
X13485714Y-53585714D01*
X13533333Y-53633333D01*
X13580952Y-53728571D01*
X13580952Y-53919047D01*
X13628571Y-54014285D01*
X13676190Y-54061904D01*
X13771428Y-54109523D01*
X13961904Y-54109523D01*
X14057142Y-54061904D01*
X14104761Y-54014285D01*
X14152380Y-53919047D01*
X14152380Y-53728571D01*
X14104761Y-53633333D01*
X14057142Y-53585714D01*
X13961904Y-53538095D01*
X13771428Y-53538095D01*
X13676190Y-53585714D01*
X13628571Y-53633333D01*
X13580952Y-53728571D01*
X14206460Y-46528537D02*
X13730270Y-46861870D01*
X14206460Y-47099965D02*
X13206460Y-47099965D01*
X13206460Y-46719013D01*
X13254080Y-46623775D01*
X13301699Y-46576156D01*
X13396937Y-46528537D01*
X13539794Y-46528537D01*
X13635032Y-46576156D01*
X13682651Y-46623775D01*
X13730270Y-46719013D01*
X13730270Y-47099965D01*
X13539794Y-45671394D02*
X14206460Y-45671394D01*
X13158841Y-45909489D02*
X13873127Y-46147584D01*
X13873127Y-45528537D01*
X14206460Y-44623775D02*
X14206460Y-45195203D01*
X14206460Y-44909489D02*
X13206460Y-44909489D01*
X13349318Y-45004727D01*
X13444556Y-45099965D01*
X13492175Y-45195203D01*
X14152380Y-37542857D02*
X13676190Y-37876190D01*
X14152380Y-38114285D02*
X13152380Y-38114285D01*
X13152380Y-37733333D01*
X13200000Y-37638095D01*
X13247619Y-37590476D01*
X13342857Y-37542857D01*
X13485714Y-37542857D01*
X13580952Y-37590476D01*
X13628571Y-37638095D01*
X13676190Y-37733333D01*
X13676190Y-38114285D01*
X13485714Y-36685714D02*
X14152380Y-36685714D01*
X13104761Y-36923809D02*
X13819047Y-37161904D01*
X13819047Y-36542857D01*
X13485714Y-35733333D02*
X14152380Y-35733333D01*
X13104761Y-35971428D02*
X13819047Y-36209523D01*
X13819047Y-35590476D01*
X14152380Y-28442857D02*
X13676190Y-28776190D01*
X14152380Y-29014285D02*
X13152380Y-29014285D01*
X13152380Y-28633333D01*
X13200000Y-28538095D01*
X13247619Y-28490476D01*
X13342857Y-28442857D01*
X13485714Y-28442857D01*
X13580952Y-28490476D01*
X13628571Y-28538095D01*
X13676190Y-28633333D01*
X13676190Y-29014285D01*
X13485714Y-27585714D02*
X14152380Y-27585714D01*
X13104761Y-27823809D02*
X13819047Y-28061904D01*
X13819047Y-27442857D01*
X13152380Y-27157142D02*
X13152380Y-26490476D01*
X14152380Y-26919047D01*
X14152380Y-19642857D02*
X13676190Y-19976190D01*
X14152380Y-20214285D02*
X13152380Y-20214285D01*
X13152380Y-19833333D01*
X13200000Y-19738095D01*
X13247619Y-19690476D01*
X13342857Y-19642857D01*
X13485714Y-19642857D01*
X13580952Y-19690476D01*
X13628571Y-19738095D01*
X13676190Y-19833333D01*
X13676190Y-20214285D01*
X13152380Y-18738095D02*
X13152380Y-19214285D01*
X13628571Y-19261904D01*
X13580952Y-19214285D01*
X13533333Y-19119047D01*
X13533333Y-18880952D01*
X13580952Y-18785714D01*
X13628571Y-18738095D01*
X13723809Y-18690476D01*
X13961904Y-18690476D01*
X14057142Y-18738095D01*
X14104761Y-18785714D01*
X14152380Y-18880952D01*
X14152380Y-19119047D01*
X14104761Y-19214285D01*
X14057142Y-19261904D01*
X13152380Y-18071428D02*
X13152380Y-17976190D01*
X13200000Y-17880952D01*
X13247619Y-17833333D01*
X13342857Y-17785714D01*
X13533333Y-17738095D01*
X13771428Y-17738095D01*
X13961904Y-17785714D01*
X14057142Y-17833333D01*
X14104761Y-17880952D01*
X14152380Y-17976190D01*
X14152380Y-18071428D01*
X14104761Y-18166666D01*
X14057142Y-18214285D01*
X13961904Y-18261904D01*
X13771428Y-18309523D01*
X13533333Y-18309523D01*
X13342857Y-18261904D01*
X13247619Y-18214285D01*
X13200000Y-18166666D01*
X13152380Y-18071428D01*
X39815982Y-13297340D02*
X39482649Y-12821150D01*
X39244554Y-13297340D02*
X39244554Y-12297340D01*
X39625506Y-12297340D01*
X39720744Y-12344960D01*
X39768363Y-12392579D01*
X39815982Y-12487817D01*
X39815982Y-12630674D01*
X39768363Y-12725912D01*
X39720744Y-12773531D01*
X39625506Y-12821150D01*
X39244554Y-12821150D01*
X40720744Y-12297340D02*
X40244554Y-12297340D01*
X40196935Y-12773531D01*
X40244554Y-12725912D01*
X40339792Y-12678293D01*
X40577887Y-12678293D01*
X40673125Y-12725912D01*
X40720744Y-12773531D01*
X40768363Y-12868769D01*
X40768363Y-13106864D01*
X40720744Y-13202102D01*
X40673125Y-13249721D01*
X40577887Y-13297340D01*
X40339792Y-13297340D01*
X40244554Y-13249721D01*
X40196935Y-13202102D01*
X41101697Y-12297340D02*
X41720744Y-12297340D01*
X41387411Y-12678293D01*
X41530268Y-12678293D01*
X41625506Y-12725912D01*
X41673125Y-12773531D01*
X41720744Y-12868769D01*
X41720744Y-13106864D01*
X41673125Y-13202102D01*
X41625506Y-13249721D01*
X41530268Y-13297340D01*
X41244554Y-13297340D01*
X41149316Y-13249721D01*
X41101697Y-13202102D01*
X48673582Y-13398940D02*
X48340249Y-12922750D01*
X48102154Y-13398940D02*
X48102154Y-12398940D01*
X48483106Y-12398940D01*
X48578344Y-12446560D01*
X48625963Y-12494179D01*
X48673582Y-12589417D01*
X48673582Y-12732274D01*
X48625963Y-12827512D01*
X48578344Y-12875131D01*
X48483106Y-12922750D01*
X48102154Y-12922750D01*
X49578344Y-12398940D02*
X49102154Y-12398940D01*
X49054535Y-12875131D01*
X49102154Y-12827512D01*
X49197392Y-12779893D01*
X49435487Y-12779893D01*
X49530725Y-12827512D01*
X49578344Y-12875131D01*
X49625963Y-12970369D01*
X49625963Y-13208464D01*
X49578344Y-13303702D01*
X49530725Y-13351321D01*
X49435487Y-13398940D01*
X49197392Y-13398940D01*
X49102154Y-13351321D01*
X49054535Y-13303702D01*
X50483106Y-12398940D02*
X50292630Y-12398940D01*
X50197392Y-12446560D01*
X50149773Y-12494179D01*
X50054535Y-12637036D01*
X50006916Y-12827512D01*
X50006916Y-13208464D01*
X50054535Y-13303702D01*
X50102154Y-13351321D01*
X50197392Y-13398940D01*
X50387868Y-13398940D01*
X50483106Y-13351321D01*
X50530725Y-13303702D01*
X50578344Y-13208464D01*
X50578344Y-12970369D01*
X50530725Y-12875131D01*
X50483106Y-12827512D01*
X50387868Y-12779893D01*
X50197392Y-12779893D01*
X50102154Y-12827512D01*
X50054535Y-12875131D01*
X50006916Y-12970369D01*
X57457142Y-13352380D02*
X57123809Y-12876190D01*
X56885714Y-13352380D02*
X56885714Y-12352380D01*
X57266666Y-12352380D01*
X57361904Y-12400000D01*
X57409523Y-12447619D01*
X57457142Y-12542857D01*
X57457142Y-12685714D01*
X57409523Y-12780952D01*
X57361904Y-12828571D01*
X57266666Y-12876190D01*
X56885714Y-12876190D01*
X58361904Y-12352380D02*
X57885714Y-12352380D01*
X57838095Y-12828571D01*
X57885714Y-12780952D01*
X57980952Y-12733333D01*
X58219047Y-12733333D01*
X58314285Y-12780952D01*
X58361904Y-12828571D01*
X58409523Y-12923809D01*
X58409523Y-13161904D01*
X58361904Y-13257142D01*
X58314285Y-13304761D01*
X58219047Y-13352380D01*
X57980952Y-13352380D01*
X57885714Y-13304761D01*
X57838095Y-13257142D01*
X58885714Y-13352380D02*
X59076190Y-13352380D01*
X59171428Y-13304761D01*
X59219047Y-13257142D01*
X59314285Y-13114285D01*
X59361904Y-12923809D01*
X59361904Y-12542857D01*
X59314285Y-12447619D01*
X59266666Y-12400000D01*
X59171428Y-12352380D01*
X58980952Y-12352380D01*
X58885714Y-12400000D01*
X58838095Y-12447619D01*
X58790476Y-12542857D01*
X58790476Y-12780952D01*
X58838095Y-12876190D01*
X58885714Y-12923809D01*
X58980952Y-12971428D01*
X59171428Y-12971428D01*
X59266666Y-12923809D01*
X59314285Y-12876190D01*
X59361904Y-12780952D01*
X66357142Y-13352380D02*
X66023809Y-12876190D01*
X65785714Y-13352380D02*
X65785714Y-12352380D01*
X66166666Y-12352380D01*
X66261904Y-12400000D01*
X66309523Y-12447619D01*
X66357142Y-12542857D01*
X66357142Y-12685714D01*
X66309523Y-12780952D01*
X66261904Y-12828571D01*
X66166666Y-12876190D01*
X65785714Y-12876190D01*
X67214285Y-12352380D02*
X67023809Y-12352380D01*
X66928571Y-12400000D01*
X66880952Y-12447619D01*
X66785714Y-12590476D01*
X66738095Y-12780952D01*
X66738095Y-13161904D01*
X66785714Y-13257142D01*
X66833333Y-13304761D01*
X66928571Y-13352380D01*
X67119047Y-13352380D01*
X67214285Y-13304761D01*
X67261904Y-13257142D01*
X67309523Y-13161904D01*
X67309523Y-12923809D01*
X67261904Y-12828571D01*
X67214285Y-12780952D01*
X67119047Y-12733333D01*
X66928571Y-12733333D01*
X66833333Y-12780952D01*
X66785714Y-12828571D01*
X66738095Y-12923809D01*
X67690476Y-12447619D02*
X67738095Y-12400000D01*
X67833333Y-12352380D01*
X68071428Y-12352380D01*
X68166666Y-12400000D01*
X68214285Y-12447619D01*
X68261904Y-12542857D01*
X68261904Y-12638095D01*
X68214285Y-12780952D01*
X67642857Y-13352380D01*
X68261904Y-13352380D01*
X75157142Y-13352380D02*
X74823809Y-12876190D01*
X74585714Y-13352380D02*
X74585714Y-12352380D01*
X74966666Y-12352380D01*
X75061904Y-12400000D01*
X75109523Y-12447619D01*
X75157142Y-12542857D01*
X75157142Y-12685714D01*
X75109523Y-12780952D01*
X75061904Y-12828571D01*
X74966666Y-12876190D01*
X74585714Y-12876190D01*
X76014285Y-12352380D02*
X75823809Y-12352380D01*
X75728571Y-12400000D01*
X75680952Y-12447619D01*
X75585714Y-12590476D01*
X75538095Y-12780952D01*
X75538095Y-13161904D01*
X75585714Y-13257142D01*
X75633333Y-13304761D01*
X75728571Y-13352380D01*
X75919047Y-13352380D01*
X76014285Y-13304761D01*
X76061904Y-13257142D01*
X76109523Y-13161904D01*
X76109523Y-12923809D01*
X76061904Y-12828571D01*
X76014285Y-12780952D01*
X75919047Y-12733333D01*
X75728571Y-12733333D01*
X75633333Y-12780952D01*
X75585714Y-12828571D01*
X75538095Y-12923809D01*
X77014285Y-12352380D02*
X76538095Y-12352380D01*
X76490476Y-12828571D01*
X76538095Y-12780952D01*
X76633333Y-12733333D01*
X76871428Y-12733333D01*
X76966666Y-12780952D01*
X77014285Y-12828571D01*
X77061904Y-12923809D01*
X77061904Y-13161904D01*
X77014285Y-13257142D01*
X76966666Y-13304761D01*
X76871428Y-13352380D01*
X76633333Y-13352380D01*
X76538095Y-13304761D01*
X76490476Y-13257142D01*
X84157142Y-13352380D02*
X83823809Y-12876190D01*
X83585714Y-13352380D02*
X83585714Y-12352380D01*
X83966666Y-12352380D01*
X84061904Y-12400000D01*
X84109523Y-12447619D01*
X84157142Y-12542857D01*
X84157142Y-12685714D01*
X84109523Y-12780952D01*
X84061904Y-12828571D01*
X83966666Y-12876190D01*
X83585714Y-12876190D01*
X85014285Y-12352380D02*
X84823809Y-12352380D01*
X84728571Y-12400000D01*
X84680952Y-12447619D01*
X84585714Y-12590476D01*
X84538095Y-12780952D01*
X84538095Y-13161904D01*
X84585714Y-13257142D01*
X84633333Y-13304761D01*
X84728571Y-13352380D01*
X84919047Y-13352380D01*
X85014285Y-13304761D01*
X85061904Y-13257142D01*
X85109523Y-13161904D01*
X85109523Y-12923809D01*
X85061904Y-12828571D01*
X85014285Y-12780952D01*
X84919047Y-12733333D01*
X84728571Y-12733333D01*
X84633333Y-12780952D01*
X84585714Y-12828571D01*
X84538095Y-12923809D01*
X85680952Y-12780952D02*
X85585714Y-12733333D01*
X85538095Y-12685714D01*
X85490476Y-12590476D01*
X85490476Y-12542857D01*
X85538095Y-12447619D01*
X85585714Y-12400000D01*
X85680952Y-12352380D01*
X85871428Y-12352380D01*
X85966666Y-12400000D01*
X86014285Y-12447619D01*
X86061904Y-12542857D01*
X86061904Y-12590476D01*
X86014285Y-12685714D01*
X85966666Y-12733333D01*
X85871428Y-12780952D01*
X85680952Y-12780952D01*
X85585714Y-12828571D01*
X85538095Y-12876190D01*
X85490476Y-12971428D01*
X85490476Y-13161904D01*
X85538095Y-13257142D01*
X85585714Y-13304761D01*
X85680952Y-13352380D01*
X85871428Y-13352380D01*
X85966666Y-13304761D01*
X86014285Y-13257142D01*
X86061904Y-13161904D01*
X86061904Y-12971428D01*
X86014285Y-12876190D01*
X85966666Y-12828571D01*
X85871428Y-12780952D01*
X98852380Y-48914285D02*
X97852380Y-48914285D01*
X98566666Y-48580952D01*
X97852380Y-48247619D01*
X98852380Y-48247619D01*
X98852380Y-47342857D02*
X98328571Y-47342857D01*
X98233333Y-47390476D01*
X98185714Y-47485714D01*
X98185714Y-47676190D01*
X98233333Y-47771428D01*
X98804761Y-47342857D02*
X98852380Y-47438095D01*
X98852380Y-47676190D01*
X98804761Y-47771428D01*
X98709523Y-47819047D01*
X98614285Y-47819047D01*
X98519047Y-47771428D01*
X98471428Y-47676190D01*
X98471428Y-47438095D01*
X98423809Y-47342857D01*
X98804761Y-46914285D02*
X98852380Y-46819047D01*
X98852380Y-46628571D01*
X98804761Y-46533333D01*
X98709523Y-46485714D01*
X98661904Y-46485714D01*
X98566666Y-46533333D01*
X98519047Y-46628571D01*
X98519047Y-46771428D01*
X98471428Y-46866666D01*
X98376190Y-46914285D01*
X98328571Y-46914285D01*
X98233333Y-46866666D01*
X98185714Y-46771428D01*
X98185714Y-46628571D01*
X98233333Y-46533333D01*
X98185714Y-46200000D02*
X98185714Y-45819047D01*
X97852380Y-46057142D02*
X98709523Y-46057142D01*
X98804761Y-46009523D01*
X98852380Y-45914285D01*
X98852380Y-45819047D01*
X98804761Y-45104761D02*
X98852380Y-45200000D01*
X98852380Y-45390476D01*
X98804761Y-45485714D01*
X98709523Y-45533333D01*
X98328571Y-45533333D01*
X98233333Y-45485714D01*
X98185714Y-45390476D01*
X98185714Y-45200000D01*
X98233333Y-45104761D01*
X98328571Y-45057142D01*
X98423809Y-45057142D01*
X98519047Y-45533333D01*
X98852380Y-44628571D02*
X98185714Y-44628571D01*
X98376190Y-44628571D02*
X98280952Y-44580952D01*
X98233333Y-44533333D01*
X98185714Y-44438095D01*
X98185714Y-44342857D01*
X80666666Y-8528571D02*
X80333333Y-8528571D01*
X80333333Y-9052380D02*
X80333333Y-8052380D01*
X80809523Y-8052380D01*
X81142857Y-8147619D02*
X81190476Y-8100000D01*
X81285714Y-8052380D01*
X81523809Y-8052380D01*
X81619047Y-8100000D01*
X81666666Y-8147619D01*
X81714285Y-8242857D01*
X81714285Y-8338095D01*
X81666666Y-8480952D01*
X81095238Y-9052380D01*
X81714285Y-9052380D01*
X71766666Y-8028571D02*
X71433333Y-8028571D01*
X71433333Y-8552380D02*
X71433333Y-7552380D01*
X71909523Y-7552380D01*
X72195238Y-7552380D02*
X72814285Y-7552380D01*
X72480952Y-7933333D01*
X72623809Y-7933333D01*
X72719047Y-7980952D01*
X72766666Y-8028571D01*
X72814285Y-8123809D01*
X72814285Y-8361904D01*
X72766666Y-8457142D01*
X72719047Y-8504761D01*
X72623809Y-8552380D01*
X72338095Y-8552380D01*
X72242857Y-8504761D01*
X72195238Y-8457142D01*
X62966666Y-8018571D02*
X62633333Y-8018571D01*
X62633333Y-8542380D02*
X62633333Y-7542380D01*
X63109523Y-7542380D01*
X63919047Y-7875714D02*
X63919047Y-8542380D01*
X63680952Y-7494761D02*
X63442857Y-8209047D01*
X64061904Y-8209047D01*
X53866666Y-8028571D02*
X53533333Y-8028571D01*
X53533333Y-8552380D02*
X53533333Y-7552380D01*
X54009523Y-7552380D01*
X54866666Y-7552380D02*
X54390476Y-7552380D01*
X54342857Y-8028571D01*
X54390476Y-7980952D01*
X54485714Y-7933333D01*
X54723809Y-7933333D01*
X54819047Y-7980952D01*
X54866666Y-8028571D01*
X54914285Y-8123809D01*
X54914285Y-8361904D01*
X54866666Y-8457142D01*
X54819047Y-8504761D01*
X54723809Y-8552380D01*
X54485714Y-8552380D01*
X54390476Y-8504761D01*
X54342857Y-8457142D01*
X45166666Y-8428571D02*
X44833333Y-8428571D01*
X44833333Y-8952380D02*
X44833333Y-7952380D01*
X45309523Y-7952380D01*
X46119047Y-7952380D02*
X45928571Y-7952380D01*
X45833333Y-8000000D01*
X45785714Y-8047619D01*
X45690476Y-8190476D01*
X45642857Y-8380952D01*
X45642857Y-8761904D01*
X45690476Y-8857142D01*
X45738095Y-8904761D01*
X45833333Y-8952380D01*
X46023809Y-8952380D01*
X46119047Y-8904761D01*
X46166666Y-8857142D01*
X46214285Y-8761904D01*
X46214285Y-8523809D01*
X46166666Y-8428571D01*
X46119047Y-8380952D01*
X46023809Y-8333333D01*
X45833333Y-8333333D01*
X45738095Y-8380952D01*
X45690476Y-8428571D01*
X45642857Y-8523809D01*
X9128571Y-14033333D02*
X9128571Y-14366666D01*
X9652380Y-14366666D02*
X8652380Y-14366666D01*
X8652380Y-13890476D01*
X8652380Y-13604761D02*
X8652380Y-12938095D01*
X9652380Y-13366666D01*
X9228571Y-23233333D02*
X9228571Y-23566666D01*
X9752380Y-23566666D02*
X8752380Y-23566666D01*
X8752380Y-23090476D01*
X9180952Y-22566666D02*
X9133333Y-22661904D01*
X9085714Y-22709523D01*
X8990476Y-22757142D01*
X8942857Y-22757142D01*
X8847619Y-22709523D01*
X8800000Y-22661904D01*
X8752380Y-22566666D01*
X8752380Y-22376190D01*
X8800000Y-22280952D01*
X8847619Y-22233333D01*
X8942857Y-22185714D01*
X8990476Y-22185714D01*
X9085714Y-22233333D01*
X9133333Y-22280952D01*
X9180952Y-22376190D01*
X9180952Y-22566666D01*
X9228571Y-22661904D01*
X9276190Y-22709523D01*
X9371428Y-22757142D01*
X9561904Y-22757142D01*
X9657142Y-22709523D01*
X9704761Y-22661904D01*
X9752380Y-22566666D01*
X9752380Y-22376190D01*
X9704761Y-22280952D01*
X9657142Y-22233333D01*
X9561904Y-22185714D01*
X9371428Y-22185714D01*
X9276190Y-22233333D01*
X9228571Y-22280952D01*
X9180952Y-22376190D01*
X9228571Y-32033333D02*
X9228571Y-32366666D01*
X9752380Y-32366666D02*
X8752380Y-32366666D01*
X8752380Y-31890476D01*
X9752380Y-31461904D02*
X9752380Y-31271428D01*
X9704761Y-31176190D01*
X9657142Y-31128571D01*
X9514285Y-31033333D01*
X9323809Y-30985714D01*
X8942857Y-30985714D01*
X8847619Y-31033333D01*
X8800000Y-31080952D01*
X8752380Y-31176190D01*
X8752380Y-31366666D01*
X8800000Y-31461904D01*
X8847619Y-31509523D01*
X8942857Y-31557142D01*
X9180952Y-31557142D01*
X9276190Y-31509523D01*
X9323809Y-31461904D01*
X9371428Y-31366666D01*
X9371428Y-31176190D01*
X9323809Y-31080952D01*
X9276190Y-31033333D01*
X9180952Y-30985714D01*
X9028571Y-41609523D02*
X9028571Y-41942857D01*
X9552380Y-41942857D02*
X8552380Y-41942857D01*
X8552380Y-41466666D01*
X9552380Y-40561904D02*
X9552380Y-41133333D01*
X9552380Y-40847619D02*
X8552380Y-40847619D01*
X8695238Y-40942857D01*
X8790476Y-41038095D01*
X8838095Y-41133333D01*
X8552380Y-39942857D02*
X8552380Y-39847619D01*
X8600000Y-39752380D01*
X8647619Y-39704761D01*
X8742857Y-39657142D01*
X8933333Y-39609523D01*
X9171428Y-39609523D01*
X9361904Y-39657142D01*
X9457142Y-39704761D01*
X9504761Y-39752380D01*
X9552380Y-39847619D01*
X9552380Y-39942857D01*
X9504761Y-40038095D01*
X9457142Y-40085714D01*
X9361904Y-40133333D01*
X9171428Y-40180952D01*
X8933333Y-40180952D01*
X8742857Y-40133333D01*
X8647619Y-40085714D01*
X8600000Y-40038095D01*
X8552380Y-39942857D01*
X9128571Y-50509523D02*
X9128571Y-50842857D01*
X9652380Y-50842857D02*
X8652380Y-50842857D01*
X8652380Y-50366666D01*
X9652380Y-49461904D02*
X9652380Y-50033333D01*
X9652380Y-49747619D02*
X8652380Y-49747619D01*
X8795238Y-49842857D01*
X8890476Y-49938095D01*
X8938095Y-50033333D01*
X9652380Y-48509523D02*
X9652380Y-49080952D01*
X9652380Y-48795238D02*
X8652380Y-48795238D01*
X8795238Y-48890476D01*
X8890476Y-48985714D01*
X8938095Y-49080952D01*
X12790476Y-60628571D02*
X12457142Y-60628571D01*
X12457142Y-61152380D02*
X12457142Y-60152380D01*
X12933333Y-60152380D01*
X13838095Y-61152380D02*
X13266666Y-61152380D01*
X13552380Y-61152380D02*
X13552380Y-60152380D01*
X13457142Y-60295238D01*
X13361904Y-60390476D01*
X13266666Y-60438095D01*
X14219047Y-60247619D02*
X14266666Y-60200000D01*
X14361904Y-60152380D01*
X14600000Y-60152380D01*
X14695238Y-60200000D01*
X14742857Y-60247619D01*
X14790476Y-60342857D01*
X14790476Y-60438095D01*
X14742857Y-60580952D01*
X14171428Y-61152380D01*
X14790476Y-61152380D01*
X9028571Y-68309523D02*
X9028571Y-68642857D01*
X9552380Y-68642857D02*
X8552380Y-68642857D01*
X8552380Y-68166666D01*
X9552380Y-67261904D02*
X9552380Y-67833333D01*
X9552380Y-67547619D02*
X8552380Y-67547619D01*
X8695238Y-67642857D01*
X8790476Y-67738095D01*
X8838095Y-67833333D01*
X8552380Y-66928571D02*
X8552380Y-66309523D01*
X8933333Y-66642857D01*
X8933333Y-66500000D01*
X8980952Y-66404761D01*
X9028571Y-66357142D01*
X9123809Y-66309523D01*
X9361904Y-66309523D01*
X9457142Y-66357142D01*
X9504761Y-66404761D01*
X9552380Y-66500000D01*
X9552380Y-66785714D01*
X9504761Y-66880952D01*
X9457142Y-66928571D01*
X9428571Y-77309523D02*
X9428571Y-77642857D01*
X9952380Y-77642857D02*
X8952380Y-77642857D01*
X8952380Y-77166666D01*
X9952380Y-76261904D02*
X9952380Y-76833333D01*
X9952380Y-76547619D02*
X8952380Y-76547619D01*
X9095238Y-76642857D01*
X9190476Y-76738095D01*
X9238095Y-76833333D01*
X9285714Y-75404761D02*
X9952380Y-75404761D01*
X8904761Y-75642857D02*
X9619047Y-75880952D01*
X9619047Y-75261904D01*
X9228571Y-86209523D02*
X9228571Y-86542857D01*
X9752380Y-86542857D02*
X8752380Y-86542857D01*
X8752380Y-86066666D01*
X9752380Y-85161904D02*
X9752380Y-85733333D01*
X9752380Y-85447619D02*
X8752380Y-85447619D01*
X8895238Y-85542857D01*
X8990476Y-85638095D01*
X9038095Y-85733333D01*
X8752380Y-84257142D02*
X8752380Y-84733333D01*
X9228571Y-84780952D01*
X9180952Y-84733333D01*
X9133333Y-84638095D01*
X9133333Y-84400000D01*
X9180952Y-84304761D01*
X9228571Y-84257142D01*
X9323809Y-84209523D01*
X9561904Y-84209523D01*
X9657142Y-84257142D01*
X9704761Y-84304761D01*
X9752380Y-84400000D01*
X9752380Y-84638095D01*
X9704761Y-84733333D01*
X9657142Y-84780952D01*
X35290476Y-95428571D02*
X34957142Y-95428571D01*
X34957142Y-95952380D02*
X34957142Y-94952380D01*
X35433333Y-94952380D01*
X36338095Y-95952380D02*
X35766666Y-95952380D01*
X36052380Y-95952380D02*
X36052380Y-94952380D01*
X35957142Y-95095238D01*
X35861904Y-95190476D01*
X35766666Y-95238095D01*
X37195238Y-94952380D02*
X37004761Y-94952380D01*
X36909523Y-95000000D01*
X36861904Y-95047619D01*
X36766666Y-95190476D01*
X36719047Y-95380952D01*
X36719047Y-95761904D01*
X36766666Y-95857142D01*
X36814285Y-95904761D01*
X36909523Y-95952380D01*
X37100000Y-95952380D01*
X37195238Y-95904761D01*
X37242857Y-95857142D01*
X37290476Y-95761904D01*
X37290476Y-95523809D01*
X37242857Y-95428571D01*
X37195238Y-95380952D01*
X37100000Y-95333333D01*
X36909523Y-95333333D01*
X36814285Y-95380952D01*
X36766666Y-95428571D01*
X36719047Y-95523809D01*
X44190476Y-95428571D02*
X43857142Y-95428571D01*
X43857142Y-95952380D02*
X43857142Y-94952380D01*
X44333333Y-94952380D01*
X45238095Y-95952380D02*
X44666666Y-95952380D01*
X44952380Y-95952380D02*
X44952380Y-94952380D01*
X44857142Y-95095238D01*
X44761904Y-95190476D01*
X44666666Y-95238095D01*
X45571428Y-94952380D02*
X46238095Y-94952380D01*
X45809523Y-95952380D01*
X53190476Y-95628571D02*
X52857142Y-95628571D01*
X52857142Y-96152380D02*
X52857142Y-95152380D01*
X53333333Y-95152380D01*
X54238095Y-96152380D02*
X53666666Y-96152380D01*
X53952380Y-96152380D02*
X53952380Y-95152380D01*
X53857142Y-95295238D01*
X53761904Y-95390476D01*
X53666666Y-95438095D01*
X54809523Y-95580952D02*
X54714285Y-95533333D01*
X54666666Y-95485714D01*
X54619047Y-95390476D01*
X54619047Y-95342857D01*
X54666666Y-95247619D01*
X54714285Y-95200000D01*
X54809523Y-95152380D01*
X55000000Y-95152380D01*
X55095238Y-95200000D01*
X55142857Y-95247619D01*
X55190476Y-95342857D01*
X55190476Y-95390476D01*
X55142857Y-95485714D01*
X55095238Y-95533333D01*
X55000000Y-95580952D01*
X54809523Y-95580952D01*
X54714285Y-95628571D01*
X54666666Y-95676190D01*
X54619047Y-95771428D01*
X54619047Y-95961904D01*
X54666666Y-96057142D01*
X54714285Y-96104761D01*
X54809523Y-96152380D01*
X55000000Y-96152380D01*
X55095238Y-96104761D01*
X55142857Y-96057142D01*
X55190476Y-95961904D01*
X55190476Y-95771428D01*
X55142857Y-95676190D01*
X55095238Y-95628571D01*
X55000000Y-95580952D01*
X54504761Y-81947619D02*
X54409523Y-81900000D01*
X54314285Y-81804761D01*
X54171428Y-81661904D01*
X54076190Y-81614285D01*
X53980952Y-81614285D01*
X54028571Y-81852380D02*
X53933333Y-81804761D01*
X53838095Y-81709523D01*
X53790476Y-81519047D01*
X53790476Y-81185714D01*
X53838095Y-80995238D01*
X53933333Y-80900000D01*
X54028571Y-80852380D01*
X54219047Y-80852380D01*
X54314285Y-80900000D01*
X54409523Y-80995238D01*
X54457142Y-81185714D01*
X54457142Y-81519047D01*
X54409523Y-81709523D01*
X54314285Y-81804761D01*
X54219047Y-81852380D01*
X54028571Y-81852380D01*
X54838095Y-80947619D02*
X54885714Y-80900000D01*
X54980952Y-80852380D01*
X55219047Y-80852380D01*
X55314285Y-80900000D01*
X55361904Y-80947619D01*
X55409523Y-81042857D01*
X55409523Y-81138095D01*
X55361904Y-81280952D01*
X54790476Y-81852380D01*
X55409523Y-81852380D01*
X45404761Y-81947619D02*
X45309523Y-81900000D01*
X45214285Y-81804761D01*
X45071428Y-81661904D01*
X44976190Y-81614285D01*
X44880952Y-81614285D01*
X44928571Y-81852380D02*
X44833333Y-81804761D01*
X44738095Y-81709523D01*
X44690476Y-81519047D01*
X44690476Y-81185714D01*
X44738095Y-80995238D01*
X44833333Y-80900000D01*
X44928571Y-80852380D01*
X45119047Y-80852380D01*
X45214285Y-80900000D01*
X45309523Y-80995238D01*
X45357142Y-81185714D01*
X45357142Y-81519047D01*
X45309523Y-81709523D01*
X45214285Y-81804761D01*
X45119047Y-81852380D01*
X44928571Y-81852380D01*
X45690476Y-80852380D02*
X46309523Y-80852380D01*
X45976190Y-81233333D01*
X46119047Y-81233333D01*
X46214285Y-81280952D01*
X46261904Y-81328571D01*
X46309523Y-81423809D01*
X46309523Y-81661904D01*
X46261904Y-81757142D01*
X46214285Y-81804761D01*
X46119047Y-81852380D01*
X45833333Y-81852380D01*
X45738095Y-81804761D01*
X45690476Y-81757142D01*
X36404761Y-81947619D02*
X36309523Y-81900000D01*
X36214285Y-81804761D01*
X36071428Y-81661904D01*
X35976190Y-81614285D01*
X35880952Y-81614285D01*
X35928571Y-81852380D02*
X35833333Y-81804761D01*
X35738095Y-81709523D01*
X35690476Y-81519047D01*
X35690476Y-81185714D01*
X35738095Y-80995238D01*
X35833333Y-80900000D01*
X35928571Y-80852380D01*
X36119047Y-80852380D01*
X36214285Y-80900000D01*
X36309523Y-80995238D01*
X36357142Y-81185714D01*
X36357142Y-81519047D01*
X36309523Y-81709523D01*
X36214285Y-81804761D01*
X36119047Y-81852380D01*
X35928571Y-81852380D01*
X37214285Y-81185714D02*
X37214285Y-81852380D01*
X36976190Y-80804761D02*
X36738095Y-81519047D01*
X37357142Y-81519047D01*
X23647619Y-86195238D02*
X23600000Y-86290476D01*
X23504761Y-86385714D01*
X23361904Y-86528571D01*
X23314285Y-86623809D01*
X23314285Y-86719047D01*
X23552380Y-86671428D02*
X23504761Y-86766666D01*
X23409523Y-86861904D01*
X23219047Y-86909523D01*
X22885714Y-86909523D01*
X22695238Y-86861904D01*
X22600000Y-86766666D01*
X22552380Y-86671428D01*
X22552380Y-86480952D01*
X22600000Y-86385714D01*
X22695238Y-86290476D01*
X22885714Y-86242857D01*
X23219047Y-86242857D01*
X23409523Y-86290476D01*
X23504761Y-86385714D01*
X23552380Y-86480952D01*
X23552380Y-86671428D01*
X22552380Y-85338095D02*
X22552380Y-85814285D01*
X23028571Y-85861904D01*
X22980952Y-85814285D01*
X22933333Y-85719047D01*
X22933333Y-85480952D01*
X22980952Y-85385714D01*
X23028571Y-85338095D01*
X23123809Y-85290476D01*
X23361904Y-85290476D01*
X23457142Y-85338095D01*
X23504761Y-85385714D01*
X23552380Y-85480952D01*
X23552380Y-85719047D01*
X23504761Y-85814285D01*
X23457142Y-85861904D01*
X23647619Y-77095238D02*
X23600000Y-77190476D01*
X23504761Y-77285714D01*
X23361904Y-77428571D01*
X23314285Y-77523809D01*
X23314285Y-77619047D01*
X23552380Y-77571428D02*
X23504761Y-77666666D01*
X23409523Y-77761904D01*
X23219047Y-77809523D01*
X22885714Y-77809523D01*
X22695238Y-77761904D01*
X22600000Y-77666666D01*
X22552380Y-77571428D01*
X22552380Y-77380952D01*
X22600000Y-77285714D01*
X22695238Y-77190476D01*
X22885714Y-77142857D01*
X23219047Y-77142857D01*
X23409523Y-77190476D01*
X23504761Y-77285714D01*
X23552380Y-77380952D01*
X23552380Y-77571428D01*
X22552380Y-76285714D02*
X22552380Y-76476190D01*
X22600000Y-76571428D01*
X22647619Y-76619047D01*
X22790476Y-76714285D01*
X22980952Y-76761904D01*
X23361904Y-76761904D01*
X23457142Y-76714285D01*
X23504761Y-76666666D01*
X23552380Y-76571428D01*
X23552380Y-76380952D01*
X23504761Y-76285714D01*
X23457142Y-76238095D01*
X23361904Y-76190476D01*
X23123809Y-76190476D01*
X23028571Y-76238095D01*
X22980952Y-76285714D01*
X22933333Y-76380952D01*
X22933333Y-76571428D01*
X22980952Y-76666666D01*
X23028571Y-76714285D01*
X23123809Y-76761904D01*
X23547619Y-68095238D02*
X23500000Y-68190476D01*
X23404761Y-68285714D01*
X23261904Y-68428571D01*
X23214285Y-68523809D01*
X23214285Y-68619047D01*
X23452380Y-68571428D02*
X23404761Y-68666666D01*
X23309523Y-68761904D01*
X23119047Y-68809523D01*
X22785714Y-68809523D01*
X22595238Y-68761904D01*
X22500000Y-68666666D01*
X22452380Y-68571428D01*
X22452380Y-68380952D01*
X22500000Y-68285714D01*
X22595238Y-68190476D01*
X22785714Y-68142857D01*
X23119047Y-68142857D01*
X23309523Y-68190476D01*
X23404761Y-68285714D01*
X23452380Y-68380952D01*
X23452380Y-68571428D01*
X22452380Y-67809523D02*
X22452380Y-67142857D01*
X23452380Y-67571428D01*
X23647619Y-59195238D02*
X23600000Y-59290476D01*
X23504761Y-59385714D01*
X23361904Y-59528571D01*
X23314285Y-59623809D01*
X23314285Y-59719047D01*
X23552380Y-59671428D02*
X23504761Y-59766666D01*
X23409523Y-59861904D01*
X23219047Y-59909523D01*
X22885714Y-59909523D01*
X22695238Y-59861904D01*
X22600000Y-59766666D01*
X22552380Y-59671428D01*
X22552380Y-59480952D01*
X22600000Y-59385714D01*
X22695238Y-59290476D01*
X22885714Y-59242857D01*
X23219047Y-59242857D01*
X23409523Y-59290476D01*
X23504761Y-59385714D01*
X23552380Y-59480952D01*
X23552380Y-59671428D01*
X22980952Y-58671428D02*
X22933333Y-58766666D01*
X22885714Y-58814285D01*
X22790476Y-58861904D01*
X22742857Y-58861904D01*
X22647619Y-58814285D01*
X22600000Y-58766666D01*
X22552380Y-58671428D01*
X22552380Y-58480952D01*
X22600000Y-58385714D01*
X22647619Y-58338095D01*
X22742857Y-58290476D01*
X22790476Y-58290476D01*
X22885714Y-58338095D01*
X22933333Y-58385714D01*
X22980952Y-58480952D01*
X22980952Y-58671428D01*
X23028571Y-58766666D01*
X23076190Y-58814285D01*
X23171428Y-58861904D01*
X23361904Y-58861904D01*
X23457142Y-58814285D01*
X23504761Y-58766666D01*
X23552380Y-58671428D01*
X23552380Y-58480952D01*
X23504761Y-58385714D01*
X23457142Y-58338095D01*
X23361904Y-58290476D01*
X23171428Y-58290476D01*
X23076190Y-58338095D01*
X23028571Y-58385714D01*
X22980952Y-58480952D01*
X23647619Y-50295238D02*
X23600000Y-50390476D01*
X23504761Y-50485714D01*
X23361904Y-50628571D01*
X23314285Y-50723809D01*
X23314285Y-50819047D01*
X23552380Y-50771428D02*
X23504761Y-50866666D01*
X23409523Y-50961904D01*
X23219047Y-51009523D01*
X22885714Y-51009523D01*
X22695238Y-50961904D01*
X22600000Y-50866666D01*
X22552380Y-50771428D01*
X22552380Y-50580952D01*
X22600000Y-50485714D01*
X22695238Y-50390476D01*
X22885714Y-50342857D01*
X23219047Y-50342857D01*
X23409523Y-50390476D01*
X23504761Y-50485714D01*
X23552380Y-50580952D01*
X23552380Y-50771428D01*
X23552380Y-49866666D02*
X23552380Y-49676190D01*
X23504761Y-49580952D01*
X23457142Y-49533333D01*
X23314285Y-49438095D01*
X23123809Y-49390476D01*
X22742857Y-49390476D01*
X22647619Y-49438095D01*
X22600000Y-49485714D01*
X22552380Y-49580952D01*
X22552380Y-49771428D01*
X22600000Y-49866666D01*
X22647619Y-49914285D01*
X22742857Y-49961904D01*
X22980952Y-49961904D01*
X23076190Y-49914285D01*
X23123809Y-49866666D01*
X23171428Y-49771428D01*
X23171428Y-49580952D01*
X23123809Y-49485714D01*
X23076190Y-49438095D01*
X22980952Y-49390476D01*
X23547619Y-41771428D02*
X23500000Y-41866666D01*
X23404761Y-41961904D01*
X23261904Y-42104761D01*
X23214285Y-42200000D01*
X23214285Y-42295238D01*
X23452380Y-42247619D02*
X23404761Y-42342857D01*
X23309523Y-42438095D01*
X23119047Y-42485714D01*
X22785714Y-42485714D01*
X22595238Y-42438095D01*
X22500000Y-42342857D01*
X22452380Y-42247619D01*
X22452380Y-42057142D01*
X22500000Y-41961904D01*
X22595238Y-41866666D01*
X22785714Y-41819047D01*
X23119047Y-41819047D01*
X23309523Y-41866666D01*
X23404761Y-41961904D01*
X23452380Y-42057142D01*
X23452380Y-42247619D01*
X23452380Y-40866666D02*
X23452380Y-41438095D01*
X23452380Y-41152380D02*
X22452380Y-41152380D01*
X22595238Y-41247619D01*
X22690476Y-41342857D01*
X22738095Y-41438095D01*
X22452380Y-40247619D02*
X22452380Y-40152380D01*
X22500000Y-40057142D01*
X22547619Y-40009523D01*
X22642857Y-39961904D01*
X22833333Y-39914285D01*
X23071428Y-39914285D01*
X23261904Y-39961904D01*
X23357142Y-40009523D01*
X23404761Y-40057142D01*
X23452380Y-40152380D01*
X23452380Y-40247619D01*
X23404761Y-40342857D01*
X23357142Y-40390476D01*
X23261904Y-40438095D01*
X23071428Y-40485714D01*
X22833333Y-40485714D01*
X22642857Y-40438095D01*
X22547619Y-40390476D01*
X22500000Y-40342857D01*
X22452380Y-40247619D01*
X23647619Y-32771428D02*
X23600000Y-32866666D01*
X23504761Y-32961904D01*
X23361904Y-33104761D01*
X23314285Y-33200000D01*
X23314285Y-33295238D01*
X23552380Y-33247619D02*
X23504761Y-33342857D01*
X23409523Y-33438095D01*
X23219047Y-33485714D01*
X22885714Y-33485714D01*
X22695238Y-33438095D01*
X22600000Y-33342857D01*
X22552380Y-33247619D01*
X22552380Y-33057142D01*
X22600000Y-32961904D01*
X22695238Y-32866666D01*
X22885714Y-32819047D01*
X23219047Y-32819047D01*
X23409523Y-32866666D01*
X23504761Y-32961904D01*
X23552380Y-33057142D01*
X23552380Y-33247619D01*
X23552380Y-31866666D02*
X23552380Y-32438095D01*
X23552380Y-32152380D02*
X22552380Y-32152380D01*
X22695238Y-32247619D01*
X22790476Y-32342857D01*
X22838095Y-32438095D01*
X23552380Y-30914285D02*
X23552380Y-31485714D01*
X23552380Y-31200000D02*
X22552380Y-31200000D01*
X22695238Y-31295238D01*
X22790476Y-31390476D01*
X22838095Y-31485714D01*
X23447619Y-24071428D02*
X23400000Y-24166666D01*
X23304761Y-24261904D01*
X23161904Y-24404761D01*
X23114285Y-24500000D01*
X23114285Y-24595238D01*
X23352380Y-24547619D02*
X23304761Y-24642857D01*
X23209523Y-24738095D01*
X23019047Y-24785714D01*
X22685714Y-24785714D01*
X22495238Y-24738095D01*
X22400000Y-24642857D01*
X22352380Y-24547619D01*
X22352380Y-24357142D01*
X22400000Y-24261904D01*
X22495238Y-24166666D01*
X22685714Y-24119047D01*
X23019047Y-24119047D01*
X23209523Y-24166666D01*
X23304761Y-24261904D01*
X23352380Y-24357142D01*
X23352380Y-24547619D01*
X23352380Y-23166666D02*
X23352380Y-23738095D01*
X23352380Y-23452380D02*
X22352380Y-23452380D01*
X22495238Y-23547619D01*
X22590476Y-23642857D01*
X22638095Y-23738095D01*
X22447619Y-22785714D02*
X22400000Y-22738095D01*
X22352380Y-22642857D01*
X22352380Y-22404761D01*
X22400000Y-22309523D01*
X22447619Y-22261904D01*
X22542857Y-22214285D01*
X22638095Y-22214285D01*
X22780952Y-22261904D01*
X23352380Y-22833333D01*
X23352380Y-22214285D01*
X19928571Y-17547619D02*
X19833333Y-17500000D01*
X19738095Y-17404761D01*
X19595238Y-17261904D01*
X19500000Y-17214285D01*
X19404761Y-17214285D01*
X19452380Y-17452380D02*
X19357142Y-17404761D01*
X19261904Y-17309523D01*
X19214285Y-17119047D01*
X19214285Y-16785714D01*
X19261904Y-16595238D01*
X19357142Y-16500000D01*
X19452380Y-16452380D01*
X19642857Y-16452380D01*
X19738095Y-16500000D01*
X19833333Y-16595238D01*
X19880952Y-16785714D01*
X19880952Y-17119047D01*
X19833333Y-17309523D01*
X19738095Y-17404761D01*
X19642857Y-17452380D01*
X19452380Y-17452380D01*
X20833333Y-17452380D02*
X20261904Y-17452380D01*
X20547619Y-17452380D02*
X20547619Y-16452380D01*
X20452380Y-16595238D01*
X20357142Y-16690476D01*
X20261904Y-16738095D01*
X21166666Y-16452380D02*
X21785714Y-16452380D01*
X21452380Y-16833333D01*
X21595238Y-16833333D01*
X21690476Y-16880952D01*
X21738095Y-16928571D01*
X21785714Y-17023809D01*
X21785714Y-17261904D01*
X21738095Y-17357142D01*
X21690476Y-17404761D01*
X21595238Y-17452380D01*
X21309523Y-17452380D01*
X21214285Y-17404761D01*
X21166666Y-17357142D01*
X44328571Y-22847619D02*
X44233333Y-22800000D01*
X44138095Y-22704761D01*
X43995238Y-22561904D01*
X43900000Y-22514285D01*
X43804761Y-22514285D01*
X43852380Y-22752380D02*
X43757142Y-22704761D01*
X43661904Y-22609523D01*
X43614285Y-22419047D01*
X43614285Y-22085714D01*
X43661904Y-21895238D01*
X43757142Y-21800000D01*
X43852380Y-21752380D01*
X44042857Y-21752380D01*
X44138095Y-21800000D01*
X44233333Y-21895238D01*
X44280952Y-22085714D01*
X44280952Y-22419047D01*
X44233333Y-22609523D01*
X44138095Y-22704761D01*
X44042857Y-22752380D01*
X43852380Y-22752380D01*
X45233333Y-22752380D02*
X44661904Y-22752380D01*
X44947619Y-22752380D02*
X44947619Y-21752380D01*
X44852380Y-21895238D01*
X44757142Y-21990476D01*
X44661904Y-22038095D01*
X46090476Y-22085714D02*
X46090476Y-22752380D01*
X45852380Y-21704761D02*
X45614285Y-22419047D01*
X46233333Y-22419047D01*
X53128571Y-22647619D02*
X53033333Y-22600000D01*
X52938095Y-22504761D01*
X52795238Y-22361904D01*
X52700000Y-22314285D01*
X52604761Y-22314285D01*
X52652380Y-22552380D02*
X52557142Y-22504761D01*
X52461904Y-22409523D01*
X52414285Y-22219047D01*
X52414285Y-21885714D01*
X52461904Y-21695238D01*
X52557142Y-21600000D01*
X52652380Y-21552380D01*
X52842857Y-21552380D01*
X52938095Y-21600000D01*
X53033333Y-21695238D01*
X53080952Y-21885714D01*
X53080952Y-22219047D01*
X53033333Y-22409523D01*
X52938095Y-22504761D01*
X52842857Y-22552380D01*
X52652380Y-22552380D01*
X54033333Y-22552380D02*
X53461904Y-22552380D01*
X53747619Y-22552380D02*
X53747619Y-21552380D01*
X53652380Y-21695238D01*
X53557142Y-21790476D01*
X53461904Y-21838095D01*
X54938095Y-21552380D02*
X54461904Y-21552380D01*
X54414285Y-22028571D01*
X54461904Y-21980952D01*
X54557142Y-21933333D01*
X54795238Y-21933333D01*
X54890476Y-21980952D01*
X54938095Y-22028571D01*
X54985714Y-22123809D01*
X54985714Y-22361904D01*
X54938095Y-22457142D01*
X54890476Y-22504761D01*
X54795238Y-22552380D01*
X54557142Y-22552380D01*
X54461904Y-22504761D01*
X54414285Y-22457142D01*
X62028571Y-22647619D02*
X61933333Y-22600000D01*
X61838095Y-22504761D01*
X61695238Y-22361904D01*
X61600000Y-22314285D01*
X61504761Y-22314285D01*
X61552380Y-22552380D02*
X61457142Y-22504761D01*
X61361904Y-22409523D01*
X61314285Y-22219047D01*
X61314285Y-21885714D01*
X61361904Y-21695238D01*
X61457142Y-21600000D01*
X61552380Y-21552380D01*
X61742857Y-21552380D01*
X61838095Y-21600000D01*
X61933333Y-21695238D01*
X61980952Y-21885714D01*
X61980952Y-22219047D01*
X61933333Y-22409523D01*
X61838095Y-22504761D01*
X61742857Y-22552380D01*
X61552380Y-22552380D01*
X62933333Y-22552380D02*
X62361904Y-22552380D01*
X62647619Y-22552380D02*
X62647619Y-21552380D01*
X62552380Y-21695238D01*
X62457142Y-21790476D01*
X62361904Y-21838095D01*
X63790476Y-21552380D02*
X63600000Y-21552380D01*
X63504761Y-21600000D01*
X63457142Y-21647619D01*
X63361904Y-21790476D01*
X63314285Y-21980952D01*
X63314285Y-22361904D01*
X63361904Y-22457142D01*
X63409523Y-22504761D01*
X63504761Y-22552380D01*
X63695238Y-22552380D01*
X63790476Y-22504761D01*
X63838095Y-22457142D01*
X63885714Y-22361904D01*
X63885714Y-22123809D01*
X63838095Y-22028571D01*
X63790476Y-21980952D01*
X63695238Y-21933333D01*
X63504761Y-21933333D01*
X63409523Y-21980952D01*
X63361904Y-22028571D01*
X63314285Y-22123809D01*
X70828571Y-22747619D02*
X70733333Y-22700000D01*
X70638095Y-22604761D01*
X70495238Y-22461904D01*
X70400000Y-22414285D01*
X70304761Y-22414285D01*
X70352380Y-22652380D02*
X70257142Y-22604761D01*
X70161904Y-22509523D01*
X70114285Y-22319047D01*
X70114285Y-21985714D01*
X70161904Y-21795238D01*
X70257142Y-21700000D01*
X70352380Y-21652380D01*
X70542857Y-21652380D01*
X70638095Y-21700000D01*
X70733333Y-21795238D01*
X70780952Y-21985714D01*
X70780952Y-22319047D01*
X70733333Y-22509523D01*
X70638095Y-22604761D01*
X70542857Y-22652380D01*
X70352380Y-22652380D01*
X71733333Y-22652380D02*
X71161904Y-22652380D01*
X71447619Y-22652380D02*
X71447619Y-21652380D01*
X71352380Y-21795238D01*
X71257142Y-21890476D01*
X71161904Y-21938095D01*
X72066666Y-21652380D02*
X72733333Y-21652380D01*
X72304761Y-22652380D01*
X79728571Y-22747619D02*
X79633333Y-22700000D01*
X79538095Y-22604761D01*
X79395238Y-22461904D01*
X79300000Y-22414285D01*
X79204761Y-22414285D01*
X79252380Y-22652380D02*
X79157142Y-22604761D01*
X79061904Y-22509523D01*
X79014285Y-22319047D01*
X79014285Y-21985714D01*
X79061904Y-21795238D01*
X79157142Y-21700000D01*
X79252380Y-21652380D01*
X79442857Y-21652380D01*
X79538095Y-21700000D01*
X79633333Y-21795238D01*
X79680952Y-21985714D01*
X79680952Y-22319047D01*
X79633333Y-22509523D01*
X79538095Y-22604761D01*
X79442857Y-22652380D01*
X79252380Y-22652380D01*
X80633333Y-22652380D02*
X80061904Y-22652380D01*
X80347619Y-22652380D02*
X80347619Y-21652380D01*
X80252380Y-21795238D01*
X80157142Y-21890476D01*
X80061904Y-21938095D01*
X81204761Y-22080952D02*
X81109523Y-22033333D01*
X81061904Y-21985714D01*
X81014285Y-21890476D01*
X81014285Y-21842857D01*
X81061904Y-21747619D01*
X81109523Y-21700000D01*
X81204761Y-21652380D01*
X81395238Y-21652380D01*
X81490476Y-21700000D01*
X81538095Y-21747619D01*
X81585714Y-21842857D01*
X81585714Y-21890476D01*
X81538095Y-21985714D01*
X81490476Y-22033333D01*
X81395238Y-22080952D01*
X81204761Y-22080952D01*
X81109523Y-22128571D01*
X81061904Y-22176190D01*
X81014285Y-22271428D01*
X81014285Y-22461904D01*
X81061904Y-22557142D01*
X81109523Y-22604761D01*
X81204761Y-22652380D01*
X81395238Y-22652380D01*
X81490476Y-22604761D01*
X81538095Y-22557142D01*
X81585714Y-22461904D01*
X81585714Y-22271428D01*
X81538095Y-22176190D01*
X81490476Y-22128571D01*
X81395238Y-22080952D01*
X88928571Y-22847619D02*
X88833333Y-22800000D01*
X88738095Y-22704761D01*
X88595238Y-22561904D01*
X88500000Y-22514285D01*
X88404761Y-22514285D01*
X88452380Y-22752380D02*
X88357142Y-22704761D01*
X88261904Y-22609523D01*
X88214285Y-22419047D01*
X88214285Y-22085714D01*
X88261904Y-21895238D01*
X88357142Y-21800000D01*
X88452380Y-21752380D01*
X88642857Y-21752380D01*
X88738095Y-21800000D01*
X88833333Y-21895238D01*
X88880952Y-22085714D01*
X88880952Y-22419047D01*
X88833333Y-22609523D01*
X88738095Y-22704761D01*
X88642857Y-22752380D01*
X88452380Y-22752380D01*
X89833333Y-22752380D02*
X89261904Y-22752380D01*
X89547619Y-22752380D02*
X89547619Y-21752380D01*
X89452380Y-21895238D01*
X89357142Y-21990476D01*
X89261904Y-22038095D01*
X90309523Y-22752380D02*
X90500000Y-22752380D01*
X90595238Y-22704761D01*
X90642857Y-22657142D01*
X90738095Y-22514285D01*
X90785714Y-22323809D01*
X90785714Y-21942857D01*
X90738095Y-21847619D01*
X90690476Y-21800000D01*
X90595238Y-21752380D01*
X90404761Y-21752380D01*
X90309523Y-21800000D01*
X90261904Y-21847619D01*
X90214285Y-21942857D01*
X90214285Y-22180952D01*
X90261904Y-22276190D01*
X90309523Y-22323809D01*
X90404761Y-22371428D01*
X90595238Y-22371428D01*
X90690476Y-22323809D01*
X90738095Y-22276190D01*
X90785714Y-22180952D01*
M02*
