M48
; DRILL file {KiCad 6.0.0-rc1-unknown-5edf350~66~ubuntu18.10.1} date Thu 07 Feb 2019 09:52:41 AM EST
; FORMAT={2:4/ absolute / inch / suppress leading zeros}
; #@! TF.CreationDate,2019-02-07T09:52:41-05:00
; #@! TF.GenerationSoftware,Kicad,Pcbnew,6.0.0-rc1-unknown-5edf350~66~ubuntu18.10.1
FMAT,2
INCH,TZ
T1C0.0098
T2C0.0157
T3C0.0197
T4C0.0472
T5C0.0512
T6C0.1063
%
G90
G05
T1
X36024Y-7539
X36024Y-8130
X36220Y-7835
X36417Y-7539
X36417Y-8130
T2
X1378Y-33858
X4606Y-23228
X5433Y-22874
X5630Y-23976
X6102Y-22835
X7126Y-22756
X7165Y-28701
X9016Y-15630
X9252Y-13189
X9488Y-30315
X9651Y-32092
X9843Y-4134
X9843Y-9606
X10906Y-22087
X10945Y-19724
X11339Y-29843
X11457Y-4764
X11496Y-10000
X11614Y-12205
X11949Y-31211
X12008Y-22047
X12165Y-26299
X12397Y-28735
X12402Y-29134
X12598Y-22008
X12677Y-26890
X12717Y-26260
X13031Y-28740
X13189Y-21969
X13494Y-28416
X13583Y-35827
X13583Y-37598
X13677Y-30719
X13780Y-21969
X13780Y-33465
X14291Y-26614
X14331Y-25197
X14371Y-29970
X14606Y-22008
X14685Y-32244
X15000Y-29252
X15005Y-29685
X15709Y-26890
X15866Y-26417
X15922Y-5283
X16142Y-15748
X16142Y-27043
X16260Y-16772
X16260Y-21220
X16650Y-10127
X16772Y-23307
X16772Y-23976
X16890Y-29134
X17362Y-28819
X17480Y-14213
X17520Y-32283
X17835Y-11339
X18189Y-19567
X18189Y-19961
X18189Y-20394
X18189Y-20866
X18346Y-10630
X18346Y-19094
X18465Y-18661
X18701Y-18268
X18836Y-28472
X19094Y-32638
X19094Y-37657
X19144Y-24291
X19173Y-30827
X19173Y-33268
X19213Y-29970
X19321Y-24660
X19449Y-14409
X19498Y-25042
X19528Y-29567
X19675Y-25472
X19764Y-29094
X19852Y-25866
X19921Y-13504
X20010Y-13976
X20029Y-20434
X20039Y-19647
X20039Y-18661
X20039Y-19173
X20040Y-20041
X20043Y-20919
X20049Y-28504
X20089Y-15828
X20118Y-13110
X20315Y-22717
X20472Y-12087
X20630Y-17756
X21024Y-32638
X21024Y-33287
X21457Y-2441
X21457Y-8465
X21496Y-38583
X21575Y-10630
X21614Y-15512
X21654Y-25787
X21811Y-25000
X21969Y-9803
X22096Y-24567
X22126Y-4567
X22357Y-11752
X22402Y-12372
X22402Y-16339
X22441Y-25394
X22677Y-17756
X22677Y-32126
X22692Y-36888
X22717Y-20472
X22726Y-24258
X22795Y-13110
X23135Y-21850
X23189Y-24331
X23209Y-23914
X23228Y-13465
X23228Y-36417
X23442Y-37008
X23618Y-25192
X23661Y-32913
X23661Y-33504
X23740Y-13809
X23740Y-18268
X23976Y-15906
X23976Y-16299
X24016Y-25039
X24016Y-36220
X24252Y-14094
X24252Y-21102
X24252Y-21575
X24252Y-32913
X24252Y-33504
X24370Y-24173
X24449Y-35276
X24685Y-24449
X24764Y-25866
X24803Y-34055
X24882Y-1299
X25197Y-34252
X25236Y-18425
X25394Y-12756
X25394Y-35433
X25551Y-21220
X25709Y-8543
X25748Y-12520
X25748Y-38583
X25787Y-23425
X25984Y-17087
X26074Y-20942
X26102Y-20236
X26255Y-21292
X26453Y-21900
X26463Y-12069
X26496Y-30236
X26576Y-22274
X26693Y-7087
X26772Y-11417
X27638Y-25748
X27953Y-25000
X28346Y-25197
X28425Y-31417
X28425Y-34567
X28543Y-17047
X28848Y-18425
X29134Y-8071
X29134Y-11024
X29134Y-14016
X29331Y-32087
X29331Y-32874
X29764Y-24488
X29892Y-21220
X30079Y-12795
X30079Y-22874
X30079Y-23307
X30118Y-21929
X30118Y-26378
X30157Y-23780
X30157Y-24252
X32480Y-15866
X32874Y-32087
X32874Y-32874
X32874Y-33661
X33110Y-16614
X33189Y-9764
X33268Y-32087
X33701Y-12323
X33740Y-28465
X34016Y-22126
X34094Y-11732
X34213Y-24724
X34331Y-31614
X34843Y-30512
X35079Y-21575
X35079Y-22520
X35276Y-24764
X35512Y-15079
X35748Y-19528
X36024Y-16654
X36024Y-29331
X36417Y-22126
X37520Y-5472
X37874Y-5472
T3
X36604Y-1969
X36838Y-1405
X36838Y-2532
X37402Y-1171
X37402Y-2766
X37965Y-1405
X37965Y-2532
X38199Y-1969
X1171Y-37402
X1405Y-36838
X1405Y-37965
X1969Y-36604
X1969Y-38199
X2532Y-36838
X2532Y-37965
X2766Y-37402
X1171Y-1969
X1405Y-1405
X1405Y-2532
X1969Y-1171
X1969Y-2766
X2532Y-1405
X2532Y-2532
X2766Y-1969
X36604Y-37402
X36838Y-36838
X36838Y-37965
X37402Y-36604
X37402Y-38199
X37965Y-36838
X37965Y-37965
X38199Y-37402
T4
X26264Y-2323
X27264Y-2323
X34197Y-2323
X35197Y-2323
X2283Y-26220
X2283Y-27220
X31598Y-2323
X32598Y-2323
X28961Y-2323
X29961Y-2323
X2308Y-20591
X2308Y-21591
X2308Y-22591
X2308Y-23591
T5
X2205Y-14646
X2205Y-16614
X2205Y-9587
X2205Y-11555
X2205Y-4469
X2205Y-6437
T6
X37402Y-1969
X1969Y-37402
X1969Y-1969
X37402Y-37402
T0
M30
