M48
; DRILL file {KiCad (5.1.0-1152-gc9ccd8a64)} date 2019-07-22 10:42:36 AM
; FORMAT={-:-/ absolute / inch / decimal}
; #@! TF.CreationDate,2019-07-22T10:42:36-04:00
; #@! TF.GenerationSoftware,Kicad,Pcbnew,(5.1.0-1152-gc9ccd8a64)
FMAT,2
INCH
T1C0.0098
T2C0.0157
T3C0.0197
T4C0.0394
T5C0.0472
T6C0.0512
T7C0.0591
T8C0.1063
%
G90
G05
T1
X3.7324Y-0.7539
X3.7324Y-0.813
X3.752Y-0.7835
X3.7717Y-0.7539
X3.7717Y-0.813
T2
X0.1378Y-3.3858
X0.4606Y-2.3228
X0.5433Y-2.2874
X0.563Y-2.3976
X0.6102Y-2.2835
X0.7165Y-2.2874
X0.7165Y-2.8701
X0.7628Y-1.5551
X0.7628Y-1.5906
X0.8898Y-1.3189
X0.9252Y-1.3189
X0.9488Y-3.0315
X0.9651Y-3.2092
X0.9843Y-0.4134
X0.9843Y-0.9606
X1.0906Y-2.2087
X1.0945Y-1.9724
X1.126Y-1.2205
X1.1339Y-2.9843
X1.1457Y-0.4764
X1.1496Y-1.0
X1.1614Y-1.2205
X1.1949Y-3.1211
X1.2008Y-2.2047
X1.2165Y-2.6299
X1.2397Y-2.8735
X1.2402Y-2.9134
X1.2598Y-2.2008
X1.2677Y-2.689
X1.2717Y-2.626
X1.3031Y-2.874
X1.315Y-2.0039
X1.3189Y-2.1969
X1.3494Y-2.8416
X1.3583Y-3.5827
X1.3583Y-3.7598
X1.3677Y-3.0719
X1.378Y-2.1969
X1.378Y-3.3465
X1.4291Y-2.6614
X1.4331Y-2.5197
X1.4371Y-2.997
X1.4606Y-2.2008
X1.4685Y-3.2244
X1.5Y-2.9252
X1.5005Y-2.9685
X1.5709Y-2.689
X1.5866Y-2.6417
X1.5922Y-0.5283
X1.6142Y-1.5748
X1.6142Y-2.7043
X1.626Y-1.6772
X1.626Y-2.122
X1.665Y-1.0127
X1.6772Y-2.3307
X1.6772Y-2.3976
X1.689Y-2.9134
X1.7362Y-2.8819
X1.748Y-1.4213
X1.752Y-3.2283
X1.7835Y-1.1339
X1.8189Y-1.9567
X1.8189Y-1.9961
X1.8189Y-2.0394
X1.8189Y-2.0866
X1.8346Y-1.063
X1.8346Y-1.9094
X1.8465Y-1.8661
X1.8701Y-1.8268
X1.8835Y-2.8473
X1.9094Y-3.2638
X1.9094Y-3.7657
X1.9144Y-2.4291
X1.9173Y-3.0827
X1.9173Y-3.3268
X1.9321Y-2.466
X1.9498Y-2.5042
X1.95Y-1.03
X1.9567Y-3.0
X1.9675Y-2.5472
X1.9695Y-2.9567
X1.9852Y-2.5866
X1.9872Y-2.9094
X1.9915Y-1.3504
X2.0029Y-2.0434
X2.0039Y-1.9647
X2.0039Y-1.8661
X2.0039Y-1.9173
X2.004Y-2.0041
X2.0043Y-2.0919
X2.0049Y-2.8504
X2.0089Y-1.5828
X2.0118Y-1.311
X2.03Y-0.85
X2.0315Y-2.2717
X2.04Y-0.32
X2.05Y-0.98
X2.063Y-1.7756
X2.1024Y-3.2638
X2.1024Y-3.3287
X2.1496Y-3.8583
X2.1575Y-1.063
X2.1614Y-1.5512
X2.1654Y-2.5787
X2.1811Y-2.5
X2.19Y-0.95
X2.2096Y-2.4567
X2.2126Y-0.4567
X2.2357Y-1.1752
X2.2402Y-1.2372
X2.2402Y-1.6339
X2.2441Y-2.5394
X2.2659Y-3.6912
X2.2677Y-1.7756
X2.2677Y-3.2126
X2.2717Y-2.0472
X2.2726Y-2.4258
X2.2795Y-1.311
X2.29Y-3.65
X2.3135Y-2.185
X2.3189Y-2.4331
X2.3209Y-2.3914
X2.3228Y-1.3465
X2.3373Y-3.6416
X2.3618Y-2.5192
X2.3661Y-3.2913
X2.3661Y-3.3504
X2.374Y-1.8268
X2.3976Y-1.5906
X2.3976Y-1.6299
X2.4016Y-2.5039
X2.4016Y-3.622
X2.4252Y-2.1102
X2.4252Y-2.1575
X2.4252Y-3.2913
X2.4252Y-3.3504
X2.437Y-2.4173
X2.4685Y-2.4449
X2.4764Y-2.5866
X2.48Y-3.48
X2.4882Y-0.1299
X2.49Y-3.4
X2.5236Y-1.8425
X2.5354Y-3.3661
X2.5394Y-1.2756
X2.54Y-3.3
X2.54Y-3.48
X2.54Y-3.54
X2.5453Y-3.435
X2.5551Y-2.122
X2.5748Y-1.252
X2.5748Y-3.8583
X2.5787Y-2.3425
X2.5984Y-1.7087
X2.6074Y-2.0942
X2.6102Y-2.0236
X2.6255Y-2.1292
X2.6453Y-2.19
X2.6496Y-3.0236
X2.6576Y-2.2274
X2.68Y-3.19
X2.74Y-0.77
X2.7638Y-2.5748
X2.79Y-0.75
X2.7953Y-2.5
X2.8346Y-2.5197
X2.8425Y-3.1417
X2.8425Y-3.4567
X2.8543Y-1.7047
X2.86Y-1.0
X2.8848Y-1.8425
X2.9134Y-1.4016
X2.9331Y-3.2087
X2.9331Y-3.2874
X2.9764Y-2.4488
X2.9892Y-2.122
X3.0079Y-1.2795
X3.0079Y-2.2874
X3.0079Y-2.3307
X3.0118Y-2.1929
X3.0118Y-2.6378
X3.0157Y-2.378
X3.0157Y-2.4252
X3.04Y-0.77
X3.08Y-0.75
X3.248Y-1.5866
X3.2874Y-3.2087
X3.2874Y-3.2874
X3.2874Y-3.3661
X3.311Y-1.6614
X3.3268Y-3.2087
X3.3307Y-0.7677
X3.3701Y-1.2323
X3.374Y-2.8465
X3.38Y-0.75
X3.4016Y-2.2126
X3.4094Y-1.1732
X3.4213Y-2.4724
X3.4331Y-3.1614
X3.4843Y-3.0512
X3.5079Y-2.1575
X3.5079Y-2.252
X3.5276Y-2.4764
X3.5512Y-1.5079
X3.5689Y-0.9764
X3.63Y-0.55
T3
X3.6604Y-3.7402
X3.6838Y-3.6838
X3.6838Y-3.7965
X3.7402Y-3.6604
X3.7402Y-3.8199
X3.7965Y-3.6838
X3.7965Y-3.7965
X3.8199Y-3.7402
X3.6604Y-0.1969
X3.6838Y-0.1405
X3.6838Y-0.2532
X3.7402Y-0.1171
X3.7402Y-0.2766
X0.1969Y-3.6604
X0.2532Y-3.6838
X0.1171Y-0.1969
X0.1405Y-0.1405
X0.1405Y-0.2532
X0.1969Y-0.1171
X0.1969Y-0.2766
X0.2532Y-0.1405
X0.1405Y-3.6838
X0.1969Y-3.8199
X3.7965Y-0.1405
X3.7965Y-0.2532
X3.8199Y-0.1969
X0.2532Y-3.7965
X0.2532Y-0.2532
X0.2766Y-0.1969
X0.1171Y-3.7402
X0.1405Y-3.7965
X0.2766Y-3.7402
T4
X2.2598Y-2.7047
X2.2598Y-2.9016
T5
X2.8961Y-0.2323
X2.9961Y-0.2323
X0.2308Y-2.0591
X0.2308Y-2.1591
X0.2308Y-2.2591
X0.2308Y-2.3591
X0.2283Y-2.622
X0.2283Y-2.722
X3.1598Y-0.2323
X3.2598Y-0.2323
X3.7283Y-3.0173
X3.7283Y-3.1173
X3.7283Y-3.2173
X3.7283Y-3.3173
X3.7283Y-3.4173
X3.7323Y-1.6197
X3.7323Y-1.7197
X3.731Y-2.436
X3.731Y-2.636
X3.4197Y-0.2323
X3.5197Y-0.2323
X2.6264Y-0.2323
X2.7264Y-0.2323
X3.731Y-2.236
X3.731Y-2.336
X3.731Y-2.536
X3.7323Y-1.8197
X3.7323Y-1.9197
X3.7323Y-2.0197
T6
X0.2205Y-0.4469
X0.2205Y-0.6437
X0.2205Y-0.9587
X0.2205Y-1.1555
X0.2205Y-1.4646
X0.2205Y-1.6614
T7
X1.25Y-2.37
X0.52Y-2.04
X3.839Y-0.41
X2.471Y-0.58
X2.212Y-0.58
T8
X3.7402Y-3.7402
X0.1969Y-3.7402
X3.7402Y-0.1969
X0.1969Y-0.1969
T0
M30
