G04 #@! TF.GenerationSoftware,KiCad,Pcbnew,6.0.0-rc1-unknown-5edf350~66~ubuntu18.10.1*
G04 #@! TF.CreationDate,2019-02-07T09:52:22-05:00
G04 #@! TF.ProjectId,BMS-Master,424d532d-4d61-4737-9465-722e6b696361,V0.2*
G04 #@! TF.SameCoordinates,Original*
G04 #@! TF.FileFunction,Paste,Top*
G04 #@! TF.FilePolarity,Positive*
%FSLAX46Y46*%
G04 Gerber Fmt 4.6, Leading zero omitted, Abs format (unit mm)*
G04 Created by KiCad (PCBNEW 6.0.0-rc1-unknown-5edf350~66~ubuntu18.10.1) date 2019-02-07 09:52:22*
%MOMM*%
%LPD*%
G04 APERTURE LIST*
%ADD10R,1.500000X1.780000*%
%ADD11R,1.200000X0.750000*%
%ADD12R,1.000000X1.000000*%
%ADD13R,0.610000X1.500000*%
%ADD14R,1.500000X0.610000*%
%ADD15R,1.200000X0.900000*%
%ADD16R,1.500000X0.450000*%
%ADD17R,0.750000X1.200000*%
%ADD18R,0.300000X1.400000*%
%ADD19R,1.550000X0.600000*%
%ADD20R,1.300000X1.900000*%
%ADD21R,1.000000X2.800000*%
%ADD22R,1.000000X0.800000*%
%ADD23R,1.000000X1.200000*%
%ADD24R,0.700000X1.200000*%
%ADD25R,1.300000X0.250000*%
%ADD26R,0.250000X1.300000*%
%ADD27R,3.100000X2.200000*%
%ADD28R,1.700000X0.800000*%
%ADD29R,0.600000X1.550000*%
%ADD30R,1.905000X0.640000*%
%ADD31R,0.650000X0.650000*%
%ADD32R,0.820000X0.600000*%
%ADD33R,0.900000X1.250000*%
%ADD34R,0.900000X1.850000*%
%ADD35R,1.450000X0.870000*%
%ADD36R,0.750000X0.750000*%
%ADD37R,1.500000X1.250000*%
%ADD38R,2.650000X2.030000*%
%ADD39R,0.800000X0.900000*%
%ADD40R,0.900000X0.800000*%
%ADD41R,1.900000X2.400000*%
%ADD42R,2.350000X0.650000*%
%ADD43R,1.500000X1.300000*%
%ADD44R,0.900000X1.200000*%
%ADD45R,1.300000X1.500000*%
%ADD46R,0.900000X1.700000*%
%ADD47R,5.500000X2.150000*%
%ADD48R,1.175000X1.900000*%
%ADD49R,2.375000X1.900000*%
%ADD50R,1.475000X2.100000*%
%ADD51R,0.450000X1.380000*%
%ADD52R,0.800000X0.750000*%
%ADD53R,2.000000X2.000000*%
%ADD54R,0.300000X0.850000*%
%ADD55R,0.850000X0.300000*%
%ADD56R,0.780000X0.780000*%
%ADD57R,1.060000X0.650000*%
%ADD58R,1.500000X0.800000*%
%ADD59R,1.400000X0.300000*%
%ADD60R,1.250000X1.500000*%
%ADD61R,1.300000X1.100000*%
%ADD62R,1.560000X0.650000*%
%ADD63O,0.550000X0.300000*%
%ADD64R,0.150000X0.300000*%
%ADD65R,0.680000X1.050000*%
%ADD66R,0.260000X0.500000*%
%ADD67R,1.950000X1.020000*%
%ADD68R,2.000000X1.780000*%
G04 APERTURE END LIST*
D10*
X83631840Y-90070000D03*
X74101840Y-87530000D03*
X83631840Y-87530000D03*
X74101840Y-90070000D03*
D11*
X28850000Y-68000000D03*
X30750000Y-68000000D03*
D12*
X12000000Y-75290000D03*
X12000000Y-83110000D03*
X16000000Y-83110000D03*
X16000000Y-75290000D03*
X19250000Y-80200000D03*
X19250000Y-78200000D03*
D13*
X18000000Y-83310000D03*
X19000000Y-83310000D03*
X20000000Y-83310000D03*
X21000000Y-83310000D03*
X22000000Y-83310000D03*
X23000000Y-83310000D03*
X24000000Y-83310000D03*
X25000000Y-83310000D03*
D14*
X26500000Y-82700000D03*
X26500000Y-81700000D03*
X26500000Y-80700000D03*
X26500000Y-79700000D03*
X26500000Y-78700000D03*
X26500000Y-77700000D03*
X26500000Y-76700000D03*
X26500000Y-75700000D03*
D13*
X25000000Y-75090000D03*
X24000000Y-75090000D03*
X23000000Y-75090000D03*
X22000000Y-75090000D03*
X21000000Y-75090000D03*
X20000000Y-75090000D03*
X19000000Y-75090000D03*
X18000000Y-75090000D03*
D15*
X76000000Y-35600000D03*
X78200000Y-35600000D03*
D16*
X68080520Y-22442480D03*
X68080520Y-23092480D03*
X68080520Y-23742480D03*
X68080520Y-24392480D03*
X68080520Y-25042480D03*
X68080520Y-25692480D03*
X68080520Y-26342480D03*
X68080520Y-26992480D03*
X73980520Y-26992480D03*
X73980520Y-26342480D03*
X73980520Y-25692480D03*
X73980520Y-25042480D03*
X73980520Y-24392480D03*
X73980520Y-23742480D03*
X73980520Y-23092480D03*
X73980520Y-22442480D03*
D17*
X38100000Y-54250000D03*
X38100000Y-52350000D03*
X32000000Y-52350000D03*
X32000000Y-54250000D03*
D18*
X39800000Y-52400000D03*
X40300000Y-52400000D03*
X40800000Y-52400000D03*
X41300000Y-52400000D03*
X41800000Y-52400000D03*
X41800000Y-56800000D03*
X41300000Y-56800000D03*
X40800000Y-56800000D03*
X40300000Y-56800000D03*
X39800000Y-56800000D03*
D19*
X61696280Y-8769000D03*
X61696280Y-7499000D03*
X61696280Y-6229000D03*
X61696280Y-4959000D03*
X56296280Y-4959000D03*
X56296280Y-6229000D03*
X56296280Y-7499000D03*
X56296280Y-8769000D03*
D20*
X46800000Y-95650000D03*
D21*
X33300000Y-95200000D03*
D22*
X33300000Y-91050000D03*
D23*
X33300000Y-84850000D03*
X44450000Y-80550000D03*
D24*
X36300000Y-80550000D03*
X37400000Y-80550000D03*
X38500000Y-80550000D03*
X39600000Y-80550000D03*
X40700000Y-80550000D03*
X41800000Y-80550000D03*
X42900000Y-80550000D03*
X35200000Y-80550000D03*
X34250000Y-80550000D03*
D25*
X63362600Y-51468120D03*
X63362600Y-51968120D03*
X63362600Y-52468120D03*
X63362600Y-52968120D03*
X63362600Y-53468120D03*
X63362600Y-53968120D03*
X63362600Y-54468120D03*
X63362600Y-54968120D03*
X63362600Y-55468120D03*
X63362600Y-55968120D03*
X63362600Y-56468120D03*
X63362600Y-56968120D03*
D26*
X61762600Y-58568120D03*
X61262600Y-58568120D03*
X60762600Y-58568120D03*
X60262600Y-58568120D03*
X59762600Y-58568120D03*
X59262600Y-58568120D03*
X58762600Y-58568120D03*
X58262600Y-58568120D03*
X57762600Y-58568120D03*
X57262600Y-58568120D03*
X56762600Y-58568120D03*
X56262600Y-58568120D03*
D25*
X54662600Y-56968120D03*
X54662600Y-56468120D03*
X54662600Y-55968120D03*
X54662600Y-55468120D03*
X54662600Y-54968120D03*
X54662600Y-54468120D03*
X54662600Y-53968120D03*
X54662600Y-53468120D03*
X54662600Y-52968120D03*
X54662600Y-52468120D03*
X54662600Y-51968120D03*
X54662600Y-51468120D03*
D26*
X56262600Y-49868120D03*
X56762600Y-49868120D03*
X57262600Y-49868120D03*
X57762600Y-49868120D03*
X58262600Y-49868120D03*
X58762600Y-49868120D03*
X59262600Y-49868120D03*
X59762600Y-49868120D03*
X60262600Y-49868120D03*
X60762600Y-49868120D03*
X61262600Y-49868120D03*
X61762600Y-49868120D03*
D27*
X81550000Y-55400000D03*
X81550000Y-65400000D03*
D28*
X78650000Y-57900000D03*
X78650000Y-59150000D03*
X78650000Y-60400000D03*
X78650000Y-61650000D03*
X78650000Y-62900000D03*
D29*
X21095000Y-55900000D03*
X22365000Y-55900000D03*
X23635000Y-55900000D03*
X24905000Y-55900000D03*
X24905000Y-50500000D03*
X23635000Y-50500000D03*
X22365000Y-50500000D03*
X21095000Y-50500000D03*
D30*
X40197500Y-18195000D03*
X40197500Y-19465000D03*
X40197500Y-20735000D03*
X40197500Y-22005000D03*
X29502500Y-22005000D03*
X29502500Y-20735000D03*
X29502500Y-19465000D03*
X29502500Y-18195000D03*
D27*
X95005160Y-73228400D03*
X95005160Y-83228400D03*
D28*
X92105160Y-75728400D03*
X92105160Y-76978400D03*
X92105160Y-78228400D03*
X92105160Y-79478400D03*
X92105160Y-80728400D03*
D31*
X82139400Y-13527560D03*
D32*
X83529400Y-13112560D03*
X83529400Y-13942560D03*
D33*
X80449400Y-12702560D03*
X80449400Y-14352560D03*
X85349400Y-12702560D03*
X85349400Y-14352560D03*
D34*
X78800000Y-12825000D03*
X78800000Y-15175000D03*
X72400000Y-15175000D03*
X72400000Y-12825000D03*
D35*
X75900000Y-14610000D03*
X75900000Y-13390000D03*
D36*
X74150000Y-14000000D03*
D17*
X92100000Y-36550000D03*
X92100000Y-34650000D03*
D37*
X20422480Y-33409280D03*
X17922480Y-33409280D03*
D38*
X89610000Y-11200000D03*
X93790000Y-11200000D03*
D39*
X88150000Y-74800000D03*
X86250000Y-74800000D03*
X87200000Y-76800000D03*
X64150000Y-41400000D03*
X62250000Y-41400000D03*
X63200000Y-43400000D03*
D40*
X56985080Y-22985160D03*
X56985080Y-24885160D03*
X58985080Y-23935160D03*
D41*
X62454520Y-38292320D03*
X58354520Y-38292320D03*
D42*
X74226241Y-72180321D03*
X74226241Y-74720321D03*
X74226241Y-77260321D03*
X74226241Y-79800321D03*
X83651241Y-79800321D03*
X83676241Y-77260321D03*
X83676241Y-74720321D03*
X83676241Y-72180321D03*
D43*
X70950000Y-43300000D03*
X68250000Y-43300000D03*
D44*
X30500000Y-75800000D03*
X30500000Y-78000000D03*
X93700000Y-34500000D03*
X93700000Y-36700000D03*
X93700000Y-30300000D03*
X93700000Y-32500000D03*
X90500000Y-30300000D03*
X90500000Y-32500000D03*
X92100000Y-30300000D03*
X92100000Y-32500000D03*
X89800000Y-13800000D03*
X89800000Y-16000000D03*
D45*
X82221320Y-20759600D03*
X82221320Y-18059600D03*
D15*
X83400000Y-32700000D03*
X85600000Y-32700000D03*
D45*
X84283800Y-20759600D03*
X84283800Y-18059600D03*
D44*
X84771440Y-35755920D03*
X84771440Y-37955920D03*
X82300000Y-45700000D03*
X82300000Y-43500000D03*
D15*
X90000000Y-47500000D03*
X87800000Y-47500000D03*
D44*
X52400000Y-41400000D03*
X52400000Y-43600000D03*
D15*
X63500000Y-30000000D03*
X65700000Y-30000000D03*
D44*
X55300000Y-41400000D03*
X55300000Y-43600000D03*
D15*
X39000000Y-60900000D03*
X41200000Y-60900000D03*
X39000000Y-59300000D03*
X41200000Y-59300000D03*
X58353840Y-10460640D03*
X56153840Y-10460640D03*
X61600000Y-10500000D03*
X63800000Y-10500000D03*
D44*
X35000000Y-52200000D03*
X35000000Y-54400000D03*
X53269440Y-6335240D03*
X53269440Y-8535240D03*
X53025600Y-19365440D03*
X53025600Y-21565440D03*
D15*
X50929920Y-10285120D03*
X53129920Y-10285120D03*
X50848640Y-4504080D03*
X53048640Y-4504080D03*
X50736880Y-23340720D03*
X52936880Y-23340720D03*
X50736880Y-17544440D03*
X52936880Y-17544440D03*
D44*
X36600000Y-52200000D03*
X36600000Y-54400000D03*
D15*
X46799880Y-10244480D03*
X48999880Y-10244480D03*
X46759240Y-4544720D03*
X48959240Y-4544720D03*
X46627160Y-23340720D03*
X48827160Y-23340720D03*
X46627160Y-17493640D03*
X48827160Y-17493640D03*
X44834280Y-10244480D03*
X42634280Y-10244480D03*
X44834280Y-4544720D03*
X42634280Y-4544720D03*
X44661560Y-23340720D03*
X42461560Y-23340720D03*
X44661560Y-17493640D03*
X42461560Y-17493640D03*
D44*
X42484600Y-6248880D03*
X42484600Y-8448880D03*
X42316960Y-19358000D03*
X42316960Y-21558000D03*
D15*
X24700000Y-59200000D03*
X22500000Y-59200000D03*
X22500000Y-60800000D03*
X24700000Y-60800000D03*
D44*
X19400000Y-58500000D03*
X19400000Y-60700000D03*
D15*
X27116760Y-9311600D03*
X24916760Y-9311600D03*
X27204200Y-23132440D03*
X25004200Y-23132440D03*
D44*
X25772920Y-5554760D03*
X25772920Y-7754760D03*
X25911160Y-19213040D03*
X25911160Y-21413040D03*
X10300000Y-56800000D03*
X10300000Y-59000000D03*
D46*
X21315560Y-5811480D03*
X24215560Y-5811480D03*
X21387760Y-19200520D03*
X24287760Y-19200520D03*
X16794360Y-5811480D03*
X19694360Y-5811480D03*
X16912280Y-19200520D03*
X19812280Y-19200520D03*
X12298560Y-5786080D03*
X15198560Y-5786080D03*
X12436800Y-19195440D03*
X15336800Y-19195440D03*
D44*
X10300000Y-52700000D03*
X10300000Y-54900000D03*
D11*
X87838120Y-87194600D03*
X85938120Y-87194600D03*
D15*
X65829600Y-88396880D03*
X68029600Y-88396880D03*
X65900720Y-82407560D03*
X68100720Y-82407560D03*
X55019360Y-82999000D03*
X57219360Y-82999000D03*
X55019360Y-84543320D03*
X57219360Y-84543320D03*
X89041760Y-58555440D03*
X86841760Y-58555440D03*
X86857000Y-61608520D03*
X89057000Y-61608520D03*
X89041760Y-60099760D03*
X86841760Y-60099760D03*
X68411806Y-10436833D03*
X70611806Y-10436833D03*
X75734964Y-10423315D03*
X77934964Y-10423315D03*
D44*
X76010120Y-21666800D03*
X76010120Y-19466800D03*
X79098760Y-21666800D03*
X79098760Y-19466800D03*
X77554440Y-21666800D03*
X77554440Y-19466800D03*
D15*
X70210280Y-19297120D03*
X68010280Y-19297120D03*
D44*
X70812600Y-30768760D03*
X70812600Y-28568760D03*
X72362000Y-28600000D03*
X72362000Y-30800000D03*
D15*
X63417960Y-28375080D03*
X65617960Y-28375080D03*
X63438280Y-25296600D03*
X65638280Y-25296600D03*
X63438280Y-26830760D03*
X65638280Y-26830760D03*
X63448440Y-23731960D03*
X65648440Y-23731960D03*
X59323480Y-19149800D03*
X61523480Y-19149800D03*
D44*
X66645840Y-66800680D03*
X66645840Y-69000680D03*
D15*
X67969280Y-46794600D03*
X65769280Y-46794600D03*
X90000000Y-44900000D03*
X87800000Y-44900000D03*
D44*
X5025320Y-81355640D03*
X5025320Y-79155640D03*
D31*
X67538327Y-13475274D03*
D32*
X68928327Y-13060274D03*
X68928327Y-13890274D03*
D33*
X65848327Y-12650274D03*
X65848327Y-14300274D03*
X70748327Y-12650274D03*
X70748327Y-14300274D03*
D15*
X24800000Y-72900000D03*
X27000000Y-72900000D03*
D47*
X92100000Y-24070000D03*
X92100000Y-27930000D03*
D44*
X41200000Y-75600000D03*
X41200000Y-77800000D03*
D48*
X60958760Y-98117840D03*
X59278760Y-98117840D03*
D49*
X63028760Y-98117840D03*
X57208760Y-98117840D03*
D50*
X62581260Y-95817840D03*
X57656260Y-95817840D03*
D51*
X61418760Y-95457840D03*
X60768760Y-95457840D03*
X60118760Y-95457840D03*
X59468760Y-95457840D03*
X58818760Y-95457840D03*
D15*
X72110759Y-46814239D03*
X69910759Y-46814239D03*
D44*
X5035480Y-85439960D03*
X5035480Y-83239960D03*
D52*
X30250000Y-73000000D03*
X28750000Y-73000000D03*
X19850000Y-72900000D03*
X21350000Y-72900000D03*
D11*
X91650000Y-38400000D03*
X93550000Y-38400000D03*
D17*
X90500000Y-36550000D03*
X90500000Y-34650000D03*
X91246120Y-13950000D03*
X91246120Y-15850000D03*
X92704080Y-13950000D03*
X92704080Y-15850000D03*
X94200000Y-13950000D03*
X94200000Y-15850000D03*
X87524800Y-36017680D03*
X87524800Y-37917680D03*
X50900000Y-41550000D03*
X50900000Y-43450000D03*
X52900000Y-59650000D03*
X52900000Y-57750000D03*
D11*
X63850000Y-60375080D03*
X61950000Y-60375080D03*
D17*
X65150000Y-49450000D03*
X65150000Y-51350000D03*
D11*
X55750000Y-46200000D03*
X57650000Y-46200000D03*
D17*
X39600000Y-75750000D03*
X39600000Y-77650000D03*
D44*
X56208440Y-37177080D03*
X56208440Y-39377080D03*
D11*
X59803960Y-3353720D03*
X61703960Y-3353720D03*
D17*
X30500000Y-54250000D03*
X30500000Y-52350000D03*
X33500000Y-54250000D03*
X33500000Y-52350000D03*
X49886160Y-6363320D03*
X49886160Y-8263320D03*
X49855680Y-19266520D03*
X49855680Y-21166520D03*
X46787360Y-6363320D03*
X46787360Y-8263320D03*
X46584160Y-19464640D03*
X46584160Y-21364640D03*
D11*
X38557720Y-12220600D03*
X40457720Y-12220600D03*
X38933640Y-25748640D03*
X40833640Y-25748640D03*
D17*
X26500000Y-54150000D03*
X26500000Y-56050000D03*
D11*
X38557720Y-10727080D03*
X40457720Y-10727080D03*
X38669480Y-24316080D03*
X40569480Y-24316080D03*
X24550000Y-57700000D03*
X22650000Y-57700000D03*
X15850000Y-60900000D03*
X17750000Y-60900000D03*
D17*
X15450560Y-56601160D03*
X15450560Y-54701160D03*
D11*
X31050000Y-10800000D03*
X29150000Y-10800000D03*
X31050000Y-24200000D03*
X29150000Y-24200000D03*
D17*
X27307080Y-5664120D03*
X27307080Y-7564120D03*
X27445320Y-19352880D03*
X27445320Y-21252880D03*
D11*
X86750000Y-78800000D03*
X88650000Y-78800000D03*
D37*
X88950000Y-81800000D03*
X86450000Y-81800000D03*
X79977920Y-81748840D03*
X77477920Y-81748840D03*
D11*
X74250560Y-70512960D03*
X76150560Y-70512960D03*
D37*
X74108040Y-68811160D03*
X76608040Y-68811160D03*
D11*
X65999920Y-85480960D03*
X67899920Y-85480960D03*
X65989760Y-86888120D03*
X67889760Y-86888120D03*
X59197800Y-80781960D03*
X61097800Y-80781960D03*
X65989760Y-83916320D03*
X67889760Y-83916320D03*
X73966800Y-19307280D03*
X72066800Y-19307280D03*
D17*
X69263200Y-28754320D03*
X69263200Y-30654320D03*
D11*
X68058680Y-20887160D03*
X69958680Y-20887160D03*
X65300320Y-20541720D03*
X63400320Y-20541720D03*
X65295240Y-19134560D03*
X63395240Y-19134560D03*
D53*
X53900000Y-74700000D03*
X53900000Y-67700000D03*
X60900000Y-67700000D03*
X60900000Y-74700000D03*
D39*
X61021560Y-90275720D03*
X60071560Y-88275720D03*
X61971560Y-88275720D03*
D40*
X64897560Y-68601760D03*
X64897560Y-66701760D03*
X62897560Y-67651760D03*
D39*
X67869440Y-89997840D03*
X65969440Y-89997840D03*
X66919440Y-91997840D03*
D40*
X87356400Y-41300920D03*
X85356400Y-42250920D03*
X85356400Y-40350920D03*
D39*
X83450000Y-29800000D03*
X85350000Y-29800000D03*
X84400000Y-27800000D03*
X82200000Y-22800000D03*
X83150000Y-24800000D03*
X81250000Y-24800000D03*
D54*
X59723561Y-86262519D03*
X60223561Y-86262519D03*
X60723561Y-86262519D03*
X61223561Y-86262519D03*
X61723561Y-86262519D03*
X62223561Y-86262519D03*
D55*
X62923561Y-85562519D03*
X62923561Y-85062519D03*
X62923561Y-84562519D03*
X62923561Y-84062519D03*
X62923561Y-83562519D03*
X62923561Y-83062519D03*
D54*
X62223561Y-82362519D03*
X61723561Y-82362519D03*
X61223561Y-82362519D03*
X60723561Y-82362519D03*
X60223561Y-82362519D03*
X59723561Y-82362519D03*
D55*
X59023561Y-83062519D03*
X59023561Y-83562519D03*
X59023561Y-84062519D03*
X59023561Y-84562519D03*
X59023561Y-85062519D03*
X59023561Y-85562519D03*
D56*
X61623561Y-83662519D03*
X60323561Y-83662519D03*
X61623561Y-84962519D03*
X60323561Y-84962519D03*
D11*
X39950000Y-63800000D03*
X38050000Y-63800000D03*
D15*
X37925280Y-70669480D03*
X40125280Y-70669480D03*
X44209600Y-70654240D03*
X42009600Y-70654240D03*
X82515920Y-35637720D03*
X82515920Y-38937720D03*
X80300000Y-46250000D03*
X80300000Y-42950000D03*
X87500000Y-27850000D03*
X87500000Y-31150000D03*
X76400000Y-31150000D03*
X76400000Y-27850000D03*
X81400000Y-27850000D03*
X81400000Y-31150000D03*
D44*
X75450000Y-37700000D03*
X78750000Y-37700000D03*
D40*
X13800000Y-56750000D03*
X13800000Y-54850000D03*
X11800000Y-55800000D03*
X28500000Y-51300000D03*
X26500000Y-52250000D03*
X26500000Y-50350000D03*
D57*
X17078520Y-54680840D03*
X17078520Y-55630840D03*
X17078520Y-56580840D03*
X19278520Y-56580840D03*
X19278520Y-54680840D03*
X19278520Y-55630840D03*
D40*
X58964000Y-27623200D03*
X56964000Y-28573200D03*
X56964000Y-26673200D03*
D27*
X95275000Y-41239520D03*
X95275000Y-51239520D03*
D58*
X92525000Y-43739520D03*
X92525000Y-44989520D03*
X92525000Y-46239520D03*
X92525000Y-47489520D03*
X92525000Y-48739520D03*
X92530680Y-62615000D03*
X92530680Y-61365000D03*
X92530680Y-60115000D03*
X92530680Y-58865000D03*
X92530680Y-57615000D03*
D27*
X95280680Y-65115000D03*
X95280680Y-55115000D03*
D44*
X33600000Y-70700000D03*
X33600000Y-68500000D03*
D59*
X38114200Y-65465080D03*
X38114200Y-65965080D03*
X38114200Y-66465080D03*
X42514200Y-65465080D03*
X42514200Y-65965080D03*
X42514200Y-66465080D03*
X38114200Y-68965080D03*
X38114200Y-68465080D03*
X38114200Y-67965080D03*
X38114200Y-67465080D03*
X38114200Y-66965080D03*
X42514200Y-66965080D03*
X42514200Y-67465080D03*
X42514200Y-67965080D03*
X42514200Y-68465080D03*
X42514200Y-68965080D03*
D60*
X24064520Y-29212880D03*
X24064520Y-31712880D03*
D17*
X22383040Y-31448440D03*
X22383040Y-29548440D03*
D11*
X44344960Y-33592160D03*
X42444960Y-33592160D03*
X42444960Y-35019640D03*
X44344960Y-35019640D03*
D61*
X31082000Y-28273400D03*
X31082000Y-30813400D03*
X31082000Y-33353400D03*
X40222000Y-33353400D03*
X40222000Y-30813400D03*
X40222000Y-28273400D03*
D62*
X45333200Y-29965000D03*
X45333200Y-31865000D03*
X42633200Y-31865000D03*
X42633200Y-30915000D03*
X42633200Y-29965000D03*
D44*
X29402600Y-28303880D03*
X26102600Y-28303880D03*
X26046720Y-33388960D03*
X29346720Y-33388960D03*
D62*
X17878360Y-31463680D03*
X17878360Y-29563680D03*
X20578360Y-29563680D03*
X20578360Y-30513680D03*
X20578360Y-31463680D03*
D15*
X85200000Y-10400000D03*
X83000000Y-10400000D03*
D63*
X90450000Y-20900000D03*
X90450000Y-20400000D03*
X90450000Y-19900000D03*
D64*
X90250000Y-19400000D03*
X90250000Y-18900000D03*
D63*
X93550000Y-18900000D03*
D64*
X93750000Y-19400000D03*
D63*
X93550000Y-19900000D03*
D64*
X93750000Y-20400000D03*
X93750000Y-20900000D03*
D65*
X91550000Y-19265000D03*
X92450000Y-19265000D03*
X91550000Y-20535000D03*
D66*
X91750000Y-18350000D03*
X92250000Y-18350000D03*
X91750000Y-21450000D03*
X92250000Y-21450000D03*
D65*
X92450000Y-20535000D03*
D64*
X90250000Y-20900000D03*
X90250000Y-20400000D03*
X90250000Y-19900000D03*
D63*
X90450000Y-19400000D03*
X90450000Y-18900000D03*
D64*
X93750000Y-18900000D03*
D63*
X93550000Y-19400000D03*
D64*
X93750000Y-19900000D03*
D63*
X93550000Y-20400000D03*
X93550000Y-20900000D03*
D43*
X77377920Y-83735120D03*
X80077920Y-83735120D03*
D17*
X58188640Y-41550000D03*
X58188640Y-43450000D03*
X64554880Y-39252480D03*
X64554880Y-37352480D03*
X33600000Y-64750000D03*
X33600000Y-66650000D03*
D15*
X28800000Y-70500000D03*
X31000000Y-70500000D03*
X28800000Y-65300000D03*
X31000000Y-65300000D03*
D67*
X10980000Y-65360000D03*
X10980000Y-67900000D03*
X10980000Y-70440000D03*
X26620000Y-70440000D03*
X26620000Y-67900000D03*
X26620000Y-65360000D03*
D15*
X29100000Y-43050000D03*
X29100000Y-39750000D03*
X24600000Y-39800000D03*
X26800000Y-39800000D03*
D68*
X39410000Y-40030000D03*
X31790000Y-42570000D03*
X39410000Y-42570000D03*
X31790000Y-40030000D03*
D30*
X40147500Y-4895000D03*
X40147500Y-6165000D03*
X40147500Y-7435000D03*
X40147500Y-8705000D03*
X29452500Y-8705000D03*
X29452500Y-7435000D03*
X29452500Y-6165000D03*
X29452500Y-4895000D03*
D15*
X78900000Y-27850000D03*
X78900000Y-31150000D03*
M02*
