G04 #@! TF.GenerationSoftware,KiCad,Pcbnew,5.1.0-unknown-c054944~86~ubuntu19.04.1*
G04 #@! TF.CreationDate,2019-05-13T10:23:20-04:00*
G04 #@! TF.ProjectId,BMS-Master,424d532d-4d61-4737-9465-722e6b696361,V0.2*
G04 #@! TF.SameCoordinates,Original*
G04 #@! TF.FileFunction,Soldermask,Top*
G04 #@! TF.FilePolarity,Negative*
%FSLAX46Y46*%
G04 Gerber Fmt 4.6, Leading zero omitted, Abs format (unit mm)*
G04 Created by KiCad (PCBNEW 5.1.0-unknown-c054944~86~ubuntu19.04.1) date 2019-05-13 10:23:20*
%MOMM*%
%LPD*%
G04 APERTURE LIST*
%ADD10C,0.100000*%
G04 APERTURE END LIST*
D10*
G36*
X63351000Y-97374001D02*
G01*
X63353402Y-97398387D01*
X63360515Y-97421836D01*
X63372066Y-97443447D01*
X63387611Y-97462389D01*
X63406553Y-97477934D01*
X63428164Y-97489485D01*
X63451613Y-97496598D01*
X63475999Y-97499000D01*
X64248500Y-97499000D01*
X64248500Y-99501000D01*
X60301500Y-99501000D01*
X60301500Y-97499000D01*
X61649001Y-97499000D01*
X61673387Y-97496598D01*
X61696836Y-97489485D01*
X61718447Y-97477934D01*
X61737389Y-97462389D01*
X61752934Y-97443447D01*
X61764485Y-97421836D01*
X61771598Y-97398387D01*
X61774000Y-97374001D01*
X61774000Y-96705999D01*
X61771598Y-96681613D01*
X61764485Y-96658164D01*
X61752934Y-96636553D01*
X61737389Y-96617611D01*
X61718447Y-96602066D01*
X61696836Y-96590515D01*
X61673387Y-96583402D01*
X61649001Y-96581000D01*
X58550999Y-96581000D01*
X58526613Y-96583402D01*
X58503164Y-96590515D01*
X58481553Y-96602066D01*
X58462611Y-96617611D01*
X58447066Y-96636553D01*
X58435515Y-96658164D01*
X58428402Y-96681613D01*
X58426000Y-96705999D01*
X58426000Y-97374001D01*
X58428402Y-97398387D01*
X58435515Y-97421836D01*
X58447066Y-97443447D01*
X58462611Y-97462389D01*
X58481553Y-97477934D01*
X58503164Y-97489485D01*
X58526613Y-97496598D01*
X58550999Y-97499000D01*
X59898500Y-97499000D01*
X59898500Y-99501000D01*
X55951500Y-99501000D01*
X55951500Y-97499000D01*
X56724001Y-97499000D01*
X56748387Y-97496598D01*
X56771836Y-97489485D01*
X56793447Y-97477934D01*
X56812389Y-97462389D01*
X56827934Y-97443447D01*
X56839485Y-97421836D01*
X56846598Y-97398387D01*
X56849000Y-97374001D01*
X56849000Y-95099000D01*
X63351000Y-95099000D01*
X63351000Y-97374001D01*
X63351000Y-97374001D01*
G37*
G36*
X95536693Y-92301859D02*
G01*
X95802437Y-92354719D01*
X96303087Y-92562095D01*
X96483561Y-92682684D01*
X96753660Y-92863158D01*
X97136842Y-93246340D01*
X97317316Y-93516439D01*
X97437905Y-93696913D01*
X97571363Y-94019109D01*
X97645281Y-94197564D01*
X97751000Y-94729049D01*
X97751000Y-95270951D01*
X97715186Y-95451000D01*
X97645281Y-95802437D01*
X97437905Y-96303087D01*
X97381521Y-96387471D01*
X97136842Y-96753660D01*
X96753660Y-97136842D01*
X96507979Y-97301000D01*
X96303087Y-97437905D01*
X95802437Y-97645281D01*
X95536693Y-97698141D01*
X95270951Y-97751000D01*
X94729049Y-97751000D01*
X94463306Y-97698140D01*
X94197563Y-97645281D01*
X93696913Y-97437905D01*
X93492021Y-97301000D01*
X93246340Y-97136842D01*
X92863158Y-96753660D01*
X92618479Y-96387471D01*
X92562095Y-96303087D01*
X92354719Y-95802437D01*
X92284814Y-95451000D01*
X92249000Y-95270951D01*
X92249000Y-94729049D01*
X92354719Y-94197564D01*
X92428637Y-94019109D01*
X92562095Y-93696913D01*
X92682684Y-93516439D01*
X92863158Y-93246340D01*
X93246340Y-92863158D01*
X93516439Y-92682684D01*
X93696913Y-92562095D01*
X94197563Y-92354719D01*
X94463307Y-92301859D01*
X94729049Y-92249000D01*
X95270951Y-92249000D01*
X95536693Y-92301859D01*
X95536693Y-92301859D01*
G37*
G36*
X5536693Y-92301859D02*
G01*
X5802437Y-92354719D01*
X6303087Y-92562095D01*
X6483561Y-92682684D01*
X6753660Y-92863158D01*
X7136842Y-93246340D01*
X7317316Y-93516439D01*
X7437905Y-93696913D01*
X7571363Y-94019109D01*
X7645281Y-94197564D01*
X7751000Y-94729049D01*
X7751000Y-95270951D01*
X7715186Y-95451000D01*
X7645281Y-95802437D01*
X7437905Y-96303087D01*
X7381521Y-96387471D01*
X7136842Y-96753660D01*
X6753660Y-97136842D01*
X6507979Y-97301000D01*
X6303087Y-97437905D01*
X5802437Y-97645281D01*
X5536694Y-97698140D01*
X5270951Y-97751000D01*
X4729049Y-97751000D01*
X4463306Y-97698140D01*
X4197563Y-97645281D01*
X3696913Y-97437905D01*
X3492021Y-97301000D01*
X3246340Y-97136842D01*
X2863158Y-96753660D01*
X2618479Y-96387471D01*
X2562095Y-96303087D01*
X2354719Y-95802437D01*
X2284814Y-95451000D01*
X2249000Y-95270951D01*
X2249000Y-94729049D01*
X2354719Y-94197564D01*
X2428637Y-94019109D01*
X2562095Y-93696913D01*
X2682684Y-93516439D01*
X2863158Y-93246340D01*
X3246340Y-92863158D01*
X3516439Y-92682684D01*
X3696913Y-92562095D01*
X4197563Y-92354719D01*
X4463307Y-92301859D01*
X4729049Y-92249000D01*
X5270951Y-92249000D01*
X5536693Y-92301859D01*
X5536693Y-92301859D01*
G37*
G36*
X47501000Y-96651000D02*
G01*
X46099000Y-96651000D01*
X46099000Y-94649000D01*
X47501000Y-94649000D01*
X47501000Y-96651000D01*
X47501000Y-96651000D01*
G37*
G36*
X33851000Y-96651000D02*
G01*
X32749000Y-96651000D01*
X32749000Y-93749000D01*
X33851000Y-93749000D01*
X33851000Y-96651000D01*
X33851000Y-96651000D01*
G37*
G36*
X67370440Y-92498840D02*
G01*
X66468440Y-92498840D01*
X66468440Y-91496840D01*
X67370440Y-91496840D01*
X67370440Y-92498840D01*
X67370440Y-92498840D01*
G37*
G36*
X33851000Y-91501000D02*
G01*
X32749000Y-91501000D01*
X32749000Y-90599000D01*
X33851000Y-90599000D01*
X33851000Y-91501000D01*
X33851000Y-91501000D01*
G37*
G36*
X74902840Y-91011000D02*
G01*
X73300840Y-91011000D01*
X73300840Y-89129000D01*
X74902840Y-89129000D01*
X74902840Y-91011000D01*
X74902840Y-91011000D01*
G37*
G36*
X84432840Y-91011000D02*
G01*
X82830840Y-91011000D01*
X82830840Y-89129000D01*
X84432840Y-89129000D01*
X84432840Y-91011000D01*
X84432840Y-91011000D01*
G37*
G36*
X61472560Y-90776720D02*
G01*
X60570560Y-90776720D01*
X60570560Y-89774720D01*
X61472560Y-89774720D01*
X61472560Y-90776720D01*
X61472560Y-90776720D01*
G37*
G36*
X66420440Y-90498840D02*
G01*
X65518440Y-90498840D01*
X65518440Y-89496840D01*
X66420440Y-89496840D01*
X66420440Y-90498840D01*
X66420440Y-90498840D01*
G37*
G36*
X68320440Y-90498840D02*
G01*
X67418440Y-90498840D01*
X67418440Y-89496840D01*
X68320440Y-89496840D01*
X68320440Y-90498840D01*
X68320440Y-90498840D01*
G37*
G36*
X66480600Y-88897880D02*
G01*
X65178600Y-88897880D01*
X65178600Y-87895880D01*
X66480600Y-87895880D01*
X66480600Y-88897880D01*
X66480600Y-88897880D01*
G37*
G36*
X68680600Y-88897880D02*
G01*
X67378600Y-88897880D01*
X67378600Y-87895880D01*
X68680600Y-87895880D01*
X68680600Y-88897880D01*
X68680600Y-88897880D01*
G37*
G36*
X60522560Y-88776720D02*
G01*
X59620560Y-88776720D01*
X59620560Y-87774720D01*
X60522560Y-87774720D01*
X60522560Y-88776720D01*
X60522560Y-88776720D01*
G37*
G36*
X62422560Y-88776720D02*
G01*
X61520560Y-88776720D01*
X61520560Y-87774720D01*
X62422560Y-87774720D01*
X62422560Y-88776720D01*
X62422560Y-88776720D01*
G37*
G36*
X84432840Y-88471000D02*
G01*
X82830840Y-88471000D01*
X82830840Y-86589000D01*
X84432840Y-86589000D01*
X84432840Y-88471000D01*
X84432840Y-88471000D01*
G37*
G36*
X74902840Y-88471000D02*
G01*
X73300840Y-88471000D01*
X73300840Y-86589000D01*
X74902840Y-86589000D01*
X74902840Y-88471000D01*
X74902840Y-88471000D01*
G37*
G36*
X96051000Y-87851000D02*
G01*
X93349000Y-87851000D01*
X93349000Y-85749000D01*
X96051000Y-85749000D01*
X96051000Y-87851000D01*
X96051000Y-87851000D01*
G37*
G36*
X88489120Y-87620600D02*
G01*
X87187120Y-87620600D01*
X87187120Y-86768600D01*
X88489120Y-86768600D01*
X88489120Y-87620600D01*
X88489120Y-87620600D01*
G37*
G36*
X86589120Y-87620600D02*
G01*
X85287120Y-87620600D01*
X85287120Y-86768600D01*
X86589120Y-86768600D01*
X86589120Y-87620600D01*
X86589120Y-87620600D01*
G37*
G36*
X68540760Y-87314120D02*
G01*
X67238760Y-87314120D01*
X67238760Y-86462120D01*
X68540760Y-86462120D01*
X68540760Y-87314120D01*
X68540760Y-87314120D01*
G37*
G36*
X66640760Y-87314120D02*
G01*
X65338760Y-87314120D01*
X65338760Y-86462120D01*
X66640760Y-86462120D01*
X66640760Y-87314120D01*
X66640760Y-87314120D01*
G37*
G36*
X62424561Y-82736520D02*
G01*
X62426963Y-82760906D01*
X62434076Y-82784355D01*
X62445627Y-82805966D01*
X62461172Y-82824908D01*
X62480114Y-82840453D01*
X62501725Y-82852004D01*
X62525174Y-82859117D01*
X62549560Y-82861519D01*
X63399561Y-82861519D01*
X63399561Y-85763519D01*
X62549560Y-85763519D01*
X62525174Y-85765921D01*
X62501725Y-85773034D01*
X62480114Y-85784585D01*
X62461172Y-85800130D01*
X62445627Y-85819072D01*
X62434076Y-85840683D01*
X62426963Y-85864132D01*
X62424561Y-85888518D01*
X62424561Y-86738519D01*
X59522561Y-86738519D01*
X59522561Y-85888518D01*
X59520159Y-85864132D01*
X59513046Y-85840683D01*
X59501495Y-85819072D01*
X59485950Y-85800130D01*
X59467008Y-85784585D01*
X59445397Y-85773034D01*
X59421948Y-85765921D01*
X59397562Y-85763519D01*
X58547561Y-85763519D01*
X58547561Y-82861519D01*
X59397562Y-82861519D01*
X59421948Y-82859117D01*
X59445397Y-82852004D01*
X59467008Y-82840453D01*
X59485950Y-82824908D01*
X59501495Y-82805966D01*
X59513046Y-82784355D01*
X59520159Y-82760906D01*
X59522561Y-82736520D01*
X59522561Y-81886519D01*
X62424561Y-81886519D01*
X62424561Y-82736520D01*
X62424561Y-82736520D01*
G37*
G36*
X5536480Y-86090960D02*
G01*
X4534480Y-86090960D01*
X4534480Y-84788960D01*
X5536480Y-84788960D01*
X5536480Y-86090960D01*
X5536480Y-86090960D01*
G37*
G36*
X68550920Y-85906960D02*
G01*
X67248920Y-85906960D01*
X67248920Y-85054960D01*
X68550920Y-85054960D01*
X68550920Y-85906960D01*
X68550920Y-85906960D01*
G37*
G36*
X66650920Y-85906960D02*
G01*
X65348920Y-85906960D01*
X65348920Y-85054960D01*
X66650920Y-85054960D01*
X66650920Y-85906960D01*
X66650920Y-85906960D01*
G37*
G36*
X33851000Y-85501000D02*
G01*
X32749000Y-85501000D01*
X32749000Y-84199000D01*
X33851000Y-84199000D01*
X33851000Y-85501000D01*
X33851000Y-85501000D01*
G37*
G36*
X95103097Y-83214069D02*
G01*
X95206032Y-83224207D01*
X95404146Y-83284305D01*
X95404149Y-83284306D01*
X95500975Y-83336061D01*
X95586729Y-83381897D01*
X95746765Y-83513235D01*
X95878103Y-83673271D01*
X95923939Y-83759025D01*
X95975694Y-83855851D01*
X95975695Y-83855854D01*
X96035793Y-84053968D01*
X96056085Y-84260000D01*
X96035793Y-84466032D01*
X95975695Y-84664146D01*
X95975694Y-84664149D01*
X95923939Y-84760975D01*
X95878103Y-84846729D01*
X95746765Y-85006765D01*
X95586729Y-85138103D01*
X95500975Y-85183939D01*
X95404149Y-85235694D01*
X95404146Y-85235695D01*
X95206032Y-85295793D01*
X95103097Y-85305931D01*
X95051631Y-85311000D01*
X94348369Y-85311000D01*
X94296903Y-85305931D01*
X94193968Y-85295793D01*
X93995854Y-85235695D01*
X93995851Y-85235694D01*
X93899025Y-85183939D01*
X93813271Y-85138103D01*
X93653235Y-85006765D01*
X93521897Y-84846729D01*
X93476061Y-84760975D01*
X93424306Y-84664149D01*
X93424305Y-84664146D01*
X93364207Y-84466032D01*
X93343915Y-84260000D01*
X93364207Y-84053968D01*
X93424305Y-83855854D01*
X93424306Y-83855851D01*
X93476061Y-83759025D01*
X93521897Y-83673271D01*
X93653235Y-83513235D01*
X93813271Y-83381897D01*
X93899025Y-83336061D01*
X93995851Y-83284306D01*
X93995854Y-83284305D01*
X94193968Y-83224207D01*
X94296903Y-83214069D01*
X94348369Y-83209000D01*
X95051631Y-83209000D01*
X95103097Y-83214069D01*
X95103097Y-83214069D01*
G37*
G36*
X55670360Y-85044320D02*
G01*
X54368360Y-85044320D01*
X54368360Y-84042320D01*
X55670360Y-84042320D01*
X55670360Y-85044320D01*
X55670360Y-85044320D01*
G37*
G36*
X57870360Y-85044320D02*
G01*
X56568360Y-85044320D01*
X56568360Y-84042320D01*
X57870360Y-84042320D01*
X57870360Y-85044320D01*
X57870360Y-85044320D01*
G37*
G36*
X78178920Y-84436120D02*
G01*
X76576920Y-84436120D01*
X76576920Y-83034120D01*
X78178920Y-83034120D01*
X78178920Y-84436120D01*
X78178920Y-84436120D01*
G37*
G36*
X80878920Y-84436120D02*
G01*
X79276920Y-84436120D01*
X79276920Y-83034120D01*
X80878920Y-83034120D01*
X80878920Y-84436120D01*
X80878920Y-84436120D01*
G37*
G36*
X66640760Y-84342320D02*
G01*
X65338760Y-84342320D01*
X65338760Y-83490320D01*
X66640760Y-83490320D01*
X66640760Y-84342320D01*
X66640760Y-84342320D01*
G37*
G36*
X68540760Y-84342320D02*
G01*
X67238760Y-84342320D01*
X67238760Y-83490320D01*
X68540760Y-83490320D01*
X68540760Y-84342320D01*
X68540760Y-84342320D01*
G37*
G36*
X18356000Y-84111000D02*
G01*
X17644000Y-84111000D01*
X17644000Y-82509000D01*
X18356000Y-82509000D01*
X18356000Y-84111000D01*
X18356000Y-84111000D01*
G37*
G36*
X22356000Y-84111000D02*
G01*
X21644000Y-84111000D01*
X21644000Y-82509000D01*
X22356000Y-82509000D01*
X22356000Y-84111000D01*
X22356000Y-84111000D01*
G37*
G36*
X21356000Y-84111000D02*
G01*
X20644000Y-84111000D01*
X20644000Y-82509000D01*
X21356000Y-82509000D01*
X21356000Y-84111000D01*
X21356000Y-84111000D01*
G37*
G36*
X23356000Y-84111000D02*
G01*
X22644000Y-84111000D01*
X22644000Y-82509000D01*
X23356000Y-82509000D01*
X23356000Y-84111000D01*
X23356000Y-84111000D01*
G37*
G36*
X24356000Y-84111000D02*
G01*
X23644000Y-84111000D01*
X23644000Y-82509000D01*
X24356000Y-82509000D01*
X24356000Y-84111000D01*
X24356000Y-84111000D01*
G37*
G36*
X20356000Y-84111000D02*
G01*
X19644000Y-84111000D01*
X19644000Y-82509000D01*
X20356000Y-82509000D01*
X20356000Y-84111000D01*
X20356000Y-84111000D01*
G37*
G36*
X25356000Y-84111000D02*
G01*
X24644000Y-84111000D01*
X24644000Y-82509000D01*
X25356000Y-82509000D01*
X25356000Y-84111000D01*
X25356000Y-84111000D01*
G37*
G36*
X19356000Y-84111000D02*
G01*
X18644000Y-84111000D01*
X18644000Y-82509000D01*
X19356000Y-82509000D01*
X19356000Y-84111000D01*
X19356000Y-84111000D01*
G37*
G36*
X5536480Y-83890960D02*
G01*
X4534480Y-83890960D01*
X4534480Y-82588960D01*
X5536480Y-82588960D01*
X5536480Y-83890960D01*
X5536480Y-83890960D01*
G37*
G36*
X16551000Y-83661000D02*
G01*
X15449000Y-83661000D01*
X15449000Y-82559000D01*
X16551000Y-82559000D01*
X16551000Y-83661000D01*
X16551000Y-83661000D01*
G37*
G36*
X12551000Y-83661000D02*
G01*
X11449000Y-83661000D01*
X11449000Y-82559000D01*
X12551000Y-82559000D01*
X12551000Y-83661000D01*
X12551000Y-83661000D01*
G37*
G36*
X57870360Y-83500000D02*
G01*
X56568360Y-83500000D01*
X56568360Y-82498000D01*
X57870360Y-82498000D01*
X57870360Y-83500000D01*
X57870360Y-83500000D01*
G37*
G36*
X55670360Y-83500000D02*
G01*
X54368360Y-83500000D01*
X54368360Y-82498000D01*
X55670360Y-82498000D01*
X55670360Y-83500000D01*
X55670360Y-83500000D01*
G37*
G36*
X27301000Y-83056000D02*
G01*
X25699000Y-83056000D01*
X25699000Y-82344000D01*
X27301000Y-82344000D01*
X27301000Y-83056000D01*
X27301000Y-83056000D01*
G37*
G36*
X68751720Y-82908560D02*
G01*
X67449720Y-82908560D01*
X67449720Y-81906560D01*
X68751720Y-81906560D01*
X68751720Y-82908560D01*
X68751720Y-82908560D01*
G37*
G36*
X66551720Y-82908560D02*
G01*
X65249720Y-82908560D01*
X65249720Y-81906560D01*
X66551720Y-81906560D01*
X66551720Y-82908560D01*
X66551720Y-82908560D01*
G37*
G36*
X95103097Y-80674069D02*
G01*
X95206032Y-80684207D01*
X95404146Y-80744305D01*
X95404149Y-80744306D01*
X95500975Y-80796061D01*
X95586729Y-80841897D01*
X95746765Y-80973235D01*
X95878103Y-81133271D01*
X95914305Y-81201000D01*
X95975694Y-81315851D01*
X95975695Y-81315854D01*
X96035793Y-81513968D01*
X96056085Y-81720000D01*
X96035793Y-81926032D01*
X95996367Y-82056000D01*
X95975694Y-82124149D01*
X95923939Y-82220975D01*
X95878103Y-82306729D01*
X95746765Y-82466765D01*
X95586729Y-82598103D01*
X95500975Y-82643939D01*
X95404149Y-82695694D01*
X95404146Y-82695695D01*
X95206032Y-82755793D01*
X95103097Y-82765931D01*
X95051631Y-82771000D01*
X94348369Y-82771000D01*
X94296903Y-82765931D01*
X94193968Y-82755793D01*
X93995854Y-82695695D01*
X93995851Y-82695694D01*
X93899025Y-82643939D01*
X93813271Y-82598103D01*
X93653235Y-82466765D01*
X93521897Y-82306729D01*
X93476061Y-82220975D01*
X93424306Y-82124149D01*
X93403633Y-82056000D01*
X93364207Y-81926032D01*
X93343915Y-81720000D01*
X93364207Y-81513968D01*
X93424305Y-81315854D01*
X93424306Y-81315851D01*
X93485695Y-81201000D01*
X93521897Y-81133271D01*
X93653235Y-80973235D01*
X93813271Y-80841897D01*
X93899025Y-80796061D01*
X93995851Y-80744306D01*
X93995854Y-80744305D01*
X94193968Y-80684207D01*
X94296903Y-80674069D01*
X94348369Y-80669000D01*
X95051631Y-80669000D01*
X95103097Y-80674069D01*
X95103097Y-80674069D01*
G37*
G36*
X89751000Y-82476000D02*
G01*
X88149000Y-82476000D01*
X88149000Y-81124000D01*
X89751000Y-81124000D01*
X89751000Y-82476000D01*
X89751000Y-82476000D01*
G37*
G36*
X87251000Y-82476000D02*
G01*
X85649000Y-82476000D01*
X85649000Y-81124000D01*
X87251000Y-81124000D01*
X87251000Y-82476000D01*
X87251000Y-82476000D01*
G37*
G36*
X78278920Y-82424840D02*
G01*
X76676920Y-82424840D01*
X76676920Y-81072840D01*
X78278920Y-81072840D01*
X78278920Y-82424840D01*
X78278920Y-82424840D01*
G37*
G36*
X80778920Y-82424840D02*
G01*
X79176920Y-82424840D01*
X79176920Y-81072840D01*
X80778920Y-81072840D01*
X80778920Y-82424840D01*
X80778920Y-82424840D01*
G37*
G36*
X27301000Y-82056000D02*
G01*
X25699000Y-82056000D01*
X25699000Y-81344000D01*
X27301000Y-81344000D01*
X27301000Y-82056000D01*
X27301000Y-82056000D01*
G37*
G36*
X5526320Y-82006640D02*
G01*
X4524320Y-82006640D01*
X4524320Y-80704640D01*
X5526320Y-80704640D01*
X5526320Y-82006640D01*
X5526320Y-82006640D01*
G37*
G36*
X61748800Y-81207960D02*
G01*
X60446800Y-81207960D01*
X60446800Y-80355960D01*
X61748800Y-80355960D01*
X61748800Y-81207960D01*
X61748800Y-81207960D01*
G37*
G36*
X59848800Y-81207960D02*
G01*
X58546800Y-81207960D01*
X58546800Y-80355960D01*
X59848800Y-80355960D01*
X59848800Y-81207960D01*
X59848800Y-81207960D01*
G37*
G36*
X35601000Y-81201000D02*
G01*
X33849000Y-81201000D01*
X33849000Y-79899000D01*
X35601000Y-79899000D01*
X35601000Y-81201000D01*
X35601000Y-81201000D01*
G37*
G36*
X40001000Y-81201000D02*
G01*
X39199000Y-81201000D01*
X39199000Y-79899000D01*
X40001000Y-79899000D01*
X40001000Y-81201000D01*
X40001000Y-81201000D01*
G37*
G36*
X38901000Y-81201000D02*
G01*
X38099000Y-81201000D01*
X38099000Y-79899000D01*
X38901000Y-79899000D01*
X38901000Y-81201000D01*
X38901000Y-81201000D01*
G37*
G36*
X37801000Y-81201000D02*
G01*
X36999000Y-81201000D01*
X36999000Y-79899000D01*
X37801000Y-79899000D01*
X37801000Y-81201000D01*
X37801000Y-81201000D01*
G37*
G36*
X41101000Y-81201000D02*
G01*
X40299000Y-81201000D01*
X40299000Y-79899000D01*
X41101000Y-79899000D01*
X41101000Y-81201000D01*
X41101000Y-81201000D01*
G37*
G36*
X36701000Y-81201000D02*
G01*
X35899000Y-81201000D01*
X35899000Y-79899000D01*
X36701000Y-79899000D01*
X36701000Y-81201000D01*
X36701000Y-81201000D01*
G37*
G36*
X45001000Y-81201000D02*
G01*
X43899000Y-81201000D01*
X43899000Y-79899000D01*
X45001000Y-79899000D01*
X45001000Y-81201000D01*
X45001000Y-81201000D01*
G37*
G36*
X43301000Y-81201000D02*
G01*
X42499000Y-81201000D01*
X42499000Y-79899000D01*
X43301000Y-79899000D01*
X43301000Y-81201000D01*
X43301000Y-81201000D01*
G37*
G36*
X42201000Y-81201000D02*
G01*
X41399000Y-81201000D01*
X41399000Y-79899000D01*
X42201000Y-79899000D01*
X42201000Y-81201000D01*
X42201000Y-81201000D01*
G37*
G36*
X27301000Y-81056000D02*
G01*
X25699000Y-81056000D01*
X25699000Y-80344000D01*
X27301000Y-80344000D01*
X27301000Y-81056000D01*
X27301000Y-81056000D01*
G37*
G36*
X19801000Y-80751000D02*
G01*
X18699000Y-80751000D01*
X18699000Y-79649000D01*
X19801000Y-79649000D01*
X19801000Y-80751000D01*
X19801000Y-80751000D01*
G37*
G36*
X95103097Y-78134069D02*
G01*
X95206032Y-78144207D01*
X95404146Y-78204305D01*
X95404149Y-78204306D01*
X95500975Y-78256061D01*
X95586729Y-78301897D01*
X95746765Y-78433235D01*
X95878103Y-78593271D01*
X95923939Y-78679025D01*
X95975694Y-78775851D01*
X95975695Y-78775854D01*
X96035793Y-78973968D01*
X96056085Y-79180000D01*
X96035793Y-79386032D01*
X96024178Y-79424321D01*
X95975694Y-79584149D01*
X95941030Y-79649000D01*
X95878103Y-79766729D01*
X95746765Y-79926765D01*
X95586729Y-80058103D01*
X95500975Y-80103939D01*
X95404149Y-80155694D01*
X95404146Y-80155695D01*
X95206032Y-80215793D01*
X95103097Y-80225931D01*
X95051631Y-80231000D01*
X94348369Y-80231000D01*
X94296903Y-80225931D01*
X94193968Y-80215793D01*
X93995854Y-80155695D01*
X93995851Y-80155694D01*
X93899025Y-80103939D01*
X93813271Y-80058103D01*
X93653235Y-79926765D01*
X93521897Y-79766729D01*
X93458970Y-79649000D01*
X93424306Y-79584149D01*
X93375822Y-79424321D01*
X93364207Y-79386032D01*
X93343915Y-79180000D01*
X93364207Y-78973968D01*
X93424305Y-78775854D01*
X93424306Y-78775851D01*
X93476061Y-78679025D01*
X93521897Y-78593271D01*
X93653235Y-78433235D01*
X93813271Y-78301897D01*
X93899025Y-78256061D01*
X93995851Y-78204306D01*
X93995854Y-78204305D01*
X94193968Y-78144207D01*
X94296903Y-78134069D01*
X94348369Y-78129000D01*
X95051631Y-78129000D01*
X95103097Y-78134069D01*
X95103097Y-78134069D01*
G37*
G36*
X75452241Y-80176321D02*
G01*
X73000241Y-80176321D01*
X73000241Y-79424321D01*
X75452241Y-79424321D01*
X75452241Y-80176321D01*
X75452241Y-80176321D01*
G37*
G36*
X84877241Y-80176321D02*
G01*
X82425241Y-80176321D01*
X82425241Y-79424321D01*
X84877241Y-79424321D01*
X84877241Y-80176321D01*
X84877241Y-80176321D01*
G37*
G36*
X27301000Y-80056000D02*
G01*
X25699000Y-80056000D01*
X25699000Y-79344000D01*
X27301000Y-79344000D01*
X27301000Y-80056000D01*
X27301000Y-80056000D01*
G37*
G36*
X5526320Y-79806640D02*
G01*
X4524320Y-79806640D01*
X4524320Y-78504640D01*
X5526320Y-78504640D01*
X5526320Y-79806640D01*
X5526320Y-79806640D01*
G37*
G36*
X87401000Y-79226000D02*
G01*
X86099000Y-79226000D01*
X86099000Y-78374000D01*
X87401000Y-78374000D01*
X87401000Y-79226000D01*
X87401000Y-79226000D01*
G37*
G36*
X89301000Y-79226000D02*
G01*
X87999000Y-79226000D01*
X87999000Y-78374000D01*
X89301000Y-78374000D01*
X89301000Y-79226000D01*
X89301000Y-79226000D01*
G37*
G36*
X27301000Y-79056000D02*
G01*
X25699000Y-79056000D01*
X25699000Y-78344000D01*
X27301000Y-78344000D01*
X27301000Y-79056000D01*
X27301000Y-79056000D01*
G37*
G36*
X19801000Y-78751000D02*
G01*
X18699000Y-78751000D01*
X18699000Y-77649000D01*
X19801000Y-77649000D01*
X19801000Y-78751000D01*
X19801000Y-78751000D01*
G37*
G36*
X31001000Y-78651000D02*
G01*
X29999000Y-78651000D01*
X29999000Y-77349000D01*
X31001000Y-77349000D01*
X31001000Y-78651000D01*
X31001000Y-78651000D01*
G37*
G36*
X41701000Y-78451000D02*
G01*
X40699000Y-78451000D01*
X40699000Y-77149000D01*
X41701000Y-77149000D01*
X41701000Y-78451000D01*
X41701000Y-78451000D01*
G37*
G36*
X40026000Y-78301000D02*
G01*
X39174000Y-78301000D01*
X39174000Y-76999000D01*
X40026000Y-76999000D01*
X40026000Y-78301000D01*
X40026000Y-78301000D01*
G37*
G36*
X27301000Y-78056000D02*
G01*
X25699000Y-78056000D01*
X25699000Y-77344000D01*
X27301000Y-77344000D01*
X27301000Y-78056000D01*
X27301000Y-78056000D01*
G37*
G36*
X95103097Y-75594069D02*
G01*
X95206032Y-75604207D01*
X95404146Y-75664305D01*
X95404149Y-75664306D01*
X95500975Y-75716061D01*
X95586729Y-75761897D01*
X95746765Y-75893235D01*
X95878103Y-76053271D01*
X95923939Y-76139025D01*
X95975694Y-76235851D01*
X95975695Y-76235854D01*
X96035793Y-76433968D01*
X96056085Y-76640000D01*
X96035793Y-76846032D01*
X96024178Y-76884321D01*
X95975694Y-77044149D01*
X95969359Y-77056000D01*
X95878103Y-77226729D01*
X95746765Y-77386765D01*
X95586729Y-77518103D01*
X95500975Y-77563939D01*
X95404149Y-77615694D01*
X95404146Y-77615695D01*
X95206032Y-77675793D01*
X95103097Y-77685931D01*
X95051631Y-77691000D01*
X94348369Y-77691000D01*
X94296903Y-77685931D01*
X94193968Y-77675793D01*
X93995854Y-77615695D01*
X93995851Y-77615694D01*
X93899025Y-77563939D01*
X93813271Y-77518103D01*
X93653235Y-77386765D01*
X93521897Y-77226729D01*
X93430641Y-77056000D01*
X93424306Y-77044149D01*
X93375822Y-76884321D01*
X93364207Y-76846032D01*
X93343915Y-76640000D01*
X93364207Y-76433968D01*
X93424305Y-76235854D01*
X93424306Y-76235851D01*
X93476061Y-76139025D01*
X93521897Y-76053271D01*
X93653235Y-75893235D01*
X93813271Y-75761897D01*
X93899025Y-75716061D01*
X93995851Y-75664306D01*
X93995854Y-75664305D01*
X94193968Y-75604207D01*
X94296903Y-75594069D01*
X94348369Y-75589000D01*
X95051631Y-75589000D01*
X95103097Y-75594069D01*
X95103097Y-75594069D01*
G37*
G36*
X75452241Y-77636321D02*
G01*
X73000241Y-77636321D01*
X73000241Y-76884321D01*
X75452241Y-76884321D01*
X75452241Y-77636321D01*
X75452241Y-77636321D01*
G37*
G36*
X84902241Y-77636321D02*
G01*
X82450241Y-77636321D01*
X82450241Y-76884321D01*
X84902241Y-76884321D01*
X84902241Y-77636321D01*
X84902241Y-77636321D01*
G37*
G36*
X87651000Y-77301000D02*
G01*
X86749000Y-77301000D01*
X86749000Y-76299000D01*
X87651000Y-76299000D01*
X87651000Y-77301000D01*
X87651000Y-77301000D01*
G37*
G36*
X27301000Y-77056000D02*
G01*
X25699000Y-77056000D01*
X25699000Y-76344000D01*
X27301000Y-76344000D01*
X27301000Y-77056000D01*
X27301000Y-77056000D01*
G37*
G36*
X31001000Y-76451000D02*
G01*
X29999000Y-76451000D01*
X29999000Y-75149000D01*
X31001000Y-75149000D01*
X31001000Y-76451000D01*
X31001000Y-76451000D01*
G37*
G36*
X40026000Y-76401000D02*
G01*
X39174000Y-76401000D01*
X39174000Y-75099000D01*
X40026000Y-75099000D01*
X40026000Y-76401000D01*
X40026000Y-76401000D01*
G37*
G36*
X41701000Y-76251000D02*
G01*
X40699000Y-76251000D01*
X40699000Y-74949000D01*
X41701000Y-74949000D01*
X41701000Y-76251000D01*
X41701000Y-76251000D01*
G37*
G36*
X27301000Y-76056000D02*
G01*
X25699000Y-76056000D01*
X25699000Y-75344000D01*
X27301000Y-75344000D01*
X27301000Y-76056000D01*
X27301000Y-76056000D01*
G37*
G36*
X19356000Y-75891000D02*
G01*
X18644000Y-75891000D01*
X18644000Y-74289000D01*
X19356000Y-74289000D01*
X19356000Y-75891000D01*
X19356000Y-75891000D01*
G37*
G36*
X20356000Y-75891000D02*
G01*
X19644000Y-75891000D01*
X19644000Y-74289000D01*
X20356000Y-74289000D01*
X20356000Y-75891000D01*
X20356000Y-75891000D01*
G37*
G36*
X21356000Y-75891000D02*
G01*
X20644000Y-75891000D01*
X20644000Y-74289000D01*
X21356000Y-74289000D01*
X21356000Y-75891000D01*
X21356000Y-75891000D01*
G37*
G36*
X22356000Y-75891000D02*
G01*
X21644000Y-75891000D01*
X21644000Y-74289000D01*
X22356000Y-74289000D01*
X22356000Y-75891000D01*
X22356000Y-75891000D01*
G37*
G36*
X25356000Y-75891000D02*
G01*
X24644000Y-75891000D01*
X24644000Y-74289000D01*
X25356000Y-74289000D01*
X25356000Y-75891000D01*
X25356000Y-75891000D01*
G37*
G36*
X24356000Y-75891000D02*
G01*
X23644000Y-75891000D01*
X23644000Y-74289000D01*
X24356000Y-74289000D01*
X24356000Y-75891000D01*
X24356000Y-75891000D01*
G37*
G36*
X23356000Y-75891000D02*
G01*
X22644000Y-75891000D01*
X22644000Y-74289000D01*
X23356000Y-74289000D01*
X23356000Y-75891000D01*
X23356000Y-75891000D01*
G37*
G36*
X18356000Y-75891000D02*
G01*
X17644000Y-75891000D01*
X17644000Y-74289000D01*
X18356000Y-74289000D01*
X18356000Y-75891000D01*
X18356000Y-75891000D01*
G37*
G36*
X16551000Y-75841000D02*
G01*
X15449000Y-75841000D01*
X15449000Y-74739000D01*
X16551000Y-74739000D01*
X16551000Y-75841000D01*
X16551000Y-75841000D01*
G37*
G36*
X12551000Y-75841000D02*
G01*
X11449000Y-75841000D01*
X11449000Y-74739000D01*
X12551000Y-74739000D01*
X12551000Y-75841000D01*
X12551000Y-75841000D01*
G37*
G36*
X88601000Y-75301000D02*
G01*
X87699000Y-75301000D01*
X87699000Y-74299000D01*
X88601000Y-74299000D01*
X88601000Y-75301000D01*
X88601000Y-75301000D01*
G37*
G36*
X86701000Y-75301000D02*
G01*
X85799000Y-75301000D01*
X85799000Y-74299000D01*
X86701000Y-74299000D01*
X86701000Y-75301000D01*
X86701000Y-75301000D01*
G37*
G36*
X84902241Y-75096321D02*
G01*
X82450241Y-75096321D01*
X82450241Y-74344321D01*
X84902241Y-74344321D01*
X84902241Y-75096321D01*
X84902241Y-75096321D01*
G37*
G36*
X75452241Y-75096321D02*
G01*
X73000241Y-75096321D01*
X73000241Y-74344321D01*
X75452241Y-74344321D01*
X75452241Y-75096321D01*
X75452241Y-75096321D01*
G37*
G36*
X57779393Y-72449304D02*
G01*
X58016101Y-72547352D01*
X58016103Y-72547353D01*
X58229135Y-72689696D01*
X58410304Y-72870865D01*
X58552647Y-73083897D01*
X58552648Y-73083899D01*
X58650696Y-73320607D01*
X58700680Y-73571893D01*
X58700680Y-73828107D01*
X58650696Y-74079393D01*
X58559731Y-74299000D01*
X58552647Y-74316103D01*
X58410304Y-74529135D01*
X58229135Y-74710304D01*
X58016103Y-74852647D01*
X58016102Y-74852648D01*
X58016101Y-74852648D01*
X57779393Y-74950696D01*
X57528107Y-75000680D01*
X57271893Y-75000680D01*
X57020607Y-74950696D01*
X56783899Y-74852648D01*
X56783898Y-74852648D01*
X56783897Y-74852647D01*
X56570865Y-74710304D01*
X56389696Y-74529135D01*
X56247353Y-74316103D01*
X56240269Y-74299000D01*
X56149304Y-74079393D01*
X56099320Y-73828107D01*
X56099320Y-73571893D01*
X56149304Y-73320607D01*
X56247352Y-73083899D01*
X56247353Y-73083897D01*
X56389696Y-72870865D01*
X56570865Y-72689696D01*
X56783897Y-72547353D01*
X56783899Y-72547352D01*
X57020607Y-72449304D01*
X57271893Y-72399320D01*
X57528107Y-72399320D01*
X57779393Y-72449304D01*
X57779393Y-72449304D01*
G37*
G36*
X29201000Y-73426000D02*
G01*
X28299000Y-73426000D01*
X28299000Y-72574000D01*
X29201000Y-72574000D01*
X29201000Y-73426000D01*
X29201000Y-73426000D01*
G37*
G36*
X30701000Y-73426000D02*
G01*
X29799000Y-73426000D01*
X29799000Y-72574000D01*
X30701000Y-72574000D01*
X30701000Y-73426000D01*
X30701000Y-73426000D01*
G37*
G36*
X27651000Y-73401000D02*
G01*
X26349000Y-73401000D01*
X26349000Y-72399000D01*
X27651000Y-72399000D01*
X27651000Y-73401000D01*
X27651000Y-73401000D01*
G37*
G36*
X25451000Y-73401000D02*
G01*
X24149000Y-73401000D01*
X24149000Y-72399000D01*
X25451000Y-72399000D01*
X25451000Y-73401000D01*
X25451000Y-73401000D01*
G37*
G36*
X20301000Y-73326000D02*
G01*
X19399000Y-73326000D01*
X19399000Y-72474000D01*
X20301000Y-72474000D01*
X20301000Y-73326000D01*
X20301000Y-73326000D01*
G37*
G36*
X21801000Y-73326000D02*
G01*
X20899000Y-73326000D01*
X20899000Y-72474000D01*
X21801000Y-72474000D01*
X21801000Y-73326000D01*
X21801000Y-73326000D01*
G37*
G36*
X84902241Y-72556321D02*
G01*
X82450241Y-72556321D01*
X82450241Y-71804321D01*
X84902241Y-71804321D01*
X84902241Y-72556321D01*
X84902241Y-72556321D01*
G37*
G36*
X75452241Y-72556321D02*
G01*
X73000241Y-72556321D01*
X73000241Y-71804321D01*
X75452241Y-71804321D01*
X75452241Y-72556321D01*
X75452241Y-72556321D01*
G37*
G36*
X34101000Y-71351000D02*
G01*
X33099000Y-71351000D01*
X33099000Y-70049000D01*
X34101000Y-70049000D01*
X34101000Y-71351000D01*
X34101000Y-71351000D01*
G37*
G36*
X40776280Y-71170480D02*
G01*
X39474280Y-71170480D01*
X39474280Y-70168480D01*
X40776280Y-70168480D01*
X40776280Y-71170480D01*
X40776280Y-71170480D01*
G37*
G36*
X38576280Y-71170480D02*
G01*
X37274280Y-71170480D01*
X37274280Y-70168480D01*
X38576280Y-70168480D01*
X38576280Y-71170480D01*
X38576280Y-71170480D01*
G37*
G36*
X42660600Y-71155240D02*
G01*
X41358600Y-71155240D01*
X41358600Y-70153240D01*
X42660600Y-70153240D01*
X42660600Y-71155240D01*
X42660600Y-71155240D01*
G37*
G36*
X44860600Y-71155240D02*
G01*
X43558600Y-71155240D01*
X43558600Y-70153240D01*
X44860600Y-70153240D01*
X44860600Y-71155240D01*
X44860600Y-71155240D01*
G37*
G36*
X27646000Y-71001000D02*
G01*
X25594000Y-71001000D01*
X25594000Y-69879000D01*
X27646000Y-69879000D01*
X27646000Y-71001000D01*
X27646000Y-71001000D01*
G37*
G36*
X29451000Y-71001000D02*
G01*
X28149000Y-71001000D01*
X28149000Y-69999000D01*
X29451000Y-69999000D01*
X29451000Y-71001000D01*
X29451000Y-71001000D01*
G37*
G36*
X31651000Y-71001000D02*
G01*
X30349000Y-71001000D01*
X30349000Y-69999000D01*
X31651000Y-69999000D01*
X31651000Y-71001000D01*
X31651000Y-71001000D01*
G37*
G36*
X12006000Y-71001000D02*
G01*
X9954000Y-71001000D01*
X9954000Y-69879000D01*
X12006000Y-69879000D01*
X12006000Y-71001000D01*
X12006000Y-71001000D01*
G37*
G36*
X76801560Y-70938960D02*
G01*
X75499560Y-70938960D01*
X75499560Y-70086960D01*
X76801560Y-70086960D01*
X76801560Y-70938960D01*
X76801560Y-70938960D01*
G37*
G36*
X74901560Y-70938960D02*
G01*
X73599560Y-70938960D01*
X73599560Y-70086960D01*
X74901560Y-70086960D01*
X74901560Y-70938960D01*
X74901560Y-70938960D01*
G37*
G36*
X6203097Y-68094069D02*
G01*
X6306032Y-68104207D01*
X6504146Y-68164305D01*
X6504149Y-68164306D01*
X6600975Y-68216061D01*
X6686729Y-68261897D01*
X6846765Y-68393235D01*
X6978103Y-68553271D01*
X6988057Y-68571894D01*
X7075694Y-68735851D01*
X7075695Y-68735854D01*
X7135793Y-68933968D01*
X7156085Y-69140000D01*
X7135793Y-69346032D01*
X7075695Y-69544146D01*
X7075694Y-69544149D01*
X7023939Y-69640975D01*
X6978103Y-69726729D01*
X6846765Y-69886765D01*
X6686729Y-70018103D01*
X6628924Y-70049000D01*
X6504149Y-70115694D01*
X6504146Y-70115695D01*
X6306032Y-70175793D01*
X6203097Y-70185931D01*
X6151631Y-70191000D01*
X5448369Y-70191000D01*
X5396903Y-70185931D01*
X5293968Y-70175793D01*
X5095854Y-70115695D01*
X5095851Y-70115694D01*
X4971076Y-70049000D01*
X4913271Y-70018103D01*
X4753235Y-69886765D01*
X4621897Y-69726729D01*
X4576061Y-69640975D01*
X4524306Y-69544149D01*
X4524305Y-69544146D01*
X4464207Y-69346032D01*
X4443915Y-69140000D01*
X4464207Y-68933968D01*
X4524305Y-68735854D01*
X4524306Y-68735851D01*
X4611943Y-68571894D01*
X4621897Y-68553271D01*
X4753235Y-68393235D01*
X4913271Y-68261897D01*
X4999025Y-68216061D01*
X5095851Y-68164306D01*
X5095854Y-68164305D01*
X5293968Y-68104207D01*
X5396903Y-68094069D01*
X5448369Y-68089000D01*
X6151631Y-68089000D01*
X6203097Y-68094069D01*
X6203097Y-68094069D01*
G37*
G36*
X57779393Y-67449304D02*
G01*
X58016101Y-67547352D01*
X58016103Y-67547353D01*
X58229135Y-67689696D01*
X58410304Y-67870865D01*
X58552647Y-68083897D01*
X58552648Y-68083899D01*
X58650696Y-68320607D01*
X58700680Y-68571893D01*
X58700680Y-68828107D01*
X58650696Y-69079393D01*
X58621035Y-69151000D01*
X58552647Y-69316103D01*
X58410304Y-69529135D01*
X58229135Y-69710304D01*
X58016103Y-69852647D01*
X58016102Y-69852648D01*
X58016101Y-69852648D01*
X57779393Y-69950696D01*
X57528107Y-70000680D01*
X57271893Y-70000680D01*
X57020607Y-69950696D01*
X56783899Y-69852648D01*
X56783898Y-69852648D01*
X56783897Y-69852647D01*
X56570865Y-69710304D01*
X56389696Y-69529135D01*
X56247353Y-69316103D01*
X56178965Y-69151000D01*
X56149304Y-69079393D01*
X56099320Y-68828107D01*
X56099320Y-68571893D01*
X56149304Y-68320607D01*
X56247352Y-68083899D01*
X56247353Y-68083897D01*
X56389696Y-67870865D01*
X56570865Y-67689696D01*
X56783897Y-67547353D01*
X56783899Y-67547352D01*
X57020607Y-67449304D01*
X57271893Y-67399320D01*
X57528107Y-67399320D01*
X57779393Y-67449304D01*
X57779393Y-67449304D01*
G37*
G36*
X67146840Y-69651680D02*
G01*
X66144840Y-69651680D01*
X66144840Y-68349680D01*
X67146840Y-68349680D01*
X67146840Y-69651680D01*
X67146840Y-69651680D01*
G37*
G36*
X74909040Y-69487160D02*
G01*
X73307040Y-69487160D01*
X73307040Y-68135160D01*
X74909040Y-68135160D01*
X74909040Y-69487160D01*
X74909040Y-69487160D01*
G37*
G36*
X77409040Y-69487160D02*
G01*
X75807040Y-69487160D01*
X75807040Y-68135160D01*
X77409040Y-68135160D01*
X77409040Y-69487160D01*
X77409040Y-69487160D01*
G37*
G36*
X38865200Y-69166080D02*
G01*
X37363200Y-69166080D01*
X37363200Y-65264080D01*
X38865200Y-65264080D01*
X38865200Y-69166080D01*
X38865200Y-69166080D01*
G37*
G36*
X43265200Y-69166080D02*
G01*
X41763200Y-69166080D01*
X41763200Y-65264080D01*
X43265200Y-65264080D01*
X43265200Y-69166080D01*
X43265200Y-69166080D01*
G37*
G36*
X34101000Y-69151000D02*
G01*
X33099000Y-69151000D01*
X33099000Y-67849000D01*
X34101000Y-67849000D01*
X34101000Y-69151000D01*
X34101000Y-69151000D01*
G37*
G36*
X65398560Y-69052760D02*
G01*
X64396560Y-69052760D01*
X64396560Y-68150760D01*
X65398560Y-68150760D01*
X65398560Y-69052760D01*
X65398560Y-69052760D01*
G37*
G36*
X27646000Y-68461000D02*
G01*
X25594000Y-68461000D01*
X25594000Y-67339000D01*
X27646000Y-67339000D01*
X27646000Y-68461000D01*
X27646000Y-68461000D01*
G37*
G36*
X12006000Y-68461000D02*
G01*
X9954000Y-68461000D01*
X9954000Y-67339000D01*
X12006000Y-67339000D01*
X12006000Y-68461000D01*
X12006000Y-68461000D01*
G37*
G36*
X31401000Y-68426000D02*
G01*
X30099000Y-68426000D01*
X30099000Y-67574000D01*
X31401000Y-67574000D01*
X31401000Y-68426000D01*
X31401000Y-68426000D01*
G37*
G36*
X29501000Y-68426000D02*
G01*
X28199000Y-68426000D01*
X28199000Y-67574000D01*
X29501000Y-67574000D01*
X29501000Y-68426000D01*
X29501000Y-68426000D01*
G37*
G36*
X63398560Y-68102760D02*
G01*
X62396560Y-68102760D01*
X62396560Y-67200760D01*
X63398560Y-67200760D01*
X63398560Y-68102760D01*
X63398560Y-68102760D01*
G37*
G36*
X7151000Y-67651000D02*
G01*
X4449000Y-67651000D01*
X4449000Y-65549000D01*
X7151000Y-65549000D01*
X7151000Y-67651000D01*
X7151000Y-67651000D01*
G37*
G36*
X67146840Y-67451680D02*
G01*
X66144840Y-67451680D01*
X66144840Y-66149680D01*
X67146840Y-66149680D01*
X67146840Y-67451680D01*
X67146840Y-67451680D01*
G37*
G36*
X34026000Y-67301000D02*
G01*
X33174000Y-67301000D01*
X33174000Y-65999000D01*
X34026000Y-65999000D01*
X34026000Y-67301000D01*
X34026000Y-67301000D01*
G37*
G36*
X65398560Y-67152760D02*
G01*
X64396560Y-67152760D01*
X64396560Y-66250760D01*
X65398560Y-66250760D01*
X65398560Y-67152760D01*
X65398560Y-67152760D01*
G37*
G36*
X96151000Y-66551000D02*
G01*
X93449000Y-66551000D01*
X93449000Y-64449000D01*
X96151000Y-64449000D01*
X96151000Y-66551000D01*
X96151000Y-66551000D01*
G37*
G36*
X83151000Y-66551000D02*
G01*
X79949000Y-66551000D01*
X79949000Y-64249000D01*
X83151000Y-64249000D01*
X83151000Y-66551000D01*
X83151000Y-66551000D01*
G37*
G36*
X12006000Y-65921000D02*
G01*
X9954000Y-65921000D01*
X9954000Y-64799000D01*
X12006000Y-64799000D01*
X12006000Y-65921000D01*
X12006000Y-65921000D01*
G37*
G36*
X27646000Y-65921000D02*
G01*
X25594000Y-65921000D01*
X25594000Y-64799000D01*
X27646000Y-64799000D01*
X27646000Y-65921000D01*
X27646000Y-65921000D01*
G37*
G36*
X29451000Y-65801000D02*
G01*
X28149000Y-65801000D01*
X28149000Y-64799000D01*
X29451000Y-64799000D01*
X29451000Y-65801000D01*
X29451000Y-65801000D01*
G37*
G36*
X31651000Y-65801000D02*
G01*
X30349000Y-65801000D01*
X30349000Y-64799000D01*
X31651000Y-64799000D01*
X31651000Y-65801000D01*
X31651000Y-65801000D01*
G37*
G36*
X34026000Y-65401000D02*
G01*
X33174000Y-65401000D01*
X33174000Y-64099000D01*
X34026000Y-64099000D01*
X34026000Y-65401000D01*
X34026000Y-65401000D01*
G37*
G36*
X40601000Y-64226000D02*
G01*
X39299000Y-64226000D01*
X39299000Y-63374000D01*
X40601000Y-63374000D01*
X40601000Y-64226000D01*
X40601000Y-64226000D01*
G37*
G36*
X38701000Y-64226000D02*
G01*
X37399000Y-64226000D01*
X37399000Y-63374000D01*
X38701000Y-63374000D01*
X38701000Y-64226000D01*
X38701000Y-64226000D01*
G37*
G36*
X95203097Y-61914069D02*
G01*
X95306032Y-61924207D01*
X95504146Y-61984305D01*
X95504149Y-61984306D01*
X95600975Y-62036061D01*
X95686729Y-62081897D01*
X95846765Y-62213235D01*
X95978103Y-62373271D01*
X96018581Y-62449000D01*
X96075694Y-62555851D01*
X96075695Y-62555854D01*
X96135793Y-62753968D01*
X96156085Y-62960000D01*
X96135793Y-63166032D01*
X96079683Y-63351000D01*
X96075694Y-63364149D01*
X96023939Y-63460975D01*
X95978103Y-63546729D01*
X95846765Y-63706765D01*
X95686729Y-63838103D01*
X95600975Y-63883939D01*
X95504149Y-63935694D01*
X95504146Y-63935695D01*
X95306032Y-63995793D01*
X95203097Y-64005931D01*
X95151631Y-64011000D01*
X94448369Y-64011000D01*
X94396903Y-64005931D01*
X94293968Y-63995793D01*
X94095854Y-63935695D01*
X94095851Y-63935694D01*
X93999025Y-63883939D01*
X93913271Y-63838103D01*
X93753235Y-63706765D01*
X93621897Y-63546729D01*
X93576061Y-63460975D01*
X93524306Y-63364149D01*
X93520317Y-63351000D01*
X93464207Y-63166032D01*
X93443915Y-62960000D01*
X93464207Y-62753968D01*
X93524305Y-62555854D01*
X93524306Y-62555851D01*
X93581419Y-62449000D01*
X93621897Y-62373271D01*
X93753235Y-62213235D01*
X93913271Y-62081897D01*
X93999025Y-62036061D01*
X94095851Y-61984306D01*
X94095854Y-61984305D01*
X94293968Y-61924207D01*
X94396903Y-61914069D01*
X94448369Y-61909000D01*
X95151631Y-61909000D01*
X95203097Y-61914069D01*
X95203097Y-61914069D01*
G37*
G36*
X79551000Y-63351000D02*
G01*
X77749000Y-63351000D01*
X77749000Y-62449000D01*
X79551000Y-62449000D01*
X79551000Y-63351000D01*
X79551000Y-63351000D01*
G37*
G36*
X89708000Y-62109520D02*
G01*
X88406000Y-62109520D01*
X88406000Y-61107520D01*
X89708000Y-61107520D01*
X89708000Y-62109520D01*
X89708000Y-62109520D01*
G37*
G36*
X87508000Y-62109520D02*
G01*
X86206000Y-62109520D01*
X86206000Y-61107520D01*
X87508000Y-61107520D01*
X87508000Y-62109520D01*
X87508000Y-62109520D01*
G37*
G36*
X79551000Y-62101000D02*
G01*
X77749000Y-62101000D01*
X77749000Y-61199000D01*
X79551000Y-61199000D01*
X79551000Y-62101000D01*
X79551000Y-62101000D01*
G37*
G36*
X32052585Y-58676802D02*
G01*
X32202410Y-58706604D01*
X32484674Y-58823521D01*
X32738705Y-58993259D01*
X32954741Y-59209295D01*
X33124479Y-59463326D01*
X33241396Y-59745590D01*
X33241396Y-59745591D01*
X33301000Y-60045239D01*
X33301000Y-60350761D01*
X33287227Y-60420000D01*
X33241396Y-60650410D01*
X33124479Y-60932674D01*
X32954741Y-61186705D01*
X32738705Y-61402741D01*
X32484674Y-61572479D01*
X32202410Y-61689396D01*
X32052585Y-61719198D01*
X31902761Y-61749000D01*
X31597239Y-61749000D01*
X31447415Y-61719198D01*
X31297590Y-61689396D01*
X31015326Y-61572479D01*
X30761295Y-61402741D01*
X30545259Y-61186705D01*
X30375521Y-60932674D01*
X30258604Y-60650410D01*
X30212773Y-60420000D01*
X30199000Y-60350761D01*
X30199000Y-60045239D01*
X30258604Y-59745591D01*
X30258604Y-59745590D01*
X30375521Y-59463326D01*
X30545259Y-59209295D01*
X30761295Y-58993259D01*
X31015326Y-58823521D01*
X31297590Y-58706604D01*
X31447415Y-58676802D01*
X31597239Y-58647000D01*
X31902761Y-58647000D01*
X32052585Y-58676802D01*
X32052585Y-58676802D01*
G37*
G36*
X95203097Y-59374069D02*
G01*
X95306032Y-59384207D01*
X95504146Y-59444305D01*
X95504149Y-59444306D01*
X95539736Y-59463328D01*
X95686729Y-59541897D01*
X95846765Y-59673235D01*
X95978103Y-59833271D01*
X96023939Y-59919025D01*
X96075694Y-60015851D01*
X96075695Y-60015854D01*
X96135793Y-60213968D01*
X96156085Y-60420000D01*
X96135793Y-60626032D01*
X96083595Y-60798103D01*
X96075694Y-60824149D01*
X96037452Y-60895694D01*
X95978103Y-61006729D01*
X95846765Y-61166765D01*
X95686729Y-61298103D01*
X95634537Y-61326000D01*
X95504149Y-61395694D01*
X95504146Y-61395695D01*
X95306032Y-61455793D01*
X95203097Y-61465931D01*
X95151631Y-61471000D01*
X94448369Y-61471000D01*
X94396903Y-61465931D01*
X94293968Y-61455793D01*
X94095854Y-61395695D01*
X94095851Y-61395694D01*
X93965463Y-61326000D01*
X93913271Y-61298103D01*
X93753235Y-61166765D01*
X93621897Y-61006729D01*
X93562548Y-60895694D01*
X93524306Y-60824149D01*
X93516405Y-60798103D01*
X93464207Y-60626032D01*
X93443915Y-60420000D01*
X93464207Y-60213968D01*
X93524305Y-60015854D01*
X93524306Y-60015851D01*
X93576061Y-59919025D01*
X93621897Y-59833271D01*
X93753235Y-59673235D01*
X93913271Y-59541897D01*
X94060264Y-59463328D01*
X94095851Y-59444306D01*
X94095854Y-59444305D01*
X94293968Y-59384207D01*
X94396903Y-59374069D01*
X94448369Y-59369000D01*
X95151631Y-59369000D01*
X95203097Y-59374069D01*
X95203097Y-59374069D01*
G37*
G36*
X41851000Y-61401000D02*
G01*
X40549000Y-61401000D01*
X40549000Y-60399000D01*
X41851000Y-60399000D01*
X41851000Y-61401000D01*
X41851000Y-61401000D01*
G37*
G36*
X39651000Y-61401000D02*
G01*
X38349000Y-61401000D01*
X38349000Y-60399000D01*
X39651000Y-60399000D01*
X39651000Y-61401000D01*
X39651000Y-61401000D01*
G37*
G36*
X19901000Y-61351000D02*
G01*
X18899000Y-61351000D01*
X18899000Y-60049000D01*
X19901000Y-60049000D01*
X19901000Y-61351000D01*
X19901000Y-61351000D01*
G37*
G36*
X18401000Y-61326000D02*
G01*
X17099000Y-61326000D01*
X17099000Y-60474000D01*
X18401000Y-60474000D01*
X18401000Y-61326000D01*
X18401000Y-61326000D01*
G37*
G36*
X16501000Y-61326000D02*
G01*
X15199000Y-61326000D01*
X15199000Y-60474000D01*
X16501000Y-60474000D01*
X16501000Y-61326000D01*
X16501000Y-61326000D01*
G37*
G36*
X23151000Y-61301000D02*
G01*
X21849000Y-61301000D01*
X21849000Y-60299000D01*
X23151000Y-60299000D01*
X23151000Y-61301000D01*
X23151000Y-61301000D01*
G37*
G36*
X25351000Y-61301000D02*
G01*
X24049000Y-61301000D01*
X24049000Y-60299000D01*
X25351000Y-60299000D01*
X25351000Y-61301000D01*
X25351000Y-61301000D01*
G37*
G36*
X6264777Y-58874069D02*
G01*
X6367712Y-58884207D01*
X6565826Y-58944305D01*
X6565829Y-58944306D01*
X6657413Y-58993259D01*
X6748409Y-59041897D01*
X6908445Y-59173235D01*
X7039783Y-59333271D01*
X7085619Y-59419025D01*
X7137374Y-59515851D01*
X7137375Y-59515854D01*
X7197473Y-59713968D01*
X7217765Y-59920000D01*
X7197473Y-60126032D01*
X7170797Y-60213970D01*
X7137374Y-60324149D01*
X7097365Y-60399000D01*
X7039783Y-60506729D01*
X6908445Y-60666765D01*
X6748409Y-60798103D01*
X6699680Y-60824149D01*
X6565829Y-60895694D01*
X6565826Y-60895695D01*
X6367712Y-60955793D01*
X6264777Y-60965931D01*
X6213311Y-60971000D01*
X5510049Y-60971000D01*
X5458583Y-60965931D01*
X5355648Y-60955793D01*
X5157534Y-60895695D01*
X5157531Y-60895694D01*
X5023680Y-60824149D01*
X4974951Y-60798103D01*
X4814915Y-60666765D01*
X4683577Y-60506729D01*
X4625995Y-60399000D01*
X4585986Y-60324149D01*
X4552563Y-60213970D01*
X4525887Y-60126032D01*
X4505595Y-59920000D01*
X4525887Y-59713968D01*
X4585985Y-59515854D01*
X4585986Y-59515851D01*
X4637741Y-59419025D01*
X4683577Y-59333271D01*
X4814915Y-59173235D01*
X4974951Y-59041897D01*
X5065947Y-58993259D01*
X5157531Y-58944306D01*
X5157534Y-58944305D01*
X5355648Y-58884207D01*
X5458583Y-58874069D01*
X5510049Y-58869000D01*
X6213311Y-58869000D01*
X6264777Y-58874069D01*
X6264777Y-58874069D01*
G37*
G36*
X79551000Y-60851000D02*
G01*
X77749000Y-60851000D01*
X77749000Y-59949000D01*
X79551000Y-59949000D01*
X79551000Y-60851000D01*
X79551000Y-60851000D01*
G37*
G36*
X64501000Y-60801080D02*
G01*
X63199000Y-60801080D01*
X63199000Y-59949080D01*
X64501000Y-59949080D01*
X64501000Y-60801080D01*
X64501000Y-60801080D01*
G37*
G36*
X62601000Y-60801080D02*
G01*
X61299000Y-60801080D01*
X61299000Y-59949080D01*
X62601000Y-59949080D01*
X62601000Y-60801080D01*
X62601000Y-60801080D01*
G37*
G36*
X87492760Y-60600760D02*
G01*
X86190760Y-60600760D01*
X86190760Y-59598760D01*
X87492760Y-59598760D01*
X87492760Y-60600760D01*
X87492760Y-60600760D01*
G37*
G36*
X89692760Y-60600760D02*
G01*
X88390760Y-60600760D01*
X88390760Y-59598760D01*
X89692760Y-59598760D01*
X89692760Y-60600760D01*
X89692760Y-60600760D01*
G37*
G36*
X53326000Y-60301000D02*
G01*
X52474000Y-60301000D01*
X52474000Y-58999000D01*
X53326000Y-58999000D01*
X53326000Y-60301000D01*
X53326000Y-60301000D01*
G37*
G36*
X41851000Y-59801000D02*
G01*
X40549000Y-59801000D01*
X40549000Y-58799000D01*
X41851000Y-58799000D01*
X41851000Y-59801000D01*
X41851000Y-59801000D01*
G37*
G36*
X39651000Y-59801000D02*
G01*
X38349000Y-59801000D01*
X38349000Y-58799000D01*
X39651000Y-58799000D01*
X39651000Y-59801000D01*
X39651000Y-59801000D01*
G37*
G36*
X25351000Y-59701000D02*
G01*
X24049000Y-59701000D01*
X24049000Y-58699000D01*
X25351000Y-58699000D01*
X25351000Y-59701000D01*
X25351000Y-59701000D01*
G37*
G36*
X23151000Y-59701000D02*
G01*
X21849000Y-59701000D01*
X21849000Y-58699000D01*
X23151000Y-58699000D01*
X23151000Y-59701000D01*
X23151000Y-59701000D01*
G37*
G36*
X10801000Y-59651000D02*
G01*
X9799000Y-59651000D01*
X9799000Y-58349000D01*
X10801000Y-58349000D01*
X10801000Y-59651000D01*
X10801000Y-59651000D01*
G37*
G36*
X79551000Y-59601000D02*
G01*
X77749000Y-59601000D01*
X77749000Y-58699000D01*
X79551000Y-58699000D01*
X79551000Y-59601000D01*
X79551000Y-59601000D01*
G37*
G36*
X61938600Y-59269120D02*
G01*
X56086600Y-59269120D01*
X56086600Y-57867120D01*
X61938600Y-57867120D01*
X61938600Y-59269120D01*
X61938600Y-59269120D01*
G37*
G36*
X19901000Y-59151000D02*
G01*
X18899000Y-59151000D01*
X18899000Y-57849000D01*
X19901000Y-57849000D01*
X19901000Y-59151000D01*
X19901000Y-59151000D01*
G37*
G36*
X89692760Y-59056440D02*
G01*
X88390760Y-59056440D01*
X88390760Y-58054440D01*
X89692760Y-58054440D01*
X89692760Y-59056440D01*
X89692760Y-59056440D01*
G37*
G36*
X87492760Y-59056440D02*
G01*
X86190760Y-59056440D01*
X86190760Y-58054440D01*
X87492760Y-58054440D01*
X87492760Y-59056440D01*
X87492760Y-59056440D01*
G37*
G36*
X95203097Y-56834069D02*
G01*
X95306032Y-56844207D01*
X95504146Y-56904305D01*
X95504149Y-56904306D01*
X95600975Y-56956061D01*
X95686729Y-57001897D01*
X95846765Y-57133235D01*
X95978103Y-57293271D01*
X96023939Y-57379025D01*
X96075694Y-57475851D01*
X96075695Y-57475854D01*
X96135793Y-57673968D01*
X96156085Y-57880000D01*
X96135793Y-58086032D01*
X96083595Y-58258103D01*
X96075694Y-58284149D01*
X96041030Y-58349000D01*
X95978103Y-58466729D01*
X95846765Y-58626765D01*
X95686729Y-58758103D01*
X95600975Y-58803939D01*
X95504149Y-58855694D01*
X95504146Y-58855695D01*
X95306032Y-58915793D01*
X95203097Y-58925931D01*
X95151631Y-58931000D01*
X94448369Y-58931000D01*
X94396903Y-58925931D01*
X94293968Y-58915793D01*
X94095854Y-58855695D01*
X94095851Y-58855694D01*
X93999025Y-58803939D01*
X93913271Y-58758103D01*
X93753235Y-58626765D01*
X93621897Y-58466729D01*
X93558970Y-58349000D01*
X93524306Y-58284149D01*
X93516405Y-58258103D01*
X93464207Y-58086032D01*
X93443915Y-57880000D01*
X93464207Y-57673968D01*
X93524305Y-57475854D01*
X93524306Y-57475851D01*
X93576061Y-57379025D01*
X93621897Y-57293271D01*
X93753235Y-57133235D01*
X93913271Y-57001897D01*
X93999025Y-56956061D01*
X94095851Y-56904306D01*
X94095854Y-56904305D01*
X94293968Y-56844207D01*
X94396903Y-56834069D01*
X94448369Y-56829000D01*
X95151631Y-56829000D01*
X95203097Y-56834069D01*
X95203097Y-56834069D01*
G37*
G36*
X6264777Y-56334069D02*
G01*
X6367712Y-56344207D01*
X6565826Y-56404305D01*
X6565829Y-56404306D01*
X6662655Y-56456061D01*
X6748409Y-56501897D01*
X6908445Y-56633235D01*
X7039783Y-56793271D01*
X7085619Y-56879025D01*
X7137374Y-56975851D01*
X7137375Y-56975854D01*
X7197473Y-57173968D01*
X7217765Y-57380000D01*
X7197473Y-57586032D01*
X7170797Y-57673970D01*
X7137374Y-57784149D01*
X7102710Y-57849000D01*
X7039783Y-57966729D01*
X6908445Y-58126765D01*
X6748409Y-58258103D01*
X6699680Y-58284149D01*
X6565829Y-58355694D01*
X6565826Y-58355695D01*
X6367712Y-58415793D01*
X6264777Y-58425931D01*
X6213311Y-58431000D01*
X5510049Y-58431000D01*
X5458583Y-58425931D01*
X5355648Y-58415793D01*
X5157534Y-58355695D01*
X5157531Y-58355694D01*
X5023680Y-58284149D01*
X4974951Y-58258103D01*
X4814915Y-58126765D01*
X4683577Y-57966729D01*
X4620650Y-57849000D01*
X4585986Y-57784149D01*
X4552563Y-57673970D01*
X4525887Y-57586032D01*
X4505595Y-57380000D01*
X4525887Y-57173968D01*
X4585985Y-56975854D01*
X4585986Y-56975851D01*
X4637741Y-56879025D01*
X4683577Y-56793271D01*
X4814915Y-56633235D01*
X4974951Y-56501897D01*
X5060705Y-56456061D01*
X5157531Y-56404306D01*
X5157534Y-56404305D01*
X5355648Y-56344207D01*
X5458583Y-56334069D01*
X5510049Y-56329000D01*
X6213311Y-56329000D01*
X6264777Y-56334069D01*
X6264777Y-56334069D01*
G37*
G36*
X53326000Y-58401000D02*
G01*
X52474000Y-58401000D01*
X52474000Y-57099000D01*
X53326000Y-57099000D01*
X53326000Y-58401000D01*
X53326000Y-58401000D01*
G37*
G36*
X79551000Y-58351000D02*
G01*
X77749000Y-58351000D01*
X77749000Y-57449000D01*
X79551000Y-57449000D01*
X79551000Y-58351000D01*
X79551000Y-58351000D01*
G37*
G36*
X25201000Y-58126000D02*
G01*
X23899000Y-58126000D01*
X23899000Y-57274000D01*
X25201000Y-57274000D01*
X25201000Y-58126000D01*
X25201000Y-58126000D01*
G37*
G36*
X23301000Y-58126000D02*
G01*
X21999000Y-58126000D01*
X21999000Y-57274000D01*
X23301000Y-57274000D01*
X23301000Y-58126000D01*
X23301000Y-58126000D01*
G37*
G36*
X42001000Y-57551000D02*
G01*
X39599000Y-57551000D01*
X39599000Y-56049000D01*
X42001000Y-56049000D01*
X42001000Y-57551000D01*
X42001000Y-57551000D01*
G37*
G36*
X10801000Y-57451000D02*
G01*
X9799000Y-57451000D01*
X9799000Y-56149000D01*
X10801000Y-56149000D01*
X10801000Y-57451000D01*
X10801000Y-57451000D01*
G37*
G36*
X19526000Y-57381000D02*
G01*
X16874000Y-57381000D01*
X16874000Y-56219000D01*
X19526000Y-56219000D01*
X19526000Y-57381000D01*
X19526000Y-57381000D01*
G37*
G36*
X15876560Y-57252160D02*
G01*
X15024560Y-57252160D01*
X15024560Y-55950160D01*
X15876560Y-55950160D01*
X15876560Y-57252160D01*
X15876560Y-57252160D01*
G37*
G36*
X14301000Y-57201000D02*
G01*
X13299000Y-57201000D01*
X13299000Y-56299000D01*
X14301000Y-56299000D01*
X14301000Y-57201000D01*
X14301000Y-57201000D01*
G37*
G36*
X55363600Y-57144120D02*
G01*
X53961600Y-57144120D01*
X53961600Y-51292120D01*
X55363600Y-51292120D01*
X55363600Y-57144120D01*
X55363600Y-57144120D01*
G37*
G36*
X64063600Y-57144120D02*
G01*
X62661600Y-57144120D01*
X62661600Y-51292120D01*
X64063600Y-51292120D01*
X64063600Y-57144120D01*
X64063600Y-57144120D01*
G37*
G36*
X22716000Y-56726000D02*
G01*
X22014000Y-56726000D01*
X22014000Y-55074000D01*
X22716000Y-55074000D01*
X22716000Y-56726000D01*
X22716000Y-56726000D01*
G37*
G36*
X23986000Y-56726000D02*
G01*
X23284000Y-56726000D01*
X23284000Y-55074000D01*
X23986000Y-55074000D01*
X23986000Y-56726000D01*
X23986000Y-56726000D01*
G37*
G36*
X25256000Y-56726000D02*
G01*
X24554000Y-56726000D01*
X24554000Y-55074000D01*
X25256000Y-55074000D01*
X25256000Y-56726000D01*
X25256000Y-56726000D01*
G37*
G36*
X21446000Y-56726000D02*
G01*
X20744000Y-56726000D01*
X20744000Y-55074000D01*
X21446000Y-55074000D01*
X21446000Y-56726000D01*
X21446000Y-56726000D01*
G37*
G36*
X26926000Y-56701000D02*
G01*
X26074000Y-56701000D01*
X26074000Y-55399000D01*
X26926000Y-55399000D01*
X26926000Y-56701000D01*
X26926000Y-56701000D01*
G37*
G36*
X83151000Y-56551000D02*
G01*
X79949000Y-56551000D01*
X79949000Y-54249000D01*
X83151000Y-54249000D01*
X83151000Y-56551000D01*
X83151000Y-56551000D01*
G37*
G36*
X95203097Y-54294069D02*
G01*
X95306032Y-54304207D01*
X95504146Y-54364305D01*
X95504149Y-54364306D01*
X95600975Y-54416061D01*
X95686729Y-54461897D01*
X95846765Y-54593235D01*
X95978103Y-54753271D01*
X96023939Y-54839025D01*
X96075694Y-54935851D01*
X96075695Y-54935854D01*
X96135793Y-55133968D01*
X96156085Y-55340000D01*
X96135793Y-55546032D01*
X96106038Y-55644120D01*
X96075694Y-55744149D01*
X96050053Y-55792120D01*
X95978103Y-55926729D01*
X95846765Y-56086765D01*
X95686729Y-56218103D01*
X95600975Y-56263939D01*
X95504149Y-56315694D01*
X95504146Y-56315695D01*
X95306032Y-56375793D01*
X95203097Y-56385931D01*
X95151631Y-56391000D01*
X94448369Y-56391000D01*
X94396903Y-56385931D01*
X94293968Y-56375793D01*
X94095854Y-56315695D01*
X94095851Y-56315694D01*
X93999025Y-56263939D01*
X93913271Y-56218103D01*
X93753235Y-56086765D01*
X93621897Y-55926729D01*
X93549947Y-55792120D01*
X93524306Y-55744149D01*
X93493962Y-55644120D01*
X93464207Y-55546032D01*
X93443915Y-55340000D01*
X93464207Y-55133968D01*
X93524305Y-54935854D01*
X93524306Y-54935851D01*
X93576061Y-54839025D01*
X93621897Y-54753271D01*
X93753235Y-54593235D01*
X93913271Y-54461897D01*
X93999025Y-54416061D01*
X94095851Y-54364306D01*
X94095854Y-54364305D01*
X94293968Y-54304207D01*
X94396903Y-54294069D01*
X94448369Y-54289000D01*
X95151631Y-54289000D01*
X95203097Y-54294069D01*
X95203097Y-54294069D01*
G37*
G36*
X12301000Y-56251000D02*
G01*
X11299000Y-56251000D01*
X11299000Y-55349000D01*
X12301000Y-55349000D01*
X12301000Y-56251000D01*
X12301000Y-56251000D01*
G37*
G36*
X6264777Y-53794069D02*
G01*
X6367712Y-53804207D01*
X6565826Y-53864305D01*
X6565829Y-53864306D01*
X6662655Y-53916061D01*
X6748409Y-53961897D01*
X6908445Y-54093235D01*
X7039783Y-54253271D01*
X7085619Y-54339025D01*
X7137374Y-54435851D01*
X7137375Y-54435854D01*
X7197473Y-54633968D01*
X7217765Y-54840000D01*
X7197473Y-55046032D01*
X7170797Y-55133970D01*
X7137374Y-55244149D01*
X7111733Y-55292120D01*
X7039783Y-55426729D01*
X6908445Y-55586765D01*
X6748409Y-55718103D01*
X6699680Y-55744149D01*
X6565829Y-55815694D01*
X6565826Y-55815695D01*
X6367712Y-55875793D01*
X6264777Y-55885931D01*
X6213311Y-55891000D01*
X5510049Y-55891000D01*
X5458583Y-55885931D01*
X5355648Y-55875793D01*
X5157534Y-55815695D01*
X5157531Y-55815694D01*
X5023680Y-55744149D01*
X4974951Y-55718103D01*
X4814915Y-55586765D01*
X4683577Y-55426729D01*
X4611627Y-55292120D01*
X4585986Y-55244149D01*
X4552563Y-55133970D01*
X4525887Y-55046032D01*
X4505595Y-54840000D01*
X4525887Y-54633968D01*
X4585985Y-54435854D01*
X4585986Y-54435851D01*
X4637741Y-54339025D01*
X4683577Y-54253271D01*
X4814915Y-54093235D01*
X4974951Y-53961897D01*
X5060705Y-53916061D01*
X5157531Y-53864306D01*
X5157534Y-53864305D01*
X5355648Y-53804207D01*
X5458583Y-53794069D01*
X5510049Y-53789000D01*
X6213311Y-53789000D01*
X6264777Y-53794069D01*
X6264777Y-53794069D01*
G37*
G36*
X10801000Y-55551000D02*
G01*
X9799000Y-55551000D01*
X9799000Y-54249000D01*
X10801000Y-54249000D01*
X10801000Y-55551000D01*
X10801000Y-55551000D01*
G37*
G36*
X15876560Y-55352160D02*
G01*
X15024560Y-55352160D01*
X15024560Y-54050160D01*
X15876560Y-54050160D01*
X15876560Y-55352160D01*
X15876560Y-55352160D01*
G37*
G36*
X14301000Y-55301000D02*
G01*
X13299000Y-55301000D01*
X13299000Y-54399000D01*
X14301000Y-54399000D01*
X14301000Y-55301000D01*
X14301000Y-55301000D01*
G37*
G36*
X19526000Y-55181000D02*
G01*
X16874000Y-55181000D01*
X16874000Y-54019000D01*
X19526000Y-54019000D01*
X19526000Y-55181000D01*
X19526000Y-55181000D01*
G37*
G36*
X37101000Y-55051000D02*
G01*
X36099000Y-55051000D01*
X36099000Y-53749000D01*
X37101000Y-53749000D01*
X37101000Y-55051000D01*
X37101000Y-55051000D01*
G37*
G36*
X35501000Y-55051000D02*
G01*
X34499000Y-55051000D01*
X34499000Y-53749000D01*
X35501000Y-53749000D01*
X35501000Y-55051000D01*
X35501000Y-55051000D01*
G37*
G36*
X32426000Y-54901000D02*
G01*
X31574000Y-54901000D01*
X31574000Y-53599000D01*
X32426000Y-53599000D01*
X32426000Y-54901000D01*
X32426000Y-54901000D01*
G37*
G36*
X38526000Y-54901000D02*
G01*
X37674000Y-54901000D01*
X37674000Y-53599000D01*
X38526000Y-53599000D01*
X38526000Y-54901000D01*
X38526000Y-54901000D01*
G37*
G36*
X30926000Y-54901000D02*
G01*
X30074000Y-54901000D01*
X30074000Y-53599000D01*
X30926000Y-53599000D01*
X30926000Y-54901000D01*
X30926000Y-54901000D01*
G37*
G36*
X33926000Y-54901000D02*
G01*
X33074000Y-54901000D01*
X33074000Y-53599000D01*
X33926000Y-53599000D01*
X33926000Y-54901000D01*
X33926000Y-54901000D01*
G37*
G36*
X26926000Y-54801000D02*
G01*
X26074000Y-54801000D01*
X26074000Y-53499000D01*
X26926000Y-53499000D01*
X26926000Y-54801000D01*
X26926000Y-54801000D01*
G37*
G36*
X13510585Y-50294802D02*
G01*
X13660410Y-50324604D01*
X13942674Y-50441521D01*
X14196705Y-50611259D01*
X14412741Y-50827295D01*
X14582479Y-51081326D01*
X14699396Y-51363590D01*
X14699396Y-51363591D01*
X14756168Y-51649000D01*
X14759000Y-51663240D01*
X14759000Y-51968760D01*
X14699396Y-52268410D01*
X14582479Y-52550674D01*
X14412741Y-52804705D01*
X14196705Y-53020741D01*
X13942674Y-53190479D01*
X13660410Y-53307396D01*
X13510585Y-53337198D01*
X13360761Y-53367000D01*
X13055239Y-53367000D01*
X12905415Y-53337198D01*
X12755590Y-53307396D01*
X12473326Y-53190479D01*
X12219295Y-53020741D01*
X12003259Y-52804705D01*
X11833521Y-52550674D01*
X11716604Y-52268410D01*
X11657000Y-51968760D01*
X11657000Y-51663240D01*
X11659833Y-51649000D01*
X11716604Y-51363591D01*
X11716604Y-51363590D01*
X11833521Y-51081326D01*
X12003259Y-50827295D01*
X12219295Y-50611259D01*
X12473326Y-50441521D01*
X12755590Y-50324604D01*
X12905415Y-50294802D01*
X13055239Y-50265000D01*
X13360761Y-50265000D01*
X13510585Y-50294802D01*
X13510585Y-50294802D01*
G37*
G36*
X7212680Y-53351000D02*
G01*
X4510680Y-53351000D01*
X4510680Y-51249000D01*
X7212680Y-51249000D01*
X7212680Y-53351000D01*
X7212680Y-53351000D01*
G37*
G36*
X10801000Y-53351000D02*
G01*
X9799000Y-53351000D01*
X9799000Y-52049000D01*
X10801000Y-52049000D01*
X10801000Y-53351000D01*
X10801000Y-53351000D01*
G37*
G36*
X42001000Y-53151000D02*
G01*
X39599000Y-53151000D01*
X39599000Y-51649000D01*
X42001000Y-51649000D01*
X42001000Y-53151000D01*
X42001000Y-53151000D01*
G37*
G36*
X32426000Y-53001000D02*
G01*
X31574000Y-53001000D01*
X31574000Y-51699000D01*
X32426000Y-51699000D01*
X32426000Y-53001000D01*
X32426000Y-53001000D01*
G37*
G36*
X38526000Y-53001000D02*
G01*
X37674000Y-53001000D01*
X37674000Y-51699000D01*
X38526000Y-51699000D01*
X38526000Y-53001000D01*
X38526000Y-53001000D01*
G37*
G36*
X33926000Y-53001000D02*
G01*
X33074000Y-53001000D01*
X33074000Y-51699000D01*
X33926000Y-51699000D01*
X33926000Y-53001000D01*
X33926000Y-53001000D01*
G37*
G36*
X30926000Y-53001000D02*
G01*
X30074000Y-53001000D01*
X30074000Y-51699000D01*
X30926000Y-51699000D01*
X30926000Y-53001000D01*
X30926000Y-53001000D01*
G37*
G36*
X35501000Y-52851000D02*
G01*
X34499000Y-52851000D01*
X34499000Y-51549000D01*
X35501000Y-51549000D01*
X35501000Y-52851000D01*
X35501000Y-52851000D01*
G37*
G36*
X37101000Y-52851000D02*
G01*
X36099000Y-52851000D01*
X36099000Y-51549000D01*
X37101000Y-51549000D01*
X37101000Y-52851000D01*
X37101000Y-52851000D01*
G37*
G36*
X27001000Y-52701000D02*
G01*
X25999000Y-52701000D01*
X25999000Y-51799000D01*
X27001000Y-51799000D01*
X27001000Y-52701000D01*
X27001000Y-52701000D01*
G37*
G36*
X96151000Y-52351000D02*
G01*
X93449000Y-52351000D01*
X93449000Y-50249000D01*
X96151000Y-50249000D01*
X96151000Y-52351000D01*
X96151000Y-52351000D01*
G37*
G36*
X65576000Y-52001000D02*
G01*
X64724000Y-52001000D01*
X64724000Y-50699000D01*
X65576000Y-50699000D01*
X65576000Y-52001000D01*
X65576000Y-52001000D01*
G37*
G36*
X29001000Y-51751000D02*
G01*
X27999000Y-51751000D01*
X27999000Y-50849000D01*
X29001000Y-50849000D01*
X29001000Y-51751000D01*
X29001000Y-51751000D01*
G37*
G36*
X23986000Y-51326000D02*
G01*
X23284000Y-51326000D01*
X23284000Y-49674000D01*
X23986000Y-49674000D01*
X23986000Y-51326000D01*
X23986000Y-51326000D01*
G37*
G36*
X21446000Y-51326000D02*
G01*
X20744000Y-51326000D01*
X20744000Y-49674000D01*
X21446000Y-49674000D01*
X21446000Y-51326000D01*
X21446000Y-51326000D01*
G37*
G36*
X25256000Y-51326000D02*
G01*
X24554000Y-51326000D01*
X24554000Y-49674000D01*
X25256000Y-49674000D01*
X25256000Y-51326000D01*
X25256000Y-51326000D01*
G37*
G36*
X22716000Y-51326000D02*
G01*
X22014000Y-51326000D01*
X22014000Y-49674000D01*
X22716000Y-49674000D01*
X22716000Y-51326000D01*
X22716000Y-51326000D01*
G37*
G36*
X27001000Y-50801000D02*
G01*
X25999000Y-50801000D01*
X25999000Y-49899000D01*
X27001000Y-49899000D01*
X27001000Y-50801000D01*
X27001000Y-50801000D01*
G37*
G36*
X61938600Y-50569120D02*
G01*
X56086600Y-50569120D01*
X56086600Y-49167120D01*
X61938600Y-49167120D01*
X61938600Y-50569120D01*
X61938600Y-50569120D01*
G37*
G36*
X65576000Y-50101000D02*
G01*
X64724000Y-50101000D01*
X64724000Y-48799000D01*
X65576000Y-48799000D01*
X65576000Y-50101000D01*
X65576000Y-50101000D01*
G37*
G36*
X95203097Y-47714069D02*
G01*
X95306032Y-47724207D01*
X95504146Y-47784305D01*
X95504149Y-47784306D01*
X95600975Y-47836061D01*
X95686729Y-47881897D01*
X95846765Y-48013235D01*
X95978103Y-48173271D01*
X96023939Y-48259025D01*
X96075694Y-48355851D01*
X96075695Y-48355854D01*
X96135793Y-48553968D01*
X96156085Y-48760000D01*
X96135793Y-48966032D01*
X96075695Y-49164146D01*
X96075694Y-49164149D01*
X96023939Y-49260975D01*
X95978103Y-49346729D01*
X95846765Y-49506765D01*
X95686729Y-49638103D01*
X95619570Y-49674000D01*
X95504149Y-49735694D01*
X95504146Y-49735695D01*
X95306032Y-49795793D01*
X95203097Y-49805931D01*
X95151631Y-49811000D01*
X94448369Y-49811000D01*
X94396903Y-49805931D01*
X94293968Y-49795793D01*
X94095854Y-49735695D01*
X94095851Y-49735694D01*
X93980430Y-49674000D01*
X93913271Y-49638103D01*
X93753235Y-49506765D01*
X93621897Y-49346729D01*
X93576061Y-49260975D01*
X93524306Y-49164149D01*
X93524305Y-49164146D01*
X93464207Y-48966032D01*
X93443915Y-48760000D01*
X93464207Y-48553968D01*
X93524305Y-48355854D01*
X93524306Y-48355851D01*
X93576061Y-48259025D01*
X93621897Y-48173271D01*
X93753235Y-48013235D01*
X93913271Y-47881897D01*
X93999025Y-47836061D01*
X94095851Y-47784306D01*
X94095854Y-47784305D01*
X94293968Y-47724207D01*
X94396903Y-47714069D01*
X94448369Y-47709000D01*
X95151631Y-47709000D01*
X95203097Y-47714069D01*
X95203097Y-47714069D01*
G37*
G36*
X88451000Y-48001000D02*
G01*
X87149000Y-48001000D01*
X87149000Y-46999000D01*
X88451000Y-46999000D01*
X88451000Y-48001000D01*
X88451000Y-48001000D01*
G37*
G36*
X90651000Y-48001000D02*
G01*
X89349000Y-48001000D01*
X89349000Y-46999000D01*
X90651000Y-46999000D01*
X90651000Y-48001000D01*
X90651000Y-48001000D01*
G37*
G36*
X70561759Y-47315239D02*
G01*
X69259759Y-47315239D01*
X69259759Y-46313239D01*
X70561759Y-46313239D01*
X70561759Y-47315239D01*
X70561759Y-47315239D01*
G37*
G36*
X72761759Y-47315239D02*
G01*
X71459759Y-47315239D01*
X71459759Y-46313239D01*
X72761759Y-46313239D01*
X72761759Y-47315239D01*
X72761759Y-47315239D01*
G37*
G36*
X68620280Y-47295600D02*
G01*
X67318280Y-47295600D01*
X67318280Y-46293600D01*
X68620280Y-46293600D01*
X68620280Y-47295600D01*
X68620280Y-47295600D01*
G37*
G36*
X66420280Y-47295600D02*
G01*
X65118280Y-47295600D01*
X65118280Y-46293600D01*
X66420280Y-46293600D01*
X66420280Y-47295600D01*
X66420280Y-47295600D01*
G37*
G36*
X95203097Y-45174069D02*
G01*
X95306032Y-45184207D01*
X95504146Y-45244305D01*
X95504149Y-45244306D01*
X95600975Y-45296061D01*
X95686729Y-45341897D01*
X95846765Y-45473235D01*
X95978103Y-45633271D01*
X96023939Y-45719025D01*
X96075694Y-45815851D01*
X96075695Y-45815854D01*
X96135793Y-46013968D01*
X96156085Y-46220000D01*
X96135793Y-46426032D01*
X96075695Y-46624146D01*
X96075694Y-46624149D01*
X96023939Y-46720975D01*
X95978103Y-46806729D01*
X95846765Y-46966765D01*
X95686729Y-47098103D01*
X95600975Y-47143939D01*
X95504149Y-47195694D01*
X95504146Y-47195695D01*
X95306032Y-47255793D01*
X95203097Y-47265931D01*
X95151631Y-47271000D01*
X94448369Y-47271000D01*
X94396903Y-47265931D01*
X94293968Y-47255793D01*
X94095854Y-47195695D01*
X94095851Y-47195694D01*
X93999025Y-47143939D01*
X93913271Y-47098103D01*
X93753235Y-46966765D01*
X93621897Y-46806729D01*
X93576061Y-46720975D01*
X93524306Y-46624149D01*
X93524305Y-46624146D01*
X93464207Y-46426032D01*
X93443915Y-46220000D01*
X93464207Y-46013968D01*
X93524305Y-45815854D01*
X93524306Y-45815851D01*
X93576061Y-45719025D01*
X93621897Y-45633271D01*
X93753235Y-45473235D01*
X93913271Y-45341897D01*
X93999025Y-45296061D01*
X94095851Y-45244306D01*
X94095854Y-45244305D01*
X94293968Y-45184207D01*
X94396903Y-45174069D01*
X94448369Y-45169000D01*
X95151631Y-45169000D01*
X95203097Y-45174069D01*
X95203097Y-45174069D01*
G37*
G36*
X80951000Y-46751000D02*
G01*
X79649000Y-46751000D01*
X79649000Y-45749000D01*
X80951000Y-45749000D01*
X80951000Y-46751000D01*
X80951000Y-46751000D01*
G37*
G36*
X56401000Y-46626000D02*
G01*
X55099000Y-46626000D01*
X55099000Y-45774000D01*
X56401000Y-45774000D01*
X56401000Y-46626000D01*
X56401000Y-46626000D01*
G37*
G36*
X58301000Y-46626000D02*
G01*
X56999000Y-46626000D01*
X56999000Y-45774000D01*
X58301000Y-45774000D01*
X58301000Y-46626000D01*
X58301000Y-46626000D01*
G37*
G36*
X82801000Y-46351000D02*
G01*
X81799000Y-46351000D01*
X81799000Y-45049000D01*
X82801000Y-45049000D01*
X82801000Y-46351000D01*
X82801000Y-46351000D01*
G37*
G36*
X88451000Y-45401000D02*
G01*
X87149000Y-45401000D01*
X87149000Y-44399000D01*
X88451000Y-44399000D01*
X88451000Y-45401000D01*
X88451000Y-45401000D01*
G37*
G36*
X90651000Y-45401000D02*
G01*
X89349000Y-45401000D01*
X89349000Y-44399000D01*
X90651000Y-44399000D01*
X90651000Y-45401000D01*
X90651000Y-45401000D01*
G37*
G36*
X95203097Y-42634069D02*
G01*
X95306032Y-42644207D01*
X95504146Y-42704305D01*
X95504149Y-42704306D01*
X95600975Y-42756061D01*
X95686729Y-42801897D01*
X95846765Y-42933235D01*
X95978103Y-43093271D01*
X96023939Y-43179025D01*
X96075694Y-43275851D01*
X96075695Y-43275854D01*
X96135793Y-43473968D01*
X96156085Y-43680000D01*
X96135793Y-43886032D01*
X96131252Y-43901000D01*
X96075694Y-44084149D01*
X96039961Y-44151000D01*
X95978103Y-44266729D01*
X95846765Y-44426765D01*
X95686729Y-44558103D01*
X95600975Y-44603939D01*
X95504149Y-44655694D01*
X95504146Y-44655695D01*
X95306032Y-44715793D01*
X95203097Y-44725931D01*
X95151631Y-44731000D01*
X94448369Y-44731000D01*
X94396903Y-44725931D01*
X94293968Y-44715793D01*
X94095854Y-44655695D01*
X94095851Y-44655694D01*
X93999025Y-44603939D01*
X93913271Y-44558103D01*
X93753235Y-44426765D01*
X93621897Y-44266729D01*
X93560039Y-44151000D01*
X93524306Y-44084149D01*
X93468748Y-43901000D01*
X93464207Y-43886032D01*
X93443915Y-43680000D01*
X93464207Y-43473968D01*
X93524305Y-43275854D01*
X93524306Y-43275851D01*
X93576061Y-43179025D01*
X93621897Y-43093271D01*
X93753235Y-42933235D01*
X93913271Y-42801897D01*
X93999025Y-42756061D01*
X94095851Y-42704306D01*
X94095854Y-42704305D01*
X94293968Y-42644207D01*
X94396903Y-42634069D01*
X94448369Y-42629000D01*
X95151631Y-42629000D01*
X95203097Y-42634069D01*
X95203097Y-42634069D01*
G37*
G36*
X52901000Y-44251000D02*
G01*
X51899000Y-44251000D01*
X51899000Y-42949000D01*
X52901000Y-42949000D01*
X52901000Y-44251000D01*
X52901000Y-44251000D01*
G37*
G36*
X55801000Y-44251000D02*
G01*
X54799000Y-44251000D01*
X54799000Y-42949000D01*
X55801000Y-42949000D01*
X55801000Y-44251000D01*
X55801000Y-44251000D01*
G37*
G36*
X82801000Y-44151000D02*
G01*
X81799000Y-44151000D01*
X81799000Y-42849000D01*
X82801000Y-42849000D01*
X82801000Y-44151000D01*
X82801000Y-44151000D01*
G37*
G36*
X58614640Y-44101000D02*
G01*
X57762640Y-44101000D01*
X57762640Y-42799000D01*
X58614640Y-42799000D01*
X58614640Y-44101000D01*
X58614640Y-44101000D01*
G37*
G36*
X51326000Y-44101000D02*
G01*
X50474000Y-44101000D01*
X50474000Y-42799000D01*
X51326000Y-42799000D01*
X51326000Y-44101000D01*
X51326000Y-44101000D01*
G37*
G36*
X71751000Y-44001000D02*
G01*
X70149000Y-44001000D01*
X70149000Y-42599000D01*
X71751000Y-42599000D01*
X71751000Y-44001000D01*
X71751000Y-44001000D01*
G37*
G36*
X69051000Y-44001000D02*
G01*
X67449000Y-44001000D01*
X67449000Y-42599000D01*
X69051000Y-42599000D01*
X69051000Y-44001000D01*
X69051000Y-44001000D01*
G37*
G36*
X63651000Y-43901000D02*
G01*
X62749000Y-43901000D01*
X62749000Y-42899000D01*
X63651000Y-42899000D01*
X63651000Y-43901000D01*
X63651000Y-43901000D01*
G37*
G36*
X29751000Y-43551000D02*
G01*
X28449000Y-43551000D01*
X28449000Y-42549000D01*
X29751000Y-42549000D01*
X29751000Y-43551000D01*
X29751000Y-43551000D01*
G37*
G36*
X32841000Y-43511000D02*
G01*
X30739000Y-43511000D01*
X30739000Y-41629000D01*
X32841000Y-41629000D01*
X32841000Y-43511000D01*
X32841000Y-43511000D01*
G37*
G36*
X40461000Y-43511000D02*
G01*
X38359000Y-43511000D01*
X38359000Y-41629000D01*
X40461000Y-41629000D01*
X40461000Y-43511000D01*
X40461000Y-43511000D01*
G37*
G36*
X5979487Y-40948996D02*
G01*
X6216253Y-41047068D01*
X6216255Y-41047069D01*
X6355336Y-41140000D01*
X6429339Y-41189447D01*
X6610553Y-41370661D01*
X6752932Y-41583747D01*
X6851004Y-41820513D01*
X6901000Y-42071861D01*
X6901000Y-42328139D01*
X6851004Y-42579487D01*
X6799302Y-42704306D01*
X6752931Y-42816255D01*
X6610553Y-43029339D01*
X6429339Y-43210553D01*
X6216255Y-43352931D01*
X6216254Y-43352932D01*
X6216253Y-43352932D01*
X5979487Y-43451004D01*
X5728139Y-43501000D01*
X5471861Y-43501000D01*
X5220513Y-43451004D01*
X4983747Y-43352932D01*
X4983746Y-43352932D01*
X4983745Y-43352931D01*
X4770661Y-43210553D01*
X4589447Y-43029339D01*
X4447069Y-42816255D01*
X4400698Y-42704306D01*
X4348996Y-42579487D01*
X4299000Y-42328139D01*
X4299000Y-42071861D01*
X4348996Y-41820513D01*
X4447068Y-41583747D01*
X4589447Y-41370661D01*
X4770661Y-41189447D01*
X4844664Y-41140000D01*
X4983745Y-41047069D01*
X4983747Y-41047068D01*
X5220513Y-40948996D01*
X5471861Y-40899000D01*
X5728139Y-40899000D01*
X5979487Y-40948996D01*
X5979487Y-40948996D01*
G37*
G36*
X80951000Y-43451000D02*
G01*
X79649000Y-43451000D01*
X79649000Y-42449000D01*
X80951000Y-42449000D01*
X80951000Y-43451000D01*
X80951000Y-43451000D01*
G37*
G36*
X85857400Y-42701920D02*
G01*
X84855400Y-42701920D01*
X84855400Y-41799920D01*
X85857400Y-41799920D01*
X85857400Y-42701920D01*
X85857400Y-42701920D01*
G37*
G36*
X58614640Y-42201000D02*
G01*
X57762640Y-42201000D01*
X57762640Y-40899000D01*
X58614640Y-40899000D01*
X58614640Y-42201000D01*
X58614640Y-42201000D01*
G37*
G36*
X51326000Y-42201000D02*
G01*
X50474000Y-42201000D01*
X50474000Y-40899000D01*
X51326000Y-40899000D01*
X51326000Y-42201000D01*
X51326000Y-42201000D01*
G37*
G36*
X95203097Y-40094069D02*
G01*
X95306032Y-40104207D01*
X95504146Y-40164305D01*
X95504149Y-40164306D01*
X95600975Y-40216061D01*
X95686729Y-40261897D01*
X95846765Y-40393235D01*
X95978103Y-40553271D01*
X96023939Y-40639025D01*
X96075694Y-40735851D01*
X96075695Y-40735854D01*
X96135793Y-40933968D01*
X96156085Y-41140000D01*
X96135793Y-41346032D01*
X96075695Y-41544146D01*
X96075694Y-41544149D01*
X96054529Y-41583745D01*
X95978103Y-41726729D01*
X95846765Y-41886765D01*
X95686729Y-42018103D01*
X95600975Y-42063939D01*
X95504149Y-42115694D01*
X95504146Y-42115695D01*
X95306032Y-42175793D01*
X95203097Y-42185931D01*
X95151631Y-42191000D01*
X94448369Y-42191000D01*
X94396903Y-42185931D01*
X94293968Y-42175793D01*
X94095854Y-42115695D01*
X94095851Y-42115694D01*
X93999025Y-42063939D01*
X93913271Y-42018103D01*
X93753235Y-41886765D01*
X93621897Y-41726729D01*
X93545471Y-41583745D01*
X93524306Y-41544149D01*
X93524305Y-41544146D01*
X93464207Y-41346032D01*
X93443915Y-41140000D01*
X93464207Y-40933968D01*
X93524305Y-40735854D01*
X93524306Y-40735851D01*
X93576061Y-40639025D01*
X93621897Y-40553271D01*
X93753235Y-40393235D01*
X93913271Y-40261897D01*
X93999025Y-40216061D01*
X94095851Y-40164306D01*
X94095854Y-40164305D01*
X94293968Y-40104207D01*
X94396903Y-40094069D01*
X94448369Y-40089000D01*
X95151631Y-40089000D01*
X95203097Y-40094069D01*
X95203097Y-40094069D01*
G37*
G36*
X55801000Y-42051000D02*
G01*
X54799000Y-42051000D01*
X54799000Y-40749000D01*
X55801000Y-40749000D01*
X55801000Y-42051000D01*
X55801000Y-42051000D01*
G37*
G36*
X52901000Y-42051000D02*
G01*
X51899000Y-42051000D01*
X51899000Y-40749000D01*
X52901000Y-40749000D01*
X52901000Y-42051000D01*
X52901000Y-42051000D01*
G37*
G36*
X64601000Y-41901000D02*
G01*
X63699000Y-41901000D01*
X63699000Y-40899000D01*
X64601000Y-40899000D01*
X64601000Y-41901000D01*
X64601000Y-41901000D01*
G37*
G36*
X62701000Y-41901000D02*
G01*
X61799000Y-41901000D01*
X61799000Y-40899000D01*
X62701000Y-40899000D01*
X62701000Y-41901000D01*
X62701000Y-41901000D01*
G37*
G36*
X87857400Y-41751920D02*
G01*
X86855400Y-41751920D01*
X86855400Y-40849920D01*
X87857400Y-40849920D01*
X87857400Y-41751920D01*
X87857400Y-41751920D01*
G37*
G36*
X40461000Y-40971000D02*
G01*
X38359000Y-40971000D01*
X38359000Y-39089000D01*
X40461000Y-39089000D01*
X40461000Y-40971000D01*
X40461000Y-40971000D01*
G37*
G36*
X32841000Y-40971000D02*
G01*
X30739000Y-40971000D01*
X30739000Y-39089000D01*
X32841000Y-39089000D01*
X32841000Y-40971000D01*
X32841000Y-40971000D01*
G37*
G36*
X85857400Y-40801920D02*
G01*
X84855400Y-40801920D01*
X84855400Y-39899920D01*
X85857400Y-39899920D01*
X85857400Y-40801920D01*
X85857400Y-40801920D01*
G37*
G36*
X25251000Y-40301000D02*
G01*
X23949000Y-40301000D01*
X23949000Y-39299000D01*
X25251000Y-39299000D01*
X25251000Y-40301000D01*
X25251000Y-40301000D01*
G37*
G36*
X27451000Y-40301000D02*
G01*
X26149000Y-40301000D01*
X26149000Y-39299000D01*
X27451000Y-39299000D01*
X27451000Y-40301000D01*
X27451000Y-40301000D01*
G37*
G36*
X29751000Y-40251000D02*
G01*
X28449000Y-40251000D01*
X28449000Y-39249000D01*
X29751000Y-39249000D01*
X29751000Y-40251000D01*
X29751000Y-40251000D01*
G37*
G36*
X64980880Y-39903480D02*
G01*
X64128880Y-39903480D01*
X64128880Y-38601480D01*
X64980880Y-38601480D01*
X64980880Y-39903480D01*
X64980880Y-39903480D01*
G37*
G36*
X56634440Y-39878080D02*
G01*
X55782440Y-39878080D01*
X55782440Y-38576080D01*
X56634440Y-38576080D01*
X56634440Y-39878080D01*
X56634440Y-39878080D01*
G37*
G36*
X59355520Y-39543320D02*
G01*
X57353520Y-39543320D01*
X57353520Y-37041320D01*
X59355520Y-37041320D01*
X59355520Y-39543320D01*
X59355520Y-39543320D01*
G37*
G36*
X63455520Y-39543320D02*
G01*
X61453520Y-39543320D01*
X61453520Y-37041320D01*
X63455520Y-37041320D01*
X63455520Y-39543320D01*
X63455520Y-39543320D01*
G37*
G36*
X83166920Y-39438720D02*
G01*
X81864920Y-39438720D01*
X81864920Y-38436720D01*
X83166920Y-38436720D01*
X83166920Y-39438720D01*
X83166920Y-39438720D01*
G37*
G36*
X92301000Y-38826000D02*
G01*
X90999000Y-38826000D01*
X90999000Y-37974000D01*
X92301000Y-37974000D01*
X92301000Y-38826000D01*
X92301000Y-38826000D01*
G37*
G36*
X94201000Y-38826000D02*
G01*
X92899000Y-38826000D01*
X92899000Y-37974000D01*
X94201000Y-37974000D01*
X94201000Y-38826000D01*
X94201000Y-38826000D01*
G37*
G36*
X85272440Y-38606920D02*
G01*
X84270440Y-38606920D01*
X84270440Y-37304920D01*
X85272440Y-37304920D01*
X85272440Y-38606920D01*
X85272440Y-38606920D01*
G37*
G36*
X87950800Y-38568680D02*
G01*
X87098800Y-38568680D01*
X87098800Y-37266680D01*
X87950800Y-37266680D01*
X87950800Y-38568680D01*
X87950800Y-38568680D01*
G37*
G36*
X6901000Y-38501000D02*
G01*
X4299000Y-38501000D01*
X4299000Y-35899000D01*
X6901000Y-35899000D01*
X6901000Y-38501000D01*
X6901000Y-38501000D01*
G37*
G36*
X79251000Y-38351000D02*
G01*
X78249000Y-38351000D01*
X78249000Y-37049000D01*
X79251000Y-37049000D01*
X79251000Y-38351000D01*
X79251000Y-38351000D01*
G37*
G36*
X75951000Y-38351000D02*
G01*
X74949000Y-38351000D01*
X74949000Y-37049000D01*
X75951000Y-37049000D01*
X75951000Y-38351000D01*
X75951000Y-38351000D01*
G37*
G36*
X64980880Y-38003480D02*
G01*
X64128880Y-38003480D01*
X64128880Y-36701480D01*
X64980880Y-36701480D01*
X64980880Y-38003480D01*
X64980880Y-38003480D01*
G37*
G36*
X56634440Y-37978080D02*
G01*
X55782440Y-37978080D01*
X55782440Y-36676080D01*
X56634440Y-36676080D01*
X56634440Y-37978080D01*
X56634440Y-37978080D01*
G37*
G36*
X94201000Y-37351000D02*
G01*
X93199000Y-37351000D01*
X93199000Y-36049000D01*
X94201000Y-36049000D01*
X94201000Y-37351000D01*
X94201000Y-37351000D01*
G37*
G36*
X92526000Y-37201000D02*
G01*
X91674000Y-37201000D01*
X91674000Y-35899000D01*
X92526000Y-35899000D01*
X92526000Y-37201000D01*
X92526000Y-37201000D01*
G37*
G36*
X90926000Y-37201000D02*
G01*
X90074000Y-37201000D01*
X90074000Y-35899000D01*
X90926000Y-35899000D01*
X90926000Y-37201000D01*
X90926000Y-37201000D01*
G37*
G36*
X87950800Y-36668680D02*
G01*
X87098800Y-36668680D01*
X87098800Y-35366680D01*
X87950800Y-35366680D01*
X87950800Y-36668680D01*
X87950800Y-36668680D01*
G37*
G36*
X85272440Y-36406920D02*
G01*
X84270440Y-36406920D01*
X84270440Y-35104920D01*
X85272440Y-35104920D01*
X85272440Y-36406920D01*
X85272440Y-36406920D01*
G37*
G36*
X83166920Y-36138720D02*
G01*
X81864920Y-36138720D01*
X81864920Y-35136720D01*
X83166920Y-35136720D01*
X83166920Y-36138720D01*
X83166920Y-36138720D01*
G37*
G36*
X76651000Y-36101000D02*
G01*
X75349000Y-36101000D01*
X75349000Y-35099000D01*
X76651000Y-35099000D01*
X76651000Y-36101000D01*
X76651000Y-36101000D01*
G37*
G36*
X78851000Y-36101000D02*
G01*
X77549000Y-36101000D01*
X77549000Y-35099000D01*
X78851000Y-35099000D01*
X78851000Y-36101000D01*
X78851000Y-36101000D01*
G37*
G36*
X44995960Y-35445640D02*
G01*
X43693960Y-35445640D01*
X43693960Y-34593640D01*
X44995960Y-34593640D01*
X44995960Y-35445640D01*
X44995960Y-35445640D01*
G37*
G36*
X43095960Y-35445640D02*
G01*
X41793960Y-35445640D01*
X41793960Y-34593640D01*
X43095960Y-34593640D01*
X43095960Y-35445640D01*
X43095960Y-35445640D01*
G37*
G36*
X92526000Y-35301000D02*
G01*
X91674000Y-35301000D01*
X91674000Y-33999000D01*
X92526000Y-33999000D01*
X92526000Y-35301000D01*
X92526000Y-35301000D01*
G37*
G36*
X90926000Y-35301000D02*
G01*
X90074000Y-35301000D01*
X90074000Y-33999000D01*
X90926000Y-33999000D01*
X90926000Y-35301000D01*
X90926000Y-35301000D01*
G37*
G36*
X94201000Y-35151000D02*
G01*
X93199000Y-35151000D01*
X93199000Y-33849000D01*
X94201000Y-33849000D01*
X94201000Y-35151000D01*
X94201000Y-35151000D01*
G37*
G36*
X18723480Y-34085280D02*
G01*
X17121480Y-34085280D01*
X17121480Y-32733280D01*
X18723480Y-32733280D01*
X18723480Y-34085280D01*
X18723480Y-34085280D01*
G37*
G36*
X21223480Y-34085280D02*
G01*
X19621480Y-34085280D01*
X19621480Y-32733280D01*
X21223480Y-32733280D01*
X21223480Y-34085280D01*
X21223480Y-34085280D01*
G37*
G36*
X26547720Y-34039960D02*
G01*
X25545720Y-34039960D01*
X25545720Y-32737960D01*
X26547720Y-32737960D01*
X26547720Y-34039960D01*
X26547720Y-34039960D01*
G37*
G36*
X29847720Y-34039960D02*
G01*
X28845720Y-34039960D01*
X28845720Y-32737960D01*
X29847720Y-32737960D01*
X29847720Y-34039960D01*
X29847720Y-34039960D01*
G37*
G36*
X44995960Y-34018160D02*
G01*
X43693960Y-34018160D01*
X43693960Y-33166160D01*
X44995960Y-33166160D01*
X44995960Y-34018160D01*
X44995960Y-34018160D01*
G37*
G36*
X43095960Y-34018160D02*
G01*
X41793960Y-34018160D01*
X41793960Y-33166160D01*
X43095960Y-33166160D01*
X43095960Y-34018160D01*
X43095960Y-34018160D01*
G37*
G36*
X31783000Y-33954400D02*
G01*
X30381000Y-33954400D01*
X30381000Y-32752400D01*
X31783000Y-32752400D01*
X31783000Y-33954400D01*
X31783000Y-33954400D01*
G37*
G36*
X40923000Y-33954400D02*
G01*
X39521000Y-33954400D01*
X39521000Y-32752400D01*
X40923000Y-32752400D01*
X40923000Y-33954400D01*
X40923000Y-33954400D01*
G37*
G36*
X84051000Y-33201000D02*
G01*
X82749000Y-33201000D01*
X82749000Y-32199000D01*
X84051000Y-32199000D01*
X84051000Y-33201000D01*
X84051000Y-33201000D01*
G37*
G36*
X86251000Y-33201000D02*
G01*
X84949000Y-33201000D01*
X84949000Y-32199000D01*
X86251000Y-32199000D01*
X86251000Y-33201000D01*
X86251000Y-33201000D01*
G37*
G36*
X94201000Y-33151000D02*
G01*
X93199000Y-33151000D01*
X93199000Y-31849000D01*
X94201000Y-31849000D01*
X94201000Y-33151000D01*
X94201000Y-33151000D01*
G37*
G36*
X91001000Y-33151000D02*
G01*
X89999000Y-33151000D01*
X89999000Y-31849000D01*
X91001000Y-31849000D01*
X91001000Y-33151000D01*
X91001000Y-33151000D01*
G37*
G36*
X92601000Y-33151000D02*
G01*
X91599000Y-33151000D01*
X91599000Y-31849000D01*
X92601000Y-31849000D01*
X92601000Y-33151000D01*
X92601000Y-33151000D01*
G37*
G36*
X24740520Y-32513880D02*
G01*
X23388520Y-32513880D01*
X23388520Y-30911880D01*
X24740520Y-30911880D01*
X24740520Y-32513880D01*
X24740520Y-32513880D01*
G37*
G36*
X43464200Y-32241000D02*
G01*
X41802200Y-32241000D01*
X41802200Y-29589000D01*
X43464200Y-29589000D01*
X43464200Y-32241000D01*
X43464200Y-32241000D01*
G37*
G36*
X46164200Y-32241000D02*
G01*
X44502200Y-32241000D01*
X44502200Y-31489000D01*
X46164200Y-31489000D01*
X46164200Y-32241000D01*
X46164200Y-32241000D01*
G37*
G36*
X22809040Y-32099440D02*
G01*
X21957040Y-32099440D01*
X21957040Y-30797440D01*
X22809040Y-30797440D01*
X22809040Y-32099440D01*
X22809040Y-32099440D01*
G37*
G36*
X21409360Y-31839680D02*
G01*
X19747360Y-31839680D01*
X19747360Y-29187680D01*
X21409360Y-29187680D01*
X21409360Y-31839680D01*
X21409360Y-31839680D01*
G37*
G36*
X18709360Y-31839680D02*
G01*
X17047360Y-31839680D01*
X17047360Y-31087680D01*
X18709360Y-31087680D01*
X18709360Y-31839680D01*
X18709360Y-31839680D01*
G37*
G36*
X79551000Y-31651000D02*
G01*
X78249000Y-31651000D01*
X78249000Y-30649000D01*
X79551000Y-30649000D01*
X79551000Y-31651000D01*
X79551000Y-31651000D01*
G37*
G36*
X88151000Y-31651000D02*
G01*
X86849000Y-31651000D01*
X86849000Y-30649000D01*
X88151000Y-30649000D01*
X88151000Y-31651000D01*
X88151000Y-31651000D01*
G37*
G36*
X82051000Y-31651000D02*
G01*
X80749000Y-31651000D01*
X80749000Y-30649000D01*
X82051000Y-30649000D01*
X82051000Y-31651000D01*
X82051000Y-31651000D01*
G37*
G36*
X77051000Y-31651000D02*
G01*
X75749000Y-31651000D01*
X75749000Y-30649000D01*
X77051000Y-30649000D01*
X77051000Y-31651000D01*
X77051000Y-31651000D01*
G37*
G36*
X40923000Y-31414400D02*
G01*
X39521000Y-31414400D01*
X39521000Y-30212400D01*
X40923000Y-30212400D01*
X40923000Y-31414400D01*
X40923000Y-31414400D01*
G37*
G36*
X31783000Y-31414400D02*
G01*
X30381000Y-31414400D01*
X30381000Y-30212400D01*
X31783000Y-30212400D01*
X31783000Y-31414400D01*
X31783000Y-31414400D01*
G37*
G36*
X91001000Y-30951000D02*
G01*
X89999000Y-30951000D01*
X89999000Y-29649000D01*
X91001000Y-29649000D01*
X91001000Y-30951000D01*
X91001000Y-30951000D01*
G37*
G36*
X92601000Y-30951000D02*
G01*
X91599000Y-30951000D01*
X91599000Y-29649000D01*
X92601000Y-29649000D01*
X92601000Y-30951000D01*
X92601000Y-30951000D01*
G37*
G36*
X94201000Y-30951000D02*
G01*
X93199000Y-30951000D01*
X93199000Y-29649000D01*
X94201000Y-29649000D01*
X94201000Y-30951000D01*
X94201000Y-30951000D01*
G37*
G36*
X5979487Y-28098996D02*
G01*
X6216253Y-28197068D01*
X6216255Y-28197069D01*
X6371799Y-28301000D01*
X6429339Y-28339447D01*
X6610553Y-28520661D01*
X6752932Y-28733747D01*
X6851004Y-28970513D01*
X6901000Y-29221861D01*
X6901000Y-29478139D01*
X6851004Y-29729487D01*
X6763939Y-29939680D01*
X6752931Y-29966255D01*
X6610553Y-30179339D01*
X6429339Y-30360553D01*
X6216255Y-30502931D01*
X6216254Y-30502932D01*
X6216253Y-30502932D01*
X5979487Y-30601004D01*
X5728139Y-30651000D01*
X5471861Y-30651000D01*
X5220513Y-30601004D01*
X4983747Y-30502932D01*
X4983746Y-30502932D01*
X4983745Y-30502931D01*
X4770661Y-30360553D01*
X4589447Y-30179339D01*
X4447069Y-29966255D01*
X4436061Y-29939680D01*
X4348996Y-29729487D01*
X4299000Y-29478139D01*
X4299000Y-29221861D01*
X4348996Y-28970513D01*
X4447068Y-28733747D01*
X4589447Y-28520661D01*
X4770661Y-28339447D01*
X4828201Y-28301000D01*
X4983745Y-28197069D01*
X4983747Y-28197068D01*
X5220513Y-28098996D01*
X5471861Y-28049000D01*
X5728139Y-28049000D01*
X5979487Y-28098996D01*
X5979487Y-28098996D01*
G37*
G36*
X46164200Y-30341000D02*
G01*
X44502200Y-30341000D01*
X44502200Y-29589000D01*
X46164200Y-29589000D01*
X46164200Y-30341000D01*
X46164200Y-30341000D01*
G37*
G36*
X85801000Y-30301000D02*
G01*
X84899000Y-30301000D01*
X84899000Y-29299000D01*
X85801000Y-29299000D01*
X85801000Y-30301000D01*
X85801000Y-30301000D01*
G37*
G36*
X83901000Y-30301000D02*
G01*
X82999000Y-30301000D01*
X82999000Y-29299000D01*
X83901000Y-29299000D01*
X83901000Y-30301000D01*
X83901000Y-30301000D01*
G37*
G36*
X22809040Y-30199440D02*
G01*
X21957040Y-30199440D01*
X21957040Y-28897440D01*
X22809040Y-28897440D01*
X22809040Y-30199440D01*
X22809040Y-30199440D01*
G37*
G36*
X24740520Y-30013880D02*
G01*
X23388520Y-30013880D01*
X23388520Y-28411880D01*
X24740520Y-28411880D01*
X24740520Y-30013880D01*
X24740520Y-30013880D01*
G37*
G36*
X18709360Y-29939680D02*
G01*
X17047360Y-29939680D01*
X17047360Y-29187680D01*
X18709360Y-29187680D01*
X18709360Y-29939680D01*
X18709360Y-29939680D01*
G37*
G36*
X98203000Y-29056000D02*
G01*
X92601000Y-29056000D01*
X92601000Y-26804000D01*
X98203000Y-26804000D01*
X98203000Y-29056000D01*
X98203000Y-29056000D01*
G37*
G36*
X57465000Y-29024200D02*
G01*
X56463000Y-29024200D01*
X56463000Y-28122200D01*
X57465000Y-28122200D01*
X57465000Y-29024200D01*
X57465000Y-29024200D01*
G37*
G36*
X26603600Y-28954880D02*
G01*
X25601600Y-28954880D01*
X25601600Y-27652880D01*
X26603600Y-27652880D01*
X26603600Y-28954880D01*
X26603600Y-28954880D01*
G37*
G36*
X29903600Y-28954880D02*
G01*
X28901600Y-28954880D01*
X28901600Y-27652880D01*
X29903600Y-27652880D01*
X29903600Y-28954880D01*
X29903600Y-28954880D01*
G37*
G36*
X31783000Y-28874400D02*
G01*
X30381000Y-28874400D01*
X30381000Y-27672400D01*
X31783000Y-27672400D01*
X31783000Y-28874400D01*
X31783000Y-28874400D01*
G37*
G36*
X40923000Y-28874400D02*
G01*
X39521000Y-28874400D01*
X39521000Y-27672400D01*
X40923000Y-27672400D01*
X40923000Y-28874400D01*
X40923000Y-28874400D01*
G37*
G36*
X88151000Y-28351000D02*
G01*
X86849000Y-28351000D01*
X86849000Y-27349000D01*
X88151000Y-27349000D01*
X88151000Y-28351000D01*
X88151000Y-28351000D01*
G37*
G36*
X77051000Y-28351000D02*
G01*
X75749000Y-28351000D01*
X75749000Y-27349000D01*
X77051000Y-27349000D01*
X77051000Y-28351000D01*
X77051000Y-28351000D01*
G37*
G36*
X82051000Y-28351000D02*
G01*
X80749000Y-28351000D01*
X80749000Y-27349000D01*
X82051000Y-27349000D01*
X82051000Y-28351000D01*
X82051000Y-28351000D01*
G37*
G36*
X79551000Y-28351000D02*
G01*
X78249000Y-28351000D01*
X78249000Y-27349000D01*
X79551000Y-27349000D01*
X79551000Y-28351000D01*
X79551000Y-28351000D01*
G37*
G36*
X84851000Y-28301000D02*
G01*
X83949000Y-28301000D01*
X83949000Y-27299000D01*
X84851000Y-27299000D01*
X84851000Y-28301000D01*
X84851000Y-28301000D01*
G37*
G36*
X59465000Y-28074200D02*
G01*
X58463000Y-28074200D01*
X58463000Y-27172200D01*
X59465000Y-27172200D01*
X59465000Y-28074200D01*
X59465000Y-28074200D01*
G37*
G36*
X57465000Y-27124200D02*
G01*
X56463000Y-27124200D01*
X56463000Y-26222200D01*
X57465000Y-26222200D01*
X57465000Y-27124200D01*
X57465000Y-27124200D01*
G37*
G36*
X41484640Y-26174640D02*
G01*
X40182640Y-26174640D01*
X40182640Y-25322640D01*
X41484640Y-25322640D01*
X41484640Y-26174640D01*
X41484640Y-26174640D01*
G37*
G36*
X39584640Y-26174640D02*
G01*
X38282640Y-26174640D01*
X38282640Y-25322640D01*
X39584640Y-25322640D01*
X39584640Y-26174640D01*
X39584640Y-26174640D01*
G37*
G36*
X6901000Y-25651000D02*
G01*
X4299000Y-25651000D01*
X4299000Y-23049000D01*
X6901000Y-23049000D01*
X6901000Y-25651000D01*
X6901000Y-25651000D01*
G37*
G36*
X57486080Y-25336160D02*
G01*
X56484080Y-25336160D01*
X56484080Y-24434160D01*
X57486080Y-24434160D01*
X57486080Y-25336160D01*
X57486080Y-25336160D01*
G37*
G36*
X89951000Y-25301000D02*
G01*
X89049000Y-25301000D01*
X89049000Y-24299000D01*
X89951000Y-24299000D01*
X89951000Y-25301000D01*
X89951000Y-25301000D01*
G37*
G36*
X88051000Y-25301000D02*
G01*
X87149000Y-25301000D01*
X87149000Y-24299000D01*
X88051000Y-24299000D01*
X88051000Y-25301000D01*
X88051000Y-25301000D01*
G37*
G36*
X98203000Y-25196000D02*
G01*
X92601000Y-25196000D01*
X92601000Y-22944000D01*
X98203000Y-22944000D01*
X98203000Y-25196000D01*
X98203000Y-25196000D01*
G37*
G36*
X41220480Y-24742080D02*
G01*
X39918480Y-24742080D01*
X39918480Y-23890080D01*
X41220480Y-23890080D01*
X41220480Y-24742080D01*
X41220480Y-24742080D01*
G37*
G36*
X39320480Y-24742080D02*
G01*
X38018480Y-24742080D01*
X38018480Y-23890080D01*
X39320480Y-23890080D01*
X39320480Y-24742080D01*
X39320480Y-24742080D01*
G37*
G36*
X29801000Y-24626000D02*
G01*
X28499000Y-24626000D01*
X28499000Y-23774000D01*
X29801000Y-23774000D01*
X29801000Y-24626000D01*
X29801000Y-24626000D01*
G37*
G36*
X31701000Y-24626000D02*
G01*
X30399000Y-24626000D01*
X30399000Y-23774000D01*
X31701000Y-23774000D01*
X31701000Y-24626000D01*
X31701000Y-24626000D01*
G37*
G36*
X59486080Y-24386160D02*
G01*
X58484080Y-24386160D01*
X58484080Y-23484160D01*
X59486080Y-23484160D01*
X59486080Y-24386160D01*
X59486080Y-24386160D01*
G37*
G36*
X45312560Y-23869000D02*
G01*
X44010560Y-23869000D01*
X44010560Y-22867000D01*
X45312560Y-22867000D01*
X45312560Y-23869000D01*
X45312560Y-23869000D01*
G37*
G36*
X49503000Y-23869000D02*
G01*
X48201000Y-23869000D01*
X48201000Y-22867000D01*
X49503000Y-22867000D01*
X49503000Y-23869000D01*
X49503000Y-23869000D01*
G37*
G36*
X43112560Y-23869000D02*
G01*
X41810560Y-23869000D01*
X41810560Y-22867000D01*
X43112560Y-22867000D01*
X43112560Y-23869000D01*
X43112560Y-23869000D01*
G37*
G36*
X51387880Y-23869000D02*
G01*
X50085880Y-23869000D01*
X50085880Y-22867000D01*
X51387880Y-22867000D01*
X51387880Y-23869000D01*
X51387880Y-23869000D01*
G37*
G36*
X53587880Y-23869000D02*
G01*
X52285880Y-23869000D01*
X52285880Y-22867000D01*
X53587880Y-22867000D01*
X53587880Y-23869000D01*
X53587880Y-23869000D01*
G37*
G36*
X47303000Y-23869000D02*
G01*
X46001000Y-23869000D01*
X46001000Y-22867000D01*
X47303000Y-22867000D01*
X47303000Y-23869000D01*
X47303000Y-23869000D01*
G37*
G36*
X25655200Y-23633440D02*
G01*
X24353200Y-23633440D01*
X24353200Y-22631440D01*
X25655200Y-22631440D01*
X25655200Y-23633440D01*
X25655200Y-23633440D01*
G37*
G36*
X27855200Y-23633440D02*
G01*
X26553200Y-23633440D01*
X26553200Y-22631440D01*
X27855200Y-22631440D01*
X27855200Y-23633440D01*
X27855200Y-23633440D01*
G37*
G36*
X57486080Y-23436160D02*
G01*
X56484080Y-23436160D01*
X56484080Y-22534160D01*
X57486080Y-22534160D01*
X57486080Y-23436160D01*
X57486080Y-23436160D01*
G37*
G36*
X89001000Y-23301000D02*
G01*
X88099000Y-23301000D01*
X88099000Y-22299000D01*
X89001000Y-22299000D01*
X89001000Y-23301000D01*
X89001000Y-23301000D01*
G37*
G36*
X30506000Y-22376000D02*
G01*
X28499000Y-22376000D01*
X28499000Y-21634000D01*
X30506000Y-21634000D01*
X30506000Y-22376000D01*
X30506000Y-22376000D01*
G37*
G36*
X41201000Y-22376000D02*
G01*
X39194000Y-22376000D01*
X39194000Y-21634000D01*
X41201000Y-21634000D01*
X41201000Y-22376000D01*
X41201000Y-22376000D01*
G37*
G36*
X53526600Y-22216440D02*
G01*
X52524600Y-22216440D01*
X52524600Y-20914440D01*
X53526600Y-20914440D01*
X53526600Y-22216440D01*
X53526600Y-22216440D01*
G37*
G36*
X42817960Y-22209000D02*
G01*
X41815960Y-22209000D01*
X41815960Y-20907000D01*
X42817960Y-20907000D01*
X42817960Y-22209000D01*
X42817960Y-22209000D01*
G37*
G36*
X26412160Y-22064040D02*
G01*
X25410160Y-22064040D01*
X25410160Y-20762040D01*
X26412160Y-20762040D01*
X26412160Y-22064040D01*
X26412160Y-22064040D01*
G37*
G36*
X47010160Y-22015640D02*
G01*
X46158160Y-22015640D01*
X46158160Y-20713640D01*
X47010160Y-20713640D01*
X47010160Y-22015640D01*
X47010160Y-22015640D01*
G37*
G36*
X27871320Y-21903880D02*
G01*
X27019320Y-21903880D01*
X27019320Y-20601880D01*
X27871320Y-20601880D01*
X27871320Y-21903880D01*
X27871320Y-21903880D01*
G37*
G36*
X95743000Y-18524001D02*
G01*
X95745402Y-18548387D01*
X95752515Y-18571836D01*
X95764066Y-18593447D01*
X95779611Y-18612389D01*
X95798553Y-18627934D01*
X95820164Y-18639485D01*
X95843613Y-18646598D01*
X95867999Y-18649000D01*
X96178000Y-18649000D01*
X96178000Y-21151000D01*
X95867999Y-21151000D01*
X95843613Y-21153402D01*
X95820164Y-21160515D01*
X95798553Y-21172066D01*
X95779611Y-21187611D01*
X95764066Y-21206553D01*
X95752515Y-21228164D01*
X95745402Y-21251613D01*
X95743000Y-21275999D01*
X95743000Y-21901000D01*
X94861000Y-21901000D01*
X94861000Y-21275999D01*
X94858598Y-21251613D01*
X94851485Y-21228164D01*
X94839934Y-21206553D01*
X94824389Y-21187611D01*
X94805447Y-21172066D01*
X94783836Y-21160515D01*
X94760387Y-21153402D01*
X94736001Y-21151000D01*
X94426000Y-21151000D01*
X94426000Y-18649000D01*
X94736001Y-18649000D01*
X94760387Y-18646598D01*
X94783836Y-18639485D01*
X94805447Y-18627934D01*
X94824389Y-18612389D01*
X94839934Y-18593447D01*
X94851485Y-18571836D01*
X94858598Y-18548387D01*
X94861000Y-18524001D01*
X94861000Y-17899000D01*
X95743000Y-17899000D01*
X95743000Y-18524001D01*
X95743000Y-18524001D01*
G37*
G36*
X50281680Y-21817520D02*
G01*
X49429680Y-21817520D01*
X49429680Y-20515520D01*
X50281680Y-20515520D01*
X50281680Y-21817520D01*
X50281680Y-21817520D01*
G37*
G36*
X84047000Y-21583000D02*
G01*
X82745000Y-21583000D01*
X82745000Y-20581000D01*
X84047000Y-20581000D01*
X84047000Y-21583000D01*
X84047000Y-21583000D01*
G37*
G36*
X68807000Y-21583000D02*
G01*
X67505000Y-21583000D01*
X67505000Y-20581000D01*
X68807000Y-20581000D01*
X68807000Y-21583000D01*
X68807000Y-21583000D01*
G37*
G36*
X66607000Y-21583000D02*
G01*
X65305000Y-21583000D01*
X65305000Y-20581000D01*
X66607000Y-20581000D01*
X66607000Y-21583000D01*
X66607000Y-21583000D01*
G37*
G36*
X81847000Y-21583000D02*
G01*
X80545000Y-21583000D01*
X80545000Y-20581000D01*
X81847000Y-20581000D01*
X81847000Y-21583000D01*
X81847000Y-21583000D01*
G37*
G36*
X76427000Y-21583000D02*
G01*
X75125000Y-21583000D01*
X75125000Y-20581000D01*
X76427000Y-20581000D01*
X76427000Y-21583000D01*
X76427000Y-21583000D01*
G37*
G36*
X74227000Y-21583000D02*
G01*
X72925000Y-21583000D01*
X72925000Y-20581000D01*
X74227000Y-20581000D01*
X74227000Y-21583000D01*
X74227000Y-21583000D01*
G37*
G36*
X89272320Y-21560600D02*
G01*
X87870320Y-21560600D01*
X87870320Y-19958600D01*
X89272320Y-19958600D01*
X89272320Y-21560600D01*
X89272320Y-21560600D01*
G37*
G36*
X91334800Y-21560600D02*
G01*
X89932800Y-21560600D01*
X89932800Y-19958600D01*
X91334800Y-19958600D01*
X91334800Y-21560600D01*
X91334800Y-21560600D01*
G37*
G36*
X93926205Y-18652632D02*
G01*
X93973518Y-18666985D01*
X93973521Y-18666986D01*
X94017124Y-18690292D01*
X94055343Y-18721657D01*
X94086708Y-18759876D01*
X94110014Y-18803479D01*
X94110015Y-18803482D01*
X94124368Y-18850795D01*
X94129214Y-18900000D01*
X94124368Y-18949205D01*
X94110015Y-18996518D01*
X94110014Y-18996521D01*
X94089100Y-19035647D01*
X94086708Y-19040123D01*
X94075051Y-19054327D01*
X94061612Y-19070703D01*
X94047999Y-19091077D01*
X94038622Y-19113716D01*
X94033842Y-19137750D01*
X94033842Y-19162254D01*
X94038623Y-19186287D01*
X94048001Y-19208926D01*
X94061612Y-19229297D01*
X94075051Y-19245673D01*
X94086708Y-19259877D01*
X94086709Y-19259879D01*
X94110014Y-19303479D01*
X94110015Y-19303482D01*
X94124368Y-19350795D01*
X94129214Y-19400000D01*
X94124368Y-19449205D01*
X94120774Y-19461052D01*
X94110014Y-19496521D01*
X94089100Y-19535647D01*
X94086708Y-19540123D01*
X94075051Y-19554327D01*
X94061612Y-19570703D01*
X94047999Y-19591077D01*
X94038622Y-19613716D01*
X94033842Y-19637750D01*
X94033842Y-19662254D01*
X94038623Y-19686287D01*
X94048001Y-19708926D01*
X94061612Y-19729297D01*
X94065257Y-19733739D01*
X94086708Y-19759877D01*
X94086709Y-19759879D01*
X94110014Y-19803479D01*
X94110015Y-19803482D01*
X94124368Y-19850795D01*
X94129214Y-19900000D01*
X94124368Y-19949205D01*
X94110015Y-19996518D01*
X94110014Y-19996521D01*
X94099367Y-20016440D01*
X94086708Y-20040123D01*
X94075051Y-20054327D01*
X94061612Y-20070703D01*
X94047999Y-20091077D01*
X94038622Y-20113716D01*
X94033842Y-20137750D01*
X94033842Y-20162254D01*
X94038623Y-20186287D01*
X94048001Y-20208926D01*
X94061612Y-20229297D01*
X94075051Y-20245673D01*
X94086708Y-20259877D01*
X94086709Y-20259879D01*
X94110014Y-20303479D01*
X94110015Y-20303482D01*
X94124368Y-20350795D01*
X94129214Y-20400000D01*
X94124368Y-20449205D01*
X94110015Y-20496518D01*
X94110014Y-20496521D01*
X94089100Y-20535647D01*
X94086708Y-20540123D01*
X94075051Y-20554327D01*
X94061612Y-20570703D01*
X94047999Y-20591077D01*
X94038622Y-20613716D01*
X94033842Y-20637750D01*
X94033842Y-20662254D01*
X94038623Y-20686287D01*
X94048001Y-20708926D01*
X94061612Y-20729297D01*
X94075051Y-20745673D01*
X94086708Y-20759877D01*
X94086709Y-20759879D01*
X94110014Y-20803479D01*
X94110015Y-20803482D01*
X94124368Y-20850795D01*
X94129214Y-20900000D01*
X94124368Y-20949205D01*
X94120774Y-20961052D01*
X94110014Y-20996521D01*
X94086708Y-21040124D01*
X94055343Y-21078343D01*
X94017124Y-21109708D01*
X93973521Y-21133014D01*
X93973518Y-21133015D01*
X93926205Y-21147368D01*
X93889327Y-21151000D01*
X93376000Y-21151000D01*
X93376000Y-20918468D01*
X93375398Y-20906216D01*
X93374786Y-20900000D01*
X93375398Y-20893784D01*
X93376000Y-20881532D01*
X93376000Y-20418468D01*
X93375398Y-20406216D01*
X93374786Y-20400000D01*
X93375398Y-20393784D01*
X93376000Y-20381532D01*
X93376000Y-19918468D01*
X93375398Y-19906216D01*
X93374786Y-19900000D01*
X93375398Y-19893784D01*
X93376000Y-19881532D01*
X93376000Y-19418468D01*
X93375398Y-19406216D01*
X93374786Y-19400000D01*
X93375398Y-19393784D01*
X93376000Y-19381532D01*
X93376000Y-18918468D01*
X93375398Y-18906216D01*
X93374786Y-18900000D01*
X93375398Y-18893784D01*
X93376000Y-18881532D01*
X93376000Y-18649000D01*
X93889327Y-18649000D01*
X93926205Y-18652632D01*
X93926205Y-18652632D01*
G37*
G36*
X97228000Y-18881532D02*
G01*
X97228602Y-18893784D01*
X97229214Y-18900000D01*
X97228602Y-18906216D01*
X97228000Y-18918468D01*
X97228000Y-19381532D01*
X97228602Y-19393784D01*
X97229214Y-19400000D01*
X97228602Y-19406216D01*
X97228000Y-19418468D01*
X97228000Y-19881532D01*
X97228602Y-19893784D01*
X97229214Y-19900000D01*
X97228602Y-19906216D01*
X97228000Y-19918468D01*
X97228000Y-20381532D01*
X97228602Y-20393784D01*
X97229214Y-20400000D01*
X97228602Y-20406216D01*
X97228000Y-20418468D01*
X97228000Y-20881532D01*
X97228602Y-20893784D01*
X97229214Y-20900000D01*
X97228602Y-20906216D01*
X97228000Y-20918468D01*
X97228000Y-21151000D01*
X96714673Y-21151000D01*
X96677795Y-21147368D01*
X96630482Y-21133015D01*
X96630479Y-21133014D01*
X96586876Y-21109708D01*
X96548657Y-21078343D01*
X96517292Y-21040124D01*
X96493986Y-20996521D01*
X96483226Y-20961052D01*
X96479632Y-20949205D01*
X96474786Y-20900000D01*
X96479632Y-20850795D01*
X96493985Y-20803482D01*
X96493986Y-20803479D01*
X96517291Y-20759879D01*
X96517292Y-20759877D01*
X96528949Y-20745673D01*
X96542388Y-20729297D01*
X96556001Y-20708923D01*
X96565378Y-20686284D01*
X96570158Y-20662250D01*
X96570158Y-20637746D01*
X96565377Y-20613713D01*
X96555999Y-20591074D01*
X96542388Y-20570703D01*
X96528949Y-20554327D01*
X96517292Y-20540123D01*
X96514900Y-20535647D01*
X96493986Y-20496521D01*
X96493985Y-20496518D01*
X96479632Y-20449205D01*
X96474786Y-20400000D01*
X96479632Y-20350795D01*
X96493985Y-20303482D01*
X96493986Y-20303479D01*
X96517291Y-20259879D01*
X96517292Y-20259877D01*
X96528949Y-20245673D01*
X96542388Y-20229297D01*
X96556001Y-20208923D01*
X96565378Y-20186284D01*
X96570158Y-20162250D01*
X96570158Y-20137746D01*
X96565377Y-20113713D01*
X96555999Y-20091074D01*
X96542388Y-20070703D01*
X96528949Y-20054327D01*
X96517292Y-20040123D01*
X96504633Y-20016440D01*
X96493986Y-19996521D01*
X96493985Y-19996518D01*
X96479632Y-19949205D01*
X96474786Y-19900000D01*
X96479632Y-19850795D01*
X96493985Y-19803482D01*
X96493986Y-19803479D01*
X96517291Y-19759879D01*
X96517292Y-19759877D01*
X96538743Y-19733739D01*
X96542388Y-19729297D01*
X96556001Y-19708923D01*
X96565378Y-19686284D01*
X96570158Y-19662250D01*
X96570158Y-19637746D01*
X96565377Y-19613713D01*
X96555999Y-19591074D01*
X96542388Y-19570703D01*
X96528949Y-19554327D01*
X96517292Y-19540123D01*
X96514900Y-19535647D01*
X96493986Y-19496521D01*
X96483226Y-19461052D01*
X96479632Y-19449205D01*
X96474786Y-19400000D01*
X96479632Y-19350795D01*
X96493985Y-19303482D01*
X96493986Y-19303479D01*
X96517291Y-19259879D01*
X96517292Y-19259877D01*
X96528949Y-19245673D01*
X96542388Y-19229297D01*
X96556001Y-19208923D01*
X96565378Y-19186284D01*
X96570158Y-19162250D01*
X96570158Y-19137746D01*
X96565377Y-19113713D01*
X96555999Y-19091074D01*
X96542388Y-19070703D01*
X96528949Y-19054327D01*
X96517292Y-19040123D01*
X96514900Y-19035647D01*
X96493986Y-18996521D01*
X96493985Y-18996518D01*
X96479632Y-18949205D01*
X96474786Y-18900000D01*
X96479632Y-18850795D01*
X96493985Y-18803482D01*
X96493986Y-18803479D01*
X96517292Y-18759876D01*
X96548657Y-18721657D01*
X96586876Y-18690292D01*
X96630479Y-18666986D01*
X96630482Y-18666985D01*
X96677795Y-18652632D01*
X96714673Y-18649000D01*
X97228000Y-18649000D01*
X97228000Y-18881532D01*
X97228000Y-18881532D01*
G37*
G36*
X41201000Y-21106000D02*
G01*
X39194000Y-21106000D01*
X39194000Y-20364000D01*
X41201000Y-20364000D01*
X41201000Y-21106000D01*
X41201000Y-21106000D01*
G37*
G36*
X30506000Y-21106000D02*
G01*
X28499000Y-21106000D01*
X28499000Y-20364000D01*
X30506000Y-20364000D01*
X30506000Y-21106000D01*
X30506000Y-21106000D01*
G37*
G36*
X47010160Y-20115640D02*
G01*
X46158160Y-20115640D01*
X46158160Y-18813640D01*
X47010160Y-18813640D01*
X47010160Y-20115640D01*
X47010160Y-20115640D01*
G37*
G36*
X21888760Y-20101520D02*
G01*
X20886760Y-20101520D01*
X20886760Y-18299520D01*
X21888760Y-18299520D01*
X21888760Y-20101520D01*
X21888760Y-20101520D01*
G37*
G36*
X24788760Y-20101520D02*
G01*
X23786760Y-20101520D01*
X23786760Y-18299520D01*
X24788760Y-18299520D01*
X24788760Y-20101520D01*
X24788760Y-20101520D01*
G37*
G36*
X20313280Y-20101520D02*
G01*
X19311280Y-20101520D01*
X19311280Y-18299520D01*
X20313280Y-18299520D01*
X20313280Y-20101520D01*
X20313280Y-20101520D01*
G37*
G36*
X17413280Y-20101520D02*
G01*
X16411280Y-20101520D01*
X16411280Y-18299520D01*
X17413280Y-18299520D01*
X17413280Y-20101520D01*
X17413280Y-20101520D01*
G37*
G36*
X15837800Y-20096440D02*
G01*
X14835800Y-20096440D01*
X14835800Y-18294440D01*
X15837800Y-18294440D01*
X15837800Y-20096440D01*
X15837800Y-20096440D01*
G37*
G36*
X12937800Y-20096440D02*
G01*
X11935800Y-20096440D01*
X11935800Y-18294440D01*
X12937800Y-18294440D01*
X12937800Y-20096440D01*
X12937800Y-20096440D01*
G37*
G36*
X76427000Y-20059000D02*
G01*
X75125000Y-20059000D01*
X75125000Y-19057000D01*
X76427000Y-19057000D01*
X76427000Y-20059000D01*
X76427000Y-20059000D01*
G37*
G36*
X74227000Y-20059000D02*
G01*
X72925000Y-20059000D01*
X72925000Y-19057000D01*
X74227000Y-19057000D01*
X74227000Y-20059000D01*
X74227000Y-20059000D01*
G37*
G36*
X68807000Y-20059000D02*
G01*
X67505000Y-20059000D01*
X67505000Y-19057000D01*
X68807000Y-19057000D01*
X68807000Y-20059000D01*
X68807000Y-20059000D01*
G37*
G36*
X66607000Y-20059000D02*
G01*
X65305000Y-20059000D01*
X65305000Y-19057000D01*
X66607000Y-19057000D01*
X66607000Y-20059000D01*
X66607000Y-20059000D01*
G37*
G36*
X53526600Y-20016440D02*
G01*
X52524600Y-20016440D01*
X52524600Y-18714440D01*
X53526600Y-18714440D01*
X53526600Y-20016440D01*
X53526600Y-20016440D01*
G37*
G36*
X42817960Y-20009000D02*
G01*
X41815960Y-20009000D01*
X41815960Y-18707000D01*
X42817960Y-18707000D01*
X42817960Y-20009000D01*
X42817960Y-20009000D01*
G37*
G36*
X27871320Y-20003880D02*
G01*
X27019320Y-20003880D01*
X27019320Y-18701880D01*
X27871320Y-18701880D01*
X27871320Y-20003880D01*
X27871320Y-20003880D01*
G37*
G36*
X84051000Y-20001000D02*
G01*
X82749000Y-20001000D01*
X82749000Y-18999000D01*
X84051000Y-18999000D01*
X84051000Y-20001000D01*
X84051000Y-20001000D01*
G37*
G36*
X81851000Y-20001000D02*
G01*
X80549000Y-20001000D01*
X80549000Y-18999000D01*
X81851000Y-18999000D01*
X81851000Y-20001000D01*
X81851000Y-20001000D01*
G37*
G36*
X50281680Y-19917520D02*
G01*
X49429680Y-19917520D01*
X49429680Y-18615520D01*
X50281680Y-18615520D01*
X50281680Y-19917520D01*
X50281680Y-19917520D01*
G37*
G36*
X26412160Y-19864040D02*
G01*
X25410160Y-19864040D01*
X25410160Y-18562040D01*
X26412160Y-18562040D01*
X26412160Y-19864040D01*
X26412160Y-19864040D01*
G37*
G36*
X41201000Y-19836000D02*
G01*
X39194000Y-19836000D01*
X39194000Y-19094000D01*
X41201000Y-19094000D01*
X41201000Y-19836000D01*
X41201000Y-19836000D01*
G37*
G36*
X30506000Y-19836000D02*
G01*
X28499000Y-19836000D01*
X28499000Y-19094000D01*
X30506000Y-19094000D01*
X30506000Y-19836000D01*
X30506000Y-19836000D01*
G37*
G36*
X89272320Y-18860600D02*
G01*
X87870320Y-18860600D01*
X87870320Y-17258600D01*
X89272320Y-17258600D01*
X89272320Y-18860600D01*
X89272320Y-18860600D01*
G37*
G36*
X91334800Y-18860600D02*
G01*
X89932800Y-18860600D01*
X89932800Y-17258600D01*
X91334800Y-17258600D01*
X91334800Y-18860600D01*
X91334800Y-18860600D01*
G37*
G36*
X41201000Y-18566000D02*
G01*
X39194000Y-18566000D01*
X39194000Y-17824000D01*
X41201000Y-17824000D01*
X41201000Y-18566000D01*
X41201000Y-18566000D01*
G37*
G36*
X30506000Y-18566000D02*
G01*
X28499000Y-18566000D01*
X28499000Y-17824000D01*
X30506000Y-17824000D01*
X30506000Y-18566000D01*
X30506000Y-18566000D01*
G37*
G36*
X79154001Y-18425000D02*
G01*
X77552001Y-18425000D01*
X77552001Y-16323000D01*
X79154001Y-16323000D01*
X79154001Y-18425000D01*
X79154001Y-18425000D01*
G37*
G36*
X76854001Y-18425000D02*
G01*
X75252001Y-18425000D01*
X75252001Y-16323000D01*
X76854001Y-16323000D01*
X76854001Y-18425000D01*
X76854001Y-18425000D01*
G37*
G36*
X69381000Y-18425000D02*
G01*
X67779000Y-18425000D01*
X67779000Y-16323000D01*
X69381000Y-16323000D01*
X69381000Y-18425000D01*
X69381000Y-18425000D01*
G37*
G36*
X71681000Y-18425000D02*
G01*
X70079000Y-18425000D01*
X70079000Y-16323000D01*
X71681000Y-16323000D01*
X71681000Y-18425000D01*
X71681000Y-18425000D01*
G37*
G36*
X67081000Y-18425000D02*
G01*
X65479000Y-18425000D01*
X65479000Y-16323000D01*
X67081000Y-16323000D01*
X67081000Y-18425000D01*
X67081000Y-18425000D01*
G37*
G36*
X82067000Y-18425000D02*
G01*
X80465000Y-18425000D01*
X80465000Y-16323000D01*
X82067000Y-16323000D01*
X82067000Y-18425000D01*
X82067000Y-18425000D01*
G37*
G36*
X74554001Y-18425000D02*
G01*
X72952001Y-18425000D01*
X72952001Y-16323000D01*
X74554001Y-16323000D01*
X74554001Y-18425000D01*
X74554001Y-18425000D01*
G37*
G36*
X86667000Y-18425000D02*
G01*
X85065000Y-18425000D01*
X85065000Y-16323000D01*
X86667000Y-16323000D01*
X86667000Y-18425000D01*
X86667000Y-18425000D01*
G37*
G36*
X84367000Y-18425000D02*
G01*
X82765000Y-18425000D01*
X82765000Y-16323000D01*
X84367000Y-16323000D01*
X84367000Y-18425000D01*
X84367000Y-18425000D01*
G37*
G36*
X49503000Y-18027000D02*
G01*
X48201000Y-18027000D01*
X48201000Y-17025000D01*
X49503000Y-17025000D01*
X49503000Y-18027000D01*
X49503000Y-18027000D01*
G37*
G36*
X47303000Y-18027000D02*
G01*
X46001000Y-18027000D01*
X46001000Y-17025000D01*
X47303000Y-17025000D01*
X47303000Y-18027000D01*
X47303000Y-18027000D01*
G37*
G36*
X51367000Y-18027000D02*
G01*
X50065000Y-18027000D01*
X50065000Y-17025000D01*
X51367000Y-17025000D01*
X51367000Y-18027000D01*
X51367000Y-18027000D01*
G37*
G36*
X53567000Y-18027000D02*
G01*
X52265000Y-18027000D01*
X52265000Y-17025000D01*
X53567000Y-17025000D01*
X53567000Y-18027000D01*
X53567000Y-18027000D01*
G37*
G36*
X45312560Y-18027000D02*
G01*
X44010560Y-18027000D01*
X44010560Y-17025000D01*
X45312560Y-17025000D01*
X45312560Y-18027000D01*
X45312560Y-18027000D01*
G37*
G36*
X43112560Y-18027000D02*
G01*
X41810560Y-18027000D01*
X41810560Y-17025000D01*
X43112560Y-17025000D01*
X43112560Y-18027000D01*
X43112560Y-18027000D01*
G37*
G36*
X5979487Y-15098996D02*
G01*
X6216253Y-15197068D01*
X6216255Y-15197069D01*
X6429339Y-15339447D01*
X6610553Y-15520661D01*
X6752932Y-15733747D01*
X6851004Y-15970513D01*
X6901000Y-16221861D01*
X6901000Y-16478139D01*
X6851004Y-16729487D01*
X6752932Y-16966253D01*
X6752931Y-16966255D01*
X6610553Y-17179339D01*
X6429339Y-17360553D01*
X6216255Y-17502931D01*
X6216254Y-17502932D01*
X6216253Y-17502932D01*
X5979487Y-17601004D01*
X5728139Y-17651000D01*
X5471861Y-17651000D01*
X5220513Y-17601004D01*
X4983747Y-17502932D01*
X4983746Y-17502932D01*
X4983745Y-17502931D01*
X4770661Y-17360553D01*
X4589447Y-17179339D01*
X4447069Y-16966255D01*
X4447068Y-16966253D01*
X4348996Y-16729487D01*
X4299000Y-16478139D01*
X4299000Y-16221861D01*
X4348996Y-15970513D01*
X4447068Y-15733747D01*
X4589447Y-15520661D01*
X4770661Y-15339447D01*
X4983745Y-15197069D01*
X4983747Y-15197068D01*
X5220513Y-15098996D01*
X5471861Y-15049000D01*
X5728139Y-15049000D01*
X5979487Y-15098996D01*
X5979487Y-15098996D01*
G37*
G36*
X93857000Y-16651000D02*
G01*
X92855000Y-16651000D01*
X92855000Y-15349000D01*
X93857000Y-15349000D01*
X93857000Y-16651000D01*
X93857000Y-16651000D01*
G37*
G36*
X95228120Y-16501000D02*
G01*
X94376120Y-16501000D01*
X94376120Y-15199000D01*
X95228120Y-15199000D01*
X95228120Y-16501000D01*
X95228120Y-16501000D01*
G37*
G36*
X96686080Y-16501000D02*
G01*
X95834080Y-16501000D01*
X95834080Y-15199000D01*
X96686080Y-15199000D01*
X96686080Y-16501000D01*
X96686080Y-16501000D01*
G37*
G36*
X98182000Y-16501000D02*
G01*
X97330000Y-16501000D01*
X97330000Y-15199000D01*
X98182000Y-15199000D01*
X98182000Y-16501000D01*
X98182000Y-16501000D01*
G37*
G36*
X63065985Y-13210802D02*
G01*
X63215810Y-13240604D01*
X63498074Y-13357521D01*
X63752105Y-13527259D01*
X63968141Y-13743295D01*
X64137879Y-13997326D01*
X64254796Y-14279590D01*
X64314400Y-14579240D01*
X64314400Y-14884760D01*
X64254796Y-15184410D01*
X64137879Y-15466674D01*
X63968141Y-15720705D01*
X63752105Y-15936741D01*
X63498074Y-16106479D01*
X63215810Y-16223396D01*
X63065985Y-16253198D01*
X62916161Y-16283000D01*
X62610639Y-16283000D01*
X62460815Y-16253198D01*
X62310990Y-16223396D01*
X62028726Y-16106479D01*
X61774695Y-15936741D01*
X61558659Y-15720705D01*
X61388921Y-15466674D01*
X61272004Y-15184410D01*
X61212400Y-14884760D01*
X61212400Y-14579240D01*
X61272004Y-14279590D01*
X61388921Y-13997326D01*
X61558659Y-13743295D01*
X61774695Y-13527259D01*
X62028726Y-13357521D01*
X62310990Y-13240604D01*
X62460815Y-13210802D01*
X62610639Y-13181000D01*
X62916161Y-13181000D01*
X63065985Y-13210802D01*
X63065985Y-13210802D01*
G37*
G36*
X56487385Y-13210802D02*
G01*
X56637210Y-13240604D01*
X56919474Y-13357521D01*
X57173505Y-13527259D01*
X57389541Y-13743295D01*
X57559279Y-13997326D01*
X57676196Y-14279590D01*
X57735800Y-14579240D01*
X57735800Y-14884760D01*
X57676196Y-15184410D01*
X57559279Y-15466674D01*
X57389541Y-15720705D01*
X57173505Y-15936741D01*
X56919474Y-16106479D01*
X56637210Y-16223396D01*
X56487385Y-16253198D01*
X56337561Y-16283000D01*
X56032039Y-16283000D01*
X55882215Y-16253198D01*
X55732390Y-16223396D01*
X55450126Y-16106479D01*
X55196095Y-15936741D01*
X54980059Y-15720705D01*
X54810321Y-15466674D01*
X54693404Y-15184410D01*
X54633800Y-14884760D01*
X54633800Y-14579240D01*
X54693404Y-14279590D01*
X54810321Y-13997326D01*
X54980059Y-13743295D01*
X55196095Y-13527259D01*
X55450126Y-13357521D01*
X55732390Y-13240604D01*
X55882215Y-13210802D01*
X56032039Y-13181000D01*
X56337561Y-13181000D01*
X56487385Y-13210802D01*
X56487385Y-13210802D01*
G37*
G36*
X96686080Y-14601000D02*
G01*
X95834080Y-14601000D01*
X95834080Y-13299000D01*
X96686080Y-13299000D01*
X96686080Y-14601000D01*
X96686080Y-14601000D01*
G37*
G36*
X98182000Y-14601000D02*
G01*
X97330000Y-14601000D01*
X97330000Y-13299000D01*
X98182000Y-13299000D01*
X98182000Y-14601000D01*
X98182000Y-14601000D01*
G37*
G36*
X95228120Y-14601000D02*
G01*
X94376120Y-14601000D01*
X94376120Y-13299000D01*
X95228120Y-13299000D01*
X95228120Y-14601000D01*
X95228120Y-14601000D01*
G37*
G36*
X93857000Y-14451000D02*
G01*
X92855000Y-14451000D01*
X92855000Y-13149000D01*
X93857000Y-13149000D01*
X93857000Y-14451000D01*
X93857000Y-14451000D01*
G37*
G36*
X6901000Y-12651000D02*
G01*
X4299000Y-12651000D01*
X4299000Y-10049000D01*
X6901000Y-10049000D01*
X6901000Y-12651000D01*
X6901000Y-12651000D01*
G37*
G36*
X39208720Y-12646600D02*
G01*
X37906720Y-12646600D01*
X37906720Y-11794600D01*
X39208720Y-11794600D01*
X39208720Y-12646600D01*
X39208720Y-12646600D01*
G37*
G36*
X41108720Y-12646600D02*
G01*
X39806720Y-12646600D01*
X39806720Y-11794600D01*
X41108720Y-11794600D01*
X41108720Y-12646600D01*
X41108720Y-12646600D01*
G37*
G36*
X90986000Y-12266000D02*
G01*
X88234000Y-12266000D01*
X88234000Y-10134000D01*
X90986000Y-10134000D01*
X90986000Y-12266000D01*
X90986000Y-12266000D01*
G37*
G36*
X95166000Y-12266000D02*
G01*
X92414000Y-12266000D01*
X92414000Y-10134000D01*
X95166000Y-10134000D01*
X95166000Y-12266000D01*
X95166000Y-12266000D01*
G37*
G36*
X85517000Y-12125000D02*
G01*
X81615000Y-12125000D01*
X81615000Y-10023000D01*
X85517000Y-10023000D01*
X85517000Y-12125000D01*
X85517000Y-12125000D01*
G37*
G36*
X78004001Y-12125000D02*
G01*
X74102001Y-12125000D01*
X74102001Y-10023000D01*
X78004001Y-10023000D01*
X78004001Y-12125000D01*
X78004001Y-12125000D01*
G37*
G36*
X70531000Y-12125000D02*
G01*
X66629000Y-12125000D01*
X66629000Y-10023000D01*
X70531000Y-10023000D01*
X70531000Y-12125000D01*
X70531000Y-12125000D01*
G37*
G36*
X97813185Y-8892802D02*
G01*
X97963010Y-8922604D01*
X98245274Y-9039521D01*
X98499305Y-9209259D01*
X98715341Y-9425295D01*
X98885079Y-9679326D01*
X99001996Y-9961590D01*
X99061600Y-10261240D01*
X99061600Y-10566760D01*
X99001996Y-10866410D01*
X98885079Y-11148674D01*
X98715341Y-11402705D01*
X98499305Y-11618741D01*
X98245274Y-11788479D01*
X97963010Y-11905396D01*
X97813185Y-11935198D01*
X97663361Y-11965000D01*
X97357839Y-11965000D01*
X97208015Y-11935198D01*
X97058190Y-11905396D01*
X96775926Y-11788479D01*
X96521895Y-11618741D01*
X96305859Y-11402705D01*
X96136121Y-11148674D01*
X96019204Y-10866410D01*
X95959600Y-10566760D01*
X95959600Y-10261240D01*
X96019204Y-9961590D01*
X96136121Y-9679326D01*
X96305859Y-9425295D01*
X96521895Y-9209259D01*
X96775926Y-9039521D01*
X97058190Y-8922604D01*
X97208015Y-8892802D01*
X97357839Y-8863000D01*
X97663361Y-8863000D01*
X97813185Y-8892802D01*
X97813185Y-8892802D01*
G37*
G36*
X29801000Y-11226000D02*
G01*
X28499000Y-11226000D01*
X28499000Y-10374000D01*
X29801000Y-10374000D01*
X29801000Y-11226000D01*
X29801000Y-11226000D01*
G37*
G36*
X31701000Y-11226000D02*
G01*
X30399000Y-11226000D01*
X30399000Y-10374000D01*
X31701000Y-10374000D01*
X31701000Y-11226000D01*
X31701000Y-11226000D01*
G37*
G36*
X39208720Y-11153080D02*
G01*
X37906720Y-11153080D01*
X37906720Y-10301080D01*
X39208720Y-10301080D01*
X39208720Y-11153080D01*
X39208720Y-11153080D01*
G37*
G36*
X41108720Y-11153080D02*
G01*
X39806720Y-11153080D01*
X39806720Y-10301080D01*
X41108720Y-10301080D01*
X41108720Y-11153080D01*
X41108720Y-11153080D01*
G37*
G36*
X62251000Y-11001000D02*
G01*
X60949000Y-11001000D01*
X60949000Y-9999000D01*
X62251000Y-9999000D01*
X62251000Y-11001000D01*
X62251000Y-11001000D01*
G37*
G36*
X64451000Y-11001000D02*
G01*
X63149000Y-11001000D01*
X63149000Y-9999000D01*
X64451000Y-9999000D01*
X64451000Y-11001000D01*
X64451000Y-11001000D01*
G37*
G36*
X59004840Y-10961640D02*
G01*
X57702840Y-10961640D01*
X57702840Y-9959640D01*
X59004840Y-9959640D01*
X59004840Y-10961640D01*
X59004840Y-10961640D01*
G37*
G36*
X56804840Y-10961640D02*
G01*
X55502840Y-10961640D01*
X55502840Y-9959640D01*
X56804840Y-9959640D01*
X56804840Y-10961640D01*
X56804840Y-10961640D01*
G37*
G36*
X53821000Y-10661000D02*
G01*
X52519000Y-10661000D01*
X52519000Y-9659000D01*
X53821000Y-9659000D01*
X53821000Y-10661000D01*
X53821000Y-10661000D01*
G37*
G36*
X47410240Y-10661000D02*
G01*
X46108240Y-10661000D01*
X46108240Y-9659000D01*
X47410240Y-9659000D01*
X47410240Y-10661000D01*
X47410240Y-10661000D01*
G37*
G36*
X49610240Y-10661000D02*
G01*
X48308240Y-10661000D01*
X48308240Y-9659000D01*
X49610240Y-9659000D01*
X49610240Y-10661000D01*
X49610240Y-10661000D01*
G37*
G36*
X45485280Y-10661000D02*
G01*
X44183280Y-10661000D01*
X44183280Y-9659000D01*
X45485280Y-9659000D01*
X45485280Y-10661000D01*
X45485280Y-10661000D01*
G37*
G36*
X43285280Y-10661000D02*
G01*
X41983280Y-10661000D01*
X41983280Y-9659000D01*
X43285280Y-9659000D01*
X43285280Y-10661000D01*
X43285280Y-10661000D01*
G37*
G36*
X51621000Y-10661000D02*
G01*
X50319000Y-10661000D01*
X50319000Y-9659000D01*
X51621000Y-9659000D01*
X51621000Y-10661000D01*
X51621000Y-10661000D01*
G37*
G36*
X25567760Y-9812600D02*
G01*
X24265760Y-9812600D01*
X24265760Y-8810600D01*
X25567760Y-8810600D01*
X25567760Y-9812600D01*
X25567760Y-9812600D01*
G37*
G36*
X27767760Y-9812600D02*
G01*
X26465760Y-9812600D01*
X26465760Y-8810600D01*
X27767760Y-8810600D01*
X27767760Y-9812600D01*
X27767760Y-9812600D01*
G37*
G36*
X53770440Y-9186240D02*
G01*
X52768440Y-9186240D01*
X52768440Y-7884240D01*
X53770440Y-7884240D01*
X53770440Y-9186240D01*
X53770440Y-9186240D01*
G37*
G36*
X62522280Y-9120000D02*
G01*
X60870280Y-9120000D01*
X60870280Y-8418000D01*
X62522280Y-8418000D01*
X62522280Y-9120000D01*
X62522280Y-9120000D01*
G37*
G36*
X57122280Y-9120000D02*
G01*
X55470280Y-9120000D01*
X55470280Y-8418000D01*
X57122280Y-8418000D01*
X57122280Y-9120000D01*
X57122280Y-9120000D01*
G37*
G36*
X42985600Y-9099880D02*
G01*
X41983600Y-9099880D01*
X41983600Y-7797880D01*
X42985600Y-7797880D01*
X42985600Y-9099880D01*
X42985600Y-9099880D01*
G37*
G36*
X30456000Y-9076000D02*
G01*
X28449000Y-9076000D01*
X28449000Y-8334000D01*
X30456000Y-8334000D01*
X30456000Y-9076000D01*
X30456000Y-9076000D01*
G37*
G36*
X41151000Y-9076000D02*
G01*
X39144000Y-9076000D01*
X39144000Y-8334000D01*
X41151000Y-8334000D01*
X41151000Y-9076000D01*
X41151000Y-9076000D01*
G37*
G36*
X47213360Y-8914320D02*
G01*
X46361360Y-8914320D01*
X46361360Y-7612320D01*
X47213360Y-7612320D01*
X47213360Y-8914320D01*
X47213360Y-8914320D01*
G37*
G36*
X50312160Y-8914320D02*
G01*
X49460160Y-8914320D01*
X49460160Y-7612320D01*
X50312160Y-7612320D01*
X50312160Y-8914320D01*
X50312160Y-8914320D01*
G37*
G36*
X26273920Y-8405760D02*
G01*
X25271920Y-8405760D01*
X25271920Y-7103760D01*
X26273920Y-7103760D01*
X26273920Y-8405760D01*
X26273920Y-8405760D01*
G37*
G36*
X27733080Y-8215120D02*
G01*
X26881080Y-8215120D01*
X26881080Y-6913120D01*
X27733080Y-6913120D01*
X27733080Y-8215120D01*
X27733080Y-8215120D01*
G37*
G36*
X62522280Y-7850000D02*
G01*
X60870280Y-7850000D01*
X60870280Y-7148000D01*
X62522280Y-7148000D01*
X62522280Y-7850000D01*
X62522280Y-7850000D01*
G37*
G36*
X57122280Y-7850000D02*
G01*
X55470280Y-7850000D01*
X55470280Y-7148000D01*
X57122280Y-7148000D01*
X57122280Y-7850000D01*
X57122280Y-7850000D01*
G37*
G36*
X30456000Y-7806000D02*
G01*
X28449000Y-7806000D01*
X28449000Y-7064000D01*
X30456000Y-7064000D01*
X30456000Y-7806000D01*
X30456000Y-7806000D01*
G37*
G36*
X41151000Y-7806000D02*
G01*
X39144000Y-7806000D01*
X39144000Y-7064000D01*
X41151000Y-7064000D01*
X41151000Y-7806000D01*
X41151000Y-7806000D01*
G37*
G36*
X5536694Y-2301860D02*
G01*
X5802437Y-2354719D01*
X6303087Y-2562095D01*
X6483561Y-2682684D01*
X6753660Y-2863158D01*
X7136842Y-3246340D01*
X7317316Y-3516439D01*
X7437905Y-3696913D01*
X7645281Y-4197563D01*
X7645281Y-4197564D01*
X7751000Y-4729049D01*
X7751000Y-5270951D01*
X7715186Y-5451000D01*
X7645281Y-5802437D01*
X7437905Y-6303087D01*
X7369120Y-6406031D01*
X7136842Y-6753660D01*
X6753660Y-7136842D01*
X6490774Y-7312496D01*
X6303087Y-7437905D01*
X5802437Y-7645281D01*
X5536694Y-7698140D01*
X5270951Y-7751000D01*
X4729049Y-7751000D01*
X4463306Y-7698140D01*
X4197563Y-7645281D01*
X3696913Y-7437905D01*
X3509226Y-7312496D01*
X3246340Y-7136842D01*
X2863158Y-6753660D01*
X2630880Y-6406031D01*
X2562095Y-6303087D01*
X2354719Y-5802437D01*
X2284814Y-5451000D01*
X2249000Y-5270951D01*
X2249000Y-4729049D01*
X2354719Y-4197564D01*
X2354719Y-4197563D01*
X2562095Y-3696913D01*
X2682684Y-3516439D01*
X2863158Y-3246340D01*
X3246340Y-2863158D01*
X3516439Y-2682684D01*
X3696913Y-2562095D01*
X4197563Y-2354719D01*
X4463306Y-2301860D01*
X4729049Y-2249000D01*
X5270951Y-2249000D01*
X5536694Y-2301860D01*
X5536694Y-2301860D01*
G37*
G36*
X95536694Y-2301860D02*
G01*
X95802437Y-2354719D01*
X96303087Y-2562095D01*
X96483561Y-2682684D01*
X96753660Y-2863158D01*
X97136842Y-3246340D01*
X97317316Y-3516439D01*
X97437905Y-3696913D01*
X97645281Y-4197563D01*
X97645281Y-4197564D01*
X97751000Y-4729049D01*
X97751000Y-5270951D01*
X97715186Y-5451000D01*
X97645281Y-5802437D01*
X97437905Y-6303087D01*
X97369120Y-6406031D01*
X97136842Y-6753660D01*
X96753660Y-7136842D01*
X96490774Y-7312496D01*
X96303087Y-7437905D01*
X95802437Y-7645281D01*
X95536694Y-7698140D01*
X95270951Y-7751000D01*
X94729049Y-7751000D01*
X94463306Y-7698140D01*
X94197563Y-7645281D01*
X93696913Y-7437905D01*
X93509226Y-7312496D01*
X93246340Y-7136842D01*
X92863158Y-6753660D01*
X92630880Y-6406031D01*
X92562095Y-6303087D01*
X92354719Y-5802437D01*
X92284814Y-5451000D01*
X92249000Y-5270951D01*
X92249000Y-4729049D01*
X92354719Y-4197564D01*
X92354719Y-4197563D01*
X92562095Y-3696913D01*
X92682684Y-3516439D01*
X92863158Y-3246340D01*
X93246340Y-2863158D01*
X93516439Y-2682684D01*
X93696913Y-2562095D01*
X94197563Y-2354719D01*
X94463306Y-2301860D01*
X94729049Y-2249000D01*
X95270951Y-2249000D01*
X95536694Y-2301860D01*
X95536694Y-2301860D01*
G37*
G36*
X66916032Y-4564207D02*
G01*
X67060396Y-4608000D01*
X67114149Y-4624306D01*
X67161631Y-4649686D01*
X67296729Y-4721897D01*
X67456765Y-4853235D01*
X67588103Y-5013271D01*
X67604752Y-5044420D01*
X67685694Y-5195851D01*
X67685695Y-5195855D01*
X67745793Y-5393969D01*
X67761000Y-5548371D01*
X67761000Y-6251630D01*
X67745793Y-6406032D01*
X67706367Y-6536000D01*
X67685694Y-6604149D01*
X67647991Y-6674686D01*
X67588103Y-6786729D01*
X67456765Y-6946765D01*
X67296729Y-7078103D01*
X67186835Y-7136842D01*
X67114148Y-7175694D01*
X67114145Y-7175695D01*
X66916031Y-7235793D01*
X66710000Y-7256085D01*
X66503968Y-7235793D01*
X66305854Y-7175695D01*
X66305851Y-7175694D01*
X66209025Y-7123939D01*
X66123271Y-7078103D01*
X65963235Y-6946765D01*
X65831897Y-6786729D01*
X65734307Y-6604149D01*
X65734306Y-6604148D01*
X65726981Y-6580000D01*
X65674207Y-6406031D01*
X65659000Y-6251629D01*
X65659000Y-5548370D01*
X65674207Y-5393968D01*
X65699679Y-5310000D01*
X65734305Y-5195853D01*
X65815249Y-5044420D01*
X65831898Y-5013271D01*
X65963236Y-4853235D01*
X66123272Y-4721897D01*
X66258370Y-4649686D01*
X66305852Y-4624306D01*
X66359605Y-4608000D01*
X66503969Y-4564207D01*
X66710000Y-4543915D01*
X66916032Y-4564207D01*
X66916032Y-4564207D01*
G37*
G36*
X73766032Y-4564207D02*
G01*
X73910396Y-4608000D01*
X73964149Y-4624306D01*
X74011631Y-4649686D01*
X74146729Y-4721897D01*
X74306765Y-4853235D01*
X74438103Y-5013271D01*
X74454752Y-5044420D01*
X74535694Y-5195851D01*
X74535695Y-5195855D01*
X74595793Y-5393969D01*
X74611000Y-5548371D01*
X74611000Y-6251630D01*
X74595793Y-6406032D01*
X74556367Y-6536000D01*
X74535694Y-6604149D01*
X74497991Y-6674686D01*
X74438103Y-6786729D01*
X74306765Y-6946765D01*
X74146729Y-7078103D01*
X74036835Y-7136842D01*
X73964148Y-7175694D01*
X73964145Y-7175695D01*
X73766031Y-7235793D01*
X73560000Y-7256085D01*
X73353968Y-7235793D01*
X73155854Y-7175695D01*
X73155851Y-7175694D01*
X73059025Y-7123939D01*
X72973271Y-7078103D01*
X72813235Y-6946765D01*
X72681897Y-6786729D01*
X72584307Y-6604149D01*
X72584306Y-6604148D01*
X72576981Y-6580000D01*
X72524207Y-6406031D01*
X72509000Y-6251629D01*
X72509000Y-5548370D01*
X72524207Y-5393968D01*
X72549679Y-5310000D01*
X72584305Y-5195853D01*
X72665249Y-5044420D01*
X72681898Y-5013271D01*
X72813236Y-4853235D01*
X72973272Y-4721897D01*
X73108370Y-4649686D01*
X73155852Y-4624306D01*
X73209605Y-4608000D01*
X73353969Y-4564207D01*
X73560000Y-4543915D01*
X73766032Y-4564207D01*
X73766032Y-4564207D01*
G37*
G36*
X87066032Y-4564207D02*
G01*
X87210396Y-4608000D01*
X87264149Y-4624306D01*
X87311631Y-4649686D01*
X87446729Y-4721897D01*
X87606765Y-4853235D01*
X87738103Y-5013271D01*
X87754752Y-5044420D01*
X87835694Y-5195851D01*
X87835695Y-5195855D01*
X87895793Y-5393969D01*
X87911000Y-5548371D01*
X87911000Y-6251630D01*
X87895793Y-6406032D01*
X87856367Y-6536000D01*
X87835694Y-6604149D01*
X87797991Y-6674686D01*
X87738103Y-6786729D01*
X87606765Y-6946765D01*
X87446729Y-7078103D01*
X87336835Y-7136842D01*
X87264148Y-7175694D01*
X87264145Y-7175695D01*
X87066031Y-7235793D01*
X86860000Y-7256085D01*
X86653968Y-7235793D01*
X86455854Y-7175695D01*
X86455851Y-7175694D01*
X86359025Y-7123939D01*
X86273271Y-7078103D01*
X86113235Y-6946765D01*
X85981897Y-6786729D01*
X85884307Y-6604149D01*
X85884306Y-6604148D01*
X85876981Y-6580000D01*
X85824207Y-6406031D01*
X85809000Y-6251629D01*
X85809000Y-5548370D01*
X85824207Y-5393968D01*
X85849679Y-5310000D01*
X85884305Y-5195853D01*
X85965249Y-5044420D01*
X85981898Y-5013271D01*
X86113236Y-4853235D01*
X86273272Y-4721897D01*
X86408370Y-4649686D01*
X86455852Y-4624306D01*
X86509605Y-4608000D01*
X86653969Y-4564207D01*
X86860000Y-4543915D01*
X87066032Y-4564207D01*
X87066032Y-4564207D01*
G37*
G36*
X80466032Y-4564207D02*
G01*
X80610396Y-4608000D01*
X80664149Y-4624306D01*
X80711631Y-4649686D01*
X80846729Y-4721897D01*
X81006765Y-4853235D01*
X81138103Y-5013271D01*
X81154752Y-5044420D01*
X81235694Y-5195851D01*
X81235695Y-5195855D01*
X81295793Y-5393969D01*
X81311000Y-5548371D01*
X81311000Y-6251630D01*
X81295793Y-6406032D01*
X81256367Y-6536000D01*
X81235694Y-6604149D01*
X81197991Y-6674686D01*
X81138103Y-6786729D01*
X81006765Y-6946765D01*
X80846729Y-7078103D01*
X80736835Y-7136842D01*
X80664148Y-7175694D01*
X80664145Y-7175695D01*
X80466031Y-7235793D01*
X80260000Y-7256085D01*
X80053968Y-7235793D01*
X79855854Y-7175695D01*
X79855851Y-7175694D01*
X79759025Y-7123939D01*
X79673271Y-7078103D01*
X79513235Y-6946765D01*
X79381897Y-6786729D01*
X79284307Y-6604149D01*
X79284306Y-6604148D01*
X79276981Y-6580000D01*
X79224207Y-6406031D01*
X79209000Y-6251629D01*
X79209000Y-5548370D01*
X79224207Y-5393968D01*
X79249679Y-5310000D01*
X79284305Y-5195853D01*
X79365249Y-5044420D01*
X79381898Y-5013271D01*
X79513236Y-4853235D01*
X79673272Y-4721897D01*
X79808370Y-4649686D01*
X79855852Y-4624306D01*
X79909605Y-4608000D01*
X80053969Y-4564207D01*
X80260000Y-4543915D01*
X80466032Y-4564207D01*
X80466032Y-4564207D01*
G37*
G36*
X77151000Y-7251000D02*
G01*
X75049000Y-7251000D01*
X75049000Y-4549000D01*
X77151000Y-4549000D01*
X77151000Y-7251000D01*
X77151000Y-7251000D01*
G37*
G36*
X90451000Y-7251000D02*
G01*
X88349000Y-7251000D01*
X88349000Y-4549000D01*
X90451000Y-4549000D01*
X90451000Y-7251000D01*
X90451000Y-7251000D01*
G37*
G36*
X70301000Y-7251000D02*
G01*
X68199000Y-7251000D01*
X68199000Y-4549000D01*
X70301000Y-4549000D01*
X70301000Y-7251000D01*
X70301000Y-7251000D01*
G37*
G36*
X83851000Y-7251000D02*
G01*
X81749000Y-7251000D01*
X81749000Y-4549000D01*
X83851000Y-4549000D01*
X83851000Y-7251000D01*
X83851000Y-7251000D01*
G37*
G36*
X47213360Y-7014320D02*
G01*
X46361360Y-7014320D01*
X46361360Y-5712320D01*
X47213360Y-5712320D01*
X47213360Y-7014320D01*
X47213360Y-7014320D01*
G37*
G36*
X50312160Y-7014320D02*
G01*
X49460160Y-7014320D01*
X49460160Y-5712320D01*
X50312160Y-5712320D01*
X50312160Y-7014320D01*
X50312160Y-7014320D01*
G37*
G36*
X53770440Y-6986240D02*
G01*
X52768440Y-6986240D01*
X52768440Y-5684240D01*
X53770440Y-5684240D01*
X53770440Y-6986240D01*
X53770440Y-6986240D01*
G37*
G36*
X42985600Y-6899880D02*
G01*
X41983600Y-6899880D01*
X41983600Y-5597880D01*
X42985600Y-5597880D01*
X42985600Y-6899880D01*
X42985600Y-6899880D01*
G37*
G36*
X21816560Y-6712480D02*
G01*
X20814560Y-6712480D01*
X20814560Y-4910480D01*
X21816560Y-4910480D01*
X21816560Y-6712480D01*
X21816560Y-6712480D01*
G37*
G36*
X24716560Y-6712480D02*
G01*
X23714560Y-6712480D01*
X23714560Y-4910480D01*
X24716560Y-4910480D01*
X24716560Y-6712480D01*
X24716560Y-6712480D01*
G37*
G36*
X17295360Y-6712480D02*
G01*
X16293360Y-6712480D01*
X16293360Y-4910480D01*
X17295360Y-4910480D01*
X17295360Y-6712480D01*
X17295360Y-6712480D01*
G37*
G36*
X20195360Y-6712480D02*
G01*
X19193360Y-6712480D01*
X19193360Y-4910480D01*
X20195360Y-4910480D01*
X20195360Y-6712480D01*
X20195360Y-6712480D01*
G37*
G36*
X15699560Y-6687080D02*
G01*
X14697560Y-6687080D01*
X14697560Y-4885080D01*
X15699560Y-4885080D01*
X15699560Y-6687080D01*
X15699560Y-6687080D01*
G37*
G36*
X12799560Y-6687080D02*
G01*
X11797560Y-6687080D01*
X11797560Y-4885080D01*
X12799560Y-4885080D01*
X12799560Y-6687080D01*
X12799560Y-6687080D01*
G37*
G36*
X62522280Y-6580000D02*
G01*
X60870280Y-6580000D01*
X60870280Y-5878000D01*
X62522280Y-5878000D01*
X62522280Y-6580000D01*
X62522280Y-6580000D01*
G37*
G36*
X57122280Y-6580000D02*
G01*
X55470280Y-6580000D01*
X55470280Y-5878000D01*
X57122280Y-5878000D01*
X57122280Y-6580000D01*
X57122280Y-6580000D01*
G37*
G36*
X41151000Y-6536000D02*
G01*
X39144000Y-6536000D01*
X39144000Y-5794000D01*
X41151000Y-5794000D01*
X41151000Y-6536000D01*
X41151000Y-6536000D01*
G37*
G36*
X30456000Y-6536000D02*
G01*
X28449000Y-6536000D01*
X28449000Y-5794000D01*
X30456000Y-5794000D01*
X30456000Y-6536000D01*
X30456000Y-6536000D01*
G37*
G36*
X27733080Y-6315120D02*
G01*
X26881080Y-6315120D01*
X26881080Y-5013120D01*
X27733080Y-5013120D01*
X27733080Y-6315120D01*
X27733080Y-6315120D01*
G37*
G36*
X26273920Y-6205760D02*
G01*
X25271920Y-6205760D01*
X25271920Y-4903760D01*
X26273920Y-4903760D01*
X26273920Y-6205760D01*
X26273920Y-6205760D01*
G37*
G36*
X57122280Y-5310000D02*
G01*
X55470280Y-5310000D01*
X55470280Y-4608000D01*
X57122280Y-4608000D01*
X57122280Y-5310000D01*
X57122280Y-5310000D01*
G37*
G36*
X62522280Y-5310000D02*
G01*
X60870280Y-5310000D01*
X60870280Y-4608000D01*
X62522280Y-4608000D01*
X62522280Y-5310000D01*
X62522280Y-5310000D01*
G37*
G36*
X30456000Y-5266000D02*
G01*
X28449000Y-5266000D01*
X28449000Y-4524000D01*
X30456000Y-4524000D01*
X30456000Y-5266000D01*
X30456000Y-5266000D01*
G37*
G36*
X41151000Y-5266000D02*
G01*
X39144000Y-5266000D01*
X39144000Y-4524000D01*
X41151000Y-4524000D01*
X41151000Y-5266000D01*
X41151000Y-5266000D01*
G37*
G36*
X49650880Y-5073000D02*
G01*
X48348880Y-5073000D01*
X48348880Y-4071000D01*
X49650880Y-4071000D01*
X49650880Y-5073000D01*
X49650880Y-5073000D01*
G37*
G36*
X51621000Y-5073000D02*
G01*
X50319000Y-5073000D01*
X50319000Y-4071000D01*
X51621000Y-4071000D01*
X51621000Y-5073000D01*
X51621000Y-5073000D01*
G37*
G36*
X53821000Y-5073000D02*
G01*
X52519000Y-5073000D01*
X52519000Y-4071000D01*
X53821000Y-4071000D01*
X53821000Y-5073000D01*
X53821000Y-5073000D01*
G37*
G36*
X47450880Y-5073000D02*
G01*
X46148880Y-5073000D01*
X46148880Y-4071000D01*
X47450880Y-4071000D01*
X47450880Y-5073000D01*
X47450880Y-5073000D01*
G37*
G36*
X45485280Y-5073000D02*
G01*
X44183280Y-5073000D01*
X44183280Y-4071000D01*
X45485280Y-4071000D01*
X45485280Y-5073000D01*
X45485280Y-5073000D01*
G37*
G36*
X43285280Y-5073000D02*
G01*
X41983280Y-5073000D01*
X41983280Y-4071000D01*
X43285280Y-4071000D01*
X43285280Y-5073000D01*
X43285280Y-5073000D01*
G37*
G36*
X60454960Y-3779720D02*
G01*
X59152960Y-3779720D01*
X59152960Y-2927720D01*
X60454960Y-2927720D01*
X60454960Y-3779720D01*
X60454960Y-3779720D01*
G37*
G36*
X62354960Y-3779720D02*
G01*
X61052960Y-3779720D01*
X61052960Y-2927720D01*
X62354960Y-2927720D01*
X62354960Y-3779720D01*
X62354960Y-3779720D01*
G37*
M02*
