G04 #@! TF.GenerationSoftware,KiCad,Pcbnew,(5.1.0-1152-gc9ccd8a64)*
G04 #@! TF.CreationDate,2019-07-22T10:42:35-04:00*
G04 #@! TF.ProjectId,BMS-Master,424d532d-4d61-4737-9465-722e6b696361,V0.2*
G04 #@! TF.SameCoordinates,Original*
G04 #@! TF.FileFunction,Soldermask,Bot*
G04 #@! TF.FilePolarity,Negative*
%FSLAX46Y46*%
G04 Gerber Fmt 4.6, Leading zero omitted, Abs format (unit mm)*
G04 Created by KiCad (PCBNEW (5.1.0-1152-gc9ccd8a64)) date 2019-07-22 10:42:35*
%MOMM*%
%LPD*%
G04 APERTURE LIST*
%ADD10C,0.100000*%
G04 APERTURE END LIST*
D10*
G36*
X95081499Y-92249413D02*
G01*
X95182653Y-92250031D01*
X95243360Y-92257754D01*
X95302411Y-92260797D01*
X95406794Y-92278546D01*
X95511702Y-92291892D01*
X95566432Y-92305690D01*
X95619927Y-92314786D01*
X95726337Y-92346003D01*
X95833340Y-92372980D01*
X95881595Y-92391552D01*
X95928980Y-92405453D01*
X96035669Y-92450849D01*
X96142906Y-92492121D01*
X96184372Y-92514123D01*
X96225346Y-92531557D01*
X96330467Y-92591639D01*
X96435917Y-92647590D01*
X96470539Y-92671698D01*
X96504972Y-92691378D01*
X96606545Y-92766400D01*
X96708128Y-92837134D01*
X96736040Y-92862046D01*
X96764045Y-92882731D01*
X96860070Y-92972747D01*
X96955597Y-93058008D01*
X96977162Y-93082512D01*
X96999021Y-93103003D01*
X97087451Y-93207831D01*
X97174738Y-93307013D01*
X97190494Y-93329982D01*
X97206693Y-93349184D01*
X97285494Y-93468466D01*
X97362377Y-93580541D01*
X97373051Y-93601002D01*
X97384219Y-93617907D01*
X97451335Y-93751064D01*
X97515797Y-93874630D01*
X97522257Y-93891771D01*
X97529191Y-93905528D01*
X97582804Y-94052429D01*
X97632774Y-94185020D01*
X97635987Y-94198150D01*
X97639611Y-94208080D01*
X97677970Y-94369719D01*
X97711615Y-94507216D01*
X97712656Y-94515885D01*
X97713977Y-94521450D01*
X97735476Y-94705850D01*
X97751177Y-94836550D01*
X97746761Y-95225825D01*
X97728492Y-95353391D01*
X97726437Y-95400454D01*
X97711096Y-95474861D01*
X97699737Y-95554176D01*
X97678322Y-95633821D01*
X97661942Y-95713266D01*
X97635632Y-95792587D01*
X97613607Y-95874501D01*
X97584540Y-95946626D01*
X97560545Y-96018967D01*
X97523071Y-96099148D01*
X97489617Y-96182157D01*
X97454382Y-96246116D01*
X97424176Y-96310747D01*
X97375003Y-96390210D01*
X97329565Y-96472690D01*
X97289657Y-96528126D01*
X97254694Y-96584625D01*
X97193513Y-96661679D01*
X97135769Y-96741890D01*
X97092703Y-96788642D01*
X97054420Y-96836857D01*
X96981135Y-96909759D01*
X96911035Y-96985859D01*
X96866267Y-97024027D01*
X96826079Y-97064005D01*
X96740868Y-97130938D01*
X96658619Y-97201062D01*
X96613538Y-97230957D01*
X96572795Y-97262961D01*
X96476063Y-97322123D01*
X96382178Y-97384382D01*
X96338090Y-97406507D01*
X96298036Y-97431005D01*
X96190419Y-97480617D01*
X96085715Y-97533163D01*
X96043771Y-97548222D01*
X96005540Y-97565847D01*
X95887941Y-97604171D01*
X95773525Y-97645250D01*
X95734731Y-97654100D01*
X95699318Y-97665640D01*
X95572884Y-97691019D01*
X95450131Y-97719021D01*
X95415301Y-97722651D01*
X95383547Y-97729025D01*
X95249653Y-97739915D01*
X95120216Y-97753405D01*
X95089960Y-97752903D01*
X95062520Y-97755135D01*
X94922636Y-97750128D01*
X94788560Y-97747905D01*
X94763333Y-97744427D01*
X94740650Y-97743615D01*
X94596347Y-97721404D01*
X94459967Y-97702601D01*
X94439956Y-97697333D01*
X94422326Y-97694619D01*
X94275239Y-97653967D01*
X94139196Y-97618150D01*
X94124405Y-97612279D01*
X94111883Y-97608818D01*
X93962917Y-97548178D01*
X93830895Y-97495773D01*
X93821130Y-97490460D01*
X93813581Y-97487387D01*
X93661548Y-97403633D01*
X93539528Y-97337244D01*
X93534375Y-97333575D01*
X93531474Y-97331977D01*
X93354206Y-97205299D01*
X93269316Y-97144860D01*
X93192276Y-97074636D01*
X93031025Y-96928166D01*
X93028854Y-96925673D01*
X93024174Y-96921407D01*
X92933455Y-96816122D01*
X92819511Y-96685275D01*
X92814911Y-96678545D01*
X92807653Y-96670121D01*
X92728532Y-96552155D01*
X92637780Y-96419366D01*
X92631749Y-96407855D01*
X92622888Y-96394643D01*
X92559166Y-96269311D01*
X92488315Y-96134074D01*
X92481934Y-96117406D01*
X92472557Y-96098964D01*
X92425351Y-95969618D01*
X92373153Y-95833282D01*
X92367568Y-95811291D01*
X92358836Y-95787365D01*
X92328333Y-95656803D01*
X92293873Y-95521114D01*
X92290254Y-95493810D01*
X92283374Y-95464361D01*
X92269212Y-95335054D01*
X92251555Y-95201833D01*
X92251075Y-95169442D01*
X92247262Y-95134631D01*
X92248690Y-95008722D01*
X92246778Y-94879793D01*
X92250573Y-94842747D01*
X92251025Y-94802951D01*
X92266998Y-94682436D01*
X92279605Y-94559389D01*
X92288754Y-94518290D01*
X92294608Y-94474125D01*
X92323837Y-94360695D01*
X92349590Y-94245013D01*
X92365070Y-94200685D01*
X92377379Y-94152917D01*
X92418382Y-94048019D01*
X92455775Y-93940942D01*
X92478454Y-93894341D01*
X92498140Y-93843978D01*
X92549292Y-93748780D01*
X92596711Y-93651341D01*
X92627292Y-93603614D01*
X92655141Y-93551785D01*
X92714713Y-93467179D01*
X92770477Y-93380151D01*
X92809512Y-93332544D01*
X92846108Y-93280570D01*
X92912299Y-93207186D01*
X92974689Y-93131096D01*
X93022528Y-93084979D01*
X93068274Y-93034262D01*
X93139292Y-92972419D01*
X93206567Y-92907565D01*
X93263353Y-92864384D01*
X93318423Y-92816428D01*
X93392483Y-92766191D01*
X93462939Y-92712615D01*
X93528584Y-92673870D01*
X93592929Y-92630223D01*
X93668329Y-92591389D01*
X93740305Y-92548908D01*
X93814503Y-92516106D01*
X93887818Y-92478346D01*
X93962934Y-92450485D01*
X94034885Y-92418676D01*
X94117092Y-92393307D01*
X94198817Y-92362995D01*
X94272148Y-92345457D01*
X94342636Y-92323705D01*
X94432085Y-92307207D01*
X94521421Y-92285842D01*
X94591640Y-92277779D01*
X94659379Y-92265286D01*
X94755079Y-92259014D01*
X94850957Y-92248005D01*
X94916897Y-92248408D01*
X94980761Y-92244222D01*
X95081499Y-92249413D01*
X95081499Y-92249413D01*
G37*
G36*
X5081499Y-92249413D02*
G01*
X5182653Y-92250031D01*
X5243360Y-92257754D01*
X5302411Y-92260797D01*
X5406794Y-92278546D01*
X5511702Y-92291892D01*
X5566432Y-92305690D01*
X5619927Y-92314786D01*
X5726337Y-92346003D01*
X5833340Y-92372980D01*
X5881595Y-92391552D01*
X5928980Y-92405453D01*
X6035669Y-92450849D01*
X6142906Y-92492121D01*
X6184372Y-92514123D01*
X6225346Y-92531557D01*
X6330467Y-92591639D01*
X6435917Y-92647590D01*
X6470539Y-92671698D01*
X6504972Y-92691378D01*
X6606545Y-92766400D01*
X6708128Y-92837134D01*
X6736040Y-92862046D01*
X6764045Y-92882731D01*
X6860070Y-92972747D01*
X6955597Y-93058008D01*
X6977162Y-93082512D01*
X6999021Y-93103003D01*
X7087451Y-93207831D01*
X7174738Y-93307013D01*
X7190494Y-93329982D01*
X7206693Y-93349184D01*
X7285494Y-93468466D01*
X7362377Y-93580541D01*
X7373051Y-93601002D01*
X7384219Y-93617907D01*
X7451335Y-93751064D01*
X7515797Y-93874630D01*
X7522257Y-93891771D01*
X7529191Y-93905528D01*
X7582804Y-94052429D01*
X7632774Y-94185020D01*
X7635987Y-94198150D01*
X7639611Y-94208080D01*
X7677970Y-94369719D01*
X7711615Y-94507216D01*
X7712656Y-94515885D01*
X7713977Y-94521450D01*
X7735476Y-94705850D01*
X7751177Y-94836550D01*
X7746761Y-95225825D01*
X7728492Y-95353391D01*
X7726437Y-95400454D01*
X7711096Y-95474861D01*
X7699737Y-95554176D01*
X7678322Y-95633821D01*
X7661942Y-95713266D01*
X7635632Y-95792587D01*
X7613607Y-95874501D01*
X7584540Y-95946626D01*
X7560545Y-96018967D01*
X7523071Y-96099148D01*
X7489617Y-96182157D01*
X7454382Y-96246116D01*
X7424176Y-96310747D01*
X7375003Y-96390210D01*
X7329565Y-96472690D01*
X7289657Y-96528126D01*
X7254694Y-96584625D01*
X7193513Y-96661679D01*
X7135769Y-96741890D01*
X7092703Y-96788642D01*
X7054420Y-96836857D01*
X6981135Y-96909759D01*
X6911035Y-96985859D01*
X6866267Y-97024027D01*
X6826079Y-97064005D01*
X6740868Y-97130938D01*
X6658619Y-97201062D01*
X6613538Y-97230957D01*
X6572795Y-97262961D01*
X6476063Y-97322123D01*
X6382178Y-97384382D01*
X6338090Y-97406507D01*
X6298036Y-97431005D01*
X6190419Y-97480617D01*
X6085715Y-97533163D01*
X6043771Y-97548222D01*
X6005540Y-97565847D01*
X5887941Y-97604171D01*
X5773525Y-97645250D01*
X5734731Y-97654100D01*
X5699318Y-97665640D01*
X5572884Y-97691019D01*
X5450131Y-97719021D01*
X5415301Y-97722651D01*
X5383547Y-97729025D01*
X5249653Y-97739915D01*
X5120216Y-97753405D01*
X5089960Y-97752903D01*
X5062520Y-97755135D01*
X4922636Y-97750128D01*
X4788560Y-97747905D01*
X4763333Y-97744427D01*
X4740650Y-97743615D01*
X4596347Y-97721404D01*
X4459967Y-97702601D01*
X4439956Y-97697333D01*
X4422326Y-97694619D01*
X4275239Y-97653967D01*
X4139196Y-97618150D01*
X4124405Y-97612279D01*
X4111883Y-97608818D01*
X3962917Y-97548178D01*
X3830895Y-97495773D01*
X3821130Y-97490460D01*
X3813581Y-97487387D01*
X3661548Y-97403633D01*
X3539528Y-97337244D01*
X3534375Y-97333575D01*
X3531474Y-97331977D01*
X3354206Y-97205299D01*
X3269316Y-97144860D01*
X3192276Y-97074636D01*
X3031025Y-96928166D01*
X3028854Y-96925673D01*
X3024174Y-96921407D01*
X2933455Y-96816122D01*
X2819511Y-96685275D01*
X2814911Y-96678545D01*
X2807653Y-96670121D01*
X2728532Y-96552155D01*
X2637780Y-96419366D01*
X2631749Y-96407855D01*
X2622888Y-96394643D01*
X2559166Y-96269311D01*
X2488315Y-96134074D01*
X2481934Y-96117406D01*
X2472557Y-96098964D01*
X2425351Y-95969618D01*
X2373153Y-95833282D01*
X2367568Y-95811291D01*
X2358836Y-95787365D01*
X2328333Y-95656803D01*
X2293873Y-95521114D01*
X2290254Y-95493810D01*
X2283374Y-95464361D01*
X2269212Y-95335054D01*
X2251555Y-95201833D01*
X2251075Y-95169442D01*
X2247262Y-95134631D01*
X2248690Y-95008722D01*
X2246778Y-94879793D01*
X2250573Y-94842747D01*
X2251025Y-94802951D01*
X2266998Y-94682436D01*
X2279605Y-94559389D01*
X2288754Y-94518290D01*
X2294608Y-94474125D01*
X2323837Y-94360695D01*
X2349590Y-94245013D01*
X2365070Y-94200685D01*
X2377379Y-94152917D01*
X2418382Y-94048019D01*
X2455775Y-93940942D01*
X2478454Y-93894341D01*
X2498140Y-93843978D01*
X2549292Y-93748780D01*
X2596711Y-93651341D01*
X2627292Y-93603614D01*
X2655141Y-93551785D01*
X2714713Y-93467179D01*
X2770477Y-93380151D01*
X2809512Y-93332544D01*
X2846108Y-93280570D01*
X2912299Y-93207186D01*
X2974689Y-93131096D01*
X3022528Y-93084979D01*
X3068274Y-93034262D01*
X3139292Y-92972419D01*
X3206567Y-92907565D01*
X3263353Y-92864384D01*
X3318423Y-92816428D01*
X3392483Y-92766191D01*
X3462939Y-92712615D01*
X3528584Y-92673870D01*
X3592929Y-92630223D01*
X3668329Y-92591389D01*
X3740305Y-92548908D01*
X3814503Y-92516106D01*
X3887818Y-92478346D01*
X3962934Y-92450485D01*
X4034885Y-92418676D01*
X4117092Y-92393307D01*
X4198817Y-92362995D01*
X4272148Y-92345457D01*
X4342636Y-92323705D01*
X4432085Y-92307207D01*
X4521421Y-92285842D01*
X4591640Y-92277779D01*
X4659379Y-92265286D01*
X4755079Y-92259014D01*
X4850957Y-92248005D01*
X4916897Y-92248408D01*
X4980761Y-92244222D01*
X5081499Y-92249413D01*
X5081499Y-92249413D01*
G37*
G36*
X96019899Y-85751959D02*
G01*
X96036769Y-85763231D01*
X96048041Y-85780101D01*
X96054448Y-85812312D01*
X96054448Y-87787688D01*
X96051999Y-87800000D01*
X96048041Y-87819899D01*
X96036769Y-87836769D01*
X96019899Y-87848041D01*
X96000000Y-87851999D01*
X95987688Y-87854448D01*
X93412312Y-87854448D01*
X93380101Y-87848041D01*
X93363231Y-87836769D01*
X93351959Y-87819899D01*
X93345552Y-87787688D01*
X93345552Y-85812312D01*
X93351959Y-85780101D01*
X93363231Y-85763231D01*
X93380101Y-85751959D01*
X93412312Y-85745552D01*
X95987688Y-85745552D01*
X96019899Y-85751959D01*
X96019899Y-85751959D01*
G37*
G36*
X95219572Y-83226993D02*
G01*
X95308551Y-83255219D01*
X95403924Y-83284833D01*
X95406987Y-83286444D01*
X95416036Y-83289315D01*
X95496037Y-83333296D01*
X95574874Y-83374774D01*
X95582682Y-83380929D01*
X95596653Y-83388610D01*
X95662324Y-83443715D01*
X95726566Y-83494359D01*
X95737392Y-83506704D01*
X95754544Y-83521096D01*
X95804471Y-83583193D01*
X95853927Y-83639587D01*
X95865635Y-83659266D01*
X95883694Y-83681727D01*
X95917716Y-83746805D01*
X95952690Y-83805590D01*
X95962860Y-83833157D01*
X95979185Y-83864384D01*
X95998143Y-83928798D01*
X96019545Y-83986811D01*
X96025616Y-84022142D01*
X96037379Y-84062109D01*
X96042891Y-84122675D01*
X96052258Y-84177189D01*
X96051704Y-84219516D01*
X96056059Y-84267373D01*
X96050368Y-84321519D01*
X96049729Y-84370331D01*
X96040206Y-84418209D01*
X96034515Y-84472355D01*
X96020305Y-84518259D01*
X96012046Y-84559783D01*
X95991545Y-84611169D01*
X95973566Y-84669249D01*
X95953755Y-84705889D01*
X95940468Y-84739192D01*
X95907469Y-84791493D01*
X95875534Y-84850555D01*
X95853073Y-84877706D01*
X95837395Y-84902554D01*
X95790969Y-84952777D01*
X95744154Y-85009367D01*
X95721818Y-85027584D01*
X95706275Y-85044398D01*
X95646177Y-85089276D01*
X95584429Y-85139636D01*
X95564659Y-85150148D01*
X95551503Y-85159972D01*
X95478147Y-85196147D01*
X95402443Y-85236399D01*
X95387175Y-85241009D01*
X95378262Y-85245404D01*
X95292565Y-85269573D01*
X95205128Y-85295972D01*
X95195676Y-85296899D01*
X95192353Y-85297836D01*
X95093147Y-85306952D01*
X95051861Y-85311000D01*
X94351620Y-85311000D01*
X94180428Y-85293007D01*
X94091449Y-85264781D01*
X93996076Y-85235167D01*
X93993013Y-85233556D01*
X93983964Y-85230685D01*
X93903963Y-85186704D01*
X93825126Y-85145226D01*
X93817318Y-85139071D01*
X93803347Y-85131390D01*
X93737676Y-85076285D01*
X93673434Y-85025641D01*
X93662608Y-85013296D01*
X93645456Y-84998904D01*
X93595529Y-84936807D01*
X93546073Y-84880413D01*
X93534365Y-84860734D01*
X93516306Y-84838273D01*
X93482284Y-84773195D01*
X93447310Y-84714410D01*
X93437140Y-84686843D01*
X93420815Y-84655616D01*
X93401857Y-84591202D01*
X93380455Y-84533189D01*
X93374384Y-84497858D01*
X93362621Y-84457891D01*
X93357109Y-84397325D01*
X93347742Y-84342811D01*
X93348296Y-84300484D01*
X93343941Y-84252627D01*
X93349632Y-84198481D01*
X93350271Y-84149669D01*
X93359794Y-84101791D01*
X93365485Y-84047645D01*
X93379695Y-84001741D01*
X93387954Y-83960217D01*
X93408455Y-83908831D01*
X93426434Y-83850751D01*
X93446245Y-83814111D01*
X93459532Y-83780808D01*
X93492531Y-83728507D01*
X93524466Y-83669445D01*
X93546927Y-83642294D01*
X93562605Y-83617446D01*
X93609031Y-83567223D01*
X93655846Y-83510633D01*
X93678182Y-83492416D01*
X93693725Y-83475602D01*
X93753823Y-83430724D01*
X93815571Y-83380364D01*
X93835341Y-83369852D01*
X93848497Y-83360028D01*
X93921853Y-83323853D01*
X93997557Y-83283601D01*
X94012825Y-83278991D01*
X94021738Y-83274596D01*
X94107435Y-83250427D01*
X94194872Y-83224028D01*
X94204324Y-83223101D01*
X94207647Y-83222164D01*
X94306853Y-83213048D01*
X94348139Y-83209000D01*
X95048380Y-83209000D01*
X95219572Y-83226993D01*
X95219572Y-83226993D01*
G37*
G36*
X95219572Y-80686993D02*
G01*
X95308551Y-80715219D01*
X95403924Y-80744833D01*
X95406987Y-80746444D01*
X95416036Y-80749315D01*
X95496037Y-80793296D01*
X95574874Y-80834774D01*
X95582682Y-80840929D01*
X95596653Y-80848610D01*
X95662324Y-80903715D01*
X95726566Y-80954359D01*
X95737392Y-80966704D01*
X95754544Y-80981096D01*
X95804471Y-81043193D01*
X95853927Y-81099587D01*
X95865635Y-81119266D01*
X95883694Y-81141727D01*
X95917716Y-81206805D01*
X95952690Y-81265590D01*
X95962860Y-81293157D01*
X95979185Y-81324384D01*
X95998143Y-81388798D01*
X96019545Y-81446811D01*
X96025616Y-81482142D01*
X96037379Y-81522109D01*
X96042891Y-81582675D01*
X96052258Y-81637189D01*
X96051704Y-81679516D01*
X96056059Y-81727373D01*
X96050368Y-81781519D01*
X96049729Y-81830331D01*
X96040206Y-81878209D01*
X96034515Y-81932355D01*
X96020305Y-81978259D01*
X96012046Y-82019783D01*
X95991545Y-82071169D01*
X95973566Y-82129249D01*
X95953755Y-82165889D01*
X95940468Y-82199192D01*
X95907469Y-82251493D01*
X95875534Y-82310555D01*
X95853073Y-82337706D01*
X95837395Y-82362554D01*
X95790969Y-82412777D01*
X95744154Y-82469367D01*
X95721818Y-82487584D01*
X95706275Y-82504398D01*
X95646177Y-82549276D01*
X95584429Y-82599636D01*
X95564659Y-82610148D01*
X95551503Y-82619972D01*
X95478147Y-82656147D01*
X95402443Y-82696399D01*
X95387175Y-82701009D01*
X95378262Y-82705404D01*
X95292565Y-82729573D01*
X95205128Y-82755972D01*
X95195676Y-82756899D01*
X95192353Y-82757836D01*
X95093147Y-82766952D01*
X95051861Y-82771000D01*
X94351620Y-82771000D01*
X94180428Y-82753007D01*
X94091449Y-82724781D01*
X93996076Y-82695167D01*
X93993013Y-82693556D01*
X93983964Y-82690685D01*
X93903963Y-82646704D01*
X93825126Y-82605226D01*
X93817318Y-82599071D01*
X93803347Y-82591390D01*
X93737676Y-82536285D01*
X93673434Y-82485641D01*
X93662608Y-82473296D01*
X93645456Y-82458904D01*
X93595529Y-82396807D01*
X93546073Y-82340413D01*
X93534365Y-82320734D01*
X93516306Y-82298273D01*
X93482284Y-82233195D01*
X93447310Y-82174410D01*
X93437140Y-82146843D01*
X93420815Y-82115616D01*
X93401857Y-82051202D01*
X93380455Y-81993189D01*
X93374384Y-81957858D01*
X93362621Y-81917891D01*
X93357109Y-81857325D01*
X93347742Y-81802811D01*
X93348296Y-81760484D01*
X93343941Y-81712627D01*
X93349632Y-81658481D01*
X93350271Y-81609669D01*
X93359794Y-81561791D01*
X93365485Y-81507645D01*
X93379695Y-81461741D01*
X93387954Y-81420217D01*
X93408455Y-81368831D01*
X93426434Y-81310751D01*
X93446245Y-81274111D01*
X93459532Y-81240808D01*
X93492531Y-81188507D01*
X93524466Y-81129445D01*
X93546927Y-81102294D01*
X93562605Y-81077446D01*
X93609031Y-81027223D01*
X93655846Y-80970633D01*
X93678182Y-80952416D01*
X93693725Y-80935602D01*
X93753823Y-80890724D01*
X93815571Y-80840364D01*
X93835341Y-80829852D01*
X93848497Y-80820028D01*
X93921853Y-80783853D01*
X93997557Y-80743601D01*
X94012825Y-80738991D01*
X94021738Y-80734596D01*
X94107435Y-80710427D01*
X94194872Y-80684028D01*
X94204324Y-80683101D01*
X94207647Y-80682164D01*
X94306853Y-80673048D01*
X94348139Y-80669000D01*
X95048380Y-80669000D01*
X95219572Y-80686993D01*
X95219572Y-80686993D01*
G37*
G36*
X95219572Y-78146993D02*
G01*
X95308551Y-78175219D01*
X95403924Y-78204833D01*
X95406987Y-78206444D01*
X95416036Y-78209315D01*
X95496037Y-78253296D01*
X95574874Y-78294774D01*
X95582682Y-78300929D01*
X95596653Y-78308610D01*
X95662324Y-78363715D01*
X95726566Y-78414359D01*
X95737392Y-78426704D01*
X95754544Y-78441096D01*
X95804471Y-78503193D01*
X95853927Y-78559587D01*
X95865635Y-78579266D01*
X95883694Y-78601727D01*
X95917716Y-78666805D01*
X95952690Y-78725590D01*
X95962860Y-78753157D01*
X95979185Y-78784384D01*
X95998143Y-78848798D01*
X96019545Y-78906811D01*
X96025616Y-78942142D01*
X96037379Y-78982109D01*
X96042891Y-79042675D01*
X96052258Y-79097189D01*
X96051704Y-79139516D01*
X96056059Y-79187373D01*
X96050368Y-79241519D01*
X96049729Y-79290331D01*
X96040206Y-79338209D01*
X96034515Y-79392355D01*
X96020305Y-79438259D01*
X96012046Y-79479783D01*
X95991545Y-79531169D01*
X95973566Y-79589249D01*
X95953755Y-79625889D01*
X95940468Y-79659192D01*
X95907469Y-79711493D01*
X95875534Y-79770555D01*
X95853073Y-79797706D01*
X95837395Y-79822554D01*
X95790969Y-79872777D01*
X95744154Y-79929367D01*
X95721818Y-79947584D01*
X95706275Y-79964398D01*
X95646177Y-80009276D01*
X95584429Y-80059636D01*
X95564659Y-80070148D01*
X95551503Y-80079972D01*
X95478147Y-80116147D01*
X95402443Y-80156399D01*
X95387175Y-80161009D01*
X95378262Y-80165404D01*
X95292565Y-80189573D01*
X95205128Y-80215972D01*
X95195676Y-80216899D01*
X95192353Y-80217836D01*
X95093147Y-80226952D01*
X95051861Y-80231000D01*
X94351620Y-80231000D01*
X94180428Y-80213007D01*
X94091449Y-80184781D01*
X93996076Y-80155167D01*
X93993013Y-80153556D01*
X93983964Y-80150685D01*
X93903963Y-80106704D01*
X93825126Y-80065226D01*
X93817318Y-80059071D01*
X93803347Y-80051390D01*
X93737676Y-79996285D01*
X93673434Y-79945641D01*
X93662608Y-79933296D01*
X93645456Y-79918904D01*
X93595529Y-79856807D01*
X93546073Y-79800413D01*
X93534365Y-79780734D01*
X93516306Y-79758273D01*
X93482284Y-79693195D01*
X93447310Y-79634410D01*
X93437140Y-79606843D01*
X93420815Y-79575616D01*
X93401857Y-79511202D01*
X93380455Y-79453189D01*
X93374384Y-79417858D01*
X93362621Y-79377891D01*
X93357109Y-79317325D01*
X93347742Y-79262811D01*
X93348296Y-79220484D01*
X93343941Y-79172627D01*
X93349632Y-79118481D01*
X93350271Y-79069669D01*
X93359794Y-79021791D01*
X93365485Y-78967645D01*
X93379695Y-78921741D01*
X93387954Y-78880217D01*
X93408455Y-78828831D01*
X93426434Y-78770751D01*
X93446245Y-78734111D01*
X93459532Y-78700808D01*
X93492531Y-78648507D01*
X93524466Y-78589445D01*
X93546927Y-78562294D01*
X93562605Y-78537446D01*
X93609031Y-78487223D01*
X93655846Y-78430633D01*
X93678182Y-78412416D01*
X93693725Y-78395602D01*
X93753823Y-78350724D01*
X93815571Y-78300364D01*
X93835341Y-78289852D01*
X93848497Y-78280028D01*
X93921853Y-78243853D01*
X93997557Y-78203601D01*
X94012825Y-78198991D01*
X94021738Y-78194596D01*
X94107435Y-78170427D01*
X94194872Y-78144028D01*
X94204324Y-78143101D01*
X94207647Y-78142164D01*
X94306853Y-78133048D01*
X94348139Y-78129000D01*
X95048380Y-78129000D01*
X95219572Y-78146993D01*
X95219572Y-78146993D01*
G37*
G36*
X95219572Y-75606993D02*
G01*
X95308551Y-75635219D01*
X95403924Y-75664833D01*
X95406987Y-75666444D01*
X95416036Y-75669315D01*
X95496037Y-75713296D01*
X95574874Y-75754774D01*
X95582682Y-75760929D01*
X95596653Y-75768610D01*
X95662324Y-75823715D01*
X95726566Y-75874359D01*
X95737392Y-75886704D01*
X95754544Y-75901096D01*
X95804471Y-75963193D01*
X95853927Y-76019587D01*
X95865635Y-76039266D01*
X95883694Y-76061727D01*
X95917716Y-76126805D01*
X95952690Y-76185590D01*
X95962860Y-76213157D01*
X95979185Y-76244384D01*
X95998143Y-76308798D01*
X96019545Y-76366811D01*
X96025616Y-76402142D01*
X96037379Y-76442109D01*
X96042891Y-76502675D01*
X96052258Y-76557189D01*
X96051704Y-76599516D01*
X96056059Y-76647373D01*
X96050368Y-76701519D01*
X96049729Y-76750331D01*
X96040206Y-76798209D01*
X96034515Y-76852355D01*
X96020305Y-76898259D01*
X96012046Y-76939783D01*
X95991545Y-76991169D01*
X95973566Y-77049249D01*
X95953755Y-77085889D01*
X95940468Y-77119192D01*
X95907469Y-77171493D01*
X95875534Y-77230555D01*
X95853073Y-77257706D01*
X95837395Y-77282554D01*
X95790969Y-77332777D01*
X95744154Y-77389367D01*
X95721818Y-77407584D01*
X95706275Y-77424398D01*
X95646177Y-77469276D01*
X95584429Y-77519636D01*
X95564659Y-77530148D01*
X95551503Y-77539972D01*
X95478147Y-77576147D01*
X95402443Y-77616399D01*
X95387175Y-77621009D01*
X95378262Y-77625404D01*
X95292565Y-77649573D01*
X95205128Y-77675972D01*
X95195676Y-77676899D01*
X95192353Y-77677836D01*
X95093147Y-77686952D01*
X95051861Y-77691000D01*
X94351620Y-77691000D01*
X94180428Y-77673007D01*
X94091449Y-77644781D01*
X93996076Y-77615167D01*
X93993013Y-77613556D01*
X93983964Y-77610685D01*
X93903963Y-77566704D01*
X93825126Y-77525226D01*
X93817318Y-77519071D01*
X93803347Y-77511390D01*
X93737676Y-77456285D01*
X93673434Y-77405641D01*
X93662608Y-77393296D01*
X93645456Y-77378904D01*
X93595529Y-77316807D01*
X93546073Y-77260413D01*
X93534365Y-77240734D01*
X93516306Y-77218273D01*
X93482284Y-77153195D01*
X93447310Y-77094410D01*
X93437140Y-77066843D01*
X93420815Y-77035616D01*
X93401857Y-76971202D01*
X93380455Y-76913189D01*
X93374384Y-76877858D01*
X93362621Y-76837891D01*
X93357109Y-76777325D01*
X93347742Y-76722811D01*
X93348296Y-76680484D01*
X93343941Y-76632627D01*
X93349632Y-76578481D01*
X93350271Y-76529669D01*
X93359794Y-76481791D01*
X93365485Y-76427645D01*
X93379695Y-76381741D01*
X93387954Y-76340217D01*
X93408455Y-76288831D01*
X93426434Y-76230751D01*
X93446245Y-76194111D01*
X93459532Y-76160808D01*
X93492531Y-76108507D01*
X93524466Y-76049445D01*
X93546927Y-76022294D01*
X93562605Y-75997446D01*
X93609031Y-75947223D01*
X93655846Y-75890633D01*
X93678182Y-75872416D01*
X93693725Y-75855602D01*
X93753823Y-75810724D01*
X93815571Y-75760364D01*
X93835341Y-75749852D01*
X93848497Y-75740028D01*
X93921853Y-75703853D01*
X93997557Y-75663601D01*
X94012825Y-75658991D01*
X94021738Y-75654596D01*
X94107435Y-75630427D01*
X94194872Y-75604028D01*
X94204324Y-75603101D01*
X94207647Y-75602164D01*
X94306853Y-75593048D01*
X94348139Y-75589000D01*
X95048380Y-75589000D01*
X95219572Y-75606993D01*
X95219572Y-75606993D01*
G37*
G36*
X57462146Y-72399320D02*
G01*
X57513795Y-72399320D01*
X57573482Y-72409845D01*
X57628877Y-72415081D01*
X57680439Y-72428704D01*
X57737927Y-72438841D01*
X57788570Y-72457273D01*
X57835667Y-72469717D01*
X57890654Y-72494429D01*
X57951791Y-72516681D01*
X57992623Y-72540255D01*
X58030756Y-72557393D01*
X58086800Y-72594629D01*
X58148889Y-72630476D01*
X58179829Y-72656437D01*
X58208901Y-72675753D01*
X58263260Y-72726444D01*
X58323233Y-72776767D01*
X58344847Y-72802525D01*
X58365323Y-72821620D01*
X58415048Y-72886188D01*
X58469524Y-72951111D01*
X58482938Y-72974345D01*
X58495826Y-72991080D01*
X58537851Y-73069456D01*
X58583319Y-73148209D01*
X58590169Y-73167029D01*
X58596896Y-73179575D01*
X58628143Y-73271363D01*
X58661159Y-73362073D01*
X58663454Y-73375086D01*
X58665822Y-73382043D01*
X58683354Y-73487943D01*
X58700680Y-73586205D01*
X58700680Y-73813795D01*
X58694170Y-73850716D01*
X58693653Y-73871862D01*
X58676239Y-73952407D01*
X58661159Y-74037927D01*
X58652759Y-74061007D01*
X58648780Y-74079409D01*
X58615095Y-74164487D01*
X58583319Y-74251791D01*
X58574439Y-74267172D01*
X58570044Y-74278272D01*
X58518566Y-74363946D01*
X58469524Y-74448889D01*
X58462491Y-74457270D01*
X58459885Y-74461608D01*
X58386432Y-74547914D01*
X58323233Y-74623233D01*
X58254274Y-74681096D01*
X58157898Y-74762540D01*
X58155530Y-74763952D01*
X58148889Y-74769524D01*
X58062925Y-74819156D01*
X57974184Y-74872056D01*
X57965203Y-74875576D01*
X57951791Y-74883319D01*
X57862718Y-74915739D01*
X57775046Y-74950097D01*
X57758877Y-74953534D01*
X57737927Y-74961159D01*
X57650357Y-74976600D01*
X57565838Y-74994565D01*
X57542451Y-74995627D01*
X57513795Y-75000680D01*
X57431186Y-75000680D01*
X57352178Y-75004268D01*
X57322088Y-75000680D01*
X57286205Y-75000680D01*
X57211252Y-74987464D01*
X57139796Y-74978943D01*
X57104077Y-74968565D01*
X57062073Y-74961159D01*
X56996757Y-74937386D01*
X56934402Y-74919270D01*
X56894633Y-74900216D01*
X56848209Y-74883319D01*
X56793790Y-74851900D01*
X56741517Y-74826855D01*
X56699719Y-74797588D01*
X56651111Y-74769524D01*
X56608116Y-74733447D01*
X56566315Y-74704178D01*
X56524899Y-74663620D01*
X56476767Y-74623233D01*
X56445014Y-74585391D01*
X56413502Y-74554532D01*
X56375147Y-74502126D01*
X56330476Y-74448889D01*
X56309152Y-74411954D01*
X56287181Y-74381935D01*
X56254734Y-74317701D01*
X56216681Y-74251791D01*
X56204408Y-74218072D01*
X56190748Y-74191029D01*
X56167097Y-74115559D01*
X56138841Y-74037927D01*
X56133789Y-74009276D01*
X56126787Y-73986933D01*
X56114762Y-73901368D01*
X56099320Y-73813795D01*
X56099320Y-73791494D01*
X56097020Y-73775129D01*
X56099320Y-73681025D01*
X56099320Y-73586205D01*
X56102010Y-73570947D01*
X56102246Y-73561308D01*
X56121599Y-73459856D01*
X56138841Y-73362073D01*
X56141806Y-73353926D01*
X56142323Y-73351217D01*
X56185936Y-73232681D01*
X56216681Y-73148209D01*
X56265847Y-73063051D01*
X56321822Y-72964517D01*
X56325006Y-72960585D01*
X56330476Y-72951111D01*
X56393535Y-72875960D01*
X56456424Y-72798299D01*
X56465348Y-72790376D01*
X56476767Y-72776767D01*
X56547953Y-72717035D01*
X56616366Y-72656295D01*
X56632297Y-72646263D01*
X56651111Y-72630476D01*
X56726305Y-72587063D01*
X56797350Y-72542323D01*
X56821056Y-72532358D01*
X56848209Y-72516681D01*
X56923801Y-72489168D01*
X56994523Y-72459439D01*
X57026241Y-72451883D01*
X57062073Y-72438841D01*
X57134853Y-72426008D01*
X57202580Y-72409873D01*
X57241982Y-72407118D01*
X57286205Y-72399320D01*
X57353497Y-72399320D01*
X57415949Y-72394953D01*
X57462146Y-72399320D01*
X57462146Y-72399320D01*
G37*
G36*
X6319572Y-68106993D02*
G01*
X6408551Y-68135219D01*
X6503924Y-68164833D01*
X6506987Y-68166444D01*
X6516036Y-68169315D01*
X6596037Y-68213296D01*
X6674874Y-68254774D01*
X6682682Y-68260929D01*
X6696653Y-68268610D01*
X6762324Y-68323715D01*
X6826566Y-68374359D01*
X6837392Y-68386704D01*
X6854544Y-68401096D01*
X6904471Y-68463193D01*
X6953927Y-68519587D01*
X6965635Y-68539266D01*
X6983694Y-68561727D01*
X7017716Y-68626805D01*
X7052690Y-68685590D01*
X7062860Y-68713157D01*
X7079185Y-68744384D01*
X7098143Y-68808798D01*
X7119545Y-68866811D01*
X7125616Y-68902142D01*
X7137379Y-68942109D01*
X7142891Y-69002675D01*
X7152258Y-69057189D01*
X7151704Y-69099516D01*
X7156059Y-69147373D01*
X7150368Y-69201519D01*
X7149729Y-69250331D01*
X7140206Y-69298209D01*
X7134515Y-69352355D01*
X7120305Y-69398259D01*
X7112046Y-69439783D01*
X7091545Y-69491169D01*
X7073566Y-69549249D01*
X7053755Y-69585889D01*
X7040468Y-69619192D01*
X7007469Y-69671493D01*
X6975534Y-69730555D01*
X6953073Y-69757706D01*
X6937395Y-69782554D01*
X6890969Y-69832777D01*
X6844154Y-69889367D01*
X6821818Y-69907584D01*
X6806275Y-69924398D01*
X6746177Y-69969276D01*
X6684429Y-70019636D01*
X6664659Y-70030148D01*
X6651503Y-70039972D01*
X6578147Y-70076147D01*
X6502443Y-70116399D01*
X6487175Y-70121009D01*
X6478262Y-70125404D01*
X6392565Y-70149573D01*
X6305128Y-70175972D01*
X6295676Y-70176899D01*
X6292353Y-70177836D01*
X6193147Y-70186952D01*
X6151861Y-70191000D01*
X5451620Y-70191000D01*
X5280428Y-70173007D01*
X5191449Y-70144781D01*
X5096076Y-70115167D01*
X5093013Y-70113556D01*
X5083964Y-70110685D01*
X5003963Y-70066704D01*
X4925126Y-70025226D01*
X4917318Y-70019071D01*
X4903347Y-70011390D01*
X4837676Y-69956285D01*
X4773434Y-69905641D01*
X4762608Y-69893296D01*
X4745456Y-69878904D01*
X4695529Y-69816807D01*
X4646073Y-69760413D01*
X4634365Y-69740734D01*
X4616306Y-69718273D01*
X4582284Y-69653195D01*
X4547310Y-69594410D01*
X4537140Y-69566843D01*
X4520815Y-69535616D01*
X4501857Y-69471202D01*
X4480455Y-69413189D01*
X4474384Y-69377858D01*
X4462621Y-69337891D01*
X4457109Y-69277325D01*
X4447742Y-69222811D01*
X4448296Y-69180484D01*
X4443941Y-69132627D01*
X4449632Y-69078481D01*
X4450271Y-69029669D01*
X4459794Y-68981791D01*
X4465485Y-68927645D01*
X4479695Y-68881741D01*
X4487954Y-68840217D01*
X4508455Y-68788831D01*
X4526434Y-68730751D01*
X4546245Y-68694111D01*
X4559532Y-68660808D01*
X4592531Y-68608507D01*
X4624466Y-68549445D01*
X4646927Y-68522294D01*
X4662605Y-68497446D01*
X4709031Y-68447223D01*
X4755846Y-68390633D01*
X4778182Y-68372416D01*
X4793725Y-68355602D01*
X4853823Y-68310724D01*
X4915571Y-68260364D01*
X4935341Y-68249852D01*
X4948497Y-68240028D01*
X5021853Y-68203853D01*
X5097557Y-68163601D01*
X5112825Y-68158991D01*
X5121738Y-68154596D01*
X5207435Y-68130427D01*
X5294872Y-68104028D01*
X5304324Y-68103101D01*
X5307647Y-68102164D01*
X5406853Y-68093048D01*
X5448139Y-68089000D01*
X6148380Y-68089000D01*
X6319572Y-68106993D01*
X6319572Y-68106993D01*
G37*
G36*
X57462146Y-67399320D02*
G01*
X57513795Y-67399320D01*
X57573482Y-67409845D01*
X57628877Y-67415081D01*
X57680439Y-67428704D01*
X57737927Y-67438841D01*
X57788570Y-67457273D01*
X57835667Y-67469717D01*
X57890654Y-67494429D01*
X57951791Y-67516681D01*
X57992623Y-67540255D01*
X58030756Y-67557393D01*
X58086800Y-67594629D01*
X58148889Y-67630476D01*
X58179829Y-67656437D01*
X58208901Y-67675753D01*
X58263260Y-67726444D01*
X58323233Y-67776767D01*
X58344847Y-67802525D01*
X58365323Y-67821620D01*
X58415048Y-67886188D01*
X58469524Y-67951111D01*
X58482938Y-67974345D01*
X58495826Y-67991080D01*
X58537851Y-68069456D01*
X58583319Y-68148209D01*
X58590169Y-68167029D01*
X58596896Y-68179575D01*
X58628143Y-68271363D01*
X58661159Y-68362073D01*
X58663454Y-68375086D01*
X58665822Y-68382043D01*
X58683354Y-68487943D01*
X58700680Y-68586205D01*
X58700680Y-68813795D01*
X58694170Y-68850716D01*
X58693653Y-68871862D01*
X58676239Y-68952407D01*
X58661159Y-69037927D01*
X58652759Y-69061007D01*
X58648780Y-69079409D01*
X58615095Y-69164487D01*
X58583319Y-69251791D01*
X58574439Y-69267172D01*
X58570044Y-69278272D01*
X58518566Y-69363946D01*
X58469524Y-69448889D01*
X58462491Y-69457270D01*
X58459885Y-69461608D01*
X58386432Y-69547914D01*
X58323233Y-69623233D01*
X58254274Y-69681096D01*
X58157898Y-69762540D01*
X58155530Y-69763952D01*
X58148889Y-69769524D01*
X58062925Y-69819156D01*
X57974184Y-69872056D01*
X57965203Y-69875576D01*
X57951791Y-69883319D01*
X57862718Y-69915739D01*
X57775046Y-69950097D01*
X57758877Y-69953534D01*
X57737927Y-69961159D01*
X57650357Y-69976600D01*
X57565838Y-69994565D01*
X57542451Y-69995627D01*
X57513795Y-70000680D01*
X57431186Y-70000680D01*
X57352178Y-70004268D01*
X57322088Y-70000680D01*
X57286205Y-70000680D01*
X57211252Y-69987464D01*
X57139796Y-69978943D01*
X57104077Y-69968565D01*
X57062073Y-69961159D01*
X56996757Y-69937386D01*
X56934402Y-69919270D01*
X56894633Y-69900216D01*
X56848209Y-69883319D01*
X56793790Y-69851900D01*
X56741517Y-69826855D01*
X56699719Y-69797588D01*
X56651111Y-69769524D01*
X56608116Y-69733447D01*
X56566315Y-69704178D01*
X56524899Y-69663620D01*
X56476767Y-69623233D01*
X56445014Y-69585391D01*
X56413502Y-69554532D01*
X56375147Y-69502126D01*
X56330476Y-69448889D01*
X56309152Y-69411954D01*
X56287181Y-69381935D01*
X56254734Y-69317701D01*
X56216681Y-69251791D01*
X56204408Y-69218072D01*
X56190748Y-69191029D01*
X56167097Y-69115559D01*
X56138841Y-69037927D01*
X56133789Y-69009276D01*
X56126787Y-68986933D01*
X56114762Y-68901368D01*
X56099320Y-68813795D01*
X56099320Y-68791494D01*
X56097020Y-68775129D01*
X56099320Y-68681025D01*
X56099320Y-68586205D01*
X56102010Y-68570947D01*
X56102246Y-68561308D01*
X56121599Y-68459856D01*
X56138841Y-68362073D01*
X56141806Y-68353926D01*
X56142323Y-68351217D01*
X56185936Y-68232681D01*
X56216681Y-68148209D01*
X56265847Y-68063051D01*
X56321822Y-67964517D01*
X56325006Y-67960585D01*
X56330476Y-67951111D01*
X56393535Y-67875960D01*
X56456424Y-67798299D01*
X56465348Y-67790376D01*
X56476767Y-67776767D01*
X56547953Y-67717035D01*
X56616366Y-67656295D01*
X56632297Y-67646263D01*
X56651111Y-67630476D01*
X56726305Y-67587063D01*
X56797350Y-67542323D01*
X56821056Y-67532358D01*
X56848209Y-67516681D01*
X56923801Y-67489168D01*
X56994523Y-67459439D01*
X57026241Y-67451883D01*
X57062073Y-67438841D01*
X57134853Y-67426008D01*
X57202580Y-67409873D01*
X57241982Y-67407118D01*
X57286205Y-67399320D01*
X57353497Y-67399320D01*
X57415949Y-67394953D01*
X57462146Y-67399320D01*
X57462146Y-67399320D01*
G37*
G36*
X96087299Y-65906359D02*
G01*
X96104169Y-65917631D01*
X96115441Y-65934501D01*
X96121848Y-65966712D01*
X96121848Y-67942088D01*
X96119399Y-67954400D01*
X96115441Y-67974299D01*
X96104169Y-67991169D01*
X96087299Y-68002441D01*
X96067400Y-68006399D01*
X96055088Y-68008848D01*
X93479712Y-68008848D01*
X93447501Y-68002441D01*
X93430631Y-67991169D01*
X93419359Y-67974299D01*
X93412952Y-67942088D01*
X93412952Y-65966712D01*
X93419359Y-65934501D01*
X93430631Y-65917631D01*
X93447501Y-65906359D01*
X93479712Y-65899952D01*
X96055088Y-65899952D01*
X96087299Y-65906359D01*
X96087299Y-65906359D01*
G37*
G36*
X7119899Y-65551959D02*
G01*
X7136769Y-65563231D01*
X7148041Y-65580101D01*
X7154448Y-65612312D01*
X7154448Y-67587688D01*
X7151999Y-67600000D01*
X7148041Y-67619899D01*
X7136769Y-67636769D01*
X7119899Y-67648041D01*
X7100000Y-67651999D01*
X7087688Y-67654448D01*
X4512312Y-67654448D01*
X4480101Y-67648041D01*
X4463231Y-67636769D01*
X4451959Y-67619899D01*
X4445552Y-67587688D01*
X4445552Y-65612312D01*
X4451959Y-65580101D01*
X4463231Y-65563231D01*
X4480101Y-65551959D01*
X4512312Y-65545552D01*
X7087688Y-65545552D01*
X7119899Y-65551959D01*
X7119899Y-65551959D01*
G37*
G36*
X95286972Y-63381393D02*
G01*
X95375951Y-63409619D01*
X95471324Y-63439233D01*
X95474387Y-63440844D01*
X95483436Y-63443715D01*
X95563437Y-63487696D01*
X95642274Y-63529174D01*
X95650082Y-63535329D01*
X95664053Y-63543010D01*
X95729724Y-63598115D01*
X95793966Y-63648759D01*
X95804792Y-63661104D01*
X95821944Y-63675496D01*
X95871871Y-63737593D01*
X95921327Y-63793987D01*
X95933035Y-63813666D01*
X95951094Y-63836127D01*
X95985116Y-63901205D01*
X96020090Y-63959990D01*
X96030260Y-63987557D01*
X96046585Y-64018784D01*
X96065543Y-64083198D01*
X96086945Y-64141211D01*
X96093016Y-64176542D01*
X96104779Y-64216509D01*
X96110291Y-64277075D01*
X96119658Y-64331589D01*
X96119104Y-64373916D01*
X96123459Y-64421773D01*
X96117768Y-64475919D01*
X96117129Y-64524731D01*
X96107606Y-64572609D01*
X96101915Y-64626755D01*
X96087705Y-64672659D01*
X96079446Y-64714183D01*
X96058945Y-64765569D01*
X96040966Y-64823649D01*
X96021155Y-64860289D01*
X96007868Y-64893592D01*
X95974869Y-64945893D01*
X95942934Y-65004955D01*
X95920473Y-65032106D01*
X95904795Y-65056954D01*
X95858369Y-65107177D01*
X95811554Y-65163767D01*
X95789218Y-65181984D01*
X95773675Y-65198798D01*
X95713577Y-65243676D01*
X95651829Y-65294036D01*
X95632059Y-65304548D01*
X95618903Y-65314372D01*
X95545547Y-65350547D01*
X95469843Y-65390799D01*
X95454575Y-65395409D01*
X95445662Y-65399804D01*
X95359965Y-65423973D01*
X95272528Y-65450372D01*
X95263076Y-65451299D01*
X95259753Y-65452236D01*
X95160547Y-65461352D01*
X95119261Y-65465400D01*
X94419020Y-65465400D01*
X94247828Y-65447407D01*
X94158849Y-65419181D01*
X94063476Y-65389567D01*
X94060413Y-65387956D01*
X94051364Y-65385085D01*
X93971363Y-65341104D01*
X93892526Y-65299626D01*
X93884718Y-65293471D01*
X93870747Y-65285790D01*
X93805076Y-65230685D01*
X93740834Y-65180041D01*
X93730008Y-65167696D01*
X93712856Y-65153304D01*
X93662929Y-65091207D01*
X93613473Y-65034813D01*
X93601765Y-65015134D01*
X93583706Y-64992673D01*
X93549684Y-64927595D01*
X93514710Y-64868810D01*
X93504540Y-64841243D01*
X93488215Y-64810016D01*
X93469257Y-64745602D01*
X93447855Y-64687589D01*
X93441784Y-64652258D01*
X93430021Y-64612291D01*
X93424509Y-64551725D01*
X93415142Y-64497211D01*
X93415696Y-64454884D01*
X93411341Y-64407027D01*
X93417032Y-64352881D01*
X93417671Y-64304069D01*
X93427194Y-64256191D01*
X93432885Y-64202045D01*
X93447095Y-64156141D01*
X93455354Y-64114617D01*
X93475855Y-64063231D01*
X93493834Y-64005151D01*
X93513645Y-63968511D01*
X93526932Y-63935208D01*
X93559931Y-63882907D01*
X93591866Y-63823845D01*
X93614327Y-63796694D01*
X93630005Y-63771846D01*
X93676431Y-63721623D01*
X93723246Y-63665033D01*
X93745582Y-63646816D01*
X93761125Y-63630002D01*
X93821223Y-63585124D01*
X93882971Y-63534764D01*
X93902741Y-63524252D01*
X93915897Y-63514428D01*
X93989253Y-63478253D01*
X94064957Y-63438001D01*
X94080225Y-63433391D01*
X94089138Y-63428996D01*
X94174835Y-63404827D01*
X94262272Y-63378428D01*
X94271724Y-63377501D01*
X94275047Y-63376564D01*
X94374253Y-63367448D01*
X94415539Y-63363400D01*
X95115780Y-63363400D01*
X95286972Y-63381393D01*
X95286972Y-63381393D01*
G37*
G36*
X95286972Y-60841393D02*
G01*
X95375951Y-60869619D01*
X95471324Y-60899233D01*
X95474387Y-60900844D01*
X95483436Y-60903715D01*
X95563437Y-60947696D01*
X95642274Y-60989174D01*
X95650082Y-60995329D01*
X95664053Y-61003010D01*
X95729724Y-61058115D01*
X95793966Y-61108759D01*
X95804792Y-61121104D01*
X95821944Y-61135496D01*
X95871871Y-61197593D01*
X95921327Y-61253987D01*
X95933035Y-61273666D01*
X95951094Y-61296127D01*
X95985116Y-61361205D01*
X96020090Y-61419990D01*
X96030260Y-61447557D01*
X96046585Y-61478784D01*
X96065543Y-61543198D01*
X96086945Y-61601211D01*
X96093016Y-61636542D01*
X96104779Y-61676509D01*
X96110291Y-61737075D01*
X96119658Y-61791589D01*
X96119104Y-61833916D01*
X96123459Y-61881773D01*
X96117768Y-61935919D01*
X96117129Y-61984731D01*
X96107606Y-62032609D01*
X96101915Y-62086755D01*
X96087705Y-62132659D01*
X96079446Y-62174183D01*
X96058945Y-62225569D01*
X96040966Y-62283649D01*
X96021155Y-62320289D01*
X96007868Y-62353592D01*
X95974869Y-62405893D01*
X95942934Y-62464955D01*
X95920473Y-62492106D01*
X95904795Y-62516954D01*
X95858369Y-62567177D01*
X95811554Y-62623767D01*
X95789218Y-62641984D01*
X95773675Y-62658798D01*
X95713577Y-62703676D01*
X95651829Y-62754036D01*
X95632059Y-62764548D01*
X95618903Y-62774372D01*
X95545547Y-62810547D01*
X95469843Y-62850799D01*
X95454575Y-62855409D01*
X95445662Y-62859804D01*
X95359965Y-62883973D01*
X95272528Y-62910372D01*
X95263076Y-62911299D01*
X95259753Y-62912236D01*
X95160547Y-62921352D01*
X95119261Y-62925400D01*
X94419020Y-62925400D01*
X94247828Y-62907407D01*
X94158849Y-62879181D01*
X94063476Y-62849567D01*
X94060413Y-62847956D01*
X94051364Y-62845085D01*
X93971363Y-62801104D01*
X93892526Y-62759626D01*
X93884718Y-62753471D01*
X93870747Y-62745790D01*
X93805076Y-62690685D01*
X93740834Y-62640041D01*
X93730008Y-62627696D01*
X93712856Y-62613304D01*
X93662929Y-62551207D01*
X93613473Y-62494813D01*
X93601765Y-62475134D01*
X93583706Y-62452673D01*
X93549684Y-62387595D01*
X93514710Y-62328810D01*
X93504540Y-62301243D01*
X93488215Y-62270016D01*
X93469257Y-62205602D01*
X93447855Y-62147589D01*
X93441784Y-62112258D01*
X93430021Y-62072291D01*
X93424509Y-62011725D01*
X93415142Y-61957211D01*
X93415696Y-61914884D01*
X93411341Y-61867027D01*
X93417032Y-61812881D01*
X93417671Y-61764069D01*
X93427194Y-61716191D01*
X93432885Y-61662045D01*
X93447095Y-61616141D01*
X93455354Y-61574617D01*
X93475855Y-61523231D01*
X93493834Y-61465151D01*
X93513645Y-61428511D01*
X93526932Y-61395208D01*
X93559931Y-61342907D01*
X93591866Y-61283845D01*
X93614327Y-61256694D01*
X93630005Y-61231846D01*
X93676431Y-61181623D01*
X93723246Y-61125033D01*
X93745582Y-61106816D01*
X93761125Y-61090002D01*
X93821223Y-61045124D01*
X93882971Y-60994764D01*
X93902741Y-60984252D01*
X93915897Y-60974428D01*
X93989253Y-60938253D01*
X94064957Y-60898001D01*
X94080225Y-60893391D01*
X94089138Y-60888996D01*
X94174835Y-60864827D01*
X94262272Y-60838428D01*
X94271724Y-60837501D01*
X94275047Y-60836564D01*
X94374253Y-60827448D01*
X94415539Y-60823400D01*
X95115780Y-60823400D01*
X95286972Y-60841393D01*
X95286972Y-60841393D01*
G37*
G36*
X31764870Y-58645503D02*
G01*
X31820587Y-58643557D01*
X31887861Y-58652056D01*
X31950350Y-58655385D01*
X32006239Y-58667010D01*
X32068205Y-58674838D01*
X32126838Y-58692095D01*
X32181387Y-58703441D01*
X32241309Y-58725785D01*
X32307637Y-58745307D01*
X32356700Y-58768814D01*
X32402485Y-58785887D01*
X32464355Y-58820394D01*
X32532722Y-58853150D01*
X32571870Y-58880359D01*
X32608580Y-58900833D01*
X32669992Y-58948555D01*
X32737669Y-58995592D01*
X32767117Y-59024029D01*
X32794905Y-59045623D01*
X32853181Y-59107140D01*
X32917207Y-59168969D01*
X32937690Y-59196349D01*
X32957196Y-59216940D01*
X33009539Y-59292391D01*
X33066715Y-59368821D01*
X33079424Y-59393130D01*
X33091703Y-59410831D01*
X33135241Y-59499900D01*
X33182347Y-59590005D01*
X33188868Y-59609606D01*
X33195330Y-59622827D01*
X33227204Y-59724849D01*
X33261129Y-59826831D01*
X33263351Y-59840547D01*
X33265703Y-59848077D01*
X33283218Y-59963216D01*
X33301033Y-60073207D01*
X33298079Y-60355248D01*
X33291707Y-60389966D01*
X33291166Y-60408197D01*
X33271162Y-60501910D01*
X33253024Y-60600734D01*
X33245639Y-60621474D01*
X33242281Y-60637204D01*
X33204978Y-60735664D01*
X33169300Y-60835859D01*
X33161956Y-60849218D01*
X33158676Y-60857875D01*
X33102486Y-60957393D01*
X33049061Y-61054573D01*
X33043852Y-61061240D01*
X33042659Y-61063353D01*
X32957525Y-61171734D01*
X32895400Y-61251249D01*
X32814204Y-61326438D01*
X32724728Y-61410314D01*
X32720477Y-61413230D01*
X32712271Y-61420829D01*
X32621065Y-61481426D01*
X32530132Y-61543806D01*
X32519346Y-61549009D01*
X32504386Y-61558948D01*
X32409597Y-61601946D01*
X32317593Y-61646324D01*
X32299603Y-61651841D01*
X32277091Y-61662053D01*
X32182529Y-61687745D01*
X32091988Y-61715512D01*
X32066633Y-61719234D01*
X32036237Y-61727492D01*
X31945124Y-61737068D01*
X31858513Y-61749781D01*
X31826058Y-61749583D01*
X31788018Y-61753581D01*
X31703077Y-61748832D01*
X31622537Y-61748340D01*
X31583732Y-61742159D01*
X31538820Y-61739648D01*
X31462188Y-61722799D01*
X31389503Y-61711222D01*
X31345572Y-61697160D01*
X31295056Y-61686053D01*
X31228282Y-61659615D01*
X31164751Y-61639279D01*
X31117318Y-61615681D01*
X31062997Y-61594174D01*
X31007052Y-61560824D01*
X30953481Y-61534173D01*
X30904562Y-61499729D01*
X30848612Y-61466376D01*
X30803850Y-61428816D01*
X30760537Y-61398319D01*
X30712434Y-61352109D01*
X30657418Y-61305945D01*
X30623622Y-61266792D01*
X30590359Y-61234838D01*
X30545609Y-61176413D01*
X30494333Y-61117009D01*
X30470758Y-61078688D01*
X30446869Y-61047499D01*
X30408132Y-60976891D01*
X30363554Y-60904430D01*
X30348980Y-60869071D01*
X30333367Y-60840612D01*
X30303347Y-60758357D01*
X30268444Y-60673676D01*
X30261254Y-60643023D01*
X30252464Y-60618937D01*
X30233818Y-60526049D01*
X30211451Y-60430684D01*
X30209727Y-60406029D01*
X30206023Y-60387577D01*
X30201300Y-60285527D01*
X30194040Y-60181705D01*
X30195668Y-60163820D01*
X30195114Y-60151855D01*
X30206738Y-60042177D01*
X30216661Y-59933146D01*
X30219442Y-59922316D01*
X30219985Y-59917190D01*
X30251189Y-59798668D01*
X30278731Y-59691401D01*
X30319091Y-59599021D01*
X30373971Y-59472502D01*
X30375264Y-59470445D01*
X30378652Y-59462690D01*
X30438740Y-59369452D01*
X30499542Y-59272713D01*
X30505595Y-59265713D01*
X30513855Y-59252896D01*
X30585058Y-59173817D01*
X30653893Y-59094212D01*
X30666124Y-59083785D01*
X30680861Y-59067417D01*
X30759191Y-59004438D01*
X30833465Y-58941114D01*
X30852935Y-58929065D01*
X30875373Y-58911025D01*
X30957267Y-58864503D01*
X31034129Y-58816939D01*
X31061484Y-58805299D01*
X31092387Y-58787744D01*
X31174567Y-58757182D01*
X31251259Y-58724549D01*
X31286685Y-58715486D01*
X31326320Y-58700746D01*
X31405882Y-58684992D01*
X31479877Y-58666062D01*
X31523059Y-58661790D01*
X31571153Y-58652267D01*
X31645594Y-58649668D01*
X31714709Y-58642830D01*
X31764870Y-58645503D01*
X31764870Y-58645503D01*
G37*
G36*
X6381252Y-58886993D02*
G01*
X6470231Y-58915219D01*
X6565604Y-58944833D01*
X6568667Y-58946444D01*
X6577716Y-58949315D01*
X6657717Y-58993296D01*
X6736554Y-59034774D01*
X6744362Y-59040929D01*
X6758333Y-59048610D01*
X6824004Y-59103715D01*
X6888246Y-59154359D01*
X6899072Y-59166704D01*
X6916224Y-59181096D01*
X6966151Y-59243193D01*
X7015607Y-59299587D01*
X7027315Y-59319266D01*
X7045374Y-59341727D01*
X7079396Y-59406805D01*
X7114370Y-59465590D01*
X7124540Y-59493157D01*
X7140865Y-59524384D01*
X7159823Y-59588798D01*
X7181225Y-59646811D01*
X7187296Y-59682142D01*
X7199059Y-59722109D01*
X7204571Y-59782675D01*
X7213938Y-59837189D01*
X7213384Y-59879516D01*
X7217739Y-59927373D01*
X7212048Y-59981519D01*
X7211409Y-60030331D01*
X7201886Y-60078209D01*
X7196195Y-60132355D01*
X7181985Y-60178259D01*
X7173726Y-60219783D01*
X7153225Y-60271169D01*
X7135246Y-60329249D01*
X7115435Y-60365889D01*
X7102148Y-60399192D01*
X7069149Y-60451493D01*
X7037214Y-60510555D01*
X7014753Y-60537706D01*
X6999075Y-60562554D01*
X6952649Y-60612777D01*
X6905834Y-60669367D01*
X6883498Y-60687584D01*
X6867955Y-60704398D01*
X6807857Y-60749276D01*
X6746109Y-60799636D01*
X6726339Y-60810148D01*
X6713183Y-60819972D01*
X6639827Y-60856147D01*
X6564123Y-60896399D01*
X6548855Y-60901009D01*
X6539942Y-60905404D01*
X6454245Y-60929573D01*
X6366808Y-60955972D01*
X6357356Y-60956899D01*
X6354033Y-60957836D01*
X6254827Y-60966952D01*
X6213541Y-60971000D01*
X5513300Y-60971000D01*
X5342108Y-60953007D01*
X5253129Y-60924781D01*
X5157756Y-60895167D01*
X5154693Y-60893556D01*
X5145644Y-60890685D01*
X5065643Y-60846704D01*
X4986806Y-60805226D01*
X4978998Y-60799071D01*
X4965027Y-60791390D01*
X4899356Y-60736285D01*
X4835114Y-60685641D01*
X4824288Y-60673296D01*
X4807136Y-60658904D01*
X4757209Y-60596807D01*
X4707753Y-60540413D01*
X4696045Y-60520734D01*
X4677986Y-60498273D01*
X4643964Y-60433195D01*
X4608990Y-60374410D01*
X4598820Y-60346843D01*
X4582495Y-60315616D01*
X4563537Y-60251202D01*
X4542135Y-60193189D01*
X4536064Y-60157858D01*
X4524301Y-60117891D01*
X4518789Y-60057325D01*
X4509422Y-60002811D01*
X4509976Y-59960484D01*
X4505621Y-59912627D01*
X4511312Y-59858481D01*
X4511951Y-59809669D01*
X4521474Y-59761791D01*
X4527165Y-59707645D01*
X4541375Y-59661741D01*
X4549634Y-59620217D01*
X4570135Y-59568831D01*
X4588114Y-59510751D01*
X4607925Y-59474111D01*
X4621212Y-59440808D01*
X4654211Y-59388507D01*
X4686146Y-59329445D01*
X4708607Y-59302294D01*
X4724285Y-59277446D01*
X4770711Y-59227223D01*
X4817526Y-59170633D01*
X4839862Y-59152416D01*
X4855405Y-59135602D01*
X4915503Y-59090724D01*
X4977251Y-59040364D01*
X4997021Y-59029852D01*
X5010177Y-59020028D01*
X5083533Y-58983853D01*
X5159237Y-58943601D01*
X5174505Y-58938991D01*
X5183418Y-58934596D01*
X5269115Y-58910427D01*
X5356552Y-58884028D01*
X5366004Y-58883101D01*
X5369327Y-58882164D01*
X5468533Y-58873048D01*
X5509819Y-58869000D01*
X6210060Y-58869000D01*
X6381252Y-58886993D01*
X6381252Y-58886993D01*
G37*
G36*
X95286972Y-58301393D02*
G01*
X95375951Y-58329619D01*
X95471324Y-58359233D01*
X95474387Y-58360844D01*
X95483436Y-58363715D01*
X95563437Y-58407696D01*
X95642274Y-58449174D01*
X95650082Y-58455329D01*
X95664053Y-58463010D01*
X95729724Y-58518115D01*
X95793966Y-58568759D01*
X95804792Y-58581104D01*
X95821944Y-58595496D01*
X95871871Y-58657593D01*
X95921327Y-58713987D01*
X95933035Y-58733666D01*
X95951094Y-58756127D01*
X95985116Y-58821205D01*
X96020090Y-58879990D01*
X96030260Y-58907557D01*
X96046585Y-58938784D01*
X96065543Y-59003198D01*
X96086945Y-59061211D01*
X96093016Y-59096542D01*
X96104779Y-59136509D01*
X96110291Y-59197075D01*
X96119658Y-59251589D01*
X96119104Y-59293916D01*
X96123459Y-59341773D01*
X96117768Y-59395919D01*
X96117129Y-59444731D01*
X96107606Y-59492609D01*
X96101915Y-59546755D01*
X96087705Y-59592659D01*
X96079446Y-59634183D01*
X96058945Y-59685569D01*
X96040966Y-59743649D01*
X96021155Y-59780289D01*
X96007868Y-59813592D01*
X95974869Y-59865893D01*
X95942934Y-59924955D01*
X95920473Y-59952106D01*
X95904795Y-59976954D01*
X95858369Y-60027177D01*
X95811554Y-60083767D01*
X95789218Y-60101984D01*
X95773675Y-60118798D01*
X95713577Y-60163676D01*
X95651829Y-60214036D01*
X95632059Y-60224548D01*
X95618903Y-60234372D01*
X95545547Y-60270547D01*
X95469843Y-60310799D01*
X95454575Y-60315409D01*
X95445662Y-60319804D01*
X95359965Y-60343973D01*
X95272528Y-60370372D01*
X95263076Y-60371299D01*
X95259753Y-60372236D01*
X95160547Y-60381352D01*
X95119261Y-60385400D01*
X94419020Y-60385400D01*
X94247828Y-60367407D01*
X94158849Y-60339181D01*
X94063476Y-60309567D01*
X94060413Y-60307956D01*
X94051364Y-60305085D01*
X93971363Y-60261104D01*
X93892526Y-60219626D01*
X93884718Y-60213471D01*
X93870747Y-60205790D01*
X93805076Y-60150685D01*
X93740834Y-60100041D01*
X93730008Y-60087696D01*
X93712856Y-60073304D01*
X93662929Y-60011207D01*
X93613473Y-59954813D01*
X93601765Y-59935134D01*
X93583706Y-59912673D01*
X93549684Y-59847595D01*
X93514710Y-59788810D01*
X93504540Y-59761243D01*
X93488215Y-59730016D01*
X93469257Y-59665602D01*
X93447855Y-59607589D01*
X93441784Y-59572258D01*
X93430021Y-59532291D01*
X93424509Y-59471725D01*
X93415142Y-59417211D01*
X93415696Y-59374884D01*
X93411341Y-59327027D01*
X93417032Y-59272881D01*
X93417671Y-59224069D01*
X93427194Y-59176191D01*
X93432885Y-59122045D01*
X93447095Y-59076141D01*
X93455354Y-59034617D01*
X93475855Y-58983231D01*
X93493834Y-58925151D01*
X93513645Y-58888511D01*
X93526932Y-58855208D01*
X93559931Y-58802907D01*
X93591866Y-58743845D01*
X93614327Y-58716694D01*
X93630005Y-58691846D01*
X93676431Y-58641623D01*
X93723246Y-58585033D01*
X93745582Y-58566816D01*
X93761125Y-58550002D01*
X93821223Y-58505124D01*
X93882971Y-58454764D01*
X93902741Y-58444252D01*
X93915897Y-58434428D01*
X93989253Y-58398253D01*
X94064957Y-58358001D01*
X94080225Y-58353391D01*
X94089138Y-58348996D01*
X94174835Y-58324827D01*
X94262272Y-58298428D01*
X94271724Y-58297501D01*
X94275047Y-58296564D01*
X94374253Y-58287448D01*
X94415539Y-58283400D01*
X95115780Y-58283400D01*
X95286972Y-58301393D01*
X95286972Y-58301393D01*
G37*
G36*
X6381252Y-56346993D02*
G01*
X6470231Y-56375219D01*
X6565604Y-56404833D01*
X6568667Y-56406444D01*
X6577716Y-56409315D01*
X6657717Y-56453296D01*
X6736554Y-56494774D01*
X6744362Y-56500929D01*
X6758333Y-56508610D01*
X6824004Y-56563715D01*
X6888246Y-56614359D01*
X6899072Y-56626704D01*
X6916224Y-56641096D01*
X6966151Y-56703193D01*
X7015607Y-56759587D01*
X7027315Y-56779266D01*
X7045374Y-56801727D01*
X7079396Y-56866805D01*
X7114370Y-56925590D01*
X7124540Y-56953157D01*
X7140865Y-56984384D01*
X7159823Y-57048798D01*
X7181225Y-57106811D01*
X7187296Y-57142142D01*
X7199059Y-57182109D01*
X7204571Y-57242675D01*
X7213938Y-57297189D01*
X7213384Y-57339516D01*
X7217739Y-57387373D01*
X7212048Y-57441519D01*
X7211409Y-57490331D01*
X7201886Y-57538209D01*
X7196195Y-57592355D01*
X7181985Y-57638259D01*
X7173726Y-57679783D01*
X7153225Y-57731169D01*
X7135246Y-57789249D01*
X7115435Y-57825889D01*
X7102148Y-57859192D01*
X7069149Y-57911493D01*
X7037214Y-57970555D01*
X7014753Y-57997706D01*
X6999075Y-58022554D01*
X6952649Y-58072777D01*
X6905834Y-58129367D01*
X6883498Y-58147584D01*
X6867955Y-58164398D01*
X6807857Y-58209276D01*
X6746109Y-58259636D01*
X6726339Y-58270148D01*
X6713183Y-58279972D01*
X6639827Y-58316147D01*
X6564123Y-58356399D01*
X6548855Y-58361009D01*
X6539942Y-58365404D01*
X6454245Y-58389573D01*
X6366808Y-58415972D01*
X6357356Y-58416899D01*
X6354033Y-58417836D01*
X6254827Y-58426952D01*
X6213541Y-58431000D01*
X5513300Y-58431000D01*
X5342108Y-58413007D01*
X5253129Y-58384781D01*
X5157756Y-58355167D01*
X5154693Y-58353556D01*
X5145644Y-58350685D01*
X5065643Y-58306704D01*
X4986806Y-58265226D01*
X4978998Y-58259071D01*
X4965027Y-58251390D01*
X4899356Y-58196285D01*
X4835114Y-58145641D01*
X4824288Y-58133296D01*
X4807136Y-58118904D01*
X4757209Y-58056807D01*
X4707753Y-58000413D01*
X4696045Y-57980734D01*
X4677986Y-57958273D01*
X4643964Y-57893195D01*
X4608990Y-57834410D01*
X4598820Y-57806843D01*
X4582495Y-57775616D01*
X4563537Y-57711202D01*
X4542135Y-57653189D01*
X4536064Y-57617858D01*
X4524301Y-57577891D01*
X4518789Y-57517325D01*
X4509422Y-57462811D01*
X4509976Y-57420484D01*
X4505621Y-57372627D01*
X4511312Y-57318481D01*
X4511951Y-57269669D01*
X4521474Y-57221791D01*
X4527165Y-57167645D01*
X4541375Y-57121741D01*
X4549634Y-57080217D01*
X4570135Y-57028831D01*
X4588114Y-56970751D01*
X4607925Y-56934111D01*
X4621212Y-56900808D01*
X4654211Y-56848507D01*
X4686146Y-56789445D01*
X4708607Y-56762294D01*
X4724285Y-56737446D01*
X4770711Y-56687223D01*
X4817526Y-56630633D01*
X4839862Y-56612416D01*
X4855405Y-56595602D01*
X4915503Y-56550724D01*
X4977251Y-56500364D01*
X4997021Y-56489852D01*
X5010177Y-56480028D01*
X5083533Y-56443853D01*
X5159237Y-56403601D01*
X5174505Y-56398991D01*
X5183418Y-56394596D01*
X5269115Y-56370427D01*
X5356552Y-56344028D01*
X5366004Y-56343101D01*
X5369327Y-56342164D01*
X5468533Y-56333048D01*
X5509819Y-56329000D01*
X6210060Y-56329000D01*
X6381252Y-56346993D01*
X6381252Y-56346993D01*
G37*
G36*
X95286972Y-55761393D02*
G01*
X95375951Y-55789619D01*
X95471324Y-55819233D01*
X95474387Y-55820844D01*
X95483436Y-55823715D01*
X95563437Y-55867696D01*
X95642274Y-55909174D01*
X95650082Y-55915329D01*
X95664053Y-55923010D01*
X95729724Y-55978115D01*
X95793966Y-56028759D01*
X95804792Y-56041104D01*
X95821944Y-56055496D01*
X95871871Y-56117593D01*
X95921327Y-56173987D01*
X95933035Y-56193666D01*
X95951094Y-56216127D01*
X95985116Y-56281205D01*
X96020090Y-56339990D01*
X96030260Y-56367557D01*
X96046585Y-56398784D01*
X96065543Y-56463198D01*
X96086945Y-56521211D01*
X96093016Y-56556542D01*
X96104779Y-56596509D01*
X96110291Y-56657075D01*
X96119658Y-56711589D01*
X96119104Y-56753916D01*
X96123459Y-56801773D01*
X96117768Y-56855919D01*
X96117129Y-56904731D01*
X96107606Y-56952609D01*
X96101915Y-57006755D01*
X96087705Y-57052659D01*
X96079446Y-57094183D01*
X96058945Y-57145569D01*
X96040966Y-57203649D01*
X96021155Y-57240289D01*
X96007868Y-57273592D01*
X95974869Y-57325893D01*
X95942934Y-57384955D01*
X95920473Y-57412106D01*
X95904795Y-57436954D01*
X95858369Y-57487177D01*
X95811554Y-57543767D01*
X95789218Y-57561984D01*
X95773675Y-57578798D01*
X95713577Y-57623676D01*
X95651829Y-57674036D01*
X95632059Y-57684548D01*
X95618903Y-57694372D01*
X95545547Y-57730547D01*
X95469843Y-57770799D01*
X95454575Y-57775409D01*
X95445662Y-57779804D01*
X95359965Y-57803973D01*
X95272528Y-57830372D01*
X95263076Y-57831299D01*
X95259753Y-57832236D01*
X95160547Y-57841352D01*
X95119261Y-57845400D01*
X94419020Y-57845400D01*
X94247828Y-57827407D01*
X94158849Y-57799181D01*
X94063476Y-57769567D01*
X94060413Y-57767956D01*
X94051364Y-57765085D01*
X93971363Y-57721104D01*
X93892526Y-57679626D01*
X93884718Y-57673471D01*
X93870747Y-57665790D01*
X93805076Y-57610685D01*
X93740834Y-57560041D01*
X93730008Y-57547696D01*
X93712856Y-57533304D01*
X93662929Y-57471207D01*
X93613473Y-57414813D01*
X93601765Y-57395134D01*
X93583706Y-57372673D01*
X93549684Y-57307595D01*
X93514710Y-57248810D01*
X93504540Y-57221243D01*
X93488215Y-57190016D01*
X93469257Y-57125602D01*
X93447855Y-57067589D01*
X93441784Y-57032258D01*
X93430021Y-56992291D01*
X93424509Y-56931725D01*
X93415142Y-56877211D01*
X93415696Y-56834884D01*
X93411341Y-56787027D01*
X93417032Y-56732881D01*
X93417671Y-56684069D01*
X93427194Y-56636191D01*
X93432885Y-56582045D01*
X93447095Y-56536141D01*
X93455354Y-56494617D01*
X93475855Y-56443231D01*
X93493834Y-56385151D01*
X93513645Y-56348511D01*
X93526932Y-56315208D01*
X93559931Y-56262907D01*
X93591866Y-56203845D01*
X93614327Y-56176694D01*
X93630005Y-56151846D01*
X93676431Y-56101623D01*
X93723246Y-56045033D01*
X93745582Y-56026816D01*
X93761125Y-56010002D01*
X93821223Y-55965124D01*
X93882971Y-55914764D01*
X93902741Y-55904252D01*
X93915897Y-55894428D01*
X93989253Y-55858253D01*
X94064957Y-55818001D01*
X94080225Y-55813391D01*
X94089138Y-55808996D01*
X94174835Y-55784827D01*
X94262272Y-55758428D01*
X94271724Y-55757501D01*
X94275047Y-55756564D01*
X94374253Y-55747448D01*
X94415539Y-55743400D01*
X95115780Y-55743400D01*
X95286972Y-55761393D01*
X95286972Y-55761393D01*
G37*
G36*
X6381252Y-53806993D02*
G01*
X6470231Y-53835219D01*
X6565604Y-53864833D01*
X6568667Y-53866444D01*
X6577716Y-53869315D01*
X6657717Y-53913296D01*
X6736554Y-53954774D01*
X6744362Y-53960929D01*
X6758333Y-53968610D01*
X6824004Y-54023715D01*
X6888246Y-54074359D01*
X6899072Y-54086704D01*
X6916224Y-54101096D01*
X6966151Y-54163193D01*
X7015607Y-54219587D01*
X7027315Y-54239266D01*
X7045374Y-54261727D01*
X7079396Y-54326805D01*
X7114370Y-54385590D01*
X7124540Y-54413157D01*
X7140865Y-54444384D01*
X7159823Y-54508798D01*
X7181225Y-54566811D01*
X7187296Y-54602142D01*
X7199059Y-54642109D01*
X7204571Y-54702675D01*
X7213938Y-54757189D01*
X7213384Y-54799516D01*
X7217739Y-54847373D01*
X7212048Y-54901519D01*
X7211409Y-54950331D01*
X7201886Y-54998209D01*
X7196195Y-55052355D01*
X7181985Y-55098259D01*
X7173726Y-55139783D01*
X7153225Y-55191169D01*
X7135246Y-55249249D01*
X7115435Y-55285889D01*
X7102148Y-55319192D01*
X7069149Y-55371493D01*
X7037214Y-55430555D01*
X7014753Y-55457706D01*
X6999075Y-55482554D01*
X6952649Y-55532777D01*
X6905834Y-55589367D01*
X6883498Y-55607584D01*
X6867955Y-55624398D01*
X6807857Y-55669276D01*
X6746109Y-55719636D01*
X6726339Y-55730148D01*
X6713183Y-55739972D01*
X6639827Y-55776147D01*
X6564123Y-55816399D01*
X6548855Y-55821009D01*
X6539942Y-55825404D01*
X6454245Y-55849573D01*
X6366808Y-55875972D01*
X6357356Y-55876899D01*
X6354033Y-55877836D01*
X6254827Y-55886952D01*
X6213541Y-55891000D01*
X5513300Y-55891000D01*
X5342108Y-55873007D01*
X5253129Y-55844781D01*
X5157756Y-55815167D01*
X5154693Y-55813556D01*
X5145644Y-55810685D01*
X5065643Y-55766704D01*
X4986806Y-55725226D01*
X4978998Y-55719071D01*
X4965027Y-55711390D01*
X4899356Y-55656285D01*
X4835114Y-55605641D01*
X4824288Y-55593296D01*
X4807136Y-55578904D01*
X4757209Y-55516807D01*
X4707753Y-55460413D01*
X4696045Y-55440734D01*
X4677986Y-55418273D01*
X4643964Y-55353195D01*
X4608990Y-55294410D01*
X4598820Y-55266843D01*
X4582495Y-55235616D01*
X4563537Y-55171202D01*
X4542135Y-55113189D01*
X4536064Y-55077858D01*
X4524301Y-55037891D01*
X4518789Y-54977325D01*
X4509422Y-54922811D01*
X4509976Y-54880484D01*
X4505621Y-54832627D01*
X4511312Y-54778481D01*
X4511951Y-54729669D01*
X4521474Y-54681791D01*
X4527165Y-54627645D01*
X4541375Y-54581741D01*
X4549634Y-54540217D01*
X4570135Y-54488831D01*
X4588114Y-54430751D01*
X4607925Y-54394111D01*
X4621212Y-54360808D01*
X4654211Y-54308507D01*
X4686146Y-54249445D01*
X4708607Y-54222294D01*
X4724285Y-54197446D01*
X4770711Y-54147223D01*
X4817526Y-54090633D01*
X4839862Y-54072416D01*
X4855405Y-54055602D01*
X4915503Y-54010724D01*
X4977251Y-53960364D01*
X4997021Y-53949852D01*
X5010177Y-53940028D01*
X5083533Y-53903853D01*
X5159237Y-53863601D01*
X5174505Y-53858991D01*
X5183418Y-53854596D01*
X5269115Y-53830427D01*
X5356552Y-53804028D01*
X5366004Y-53803101D01*
X5369327Y-53802164D01*
X5468533Y-53793048D01*
X5509819Y-53789000D01*
X6210060Y-53789000D01*
X6381252Y-53806993D01*
X6381252Y-53806993D01*
G37*
G36*
X13222870Y-50263503D02*
G01*
X13278587Y-50261557D01*
X13345861Y-50270056D01*
X13408350Y-50273385D01*
X13464239Y-50285010D01*
X13526205Y-50292838D01*
X13584838Y-50310095D01*
X13639387Y-50321441D01*
X13699309Y-50343785D01*
X13765637Y-50363307D01*
X13814700Y-50386814D01*
X13860485Y-50403887D01*
X13922355Y-50438394D01*
X13990722Y-50471150D01*
X14029870Y-50498359D01*
X14066580Y-50518833D01*
X14127992Y-50566555D01*
X14195669Y-50613592D01*
X14225117Y-50642029D01*
X14252905Y-50663623D01*
X14311181Y-50725140D01*
X14375207Y-50786969D01*
X14395690Y-50814349D01*
X14415196Y-50834940D01*
X14467539Y-50910391D01*
X14524715Y-50986821D01*
X14537424Y-51011130D01*
X14549703Y-51028831D01*
X14593241Y-51117900D01*
X14640347Y-51208005D01*
X14646868Y-51227606D01*
X14653330Y-51240827D01*
X14685204Y-51342849D01*
X14719129Y-51444831D01*
X14721351Y-51458547D01*
X14723703Y-51466077D01*
X14741218Y-51581216D01*
X14759033Y-51691207D01*
X14756079Y-51973248D01*
X14749707Y-52007966D01*
X14749166Y-52026197D01*
X14729162Y-52119910D01*
X14711024Y-52218734D01*
X14703639Y-52239474D01*
X14700281Y-52255204D01*
X14662978Y-52353664D01*
X14627300Y-52453859D01*
X14619956Y-52467218D01*
X14616676Y-52475875D01*
X14560486Y-52575393D01*
X14507061Y-52672573D01*
X14501852Y-52679240D01*
X14500659Y-52681353D01*
X14415525Y-52789734D01*
X14353400Y-52869249D01*
X14272204Y-52944438D01*
X14182728Y-53028314D01*
X14178477Y-53031230D01*
X14170271Y-53038829D01*
X14079065Y-53099426D01*
X13988132Y-53161806D01*
X13977346Y-53167009D01*
X13962386Y-53176948D01*
X13867597Y-53219946D01*
X13775593Y-53264324D01*
X13757603Y-53269841D01*
X13735091Y-53280053D01*
X13640529Y-53305745D01*
X13549988Y-53333512D01*
X13524633Y-53337234D01*
X13494237Y-53345492D01*
X13403124Y-53355068D01*
X13316513Y-53367781D01*
X13284058Y-53367583D01*
X13246018Y-53371581D01*
X13161077Y-53366832D01*
X13080537Y-53366340D01*
X13041732Y-53360159D01*
X12996820Y-53357648D01*
X12920188Y-53340799D01*
X12847503Y-53329222D01*
X12803572Y-53315160D01*
X12753056Y-53304053D01*
X12686282Y-53277615D01*
X12622751Y-53257279D01*
X12575318Y-53233681D01*
X12520997Y-53212174D01*
X12465052Y-53178824D01*
X12411481Y-53152173D01*
X12362562Y-53117729D01*
X12306612Y-53084376D01*
X12261850Y-53046816D01*
X12218537Y-53016319D01*
X12170434Y-52970109D01*
X12115418Y-52923945D01*
X12081622Y-52884792D01*
X12048359Y-52852838D01*
X12003609Y-52794413D01*
X11952333Y-52735009D01*
X11928758Y-52696688D01*
X11904869Y-52665499D01*
X11866132Y-52594891D01*
X11821554Y-52522430D01*
X11806980Y-52487071D01*
X11791367Y-52458612D01*
X11761347Y-52376357D01*
X11726444Y-52291676D01*
X11719254Y-52261023D01*
X11710464Y-52236937D01*
X11691818Y-52144049D01*
X11669451Y-52048684D01*
X11667727Y-52024029D01*
X11664023Y-52005577D01*
X11659300Y-51903527D01*
X11652040Y-51799705D01*
X11653668Y-51781820D01*
X11653114Y-51769855D01*
X11664738Y-51660177D01*
X11674661Y-51551146D01*
X11677442Y-51540316D01*
X11677985Y-51535190D01*
X11709189Y-51416668D01*
X11736731Y-51309401D01*
X11777091Y-51217021D01*
X11831971Y-51090502D01*
X11833264Y-51088445D01*
X11836652Y-51080690D01*
X11896740Y-50987452D01*
X11957542Y-50890713D01*
X11963595Y-50883713D01*
X11971855Y-50870896D01*
X12043058Y-50791817D01*
X12111893Y-50712212D01*
X12124124Y-50701785D01*
X12138861Y-50685417D01*
X12217191Y-50622438D01*
X12291465Y-50559114D01*
X12310935Y-50547065D01*
X12333373Y-50529025D01*
X12415267Y-50482503D01*
X12492129Y-50434939D01*
X12519484Y-50423299D01*
X12550387Y-50405744D01*
X12632567Y-50375182D01*
X12709259Y-50342549D01*
X12744685Y-50333486D01*
X12784320Y-50318746D01*
X12863882Y-50302992D01*
X12937877Y-50284062D01*
X12981059Y-50279790D01*
X13029153Y-50270267D01*
X13103594Y-50267668D01*
X13172709Y-50260830D01*
X13222870Y-50263503D01*
X13222870Y-50263503D01*
G37*
G36*
X7181579Y-51251959D02*
G01*
X7198449Y-51263231D01*
X7209721Y-51280101D01*
X7216128Y-51312312D01*
X7216128Y-53287688D01*
X7213679Y-53300000D01*
X7209721Y-53319899D01*
X7198449Y-53336769D01*
X7181579Y-53348041D01*
X7161680Y-53351999D01*
X7149368Y-53354448D01*
X4573992Y-53354448D01*
X4541781Y-53348041D01*
X4524911Y-53336769D01*
X4513639Y-53319899D01*
X4507232Y-53287688D01*
X4507232Y-51312312D01*
X4513639Y-51280101D01*
X4524911Y-51263231D01*
X4541781Y-51251959D01*
X4573992Y-51245552D01*
X7149368Y-51245552D01*
X7181579Y-51251959D01*
X7181579Y-51251959D01*
G37*
G36*
X96119899Y-50251959D02*
G01*
X96136769Y-50263231D01*
X96148041Y-50280101D01*
X96154448Y-50312312D01*
X96154448Y-52287688D01*
X96151999Y-52300000D01*
X96148041Y-52319899D01*
X96136769Y-52336769D01*
X96119899Y-52348041D01*
X96100000Y-52351999D01*
X96087688Y-52354448D01*
X93512312Y-52354448D01*
X93480101Y-52348041D01*
X93463231Y-52336769D01*
X93451959Y-52319899D01*
X93445552Y-52287688D01*
X93445552Y-50312312D01*
X93451959Y-50280101D01*
X93463231Y-50263231D01*
X93480101Y-50251959D01*
X93512312Y-50245552D01*
X96087688Y-50245552D01*
X96119899Y-50251959D01*
X96119899Y-50251959D01*
G37*
G36*
X95319572Y-47726993D02*
G01*
X95408551Y-47755219D01*
X95503924Y-47784833D01*
X95506987Y-47786444D01*
X95516036Y-47789315D01*
X95596037Y-47833296D01*
X95674874Y-47874774D01*
X95682682Y-47880929D01*
X95696653Y-47888610D01*
X95762324Y-47943715D01*
X95826566Y-47994359D01*
X95837392Y-48006704D01*
X95854544Y-48021096D01*
X95904471Y-48083193D01*
X95953927Y-48139587D01*
X95965635Y-48159266D01*
X95983694Y-48181727D01*
X96017716Y-48246805D01*
X96052690Y-48305590D01*
X96062860Y-48333157D01*
X96079185Y-48364384D01*
X96098143Y-48428798D01*
X96119545Y-48486811D01*
X96125616Y-48522142D01*
X96137379Y-48562109D01*
X96142891Y-48622675D01*
X96152258Y-48677189D01*
X96151704Y-48719516D01*
X96156059Y-48767373D01*
X96150368Y-48821519D01*
X96149729Y-48870331D01*
X96140206Y-48918209D01*
X96134515Y-48972355D01*
X96120305Y-49018259D01*
X96112046Y-49059783D01*
X96091545Y-49111169D01*
X96073566Y-49169249D01*
X96053755Y-49205889D01*
X96040468Y-49239192D01*
X96007469Y-49291493D01*
X95975534Y-49350555D01*
X95953073Y-49377706D01*
X95937395Y-49402554D01*
X95890969Y-49452777D01*
X95844154Y-49509367D01*
X95821818Y-49527584D01*
X95806275Y-49544398D01*
X95746177Y-49589276D01*
X95684429Y-49639636D01*
X95664659Y-49650148D01*
X95651503Y-49659972D01*
X95578147Y-49696147D01*
X95502443Y-49736399D01*
X95487175Y-49741009D01*
X95478262Y-49745404D01*
X95392565Y-49769573D01*
X95305128Y-49795972D01*
X95295676Y-49796899D01*
X95292353Y-49797836D01*
X95193147Y-49806952D01*
X95151861Y-49811000D01*
X94451620Y-49811000D01*
X94280428Y-49793007D01*
X94191449Y-49764781D01*
X94096076Y-49735167D01*
X94093013Y-49733556D01*
X94083964Y-49730685D01*
X94003963Y-49686704D01*
X93925126Y-49645226D01*
X93917318Y-49639071D01*
X93903347Y-49631390D01*
X93837676Y-49576285D01*
X93773434Y-49525641D01*
X93762608Y-49513296D01*
X93745456Y-49498904D01*
X93695529Y-49436807D01*
X93646073Y-49380413D01*
X93634365Y-49360734D01*
X93616306Y-49338273D01*
X93582284Y-49273195D01*
X93547310Y-49214410D01*
X93537140Y-49186843D01*
X93520815Y-49155616D01*
X93501857Y-49091202D01*
X93480455Y-49033189D01*
X93474384Y-48997858D01*
X93462621Y-48957891D01*
X93457109Y-48897325D01*
X93447742Y-48842811D01*
X93448296Y-48800484D01*
X93443941Y-48752627D01*
X93449632Y-48698481D01*
X93450271Y-48649669D01*
X93459794Y-48601791D01*
X93465485Y-48547645D01*
X93479695Y-48501741D01*
X93487954Y-48460217D01*
X93508455Y-48408831D01*
X93526434Y-48350751D01*
X93546245Y-48314111D01*
X93559532Y-48280808D01*
X93592531Y-48228507D01*
X93624466Y-48169445D01*
X93646927Y-48142294D01*
X93662605Y-48117446D01*
X93709031Y-48067223D01*
X93755846Y-48010633D01*
X93778182Y-47992416D01*
X93793725Y-47975602D01*
X93853823Y-47930724D01*
X93915571Y-47880364D01*
X93935341Y-47869852D01*
X93948497Y-47860028D01*
X94021853Y-47823853D01*
X94097557Y-47783601D01*
X94112825Y-47778991D01*
X94121738Y-47774596D01*
X94207435Y-47750427D01*
X94294872Y-47724028D01*
X94304324Y-47723101D01*
X94307647Y-47722164D01*
X94406853Y-47713048D01*
X94448139Y-47709000D01*
X95148380Y-47709000D01*
X95319572Y-47726993D01*
X95319572Y-47726993D01*
G37*
G36*
X95319572Y-45186993D02*
G01*
X95408551Y-45215219D01*
X95503924Y-45244833D01*
X95506987Y-45246444D01*
X95516036Y-45249315D01*
X95596037Y-45293296D01*
X95674874Y-45334774D01*
X95682682Y-45340929D01*
X95696653Y-45348610D01*
X95762324Y-45403715D01*
X95826566Y-45454359D01*
X95837392Y-45466704D01*
X95854544Y-45481096D01*
X95904471Y-45543193D01*
X95953927Y-45599587D01*
X95965635Y-45619266D01*
X95983694Y-45641727D01*
X96017716Y-45706805D01*
X96052690Y-45765590D01*
X96062860Y-45793157D01*
X96079185Y-45824384D01*
X96098143Y-45888798D01*
X96119545Y-45946811D01*
X96125616Y-45982142D01*
X96137379Y-46022109D01*
X96142891Y-46082675D01*
X96152258Y-46137189D01*
X96151704Y-46179516D01*
X96156059Y-46227373D01*
X96150368Y-46281519D01*
X96149729Y-46330331D01*
X96140206Y-46378209D01*
X96134515Y-46432355D01*
X96120305Y-46478259D01*
X96112046Y-46519783D01*
X96091545Y-46571169D01*
X96073566Y-46629249D01*
X96053755Y-46665889D01*
X96040468Y-46699192D01*
X96007469Y-46751493D01*
X95975534Y-46810555D01*
X95953073Y-46837706D01*
X95937395Y-46862554D01*
X95890969Y-46912777D01*
X95844154Y-46969367D01*
X95821818Y-46987584D01*
X95806275Y-47004398D01*
X95746177Y-47049276D01*
X95684429Y-47099636D01*
X95664659Y-47110148D01*
X95651503Y-47119972D01*
X95578147Y-47156147D01*
X95502443Y-47196399D01*
X95487175Y-47201009D01*
X95478262Y-47205404D01*
X95392565Y-47229573D01*
X95305128Y-47255972D01*
X95295676Y-47256899D01*
X95292353Y-47257836D01*
X95193147Y-47266952D01*
X95151861Y-47271000D01*
X94451620Y-47271000D01*
X94280428Y-47253007D01*
X94191449Y-47224781D01*
X94096076Y-47195167D01*
X94093013Y-47193556D01*
X94083964Y-47190685D01*
X94003963Y-47146704D01*
X93925126Y-47105226D01*
X93917318Y-47099071D01*
X93903347Y-47091390D01*
X93837676Y-47036285D01*
X93773434Y-46985641D01*
X93762608Y-46973296D01*
X93745456Y-46958904D01*
X93695529Y-46896807D01*
X93646073Y-46840413D01*
X93634365Y-46820734D01*
X93616306Y-46798273D01*
X93582284Y-46733195D01*
X93547310Y-46674410D01*
X93537140Y-46646843D01*
X93520815Y-46615616D01*
X93501857Y-46551202D01*
X93480455Y-46493189D01*
X93474384Y-46457858D01*
X93462621Y-46417891D01*
X93457109Y-46357325D01*
X93447742Y-46302811D01*
X93448296Y-46260484D01*
X93443941Y-46212627D01*
X93449632Y-46158481D01*
X93450271Y-46109669D01*
X93459794Y-46061791D01*
X93465485Y-46007645D01*
X93479695Y-45961741D01*
X93487954Y-45920217D01*
X93508455Y-45868831D01*
X93526434Y-45810751D01*
X93546245Y-45774111D01*
X93559532Y-45740808D01*
X93592531Y-45688507D01*
X93624466Y-45629445D01*
X93646927Y-45602294D01*
X93662605Y-45577446D01*
X93709031Y-45527223D01*
X93755846Y-45470633D01*
X93778182Y-45452416D01*
X93793725Y-45435602D01*
X93853823Y-45390724D01*
X93915571Y-45340364D01*
X93935341Y-45329852D01*
X93948497Y-45320028D01*
X94021853Y-45283853D01*
X94097557Y-45243601D01*
X94112825Y-45238991D01*
X94121738Y-45234596D01*
X94207435Y-45210427D01*
X94294872Y-45184028D01*
X94304324Y-45183101D01*
X94307647Y-45182164D01*
X94406853Y-45173048D01*
X94448139Y-45169000D01*
X95148380Y-45169000D01*
X95319572Y-45186993D01*
X95319572Y-45186993D01*
G37*
G36*
X95319572Y-42646993D02*
G01*
X95408551Y-42675219D01*
X95503924Y-42704833D01*
X95506987Y-42706444D01*
X95516036Y-42709315D01*
X95596037Y-42753296D01*
X95674874Y-42794774D01*
X95682682Y-42800929D01*
X95696653Y-42808610D01*
X95762324Y-42863715D01*
X95826566Y-42914359D01*
X95837392Y-42926704D01*
X95854544Y-42941096D01*
X95904471Y-43003193D01*
X95953927Y-43059587D01*
X95965635Y-43079266D01*
X95983694Y-43101727D01*
X96017716Y-43166805D01*
X96052690Y-43225590D01*
X96062860Y-43253157D01*
X96079185Y-43284384D01*
X96098143Y-43348798D01*
X96119545Y-43406811D01*
X96125616Y-43442142D01*
X96137379Y-43482109D01*
X96142891Y-43542675D01*
X96152258Y-43597189D01*
X96151704Y-43639516D01*
X96156059Y-43687373D01*
X96150368Y-43741519D01*
X96149729Y-43790331D01*
X96140206Y-43838209D01*
X96134515Y-43892355D01*
X96120305Y-43938259D01*
X96112046Y-43979783D01*
X96091545Y-44031169D01*
X96073566Y-44089249D01*
X96053755Y-44125889D01*
X96040468Y-44159192D01*
X96007469Y-44211493D01*
X95975534Y-44270555D01*
X95953073Y-44297706D01*
X95937395Y-44322554D01*
X95890969Y-44372777D01*
X95844154Y-44429367D01*
X95821818Y-44447584D01*
X95806275Y-44464398D01*
X95746177Y-44509276D01*
X95684429Y-44559636D01*
X95664659Y-44570148D01*
X95651503Y-44579972D01*
X95578147Y-44616147D01*
X95502443Y-44656399D01*
X95487175Y-44661009D01*
X95478262Y-44665404D01*
X95392565Y-44689573D01*
X95305128Y-44715972D01*
X95295676Y-44716899D01*
X95292353Y-44717836D01*
X95193147Y-44726952D01*
X95151861Y-44731000D01*
X94451620Y-44731000D01*
X94280428Y-44713007D01*
X94191449Y-44684781D01*
X94096076Y-44655167D01*
X94093013Y-44653556D01*
X94083964Y-44650685D01*
X94003963Y-44606704D01*
X93925126Y-44565226D01*
X93917318Y-44559071D01*
X93903347Y-44551390D01*
X93837676Y-44496285D01*
X93773434Y-44445641D01*
X93762608Y-44433296D01*
X93745456Y-44418904D01*
X93695529Y-44356807D01*
X93646073Y-44300413D01*
X93634365Y-44280734D01*
X93616306Y-44258273D01*
X93582284Y-44193195D01*
X93547310Y-44134410D01*
X93537140Y-44106843D01*
X93520815Y-44075616D01*
X93501857Y-44011202D01*
X93480455Y-43953189D01*
X93474384Y-43917858D01*
X93462621Y-43877891D01*
X93457109Y-43817325D01*
X93447742Y-43762811D01*
X93448296Y-43720484D01*
X93443941Y-43672627D01*
X93449632Y-43618481D01*
X93450271Y-43569669D01*
X93459794Y-43521791D01*
X93465485Y-43467645D01*
X93479695Y-43421741D01*
X93487954Y-43380217D01*
X93508455Y-43328831D01*
X93526434Y-43270751D01*
X93546245Y-43234111D01*
X93559532Y-43200808D01*
X93592531Y-43148507D01*
X93624466Y-43089445D01*
X93646927Y-43062294D01*
X93662605Y-43037446D01*
X93709031Y-42987223D01*
X93755846Y-42930633D01*
X93778182Y-42912416D01*
X93793725Y-42895602D01*
X93853823Y-42850724D01*
X93915571Y-42800364D01*
X93935341Y-42789852D01*
X93948497Y-42780028D01*
X94021853Y-42743853D01*
X94097557Y-42703601D01*
X94112825Y-42698991D01*
X94121738Y-42694596D01*
X94207435Y-42670427D01*
X94294872Y-42644028D01*
X94304324Y-42643101D01*
X94307647Y-42642164D01*
X94406853Y-42633048D01*
X94448139Y-42629000D01*
X95148380Y-42629000D01*
X95319572Y-42646993D01*
X95319572Y-42646993D01*
G37*
G36*
X5662163Y-40899001D02*
G01*
X5713823Y-40899001D01*
X5773518Y-40909527D01*
X5828934Y-40914765D01*
X5880515Y-40928393D01*
X5938010Y-40938531D01*
X5988660Y-40956966D01*
X6035774Y-40969414D01*
X6090780Y-40994135D01*
X6151926Y-41016390D01*
X6192766Y-41039969D01*
X6230911Y-41057112D01*
X6286971Y-41094358D01*
X6349073Y-41130213D01*
X6380019Y-41156179D01*
X6409100Y-41175501D01*
X6463480Y-41226211D01*
X6523460Y-41276540D01*
X6545074Y-41302299D01*
X6565564Y-41321406D01*
X6615316Y-41386010D01*
X6669787Y-41450927D01*
X6683202Y-41474163D01*
X6696093Y-41490902D01*
X6738128Y-41569298D01*
X6783610Y-41648074D01*
X6790462Y-41666899D01*
X6797190Y-41679447D01*
X6828443Y-41771252D01*
X6861469Y-41861990D01*
X6863764Y-41875007D01*
X6866133Y-41881965D01*
X6883667Y-41987884D01*
X6900999Y-42086177D01*
X6900999Y-42313823D01*
X6894489Y-42350743D01*
X6893972Y-42371903D01*
X6876550Y-42452481D01*
X6861469Y-42538010D01*
X6853066Y-42561098D01*
X6849086Y-42579504D01*
X6815393Y-42664603D01*
X6783610Y-42751926D01*
X6774729Y-42767308D01*
X6770332Y-42778414D01*
X6718836Y-42864118D01*
X6669787Y-42949073D01*
X6662752Y-42957457D01*
X6660148Y-42961791D01*
X6586706Y-43048086D01*
X6523460Y-43123460D01*
X6454806Y-43181067D01*
X6358089Y-43262799D01*
X6355713Y-43264215D01*
X6349073Y-43269787D01*
X6263103Y-43319422D01*
X6174325Y-43372344D01*
X6165341Y-43375865D01*
X6151926Y-43383610D01*
X6062837Y-43416036D01*
X5975137Y-43450405D01*
X5958962Y-43453843D01*
X5938010Y-43461469D01*
X5850446Y-43476909D01*
X5765879Y-43494884D01*
X5742476Y-43495947D01*
X5713823Y-43500999D01*
X5631221Y-43500999D01*
X5552166Y-43504589D01*
X5522059Y-43500999D01*
X5486177Y-43500999D01*
X5411223Y-43487783D01*
X5339733Y-43479258D01*
X5304000Y-43468876D01*
X5261990Y-43461469D01*
X5196662Y-43437691D01*
X5134288Y-43419570D01*
X5094505Y-43400509D01*
X5048074Y-43383610D01*
X4993655Y-43352191D01*
X4941358Y-43327135D01*
X4899543Y-43297856D01*
X4850927Y-43269787D01*
X4807915Y-43233696D01*
X4766108Y-43204422D01*
X4724689Y-43163862D01*
X4676540Y-43123460D01*
X4644776Y-43085604D01*
X4613260Y-43054742D01*
X4574897Y-43002325D01*
X4530213Y-42949073D01*
X4508886Y-42912133D01*
X4486907Y-42882103D01*
X4454446Y-42817840D01*
X4416390Y-42751926D01*
X4404117Y-42718206D01*
X4390450Y-42691150D01*
X4366789Y-42615648D01*
X4338531Y-42538010D01*
X4333478Y-42509355D01*
X4326474Y-42487004D01*
X4314444Y-42401406D01*
X4299001Y-42313823D01*
X4299001Y-42291521D01*
X4296700Y-42275148D01*
X4299001Y-42180998D01*
X4299001Y-42086177D01*
X4301691Y-42070920D01*
X4301927Y-42061275D01*
X4321288Y-41959779D01*
X4338531Y-41861990D01*
X4341497Y-41853842D01*
X4342014Y-41851130D01*
X4385709Y-41732369D01*
X4416390Y-41648074D01*
X4465544Y-41562937D01*
X4521557Y-41464337D01*
X4524740Y-41460406D01*
X4530213Y-41450927D01*
X4593280Y-41375766D01*
X4656192Y-41298076D01*
X4665122Y-41290148D01*
X4676540Y-41276540D01*
X4747724Y-41216810D01*
X4816173Y-41156038D01*
X4832111Y-41146001D01*
X4850927Y-41130213D01*
X4926133Y-41086793D01*
X4997201Y-41042039D01*
X5020914Y-41032071D01*
X5048074Y-41016390D01*
X5123682Y-40988871D01*
X5194423Y-40959134D01*
X5226151Y-40951575D01*
X5261990Y-40938531D01*
X5334784Y-40925696D01*
X5402531Y-40909556D01*
X5441947Y-40906800D01*
X5486177Y-40899001D01*
X5553484Y-40899001D01*
X5615953Y-40894633D01*
X5662163Y-40899001D01*
X5662163Y-40899001D01*
G37*
G36*
X95319572Y-40106993D02*
G01*
X95408551Y-40135219D01*
X95503924Y-40164833D01*
X95506987Y-40166444D01*
X95516036Y-40169315D01*
X95596037Y-40213296D01*
X95674874Y-40254774D01*
X95682682Y-40260929D01*
X95696653Y-40268610D01*
X95762324Y-40323715D01*
X95826566Y-40374359D01*
X95837392Y-40386704D01*
X95854544Y-40401096D01*
X95904471Y-40463193D01*
X95953927Y-40519587D01*
X95965635Y-40539266D01*
X95983694Y-40561727D01*
X96017716Y-40626805D01*
X96052690Y-40685590D01*
X96062860Y-40713157D01*
X96079185Y-40744384D01*
X96098143Y-40808798D01*
X96119545Y-40866811D01*
X96125616Y-40902142D01*
X96137379Y-40942109D01*
X96142891Y-41002675D01*
X96152258Y-41057189D01*
X96151704Y-41099516D01*
X96156059Y-41147373D01*
X96150368Y-41201519D01*
X96149729Y-41250331D01*
X96140206Y-41298209D01*
X96134515Y-41352355D01*
X96120305Y-41398259D01*
X96112046Y-41439783D01*
X96091545Y-41491169D01*
X96073566Y-41549249D01*
X96053755Y-41585889D01*
X96040468Y-41619192D01*
X96007469Y-41671493D01*
X95975534Y-41730555D01*
X95953073Y-41757706D01*
X95937395Y-41782554D01*
X95890969Y-41832777D01*
X95844154Y-41889367D01*
X95821818Y-41907584D01*
X95806275Y-41924398D01*
X95746177Y-41969276D01*
X95684429Y-42019636D01*
X95664659Y-42030148D01*
X95651503Y-42039972D01*
X95578147Y-42076147D01*
X95502443Y-42116399D01*
X95487175Y-42121009D01*
X95478262Y-42125404D01*
X95392565Y-42149573D01*
X95305128Y-42175972D01*
X95295676Y-42176899D01*
X95292353Y-42177836D01*
X95193147Y-42186952D01*
X95151861Y-42191000D01*
X94451620Y-42191000D01*
X94280428Y-42173007D01*
X94191449Y-42144781D01*
X94096076Y-42115167D01*
X94093013Y-42113556D01*
X94083964Y-42110685D01*
X94003963Y-42066704D01*
X93925126Y-42025226D01*
X93917318Y-42019071D01*
X93903347Y-42011390D01*
X93837676Y-41956285D01*
X93773434Y-41905641D01*
X93762608Y-41893296D01*
X93745456Y-41878904D01*
X93695529Y-41816807D01*
X93646073Y-41760413D01*
X93634365Y-41740734D01*
X93616306Y-41718273D01*
X93582284Y-41653195D01*
X93547310Y-41594410D01*
X93537140Y-41566843D01*
X93520815Y-41535616D01*
X93501857Y-41471202D01*
X93480455Y-41413189D01*
X93474384Y-41377858D01*
X93462621Y-41337891D01*
X93457109Y-41277325D01*
X93447742Y-41222811D01*
X93448296Y-41180484D01*
X93443941Y-41132627D01*
X93449632Y-41078481D01*
X93450271Y-41029669D01*
X93459794Y-40981791D01*
X93465485Y-40927645D01*
X93479695Y-40881741D01*
X93487954Y-40840217D01*
X93508455Y-40788831D01*
X93526434Y-40730751D01*
X93546245Y-40694111D01*
X93559532Y-40660808D01*
X93592531Y-40608507D01*
X93624466Y-40549445D01*
X93646927Y-40522294D01*
X93662605Y-40497446D01*
X93709031Y-40447223D01*
X93755846Y-40390633D01*
X93778182Y-40372416D01*
X93793725Y-40355602D01*
X93853823Y-40310724D01*
X93915571Y-40260364D01*
X93935341Y-40249852D01*
X93948497Y-40240028D01*
X94021853Y-40203853D01*
X94097557Y-40163601D01*
X94112825Y-40158991D01*
X94121738Y-40154596D01*
X94207435Y-40130427D01*
X94294872Y-40104028D01*
X94304324Y-40103101D01*
X94307647Y-40102164D01*
X94406853Y-40093048D01*
X94448139Y-40089000D01*
X95148380Y-40089000D01*
X95319572Y-40106993D01*
X95319572Y-40106993D01*
G37*
G36*
X6869899Y-35901959D02*
G01*
X6886769Y-35913231D01*
X6898041Y-35930101D01*
X6904448Y-35962312D01*
X6904448Y-38437688D01*
X6901999Y-38450000D01*
X6898041Y-38469899D01*
X6886769Y-38486769D01*
X6869899Y-38498041D01*
X6850000Y-38501999D01*
X6837688Y-38504448D01*
X4362312Y-38504448D01*
X4330101Y-38498041D01*
X4313231Y-38486769D01*
X4301959Y-38469899D01*
X4295552Y-38437688D01*
X4295552Y-35962312D01*
X4301959Y-35930101D01*
X4313231Y-35913231D01*
X4330101Y-35901959D01*
X4362312Y-35895552D01*
X6837688Y-35895552D01*
X6869899Y-35901959D01*
X6869899Y-35901959D01*
G37*
G36*
X5662163Y-28049001D02*
G01*
X5713823Y-28049001D01*
X5773518Y-28059527D01*
X5828934Y-28064765D01*
X5880515Y-28078393D01*
X5938010Y-28088531D01*
X5988660Y-28106966D01*
X6035774Y-28119414D01*
X6090780Y-28144135D01*
X6151926Y-28166390D01*
X6192766Y-28189969D01*
X6230911Y-28207112D01*
X6286971Y-28244358D01*
X6349073Y-28280213D01*
X6380019Y-28306179D01*
X6409100Y-28325501D01*
X6463480Y-28376211D01*
X6523460Y-28426540D01*
X6545074Y-28452299D01*
X6565564Y-28471406D01*
X6615316Y-28536010D01*
X6669787Y-28600927D01*
X6683202Y-28624163D01*
X6696093Y-28640902D01*
X6738128Y-28719298D01*
X6783610Y-28798074D01*
X6790462Y-28816899D01*
X6797190Y-28829447D01*
X6828443Y-28921252D01*
X6861469Y-29011990D01*
X6863764Y-29025007D01*
X6866133Y-29031965D01*
X6883667Y-29137884D01*
X6900999Y-29236177D01*
X6900999Y-29463823D01*
X6894489Y-29500743D01*
X6893972Y-29521903D01*
X6876550Y-29602481D01*
X6861469Y-29688010D01*
X6853066Y-29711098D01*
X6849086Y-29729504D01*
X6815393Y-29814603D01*
X6783610Y-29901926D01*
X6774729Y-29917308D01*
X6770332Y-29928414D01*
X6718836Y-30014118D01*
X6669787Y-30099073D01*
X6662752Y-30107457D01*
X6660148Y-30111791D01*
X6586706Y-30198086D01*
X6523460Y-30273460D01*
X6454806Y-30331067D01*
X6358089Y-30412799D01*
X6355713Y-30414215D01*
X6349073Y-30419787D01*
X6263103Y-30469422D01*
X6174325Y-30522344D01*
X6165341Y-30525865D01*
X6151926Y-30533610D01*
X6062837Y-30566036D01*
X5975137Y-30600405D01*
X5958962Y-30603843D01*
X5938010Y-30611469D01*
X5850446Y-30626909D01*
X5765879Y-30644884D01*
X5742476Y-30645947D01*
X5713823Y-30650999D01*
X5631221Y-30650999D01*
X5552166Y-30654589D01*
X5522059Y-30650999D01*
X5486177Y-30650999D01*
X5411223Y-30637783D01*
X5339733Y-30629258D01*
X5304000Y-30618876D01*
X5261990Y-30611469D01*
X5196662Y-30587691D01*
X5134288Y-30569570D01*
X5094505Y-30550509D01*
X5048074Y-30533610D01*
X4993655Y-30502191D01*
X4941358Y-30477135D01*
X4899543Y-30447856D01*
X4850927Y-30419787D01*
X4807915Y-30383696D01*
X4766108Y-30354422D01*
X4724689Y-30313862D01*
X4676540Y-30273460D01*
X4644776Y-30235604D01*
X4613260Y-30204742D01*
X4574897Y-30152325D01*
X4530213Y-30099073D01*
X4508886Y-30062133D01*
X4486907Y-30032103D01*
X4454446Y-29967840D01*
X4416390Y-29901926D01*
X4404117Y-29868206D01*
X4390450Y-29841150D01*
X4366789Y-29765648D01*
X4338531Y-29688010D01*
X4333478Y-29659355D01*
X4326474Y-29637004D01*
X4314444Y-29551406D01*
X4299001Y-29463823D01*
X4299001Y-29441521D01*
X4296700Y-29425148D01*
X4299001Y-29330998D01*
X4299001Y-29236177D01*
X4301691Y-29220920D01*
X4301927Y-29211275D01*
X4321288Y-29109779D01*
X4338531Y-29011990D01*
X4341497Y-29003842D01*
X4342014Y-29001130D01*
X4385709Y-28882369D01*
X4416390Y-28798074D01*
X4465544Y-28712937D01*
X4521557Y-28614337D01*
X4524740Y-28610406D01*
X4530213Y-28600927D01*
X4593280Y-28525766D01*
X4656192Y-28448076D01*
X4665122Y-28440148D01*
X4676540Y-28426540D01*
X4747724Y-28366810D01*
X4816173Y-28306038D01*
X4832111Y-28296001D01*
X4850927Y-28280213D01*
X4926133Y-28236793D01*
X4997201Y-28192039D01*
X5020914Y-28182071D01*
X5048074Y-28166390D01*
X5123682Y-28138871D01*
X5194423Y-28109134D01*
X5226151Y-28101575D01*
X5261990Y-28088531D01*
X5334784Y-28075696D01*
X5402531Y-28059556D01*
X5441947Y-28056800D01*
X5486177Y-28049001D01*
X5553484Y-28049001D01*
X5615953Y-28044633D01*
X5662163Y-28049001D01*
X5662163Y-28049001D01*
G37*
G36*
X6869899Y-23051959D02*
G01*
X6886769Y-23063231D01*
X6898041Y-23080101D01*
X6904448Y-23112312D01*
X6904448Y-25587688D01*
X6901999Y-25600000D01*
X6898041Y-25619899D01*
X6886769Y-25636769D01*
X6869899Y-25648041D01*
X6850000Y-25651999D01*
X6837688Y-25654448D01*
X4362312Y-25654448D01*
X4330101Y-25648041D01*
X4313231Y-25636769D01*
X4301959Y-25619899D01*
X4295552Y-25587688D01*
X4295552Y-23112312D01*
X4301959Y-23080101D01*
X4313231Y-23063231D01*
X4330101Y-23051959D01*
X4362312Y-23045552D01*
X6837688Y-23045552D01*
X6869899Y-23051959D01*
X6869899Y-23051959D01*
G37*
G36*
X96147899Y-18651959D02*
G01*
X96164769Y-18663231D01*
X96176041Y-18680101D01*
X96182448Y-18712312D01*
X96182448Y-21087688D01*
X96179999Y-21100000D01*
X96176041Y-21119899D01*
X96164769Y-21136769D01*
X96147899Y-21148041D01*
X96128000Y-21151999D01*
X96115688Y-21154448D01*
X94490312Y-21154448D01*
X94458101Y-21148041D01*
X94441231Y-21136769D01*
X94429959Y-21119899D01*
X94423552Y-21087688D01*
X94423552Y-18712312D01*
X94429959Y-18680101D01*
X94441231Y-18663231D01*
X94458101Y-18651959D01*
X94490312Y-18645552D01*
X96115688Y-18645552D01*
X96147899Y-18651959D01*
X96147899Y-18651959D01*
G37*
G36*
X5662163Y-15049001D02*
G01*
X5713823Y-15049001D01*
X5773518Y-15059527D01*
X5828934Y-15064765D01*
X5880515Y-15078393D01*
X5938010Y-15088531D01*
X5988660Y-15106966D01*
X6035774Y-15119414D01*
X6090780Y-15144135D01*
X6151926Y-15166390D01*
X6192766Y-15189969D01*
X6230911Y-15207112D01*
X6286971Y-15244358D01*
X6349073Y-15280213D01*
X6380019Y-15306179D01*
X6409100Y-15325501D01*
X6463480Y-15376211D01*
X6523460Y-15426540D01*
X6545074Y-15452299D01*
X6565564Y-15471406D01*
X6615316Y-15536010D01*
X6669787Y-15600927D01*
X6683202Y-15624163D01*
X6696093Y-15640902D01*
X6738128Y-15719298D01*
X6783610Y-15798074D01*
X6790462Y-15816899D01*
X6797190Y-15829447D01*
X6828443Y-15921252D01*
X6861469Y-16011990D01*
X6863764Y-16025007D01*
X6866133Y-16031965D01*
X6883667Y-16137884D01*
X6900999Y-16236177D01*
X6900999Y-16463823D01*
X6894489Y-16500743D01*
X6893972Y-16521903D01*
X6876550Y-16602481D01*
X6861469Y-16688010D01*
X6853066Y-16711098D01*
X6849086Y-16729504D01*
X6815393Y-16814603D01*
X6783610Y-16901926D01*
X6774729Y-16917308D01*
X6770332Y-16928414D01*
X6718836Y-17014118D01*
X6669787Y-17099073D01*
X6662752Y-17107457D01*
X6660148Y-17111791D01*
X6586706Y-17198086D01*
X6523460Y-17273460D01*
X6454806Y-17331067D01*
X6358089Y-17412799D01*
X6355713Y-17414215D01*
X6349073Y-17419787D01*
X6263103Y-17469422D01*
X6174325Y-17522344D01*
X6165341Y-17525865D01*
X6151926Y-17533610D01*
X6062837Y-17566036D01*
X5975137Y-17600405D01*
X5958962Y-17603843D01*
X5938010Y-17611469D01*
X5850446Y-17626909D01*
X5765879Y-17644884D01*
X5742476Y-17645947D01*
X5713823Y-17650999D01*
X5631221Y-17650999D01*
X5552166Y-17654589D01*
X5522059Y-17650999D01*
X5486177Y-17650999D01*
X5411223Y-17637783D01*
X5339733Y-17629258D01*
X5304000Y-17618876D01*
X5261990Y-17611469D01*
X5196662Y-17587691D01*
X5134288Y-17569570D01*
X5094505Y-17550509D01*
X5048074Y-17533610D01*
X4993655Y-17502191D01*
X4941358Y-17477135D01*
X4899543Y-17447856D01*
X4850927Y-17419787D01*
X4807915Y-17383696D01*
X4766108Y-17354422D01*
X4724689Y-17313862D01*
X4676540Y-17273460D01*
X4644776Y-17235604D01*
X4613260Y-17204742D01*
X4574897Y-17152325D01*
X4530213Y-17099073D01*
X4508886Y-17062133D01*
X4486907Y-17032103D01*
X4454446Y-16967840D01*
X4416390Y-16901926D01*
X4404117Y-16868206D01*
X4390450Y-16841150D01*
X4366789Y-16765648D01*
X4338531Y-16688010D01*
X4333478Y-16659355D01*
X4326474Y-16637004D01*
X4314444Y-16551406D01*
X4299001Y-16463823D01*
X4299001Y-16441521D01*
X4296700Y-16425148D01*
X4299001Y-16330998D01*
X4299001Y-16236177D01*
X4301691Y-16220920D01*
X4301927Y-16211275D01*
X4321288Y-16109779D01*
X4338531Y-16011990D01*
X4341497Y-16003842D01*
X4342014Y-16001130D01*
X4385709Y-15882369D01*
X4416390Y-15798074D01*
X4465544Y-15712937D01*
X4521557Y-15614337D01*
X4524740Y-15610406D01*
X4530213Y-15600927D01*
X4593280Y-15525766D01*
X4656192Y-15448076D01*
X4665122Y-15440148D01*
X4676540Y-15426540D01*
X4747724Y-15366810D01*
X4816173Y-15306038D01*
X4832111Y-15296001D01*
X4850927Y-15280213D01*
X4926133Y-15236793D01*
X4997201Y-15192039D01*
X5020914Y-15182071D01*
X5048074Y-15166390D01*
X5123682Y-15138871D01*
X5194423Y-15109134D01*
X5226151Y-15101575D01*
X5261990Y-15088531D01*
X5334784Y-15075696D01*
X5402531Y-15059556D01*
X5441947Y-15056800D01*
X5486177Y-15049001D01*
X5553484Y-15049001D01*
X5615953Y-15044633D01*
X5662163Y-15049001D01*
X5662163Y-15049001D01*
G37*
G36*
X56199670Y-13179503D02*
G01*
X56255387Y-13177557D01*
X56322661Y-13186056D01*
X56385150Y-13189385D01*
X56441039Y-13201010D01*
X56503005Y-13208838D01*
X56561638Y-13226095D01*
X56616187Y-13237441D01*
X56676109Y-13259785D01*
X56742437Y-13279307D01*
X56791500Y-13302814D01*
X56837285Y-13319887D01*
X56899155Y-13354394D01*
X56967522Y-13387150D01*
X57006670Y-13414359D01*
X57043380Y-13434833D01*
X57104792Y-13482555D01*
X57172469Y-13529592D01*
X57201917Y-13558029D01*
X57229705Y-13579623D01*
X57287981Y-13641140D01*
X57352007Y-13702969D01*
X57372490Y-13730349D01*
X57391996Y-13750940D01*
X57444339Y-13826391D01*
X57501515Y-13902821D01*
X57514224Y-13927130D01*
X57526503Y-13944831D01*
X57570041Y-14033900D01*
X57617147Y-14124005D01*
X57623668Y-14143606D01*
X57630130Y-14156827D01*
X57662004Y-14258849D01*
X57695929Y-14360831D01*
X57698151Y-14374547D01*
X57700503Y-14382077D01*
X57718018Y-14497216D01*
X57735833Y-14607207D01*
X57732879Y-14889248D01*
X57726507Y-14923966D01*
X57725966Y-14942197D01*
X57705962Y-15035910D01*
X57687824Y-15134734D01*
X57680439Y-15155474D01*
X57677081Y-15171204D01*
X57639778Y-15269664D01*
X57604100Y-15369859D01*
X57596756Y-15383218D01*
X57593476Y-15391875D01*
X57537286Y-15491393D01*
X57483861Y-15588573D01*
X57478652Y-15595240D01*
X57477459Y-15597353D01*
X57392325Y-15705734D01*
X57330200Y-15785249D01*
X57249004Y-15860438D01*
X57159528Y-15944314D01*
X57155277Y-15947230D01*
X57147071Y-15954829D01*
X57055865Y-16015426D01*
X56964932Y-16077806D01*
X56954146Y-16083009D01*
X56939186Y-16092948D01*
X56844397Y-16135946D01*
X56752393Y-16180324D01*
X56734403Y-16185841D01*
X56711891Y-16196053D01*
X56617329Y-16221745D01*
X56526788Y-16249512D01*
X56501433Y-16253234D01*
X56471037Y-16261492D01*
X56379924Y-16271068D01*
X56293313Y-16283781D01*
X56260858Y-16283583D01*
X56222818Y-16287581D01*
X56137877Y-16282832D01*
X56057337Y-16282340D01*
X56018532Y-16276159D01*
X55973620Y-16273648D01*
X55896988Y-16256799D01*
X55824303Y-16245222D01*
X55780372Y-16231160D01*
X55729856Y-16220053D01*
X55663082Y-16193615D01*
X55599551Y-16173279D01*
X55552118Y-16149681D01*
X55497797Y-16128174D01*
X55441852Y-16094824D01*
X55388281Y-16068173D01*
X55339362Y-16033729D01*
X55283412Y-16000376D01*
X55238650Y-15962816D01*
X55195337Y-15932319D01*
X55147234Y-15886109D01*
X55092218Y-15839945D01*
X55058422Y-15800792D01*
X55025159Y-15768838D01*
X54980409Y-15710413D01*
X54929133Y-15651009D01*
X54905558Y-15612688D01*
X54881669Y-15581499D01*
X54842932Y-15510891D01*
X54798354Y-15438430D01*
X54783780Y-15403071D01*
X54768167Y-15374612D01*
X54738147Y-15292357D01*
X54703244Y-15207676D01*
X54696054Y-15177023D01*
X54687264Y-15152937D01*
X54668618Y-15060049D01*
X54646251Y-14964684D01*
X54644527Y-14940029D01*
X54640823Y-14921577D01*
X54636100Y-14819527D01*
X54628840Y-14715705D01*
X54630468Y-14697820D01*
X54629914Y-14685855D01*
X54641538Y-14576177D01*
X54651461Y-14467146D01*
X54654242Y-14456316D01*
X54654785Y-14451190D01*
X54685989Y-14332668D01*
X54713531Y-14225401D01*
X54753891Y-14133021D01*
X54808771Y-14006502D01*
X54810064Y-14004445D01*
X54813452Y-13996690D01*
X54873540Y-13903452D01*
X54934342Y-13806713D01*
X54940395Y-13799713D01*
X54948655Y-13786896D01*
X55019858Y-13707817D01*
X55088693Y-13628212D01*
X55100924Y-13617785D01*
X55115661Y-13601417D01*
X55193991Y-13538438D01*
X55268265Y-13475114D01*
X55287735Y-13463065D01*
X55310173Y-13445025D01*
X55392067Y-13398503D01*
X55468929Y-13350939D01*
X55496284Y-13339299D01*
X55527187Y-13321744D01*
X55609367Y-13291182D01*
X55686059Y-13258549D01*
X55721485Y-13249486D01*
X55761120Y-13234746D01*
X55840682Y-13218992D01*
X55914677Y-13200062D01*
X55957859Y-13195790D01*
X56005953Y-13186267D01*
X56080394Y-13183668D01*
X56149509Y-13176830D01*
X56199670Y-13179503D01*
X56199670Y-13179503D01*
G37*
G36*
X62778270Y-13179503D02*
G01*
X62833987Y-13177557D01*
X62901261Y-13186056D01*
X62963750Y-13189385D01*
X63019639Y-13201010D01*
X63081605Y-13208838D01*
X63140238Y-13226095D01*
X63194787Y-13237441D01*
X63254709Y-13259785D01*
X63321037Y-13279307D01*
X63370100Y-13302814D01*
X63415885Y-13319887D01*
X63477755Y-13354394D01*
X63546122Y-13387150D01*
X63585270Y-13414359D01*
X63621980Y-13434833D01*
X63683392Y-13482555D01*
X63751069Y-13529592D01*
X63780517Y-13558029D01*
X63808305Y-13579623D01*
X63866581Y-13641140D01*
X63930607Y-13702969D01*
X63951090Y-13730349D01*
X63970596Y-13750940D01*
X64022939Y-13826391D01*
X64080115Y-13902821D01*
X64092824Y-13927130D01*
X64105103Y-13944831D01*
X64148641Y-14033900D01*
X64195747Y-14124005D01*
X64202268Y-14143606D01*
X64208730Y-14156827D01*
X64240604Y-14258849D01*
X64274529Y-14360831D01*
X64276751Y-14374547D01*
X64279103Y-14382077D01*
X64296618Y-14497216D01*
X64314433Y-14607207D01*
X64311479Y-14889248D01*
X64305107Y-14923966D01*
X64304566Y-14942197D01*
X64284562Y-15035910D01*
X64266424Y-15134734D01*
X64259039Y-15155474D01*
X64255681Y-15171204D01*
X64218378Y-15269664D01*
X64182700Y-15369859D01*
X64175356Y-15383218D01*
X64172076Y-15391875D01*
X64115886Y-15491393D01*
X64062461Y-15588573D01*
X64057252Y-15595240D01*
X64056059Y-15597353D01*
X63970925Y-15705734D01*
X63908800Y-15785249D01*
X63827604Y-15860438D01*
X63738128Y-15944314D01*
X63733877Y-15947230D01*
X63725671Y-15954829D01*
X63634465Y-16015426D01*
X63543532Y-16077806D01*
X63532746Y-16083009D01*
X63517786Y-16092948D01*
X63422997Y-16135946D01*
X63330993Y-16180324D01*
X63313003Y-16185841D01*
X63290491Y-16196053D01*
X63195929Y-16221745D01*
X63105388Y-16249512D01*
X63080033Y-16253234D01*
X63049637Y-16261492D01*
X62958524Y-16271068D01*
X62871913Y-16283781D01*
X62839458Y-16283583D01*
X62801418Y-16287581D01*
X62716477Y-16282832D01*
X62635937Y-16282340D01*
X62597132Y-16276159D01*
X62552220Y-16273648D01*
X62475588Y-16256799D01*
X62402903Y-16245222D01*
X62358972Y-16231160D01*
X62308456Y-16220053D01*
X62241682Y-16193615D01*
X62178151Y-16173279D01*
X62130718Y-16149681D01*
X62076397Y-16128174D01*
X62020452Y-16094824D01*
X61966881Y-16068173D01*
X61917962Y-16033729D01*
X61862012Y-16000376D01*
X61817250Y-15962816D01*
X61773937Y-15932319D01*
X61725834Y-15886109D01*
X61670818Y-15839945D01*
X61637022Y-15800792D01*
X61603759Y-15768838D01*
X61559009Y-15710413D01*
X61507733Y-15651009D01*
X61484158Y-15612688D01*
X61460269Y-15581499D01*
X61421532Y-15510891D01*
X61376954Y-15438430D01*
X61362380Y-15403071D01*
X61346767Y-15374612D01*
X61316747Y-15292357D01*
X61281844Y-15207676D01*
X61274654Y-15177023D01*
X61265864Y-15152937D01*
X61247218Y-15060049D01*
X61224851Y-14964684D01*
X61223127Y-14940029D01*
X61219423Y-14921577D01*
X61214700Y-14819527D01*
X61207440Y-14715705D01*
X61209068Y-14697820D01*
X61208514Y-14685855D01*
X61220138Y-14576177D01*
X61230061Y-14467146D01*
X61232842Y-14456316D01*
X61233385Y-14451190D01*
X61264589Y-14332668D01*
X61292131Y-14225401D01*
X61332491Y-14133021D01*
X61387371Y-14006502D01*
X61388664Y-14004445D01*
X61392052Y-13996690D01*
X61452140Y-13903452D01*
X61512942Y-13806713D01*
X61518995Y-13799713D01*
X61527255Y-13786896D01*
X61598458Y-13707817D01*
X61667293Y-13628212D01*
X61679524Y-13617785D01*
X61694261Y-13601417D01*
X61772591Y-13538438D01*
X61846865Y-13475114D01*
X61866335Y-13463065D01*
X61888773Y-13445025D01*
X61970667Y-13398503D01*
X62047529Y-13350939D01*
X62074884Y-13339299D01*
X62105787Y-13321744D01*
X62187967Y-13291182D01*
X62264659Y-13258549D01*
X62300085Y-13249486D01*
X62339720Y-13234746D01*
X62419282Y-13218992D01*
X62493277Y-13200062D01*
X62536459Y-13195790D01*
X62584553Y-13186267D01*
X62658994Y-13183668D01*
X62728109Y-13176830D01*
X62778270Y-13179503D01*
X62778270Y-13179503D01*
G37*
G36*
X6869899Y-10051959D02*
G01*
X6886769Y-10063231D01*
X6898041Y-10080101D01*
X6904448Y-10112312D01*
X6904448Y-12587688D01*
X6901999Y-12600000D01*
X6898041Y-12619899D01*
X6886769Y-12636769D01*
X6869899Y-12648041D01*
X6850000Y-12651999D01*
X6837688Y-12654448D01*
X4362312Y-12654448D01*
X4330101Y-12648041D01*
X4313231Y-12636769D01*
X4301959Y-12619899D01*
X4295552Y-12587688D01*
X4295552Y-10112312D01*
X4301959Y-10080101D01*
X4313231Y-10063231D01*
X4330101Y-10051959D01*
X4362312Y-10045552D01*
X6837688Y-10045552D01*
X6869899Y-10051959D01*
X6869899Y-10051959D01*
G37*
G36*
X97525470Y-8861503D02*
G01*
X97581187Y-8859557D01*
X97648461Y-8868056D01*
X97710950Y-8871385D01*
X97766839Y-8883010D01*
X97828805Y-8890838D01*
X97887438Y-8908095D01*
X97941987Y-8919441D01*
X98001909Y-8941785D01*
X98068237Y-8961307D01*
X98117300Y-8984814D01*
X98163085Y-9001887D01*
X98224955Y-9036394D01*
X98293322Y-9069150D01*
X98332470Y-9096359D01*
X98369180Y-9116833D01*
X98430592Y-9164555D01*
X98498269Y-9211592D01*
X98527717Y-9240029D01*
X98555505Y-9261623D01*
X98613781Y-9323140D01*
X98677807Y-9384969D01*
X98698290Y-9412349D01*
X98717796Y-9432940D01*
X98770139Y-9508391D01*
X98827315Y-9584821D01*
X98840024Y-9609130D01*
X98852303Y-9626831D01*
X98895841Y-9715900D01*
X98942947Y-9806005D01*
X98949468Y-9825606D01*
X98955930Y-9838827D01*
X98987804Y-9940849D01*
X99021729Y-10042831D01*
X99023951Y-10056547D01*
X99026303Y-10064077D01*
X99043818Y-10179216D01*
X99061633Y-10289207D01*
X99058679Y-10571248D01*
X99052307Y-10605966D01*
X99051766Y-10624197D01*
X99031762Y-10717910D01*
X99013624Y-10816734D01*
X99006239Y-10837474D01*
X99002881Y-10853204D01*
X98965578Y-10951664D01*
X98929900Y-11051859D01*
X98922556Y-11065218D01*
X98919276Y-11073875D01*
X98863086Y-11173393D01*
X98809661Y-11270573D01*
X98804452Y-11277240D01*
X98803259Y-11279353D01*
X98718125Y-11387734D01*
X98656000Y-11467249D01*
X98574804Y-11542438D01*
X98485328Y-11626314D01*
X98481077Y-11629230D01*
X98472871Y-11636829D01*
X98381665Y-11697426D01*
X98290732Y-11759806D01*
X98279946Y-11765009D01*
X98264986Y-11774948D01*
X98170197Y-11817946D01*
X98078193Y-11862324D01*
X98060203Y-11867841D01*
X98037691Y-11878053D01*
X97943129Y-11903745D01*
X97852588Y-11931512D01*
X97827233Y-11935234D01*
X97796837Y-11943492D01*
X97705724Y-11953068D01*
X97619113Y-11965781D01*
X97586658Y-11965583D01*
X97548618Y-11969581D01*
X97463677Y-11964832D01*
X97383137Y-11964340D01*
X97344332Y-11958159D01*
X97299420Y-11955648D01*
X97222788Y-11938799D01*
X97150103Y-11927222D01*
X97106172Y-11913160D01*
X97055656Y-11902053D01*
X96988882Y-11875615D01*
X96925351Y-11855279D01*
X96877918Y-11831681D01*
X96823597Y-11810174D01*
X96767652Y-11776824D01*
X96714081Y-11750173D01*
X96665162Y-11715729D01*
X96609212Y-11682376D01*
X96564450Y-11644816D01*
X96521137Y-11614319D01*
X96473034Y-11568109D01*
X96418018Y-11521945D01*
X96384222Y-11482792D01*
X96350959Y-11450838D01*
X96306209Y-11392413D01*
X96254933Y-11333009D01*
X96231358Y-11294688D01*
X96207469Y-11263499D01*
X96168732Y-11192891D01*
X96124154Y-11120430D01*
X96109580Y-11085071D01*
X96093967Y-11056612D01*
X96063947Y-10974357D01*
X96029044Y-10889676D01*
X96021854Y-10859023D01*
X96013064Y-10834937D01*
X95994418Y-10742049D01*
X95972051Y-10646684D01*
X95970327Y-10622029D01*
X95966623Y-10603577D01*
X95961900Y-10501527D01*
X95954640Y-10397705D01*
X95956268Y-10379820D01*
X95955714Y-10367855D01*
X95967338Y-10258177D01*
X95977261Y-10149146D01*
X95980042Y-10138316D01*
X95980585Y-10133190D01*
X96011789Y-10014668D01*
X96039331Y-9907401D01*
X96079691Y-9815021D01*
X96134571Y-9688502D01*
X96135864Y-9686445D01*
X96139252Y-9678690D01*
X96199340Y-9585452D01*
X96260142Y-9488713D01*
X96266195Y-9481713D01*
X96274455Y-9468896D01*
X96345658Y-9389817D01*
X96414493Y-9310212D01*
X96426724Y-9299785D01*
X96441461Y-9283417D01*
X96519791Y-9220438D01*
X96594065Y-9157114D01*
X96613535Y-9145065D01*
X96635973Y-9127025D01*
X96717867Y-9080503D01*
X96794729Y-9032939D01*
X96822084Y-9021299D01*
X96852987Y-9003744D01*
X96935167Y-8973182D01*
X97011859Y-8940549D01*
X97047285Y-8931486D01*
X97086920Y-8916746D01*
X97166482Y-8900992D01*
X97240477Y-8882062D01*
X97283659Y-8877790D01*
X97331753Y-8868267D01*
X97406194Y-8865668D01*
X97475309Y-8858830D01*
X97525470Y-8861503D01*
X97525470Y-8861503D01*
G37*
G36*
X95081499Y-2249413D02*
G01*
X95182653Y-2250031D01*
X95243360Y-2257754D01*
X95302411Y-2260797D01*
X95406794Y-2278546D01*
X95511702Y-2291892D01*
X95566432Y-2305690D01*
X95619927Y-2314786D01*
X95726337Y-2346003D01*
X95833340Y-2372980D01*
X95881595Y-2391552D01*
X95928980Y-2405453D01*
X96035669Y-2450849D01*
X96142906Y-2492121D01*
X96184372Y-2514123D01*
X96225346Y-2531557D01*
X96330467Y-2591639D01*
X96435917Y-2647590D01*
X96470539Y-2671698D01*
X96504972Y-2691378D01*
X96606545Y-2766400D01*
X96708128Y-2837134D01*
X96736040Y-2862046D01*
X96764045Y-2882731D01*
X96860070Y-2972747D01*
X96955597Y-3058008D01*
X96977162Y-3082512D01*
X96999021Y-3103003D01*
X97087451Y-3207831D01*
X97174738Y-3307013D01*
X97190494Y-3329982D01*
X97206693Y-3349184D01*
X97285494Y-3468466D01*
X97362377Y-3580541D01*
X97373051Y-3601002D01*
X97384219Y-3617907D01*
X97451335Y-3751064D01*
X97515797Y-3874630D01*
X97522257Y-3891771D01*
X97529191Y-3905528D01*
X97582804Y-4052429D01*
X97632774Y-4185020D01*
X97635987Y-4198150D01*
X97639611Y-4208080D01*
X97677970Y-4369719D01*
X97711615Y-4507216D01*
X97712656Y-4515885D01*
X97713977Y-4521450D01*
X97735476Y-4705850D01*
X97751177Y-4836550D01*
X97746761Y-5225825D01*
X97728492Y-5353391D01*
X97726437Y-5400454D01*
X97711096Y-5474861D01*
X97699737Y-5554176D01*
X97678322Y-5633821D01*
X97661942Y-5713266D01*
X97635632Y-5792587D01*
X97613607Y-5874501D01*
X97584540Y-5946626D01*
X97560545Y-6018967D01*
X97523071Y-6099148D01*
X97489617Y-6182157D01*
X97454382Y-6246116D01*
X97424176Y-6310747D01*
X97375003Y-6390210D01*
X97329565Y-6472690D01*
X97289657Y-6528126D01*
X97254694Y-6584625D01*
X97193513Y-6661679D01*
X97135769Y-6741890D01*
X97092703Y-6788642D01*
X97054420Y-6836857D01*
X96981135Y-6909759D01*
X96911035Y-6985859D01*
X96866267Y-7024027D01*
X96826079Y-7064005D01*
X96740868Y-7130938D01*
X96658619Y-7201062D01*
X96613538Y-7230957D01*
X96572795Y-7262961D01*
X96476063Y-7322123D01*
X96382178Y-7384382D01*
X96338090Y-7406507D01*
X96298036Y-7431005D01*
X96190419Y-7480617D01*
X96085715Y-7533163D01*
X96043771Y-7548222D01*
X96005540Y-7565847D01*
X95887941Y-7604171D01*
X95773525Y-7645250D01*
X95734731Y-7654100D01*
X95699318Y-7665640D01*
X95572884Y-7691019D01*
X95450131Y-7719021D01*
X95415301Y-7722651D01*
X95383547Y-7729025D01*
X95249653Y-7739915D01*
X95120216Y-7753405D01*
X95089960Y-7752903D01*
X95062520Y-7755135D01*
X94922636Y-7750128D01*
X94788560Y-7747905D01*
X94763333Y-7744427D01*
X94740650Y-7743615D01*
X94596347Y-7721404D01*
X94459967Y-7702601D01*
X94439956Y-7697333D01*
X94422326Y-7694619D01*
X94275239Y-7653967D01*
X94139196Y-7618150D01*
X94124405Y-7612279D01*
X94111883Y-7608818D01*
X93962917Y-7548178D01*
X93830895Y-7495773D01*
X93821130Y-7490460D01*
X93813581Y-7487387D01*
X93661548Y-7403633D01*
X93539528Y-7337244D01*
X93534375Y-7333575D01*
X93531474Y-7331977D01*
X93354206Y-7205299D01*
X93269316Y-7144860D01*
X93192276Y-7074636D01*
X93031025Y-6928166D01*
X93028854Y-6925673D01*
X93024174Y-6921407D01*
X92933455Y-6816122D01*
X92819511Y-6685275D01*
X92814911Y-6678545D01*
X92807653Y-6670121D01*
X92728532Y-6552155D01*
X92637780Y-6419366D01*
X92631749Y-6407855D01*
X92622888Y-6394643D01*
X92559166Y-6269311D01*
X92488315Y-6134074D01*
X92481934Y-6117406D01*
X92472557Y-6098964D01*
X92425351Y-5969618D01*
X92373153Y-5833282D01*
X92367568Y-5811291D01*
X92358836Y-5787365D01*
X92328333Y-5656803D01*
X92293873Y-5521114D01*
X92290254Y-5493810D01*
X92283374Y-5464361D01*
X92269212Y-5335054D01*
X92251555Y-5201833D01*
X92251075Y-5169442D01*
X92247262Y-5134631D01*
X92248690Y-5008722D01*
X92246778Y-4879793D01*
X92250573Y-4842747D01*
X92251025Y-4802951D01*
X92266998Y-4682436D01*
X92279605Y-4559389D01*
X92288754Y-4518290D01*
X92294608Y-4474125D01*
X92323837Y-4360695D01*
X92349590Y-4245013D01*
X92365070Y-4200685D01*
X92377379Y-4152917D01*
X92418382Y-4048019D01*
X92455775Y-3940942D01*
X92478454Y-3894341D01*
X92498140Y-3843978D01*
X92549292Y-3748780D01*
X92596711Y-3651341D01*
X92627292Y-3603614D01*
X92655141Y-3551785D01*
X92714713Y-3467179D01*
X92770477Y-3380151D01*
X92809512Y-3332544D01*
X92846108Y-3280570D01*
X92912299Y-3207186D01*
X92974689Y-3131096D01*
X93022528Y-3084979D01*
X93068274Y-3034262D01*
X93139292Y-2972419D01*
X93206567Y-2907565D01*
X93263353Y-2864384D01*
X93318423Y-2816428D01*
X93392483Y-2766191D01*
X93462939Y-2712615D01*
X93528584Y-2673870D01*
X93592929Y-2630223D01*
X93668329Y-2591389D01*
X93740305Y-2548908D01*
X93814503Y-2516106D01*
X93887818Y-2478346D01*
X93962934Y-2450485D01*
X94034885Y-2418676D01*
X94117092Y-2393307D01*
X94198817Y-2362995D01*
X94272148Y-2345457D01*
X94342636Y-2323705D01*
X94432085Y-2307207D01*
X94521421Y-2285842D01*
X94591640Y-2277779D01*
X94659379Y-2265286D01*
X94755079Y-2259014D01*
X94850957Y-2248005D01*
X94916897Y-2248408D01*
X94980761Y-2244222D01*
X95081499Y-2249413D01*
X95081499Y-2249413D01*
G37*
G36*
X5081499Y-2249413D02*
G01*
X5182653Y-2250031D01*
X5243360Y-2257754D01*
X5302411Y-2260797D01*
X5406794Y-2278546D01*
X5511702Y-2291892D01*
X5566432Y-2305690D01*
X5619927Y-2314786D01*
X5726337Y-2346003D01*
X5833340Y-2372980D01*
X5881595Y-2391552D01*
X5928980Y-2405453D01*
X6035669Y-2450849D01*
X6142906Y-2492121D01*
X6184372Y-2514123D01*
X6225346Y-2531557D01*
X6330467Y-2591639D01*
X6435917Y-2647590D01*
X6470539Y-2671698D01*
X6504972Y-2691378D01*
X6606545Y-2766400D01*
X6708128Y-2837134D01*
X6736040Y-2862046D01*
X6764045Y-2882731D01*
X6860070Y-2972747D01*
X6955597Y-3058008D01*
X6977162Y-3082512D01*
X6999021Y-3103003D01*
X7087451Y-3207831D01*
X7174738Y-3307013D01*
X7190494Y-3329982D01*
X7206693Y-3349184D01*
X7285494Y-3468466D01*
X7362377Y-3580541D01*
X7373051Y-3601002D01*
X7384219Y-3617907D01*
X7451335Y-3751064D01*
X7515797Y-3874630D01*
X7522257Y-3891771D01*
X7529191Y-3905528D01*
X7582804Y-4052429D01*
X7632774Y-4185020D01*
X7635987Y-4198150D01*
X7639611Y-4208080D01*
X7677970Y-4369719D01*
X7711615Y-4507216D01*
X7712656Y-4515885D01*
X7713977Y-4521450D01*
X7735476Y-4705850D01*
X7751177Y-4836550D01*
X7746761Y-5225825D01*
X7728492Y-5353391D01*
X7726437Y-5400454D01*
X7711096Y-5474861D01*
X7699737Y-5554176D01*
X7678322Y-5633821D01*
X7661942Y-5713266D01*
X7635632Y-5792587D01*
X7613607Y-5874501D01*
X7584540Y-5946626D01*
X7560545Y-6018967D01*
X7523071Y-6099148D01*
X7489617Y-6182157D01*
X7454382Y-6246116D01*
X7424176Y-6310747D01*
X7375003Y-6390210D01*
X7329565Y-6472690D01*
X7289657Y-6528126D01*
X7254694Y-6584625D01*
X7193513Y-6661679D01*
X7135769Y-6741890D01*
X7092703Y-6788642D01*
X7054420Y-6836857D01*
X6981135Y-6909759D01*
X6911035Y-6985859D01*
X6866267Y-7024027D01*
X6826079Y-7064005D01*
X6740868Y-7130938D01*
X6658619Y-7201062D01*
X6613538Y-7230957D01*
X6572795Y-7262961D01*
X6476063Y-7322123D01*
X6382178Y-7384382D01*
X6338090Y-7406507D01*
X6298036Y-7431005D01*
X6190419Y-7480617D01*
X6085715Y-7533163D01*
X6043771Y-7548222D01*
X6005540Y-7565847D01*
X5887941Y-7604171D01*
X5773525Y-7645250D01*
X5734731Y-7654100D01*
X5699318Y-7665640D01*
X5572884Y-7691019D01*
X5450131Y-7719021D01*
X5415301Y-7722651D01*
X5383547Y-7729025D01*
X5249653Y-7739915D01*
X5120216Y-7753405D01*
X5089960Y-7752903D01*
X5062520Y-7755135D01*
X4922636Y-7750128D01*
X4788560Y-7747905D01*
X4763333Y-7744427D01*
X4740650Y-7743615D01*
X4596347Y-7721404D01*
X4459967Y-7702601D01*
X4439956Y-7697333D01*
X4422326Y-7694619D01*
X4275239Y-7653967D01*
X4139196Y-7618150D01*
X4124405Y-7612279D01*
X4111883Y-7608818D01*
X3962917Y-7548178D01*
X3830895Y-7495773D01*
X3821130Y-7490460D01*
X3813581Y-7487387D01*
X3661548Y-7403633D01*
X3539528Y-7337244D01*
X3534375Y-7333575D01*
X3531474Y-7331977D01*
X3354206Y-7205299D01*
X3269316Y-7144860D01*
X3192276Y-7074636D01*
X3031025Y-6928166D01*
X3028854Y-6925673D01*
X3024174Y-6921407D01*
X2933455Y-6816122D01*
X2819511Y-6685275D01*
X2814911Y-6678545D01*
X2807653Y-6670121D01*
X2728532Y-6552155D01*
X2637780Y-6419366D01*
X2631749Y-6407855D01*
X2622888Y-6394643D01*
X2559166Y-6269311D01*
X2488315Y-6134074D01*
X2481934Y-6117406D01*
X2472557Y-6098964D01*
X2425351Y-5969618D01*
X2373153Y-5833282D01*
X2367568Y-5811291D01*
X2358836Y-5787365D01*
X2328333Y-5656803D01*
X2293873Y-5521114D01*
X2290254Y-5493810D01*
X2283374Y-5464361D01*
X2269212Y-5335054D01*
X2251555Y-5201833D01*
X2251075Y-5169442D01*
X2247262Y-5134631D01*
X2248690Y-5008722D01*
X2246778Y-4879793D01*
X2250573Y-4842747D01*
X2251025Y-4802951D01*
X2266998Y-4682436D01*
X2279605Y-4559389D01*
X2288754Y-4518290D01*
X2294608Y-4474125D01*
X2323837Y-4360695D01*
X2349590Y-4245013D01*
X2365070Y-4200685D01*
X2377379Y-4152917D01*
X2418382Y-4048019D01*
X2455775Y-3940942D01*
X2478454Y-3894341D01*
X2498140Y-3843978D01*
X2549292Y-3748780D01*
X2596711Y-3651341D01*
X2627292Y-3603614D01*
X2655141Y-3551785D01*
X2714713Y-3467179D01*
X2770477Y-3380151D01*
X2809512Y-3332544D01*
X2846108Y-3280570D01*
X2912299Y-3207186D01*
X2974689Y-3131096D01*
X3022528Y-3084979D01*
X3068274Y-3034262D01*
X3139292Y-2972419D01*
X3206567Y-2907565D01*
X3263353Y-2864384D01*
X3318423Y-2816428D01*
X3392483Y-2766191D01*
X3462939Y-2712615D01*
X3528584Y-2673870D01*
X3592929Y-2630223D01*
X3668329Y-2591389D01*
X3740305Y-2548908D01*
X3814503Y-2516106D01*
X3887818Y-2478346D01*
X3962934Y-2450485D01*
X4034885Y-2418676D01*
X4117092Y-2393307D01*
X4198817Y-2362995D01*
X4272148Y-2345457D01*
X4342636Y-2323705D01*
X4432085Y-2307207D01*
X4521421Y-2285842D01*
X4591640Y-2277779D01*
X4659379Y-2265286D01*
X4755079Y-2259014D01*
X4850957Y-2248005D01*
X4916897Y-2248408D01*
X4980761Y-2244222D01*
X5081499Y-2249413D01*
X5081499Y-2249413D01*
G37*
G36*
X86921519Y-4549632D02*
G01*
X86970331Y-4550271D01*
X87018209Y-4559794D01*
X87072355Y-4565485D01*
X87118259Y-4579695D01*
X87159783Y-4587954D01*
X87211169Y-4608455D01*
X87269249Y-4626434D01*
X87305889Y-4646245D01*
X87339192Y-4659532D01*
X87391493Y-4692531D01*
X87450555Y-4724466D01*
X87477706Y-4746927D01*
X87502554Y-4762605D01*
X87552777Y-4809031D01*
X87609367Y-4855846D01*
X87627584Y-4878182D01*
X87644398Y-4893725D01*
X87689273Y-4953821D01*
X87739636Y-5015571D01*
X87750148Y-5035342D01*
X87759973Y-5048499D01*
X87796157Y-5121872D01*
X87836399Y-5197558D01*
X87841006Y-5212819D01*
X87845404Y-5221736D01*
X87869580Y-5307458D01*
X87895972Y-5394873D01*
X87896899Y-5404325D01*
X87897836Y-5407648D01*
X87906952Y-5506854D01*
X87911000Y-5548140D01*
X87911000Y-6248380D01*
X87893007Y-6419572D01*
X87864781Y-6508551D01*
X87835167Y-6603924D01*
X87833556Y-6606987D01*
X87830685Y-6616036D01*
X87786704Y-6696037D01*
X87745226Y-6774874D01*
X87739071Y-6782682D01*
X87731390Y-6796653D01*
X87676281Y-6862329D01*
X87625639Y-6926568D01*
X87613295Y-6937393D01*
X87598904Y-6954544D01*
X87536806Y-7004472D01*
X87480415Y-7053925D01*
X87460738Y-7065632D01*
X87438273Y-7083694D01*
X87373188Y-7117719D01*
X87314409Y-7152690D01*
X87286843Y-7162860D01*
X87255615Y-7179185D01*
X87191201Y-7198143D01*
X87133188Y-7219545D01*
X87097857Y-7225616D01*
X87057890Y-7237379D01*
X86997323Y-7242891D01*
X86942810Y-7252258D01*
X86900484Y-7251704D01*
X86852627Y-7256059D01*
X86798481Y-7250368D01*
X86749669Y-7249729D01*
X86701791Y-7240206D01*
X86647645Y-7234515D01*
X86601741Y-7220305D01*
X86560217Y-7212046D01*
X86508831Y-7191545D01*
X86450751Y-7173566D01*
X86414111Y-7153755D01*
X86380808Y-7140468D01*
X86328507Y-7107469D01*
X86269445Y-7075534D01*
X86242294Y-7053073D01*
X86217446Y-7037395D01*
X86167223Y-6990969D01*
X86110633Y-6944154D01*
X86092416Y-6921818D01*
X86075602Y-6906275D01*
X86030728Y-6846181D01*
X85980364Y-6784429D01*
X85969851Y-6764657D01*
X85960028Y-6751502D01*
X85923856Y-6678152D01*
X85883601Y-6602442D01*
X85878991Y-6587174D01*
X85874596Y-6578261D01*
X85850427Y-6492564D01*
X85824028Y-6405127D01*
X85823101Y-6395675D01*
X85822164Y-6392352D01*
X85813048Y-6293146D01*
X85809000Y-6251860D01*
X85809000Y-5551620D01*
X85826993Y-5380428D01*
X85855207Y-5291489D01*
X85884834Y-5196074D01*
X85886447Y-5193008D01*
X85889316Y-5183964D01*
X85933286Y-5103982D01*
X85974774Y-5025128D01*
X85980929Y-5017320D01*
X85988611Y-5003347D01*
X86043720Y-4937671D01*
X86094360Y-4873434D01*
X86106705Y-4862608D01*
X86121097Y-4845456D01*
X86183194Y-4795529D01*
X86239588Y-4746073D01*
X86259267Y-4734365D01*
X86281728Y-4716306D01*
X86346806Y-4682284D01*
X86405591Y-4647310D01*
X86433158Y-4637140D01*
X86464385Y-4620815D01*
X86528799Y-4601857D01*
X86586812Y-4580455D01*
X86622143Y-4574384D01*
X86662110Y-4562621D01*
X86722677Y-4557109D01*
X86777190Y-4547742D01*
X86819516Y-4548296D01*
X86867373Y-4543941D01*
X86921519Y-4549632D01*
X86921519Y-4549632D01*
G37*
G36*
X80321519Y-4549632D02*
G01*
X80370331Y-4550271D01*
X80418209Y-4559794D01*
X80472355Y-4565485D01*
X80518259Y-4579695D01*
X80559783Y-4587954D01*
X80611169Y-4608455D01*
X80669249Y-4626434D01*
X80705889Y-4646245D01*
X80739192Y-4659532D01*
X80791493Y-4692531D01*
X80850555Y-4724466D01*
X80877706Y-4746927D01*
X80902554Y-4762605D01*
X80952777Y-4809031D01*
X81009367Y-4855846D01*
X81027584Y-4878182D01*
X81044398Y-4893725D01*
X81089273Y-4953821D01*
X81139636Y-5015571D01*
X81150148Y-5035342D01*
X81159973Y-5048499D01*
X81196157Y-5121872D01*
X81236399Y-5197558D01*
X81241006Y-5212819D01*
X81245404Y-5221736D01*
X81269580Y-5307458D01*
X81295972Y-5394873D01*
X81296899Y-5404325D01*
X81297836Y-5407648D01*
X81306952Y-5506854D01*
X81311000Y-5548140D01*
X81311000Y-6248380D01*
X81293007Y-6419572D01*
X81264781Y-6508551D01*
X81235167Y-6603924D01*
X81233556Y-6606987D01*
X81230685Y-6616036D01*
X81186704Y-6696037D01*
X81145226Y-6774874D01*
X81139071Y-6782682D01*
X81131390Y-6796653D01*
X81076281Y-6862329D01*
X81025639Y-6926568D01*
X81013295Y-6937393D01*
X80998904Y-6954544D01*
X80936806Y-7004472D01*
X80880415Y-7053925D01*
X80860738Y-7065632D01*
X80838273Y-7083694D01*
X80773188Y-7117719D01*
X80714409Y-7152690D01*
X80686843Y-7162860D01*
X80655615Y-7179185D01*
X80591201Y-7198143D01*
X80533188Y-7219545D01*
X80497857Y-7225616D01*
X80457890Y-7237379D01*
X80397323Y-7242891D01*
X80342810Y-7252258D01*
X80300484Y-7251704D01*
X80252627Y-7256059D01*
X80198481Y-7250368D01*
X80149669Y-7249729D01*
X80101791Y-7240206D01*
X80047645Y-7234515D01*
X80001741Y-7220305D01*
X79960217Y-7212046D01*
X79908831Y-7191545D01*
X79850751Y-7173566D01*
X79814111Y-7153755D01*
X79780808Y-7140468D01*
X79728507Y-7107469D01*
X79669445Y-7075534D01*
X79642294Y-7053073D01*
X79617446Y-7037395D01*
X79567223Y-6990969D01*
X79510633Y-6944154D01*
X79492416Y-6921818D01*
X79475602Y-6906275D01*
X79430728Y-6846181D01*
X79380364Y-6784429D01*
X79369851Y-6764657D01*
X79360028Y-6751502D01*
X79323856Y-6678152D01*
X79283601Y-6602442D01*
X79278991Y-6587174D01*
X79274596Y-6578261D01*
X79250427Y-6492564D01*
X79224028Y-6405127D01*
X79223101Y-6395675D01*
X79222164Y-6392352D01*
X79213048Y-6293146D01*
X79209000Y-6251860D01*
X79209000Y-5551620D01*
X79226993Y-5380428D01*
X79255207Y-5291489D01*
X79284834Y-5196074D01*
X79286447Y-5193008D01*
X79289316Y-5183964D01*
X79333286Y-5103982D01*
X79374774Y-5025128D01*
X79380929Y-5017320D01*
X79388611Y-5003347D01*
X79443720Y-4937671D01*
X79494360Y-4873434D01*
X79506705Y-4862608D01*
X79521097Y-4845456D01*
X79583194Y-4795529D01*
X79639588Y-4746073D01*
X79659267Y-4734365D01*
X79681728Y-4716306D01*
X79746806Y-4682284D01*
X79805591Y-4647310D01*
X79833158Y-4637140D01*
X79864385Y-4620815D01*
X79928799Y-4601857D01*
X79986812Y-4580455D01*
X80022143Y-4574384D01*
X80062110Y-4562621D01*
X80122677Y-4557109D01*
X80177190Y-4547742D01*
X80219516Y-4548296D01*
X80267373Y-4543941D01*
X80321519Y-4549632D01*
X80321519Y-4549632D01*
G37*
G36*
X73621519Y-4549632D02*
G01*
X73670331Y-4550271D01*
X73718209Y-4559794D01*
X73772355Y-4565485D01*
X73818259Y-4579695D01*
X73859783Y-4587954D01*
X73911169Y-4608455D01*
X73969249Y-4626434D01*
X74005889Y-4646245D01*
X74039192Y-4659532D01*
X74091493Y-4692531D01*
X74150555Y-4724466D01*
X74177706Y-4746927D01*
X74202554Y-4762605D01*
X74252777Y-4809031D01*
X74309367Y-4855846D01*
X74327584Y-4878182D01*
X74344398Y-4893725D01*
X74389273Y-4953821D01*
X74439636Y-5015571D01*
X74450148Y-5035342D01*
X74459973Y-5048499D01*
X74496157Y-5121872D01*
X74536399Y-5197558D01*
X74541006Y-5212819D01*
X74545404Y-5221736D01*
X74569580Y-5307458D01*
X74595972Y-5394873D01*
X74596899Y-5404325D01*
X74597836Y-5407648D01*
X74606952Y-5506854D01*
X74611000Y-5548140D01*
X74611000Y-6248380D01*
X74593007Y-6419572D01*
X74564781Y-6508551D01*
X74535167Y-6603924D01*
X74533556Y-6606987D01*
X74530685Y-6616036D01*
X74486704Y-6696037D01*
X74445226Y-6774874D01*
X74439071Y-6782682D01*
X74431390Y-6796653D01*
X74376281Y-6862329D01*
X74325639Y-6926568D01*
X74313295Y-6937393D01*
X74298904Y-6954544D01*
X74236806Y-7004472D01*
X74180415Y-7053925D01*
X74160738Y-7065632D01*
X74138273Y-7083694D01*
X74073188Y-7117719D01*
X74014409Y-7152690D01*
X73986843Y-7162860D01*
X73955615Y-7179185D01*
X73891201Y-7198143D01*
X73833188Y-7219545D01*
X73797857Y-7225616D01*
X73757890Y-7237379D01*
X73697323Y-7242891D01*
X73642810Y-7252258D01*
X73600484Y-7251704D01*
X73552627Y-7256059D01*
X73498481Y-7250368D01*
X73449669Y-7249729D01*
X73401791Y-7240206D01*
X73347645Y-7234515D01*
X73301741Y-7220305D01*
X73260217Y-7212046D01*
X73208831Y-7191545D01*
X73150751Y-7173566D01*
X73114111Y-7153755D01*
X73080808Y-7140468D01*
X73028507Y-7107469D01*
X72969445Y-7075534D01*
X72942294Y-7053073D01*
X72917446Y-7037395D01*
X72867223Y-6990969D01*
X72810633Y-6944154D01*
X72792416Y-6921818D01*
X72775602Y-6906275D01*
X72730728Y-6846181D01*
X72680364Y-6784429D01*
X72669851Y-6764657D01*
X72660028Y-6751502D01*
X72623856Y-6678152D01*
X72583601Y-6602442D01*
X72578991Y-6587174D01*
X72574596Y-6578261D01*
X72550427Y-6492564D01*
X72524028Y-6405127D01*
X72523101Y-6395675D01*
X72522164Y-6392352D01*
X72513048Y-6293146D01*
X72509000Y-6251860D01*
X72509000Y-5551620D01*
X72526993Y-5380428D01*
X72555207Y-5291489D01*
X72584834Y-5196074D01*
X72586447Y-5193008D01*
X72589316Y-5183964D01*
X72633286Y-5103982D01*
X72674774Y-5025128D01*
X72680929Y-5017320D01*
X72688611Y-5003347D01*
X72743720Y-4937671D01*
X72794360Y-4873434D01*
X72806705Y-4862608D01*
X72821097Y-4845456D01*
X72883194Y-4795529D01*
X72939588Y-4746073D01*
X72959267Y-4734365D01*
X72981728Y-4716306D01*
X73046806Y-4682284D01*
X73105591Y-4647310D01*
X73133158Y-4637140D01*
X73164385Y-4620815D01*
X73228799Y-4601857D01*
X73286812Y-4580455D01*
X73322143Y-4574384D01*
X73362110Y-4562621D01*
X73422677Y-4557109D01*
X73477190Y-4547742D01*
X73519516Y-4548296D01*
X73567373Y-4543941D01*
X73621519Y-4549632D01*
X73621519Y-4549632D01*
G37*
G36*
X66771519Y-4549632D02*
G01*
X66820331Y-4550271D01*
X66868209Y-4559794D01*
X66922355Y-4565485D01*
X66968259Y-4579695D01*
X67009783Y-4587954D01*
X67061169Y-4608455D01*
X67119249Y-4626434D01*
X67155889Y-4646245D01*
X67189192Y-4659532D01*
X67241493Y-4692531D01*
X67300555Y-4724466D01*
X67327706Y-4746927D01*
X67352554Y-4762605D01*
X67402777Y-4809031D01*
X67459367Y-4855846D01*
X67477584Y-4878182D01*
X67494398Y-4893725D01*
X67539273Y-4953821D01*
X67589636Y-5015571D01*
X67600148Y-5035342D01*
X67609973Y-5048499D01*
X67646157Y-5121872D01*
X67686399Y-5197558D01*
X67691006Y-5212819D01*
X67695404Y-5221736D01*
X67719580Y-5307458D01*
X67745972Y-5394873D01*
X67746899Y-5404325D01*
X67747836Y-5407648D01*
X67756952Y-5506854D01*
X67761000Y-5548140D01*
X67761000Y-6248380D01*
X67743007Y-6419572D01*
X67714781Y-6508551D01*
X67685167Y-6603924D01*
X67683556Y-6606987D01*
X67680685Y-6616036D01*
X67636704Y-6696037D01*
X67595226Y-6774874D01*
X67589071Y-6782682D01*
X67581390Y-6796653D01*
X67526281Y-6862329D01*
X67475639Y-6926568D01*
X67463295Y-6937393D01*
X67448904Y-6954544D01*
X67386806Y-7004472D01*
X67330415Y-7053925D01*
X67310738Y-7065632D01*
X67288273Y-7083694D01*
X67223188Y-7117719D01*
X67164409Y-7152690D01*
X67136843Y-7162860D01*
X67105615Y-7179185D01*
X67041201Y-7198143D01*
X66983188Y-7219545D01*
X66947857Y-7225616D01*
X66907890Y-7237379D01*
X66847323Y-7242891D01*
X66792810Y-7252258D01*
X66750484Y-7251704D01*
X66702627Y-7256059D01*
X66648481Y-7250368D01*
X66599669Y-7249729D01*
X66551791Y-7240206D01*
X66497645Y-7234515D01*
X66451741Y-7220305D01*
X66410217Y-7212046D01*
X66358831Y-7191545D01*
X66300751Y-7173566D01*
X66264111Y-7153755D01*
X66230808Y-7140468D01*
X66178507Y-7107469D01*
X66119445Y-7075534D01*
X66092294Y-7053073D01*
X66067446Y-7037395D01*
X66017223Y-6990969D01*
X65960633Y-6944154D01*
X65942416Y-6921818D01*
X65925602Y-6906275D01*
X65880728Y-6846181D01*
X65830364Y-6784429D01*
X65819851Y-6764657D01*
X65810028Y-6751502D01*
X65773856Y-6678152D01*
X65733601Y-6602442D01*
X65728991Y-6587174D01*
X65724596Y-6578261D01*
X65700427Y-6492564D01*
X65674028Y-6405127D01*
X65673101Y-6395675D01*
X65672164Y-6392352D01*
X65663048Y-6293146D01*
X65659000Y-6251860D01*
X65659000Y-5551620D01*
X65676993Y-5380428D01*
X65705207Y-5291489D01*
X65734834Y-5196074D01*
X65736447Y-5193008D01*
X65739316Y-5183964D01*
X65783286Y-5103982D01*
X65824774Y-5025128D01*
X65830929Y-5017320D01*
X65838611Y-5003347D01*
X65893720Y-4937671D01*
X65944360Y-4873434D01*
X65956705Y-4862608D01*
X65971097Y-4845456D01*
X66033194Y-4795529D01*
X66089588Y-4746073D01*
X66109267Y-4734365D01*
X66131728Y-4716306D01*
X66196806Y-4682284D01*
X66255591Y-4647310D01*
X66283158Y-4637140D01*
X66314385Y-4620815D01*
X66378799Y-4601857D01*
X66436812Y-4580455D01*
X66472143Y-4574384D01*
X66512110Y-4562621D01*
X66572677Y-4557109D01*
X66627190Y-4547742D01*
X66669516Y-4548296D01*
X66717373Y-4543941D01*
X66771519Y-4549632D01*
X66771519Y-4549632D01*
G37*
G36*
X70269899Y-4551959D02*
G01*
X70286769Y-4563231D01*
X70298041Y-4580101D01*
X70304448Y-4612312D01*
X70304448Y-7187688D01*
X70301999Y-7200000D01*
X70298041Y-7219899D01*
X70286769Y-7236769D01*
X70269899Y-7248041D01*
X70250000Y-7251999D01*
X70237688Y-7254448D01*
X68262312Y-7254448D01*
X68230101Y-7248041D01*
X68213231Y-7236769D01*
X68201959Y-7219899D01*
X68195552Y-7187688D01*
X68195552Y-4612312D01*
X68201959Y-4580101D01*
X68213231Y-4563231D01*
X68230101Y-4551959D01*
X68262312Y-4545552D01*
X70237688Y-4545552D01*
X70269899Y-4551959D01*
X70269899Y-4551959D01*
G37*
G36*
X77119899Y-4551959D02*
G01*
X77136769Y-4563231D01*
X77148041Y-4580101D01*
X77154448Y-4612312D01*
X77154448Y-7187688D01*
X77151999Y-7200000D01*
X77148041Y-7219899D01*
X77136769Y-7236769D01*
X77119899Y-7248041D01*
X77100000Y-7251999D01*
X77087688Y-7254448D01*
X75112312Y-7254448D01*
X75080101Y-7248041D01*
X75063231Y-7236769D01*
X75051959Y-7219899D01*
X75045552Y-7187688D01*
X75045552Y-4612312D01*
X75051959Y-4580101D01*
X75063231Y-4563231D01*
X75080101Y-4551959D01*
X75112312Y-4545552D01*
X77087688Y-4545552D01*
X77119899Y-4551959D01*
X77119899Y-4551959D01*
G37*
G36*
X83819899Y-4551959D02*
G01*
X83836769Y-4563231D01*
X83848041Y-4580101D01*
X83854448Y-4612312D01*
X83854448Y-7187688D01*
X83851999Y-7200000D01*
X83848041Y-7219899D01*
X83836769Y-7236769D01*
X83819899Y-7248041D01*
X83800000Y-7251999D01*
X83787688Y-7254448D01*
X81812312Y-7254448D01*
X81780101Y-7248041D01*
X81763231Y-7236769D01*
X81751959Y-7219899D01*
X81745552Y-7187688D01*
X81745552Y-4612312D01*
X81751959Y-4580101D01*
X81763231Y-4563231D01*
X81780101Y-4551959D01*
X81812312Y-4545552D01*
X83787688Y-4545552D01*
X83819899Y-4551959D01*
X83819899Y-4551959D01*
G37*
G36*
X90419899Y-4551959D02*
G01*
X90436769Y-4563231D01*
X90448041Y-4580101D01*
X90454448Y-4612312D01*
X90454448Y-7187688D01*
X90451999Y-7200000D01*
X90448041Y-7219899D01*
X90436769Y-7236769D01*
X90419899Y-7248041D01*
X90400000Y-7251999D01*
X90387688Y-7254448D01*
X88412312Y-7254448D01*
X88380101Y-7248041D01*
X88363231Y-7236769D01*
X88351959Y-7219899D01*
X88345552Y-7187688D01*
X88345552Y-4612312D01*
X88351959Y-4580101D01*
X88363231Y-4563231D01*
X88380101Y-4551959D01*
X88412312Y-4545552D01*
X90387688Y-4545552D01*
X90419899Y-4551959D01*
X90419899Y-4551959D01*
G37*
M02*
