G04 #@! TF.GenerationSoftware,KiCad,Pcbnew,5.1.0-unknown-c054944~86~ubuntu19.04.1*
G04 #@! TF.CreationDate,2019-05-09T13:09:11-04:00*
G04 #@! TF.ProjectId,BMS-Master,424d532d-4d61-4737-9465-722e6b696361,V0.2*
G04 #@! TF.SameCoordinates,Original*
G04 #@! TF.FileFunction,Copper,L2,Bot*
G04 #@! TF.FilePolarity,Positive*
%FSLAX46Y46*%
G04 Gerber Fmt 4.6, Leading zero omitted, Abs format (unit mm)*
G04 Created by KiCad (PCBNEW 5.1.0-unknown-c054944~86~ubuntu19.04.1) date 2019-05-09 13:09:11*
%MOMM*%
%LPD*%
G04 APERTURE LIST*
%ADD10R,2.600000X2.000000*%
%ADD11O,2.600000X2.000000*%
%ADD12C,2.499360*%
%ADD13C,2.500000*%
%ADD14R,2.500000X2.500000*%
%ADD15R,2.000000X2.600000*%
%ADD16O,2.000000X2.600000*%
%ADD17C,5.400000*%
%ADD18C,0.800000*%
%ADD19R,1.650000X2.400000*%
%ADD20C,0.600000*%
%ADD21C,3.000000*%
%ADD22C,0.500000*%
%ADD23C,0.250000*%
%ADD24C,0.254000*%
G04 APERTURE END LIST*
D10*
X94800000Y-65500000D03*
D11*
X94800000Y-62960000D03*
X94800000Y-60420000D03*
X94800000Y-57880000D03*
X94800000Y-55340000D03*
D10*
X94700000Y-86800000D03*
D11*
X94700000Y-84260000D03*
X94700000Y-81720000D03*
X94700000Y-79180000D03*
X94700000Y-76640000D03*
D10*
X94800000Y-51300000D03*
D11*
X94800000Y-48760000D03*
X94800000Y-46220000D03*
X94800000Y-43680000D03*
X94800000Y-41140000D03*
D12*
X57400000Y-73700000D03*
X57400000Y-68700000D03*
D13*
X5600000Y-42200000D03*
D14*
X5600000Y-37200000D03*
D13*
X5600000Y-29350000D03*
D14*
X5600000Y-24350000D03*
D15*
X69250000Y-5900000D03*
D16*
X66710000Y-5900000D03*
D15*
X76100000Y-5900000D03*
D16*
X73560000Y-5900000D03*
D15*
X82800000Y-5900000D03*
D16*
X80260000Y-5900000D03*
D10*
X5861680Y-52300000D03*
D11*
X5861680Y-54840000D03*
X5861680Y-57380000D03*
X5861680Y-59920000D03*
D15*
X89400000Y-5900000D03*
D16*
X86860000Y-5900000D03*
D14*
X5600000Y-11350000D03*
D13*
X5600000Y-16350000D03*
D11*
X5800000Y-69140000D03*
D10*
X5800000Y-66600000D03*
D17*
X5000000Y-5000000D03*
D18*
X7025000Y-5000000D03*
X6431891Y-6431891D03*
X5000000Y-7025000D03*
X3568109Y-6431891D03*
X2975000Y-5000000D03*
X3568109Y-3568109D03*
X5000000Y-2975000D03*
X6431891Y-3568109D03*
X96431891Y-3568109D03*
X95000000Y-2975000D03*
X93568109Y-3568109D03*
X92975000Y-5000000D03*
X93568109Y-6431891D03*
X95000000Y-7025000D03*
X96431891Y-6431891D03*
X97025000Y-5000000D03*
D17*
X95000000Y-5000000D03*
X95000000Y-95000000D03*
D18*
X92975000Y-95000000D03*
X93568109Y-93568109D03*
X95000000Y-92975000D03*
X96431891Y-93568109D03*
X97025000Y-95000000D03*
X96431891Y-96431891D03*
X95000000Y-97025000D03*
X93568109Y-96431891D03*
X6431891Y-93568109D03*
X5000000Y-92975000D03*
X3568109Y-93568109D03*
X2975000Y-95000000D03*
X3568109Y-96431891D03*
X5000000Y-97025000D03*
X6431891Y-96431891D03*
X7025000Y-95000000D03*
D17*
X5000000Y-95000000D03*
D19*
X92001000Y-19900000D03*
D20*
X91500000Y-19150000D03*
X92500000Y-19150000D03*
X91500000Y-20650000D03*
X92500000Y-20650000D03*
X92000000Y-19900000D03*
D21*
X97510600Y-11226800D03*
X56184800Y-14732000D03*
X62763400Y-14732000D03*
X13208000Y-51816000D03*
X31750000Y-60198000D03*
D18*
X29100000Y-12100000D03*
X25000000Y-10500000D03*
X25000000Y-24400000D03*
X29200000Y-25400000D03*
X29500000Y-31000000D03*
X23500004Y-33500004D03*
X22600000Y-33500000D03*
X28600000Y-31000000D03*
X63246000Y-86360000D03*
X68072000Y-81026000D03*
X60100000Y-85100000D03*
X61600000Y-85100000D03*
X61600000Y-83600000D03*
X60100000Y-83600000D03*
X40442440Y-13419480D03*
X68000000Y-29000000D03*
X72200000Y-87800000D03*
X42291560Y-25723240D03*
X63200000Y-3300000D03*
X95300000Y-13900000D03*
X96200000Y-13900000D03*
X84300000Y-24800000D03*
X85600000Y-31300000D03*
X90200000Y-38300000D03*
X82500000Y-40300000D03*
X84100000Y-42200000D03*
X76600000Y-60400000D03*
X14300000Y-60900000D03*
X11700000Y-59000000D03*
X13800000Y-58100000D03*
X15500000Y-58000000D03*
X27700000Y-56100000D03*
X30500000Y-56000000D03*
X32000000Y-55900000D03*
X33500000Y-55800000D03*
X35000000Y-55800000D03*
X41300000Y-53900000D03*
X65300000Y-21700000D03*
X74000000Y-20500000D03*
X74000000Y-28000000D03*
X76400000Y-32500000D03*
X55800000Y-24900000D03*
X41300000Y-42600000D03*
X54900000Y-39400000D03*
X56900000Y-41500000D03*
X60900000Y-41400000D03*
X60900000Y-40400000D03*
X57600000Y-45100000D03*
X44400000Y-36100000D03*
X51025010Y-40202558D03*
X36300000Y-67600000D03*
X32300000Y-66700000D03*
X32200000Y-68300000D03*
X30900000Y-66800000D03*
X36400000Y-64000000D03*
X56788049Y-29849989D03*
X86900000Y-62800000D03*
X86600000Y-29800000D03*
X72200000Y-79800000D03*
X74499998Y-81500000D03*
X74500000Y-83500000D03*
X76500000Y-67000000D03*
X54600000Y-98000000D03*
X65400000Y-98000000D03*
X48500000Y-95650000D03*
X73274990Y-46800000D03*
X51600000Y-57700000D03*
X45300000Y-28800000D03*
X27800000Y-50100000D03*
X66300000Y-51400000D03*
X64900000Y-53900000D03*
X57600000Y-81600000D03*
X61000000Y-92000000D03*
X3500000Y-86000000D03*
X38100000Y-74300000D03*
X18200000Y-72900000D03*
X24100000Y-77000000D03*
X31487340Y-72987340D03*
X37100000Y-55900000D03*
X34500000Y-90999994D03*
X34500000Y-95500000D03*
X35000000Y-85000000D03*
X24512660Y-81512660D03*
X44500000Y-82000000D03*
X37300000Y-81900000D03*
X62900000Y-65700000D03*
X62700000Y-62100002D03*
X72500000Y-43300000D03*
X57554751Y-93755454D03*
X64516000Y-83820000D03*
X64516000Y-88392000D03*
X64516000Y-89916000D03*
X64400000Y-85500000D03*
X64650275Y-87250008D03*
X18200000Y-58100000D03*
X51816000Y-8128000D03*
X51562000Y-21590000D03*
X76400000Y-58100000D03*
X58762600Y-55500000D03*
X34740344Y-78025010D03*
X67300000Y-76800000D03*
X44100000Y-73200000D03*
X55000000Y-65500000D03*
X50425053Y-65700006D03*
X50925055Y-72399996D03*
X42900000Y-74000000D03*
X57000000Y-64500000D03*
X49975042Y-64700000D03*
X50475044Y-73900000D03*
X49525031Y-63606735D03*
X38112660Y-75399969D03*
X55400000Y-63500000D03*
X50025033Y-75101385D03*
X49075020Y-62636340D03*
X36502163Y-76124979D03*
X56125010Y-62400000D03*
X49700000Y-76200000D03*
X76600000Y-61600000D03*
X65500000Y-59500000D03*
X76400000Y-59200000D03*
X61900000Y-61400000D03*
X50899778Y-49903265D03*
X46200000Y-49700000D03*
X67216643Y-30654320D03*
X52000000Y-30700000D03*
X58166000Y-92710000D03*
X88500000Y-77500000D03*
X84500000Y-81500000D03*
X83500000Y-81500000D03*
X83500000Y-83500000D03*
X83500000Y-85500000D03*
X87200000Y-80300000D03*
X85700000Y-72300000D03*
X54800000Y-27000000D03*
X46600000Y-27000000D03*
X33400000Y-50900000D03*
X52400000Y-45100000D03*
X66000000Y-43400000D03*
X62992000Y-88392000D03*
X59366390Y-92496460D03*
X70200000Y-65400000D03*
X75600000Y-62200000D03*
X74000000Y-35600000D03*
X64500000Y-32400000D03*
X41000000Y-40000000D03*
X22900000Y-39700000D03*
X89600000Y-62900000D03*
X66228297Y-53193130D03*
X89100000Y-54800000D03*
X61600000Y-53600000D03*
X61600000Y-54800000D03*
X89100000Y-57200000D03*
X56200000Y-11600000D03*
X67800000Y-18000000D03*
X65400000Y-31800000D03*
X56900000Y-31425010D03*
X57900000Y-33300000D03*
X51100000Y-33300000D03*
X59000000Y-34200000D03*
X50600000Y-34300000D03*
X76500000Y-55700000D03*
X67190478Y-55625409D03*
X66686571Y-54081954D03*
X75925010Y-53900000D03*
X86400000Y-56200000D03*
X67504037Y-56574990D03*
X57700000Y-52000000D03*
X64100000Y-46800000D03*
X60300000Y-35074990D03*
X50825010Y-35500000D03*
X61600000Y-35800000D03*
X49400000Y-36600000D03*
X50874084Y-51902874D03*
X33100000Y-73000000D03*
X39900000Y-68300000D03*
X46200000Y-51800000D03*
X50900000Y-48700000D03*
X53400000Y-84550000D03*
X48700000Y-84500000D03*
X46600000Y-48500000D03*
X50900000Y-47400000D03*
X53400000Y-82900000D03*
X48499996Y-82900000D03*
X46900000Y-47400004D03*
X42600000Y-59200000D03*
X58949956Y-60741270D03*
X42600000Y-60900000D03*
X58900000Y-61800000D03*
X48625009Y-61700000D03*
X30349514Y-79274990D03*
X48700000Y-78300000D03*
X57724969Y-61614607D03*
X50902686Y-50903272D03*
X40300000Y-67100000D03*
X34274904Y-72176582D03*
X46200000Y-50700000D03*
X50909215Y-53133895D03*
X31500000Y-74000000D03*
X41000000Y-68690090D03*
X46200000Y-53000000D03*
X72000000Y-64000000D03*
X59990547Y-63987206D03*
X71000000Y-63500000D03*
X61000000Y-63600000D03*
X60300000Y-46400000D03*
X28800000Y-75800000D03*
X47500000Y-46400000D03*
X47841362Y-72321581D03*
D22*
X19350000Y-29350000D02*
X23500004Y-33500004D01*
X5600000Y-29350000D02*
X19350000Y-29350000D01*
D23*
X900000Y-28800000D02*
X1450000Y-29350000D01*
X900000Y-17500000D02*
X900000Y-28800000D01*
X1450000Y-29350000D02*
X5600000Y-29350000D01*
X5600000Y-16350000D02*
X2050000Y-16350000D01*
X2050000Y-16350000D02*
X900000Y-17500000D01*
X2700000Y-42200000D02*
X5600000Y-42200000D01*
X1650000Y-29350000D02*
X900000Y-30100000D01*
X900000Y-30100000D02*
X900000Y-39300000D01*
X1000000Y-39400000D02*
X1000000Y-40500000D01*
X900000Y-39300000D02*
X1000000Y-39400000D01*
X5600000Y-29350000D02*
X1650000Y-29350000D01*
X1000000Y-40500000D02*
X2700000Y-42200000D01*
X68072000Y-81591685D02*
X68072000Y-81026000D01*
X68072000Y-85328000D02*
X68072000Y-81591685D01*
X63246000Y-86360000D02*
X67040000Y-86360000D01*
X67040000Y-86360000D02*
X68072000Y-85328000D01*
D22*
X92001000Y-19900000D02*
X92001000Y-18401000D01*
X92001000Y-19900000D02*
X92001000Y-21299000D01*
D23*
X59162599Y-55899999D02*
X58762600Y-55500000D01*
X76400000Y-58100000D02*
X61362600Y-58100000D01*
X61362600Y-58100000D02*
X59162599Y-55899999D01*
X66900001Y-77199999D02*
X67300000Y-76800000D01*
X66800000Y-77300000D02*
X66900001Y-77199999D01*
X35465354Y-77300000D02*
X66800000Y-77300000D01*
X34740344Y-78025010D02*
X35465354Y-77300000D01*
X50625059Y-65500000D02*
X50425053Y-65700006D01*
X55000000Y-65500000D02*
X50625059Y-65500000D01*
X44100000Y-73200000D02*
X49925051Y-73200000D01*
X50325056Y-72799995D02*
X50525056Y-72799995D01*
X49925051Y-73200000D02*
X50325056Y-72799995D01*
X50525056Y-72799995D02*
X50925055Y-72399996D01*
X57000000Y-64500000D02*
X50175042Y-64500000D01*
X50175042Y-64500000D02*
X49975042Y-64700000D01*
X42900000Y-74000000D02*
X50375044Y-74000000D01*
X50375044Y-74000000D02*
X50475044Y-73900000D01*
X55293265Y-63606735D02*
X55400000Y-63500000D01*
X49525031Y-63606735D02*
X55293265Y-63606735D01*
X49726449Y-75399969D02*
X50025033Y-75101385D01*
X38112660Y-75399969D02*
X49726449Y-75399969D01*
X49075020Y-62636340D02*
X55888670Y-62636340D01*
X55888670Y-62636340D02*
X56125010Y-62400000D01*
X49624979Y-76124979D02*
X49700000Y-76200000D01*
X36502163Y-76124979D02*
X49624979Y-76124979D01*
X74500000Y-59500000D02*
X66065685Y-59500000D01*
X76600000Y-61600000D02*
X74500000Y-59500000D01*
X66065685Y-59500000D02*
X65500000Y-59500000D01*
X75825169Y-58625169D02*
X64674831Y-58625169D01*
X76400000Y-59200000D02*
X75825169Y-58625169D01*
X64674831Y-58625169D02*
X62299999Y-61000001D01*
X62299999Y-61000001D02*
X61900000Y-61400000D01*
X50899778Y-49903265D02*
X46403265Y-49903265D01*
X46403265Y-49903265D02*
X46200000Y-49700000D01*
X67216643Y-30654320D02*
X52045680Y-30654320D01*
X52045680Y-30654320D02*
X52000000Y-30700000D01*
X87200000Y-80300000D02*
X85700000Y-78800000D01*
X85700000Y-78800000D02*
X85700000Y-72300000D01*
X54800000Y-27000000D02*
X46600000Y-27000000D01*
X7411680Y-57380000D02*
X10091680Y-54700000D01*
X5861680Y-57380000D02*
X7411680Y-57380000D01*
X10091680Y-54700000D02*
X29600000Y-54700000D01*
X29600000Y-54700000D02*
X33400000Y-50900000D01*
X52400000Y-45100000D02*
X53400000Y-45100000D01*
X53400000Y-45100000D02*
X55100000Y-43400000D01*
X55100000Y-43400000D02*
X66000000Y-43400000D01*
X59366390Y-89333610D02*
X59366390Y-92496460D01*
X62992000Y-88392000D02*
X60308000Y-88392000D01*
X60308000Y-88392000D02*
X59366390Y-89333610D01*
X72400000Y-65400000D02*
X75200001Y-62599999D01*
X70200000Y-65400000D02*
X72400000Y-65400000D01*
X75200001Y-62599999D02*
X75600000Y-62200000D01*
X67700000Y-35600000D02*
X64899999Y-32799999D01*
X74000000Y-35600000D02*
X67700000Y-35600000D01*
X64899999Y-32799999D02*
X64500000Y-32400000D01*
X64500000Y-32400000D02*
X47034315Y-32400000D01*
X41000000Y-39434315D02*
X41000000Y-40000000D01*
X47034315Y-32400000D02*
X41000000Y-38434315D01*
X41000000Y-38434315D02*
X41000000Y-39434315D01*
X13200000Y-39700000D02*
X22900000Y-39700000D01*
X5600000Y-37200000D02*
X10700000Y-37200000D01*
X10700000Y-37200000D02*
X13200000Y-39700000D01*
X89999999Y-54626995D02*
X88166135Y-52793131D01*
X89999999Y-62500001D02*
X89999999Y-54626995D01*
X88166135Y-52793131D02*
X66628296Y-52793131D01*
X66628296Y-52793131D02*
X66228297Y-53193130D01*
X89600000Y-62900000D02*
X89999999Y-62500001D01*
X89100000Y-54800000D02*
X67041527Y-54800000D01*
X67041527Y-54800000D02*
X67034572Y-54806955D01*
X61999999Y-53999999D02*
X61600000Y-53600000D01*
X67034572Y-54806955D02*
X66338570Y-54806955D01*
X66331615Y-54800000D02*
X62800000Y-54800000D01*
X62800000Y-54800000D02*
X61999999Y-53999999D01*
X66338570Y-54806955D02*
X66331615Y-54800000D01*
X64100000Y-57300000D02*
X89000000Y-57300000D01*
X61600000Y-54800000D02*
X64100000Y-57300000D01*
X89000000Y-57300000D02*
X89100000Y-57200000D01*
X57370000Y-18000000D02*
X67800000Y-18000000D01*
X56200000Y-11600000D02*
X56200000Y-16830000D01*
X56200000Y-16830000D02*
X57370000Y-18000000D01*
X57465685Y-31425010D02*
X56900000Y-31425010D01*
X65400000Y-31800000D02*
X65025010Y-31425010D01*
X65025010Y-31425010D02*
X57465685Y-31425010D01*
X57334315Y-33300000D02*
X51100000Y-33300000D01*
X57900000Y-33300000D02*
X57334315Y-33300000D01*
X59000000Y-34200000D02*
X50700000Y-34200000D01*
X50700000Y-34200000D02*
X50600000Y-34300000D01*
X67265069Y-55700000D02*
X67190478Y-55625409D01*
X76500000Y-55700000D02*
X67265069Y-55700000D01*
X66686571Y-54081954D02*
X75743056Y-54081954D01*
X75743056Y-54081954D02*
X75925010Y-53900000D01*
X67529046Y-56599999D02*
X67511540Y-56582493D01*
X86000001Y-56599999D02*
X67529046Y-56599999D01*
X86400000Y-56200000D02*
X86000001Y-56599999D01*
X67511540Y-56582493D02*
X67504037Y-56574990D01*
X62900000Y-46800000D02*
X63534315Y-46800000D01*
X57700000Y-52000000D02*
X62900000Y-46800000D01*
X63534315Y-46800000D02*
X64100000Y-46800000D01*
X60300000Y-35074990D02*
X51250020Y-35074990D01*
X51250020Y-35074990D02*
X51225009Y-35100001D01*
X51225009Y-35100001D02*
X50825010Y-35500000D01*
X49965685Y-36600000D02*
X49400000Y-36600000D01*
X60800000Y-36600000D02*
X49965685Y-36600000D01*
X61600000Y-35800000D02*
X60800000Y-36600000D01*
X33100000Y-73000000D02*
X35200000Y-73000000D01*
X35200000Y-73000000D02*
X39900000Y-68300000D01*
X46302874Y-51902874D02*
X46200000Y-51800000D01*
X50874084Y-51902874D02*
X46302874Y-51902874D01*
X48750000Y-84550000D02*
X48700000Y-84500000D01*
X53400000Y-84550000D02*
X48750000Y-84550000D01*
X46800000Y-48700000D02*
X46600000Y-48500000D01*
X50900000Y-48700000D02*
X46800000Y-48700000D01*
X53400000Y-82900000D02*
X48499996Y-82900000D01*
X46900004Y-47400000D02*
X46900000Y-47400004D01*
X50900000Y-47400000D02*
X46900004Y-47400000D01*
X42600000Y-59200000D02*
X57408686Y-59200000D01*
X57408686Y-59200000D02*
X58549957Y-60341271D01*
X58549957Y-60341271D02*
X58949956Y-60741270D01*
X58500001Y-61364319D02*
X58500001Y-61400001D01*
X58500001Y-61400001D02*
X58900000Y-61800000D01*
X57635683Y-60500001D02*
X58500001Y-61364319D01*
X42600000Y-60900000D02*
X42999999Y-60500001D01*
X42999999Y-60500001D02*
X57635683Y-60500001D01*
X48300001Y-78699999D02*
X48700000Y-78300000D01*
X47725010Y-79274990D02*
X48300001Y-78699999D01*
X30349514Y-79274990D02*
X47725010Y-79274990D01*
X49025008Y-61300001D02*
X57410363Y-61300001D01*
X57724928Y-61614566D02*
X57724969Y-61614607D01*
X48625009Y-61700000D02*
X49025008Y-61300001D01*
X57410363Y-61300001D02*
X57724928Y-61614566D01*
X39351486Y-67100000D02*
X34674903Y-71776583D01*
X34674903Y-71776583D02*
X34274904Y-72176582D01*
X40300000Y-67100000D02*
X39351486Y-67100000D01*
X50902686Y-50903272D02*
X46403272Y-50903272D01*
X46403272Y-50903272D02*
X46200000Y-50700000D01*
X50909215Y-53133895D02*
X46333895Y-53133895D01*
X46333895Y-53133895D02*
X46200000Y-53000000D01*
X31500000Y-74000000D02*
X35690090Y-74000000D01*
X35690090Y-74000000D02*
X40600001Y-69090089D01*
X40600001Y-69090089D02*
X41000000Y-68690090D01*
X72000000Y-64000000D02*
X71600001Y-64399999D01*
X60403340Y-64399999D02*
X60390546Y-64387205D01*
X71600001Y-64399999D02*
X60403340Y-64399999D01*
X60390546Y-64387205D02*
X59990547Y-63987206D01*
X61100000Y-63500000D02*
X61000000Y-63600000D01*
X71000000Y-63500000D02*
X61100000Y-63500000D01*
X60300000Y-46400000D02*
X47500000Y-46400000D01*
X28800000Y-75800000D02*
X35000000Y-75800000D01*
X35000000Y-75800000D02*
X38478419Y-72321581D01*
X38478419Y-72321581D02*
X47275677Y-72321581D01*
X47275677Y-72321581D02*
X47841362Y-72321581D01*
D24*
G36*
X95772528Y-706470D02*
G01*
X96520635Y-911129D01*
X97220682Y-1245035D01*
X97850532Y-1697628D01*
X98390281Y-2254605D01*
X98822866Y-2898360D01*
X99134617Y-3608548D01*
X99316850Y-4367600D01*
X99365000Y-5023288D01*
X99365000Y-10159208D01*
X99168963Y-9865817D01*
X98871583Y-9568437D01*
X98521902Y-9334788D01*
X98133356Y-9173847D01*
X97720879Y-9091800D01*
X97300321Y-9091800D01*
X96887844Y-9173847D01*
X96499298Y-9334788D01*
X96149617Y-9568437D01*
X95852237Y-9865817D01*
X95618588Y-10215498D01*
X95457647Y-10604044D01*
X95375600Y-11016521D01*
X95375600Y-11437079D01*
X95457647Y-11849556D01*
X95618588Y-12238102D01*
X95852237Y-12587783D01*
X96149617Y-12885163D01*
X96499298Y-13118812D01*
X96887844Y-13279753D01*
X97300321Y-13361800D01*
X97720879Y-13361800D01*
X98133356Y-13279753D01*
X98521902Y-13118812D01*
X98871583Y-12885163D01*
X99168963Y-12587783D01*
X99365000Y-12294392D01*
X99365001Y-68276613D01*
X99226338Y-68415276D01*
X99012445Y-68575395D01*
X98777940Y-68703444D01*
X98527593Y-68796819D01*
X98266504Y-68853615D01*
X97995470Y-68873000D01*
X78000000Y-68873000D01*
X77990940Y-68873324D01*
X77706310Y-68893681D01*
X77688374Y-68896259D01*
X77409539Y-68956916D01*
X77392153Y-68962021D01*
X77124788Y-69061743D01*
X77108305Y-69069271D01*
X76857853Y-69206028D01*
X76842610Y-69215824D01*
X76614171Y-69386832D01*
X76600476Y-69398698D01*
X76398698Y-69600476D01*
X76386832Y-69614171D01*
X76215824Y-69842610D01*
X76206028Y-69857853D01*
X76069271Y-70108305D01*
X76061743Y-70124788D01*
X75962021Y-70392153D01*
X75956916Y-70409539D01*
X75896259Y-70688374D01*
X75893681Y-70706310D01*
X75873324Y-70990940D01*
X75873000Y-71000000D01*
X75873000Y-97995470D01*
X75853615Y-98266504D01*
X75796819Y-98527593D01*
X75703444Y-98777940D01*
X75575395Y-99012445D01*
X75415276Y-99226338D01*
X75276614Y-99365000D01*
X5028279Y-99365000D01*
X4227472Y-99293530D01*
X3479364Y-99088871D01*
X2779318Y-98754965D01*
X2149468Y-98302372D01*
X1609719Y-97745395D01*
X1177133Y-97101637D01*
X865383Y-96391452D01*
X683150Y-95632400D01*
X635000Y-94976712D01*
X635000Y-94671531D01*
X1665000Y-94671531D01*
X1665000Y-95328469D01*
X1793162Y-95972784D01*
X2044561Y-96579715D01*
X2409536Y-97125939D01*
X2874061Y-97590464D01*
X3420285Y-97955439D01*
X4027216Y-98206838D01*
X4671531Y-98335000D01*
X5328469Y-98335000D01*
X5972784Y-98206838D01*
X6579715Y-97955439D01*
X7125939Y-97590464D01*
X7590464Y-97125939D01*
X7955439Y-96579715D01*
X8206838Y-95972784D01*
X8335000Y-95328469D01*
X8335000Y-94671531D01*
X8206838Y-94027216D01*
X7955439Y-93420285D01*
X7590464Y-92874061D01*
X7324464Y-92608061D01*
X57131000Y-92608061D01*
X57131000Y-92811939D01*
X57170774Y-93011898D01*
X57248795Y-93200256D01*
X57362063Y-93369774D01*
X57506226Y-93513937D01*
X57675744Y-93627205D01*
X57864102Y-93705226D01*
X58064061Y-93745000D01*
X58267939Y-93745000D01*
X58467898Y-93705226D01*
X58656256Y-93627205D01*
X58825774Y-93513937D01*
X58911427Y-93428284D01*
X59064492Y-93491686D01*
X59264451Y-93531460D01*
X59468329Y-93531460D01*
X59668288Y-93491686D01*
X59856646Y-93413665D01*
X60026164Y-93300397D01*
X60170327Y-93156234D01*
X60283595Y-92986716D01*
X60361616Y-92798358D01*
X60401390Y-92598399D01*
X60401390Y-92394521D01*
X60361616Y-92194562D01*
X60283595Y-92006204D01*
X60170327Y-91836686D01*
X60126390Y-91792749D01*
X60126390Y-89648411D01*
X60622802Y-89152000D01*
X62288289Y-89152000D01*
X62332226Y-89195937D01*
X62501744Y-89309205D01*
X62690102Y-89387226D01*
X62890061Y-89427000D01*
X63093939Y-89427000D01*
X63293898Y-89387226D01*
X63482256Y-89309205D01*
X63651774Y-89195937D01*
X63795937Y-89051774D01*
X63909205Y-88882256D01*
X63987226Y-88693898D01*
X64027000Y-88493939D01*
X64027000Y-88290061D01*
X63987226Y-88090102D01*
X63909205Y-87901744D01*
X63795937Y-87732226D01*
X63651774Y-87588063D01*
X63482256Y-87474795D01*
X63293898Y-87396774D01*
X63284979Y-87395000D01*
X63347939Y-87395000D01*
X63547898Y-87355226D01*
X63736256Y-87277205D01*
X63905774Y-87163937D01*
X63949711Y-87120000D01*
X67002678Y-87120000D01*
X67040000Y-87123676D01*
X67077322Y-87120000D01*
X67077333Y-87120000D01*
X67188986Y-87109003D01*
X67332247Y-87065546D01*
X67464276Y-86994974D01*
X67580001Y-86900001D01*
X67603803Y-86870998D01*
X68583009Y-85891794D01*
X68612001Y-85868001D01*
X68635795Y-85839008D01*
X68635799Y-85839004D01*
X68706973Y-85752277D01*
X68706974Y-85752276D01*
X68777546Y-85620247D01*
X68821003Y-85476986D01*
X68832000Y-85365333D01*
X68832000Y-85365324D01*
X68835676Y-85328001D01*
X68832000Y-85290678D01*
X68832000Y-81729711D01*
X68875937Y-81685774D01*
X68989205Y-81516256D01*
X69067226Y-81327898D01*
X69107000Y-81127939D01*
X69107000Y-80924061D01*
X69067226Y-80724102D01*
X68989205Y-80535744D01*
X68875937Y-80366226D01*
X68731774Y-80222063D01*
X68562256Y-80108795D01*
X68373898Y-80030774D01*
X68173939Y-79991000D01*
X67970061Y-79991000D01*
X67770102Y-80030774D01*
X67581744Y-80108795D01*
X67412226Y-80222063D01*
X67268063Y-80366226D01*
X67154795Y-80535744D01*
X67076774Y-80724102D01*
X67037000Y-80924061D01*
X67037000Y-81127939D01*
X67076774Y-81327898D01*
X67154795Y-81516256D01*
X67268063Y-81685774D01*
X67312001Y-81729712D01*
X67312000Y-85013197D01*
X66725199Y-85600000D01*
X63949711Y-85600000D01*
X63905774Y-85556063D01*
X63736256Y-85442795D01*
X63547898Y-85364774D01*
X63347939Y-85325000D01*
X63144061Y-85325000D01*
X62944102Y-85364774D01*
X62755744Y-85442795D01*
X62586226Y-85556063D01*
X62442063Y-85700226D01*
X62328795Y-85869744D01*
X62250774Y-86058102D01*
X62211000Y-86258061D01*
X62211000Y-86461939D01*
X62250774Y-86661898D01*
X62328795Y-86850256D01*
X62442063Y-87019774D01*
X62586226Y-87163937D01*
X62755744Y-87277205D01*
X62944102Y-87355226D01*
X62953021Y-87357000D01*
X62890061Y-87357000D01*
X62690102Y-87396774D01*
X62501744Y-87474795D01*
X62332226Y-87588063D01*
X62288289Y-87632000D01*
X60345325Y-87632000D01*
X60308000Y-87628324D01*
X60270675Y-87632000D01*
X60270667Y-87632000D01*
X60159014Y-87642997D01*
X60015753Y-87686454D01*
X59883724Y-87757026D01*
X59767999Y-87851999D01*
X59744201Y-87880997D01*
X58855392Y-88769806D01*
X58826389Y-88793609D01*
X58771261Y-88860784D01*
X58731416Y-88909334D01*
X58668536Y-89026974D01*
X58660844Y-89041364D01*
X58617387Y-89184625D01*
X58606390Y-89296278D01*
X58606390Y-89296288D01*
X58602714Y-89333610D01*
X58606390Y-89370933D01*
X58606391Y-91772140D01*
X58467898Y-91714774D01*
X58267939Y-91675000D01*
X58064061Y-91675000D01*
X57864102Y-91714774D01*
X57675744Y-91792795D01*
X57506226Y-91906063D01*
X57362063Y-92050226D01*
X57248795Y-92219744D01*
X57170774Y-92408102D01*
X57131000Y-92608061D01*
X7324464Y-92608061D01*
X7125939Y-92409536D01*
X6579715Y-92044561D01*
X5972784Y-91793162D01*
X5328469Y-91665000D01*
X4671531Y-91665000D01*
X4027216Y-91793162D01*
X3420285Y-92044561D01*
X2874061Y-92409536D01*
X2409536Y-92874061D01*
X2044561Y-93420285D01*
X1793162Y-94027216D01*
X1665000Y-94671531D01*
X635000Y-94671531D01*
X635000Y-82798061D01*
X47464996Y-82798061D01*
X47464996Y-83001939D01*
X47504770Y-83201898D01*
X47582791Y-83390256D01*
X47696059Y-83559774D01*
X47840222Y-83703937D01*
X47955396Y-83780893D01*
X47896063Y-83840226D01*
X47782795Y-84009744D01*
X47704774Y-84198102D01*
X47665000Y-84398061D01*
X47665000Y-84601939D01*
X47704774Y-84801898D01*
X47782795Y-84990256D01*
X47896063Y-85159774D01*
X48040226Y-85303937D01*
X48209744Y-85417205D01*
X48398102Y-85495226D01*
X48598061Y-85535000D01*
X48801939Y-85535000D01*
X49001898Y-85495226D01*
X49190256Y-85417205D01*
X49350700Y-85310000D01*
X52696289Y-85310000D01*
X52740226Y-85353937D01*
X52909744Y-85467205D01*
X53098102Y-85545226D01*
X53298061Y-85585000D01*
X53501939Y-85585000D01*
X53701898Y-85545226D01*
X53890256Y-85467205D01*
X54059774Y-85353937D01*
X54203937Y-85209774D01*
X54317205Y-85040256D01*
X54395226Y-84851898D01*
X54435000Y-84651939D01*
X54435000Y-84448061D01*
X54395226Y-84248102D01*
X54317205Y-84059744D01*
X54203937Y-83890226D01*
X54059774Y-83746063D01*
X54028251Y-83725000D01*
X54059774Y-83703937D01*
X54203937Y-83559774D01*
X54317205Y-83390256D01*
X54395226Y-83201898D01*
X54435000Y-83001939D01*
X54435000Y-82798061D01*
X54395226Y-82598102D01*
X54317205Y-82409744D01*
X54203937Y-82240226D01*
X54059774Y-82096063D01*
X53890256Y-81982795D01*
X53701898Y-81904774D01*
X53501939Y-81865000D01*
X53298061Y-81865000D01*
X53098102Y-81904774D01*
X52909744Y-81982795D01*
X52740226Y-82096063D01*
X52696289Y-82140000D01*
X49203707Y-82140000D01*
X49159770Y-82096063D01*
X48990252Y-81982795D01*
X48801894Y-81904774D01*
X48601935Y-81865000D01*
X48398057Y-81865000D01*
X48198098Y-81904774D01*
X48009740Y-81982795D01*
X47840222Y-82096063D01*
X47696059Y-82240226D01*
X47582791Y-82409744D01*
X47504770Y-82598102D01*
X47464996Y-82798061D01*
X635000Y-82798061D01*
X635000Y-75698061D01*
X27765000Y-75698061D01*
X27765000Y-75901939D01*
X27804774Y-76101898D01*
X27882795Y-76290256D01*
X27996063Y-76459774D01*
X28140226Y-76603937D01*
X28309744Y-76717205D01*
X28498102Y-76795226D01*
X28698061Y-76835000D01*
X28901939Y-76835000D01*
X29101898Y-76795226D01*
X29290256Y-76717205D01*
X29459774Y-76603937D01*
X29503711Y-76560000D01*
X34962678Y-76560000D01*
X35000000Y-76563676D01*
X35037322Y-76560000D01*
X35037333Y-76560000D01*
X35148986Y-76549003D01*
X35292247Y-76505546D01*
X35424276Y-76434974D01*
X35496721Y-76375520D01*
X35506937Y-76426877D01*
X35553794Y-76540000D01*
X35502677Y-76540000D01*
X35465354Y-76536324D01*
X35428031Y-76540000D01*
X35428021Y-76540000D01*
X35316368Y-76550997D01*
X35173107Y-76594454D01*
X35041077Y-76665026D01*
X34957437Y-76733668D01*
X34925353Y-76759999D01*
X34901555Y-76788998D01*
X34700542Y-76990010D01*
X34638405Y-76990010D01*
X34438446Y-77029784D01*
X34250088Y-77107805D01*
X34080570Y-77221073D01*
X33936407Y-77365236D01*
X33823139Y-77534754D01*
X33745118Y-77723112D01*
X33705344Y-77923071D01*
X33705344Y-78126949D01*
X33745118Y-78326908D01*
X33823025Y-78514990D01*
X31053225Y-78514990D01*
X31009288Y-78471053D01*
X30839770Y-78357785D01*
X30651412Y-78279764D01*
X30451453Y-78239990D01*
X30247575Y-78239990D01*
X30047616Y-78279764D01*
X29859258Y-78357785D01*
X29689740Y-78471053D01*
X29545577Y-78615216D01*
X29432309Y-78784734D01*
X29354288Y-78973092D01*
X29314514Y-79173051D01*
X29314514Y-79376929D01*
X29354288Y-79576888D01*
X29432309Y-79765246D01*
X29545577Y-79934764D01*
X29689740Y-80078927D01*
X29859258Y-80192195D01*
X30047616Y-80270216D01*
X30247575Y-80309990D01*
X30451453Y-80309990D01*
X30651412Y-80270216D01*
X30839770Y-80192195D01*
X31009288Y-80078927D01*
X31053225Y-80034990D01*
X47687688Y-80034990D01*
X47725010Y-80038666D01*
X47762332Y-80034990D01*
X47762343Y-80034990D01*
X47873996Y-80023993D01*
X48017257Y-79980536D01*
X48149286Y-79909964D01*
X48265011Y-79814991D01*
X48288813Y-79785988D01*
X48739802Y-79335000D01*
X48801939Y-79335000D01*
X49001898Y-79295226D01*
X49190256Y-79217205D01*
X49359774Y-79103937D01*
X49503937Y-78959774D01*
X49617205Y-78790256D01*
X49695226Y-78601898D01*
X49735000Y-78401939D01*
X49735000Y-78198061D01*
X49707538Y-78060000D01*
X66762678Y-78060000D01*
X66800000Y-78063676D01*
X66837322Y-78060000D01*
X66837333Y-78060000D01*
X66948986Y-78049003D01*
X67092247Y-78005546D01*
X67224276Y-77934974D01*
X67340001Y-77840001D01*
X67344105Y-77835000D01*
X67401939Y-77835000D01*
X67601898Y-77795226D01*
X67790256Y-77717205D01*
X67959774Y-77603937D01*
X68103937Y-77459774D01*
X68217205Y-77290256D01*
X68295226Y-77101898D01*
X68335000Y-76901939D01*
X68335000Y-76698061D01*
X68295226Y-76498102D01*
X68217205Y-76309744D01*
X68103937Y-76140226D01*
X67959774Y-75996063D01*
X67790256Y-75882795D01*
X67601898Y-75804774D01*
X67401939Y-75765000D01*
X67198061Y-75765000D01*
X66998102Y-75804774D01*
X66809744Y-75882795D01*
X66640226Y-75996063D01*
X66496063Y-76140226D01*
X66382795Y-76309744D01*
X66304774Y-76498102D01*
X66296440Y-76540000D01*
X50679444Y-76540000D01*
X50695226Y-76501898D01*
X50735000Y-76301939D01*
X50735000Y-76098061D01*
X50695226Y-75898102D01*
X50694289Y-75895840D01*
X50828970Y-75761159D01*
X50942238Y-75591641D01*
X51020259Y-75403283D01*
X51060033Y-75203324D01*
X51060033Y-74999446D01*
X51020259Y-74799487D01*
X51014094Y-74784602D01*
X51134818Y-74703937D01*
X51278981Y-74559774D01*
X51392249Y-74390256D01*
X51470270Y-74201898D01*
X51510044Y-74001939D01*
X51510044Y-73798061D01*
X51470270Y-73598102D01*
X51435589Y-73514375D01*
X55515320Y-73514375D01*
X55515320Y-73885625D01*
X55587747Y-74249741D01*
X55729818Y-74592731D01*
X55936074Y-74901413D01*
X56198587Y-75163926D01*
X56507269Y-75370182D01*
X56850259Y-75512253D01*
X57214375Y-75584680D01*
X57585625Y-75584680D01*
X57949741Y-75512253D01*
X58292731Y-75370182D01*
X58601413Y-75163926D01*
X58863926Y-74901413D01*
X59070182Y-74592731D01*
X59212253Y-74249741D01*
X59284680Y-73885625D01*
X59284680Y-73514375D01*
X59212253Y-73150259D01*
X59070182Y-72807269D01*
X58863926Y-72498587D01*
X58601413Y-72236074D01*
X58292731Y-72029818D01*
X57949741Y-71887747D01*
X57585625Y-71815320D01*
X57214375Y-71815320D01*
X56850259Y-71887747D01*
X56507269Y-72029818D01*
X56198587Y-72236074D01*
X55936074Y-72498587D01*
X55729818Y-72807269D01*
X55587747Y-73150259D01*
X55515320Y-73514375D01*
X51435589Y-73514375D01*
X51392249Y-73409744D01*
X51348817Y-73344744D01*
X51415311Y-73317201D01*
X51584829Y-73203933D01*
X51728992Y-73059770D01*
X51842260Y-72890252D01*
X51920281Y-72701894D01*
X51960055Y-72501935D01*
X51960055Y-72298057D01*
X51920281Y-72098098D01*
X51842260Y-71909740D01*
X51728992Y-71740222D01*
X51584829Y-71596059D01*
X51415311Y-71482791D01*
X51226953Y-71404770D01*
X51026994Y-71364996D01*
X50823116Y-71364996D01*
X50623157Y-71404770D01*
X50434799Y-71482791D01*
X50265281Y-71596059D01*
X50121118Y-71740222D01*
X50007850Y-71909740D01*
X49929829Y-72098098D01*
X49918390Y-72155608D01*
X49900780Y-72165021D01*
X49785055Y-72259994D01*
X49761256Y-72288993D01*
X49610249Y-72440000D01*
X48873084Y-72440000D01*
X48876362Y-72423520D01*
X48876362Y-72219642D01*
X48836588Y-72019683D01*
X48758567Y-71831325D01*
X48645299Y-71661807D01*
X48501136Y-71517644D01*
X48331618Y-71404376D01*
X48143260Y-71326355D01*
X47943301Y-71286581D01*
X47739423Y-71286581D01*
X47539464Y-71326355D01*
X47351106Y-71404376D01*
X47181588Y-71517644D01*
X47137651Y-71561581D01*
X39203311Y-71561581D01*
X41039802Y-69725090D01*
X41101939Y-69725090D01*
X41301898Y-69685316D01*
X41490256Y-69607295D01*
X41659774Y-69494027D01*
X41803937Y-69349864D01*
X41917205Y-69180346D01*
X41995226Y-68991988D01*
X42035000Y-68792029D01*
X42035000Y-68588151D01*
X42020326Y-68514375D01*
X55515320Y-68514375D01*
X55515320Y-68885625D01*
X55587747Y-69249741D01*
X55729818Y-69592731D01*
X55936074Y-69901413D01*
X56198587Y-70163926D01*
X56507269Y-70370182D01*
X56850259Y-70512253D01*
X57214375Y-70584680D01*
X57585625Y-70584680D01*
X57949741Y-70512253D01*
X58292731Y-70370182D01*
X58601413Y-70163926D01*
X58863926Y-69901413D01*
X59070182Y-69592731D01*
X59212253Y-69249741D01*
X59284680Y-68885625D01*
X59284680Y-68514375D01*
X59212253Y-68150259D01*
X59070182Y-67807269D01*
X58863926Y-67498587D01*
X58601413Y-67236074D01*
X58292731Y-67029818D01*
X57949741Y-66887747D01*
X57585625Y-66815320D01*
X57214375Y-66815320D01*
X56850259Y-66887747D01*
X56507269Y-67029818D01*
X56198587Y-67236074D01*
X55936074Y-67498587D01*
X55729818Y-67807269D01*
X55587747Y-68150259D01*
X55515320Y-68514375D01*
X42020326Y-68514375D01*
X41995226Y-68388192D01*
X41917205Y-68199834D01*
X41803937Y-68030316D01*
X41659774Y-67886153D01*
X41490256Y-67772885D01*
X41301898Y-67694864D01*
X41165444Y-67667722D01*
X41217205Y-67590256D01*
X41295226Y-67401898D01*
X41335000Y-67201939D01*
X41335000Y-66998061D01*
X41295226Y-66798102D01*
X41217205Y-66609744D01*
X41103937Y-66440226D01*
X40959774Y-66296063D01*
X40790256Y-66182795D01*
X40601898Y-66104774D01*
X40401939Y-66065000D01*
X40198061Y-66065000D01*
X39998102Y-66104774D01*
X39809744Y-66182795D01*
X39640226Y-66296063D01*
X39596289Y-66340000D01*
X39388808Y-66340000D01*
X39351485Y-66336324D01*
X39314162Y-66340000D01*
X39314153Y-66340000D01*
X39202500Y-66350997D01*
X39059239Y-66394454D01*
X38927209Y-66465026D01*
X38890411Y-66495226D01*
X38811485Y-66559999D01*
X38787687Y-66588997D01*
X34235103Y-71141582D01*
X34172965Y-71141582D01*
X33973006Y-71181356D01*
X33784648Y-71259377D01*
X33615130Y-71372645D01*
X33470967Y-71516808D01*
X33357699Y-71686326D01*
X33279678Y-71874684D01*
X33259438Y-71976437D01*
X33201939Y-71965000D01*
X32998061Y-71965000D01*
X32798102Y-72004774D01*
X32609744Y-72082795D01*
X32440226Y-72196063D01*
X32296063Y-72340226D01*
X32182795Y-72509744D01*
X32104774Y-72698102D01*
X32065000Y-72898061D01*
X32065000Y-73101939D01*
X32072065Y-73137458D01*
X31990256Y-73082795D01*
X31801898Y-73004774D01*
X31601939Y-72965000D01*
X31398061Y-72965000D01*
X31198102Y-73004774D01*
X31009744Y-73082795D01*
X30840226Y-73196063D01*
X30696063Y-73340226D01*
X30582795Y-73509744D01*
X30504774Y-73698102D01*
X30465000Y-73898061D01*
X30465000Y-74101939D01*
X30504774Y-74301898D01*
X30582795Y-74490256D01*
X30696063Y-74659774D01*
X30840226Y-74803937D01*
X31009744Y-74917205D01*
X31198102Y-74995226D01*
X31398061Y-75035000D01*
X31601939Y-75035000D01*
X31801898Y-74995226D01*
X31990256Y-74917205D01*
X32159774Y-74803937D01*
X32203711Y-74760000D01*
X34965199Y-74760000D01*
X34685199Y-75040000D01*
X29503711Y-75040000D01*
X29459774Y-74996063D01*
X29290256Y-74882795D01*
X29101898Y-74804774D01*
X28901939Y-74765000D01*
X28698061Y-74765000D01*
X28498102Y-74804774D01*
X28309744Y-74882795D01*
X28140226Y-74996063D01*
X27996063Y-75140226D01*
X27882795Y-75309744D01*
X27804774Y-75498102D01*
X27765000Y-75698061D01*
X635000Y-75698061D01*
X635000Y-69140000D01*
X3857089Y-69140000D01*
X3888657Y-69460516D01*
X3982148Y-69768715D01*
X4133969Y-70052752D01*
X4338286Y-70301714D01*
X4587248Y-70506031D01*
X4871285Y-70657852D01*
X5179484Y-70751343D01*
X5419678Y-70775000D01*
X6180322Y-70775000D01*
X6420516Y-70751343D01*
X6728715Y-70657852D01*
X7012752Y-70506031D01*
X7261714Y-70301714D01*
X7466031Y-70052752D01*
X7617852Y-69768715D01*
X7711343Y-69460516D01*
X7742911Y-69140000D01*
X7711343Y-68819484D01*
X7617852Y-68511285D01*
X7466031Y-68227248D01*
X7407345Y-68155739D01*
X7454494Y-68130537D01*
X7551185Y-68051185D01*
X7630537Y-67954494D01*
X7689502Y-67844180D01*
X7725812Y-67724482D01*
X7738072Y-67600000D01*
X7738072Y-65600000D01*
X7725812Y-65475518D01*
X7689502Y-65355820D01*
X7630537Y-65245506D01*
X7551185Y-65148815D01*
X7454494Y-65069463D01*
X7344180Y-65010498D01*
X7224482Y-64974188D01*
X7100000Y-64961928D01*
X4500000Y-64961928D01*
X4375518Y-64974188D01*
X4255820Y-65010498D01*
X4145506Y-65069463D01*
X4048815Y-65148815D01*
X3969463Y-65245506D01*
X3910498Y-65355820D01*
X3874188Y-65475518D01*
X3861928Y-65600000D01*
X3861928Y-67600000D01*
X3874188Y-67724482D01*
X3910498Y-67844180D01*
X3969463Y-67954494D01*
X4048815Y-68051185D01*
X4145506Y-68130537D01*
X4192655Y-68155739D01*
X4133969Y-68227248D01*
X3982148Y-68511285D01*
X3888657Y-68819484D01*
X3857089Y-69140000D01*
X635000Y-69140000D01*
X635000Y-60300434D01*
X3971556Y-60300434D01*
X4002536Y-60428355D01*
X4131670Y-60722761D01*
X4315758Y-60986317D01*
X4547726Y-61208895D01*
X4818660Y-61381942D01*
X5118148Y-61498807D01*
X5434680Y-61555000D01*
X5734680Y-61555000D01*
X5734680Y-60047000D01*
X5988680Y-60047000D01*
X5988680Y-61555000D01*
X6288680Y-61555000D01*
X6605212Y-61498807D01*
X6904700Y-61381942D01*
X7175634Y-61208895D01*
X7407602Y-60986317D01*
X7591690Y-60722761D01*
X7720824Y-60428355D01*
X7751804Y-60300434D01*
X7632457Y-60047000D01*
X5988680Y-60047000D01*
X5734680Y-60047000D01*
X4090903Y-60047000D01*
X3971556Y-60300434D01*
X635000Y-60300434D01*
X635000Y-59987721D01*
X29615000Y-59987721D01*
X29615000Y-60408279D01*
X29697047Y-60820756D01*
X29857988Y-61209302D01*
X30091637Y-61558983D01*
X30389017Y-61856363D01*
X30738698Y-62090012D01*
X31127244Y-62250953D01*
X31539721Y-62333000D01*
X31960279Y-62333000D01*
X32372756Y-62250953D01*
X32761302Y-62090012D01*
X33110983Y-61856363D01*
X33408363Y-61558983D01*
X33642012Y-61209302D01*
X33802953Y-60820756D01*
X33885000Y-60408279D01*
X33885000Y-59987721D01*
X33802953Y-59575244D01*
X33642012Y-59186698D01*
X33582787Y-59098061D01*
X41565000Y-59098061D01*
X41565000Y-59301939D01*
X41604774Y-59501898D01*
X41682795Y-59690256D01*
X41796063Y-59859774D01*
X41940226Y-60003937D01*
X42009164Y-60050000D01*
X41940226Y-60096063D01*
X41796063Y-60240226D01*
X41682795Y-60409744D01*
X41604774Y-60598102D01*
X41565000Y-60798061D01*
X41565000Y-61001939D01*
X41604774Y-61201898D01*
X41682795Y-61390256D01*
X41796063Y-61559774D01*
X41940226Y-61703937D01*
X42109744Y-61817205D01*
X42298102Y-61895226D01*
X42498061Y-61935000D01*
X42701939Y-61935000D01*
X42901898Y-61895226D01*
X43090256Y-61817205D01*
X43259774Y-61703937D01*
X43403937Y-61559774D01*
X43517205Y-61390256D01*
X43571159Y-61260001D01*
X47686987Y-61260001D01*
X47629783Y-61398102D01*
X47590009Y-61598061D01*
X47590009Y-61801939D01*
X47629783Y-62001898D01*
X47707804Y-62190256D01*
X47821072Y-62359774D01*
X47965235Y-62503937D01*
X48040020Y-62553907D01*
X48040020Y-62738279D01*
X48079794Y-62938238D01*
X48157815Y-63126596D01*
X48271083Y-63296114D01*
X48415246Y-63440277D01*
X48492586Y-63491953D01*
X48490031Y-63504796D01*
X48490031Y-63708674D01*
X48529805Y-63908633D01*
X48607826Y-64096991D01*
X48721094Y-64266509D01*
X48865257Y-64410672D01*
X48964169Y-64476763D01*
X48940042Y-64598061D01*
X48940042Y-64801939D01*
X48979816Y-65001898D01*
X49057837Y-65190256D01*
X49171105Y-65359774D01*
X49315268Y-65503937D01*
X49397806Y-65559087D01*
X49390053Y-65598067D01*
X49390053Y-65801945D01*
X49429827Y-66001904D01*
X49507848Y-66190262D01*
X49621116Y-66359780D01*
X49765279Y-66503943D01*
X49934797Y-66617211D01*
X50123155Y-66695232D01*
X50323114Y-66735006D01*
X50526992Y-66735006D01*
X50726951Y-66695232D01*
X50915309Y-66617211D01*
X51084827Y-66503943D01*
X51228990Y-66359780D01*
X51295661Y-66260000D01*
X54296289Y-66260000D01*
X54340226Y-66303937D01*
X54509744Y-66417205D01*
X54698102Y-66495226D01*
X54898061Y-66535000D01*
X55101939Y-66535000D01*
X55301898Y-66495226D01*
X55490256Y-66417205D01*
X55659774Y-66303937D01*
X55803937Y-66159774D01*
X55917205Y-65990256D01*
X55995226Y-65801898D01*
X56035000Y-65601939D01*
X56035000Y-65398061D01*
X56007538Y-65260000D01*
X56296289Y-65260000D01*
X56340226Y-65303937D01*
X56509744Y-65417205D01*
X56698102Y-65495226D01*
X56898061Y-65535000D01*
X57101939Y-65535000D01*
X57301898Y-65495226D01*
X57490256Y-65417205D01*
X57659774Y-65303937D01*
X57803937Y-65159774D01*
X57917205Y-64990256D01*
X57995226Y-64801898D01*
X58035000Y-64601939D01*
X58035000Y-64398061D01*
X57995226Y-64198102D01*
X57917205Y-64009744D01*
X57803937Y-63840226D01*
X57659774Y-63696063D01*
X57490256Y-63582795D01*
X57301898Y-63504774D01*
X57101939Y-63465000D01*
X56898061Y-63465000D01*
X56698102Y-63504774D01*
X56509744Y-63582795D01*
X56427935Y-63637458D01*
X56435000Y-63601939D01*
X56435000Y-63398061D01*
X56433863Y-63392345D01*
X56615266Y-63317205D01*
X56784784Y-63203937D01*
X56928947Y-63059774D01*
X57042215Y-62890256D01*
X57120236Y-62701898D01*
X57160010Y-62501939D01*
X57160010Y-62481897D01*
X57234713Y-62531812D01*
X57423071Y-62609833D01*
X57623030Y-62649607D01*
X57826908Y-62649607D01*
X58026867Y-62609833D01*
X58181903Y-62545614D01*
X58240226Y-62603937D01*
X58409744Y-62717205D01*
X58598102Y-62795226D01*
X58798061Y-62835000D01*
X59001939Y-62835000D01*
X59201898Y-62795226D01*
X59390256Y-62717205D01*
X59559774Y-62603937D01*
X59703937Y-62459774D01*
X59817205Y-62290256D01*
X59895226Y-62101898D01*
X59935000Y-61901939D01*
X59935000Y-61698061D01*
X59895226Y-61498102D01*
X59817205Y-61309744D01*
X59816051Y-61308017D01*
X59867161Y-61231526D01*
X59945182Y-61043168D01*
X59984956Y-60843209D01*
X59984956Y-60639331D01*
X59945182Y-60439372D01*
X59867161Y-60251014D01*
X59753893Y-60081496D01*
X59609730Y-59937333D01*
X59440212Y-59824065D01*
X59251854Y-59746044D01*
X59051895Y-59706270D01*
X58989758Y-59706270D01*
X57972490Y-58689002D01*
X57948687Y-58659999D01*
X57832962Y-58565026D01*
X57700933Y-58494454D01*
X57557672Y-58450997D01*
X57446019Y-58440000D01*
X57446008Y-58440000D01*
X57408686Y-58436324D01*
X57371364Y-58440000D01*
X43303711Y-58440000D01*
X43259774Y-58396063D01*
X43090256Y-58282795D01*
X42901898Y-58204774D01*
X42701939Y-58165000D01*
X42498061Y-58165000D01*
X42298102Y-58204774D01*
X42109744Y-58282795D01*
X41940226Y-58396063D01*
X41796063Y-58540226D01*
X41682795Y-58709744D01*
X41604774Y-58898102D01*
X41565000Y-59098061D01*
X33582787Y-59098061D01*
X33408363Y-58837017D01*
X33110983Y-58539637D01*
X32761302Y-58305988D01*
X32372756Y-58145047D01*
X31960279Y-58063000D01*
X31539721Y-58063000D01*
X31127244Y-58145047D01*
X30738698Y-58305988D01*
X30389017Y-58539637D01*
X30091637Y-58837017D01*
X29857988Y-59186698D01*
X29697047Y-59575244D01*
X29615000Y-59987721D01*
X635000Y-59987721D01*
X635000Y-54840000D01*
X3918769Y-54840000D01*
X3950337Y-55160516D01*
X4043828Y-55468715D01*
X4195649Y-55752752D01*
X4399966Y-56001714D01*
X4531913Y-56110000D01*
X4399966Y-56218286D01*
X4195649Y-56467248D01*
X4043828Y-56751285D01*
X3950337Y-57059484D01*
X3918769Y-57380000D01*
X3950337Y-57700516D01*
X4043828Y-58008715D01*
X4195649Y-58292752D01*
X4399966Y-58541714D01*
X4529822Y-58648284D01*
X4315758Y-58853683D01*
X4131670Y-59117239D01*
X4002536Y-59411645D01*
X3971556Y-59539566D01*
X4090903Y-59793000D01*
X5734680Y-59793000D01*
X5734680Y-59773000D01*
X5988680Y-59773000D01*
X5988680Y-59793000D01*
X7632457Y-59793000D01*
X7751804Y-59539566D01*
X7720824Y-59411645D01*
X7591690Y-59117239D01*
X7407602Y-58853683D01*
X7193538Y-58648284D01*
X7323394Y-58541714D01*
X7527711Y-58292752D01*
X7625797Y-58109246D01*
X7703927Y-58085546D01*
X7835956Y-58014974D01*
X7951681Y-57920001D01*
X7975484Y-57890997D01*
X10406482Y-55460000D01*
X29562678Y-55460000D01*
X29600000Y-55463676D01*
X29637322Y-55460000D01*
X29637333Y-55460000D01*
X29748986Y-55449003D01*
X29892247Y-55405546D01*
X29906250Y-55398061D01*
X57727600Y-55398061D01*
X57727600Y-55601939D01*
X57767374Y-55801898D01*
X57845395Y-55990256D01*
X57958663Y-56159774D01*
X58102826Y-56303937D01*
X58272344Y-56417205D01*
X58460702Y-56495226D01*
X58660661Y-56535000D01*
X58722799Y-56535000D01*
X60798801Y-58611003D01*
X60822599Y-58640001D01*
X60938324Y-58734974D01*
X61070353Y-58805546D01*
X61213614Y-58849003D01*
X61325267Y-58860000D01*
X61325276Y-58860000D01*
X61362599Y-58863676D01*
X61399922Y-58860000D01*
X63365198Y-58860000D01*
X61860199Y-60365000D01*
X61798061Y-60365000D01*
X61598102Y-60404774D01*
X61409744Y-60482795D01*
X61240226Y-60596063D01*
X61096063Y-60740226D01*
X60982795Y-60909744D01*
X60904774Y-61098102D01*
X60865000Y-61298061D01*
X60865000Y-61501939D01*
X60904774Y-61701898D01*
X60982795Y-61890256D01*
X61096063Y-62059774D01*
X61240226Y-62203937D01*
X61409744Y-62317205D01*
X61598102Y-62395226D01*
X61798061Y-62435000D01*
X62001939Y-62435000D01*
X62201898Y-62395226D01*
X62390256Y-62317205D01*
X62559774Y-62203937D01*
X62703937Y-62059774D01*
X62817205Y-61890256D01*
X62895226Y-61701898D01*
X62935000Y-61501939D01*
X62935000Y-61439801D01*
X64524729Y-59850073D01*
X64582795Y-59990256D01*
X64696063Y-60159774D01*
X64840226Y-60303937D01*
X65009744Y-60417205D01*
X65198102Y-60495226D01*
X65398061Y-60535000D01*
X65601939Y-60535000D01*
X65801898Y-60495226D01*
X65990256Y-60417205D01*
X66159774Y-60303937D01*
X66203711Y-60260000D01*
X74185199Y-60260000D01*
X75179216Y-61254018D01*
X75109744Y-61282795D01*
X74940226Y-61396063D01*
X74796063Y-61540226D01*
X74682795Y-61709744D01*
X74604774Y-61898102D01*
X74565000Y-62098061D01*
X74565000Y-62160197D01*
X73000514Y-63724685D01*
X72995226Y-63698102D01*
X72917205Y-63509744D01*
X72803937Y-63340226D01*
X72659774Y-63196063D01*
X72490256Y-63082795D01*
X72301898Y-63004774D01*
X72101939Y-62965000D01*
X71898061Y-62965000D01*
X71888570Y-62966888D01*
X71803937Y-62840226D01*
X71659774Y-62696063D01*
X71490256Y-62582795D01*
X71301898Y-62504774D01*
X71101939Y-62465000D01*
X70898061Y-62465000D01*
X70698102Y-62504774D01*
X70509744Y-62582795D01*
X70340226Y-62696063D01*
X70296289Y-62740000D01*
X61575870Y-62740000D01*
X61490256Y-62682795D01*
X61301898Y-62604774D01*
X61101939Y-62565000D01*
X60898061Y-62565000D01*
X60698102Y-62604774D01*
X60509744Y-62682795D01*
X60340226Y-62796063D01*
X60196063Y-62940226D01*
X60176846Y-62968986D01*
X60092486Y-62952206D01*
X59888608Y-62952206D01*
X59688649Y-62991980D01*
X59500291Y-63070001D01*
X59330773Y-63183269D01*
X59186610Y-63327432D01*
X59073342Y-63496950D01*
X58995321Y-63685308D01*
X58955547Y-63885267D01*
X58955547Y-64089145D01*
X58995321Y-64289104D01*
X59073342Y-64477462D01*
X59186610Y-64646980D01*
X59330773Y-64791143D01*
X59500291Y-64904411D01*
X59688649Y-64982432D01*
X59888608Y-65022206D01*
X59963507Y-65022206D01*
X59979064Y-65034973D01*
X60111093Y-65105545D01*
X60254354Y-65149002D01*
X60366007Y-65159999D01*
X60366017Y-65159999D01*
X60403339Y-65163675D01*
X60440662Y-65159999D01*
X69192462Y-65159999D01*
X69165000Y-65298061D01*
X69165000Y-65501939D01*
X69204774Y-65701898D01*
X69282795Y-65890256D01*
X69396063Y-66059774D01*
X69540226Y-66203937D01*
X69709744Y-66317205D01*
X69898102Y-66395226D01*
X70098061Y-66435000D01*
X70301939Y-66435000D01*
X70501898Y-66395226D01*
X70690256Y-66317205D01*
X70859774Y-66203937D01*
X70903711Y-66160000D01*
X72362678Y-66160000D01*
X72400000Y-66163676D01*
X72437322Y-66160000D01*
X72437333Y-66160000D01*
X72548986Y-66149003D01*
X72692247Y-66105546D01*
X72824276Y-66034974D01*
X72940001Y-65940001D01*
X72963804Y-65910997D01*
X75639803Y-63235000D01*
X75701939Y-63235000D01*
X75901898Y-63195226D01*
X76090256Y-63117205D01*
X76259774Y-63003937D01*
X76403937Y-62859774D01*
X76517205Y-62690256D01*
X76540093Y-62635000D01*
X76701939Y-62635000D01*
X76901898Y-62595226D01*
X77090256Y-62517205D01*
X77259774Y-62403937D01*
X77403937Y-62259774D01*
X77517205Y-62090256D01*
X77595226Y-61901898D01*
X77635000Y-61701939D01*
X77635000Y-61498061D01*
X77595226Y-61298102D01*
X77517205Y-61109744D01*
X77403937Y-60940226D01*
X77259774Y-60796063D01*
X77090256Y-60682795D01*
X76901898Y-60604774D01*
X76701939Y-60565000D01*
X76639803Y-60565000D01*
X76309802Y-60235000D01*
X76501939Y-60235000D01*
X76701898Y-60195226D01*
X76890256Y-60117205D01*
X77059774Y-60003937D01*
X77203937Y-59859774D01*
X77317205Y-59690256D01*
X77395226Y-59501898D01*
X77435000Y-59301939D01*
X77435000Y-59098061D01*
X77395226Y-58898102D01*
X77317205Y-58709744D01*
X77277285Y-58650000D01*
X77317205Y-58590256D01*
X77395226Y-58401898D01*
X77435000Y-58201939D01*
X77435000Y-58060000D01*
X88524130Y-58060000D01*
X88609744Y-58117205D01*
X88798102Y-58195226D01*
X88998061Y-58235000D01*
X89201939Y-58235000D01*
X89240000Y-58227429D01*
X89239999Y-61928841D01*
X89109744Y-61982795D01*
X88940226Y-62096063D01*
X88796063Y-62240226D01*
X88682795Y-62409744D01*
X88604774Y-62598102D01*
X88565000Y-62798061D01*
X88565000Y-63001939D01*
X88604774Y-63201898D01*
X88682795Y-63390256D01*
X88796063Y-63559774D01*
X88940226Y-63703937D01*
X89109744Y-63817205D01*
X89298102Y-63895226D01*
X89498061Y-63935000D01*
X89701939Y-63935000D01*
X89901898Y-63895226D01*
X90090256Y-63817205D01*
X90259774Y-63703937D01*
X90403937Y-63559774D01*
X90517205Y-63390256D01*
X90595226Y-63201898D01*
X90635000Y-63001939D01*
X90635000Y-62924226D01*
X90705545Y-62792248D01*
X90749002Y-62648987D01*
X90759999Y-62537334D01*
X90759999Y-62537324D01*
X90763675Y-62500002D01*
X90759999Y-62462679D01*
X90759999Y-57880000D01*
X92857089Y-57880000D01*
X92888657Y-58200516D01*
X92982148Y-58508715D01*
X93133969Y-58792752D01*
X93338286Y-59041714D01*
X93470233Y-59150000D01*
X93338286Y-59258286D01*
X93133969Y-59507248D01*
X92982148Y-59791285D01*
X92888657Y-60099484D01*
X92857089Y-60420000D01*
X92888657Y-60740516D01*
X92982148Y-61048715D01*
X93133969Y-61332752D01*
X93338286Y-61581714D01*
X93470233Y-61690000D01*
X93338286Y-61798286D01*
X93133969Y-62047248D01*
X92982148Y-62331285D01*
X92888657Y-62639484D01*
X92857089Y-62960000D01*
X92888657Y-63280516D01*
X92982148Y-63588715D01*
X93133969Y-63872752D01*
X93192655Y-63944261D01*
X93145506Y-63969463D01*
X93048815Y-64048815D01*
X92969463Y-64145506D01*
X92910498Y-64255820D01*
X92874188Y-64375518D01*
X92861928Y-64500000D01*
X92861928Y-66500000D01*
X92874188Y-66624482D01*
X92910498Y-66744180D01*
X92969463Y-66854494D01*
X93048815Y-66951185D01*
X93145506Y-67030537D01*
X93255820Y-67089502D01*
X93375518Y-67125812D01*
X93500000Y-67138072D01*
X96100000Y-67138072D01*
X96224482Y-67125812D01*
X96344180Y-67089502D01*
X96454494Y-67030537D01*
X96551185Y-66951185D01*
X96630537Y-66854494D01*
X96689502Y-66744180D01*
X96725812Y-66624482D01*
X96738072Y-66500000D01*
X96738072Y-64500000D01*
X96725812Y-64375518D01*
X96689502Y-64255820D01*
X96630537Y-64145506D01*
X96551185Y-64048815D01*
X96454494Y-63969463D01*
X96407345Y-63944261D01*
X96466031Y-63872752D01*
X96617852Y-63588715D01*
X96711343Y-63280516D01*
X96742911Y-62960000D01*
X96711343Y-62639484D01*
X96617852Y-62331285D01*
X96466031Y-62047248D01*
X96261714Y-61798286D01*
X96129767Y-61690000D01*
X96261714Y-61581714D01*
X96466031Y-61332752D01*
X96617852Y-61048715D01*
X96711343Y-60740516D01*
X96742911Y-60420000D01*
X96711343Y-60099484D01*
X96617852Y-59791285D01*
X96466031Y-59507248D01*
X96261714Y-59258286D01*
X96129767Y-59150000D01*
X96261714Y-59041714D01*
X96466031Y-58792752D01*
X96617852Y-58508715D01*
X96711343Y-58200516D01*
X96742911Y-57880000D01*
X96711343Y-57559484D01*
X96617852Y-57251285D01*
X96466031Y-56967248D01*
X96261714Y-56718286D01*
X96131858Y-56611716D01*
X96345922Y-56406317D01*
X96530010Y-56142761D01*
X96659144Y-55848355D01*
X96690124Y-55720434D01*
X96570777Y-55467000D01*
X94927000Y-55467000D01*
X94927000Y-55487000D01*
X94673000Y-55487000D01*
X94673000Y-55467000D01*
X93029223Y-55467000D01*
X92909876Y-55720434D01*
X92940856Y-55848355D01*
X93069990Y-56142761D01*
X93254078Y-56406317D01*
X93468142Y-56611716D01*
X93338286Y-56718286D01*
X93133969Y-56967248D01*
X92982148Y-57251285D01*
X92888657Y-57559484D01*
X92857089Y-57880000D01*
X90759999Y-57880000D01*
X90759999Y-54959566D01*
X92909876Y-54959566D01*
X93029223Y-55213000D01*
X94673000Y-55213000D01*
X94673000Y-53705000D01*
X94927000Y-53705000D01*
X94927000Y-55213000D01*
X96570777Y-55213000D01*
X96690124Y-54959566D01*
X96659144Y-54831645D01*
X96530010Y-54537239D01*
X96345922Y-54273683D01*
X96113954Y-54051105D01*
X95843020Y-53878058D01*
X95543532Y-53761193D01*
X95227000Y-53705000D01*
X94927000Y-53705000D01*
X94673000Y-53705000D01*
X94373000Y-53705000D01*
X94056468Y-53761193D01*
X93756980Y-53878058D01*
X93486046Y-54051105D01*
X93254078Y-54273683D01*
X93069990Y-54537239D01*
X92940856Y-54831645D01*
X92909876Y-54959566D01*
X90759999Y-54959566D01*
X90759999Y-54664317D01*
X90763675Y-54626994D01*
X90759999Y-54589671D01*
X90759999Y-54589662D01*
X90749002Y-54478009D01*
X90705545Y-54334748D01*
X90634973Y-54202719D01*
X90540000Y-54086994D01*
X90511002Y-54063196D01*
X88747806Y-52300000D01*
X92861928Y-52300000D01*
X92874188Y-52424482D01*
X92910498Y-52544180D01*
X92969463Y-52654494D01*
X93048815Y-52751185D01*
X93145506Y-52830537D01*
X93255820Y-52889502D01*
X93375518Y-52925812D01*
X93500000Y-52938072D01*
X94514250Y-52935000D01*
X94673000Y-52776250D01*
X94673000Y-51427000D01*
X94927000Y-51427000D01*
X94927000Y-52776250D01*
X95085750Y-52935000D01*
X96100000Y-52938072D01*
X96224482Y-52925812D01*
X96344180Y-52889502D01*
X96454494Y-52830537D01*
X96551185Y-52751185D01*
X96630537Y-52654494D01*
X96689502Y-52544180D01*
X96725812Y-52424482D01*
X96738072Y-52300000D01*
X96735000Y-51585750D01*
X96576250Y-51427000D01*
X94927000Y-51427000D01*
X94673000Y-51427000D01*
X93023750Y-51427000D01*
X92865000Y-51585750D01*
X92861928Y-52300000D01*
X88747806Y-52300000D01*
X88729939Y-52282134D01*
X88706136Y-52253130D01*
X88590411Y-52158157D01*
X88458382Y-52087585D01*
X88315121Y-52044128D01*
X88203468Y-52033131D01*
X88203457Y-52033131D01*
X88166135Y-52029455D01*
X88128813Y-52033131D01*
X66665618Y-52033131D01*
X66628295Y-52029455D01*
X66590973Y-52033131D01*
X66590963Y-52033131D01*
X66479310Y-52044128D01*
X66336049Y-52087585D01*
X66204071Y-52158130D01*
X66126358Y-52158130D01*
X65926399Y-52197904D01*
X65738041Y-52275925D01*
X65568523Y-52389193D01*
X65424360Y-52533356D01*
X65311092Y-52702874D01*
X65233071Y-52891232D01*
X65193297Y-53091191D01*
X65193297Y-53295069D01*
X65233071Y-53495028D01*
X65311092Y-53683386D01*
X65424360Y-53852904D01*
X65568523Y-53997067D01*
X65632777Y-54040000D01*
X63114802Y-54040000D01*
X62635000Y-53560199D01*
X62635000Y-53498061D01*
X62595226Y-53298102D01*
X62517205Y-53109744D01*
X62403937Y-52940226D01*
X62259774Y-52796063D01*
X62090256Y-52682795D01*
X61901898Y-52604774D01*
X61701939Y-52565000D01*
X61498061Y-52565000D01*
X61298102Y-52604774D01*
X61109744Y-52682795D01*
X60940226Y-52796063D01*
X60796063Y-52940226D01*
X60682795Y-53109744D01*
X60604774Y-53298102D01*
X60565000Y-53498061D01*
X60565000Y-53701939D01*
X60604774Y-53901898D01*
X60682795Y-54090256D01*
X60756123Y-54200000D01*
X60682795Y-54309744D01*
X60604774Y-54498102D01*
X60565000Y-54698061D01*
X60565000Y-54901939D01*
X60604774Y-55101898D01*
X60682795Y-55290256D01*
X60796063Y-55459774D01*
X60940226Y-55603937D01*
X61109744Y-55717205D01*
X61298102Y-55795226D01*
X61498061Y-55835000D01*
X61560199Y-55835000D01*
X63065198Y-57340000D01*
X61677402Y-57340000D01*
X59797600Y-55460199D01*
X59797600Y-55398061D01*
X59757826Y-55198102D01*
X59679805Y-55009744D01*
X59566537Y-54840226D01*
X59422374Y-54696063D01*
X59252856Y-54582795D01*
X59064498Y-54504774D01*
X58864539Y-54465000D01*
X58660661Y-54465000D01*
X58460702Y-54504774D01*
X58272344Y-54582795D01*
X58102826Y-54696063D01*
X57958663Y-54840226D01*
X57845395Y-55009744D01*
X57767374Y-55198102D01*
X57727600Y-55398061D01*
X29906250Y-55398061D01*
X30024276Y-55334974D01*
X30140001Y-55240001D01*
X30163804Y-55210997D01*
X33439802Y-51935000D01*
X33501939Y-51935000D01*
X33701898Y-51895226D01*
X33890256Y-51817205D01*
X34059774Y-51703937D01*
X34203937Y-51559774D01*
X34317205Y-51390256D01*
X34395226Y-51201898D01*
X34435000Y-51001939D01*
X34435000Y-50798061D01*
X34395226Y-50598102D01*
X34317205Y-50409744D01*
X34203937Y-50240226D01*
X34059774Y-50096063D01*
X33890256Y-49982795D01*
X33701898Y-49904774D01*
X33501939Y-49865000D01*
X33298061Y-49865000D01*
X33098102Y-49904774D01*
X32909744Y-49982795D01*
X32740226Y-50096063D01*
X32596063Y-50240226D01*
X32482795Y-50409744D01*
X32404774Y-50598102D01*
X32365000Y-50798061D01*
X32365000Y-50860198D01*
X29285199Y-53940000D01*
X13473580Y-53940000D01*
X13830756Y-53868953D01*
X14219302Y-53708012D01*
X14568983Y-53474363D01*
X14866363Y-53176983D01*
X15100012Y-52827302D01*
X15260953Y-52438756D01*
X15343000Y-52026279D01*
X15343000Y-51605721D01*
X15260953Y-51193244D01*
X15100012Y-50804698D01*
X14866363Y-50455017D01*
X14568983Y-50157637D01*
X14219302Y-49923988D01*
X13830756Y-49763047D01*
X13418279Y-49681000D01*
X12997721Y-49681000D01*
X12585244Y-49763047D01*
X12196698Y-49923988D01*
X11847017Y-50157637D01*
X11549637Y-50455017D01*
X11315988Y-50804698D01*
X11155047Y-51193244D01*
X11073000Y-51605721D01*
X11073000Y-52026279D01*
X11155047Y-52438756D01*
X11315988Y-52827302D01*
X11549637Y-53176983D01*
X11847017Y-53474363D01*
X12196698Y-53708012D01*
X12585244Y-53868953D01*
X12942420Y-53940000D01*
X10129002Y-53940000D01*
X10091679Y-53936324D01*
X10054356Y-53940000D01*
X10054347Y-53940000D01*
X9942694Y-53950997D01*
X9799433Y-53994454D01*
X9667404Y-54065026D01*
X9551679Y-54159999D01*
X9527881Y-54188997D01*
X7402365Y-56314513D01*
X7323394Y-56218286D01*
X7191447Y-56110000D01*
X7323394Y-56001714D01*
X7527711Y-55752752D01*
X7679532Y-55468715D01*
X7773023Y-55160516D01*
X7804591Y-54840000D01*
X7773023Y-54519484D01*
X7679532Y-54211285D01*
X7527711Y-53927248D01*
X7469025Y-53855739D01*
X7516174Y-53830537D01*
X7612865Y-53751185D01*
X7692217Y-53654494D01*
X7751182Y-53544180D01*
X7787492Y-53424482D01*
X7799752Y-53300000D01*
X7799752Y-51300000D01*
X7787492Y-51175518D01*
X7751182Y-51055820D01*
X7692217Y-50945506D01*
X7612865Y-50848815D01*
X7516174Y-50769463D01*
X7405860Y-50710498D01*
X7286162Y-50674188D01*
X7161680Y-50661928D01*
X4561680Y-50661928D01*
X4437198Y-50674188D01*
X4317500Y-50710498D01*
X4207186Y-50769463D01*
X4110495Y-50848815D01*
X4031143Y-50945506D01*
X3972178Y-51055820D01*
X3935868Y-51175518D01*
X3923608Y-51300000D01*
X3923608Y-53300000D01*
X3935868Y-53424482D01*
X3972178Y-53544180D01*
X4031143Y-53654494D01*
X4110495Y-53751185D01*
X4207186Y-53830537D01*
X4254335Y-53855739D01*
X4195649Y-53927248D01*
X4043828Y-54211285D01*
X3950337Y-54519484D01*
X3918769Y-54840000D01*
X635000Y-54840000D01*
X635000Y-49598061D01*
X45165000Y-49598061D01*
X45165000Y-49801939D01*
X45204774Y-50001898D01*
X45282795Y-50190256D01*
X45289306Y-50200000D01*
X45282795Y-50209744D01*
X45204774Y-50398102D01*
X45165000Y-50598061D01*
X45165000Y-50801939D01*
X45204774Y-51001898D01*
X45282795Y-51190256D01*
X45322715Y-51250000D01*
X45282795Y-51309744D01*
X45204774Y-51498102D01*
X45165000Y-51698061D01*
X45165000Y-51901939D01*
X45204774Y-52101898D01*
X45282795Y-52290256D01*
X45356123Y-52400000D01*
X45282795Y-52509744D01*
X45204774Y-52698102D01*
X45165000Y-52898061D01*
X45165000Y-53101939D01*
X45204774Y-53301898D01*
X45282795Y-53490256D01*
X45396063Y-53659774D01*
X45540226Y-53803937D01*
X45709744Y-53917205D01*
X45898102Y-53995226D01*
X46098061Y-54035000D01*
X46301939Y-54035000D01*
X46501898Y-53995226D01*
X46690256Y-53917205D01*
X46725142Y-53893895D01*
X50205504Y-53893895D01*
X50249441Y-53937832D01*
X50418959Y-54051100D01*
X50607317Y-54129121D01*
X50807276Y-54168895D01*
X51011154Y-54168895D01*
X51211113Y-54129121D01*
X51399471Y-54051100D01*
X51568989Y-53937832D01*
X51713152Y-53793669D01*
X51826420Y-53624151D01*
X51904441Y-53435793D01*
X51944215Y-53235834D01*
X51944215Y-53031956D01*
X51904441Y-52831997D01*
X51826420Y-52643639D01*
X51725162Y-52492096D01*
X51791289Y-52393130D01*
X51869310Y-52204772D01*
X51909084Y-52004813D01*
X51909084Y-51898061D01*
X56665000Y-51898061D01*
X56665000Y-52101939D01*
X56704774Y-52301898D01*
X56782795Y-52490256D01*
X56896063Y-52659774D01*
X57040226Y-52803937D01*
X57209744Y-52917205D01*
X57398102Y-52995226D01*
X57598061Y-53035000D01*
X57801939Y-53035000D01*
X58001898Y-52995226D01*
X58190256Y-52917205D01*
X58359774Y-52803937D01*
X58503937Y-52659774D01*
X58617205Y-52490256D01*
X58695226Y-52301898D01*
X58735000Y-52101939D01*
X58735000Y-52039801D01*
X63214802Y-47560000D01*
X63396289Y-47560000D01*
X63440226Y-47603937D01*
X63609744Y-47717205D01*
X63798102Y-47795226D01*
X63998061Y-47835000D01*
X64201939Y-47835000D01*
X64401898Y-47795226D01*
X64590256Y-47717205D01*
X64759774Y-47603937D01*
X64903937Y-47459774D01*
X65017205Y-47290256D01*
X65095226Y-47101898D01*
X65135000Y-46901939D01*
X65135000Y-46698061D01*
X65095226Y-46498102D01*
X65017205Y-46309744D01*
X64903937Y-46140226D01*
X64759774Y-45996063D01*
X64590256Y-45882795D01*
X64401898Y-45804774D01*
X64201939Y-45765000D01*
X63998061Y-45765000D01*
X63798102Y-45804774D01*
X63609744Y-45882795D01*
X63440226Y-45996063D01*
X63396289Y-46040000D01*
X62937333Y-46040000D01*
X62900000Y-46036323D01*
X62862667Y-46040000D01*
X62751014Y-46050997D01*
X62607753Y-46094454D01*
X62475724Y-46165026D01*
X62359999Y-46259999D01*
X62336201Y-46288997D01*
X57660199Y-50965000D01*
X57598061Y-50965000D01*
X57398102Y-51004774D01*
X57209744Y-51082795D01*
X57040226Y-51196063D01*
X56896063Y-51340226D01*
X56782795Y-51509744D01*
X56704774Y-51698102D01*
X56665000Y-51898061D01*
X51909084Y-51898061D01*
X51909084Y-51800935D01*
X51869310Y-51600976D01*
X51797353Y-51427258D01*
X51819891Y-51393528D01*
X51897912Y-51205170D01*
X51937686Y-51005211D01*
X51937686Y-50801333D01*
X51897912Y-50601374D01*
X51819891Y-50413016D01*
X51811924Y-50401092D01*
X51816983Y-50393521D01*
X51895004Y-50205163D01*
X51934778Y-50005204D01*
X51934778Y-49801326D01*
X51895004Y-49601367D01*
X51816983Y-49413009D01*
X51742675Y-49301799D01*
X51817205Y-49190256D01*
X51895226Y-49001898D01*
X51935000Y-48801939D01*
X51935000Y-48598061D01*
X51895226Y-48398102D01*
X51817205Y-48209744D01*
X51710468Y-48050000D01*
X51817205Y-47890256D01*
X51895226Y-47701898D01*
X51935000Y-47501939D01*
X51935000Y-47298061D01*
X51907538Y-47160000D01*
X59596289Y-47160000D01*
X59640226Y-47203937D01*
X59809744Y-47317205D01*
X59998102Y-47395226D01*
X60198061Y-47435000D01*
X60401939Y-47435000D01*
X60601898Y-47395226D01*
X60790256Y-47317205D01*
X60959774Y-47203937D01*
X61103937Y-47059774D01*
X61217205Y-46890256D01*
X61295226Y-46701898D01*
X61335000Y-46501939D01*
X61335000Y-46298061D01*
X61295226Y-46098102D01*
X61217205Y-45909744D01*
X61103937Y-45740226D01*
X60959774Y-45596063D01*
X60790256Y-45482795D01*
X60601898Y-45404774D01*
X60401939Y-45365000D01*
X60198061Y-45365000D01*
X59998102Y-45404774D01*
X59809744Y-45482795D01*
X59640226Y-45596063D01*
X59596289Y-45640000D01*
X53940002Y-45640000D01*
X53963804Y-45610997D01*
X55414802Y-44160000D01*
X65296289Y-44160000D01*
X65340226Y-44203937D01*
X65509744Y-44317205D01*
X65698102Y-44395226D01*
X65898061Y-44435000D01*
X66101939Y-44435000D01*
X66301898Y-44395226D01*
X66490256Y-44317205D01*
X66659774Y-44203937D01*
X66803937Y-44059774D01*
X66917205Y-43890256D01*
X66995226Y-43701898D01*
X66999581Y-43680000D01*
X92857089Y-43680000D01*
X92888657Y-44000516D01*
X92982148Y-44308715D01*
X93133969Y-44592752D01*
X93338286Y-44841714D01*
X93470233Y-44950000D01*
X93338286Y-45058286D01*
X93133969Y-45307248D01*
X92982148Y-45591285D01*
X92888657Y-45899484D01*
X92857089Y-46220000D01*
X92888657Y-46540516D01*
X92982148Y-46848715D01*
X93133969Y-47132752D01*
X93338286Y-47381714D01*
X93470233Y-47490000D01*
X93338286Y-47598286D01*
X93133969Y-47847248D01*
X92982148Y-48131285D01*
X92888657Y-48439484D01*
X92857089Y-48760000D01*
X92888657Y-49080516D01*
X92982148Y-49388715D01*
X93133969Y-49672752D01*
X93192655Y-49744261D01*
X93145506Y-49769463D01*
X93048815Y-49848815D01*
X92969463Y-49945506D01*
X92910498Y-50055820D01*
X92874188Y-50175518D01*
X92861928Y-50300000D01*
X92865000Y-51014250D01*
X93023750Y-51173000D01*
X94673000Y-51173000D01*
X94673000Y-51153000D01*
X94927000Y-51153000D01*
X94927000Y-51173000D01*
X96576250Y-51173000D01*
X96735000Y-51014250D01*
X96738072Y-50300000D01*
X96725812Y-50175518D01*
X96689502Y-50055820D01*
X96630537Y-49945506D01*
X96551185Y-49848815D01*
X96454494Y-49769463D01*
X96407345Y-49744261D01*
X96466031Y-49672752D01*
X96617852Y-49388715D01*
X96711343Y-49080516D01*
X96742911Y-48760000D01*
X96711343Y-48439484D01*
X96617852Y-48131285D01*
X96466031Y-47847248D01*
X96261714Y-47598286D01*
X96129767Y-47490000D01*
X96261714Y-47381714D01*
X96466031Y-47132752D01*
X96617852Y-46848715D01*
X96711343Y-46540516D01*
X96742911Y-46220000D01*
X96711343Y-45899484D01*
X96617852Y-45591285D01*
X96466031Y-45307248D01*
X96261714Y-45058286D01*
X96129767Y-44950000D01*
X96261714Y-44841714D01*
X96466031Y-44592752D01*
X96617852Y-44308715D01*
X96711343Y-44000516D01*
X96742911Y-43680000D01*
X96711343Y-43359484D01*
X96617852Y-43051285D01*
X96466031Y-42767248D01*
X96261714Y-42518286D01*
X96131858Y-42411716D01*
X96345922Y-42206317D01*
X96530010Y-41942761D01*
X96659144Y-41648355D01*
X96690124Y-41520434D01*
X96570777Y-41267000D01*
X94927000Y-41267000D01*
X94927000Y-41287000D01*
X94673000Y-41287000D01*
X94673000Y-41267000D01*
X93029223Y-41267000D01*
X92909876Y-41520434D01*
X92940856Y-41648355D01*
X93069990Y-41942761D01*
X93254078Y-42206317D01*
X93468142Y-42411716D01*
X93338286Y-42518286D01*
X93133969Y-42767248D01*
X92982148Y-43051285D01*
X92888657Y-43359484D01*
X92857089Y-43680000D01*
X66999581Y-43680000D01*
X67035000Y-43501939D01*
X67035000Y-43298061D01*
X66995226Y-43098102D01*
X66917205Y-42909744D01*
X66803937Y-42740226D01*
X66659774Y-42596063D01*
X66490256Y-42482795D01*
X66301898Y-42404774D01*
X66101939Y-42365000D01*
X65898061Y-42365000D01*
X65698102Y-42404774D01*
X65509744Y-42482795D01*
X65340226Y-42596063D01*
X65296289Y-42640000D01*
X55137322Y-42640000D01*
X55099999Y-42636324D01*
X55062676Y-42640000D01*
X55062667Y-42640000D01*
X54951014Y-42650997D01*
X54807753Y-42694454D01*
X54675723Y-42765026D01*
X54592083Y-42833668D01*
X54559999Y-42859999D01*
X54536201Y-42888997D01*
X53094455Y-44330744D01*
X53059774Y-44296063D01*
X52890256Y-44182795D01*
X52701898Y-44104774D01*
X52501939Y-44065000D01*
X52298061Y-44065000D01*
X52098102Y-44104774D01*
X51909744Y-44182795D01*
X51740226Y-44296063D01*
X51596063Y-44440226D01*
X51482795Y-44609744D01*
X51404774Y-44798102D01*
X51365000Y-44998061D01*
X51365000Y-45201939D01*
X51404774Y-45401898D01*
X51482795Y-45590256D01*
X51516033Y-45640000D01*
X48203711Y-45640000D01*
X48159774Y-45596063D01*
X47990256Y-45482795D01*
X47801898Y-45404774D01*
X47601939Y-45365000D01*
X47398061Y-45365000D01*
X47198102Y-45404774D01*
X47009744Y-45482795D01*
X46840226Y-45596063D01*
X46696063Y-45740226D01*
X46582795Y-45909744D01*
X46504774Y-46098102D01*
X46465000Y-46298061D01*
X46465000Y-46459911D01*
X46409744Y-46482799D01*
X46240226Y-46596067D01*
X46096063Y-46740230D01*
X45982795Y-46909748D01*
X45904774Y-47098106D01*
X45865000Y-47298065D01*
X45865000Y-47501943D01*
X45904774Y-47701902D01*
X45913447Y-47722842D01*
X45796063Y-47840226D01*
X45682795Y-48009744D01*
X45604774Y-48198102D01*
X45565000Y-48398061D01*
X45565000Y-48601939D01*
X45604774Y-48801898D01*
X45621331Y-48841870D01*
X45540226Y-48896063D01*
X45396063Y-49040226D01*
X45282795Y-49209744D01*
X45204774Y-49398102D01*
X45165000Y-49598061D01*
X635000Y-49598061D01*
X635000Y-48723386D01*
X773662Y-48584724D01*
X987555Y-48424605D01*
X1222060Y-48296556D01*
X1472407Y-48203181D01*
X1733496Y-48146385D01*
X2004530Y-48127000D01*
X36000000Y-48127000D01*
X36009060Y-48126676D01*
X36293690Y-48106319D01*
X36311626Y-48103741D01*
X36590461Y-48043084D01*
X36607847Y-48037979D01*
X36875212Y-47938257D01*
X36891695Y-47930729D01*
X37142147Y-47793972D01*
X37157390Y-47784176D01*
X37385829Y-47613168D01*
X37399524Y-47601302D01*
X37601302Y-47399524D01*
X37613168Y-47385829D01*
X37784176Y-47157390D01*
X37793972Y-47142147D01*
X37930729Y-46891695D01*
X37938257Y-46875212D01*
X38037979Y-46607847D01*
X38043084Y-46590461D01*
X38103741Y-46311626D01*
X38106319Y-46293690D01*
X38126676Y-46009060D01*
X38127000Y-46000000D01*
X38127000Y-39898061D01*
X39965000Y-39898061D01*
X39965000Y-40101939D01*
X40004774Y-40301898D01*
X40082795Y-40490256D01*
X40196063Y-40659774D01*
X40340226Y-40803937D01*
X40509744Y-40917205D01*
X40698102Y-40995226D01*
X40898061Y-41035000D01*
X41101939Y-41035000D01*
X41301898Y-40995226D01*
X41490256Y-40917205D01*
X41659774Y-40803937D01*
X41704145Y-40759566D01*
X92909876Y-40759566D01*
X93029223Y-41013000D01*
X94673000Y-41013000D01*
X94673000Y-39505000D01*
X94927000Y-39505000D01*
X94927000Y-41013000D01*
X96570777Y-41013000D01*
X96690124Y-40759566D01*
X96659144Y-40631645D01*
X96530010Y-40337239D01*
X96345922Y-40073683D01*
X96113954Y-39851105D01*
X95843020Y-39678058D01*
X95543532Y-39561193D01*
X95227000Y-39505000D01*
X94927000Y-39505000D01*
X94673000Y-39505000D01*
X94373000Y-39505000D01*
X94056468Y-39561193D01*
X93756980Y-39678058D01*
X93486046Y-39851105D01*
X93254078Y-40073683D01*
X93069990Y-40337239D01*
X92940856Y-40631645D01*
X92909876Y-40759566D01*
X41704145Y-40759566D01*
X41803937Y-40659774D01*
X41917205Y-40490256D01*
X41995226Y-40301898D01*
X42035000Y-40101939D01*
X42035000Y-39898061D01*
X41995226Y-39698102D01*
X41917205Y-39509744D01*
X41803937Y-39340226D01*
X41760000Y-39296289D01*
X41760000Y-38749116D01*
X47349117Y-33160000D01*
X50072571Y-33160000D01*
X50065000Y-33198061D01*
X50065000Y-33401939D01*
X50066888Y-33411430D01*
X49940226Y-33496063D01*
X49796063Y-33640226D01*
X49682795Y-33809744D01*
X49604774Y-33998102D01*
X49565000Y-34198061D01*
X49565000Y-34401939D01*
X49604774Y-34601898D01*
X49682795Y-34790256D01*
X49796063Y-34959774D01*
X49889712Y-35053423D01*
X49829784Y-35198102D01*
X49790010Y-35398061D01*
X49790010Y-35601939D01*
X49798536Y-35644803D01*
X49701898Y-35604774D01*
X49501939Y-35565000D01*
X49298061Y-35565000D01*
X49098102Y-35604774D01*
X48909744Y-35682795D01*
X48740226Y-35796063D01*
X48596063Y-35940226D01*
X48482795Y-36109744D01*
X48404774Y-36298102D01*
X48365000Y-36498061D01*
X48365000Y-36701939D01*
X48404774Y-36901898D01*
X48482795Y-37090256D01*
X48596063Y-37259774D01*
X48740226Y-37403937D01*
X48909744Y-37517205D01*
X49098102Y-37595226D01*
X49298061Y-37635000D01*
X49501939Y-37635000D01*
X49701898Y-37595226D01*
X49890256Y-37517205D01*
X50059774Y-37403937D01*
X50103711Y-37360000D01*
X60762678Y-37360000D01*
X60800000Y-37363676D01*
X60837322Y-37360000D01*
X60837333Y-37360000D01*
X60948986Y-37349003D01*
X61092247Y-37305546D01*
X61224276Y-37234974D01*
X61340001Y-37140001D01*
X61363803Y-37110998D01*
X61639801Y-36835000D01*
X61701939Y-36835000D01*
X61901898Y-36795226D01*
X62090256Y-36717205D01*
X62259774Y-36603937D01*
X62403937Y-36459774D01*
X62517205Y-36290256D01*
X62595226Y-36101898D01*
X62635000Y-35901939D01*
X62635000Y-35698061D01*
X62595226Y-35498102D01*
X62517205Y-35309744D01*
X62403937Y-35140226D01*
X62259774Y-34996063D01*
X62090256Y-34882795D01*
X61901898Y-34804774D01*
X61701939Y-34765000D01*
X61498061Y-34765000D01*
X61301398Y-34804118D01*
X61295226Y-34773092D01*
X61217205Y-34584734D01*
X61103937Y-34415216D01*
X60959774Y-34271053D01*
X60790256Y-34157785D01*
X60601898Y-34079764D01*
X60401939Y-34039990D01*
X60198061Y-34039990D01*
X60030095Y-34073400D01*
X59995226Y-33898102D01*
X59917205Y-33709744D01*
X59803937Y-33540226D01*
X59659774Y-33396063D01*
X59490256Y-33282795D01*
X59301898Y-33204774D01*
X59101939Y-33165000D01*
X58928424Y-33165000D01*
X58927429Y-33160000D01*
X63796289Y-33160000D01*
X63840226Y-33203937D01*
X64009744Y-33317205D01*
X64198102Y-33395226D01*
X64398061Y-33435000D01*
X64460199Y-33435000D01*
X67136205Y-36111008D01*
X67159999Y-36140001D01*
X67188992Y-36163795D01*
X67188996Y-36163799D01*
X67239866Y-36205546D01*
X67275724Y-36234974D01*
X67407753Y-36305546D01*
X67551014Y-36349003D01*
X67662667Y-36360000D01*
X67662676Y-36360000D01*
X67699999Y-36363676D01*
X67737322Y-36360000D01*
X73296289Y-36360000D01*
X73340226Y-36403937D01*
X73509744Y-36517205D01*
X73698102Y-36595226D01*
X73898061Y-36635000D01*
X74101939Y-36635000D01*
X74301898Y-36595226D01*
X74490256Y-36517205D01*
X74659774Y-36403937D01*
X74803937Y-36259774D01*
X74917205Y-36090256D01*
X74995226Y-35901898D01*
X75035000Y-35701939D01*
X75035000Y-35498061D01*
X74995226Y-35298102D01*
X74917205Y-35109744D01*
X74803937Y-34940226D01*
X74659774Y-34796063D01*
X74490256Y-34682795D01*
X74301898Y-34604774D01*
X74101939Y-34565000D01*
X73898061Y-34565000D01*
X73698102Y-34604774D01*
X73509744Y-34682795D01*
X73340226Y-34796063D01*
X73296289Y-34840000D01*
X68014803Y-34840000D01*
X65891305Y-32716504D01*
X66059774Y-32603937D01*
X66203937Y-32459774D01*
X66317205Y-32290256D01*
X66395226Y-32101898D01*
X66435000Y-31901939D01*
X66435000Y-31698061D01*
X66395226Y-31498102D01*
X66360522Y-31414320D01*
X66512932Y-31414320D01*
X66556869Y-31458257D01*
X66726387Y-31571525D01*
X66914745Y-31649546D01*
X67114704Y-31689320D01*
X67318582Y-31689320D01*
X67518541Y-31649546D01*
X67706899Y-31571525D01*
X67876417Y-31458257D01*
X68020580Y-31314094D01*
X68133848Y-31144576D01*
X68211869Y-30956218D01*
X68251643Y-30756259D01*
X68251643Y-30552381D01*
X68211869Y-30352422D01*
X68133848Y-30164064D01*
X68020580Y-29994546D01*
X67876417Y-29850383D01*
X67706899Y-29737115D01*
X67518541Y-29659094D01*
X67318582Y-29619320D01*
X67114704Y-29619320D01*
X66914745Y-29659094D01*
X66726387Y-29737115D01*
X66556869Y-29850383D01*
X66512932Y-29894320D01*
X52657165Y-29894320D01*
X52490256Y-29782795D01*
X52301898Y-29704774D01*
X52101939Y-29665000D01*
X51898061Y-29665000D01*
X51698102Y-29704774D01*
X51509744Y-29782795D01*
X51340226Y-29896063D01*
X51196063Y-30040226D01*
X51082795Y-30209744D01*
X51004774Y-30398102D01*
X50965000Y-30598061D01*
X50965000Y-30801939D01*
X51004774Y-31001898D01*
X51082795Y-31190256D01*
X51196063Y-31359774D01*
X51340226Y-31503937D01*
X51509744Y-31617205D01*
X51564776Y-31640000D01*
X47071637Y-31640000D01*
X47034314Y-31636324D01*
X46996991Y-31640000D01*
X46996982Y-31640000D01*
X46885329Y-31650997D01*
X46758993Y-31689320D01*
X46742068Y-31694454D01*
X46610038Y-31765026D01*
X46526398Y-31833668D01*
X46494314Y-31859999D01*
X46470516Y-31888997D01*
X40489003Y-37870511D01*
X40459999Y-37894314D01*
X40406092Y-37960000D01*
X40365026Y-38010039D01*
X40294455Y-38142068D01*
X40294454Y-38142069D01*
X40250997Y-38285330D01*
X40240000Y-38396983D01*
X40240000Y-38396993D01*
X40236324Y-38434315D01*
X40240000Y-38471638D01*
X40240001Y-39296288D01*
X40196063Y-39340226D01*
X40082795Y-39509744D01*
X40004774Y-39698102D01*
X39965000Y-39898061D01*
X38127000Y-39898061D01*
X38127000Y-26898061D01*
X45565000Y-26898061D01*
X45565000Y-27101939D01*
X45604774Y-27301898D01*
X45682795Y-27490256D01*
X45796063Y-27659774D01*
X45940226Y-27803937D01*
X46109744Y-27917205D01*
X46298102Y-27995226D01*
X46498061Y-28035000D01*
X46701939Y-28035000D01*
X46901898Y-27995226D01*
X47090256Y-27917205D01*
X47259774Y-27803937D01*
X47303711Y-27760000D01*
X54096289Y-27760000D01*
X54140226Y-27803937D01*
X54309744Y-27917205D01*
X54498102Y-27995226D01*
X54698061Y-28035000D01*
X54901939Y-28035000D01*
X55101898Y-27995226D01*
X55290256Y-27917205D01*
X55459774Y-27803937D01*
X55603937Y-27659774D01*
X55717205Y-27490256D01*
X55795226Y-27301898D01*
X55835000Y-27101939D01*
X55835000Y-26898061D01*
X55795226Y-26698102D01*
X55717205Y-26509744D01*
X55603937Y-26340226D01*
X55459774Y-26196063D01*
X55290256Y-26082795D01*
X55101898Y-26004774D01*
X54901939Y-25965000D01*
X54698061Y-25965000D01*
X54498102Y-26004774D01*
X54309744Y-26082795D01*
X54140226Y-26196063D01*
X54096289Y-26240000D01*
X47303711Y-26240000D01*
X47259774Y-26196063D01*
X47090256Y-26082795D01*
X46901898Y-26004774D01*
X46701939Y-25965000D01*
X46498061Y-25965000D01*
X46298102Y-26004774D01*
X46109744Y-26082795D01*
X45940226Y-26196063D01*
X45796063Y-26340226D01*
X45682795Y-26509744D01*
X45604774Y-26698102D01*
X45565000Y-26898061D01*
X38127000Y-26898061D01*
X38127000Y-14521721D01*
X54049800Y-14521721D01*
X54049800Y-14942279D01*
X54131847Y-15354756D01*
X54292788Y-15743302D01*
X54526437Y-16092983D01*
X54823817Y-16390363D01*
X55173498Y-16624012D01*
X55440001Y-16734401D01*
X55440001Y-16792668D01*
X55436324Y-16830000D01*
X55440001Y-16867333D01*
X55450998Y-16978986D01*
X55454035Y-16988998D01*
X55494454Y-17122246D01*
X55565026Y-17254276D01*
X55598000Y-17294454D01*
X55660000Y-17370001D01*
X55688998Y-17393799D01*
X56806201Y-18511003D01*
X56829999Y-18540001D01*
X56945724Y-18634974D01*
X57077753Y-18705546D01*
X57221014Y-18749003D01*
X57332667Y-18760000D01*
X57332677Y-18760000D01*
X57370000Y-18763676D01*
X57407323Y-18760000D01*
X67096289Y-18760000D01*
X67140226Y-18803937D01*
X67309744Y-18917205D01*
X67498102Y-18995226D01*
X67698061Y-19035000D01*
X67901939Y-19035000D01*
X68101898Y-18995226D01*
X68290256Y-18917205D01*
X68459774Y-18803937D01*
X68563711Y-18700000D01*
X90537928Y-18700000D01*
X90541000Y-19614250D01*
X90699750Y-19773000D01*
X91056605Y-19773000D01*
X91045064Y-19784541D01*
X91051345Y-19900000D01*
X91045064Y-20015459D01*
X91056605Y-20027000D01*
X90699750Y-20027000D01*
X90541000Y-20185750D01*
X90537928Y-21100000D01*
X90550188Y-21224482D01*
X90586498Y-21344180D01*
X90645463Y-21454494D01*
X90724815Y-21551185D01*
X90821506Y-21630537D01*
X90931820Y-21689502D01*
X91051518Y-21725812D01*
X91176000Y-21738072D01*
X91715250Y-21735000D01*
X91874000Y-21576250D01*
X91874000Y-21507159D01*
X91941351Y-21479408D01*
X91944425Y-21477763D01*
X91949751Y-21379857D01*
X92000000Y-21329608D01*
X92050249Y-21379857D01*
X92055575Y-21477763D01*
X92128000Y-21507920D01*
X92128000Y-21576250D01*
X92286750Y-21735000D01*
X92826000Y-21738072D01*
X92950482Y-21725812D01*
X93070180Y-21689502D01*
X93180494Y-21630537D01*
X93277185Y-21551185D01*
X93356537Y-21454494D01*
X93415502Y-21344180D01*
X93451812Y-21224482D01*
X93464072Y-21100000D01*
X93461000Y-20185750D01*
X93302250Y-20027000D01*
X92943395Y-20027000D01*
X92954936Y-20015459D01*
X92948655Y-19900000D01*
X92954936Y-19784541D01*
X92943395Y-19773000D01*
X93302250Y-19773000D01*
X93461000Y-19614250D01*
X93464072Y-18700000D01*
X93451812Y-18575518D01*
X93415502Y-18455820D01*
X93356537Y-18345506D01*
X93277185Y-18248815D01*
X93180494Y-18169463D01*
X93070180Y-18110498D01*
X92950482Y-18074188D01*
X92826000Y-18061928D01*
X92286750Y-18065000D01*
X92128000Y-18223750D01*
X92128000Y-18292017D01*
X92058649Y-18320592D01*
X92055575Y-18322237D01*
X92050249Y-18420143D01*
X92000000Y-18470392D01*
X91949751Y-18420143D01*
X91944425Y-18322237D01*
X91874000Y-18292912D01*
X91874000Y-18223750D01*
X91715250Y-18065000D01*
X91176000Y-18061928D01*
X91051518Y-18074188D01*
X90931820Y-18110498D01*
X90821506Y-18169463D01*
X90724815Y-18248815D01*
X90645463Y-18345506D01*
X90586498Y-18455820D01*
X90550188Y-18575518D01*
X90537928Y-18700000D01*
X68563711Y-18700000D01*
X68603937Y-18659774D01*
X68717205Y-18490256D01*
X68795226Y-18301898D01*
X68835000Y-18101939D01*
X68835000Y-17898061D01*
X68795226Y-17698102D01*
X68717205Y-17509744D01*
X68603937Y-17340226D01*
X68459774Y-17196063D01*
X68290256Y-17082795D01*
X68101898Y-17004774D01*
X67901939Y-16965000D01*
X67698061Y-16965000D01*
X67498102Y-17004774D01*
X67309744Y-17082795D01*
X67140226Y-17196063D01*
X67096289Y-17240000D01*
X57684802Y-17240000D01*
X57106095Y-16661294D01*
X57196102Y-16624012D01*
X57545783Y-16390363D01*
X57843163Y-16092983D01*
X58076812Y-15743302D01*
X58237753Y-15354756D01*
X58319800Y-14942279D01*
X58319800Y-14521721D01*
X60628400Y-14521721D01*
X60628400Y-14942279D01*
X60710447Y-15354756D01*
X60871388Y-15743302D01*
X61105037Y-16092983D01*
X61402417Y-16390363D01*
X61752098Y-16624012D01*
X62140644Y-16784953D01*
X62553121Y-16867000D01*
X62973679Y-16867000D01*
X63386156Y-16784953D01*
X63774702Y-16624012D01*
X64124383Y-16390363D01*
X64421763Y-16092983D01*
X64655412Y-15743302D01*
X64816353Y-15354756D01*
X64898400Y-14942279D01*
X64898400Y-14521721D01*
X64816353Y-14109244D01*
X64655412Y-13720698D01*
X64421763Y-13371017D01*
X64124383Y-13073637D01*
X63774702Y-12839988D01*
X63386156Y-12679047D01*
X62973679Y-12597000D01*
X62553121Y-12597000D01*
X62140644Y-12679047D01*
X61752098Y-12839988D01*
X61402417Y-13073637D01*
X61105037Y-13371017D01*
X60871388Y-13720698D01*
X60710447Y-14109244D01*
X60628400Y-14521721D01*
X58319800Y-14521721D01*
X58237753Y-14109244D01*
X58076812Y-13720698D01*
X57843163Y-13371017D01*
X57545783Y-13073637D01*
X57196102Y-12839988D01*
X56960000Y-12742191D01*
X56960000Y-12303711D01*
X57003937Y-12259774D01*
X57117205Y-12090256D01*
X57195226Y-11901898D01*
X57235000Y-11701939D01*
X57235000Y-11498061D01*
X57195226Y-11298102D01*
X57117205Y-11109744D01*
X57003937Y-10940226D01*
X56859774Y-10796063D01*
X56690256Y-10682795D01*
X56501898Y-10604774D01*
X56301939Y-10565000D01*
X56098061Y-10565000D01*
X55898102Y-10604774D01*
X55709744Y-10682795D01*
X55540226Y-10796063D01*
X55396063Y-10940226D01*
X55282795Y-11109744D01*
X55204774Y-11298102D01*
X55165000Y-11498061D01*
X55165000Y-11701939D01*
X55204774Y-11901898D01*
X55282795Y-12090256D01*
X55396063Y-12259774D01*
X55440000Y-12303711D01*
X55440000Y-12729599D01*
X55173498Y-12839988D01*
X54823817Y-13073637D01*
X54526437Y-13371017D01*
X54292788Y-13720698D01*
X54131847Y-14109244D01*
X54049800Y-14521721D01*
X38127000Y-14521721D01*
X38127000Y-6027000D01*
X65075000Y-6027000D01*
X65075000Y-6327000D01*
X65131193Y-6643532D01*
X65248058Y-6943020D01*
X65421105Y-7213954D01*
X65643683Y-7445922D01*
X65907239Y-7630010D01*
X66201645Y-7759144D01*
X66329566Y-7790124D01*
X66583000Y-7670777D01*
X66583000Y-6027000D01*
X65075000Y-6027000D01*
X38127000Y-6027000D01*
X38127000Y-5473000D01*
X65075000Y-5473000D01*
X65075000Y-5773000D01*
X66583000Y-5773000D01*
X66583000Y-4129223D01*
X66837000Y-4129223D01*
X66837000Y-5773000D01*
X66857000Y-5773000D01*
X66857000Y-6027000D01*
X66837000Y-6027000D01*
X66837000Y-7670777D01*
X67090434Y-7790124D01*
X67218355Y-7759144D01*
X67512761Y-7630010D01*
X67692662Y-7504353D01*
X67719463Y-7554494D01*
X67798815Y-7651185D01*
X67895506Y-7730537D01*
X68005820Y-7789502D01*
X68125518Y-7825812D01*
X68250000Y-7838072D01*
X70250000Y-7838072D01*
X70374482Y-7825812D01*
X70494180Y-7789502D01*
X70604494Y-7730537D01*
X70701185Y-7651185D01*
X70780537Y-7554494D01*
X70839502Y-7444180D01*
X70875812Y-7324482D01*
X70888072Y-7200000D01*
X70888072Y-6027000D01*
X71925000Y-6027000D01*
X71925000Y-6327000D01*
X71981193Y-6643532D01*
X72098058Y-6943020D01*
X72271105Y-7213954D01*
X72493683Y-7445922D01*
X72757239Y-7630010D01*
X73051645Y-7759144D01*
X73179566Y-7790124D01*
X73433000Y-7670777D01*
X73433000Y-6027000D01*
X71925000Y-6027000D01*
X70888072Y-6027000D01*
X70888072Y-5473000D01*
X71925000Y-5473000D01*
X71925000Y-5773000D01*
X73433000Y-5773000D01*
X73433000Y-4129223D01*
X73687000Y-4129223D01*
X73687000Y-5773000D01*
X73707000Y-5773000D01*
X73707000Y-6027000D01*
X73687000Y-6027000D01*
X73687000Y-7670777D01*
X73940434Y-7790124D01*
X74068355Y-7759144D01*
X74362761Y-7630010D01*
X74542662Y-7504353D01*
X74569463Y-7554494D01*
X74648815Y-7651185D01*
X74745506Y-7730537D01*
X74855820Y-7789502D01*
X74975518Y-7825812D01*
X75100000Y-7838072D01*
X77100000Y-7838072D01*
X77224482Y-7825812D01*
X77344180Y-7789502D01*
X77454494Y-7730537D01*
X77551185Y-7651185D01*
X77630537Y-7554494D01*
X77689502Y-7444180D01*
X77725812Y-7324482D01*
X77738072Y-7200000D01*
X77738072Y-6027000D01*
X78625000Y-6027000D01*
X78625000Y-6327000D01*
X78681193Y-6643532D01*
X78798058Y-6943020D01*
X78971105Y-7213954D01*
X79193683Y-7445922D01*
X79457239Y-7630010D01*
X79751645Y-7759144D01*
X79879566Y-7790124D01*
X80133000Y-7670777D01*
X80133000Y-6027000D01*
X78625000Y-6027000D01*
X77738072Y-6027000D01*
X77738072Y-5473000D01*
X78625000Y-5473000D01*
X78625000Y-5773000D01*
X80133000Y-5773000D01*
X80133000Y-4129223D01*
X80387000Y-4129223D01*
X80387000Y-5773000D01*
X80407000Y-5773000D01*
X80407000Y-6027000D01*
X80387000Y-6027000D01*
X80387000Y-7670777D01*
X80640434Y-7790124D01*
X80768355Y-7759144D01*
X81062761Y-7630010D01*
X81242662Y-7504353D01*
X81269463Y-7554494D01*
X81348815Y-7651185D01*
X81445506Y-7730537D01*
X81555820Y-7789502D01*
X81675518Y-7825812D01*
X81800000Y-7838072D01*
X83800000Y-7838072D01*
X83924482Y-7825812D01*
X84044180Y-7789502D01*
X84154494Y-7730537D01*
X84251185Y-7651185D01*
X84330537Y-7554494D01*
X84389502Y-7444180D01*
X84425812Y-7324482D01*
X84438072Y-7200000D01*
X84438072Y-6027000D01*
X85225000Y-6027000D01*
X85225000Y-6327000D01*
X85281193Y-6643532D01*
X85398058Y-6943020D01*
X85571105Y-7213954D01*
X85793683Y-7445922D01*
X86057239Y-7630010D01*
X86351645Y-7759144D01*
X86479566Y-7790124D01*
X86733000Y-7670777D01*
X86733000Y-6027000D01*
X85225000Y-6027000D01*
X84438072Y-6027000D01*
X84438072Y-5473000D01*
X85225000Y-5473000D01*
X85225000Y-5773000D01*
X86733000Y-5773000D01*
X86733000Y-4129223D01*
X86987000Y-4129223D01*
X86987000Y-5773000D01*
X87007000Y-5773000D01*
X87007000Y-6027000D01*
X86987000Y-6027000D01*
X86987000Y-7670777D01*
X87240434Y-7790124D01*
X87368355Y-7759144D01*
X87662761Y-7630010D01*
X87842662Y-7504353D01*
X87869463Y-7554494D01*
X87948815Y-7651185D01*
X88045506Y-7730537D01*
X88155820Y-7789502D01*
X88275518Y-7825812D01*
X88400000Y-7838072D01*
X90400000Y-7838072D01*
X90524482Y-7825812D01*
X90644180Y-7789502D01*
X90754494Y-7730537D01*
X90851185Y-7651185D01*
X90930537Y-7554494D01*
X90989502Y-7444180D01*
X91025812Y-7324482D01*
X91038072Y-7200000D01*
X91038072Y-4671531D01*
X91665000Y-4671531D01*
X91665000Y-5328469D01*
X91793162Y-5972784D01*
X92044561Y-6579715D01*
X92409536Y-7125939D01*
X92874061Y-7590464D01*
X93420285Y-7955439D01*
X94027216Y-8206838D01*
X94671531Y-8335000D01*
X95328469Y-8335000D01*
X95972784Y-8206838D01*
X96579715Y-7955439D01*
X97125939Y-7590464D01*
X97590464Y-7125939D01*
X97955439Y-6579715D01*
X98206838Y-5972784D01*
X98335000Y-5328469D01*
X98335000Y-4671531D01*
X98206838Y-4027216D01*
X97955439Y-3420285D01*
X97590464Y-2874061D01*
X97125939Y-2409536D01*
X96579715Y-2044561D01*
X95972784Y-1793162D01*
X95328469Y-1665000D01*
X94671531Y-1665000D01*
X94027216Y-1793162D01*
X93420285Y-2044561D01*
X92874061Y-2409536D01*
X92409536Y-2874061D01*
X92044561Y-3420285D01*
X91793162Y-4027216D01*
X91665000Y-4671531D01*
X91038072Y-4671531D01*
X91038072Y-4600000D01*
X91025812Y-4475518D01*
X90989502Y-4355820D01*
X90930537Y-4245506D01*
X90851185Y-4148815D01*
X90754494Y-4069463D01*
X90644180Y-4010498D01*
X90524482Y-3974188D01*
X90400000Y-3961928D01*
X88400000Y-3961928D01*
X88275518Y-3974188D01*
X88155820Y-4010498D01*
X88045506Y-4069463D01*
X87948815Y-4148815D01*
X87869463Y-4245506D01*
X87842662Y-4295647D01*
X87662761Y-4169990D01*
X87368355Y-4040856D01*
X87240434Y-4009876D01*
X86987000Y-4129223D01*
X86733000Y-4129223D01*
X86479566Y-4009876D01*
X86351645Y-4040856D01*
X86057239Y-4169990D01*
X85793683Y-4354078D01*
X85571105Y-4586046D01*
X85398058Y-4856980D01*
X85281193Y-5156468D01*
X85225000Y-5473000D01*
X84438072Y-5473000D01*
X84438072Y-4600000D01*
X84425812Y-4475518D01*
X84389502Y-4355820D01*
X84330537Y-4245506D01*
X84251185Y-4148815D01*
X84154494Y-4069463D01*
X84044180Y-4010498D01*
X83924482Y-3974188D01*
X83800000Y-3961928D01*
X81800000Y-3961928D01*
X81675518Y-3974188D01*
X81555820Y-4010498D01*
X81445506Y-4069463D01*
X81348815Y-4148815D01*
X81269463Y-4245506D01*
X81242662Y-4295647D01*
X81062761Y-4169990D01*
X80768355Y-4040856D01*
X80640434Y-4009876D01*
X80387000Y-4129223D01*
X80133000Y-4129223D01*
X79879566Y-4009876D01*
X79751645Y-4040856D01*
X79457239Y-4169990D01*
X79193683Y-4354078D01*
X78971105Y-4586046D01*
X78798058Y-4856980D01*
X78681193Y-5156468D01*
X78625000Y-5473000D01*
X77738072Y-5473000D01*
X77738072Y-4600000D01*
X77725812Y-4475518D01*
X77689502Y-4355820D01*
X77630537Y-4245506D01*
X77551185Y-4148815D01*
X77454494Y-4069463D01*
X77344180Y-4010498D01*
X77224482Y-3974188D01*
X77100000Y-3961928D01*
X75100000Y-3961928D01*
X74975518Y-3974188D01*
X74855820Y-4010498D01*
X74745506Y-4069463D01*
X74648815Y-4148815D01*
X74569463Y-4245506D01*
X74542662Y-4295647D01*
X74362761Y-4169990D01*
X74068355Y-4040856D01*
X73940434Y-4009876D01*
X73687000Y-4129223D01*
X73433000Y-4129223D01*
X73179566Y-4009876D01*
X73051645Y-4040856D01*
X72757239Y-4169990D01*
X72493683Y-4354078D01*
X72271105Y-4586046D01*
X72098058Y-4856980D01*
X71981193Y-5156468D01*
X71925000Y-5473000D01*
X70888072Y-5473000D01*
X70888072Y-4600000D01*
X70875812Y-4475518D01*
X70839502Y-4355820D01*
X70780537Y-4245506D01*
X70701185Y-4148815D01*
X70604494Y-4069463D01*
X70494180Y-4010498D01*
X70374482Y-3974188D01*
X70250000Y-3961928D01*
X68250000Y-3961928D01*
X68125518Y-3974188D01*
X68005820Y-4010498D01*
X67895506Y-4069463D01*
X67798815Y-4148815D01*
X67719463Y-4245506D01*
X67692662Y-4295647D01*
X67512761Y-4169990D01*
X67218355Y-4040856D01*
X67090434Y-4009876D01*
X66837000Y-4129223D01*
X66583000Y-4129223D01*
X66329566Y-4009876D01*
X66201645Y-4040856D01*
X65907239Y-4169990D01*
X65643683Y-4354078D01*
X65421105Y-4586046D01*
X65248058Y-4856980D01*
X65131193Y-5156468D01*
X65075000Y-5473000D01*
X38127000Y-5473000D01*
X38127000Y-2004530D01*
X38146385Y-1733496D01*
X38203181Y-1472407D01*
X38296556Y-1222060D01*
X38424605Y-987555D01*
X38584724Y-773662D01*
X38723386Y-635000D01*
X94971721Y-635000D01*
X95772528Y-706470D01*
X95772528Y-706470D01*
G37*
X95772528Y-706470D02*
X96520635Y-911129D01*
X97220682Y-1245035D01*
X97850532Y-1697628D01*
X98390281Y-2254605D01*
X98822866Y-2898360D01*
X99134617Y-3608548D01*
X99316850Y-4367600D01*
X99365000Y-5023288D01*
X99365000Y-10159208D01*
X99168963Y-9865817D01*
X98871583Y-9568437D01*
X98521902Y-9334788D01*
X98133356Y-9173847D01*
X97720879Y-9091800D01*
X97300321Y-9091800D01*
X96887844Y-9173847D01*
X96499298Y-9334788D01*
X96149617Y-9568437D01*
X95852237Y-9865817D01*
X95618588Y-10215498D01*
X95457647Y-10604044D01*
X95375600Y-11016521D01*
X95375600Y-11437079D01*
X95457647Y-11849556D01*
X95618588Y-12238102D01*
X95852237Y-12587783D01*
X96149617Y-12885163D01*
X96499298Y-13118812D01*
X96887844Y-13279753D01*
X97300321Y-13361800D01*
X97720879Y-13361800D01*
X98133356Y-13279753D01*
X98521902Y-13118812D01*
X98871583Y-12885163D01*
X99168963Y-12587783D01*
X99365000Y-12294392D01*
X99365001Y-68276613D01*
X99226338Y-68415276D01*
X99012445Y-68575395D01*
X98777940Y-68703444D01*
X98527593Y-68796819D01*
X98266504Y-68853615D01*
X97995470Y-68873000D01*
X78000000Y-68873000D01*
X77990940Y-68873324D01*
X77706310Y-68893681D01*
X77688374Y-68896259D01*
X77409539Y-68956916D01*
X77392153Y-68962021D01*
X77124788Y-69061743D01*
X77108305Y-69069271D01*
X76857853Y-69206028D01*
X76842610Y-69215824D01*
X76614171Y-69386832D01*
X76600476Y-69398698D01*
X76398698Y-69600476D01*
X76386832Y-69614171D01*
X76215824Y-69842610D01*
X76206028Y-69857853D01*
X76069271Y-70108305D01*
X76061743Y-70124788D01*
X75962021Y-70392153D01*
X75956916Y-70409539D01*
X75896259Y-70688374D01*
X75893681Y-70706310D01*
X75873324Y-70990940D01*
X75873000Y-71000000D01*
X75873000Y-97995470D01*
X75853615Y-98266504D01*
X75796819Y-98527593D01*
X75703444Y-98777940D01*
X75575395Y-99012445D01*
X75415276Y-99226338D01*
X75276614Y-99365000D01*
X5028279Y-99365000D01*
X4227472Y-99293530D01*
X3479364Y-99088871D01*
X2779318Y-98754965D01*
X2149468Y-98302372D01*
X1609719Y-97745395D01*
X1177133Y-97101637D01*
X865383Y-96391452D01*
X683150Y-95632400D01*
X635000Y-94976712D01*
X635000Y-94671531D01*
X1665000Y-94671531D01*
X1665000Y-95328469D01*
X1793162Y-95972784D01*
X2044561Y-96579715D01*
X2409536Y-97125939D01*
X2874061Y-97590464D01*
X3420285Y-97955439D01*
X4027216Y-98206838D01*
X4671531Y-98335000D01*
X5328469Y-98335000D01*
X5972784Y-98206838D01*
X6579715Y-97955439D01*
X7125939Y-97590464D01*
X7590464Y-97125939D01*
X7955439Y-96579715D01*
X8206838Y-95972784D01*
X8335000Y-95328469D01*
X8335000Y-94671531D01*
X8206838Y-94027216D01*
X7955439Y-93420285D01*
X7590464Y-92874061D01*
X7324464Y-92608061D01*
X57131000Y-92608061D01*
X57131000Y-92811939D01*
X57170774Y-93011898D01*
X57248795Y-93200256D01*
X57362063Y-93369774D01*
X57506226Y-93513937D01*
X57675744Y-93627205D01*
X57864102Y-93705226D01*
X58064061Y-93745000D01*
X58267939Y-93745000D01*
X58467898Y-93705226D01*
X58656256Y-93627205D01*
X58825774Y-93513937D01*
X58911427Y-93428284D01*
X59064492Y-93491686D01*
X59264451Y-93531460D01*
X59468329Y-93531460D01*
X59668288Y-93491686D01*
X59856646Y-93413665D01*
X60026164Y-93300397D01*
X60170327Y-93156234D01*
X60283595Y-92986716D01*
X60361616Y-92798358D01*
X60401390Y-92598399D01*
X60401390Y-92394521D01*
X60361616Y-92194562D01*
X60283595Y-92006204D01*
X60170327Y-91836686D01*
X60126390Y-91792749D01*
X60126390Y-89648411D01*
X60622802Y-89152000D01*
X62288289Y-89152000D01*
X62332226Y-89195937D01*
X62501744Y-89309205D01*
X62690102Y-89387226D01*
X62890061Y-89427000D01*
X63093939Y-89427000D01*
X63293898Y-89387226D01*
X63482256Y-89309205D01*
X63651774Y-89195937D01*
X63795937Y-89051774D01*
X63909205Y-88882256D01*
X63987226Y-88693898D01*
X64027000Y-88493939D01*
X64027000Y-88290061D01*
X63987226Y-88090102D01*
X63909205Y-87901744D01*
X63795937Y-87732226D01*
X63651774Y-87588063D01*
X63482256Y-87474795D01*
X63293898Y-87396774D01*
X63284979Y-87395000D01*
X63347939Y-87395000D01*
X63547898Y-87355226D01*
X63736256Y-87277205D01*
X63905774Y-87163937D01*
X63949711Y-87120000D01*
X67002678Y-87120000D01*
X67040000Y-87123676D01*
X67077322Y-87120000D01*
X67077333Y-87120000D01*
X67188986Y-87109003D01*
X67332247Y-87065546D01*
X67464276Y-86994974D01*
X67580001Y-86900001D01*
X67603803Y-86870998D01*
X68583009Y-85891794D01*
X68612001Y-85868001D01*
X68635795Y-85839008D01*
X68635799Y-85839004D01*
X68706973Y-85752277D01*
X68706974Y-85752276D01*
X68777546Y-85620247D01*
X68821003Y-85476986D01*
X68832000Y-85365333D01*
X68832000Y-85365324D01*
X68835676Y-85328001D01*
X68832000Y-85290678D01*
X68832000Y-81729711D01*
X68875937Y-81685774D01*
X68989205Y-81516256D01*
X69067226Y-81327898D01*
X69107000Y-81127939D01*
X69107000Y-80924061D01*
X69067226Y-80724102D01*
X68989205Y-80535744D01*
X68875937Y-80366226D01*
X68731774Y-80222063D01*
X68562256Y-80108795D01*
X68373898Y-80030774D01*
X68173939Y-79991000D01*
X67970061Y-79991000D01*
X67770102Y-80030774D01*
X67581744Y-80108795D01*
X67412226Y-80222063D01*
X67268063Y-80366226D01*
X67154795Y-80535744D01*
X67076774Y-80724102D01*
X67037000Y-80924061D01*
X67037000Y-81127939D01*
X67076774Y-81327898D01*
X67154795Y-81516256D01*
X67268063Y-81685774D01*
X67312001Y-81729712D01*
X67312000Y-85013197D01*
X66725199Y-85600000D01*
X63949711Y-85600000D01*
X63905774Y-85556063D01*
X63736256Y-85442795D01*
X63547898Y-85364774D01*
X63347939Y-85325000D01*
X63144061Y-85325000D01*
X62944102Y-85364774D01*
X62755744Y-85442795D01*
X62586226Y-85556063D01*
X62442063Y-85700226D01*
X62328795Y-85869744D01*
X62250774Y-86058102D01*
X62211000Y-86258061D01*
X62211000Y-86461939D01*
X62250774Y-86661898D01*
X62328795Y-86850256D01*
X62442063Y-87019774D01*
X62586226Y-87163937D01*
X62755744Y-87277205D01*
X62944102Y-87355226D01*
X62953021Y-87357000D01*
X62890061Y-87357000D01*
X62690102Y-87396774D01*
X62501744Y-87474795D01*
X62332226Y-87588063D01*
X62288289Y-87632000D01*
X60345325Y-87632000D01*
X60308000Y-87628324D01*
X60270675Y-87632000D01*
X60270667Y-87632000D01*
X60159014Y-87642997D01*
X60015753Y-87686454D01*
X59883724Y-87757026D01*
X59767999Y-87851999D01*
X59744201Y-87880997D01*
X58855392Y-88769806D01*
X58826389Y-88793609D01*
X58771261Y-88860784D01*
X58731416Y-88909334D01*
X58668536Y-89026974D01*
X58660844Y-89041364D01*
X58617387Y-89184625D01*
X58606390Y-89296278D01*
X58606390Y-89296288D01*
X58602714Y-89333610D01*
X58606390Y-89370933D01*
X58606391Y-91772140D01*
X58467898Y-91714774D01*
X58267939Y-91675000D01*
X58064061Y-91675000D01*
X57864102Y-91714774D01*
X57675744Y-91792795D01*
X57506226Y-91906063D01*
X57362063Y-92050226D01*
X57248795Y-92219744D01*
X57170774Y-92408102D01*
X57131000Y-92608061D01*
X7324464Y-92608061D01*
X7125939Y-92409536D01*
X6579715Y-92044561D01*
X5972784Y-91793162D01*
X5328469Y-91665000D01*
X4671531Y-91665000D01*
X4027216Y-91793162D01*
X3420285Y-92044561D01*
X2874061Y-92409536D01*
X2409536Y-92874061D01*
X2044561Y-93420285D01*
X1793162Y-94027216D01*
X1665000Y-94671531D01*
X635000Y-94671531D01*
X635000Y-82798061D01*
X47464996Y-82798061D01*
X47464996Y-83001939D01*
X47504770Y-83201898D01*
X47582791Y-83390256D01*
X47696059Y-83559774D01*
X47840222Y-83703937D01*
X47955396Y-83780893D01*
X47896063Y-83840226D01*
X47782795Y-84009744D01*
X47704774Y-84198102D01*
X47665000Y-84398061D01*
X47665000Y-84601939D01*
X47704774Y-84801898D01*
X47782795Y-84990256D01*
X47896063Y-85159774D01*
X48040226Y-85303937D01*
X48209744Y-85417205D01*
X48398102Y-85495226D01*
X48598061Y-85535000D01*
X48801939Y-85535000D01*
X49001898Y-85495226D01*
X49190256Y-85417205D01*
X49350700Y-85310000D01*
X52696289Y-85310000D01*
X52740226Y-85353937D01*
X52909744Y-85467205D01*
X53098102Y-85545226D01*
X53298061Y-85585000D01*
X53501939Y-85585000D01*
X53701898Y-85545226D01*
X53890256Y-85467205D01*
X54059774Y-85353937D01*
X54203937Y-85209774D01*
X54317205Y-85040256D01*
X54395226Y-84851898D01*
X54435000Y-84651939D01*
X54435000Y-84448061D01*
X54395226Y-84248102D01*
X54317205Y-84059744D01*
X54203937Y-83890226D01*
X54059774Y-83746063D01*
X54028251Y-83725000D01*
X54059774Y-83703937D01*
X54203937Y-83559774D01*
X54317205Y-83390256D01*
X54395226Y-83201898D01*
X54435000Y-83001939D01*
X54435000Y-82798061D01*
X54395226Y-82598102D01*
X54317205Y-82409744D01*
X54203937Y-82240226D01*
X54059774Y-82096063D01*
X53890256Y-81982795D01*
X53701898Y-81904774D01*
X53501939Y-81865000D01*
X53298061Y-81865000D01*
X53098102Y-81904774D01*
X52909744Y-81982795D01*
X52740226Y-82096063D01*
X52696289Y-82140000D01*
X49203707Y-82140000D01*
X49159770Y-82096063D01*
X48990252Y-81982795D01*
X48801894Y-81904774D01*
X48601935Y-81865000D01*
X48398057Y-81865000D01*
X48198098Y-81904774D01*
X48009740Y-81982795D01*
X47840222Y-82096063D01*
X47696059Y-82240226D01*
X47582791Y-82409744D01*
X47504770Y-82598102D01*
X47464996Y-82798061D01*
X635000Y-82798061D01*
X635000Y-75698061D01*
X27765000Y-75698061D01*
X27765000Y-75901939D01*
X27804774Y-76101898D01*
X27882795Y-76290256D01*
X27996063Y-76459774D01*
X28140226Y-76603937D01*
X28309744Y-76717205D01*
X28498102Y-76795226D01*
X28698061Y-76835000D01*
X28901939Y-76835000D01*
X29101898Y-76795226D01*
X29290256Y-76717205D01*
X29459774Y-76603937D01*
X29503711Y-76560000D01*
X34962678Y-76560000D01*
X35000000Y-76563676D01*
X35037322Y-76560000D01*
X35037333Y-76560000D01*
X35148986Y-76549003D01*
X35292247Y-76505546D01*
X35424276Y-76434974D01*
X35496721Y-76375520D01*
X35506937Y-76426877D01*
X35553794Y-76540000D01*
X35502677Y-76540000D01*
X35465354Y-76536324D01*
X35428031Y-76540000D01*
X35428021Y-76540000D01*
X35316368Y-76550997D01*
X35173107Y-76594454D01*
X35041077Y-76665026D01*
X34957437Y-76733668D01*
X34925353Y-76759999D01*
X34901555Y-76788998D01*
X34700542Y-76990010D01*
X34638405Y-76990010D01*
X34438446Y-77029784D01*
X34250088Y-77107805D01*
X34080570Y-77221073D01*
X33936407Y-77365236D01*
X33823139Y-77534754D01*
X33745118Y-77723112D01*
X33705344Y-77923071D01*
X33705344Y-78126949D01*
X33745118Y-78326908D01*
X33823025Y-78514990D01*
X31053225Y-78514990D01*
X31009288Y-78471053D01*
X30839770Y-78357785D01*
X30651412Y-78279764D01*
X30451453Y-78239990D01*
X30247575Y-78239990D01*
X30047616Y-78279764D01*
X29859258Y-78357785D01*
X29689740Y-78471053D01*
X29545577Y-78615216D01*
X29432309Y-78784734D01*
X29354288Y-78973092D01*
X29314514Y-79173051D01*
X29314514Y-79376929D01*
X29354288Y-79576888D01*
X29432309Y-79765246D01*
X29545577Y-79934764D01*
X29689740Y-80078927D01*
X29859258Y-80192195D01*
X30047616Y-80270216D01*
X30247575Y-80309990D01*
X30451453Y-80309990D01*
X30651412Y-80270216D01*
X30839770Y-80192195D01*
X31009288Y-80078927D01*
X31053225Y-80034990D01*
X47687688Y-80034990D01*
X47725010Y-80038666D01*
X47762332Y-80034990D01*
X47762343Y-80034990D01*
X47873996Y-80023993D01*
X48017257Y-79980536D01*
X48149286Y-79909964D01*
X48265011Y-79814991D01*
X48288813Y-79785988D01*
X48739802Y-79335000D01*
X48801939Y-79335000D01*
X49001898Y-79295226D01*
X49190256Y-79217205D01*
X49359774Y-79103937D01*
X49503937Y-78959774D01*
X49617205Y-78790256D01*
X49695226Y-78601898D01*
X49735000Y-78401939D01*
X49735000Y-78198061D01*
X49707538Y-78060000D01*
X66762678Y-78060000D01*
X66800000Y-78063676D01*
X66837322Y-78060000D01*
X66837333Y-78060000D01*
X66948986Y-78049003D01*
X67092247Y-78005546D01*
X67224276Y-77934974D01*
X67340001Y-77840001D01*
X67344105Y-77835000D01*
X67401939Y-77835000D01*
X67601898Y-77795226D01*
X67790256Y-77717205D01*
X67959774Y-77603937D01*
X68103937Y-77459774D01*
X68217205Y-77290256D01*
X68295226Y-77101898D01*
X68335000Y-76901939D01*
X68335000Y-76698061D01*
X68295226Y-76498102D01*
X68217205Y-76309744D01*
X68103937Y-76140226D01*
X67959774Y-75996063D01*
X67790256Y-75882795D01*
X67601898Y-75804774D01*
X67401939Y-75765000D01*
X67198061Y-75765000D01*
X66998102Y-75804774D01*
X66809744Y-75882795D01*
X66640226Y-75996063D01*
X66496063Y-76140226D01*
X66382795Y-76309744D01*
X66304774Y-76498102D01*
X66296440Y-76540000D01*
X50679444Y-76540000D01*
X50695226Y-76501898D01*
X50735000Y-76301939D01*
X50735000Y-76098061D01*
X50695226Y-75898102D01*
X50694289Y-75895840D01*
X50828970Y-75761159D01*
X50942238Y-75591641D01*
X51020259Y-75403283D01*
X51060033Y-75203324D01*
X51060033Y-74999446D01*
X51020259Y-74799487D01*
X51014094Y-74784602D01*
X51134818Y-74703937D01*
X51278981Y-74559774D01*
X51392249Y-74390256D01*
X51470270Y-74201898D01*
X51510044Y-74001939D01*
X51510044Y-73798061D01*
X51470270Y-73598102D01*
X51435589Y-73514375D01*
X55515320Y-73514375D01*
X55515320Y-73885625D01*
X55587747Y-74249741D01*
X55729818Y-74592731D01*
X55936074Y-74901413D01*
X56198587Y-75163926D01*
X56507269Y-75370182D01*
X56850259Y-75512253D01*
X57214375Y-75584680D01*
X57585625Y-75584680D01*
X57949741Y-75512253D01*
X58292731Y-75370182D01*
X58601413Y-75163926D01*
X58863926Y-74901413D01*
X59070182Y-74592731D01*
X59212253Y-74249741D01*
X59284680Y-73885625D01*
X59284680Y-73514375D01*
X59212253Y-73150259D01*
X59070182Y-72807269D01*
X58863926Y-72498587D01*
X58601413Y-72236074D01*
X58292731Y-72029818D01*
X57949741Y-71887747D01*
X57585625Y-71815320D01*
X57214375Y-71815320D01*
X56850259Y-71887747D01*
X56507269Y-72029818D01*
X56198587Y-72236074D01*
X55936074Y-72498587D01*
X55729818Y-72807269D01*
X55587747Y-73150259D01*
X55515320Y-73514375D01*
X51435589Y-73514375D01*
X51392249Y-73409744D01*
X51348817Y-73344744D01*
X51415311Y-73317201D01*
X51584829Y-73203933D01*
X51728992Y-73059770D01*
X51842260Y-72890252D01*
X51920281Y-72701894D01*
X51960055Y-72501935D01*
X51960055Y-72298057D01*
X51920281Y-72098098D01*
X51842260Y-71909740D01*
X51728992Y-71740222D01*
X51584829Y-71596059D01*
X51415311Y-71482791D01*
X51226953Y-71404770D01*
X51026994Y-71364996D01*
X50823116Y-71364996D01*
X50623157Y-71404770D01*
X50434799Y-71482791D01*
X50265281Y-71596059D01*
X50121118Y-71740222D01*
X50007850Y-71909740D01*
X49929829Y-72098098D01*
X49918390Y-72155608D01*
X49900780Y-72165021D01*
X49785055Y-72259994D01*
X49761256Y-72288993D01*
X49610249Y-72440000D01*
X48873084Y-72440000D01*
X48876362Y-72423520D01*
X48876362Y-72219642D01*
X48836588Y-72019683D01*
X48758567Y-71831325D01*
X48645299Y-71661807D01*
X48501136Y-71517644D01*
X48331618Y-71404376D01*
X48143260Y-71326355D01*
X47943301Y-71286581D01*
X47739423Y-71286581D01*
X47539464Y-71326355D01*
X47351106Y-71404376D01*
X47181588Y-71517644D01*
X47137651Y-71561581D01*
X39203311Y-71561581D01*
X41039802Y-69725090D01*
X41101939Y-69725090D01*
X41301898Y-69685316D01*
X41490256Y-69607295D01*
X41659774Y-69494027D01*
X41803937Y-69349864D01*
X41917205Y-69180346D01*
X41995226Y-68991988D01*
X42035000Y-68792029D01*
X42035000Y-68588151D01*
X42020326Y-68514375D01*
X55515320Y-68514375D01*
X55515320Y-68885625D01*
X55587747Y-69249741D01*
X55729818Y-69592731D01*
X55936074Y-69901413D01*
X56198587Y-70163926D01*
X56507269Y-70370182D01*
X56850259Y-70512253D01*
X57214375Y-70584680D01*
X57585625Y-70584680D01*
X57949741Y-70512253D01*
X58292731Y-70370182D01*
X58601413Y-70163926D01*
X58863926Y-69901413D01*
X59070182Y-69592731D01*
X59212253Y-69249741D01*
X59284680Y-68885625D01*
X59284680Y-68514375D01*
X59212253Y-68150259D01*
X59070182Y-67807269D01*
X58863926Y-67498587D01*
X58601413Y-67236074D01*
X58292731Y-67029818D01*
X57949741Y-66887747D01*
X57585625Y-66815320D01*
X57214375Y-66815320D01*
X56850259Y-66887747D01*
X56507269Y-67029818D01*
X56198587Y-67236074D01*
X55936074Y-67498587D01*
X55729818Y-67807269D01*
X55587747Y-68150259D01*
X55515320Y-68514375D01*
X42020326Y-68514375D01*
X41995226Y-68388192D01*
X41917205Y-68199834D01*
X41803937Y-68030316D01*
X41659774Y-67886153D01*
X41490256Y-67772885D01*
X41301898Y-67694864D01*
X41165444Y-67667722D01*
X41217205Y-67590256D01*
X41295226Y-67401898D01*
X41335000Y-67201939D01*
X41335000Y-66998061D01*
X41295226Y-66798102D01*
X41217205Y-66609744D01*
X41103937Y-66440226D01*
X40959774Y-66296063D01*
X40790256Y-66182795D01*
X40601898Y-66104774D01*
X40401939Y-66065000D01*
X40198061Y-66065000D01*
X39998102Y-66104774D01*
X39809744Y-66182795D01*
X39640226Y-66296063D01*
X39596289Y-66340000D01*
X39388808Y-66340000D01*
X39351485Y-66336324D01*
X39314162Y-66340000D01*
X39314153Y-66340000D01*
X39202500Y-66350997D01*
X39059239Y-66394454D01*
X38927209Y-66465026D01*
X38890411Y-66495226D01*
X38811485Y-66559999D01*
X38787687Y-66588997D01*
X34235103Y-71141582D01*
X34172965Y-71141582D01*
X33973006Y-71181356D01*
X33784648Y-71259377D01*
X33615130Y-71372645D01*
X33470967Y-71516808D01*
X33357699Y-71686326D01*
X33279678Y-71874684D01*
X33259438Y-71976437D01*
X33201939Y-71965000D01*
X32998061Y-71965000D01*
X32798102Y-72004774D01*
X32609744Y-72082795D01*
X32440226Y-72196063D01*
X32296063Y-72340226D01*
X32182795Y-72509744D01*
X32104774Y-72698102D01*
X32065000Y-72898061D01*
X32065000Y-73101939D01*
X32072065Y-73137458D01*
X31990256Y-73082795D01*
X31801898Y-73004774D01*
X31601939Y-72965000D01*
X31398061Y-72965000D01*
X31198102Y-73004774D01*
X31009744Y-73082795D01*
X30840226Y-73196063D01*
X30696063Y-73340226D01*
X30582795Y-73509744D01*
X30504774Y-73698102D01*
X30465000Y-73898061D01*
X30465000Y-74101939D01*
X30504774Y-74301898D01*
X30582795Y-74490256D01*
X30696063Y-74659774D01*
X30840226Y-74803937D01*
X31009744Y-74917205D01*
X31198102Y-74995226D01*
X31398061Y-75035000D01*
X31601939Y-75035000D01*
X31801898Y-74995226D01*
X31990256Y-74917205D01*
X32159774Y-74803937D01*
X32203711Y-74760000D01*
X34965199Y-74760000D01*
X34685199Y-75040000D01*
X29503711Y-75040000D01*
X29459774Y-74996063D01*
X29290256Y-74882795D01*
X29101898Y-74804774D01*
X28901939Y-74765000D01*
X28698061Y-74765000D01*
X28498102Y-74804774D01*
X28309744Y-74882795D01*
X28140226Y-74996063D01*
X27996063Y-75140226D01*
X27882795Y-75309744D01*
X27804774Y-75498102D01*
X27765000Y-75698061D01*
X635000Y-75698061D01*
X635000Y-69140000D01*
X3857089Y-69140000D01*
X3888657Y-69460516D01*
X3982148Y-69768715D01*
X4133969Y-70052752D01*
X4338286Y-70301714D01*
X4587248Y-70506031D01*
X4871285Y-70657852D01*
X5179484Y-70751343D01*
X5419678Y-70775000D01*
X6180322Y-70775000D01*
X6420516Y-70751343D01*
X6728715Y-70657852D01*
X7012752Y-70506031D01*
X7261714Y-70301714D01*
X7466031Y-70052752D01*
X7617852Y-69768715D01*
X7711343Y-69460516D01*
X7742911Y-69140000D01*
X7711343Y-68819484D01*
X7617852Y-68511285D01*
X7466031Y-68227248D01*
X7407345Y-68155739D01*
X7454494Y-68130537D01*
X7551185Y-68051185D01*
X7630537Y-67954494D01*
X7689502Y-67844180D01*
X7725812Y-67724482D01*
X7738072Y-67600000D01*
X7738072Y-65600000D01*
X7725812Y-65475518D01*
X7689502Y-65355820D01*
X7630537Y-65245506D01*
X7551185Y-65148815D01*
X7454494Y-65069463D01*
X7344180Y-65010498D01*
X7224482Y-64974188D01*
X7100000Y-64961928D01*
X4500000Y-64961928D01*
X4375518Y-64974188D01*
X4255820Y-65010498D01*
X4145506Y-65069463D01*
X4048815Y-65148815D01*
X3969463Y-65245506D01*
X3910498Y-65355820D01*
X3874188Y-65475518D01*
X3861928Y-65600000D01*
X3861928Y-67600000D01*
X3874188Y-67724482D01*
X3910498Y-67844180D01*
X3969463Y-67954494D01*
X4048815Y-68051185D01*
X4145506Y-68130537D01*
X4192655Y-68155739D01*
X4133969Y-68227248D01*
X3982148Y-68511285D01*
X3888657Y-68819484D01*
X3857089Y-69140000D01*
X635000Y-69140000D01*
X635000Y-60300434D01*
X3971556Y-60300434D01*
X4002536Y-60428355D01*
X4131670Y-60722761D01*
X4315758Y-60986317D01*
X4547726Y-61208895D01*
X4818660Y-61381942D01*
X5118148Y-61498807D01*
X5434680Y-61555000D01*
X5734680Y-61555000D01*
X5734680Y-60047000D01*
X5988680Y-60047000D01*
X5988680Y-61555000D01*
X6288680Y-61555000D01*
X6605212Y-61498807D01*
X6904700Y-61381942D01*
X7175634Y-61208895D01*
X7407602Y-60986317D01*
X7591690Y-60722761D01*
X7720824Y-60428355D01*
X7751804Y-60300434D01*
X7632457Y-60047000D01*
X5988680Y-60047000D01*
X5734680Y-60047000D01*
X4090903Y-60047000D01*
X3971556Y-60300434D01*
X635000Y-60300434D01*
X635000Y-59987721D01*
X29615000Y-59987721D01*
X29615000Y-60408279D01*
X29697047Y-60820756D01*
X29857988Y-61209302D01*
X30091637Y-61558983D01*
X30389017Y-61856363D01*
X30738698Y-62090012D01*
X31127244Y-62250953D01*
X31539721Y-62333000D01*
X31960279Y-62333000D01*
X32372756Y-62250953D01*
X32761302Y-62090012D01*
X33110983Y-61856363D01*
X33408363Y-61558983D01*
X33642012Y-61209302D01*
X33802953Y-60820756D01*
X33885000Y-60408279D01*
X33885000Y-59987721D01*
X33802953Y-59575244D01*
X33642012Y-59186698D01*
X33582787Y-59098061D01*
X41565000Y-59098061D01*
X41565000Y-59301939D01*
X41604774Y-59501898D01*
X41682795Y-59690256D01*
X41796063Y-59859774D01*
X41940226Y-60003937D01*
X42009164Y-60050000D01*
X41940226Y-60096063D01*
X41796063Y-60240226D01*
X41682795Y-60409744D01*
X41604774Y-60598102D01*
X41565000Y-60798061D01*
X41565000Y-61001939D01*
X41604774Y-61201898D01*
X41682795Y-61390256D01*
X41796063Y-61559774D01*
X41940226Y-61703937D01*
X42109744Y-61817205D01*
X42298102Y-61895226D01*
X42498061Y-61935000D01*
X42701939Y-61935000D01*
X42901898Y-61895226D01*
X43090256Y-61817205D01*
X43259774Y-61703937D01*
X43403937Y-61559774D01*
X43517205Y-61390256D01*
X43571159Y-61260001D01*
X47686987Y-61260001D01*
X47629783Y-61398102D01*
X47590009Y-61598061D01*
X47590009Y-61801939D01*
X47629783Y-62001898D01*
X47707804Y-62190256D01*
X47821072Y-62359774D01*
X47965235Y-62503937D01*
X48040020Y-62553907D01*
X48040020Y-62738279D01*
X48079794Y-62938238D01*
X48157815Y-63126596D01*
X48271083Y-63296114D01*
X48415246Y-63440277D01*
X48492586Y-63491953D01*
X48490031Y-63504796D01*
X48490031Y-63708674D01*
X48529805Y-63908633D01*
X48607826Y-64096991D01*
X48721094Y-64266509D01*
X48865257Y-64410672D01*
X48964169Y-64476763D01*
X48940042Y-64598061D01*
X48940042Y-64801939D01*
X48979816Y-65001898D01*
X49057837Y-65190256D01*
X49171105Y-65359774D01*
X49315268Y-65503937D01*
X49397806Y-65559087D01*
X49390053Y-65598067D01*
X49390053Y-65801945D01*
X49429827Y-66001904D01*
X49507848Y-66190262D01*
X49621116Y-66359780D01*
X49765279Y-66503943D01*
X49934797Y-66617211D01*
X50123155Y-66695232D01*
X50323114Y-66735006D01*
X50526992Y-66735006D01*
X50726951Y-66695232D01*
X50915309Y-66617211D01*
X51084827Y-66503943D01*
X51228990Y-66359780D01*
X51295661Y-66260000D01*
X54296289Y-66260000D01*
X54340226Y-66303937D01*
X54509744Y-66417205D01*
X54698102Y-66495226D01*
X54898061Y-66535000D01*
X55101939Y-66535000D01*
X55301898Y-66495226D01*
X55490256Y-66417205D01*
X55659774Y-66303937D01*
X55803937Y-66159774D01*
X55917205Y-65990256D01*
X55995226Y-65801898D01*
X56035000Y-65601939D01*
X56035000Y-65398061D01*
X56007538Y-65260000D01*
X56296289Y-65260000D01*
X56340226Y-65303937D01*
X56509744Y-65417205D01*
X56698102Y-65495226D01*
X56898061Y-65535000D01*
X57101939Y-65535000D01*
X57301898Y-65495226D01*
X57490256Y-65417205D01*
X57659774Y-65303937D01*
X57803937Y-65159774D01*
X57917205Y-64990256D01*
X57995226Y-64801898D01*
X58035000Y-64601939D01*
X58035000Y-64398061D01*
X57995226Y-64198102D01*
X57917205Y-64009744D01*
X57803937Y-63840226D01*
X57659774Y-63696063D01*
X57490256Y-63582795D01*
X57301898Y-63504774D01*
X57101939Y-63465000D01*
X56898061Y-63465000D01*
X56698102Y-63504774D01*
X56509744Y-63582795D01*
X56427935Y-63637458D01*
X56435000Y-63601939D01*
X56435000Y-63398061D01*
X56433863Y-63392345D01*
X56615266Y-63317205D01*
X56784784Y-63203937D01*
X56928947Y-63059774D01*
X57042215Y-62890256D01*
X57120236Y-62701898D01*
X57160010Y-62501939D01*
X57160010Y-62481897D01*
X57234713Y-62531812D01*
X57423071Y-62609833D01*
X57623030Y-62649607D01*
X57826908Y-62649607D01*
X58026867Y-62609833D01*
X58181903Y-62545614D01*
X58240226Y-62603937D01*
X58409744Y-62717205D01*
X58598102Y-62795226D01*
X58798061Y-62835000D01*
X59001939Y-62835000D01*
X59201898Y-62795226D01*
X59390256Y-62717205D01*
X59559774Y-62603937D01*
X59703937Y-62459774D01*
X59817205Y-62290256D01*
X59895226Y-62101898D01*
X59935000Y-61901939D01*
X59935000Y-61698061D01*
X59895226Y-61498102D01*
X59817205Y-61309744D01*
X59816051Y-61308017D01*
X59867161Y-61231526D01*
X59945182Y-61043168D01*
X59984956Y-60843209D01*
X59984956Y-60639331D01*
X59945182Y-60439372D01*
X59867161Y-60251014D01*
X59753893Y-60081496D01*
X59609730Y-59937333D01*
X59440212Y-59824065D01*
X59251854Y-59746044D01*
X59051895Y-59706270D01*
X58989758Y-59706270D01*
X57972490Y-58689002D01*
X57948687Y-58659999D01*
X57832962Y-58565026D01*
X57700933Y-58494454D01*
X57557672Y-58450997D01*
X57446019Y-58440000D01*
X57446008Y-58440000D01*
X57408686Y-58436324D01*
X57371364Y-58440000D01*
X43303711Y-58440000D01*
X43259774Y-58396063D01*
X43090256Y-58282795D01*
X42901898Y-58204774D01*
X42701939Y-58165000D01*
X42498061Y-58165000D01*
X42298102Y-58204774D01*
X42109744Y-58282795D01*
X41940226Y-58396063D01*
X41796063Y-58540226D01*
X41682795Y-58709744D01*
X41604774Y-58898102D01*
X41565000Y-59098061D01*
X33582787Y-59098061D01*
X33408363Y-58837017D01*
X33110983Y-58539637D01*
X32761302Y-58305988D01*
X32372756Y-58145047D01*
X31960279Y-58063000D01*
X31539721Y-58063000D01*
X31127244Y-58145047D01*
X30738698Y-58305988D01*
X30389017Y-58539637D01*
X30091637Y-58837017D01*
X29857988Y-59186698D01*
X29697047Y-59575244D01*
X29615000Y-59987721D01*
X635000Y-59987721D01*
X635000Y-54840000D01*
X3918769Y-54840000D01*
X3950337Y-55160516D01*
X4043828Y-55468715D01*
X4195649Y-55752752D01*
X4399966Y-56001714D01*
X4531913Y-56110000D01*
X4399966Y-56218286D01*
X4195649Y-56467248D01*
X4043828Y-56751285D01*
X3950337Y-57059484D01*
X3918769Y-57380000D01*
X3950337Y-57700516D01*
X4043828Y-58008715D01*
X4195649Y-58292752D01*
X4399966Y-58541714D01*
X4529822Y-58648284D01*
X4315758Y-58853683D01*
X4131670Y-59117239D01*
X4002536Y-59411645D01*
X3971556Y-59539566D01*
X4090903Y-59793000D01*
X5734680Y-59793000D01*
X5734680Y-59773000D01*
X5988680Y-59773000D01*
X5988680Y-59793000D01*
X7632457Y-59793000D01*
X7751804Y-59539566D01*
X7720824Y-59411645D01*
X7591690Y-59117239D01*
X7407602Y-58853683D01*
X7193538Y-58648284D01*
X7323394Y-58541714D01*
X7527711Y-58292752D01*
X7625797Y-58109246D01*
X7703927Y-58085546D01*
X7835956Y-58014974D01*
X7951681Y-57920001D01*
X7975484Y-57890997D01*
X10406482Y-55460000D01*
X29562678Y-55460000D01*
X29600000Y-55463676D01*
X29637322Y-55460000D01*
X29637333Y-55460000D01*
X29748986Y-55449003D01*
X29892247Y-55405546D01*
X29906250Y-55398061D01*
X57727600Y-55398061D01*
X57727600Y-55601939D01*
X57767374Y-55801898D01*
X57845395Y-55990256D01*
X57958663Y-56159774D01*
X58102826Y-56303937D01*
X58272344Y-56417205D01*
X58460702Y-56495226D01*
X58660661Y-56535000D01*
X58722799Y-56535000D01*
X60798801Y-58611003D01*
X60822599Y-58640001D01*
X60938324Y-58734974D01*
X61070353Y-58805546D01*
X61213614Y-58849003D01*
X61325267Y-58860000D01*
X61325276Y-58860000D01*
X61362599Y-58863676D01*
X61399922Y-58860000D01*
X63365198Y-58860000D01*
X61860199Y-60365000D01*
X61798061Y-60365000D01*
X61598102Y-60404774D01*
X61409744Y-60482795D01*
X61240226Y-60596063D01*
X61096063Y-60740226D01*
X60982795Y-60909744D01*
X60904774Y-61098102D01*
X60865000Y-61298061D01*
X60865000Y-61501939D01*
X60904774Y-61701898D01*
X60982795Y-61890256D01*
X61096063Y-62059774D01*
X61240226Y-62203937D01*
X61409744Y-62317205D01*
X61598102Y-62395226D01*
X61798061Y-62435000D01*
X62001939Y-62435000D01*
X62201898Y-62395226D01*
X62390256Y-62317205D01*
X62559774Y-62203937D01*
X62703937Y-62059774D01*
X62817205Y-61890256D01*
X62895226Y-61701898D01*
X62935000Y-61501939D01*
X62935000Y-61439801D01*
X64524729Y-59850073D01*
X64582795Y-59990256D01*
X64696063Y-60159774D01*
X64840226Y-60303937D01*
X65009744Y-60417205D01*
X65198102Y-60495226D01*
X65398061Y-60535000D01*
X65601939Y-60535000D01*
X65801898Y-60495226D01*
X65990256Y-60417205D01*
X66159774Y-60303937D01*
X66203711Y-60260000D01*
X74185199Y-60260000D01*
X75179216Y-61254018D01*
X75109744Y-61282795D01*
X74940226Y-61396063D01*
X74796063Y-61540226D01*
X74682795Y-61709744D01*
X74604774Y-61898102D01*
X74565000Y-62098061D01*
X74565000Y-62160197D01*
X73000514Y-63724685D01*
X72995226Y-63698102D01*
X72917205Y-63509744D01*
X72803937Y-63340226D01*
X72659774Y-63196063D01*
X72490256Y-63082795D01*
X72301898Y-63004774D01*
X72101939Y-62965000D01*
X71898061Y-62965000D01*
X71888570Y-62966888D01*
X71803937Y-62840226D01*
X71659774Y-62696063D01*
X71490256Y-62582795D01*
X71301898Y-62504774D01*
X71101939Y-62465000D01*
X70898061Y-62465000D01*
X70698102Y-62504774D01*
X70509744Y-62582795D01*
X70340226Y-62696063D01*
X70296289Y-62740000D01*
X61575870Y-62740000D01*
X61490256Y-62682795D01*
X61301898Y-62604774D01*
X61101939Y-62565000D01*
X60898061Y-62565000D01*
X60698102Y-62604774D01*
X60509744Y-62682795D01*
X60340226Y-62796063D01*
X60196063Y-62940226D01*
X60176846Y-62968986D01*
X60092486Y-62952206D01*
X59888608Y-62952206D01*
X59688649Y-62991980D01*
X59500291Y-63070001D01*
X59330773Y-63183269D01*
X59186610Y-63327432D01*
X59073342Y-63496950D01*
X58995321Y-63685308D01*
X58955547Y-63885267D01*
X58955547Y-64089145D01*
X58995321Y-64289104D01*
X59073342Y-64477462D01*
X59186610Y-64646980D01*
X59330773Y-64791143D01*
X59500291Y-64904411D01*
X59688649Y-64982432D01*
X59888608Y-65022206D01*
X59963507Y-65022206D01*
X59979064Y-65034973D01*
X60111093Y-65105545D01*
X60254354Y-65149002D01*
X60366007Y-65159999D01*
X60366017Y-65159999D01*
X60403339Y-65163675D01*
X60440662Y-65159999D01*
X69192462Y-65159999D01*
X69165000Y-65298061D01*
X69165000Y-65501939D01*
X69204774Y-65701898D01*
X69282795Y-65890256D01*
X69396063Y-66059774D01*
X69540226Y-66203937D01*
X69709744Y-66317205D01*
X69898102Y-66395226D01*
X70098061Y-66435000D01*
X70301939Y-66435000D01*
X70501898Y-66395226D01*
X70690256Y-66317205D01*
X70859774Y-66203937D01*
X70903711Y-66160000D01*
X72362678Y-66160000D01*
X72400000Y-66163676D01*
X72437322Y-66160000D01*
X72437333Y-66160000D01*
X72548986Y-66149003D01*
X72692247Y-66105546D01*
X72824276Y-66034974D01*
X72940001Y-65940001D01*
X72963804Y-65910997D01*
X75639803Y-63235000D01*
X75701939Y-63235000D01*
X75901898Y-63195226D01*
X76090256Y-63117205D01*
X76259774Y-63003937D01*
X76403937Y-62859774D01*
X76517205Y-62690256D01*
X76540093Y-62635000D01*
X76701939Y-62635000D01*
X76901898Y-62595226D01*
X77090256Y-62517205D01*
X77259774Y-62403937D01*
X77403937Y-62259774D01*
X77517205Y-62090256D01*
X77595226Y-61901898D01*
X77635000Y-61701939D01*
X77635000Y-61498061D01*
X77595226Y-61298102D01*
X77517205Y-61109744D01*
X77403937Y-60940226D01*
X77259774Y-60796063D01*
X77090256Y-60682795D01*
X76901898Y-60604774D01*
X76701939Y-60565000D01*
X76639803Y-60565000D01*
X76309802Y-60235000D01*
X76501939Y-60235000D01*
X76701898Y-60195226D01*
X76890256Y-60117205D01*
X77059774Y-60003937D01*
X77203937Y-59859774D01*
X77317205Y-59690256D01*
X77395226Y-59501898D01*
X77435000Y-59301939D01*
X77435000Y-59098061D01*
X77395226Y-58898102D01*
X77317205Y-58709744D01*
X77277285Y-58650000D01*
X77317205Y-58590256D01*
X77395226Y-58401898D01*
X77435000Y-58201939D01*
X77435000Y-58060000D01*
X88524130Y-58060000D01*
X88609744Y-58117205D01*
X88798102Y-58195226D01*
X88998061Y-58235000D01*
X89201939Y-58235000D01*
X89240000Y-58227429D01*
X89239999Y-61928841D01*
X89109744Y-61982795D01*
X88940226Y-62096063D01*
X88796063Y-62240226D01*
X88682795Y-62409744D01*
X88604774Y-62598102D01*
X88565000Y-62798061D01*
X88565000Y-63001939D01*
X88604774Y-63201898D01*
X88682795Y-63390256D01*
X88796063Y-63559774D01*
X88940226Y-63703937D01*
X89109744Y-63817205D01*
X89298102Y-63895226D01*
X89498061Y-63935000D01*
X89701939Y-63935000D01*
X89901898Y-63895226D01*
X90090256Y-63817205D01*
X90259774Y-63703937D01*
X90403937Y-63559774D01*
X90517205Y-63390256D01*
X90595226Y-63201898D01*
X90635000Y-63001939D01*
X90635000Y-62924226D01*
X90705545Y-62792248D01*
X90749002Y-62648987D01*
X90759999Y-62537334D01*
X90759999Y-62537324D01*
X90763675Y-62500002D01*
X90759999Y-62462679D01*
X90759999Y-57880000D01*
X92857089Y-57880000D01*
X92888657Y-58200516D01*
X92982148Y-58508715D01*
X93133969Y-58792752D01*
X93338286Y-59041714D01*
X93470233Y-59150000D01*
X93338286Y-59258286D01*
X93133969Y-59507248D01*
X92982148Y-59791285D01*
X92888657Y-60099484D01*
X92857089Y-60420000D01*
X92888657Y-60740516D01*
X92982148Y-61048715D01*
X93133969Y-61332752D01*
X93338286Y-61581714D01*
X93470233Y-61690000D01*
X93338286Y-61798286D01*
X93133969Y-62047248D01*
X92982148Y-62331285D01*
X92888657Y-62639484D01*
X92857089Y-62960000D01*
X92888657Y-63280516D01*
X92982148Y-63588715D01*
X93133969Y-63872752D01*
X93192655Y-63944261D01*
X93145506Y-63969463D01*
X93048815Y-64048815D01*
X92969463Y-64145506D01*
X92910498Y-64255820D01*
X92874188Y-64375518D01*
X92861928Y-64500000D01*
X92861928Y-66500000D01*
X92874188Y-66624482D01*
X92910498Y-66744180D01*
X92969463Y-66854494D01*
X93048815Y-66951185D01*
X93145506Y-67030537D01*
X93255820Y-67089502D01*
X93375518Y-67125812D01*
X93500000Y-67138072D01*
X96100000Y-67138072D01*
X96224482Y-67125812D01*
X96344180Y-67089502D01*
X96454494Y-67030537D01*
X96551185Y-66951185D01*
X96630537Y-66854494D01*
X96689502Y-66744180D01*
X96725812Y-66624482D01*
X96738072Y-66500000D01*
X96738072Y-64500000D01*
X96725812Y-64375518D01*
X96689502Y-64255820D01*
X96630537Y-64145506D01*
X96551185Y-64048815D01*
X96454494Y-63969463D01*
X96407345Y-63944261D01*
X96466031Y-63872752D01*
X96617852Y-63588715D01*
X96711343Y-63280516D01*
X96742911Y-62960000D01*
X96711343Y-62639484D01*
X96617852Y-62331285D01*
X96466031Y-62047248D01*
X96261714Y-61798286D01*
X96129767Y-61690000D01*
X96261714Y-61581714D01*
X96466031Y-61332752D01*
X96617852Y-61048715D01*
X96711343Y-60740516D01*
X96742911Y-60420000D01*
X96711343Y-60099484D01*
X96617852Y-59791285D01*
X96466031Y-59507248D01*
X96261714Y-59258286D01*
X96129767Y-59150000D01*
X96261714Y-59041714D01*
X96466031Y-58792752D01*
X96617852Y-58508715D01*
X96711343Y-58200516D01*
X96742911Y-57880000D01*
X96711343Y-57559484D01*
X96617852Y-57251285D01*
X96466031Y-56967248D01*
X96261714Y-56718286D01*
X96131858Y-56611716D01*
X96345922Y-56406317D01*
X96530010Y-56142761D01*
X96659144Y-55848355D01*
X96690124Y-55720434D01*
X96570777Y-55467000D01*
X94927000Y-55467000D01*
X94927000Y-55487000D01*
X94673000Y-55487000D01*
X94673000Y-55467000D01*
X93029223Y-55467000D01*
X92909876Y-55720434D01*
X92940856Y-55848355D01*
X93069990Y-56142761D01*
X93254078Y-56406317D01*
X93468142Y-56611716D01*
X93338286Y-56718286D01*
X93133969Y-56967248D01*
X92982148Y-57251285D01*
X92888657Y-57559484D01*
X92857089Y-57880000D01*
X90759999Y-57880000D01*
X90759999Y-54959566D01*
X92909876Y-54959566D01*
X93029223Y-55213000D01*
X94673000Y-55213000D01*
X94673000Y-53705000D01*
X94927000Y-53705000D01*
X94927000Y-55213000D01*
X96570777Y-55213000D01*
X96690124Y-54959566D01*
X96659144Y-54831645D01*
X96530010Y-54537239D01*
X96345922Y-54273683D01*
X96113954Y-54051105D01*
X95843020Y-53878058D01*
X95543532Y-53761193D01*
X95227000Y-53705000D01*
X94927000Y-53705000D01*
X94673000Y-53705000D01*
X94373000Y-53705000D01*
X94056468Y-53761193D01*
X93756980Y-53878058D01*
X93486046Y-54051105D01*
X93254078Y-54273683D01*
X93069990Y-54537239D01*
X92940856Y-54831645D01*
X92909876Y-54959566D01*
X90759999Y-54959566D01*
X90759999Y-54664317D01*
X90763675Y-54626994D01*
X90759999Y-54589671D01*
X90759999Y-54589662D01*
X90749002Y-54478009D01*
X90705545Y-54334748D01*
X90634973Y-54202719D01*
X90540000Y-54086994D01*
X90511002Y-54063196D01*
X88747806Y-52300000D01*
X92861928Y-52300000D01*
X92874188Y-52424482D01*
X92910498Y-52544180D01*
X92969463Y-52654494D01*
X93048815Y-52751185D01*
X93145506Y-52830537D01*
X93255820Y-52889502D01*
X93375518Y-52925812D01*
X93500000Y-52938072D01*
X94514250Y-52935000D01*
X94673000Y-52776250D01*
X94673000Y-51427000D01*
X94927000Y-51427000D01*
X94927000Y-52776250D01*
X95085750Y-52935000D01*
X96100000Y-52938072D01*
X96224482Y-52925812D01*
X96344180Y-52889502D01*
X96454494Y-52830537D01*
X96551185Y-52751185D01*
X96630537Y-52654494D01*
X96689502Y-52544180D01*
X96725812Y-52424482D01*
X96738072Y-52300000D01*
X96735000Y-51585750D01*
X96576250Y-51427000D01*
X94927000Y-51427000D01*
X94673000Y-51427000D01*
X93023750Y-51427000D01*
X92865000Y-51585750D01*
X92861928Y-52300000D01*
X88747806Y-52300000D01*
X88729939Y-52282134D01*
X88706136Y-52253130D01*
X88590411Y-52158157D01*
X88458382Y-52087585D01*
X88315121Y-52044128D01*
X88203468Y-52033131D01*
X88203457Y-52033131D01*
X88166135Y-52029455D01*
X88128813Y-52033131D01*
X66665618Y-52033131D01*
X66628295Y-52029455D01*
X66590973Y-52033131D01*
X66590963Y-52033131D01*
X66479310Y-52044128D01*
X66336049Y-52087585D01*
X66204071Y-52158130D01*
X66126358Y-52158130D01*
X65926399Y-52197904D01*
X65738041Y-52275925D01*
X65568523Y-52389193D01*
X65424360Y-52533356D01*
X65311092Y-52702874D01*
X65233071Y-52891232D01*
X65193297Y-53091191D01*
X65193297Y-53295069D01*
X65233071Y-53495028D01*
X65311092Y-53683386D01*
X65424360Y-53852904D01*
X65568523Y-53997067D01*
X65632777Y-54040000D01*
X63114802Y-54040000D01*
X62635000Y-53560199D01*
X62635000Y-53498061D01*
X62595226Y-53298102D01*
X62517205Y-53109744D01*
X62403937Y-52940226D01*
X62259774Y-52796063D01*
X62090256Y-52682795D01*
X61901898Y-52604774D01*
X61701939Y-52565000D01*
X61498061Y-52565000D01*
X61298102Y-52604774D01*
X61109744Y-52682795D01*
X60940226Y-52796063D01*
X60796063Y-52940226D01*
X60682795Y-53109744D01*
X60604774Y-53298102D01*
X60565000Y-53498061D01*
X60565000Y-53701939D01*
X60604774Y-53901898D01*
X60682795Y-54090256D01*
X60756123Y-54200000D01*
X60682795Y-54309744D01*
X60604774Y-54498102D01*
X60565000Y-54698061D01*
X60565000Y-54901939D01*
X60604774Y-55101898D01*
X60682795Y-55290256D01*
X60796063Y-55459774D01*
X60940226Y-55603937D01*
X61109744Y-55717205D01*
X61298102Y-55795226D01*
X61498061Y-55835000D01*
X61560199Y-55835000D01*
X63065198Y-57340000D01*
X61677402Y-57340000D01*
X59797600Y-55460199D01*
X59797600Y-55398061D01*
X59757826Y-55198102D01*
X59679805Y-55009744D01*
X59566537Y-54840226D01*
X59422374Y-54696063D01*
X59252856Y-54582795D01*
X59064498Y-54504774D01*
X58864539Y-54465000D01*
X58660661Y-54465000D01*
X58460702Y-54504774D01*
X58272344Y-54582795D01*
X58102826Y-54696063D01*
X57958663Y-54840226D01*
X57845395Y-55009744D01*
X57767374Y-55198102D01*
X57727600Y-55398061D01*
X29906250Y-55398061D01*
X30024276Y-55334974D01*
X30140001Y-55240001D01*
X30163804Y-55210997D01*
X33439802Y-51935000D01*
X33501939Y-51935000D01*
X33701898Y-51895226D01*
X33890256Y-51817205D01*
X34059774Y-51703937D01*
X34203937Y-51559774D01*
X34317205Y-51390256D01*
X34395226Y-51201898D01*
X34435000Y-51001939D01*
X34435000Y-50798061D01*
X34395226Y-50598102D01*
X34317205Y-50409744D01*
X34203937Y-50240226D01*
X34059774Y-50096063D01*
X33890256Y-49982795D01*
X33701898Y-49904774D01*
X33501939Y-49865000D01*
X33298061Y-49865000D01*
X33098102Y-49904774D01*
X32909744Y-49982795D01*
X32740226Y-50096063D01*
X32596063Y-50240226D01*
X32482795Y-50409744D01*
X32404774Y-50598102D01*
X32365000Y-50798061D01*
X32365000Y-50860198D01*
X29285199Y-53940000D01*
X13473580Y-53940000D01*
X13830756Y-53868953D01*
X14219302Y-53708012D01*
X14568983Y-53474363D01*
X14866363Y-53176983D01*
X15100012Y-52827302D01*
X15260953Y-52438756D01*
X15343000Y-52026279D01*
X15343000Y-51605721D01*
X15260953Y-51193244D01*
X15100012Y-50804698D01*
X14866363Y-50455017D01*
X14568983Y-50157637D01*
X14219302Y-49923988D01*
X13830756Y-49763047D01*
X13418279Y-49681000D01*
X12997721Y-49681000D01*
X12585244Y-49763047D01*
X12196698Y-49923988D01*
X11847017Y-50157637D01*
X11549637Y-50455017D01*
X11315988Y-50804698D01*
X11155047Y-51193244D01*
X11073000Y-51605721D01*
X11073000Y-52026279D01*
X11155047Y-52438756D01*
X11315988Y-52827302D01*
X11549637Y-53176983D01*
X11847017Y-53474363D01*
X12196698Y-53708012D01*
X12585244Y-53868953D01*
X12942420Y-53940000D01*
X10129002Y-53940000D01*
X10091679Y-53936324D01*
X10054356Y-53940000D01*
X10054347Y-53940000D01*
X9942694Y-53950997D01*
X9799433Y-53994454D01*
X9667404Y-54065026D01*
X9551679Y-54159999D01*
X9527881Y-54188997D01*
X7402365Y-56314513D01*
X7323394Y-56218286D01*
X7191447Y-56110000D01*
X7323394Y-56001714D01*
X7527711Y-55752752D01*
X7679532Y-55468715D01*
X7773023Y-55160516D01*
X7804591Y-54840000D01*
X7773023Y-54519484D01*
X7679532Y-54211285D01*
X7527711Y-53927248D01*
X7469025Y-53855739D01*
X7516174Y-53830537D01*
X7612865Y-53751185D01*
X7692217Y-53654494D01*
X7751182Y-53544180D01*
X7787492Y-53424482D01*
X7799752Y-53300000D01*
X7799752Y-51300000D01*
X7787492Y-51175518D01*
X7751182Y-51055820D01*
X7692217Y-50945506D01*
X7612865Y-50848815D01*
X7516174Y-50769463D01*
X7405860Y-50710498D01*
X7286162Y-50674188D01*
X7161680Y-50661928D01*
X4561680Y-50661928D01*
X4437198Y-50674188D01*
X4317500Y-50710498D01*
X4207186Y-50769463D01*
X4110495Y-50848815D01*
X4031143Y-50945506D01*
X3972178Y-51055820D01*
X3935868Y-51175518D01*
X3923608Y-51300000D01*
X3923608Y-53300000D01*
X3935868Y-53424482D01*
X3972178Y-53544180D01*
X4031143Y-53654494D01*
X4110495Y-53751185D01*
X4207186Y-53830537D01*
X4254335Y-53855739D01*
X4195649Y-53927248D01*
X4043828Y-54211285D01*
X3950337Y-54519484D01*
X3918769Y-54840000D01*
X635000Y-54840000D01*
X635000Y-49598061D01*
X45165000Y-49598061D01*
X45165000Y-49801939D01*
X45204774Y-50001898D01*
X45282795Y-50190256D01*
X45289306Y-50200000D01*
X45282795Y-50209744D01*
X45204774Y-50398102D01*
X45165000Y-50598061D01*
X45165000Y-50801939D01*
X45204774Y-51001898D01*
X45282795Y-51190256D01*
X45322715Y-51250000D01*
X45282795Y-51309744D01*
X45204774Y-51498102D01*
X45165000Y-51698061D01*
X45165000Y-51901939D01*
X45204774Y-52101898D01*
X45282795Y-52290256D01*
X45356123Y-52400000D01*
X45282795Y-52509744D01*
X45204774Y-52698102D01*
X45165000Y-52898061D01*
X45165000Y-53101939D01*
X45204774Y-53301898D01*
X45282795Y-53490256D01*
X45396063Y-53659774D01*
X45540226Y-53803937D01*
X45709744Y-53917205D01*
X45898102Y-53995226D01*
X46098061Y-54035000D01*
X46301939Y-54035000D01*
X46501898Y-53995226D01*
X46690256Y-53917205D01*
X46725142Y-53893895D01*
X50205504Y-53893895D01*
X50249441Y-53937832D01*
X50418959Y-54051100D01*
X50607317Y-54129121D01*
X50807276Y-54168895D01*
X51011154Y-54168895D01*
X51211113Y-54129121D01*
X51399471Y-54051100D01*
X51568989Y-53937832D01*
X51713152Y-53793669D01*
X51826420Y-53624151D01*
X51904441Y-53435793D01*
X51944215Y-53235834D01*
X51944215Y-53031956D01*
X51904441Y-52831997D01*
X51826420Y-52643639D01*
X51725162Y-52492096D01*
X51791289Y-52393130D01*
X51869310Y-52204772D01*
X51909084Y-52004813D01*
X51909084Y-51898061D01*
X56665000Y-51898061D01*
X56665000Y-52101939D01*
X56704774Y-52301898D01*
X56782795Y-52490256D01*
X56896063Y-52659774D01*
X57040226Y-52803937D01*
X57209744Y-52917205D01*
X57398102Y-52995226D01*
X57598061Y-53035000D01*
X57801939Y-53035000D01*
X58001898Y-52995226D01*
X58190256Y-52917205D01*
X58359774Y-52803937D01*
X58503937Y-52659774D01*
X58617205Y-52490256D01*
X58695226Y-52301898D01*
X58735000Y-52101939D01*
X58735000Y-52039801D01*
X63214802Y-47560000D01*
X63396289Y-47560000D01*
X63440226Y-47603937D01*
X63609744Y-47717205D01*
X63798102Y-47795226D01*
X63998061Y-47835000D01*
X64201939Y-47835000D01*
X64401898Y-47795226D01*
X64590256Y-47717205D01*
X64759774Y-47603937D01*
X64903937Y-47459774D01*
X65017205Y-47290256D01*
X65095226Y-47101898D01*
X65135000Y-46901939D01*
X65135000Y-46698061D01*
X65095226Y-46498102D01*
X65017205Y-46309744D01*
X64903937Y-46140226D01*
X64759774Y-45996063D01*
X64590256Y-45882795D01*
X64401898Y-45804774D01*
X64201939Y-45765000D01*
X63998061Y-45765000D01*
X63798102Y-45804774D01*
X63609744Y-45882795D01*
X63440226Y-45996063D01*
X63396289Y-46040000D01*
X62937333Y-46040000D01*
X62900000Y-46036323D01*
X62862667Y-46040000D01*
X62751014Y-46050997D01*
X62607753Y-46094454D01*
X62475724Y-46165026D01*
X62359999Y-46259999D01*
X62336201Y-46288997D01*
X57660199Y-50965000D01*
X57598061Y-50965000D01*
X57398102Y-51004774D01*
X57209744Y-51082795D01*
X57040226Y-51196063D01*
X56896063Y-51340226D01*
X56782795Y-51509744D01*
X56704774Y-51698102D01*
X56665000Y-51898061D01*
X51909084Y-51898061D01*
X51909084Y-51800935D01*
X51869310Y-51600976D01*
X51797353Y-51427258D01*
X51819891Y-51393528D01*
X51897912Y-51205170D01*
X51937686Y-51005211D01*
X51937686Y-50801333D01*
X51897912Y-50601374D01*
X51819891Y-50413016D01*
X51811924Y-50401092D01*
X51816983Y-50393521D01*
X51895004Y-50205163D01*
X51934778Y-50005204D01*
X51934778Y-49801326D01*
X51895004Y-49601367D01*
X51816983Y-49413009D01*
X51742675Y-49301799D01*
X51817205Y-49190256D01*
X51895226Y-49001898D01*
X51935000Y-48801939D01*
X51935000Y-48598061D01*
X51895226Y-48398102D01*
X51817205Y-48209744D01*
X51710468Y-48050000D01*
X51817205Y-47890256D01*
X51895226Y-47701898D01*
X51935000Y-47501939D01*
X51935000Y-47298061D01*
X51907538Y-47160000D01*
X59596289Y-47160000D01*
X59640226Y-47203937D01*
X59809744Y-47317205D01*
X59998102Y-47395226D01*
X60198061Y-47435000D01*
X60401939Y-47435000D01*
X60601898Y-47395226D01*
X60790256Y-47317205D01*
X60959774Y-47203937D01*
X61103937Y-47059774D01*
X61217205Y-46890256D01*
X61295226Y-46701898D01*
X61335000Y-46501939D01*
X61335000Y-46298061D01*
X61295226Y-46098102D01*
X61217205Y-45909744D01*
X61103937Y-45740226D01*
X60959774Y-45596063D01*
X60790256Y-45482795D01*
X60601898Y-45404774D01*
X60401939Y-45365000D01*
X60198061Y-45365000D01*
X59998102Y-45404774D01*
X59809744Y-45482795D01*
X59640226Y-45596063D01*
X59596289Y-45640000D01*
X53940002Y-45640000D01*
X53963804Y-45610997D01*
X55414802Y-44160000D01*
X65296289Y-44160000D01*
X65340226Y-44203937D01*
X65509744Y-44317205D01*
X65698102Y-44395226D01*
X65898061Y-44435000D01*
X66101939Y-44435000D01*
X66301898Y-44395226D01*
X66490256Y-44317205D01*
X66659774Y-44203937D01*
X66803937Y-44059774D01*
X66917205Y-43890256D01*
X66995226Y-43701898D01*
X66999581Y-43680000D01*
X92857089Y-43680000D01*
X92888657Y-44000516D01*
X92982148Y-44308715D01*
X93133969Y-44592752D01*
X93338286Y-44841714D01*
X93470233Y-44950000D01*
X93338286Y-45058286D01*
X93133969Y-45307248D01*
X92982148Y-45591285D01*
X92888657Y-45899484D01*
X92857089Y-46220000D01*
X92888657Y-46540516D01*
X92982148Y-46848715D01*
X93133969Y-47132752D01*
X93338286Y-47381714D01*
X93470233Y-47490000D01*
X93338286Y-47598286D01*
X93133969Y-47847248D01*
X92982148Y-48131285D01*
X92888657Y-48439484D01*
X92857089Y-48760000D01*
X92888657Y-49080516D01*
X92982148Y-49388715D01*
X93133969Y-49672752D01*
X93192655Y-49744261D01*
X93145506Y-49769463D01*
X93048815Y-49848815D01*
X92969463Y-49945506D01*
X92910498Y-50055820D01*
X92874188Y-50175518D01*
X92861928Y-50300000D01*
X92865000Y-51014250D01*
X93023750Y-51173000D01*
X94673000Y-51173000D01*
X94673000Y-51153000D01*
X94927000Y-51153000D01*
X94927000Y-51173000D01*
X96576250Y-51173000D01*
X96735000Y-51014250D01*
X96738072Y-50300000D01*
X96725812Y-50175518D01*
X96689502Y-50055820D01*
X96630537Y-49945506D01*
X96551185Y-49848815D01*
X96454494Y-49769463D01*
X96407345Y-49744261D01*
X96466031Y-49672752D01*
X96617852Y-49388715D01*
X96711343Y-49080516D01*
X96742911Y-48760000D01*
X96711343Y-48439484D01*
X96617852Y-48131285D01*
X96466031Y-47847248D01*
X96261714Y-47598286D01*
X96129767Y-47490000D01*
X96261714Y-47381714D01*
X96466031Y-47132752D01*
X96617852Y-46848715D01*
X96711343Y-46540516D01*
X96742911Y-46220000D01*
X96711343Y-45899484D01*
X96617852Y-45591285D01*
X96466031Y-45307248D01*
X96261714Y-45058286D01*
X96129767Y-44950000D01*
X96261714Y-44841714D01*
X96466031Y-44592752D01*
X96617852Y-44308715D01*
X96711343Y-44000516D01*
X96742911Y-43680000D01*
X96711343Y-43359484D01*
X96617852Y-43051285D01*
X96466031Y-42767248D01*
X96261714Y-42518286D01*
X96131858Y-42411716D01*
X96345922Y-42206317D01*
X96530010Y-41942761D01*
X96659144Y-41648355D01*
X96690124Y-41520434D01*
X96570777Y-41267000D01*
X94927000Y-41267000D01*
X94927000Y-41287000D01*
X94673000Y-41287000D01*
X94673000Y-41267000D01*
X93029223Y-41267000D01*
X92909876Y-41520434D01*
X92940856Y-41648355D01*
X93069990Y-41942761D01*
X93254078Y-42206317D01*
X93468142Y-42411716D01*
X93338286Y-42518286D01*
X93133969Y-42767248D01*
X92982148Y-43051285D01*
X92888657Y-43359484D01*
X92857089Y-43680000D01*
X66999581Y-43680000D01*
X67035000Y-43501939D01*
X67035000Y-43298061D01*
X66995226Y-43098102D01*
X66917205Y-42909744D01*
X66803937Y-42740226D01*
X66659774Y-42596063D01*
X66490256Y-42482795D01*
X66301898Y-42404774D01*
X66101939Y-42365000D01*
X65898061Y-42365000D01*
X65698102Y-42404774D01*
X65509744Y-42482795D01*
X65340226Y-42596063D01*
X65296289Y-42640000D01*
X55137322Y-42640000D01*
X55099999Y-42636324D01*
X55062676Y-42640000D01*
X55062667Y-42640000D01*
X54951014Y-42650997D01*
X54807753Y-42694454D01*
X54675723Y-42765026D01*
X54592083Y-42833668D01*
X54559999Y-42859999D01*
X54536201Y-42888997D01*
X53094455Y-44330744D01*
X53059774Y-44296063D01*
X52890256Y-44182795D01*
X52701898Y-44104774D01*
X52501939Y-44065000D01*
X52298061Y-44065000D01*
X52098102Y-44104774D01*
X51909744Y-44182795D01*
X51740226Y-44296063D01*
X51596063Y-44440226D01*
X51482795Y-44609744D01*
X51404774Y-44798102D01*
X51365000Y-44998061D01*
X51365000Y-45201939D01*
X51404774Y-45401898D01*
X51482795Y-45590256D01*
X51516033Y-45640000D01*
X48203711Y-45640000D01*
X48159774Y-45596063D01*
X47990256Y-45482795D01*
X47801898Y-45404774D01*
X47601939Y-45365000D01*
X47398061Y-45365000D01*
X47198102Y-45404774D01*
X47009744Y-45482795D01*
X46840226Y-45596063D01*
X46696063Y-45740226D01*
X46582795Y-45909744D01*
X46504774Y-46098102D01*
X46465000Y-46298061D01*
X46465000Y-46459911D01*
X46409744Y-46482799D01*
X46240226Y-46596067D01*
X46096063Y-46740230D01*
X45982795Y-46909748D01*
X45904774Y-47098106D01*
X45865000Y-47298065D01*
X45865000Y-47501943D01*
X45904774Y-47701902D01*
X45913447Y-47722842D01*
X45796063Y-47840226D01*
X45682795Y-48009744D01*
X45604774Y-48198102D01*
X45565000Y-48398061D01*
X45565000Y-48601939D01*
X45604774Y-48801898D01*
X45621331Y-48841870D01*
X45540226Y-48896063D01*
X45396063Y-49040226D01*
X45282795Y-49209744D01*
X45204774Y-49398102D01*
X45165000Y-49598061D01*
X635000Y-49598061D01*
X635000Y-48723386D01*
X773662Y-48584724D01*
X987555Y-48424605D01*
X1222060Y-48296556D01*
X1472407Y-48203181D01*
X1733496Y-48146385D01*
X2004530Y-48127000D01*
X36000000Y-48127000D01*
X36009060Y-48126676D01*
X36293690Y-48106319D01*
X36311626Y-48103741D01*
X36590461Y-48043084D01*
X36607847Y-48037979D01*
X36875212Y-47938257D01*
X36891695Y-47930729D01*
X37142147Y-47793972D01*
X37157390Y-47784176D01*
X37385829Y-47613168D01*
X37399524Y-47601302D01*
X37601302Y-47399524D01*
X37613168Y-47385829D01*
X37784176Y-47157390D01*
X37793972Y-47142147D01*
X37930729Y-46891695D01*
X37938257Y-46875212D01*
X38037979Y-46607847D01*
X38043084Y-46590461D01*
X38103741Y-46311626D01*
X38106319Y-46293690D01*
X38126676Y-46009060D01*
X38127000Y-46000000D01*
X38127000Y-39898061D01*
X39965000Y-39898061D01*
X39965000Y-40101939D01*
X40004774Y-40301898D01*
X40082795Y-40490256D01*
X40196063Y-40659774D01*
X40340226Y-40803937D01*
X40509744Y-40917205D01*
X40698102Y-40995226D01*
X40898061Y-41035000D01*
X41101939Y-41035000D01*
X41301898Y-40995226D01*
X41490256Y-40917205D01*
X41659774Y-40803937D01*
X41704145Y-40759566D01*
X92909876Y-40759566D01*
X93029223Y-41013000D01*
X94673000Y-41013000D01*
X94673000Y-39505000D01*
X94927000Y-39505000D01*
X94927000Y-41013000D01*
X96570777Y-41013000D01*
X96690124Y-40759566D01*
X96659144Y-40631645D01*
X96530010Y-40337239D01*
X96345922Y-40073683D01*
X96113954Y-39851105D01*
X95843020Y-39678058D01*
X95543532Y-39561193D01*
X95227000Y-39505000D01*
X94927000Y-39505000D01*
X94673000Y-39505000D01*
X94373000Y-39505000D01*
X94056468Y-39561193D01*
X93756980Y-39678058D01*
X93486046Y-39851105D01*
X93254078Y-40073683D01*
X93069990Y-40337239D01*
X92940856Y-40631645D01*
X92909876Y-40759566D01*
X41704145Y-40759566D01*
X41803937Y-40659774D01*
X41917205Y-40490256D01*
X41995226Y-40301898D01*
X42035000Y-40101939D01*
X42035000Y-39898061D01*
X41995226Y-39698102D01*
X41917205Y-39509744D01*
X41803937Y-39340226D01*
X41760000Y-39296289D01*
X41760000Y-38749116D01*
X47349117Y-33160000D01*
X50072571Y-33160000D01*
X50065000Y-33198061D01*
X50065000Y-33401939D01*
X50066888Y-33411430D01*
X49940226Y-33496063D01*
X49796063Y-33640226D01*
X49682795Y-33809744D01*
X49604774Y-33998102D01*
X49565000Y-34198061D01*
X49565000Y-34401939D01*
X49604774Y-34601898D01*
X49682795Y-34790256D01*
X49796063Y-34959774D01*
X49889712Y-35053423D01*
X49829784Y-35198102D01*
X49790010Y-35398061D01*
X49790010Y-35601939D01*
X49798536Y-35644803D01*
X49701898Y-35604774D01*
X49501939Y-35565000D01*
X49298061Y-35565000D01*
X49098102Y-35604774D01*
X48909744Y-35682795D01*
X48740226Y-35796063D01*
X48596063Y-35940226D01*
X48482795Y-36109744D01*
X48404774Y-36298102D01*
X48365000Y-36498061D01*
X48365000Y-36701939D01*
X48404774Y-36901898D01*
X48482795Y-37090256D01*
X48596063Y-37259774D01*
X48740226Y-37403937D01*
X48909744Y-37517205D01*
X49098102Y-37595226D01*
X49298061Y-37635000D01*
X49501939Y-37635000D01*
X49701898Y-37595226D01*
X49890256Y-37517205D01*
X50059774Y-37403937D01*
X50103711Y-37360000D01*
X60762678Y-37360000D01*
X60800000Y-37363676D01*
X60837322Y-37360000D01*
X60837333Y-37360000D01*
X60948986Y-37349003D01*
X61092247Y-37305546D01*
X61224276Y-37234974D01*
X61340001Y-37140001D01*
X61363803Y-37110998D01*
X61639801Y-36835000D01*
X61701939Y-36835000D01*
X61901898Y-36795226D01*
X62090256Y-36717205D01*
X62259774Y-36603937D01*
X62403937Y-36459774D01*
X62517205Y-36290256D01*
X62595226Y-36101898D01*
X62635000Y-35901939D01*
X62635000Y-35698061D01*
X62595226Y-35498102D01*
X62517205Y-35309744D01*
X62403937Y-35140226D01*
X62259774Y-34996063D01*
X62090256Y-34882795D01*
X61901898Y-34804774D01*
X61701939Y-34765000D01*
X61498061Y-34765000D01*
X61301398Y-34804118D01*
X61295226Y-34773092D01*
X61217205Y-34584734D01*
X61103937Y-34415216D01*
X60959774Y-34271053D01*
X60790256Y-34157785D01*
X60601898Y-34079764D01*
X60401939Y-34039990D01*
X60198061Y-34039990D01*
X60030095Y-34073400D01*
X59995226Y-33898102D01*
X59917205Y-33709744D01*
X59803937Y-33540226D01*
X59659774Y-33396063D01*
X59490256Y-33282795D01*
X59301898Y-33204774D01*
X59101939Y-33165000D01*
X58928424Y-33165000D01*
X58927429Y-33160000D01*
X63796289Y-33160000D01*
X63840226Y-33203937D01*
X64009744Y-33317205D01*
X64198102Y-33395226D01*
X64398061Y-33435000D01*
X64460199Y-33435000D01*
X67136205Y-36111008D01*
X67159999Y-36140001D01*
X67188992Y-36163795D01*
X67188996Y-36163799D01*
X67239866Y-36205546D01*
X67275724Y-36234974D01*
X67407753Y-36305546D01*
X67551014Y-36349003D01*
X67662667Y-36360000D01*
X67662676Y-36360000D01*
X67699999Y-36363676D01*
X67737322Y-36360000D01*
X73296289Y-36360000D01*
X73340226Y-36403937D01*
X73509744Y-36517205D01*
X73698102Y-36595226D01*
X73898061Y-36635000D01*
X74101939Y-36635000D01*
X74301898Y-36595226D01*
X74490256Y-36517205D01*
X74659774Y-36403937D01*
X74803937Y-36259774D01*
X74917205Y-36090256D01*
X74995226Y-35901898D01*
X75035000Y-35701939D01*
X75035000Y-35498061D01*
X74995226Y-35298102D01*
X74917205Y-35109744D01*
X74803937Y-34940226D01*
X74659774Y-34796063D01*
X74490256Y-34682795D01*
X74301898Y-34604774D01*
X74101939Y-34565000D01*
X73898061Y-34565000D01*
X73698102Y-34604774D01*
X73509744Y-34682795D01*
X73340226Y-34796063D01*
X73296289Y-34840000D01*
X68014803Y-34840000D01*
X65891305Y-32716504D01*
X66059774Y-32603937D01*
X66203937Y-32459774D01*
X66317205Y-32290256D01*
X66395226Y-32101898D01*
X66435000Y-31901939D01*
X66435000Y-31698061D01*
X66395226Y-31498102D01*
X66360522Y-31414320D01*
X66512932Y-31414320D01*
X66556869Y-31458257D01*
X66726387Y-31571525D01*
X66914745Y-31649546D01*
X67114704Y-31689320D01*
X67318582Y-31689320D01*
X67518541Y-31649546D01*
X67706899Y-31571525D01*
X67876417Y-31458257D01*
X68020580Y-31314094D01*
X68133848Y-31144576D01*
X68211869Y-30956218D01*
X68251643Y-30756259D01*
X68251643Y-30552381D01*
X68211869Y-30352422D01*
X68133848Y-30164064D01*
X68020580Y-29994546D01*
X67876417Y-29850383D01*
X67706899Y-29737115D01*
X67518541Y-29659094D01*
X67318582Y-29619320D01*
X67114704Y-29619320D01*
X66914745Y-29659094D01*
X66726387Y-29737115D01*
X66556869Y-29850383D01*
X66512932Y-29894320D01*
X52657165Y-29894320D01*
X52490256Y-29782795D01*
X52301898Y-29704774D01*
X52101939Y-29665000D01*
X51898061Y-29665000D01*
X51698102Y-29704774D01*
X51509744Y-29782795D01*
X51340226Y-29896063D01*
X51196063Y-30040226D01*
X51082795Y-30209744D01*
X51004774Y-30398102D01*
X50965000Y-30598061D01*
X50965000Y-30801939D01*
X51004774Y-31001898D01*
X51082795Y-31190256D01*
X51196063Y-31359774D01*
X51340226Y-31503937D01*
X51509744Y-31617205D01*
X51564776Y-31640000D01*
X47071637Y-31640000D01*
X47034314Y-31636324D01*
X46996991Y-31640000D01*
X46996982Y-31640000D01*
X46885329Y-31650997D01*
X46758993Y-31689320D01*
X46742068Y-31694454D01*
X46610038Y-31765026D01*
X46526398Y-31833668D01*
X46494314Y-31859999D01*
X46470516Y-31888997D01*
X40489003Y-37870511D01*
X40459999Y-37894314D01*
X40406092Y-37960000D01*
X40365026Y-38010039D01*
X40294455Y-38142068D01*
X40294454Y-38142069D01*
X40250997Y-38285330D01*
X40240000Y-38396983D01*
X40240000Y-38396993D01*
X40236324Y-38434315D01*
X40240000Y-38471638D01*
X40240001Y-39296288D01*
X40196063Y-39340226D01*
X40082795Y-39509744D01*
X40004774Y-39698102D01*
X39965000Y-39898061D01*
X38127000Y-39898061D01*
X38127000Y-26898061D01*
X45565000Y-26898061D01*
X45565000Y-27101939D01*
X45604774Y-27301898D01*
X45682795Y-27490256D01*
X45796063Y-27659774D01*
X45940226Y-27803937D01*
X46109744Y-27917205D01*
X46298102Y-27995226D01*
X46498061Y-28035000D01*
X46701939Y-28035000D01*
X46901898Y-27995226D01*
X47090256Y-27917205D01*
X47259774Y-27803937D01*
X47303711Y-27760000D01*
X54096289Y-27760000D01*
X54140226Y-27803937D01*
X54309744Y-27917205D01*
X54498102Y-27995226D01*
X54698061Y-28035000D01*
X54901939Y-28035000D01*
X55101898Y-27995226D01*
X55290256Y-27917205D01*
X55459774Y-27803937D01*
X55603937Y-27659774D01*
X55717205Y-27490256D01*
X55795226Y-27301898D01*
X55835000Y-27101939D01*
X55835000Y-26898061D01*
X55795226Y-26698102D01*
X55717205Y-26509744D01*
X55603937Y-26340226D01*
X55459774Y-26196063D01*
X55290256Y-26082795D01*
X55101898Y-26004774D01*
X54901939Y-25965000D01*
X54698061Y-25965000D01*
X54498102Y-26004774D01*
X54309744Y-26082795D01*
X54140226Y-26196063D01*
X54096289Y-26240000D01*
X47303711Y-26240000D01*
X47259774Y-26196063D01*
X47090256Y-26082795D01*
X46901898Y-26004774D01*
X46701939Y-25965000D01*
X46498061Y-25965000D01*
X46298102Y-26004774D01*
X46109744Y-26082795D01*
X45940226Y-26196063D01*
X45796063Y-26340226D01*
X45682795Y-26509744D01*
X45604774Y-26698102D01*
X45565000Y-26898061D01*
X38127000Y-26898061D01*
X38127000Y-14521721D01*
X54049800Y-14521721D01*
X54049800Y-14942279D01*
X54131847Y-15354756D01*
X54292788Y-15743302D01*
X54526437Y-16092983D01*
X54823817Y-16390363D01*
X55173498Y-16624012D01*
X55440001Y-16734401D01*
X55440001Y-16792668D01*
X55436324Y-16830000D01*
X55440001Y-16867333D01*
X55450998Y-16978986D01*
X55454035Y-16988998D01*
X55494454Y-17122246D01*
X55565026Y-17254276D01*
X55598000Y-17294454D01*
X55660000Y-17370001D01*
X55688998Y-17393799D01*
X56806201Y-18511003D01*
X56829999Y-18540001D01*
X56945724Y-18634974D01*
X57077753Y-18705546D01*
X57221014Y-18749003D01*
X57332667Y-18760000D01*
X57332677Y-18760000D01*
X57370000Y-18763676D01*
X57407323Y-18760000D01*
X67096289Y-18760000D01*
X67140226Y-18803937D01*
X67309744Y-18917205D01*
X67498102Y-18995226D01*
X67698061Y-19035000D01*
X67901939Y-19035000D01*
X68101898Y-18995226D01*
X68290256Y-18917205D01*
X68459774Y-18803937D01*
X68563711Y-18700000D01*
X90537928Y-18700000D01*
X90541000Y-19614250D01*
X90699750Y-19773000D01*
X91056605Y-19773000D01*
X91045064Y-19784541D01*
X91051345Y-19900000D01*
X91045064Y-20015459D01*
X91056605Y-20027000D01*
X90699750Y-20027000D01*
X90541000Y-20185750D01*
X90537928Y-21100000D01*
X90550188Y-21224482D01*
X90586498Y-21344180D01*
X90645463Y-21454494D01*
X90724815Y-21551185D01*
X90821506Y-21630537D01*
X90931820Y-21689502D01*
X91051518Y-21725812D01*
X91176000Y-21738072D01*
X91715250Y-21735000D01*
X91874000Y-21576250D01*
X91874000Y-21507159D01*
X91941351Y-21479408D01*
X91944425Y-21477763D01*
X91949751Y-21379857D01*
X92000000Y-21329608D01*
X92050249Y-21379857D01*
X92055575Y-21477763D01*
X92128000Y-21507920D01*
X92128000Y-21576250D01*
X92286750Y-21735000D01*
X92826000Y-21738072D01*
X92950482Y-21725812D01*
X93070180Y-21689502D01*
X93180494Y-21630537D01*
X93277185Y-21551185D01*
X93356537Y-21454494D01*
X93415502Y-21344180D01*
X93451812Y-21224482D01*
X93464072Y-21100000D01*
X93461000Y-20185750D01*
X93302250Y-20027000D01*
X92943395Y-20027000D01*
X92954936Y-20015459D01*
X92948655Y-19900000D01*
X92954936Y-19784541D01*
X92943395Y-19773000D01*
X93302250Y-19773000D01*
X93461000Y-19614250D01*
X93464072Y-18700000D01*
X93451812Y-18575518D01*
X93415502Y-18455820D01*
X93356537Y-18345506D01*
X93277185Y-18248815D01*
X93180494Y-18169463D01*
X93070180Y-18110498D01*
X92950482Y-18074188D01*
X92826000Y-18061928D01*
X92286750Y-18065000D01*
X92128000Y-18223750D01*
X92128000Y-18292017D01*
X92058649Y-18320592D01*
X92055575Y-18322237D01*
X92050249Y-18420143D01*
X92000000Y-18470392D01*
X91949751Y-18420143D01*
X91944425Y-18322237D01*
X91874000Y-18292912D01*
X91874000Y-18223750D01*
X91715250Y-18065000D01*
X91176000Y-18061928D01*
X91051518Y-18074188D01*
X90931820Y-18110498D01*
X90821506Y-18169463D01*
X90724815Y-18248815D01*
X90645463Y-18345506D01*
X90586498Y-18455820D01*
X90550188Y-18575518D01*
X90537928Y-18700000D01*
X68563711Y-18700000D01*
X68603937Y-18659774D01*
X68717205Y-18490256D01*
X68795226Y-18301898D01*
X68835000Y-18101939D01*
X68835000Y-17898061D01*
X68795226Y-17698102D01*
X68717205Y-17509744D01*
X68603937Y-17340226D01*
X68459774Y-17196063D01*
X68290256Y-17082795D01*
X68101898Y-17004774D01*
X67901939Y-16965000D01*
X67698061Y-16965000D01*
X67498102Y-17004774D01*
X67309744Y-17082795D01*
X67140226Y-17196063D01*
X67096289Y-17240000D01*
X57684802Y-17240000D01*
X57106095Y-16661294D01*
X57196102Y-16624012D01*
X57545783Y-16390363D01*
X57843163Y-16092983D01*
X58076812Y-15743302D01*
X58237753Y-15354756D01*
X58319800Y-14942279D01*
X58319800Y-14521721D01*
X60628400Y-14521721D01*
X60628400Y-14942279D01*
X60710447Y-15354756D01*
X60871388Y-15743302D01*
X61105037Y-16092983D01*
X61402417Y-16390363D01*
X61752098Y-16624012D01*
X62140644Y-16784953D01*
X62553121Y-16867000D01*
X62973679Y-16867000D01*
X63386156Y-16784953D01*
X63774702Y-16624012D01*
X64124383Y-16390363D01*
X64421763Y-16092983D01*
X64655412Y-15743302D01*
X64816353Y-15354756D01*
X64898400Y-14942279D01*
X64898400Y-14521721D01*
X64816353Y-14109244D01*
X64655412Y-13720698D01*
X64421763Y-13371017D01*
X64124383Y-13073637D01*
X63774702Y-12839988D01*
X63386156Y-12679047D01*
X62973679Y-12597000D01*
X62553121Y-12597000D01*
X62140644Y-12679047D01*
X61752098Y-12839988D01*
X61402417Y-13073637D01*
X61105037Y-13371017D01*
X60871388Y-13720698D01*
X60710447Y-14109244D01*
X60628400Y-14521721D01*
X58319800Y-14521721D01*
X58237753Y-14109244D01*
X58076812Y-13720698D01*
X57843163Y-13371017D01*
X57545783Y-13073637D01*
X57196102Y-12839988D01*
X56960000Y-12742191D01*
X56960000Y-12303711D01*
X57003937Y-12259774D01*
X57117205Y-12090256D01*
X57195226Y-11901898D01*
X57235000Y-11701939D01*
X57235000Y-11498061D01*
X57195226Y-11298102D01*
X57117205Y-11109744D01*
X57003937Y-10940226D01*
X56859774Y-10796063D01*
X56690256Y-10682795D01*
X56501898Y-10604774D01*
X56301939Y-10565000D01*
X56098061Y-10565000D01*
X55898102Y-10604774D01*
X55709744Y-10682795D01*
X55540226Y-10796063D01*
X55396063Y-10940226D01*
X55282795Y-11109744D01*
X55204774Y-11298102D01*
X55165000Y-11498061D01*
X55165000Y-11701939D01*
X55204774Y-11901898D01*
X55282795Y-12090256D01*
X55396063Y-12259774D01*
X55440000Y-12303711D01*
X55440000Y-12729599D01*
X55173498Y-12839988D01*
X54823817Y-13073637D01*
X54526437Y-13371017D01*
X54292788Y-13720698D01*
X54131847Y-14109244D01*
X54049800Y-14521721D01*
X38127000Y-14521721D01*
X38127000Y-6027000D01*
X65075000Y-6027000D01*
X65075000Y-6327000D01*
X65131193Y-6643532D01*
X65248058Y-6943020D01*
X65421105Y-7213954D01*
X65643683Y-7445922D01*
X65907239Y-7630010D01*
X66201645Y-7759144D01*
X66329566Y-7790124D01*
X66583000Y-7670777D01*
X66583000Y-6027000D01*
X65075000Y-6027000D01*
X38127000Y-6027000D01*
X38127000Y-5473000D01*
X65075000Y-5473000D01*
X65075000Y-5773000D01*
X66583000Y-5773000D01*
X66583000Y-4129223D01*
X66837000Y-4129223D01*
X66837000Y-5773000D01*
X66857000Y-5773000D01*
X66857000Y-6027000D01*
X66837000Y-6027000D01*
X66837000Y-7670777D01*
X67090434Y-7790124D01*
X67218355Y-7759144D01*
X67512761Y-7630010D01*
X67692662Y-7504353D01*
X67719463Y-7554494D01*
X67798815Y-7651185D01*
X67895506Y-7730537D01*
X68005820Y-7789502D01*
X68125518Y-7825812D01*
X68250000Y-7838072D01*
X70250000Y-7838072D01*
X70374482Y-7825812D01*
X70494180Y-7789502D01*
X70604494Y-7730537D01*
X70701185Y-7651185D01*
X70780537Y-7554494D01*
X70839502Y-7444180D01*
X70875812Y-7324482D01*
X70888072Y-7200000D01*
X70888072Y-6027000D01*
X71925000Y-6027000D01*
X71925000Y-6327000D01*
X71981193Y-6643532D01*
X72098058Y-6943020D01*
X72271105Y-7213954D01*
X72493683Y-7445922D01*
X72757239Y-7630010D01*
X73051645Y-7759144D01*
X73179566Y-7790124D01*
X73433000Y-7670777D01*
X73433000Y-6027000D01*
X71925000Y-6027000D01*
X70888072Y-6027000D01*
X70888072Y-5473000D01*
X71925000Y-5473000D01*
X71925000Y-5773000D01*
X73433000Y-5773000D01*
X73433000Y-4129223D01*
X73687000Y-4129223D01*
X73687000Y-5773000D01*
X73707000Y-5773000D01*
X73707000Y-6027000D01*
X73687000Y-6027000D01*
X73687000Y-7670777D01*
X73940434Y-7790124D01*
X74068355Y-7759144D01*
X74362761Y-7630010D01*
X74542662Y-7504353D01*
X74569463Y-7554494D01*
X74648815Y-7651185D01*
X74745506Y-7730537D01*
X74855820Y-7789502D01*
X74975518Y-7825812D01*
X75100000Y-7838072D01*
X77100000Y-7838072D01*
X77224482Y-7825812D01*
X77344180Y-7789502D01*
X77454494Y-7730537D01*
X77551185Y-7651185D01*
X77630537Y-7554494D01*
X77689502Y-7444180D01*
X77725812Y-7324482D01*
X77738072Y-7200000D01*
X77738072Y-6027000D01*
X78625000Y-6027000D01*
X78625000Y-6327000D01*
X78681193Y-6643532D01*
X78798058Y-6943020D01*
X78971105Y-7213954D01*
X79193683Y-7445922D01*
X79457239Y-7630010D01*
X79751645Y-7759144D01*
X79879566Y-7790124D01*
X80133000Y-7670777D01*
X80133000Y-6027000D01*
X78625000Y-6027000D01*
X77738072Y-6027000D01*
X77738072Y-5473000D01*
X78625000Y-5473000D01*
X78625000Y-5773000D01*
X80133000Y-5773000D01*
X80133000Y-4129223D01*
X80387000Y-4129223D01*
X80387000Y-5773000D01*
X80407000Y-5773000D01*
X80407000Y-6027000D01*
X80387000Y-6027000D01*
X80387000Y-7670777D01*
X80640434Y-7790124D01*
X80768355Y-7759144D01*
X81062761Y-7630010D01*
X81242662Y-7504353D01*
X81269463Y-7554494D01*
X81348815Y-7651185D01*
X81445506Y-7730537D01*
X81555820Y-7789502D01*
X81675518Y-7825812D01*
X81800000Y-7838072D01*
X83800000Y-7838072D01*
X83924482Y-7825812D01*
X84044180Y-7789502D01*
X84154494Y-7730537D01*
X84251185Y-7651185D01*
X84330537Y-7554494D01*
X84389502Y-7444180D01*
X84425812Y-7324482D01*
X84438072Y-7200000D01*
X84438072Y-6027000D01*
X85225000Y-6027000D01*
X85225000Y-6327000D01*
X85281193Y-6643532D01*
X85398058Y-6943020D01*
X85571105Y-7213954D01*
X85793683Y-7445922D01*
X86057239Y-7630010D01*
X86351645Y-7759144D01*
X86479566Y-7790124D01*
X86733000Y-7670777D01*
X86733000Y-6027000D01*
X85225000Y-6027000D01*
X84438072Y-6027000D01*
X84438072Y-5473000D01*
X85225000Y-5473000D01*
X85225000Y-5773000D01*
X86733000Y-5773000D01*
X86733000Y-4129223D01*
X86987000Y-4129223D01*
X86987000Y-5773000D01*
X87007000Y-5773000D01*
X87007000Y-6027000D01*
X86987000Y-6027000D01*
X86987000Y-7670777D01*
X87240434Y-7790124D01*
X87368355Y-7759144D01*
X87662761Y-7630010D01*
X87842662Y-7504353D01*
X87869463Y-7554494D01*
X87948815Y-7651185D01*
X88045506Y-7730537D01*
X88155820Y-7789502D01*
X88275518Y-7825812D01*
X88400000Y-7838072D01*
X90400000Y-7838072D01*
X90524482Y-7825812D01*
X90644180Y-7789502D01*
X90754494Y-7730537D01*
X90851185Y-7651185D01*
X90930537Y-7554494D01*
X90989502Y-7444180D01*
X91025812Y-7324482D01*
X91038072Y-7200000D01*
X91038072Y-4671531D01*
X91665000Y-4671531D01*
X91665000Y-5328469D01*
X91793162Y-5972784D01*
X92044561Y-6579715D01*
X92409536Y-7125939D01*
X92874061Y-7590464D01*
X93420285Y-7955439D01*
X94027216Y-8206838D01*
X94671531Y-8335000D01*
X95328469Y-8335000D01*
X95972784Y-8206838D01*
X96579715Y-7955439D01*
X97125939Y-7590464D01*
X97590464Y-7125939D01*
X97955439Y-6579715D01*
X98206838Y-5972784D01*
X98335000Y-5328469D01*
X98335000Y-4671531D01*
X98206838Y-4027216D01*
X97955439Y-3420285D01*
X97590464Y-2874061D01*
X97125939Y-2409536D01*
X96579715Y-2044561D01*
X95972784Y-1793162D01*
X95328469Y-1665000D01*
X94671531Y-1665000D01*
X94027216Y-1793162D01*
X93420285Y-2044561D01*
X92874061Y-2409536D01*
X92409536Y-2874061D01*
X92044561Y-3420285D01*
X91793162Y-4027216D01*
X91665000Y-4671531D01*
X91038072Y-4671531D01*
X91038072Y-4600000D01*
X91025812Y-4475518D01*
X90989502Y-4355820D01*
X90930537Y-4245506D01*
X90851185Y-4148815D01*
X90754494Y-4069463D01*
X90644180Y-4010498D01*
X90524482Y-3974188D01*
X90400000Y-3961928D01*
X88400000Y-3961928D01*
X88275518Y-3974188D01*
X88155820Y-4010498D01*
X88045506Y-4069463D01*
X87948815Y-4148815D01*
X87869463Y-4245506D01*
X87842662Y-4295647D01*
X87662761Y-4169990D01*
X87368355Y-4040856D01*
X87240434Y-4009876D01*
X86987000Y-4129223D01*
X86733000Y-4129223D01*
X86479566Y-4009876D01*
X86351645Y-4040856D01*
X86057239Y-4169990D01*
X85793683Y-4354078D01*
X85571105Y-4586046D01*
X85398058Y-4856980D01*
X85281193Y-5156468D01*
X85225000Y-5473000D01*
X84438072Y-5473000D01*
X84438072Y-4600000D01*
X84425812Y-4475518D01*
X84389502Y-4355820D01*
X84330537Y-4245506D01*
X84251185Y-4148815D01*
X84154494Y-4069463D01*
X84044180Y-4010498D01*
X83924482Y-3974188D01*
X83800000Y-3961928D01*
X81800000Y-3961928D01*
X81675518Y-3974188D01*
X81555820Y-4010498D01*
X81445506Y-4069463D01*
X81348815Y-4148815D01*
X81269463Y-4245506D01*
X81242662Y-4295647D01*
X81062761Y-4169990D01*
X80768355Y-4040856D01*
X80640434Y-4009876D01*
X80387000Y-4129223D01*
X80133000Y-4129223D01*
X79879566Y-4009876D01*
X79751645Y-4040856D01*
X79457239Y-4169990D01*
X79193683Y-4354078D01*
X78971105Y-4586046D01*
X78798058Y-4856980D01*
X78681193Y-5156468D01*
X78625000Y-5473000D01*
X77738072Y-5473000D01*
X77738072Y-4600000D01*
X77725812Y-4475518D01*
X77689502Y-4355820D01*
X77630537Y-4245506D01*
X77551185Y-4148815D01*
X77454494Y-4069463D01*
X77344180Y-4010498D01*
X77224482Y-3974188D01*
X77100000Y-3961928D01*
X75100000Y-3961928D01*
X74975518Y-3974188D01*
X74855820Y-4010498D01*
X74745506Y-4069463D01*
X74648815Y-4148815D01*
X74569463Y-4245506D01*
X74542662Y-4295647D01*
X74362761Y-4169990D01*
X74068355Y-4040856D01*
X73940434Y-4009876D01*
X73687000Y-4129223D01*
X73433000Y-4129223D01*
X73179566Y-4009876D01*
X73051645Y-4040856D01*
X72757239Y-4169990D01*
X72493683Y-4354078D01*
X72271105Y-4586046D01*
X72098058Y-4856980D01*
X71981193Y-5156468D01*
X71925000Y-5473000D01*
X70888072Y-5473000D01*
X70888072Y-4600000D01*
X70875812Y-4475518D01*
X70839502Y-4355820D01*
X70780537Y-4245506D01*
X70701185Y-4148815D01*
X70604494Y-4069463D01*
X70494180Y-4010498D01*
X70374482Y-3974188D01*
X70250000Y-3961928D01*
X68250000Y-3961928D01*
X68125518Y-3974188D01*
X68005820Y-4010498D01*
X67895506Y-4069463D01*
X67798815Y-4148815D01*
X67719463Y-4245506D01*
X67692662Y-4295647D01*
X67512761Y-4169990D01*
X67218355Y-4040856D01*
X67090434Y-4009876D01*
X66837000Y-4129223D01*
X66583000Y-4129223D01*
X66329566Y-4009876D01*
X66201645Y-4040856D01*
X65907239Y-4169990D01*
X65643683Y-4354078D01*
X65421105Y-4586046D01*
X65248058Y-4856980D01*
X65131193Y-5156468D01*
X65075000Y-5473000D01*
X38127000Y-5473000D01*
X38127000Y-2004530D01*
X38146385Y-1733496D01*
X38203181Y-1472407D01*
X38296556Y-1222060D01*
X38424605Y-987555D01*
X38584724Y-773662D01*
X38723386Y-635000D01*
X94971721Y-635000D01*
X95772528Y-706470D01*
G36*
X42409744Y-73082795D02*
G01*
X42240226Y-73196063D01*
X42096063Y-73340226D01*
X41982795Y-73509744D01*
X41904774Y-73698102D01*
X41865000Y-73898061D01*
X41865000Y-74101939D01*
X41904774Y-74301898D01*
X41982795Y-74490256D01*
X42082830Y-74639969D01*
X38816371Y-74639969D01*
X38772434Y-74596032D01*
X38602916Y-74482764D01*
X38414558Y-74404743D01*
X38214599Y-74364969D01*
X38010721Y-74364969D01*
X37810762Y-74404743D01*
X37622404Y-74482764D01*
X37452886Y-74596032D01*
X37308723Y-74740195D01*
X37195455Y-74909713D01*
X37117434Y-75098071D01*
X37083507Y-75268637D01*
X36992419Y-75207774D01*
X36804061Y-75129753D01*
X36754839Y-75119962D01*
X38793221Y-73081581D01*
X42412675Y-73081581D01*
X42409744Y-73082795D01*
X42409744Y-73082795D01*
G37*
X42409744Y-73082795D02*
X42240226Y-73196063D01*
X42096063Y-73340226D01*
X41982795Y-73509744D01*
X41904774Y-73698102D01*
X41865000Y-73898061D01*
X41865000Y-74101939D01*
X41904774Y-74301898D01*
X41982795Y-74490256D01*
X42082830Y-74639969D01*
X38816371Y-74639969D01*
X38772434Y-74596032D01*
X38602916Y-74482764D01*
X38414558Y-74404743D01*
X38214599Y-74364969D01*
X38010721Y-74364969D01*
X37810762Y-74404743D01*
X37622404Y-74482764D01*
X37452886Y-74596032D01*
X37308723Y-74740195D01*
X37195455Y-74909713D01*
X37117434Y-75098071D01*
X37083507Y-75268637D01*
X36992419Y-75207774D01*
X36804061Y-75129753D01*
X36754839Y-75119962D01*
X38793221Y-73081581D01*
X42412675Y-73081581D01*
X42409744Y-73082795D01*
G36*
X92050249Y-19879857D02*
G01*
X92051345Y-19900000D01*
X92050249Y-19920143D01*
X92000000Y-19970392D01*
X91949751Y-19920143D01*
X91948655Y-19900000D01*
X91949751Y-19879857D01*
X92000000Y-19829608D01*
X92050249Y-19879857D01*
X92050249Y-19879857D01*
G37*
X92050249Y-19879857D02*
X92051345Y-19900000D01*
X92050249Y-19920143D01*
X92000000Y-19970392D01*
X91949751Y-19920143D01*
X91948655Y-19900000D01*
X91949751Y-19879857D01*
X92000000Y-19829608D01*
X92050249Y-19879857D01*
G36*
X31415276Y-773662D02*
G01*
X31575395Y-987555D01*
X31703444Y-1222060D01*
X31796819Y-1472407D01*
X31853615Y-1733496D01*
X31873000Y-2004530D01*
X31873000Y-32495470D01*
X31853615Y-32766504D01*
X31796819Y-33027593D01*
X31703444Y-33277940D01*
X31575395Y-33512445D01*
X31415276Y-33726338D01*
X31226338Y-33915276D01*
X31012445Y-34075395D01*
X30777940Y-34203444D01*
X30527593Y-34296819D01*
X30266504Y-34353615D01*
X29995470Y-34373000D01*
X17004530Y-34373000D01*
X16733496Y-34353615D01*
X16472407Y-34296819D01*
X16222060Y-34203444D01*
X15987555Y-34075395D01*
X15773662Y-33915276D01*
X15584724Y-33726338D01*
X15424605Y-33512445D01*
X15296556Y-33277940D01*
X15203181Y-33027593D01*
X15146385Y-32766504D01*
X15127000Y-32495470D01*
X15127000Y-28004530D01*
X15146385Y-27733496D01*
X15203181Y-27472407D01*
X15296556Y-27222060D01*
X15424605Y-26987555D01*
X15584724Y-26773662D01*
X15773662Y-26584724D01*
X15987555Y-26424605D01*
X16222060Y-26296556D01*
X16472407Y-26203181D01*
X16733496Y-26146385D01*
X17004530Y-26127000D01*
X22000000Y-26127000D01*
X22009060Y-26126676D01*
X22293690Y-26106319D01*
X22311626Y-26103741D01*
X22590461Y-26043084D01*
X22607847Y-26037979D01*
X22875212Y-25938257D01*
X22891695Y-25930729D01*
X23142147Y-25793972D01*
X23157390Y-25784176D01*
X23385829Y-25613168D01*
X23399524Y-25601302D01*
X23601302Y-25399524D01*
X23613168Y-25385829D01*
X23784176Y-25157390D01*
X23793972Y-25142147D01*
X23930729Y-24891695D01*
X23938257Y-24875212D01*
X24037979Y-24607847D01*
X24043084Y-24590461D01*
X24103741Y-24311626D01*
X24106319Y-24293690D01*
X24126676Y-24009060D01*
X24127000Y-24000000D01*
X24127000Y-2004530D01*
X24146385Y-1733496D01*
X24203181Y-1472407D01*
X24296556Y-1222060D01*
X24424605Y-987555D01*
X24584724Y-773662D01*
X24723386Y-635000D01*
X31276614Y-635000D01*
X31415276Y-773662D01*
X31415276Y-773662D01*
G37*
X31415276Y-773662D02*
X31575395Y-987555D01*
X31703444Y-1222060D01*
X31796819Y-1472407D01*
X31853615Y-1733496D01*
X31873000Y-2004530D01*
X31873000Y-32495470D01*
X31853615Y-32766504D01*
X31796819Y-33027593D01*
X31703444Y-33277940D01*
X31575395Y-33512445D01*
X31415276Y-33726338D01*
X31226338Y-33915276D01*
X31012445Y-34075395D01*
X30777940Y-34203444D01*
X30527593Y-34296819D01*
X30266504Y-34353615D01*
X29995470Y-34373000D01*
X17004530Y-34373000D01*
X16733496Y-34353615D01*
X16472407Y-34296819D01*
X16222060Y-34203444D01*
X15987555Y-34075395D01*
X15773662Y-33915276D01*
X15584724Y-33726338D01*
X15424605Y-33512445D01*
X15296556Y-33277940D01*
X15203181Y-33027593D01*
X15146385Y-32766504D01*
X15127000Y-32495470D01*
X15127000Y-28004530D01*
X15146385Y-27733496D01*
X15203181Y-27472407D01*
X15296556Y-27222060D01*
X15424605Y-26987555D01*
X15584724Y-26773662D01*
X15773662Y-26584724D01*
X15987555Y-26424605D01*
X16222060Y-26296556D01*
X16472407Y-26203181D01*
X16733496Y-26146385D01*
X17004530Y-26127000D01*
X22000000Y-26127000D01*
X22009060Y-26126676D01*
X22293690Y-26106319D01*
X22311626Y-26103741D01*
X22590461Y-26043084D01*
X22607847Y-26037979D01*
X22875212Y-25938257D01*
X22891695Y-25930729D01*
X23142147Y-25793972D01*
X23157390Y-25784176D01*
X23385829Y-25613168D01*
X23399524Y-25601302D01*
X23601302Y-25399524D01*
X23613168Y-25385829D01*
X23784176Y-25157390D01*
X23793972Y-25142147D01*
X23930729Y-24891695D01*
X23938257Y-24875212D01*
X24037979Y-24607847D01*
X24043084Y-24590461D01*
X24103741Y-24311626D01*
X24106319Y-24293690D01*
X24126676Y-24009060D01*
X24127000Y-24000000D01*
X24127000Y-2004530D01*
X24146385Y-1733496D01*
X24203181Y-1472407D01*
X24296556Y-1222060D01*
X24424605Y-987555D01*
X24584724Y-773662D01*
X24723386Y-635000D01*
X31276614Y-635000D01*
X31415276Y-773662D01*
G36*
X98266504Y-71146385D02*
G01*
X98527593Y-71203181D01*
X98777940Y-71296556D01*
X99012445Y-71424605D01*
X99226338Y-71584724D01*
X99365001Y-71723387D01*
X99365001Y-94971710D01*
X99293530Y-95772528D01*
X99088871Y-96520636D01*
X98754965Y-97220682D01*
X98302372Y-97850532D01*
X97745395Y-98390281D01*
X97101637Y-98822867D01*
X96391452Y-99134617D01*
X95632400Y-99316850D01*
X94976712Y-99365000D01*
X83223386Y-99365000D01*
X83084724Y-99226338D01*
X82924605Y-99012445D01*
X82796556Y-98777940D01*
X82703181Y-98527593D01*
X82646385Y-98266504D01*
X82627000Y-97995470D01*
X82627000Y-94671531D01*
X91665000Y-94671531D01*
X91665000Y-95328469D01*
X91793162Y-95972784D01*
X92044561Y-96579715D01*
X92409536Y-97125939D01*
X92874061Y-97590464D01*
X93420285Y-97955439D01*
X94027216Y-98206838D01*
X94671531Y-98335000D01*
X95328469Y-98335000D01*
X95972784Y-98206838D01*
X96579715Y-97955439D01*
X97125939Y-97590464D01*
X97590464Y-97125939D01*
X97955439Y-96579715D01*
X98206838Y-95972784D01*
X98335000Y-95328469D01*
X98335000Y-94671531D01*
X98206838Y-94027216D01*
X97955439Y-93420285D01*
X97590464Y-92874061D01*
X97125939Y-92409536D01*
X96579715Y-92044561D01*
X95972784Y-91793162D01*
X95328469Y-91665000D01*
X94671531Y-91665000D01*
X94027216Y-91793162D01*
X93420285Y-92044561D01*
X92874061Y-92409536D01*
X92409536Y-92874061D01*
X92044561Y-93420285D01*
X91793162Y-94027216D01*
X91665000Y-94671531D01*
X82627000Y-94671531D01*
X82627000Y-73004530D01*
X82646385Y-72733496D01*
X82703181Y-72472407D01*
X82796556Y-72222060D01*
X82809660Y-72198061D01*
X84665000Y-72198061D01*
X84665000Y-72401939D01*
X84704774Y-72601898D01*
X84782795Y-72790256D01*
X84896063Y-72959774D01*
X84940001Y-73003712D01*
X84940000Y-78762677D01*
X84936324Y-78800000D01*
X84940000Y-78837322D01*
X84940000Y-78837332D01*
X84950997Y-78948985D01*
X84994454Y-79092246D01*
X85065026Y-79224276D01*
X85098448Y-79265000D01*
X85159999Y-79340001D01*
X85189003Y-79363804D01*
X86165000Y-80339802D01*
X86165000Y-80401939D01*
X86204774Y-80601898D01*
X86282795Y-80790256D01*
X86396063Y-80959774D01*
X86540226Y-81103937D01*
X86709744Y-81217205D01*
X86898102Y-81295226D01*
X87098061Y-81335000D01*
X87301939Y-81335000D01*
X87501898Y-81295226D01*
X87690256Y-81217205D01*
X87859774Y-81103937D01*
X88003937Y-80959774D01*
X88117205Y-80790256D01*
X88195226Y-80601898D01*
X88235000Y-80401939D01*
X88235000Y-80198061D01*
X88195226Y-79998102D01*
X88117205Y-79809744D01*
X88003937Y-79640226D01*
X87859774Y-79496063D01*
X87690256Y-79382795D01*
X87501898Y-79304774D01*
X87301939Y-79265000D01*
X87239802Y-79265000D01*
X87154802Y-79180000D01*
X92757089Y-79180000D01*
X92788657Y-79500516D01*
X92882148Y-79808715D01*
X93033969Y-80092752D01*
X93238286Y-80341714D01*
X93370233Y-80450000D01*
X93238286Y-80558286D01*
X93033969Y-80807248D01*
X92882148Y-81091285D01*
X92788657Y-81399484D01*
X92757089Y-81720000D01*
X92788657Y-82040516D01*
X92882148Y-82348715D01*
X93033969Y-82632752D01*
X93238286Y-82881714D01*
X93370233Y-82990000D01*
X93238286Y-83098286D01*
X93033969Y-83347248D01*
X92882148Y-83631285D01*
X92788657Y-83939484D01*
X92757089Y-84260000D01*
X92788657Y-84580516D01*
X92882148Y-84888715D01*
X93033969Y-85172752D01*
X93092655Y-85244261D01*
X93045506Y-85269463D01*
X92948815Y-85348815D01*
X92869463Y-85445506D01*
X92810498Y-85555820D01*
X92774188Y-85675518D01*
X92761928Y-85800000D01*
X92761928Y-87800000D01*
X92774188Y-87924482D01*
X92810498Y-88044180D01*
X92869463Y-88154494D01*
X92948815Y-88251185D01*
X93045506Y-88330537D01*
X93155820Y-88389502D01*
X93275518Y-88425812D01*
X93400000Y-88438072D01*
X96000000Y-88438072D01*
X96124482Y-88425812D01*
X96244180Y-88389502D01*
X96354494Y-88330537D01*
X96451185Y-88251185D01*
X96530537Y-88154494D01*
X96589502Y-88044180D01*
X96625812Y-87924482D01*
X96638072Y-87800000D01*
X96638072Y-85800000D01*
X96625812Y-85675518D01*
X96589502Y-85555820D01*
X96530537Y-85445506D01*
X96451185Y-85348815D01*
X96354494Y-85269463D01*
X96307345Y-85244261D01*
X96366031Y-85172752D01*
X96517852Y-84888715D01*
X96611343Y-84580516D01*
X96642911Y-84260000D01*
X96611343Y-83939484D01*
X96517852Y-83631285D01*
X96366031Y-83347248D01*
X96161714Y-83098286D01*
X96029767Y-82990000D01*
X96161714Y-82881714D01*
X96366031Y-82632752D01*
X96517852Y-82348715D01*
X96611343Y-82040516D01*
X96642911Y-81720000D01*
X96611343Y-81399484D01*
X96517852Y-81091285D01*
X96366031Y-80807248D01*
X96161714Y-80558286D01*
X96029767Y-80450000D01*
X96161714Y-80341714D01*
X96366031Y-80092752D01*
X96517852Y-79808715D01*
X96611343Y-79500516D01*
X96642911Y-79180000D01*
X96611343Y-78859484D01*
X96517852Y-78551285D01*
X96366031Y-78267248D01*
X96161714Y-78018286D01*
X96031858Y-77911716D01*
X96245922Y-77706317D01*
X96430010Y-77442761D01*
X96559144Y-77148355D01*
X96590124Y-77020434D01*
X96470777Y-76767000D01*
X94827000Y-76767000D01*
X94827000Y-76787000D01*
X94573000Y-76787000D01*
X94573000Y-76767000D01*
X92929223Y-76767000D01*
X92809876Y-77020434D01*
X92840856Y-77148355D01*
X92969990Y-77442761D01*
X93154078Y-77706317D01*
X93368142Y-77911716D01*
X93238286Y-78018286D01*
X93033969Y-78267248D01*
X92882148Y-78551285D01*
X92788657Y-78859484D01*
X92757089Y-79180000D01*
X87154802Y-79180000D01*
X86460000Y-78485199D01*
X86460000Y-76259566D01*
X92809876Y-76259566D01*
X92929223Y-76513000D01*
X94573000Y-76513000D01*
X94573000Y-75005000D01*
X94827000Y-75005000D01*
X94827000Y-76513000D01*
X96470777Y-76513000D01*
X96590124Y-76259566D01*
X96559144Y-76131645D01*
X96430010Y-75837239D01*
X96245922Y-75573683D01*
X96013954Y-75351105D01*
X95743020Y-75178058D01*
X95443532Y-75061193D01*
X95127000Y-75005000D01*
X94827000Y-75005000D01*
X94573000Y-75005000D01*
X94273000Y-75005000D01*
X93956468Y-75061193D01*
X93656980Y-75178058D01*
X93386046Y-75351105D01*
X93154078Y-75573683D01*
X92969990Y-75837239D01*
X92840856Y-76131645D01*
X92809876Y-76259566D01*
X86460000Y-76259566D01*
X86460000Y-73003711D01*
X86503937Y-72959774D01*
X86617205Y-72790256D01*
X86695226Y-72601898D01*
X86735000Y-72401939D01*
X86735000Y-72198061D01*
X86695226Y-71998102D01*
X86617205Y-71809744D01*
X86503937Y-71640226D01*
X86359774Y-71496063D01*
X86190256Y-71382795D01*
X86001898Y-71304774D01*
X85801939Y-71265000D01*
X85598061Y-71265000D01*
X85398102Y-71304774D01*
X85209744Y-71382795D01*
X85040226Y-71496063D01*
X84896063Y-71640226D01*
X84782795Y-71809744D01*
X84704774Y-71998102D01*
X84665000Y-72198061D01*
X82809660Y-72198061D01*
X82924605Y-71987555D01*
X83084724Y-71773662D01*
X83273662Y-71584724D01*
X83487555Y-71424605D01*
X83722060Y-71296556D01*
X83972407Y-71203181D01*
X84233496Y-71146385D01*
X84504530Y-71127000D01*
X97995470Y-71127000D01*
X98266504Y-71146385D01*
X98266504Y-71146385D01*
G37*
X98266504Y-71146385D02*
X98527593Y-71203181D01*
X98777940Y-71296556D01*
X99012445Y-71424605D01*
X99226338Y-71584724D01*
X99365001Y-71723387D01*
X99365001Y-94971710D01*
X99293530Y-95772528D01*
X99088871Y-96520636D01*
X98754965Y-97220682D01*
X98302372Y-97850532D01*
X97745395Y-98390281D01*
X97101637Y-98822867D01*
X96391452Y-99134617D01*
X95632400Y-99316850D01*
X94976712Y-99365000D01*
X83223386Y-99365000D01*
X83084724Y-99226338D01*
X82924605Y-99012445D01*
X82796556Y-98777940D01*
X82703181Y-98527593D01*
X82646385Y-98266504D01*
X82627000Y-97995470D01*
X82627000Y-94671531D01*
X91665000Y-94671531D01*
X91665000Y-95328469D01*
X91793162Y-95972784D01*
X92044561Y-96579715D01*
X92409536Y-97125939D01*
X92874061Y-97590464D01*
X93420285Y-97955439D01*
X94027216Y-98206838D01*
X94671531Y-98335000D01*
X95328469Y-98335000D01*
X95972784Y-98206838D01*
X96579715Y-97955439D01*
X97125939Y-97590464D01*
X97590464Y-97125939D01*
X97955439Y-96579715D01*
X98206838Y-95972784D01*
X98335000Y-95328469D01*
X98335000Y-94671531D01*
X98206838Y-94027216D01*
X97955439Y-93420285D01*
X97590464Y-92874061D01*
X97125939Y-92409536D01*
X96579715Y-92044561D01*
X95972784Y-91793162D01*
X95328469Y-91665000D01*
X94671531Y-91665000D01*
X94027216Y-91793162D01*
X93420285Y-92044561D01*
X92874061Y-92409536D01*
X92409536Y-92874061D01*
X92044561Y-93420285D01*
X91793162Y-94027216D01*
X91665000Y-94671531D01*
X82627000Y-94671531D01*
X82627000Y-73004530D01*
X82646385Y-72733496D01*
X82703181Y-72472407D01*
X82796556Y-72222060D01*
X82809660Y-72198061D01*
X84665000Y-72198061D01*
X84665000Y-72401939D01*
X84704774Y-72601898D01*
X84782795Y-72790256D01*
X84896063Y-72959774D01*
X84940001Y-73003712D01*
X84940000Y-78762677D01*
X84936324Y-78800000D01*
X84940000Y-78837322D01*
X84940000Y-78837332D01*
X84950997Y-78948985D01*
X84994454Y-79092246D01*
X85065026Y-79224276D01*
X85098448Y-79265000D01*
X85159999Y-79340001D01*
X85189003Y-79363804D01*
X86165000Y-80339802D01*
X86165000Y-80401939D01*
X86204774Y-80601898D01*
X86282795Y-80790256D01*
X86396063Y-80959774D01*
X86540226Y-81103937D01*
X86709744Y-81217205D01*
X86898102Y-81295226D01*
X87098061Y-81335000D01*
X87301939Y-81335000D01*
X87501898Y-81295226D01*
X87690256Y-81217205D01*
X87859774Y-81103937D01*
X88003937Y-80959774D01*
X88117205Y-80790256D01*
X88195226Y-80601898D01*
X88235000Y-80401939D01*
X88235000Y-80198061D01*
X88195226Y-79998102D01*
X88117205Y-79809744D01*
X88003937Y-79640226D01*
X87859774Y-79496063D01*
X87690256Y-79382795D01*
X87501898Y-79304774D01*
X87301939Y-79265000D01*
X87239802Y-79265000D01*
X87154802Y-79180000D01*
X92757089Y-79180000D01*
X92788657Y-79500516D01*
X92882148Y-79808715D01*
X93033969Y-80092752D01*
X93238286Y-80341714D01*
X93370233Y-80450000D01*
X93238286Y-80558286D01*
X93033969Y-80807248D01*
X92882148Y-81091285D01*
X92788657Y-81399484D01*
X92757089Y-81720000D01*
X92788657Y-82040516D01*
X92882148Y-82348715D01*
X93033969Y-82632752D01*
X93238286Y-82881714D01*
X93370233Y-82990000D01*
X93238286Y-83098286D01*
X93033969Y-83347248D01*
X92882148Y-83631285D01*
X92788657Y-83939484D01*
X92757089Y-84260000D01*
X92788657Y-84580516D01*
X92882148Y-84888715D01*
X93033969Y-85172752D01*
X93092655Y-85244261D01*
X93045506Y-85269463D01*
X92948815Y-85348815D01*
X92869463Y-85445506D01*
X92810498Y-85555820D01*
X92774188Y-85675518D01*
X92761928Y-85800000D01*
X92761928Y-87800000D01*
X92774188Y-87924482D01*
X92810498Y-88044180D01*
X92869463Y-88154494D01*
X92948815Y-88251185D01*
X93045506Y-88330537D01*
X93155820Y-88389502D01*
X93275518Y-88425812D01*
X93400000Y-88438072D01*
X96000000Y-88438072D01*
X96124482Y-88425812D01*
X96244180Y-88389502D01*
X96354494Y-88330537D01*
X96451185Y-88251185D01*
X96530537Y-88154494D01*
X96589502Y-88044180D01*
X96625812Y-87924482D01*
X96638072Y-87800000D01*
X96638072Y-85800000D01*
X96625812Y-85675518D01*
X96589502Y-85555820D01*
X96530537Y-85445506D01*
X96451185Y-85348815D01*
X96354494Y-85269463D01*
X96307345Y-85244261D01*
X96366031Y-85172752D01*
X96517852Y-84888715D01*
X96611343Y-84580516D01*
X96642911Y-84260000D01*
X96611343Y-83939484D01*
X96517852Y-83631285D01*
X96366031Y-83347248D01*
X96161714Y-83098286D01*
X96029767Y-82990000D01*
X96161714Y-82881714D01*
X96366031Y-82632752D01*
X96517852Y-82348715D01*
X96611343Y-82040516D01*
X96642911Y-81720000D01*
X96611343Y-81399484D01*
X96517852Y-81091285D01*
X96366031Y-80807248D01*
X96161714Y-80558286D01*
X96029767Y-80450000D01*
X96161714Y-80341714D01*
X96366031Y-80092752D01*
X96517852Y-79808715D01*
X96611343Y-79500516D01*
X96642911Y-79180000D01*
X96611343Y-78859484D01*
X96517852Y-78551285D01*
X96366031Y-78267248D01*
X96161714Y-78018286D01*
X96031858Y-77911716D01*
X96245922Y-77706317D01*
X96430010Y-77442761D01*
X96559144Y-77148355D01*
X96590124Y-77020434D01*
X96470777Y-76767000D01*
X94827000Y-76767000D01*
X94827000Y-76787000D01*
X94573000Y-76787000D01*
X94573000Y-76767000D01*
X92929223Y-76767000D01*
X92809876Y-77020434D01*
X92840856Y-77148355D01*
X92969990Y-77442761D01*
X93154078Y-77706317D01*
X93368142Y-77911716D01*
X93238286Y-78018286D01*
X93033969Y-78267248D01*
X92882148Y-78551285D01*
X92788657Y-78859484D01*
X92757089Y-79180000D01*
X87154802Y-79180000D01*
X86460000Y-78485199D01*
X86460000Y-76259566D01*
X92809876Y-76259566D01*
X92929223Y-76513000D01*
X94573000Y-76513000D01*
X94573000Y-75005000D01*
X94827000Y-75005000D01*
X94827000Y-76513000D01*
X96470777Y-76513000D01*
X96590124Y-76259566D01*
X96559144Y-76131645D01*
X96430010Y-75837239D01*
X96245922Y-75573683D01*
X96013954Y-75351105D01*
X95743020Y-75178058D01*
X95443532Y-75061193D01*
X95127000Y-75005000D01*
X94827000Y-75005000D01*
X94573000Y-75005000D01*
X94273000Y-75005000D01*
X93956468Y-75061193D01*
X93656980Y-75178058D01*
X93386046Y-75351105D01*
X93154078Y-75573683D01*
X92969990Y-75837239D01*
X92840856Y-76131645D01*
X92809876Y-76259566D01*
X86460000Y-76259566D01*
X86460000Y-73003711D01*
X86503937Y-72959774D01*
X86617205Y-72790256D01*
X86695226Y-72601898D01*
X86735000Y-72401939D01*
X86735000Y-72198061D01*
X86695226Y-71998102D01*
X86617205Y-71809744D01*
X86503937Y-71640226D01*
X86359774Y-71496063D01*
X86190256Y-71382795D01*
X86001898Y-71304774D01*
X85801939Y-71265000D01*
X85598061Y-71265000D01*
X85398102Y-71304774D01*
X85209744Y-71382795D01*
X85040226Y-71496063D01*
X84896063Y-71640226D01*
X84782795Y-71809744D01*
X84704774Y-71998102D01*
X84665000Y-72198061D01*
X82809660Y-72198061D01*
X82924605Y-71987555D01*
X83084724Y-71773662D01*
X83273662Y-71584724D01*
X83487555Y-71424605D01*
X83722060Y-71296556D01*
X83972407Y-71203181D01*
X84233496Y-71146385D01*
X84504530Y-71127000D01*
X97995470Y-71127000D01*
X98266504Y-71146385D01*
M02*
