M48
; DRILL file {KiCad 5.1.0-rc2-unknown-d2d2101~82~ubuntu18.10.1} date Thu 14 Mar 2019 10:39:27 AM EDT
; FORMAT={3:3/ absolute / metric / suppress leading zeros}
; #@! TF.CreationDate,2019-03-14T10:39:27-04:00
; #@! TF.GenerationSoftware,Kicad,Pcbnew,5.1.0-rc2-unknown-d2d2101~82~ubuntu18.10.1
FMAT,2
METRIC,TZ
T1C0.250
T2C0.400
T3C0.500
T4C1.200
T5C1.300
T6C1.500
T7C2.700
%
G90
G05
T1
X91500Y-19150
X91500Y-20650
X92000Y-19900
X92500Y-19150
X92500Y-20650
T2
X3500Y-86000
X11700Y-59000
X13800Y-58100
X14300Y-60900
X15500Y-58000
X18100Y-57800
X18200Y-72900
X22900Y-39700
X23500Y-33500
X24100Y-77000
X24513Y-81513
X25000Y-10500
X25000Y-24400
X27700Y-56100
X27800Y-50100
X28800Y-75800
X29100Y-12100
X29200Y-25400
X29500Y-31000
X30350Y-79275
X30500Y-56000
X30900Y-66800
X31487Y-72987
X31500Y-74000
X32000Y-55900
X32200Y-68300
X32300Y-66700
X33100Y-73000
X33400Y-50900
X33500Y-55800
X34275Y-72177
X34500Y-91000
X34500Y-95500
X34740Y-78025
X35000Y-55800
X35000Y-85000
X36300Y-67600
X36400Y-64000
X36502Y-76125
X37100Y-55900
X37300Y-81900
X38100Y-74300
X38113Y-75400
X39900Y-68300
X40300Y-67100
X40442Y-13419
X41000Y-40000
X41000Y-68690
X41300Y-42600
X41300Y-53900
X42292Y-25723
X42600Y-59200
X42600Y-60900
X42900Y-74000
X44100Y-73200
X44400Y-36100
X44500Y-82000
X45300Y-28800
X46200Y-49700
X46200Y-50700
X46200Y-51800
X46200Y-53000
X46600Y-27000
X46600Y-48500
X46900Y-47400
X47500Y-46400
X47841Y-72322
X48500Y-82900
X48500Y-95650
X48625Y-61700
X48700Y-78300
X48700Y-84500
X49075Y-62636
X49400Y-36600
X49525Y-63607
X49700Y-76200
X49975Y-64700
X50025Y-75101
X50425Y-65700
X50475Y-73900
X50600Y-34300
X50825Y-35500
X50874Y-51903
X50900Y-49903
X50900Y-47400
X50900Y-48700
X50903Y-50903
X50909Y-53134
X50925Y-72400
X51025Y-40203
X51100Y-33300
X51600Y-57700
X52000Y-30700
X52400Y-45100
X53400Y-82900
X53400Y-84550
X54500Y-6200
X54500Y-21500
X54600Y-98000
X54800Y-27000
X54900Y-39400
X55000Y-65500
X55400Y-63500
X55800Y-24900
X56125Y-62400
X56200Y-11600
X56788Y-29850
X56900Y-31425
X56900Y-41500
X57000Y-64500
X57555Y-93755
X57600Y-45100
X57600Y-81600
X57700Y-52000
X57725Y-61615
X57900Y-33300
X58166Y-92710
X58763Y-55500
X58900Y-61800
X58950Y-60741
X59000Y-34200
X59366Y-92496
X59991Y-63987
X60100Y-83600
X60100Y-85100
X60300Y-35075
X60300Y-46400
X60900Y-40400
X60900Y-41400
X61000Y-63600
X61000Y-92000
X61600Y-35800
X61600Y-53600
X61600Y-54800
X61600Y-83600
X61600Y-85100
X61900Y-61400
X62700Y-62100
X62900Y-65700
X62992Y-88392
X63200Y-3300
X63246Y-86360
X64100Y-46800
X64400Y-85500
X64500Y-32400
X64516Y-83820
X64516Y-88392
X64516Y-89916
X64650Y-87250
X64900Y-53900
X65300Y-21700
X65400Y-31800
X65400Y-98000
X65500Y-59500
X66000Y-43400
X66228Y-53193
X66300Y-51400
X66687Y-54082
X67190Y-55625
X67217Y-30654
X67300Y-76800
X67504Y-56575
X67800Y-18000
X68000Y-29000
X68072Y-81026
X70200Y-65400
X71000Y-63500
X72000Y-64000
X72200Y-79800
X72200Y-87800
X72500Y-43300
X73275Y-46800
X74000Y-20500
X74000Y-28000
X74000Y-35600
X74500Y-81500
X74500Y-83500
X75600Y-62200
X75925Y-53900
X76400Y-32500
X76400Y-58100
X76400Y-59200
X76500Y-55700
X76500Y-67000
X76600Y-60400
X76600Y-61600
X82500Y-40300
X83500Y-81500
X83500Y-83500
X83500Y-85500
X84100Y-42200
X84300Y-24800
X84500Y-81500
X85600Y-31300
X85700Y-72300
X86400Y-56200
X86600Y-29800
X86900Y-62800
X87200Y-80300
X88500Y-77500
X89100Y-54800
X89100Y-57200
X89600Y-62900
X90200Y-38300
X90800Y-49600
X91500Y-42300
X91500Y-74500
X92500Y-56200
X95300Y-13900
X96200Y-13900
T3
X2975Y-5000
X3568Y-3568
X3568Y-6432
X5000Y-2975
X5000Y-7025
X6432Y-3568
X6432Y-6432
X7025Y-5000
X92975Y-5000
X93568Y-3568
X93568Y-6432
X95000Y-2975
X95000Y-7025
X96432Y-3568
X96432Y-6432
X97025Y-5000
X92975Y-95000
X93568Y-93568
X93568Y-96432
X95000Y-92975
X95000Y-97025
X96432Y-93568
X96432Y-96432
X97025Y-95000
X2975Y-95000
X3568Y-93568
X3568Y-96432
X5000Y-92975
X5000Y-97025
X6432Y-93568
X6432Y-96432
X7025Y-95000
T4
X66710Y-5900
X69250Y-5900
X5800Y-66600
X5800Y-69140
X73560Y-5900
X76100Y-5900
X80260Y-5900
X82800Y-5900
X86860Y-5900
X89400Y-5900
X5862Y-52300
X5862Y-54840
X5862Y-57380
X5862Y-59920
T5
X5600Y-24350
X5600Y-29350
X5600Y-11350
X5600Y-16350
X5600Y-37200
X5600Y-42200
T6
X56185Y-14732
X31750Y-60198
X62763Y-14732
X97511Y-11227
X13208Y-51816
T7
X5000Y-5000
X95000Y-5000
X95000Y-95000
X5000Y-95000
T0
M30
