G04 #@! TF.GenerationSoftware,KiCad,Pcbnew,5.1.0-unknown-c054944~86~ubuntu19.04.1*
G04 #@! TF.CreationDate,2019-05-09T13:09:11-04:00*
G04 #@! TF.ProjectId,BMS-Master,424d532d-4d61-4737-9465-722e6b696361,V0.2*
G04 #@! TF.SameCoordinates,Original*
G04 #@! TF.FileFunction,Soldermask,Bot*
G04 #@! TF.FilePolarity,Negative*
%FSLAX46Y46*%
G04 Gerber Fmt 4.6, Leading zero omitted, Abs format (unit mm)*
G04 Created by KiCad (PCBNEW 5.1.0-unknown-c054944~86~ubuntu19.04.1) date 2019-05-09 13:09:11*
%MOMM*%
%LPD*%
G04 APERTURE LIST*
%ADD10C,0.100000*%
G04 APERTURE END LIST*
D10*
G36*
X95536693Y-92301859D02*
G01*
X95802437Y-92354719D01*
X96303087Y-92562095D01*
X96483561Y-92682684D01*
X96753660Y-92863158D01*
X97136842Y-93246340D01*
X97317316Y-93516439D01*
X97437905Y-93696913D01*
X97571363Y-94019109D01*
X97645281Y-94197564D01*
X97751000Y-94729049D01*
X97751000Y-95270951D01*
X97715186Y-95451000D01*
X97645281Y-95802437D01*
X97437905Y-96303087D01*
X97381521Y-96387471D01*
X97136842Y-96753660D01*
X96753660Y-97136842D01*
X96490774Y-97312496D01*
X96303087Y-97437905D01*
X95802437Y-97645281D01*
X95536693Y-97698141D01*
X95270951Y-97751000D01*
X94729049Y-97751000D01*
X94463306Y-97698140D01*
X94197563Y-97645281D01*
X93696913Y-97437905D01*
X93509226Y-97312496D01*
X93246340Y-97136842D01*
X92863158Y-96753660D01*
X92618479Y-96387471D01*
X92562095Y-96303087D01*
X92354719Y-95802437D01*
X92284814Y-95451000D01*
X92249000Y-95270951D01*
X92249000Y-94729049D01*
X92354719Y-94197564D01*
X92428637Y-94019109D01*
X92562095Y-93696913D01*
X92682684Y-93516439D01*
X92863158Y-93246340D01*
X93246340Y-92863158D01*
X93516439Y-92682684D01*
X93696913Y-92562095D01*
X94197563Y-92354719D01*
X94463307Y-92301859D01*
X94729049Y-92249000D01*
X95270951Y-92249000D01*
X95536693Y-92301859D01*
X95536693Y-92301859D01*
G37*
G36*
X5536693Y-92301859D02*
G01*
X5802437Y-92354719D01*
X6303087Y-92562095D01*
X6483561Y-92682684D01*
X6753660Y-92863158D01*
X7136842Y-93246340D01*
X7317316Y-93516439D01*
X7437905Y-93696913D01*
X7571363Y-94019109D01*
X7645281Y-94197564D01*
X7751000Y-94729049D01*
X7751000Y-95270951D01*
X7715186Y-95451000D01*
X7645281Y-95802437D01*
X7437905Y-96303087D01*
X7381521Y-96387471D01*
X7136842Y-96753660D01*
X6753660Y-97136842D01*
X6490774Y-97312496D01*
X6303087Y-97437905D01*
X5802437Y-97645281D01*
X5536694Y-97698140D01*
X5270951Y-97751000D01*
X4729049Y-97751000D01*
X4463306Y-97698140D01*
X4197563Y-97645281D01*
X3696913Y-97437905D01*
X3509226Y-97312496D01*
X3246340Y-97136842D01*
X2863158Y-96753660D01*
X2618479Y-96387471D01*
X2562095Y-96303087D01*
X2354719Y-95802437D01*
X2284814Y-95451000D01*
X2249000Y-95270951D01*
X2249000Y-94729049D01*
X2354719Y-94197564D01*
X2428637Y-94019109D01*
X2562095Y-93696913D01*
X2682684Y-93516439D01*
X2863158Y-93246340D01*
X3246340Y-92863158D01*
X3516439Y-92682684D01*
X3696913Y-92562095D01*
X4197563Y-92354719D01*
X4463307Y-92301859D01*
X4729049Y-92249000D01*
X5270951Y-92249000D01*
X5536693Y-92301859D01*
X5536693Y-92301859D01*
G37*
G36*
X96051000Y-87851000D02*
G01*
X93349000Y-87851000D01*
X93349000Y-85749000D01*
X96051000Y-85749000D01*
X96051000Y-87851000D01*
X96051000Y-87851000D01*
G37*
G36*
X95103097Y-83214069D02*
G01*
X95206032Y-83224207D01*
X95404146Y-83284305D01*
X95404149Y-83284306D01*
X95500975Y-83336061D01*
X95586729Y-83381897D01*
X95746765Y-83513235D01*
X95878103Y-83673271D01*
X95923939Y-83759025D01*
X95975694Y-83855851D01*
X95975695Y-83855854D01*
X96035793Y-84053968D01*
X96056085Y-84260000D01*
X96035793Y-84466032D01*
X95975695Y-84664146D01*
X95975694Y-84664149D01*
X95923939Y-84760975D01*
X95878103Y-84846729D01*
X95746765Y-85006765D01*
X95586729Y-85138103D01*
X95500975Y-85183939D01*
X95404149Y-85235694D01*
X95404146Y-85235695D01*
X95206032Y-85295793D01*
X95103097Y-85305931D01*
X95051631Y-85311000D01*
X94348369Y-85311000D01*
X94296903Y-85305931D01*
X94193968Y-85295793D01*
X93995854Y-85235695D01*
X93995851Y-85235694D01*
X93899025Y-85183939D01*
X93813271Y-85138103D01*
X93653235Y-85006765D01*
X93521897Y-84846729D01*
X93476061Y-84760975D01*
X93424306Y-84664149D01*
X93424305Y-84664146D01*
X93364207Y-84466032D01*
X93343915Y-84260000D01*
X93364207Y-84053968D01*
X93424305Y-83855854D01*
X93424306Y-83855851D01*
X93476061Y-83759025D01*
X93521897Y-83673271D01*
X93653235Y-83513235D01*
X93813271Y-83381897D01*
X93899025Y-83336061D01*
X93995851Y-83284306D01*
X93995854Y-83284305D01*
X94193968Y-83224207D01*
X94296903Y-83214069D01*
X94348369Y-83209000D01*
X95051631Y-83209000D01*
X95103097Y-83214069D01*
X95103097Y-83214069D01*
G37*
G36*
X95103097Y-80674069D02*
G01*
X95206032Y-80684207D01*
X95404146Y-80744305D01*
X95404149Y-80744306D01*
X95500975Y-80796061D01*
X95586729Y-80841897D01*
X95746765Y-80973235D01*
X95878103Y-81133271D01*
X95923939Y-81219025D01*
X95975694Y-81315851D01*
X95975695Y-81315854D01*
X96035793Y-81513968D01*
X96056085Y-81720000D01*
X96035793Y-81926032D01*
X95975695Y-82124146D01*
X95975694Y-82124149D01*
X95923939Y-82220975D01*
X95878103Y-82306729D01*
X95746765Y-82466765D01*
X95586729Y-82598103D01*
X95500975Y-82643939D01*
X95404149Y-82695694D01*
X95404146Y-82695695D01*
X95206032Y-82755793D01*
X95103097Y-82765931D01*
X95051631Y-82771000D01*
X94348369Y-82771000D01*
X94296903Y-82765931D01*
X94193968Y-82755793D01*
X93995854Y-82695695D01*
X93995851Y-82695694D01*
X93899025Y-82643939D01*
X93813271Y-82598103D01*
X93653235Y-82466765D01*
X93521897Y-82306729D01*
X93476061Y-82220975D01*
X93424306Y-82124149D01*
X93424305Y-82124146D01*
X93364207Y-81926032D01*
X93343915Y-81720000D01*
X93364207Y-81513968D01*
X93424305Y-81315854D01*
X93424306Y-81315851D01*
X93476061Y-81219025D01*
X93521897Y-81133271D01*
X93653235Y-80973235D01*
X93813271Y-80841897D01*
X93899025Y-80796061D01*
X93995851Y-80744306D01*
X93995854Y-80744305D01*
X94193968Y-80684207D01*
X94296903Y-80674069D01*
X94348369Y-80669000D01*
X95051631Y-80669000D01*
X95103097Y-80674069D01*
X95103097Y-80674069D01*
G37*
G36*
X95103097Y-78134069D02*
G01*
X95206032Y-78144207D01*
X95404146Y-78204305D01*
X95404149Y-78204306D01*
X95500975Y-78256061D01*
X95586729Y-78301897D01*
X95746765Y-78433235D01*
X95878103Y-78593271D01*
X95923939Y-78679025D01*
X95975694Y-78775851D01*
X95975695Y-78775854D01*
X96035793Y-78973968D01*
X96056085Y-79180000D01*
X96035793Y-79386032D01*
X95975695Y-79584146D01*
X95975694Y-79584149D01*
X95923939Y-79680975D01*
X95878103Y-79766729D01*
X95746765Y-79926765D01*
X95586729Y-80058103D01*
X95500975Y-80103939D01*
X95404149Y-80155694D01*
X95404146Y-80155695D01*
X95206032Y-80215793D01*
X95103097Y-80225931D01*
X95051631Y-80231000D01*
X94348369Y-80231000D01*
X94296903Y-80225931D01*
X94193968Y-80215793D01*
X93995854Y-80155695D01*
X93995851Y-80155694D01*
X93899025Y-80103939D01*
X93813271Y-80058103D01*
X93653235Y-79926765D01*
X93521897Y-79766729D01*
X93476061Y-79680975D01*
X93424306Y-79584149D01*
X93424305Y-79584146D01*
X93364207Y-79386032D01*
X93343915Y-79180000D01*
X93364207Y-78973968D01*
X93424305Y-78775854D01*
X93424306Y-78775851D01*
X93476061Y-78679025D01*
X93521897Y-78593271D01*
X93653235Y-78433235D01*
X93813271Y-78301897D01*
X93899025Y-78256061D01*
X93995851Y-78204306D01*
X93995854Y-78204305D01*
X94193968Y-78144207D01*
X94296903Y-78134069D01*
X94348369Y-78129000D01*
X95051631Y-78129000D01*
X95103097Y-78134069D01*
X95103097Y-78134069D01*
G37*
G36*
X95103097Y-75594069D02*
G01*
X95206032Y-75604207D01*
X95404146Y-75664305D01*
X95404149Y-75664306D01*
X95500975Y-75716061D01*
X95586729Y-75761897D01*
X95746765Y-75893235D01*
X95878103Y-76053271D01*
X95923939Y-76139025D01*
X95975694Y-76235851D01*
X95975695Y-76235854D01*
X96035793Y-76433968D01*
X96056085Y-76640000D01*
X96035793Y-76846032D01*
X95975695Y-77044146D01*
X95975694Y-77044149D01*
X95923939Y-77140975D01*
X95878103Y-77226729D01*
X95746765Y-77386765D01*
X95586729Y-77518103D01*
X95500975Y-77563939D01*
X95404149Y-77615694D01*
X95404146Y-77615695D01*
X95206032Y-77675793D01*
X95103097Y-77685931D01*
X95051631Y-77691000D01*
X94348369Y-77691000D01*
X94296903Y-77685931D01*
X94193968Y-77675793D01*
X93995854Y-77615695D01*
X93995851Y-77615694D01*
X93899025Y-77563939D01*
X93813271Y-77518103D01*
X93653235Y-77386765D01*
X93521897Y-77226729D01*
X93476061Y-77140975D01*
X93424306Y-77044149D01*
X93424305Y-77044146D01*
X93364207Y-76846032D01*
X93343915Y-76640000D01*
X93364207Y-76433968D01*
X93424305Y-76235854D01*
X93424306Y-76235851D01*
X93476061Y-76139025D01*
X93521897Y-76053271D01*
X93653235Y-75893235D01*
X93813271Y-75761897D01*
X93899025Y-75716061D01*
X93995851Y-75664306D01*
X93995854Y-75664305D01*
X94193968Y-75604207D01*
X94296903Y-75594069D01*
X94348369Y-75589000D01*
X95051631Y-75589000D01*
X95103097Y-75594069D01*
X95103097Y-75594069D01*
G37*
G36*
X57779393Y-72449304D02*
G01*
X58016101Y-72547352D01*
X58016103Y-72547353D01*
X58229135Y-72689696D01*
X58410304Y-72870865D01*
X58552647Y-73083897D01*
X58552648Y-73083899D01*
X58650696Y-73320607D01*
X58700680Y-73571893D01*
X58700680Y-73828107D01*
X58650696Y-74079393D01*
X58552648Y-74316101D01*
X58552647Y-74316103D01*
X58410304Y-74529135D01*
X58229135Y-74710304D01*
X58016103Y-74852647D01*
X58016102Y-74852648D01*
X58016101Y-74852648D01*
X57779393Y-74950696D01*
X57528107Y-75000680D01*
X57271893Y-75000680D01*
X57020607Y-74950696D01*
X56783899Y-74852648D01*
X56783898Y-74852648D01*
X56783897Y-74852647D01*
X56570865Y-74710304D01*
X56389696Y-74529135D01*
X56247353Y-74316103D01*
X56247352Y-74316101D01*
X56149304Y-74079393D01*
X56099320Y-73828107D01*
X56099320Y-73571893D01*
X56149304Y-73320607D01*
X56247352Y-73083899D01*
X56247353Y-73083897D01*
X56389696Y-72870865D01*
X56570865Y-72689696D01*
X56783897Y-72547353D01*
X56783899Y-72547352D01*
X57020607Y-72449304D01*
X57271893Y-72399320D01*
X57528107Y-72399320D01*
X57779393Y-72449304D01*
X57779393Y-72449304D01*
G37*
G36*
X6203097Y-68094069D02*
G01*
X6306032Y-68104207D01*
X6504146Y-68164305D01*
X6504149Y-68164306D01*
X6600975Y-68216061D01*
X6686729Y-68261897D01*
X6846765Y-68393235D01*
X6978103Y-68553271D01*
X6988057Y-68571894D01*
X7075694Y-68735851D01*
X7075695Y-68735854D01*
X7135793Y-68933968D01*
X7156085Y-69140000D01*
X7135793Y-69346032D01*
X7075695Y-69544146D01*
X7075694Y-69544149D01*
X7023939Y-69640975D01*
X6978103Y-69726729D01*
X6846765Y-69886765D01*
X6686729Y-70018103D01*
X6600975Y-70063939D01*
X6504149Y-70115694D01*
X6504146Y-70115695D01*
X6306032Y-70175793D01*
X6203097Y-70185931D01*
X6151631Y-70191000D01*
X5448369Y-70191000D01*
X5396903Y-70185931D01*
X5293968Y-70175793D01*
X5095854Y-70115695D01*
X5095851Y-70115694D01*
X4999025Y-70063939D01*
X4913271Y-70018103D01*
X4753235Y-69886765D01*
X4621897Y-69726729D01*
X4576061Y-69640975D01*
X4524306Y-69544149D01*
X4524305Y-69544146D01*
X4464207Y-69346032D01*
X4443915Y-69140000D01*
X4464207Y-68933968D01*
X4524305Y-68735854D01*
X4524306Y-68735851D01*
X4611943Y-68571894D01*
X4621897Y-68553271D01*
X4753235Y-68393235D01*
X4913271Y-68261897D01*
X4999025Y-68216061D01*
X5095851Y-68164306D01*
X5095854Y-68164305D01*
X5293968Y-68104207D01*
X5396903Y-68094069D01*
X5448369Y-68089000D01*
X6151631Y-68089000D01*
X6203097Y-68094069D01*
X6203097Y-68094069D01*
G37*
G36*
X57779393Y-67449304D02*
G01*
X58016101Y-67547352D01*
X58016103Y-67547353D01*
X58229135Y-67689696D01*
X58410304Y-67870865D01*
X58552647Y-68083897D01*
X58552648Y-68083899D01*
X58650696Y-68320607D01*
X58700680Y-68571893D01*
X58700680Y-68828107D01*
X58650696Y-69079393D01*
X58552648Y-69316101D01*
X58552647Y-69316103D01*
X58410304Y-69529135D01*
X58229135Y-69710304D01*
X58016103Y-69852647D01*
X58016102Y-69852648D01*
X58016101Y-69852648D01*
X57779393Y-69950696D01*
X57528107Y-70000680D01*
X57271893Y-70000680D01*
X57020607Y-69950696D01*
X56783899Y-69852648D01*
X56783898Y-69852648D01*
X56783897Y-69852647D01*
X56570865Y-69710304D01*
X56389696Y-69529135D01*
X56247353Y-69316103D01*
X56247352Y-69316101D01*
X56149304Y-69079393D01*
X56099320Y-68828107D01*
X56099320Y-68571893D01*
X56149304Y-68320607D01*
X56247352Y-68083899D01*
X56247353Y-68083897D01*
X56389696Y-67870865D01*
X56570865Y-67689696D01*
X56783897Y-67547353D01*
X56783899Y-67547352D01*
X57020607Y-67449304D01*
X57271893Y-67399320D01*
X57528107Y-67399320D01*
X57779393Y-67449304D01*
X57779393Y-67449304D01*
G37*
G36*
X7151000Y-67651000D02*
G01*
X4449000Y-67651000D01*
X4449000Y-65549000D01*
X7151000Y-65549000D01*
X7151000Y-67651000D01*
X7151000Y-67651000D01*
G37*
G36*
X96151000Y-66551000D02*
G01*
X93449000Y-66551000D01*
X93449000Y-64449000D01*
X96151000Y-64449000D01*
X96151000Y-66551000D01*
X96151000Y-66551000D01*
G37*
G36*
X95203097Y-61914069D02*
G01*
X95306032Y-61924207D01*
X95504146Y-61984305D01*
X95504149Y-61984306D01*
X95600975Y-62036061D01*
X95686729Y-62081897D01*
X95846765Y-62213235D01*
X95978103Y-62373271D01*
X96023939Y-62459025D01*
X96075694Y-62555851D01*
X96075695Y-62555854D01*
X96135793Y-62753968D01*
X96156085Y-62960000D01*
X96135793Y-63166032D01*
X96075695Y-63364146D01*
X96075694Y-63364149D01*
X96023939Y-63460975D01*
X95978103Y-63546729D01*
X95846765Y-63706765D01*
X95686729Y-63838103D01*
X95600975Y-63883939D01*
X95504149Y-63935694D01*
X95504146Y-63935695D01*
X95306032Y-63995793D01*
X95203097Y-64005931D01*
X95151631Y-64011000D01*
X94448369Y-64011000D01*
X94396903Y-64005931D01*
X94293968Y-63995793D01*
X94095854Y-63935695D01*
X94095851Y-63935694D01*
X93999025Y-63883939D01*
X93913271Y-63838103D01*
X93753235Y-63706765D01*
X93621897Y-63546729D01*
X93576061Y-63460975D01*
X93524306Y-63364149D01*
X93524305Y-63364146D01*
X93464207Y-63166032D01*
X93443915Y-62960000D01*
X93464207Y-62753968D01*
X93524305Y-62555854D01*
X93524306Y-62555851D01*
X93576061Y-62459025D01*
X93621897Y-62373271D01*
X93753235Y-62213235D01*
X93913271Y-62081897D01*
X93999025Y-62036061D01*
X94095851Y-61984306D01*
X94095854Y-61984305D01*
X94293968Y-61924207D01*
X94396903Y-61914069D01*
X94448369Y-61909000D01*
X95151631Y-61909000D01*
X95203097Y-61914069D01*
X95203097Y-61914069D01*
G37*
G36*
X32052585Y-58676802D02*
G01*
X32202410Y-58706604D01*
X32484674Y-58823521D01*
X32738705Y-58993259D01*
X32954741Y-59209295D01*
X33124479Y-59463326D01*
X33241396Y-59745590D01*
X33301000Y-60045240D01*
X33301000Y-60350760D01*
X33241396Y-60650410D01*
X33124479Y-60932674D01*
X32954741Y-61186705D01*
X32738705Y-61402741D01*
X32484674Y-61572479D01*
X32202410Y-61689396D01*
X32052585Y-61719198D01*
X31902761Y-61749000D01*
X31597239Y-61749000D01*
X31447415Y-61719198D01*
X31297590Y-61689396D01*
X31015326Y-61572479D01*
X30761295Y-61402741D01*
X30545259Y-61186705D01*
X30375521Y-60932674D01*
X30258604Y-60650410D01*
X30199000Y-60350760D01*
X30199000Y-60045240D01*
X30258604Y-59745590D01*
X30375521Y-59463326D01*
X30545259Y-59209295D01*
X30761295Y-58993259D01*
X31015326Y-58823521D01*
X31297590Y-58706604D01*
X31447415Y-58676802D01*
X31597239Y-58647000D01*
X31902761Y-58647000D01*
X32052585Y-58676802D01*
X32052585Y-58676802D01*
G37*
G36*
X95203097Y-59374069D02*
G01*
X95306032Y-59384207D01*
X95504146Y-59444305D01*
X95504149Y-59444306D01*
X95539736Y-59463328D01*
X95686729Y-59541897D01*
X95846765Y-59673235D01*
X95978103Y-59833271D01*
X96023939Y-59919025D01*
X96075694Y-60015851D01*
X96075695Y-60015854D01*
X96135793Y-60213968D01*
X96156085Y-60420000D01*
X96135793Y-60626032D01*
X96083595Y-60798103D01*
X96075694Y-60824149D01*
X96037452Y-60895694D01*
X95978103Y-61006729D01*
X95846765Y-61166765D01*
X95686729Y-61298103D01*
X95600975Y-61343939D01*
X95504149Y-61395694D01*
X95504146Y-61395695D01*
X95306032Y-61455793D01*
X95203097Y-61465931D01*
X95151631Y-61471000D01*
X94448369Y-61471000D01*
X94396903Y-61465931D01*
X94293968Y-61455793D01*
X94095854Y-61395695D01*
X94095851Y-61395694D01*
X93999025Y-61343939D01*
X93913271Y-61298103D01*
X93753235Y-61166765D01*
X93621897Y-61006729D01*
X93562548Y-60895694D01*
X93524306Y-60824149D01*
X93516405Y-60798103D01*
X93464207Y-60626032D01*
X93443915Y-60420000D01*
X93464207Y-60213968D01*
X93524305Y-60015854D01*
X93524306Y-60015851D01*
X93576061Y-59919025D01*
X93621897Y-59833271D01*
X93753235Y-59673235D01*
X93913271Y-59541897D01*
X94060264Y-59463328D01*
X94095851Y-59444306D01*
X94095854Y-59444305D01*
X94293968Y-59384207D01*
X94396903Y-59374069D01*
X94448369Y-59369000D01*
X95151631Y-59369000D01*
X95203097Y-59374069D01*
X95203097Y-59374069D01*
G37*
G36*
X6264777Y-58874069D02*
G01*
X6367712Y-58884207D01*
X6565826Y-58944305D01*
X6565829Y-58944306D01*
X6657413Y-58993259D01*
X6748409Y-59041897D01*
X6908445Y-59173235D01*
X7039783Y-59333271D01*
X7085619Y-59419025D01*
X7137374Y-59515851D01*
X7137375Y-59515854D01*
X7197473Y-59713968D01*
X7217765Y-59920000D01*
X7197473Y-60126032D01*
X7170797Y-60213970D01*
X7137374Y-60324149D01*
X7086140Y-60420000D01*
X7039783Y-60506729D01*
X6908445Y-60666765D01*
X6748409Y-60798103D01*
X6699680Y-60824149D01*
X6565829Y-60895694D01*
X6565826Y-60895695D01*
X6367712Y-60955793D01*
X6264777Y-60965931D01*
X6213311Y-60971000D01*
X5510049Y-60971000D01*
X5458583Y-60965931D01*
X5355648Y-60955793D01*
X5157534Y-60895695D01*
X5157531Y-60895694D01*
X5023680Y-60824149D01*
X4974951Y-60798103D01*
X4814915Y-60666765D01*
X4683577Y-60506729D01*
X4637220Y-60420000D01*
X4585986Y-60324149D01*
X4552563Y-60213970D01*
X4525887Y-60126032D01*
X4505595Y-59920000D01*
X4525887Y-59713968D01*
X4585985Y-59515854D01*
X4585986Y-59515851D01*
X4637741Y-59419025D01*
X4683577Y-59333271D01*
X4814915Y-59173235D01*
X4974951Y-59041897D01*
X5065947Y-58993259D01*
X5157531Y-58944306D01*
X5157534Y-58944305D01*
X5355648Y-58884207D01*
X5458583Y-58874069D01*
X5510049Y-58869000D01*
X6213311Y-58869000D01*
X6264777Y-58874069D01*
X6264777Y-58874069D01*
G37*
G36*
X95203097Y-56834069D02*
G01*
X95306032Y-56844207D01*
X95504146Y-56904305D01*
X95504149Y-56904306D01*
X95600975Y-56956061D01*
X95686729Y-57001897D01*
X95846765Y-57133235D01*
X95978103Y-57293271D01*
X96023939Y-57379025D01*
X96075694Y-57475851D01*
X96075695Y-57475854D01*
X96135793Y-57673968D01*
X96156085Y-57880000D01*
X96135793Y-58086032D01*
X96083595Y-58258103D01*
X96075694Y-58284149D01*
X96037452Y-58355694D01*
X95978103Y-58466729D01*
X95846765Y-58626765D01*
X95686729Y-58758103D01*
X95600975Y-58803939D01*
X95504149Y-58855694D01*
X95504146Y-58855695D01*
X95306032Y-58915793D01*
X95203097Y-58925931D01*
X95151631Y-58931000D01*
X94448369Y-58931000D01*
X94396903Y-58925931D01*
X94293968Y-58915793D01*
X94095854Y-58855695D01*
X94095851Y-58855694D01*
X93999025Y-58803939D01*
X93913271Y-58758103D01*
X93753235Y-58626765D01*
X93621897Y-58466729D01*
X93562548Y-58355694D01*
X93524306Y-58284149D01*
X93516405Y-58258103D01*
X93464207Y-58086032D01*
X93443915Y-57880000D01*
X93464207Y-57673968D01*
X93524305Y-57475854D01*
X93524306Y-57475851D01*
X93576061Y-57379025D01*
X93621897Y-57293271D01*
X93753235Y-57133235D01*
X93913271Y-57001897D01*
X93999025Y-56956061D01*
X94095851Y-56904306D01*
X94095854Y-56904305D01*
X94293968Y-56844207D01*
X94396903Y-56834069D01*
X94448369Y-56829000D01*
X95151631Y-56829000D01*
X95203097Y-56834069D01*
X95203097Y-56834069D01*
G37*
G36*
X6264777Y-56334069D02*
G01*
X6367712Y-56344207D01*
X6565826Y-56404305D01*
X6565829Y-56404306D01*
X6662655Y-56456061D01*
X6748409Y-56501897D01*
X6908445Y-56633235D01*
X7039783Y-56793271D01*
X7085619Y-56879025D01*
X7137374Y-56975851D01*
X7137375Y-56975854D01*
X7197473Y-57173968D01*
X7217765Y-57380000D01*
X7197473Y-57586032D01*
X7170797Y-57673970D01*
X7137374Y-57784149D01*
X7086140Y-57880000D01*
X7039783Y-57966729D01*
X6908445Y-58126765D01*
X6748409Y-58258103D01*
X6699680Y-58284149D01*
X6565829Y-58355694D01*
X6565826Y-58355695D01*
X6367712Y-58415793D01*
X6264777Y-58425931D01*
X6213311Y-58431000D01*
X5510049Y-58431000D01*
X5458583Y-58425931D01*
X5355648Y-58415793D01*
X5157534Y-58355695D01*
X5157531Y-58355694D01*
X5023680Y-58284149D01*
X4974951Y-58258103D01*
X4814915Y-58126765D01*
X4683577Y-57966729D01*
X4637220Y-57880000D01*
X4585986Y-57784149D01*
X4552563Y-57673970D01*
X4525887Y-57586032D01*
X4505595Y-57380000D01*
X4525887Y-57173968D01*
X4585985Y-56975854D01*
X4585986Y-56975851D01*
X4637741Y-56879025D01*
X4683577Y-56793271D01*
X4814915Y-56633235D01*
X4974951Y-56501897D01*
X5060705Y-56456061D01*
X5157531Y-56404306D01*
X5157534Y-56404305D01*
X5355648Y-56344207D01*
X5458583Y-56334069D01*
X5510049Y-56329000D01*
X6213311Y-56329000D01*
X6264777Y-56334069D01*
X6264777Y-56334069D01*
G37*
G36*
X95203097Y-54294069D02*
G01*
X95306032Y-54304207D01*
X95504146Y-54364305D01*
X95504149Y-54364306D01*
X95600975Y-54416061D01*
X95686729Y-54461897D01*
X95846765Y-54593235D01*
X95978103Y-54753271D01*
X96023939Y-54839025D01*
X96075694Y-54935851D01*
X96075695Y-54935854D01*
X96135793Y-55133968D01*
X96156085Y-55340000D01*
X96135793Y-55546032D01*
X96083595Y-55718103D01*
X96075694Y-55744149D01*
X96037452Y-55815694D01*
X95978103Y-55926729D01*
X95846765Y-56086765D01*
X95686729Y-56218103D01*
X95600975Y-56263939D01*
X95504149Y-56315694D01*
X95504146Y-56315695D01*
X95306032Y-56375793D01*
X95203097Y-56385931D01*
X95151631Y-56391000D01*
X94448369Y-56391000D01*
X94396903Y-56385931D01*
X94293968Y-56375793D01*
X94095854Y-56315695D01*
X94095851Y-56315694D01*
X93999025Y-56263939D01*
X93913271Y-56218103D01*
X93753235Y-56086765D01*
X93621897Y-55926729D01*
X93562548Y-55815694D01*
X93524306Y-55744149D01*
X93516405Y-55718103D01*
X93464207Y-55546032D01*
X93443915Y-55340000D01*
X93464207Y-55133968D01*
X93524305Y-54935854D01*
X93524306Y-54935851D01*
X93576061Y-54839025D01*
X93621897Y-54753271D01*
X93753235Y-54593235D01*
X93913271Y-54461897D01*
X93999025Y-54416061D01*
X94095851Y-54364306D01*
X94095854Y-54364305D01*
X94293968Y-54304207D01*
X94396903Y-54294069D01*
X94448369Y-54289000D01*
X95151631Y-54289000D01*
X95203097Y-54294069D01*
X95203097Y-54294069D01*
G37*
G36*
X6264777Y-53794069D02*
G01*
X6367712Y-53804207D01*
X6565826Y-53864305D01*
X6565829Y-53864306D01*
X6662655Y-53916061D01*
X6748409Y-53961897D01*
X6908445Y-54093235D01*
X7039783Y-54253271D01*
X7085619Y-54339025D01*
X7137374Y-54435851D01*
X7137375Y-54435854D01*
X7197473Y-54633968D01*
X7217765Y-54840000D01*
X7197473Y-55046032D01*
X7170797Y-55133970D01*
X7137374Y-55244149D01*
X7086140Y-55340000D01*
X7039783Y-55426729D01*
X6908445Y-55586765D01*
X6748409Y-55718103D01*
X6699680Y-55744149D01*
X6565829Y-55815694D01*
X6565826Y-55815695D01*
X6367712Y-55875793D01*
X6264777Y-55885931D01*
X6213311Y-55891000D01*
X5510049Y-55891000D01*
X5458583Y-55885931D01*
X5355648Y-55875793D01*
X5157534Y-55815695D01*
X5157531Y-55815694D01*
X5023680Y-55744149D01*
X4974951Y-55718103D01*
X4814915Y-55586765D01*
X4683577Y-55426729D01*
X4637220Y-55340000D01*
X4585986Y-55244149D01*
X4552563Y-55133970D01*
X4525887Y-55046032D01*
X4505595Y-54840000D01*
X4525887Y-54633968D01*
X4585985Y-54435854D01*
X4585986Y-54435851D01*
X4637741Y-54339025D01*
X4683577Y-54253271D01*
X4814915Y-54093235D01*
X4974951Y-53961897D01*
X5060705Y-53916061D01*
X5157531Y-53864306D01*
X5157534Y-53864305D01*
X5355648Y-53804207D01*
X5458583Y-53794069D01*
X5510049Y-53789000D01*
X6213311Y-53789000D01*
X6264777Y-53794069D01*
X6264777Y-53794069D01*
G37*
G36*
X13510585Y-50294802D02*
G01*
X13660410Y-50324604D01*
X13942674Y-50441521D01*
X14196705Y-50611259D01*
X14412741Y-50827295D01*
X14582479Y-51081326D01*
X14699396Y-51363590D01*
X14759000Y-51663240D01*
X14759000Y-51968760D01*
X14699396Y-52268410D01*
X14582479Y-52550674D01*
X14412741Y-52804705D01*
X14196705Y-53020741D01*
X13942674Y-53190479D01*
X13660410Y-53307396D01*
X13510585Y-53337198D01*
X13360761Y-53367000D01*
X13055239Y-53367000D01*
X12905415Y-53337198D01*
X12755590Y-53307396D01*
X12473326Y-53190479D01*
X12219295Y-53020741D01*
X12003259Y-52804705D01*
X11833521Y-52550674D01*
X11716604Y-52268410D01*
X11657000Y-51968760D01*
X11657000Y-51663240D01*
X11716604Y-51363590D01*
X11833521Y-51081326D01*
X12003259Y-50827295D01*
X12219295Y-50611259D01*
X12473326Y-50441521D01*
X12755590Y-50324604D01*
X12905415Y-50294802D01*
X13055239Y-50265000D01*
X13360761Y-50265000D01*
X13510585Y-50294802D01*
X13510585Y-50294802D01*
G37*
G36*
X7212680Y-53351000D02*
G01*
X4510680Y-53351000D01*
X4510680Y-51249000D01*
X7212680Y-51249000D01*
X7212680Y-53351000D01*
X7212680Y-53351000D01*
G37*
G36*
X96151000Y-52351000D02*
G01*
X93449000Y-52351000D01*
X93449000Y-50249000D01*
X96151000Y-50249000D01*
X96151000Y-52351000D01*
X96151000Y-52351000D01*
G37*
G36*
X95203097Y-47714069D02*
G01*
X95306032Y-47724207D01*
X95504146Y-47784305D01*
X95504149Y-47784306D01*
X95600975Y-47836061D01*
X95686729Y-47881897D01*
X95846765Y-48013235D01*
X95978103Y-48173271D01*
X96023939Y-48259025D01*
X96075694Y-48355851D01*
X96075695Y-48355854D01*
X96135793Y-48553968D01*
X96156085Y-48760000D01*
X96135793Y-48966032D01*
X96075695Y-49164146D01*
X96075694Y-49164149D01*
X96023939Y-49260975D01*
X95978103Y-49346729D01*
X95846765Y-49506765D01*
X95686729Y-49638103D01*
X95600975Y-49683939D01*
X95504149Y-49735694D01*
X95504146Y-49735695D01*
X95306032Y-49795793D01*
X95203097Y-49805931D01*
X95151631Y-49811000D01*
X94448369Y-49811000D01*
X94396903Y-49805931D01*
X94293968Y-49795793D01*
X94095854Y-49735695D01*
X94095851Y-49735694D01*
X93999025Y-49683939D01*
X93913271Y-49638103D01*
X93753235Y-49506765D01*
X93621897Y-49346729D01*
X93576061Y-49260975D01*
X93524306Y-49164149D01*
X93524305Y-49164146D01*
X93464207Y-48966032D01*
X93443915Y-48760000D01*
X93464207Y-48553968D01*
X93524305Y-48355854D01*
X93524306Y-48355851D01*
X93576061Y-48259025D01*
X93621897Y-48173271D01*
X93753235Y-48013235D01*
X93913271Y-47881897D01*
X93999025Y-47836061D01*
X94095851Y-47784306D01*
X94095854Y-47784305D01*
X94293968Y-47724207D01*
X94396903Y-47714069D01*
X94448369Y-47709000D01*
X95151631Y-47709000D01*
X95203097Y-47714069D01*
X95203097Y-47714069D01*
G37*
G36*
X95203097Y-45174069D02*
G01*
X95306032Y-45184207D01*
X95504146Y-45244305D01*
X95504149Y-45244306D01*
X95600975Y-45296061D01*
X95686729Y-45341897D01*
X95846765Y-45473235D01*
X95978103Y-45633271D01*
X96023939Y-45719025D01*
X96075694Y-45815851D01*
X96075695Y-45815854D01*
X96135793Y-46013968D01*
X96156085Y-46220000D01*
X96135793Y-46426032D01*
X96075695Y-46624146D01*
X96075694Y-46624149D01*
X96023939Y-46720975D01*
X95978103Y-46806729D01*
X95846765Y-46966765D01*
X95686729Y-47098103D01*
X95600975Y-47143939D01*
X95504149Y-47195694D01*
X95504146Y-47195695D01*
X95306032Y-47255793D01*
X95203097Y-47265931D01*
X95151631Y-47271000D01*
X94448369Y-47271000D01*
X94396903Y-47265931D01*
X94293968Y-47255793D01*
X94095854Y-47195695D01*
X94095851Y-47195694D01*
X93999025Y-47143939D01*
X93913271Y-47098103D01*
X93753235Y-46966765D01*
X93621897Y-46806729D01*
X93576061Y-46720975D01*
X93524306Y-46624149D01*
X93524305Y-46624146D01*
X93464207Y-46426032D01*
X93443915Y-46220000D01*
X93464207Y-46013968D01*
X93524305Y-45815854D01*
X93524306Y-45815851D01*
X93576061Y-45719025D01*
X93621897Y-45633271D01*
X93753235Y-45473235D01*
X93913271Y-45341897D01*
X93999025Y-45296061D01*
X94095851Y-45244306D01*
X94095854Y-45244305D01*
X94293968Y-45184207D01*
X94396903Y-45174069D01*
X94448369Y-45169000D01*
X95151631Y-45169000D01*
X95203097Y-45174069D01*
X95203097Y-45174069D01*
G37*
G36*
X95203097Y-42634069D02*
G01*
X95306032Y-42644207D01*
X95504146Y-42704305D01*
X95504149Y-42704306D01*
X95600975Y-42756061D01*
X95686729Y-42801897D01*
X95846765Y-42933235D01*
X95978103Y-43093271D01*
X96023939Y-43179025D01*
X96075694Y-43275851D01*
X96075695Y-43275854D01*
X96135793Y-43473968D01*
X96156085Y-43680000D01*
X96135793Y-43886032D01*
X96075695Y-44084146D01*
X96075694Y-44084149D01*
X96023939Y-44180975D01*
X95978103Y-44266729D01*
X95846765Y-44426765D01*
X95686729Y-44558103D01*
X95600975Y-44603939D01*
X95504149Y-44655694D01*
X95504146Y-44655695D01*
X95306032Y-44715793D01*
X95203097Y-44725931D01*
X95151631Y-44731000D01*
X94448369Y-44731000D01*
X94396903Y-44725931D01*
X94293968Y-44715793D01*
X94095854Y-44655695D01*
X94095851Y-44655694D01*
X93999025Y-44603939D01*
X93913271Y-44558103D01*
X93753235Y-44426765D01*
X93621897Y-44266729D01*
X93576061Y-44180975D01*
X93524306Y-44084149D01*
X93524305Y-44084146D01*
X93464207Y-43886032D01*
X93443915Y-43680000D01*
X93464207Y-43473968D01*
X93524305Y-43275854D01*
X93524306Y-43275851D01*
X93576061Y-43179025D01*
X93621897Y-43093271D01*
X93753235Y-42933235D01*
X93913271Y-42801897D01*
X93999025Y-42756061D01*
X94095851Y-42704306D01*
X94095854Y-42704305D01*
X94293968Y-42644207D01*
X94396903Y-42634069D01*
X94448369Y-42629000D01*
X95151631Y-42629000D01*
X95203097Y-42634069D01*
X95203097Y-42634069D01*
G37*
G36*
X5979487Y-40948996D02*
G01*
X6216253Y-41047068D01*
X6216255Y-41047069D01*
X6355336Y-41140000D01*
X6429339Y-41189447D01*
X6610553Y-41370661D01*
X6752932Y-41583747D01*
X6851004Y-41820513D01*
X6901000Y-42071861D01*
X6901000Y-42328139D01*
X6851004Y-42579487D01*
X6799302Y-42704306D01*
X6752931Y-42816255D01*
X6610553Y-43029339D01*
X6429339Y-43210553D01*
X6216255Y-43352931D01*
X6216254Y-43352932D01*
X6216253Y-43352932D01*
X5979487Y-43451004D01*
X5728139Y-43501000D01*
X5471861Y-43501000D01*
X5220513Y-43451004D01*
X4983747Y-43352932D01*
X4983746Y-43352932D01*
X4983745Y-43352931D01*
X4770661Y-43210553D01*
X4589447Y-43029339D01*
X4447069Y-42816255D01*
X4400698Y-42704306D01*
X4348996Y-42579487D01*
X4299000Y-42328139D01*
X4299000Y-42071861D01*
X4348996Y-41820513D01*
X4447068Y-41583747D01*
X4589447Y-41370661D01*
X4770661Y-41189447D01*
X4844664Y-41140000D01*
X4983745Y-41047069D01*
X4983747Y-41047068D01*
X5220513Y-40948996D01*
X5471861Y-40899000D01*
X5728139Y-40899000D01*
X5979487Y-40948996D01*
X5979487Y-40948996D01*
G37*
G36*
X95203097Y-40094069D02*
G01*
X95306032Y-40104207D01*
X95504146Y-40164305D01*
X95504149Y-40164306D01*
X95600975Y-40216061D01*
X95686729Y-40261897D01*
X95846765Y-40393235D01*
X95978103Y-40553271D01*
X96023939Y-40639025D01*
X96075694Y-40735851D01*
X96075695Y-40735854D01*
X96135793Y-40933968D01*
X96156085Y-41140000D01*
X96135793Y-41346032D01*
X96075695Y-41544146D01*
X96075694Y-41544149D01*
X96054529Y-41583745D01*
X95978103Y-41726729D01*
X95846765Y-41886765D01*
X95686729Y-42018103D01*
X95600975Y-42063939D01*
X95504149Y-42115694D01*
X95504146Y-42115695D01*
X95306032Y-42175793D01*
X95203097Y-42185931D01*
X95151631Y-42191000D01*
X94448369Y-42191000D01*
X94396903Y-42185931D01*
X94293968Y-42175793D01*
X94095854Y-42115695D01*
X94095851Y-42115694D01*
X93999025Y-42063939D01*
X93913271Y-42018103D01*
X93753235Y-41886765D01*
X93621897Y-41726729D01*
X93545471Y-41583745D01*
X93524306Y-41544149D01*
X93524305Y-41544146D01*
X93464207Y-41346032D01*
X93443915Y-41140000D01*
X93464207Y-40933968D01*
X93524305Y-40735854D01*
X93524306Y-40735851D01*
X93576061Y-40639025D01*
X93621897Y-40553271D01*
X93753235Y-40393235D01*
X93913271Y-40261897D01*
X93999025Y-40216061D01*
X94095851Y-40164306D01*
X94095854Y-40164305D01*
X94293968Y-40104207D01*
X94396903Y-40094069D01*
X94448369Y-40089000D01*
X95151631Y-40089000D01*
X95203097Y-40094069D01*
X95203097Y-40094069D01*
G37*
G36*
X6901000Y-38501000D02*
G01*
X4299000Y-38501000D01*
X4299000Y-35899000D01*
X6901000Y-35899000D01*
X6901000Y-38501000D01*
X6901000Y-38501000D01*
G37*
G36*
X5979487Y-28098996D02*
G01*
X6216253Y-28197068D01*
X6216255Y-28197069D01*
X6429339Y-28339447D01*
X6610553Y-28520661D01*
X6752932Y-28733747D01*
X6851004Y-28970513D01*
X6901000Y-29221861D01*
X6901000Y-29478139D01*
X6851004Y-29729487D01*
X6752932Y-29966253D01*
X6752931Y-29966255D01*
X6610553Y-30179339D01*
X6429339Y-30360553D01*
X6216255Y-30502931D01*
X6216254Y-30502932D01*
X6216253Y-30502932D01*
X5979487Y-30601004D01*
X5728139Y-30651000D01*
X5471861Y-30651000D01*
X5220513Y-30601004D01*
X4983747Y-30502932D01*
X4983746Y-30502932D01*
X4983745Y-30502931D01*
X4770661Y-30360553D01*
X4589447Y-30179339D01*
X4447069Y-29966255D01*
X4447068Y-29966253D01*
X4348996Y-29729487D01*
X4299000Y-29478139D01*
X4299000Y-29221861D01*
X4348996Y-28970513D01*
X4447068Y-28733747D01*
X4589447Y-28520661D01*
X4770661Y-28339447D01*
X4983745Y-28197069D01*
X4983747Y-28197068D01*
X5220513Y-28098996D01*
X5471861Y-28049000D01*
X5728139Y-28049000D01*
X5979487Y-28098996D01*
X5979487Y-28098996D01*
G37*
G36*
X6901000Y-25651000D02*
G01*
X4299000Y-25651000D01*
X4299000Y-23049000D01*
X6901000Y-23049000D01*
X6901000Y-25651000D01*
X6901000Y-25651000D01*
G37*
G36*
X92877000Y-21151000D02*
G01*
X91125000Y-21151000D01*
X91125000Y-18649000D01*
X92877000Y-18649000D01*
X92877000Y-21151000D01*
X92877000Y-21151000D01*
G37*
G36*
X5979487Y-15098996D02*
G01*
X6216253Y-15197068D01*
X6216255Y-15197069D01*
X6429339Y-15339447D01*
X6610553Y-15520661D01*
X6752932Y-15733747D01*
X6851004Y-15970513D01*
X6901000Y-16221861D01*
X6901000Y-16478139D01*
X6851004Y-16729487D01*
X6752932Y-16966253D01*
X6752931Y-16966255D01*
X6610553Y-17179339D01*
X6429339Y-17360553D01*
X6216255Y-17502931D01*
X6216254Y-17502932D01*
X6216253Y-17502932D01*
X5979487Y-17601004D01*
X5728139Y-17651000D01*
X5471861Y-17651000D01*
X5220513Y-17601004D01*
X4983747Y-17502932D01*
X4983746Y-17502932D01*
X4983745Y-17502931D01*
X4770661Y-17360553D01*
X4589447Y-17179339D01*
X4447069Y-16966255D01*
X4447068Y-16966253D01*
X4348996Y-16729487D01*
X4299000Y-16478139D01*
X4299000Y-16221861D01*
X4348996Y-15970513D01*
X4447068Y-15733747D01*
X4589447Y-15520661D01*
X4770661Y-15339447D01*
X4983745Y-15197069D01*
X4983747Y-15197068D01*
X5220513Y-15098996D01*
X5471861Y-15049000D01*
X5728139Y-15049000D01*
X5979487Y-15098996D01*
X5979487Y-15098996D01*
G37*
G36*
X63065985Y-13210802D02*
G01*
X63215810Y-13240604D01*
X63498074Y-13357521D01*
X63752105Y-13527259D01*
X63968141Y-13743295D01*
X64137879Y-13997326D01*
X64254796Y-14279590D01*
X64314400Y-14579240D01*
X64314400Y-14884760D01*
X64254796Y-15184410D01*
X64137879Y-15466674D01*
X63968141Y-15720705D01*
X63752105Y-15936741D01*
X63498074Y-16106479D01*
X63215810Y-16223396D01*
X63065985Y-16253198D01*
X62916161Y-16283000D01*
X62610639Y-16283000D01*
X62460815Y-16253198D01*
X62310990Y-16223396D01*
X62028726Y-16106479D01*
X61774695Y-15936741D01*
X61558659Y-15720705D01*
X61388921Y-15466674D01*
X61272004Y-15184410D01*
X61212400Y-14884760D01*
X61212400Y-14579240D01*
X61272004Y-14279590D01*
X61388921Y-13997326D01*
X61558659Y-13743295D01*
X61774695Y-13527259D01*
X62028726Y-13357521D01*
X62310990Y-13240604D01*
X62460815Y-13210802D01*
X62610639Y-13181000D01*
X62916161Y-13181000D01*
X63065985Y-13210802D01*
X63065985Y-13210802D01*
G37*
G36*
X56487385Y-13210802D02*
G01*
X56637210Y-13240604D01*
X56919474Y-13357521D01*
X57173505Y-13527259D01*
X57389541Y-13743295D01*
X57559279Y-13997326D01*
X57676196Y-14279590D01*
X57735800Y-14579240D01*
X57735800Y-14884760D01*
X57676196Y-15184410D01*
X57559279Y-15466674D01*
X57389541Y-15720705D01*
X57173505Y-15936741D01*
X56919474Y-16106479D01*
X56637210Y-16223396D01*
X56487385Y-16253198D01*
X56337561Y-16283000D01*
X56032039Y-16283000D01*
X55882215Y-16253198D01*
X55732390Y-16223396D01*
X55450126Y-16106479D01*
X55196095Y-15936741D01*
X54980059Y-15720705D01*
X54810321Y-15466674D01*
X54693404Y-15184410D01*
X54633800Y-14884760D01*
X54633800Y-14579240D01*
X54693404Y-14279590D01*
X54810321Y-13997326D01*
X54980059Y-13743295D01*
X55196095Y-13527259D01*
X55450126Y-13357521D01*
X55732390Y-13240604D01*
X55882215Y-13210802D01*
X56032039Y-13181000D01*
X56337561Y-13181000D01*
X56487385Y-13210802D01*
X56487385Y-13210802D01*
G37*
G36*
X97813185Y-9705602D02*
G01*
X97963010Y-9735404D01*
X98245274Y-9852321D01*
X98499305Y-10022059D01*
X98715341Y-10238095D01*
X98885079Y-10492126D01*
X99001996Y-10774390D01*
X99061600Y-11074040D01*
X99061600Y-11379560D01*
X99001996Y-11679210D01*
X98885079Y-11961474D01*
X98715341Y-12215505D01*
X98499305Y-12431541D01*
X98245274Y-12601279D01*
X97963010Y-12718196D01*
X97813185Y-12747998D01*
X97663361Y-12777800D01*
X97357839Y-12777800D01*
X97208015Y-12747998D01*
X97058190Y-12718196D01*
X96775926Y-12601279D01*
X96521895Y-12431541D01*
X96305859Y-12215505D01*
X96136121Y-11961474D01*
X96019204Y-11679210D01*
X95959600Y-11379560D01*
X95959600Y-11074040D01*
X96019204Y-10774390D01*
X96136121Y-10492126D01*
X96305859Y-10238095D01*
X96521895Y-10022059D01*
X96775926Y-9852321D01*
X97058190Y-9735404D01*
X97208015Y-9705602D01*
X97357839Y-9675800D01*
X97663361Y-9675800D01*
X97813185Y-9705602D01*
X97813185Y-9705602D01*
G37*
G36*
X6901000Y-12651000D02*
G01*
X4299000Y-12651000D01*
X4299000Y-10049000D01*
X6901000Y-10049000D01*
X6901000Y-12651000D01*
X6901000Y-12651000D01*
G37*
G36*
X5536694Y-2301860D02*
G01*
X5802437Y-2354719D01*
X6303087Y-2562095D01*
X6483561Y-2682684D01*
X6753660Y-2863158D01*
X7136842Y-3246340D01*
X7317316Y-3516439D01*
X7437905Y-3696913D01*
X7571363Y-4019109D01*
X7645281Y-4197564D01*
X7751000Y-4729049D01*
X7751000Y-5270951D01*
X7715186Y-5451000D01*
X7645281Y-5802437D01*
X7437905Y-6303087D01*
X7369120Y-6406031D01*
X7136842Y-6753660D01*
X6753660Y-7136842D01*
X6490774Y-7312496D01*
X6303087Y-7437905D01*
X5802437Y-7645281D01*
X5536694Y-7698140D01*
X5270951Y-7751000D01*
X4729049Y-7751000D01*
X4463306Y-7698140D01*
X4197563Y-7645281D01*
X3696913Y-7437905D01*
X3509226Y-7312496D01*
X3246340Y-7136842D01*
X2863158Y-6753660D01*
X2630880Y-6406031D01*
X2562095Y-6303087D01*
X2354719Y-5802437D01*
X2284814Y-5451000D01*
X2249000Y-5270951D01*
X2249000Y-4729049D01*
X2354719Y-4197564D01*
X2428637Y-4019109D01*
X2562095Y-3696913D01*
X2682684Y-3516439D01*
X2863158Y-3246340D01*
X3246340Y-2863158D01*
X3516439Y-2682684D01*
X3696913Y-2562095D01*
X4197563Y-2354719D01*
X4463306Y-2301860D01*
X4729049Y-2249000D01*
X5270951Y-2249000D01*
X5536694Y-2301860D01*
X5536694Y-2301860D01*
G37*
G36*
X95536694Y-2301860D02*
G01*
X95802437Y-2354719D01*
X96303087Y-2562095D01*
X96483561Y-2682684D01*
X96753660Y-2863158D01*
X97136842Y-3246340D01*
X97317316Y-3516439D01*
X97437905Y-3696913D01*
X97571363Y-4019109D01*
X97645281Y-4197564D01*
X97751000Y-4729049D01*
X97751000Y-5270951D01*
X97715186Y-5451000D01*
X97645281Y-5802437D01*
X97437905Y-6303087D01*
X97369120Y-6406031D01*
X97136842Y-6753660D01*
X96753660Y-7136842D01*
X96490774Y-7312496D01*
X96303087Y-7437905D01*
X95802437Y-7645281D01*
X95536694Y-7698140D01*
X95270951Y-7751000D01*
X94729049Y-7751000D01*
X94463306Y-7698140D01*
X94197563Y-7645281D01*
X93696913Y-7437905D01*
X93509226Y-7312496D01*
X93246340Y-7136842D01*
X92863158Y-6753660D01*
X92630880Y-6406031D01*
X92562095Y-6303087D01*
X92354719Y-5802437D01*
X92284814Y-5451000D01*
X92249000Y-5270951D01*
X92249000Y-4729049D01*
X92354719Y-4197564D01*
X92428637Y-4019109D01*
X92562095Y-3696913D01*
X92682684Y-3516439D01*
X92863158Y-3246340D01*
X93246340Y-2863158D01*
X93516439Y-2682684D01*
X93696913Y-2562095D01*
X94197563Y-2354719D01*
X94463306Y-2301860D01*
X94729049Y-2249000D01*
X95270951Y-2249000D01*
X95536694Y-2301860D01*
X95536694Y-2301860D01*
G37*
G36*
X87066032Y-4564207D02*
G01*
X87264146Y-4624305D01*
X87264149Y-4624306D01*
X87311631Y-4649686D01*
X87446729Y-4721897D01*
X87606765Y-4853235D01*
X87738103Y-5013271D01*
X87754752Y-5044420D01*
X87835694Y-5195851D01*
X87835695Y-5195855D01*
X87895793Y-5393969D01*
X87911000Y-5548371D01*
X87911000Y-6251630D01*
X87895793Y-6406032D01*
X87848042Y-6563443D01*
X87835694Y-6604149D01*
X87797991Y-6674686D01*
X87738103Y-6786729D01*
X87606765Y-6946765D01*
X87446729Y-7078103D01*
X87336835Y-7136842D01*
X87264148Y-7175694D01*
X87264145Y-7175695D01*
X87066031Y-7235793D01*
X86860000Y-7256085D01*
X86653968Y-7235793D01*
X86455854Y-7175695D01*
X86455851Y-7175694D01*
X86359025Y-7123939D01*
X86273271Y-7078103D01*
X86113235Y-6946765D01*
X85981897Y-6786729D01*
X85884307Y-6604149D01*
X85884306Y-6604148D01*
X85880418Y-6591332D01*
X85824207Y-6406031D01*
X85809000Y-6251629D01*
X85809000Y-5548370D01*
X85824207Y-5393968D01*
X85843296Y-5331040D01*
X85884305Y-5195853D01*
X85965249Y-5044420D01*
X85981898Y-5013271D01*
X86113236Y-4853235D01*
X86273272Y-4721897D01*
X86408370Y-4649686D01*
X86455852Y-4624306D01*
X86455855Y-4624305D01*
X86653969Y-4564207D01*
X86860000Y-4543915D01*
X87066032Y-4564207D01*
X87066032Y-4564207D01*
G37*
G36*
X80466032Y-4564207D02*
G01*
X80664146Y-4624305D01*
X80664149Y-4624306D01*
X80711631Y-4649686D01*
X80846729Y-4721897D01*
X81006765Y-4853235D01*
X81138103Y-5013271D01*
X81154752Y-5044420D01*
X81235694Y-5195851D01*
X81235695Y-5195855D01*
X81295793Y-5393969D01*
X81311000Y-5548371D01*
X81311000Y-6251630D01*
X81295793Y-6406032D01*
X81248042Y-6563443D01*
X81235694Y-6604149D01*
X81197991Y-6674686D01*
X81138103Y-6786729D01*
X81006765Y-6946765D01*
X80846729Y-7078103D01*
X80736835Y-7136842D01*
X80664148Y-7175694D01*
X80664145Y-7175695D01*
X80466031Y-7235793D01*
X80260000Y-7256085D01*
X80053968Y-7235793D01*
X79855854Y-7175695D01*
X79855851Y-7175694D01*
X79759025Y-7123939D01*
X79673271Y-7078103D01*
X79513235Y-6946765D01*
X79381897Y-6786729D01*
X79284307Y-6604149D01*
X79284306Y-6604148D01*
X79280418Y-6591332D01*
X79224207Y-6406031D01*
X79209000Y-6251629D01*
X79209000Y-5548370D01*
X79224207Y-5393968D01*
X79243296Y-5331040D01*
X79284305Y-5195853D01*
X79365249Y-5044420D01*
X79381898Y-5013271D01*
X79513236Y-4853235D01*
X79673272Y-4721897D01*
X79808370Y-4649686D01*
X79855852Y-4624306D01*
X79855855Y-4624305D01*
X80053969Y-4564207D01*
X80260000Y-4543915D01*
X80466032Y-4564207D01*
X80466032Y-4564207D01*
G37*
G36*
X73766032Y-4564207D02*
G01*
X73964146Y-4624305D01*
X73964149Y-4624306D01*
X74011631Y-4649686D01*
X74146729Y-4721897D01*
X74306765Y-4853235D01*
X74438103Y-5013271D01*
X74454752Y-5044420D01*
X74535694Y-5195851D01*
X74535695Y-5195855D01*
X74595793Y-5393969D01*
X74611000Y-5548371D01*
X74611000Y-6251630D01*
X74595793Y-6406032D01*
X74548042Y-6563443D01*
X74535694Y-6604149D01*
X74497991Y-6674686D01*
X74438103Y-6786729D01*
X74306765Y-6946765D01*
X74146729Y-7078103D01*
X74036835Y-7136842D01*
X73964148Y-7175694D01*
X73964145Y-7175695D01*
X73766031Y-7235793D01*
X73560000Y-7256085D01*
X73353968Y-7235793D01*
X73155854Y-7175695D01*
X73155851Y-7175694D01*
X73059025Y-7123939D01*
X72973271Y-7078103D01*
X72813235Y-6946765D01*
X72681897Y-6786729D01*
X72584307Y-6604149D01*
X72584306Y-6604148D01*
X72580418Y-6591332D01*
X72524207Y-6406031D01*
X72509000Y-6251629D01*
X72509000Y-5548370D01*
X72524207Y-5393968D01*
X72543296Y-5331040D01*
X72584305Y-5195853D01*
X72665249Y-5044420D01*
X72681898Y-5013271D01*
X72813236Y-4853235D01*
X72973272Y-4721897D01*
X73108370Y-4649686D01*
X73155852Y-4624306D01*
X73155855Y-4624305D01*
X73353969Y-4564207D01*
X73560000Y-4543915D01*
X73766032Y-4564207D01*
X73766032Y-4564207D01*
G37*
G36*
X66916032Y-4564207D02*
G01*
X67114146Y-4624305D01*
X67114149Y-4624306D01*
X67161631Y-4649686D01*
X67296729Y-4721897D01*
X67456765Y-4853235D01*
X67588103Y-5013271D01*
X67604752Y-5044420D01*
X67685694Y-5195851D01*
X67685695Y-5195855D01*
X67745793Y-5393969D01*
X67761000Y-5548371D01*
X67761000Y-6251630D01*
X67745793Y-6406032D01*
X67698042Y-6563443D01*
X67685694Y-6604149D01*
X67647991Y-6674686D01*
X67588103Y-6786729D01*
X67456765Y-6946765D01*
X67296729Y-7078103D01*
X67186835Y-7136842D01*
X67114148Y-7175694D01*
X67114145Y-7175695D01*
X66916031Y-7235793D01*
X66710000Y-7256085D01*
X66503968Y-7235793D01*
X66305854Y-7175695D01*
X66305851Y-7175694D01*
X66209025Y-7123939D01*
X66123271Y-7078103D01*
X65963235Y-6946765D01*
X65831897Y-6786729D01*
X65734307Y-6604149D01*
X65734306Y-6604148D01*
X65730418Y-6591332D01*
X65674207Y-6406031D01*
X65659000Y-6251629D01*
X65659000Y-5548370D01*
X65674207Y-5393968D01*
X65693296Y-5331040D01*
X65734305Y-5195853D01*
X65815249Y-5044420D01*
X65831898Y-5013271D01*
X65963236Y-4853235D01*
X66123272Y-4721897D01*
X66258370Y-4649686D01*
X66305852Y-4624306D01*
X66305855Y-4624305D01*
X66503969Y-4564207D01*
X66710000Y-4543915D01*
X66916032Y-4564207D01*
X66916032Y-4564207D01*
G37*
G36*
X70301000Y-7251000D02*
G01*
X68199000Y-7251000D01*
X68199000Y-4549000D01*
X70301000Y-4549000D01*
X70301000Y-7251000D01*
X70301000Y-7251000D01*
G37*
G36*
X90451000Y-7251000D02*
G01*
X88349000Y-7251000D01*
X88349000Y-4549000D01*
X90451000Y-4549000D01*
X90451000Y-7251000D01*
X90451000Y-7251000D01*
G37*
G36*
X83851000Y-7251000D02*
G01*
X81749000Y-7251000D01*
X81749000Y-4549000D01*
X83851000Y-4549000D01*
X83851000Y-7251000D01*
X83851000Y-7251000D01*
G37*
G36*
X77151000Y-7251000D02*
G01*
X75049000Y-7251000D01*
X75049000Y-4549000D01*
X77151000Y-4549000D01*
X77151000Y-7251000D01*
X77151000Y-7251000D01*
G37*
M02*
