G04 #@! TF.GenerationSoftware,KiCad,Pcbnew,(5.1.0-1152-gc9ccd8a64)*
G04 #@! TF.CreationDate,2019-07-22T10:42:35-04:00*
G04 #@! TF.ProjectId,BMS-Master,424d532d-4d61-4737-9465-722e6b696361,V0.2*
G04 #@! TF.SameCoordinates,Original*
G04 #@! TF.FileFunction,Legend,Bot*
G04 #@! TF.FilePolarity,Positive*
%FSLAX46Y46*%
G04 Gerber Fmt 4.6, Leading zero omitted, Abs format (unit mm)*
G04 Created by KiCad (PCBNEW (5.1.0-1152-gc9ccd8a64)) date 2019-07-22 10:42:35*
%MOMM*%
%LPD*%
G04 APERTURE LIST*
%ADD10C,0.300000*%
%ADD11C,0.010000*%
G04 APERTURE END LIST*
D10*
X79347857Y-50003571D02*
X79347857Y-48503571D01*
X78847857Y-49575000D01*
X78347857Y-48503571D01*
X78347857Y-50003571D01*
X76990714Y-50003571D02*
X76990714Y-49217857D01*
X77062142Y-49075000D01*
X77205000Y-49003571D01*
X77490714Y-49003571D01*
X77633571Y-49075000D01*
X76990714Y-49932142D02*
X77133571Y-50003571D01*
X77490714Y-50003571D01*
X77633571Y-49932142D01*
X77705000Y-49789285D01*
X77705000Y-49646428D01*
X77633571Y-49503571D01*
X77490714Y-49432142D01*
X77133571Y-49432142D01*
X76990714Y-49360714D01*
X76347857Y-49932142D02*
X76205000Y-50003571D01*
X75919285Y-50003571D01*
X75776428Y-49932142D01*
X75705000Y-49789285D01*
X75705000Y-49717857D01*
X75776428Y-49575000D01*
X75919285Y-49503571D01*
X76133571Y-49503571D01*
X76276428Y-49432142D01*
X76347857Y-49289285D01*
X76347857Y-49217857D01*
X76276428Y-49075000D01*
X76133571Y-49003571D01*
X75919285Y-49003571D01*
X75776428Y-49075000D01*
X75276428Y-49003571D02*
X74705000Y-49003571D01*
X75062142Y-48503571D02*
X75062142Y-49789285D01*
X74990714Y-49932142D01*
X74847857Y-50003571D01*
X74705000Y-50003571D01*
X73633571Y-49932142D02*
X73776428Y-50003571D01*
X74062142Y-50003571D01*
X74205000Y-49932142D01*
X74276428Y-49789285D01*
X74276428Y-49217857D01*
X74205000Y-49075000D01*
X74062142Y-49003571D01*
X73776428Y-49003571D01*
X73633571Y-49075000D01*
X73562142Y-49217857D01*
X73562142Y-49360714D01*
X74276428Y-49503571D01*
X72919285Y-50003571D02*
X72919285Y-49003571D01*
X72919285Y-49289285D02*
X72847857Y-49146428D01*
X72776428Y-49075000D01*
X72633571Y-49003571D01*
X72490714Y-49003571D01*
X70847857Y-49432142D02*
X69705000Y-49432142D01*
X67562142Y-48503571D02*
X67419285Y-48503571D01*
X67276428Y-48575000D01*
X67205000Y-48646428D01*
X67133571Y-48789285D01*
X67062142Y-49075000D01*
X67062142Y-49432142D01*
X67133571Y-49717857D01*
X67205000Y-49860714D01*
X67276428Y-49932142D01*
X67419285Y-50003571D01*
X67562142Y-50003571D01*
X67705000Y-49932142D01*
X67776428Y-49860714D01*
X67847857Y-49717857D01*
X67919285Y-49432142D01*
X67919285Y-49075000D01*
X67847857Y-48789285D01*
X67776428Y-48646428D01*
X67705000Y-48575000D01*
X67562142Y-48503571D01*
X66562142Y-48503571D02*
X65562142Y-48503571D01*
X66205000Y-50003571D01*
X63919285Y-48432142D02*
X65205000Y-50360714D01*
X63490714Y-48646428D02*
X63419285Y-48575000D01*
X63276428Y-48503571D01*
X62919285Y-48503571D01*
X62776428Y-48575000D01*
X62705000Y-48646428D01*
X62633571Y-48789285D01*
X62633571Y-48932142D01*
X62705000Y-49146428D01*
X63562142Y-50003571D01*
X62633571Y-50003571D01*
X61705000Y-48503571D02*
X61562142Y-48503571D01*
X61419285Y-48575000D01*
X61347857Y-48646428D01*
X61276428Y-48789285D01*
X61205000Y-49075000D01*
X61205000Y-49432142D01*
X61276428Y-49717857D01*
X61347857Y-49860714D01*
X61419285Y-49932142D01*
X61562142Y-50003571D01*
X61705000Y-50003571D01*
X61847857Y-49932142D01*
X61919285Y-49860714D01*
X61990714Y-49717857D01*
X62062142Y-49432142D01*
X62062142Y-49075000D01*
X61990714Y-48789285D01*
X61919285Y-48646428D01*
X61847857Y-48575000D01*
X61705000Y-48503571D01*
X59776428Y-50003571D02*
X60633571Y-50003571D01*
X60205000Y-50003571D02*
X60205000Y-48503571D01*
X60347857Y-48717857D01*
X60490714Y-48860714D01*
X60633571Y-48932142D01*
X59062142Y-50003571D02*
X58776428Y-50003571D01*
X58633571Y-49932142D01*
X58562142Y-49860714D01*
X58419285Y-49646428D01*
X58347857Y-49360714D01*
X58347857Y-48789285D01*
X58419285Y-48646428D01*
X58490714Y-48575000D01*
X58633571Y-48503571D01*
X58919285Y-48503571D01*
X59062142Y-48575000D01*
X59133571Y-48646428D01*
X59205000Y-48789285D01*
X59205000Y-49146428D01*
X59133571Y-49289285D01*
X59062142Y-49360714D01*
X58919285Y-49432142D01*
X58633571Y-49432142D01*
X58490714Y-49360714D01*
X58419285Y-49289285D01*
X58347857Y-49146428D01*
X79347857Y-52553571D02*
X79347857Y-51053571D01*
X78705000Y-52553571D02*
X78705000Y-51767857D01*
X78776428Y-51625000D01*
X78919285Y-51553571D01*
X79133571Y-51553571D01*
X79276428Y-51625000D01*
X79347857Y-51696428D01*
X78205000Y-51553571D02*
X77633571Y-51553571D01*
X77990714Y-51053571D02*
X77990714Y-52339285D01*
X77919285Y-52482142D01*
X77776428Y-52553571D01*
X77633571Y-52553571D01*
X77347857Y-51553571D02*
X76776428Y-51553571D01*
X77133571Y-51053571D02*
X77133571Y-52339285D01*
X77062142Y-52482142D01*
X76919285Y-52553571D01*
X76776428Y-52553571D01*
X76276428Y-51553571D02*
X76276428Y-53053571D01*
X76276428Y-51625000D02*
X76133571Y-51553571D01*
X75847857Y-51553571D01*
X75705000Y-51625000D01*
X75633571Y-51696428D01*
X75562142Y-51839285D01*
X75562142Y-52267857D01*
X75633571Y-52410714D01*
X75705000Y-52482142D01*
X75847857Y-52553571D01*
X76133571Y-52553571D01*
X76276428Y-52482142D01*
X74990714Y-52482142D02*
X74847857Y-52553571D01*
X74562142Y-52553571D01*
X74419285Y-52482142D01*
X74347857Y-52339285D01*
X74347857Y-52267857D01*
X74419285Y-52125000D01*
X74562142Y-52053571D01*
X74776428Y-52053571D01*
X74919285Y-51982142D01*
X74990714Y-51839285D01*
X74990714Y-51767857D01*
X74919285Y-51625000D01*
X74776428Y-51553571D01*
X74562142Y-51553571D01*
X74419285Y-51625000D01*
X73705000Y-52410714D02*
X73633571Y-52482142D01*
X73705000Y-52553571D01*
X73776428Y-52482142D01*
X73705000Y-52410714D01*
X73705000Y-52553571D01*
X73705000Y-51625000D02*
X73633571Y-51696428D01*
X73705000Y-51767857D01*
X73776428Y-51696428D01*
X73705000Y-51625000D01*
X73705000Y-51767857D01*
X71919285Y-50982142D02*
X73205000Y-52910714D01*
X70347857Y-50982142D02*
X71633571Y-52910714D01*
X69204999Y-51553571D02*
X69204999Y-52767857D01*
X69276428Y-52910714D01*
X69347857Y-52982142D01*
X69490714Y-53053571D01*
X69704999Y-53053571D01*
X69847857Y-52982142D01*
X69204999Y-52482142D02*
X69347857Y-52553571D01*
X69633571Y-52553571D01*
X69776428Y-52482142D01*
X69847857Y-52410714D01*
X69919285Y-52267857D01*
X69919285Y-51839285D01*
X69847857Y-51696428D01*
X69776428Y-51625000D01*
X69633571Y-51553571D01*
X69347857Y-51553571D01*
X69204999Y-51625000D01*
X68490714Y-52553571D02*
X68490714Y-51553571D01*
X68490714Y-51053571D02*
X68562142Y-51125000D01*
X68490714Y-51196428D01*
X68419285Y-51125000D01*
X68490714Y-51053571D01*
X68490714Y-51196428D01*
X67990714Y-51553571D02*
X67419285Y-51553571D01*
X67776428Y-51053571D02*
X67776428Y-52339285D01*
X67704999Y-52482142D01*
X67562142Y-52553571D01*
X67419285Y-52553571D01*
X66919285Y-52553571D02*
X66919285Y-51053571D01*
X66276428Y-52553571D02*
X66276428Y-51767857D01*
X66347857Y-51625000D01*
X66490714Y-51553571D01*
X66704999Y-51553571D01*
X66847857Y-51625000D01*
X66919285Y-51696428D01*
X64919285Y-51553571D02*
X64919285Y-52553571D01*
X65562142Y-51553571D02*
X65562142Y-52339285D01*
X65490714Y-52482142D01*
X65347857Y-52553571D01*
X65133571Y-52553571D01*
X64990714Y-52482142D01*
X64919285Y-52410714D01*
X64204999Y-52553571D02*
X64204999Y-51053571D01*
X64204999Y-51625000D02*
X64062142Y-51553571D01*
X63776428Y-51553571D01*
X63633571Y-51625000D01*
X63562142Y-51696428D01*
X63490714Y-51839285D01*
X63490714Y-52267857D01*
X63562142Y-52410714D01*
X63633571Y-52482142D01*
X63776428Y-52553571D01*
X64062142Y-52553571D01*
X64204999Y-52482142D01*
X62847857Y-52410714D02*
X62776428Y-52482142D01*
X62847857Y-52553571D01*
X62919285Y-52482142D01*
X62847857Y-52410714D01*
X62847857Y-52553571D01*
X61490714Y-52482142D02*
X61633571Y-52553571D01*
X61919285Y-52553571D01*
X62062142Y-52482142D01*
X62133571Y-52410714D01*
X62204999Y-52267857D01*
X62204999Y-51839285D01*
X62133571Y-51696428D01*
X62062142Y-51625000D01*
X61919285Y-51553571D01*
X61633571Y-51553571D01*
X61490714Y-51625000D01*
X60633571Y-52553571D02*
X60776428Y-52482142D01*
X60847857Y-52410714D01*
X60919285Y-52267857D01*
X60919285Y-51839285D01*
X60847857Y-51696428D01*
X60776428Y-51625000D01*
X60633571Y-51553571D01*
X60419285Y-51553571D01*
X60276428Y-51625000D01*
X60204999Y-51696428D01*
X60133571Y-51839285D01*
X60133571Y-52267857D01*
X60204999Y-52410714D01*
X60276428Y-52482142D01*
X60419285Y-52553571D01*
X60633571Y-52553571D01*
X59490714Y-52553571D02*
X59490714Y-51553571D01*
X59490714Y-51696428D02*
X59419285Y-51625000D01*
X59276428Y-51553571D01*
X59062142Y-51553571D01*
X58919285Y-51625000D01*
X58847857Y-51767857D01*
X58847857Y-52553571D01*
X58847857Y-51767857D02*
X58776428Y-51625000D01*
X58633571Y-51553571D01*
X58419285Y-51553571D01*
X58276428Y-51625000D01*
X58204999Y-51767857D01*
X58204999Y-52553571D01*
X56419285Y-50982142D02*
X57704999Y-52910714D01*
X55919285Y-51767857D02*
X55419285Y-51767857D01*
X55204999Y-52553571D02*
X55919285Y-52553571D01*
X55919285Y-51053571D01*
X55204999Y-51053571D01*
X54562142Y-51553571D02*
X54562142Y-52553571D01*
X54562142Y-51696428D02*
X54490714Y-51625000D01*
X54347857Y-51553571D01*
X54133571Y-51553571D01*
X53990714Y-51625000D01*
X53919285Y-51767857D01*
X53919285Y-52553571D01*
X53204999Y-51553571D02*
X53204999Y-52553571D01*
X53204999Y-51696428D02*
X53133571Y-51625000D01*
X52990714Y-51553571D01*
X52776428Y-51553571D01*
X52633571Y-51625000D01*
X52562142Y-51767857D01*
X52562142Y-52553571D01*
X51633571Y-52553571D02*
X51776428Y-52482142D01*
X51847857Y-52410714D01*
X51919285Y-52267857D01*
X51919285Y-51839285D01*
X51847857Y-51696428D01*
X51776428Y-51625000D01*
X51633571Y-51553571D01*
X51419285Y-51553571D01*
X51276428Y-51625000D01*
X51204999Y-51696428D01*
X51133571Y-51839285D01*
X51133571Y-52267857D01*
X51204999Y-52410714D01*
X51276428Y-52482142D01*
X51419285Y-52553571D01*
X51633571Y-52553571D01*
X50490714Y-52553571D02*
X50490714Y-51553571D01*
X50490714Y-51053571D02*
X50562142Y-51125000D01*
X50490714Y-51196428D01*
X50419285Y-51125000D01*
X50490714Y-51053571D01*
X50490714Y-51196428D01*
X49133571Y-52553571D02*
X49133571Y-51053571D01*
X49133571Y-52482142D02*
X49276428Y-52553571D01*
X49562142Y-52553571D01*
X49704999Y-52482142D01*
X49776428Y-52410714D01*
X49847857Y-52267857D01*
X49847857Y-51839285D01*
X49776428Y-51696428D01*
X49704999Y-51625000D01*
X49562142Y-51553571D01*
X49276428Y-51553571D01*
X49133571Y-51625000D01*
X48419285Y-52553571D02*
X48419285Y-51053571D01*
X47919285Y-52125000D01*
X47419285Y-51053571D01*
X47419285Y-52553571D01*
X46133571Y-52482142D02*
X46276428Y-52553571D01*
X46562142Y-52553571D01*
X46704999Y-52482142D01*
X46776428Y-52339285D01*
X46776428Y-51767857D01*
X46704999Y-51625000D01*
X46562142Y-51553571D01*
X46276428Y-51553571D01*
X46133571Y-51625000D01*
X46062142Y-51767857D01*
X46062142Y-51910714D01*
X46776428Y-52053571D01*
X44347857Y-50982142D02*
X45633571Y-52910714D01*
X43847857Y-51767857D02*
X43347857Y-51767857D01*
X43133571Y-52553571D02*
X43847857Y-52553571D01*
X43847857Y-51053571D01*
X43133571Y-51053571D01*
X42490714Y-52553571D02*
X42490714Y-51053571D01*
X41633571Y-52553571D01*
X41633571Y-51053571D01*
X40919285Y-52553571D02*
X40919285Y-51053571D01*
X40062142Y-52553571D01*
X40062142Y-51053571D01*
X39062142Y-51053571D02*
X38776428Y-51053571D01*
X38633571Y-51125000D01*
X38490714Y-51267857D01*
X38419285Y-51553571D01*
X38419285Y-52053571D01*
X38490714Y-52339285D01*
X38633571Y-52482142D01*
X38776428Y-52553571D01*
X39062142Y-52553571D01*
X39204999Y-52482142D01*
X39347857Y-52339285D01*
X39419285Y-52053571D01*
X39419285Y-51553571D01*
X39347857Y-51267857D01*
X39204999Y-51125000D01*
X39062142Y-51053571D01*
X37776428Y-52553571D02*
X37776428Y-51053571D01*
X37062142Y-52553571D02*
X37062142Y-51053571D01*
X36704999Y-51053571D01*
X36490714Y-51125000D01*
X36347857Y-51267857D01*
X36276428Y-51410714D01*
X36204999Y-51696428D01*
X36204999Y-51910714D01*
X36276428Y-52196428D01*
X36347857Y-52339285D01*
X36490714Y-52482142D01*
X36704999Y-52553571D01*
X37062142Y-52553571D01*
X35562142Y-51982142D02*
X34419285Y-51982142D01*
X33204999Y-51767857D02*
X32990714Y-51839285D01*
X32919285Y-51910714D01*
X32847857Y-52053571D01*
X32847857Y-52267857D01*
X32919285Y-52410714D01*
X32990714Y-52482142D01*
X33133571Y-52553571D01*
X33704999Y-52553571D01*
X33704999Y-51053571D01*
X33204999Y-51053571D01*
X33062142Y-51125000D01*
X32990714Y-51196428D01*
X32919285Y-51339285D01*
X32919285Y-51482142D01*
X32990714Y-51625000D01*
X33062142Y-51696428D01*
X33204999Y-51767857D01*
X33704999Y-51767857D01*
X32204999Y-52553571D02*
X32204999Y-51053571D01*
X31704999Y-52125000D01*
X31204999Y-51053571D01*
X31204999Y-52553571D01*
X30562142Y-52482142D02*
X30347857Y-52553571D01*
X29990714Y-52553571D01*
X29847857Y-52482142D01*
X29776428Y-52410714D01*
X29704999Y-52267857D01*
X29704999Y-52125000D01*
X29776428Y-51982142D01*
X29847857Y-51910714D01*
X29990714Y-51839285D01*
X30276428Y-51767857D01*
X30419285Y-51696428D01*
X30490714Y-51625000D01*
X30562142Y-51482142D01*
X30562142Y-51339285D01*
X30490714Y-51196428D01*
X30419285Y-51125000D01*
X30276428Y-51053571D01*
X29919285Y-51053571D01*
X29704999Y-51125000D01*
D11*
G36*
X48164724Y-46360250D02*
G01*
X49512695Y-46360250D01*
X49512695Y-39012487D01*
X48164724Y-39012487D01*
X48164724Y-46360250D01*
X48164724Y-46360250D01*
G37*
X48164724Y-46360250D02*
X49512695Y-46360250D01*
X49512695Y-39012487D01*
X48164724Y-39012487D01*
X48164724Y-46360250D01*
G36*
X64295727Y-39243757D02*
G01*
X64076629Y-39491875D01*
X63843506Y-39767007D01*
X63593749Y-40072411D01*
X63324754Y-40411346D01*
X63033913Y-40787068D01*
X62718620Y-41202837D01*
X62573500Y-41396586D01*
X62448160Y-41565994D01*
X62308227Y-41757727D01*
X62157712Y-41966079D01*
X62000621Y-42185349D01*
X61840966Y-42409831D01*
X61682754Y-42633824D01*
X61529994Y-42851622D01*
X61386696Y-43057523D01*
X61256868Y-43245822D01*
X61144519Y-43410817D01*
X61053659Y-43546804D01*
X60988295Y-43648079D01*
X60970001Y-43677903D01*
X60891155Y-43809678D01*
X60884407Y-41411083D01*
X60877660Y-39012487D01*
X59529968Y-39012487D01*
X59529968Y-46360250D01*
X60680762Y-46360250D01*
X60797420Y-46168627D01*
X60978810Y-45874217D01*
X61184148Y-45547089D01*
X61406714Y-45197579D01*
X61639788Y-44836025D01*
X61876651Y-44472765D01*
X62110581Y-44118136D01*
X62334859Y-43782475D01*
X62542766Y-43476120D01*
X62631571Y-43347139D01*
X62737378Y-43196464D01*
X62865060Y-43018178D01*
X63009342Y-42819359D01*
X63164947Y-42607087D01*
X63326602Y-42388439D01*
X63489030Y-42170495D01*
X63646957Y-41960335D01*
X63795107Y-41765037D01*
X63928205Y-41591679D01*
X64040975Y-41447342D01*
X64126314Y-41341318D01*
X64287513Y-41146007D01*
X64287513Y-46360250D01*
X65635483Y-46360250D01*
X65635483Y-39012487D01*
X64504679Y-39012487D01*
X64295727Y-39243757D01*
X64295727Y-39243757D01*
G37*
X64295727Y-39243757D02*
X64076629Y-39491875D01*
X63843506Y-39767007D01*
X63593749Y-40072411D01*
X63324754Y-40411346D01*
X63033913Y-40787068D01*
X62718620Y-41202837D01*
X62573500Y-41396586D01*
X62448160Y-41565994D01*
X62308227Y-41757727D01*
X62157712Y-41966079D01*
X62000621Y-42185349D01*
X61840966Y-42409831D01*
X61682754Y-42633824D01*
X61529994Y-42851622D01*
X61386696Y-43057523D01*
X61256868Y-43245822D01*
X61144519Y-43410817D01*
X61053659Y-43546804D01*
X60988295Y-43648079D01*
X60970001Y-43677903D01*
X60891155Y-43809678D01*
X60884407Y-41411083D01*
X60877660Y-39012487D01*
X59529968Y-39012487D01*
X59529968Y-46360250D01*
X60680762Y-46360250D01*
X60797420Y-46168627D01*
X60978810Y-45874217D01*
X61184148Y-45547089D01*
X61406714Y-45197579D01*
X61639788Y-44836025D01*
X61876651Y-44472765D01*
X62110581Y-44118136D01*
X62334859Y-43782475D01*
X62542766Y-43476120D01*
X62631571Y-43347139D01*
X62737378Y-43196464D01*
X62865060Y-43018178D01*
X63009342Y-42819359D01*
X63164947Y-42607087D01*
X63326602Y-42388439D01*
X63489030Y-42170495D01*
X63646957Y-41960335D01*
X63795107Y-41765037D01*
X63928205Y-41591679D01*
X64040975Y-41447342D01*
X64126314Y-41341318D01*
X64287513Y-41146007D01*
X64287513Y-46360250D01*
X65635483Y-46360250D01*
X65635483Y-39012487D01*
X64504679Y-39012487D01*
X64295727Y-39243757D01*
G36*
X72025581Y-39362695D02*
G01*
X71739541Y-39696309D01*
X71431926Y-40070216D01*
X71107089Y-40478642D01*
X70769383Y-40915813D01*
X70423160Y-41375956D01*
X70072775Y-41853298D01*
X69722579Y-42342064D01*
X69376926Y-42836482D01*
X69092710Y-43252769D01*
X68701456Y-43832385D01*
X68701456Y-39012487D01*
X67353486Y-39012487D01*
X67353486Y-46360250D01*
X68517742Y-46360250D01*
X68589776Y-46239003D01*
X68662488Y-46118907D01*
X68759678Y-45961833D01*
X68876758Y-45774957D01*
X69009143Y-45565454D01*
X69152244Y-45340501D01*
X69301476Y-45107275D01*
X69452252Y-44872950D01*
X69599984Y-44644704D01*
X69740086Y-44429711D01*
X69867971Y-44235149D01*
X69939601Y-44127196D01*
X70339813Y-43536100D01*
X70736269Y-42968931D01*
X71124551Y-42431797D01*
X71500246Y-41930810D01*
X71857340Y-41474070D01*
X72097814Y-41173633D01*
X72104552Y-43766942D01*
X72111289Y-46360250D01*
X73459001Y-46360250D01*
X73459001Y-39012487D01*
X72333364Y-39012487D01*
X72025581Y-39362695D01*
X72025581Y-39362695D01*
G37*
X72025581Y-39362695D02*
X71739541Y-39696309D01*
X71431926Y-40070216D01*
X71107089Y-40478642D01*
X70769383Y-40915813D01*
X70423160Y-41375956D01*
X70072775Y-41853298D01*
X69722579Y-42342064D01*
X69376926Y-42836482D01*
X69092710Y-43252769D01*
X68701456Y-43832385D01*
X68701456Y-39012487D01*
X67353486Y-39012487D01*
X67353486Y-46360250D01*
X68517742Y-46360250D01*
X68589776Y-46239003D01*
X68662488Y-46118907D01*
X68759678Y-45961833D01*
X68876758Y-45774957D01*
X69009143Y-45565454D01*
X69152244Y-45340501D01*
X69301476Y-45107275D01*
X69452252Y-44872950D01*
X69599984Y-44644704D01*
X69740086Y-44429711D01*
X69867971Y-44235149D01*
X69939601Y-44127196D01*
X70339813Y-43536100D01*
X70736269Y-42968931D01*
X71124551Y-42431797D01*
X71500246Y-41930810D01*
X71857340Y-41474070D01*
X72097814Y-41173633D01*
X72104552Y-43766942D01*
X72111289Y-46360250D01*
X73459001Y-46360250D01*
X73459001Y-39012487D01*
X72333364Y-39012487D01*
X72025581Y-39362695D01*
G36*
X74912695Y-40175443D02*
G01*
X78295837Y-40175443D01*
X78295837Y-41946306D01*
X75282726Y-41946306D01*
X75282726Y-43082831D01*
X78295837Y-43082831D01*
X78295837Y-45197295D01*
X74674817Y-45197295D01*
X74674817Y-46360250D01*
X79670239Y-46360250D01*
X79670239Y-39012487D01*
X74912695Y-39012487D01*
X74912695Y-40175443D01*
X74912695Y-40175443D01*
G37*
X74912695Y-40175443D02*
X78295837Y-40175443D01*
X78295837Y-41946306D01*
X75282726Y-41946306D01*
X75282726Y-43082831D01*
X78295837Y-43082831D01*
X78295837Y-45197295D01*
X74674817Y-45197295D01*
X74674817Y-46360250D01*
X79670239Y-46360250D01*
X79670239Y-39012487D01*
X74912695Y-39012487D01*
X74912695Y-40175443D01*
G36*
X44121357Y-38947397D02*
G01*
X43861424Y-38955122D01*
X43628997Y-38969084D01*
X43432104Y-38989589D01*
X43398794Y-38994337D01*
X42949686Y-39076317D01*
X42544252Y-39181796D01*
X42177796Y-39312944D01*
X41845622Y-39471935D01*
X41543035Y-39660942D01*
X41265337Y-39882137D01*
X41068641Y-40072485D01*
X40821696Y-40366569D01*
X40615450Y-40689892D01*
X40449282Y-41044034D01*
X40322569Y-41430576D01*
X40234689Y-41851098D01*
X40185021Y-42307181D01*
X40184208Y-42319950D01*
X40173317Y-42820754D01*
X40204867Y-43292778D01*
X40278488Y-43735273D01*
X40393808Y-44147488D01*
X40550458Y-44528674D01*
X40748066Y-44878082D01*
X40986261Y-45194961D01*
X41264674Y-45478563D01*
X41582932Y-45728137D01*
X41940666Y-45942934D01*
X41988100Y-45967281D01*
X42306769Y-46111032D01*
X42639764Y-46226856D01*
X42993371Y-46315952D01*
X43373878Y-46379521D01*
X43787574Y-46418765D01*
X44240744Y-46434884D01*
X44437819Y-46435099D01*
X44612989Y-46433380D01*
X44776520Y-46431125D01*
X44918772Y-46428518D01*
X45030103Y-46425742D01*
X45100872Y-46422981D01*
X45111966Y-46422247D01*
X45439298Y-46394359D01*
X45724684Y-46366177D01*
X45965787Y-46337990D01*
X46160267Y-46310090D01*
X46305784Y-46282769D01*
X46374037Y-46265143D01*
X46380610Y-46261089D01*
X46386531Y-46251414D01*
X46391834Y-46233493D01*
X46396553Y-46204699D01*
X46400721Y-46162408D01*
X46404373Y-46103994D01*
X46407542Y-46026832D01*
X46410263Y-45928295D01*
X46412569Y-45805760D01*
X46414495Y-45656600D01*
X46416073Y-45478190D01*
X46417339Y-45267905D01*
X46418326Y-45023119D01*
X46419068Y-44741206D01*
X46419599Y-44419542D01*
X46419953Y-44055500D01*
X46420163Y-43646456D01*
X46420265Y-43189784D01*
X46420291Y-42686369D01*
X46420264Y-42179786D01*
X46420163Y-41723439D01*
X46419951Y-41314704D01*
X46419596Y-40950955D01*
X46419064Y-40629566D01*
X46418321Y-40347914D01*
X46417543Y-40155177D01*
X45045889Y-40155177D01*
X45045889Y-45250156D01*
X44457804Y-45250001D01*
X44193563Y-45247467D01*
X43962074Y-45240213D01*
X43769901Y-45228536D01*
X43623610Y-45212733D01*
X43618516Y-45211976D01*
X43248529Y-45134701D01*
X42915795Y-45020003D01*
X42620257Y-44867819D01*
X42361858Y-44678084D01*
X42140542Y-44450732D01*
X41956254Y-44185700D01*
X41808937Y-43882923D01*
X41698535Y-43542335D01*
X41624992Y-43163873D01*
X41595989Y-42884600D01*
X41590486Y-42593150D01*
X41612202Y-42288597D01*
X41658688Y-41984847D01*
X41727494Y-41695807D01*
X41816169Y-41435386D01*
X41874028Y-41306361D01*
X42038686Y-41028068D01*
X42236867Y-40788172D01*
X42469828Y-40585858D01*
X42738829Y-40420307D01*
X43045129Y-40290702D01*
X43389984Y-40196226D01*
X43653577Y-40150750D01*
X43739417Y-40142591D01*
X43861549Y-40135735D01*
X44010265Y-40130265D01*
X44175858Y-40126266D01*
X44348621Y-40123820D01*
X44518846Y-40123013D01*
X44676827Y-40123927D01*
X44812855Y-40126647D01*
X44917223Y-40131257D01*
X44980224Y-40137840D01*
X44986420Y-40139240D01*
X45045889Y-40155177D01*
X46417543Y-40155177D01*
X46417333Y-40103372D01*
X46416065Y-39893315D01*
X46414485Y-39715119D01*
X46412557Y-39566157D01*
X46410249Y-39443806D01*
X46407525Y-39345439D01*
X46404353Y-39268432D01*
X46400699Y-39210159D01*
X46396527Y-39167995D01*
X46391806Y-39139316D01*
X46386499Y-39121495D01*
X46380574Y-39111908D01*
X46374037Y-39107941D01*
X46227775Y-39073330D01*
X46036773Y-39042197D01*
X45809060Y-39014849D01*
X45552662Y-38991591D01*
X45275606Y-38972731D01*
X44985921Y-38958575D01*
X44691633Y-38949430D01*
X44400769Y-38945601D01*
X44121357Y-38947397D01*
X44121357Y-38947397D01*
G37*
X44121357Y-38947397D02*
X43861424Y-38955122D01*
X43628997Y-38969084D01*
X43432104Y-38989589D01*
X43398794Y-38994337D01*
X42949686Y-39076317D01*
X42544252Y-39181796D01*
X42177796Y-39312944D01*
X41845622Y-39471935D01*
X41543035Y-39660942D01*
X41265337Y-39882137D01*
X41068641Y-40072485D01*
X40821696Y-40366569D01*
X40615450Y-40689892D01*
X40449282Y-41044034D01*
X40322569Y-41430576D01*
X40234689Y-41851098D01*
X40185021Y-42307181D01*
X40184208Y-42319950D01*
X40173317Y-42820754D01*
X40204867Y-43292778D01*
X40278488Y-43735273D01*
X40393808Y-44147488D01*
X40550458Y-44528674D01*
X40748066Y-44878082D01*
X40986261Y-45194961D01*
X41264674Y-45478563D01*
X41582932Y-45728137D01*
X41940666Y-45942934D01*
X41988100Y-45967281D01*
X42306769Y-46111032D01*
X42639764Y-46226856D01*
X42993371Y-46315952D01*
X43373878Y-46379521D01*
X43787574Y-46418765D01*
X44240744Y-46434884D01*
X44437819Y-46435099D01*
X44612989Y-46433380D01*
X44776520Y-46431125D01*
X44918772Y-46428518D01*
X45030103Y-46425742D01*
X45100872Y-46422981D01*
X45111966Y-46422247D01*
X45439298Y-46394359D01*
X45724684Y-46366177D01*
X45965787Y-46337990D01*
X46160267Y-46310090D01*
X46305784Y-46282769D01*
X46374037Y-46265143D01*
X46380610Y-46261089D01*
X46386531Y-46251414D01*
X46391834Y-46233493D01*
X46396553Y-46204699D01*
X46400721Y-46162408D01*
X46404373Y-46103994D01*
X46407542Y-46026832D01*
X46410263Y-45928295D01*
X46412569Y-45805760D01*
X46414495Y-45656600D01*
X46416073Y-45478190D01*
X46417339Y-45267905D01*
X46418326Y-45023119D01*
X46419068Y-44741206D01*
X46419599Y-44419542D01*
X46419953Y-44055500D01*
X46420163Y-43646456D01*
X46420265Y-43189784D01*
X46420291Y-42686369D01*
X46420264Y-42179786D01*
X46420163Y-41723439D01*
X46419951Y-41314704D01*
X46419596Y-40950955D01*
X46419064Y-40629566D01*
X46418321Y-40347914D01*
X46417543Y-40155177D01*
X45045889Y-40155177D01*
X45045889Y-45250156D01*
X44457804Y-45250001D01*
X44193563Y-45247467D01*
X43962074Y-45240213D01*
X43769901Y-45228536D01*
X43623610Y-45212733D01*
X43618516Y-45211976D01*
X43248529Y-45134701D01*
X42915795Y-45020003D01*
X42620257Y-44867819D01*
X42361858Y-44678084D01*
X42140542Y-44450732D01*
X41956254Y-44185700D01*
X41808937Y-43882923D01*
X41698535Y-43542335D01*
X41624992Y-43163873D01*
X41595989Y-42884600D01*
X41590486Y-42593150D01*
X41612202Y-42288597D01*
X41658688Y-41984847D01*
X41727494Y-41695807D01*
X41816169Y-41435386D01*
X41874028Y-41306361D01*
X42038686Y-41028068D01*
X42236867Y-40788172D01*
X42469828Y-40585858D01*
X42738829Y-40420307D01*
X43045129Y-40290702D01*
X43389984Y-40196226D01*
X43653577Y-40150750D01*
X43739417Y-40142591D01*
X43861549Y-40135735D01*
X44010265Y-40130265D01*
X44175858Y-40126266D01*
X44348621Y-40123820D01*
X44518846Y-40123013D01*
X44676827Y-40123927D01*
X44812855Y-40126647D01*
X44917223Y-40131257D01*
X44980224Y-40137840D01*
X44986420Y-40139240D01*
X45045889Y-40155177D01*
X46417543Y-40155177D01*
X46417333Y-40103372D01*
X46416065Y-39893315D01*
X46414485Y-39715119D01*
X46412557Y-39566157D01*
X46410249Y-39443806D01*
X46407525Y-39345439D01*
X46404353Y-39268432D01*
X46400699Y-39210159D01*
X46396527Y-39167995D01*
X46391806Y-39139316D01*
X46386499Y-39121495D01*
X46380574Y-39111908D01*
X46374037Y-39107941D01*
X46227775Y-39073330D01*
X46036773Y-39042197D01*
X45809060Y-39014849D01*
X45552662Y-38991591D01*
X45275606Y-38972731D01*
X44985921Y-38958575D01*
X44691633Y-38949430D01*
X44400769Y-38945601D01*
X44121357Y-38947397D01*
G36*
X54118936Y-38866088D02*
G01*
X53900145Y-38887429D01*
X53687832Y-38923842D01*
X53466853Y-38977025D01*
X53371876Y-39003596D01*
X52994970Y-39139536D01*
X52641507Y-39321450D01*
X52314083Y-39546735D01*
X52015295Y-39812788D01*
X51747738Y-40117005D01*
X51514011Y-40456783D01*
X51316708Y-40829518D01*
X51163235Y-41218145D01*
X51061518Y-41589055D01*
X50992149Y-41989618D01*
X50955064Y-42408717D01*
X50950197Y-42835236D01*
X50977484Y-43258059D01*
X51036860Y-43666067D01*
X51128261Y-44048145D01*
X51180685Y-44211119D01*
X51350301Y-44623264D01*
X51555813Y-44996879D01*
X51796623Y-45331433D01*
X52072130Y-45626389D01*
X52381735Y-45881216D01*
X52724839Y-46095378D01*
X53100842Y-46268342D01*
X53509146Y-46399574D01*
X53683502Y-46440715D01*
X53825487Y-46464006D01*
X54005437Y-46483152D01*
X54209296Y-46497622D01*
X54423006Y-46506883D01*
X54632510Y-46510405D01*
X54823752Y-46507655D01*
X54982676Y-46498103D01*
X55036732Y-46491889D01*
X55479745Y-46407415D01*
X55889832Y-46281655D01*
X56266894Y-46114682D01*
X56610830Y-45906566D01*
X56921542Y-45657378D01*
X57198930Y-45367188D01*
X57442895Y-45036067D01*
X57653337Y-44664086D01*
X57677838Y-44613549D01*
X57801964Y-44331468D01*
X57898917Y-44059188D01*
X57971462Y-43784295D01*
X58022365Y-43494376D01*
X58054392Y-43177016D01*
X58069406Y-42856087D01*
X58069417Y-42845027D01*
X56669006Y-42845027D01*
X56635881Y-43216901D01*
X56568228Y-43576741D01*
X56466774Y-43917409D01*
X56332249Y-44231767D01*
X56165380Y-44512674D01*
X56115019Y-44581669D01*
X55964719Y-44746764D01*
X55775919Y-44904761D01*
X55562925Y-45046086D01*
X55340042Y-45161166D01*
X55137358Y-45235976D01*
X54849018Y-45295780D01*
X54541992Y-45317234D01*
X54234227Y-45300095D01*
X53972053Y-45251632D01*
X53673565Y-45148581D01*
X53398417Y-44999276D01*
X53149775Y-44806325D01*
X52930804Y-44572334D01*
X52744672Y-44299912D01*
X52686308Y-44192924D01*
X52562834Y-43902182D01*
X52469922Y-43577876D01*
X52407716Y-43229681D01*
X52376362Y-42867268D01*
X52376007Y-42500311D01*
X52406796Y-42138481D01*
X52468874Y-41791451D01*
X52562388Y-41468894D01*
X52642293Y-41272173D01*
X52808795Y-40968156D01*
X53007613Y-40704808D01*
X53236669Y-40483490D01*
X53493883Y-40305562D01*
X53777176Y-40172383D01*
X54084467Y-40085314D01*
X54413679Y-40045714D01*
X54521332Y-40043289D01*
X54856692Y-40067806D01*
X55171276Y-40140154D01*
X55462493Y-40258531D01*
X55727751Y-40421131D01*
X55964458Y-40626150D01*
X56170023Y-40871785D01*
X56341854Y-41156232D01*
X56441653Y-41379982D01*
X56553925Y-41728598D01*
X56628756Y-42093737D01*
X56666874Y-42468260D01*
X56669006Y-42845027D01*
X58069417Y-42845027D01*
X58069828Y-42440284D01*
X58046379Y-42063097D01*
X57997189Y-41715072D01*
X57920384Y-41386759D01*
X57814094Y-41068706D01*
X57676446Y-40751460D01*
X57636562Y-40670466D01*
X57442090Y-40338231D01*
X57206433Y-40027574D01*
X56936319Y-39745053D01*
X56638475Y-39497224D01*
X56319627Y-39290646D01*
X56113501Y-39185775D01*
X55865036Y-39080100D01*
X55631962Y-38999079D01*
X55400283Y-38939644D01*
X55156005Y-38898725D01*
X54885133Y-38873252D01*
X54636532Y-38861832D01*
X54359351Y-38858121D01*
X54118936Y-38866088D01*
X54118936Y-38866088D01*
G37*
X54118936Y-38866088D02*
X53900145Y-38887429D01*
X53687832Y-38923842D01*
X53466853Y-38977025D01*
X53371876Y-39003596D01*
X52994970Y-39139536D01*
X52641507Y-39321450D01*
X52314083Y-39546735D01*
X52015295Y-39812788D01*
X51747738Y-40117005D01*
X51514011Y-40456783D01*
X51316708Y-40829518D01*
X51163235Y-41218145D01*
X51061518Y-41589055D01*
X50992149Y-41989618D01*
X50955064Y-42408717D01*
X50950197Y-42835236D01*
X50977484Y-43258059D01*
X51036860Y-43666067D01*
X51128261Y-44048145D01*
X51180685Y-44211119D01*
X51350301Y-44623264D01*
X51555813Y-44996879D01*
X51796623Y-45331433D01*
X52072130Y-45626389D01*
X52381735Y-45881216D01*
X52724839Y-46095378D01*
X53100842Y-46268342D01*
X53509146Y-46399574D01*
X53683502Y-46440715D01*
X53825487Y-46464006D01*
X54005437Y-46483152D01*
X54209296Y-46497622D01*
X54423006Y-46506883D01*
X54632510Y-46510405D01*
X54823752Y-46507655D01*
X54982676Y-46498103D01*
X55036732Y-46491889D01*
X55479745Y-46407415D01*
X55889832Y-46281655D01*
X56266894Y-46114682D01*
X56610830Y-45906566D01*
X56921542Y-45657378D01*
X57198930Y-45367188D01*
X57442895Y-45036067D01*
X57653337Y-44664086D01*
X57677838Y-44613549D01*
X57801964Y-44331468D01*
X57898917Y-44059188D01*
X57971462Y-43784295D01*
X58022365Y-43494376D01*
X58054392Y-43177016D01*
X58069406Y-42856087D01*
X58069417Y-42845027D01*
X56669006Y-42845027D01*
X56635881Y-43216901D01*
X56568228Y-43576741D01*
X56466774Y-43917409D01*
X56332249Y-44231767D01*
X56165380Y-44512674D01*
X56115019Y-44581669D01*
X55964719Y-44746764D01*
X55775919Y-44904761D01*
X55562925Y-45046086D01*
X55340042Y-45161166D01*
X55137358Y-45235976D01*
X54849018Y-45295780D01*
X54541992Y-45317234D01*
X54234227Y-45300095D01*
X53972053Y-45251632D01*
X53673565Y-45148581D01*
X53398417Y-44999276D01*
X53149775Y-44806325D01*
X52930804Y-44572334D01*
X52744672Y-44299912D01*
X52686308Y-44192924D01*
X52562834Y-43902182D01*
X52469922Y-43577876D01*
X52407716Y-43229681D01*
X52376362Y-42867268D01*
X52376007Y-42500311D01*
X52406796Y-42138481D01*
X52468874Y-41791451D01*
X52562388Y-41468894D01*
X52642293Y-41272173D01*
X52808795Y-40968156D01*
X53007613Y-40704808D01*
X53236669Y-40483490D01*
X53493883Y-40305562D01*
X53777176Y-40172383D01*
X54084467Y-40085314D01*
X54413679Y-40045714D01*
X54521332Y-40043289D01*
X54856692Y-40067806D01*
X55171276Y-40140154D01*
X55462493Y-40258531D01*
X55727751Y-40421131D01*
X55964458Y-40626150D01*
X56170023Y-40871785D01*
X56341854Y-41156232D01*
X56441653Y-41379982D01*
X56553925Y-41728598D01*
X56628756Y-42093737D01*
X56666874Y-42468260D01*
X56669006Y-42845027D01*
X58069417Y-42845027D01*
X58069828Y-42440284D01*
X58046379Y-42063097D01*
X57997189Y-41715072D01*
X57920384Y-41386759D01*
X57814094Y-41068706D01*
X57676446Y-40751460D01*
X57636562Y-40670466D01*
X57442090Y-40338231D01*
X57206433Y-40027574D01*
X56936319Y-39745053D01*
X56638475Y-39497224D01*
X56319627Y-39290646D01*
X56113501Y-39185775D01*
X55865036Y-39080100D01*
X55631962Y-38999079D01*
X55400283Y-38939644D01*
X55156005Y-38898725D01*
X54885133Y-38873252D01*
X54636532Y-38861832D01*
X54359351Y-38858121D01*
X54118936Y-38866088D01*
M02*
