G04 #@! TF.GenerationSoftware,KiCad,Pcbnew,(5.1.0-1152-gc9ccd8a64)*
G04 #@! TF.CreationDate,2019-07-22T10:44:07-04:00*
G04 #@! TF.ProjectId,LTC6811,4c544336-3831-4312-9e6b-696361645f70,rev?*
G04 #@! TF.SameCoordinates,Original*
G04 #@! TF.FileFunction,Copper,L1,Top*
G04 #@! TF.FilePolarity,Positive*
%FSLAX46Y46*%
G04 Gerber Fmt 4.6, Leading zero omitted, Abs format (unit mm)*
G04 Created by KiCad (PCBNEW (5.1.0-1152-gc9ccd8a64)) date 2019-07-22 10:44:07*
%MOMM*%
%LPD*%
G04 APERTURE LIST*
%ADD10R,1.250000X1.500000*%
%ADD11R,1.300000X1.500000*%
%ADD12R,0.750000X1.200000*%
%ADD13R,0.900000X1.200000*%
%ADD14R,1.700000X1.700000*%
%ADD15O,1.700000X1.700000*%
%ADD16R,1.000000X0.285000*%
%ADD17R,1.200000X0.900000*%
%ADD18R,1.500000X1.250000*%
%ADD19R,1.500000X0.100000*%
%ADD20R,1.000000X1.000000*%
%ADD21R,1.000000X3.200000*%
%ADD22R,0.100000X1.500000*%
%ADD23R,2.000000X2.600000*%
%ADD24O,2.000000X2.600000*%
%ADD25R,3.800000X2.000000*%
%ADD26R,1.500000X2.000000*%
%ADD27R,0.900000X0.800000*%
%ADD28R,1.000000X1.750000*%
%ADD29R,1.000000X1.753000*%
%ADD30C,5.400000*%
%ADD31C,0.800000*%
%ADD32C,0.100000*%
%ADD33C,0.950000*%
%ADD34C,0.250000*%
%ADD35C,1.000000*%
G04 APERTURE END LIST*
D10*
X58443800Y-60941200D03*
X58443800Y-63441200D03*
D11*
X53568600Y-61083200D03*
X53568600Y-63783200D03*
D12*
X55245000Y-60949800D03*
X55245000Y-62849800D03*
D13*
X56692800Y-63152200D03*
X56692800Y-60952200D03*
D12*
X49834800Y-38851800D03*
X49834800Y-40751800D03*
D14*
X47244000Y-41935400D03*
D15*
X47244000Y-39395400D03*
D16*
X43350000Y-47200000D03*
X43350000Y-47700000D03*
X43350000Y-48200000D03*
X43350000Y-48700000D03*
X43350000Y-49200000D03*
X43350000Y-49700000D03*
X43350000Y-50200000D03*
X43350000Y-50700000D03*
X43350000Y-51200000D03*
X43350000Y-51700000D03*
X43350000Y-52200000D03*
X43350000Y-52700000D03*
X43350000Y-53200000D03*
X43350000Y-53700000D03*
X43350000Y-54200000D03*
X43350000Y-54700000D03*
X43350000Y-55200000D03*
X43350000Y-55700000D03*
X43350000Y-56200000D03*
X43350000Y-56700000D03*
X43350000Y-57200000D03*
X43350000Y-57700000D03*
X43350000Y-58200000D03*
X43350000Y-58700000D03*
X50850000Y-58700000D03*
X50850000Y-58200000D03*
X50850000Y-57700000D03*
X50850000Y-57200000D03*
X50850000Y-56700000D03*
X50850000Y-56200000D03*
X50850000Y-55700000D03*
X50850000Y-55200000D03*
X50850000Y-54700000D03*
X50850000Y-54200000D03*
X50850000Y-53700000D03*
X50850000Y-53200000D03*
X50850000Y-52700000D03*
X50850000Y-52200000D03*
X50850000Y-51700000D03*
X50850000Y-51200000D03*
X50850000Y-50700000D03*
X50850000Y-50200000D03*
X50850000Y-49700000D03*
X50850000Y-49200000D03*
X50850000Y-48700000D03*
X50850000Y-48200000D03*
X50850000Y-47700000D03*
X50850000Y-47200000D03*
D17*
X58377000Y-53644800D03*
X56177000Y-53644800D03*
X56405600Y-56032400D03*
X58605600Y-56032400D03*
X56202400Y-50419000D03*
X58402400Y-50419000D03*
X52800000Y-52000000D03*
X55000000Y-52000000D03*
D14*
X6500000Y-64000000D03*
D15*
X6500000Y-61460000D03*
X6500000Y-58920000D03*
D14*
X6500000Y-89000000D03*
D15*
X6500000Y-86460000D03*
X6500000Y-83920000D03*
D14*
X6500000Y-78000000D03*
D15*
X6500000Y-75460000D03*
X6500000Y-72920000D03*
X6500000Y-70380000D03*
D13*
X1600000Y-11900000D03*
X1600000Y-9700000D03*
X1450000Y-14300000D03*
X4750000Y-14300000D03*
X1450000Y-19300000D03*
X4750000Y-19300000D03*
X1450000Y-16800000D03*
X4750000Y-16800000D03*
D18*
X56046600Y-8946600D03*
X58546600Y-8946600D03*
X56046600Y-7046600D03*
X58546600Y-7046600D03*
D19*
X11550000Y-3800000D03*
D20*
X12550000Y-3800000D03*
X10550000Y-3800000D03*
D21*
X14150000Y-46150000D03*
X20350000Y-46150000D03*
D20*
X10050000Y-88950000D03*
X12050000Y-88950000D03*
D19*
X11050000Y-88950000D03*
D20*
X10050000Y-81000000D03*
X12050000Y-81000000D03*
D19*
X11050000Y-81000000D03*
D20*
X10550000Y-73250000D03*
X12550000Y-73250000D03*
D19*
X11550000Y-73250000D03*
D20*
X10550000Y-65550000D03*
X12550000Y-65550000D03*
D19*
X11550000Y-65550000D03*
D20*
X10550000Y-57850000D03*
X12550000Y-57850000D03*
D19*
X11550000Y-57850000D03*
D20*
X10550000Y-50150000D03*
X12550000Y-50150000D03*
D19*
X11550000Y-50150000D03*
D20*
X10550000Y-42350000D03*
X12550000Y-42350000D03*
D19*
X11550000Y-42350000D03*
D20*
X10550000Y-34650000D03*
X12550000Y-34650000D03*
D19*
X11550000Y-34650000D03*
D20*
X10550000Y-27000000D03*
X12550000Y-27000000D03*
D19*
X11550000Y-27000000D03*
D20*
X10550000Y-19250000D03*
X12550000Y-19250000D03*
D19*
X11550000Y-19250000D03*
D20*
X10550000Y-11500000D03*
X12550000Y-11500000D03*
D19*
X11550000Y-11500000D03*
D20*
X3700000Y-11700000D03*
X3700000Y-9700000D03*
D22*
X3700000Y-10700000D03*
D21*
X14150000Y-15350000D03*
X20350000Y-15350000D03*
D18*
X55976200Y-57708800D03*
X58476200Y-57708800D03*
D12*
X44907200Y-8930600D03*
X44907200Y-10830600D03*
X46532800Y-8905200D03*
X46532800Y-10805200D03*
D18*
X56046600Y-5096600D03*
X58546600Y-5096600D03*
D12*
X54508400Y-40045600D03*
X54508400Y-41945600D03*
D14*
X6500000Y-53000000D03*
D15*
X6500000Y-50460000D03*
X6500000Y-47920000D03*
X6500000Y-45380000D03*
X6500000Y-42840000D03*
X6500000Y-40300000D03*
X6500000Y-37760000D03*
X6500000Y-35220000D03*
X6500000Y-32680000D03*
X6500000Y-30140000D03*
X6500000Y-27600000D03*
X6500000Y-25060000D03*
X6500000Y-22520000D03*
D23*
X46736000Y-17788800D03*
D24*
X49276000Y-17788800D03*
D23*
X53284000Y-17788800D03*
D24*
X55824000Y-17788800D03*
D25*
X51206400Y-2311000D03*
D26*
X51206400Y-8611000D03*
X53506400Y-8611000D03*
X48906400Y-8611000D03*
D27*
X24250000Y-4750000D03*
X24250000Y-2850000D03*
X22250000Y-3800000D03*
X24250000Y-12450000D03*
X24250000Y-10550000D03*
X22250000Y-11500000D03*
X24250000Y-20200000D03*
X24250000Y-18300000D03*
X22250000Y-19250000D03*
X24250000Y-27900000D03*
X24250000Y-26000000D03*
X22250000Y-26950000D03*
X24250000Y-35600000D03*
X24250000Y-33700000D03*
X22250000Y-34650000D03*
X24250000Y-43300000D03*
X24250000Y-41400000D03*
X22250000Y-42350000D03*
X24250000Y-51100000D03*
X24250000Y-49200000D03*
X22250000Y-50150000D03*
X24300000Y-58800000D03*
X24300000Y-56900000D03*
X22300000Y-57850000D03*
X24250000Y-66500000D03*
X24250000Y-64600000D03*
X22250000Y-65550000D03*
X24250000Y-74200000D03*
X24250000Y-72300000D03*
X22250000Y-73250000D03*
X24250000Y-81900000D03*
X24250000Y-80000000D03*
X22250000Y-80950000D03*
X24250000Y-89900000D03*
X24250000Y-88000000D03*
X22250000Y-88950000D03*
D13*
X45770800Y-3065600D03*
X45770800Y-5265600D03*
X44145200Y-3065600D03*
X44145200Y-5265600D03*
X54044400Y-46755600D03*
X54044400Y-44555600D03*
X52544400Y-46755600D03*
X52544400Y-44555600D03*
D17*
X50106400Y-42646600D03*
X52306400Y-42646600D03*
X53383000Y-38328600D03*
X55583000Y-38328600D03*
X28350000Y-2800000D03*
X26150000Y-2800000D03*
X28350000Y-4800000D03*
X26150000Y-4800000D03*
X28350000Y-10500000D03*
X26150000Y-10500000D03*
X28350000Y-12500000D03*
X26150000Y-12500000D03*
X28350000Y-18250000D03*
X26150000Y-18250000D03*
X28350000Y-20250000D03*
X26150000Y-20250000D03*
X28350000Y-25950000D03*
X26150000Y-25950000D03*
X28350000Y-27950000D03*
X26150000Y-27950000D03*
X28350000Y-33650000D03*
X26150000Y-33650000D03*
X28350000Y-35650000D03*
X26150000Y-35650000D03*
X28350000Y-41350000D03*
X26150000Y-41350000D03*
X28350000Y-43350000D03*
X26150000Y-43350000D03*
X28350000Y-49150000D03*
X26150000Y-49150000D03*
X28350000Y-51150000D03*
X26150000Y-51150000D03*
X28400000Y-56850000D03*
X26200000Y-56850000D03*
X28400000Y-58850000D03*
X26200000Y-58850000D03*
X28350000Y-64550000D03*
X26150000Y-64550000D03*
X28350000Y-66550000D03*
X26150000Y-66550000D03*
X28350000Y-72250000D03*
X26150000Y-72250000D03*
X28350000Y-74250000D03*
X26150000Y-74250000D03*
X28350000Y-79950000D03*
X26150000Y-79950000D03*
X28350000Y-81950000D03*
X26150000Y-81950000D03*
X28350000Y-87950000D03*
X26150000Y-87950000D03*
X28350000Y-89950000D03*
X26150000Y-89950000D03*
D28*
X56511200Y-36339000D03*
X54511200Y-36339000D03*
X52511200Y-36339000D03*
X50511200Y-36339000D03*
X48511200Y-36339000D03*
D29*
X46511200Y-36339000D03*
D28*
X46511200Y-22589000D03*
X48511200Y-22589000D03*
X50511200Y-22589000D03*
X56511200Y-22589000D03*
X54511200Y-22589000D03*
X52511200Y-22589000D03*
D30*
X5000000Y-5000000D03*
D31*
X7025000Y-5000000D03*
X6431891Y-6431891D03*
X5000000Y-7025000D03*
X3568109Y-6431891D03*
X2975000Y-5000000D03*
X3568109Y-3568109D03*
X5000000Y-2975000D03*
X6431891Y-3568109D03*
D30*
X5000000Y-95000000D03*
D31*
X7025000Y-95000000D03*
X6431891Y-96431891D03*
X5000000Y-97025000D03*
X3568109Y-96431891D03*
X2975000Y-95000000D03*
X3568109Y-93568109D03*
X5000000Y-92975000D03*
X6431891Y-93568109D03*
D30*
X55000000Y-95000000D03*
D31*
X57025000Y-95000000D03*
X56431891Y-96431891D03*
X55000000Y-97025000D03*
X53568109Y-96431891D03*
X52975000Y-95000000D03*
X53568109Y-93568109D03*
X55000000Y-92975000D03*
X56431891Y-93568109D03*
D21*
X14150000Y-3800000D03*
X20350000Y-3800000D03*
X14150000Y-11500000D03*
X20350000Y-11500000D03*
X14150000Y-19250000D03*
X20350000Y-19250000D03*
X14150000Y-26950000D03*
X20350000Y-26950000D03*
X14150000Y-34650000D03*
X20350000Y-34650000D03*
X14150000Y-42350000D03*
X20350000Y-42350000D03*
X14150000Y-50150000D03*
X20350000Y-50150000D03*
X14200000Y-57850000D03*
X20400000Y-57850000D03*
X14150000Y-73250000D03*
X20350000Y-73250000D03*
X14150000Y-80950000D03*
X20350000Y-80950000D03*
X14150000Y-88950000D03*
X20350000Y-88950000D03*
X14150000Y-65550000D03*
X20350000Y-65550000D03*
D18*
X32500000Y-2800000D03*
X35000000Y-2800000D03*
X32500000Y-10500000D03*
X35000000Y-10500000D03*
X32500000Y-18250000D03*
X35000000Y-18250000D03*
X32500000Y-25950000D03*
X35000000Y-25950000D03*
X32500000Y-33650000D03*
X35000000Y-33650000D03*
X32500000Y-41350000D03*
X35000000Y-41350000D03*
X32500000Y-49150000D03*
X35000000Y-49150000D03*
X32550000Y-56850000D03*
X35050000Y-56850000D03*
X32450000Y-64600000D03*
X34950000Y-64600000D03*
X32500000Y-72250000D03*
X35000000Y-72250000D03*
X32500000Y-79950000D03*
X35000000Y-79950000D03*
X32500000Y-87950000D03*
X35000000Y-87950000D03*
D21*
X14150000Y-7600000D03*
X20350000Y-7600000D03*
X14150000Y-23050000D03*
X20350000Y-23050000D03*
X14150000Y-30750000D03*
X20350000Y-30750000D03*
X14150000Y-38450000D03*
X20350000Y-38450000D03*
X14150000Y-53950000D03*
X20350000Y-53950000D03*
X14200000Y-61650000D03*
X20400000Y-61650000D03*
X14150000Y-69350000D03*
X20350000Y-69350000D03*
X14150000Y-77050000D03*
X20350000Y-77050000D03*
X14150000Y-84950000D03*
X20350000Y-84950000D03*
X14150000Y-92750000D03*
X20350000Y-92750000D03*
D20*
X30400000Y-3550000D03*
X30400000Y-6050000D03*
X30400000Y-13750000D03*
X30400000Y-11250000D03*
X30400000Y-21500000D03*
X30400000Y-19000000D03*
X30400000Y-29200000D03*
X30400000Y-26700000D03*
X30400000Y-34400000D03*
X30400000Y-36900000D03*
X30400000Y-42000000D03*
X30400000Y-44500000D03*
X30400000Y-50250000D03*
X30400000Y-52750000D03*
X30450000Y-57750000D03*
X30450000Y-60250000D03*
X30400000Y-65300000D03*
X30400000Y-67800000D03*
X30400000Y-73000000D03*
X30400000Y-75500000D03*
X30400000Y-83350000D03*
X30400000Y-80850000D03*
X30400000Y-91200000D03*
X30400000Y-88700000D03*
D32*
G36*
X58835187Y-51536879D02*
G01*
X58912238Y-51588362D01*
X58963721Y-51665413D01*
X58981800Y-51756300D01*
X58981800Y-52231300D01*
X58963721Y-52322187D01*
X58912238Y-52399238D01*
X58835187Y-52450721D01*
X58744300Y-52468800D01*
X58169300Y-52468800D01*
X58078413Y-52450721D01*
X58001362Y-52399238D01*
X57949879Y-52322187D01*
X57931800Y-52231300D01*
X57931800Y-51756300D01*
X57949879Y-51665413D01*
X58001362Y-51588362D01*
X58078413Y-51536879D01*
X58169300Y-51518800D01*
X58744300Y-51518800D01*
X58835187Y-51536879D01*
X58835187Y-51536879D01*
G37*
D33*
X58456800Y-51993800D03*
D32*
G36*
X57085187Y-51536879D02*
G01*
X57162238Y-51588362D01*
X57213721Y-51665413D01*
X57231800Y-51756300D01*
X57231800Y-52231300D01*
X57213721Y-52322187D01*
X57162238Y-52399238D01*
X57085187Y-52450721D01*
X56994300Y-52468800D01*
X56419300Y-52468800D01*
X56328413Y-52450721D01*
X56251362Y-52399238D01*
X56199879Y-52322187D01*
X56181800Y-52231300D01*
X56181800Y-51756300D01*
X56199879Y-51665413D01*
X56251362Y-51588362D01*
X56328413Y-51536879D01*
X56419300Y-51518800D01*
X56994300Y-51518800D01*
X57085187Y-51536879D01*
X57085187Y-51536879D01*
G37*
D33*
X56706800Y-51993800D03*
D31*
X44805600Y-51663600D03*
X44805600Y-52654200D03*
X50368200Y-44602400D03*
X44958000Y-13182600D03*
X46888400Y-13157200D03*
X46913800Y-12217400D03*
X44958000Y-12293600D03*
X51231800Y-44577000D03*
X58953400Y-59182000D03*
X58064400Y-59182000D03*
X53035200Y-56718200D03*
X52171600Y-56718200D03*
X47142400Y-58166000D03*
X47142410Y-56997610D03*
X58433800Y-65711200D03*
X53543800Y-66141200D03*
X53543800Y-65141200D03*
X58443800Y-64881200D03*
X56464200Y-41935400D03*
X50927000Y-41325800D03*
X55626000Y-41935400D03*
X50927000Y-40487600D03*
X48550000Y-57350000D03*
X49450000Y-57350000D03*
X49744200Y-60934600D03*
X44094400Y-61010800D03*
X49744200Y-61899800D03*
X44094400Y-61899800D03*
X47625000Y-83591400D03*
X41833800Y-83591400D03*
X48488600Y-83591400D03*
X40995600Y-83591400D03*
X48793400Y-69392800D03*
X43840400Y-69367400D03*
X42900600Y-69367400D03*
X49733200Y-69392800D03*
X19250000Y-93950000D03*
X19250000Y-91950000D03*
X19250000Y-92950000D03*
X19250000Y-89950000D03*
X19250000Y-87950000D03*
X19250000Y-88950000D03*
X19250000Y-85900000D03*
X19250000Y-83900000D03*
X19250000Y-84900000D03*
X19250000Y-81950000D03*
X19250000Y-79950000D03*
X19250000Y-80950000D03*
X19250000Y-78050000D03*
X19250000Y-76050000D03*
X19250000Y-77050000D03*
X19250000Y-74250000D03*
X19250000Y-72250000D03*
X19250000Y-73250000D03*
X19250000Y-70350000D03*
X19250000Y-68350000D03*
X19250000Y-69350000D03*
X19250000Y-66550000D03*
X19250000Y-64550000D03*
X19250000Y-65550000D03*
X19250000Y-62650000D03*
X19250000Y-60650000D03*
X19250000Y-61650000D03*
X19300000Y-58850000D03*
X19300000Y-56850000D03*
X19300000Y-57850000D03*
X19250000Y-54950000D03*
X19250000Y-52950000D03*
X19250000Y-53950000D03*
X19250000Y-51150000D03*
X19250000Y-49150000D03*
X19250000Y-50150000D03*
X19250000Y-47200000D03*
X19250000Y-45200000D03*
X19250000Y-46200000D03*
X19250000Y-43350000D03*
X19250000Y-41350000D03*
X19250000Y-42350000D03*
X19250000Y-39450000D03*
X19250000Y-37450000D03*
X19250000Y-38450000D03*
X19250000Y-35650000D03*
X19250000Y-33650000D03*
X19250000Y-34650000D03*
X19250000Y-31750000D03*
X19250000Y-29750000D03*
X19250000Y-30750000D03*
X19250000Y-27950000D03*
X19250000Y-25950000D03*
X19250000Y-26950000D03*
X19250000Y-24050000D03*
X19250000Y-22050000D03*
X19250000Y-23050000D03*
X19250000Y-20250000D03*
X19250000Y-18250000D03*
X19250000Y-19250000D03*
X19250000Y-16350000D03*
X19250000Y-14350000D03*
X19250000Y-15350000D03*
X19250000Y-12500000D03*
X19250000Y-10500000D03*
X19250000Y-11500000D03*
X19250000Y-8650000D03*
X19250000Y-6500000D03*
X19250000Y-7600000D03*
X19250000Y-4800000D03*
X19250000Y-2800000D03*
X19250000Y-3800000D03*
X4775000Y-55900000D03*
X3875000Y-55900000D03*
X13970000Y-98323400D03*
X13970000Y-96266000D03*
X13970000Y-97282000D03*
X6000000Y-19300000D03*
X6000000Y-16800000D03*
X6000000Y-14300000D03*
X34900000Y-40110000D03*
X34900000Y-39250000D03*
X37250000Y-33650000D03*
X36400000Y-33660000D03*
X37050000Y-25950000D03*
X36220000Y-25950000D03*
X37250000Y-18250000D03*
X36360000Y-18250000D03*
X58547600Y-10316400D03*
X30390000Y-92380000D03*
X36370000Y-87960000D03*
X37230000Y-87960000D03*
X36607800Y-80610400D03*
X36420000Y-72250000D03*
X36340000Y-64550000D03*
X36420000Y-56860000D03*
X34900000Y-47610000D03*
X36470000Y-10520000D03*
X36410000Y-2800000D03*
X30400000Y-93200000D03*
X37427800Y-80610400D03*
X37250000Y-72250000D03*
X37250000Y-64550000D03*
X37300000Y-56850000D03*
X34900000Y-46750000D03*
X37350000Y-10550000D03*
X37250000Y-2800000D03*
X58557600Y-11186400D03*
X49530000Y-53797200D03*
X48082194Y-55118000D03*
X49021998Y-55118000D03*
X48641000Y-53797200D03*
X42976800Y-78943200D03*
X50190400Y-78943200D03*
X49326800Y-78968600D03*
X43840400Y-78943200D03*
D34*
X55600600Y-48260000D02*
X53660600Y-50200000D01*
X55600600Y-44018200D02*
X55600600Y-48260000D01*
X54940200Y-43357800D02*
X55600600Y-44018200D01*
X53898800Y-43357800D02*
X54940200Y-43357800D01*
X53383000Y-38328600D02*
X53383000Y-42842000D01*
X53383000Y-42842000D02*
X53898800Y-43357800D01*
X53660600Y-50200000D02*
X50850000Y-50200000D01*
X53846400Y-50700000D02*
X57734200Y-46812200D01*
X50850000Y-50700000D02*
X53846400Y-50700000D01*
X57734200Y-46812200D02*
X57734200Y-41179800D01*
X57734200Y-41179800D02*
X55583000Y-39028600D01*
X55583000Y-39028600D02*
X55583000Y-38328600D01*
X53568600Y-63783200D02*
X54311600Y-63783200D01*
X54311600Y-63783200D02*
X55245000Y-62849800D01*
D35*
X44805600Y-52654200D02*
X44805600Y-51663600D01*
D34*
X50850000Y-52700000D02*
X44851400Y-52700000D01*
X44851400Y-52700000D02*
X44805600Y-52654200D01*
X49352200Y-45135800D02*
X50469800Y-46253400D01*
X52306400Y-42646600D02*
X52306400Y-42918200D01*
X49352200Y-44094400D02*
X49352200Y-45135800D01*
X49694610Y-43751990D02*
X49352200Y-44094400D01*
X51714400Y-47574200D02*
X51588600Y-47700000D01*
X51472610Y-43751990D02*
X49694610Y-43751990D01*
X52306400Y-42918200D02*
X51472610Y-43751990D01*
X50469800Y-46253400D02*
X51384200Y-46253400D01*
X51384200Y-46253400D02*
X51714400Y-46583600D01*
X51714400Y-46583600D02*
X51714400Y-47574200D01*
X51588600Y-47700000D02*
X50850000Y-47700000D01*
X47244000Y-43951500D02*
X50492500Y-47200000D01*
X47244000Y-41935400D02*
X47244000Y-43951500D01*
X50492500Y-47200000D02*
X50850000Y-47200000D01*
X56511200Y-36339000D02*
X56511200Y-37400400D01*
X56511200Y-37400400D02*
X55583000Y-38328600D01*
X52511200Y-36339000D02*
X52511200Y-37456800D01*
X52511200Y-37456800D02*
X53383000Y-38328600D01*
X48539400Y-14528800D02*
X48906400Y-14161800D01*
X44907200Y-14528800D02*
X48539400Y-14528800D01*
X44094400Y-15341600D02*
X44907200Y-14528800D01*
X50100000Y-52200000D02*
X44094400Y-46194400D01*
X44094400Y-46194400D02*
X44094400Y-15341600D01*
X50850000Y-52200000D02*
X50100000Y-52200000D01*
X48906400Y-14161800D02*
X48906400Y-13196600D01*
X48906400Y-13196600D02*
X48906400Y-8611000D01*
X54430800Y-51200000D02*
X55211800Y-50419000D01*
X55211800Y-50419000D02*
X56202400Y-50419000D01*
X56706800Y-51993800D02*
X56827600Y-51993800D01*
X56827600Y-51993800D02*
X58402400Y-50419000D01*
X42976800Y-10236000D02*
X42976800Y-40995600D01*
X44282200Y-8930600D02*
X42976800Y-10236000D01*
X42976800Y-40995600D02*
X43002200Y-41021000D01*
X43002200Y-41021000D02*
X43002200Y-46852200D01*
X43002200Y-46852200D02*
X43350000Y-47200000D01*
X44145200Y-5265600D02*
X44145200Y-8793600D01*
X44145200Y-8793600D02*
X44282200Y-8930600D01*
D35*
X56046600Y-7046600D02*
X56046600Y-8946600D01*
X56046600Y-5096600D02*
X56046600Y-7046600D01*
X53506400Y-8611000D02*
X55711000Y-8611000D01*
X55711000Y-8611000D02*
X56046600Y-8946600D01*
D34*
X50850000Y-51200000D02*
X54430800Y-51200000D01*
X50875420Y-51725420D02*
X51675420Y-51725420D01*
X51950000Y-52000000D02*
X52800000Y-52000000D01*
X51675420Y-51725420D02*
X51950000Y-52000000D01*
X50850000Y-51700000D02*
X50875420Y-51725420D01*
D35*
X51206400Y-5486400D02*
X51206400Y-8611000D01*
X51206400Y-2311000D02*
X51206400Y-5486400D01*
X45770800Y-5265600D02*
X50985600Y-5265600D01*
X50985600Y-5265600D02*
X51206400Y-5486400D01*
X58546600Y-5096600D02*
X58546600Y-7046600D01*
X58546600Y-7046600D02*
X58546600Y-8946600D01*
X58547600Y-10316400D02*
X58547600Y-8947600D01*
X58547600Y-8947600D02*
X58546600Y-8946600D01*
X58557600Y-11186400D02*
X58557600Y-10326400D01*
X58557600Y-10326400D02*
X58547600Y-10316400D01*
D34*
X44282200Y-8930600D02*
X44907200Y-8930600D01*
X45770800Y-6115600D02*
X46532800Y-6877600D01*
X45770800Y-5265600D02*
X45770800Y-6115600D01*
X46532800Y-6877600D02*
X46532800Y-8055200D01*
X46532800Y-8055200D02*
X46532800Y-8905200D01*
X46583600Y-10830600D02*
X46583600Y-11887200D01*
X46583600Y-11887200D02*
X46913800Y-12217400D01*
D35*
X44958000Y-13182600D02*
X44958000Y-12293600D01*
X46888400Y-13157200D02*
X46888400Y-12268200D01*
X51231800Y-44577000D02*
X50342800Y-44577000D01*
D34*
X44958000Y-10856000D02*
X44958000Y-12293600D01*
X51249000Y-44559800D02*
X51231800Y-44577000D01*
X52582000Y-44559800D02*
X51249000Y-44559800D01*
X44145200Y-3065600D02*
X45770800Y-3065600D01*
D35*
X58064400Y-59182000D02*
X58953400Y-59182000D01*
D34*
X58476200Y-58770200D02*
X58064400Y-59182000D01*
X58476200Y-57708800D02*
X58476200Y-58770200D01*
X58605600Y-56032400D02*
X58605600Y-57579400D01*
X58605600Y-57579400D02*
X58476200Y-57708800D01*
X54610000Y-59232800D02*
X56860400Y-59232800D01*
X56860400Y-59232800D02*
X58443800Y-60816200D01*
X54203600Y-58826400D02*
X54610000Y-59232800D01*
X54203600Y-56719860D02*
X54203600Y-58826400D01*
X51600000Y-54200000D02*
X53293190Y-55893190D01*
X50850000Y-54200000D02*
X51600000Y-54200000D01*
X53293190Y-55893190D02*
X53376930Y-55893190D01*
X53376930Y-55893190D02*
X54203600Y-56719860D01*
X55976200Y-57424000D02*
X52252200Y-53700000D01*
X55976200Y-57708800D02*
X55976200Y-57424000D01*
X52252200Y-53700000D02*
X50850000Y-53700000D01*
X50850000Y-53200000D02*
X51728587Y-53200000D01*
X54850000Y-52000000D02*
X55000000Y-52000000D01*
X50850000Y-52700000D02*
X51864998Y-52700000D01*
X51864998Y-52700000D02*
X51939999Y-52775001D01*
X54074999Y-52775001D02*
X54850000Y-52000000D01*
X51939999Y-52775001D02*
X54074999Y-52775001D01*
X51728587Y-53200000D02*
X51753599Y-53225012D01*
X51753599Y-53225012D02*
X52437612Y-53225012D01*
X52437612Y-53225012D02*
X55245000Y-56032400D01*
X55245000Y-56032400D02*
X55555600Y-56032400D01*
X55555600Y-56032400D02*
X56405600Y-56032400D01*
X53568600Y-60083200D02*
X53568600Y-61083200D01*
D35*
X52171600Y-56718200D02*
X53035200Y-56718200D01*
D34*
X50850000Y-57200000D02*
X51486659Y-57200000D01*
X51486659Y-57200000D02*
X53568600Y-59281941D01*
X53568600Y-59281941D02*
X53568600Y-60083200D01*
X58443800Y-60941200D02*
X58443800Y-60816200D01*
X52171600Y-56718200D02*
X50868200Y-56718200D01*
X50868200Y-56718200D02*
X50850000Y-56700000D01*
X47176400Y-58200000D02*
X47142400Y-58166000D01*
X50850000Y-58200000D02*
X47176400Y-58200000D01*
X55245000Y-60949800D02*
X53702000Y-60949800D01*
X53702000Y-60949800D02*
X53568600Y-61083200D01*
X56692800Y-60952200D02*
X55247400Y-60952200D01*
X55247400Y-60952200D02*
X55245000Y-60949800D01*
X58443800Y-61066200D02*
X56692800Y-62817200D01*
X58443800Y-60941200D02*
X58443800Y-61066200D01*
X56692800Y-62817200D02*
X56692800Y-63152200D01*
X58456800Y-51993800D02*
X58456800Y-53565000D01*
X58456800Y-53565000D02*
X58377000Y-53644800D01*
X56327000Y-53644800D02*
X58605600Y-55923400D01*
X56177000Y-53644800D02*
X56327000Y-53644800D01*
X58605600Y-55923400D02*
X58605600Y-56032400D01*
X55000000Y-52000000D02*
X56700600Y-52000000D01*
X56700600Y-52000000D02*
X56706800Y-51993800D01*
X52544400Y-46205600D02*
X54044400Y-44705600D01*
X52544400Y-46755600D02*
X52544400Y-46205600D01*
X54044400Y-44705600D02*
X54044400Y-44555600D01*
X52250000Y-48700000D02*
X54044400Y-46905600D01*
X50850000Y-48700000D02*
X52250000Y-48700000D01*
X54044400Y-46905600D02*
X54044400Y-46755600D01*
X51950000Y-48200000D02*
X52544400Y-47605600D01*
X50850000Y-48200000D02*
X51950000Y-48200000D01*
X52544400Y-47605600D02*
X52544400Y-46755600D01*
X58443800Y-65701200D02*
X58433800Y-65711200D01*
X58443800Y-63441200D02*
X58443800Y-65701200D01*
D35*
X58443800Y-64881200D02*
X58443800Y-65701200D01*
X53543800Y-65141200D02*
X53543800Y-66141200D01*
D34*
X53543800Y-63591200D02*
X53543800Y-65141200D01*
D35*
X55626000Y-41935400D02*
X56464200Y-41935400D01*
X50927000Y-40487600D02*
X50927000Y-41325800D01*
D34*
X55615800Y-41945600D02*
X55626000Y-41935400D01*
X54508400Y-41945600D02*
X55615800Y-41945600D01*
X50891400Y-40751800D02*
X50927000Y-40716200D01*
X49834800Y-40751800D02*
X50891400Y-40751800D01*
X54508400Y-40045600D02*
X54508400Y-36341800D01*
X54508400Y-36341800D02*
X54511200Y-36339000D01*
X54511200Y-41414400D02*
X54508400Y-41417200D01*
X50511200Y-37464000D02*
X52306400Y-39259200D01*
X50511200Y-36339000D02*
X50511200Y-37464000D01*
X52306400Y-39259200D02*
X52306400Y-41946600D01*
X52306400Y-41946600D02*
X52306400Y-42646600D01*
X49834800Y-37662600D02*
X49636200Y-37464000D01*
X49834800Y-38851800D02*
X49834800Y-37662600D01*
X49636200Y-37464000D02*
X49261200Y-37464000D01*
X49261200Y-37464000D02*
X48511200Y-36714000D01*
X48511200Y-36714000D02*
X48511200Y-36339000D01*
X50106400Y-42646600D02*
X47955200Y-42646600D01*
X47955200Y-42646600D02*
X47244000Y-41935400D01*
X46511200Y-36339000D02*
X46511200Y-38662600D01*
X46511200Y-38662600D02*
X47244000Y-39395400D01*
X56511200Y-22589000D02*
X56511200Y-18476000D01*
X56511200Y-18476000D02*
X55824000Y-17788800D01*
X52511200Y-22589000D02*
X52511200Y-18561600D01*
X52511200Y-18561600D02*
X53284000Y-17788800D01*
X50511200Y-22589000D02*
X50511200Y-19024000D01*
X50511200Y-19024000D02*
X49276000Y-17788800D01*
X46511200Y-22589000D02*
X46511200Y-18013600D01*
X46511200Y-18013600D02*
X46736000Y-17788800D01*
X1450000Y-12050000D02*
X1600000Y-11900000D01*
X1450000Y-19300000D02*
X1450000Y-16800000D01*
X1450000Y-14300000D02*
X1450000Y-12050000D01*
X1450000Y-16800000D02*
X1450000Y-14300000D01*
X39300000Y-57290767D02*
X40890767Y-55700000D01*
X39300000Y-58950000D02*
X39300000Y-57290767D01*
X38750000Y-59500000D02*
X39300000Y-58950000D01*
X35500000Y-59500000D02*
X38750000Y-59500000D01*
X32450000Y-64600000D02*
X32450000Y-62550000D01*
X32450000Y-62550000D02*
X35500000Y-59500000D01*
X40890767Y-55700000D02*
X42600000Y-55700000D01*
X42600000Y-55700000D02*
X43350000Y-55700000D01*
X40236956Y-57626633D02*
X41163589Y-56700000D01*
X40236956Y-66763044D02*
X40236956Y-57626633D01*
X38250000Y-68750000D02*
X40236956Y-66763044D01*
X42600000Y-56700000D02*
X43350000Y-56700000D01*
X34297800Y-68750000D02*
X38250000Y-68750000D01*
X32500000Y-72250000D02*
X32500000Y-70547800D01*
X32500000Y-70547800D02*
X34297800Y-68750000D01*
X41163589Y-56700000D02*
X42600000Y-56700000D01*
X41136978Y-58663022D02*
X42100000Y-57700000D01*
X41136978Y-72663022D02*
X41136978Y-58663022D01*
X38900000Y-74900000D02*
X41136978Y-72663022D01*
X35310600Y-74900000D02*
X38900000Y-74900000D01*
X32500000Y-79950000D02*
X32500000Y-77710600D01*
X32500000Y-77710600D02*
X35310600Y-74900000D01*
X42100000Y-57700000D02*
X42600000Y-57700000D01*
X42600000Y-57700000D02*
X43350000Y-57700000D01*
X43350000Y-89950000D02*
X51100000Y-82200000D01*
X50850000Y-59092500D02*
X50850000Y-58700000D01*
X28350000Y-89950000D02*
X43350000Y-89950000D01*
X51100000Y-82200000D02*
X51100000Y-59342500D01*
X51100000Y-59342500D02*
X50850000Y-59092500D01*
X28492800Y-82092800D02*
X38207200Y-82092800D01*
X28350000Y-81950000D02*
X28492800Y-82092800D01*
X38207200Y-82092800D02*
X41586989Y-78713011D01*
X41586989Y-78713011D02*
X41586989Y-59213011D01*
X41586989Y-59213011D02*
X42600000Y-58200000D01*
X42600000Y-58200000D02*
X43350000Y-58200000D01*
X28350000Y-74250000D02*
X38913590Y-74250000D01*
X38913590Y-74250000D02*
X40686967Y-72476623D01*
X41963589Y-57200000D02*
X42600000Y-57200000D01*
X42600000Y-57200000D02*
X43350000Y-57200000D01*
X40686967Y-58476622D02*
X41963589Y-57200000D01*
X40686967Y-72476623D02*
X40686967Y-58476622D01*
X28350000Y-66550000D02*
X38450000Y-66550000D01*
X38450000Y-66550000D02*
X39786945Y-65213055D01*
X39786945Y-65213055D02*
X39786945Y-57440233D01*
X39786945Y-57440233D02*
X41027178Y-56200000D01*
X42600000Y-56200000D02*
X43350000Y-56200000D01*
X41027178Y-56200000D02*
X42600000Y-56200000D01*
X38150000Y-58850000D02*
X38800000Y-58200000D01*
X28400000Y-58850000D02*
X38150000Y-58850000D01*
X38800000Y-58200000D02*
X38800000Y-57154356D01*
X38800000Y-57154356D02*
X40754356Y-55200000D01*
X40754356Y-55200000D02*
X42600000Y-55200000D01*
X42600000Y-55200000D02*
X43350000Y-55200000D01*
X28685800Y-51485800D02*
X32735800Y-51485800D01*
X28350000Y-51150000D02*
X28685800Y-51485800D01*
X32735800Y-51485800D02*
X35450000Y-54200000D01*
X35450000Y-54200000D02*
X43350000Y-54200000D01*
X37574878Y-49824878D02*
X40950000Y-53200000D01*
X28350000Y-43350000D02*
X31600000Y-43350000D01*
X31600000Y-43350000D02*
X32750000Y-44500000D01*
X32750000Y-44500000D02*
X37000000Y-44500000D01*
X37000000Y-44500000D02*
X37574878Y-45074878D01*
X37574878Y-45074878D02*
X37574878Y-49824878D01*
X40950000Y-53200000D02*
X42600000Y-53200000D01*
X42600000Y-53200000D02*
X43350000Y-53200000D01*
X37363590Y-37250000D02*
X38474900Y-38361310D01*
X42600000Y-52200000D02*
X43350000Y-52200000D01*
X28350000Y-35650000D02*
X32150000Y-35650000D01*
X32150000Y-35650000D02*
X33750000Y-37250000D01*
X38474900Y-49338489D02*
X41336411Y-52200000D01*
X38474900Y-38361310D02*
X38474900Y-49338489D01*
X41336411Y-52200000D02*
X42600000Y-52200000D01*
X33750000Y-37250000D02*
X37363590Y-37250000D01*
X39374922Y-48965690D02*
X41609232Y-51200000D01*
X39374922Y-30624922D02*
X39374922Y-48965690D01*
X38500000Y-29750000D02*
X39374922Y-30624922D01*
X35000000Y-29750000D02*
X38500000Y-29750000D01*
X28350000Y-27950000D02*
X33200000Y-27950000D01*
X33200000Y-27950000D02*
X35000000Y-29750000D01*
X41609232Y-51200000D02*
X42600000Y-51200000D01*
X42600000Y-51200000D02*
X43350000Y-51200000D01*
X40274944Y-23774944D02*
X40274944Y-48592890D01*
X32363589Y-20250000D02*
X33563600Y-21450011D01*
X37950011Y-21450011D02*
X40274944Y-23774944D01*
X28350000Y-20250000D02*
X32363589Y-20250000D01*
X42600000Y-50200000D02*
X43350000Y-50200000D01*
X40274944Y-48592890D02*
X41882054Y-50200000D01*
X33563600Y-21450011D02*
X37950011Y-21450011D01*
X41882054Y-50200000D02*
X42600000Y-50200000D01*
X28350000Y-12500000D02*
X31750000Y-12500000D01*
X39349978Y-15599978D02*
X39349978Y-21577157D01*
X31750000Y-12500000D02*
X33250000Y-14000000D01*
X42154876Y-49200000D02*
X42600000Y-49200000D01*
X33250000Y-14000000D02*
X37750000Y-14000000D01*
X41174966Y-23402144D02*
X41174966Y-48220090D01*
X37750000Y-14000000D02*
X39349978Y-15599978D01*
X42600000Y-49200000D02*
X43350000Y-49200000D01*
X39349978Y-21577157D02*
X41174966Y-23402144D01*
X41174966Y-48220090D02*
X42154876Y-49200000D01*
X40874977Y-9874977D02*
X40874977Y-21829334D01*
X42074988Y-47847290D02*
X42427699Y-48200000D01*
X38250000Y-7250000D02*
X40874977Y-9874977D01*
X40874977Y-21829334D02*
X42074988Y-23029344D01*
X42074988Y-23029344D02*
X42074988Y-47847290D01*
X42600000Y-48200000D02*
X43350000Y-48200000D01*
X34000000Y-7250000D02*
X38250000Y-7250000D01*
X42427699Y-48200000D02*
X42600000Y-48200000D01*
X28350000Y-4800000D02*
X31550000Y-4800000D01*
X31550000Y-4800000D02*
X34000000Y-7250000D01*
X14900000Y-84950000D02*
X16939968Y-86989968D01*
X14150000Y-84950000D02*
X14900000Y-84950000D01*
X16939968Y-86989968D02*
X22539968Y-86989968D01*
X22539968Y-86989968D02*
X23550000Y-88000000D01*
X23550000Y-88000000D02*
X24250000Y-88000000D01*
X14150000Y-80950000D02*
X12125001Y-80950000D01*
X14150000Y-80950000D02*
X14150000Y-82800000D01*
X14150000Y-82800000D02*
X14150000Y-84950000D01*
X24250000Y-88000000D02*
X26100000Y-88000000D01*
X26100000Y-88000000D02*
X26150000Y-87950000D01*
X14150000Y-73250000D02*
X12625001Y-73250000D01*
X14900000Y-77050000D02*
X16839235Y-78989235D01*
X22539235Y-78989235D02*
X23550000Y-80000000D01*
X14150000Y-77050000D02*
X14900000Y-77050000D01*
X16839235Y-78989235D02*
X22539235Y-78989235D01*
X23550000Y-80000000D02*
X24250000Y-80000000D01*
X14150000Y-73250000D02*
X14150000Y-77050000D01*
X24250000Y-80000000D02*
X26100000Y-80000000D01*
X26100000Y-80000000D02*
X26150000Y-79950000D01*
X14150000Y-65550000D02*
X12625001Y-65550000D01*
X14150000Y-65550000D02*
X14150000Y-69350000D01*
X14900000Y-69350000D02*
X16874999Y-71324999D01*
X14150000Y-69350000D02*
X14900000Y-69350000D01*
X22574999Y-71324999D02*
X23550000Y-72300000D01*
X23550000Y-72300000D02*
X24250000Y-72300000D01*
X16874999Y-71324999D02*
X22574999Y-71324999D01*
X24250000Y-72300000D02*
X26100000Y-72300000D01*
X26100000Y-72300000D02*
X26150000Y-72250000D01*
X14200000Y-57850000D02*
X13450000Y-57850000D01*
X13450000Y-57850000D02*
X12625001Y-57850000D01*
X14950000Y-61650000D02*
X16924999Y-63624999D01*
X14200000Y-61650000D02*
X14950000Y-61650000D01*
X16924999Y-63624999D02*
X22574999Y-63624999D01*
X22574999Y-63624999D02*
X23550000Y-64600000D01*
X23550000Y-64600000D02*
X24250000Y-64600000D01*
X14200000Y-57850000D02*
X14200000Y-61650000D01*
X24250000Y-64600000D02*
X26100000Y-64600000D01*
X26100000Y-64600000D02*
X26150000Y-64550000D01*
X14150000Y-50150000D02*
X12625001Y-50150000D01*
X14900000Y-53950000D02*
X16874999Y-55924999D01*
X16874999Y-55924999D02*
X22624999Y-55924999D01*
X14150000Y-53950000D02*
X14900000Y-53950000D01*
X22624999Y-55924999D02*
X23600000Y-56900000D01*
X23600000Y-56900000D02*
X24300000Y-56900000D01*
X14150000Y-50150000D02*
X14150000Y-53950000D01*
X24300000Y-56900000D02*
X26150000Y-56900000D01*
X26150000Y-56900000D02*
X26200000Y-56850000D01*
X14150000Y-42350000D02*
X12625001Y-42350000D01*
X14900000Y-46150000D02*
X16974999Y-48224999D01*
X14150000Y-46150000D02*
X14900000Y-46150000D01*
X23550000Y-49200000D02*
X24250000Y-49200000D01*
X16974999Y-48224999D02*
X22574999Y-48224999D01*
X22574999Y-48224999D02*
X23550000Y-49200000D01*
X14150000Y-42350000D02*
X14150000Y-46150000D01*
X24250000Y-49200000D02*
X26100000Y-49200000D01*
X26100000Y-49200000D02*
X26150000Y-49150000D01*
X14150000Y-34650000D02*
X12625001Y-34650000D01*
X14900000Y-38450000D02*
X16874999Y-40424999D01*
X14150000Y-38450000D02*
X14900000Y-38450000D01*
X16874999Y-40424999D02*
X22574999Y-40424999D01*
X22574999Y-40424999D02*
X23550000Y-41400000D01*
X23550000Y-41400000D02*
X24250000Y-41400000D01*
X14150000Y-34650000D02*
X14150000Y-38450000D01*
X24250000Y-41400000D02*
X26100000Y-41400000D01*
X26100000Y-41400000D02*
X26150000Y-41350000D01*
X14150000Y-26950000D02*
X12625001Y-26950000D01*
X14900000Y-30750000D02*
X16825001Y-32675001D01*
X14150000Y-30750000D02*
X14900000Y-30750000D01*
X23550000Y-33700000D02*
X24250000Y-33700000D01*
X16825001Y-32675001D02*
X22525001Y-32675001D01*
X22525001Y-32675001D02*
X23550000Y-33700000D01*
X14150000Y-26950000D02*
X14150000Y-30750000D01*
X26150000Y-33650000D02*
X24300000Y-33650000D01*
X24300000Y-33650000D02*
X24250000Y-33700000D01*
X14150000Y-19250000D02*
X12625001Y-19250000D01*
X23550000Y-26000000D02*
X24250000Y-26000000D01*
X22574999Y-25024999D02*
X23550000Y-26000000D01*
X16874999Y-25024999D02*
X22574999Y-25024999D01*
X14150000Y-23050000D02*
X14900000Y-23050000D01*
X14900000Y-23050000D02*
X16874999Y-25024999D01*
X14150000Y-19250000D02*
X14150000Y-23050000D01*
X24250000Y-26000000D02*
X26100000Y-26000000D01*
X26100000Y-26000000D02*
X26150000Y-25950000D01*
X14150000Y-11500000D02*
X12625001Y-11500000D01*
X14150000Y-15350000D02*
X14900000Y-15350000D01*
X16874999Y-17324999D02*
X23224999Y-17324999D01*
X23224999Y-17324999D02*
X24200000Y-18300000D01*
X14900000Y-15350000D02*
X16874999Y-17324999D01*
X24200000Y-18300000D02*
X24250000Y-18300000D01*
X14150000Y-11500000D02*
X14150000Y-15350000D01*
X24250000Y-18300000D02*
X26100000Y-18300000D01*
X26100000Y-18300000D02*
X26150000Y-18250000D01*
X14150000Y-3800000D02*
X12625001Y-3800000D01*
X17024999Y-9574999D02*
X22574999Y-9574999D01*
X15050000Y-7600000D02*
X17024999Y-9574999D01*
X22574999Y-9574999D02*
X23550000Y-10550000D01*
X23550000Y-10550000D02*
X24250000Y-10550000D01*
X14150000Y-7600000D02*
X15050000Y-7600000D01*
X14150000Y-3800000D02*
X14150000Y-7600000D01*
X26150000Y-10500000D02*
X24300000Y-10500000D01*
X24300000Y-10500000D02*
X24250000Y-10550000D01*
X23550000Y-2850000D02*
X21950011Y-1250011D01*
X21950011Y-1250011D02*
X10149989Y-1250011D01*
X10149989Y-1250011D02*
X9500000Y-1900000D01*
X9500000Y-8200000D02*
X8000000Y-9700000D01*
X9500000Y-1900000D02*
X9500000Y-8200000D01*
X8000000Y-9700000D02*
X4075001Y-9700000D01*
X24250000Y-2850000D02*
X23550000Y-2850000D01*
X1600000Y-9700000D02*
X3324999Y-9700000D01*
X24250000Y-2850000D02*
X24200000Y-2850000D01*
X24250000Y-2850000D02*
X26100000Y-2850000D01*
X26100000Y-2850000D02*
X26150000Y-2800000D01*
X30350000Y-56850000D02*
X30600000Y-56850000D01*
X28400000Y-56850000D02*
X30350000Y-56850000D01*
X30450000Y-57750000D02*
X30450000Y-56950000D01*
X30450000Y-56950000D02*
X30350000Y-56850000D01*
X30600000Y-56850000D02*
X32550000Y-56850000D01*
X30400000Y-56650000D02*
X30600000Y-56850000D01*
X30400000Y-52750000D02*
X30400000Y-56650000D01*
X32550000Y-55700000D02*
X33550000Y-54700000D01*
X32550000Y-56850000D02*
X32550000Y-55700000D01*
X33550000Y-54700000D02*
X43350000Y-54700000D01*
X39799989Y-21390757D02*
X41624977Y-23215744D01*
X42291288Y-48700000D02*
X42600000Y-48700000D01*
X39799989Y-15186400D02*
X39799989Y-21390757D01*
X38113589Y-13500000D02*
X39799989Y-15186400D01*
X34500000Y-13500000D02*
X38113589Y-13500000D01*
X32500000Y-11500000D02*
X34500000Y-13500000D01*
X32500000Y-10500000D02*
X32500000Y-11500000D01*
X41624977Y-23215744D02*
X41624977Y-48033689D01*
X41624977Y-48033689D02*
X42291288Y-48700000D01*
X42600000Y-48700000D02*
X43350000Y-48700000D01*
X30400000Y-6050000D02*
X30400000Y-10600000D01*
X30500000Y-10500000D02*
X32500000Y-10500000D01*
X30400000Y-11250000D02*
X30400000Y-10600000D01*
X28350000Y-10500000D02*
X30500000Y-10500000D01*
X30400000Y-10600000D02*
X30500000Y-10500000D01*
X32500000Y-86700000D02*
X33800000Y-85400000D01*
X32500000Y-87950000D02*
X32500000Y-86700000D01*
X33800000Y-85400000D02*
X37400000Y-85400000D01*
X37400000Y-85400000D02*
X42037000Y-80763000D01*
X42037000Y-80763000D02*
X42037000Y-60013000D01*
X42037000Y-60013000D02*
X43350000Y-58700000D01*
X30400000Y-83350000D02*
X30400000Y-87850000D01*
X30400000Y-87850000D02*
X30300000Y-87950000D01*
X30300000Y-87950000D02*
X32500000Y-87950000D01*
X28350000Y-87950000D02*
X30300000Y-87950000D01*
X30400000Y-88050000D02*
X30300000Y-87950000D01*
X30400000Y-88700000D02*
X30400000Y-88050000D01*
X30400000Y-75500000D02*
X30400000Y-79900000D01*
X30400000Y-79900000D02*
X30450000Y-79950000D01*
X30450000Y-79950000D02*
X32500000Y-79950000D01*
X29200000Y-79950000D02*
X30450000Y-79950000D01*
X30400000Y-80850000D02*
X30400000Y-80000000D01*
X30400000Y-80000000D02*
X30450000Y-79950000D01*
X28350000Y-79950000D02*
X29200000Y-79950000D01*
X30500000Y-72250000D02*
X32500000Y-72250000D01*
X30250000Y-72250000D02*
X30500000Y-72250000D01*
X30400000Y-67800000D02*
X30400000Y-72150000D01*
X30400000Y-72150000D02*
X30500000Y-72250000D01*
X30400000Y-72400000D02*
X30250000Y-72250000D01*
X28350000Y-72250000D02*
X30250000Y-72250000D01*
X30400000Y-73000000D02*
X30400000Y-72400000D01*
X30450000Y-60250000D02*
X30450000Y-64450000D01*
X30450000Y-64450000D02*
X30550000Y-64550000D01*
X30400000Y-65300000D02*
X30400000Y-64650000D01*
X30550000Y-64550000D02*
X32400000Y-64550000D01*
X28350000Y-64550000D02*
X30550000Y-64550000D01*
X32400000Y-64550000D02*
X32450000Y-64600000D01*
X32500000Y-64550000D02*
X32625000Y-64550000D01*
X32500000Y-50512500D02*
X35687500Y-53700000D01*
X32500000Y-49150000D02*
X32500000Y-50512500D01*
X35687500Y-53700000D02*
X42600000Y-53700000D01*
X42600000Y-53700000D02*
X43350000Y-53700000D01*
X30400000Y-49350000D02*
X30400000Y-49150000D01*
X30400000Y-50250000D02*
X30400000Y-49350000D01*
X30400000Y-49150000D02*
X32500000Y-49150000D01*
X29200000Y-49150000D02*
X30400000Y-49150000D01*
X30400000Y-44500000D02*
X30400000Y-49150000D01*
X28350000Y-49150000D02*
X29200000Y-49150000D01*
X38024889Y-49638479D02*
X41086410Y-52700000D01*
X38024889Y-44888478D02*
X38024889Y-49638479D01*
X32500000Y-41350000D02*
X32500000Y-43000000D01*
X37136411Y-44000000D02*
X38024889Y-44888478D01*
X33500000Y-44000000D02*
X37136411Y-44000000D01*
X32500000Y-43000000D02*
X33500000Y-44000000D01*
X41086410Y-52700000D02*
X42600000Y-52700000D01*
X42600000Y-52700000D02*
X43350000Y-52700000D01*
X30400000Y-36900000D02*
X30400000Y-41300000D01*
X30400000Y-41300000D02*
X30350000Y-41350000D01*
X30350000Y-41350000D02*
X32500000Y-41350000D01*
X29200000Y-41350000D02*
X30350000Y-41350000D01*
X30400000Y-42000000D02*
X30400000Y-41400000D01*
X30400000Y-41400000D02*
X30350000Y-41350000D01*
X28350000Y-41350000D02*
X29200000Y-41350000D01*
X37500000Y-36750000D02*
X38924911Y-38174911D01*
X41472822Y-51700000D02*
X42600000Y-51700000D01*
X32500000Y-33650000D02*
X32500000Y-35250000D01*
X34000000Y-36750000D02*
X37500000Y-36750000D01*
X32500000Y-35250000D02*
X34000000Y-36750000D01*
X38924911Y-38174911D02*
X38924911Y-49152089D01*
X38924911Y-49152089D02*
X41472822Y-51700000D01*
X42600000Y-51700000D02*
X43350000Y-51700000D01*
X30400000Y-29200000D02*
X30400000Y-33650000D01*
X30400000Y-33650000D02*
X30650000Y-33650000D01*
X30650000Y-33650000D02*
X32500000Y-33650000D01*
X30350000Y-33650000D02*
X30650000Y-33650000D01*
X29200000Y-33650000D02*
X30350000Y-33650000D01*
X30400000Y-34400000D02*
X30400000Y-33700000D01*
X30400000Y-33700000D02*
X30350000Y-33650000D01*
X28350000Y-33650000D02*
X29200000Y-33650000D01*
X39824933Y-30324933D02*
X39824933Y-48779289D01*
X39824933Y-48779289D02*
X41745644Y-50700000D01*
X35000000Y-29000000D02*
X38500000Y-29000000D01*
X32500000Y-26500000D02*
X35000000Y-29000000D01*
X32500000Y-25950000D02*
X32500000Y-26500000D01*
X41745644Y-50700000D02*
X42600000Y-50700000D01*
X42600000Y-50700000D02*
X43350000Y-50700000D01*
X38500000Y-29000000D02*
X39824933Y-30324933D01*
X30450000Y-25950000D02*
X32500000Y-25950000D01*
X30300000Y-25950000D02*
X30450000Y-25950000D01*
X30450000Y-25950000D02*
X30400000Y-25900000D01*
X30400000Y-25900000D02*
X30400000Y-21500000D01*
X28350000Y-25950000D02*
X30300000Y-25950000D01*
X30400000Y-26700000D02*
X30400000Y-26050000D01*
X30400000Y-26050000D02*
X30300000Y-25950000D01*
X42600000Y-49700000D02*
X43350000Y-49700000D01*
X38136411Y-21000000D02*
X40724955Y-23588544D01*
X32500000Y-19750000D02*
X33750000Y-21000000D01*
X40724955Y-23588544D02*
X40724955Y-48406489D01*
X32500000Y-18250000D02*
X32500000Y-19750000D01*
X33750000Y-21000000D02*
X38136411Y-21000000D01*
X42018466Y-49700000D02*
X42600000Y-49700000D01*
X40724955Y-48406489D02*
X42018466Y-49700000D01*
X30400000Y-19000000D02*
X30400000Y-18350000D01*
X30400000Y-18350000D02*
X30500000Y-18250000D01*
X30500000Y-18250000D02*
X32500000Y-18250000D01*
X28350000Y-18250000D02*
X30500000Y-18250000D01*
X30400000Y-13750000D02*
X30400000Y-18150000D01*
X30400000Y-18150000D02*
X30500000Y-18250000D01*
X41324988Y-21642934D02*
X42524999Y-22842945D01*
X38136411Y-6500000D02*
X41324988Y-9688577D01*
X41324988Y-9688577D02*
X41324988Y-21642934D01*
X42524999Y-22842945D02*
X42524999Y-47624999D01*
X42600000Y-47700000D02*
X43350000Y-47700000D01*
X42524999Y-47624999D02*
X42600000Y-47700000D01*
X31150000Y-3550000D02*
X34100000Y-6500000D01*
X30400000Y-3550000D02*
X31150000Y-3550000D01*
X34100000Y-6500000D02*
X38136411Y-6500000D01*
X30300000Y-2800000D02*
X32500000Y-2800000D01*
X28350000Y-2800000D02*
X30300000Y-2800000D01*
X30400000Y-2900000D02*
X30300000Y-2800000D01*
X30400000Y-3550000D02*
X30400000Y-2900000D01*
X49450000Y-57350000D02*
X49800000Y-57700000D01*
X49800000Y-57700000D02*
X50850000Y-57700000D01*
D35*
X48550000Y-57350000D02*
X49450000Y-57350000D01*
X44094400Y-61899800D02*
X44094400Y-61010800D01*
X49744200Y-61899800D02*
X49744200Y-60934600D01*
D34*
X44994400Y-61899800D02*
X44094400Y-61899800D01*
X49744200Y-61899800D02*
X44994400Y-61899800D01*
D35*
X40995600Y-83591400D02*
X41833800Y-83591400D01*
X47625000Y-83591400D02*
X48488600Y-83591400D01*
D34*
X40995600Y-83591400D02*
X47625000Y-83591400D01*
D35*
X48793400Y-69392800D02*
X49733200Y-69392800D01*
X42900600Y-69367400D02*
X43840400Y-69367400D01*
D34*
X43840400Y-69367400D02*
X48768000Y-69367400D01*
X48768000Y-69367400D02*
X48793400Y-69392800D01*
X42926000Y-69392800D02*
X42900600Y-69367400D01*
D35*
X19250000Y-92950000D02*
X20350000Y-92950000D01*
X19250000Y-91950000D02*
X19250000Y-93950000D01*
X19250000Y-87950000D02*
X19250000Y-89950000D01*
X20350000Y-88950000D02*
X19250000Y-88950000D01*
D34*
X20350000Y-88950000D02*
X22250000Y-88950000D01*
X24250000Y-89900000D02*
X26100000Y-89900000D01*
X26100000Y-89900000D02*
X26150000Y-89950000D01*
X24250000Y-81900000D02*
X26100000Y-81900000D01*
X26100000Y-81900000D02*
X26150000Y-81950000D01*
D35*
X19250000Y-84900000D02*
X20300000Y-84900000D01*
X20300000Y-84900000D02*
X20350000Y-84950000D01*
X19250000Y-83900000D02*
X19250000Y-85900000D01*
X19250000Y-79950000D02*
X19250000Y-81950000D01*
X20350000Y-80950000D02*
X19250000Y-80950000D01*
D34*
X20350000Y-80950000D02*
X22250000Y-80950000D01*
D35*
X19250000Y-77050000D02*
X20350000Y-77050000D01*
X19250000Y-76050000D02*
X19250000Y-78050000D01*
X19250000Y-72250000D02*
X19250000Y-74250000D01*
X20350000Y-73250000D02*
X19250000Y-73250000D01*
D34*
X20350000Y-73250000D02*
X22250000Y-73250000D01*
X24250000Y-74200000D02*
X26100000Y-74200000D01*
X26100000Y-74200000D02*
X26150000Y-74250000D01*
D35*
X19250000Y-69350000D02*
X20350000Y-69350000D01*
X19250000Y-68350000D02*
X19250000Y-70350000D01*
X19250000Y-64550000D02*
X19250000Y-66550000D01*
X20350000Y-65550000D02*
X19250000Y-65550000D01*
D34*
X20350000Y-65550000D02*
X22250000Y-65550000D01*
X24250000Y-66500000D02*
X26100000Y-66500000D01*
X26100000Y-66500000D02*
X26150000Y-66550000D01*
X24300000Y-58800000D02*
X26150000Y-58800000D01*
X26150000Y-58800000D02*
X26200000Y-58850000D01*
D35*
X19250000Y-61650000D02*
X20400000Y-61650000D01*
X19250000Y-60650000D02*
X19250000Y-62650000D01*
X19300000Y-56850000D02*
X19300000Y-58850000D01*
X20400000Y-57850000D02*
X19300000Y-57850000D01*
D34*
X20400000Y-57850000D02*
X22300000Y-57850000D01*
D35*
X19250000Y-53950000D02*
X20350000Y-53950000D01*
X19250000Y-52950000D02*
X19250000Y-54950000D01*
X19250000Y-49150000D02*
X19250000Y-51150000D01*
X20350000Y-50150000D02*
X19250000Y-50150000D01*
D34*
X22250000Y-50150000D02*
X20350000Y-50150000D01*
X24250000Y-51100000D02*
X26100000Y-51100000D01*
X26100000Y-51100000D02*
X26150000Y-51150000D01*
X24250000Y-43300000D02*
X26100000Y-43300000D01*
X26100000Y-43300000D02*
X26150000Y-43350000D01*
D35*
X19250000Y-46200000D02*
X20300000Y-46200000D01*
X20300000Y-46200000D02*
X20350000Y-46150000D01*
X19250000Y-45200000D02*
X19250000Y-47200000D01*
X19250000Y-41350000D02*
X19250000Y-43350000D01*
X20350000Y-42350000D02*
X19250000Y-42350000D01*
D34*
X20350000Y-42350000D02*
X22250000Y-42350000D01*
X24250000Y-35600000D02*
X26100000Y-35600000D01*
X26100000Y-35600000D02*
X26150000Y-35650000D01*
D35*
X19250000Y-38450000D02*
X20350000Y-38450000D01*
X19250000Y-37450000D02*
X19250000Y-39450000D01*
X19250000Y-33650000D02*
X19250000Y-35650000D01*
X20350000Y-34650000D02*
X19250000Y-34650000D01*
D34*
X20350000Y-34650000D02*
X22250000Y-34650000D01*
D35*
X19250000Y-29750000D02*
X19250000Y-31750000D01*
X19250000Y-30750000D02*
X20350000Y-30750000D01*
X19250000Y-25950000D02*
X19250000Y-27950000D01*
X20350000Y-26950000D02*
X19250000Y-26950000D01*
D34*
X20350000Y-26950000D02*
X22250000Y-26950000D01*
X24250000Y-27900000D02*
X26100000Y-27900000D01*
X26100000Y-27900000D02*
X26150000Y-27950000D01*
X24250000Y-20200000D02*
X26100000Y-20200000D01*
X26100000Y-20200000D02*
X26150000Y-20250000D01*
D35*
X19250000Y-23050000D02*
X20350000Y-23050000D01*
X19250000Y-22050000D02*
X19250000Y-24050000D01*
X19250000Y-18250000D02*
X19250000Y-20250000D01*
X20350000Y-19250000D02*
X19250000Y-19250000D01*
D34*
X20350000Y-19250000D02*
X22250000Y-19250000D01*
X24250000Y-12450000D02*
X26100000Y-12450000D01*
X26100000Y-12450000D02*
X26150000Y-12500000D01*
D35*
X19250000Y-15350000D02*
X19250000Y-16350000D01*
X19250000Y-15350000D02*
X19250000Y-14350000D01*
X19250000Y-15350000D02*
X20350000Y-15350000D01*
X19250000Y-10500000D02*
X19250000Y-12500000D01*
X20350000Y-11500000D02*
X19250000Y-11500000D01*
D34*
X20350000Y-11500000D02*
X22250000Y-11500000D01*
D35*
X19250000Y-6500000D02*
X19250000Y-8650000D01*
X20350000Y-7600000D02*
X19250000Y-7600000D01*
X19250000Y-3800000D02*
X20350000Y-3800000D01*
X19250000Y-2800000D02*
X19250000Y-4800000D01*
D34*
X20350000Y-3800000D02*
X22250000Y-3800000D01*
X24250000Y-4750000D02*
X26100000Y-4750000D01*
X26100000Y-4750000D02*
X26150000Y-4800000D01*
X10474999Y-27075001D02*
X10474999Y-27000000D01*
X3400000Y-21095519D02*
X3400000Y-12150002D01*
X3860800Y-21556319D02*
X3400000Y-21095519D01*
X3400000Y-12150002D02*
X3775001Y-11775001D01*
X3860800Y-21556319D02*
X3810000Y-21505519D01*
D35*
X1425000Y-63275000D02*
X1425000Y-77275000D01*
X1425000Y-63275000D02*
X2150000Y-64000000D01*
X1425000Y-57784315D02*
X1425000Y-63275000D01*
X3875000Y-55900000D02*
X3309315Y-55900000D01*
X3309315Y-55900000D02*
X1425000Y-57784315D01*
X3875000Y-55900000D02*
X4775000Y-55900000D01*
X13970000Y-98323400D02*
X13970000Y-97282000D01*
X13970000Y-97282000D02*
X13970000Y-96266000D01*
X14150000Y-92750000D02*
X14150000Y-96086000D01*
X14150000Y-96086000D02*
X13970000Y-96266000D01*
D34*
X4750000Y-16800000D02*
X4750000Y-14300000D01*
X4750000Y-19300000D02*
X4750000Y-16800000D01*
X4750000Y-19300000D02*
X6000000Y-19300000D01*
X4750000Y-16800000D02*
X6000000Y-16800000D01*
X4750000Y-14300000D02*
X6000000Y-14300000D01*
D35*
X34900000Y-40110000D02*
X34900000Y-39250000D01*
D34*
X35000000Y-41650000D02*
X35000000Y-39350000D01*
X35000000Y-39350000D02*
X34900000Y-39250000D01*
X35000000Y-49150000D02*
X35000000Y-46850000D01*
X35000000Y-46850000D02*
X34900000Y-46750000D01*
X35000000Y-33650000D02*
X37250000Y-33650000D01*
D35*
X37240000Y-33660000D02*
X37250000Y-33650000D01*
X36400000Y-33660000D02*
X37240000Y-33660000D01*
X36220000Y-25950000D02*
X37050000Y-25950000D01*
D34*
X35000000Y-25950000D02*
X37024990Y-25950000D01*
X35000000Y-18250000D02*
X37250000Y-18250000D01*
D35*
X36360000Y-18250000D02*
X37250000Y-18250000D01*
D34*
X30390000Y-92380000D02*
X30390000Y-91210000D01*
X30390000Y-91210000D02*
X30400000Y-91200000D01*
X14150000Y-88950000D02*
X14150000Y-92750000D01*
X14150000Y-88950000D02*
X12125001Y-88950000D01*
D35*
X30400000Y-93200000D02*
X30400000Y-92390000D01*
X30400000Y-92390000D02*
X30390000Y-92380000D01*
X36410000Y-2800000D02*
X37250000Y-2800000D01*
X36470000Y-10520000D02*
X37320000Y-10520000D01*
X37320000Y-10520000D02*
X37350000Y-10550000D01*
X34900000Y-47610000D02*
X34900000Y-46750000D01*
X36420000Y-56860000D02*
X37290000Y-56860000D01*
X37290000Y-56860000D02*
X37300000Y-56850000D01*
X36340000Y-64550000D02*
X37250000Y-64550000D01*
X36420000Y-72250000D02*
X37250000Y-72250000D01*
X36607800Y-80610400D02*
X37427800Y-80610400D01*
X36370000Y-87960000D02*
X37230000Y-87960000D01*
D34*
X35000000Y-87950000D02*
X37220000Y-87950000D01*
X37220000Y-87950000D02*
X37230000Y-87960000D01*
X35000000Y-72250000D02*
X37250000Y-72250000D01*
X35000000Y-64550000D02*
X37250000Y-64550000D01*
X35050000Y-56850000D02*
X37300000Y-56850000D01*
X35000000Y-10500000D02*
X37250000Y-10500000D01*
X35000000Y-2800000D02*
X37250000Y-2800000D01*
X10474999Y-49839999D02*
X10474999Y-50150000D01*
D35*
X1425000Y-88275000D02*
X1425000Y-77275000D01*
X2150000Y-89000000D02*
X1425000Y-88275000D01*
X2150000Y-78000000D02*
X1425000Y-77275000D01*
D34*
X50850000Y-55700000D02*
X50492500Y-55700000D01*
X49103998Y-55200000D02*
X49021998Y-55118000D01*
X50850000Y-55200000D02*
X49103998Y-55200000D01*
D35*
X47142400Y-56997620D02*
X47142410Y-56997610D01*
X47142400Y-58166000D02*
X47142400Y-56997620D01*
D34*
X47940020Y-56200000D02*
X47142410Y-56997610D01*
X50850000Y-56200000D02*
X47940020Y-56200000D01*
X50850000Y-56200000D02*
X50850000Y-55700000D01*
X50100000Y-54700000D02*
X50850000Y-54700000D01*
X49867115Y-54700000D02*
X50100000Y-54700000D01*
X49530000Y-53797200D02*
X49530000Y-54362885D01*
X49530000Y-54362885D02*
X49867115Y-54700000D01*
D35*
X48641000Y-53797200D02*
X49530000Y-53797200D01*
D34*
X42976800Y-78943200D02*
X50190400Y-78943200D01*
D35*
X42976800Y-78943200D02*
X43840400Y-78943200D01*
X50165000Y-78968600D02*
X50190400Y-78943200D01*
X49326800Y-78968600D02*
X50165000Y-78968600D01*
D34*
X58402400Y-49428400D02*
X58402400Y-50419000D01*
X58783400Y-49047400D02*
X58402400Y-49428400D01*
X58783400Y-13088800D02*
X58783400Y-49047400D01*
X56046600Y-8946600D02*
X56046600Y-10352000D01*
X56046600Y-10352000D02*
X58783400Y-13088800D01*
X9666599Y-35458400D02*
X10474999Y-34650000D01*
X10474999Y-11500000D02*
X10474999Y-11575001D01*
X5536319Y-21556319D02*
X6500000Y-22520000D01*
X3860800Y-21556319D02*
X5536319Y-21556319D01*
X7797800Y-23762200D02*
X6500000Y-25060000D01*
X7797800Y-11379200D02*
X7797800Y-23762200D01*
X10474999Y-3800000D02*
X10474999Y-8702001D01*
X10474999Y-8702001D02*
X7797800Y-11379200D01*
X7702081Y-27600000D02*
X8585200Y-26716881D01*
X6500000Y-27600000D02*
X7702081Y-27600000D01*
X8585200Y-13464800D02*
X10474999Y-11575001D01*
X8585200Y-26716881D02*
X8585200Y-13464800D01*
X7349999Y-29290001D02*
X7692399Y-29290001D01*
X6500000Y-30140000D02*
X7349999Y-29290001D01*
X7692399Y-29290001D02*
X9194800Y-27787600D01*
X9194800Y-20605200D02*
X10474999Y-19325001D01*
X9194800Y-27787600D02*
X9194800Y-20605200D01*
X7349999Y-31830001D02*
X8022599Y-31830001D01*
X6500000Y-32680000D02*
X7349999Y-31830001D01*
X10550000Y-29302600D02*
X10550000Y-27375001D01*
X8022599Y-31830001D02*
X10550000Y-29302600D01*
X7940481Y-35458400D02*
X9666599Y-35458400D01*
X6500000Y-35220000D02*
X7702081Y-35220000D01*
X7702081Y-35220000D02*
X7940481Y-35458400D01*
X10474999Y-41488399D02*
X10474999Y-42350000D01*
X8737600Y-39751000D02*
X10474999Y-41488399D01*
X8737600Y-38795519D02*
X8737600Y-39751000D01*
X6500000Y-37760000D02*
X7702081Y-37760000D01*
X7702081Y-37760000D02*
X8737600Y-38795519D01*
X10474999Y-44274999D02*
X10474999Y-46178589D01*
X10474999Y-46178589D02*
X10474999Y-50074999D01*
X6500000Y-40300000D02*
X10474999Y-44274999D01*
X9321800Y-50800000D02*
X10474999Y-51953199D01*
X9321800Y-45661800D02*
X9321800Y-50800000D01*
X10474999Y-51953199D02*
X10474999Y-57850000D01*
X6500000Y-42840000D02*
X9321800Y-45661800D01*
X9974999Y-83787399D02*
X9974999Y-88950000D01*
X8280400Y-82092800D02*
X9974999Y-83787399D01*
X9180422Y-71955423D02*
X10474999Y-73250000D01*
X6500000Y-50460000D02*
X8730411Y-52690411D01*
X6500000Y-45380000D02*
X8788400Y-47668400D01*
X8788400Y-47668400D02*
X8788400Y-50903010D01*
X9630433Y-64705434D02*
X10474999Y-65550000D01*
X8204200Y-50955222D02*
X9180422Y-51931444D01*
X8788400Y-50903010D02*
X9630433Y-51745043D01*
X9630433Y-51745043D02*
X9630433Y-64705434D01*
X9180422Y-51931444D02*
X9180422Y-71955423D01*
X6500000Y-47920000D02*
X8204200Y-49624200D01*
X8730411Y-79755412D02*
X9974999Y-81000000D01*
X8730411Y-52690411D02*
X8730411Y-79755412D01*
X8204200Y-49624200D02*
X8204200Y-50955222D01*
X7600000Y-53000000D02*
X8280400Y-53680400D01*
X6500000Y-53000000D02*
X7600000Y-53000000D01*
X8280400Y-53680400D02*
X8280400Y-82092800D01*
D35*
X2150000Y-64000000D02*
X6500000Y-64000000D01*
X2150000Y-78000000D02*
X6500000Y-78000000D01*
X2150000Y-89000000D02*
X6500000Y-89000000D01*
D34*
X35947400Y-79950000D02*
X36607800Y-80610400D01*
X35000000Y-79950000D02*
X35947400Y-79950000D01*
X38400000Y-800000D02*
X40665600Y-3065600D01*
X40665600Y-3065600D02*
X44145200Y-3065600D01*
X9600000Y-800000D02*
X38400000Y-800000D01*
X8890000Y-1510000D02*
X9600000Y-800000D01*
X8890000Y-7010000D02*
X8890000Y-1510000D01*
X900000Y-11900000D02*
X500000Y-11500000D01*
X1600000Y-11900000D02*
X900000Y-11900000D01*
X500000Y-11500000D02*
X500000Y-9164998D01*
X500000Y-9164998D02*
X1164998Y-8500000D01*
X1164998Y-8500000D02*
X7400000Y-8500000D01*
X7400000Y-8500000D02*
X8890000Y-7010000D01*
M02*
