G04 #@! TF.GenerationSoftware,KiCad,Pcbnew,(5.1.0-1152-gc9ccd8a64)*
G04 #@! TF.CreationDate,2019-07-22T10:44:07-04:00*
G04 #@! TF.ProjectId,LTC6811,4c544336-3831-4312-9e6b-696361645f70,rev?*
G04 #@! TF.SameCoordinates,Original*
G04 #@! TF.FileFunction,Soldermask,Bot*
G04 #@! TF.FilePolarity,Negative*
%FSLAX46Y46*%
G04 Gerber Fmt 4.6, Leading zero omitted, Abs format (unit mm)*
G04 Created by KiCad (PCBNEW (5.1.0-1152-gc9ccd8a64)) date 2019-07-22 10:44:07*
%MOMM*%
%LPD*%
G04 APERTURE LIST*
%ADD10C,0.100000*%
G04 APERTURE END LIST*
D10*
G36*
X55081499Y-92249413D02*
G01*
X55182653Y-92250031D01*
X55243360Y-92257754D01*
X55302411Y-92260797D01*
X55406794Y-92278546D01*
X55511702Y-92291892D01*
X55566432Y-92305690D01*
X55619927Y-92314786D01*
X55726337Y-92346003D01*
X55833340Y-92372980D01*
X55881595Y-92391552D01*
X55928980Y-92405453D01*
X56035669Y-92450849D01*
X56142906Y-92492121D01*
X56184372Y-92514123D01*
X56225346Y-92531557D01*
X56330467Y-92591639D01*
X56435917Y-92647590D01*
X56470539Y-92671698D01*
X56504972Y-92691378D01*
X56606545Y-92766400D01*
X56708128Y-92837134D01*
X56736040Y-92862046D01*
X56764045Y-92882731D01*
X56860070Y-92972747D01*
X56955597Y-93058008D01*
X56977162Y-93082512D01*
X56999021Y-93103003D01*
X57087451Y-93207831D01*
X57174738Y-93307013D01*
X57190494Y-93329982D01*
X57206693Y-93349184D01*
X57285494Y-93468466D01*
X57362377Y-93580541D01*
X57373051Y-93601002D01*
X57384219Y-93617907D01*
X57451335Y-93751064D01*
X57515797Y-93874630D01*
X57522257Y-93891771D01*
X57529191Y-93905528D01*
X57582804Y-94052429D01*
X57632774Y-94185020D01*
X57635987Y-94198150D01*
X57639611Y-94208080D01*
X57677970Y-94369719D01*
X57711615Y-94507216D01*
X57712656Y-94515885D01*
X57713977Y-94521450D01*
X57735476Y-94705850D01*
X57751177Y-94836550D01*
X57746761Y-95225825D01*
X57728492Y-95353391D01*
X57726437Y-95400454D01*
X57711096Y-95474861D01*
X57699737Y-95554176D01*
X57678322Y-95633821D01*
X57661942Y-95713266D01*
X57635632Y-95792587D01*
X57613607Y-95874501D01*
X57584540Y-95946626D01*
X57560545Y-96018967D01*
X57523071Y-96099148D01*
X57489617Y-96182157D01*
X57454382Y-96246116D01*
X57424176Y-96310747D01*
X57375003Y-96390210D01*
X57329565Y-96472690D01*
X57289657Y-96528126D01*
X57254694Y-96584625D01*
X57193513Y-96661679D01*
X57135769Y-96741890D01*
X57092703Y-96788642D01*
X57054420Y-96836857D01*
X56981135Y-96909759D01*
X56911035Y-96985859D01*
X56866267Y-97024027D01*
X56826079Y-97064005D01*
X56740868Y-97130938D01*
X56658619Y-97201062D01*
X56613538Y-97230957D01*
X56572795Y-97262961D01*
X56476063Y-97322123D01*
X56382178Y-97384382D01*
X56338090Y-97406507D01*
X56298036Y-97431005D01*
X56190419Y-97480617D01*
X56085715Y-97533163D01*
X56043771Y-97548222D01*
X56005540Y-97565847D01*
X55887941Y-97604171D01*
X55773525Y-97645250D01*
X55734731Y-97654100D01*
X55699318Y-97665640D01*
X55572884Y-97691019D01*
X55450131Y-97719021D01*
X55415301Y-97722651D01*
X55383547Y-97729025D01*
X55249653Y-97739915D01*
X55120216Y-97753405D01*
X55089960Y-97752903D01*
X55062520Y-97755135D01*
X54922636Y-97750128D01*
X54788560Y-97747905D01*
X54763333Y-97744427D01*
X54740650Y-97743615D01*
X54596347Y-97721404D01*
X54459967Y-97702601D01*
X54439956Y-97697333D01*
X54422326Y-97694619D01*
X54275239Y-97653967D01*
X54139196Y-97618150D01*
X54124405Y-97612279D01*
X54111883Y-97608818D01*
X53962917Y-97548178D01*
X53830895Y-97495773D01*
X53821130Y-97490460D01*
X53813581Y-97487387D01*
X53661548Y-97403633D01*
X53539528Y-97337244D01*
X53534375Y-97333575D01*
X53531474Y-97331977D01*
X53354206Y-97205299D01*
X53269316Y-97144860D01*
X53192276Y-97074636D01*
X53031025Y-96928166D01*
X53028854Y-96925673D01*
X53024174Y-96921407D01*
X52933455Y-96816122D01*
X52819511Y-96685275D01*
X52814911Y-96678545D01*
X52807653Y-96670121D01*
X52728532Y-96552155D01*
X52637780Y-96419366D01*
X52631749Y-96407855D01*
X52622888Y-96394643D01*
X52559166Y-96269311D01*
X52488315Y-96134074D01*
X52481934Y-96117406D01*
X52472557Y-96098964D01*
X52425351Y-95969618D01*
X52373153Y-95833282D01*
X52367568Y-95811291D01*
X52358836Y-95787365D01*
X52328333Y-95656803D01*
X52293873Y-95521114D01*
X52290254Y-95493810D01*
X52283374Y-95464361D01*
X52269212Y-95335054D01*
X52251555Y-95201833D01*
X52251075Y-95169442D01*
X52247262Y-95134631D01*
X52248690Y-95008722D01*
X52246778Y-94879793D01*
X52250573Y-94842747D01*
X52251025Y-94802951D01*
X52266998Y-94682436D01*
X52279605Y-94559389D01*
X52288754Y-94518290D01*
X52294608Y-94474125D01*
X52323837Y-94360695D01*
X52349590Y-94245013D01*
X52365070Y-94200685D01*
X52377379Y-94152917D01*
X52418382Y-94048019D01*
X52455775Y-93940942D01*
X52478454Y-93894341D01*
X52498140Y-93843978D01*
X52549292Y-93748780D01*
X52596711Y-93651341D01*
X52627292Y-93603614D01*
X52655141Y-93551785D01*
X52714713Y-93467179D01*
X52770477Y-93380151D01*
X52809512Y-93332544D01*
X52846108Y-93280570D01*
X52912299Y-93207186D01*
X52974689Y-93131096D01*
X53022528Y-93084979D01*
X53068274Y-93034262D01*
X53139292Y-92972419D01*
X53206567Y-92907565D01*
X53263353Y-92864384D01*
X53318423Y-92816428D01*
X53392483Y-92766191D01*
X53462939Y-92712615D01*
X53528584Y-92673870D01*
X53592929Y-92630223D01*
X53668329Y-92591389D01*
X53740305Y-92548908D01*
X53814503Y-92516106D01*
X53887818Y-92478346D01*
X53962934Y-92450485D01*
X54034885Y-92418676D01*
X54117092Y-92393307D01*
X54198817Y-92362995D01*
X54272148Y-92345457D01*
X54342636Y-92323705D01*
X54432085Y-92307207D01*
X54521421Y-92285842D01*
X54591640Y-92277779D01*
X54659379Y-92265286D01*
X54755079Y-92259014D01*
X54850957Y-92248005D01*
X54916897Y-92248408D01*
X54980761Y-92244222D01*
X55081499Y-92249413D01*
X55081499Y-92249413D01*
G37*
G36*
X5081499Y-92249413D02*
G01*
X5182653Y-92250031D01*
X5243360Y-92257754D01*
X5302411Y-92260797D01*
X5406794Y-92278546D01*
X5511702Y-92291892D01*
X5566432Y-92305690D01*
X5619927Y-92314786D01*
X5726337Y-92346003D01*
X5833340Y-92372980D01*
X5881595Y-92391552D01*
X5928980Y-92405453D01*
X6035669Y-92450849D01*
X6142906Y-92492121D01*
X6184372Y-92514123D01*
X6225346Y-92531557D01*
X6330467Y-92591639D01*
X6435917Y-92647590D01*
X6470539Y-92671698D01*
X6504972Y-92691378D01*
X6606545Y-92766400D01*
X6708128Y-92837134D01*
X6736040Y-92862046D01*
X6764045Y-92882731D01*
X6860070Y-92972747D01*
X6955597Y-93058008D01*
X6977162Y-93082512D01*
X6999021Y-93103003D01*
X7087451Y-93207831D01*
X7174738Y-93307013D01*
X7190494Y-93329982D01*
X7206693Y-93349184D01*
X7285494Y-93468466D01*
X7362377Y-93580541D01*
X7373051Y-93601002D01*
X7384219Y-93617907D01*
X7451335Y-93751064D01*
X7515797Y-93874630D01*
X7522257Y-93891771D01*
X7529191Y-93905528D01*
X7582804Y-94052429D01*
X7632774Y-94185020D01*
X7635987Y-94198150D01*
X7639611Y-94208080D01*
X7677970Y-94369719D01*
X7711615Y-94507216D01*
X7712656Y-94515885D01*
X7713977Y-94521450D01*
X7735476Y-94705850D01*
X7751177Y-94836550D01*
X7746761Y-95225825D01*
X7728492Y-95353391D01*
X7726437Y-95400454D01*
X7711096Y-95474861D01*
X7699737Y-95554176D01*
X7678322Y-95633821D01*
X7661942Y-95713266D01*
X7635632Y-95792587D01*
X7613607Y-95874501D01*
X7584540Y-95946626D01*
X7560545Y-96018967D01*
X7523071Y-96099148D01*
X7489617Y-96182157D01*
X7454382Y-96246116D01*
X7424176Y-96310747D01*
X7375003Y-96390210D01*
X7329565Y-96472690D01*
X7289657Y-96528126D01*
X7254694Y-96584625D01*
X7193513Y-96661679D01*
X7135769Y-96741890D01*
X7092703Y-96788642D01*
X7054420Y-96836857D01*
X6981135Y-96909759D01*
X6911035Y-96985859D01*
X6866267Y-97024027D01*
X6826079Y-97064005D01*
X6740868Y-97130938D01*
X6658619Y-97201062D01*
X6613538Y-97230957D01*
X6572795Y-97262961D01*
X6476063Y-97322123D01*
X6382178Y-97384382D01*
X6338090Y-97406507D01*
X6298036Y-97431005D01*
X6190419Y-97480617D01*
X6085715Y-97533163D01*
X6043771Y-97548222D01*
X6005540Y-97565847D01*
X5887941Y-97604171D01*
X5773525Y-97645250D01*
X5734731Y-97654100D01*
X5699318Y-97665640D01*
X5572884Y-97691019D01*
X5450131Y-97719021D01*
X5415301Y-97722651D01*
X5383547Y-97729025D01*
X5249653Y-97739915D01*
X5120216Y-97753405D01*
X5089960Y-97752903D01*
X5062520Y-97755135D01*
X4922636Y-97750128D01*
X4788560Y-97747905D01*
X4763333Y-97744427D01*
X4740650Y-97743615D01*
X4596347Y-97721404D01*
X4459967Y-97702601D01*
X4439956Y-97697333D01*
X4422326Y-97694619D01*
X4275239Y-97653967D01*
X4139196Y-97618150D01*
X4124405Y-97612279D01*
X4111883Y-97608818D01*
X3962917Y-97548178D01*
X3830895Y-97495773D01*
X3821130Y-97490460D01*
X3813581Y-97487387D01*
X3661548Y-97403633D01*
X3539528Y-97337244D01*
X3534375Y-97333575D01*
X3531474Y-97331977D01*
X3354206Y-97205299D01*
X3269316Y-97144860D01*
X3192276Y-97074636D01*
X3031025Y-96928166D01*
X3028854Y-96925673D01*
X3024174Y-96921407D01*
X2933455Y-96816122D01*
X2819511Y-96685275D01*
X2814911Y-96678545D01*
X2807653Y-96670121D01*
X2728532Y-96552155D01*
X2637780Y-96419366D01*
X2631749Y-96407855D01*
X2622888Y-96394643D01*
X2559166Y-96269311D01*
X2488315Y-96134074D01*
X2481934Y-96117406D01*
X2472557Y-96098964D01*
X2425351Y-95969618D01*
X2373153Y-95833282D01*
X2367568Y-95811291D01*
X2358836Y-95787365D01*
X2328333Y-95656803D01*
X2293873Y-95521114D01*
X2290254Y-95493810D01*
X2283374Y-95464361D01*
X2269212Y-95335054D01*
X2251555Y-95201833D01*
X2251075Y-95169442D01*
X2247262Y-95134631D01*
X2248690Y-95008722D01*
X2246778Y-94879793D01*
X2250573Y-94842747D01*
X2251025Y-94802951D01*
X2266998Y-94682436D01*
X2279605Y-94559389D01*
X2288754Y-94518290D01*
X2294608Y-94474125D01*
X2323837Y-94360695D01*
X2349590Y-94245013D01*
X2365070Y-94200685D01*
X2377379Y-94152917D01*
X2418382Y-94048019D01*
X2455775Y-93940942D01*
X2478454Y-93894341D01*
X2498140Y-93843978D01*
X2549292Y-93748780D01*
X2596711Y-93651341D01*
X2627292Y-93603614D01*
X2655141Y-93551785D01*
X2714713Y-93467179D01*
X2770477Y-93380151D01*
X2809512Y-93332544D01*
X2846108Y-93280570D01*
X2912299Y-93207186D01*
X2974689Y-93131096D01*
X3022528Y-93084979D01*
X3068274Y-93034262D01*
X3139292Y-92972419D01*
X3206567Y-92907565D01*
X3263353Y-92864384D01*
X3318423Y-92816428D01*
X3392483Y-92766191D01*
X3462939Y-92712615D01*
X3528584Y-92673870D01*
X3592929Y-92630223D01*
X3668329Y-92591389D01*
X3740305Y-92548908D01*
X3814503Y-92516106D01*
X3887818Y-92478346D01*
X3962934Y-92450485D01*
X4034885Y-92418676D01*
X4117092Y-92393307D01*
X4198817Y-92362995D01*
X4272148Y-92345457D01*
X4342636Y-92323705D01*
X4432085Y-92307207D01*
X4521421Y-92285842D01*
X4591640Y-92277779D01*
X4659379Y-92265286D01*
X4755079Y-92259014D01*
X4850957Y-92248005D01*
X4916897Y-92248408D01*
X4980761Y-92244222D01*
X5081499Y-92249413D01*
X5081499Y-92249413D01*
G37*
G36*
X7369899Y-88101959D02*
G01*
X7386769Y-88113231D01*
X7398041Y-88130101D01*
X7404448Y-88162312D01*
X7404448Y-89837688D01*
X7401999Y-89850000D01*
X7398041Y-89869899D01*
X7386769Y-89886769D01*
X7369899Y-89898041D01*
X7350000Y-89901999D01*
X7337688Y-89904448D01*
X5662312Y-89904448D01*
X5630101Y-89898041D01*
X5613231Y-89886769D01*
X5601959Y-89869899D01*
X5595552Y-89837688D01*
X5595552Y-88162312D01*
X5601959Y-88130101D01*
X5613231Y-88113231D01*
X5630101Y-88101959D01*
X5662312Y-88095552D01*
X7337688Y-88095552D01*
X7369899Y-88101959D01*
X7369899Y-88101959D01*
G37*
G36*
X6688360Y-85573835D02*
G01*
X6769397Y-85600166D01*
X6856663Y-85627848D01*
X6859655Y-85629493D01*
X6868488Y-85632363D01*
X6940466Y-85673919D01*
X7011499Y-85712970D01*
X7018986Y-85719253D01*
X7032511Y-85727061D01*
X7090259Y-85779057D01*
X7146857Y-85826549D01*
X7156962Y-85839118D01*
X7173261Y-85853793D01*
X7215454Y-85911867D01*
X7257579Y-85964260D01*
X7267994Y-85984182D01*
X7284586Y-86007019D01*
X7311297Y-86067012D01*
X7339439Y-86120843D01*
X7347582Y-86148510D01*
X7361621Y-86180042D01*
X7373992Y-86238241D01*
X7389328Y-86290349D01*
X7392518Y-86325401D01*
X7400999Y-86365301D01*
X7400999Y-86418592D01*
X7405343Y-86466324D01*
X7400999Y-86507653D01*
X7400999Y-86554699D01*
X7391217Y-86600721D01*
X7386873Y-86642047D01*
X7372702Y-86687827D01*
X7361621Y-86739958D01*
X7345028Y-86777226D01*
X7334622Y-86810843D01*
X7308789Y-86858620D01*
X7284586Y-86912981D01*
X7264298Y-86940905D01*
X7250580Y-86966276D01*
X7211859Y-87013082D01*
X7173261Y-87066207D01*
X7152284Y-87085095D01*
X7137952Y-87102419D01*
X7085845Y-87144917D01*
X7032511Y-87192939D01*
X7013524Y-87203901D01*
X7001025Y-87214095D01*
X6935780Y-87248786D01*
X6868488Y-87287637D01*
X6853636Y-87292463D01*
X6845003Y-87297053D01*
X6767430Y-87320473D01*
X6688360Y-87346165D01*
X6679114Y-87347137D01*
X6675851Y-87348122D01*
X6584710Y-87357059D01*
X6547211Y-87361000D01*
X6452789Y-87361000D01*
X6311640Y-87346165D01*
X6230603Y-87319834D01*
X6143337Y-87292152D01*
X6140345Y-87290507D01*
X6131512Y-87287637D01*
X6059534Y-87246081D01*
X5988501Y-87207030D01*
X5981014Y-87200747D01*
X5967489Y-87192939D01*
X5909741Y-87140943D01*
X5853143Y-87093451D01*
X5843038Y-87080882D01*
X5826739Y-87066207D01*
X5784546Y-87008133D01*
X5742421Y-86955740D01*
X5732006Y-86935818D01*
X5715414Y-86912981D01*
X5688703Y-86852988D01*
X5660561Y-86799157D01*
X5652418Y-86771490D01*
X5638379Y-86739958D01*
X5626008Y-86681759D01*
X5610672Y-86629651D01*
X5607482Y-86594599D01*
X5599001Y-86554699D01*
X5599001Y-86501408D01*
X5594657Y-86453676D01*
X5599001Y-86412347D01*
X5599001Y-86365301D01*
X5608783Y-86319279D01*
X5613127Y-86277953D01*
X5627298Y-86232173D01*
X5638379Y-86180042D01*
X5654972Y-86142774D01*
X5665378Y-86109157D01*
X5691211Y-86061380D01*
X5715414Y-86007019D01*
X5735702Y-85979095D01*
X5749420Y-85953724D01*
X5788141Y-85906918D01*
X5826739Y-85853793D01*
X5847716Y-85834905D01*
X5862048Y-85817581D01*
X5914155Y-85775083D01*
X5967489Y-85727061D01*
X5986476Y-85716099D01*
X5998975Y-85705905D01*
X6064220Y-85671214D01*
X6131512Y-85632363D01*
X6146364Y-85627537D01*
X6154997Y-85622947D01*
X6232570Y-85599527D01*
X6311640Y-85573835D01*
X6320886Y-85572863D01*
X6324149Y-85571878D01*
X6415290Y-85562941D01*
X6452789Y-85559000D01*
X6547211Y-85559000D01*
X6688360Y-85573835D01*
X6688360Y-85573835D01*
G37*
G36*
X6688360Y-83033835D02*
G01*
X6769397Y-83060166D01*
X6856663Y-83087848D01*
X6859655Y-83089493D01*
X6868488Y-83092363D01*
X6940466Y-83133919D01*
X7011499Y-83172970D01*
X7018986Y-83179253D01*
X7032511Y-83187061D01*
X7090259Y-83239057D01*
X7146857Y-83286549D01*
X7156962Y-83299118D01*
X7173261Y-83313793D01*
X7215454Y-83371867D01*
X7257579Y-83424260D01*
X7267994Y-83444182D01*
X7284586Y-83467019D01*
X7311297Y-83527012D01*
X7339439Y-83580843D01*
X7347582Y-83608510D01*
X7361621Y-83640042D01*
X7373992Y-83698241D01*
X7389328Y-83750349D01*
X7392518Y-83785401D01*
X7400999Y-83825301D01*
X7400999Y-83878592D01*
X7405343Y-83926324D01*
X7400999Y-83967653D01*
X7400999Y-84014699D01*
X7391217Y-84060721D01*
X7386873Y-84102047D01*
X7372702Y-84147827D01*
X7361621Y-84199958D01*
X7345028Y-84237226D01*
X7334622Y-84270843D01*
X7308789Y-84318620D01*
X7284586Y-84372981D01*
X7264298Y-84400905D01*
X7250580Y-84426276D01*
X7211859Y-84473082D01*
X7173261Y-84526207D01*
X7152284Y-84545095D01*
X7137952Y-84562419D01*
X7085845Y-84604917D01*
X7032511Y-84652939D01*
X7013524Y-84663901D01*
X7001025Y-84674095D01*
X6935780Y-84708786D01*
X6868488Y-84747637D01*
X6853636Y-84752463D01*
X6845003Y-84757053D01*
X6767430Y-84780473D01*
X6688360Y-84806165D01*
X6679114Y-84807137D01*
X6675851Y-84808122D01*
X6584710Y-84817059D01*
X6547211Y-84821000D01*
X6452789Y-84821000D01*
X6311640Y-84806165D01*
X6230603Y-84779834D01*
X6143337Y-84752152D01*
X6140345Y-84750507D01*
X6131512Y-84747637D01*
X6059534Y-84706081D01*
X5988501Y-84667030D01*
X5981014Y-84660747D01*
X5967489Y-84652939D01*
X5909741Y-84600943D01*
X5853143Y-84553451D01*
X5843038Y-84540882D01*
X5826739Y-84526207D01*
X5784546Y-84468133D01*
X5742421Y-84415740D01*
X5732006Y-84395818D01*
X5715414Y-84372981D01*
X5688703Y-84312988D01*
X5660561Y-84259157D01*
X5652418Y-84231490D01*
X5638379Y-84199958D01*
X5626008Y-84141759D01*
X5610672Y-84089651D01*
X5607482Y-84054599D01*
X5599001Y-84014699D01*
X5599001Y-83961408D01*
X5594657Y-83913676D01*
X5599001Y-83872347D01*
X5599001Y-83825301D01*
X5608783Y-83779279D01*
X5613127Y-83737953D01*
X5627298Y-83692173D01*
X5638379Y-83640042D01*
X5654972Y-83602774D01*
X5665378Y-83569157D01*
X5691211Y-83521380D01*
X5715414Y-83467019D01*
X5735702Y-83439095D01*
X5749420Y-83413724D01*
X5788141Y-83366918D01*
X5826739Y-83313793D01*
X5847716Y-83294905D01*
X5862048Y-83277581D01*
X5914155Y-83235083D01*
X5967489Y-83187061D01*
X5986476Y-83176099D01*
X5998975Y-83165905D01*
X6064220Y-83131214D01*
X6131512Y-83092363D01*
X6146364Y-83087537D01*
X6154997Y-83082947D01*
X6232570Y-83059527D01*
X6311640Y-83033835D01*
X6320886Y-83032863D01*
X6324149Y-83031878D01*
X6415290Y-83022941D01*
X6452789Y-83019000D01*
X6547211Y-83019000D01*
X6688360Y-83033835D01*
X6688360Y-83033835D01*
G37*
G36*
X7369899Y-77101959D02*
G01*
X7386769Y-77113231D01*
X7398041Y-77130101D01*
X7404448Y-77162312D01*
X7404448Y-78837688D01*
X7401999Y-78850000D01*
X7398041Y-78869899D01*
X7386769Y-78886769D01*
X7369899Y-78898041D01*
X7350000Y-78901999D01*
X7337688Y-78904448D01*
X5662312Y-78904448D01*
X5630101Y-78898041D01*
X5613231Y-78886769D01*
X5601959Y-78869899D01*
X5595552Y-78837688D01*
X5595552Y-77162312D01*
X5601959Y-77130101D01*
X5613231Y-77113231D01*
X5630101Y-77101959D01*
X5662312Y-77095552D01*
X7337688Y-77095552D01*
X7369899Y-77101959D01*
X7369899Y-77101959D01*
G37*
G36*
X6688360Y-74573835D02*
G01*
X6769397Y-74600166D01*
X6856663Y-74627848D01*
X6859655Y-74629493D01*
X6868488Y-74632363D01*
X6940466Y-74673919D01*
X7011499Y-74712970D01*
X7018986Y-74719253D01*
X7032511Y-74727061D01*
X7090259Y-74779057D01*
X7146857Y-74826549D01*
X7156962Y-74839118D01*
X7173261Y-74853793D01*
X7215454Y-74911867D01*
X7257579Y-74964260D01*
X7267994Y-74984182D01*
X7284586Y-75007019D01*
X7311297Y-75067012D01*
X7339439Y-75120843D01*
X7347582Y-75148510D01*
X7361621Y-75180042D01*
X7373992Y-75238241D01*
X7389328Y-75290349D01*
X7392518Y-75325401D01*
X7400999Y-75365301D01*
X7400999Y-75418592D01*
X7405343Y-75466324D01*
X7400999Y-75507653D01*
X7400999Y-75554699D01*
X7391217Y-75600721D01*
X7386873Y-75642047D01*
X7372702Y-75687827D01*
X7361621Y-75739958D01*
X7345028Y-75777226D01*
X7334622Y-75810843D01*
X7308789Y-75858620D01*
X7284586Y-75912981D01*
X7264298Y-75940905D01*
X7250580Y-75966276D01*
X7211859Y-76013082D01*
X7173261Y-76066207D01*
X7152284Y-76085095D01*
X7137952Y-76102419D01*
X7085845Y-76144917D01*
X7032511Y-76192939D01*
X7013524Y-76203901D01*
X7001025Y-76214095D01*
X6935780Y-76248786D01*
X6868488Y-76287637D01*
X6853636Y-76292463D01*
X6845003Y-76297053D01*
X6767430Y-76320473D01*
X6688360Y-76346165D01*
X6679114Y-76347137D01*
X6675851Y-76348122D01*
X6584710Y-76357059D01*
X6547211Y-76361000D01*
X6452789Y-76361000D01*
X6311640Y-76346165D01*
X6230603Y-76319834D01*
X6143337Y-76292152D01*
X6140345Y-76290507D01*
X6131512Y-76287637D01*
X6059534Y-76246081D01*
X5988501Y-76207030D01*
X5981014Y-76200747D01*
X5967489Y-76192939D01*
X5909741Y-76140943D01*
X5853143Y-76093451D01*
X5843038Y-76080882D01*
X5826739Y-76066207D01*
X5784546Y-76008133D01*
X5742421Y-75955740D01*
X5732006Y-75935818D01*
X5715414Y-75912981D01*
X5688703Y-75852988D01*
X5660561Y-75799157D01*
X5652418Y-75771490D01*
X5638379Y-75739958D01*
X5626008Y-75681759D01*
X5610672Y-75629651D01*
X5607482Y-75594599D01*
X5599001Y-75554699D01*
X5599001Y-75501408D01*
X5594657Y-75453676D01*
X5599001Y-75412347D01*
X5599001Y-75365301D01*
X5608783Y-75319279D01*
X5613127Y-75277953D01*
X5627298Y-75232173D01*
X5638379Y-75180042D01*
X5654972Y-75142774D01*
X5665378Y-75109157D01*
X5691211Y-75061380D01*
X5715414Y-75007019D01*
X5735702Y-74979095D01*
X5749420Y-74953724D01*
X5788141Y-74906918D01*
X5826739Y-74853793D01*
X5847716Y-74834905D01*
X5862048Y-74817581D01*
X5914155Y-74775083D01*
X5967489Y-74727061D01*
X5986476Y-74716099D01*
X5998975Y-74705905D01*
X6064220Y-74671214D01*
X6131512Y-74632363D01*
X6146364Y-74627537D01*
X6154997Y-74622947D01*
X6232570Y-74599527D01*
X6311640Y-74573835D01*
X6320886Y-74572863D01*
X6324149Y-74571878D01*
X6415290Y-74562941D01*
X6452789Y-74559000D01*
X6547211Y-74559000D01*
X6688360Y-74573835D01*
X6688360Y-74573835D01*
G37*
G36*
X6688360Y-72033835D02*
G01*
X6769397Y-72060166D01*
X6856663Y-72087848D01*
X6859655Y-72089493D01*
X6868488Y-72092363D01*
X6940466Y-72133919D01*
X7011499Y-72172970D01*
X7018986Y-72179253D01*
X7032511Y-72187061D01*
X7090259Y-72239057D01*
X7146857Y-72286549D01*
X7156962Y-72299118D01*
X7173261Y-72313793D01*
X7215454Y-72371867D01*
X7257579Y-72424260D01*
X7267994Y-72444182D01*
X7284586Y-72467019D01*
X7311297Y-72527012D01*
X7339439Y-72580843D01*
X7347582Y-72608510D01*
X7361621Y-72640042D01*
X7373992Y-72698241D01*
X7389328Y-72750349D01*
X7392518Y-72785401D01*
X7400999Y-72825301D01*
X7400999Y-72878592D01*
X7405343Y-72926324D01*
X7400999Y-72967653D01*
X7400999Y-73014699D01*
X7391217Y-73060721D01*
X7386873Y-73102047D01*
X7372702Y-73147827D01*
X7361621Y-73199958D01*
X7345028Y-73237226D01*
X7334622Y-73270843D01*
X7308789Y-73318620D01*
X7284586Y-73372981D01*
X7264298Y-73400905D01*
X7250580Y-73426276D01*
X7211859Y-73473082D01*
X7173261Y-73526207D01*
X7152284Y-73545095D01*
X7137952Y-73562419D01*
X7085845Y-73604917D01*
X7032511Y-73652939D01*
X7013524Y-73663901D01*
X7001025Y-73674095D01*
X6935780Y-73708786D01*
X6868488Y-73747637D01*
X6853636Y-73752463D01*
X6845003Y-73757053D01*
X6767430Y-73780473D01*
X6688360Y-73806165D01*
X6679114Y-73807137D01*
X6675851Y-73808122D01*
X6584710Y-73817059D01*
X6547211Y-73821000D01*
X6452789Y-73821000D01*
X6311640Y-73806165D01*
X6230603Y-73779834D01*
X6143337Y-73752152D01*
X6140345Y-73750507D01*
X6131512Y-73747637D01*
X6059534Y-73706081D01*
X5988501Y-73667030D01*
X5981014Y-73660747D01*
X5967489Y-73652939D01*
X5909741Y-73600943D01*
X5853143Y-73553451D01*
X5843038Y-73540882D01*
X5826739Y-73526207D01*
X5784546Y-73468133D01*
X5742421Y-73415740D01*
X5732006Y-73395818D01*
X5715414Y-73372981D01*
X5688703Y-73312988D01*
X5660561Y-73259157D01*
X5652418Y-73231490D01*
X5638379Y-73199958D01*
X5626008Y-73141759D01*
X5610672Y-73089651D01*
X5607482Y-73054599D01*
X5599001Y-73014699D01*
X5599001Y-72961408D01*
X5594657Y-72913676D01*
X5599001Y-72872347D01*
X5599001Y-72825301D01*
X5608783Y-72779279D01*
X5613127Y-72737953D01*
X5627298Y-72692173D01*
X5638379Y-72640042D01*
X5654972Y-72602774D01*
X5665378Y-72569157D01*
X5691211Y-72521380D01*
X5715414Y-72467019D01*
X5735702Y-72439095D01*
X5749420Y-72413724D01*
X5788141Y-72366918D01*
X5826739Y-72313793D01*
X5847716Y-72294905D01*
X5862048Y-72277581D01*
X5914155Y-72235083D01*
X5967489Y-72187061D01*
X5986476Y-72176099D01*
X5998975Y-72165905D01*
X6064220Y-72131214D01*
X6131512Y-72092363D01*
X6146364Y-72087537D01*
X6154997Y-72082947D01*
X6232570Y-72059527D01*
X6311640Y-72033835D01*
X6320886Y-72032863D01*
X6324149Y-72031878D01*
X6415290Y-72022941D01*
X6452789Y-72019000D01*
X6547211Y-72019000D01*
X6688360Y-72033835D01*
X6688360Y-72033835D01*
G37*
G36*
X6688360Y-69493835D02*
G01*
X6769397Y-69520166D01*
X6856663Y-69547848D01*
X6859655Y-69549493D01*
X6868488Y-69552363D01*
X6940466Y-69593919D01*
X7011499Y-69632970D01*
X7018986Y-69639253D01*
X7032511Y-69647061D01*
X7090259Y-69699057D01*
X7146857Y-69746549D01*
X7156962Y-69759118D01*
X7173261Y-69773793D01*
X7215454Y-69831867D01*
X7257579Y-69884260D01*
X7267994Y-69904182D01*
X7284586Y-69927019D01*
X7311297Y-69987012D01*
X7339439Y-70040843D01*
X7347582Y-70068510D01*
X7361621Y-70100042D01*
X7373992Y-70158241D01*
X7389328Y-70210349D01*
X7392518Y-70245401D01*
X7400999Y-70285301D01*
X7400999Y-70338592D01*
X7405343Y-70386324D01*
X7400999Y-70427653D01*
X7400999Y-70474699D01*
X7391217Y-70520721D01*
X7386873Y-70562047D01*
X7372702Y-70607827D01*
X7361621Y-70659958D01*
X7345028Y-70697226D01*
X7334622Y-70730843D01*
X7308789Y-70778620D01*
X7284586Y-70832981D01*
X7264298Y-70860905D01*
X7250580Y-70886276D01*
X7211859Y-70933082D01*
X7173261Y-70986207D01*
X7152284Y-71005095D01*
X7137952Y-71022419D01*
X7085845Y-71064917D01*
X7032511Y-71112939D01*
X7013524Y-71123901D01*
X7001025Y-71134095D01*
X6935780Y-71168786D01*
X6868488Y-71207637D01*
X6853636Y-71212463D01*
X6845003Y-71217053D01*
X6767430Y-71240473D01*
X6688360Y-71266165D01*
X6679114Y-71267137D01*
X6675851Y-71268122D01*
X6584710Y-71277059D01*
X6547211Y-71281000D01*
X6452789Y-71281000D01*
X6311640Y-71266165D01*
X6230603Y-71239834D01*
X6143337Y-71212152D01*
X6140345Y-71210507D01*
X6131512Y-71207637D01*
X6059534Y-71166081D01*
X5988501Y-71127030D01*
X5981014Y-71120747D01*
X5967489Y-71112939D01*
X5909741Y-71060943D01*
X5853143Y-71013451D01*
X5843038Y-71000882D01*
X5826739Y-70986207D01*
X5784546Y-70928133D01*
X5742421Y-70875740D01*
X5732006Y-70855818D01*
X5715414Y-70832981D01*
X5688703Y-70772988D01*
X5660561Y-70719157D01*
X5652418Y-70691490D01*
X5638379Y-70659958D01*
X5626008Y-70601759D01*
X5610672Y-70549651D01*
X5607482Y-70514599D01*
X5599001Y-70474699D01*
X5599001Y-70421408D01*
X5594657Y-70373676D01*
X5599001Y-70332347D01*
X5599001Y-70285301D01*
X5608783Y-70239279D01*
X5613127Y-70197953D01*
X5627298Y-70152173D01*
X5638379Y-70100042D01*
X5654972Y-70062774D01*
X5665378Y-70029157D01*
X5691211Y-69981380D01*
X5715414Y-69927019D01*
X5735702Y-69899095D01*
X5749420Y-69873724D01*
X5788141Y-69826918D01*
X5826739Y-69773793D01*
X5847716Y-69754905D01*
X5862048Y-69737581D01*
X5914155Y-69695083D01*
X5967489Y-69647061D01*
X5986476Y-69636099D01*
X5998975Y-69625905D01*
X6064220Y-69591214D01*
X6131512Y-69552363D01*
X6146364Y-69547537D01*
X6154997Y-69542947D01*
X6232570Y-69519527D01*
X6311640Y-69493835D01*
X6320886Y-69492863D01*
X6324149Y-69491878D01*
X6415290Y-69482941D01*
X6452789Y-69479000D01*
X6547211Y-69479000D01*
X6688360Y-69493835D01*
X6688360Y-69493835D01*
G37*
G36*
X7369899Y-63101959D02*
G01*
X7386769Y-63113231D01*
X7398041Y-63130101D01*
X7404448Y-63162312D01*
X7404448Y-64837688D01*
X7401999Y-64850000D01*
X7398041Y-64869899D01*
X7386769Y-64886769D01*
X7369899Y-64898041D01*
X7350000Y-64901999D01*
X7337688Y-64904448D01*
X5662312Y-64904448D01*
X5630101Y-64898041D01*
X5613231Y-64886769D01*
X5601959Y-64869899D01*
X5595552Y-64837688D01*
X5595552Y-63162312D01*
X5601959Y-63130101D01*
X5613231Y-63113231D01*
X5630101Y-63101959D01*
X5662312Y-63095552D01*
X7337688Y-63095552D01*
X7369899Y-63101959D01*
X7369899Y-63101959D01*
G37*
G36*
X6688360Y-60573835D02*
G01*
X6769397Y-60600166D01*
X6856663Y-60627848D01*
X6859655Y-60629493D01*
X6868488Y-60632363D01*
X6940466Y-60673919D01*
X7011499Y-60712970D01*
X7018986Y-60719253D01*
X7032511Y-60727061D01*
X7090259Y-60779057D01*
X7146857Y-60826549D01*
X7156962Y-60839118D01*
X7173261Y-60853793D01*
X7215454Y-60911867D01*
X7257579Y-60964260D01*
X7267994Y-60984182D01*
X7284586Y-61007019D01*
X7311297Y-61067012D01*
X7339439Y-61120843D01*
X7347582Y-61148510D01*
X7361621Y-61180042D01*
X7373992Y-61238241D01*
X7389328Y-61290349D01*
X7392518Y-61325401D01*
X7400999Y-61365301D01*
X7400999Y-61418592D01*
X7405343Y-61466324D01*
X7400999Y-61507653D01*
X7400999Y-61554699D01*
X7391217Y-61600721D01*
X7386873Y-61642047D01*
X7372702Y-61687827D01*
X7361621Y-61739958D01*
X7345028Y-61777226D01*
X7334622Y-61810843D01*
X7308789Y-61858620D01*
X7284586Y-61912981D01*
X7264298Y-61940905D01*
X7250580Y-61966276D01*
X7211859Y-62013082D01*
X7173261Y-62066207D01*
X7152284Y-62085095D01*
X7137952Y-62102419D01*
X7085845Y-62144917D01*
X7032511Y-62192939D01*
X7013524Y-62203901D01*
X7001025Y-62214095D01*
X6935780Y-62248786D01*
X6868488Y-62287637D01*
X6853636Y-62292463D01*
X6845003Y-62297053D01*
X6767430Y-62320473D01*
X6688360Y-62346165D01*
X6679114Y-62347137D01*
X6675851Y-62348122D01*
X6584710Y-62357059D01*
X6547211Y-62361000D01*
X6452789Y-62361000D01*
X6311640Y-62346165D01*
X6230603Y-62319834D01*
X6143337Y-62292152D01*
X6140345Y-62290507D01*
X6131512Y-62287637D01*
X6059534Y-62246081D01*
X5988501Y-62207030D01*
X5981014Y-62200747D01*
X5967489Y-62192939D01*
X5909741Y-62140943D01*
X5853143Y-62093451D01*
X5843038Y-62080882D01*
X5826739Y-62066207D01*
X5784546Y-62008133D01*
X5742421Y-61955740D01*
X5732006Y-61935818D01*
X5715414Y-61912981D01*
X5688703Y-61852988D01*
X5660561Y-61799157D01*
X5652418Y-61771490D01*
X5638379Y-61739958D01*
X5626008Y-61681759D01*
X5610672Y-61629651D01*
X5607482Y-61594599D01*
X5599001Y-61554699D01*
X5599001Y-61501408D01*
X5594657Y-61453676D01*
X5599001Y-61412347D01*
X5599001Y-61365301D01*
X5608783Y-61319279D01*
X5613127Y-61277953D01*
X5627298Y-61232173D01*
X5638379Y-61180042D01*
X5654972Y-61142774D01*
X5665378Y-61109157D01*
X5691211Y-61061380D01*
X5715414Y-61007019D01*
X5735702Y-60979095D01*
X5749420Y-60953724D01*
X5788141Y-60906918D01*
X5826739Y-60853793D01*
X5847716Y-60834905D01*
X5862048Y-60817581D01*
X5914155Y-60775083D01*
X5967489Y-60727061D01*
X5986476Y-60716099D01*
X5998975Y-60705905D01*
X6064220Y-60671214D01*
X6131512Y-60632363D01*
X6146364Y-60627537D01*
X6154997Y-60622947D01*
X6232570Y-60599527D01*
X6311640Y-60573835D01*
X6320886Y-60572863D01*
X6324149Y-60571878D01*
X6415290Y-60562941D01*
X6452789Y-60559000D01*
X6547211Y-60559000D01*
X6688360Y-60573835D01*
X6688360Y-60573835D01*
G37*
G36*
X6688360Y-58033835D02*
G01*
X6769397Y-58060166D01*
X6856663Y-58087848D01*
X6859655Y-58089493D01*
X6868488Y-58092363D01*
X6940466Y-58133919D01*
X7011499Y-58172970D01*
X7018986Y-58179253D01*
X7032511Y-58187061D01*
X7090259Y-58239057D01*
X7146857Y-58286549D01*
X7156962Y-58299118D01*
X7173261Y-58313793D01*
X7215454Y-58371867D01*
X7257579Y-58424260D01*
X7267994Y-58444182D01*
X7284586Y-58467019D01*
X7311297Y-58527012D01*
X7339439Y-58580843D01*
X7347582Y-58608510D01*
X7361621Y-58640042D01*
X7373992Y-58698241D01*
X7389328Y-58750349D01*
X7392518Y-58785401D01*
X7400999Y-58825301D01*
X7400999Y-58878592D01*
X7405343Y-58926324D01*
X7400999Y-58967653D01*
X7400999Y-59014699D01*
X7391217Y-59060721D01*
X7386873Y-59102047D01*
X7372702Y-59147827D01*
X7361621Y-59199958D01*
X7345028Y-59237226D01*
X7334622Y-59270843D01*
X7308789Y-59318620D01*
X7284586Y-59372981D01*
X7264298Y-59400905D01*
X7250580Y-59426276D01*
X7211859Y-59473082D01*
X7173261Y-59526207D01*
X7152284Y-59545095D01*
X7137952Y-59562419D01*
X7085845Y-59604917D01*
X7032511Y-59652939D01*
X7013524Y-59663901D01*
X7001025Y-59674095D01*
X6935780Y-59708786D01*
X6868488Y-59747637D01*
X6853636Y-59752463D01*
X6845003Y-59757053D01*
X6767430Y-59780473D01*
X6688360Y-59806165D01*
X6679114Y-59807137D01*
X6675851Y-59808122D01*
X6584710Y-59817059D01*
X6547211Y-59821000D01*
X6452789Y-59821000D01*
X6311640Y-59806165D01*
X6230603Y-59779834D01*
X6143337Y-59752152D01*
X6140345Y-59750507D01*
X6131512Y-59747637D01*
X6059534Y-59706081D01*
X5988501Y-59667030D01*
X5981014Y-59660747D01*
X5967489Y-59652939D01*
X5909741Y-59600943D01*
X5853143Y-59553451D01*
X5843038Y-59540882D01*
X5826739Y-59526207D01*
X5784546Y-59468133D01*
X5742421Y-59415740D01*
X5732006Y-59395818D01*
X5715414Y-59372981D01*
X5688703Y-59312988D01*
X5660561Y-59259157D01*
X5652418Y-59231490D01*
X5638379Y-59199958D01*
X5626008Y-59141759D01*
X5610672Y-59089651D01*
X5607482Y-59054599D01*
X5599001Y-59014699D01*
X5599001Y-58961408D01*
X5594657Y-58913676D01*
X5599001Y-58872347D01*
X5599001Y-58825301D01*
X5608783Y-58779279D01*
X5613127Y-58737953D01*
X5627298Y-58692173D01*
X5638379Y-58640042D01*
X5654972Y-58602774D01*
X5665378Y-58569157D01*
X5691211Y-58521380D01*
X5715414Y-58467019D01*
X5735702Y-58439095D01*
X5749420Y-58413724D01*
X5788141Y-58366918D01*
X5826739Y-58313793D01*
X5847716Y-58294905D01*
X5862048Y-58277581D01*
X5914155Y-58235083D01*
X5967489Y-58187061D01*
X5986476Y-58176099D01*
X5998975Y-58165905D01*
X6064220Y-58131214D01*
X6131512Y-58092363D01*
X6146364Y-58087537D01*
X6154997Y-58082947D01*
X6232570Y-58059527D01*
X6311640Y-58033835D01*
X6320886Y-58032863D01*
X6324149Y-58031878D01*
X6415290Y-58022941D01*
X6452789Y-58019000D01*
X6547211Y-58019000D01*
X6688360Y-58033835D01*
X6688360Y-58033835D01*
G37*
G36*
X7369899Y-52101959D02*
G01*
X7386769Y-52113231D01*
X7398041Y-52130101D01*
X7404448Y-52162312D01*
X7404448Y-53837688D01*
X7401999Y-53850000D01*
X7398041Y-53869899D01*
X7386769Y-53886769D01*
X7369899Y-53898041D01*
X7350000Y-53901999D01*
X7337688Y-53904448D01*
X5662312Y-53904448D01*
X5630101Y-53898041D01*
X5613231Y-53886769D01*
X5601959Y-53869899D01*
X5595552Y-53837688D01*
X5595552Y-52162312D01*
X5601959Y-52130101D01*
X5613231Y-52113231D01*
X5630101Y-52101959D01*
X5662312Y-52095552D01*
X7337688Y-52095552D01*
X7369899Y-52101959D01*
X7369899Y-52101959D01*
G37*
G36*
X6688360Y-49573835D02*
G01*
X6769397Y-49600166D01*
X6856663Y-49627848D01*
X6859655Y-49629493D01*
X6868488Y-49632363D01*
X6940466Y-49673919D01*
X7011499Y-49712970D01*
X7018986Y-49719253D01*
X7032511Y-49727061D01*
X7090259Y-49779057D01*
X7146857Y-49826549D01*
X7156962Y-49839118D01*
X7173261Y-49853793D01*
X7215454Y-49911867D01*
X7257579Y-49964260D01*
X7267994Y-49984182D01*
X7284586Y-50007019D01*
X7311297Y-50067012D01*
X7339439Y-50120843D01*
X7347582Y-50148510D01*
X7361621Y-50180042D01*
X7373992Y-50238241D01*
X7389328Y-50290349D01*
X7392518Y-50325401D01*
X7400999Y-50365301D01*
X7400999Y-50418592D01*
X7405343Y-50466324D01*
X7400999Y-50507653D01*
X7400999Y-50554699D01*
X7391217Y-50600721D01*
X7386873Y-50642047D01*
X7372702Y-50687827D01*
X7361621Y-50739958D01*
X7345028Y-50777226D01*
X7334622Y-50810843D01*
X7308789Y-50858620D01*
X7284586Y-50912981D01*
X7264298Y-50940905D01*
X7250580Y-50966276D01*
X7211859Y-51013082D01*
X7173261Y-51066207D01*
X7152284Y-51085095D01*
X7137952Y-51102419D01*
X7085845Y-51144917D01*
X7032511Y-51192939D01*
X7013524Y-51203901D01*
X7001025Y-51214095D01*
X6935780Y-51248786D01*
X6868488Y-51287637D01*
X6853636Y-51292463D01*
X6845003Y-51297053D01*
X6767430Y-51320473D01*
X6688360Y-51346165D01*
X6679114Y-51347137D01*
X6675851Y-51348122D01*
X6584710Y-51357059D01*
X6547211Y-51361000D01*
X6452789Y-51361000D01*
X6311640Y-51346165D01*
X6230603Y-51319834D01*
X6143337Y-51292152D01*
X6140345Y-51290507D01*
X6131512Y-51287637D01*
X6059534Y-51246081D01*
X5988501Y-51207030D01*
X5981014Y-51200747D01*
X5967489Y-51192939D01*
X5909741Y-51140943D01*
X5853143Y-51093451D01*
X5843038Y-51080882D01*
X5826739Y-51066207D01*
X5784546Y-51008133D01*
X5742421Y-50955740D01*
X5732006Y-50935818D01*
X5715414Y-50912981D01*
X5688703Y-50852988D01*
X5660561Y-50799157D01*
X5652418Y-50771490D01*
X5638379Y-50739958D01*
X5626008Y-50681759D01*
X5610672Y-50629651D01*
X5607482Y-50594599D01*
X5599001Y-50554699D01*
X5599001Y-50501408D01*
X5594657Y-50453676D01*
X5599001Y-50412347D01*
X5599001Y-50365301D01*
X5608783Y-50319279D01*
X5613127Y-50277953D01*
X5627298Y-50232173D01*
X5638379Y-50180042D01*
X5654972Y-50142774D01*
X5665378Y-50109157D01*
X5691211Y-50061380D01*
X5715414Y-50007019D01*
X5735702Y-49979095D01*
X5749420Y-49953724D01*
X5788141Y-49906918D01*
X5826739Y-49853793D01*
X5847716Y-49834905D01*
X5862048Y-49817581D01*
X5914155Y-49775083D01*
X5967489Y-49727061D01*
X5986476Y-49716099D01*
X5998975Y-49705905D01*
X6064220Y-49671214D01*
X6131512Y-49632363D01*
X6146364Y-49627537D01*
X6154997Y-49622947D01*
X6232570Y-49599527D01*
X6311640Y-49573835D01*
X6320886Y-49572863D01*
X6324149Y-49571878D01*
X6415290Y-49562941D01*
X6452789Y-49559000D01*
X6547211Y-49559000D01*
X6688360Y-49573835D01*
X6688360Y-49573835D01*
G37*
G36*
X6688360Y-47033835D02*
G01*
X6769397Y-47060166D01*
X6856663Y-47087848D01*
X6859655Y-47089493D01*
X6868488Y-47092363D01*
X6940466Y-47133919D01*
X7011499Y-47172970D01*
X7018986Y-47179253D01*
X7032511Y-47187061D01*
X7090259Y-47239057D01*
X7146857Y-47286549D01*
X7156962Y-47299118D01*
X7173261Y-47313793D01*
X7215454Y-47371867D01*
X7257579Y-47424260D01*
X7267994Y-47444182D01*
X7284586Y-47467019D01*
X7311297Y-47527012D01*
X7339439Y-47580843D01*
X7347582Y-47608510D01*
X7361621Y-47640042D01*
X7373992Y-47698241D01*
X7389328Y-47750349D01*
X7392518Y-47785401D01*
X7400999Y-47825301D01*
X7400999Y-47878592D01*
X7405343Y-47926324D01*
X7400999Y-47967653D01*
X7400999Y-48014699D01*
X7391217Y-48060721D01*
X7386873Y-48102047D01*
X7372702Y-48147827D01*
X7361621Y-48199958D01*
X7345028Y-48237226D01*
X7334622Y-48270843D01*
X7308789Y-48318620D01*
X7284586Y-48372981D01*
X7264298Y-48400905D01*
X7250580Y-48426276D01*
X7211859Y-48473082D01*
X7173261Y-48526207D01*
X7152284Y-48545095D01*
X7137952Y-48562419D01*
X7085845Y-48604917D01*
X7032511Y-48652939D01*
X7013524Y-48663901D01*
X7001025Y-48674095D01*
X6935780Y-48708786D01*
X6868488Y-48747637D01*
X6853636Y-48752463D01*
X6845003Y-48757053D01*
X6767430Y-48780473D01*
X6688360Y-48806165D01*
X6679114Y-48807137D01*
X6675851Y-48808122D01*
X6584710Y-48817059D01*
X6547211Y-48821000D01*
X6452789Y-48821000D01*
X6311640Y-48806165D01*
X6230603Y-48779834D01*
X6143337Y-48752152D01*
X6140345Y-48750507D01*
X6131512Y-48747637D01*
X6059534Y-48706081D01*
X5988501Y-48667030D01*
X5981014Y-48660747D01*
X5967489Y-48652939D01*
X5909741Y-48600943D01*
X5853143Y-48553451D01*
X5843038Y-48540882D01*
X5826739Y-48526207D01*
X5784546Y-48468133D01*
X5742421Y-48415740D01*
X5732006Y-48395818D01*
X5715414Y-48372981D01*
X5688703Y-48312988D01*
X5660561Y-48259157D01*
X5652418Y-48231490D01*
X5638379Y-48199958D01*
X5626008Y-48141759D01*
X5610672Y-48089651D01*
X5607482Y-48054599D01*
X5599001Y-48014699D01*
X5599001Y-47961408D01*
X5594657Y-47913676D01*
X5599001Y-47872347D01*
X5599001Y-47825301D01*
X5608783Y-47779279D01*
X5613127Y-47737953D01*
X5627298Y-47692173D01*
X5638379Y-47640042D01*
X5654972Y-47602774D01*
X5665378Y-47569157D01*
X5691211Y-47521380D01*
X5715414Y-47467019D01*
X5735702Y-47439095D01*
X5749420Y-47413724D01*
X5788141Y-47366918D01*
X5826739Y-47313793D01*
X5847716Y-47294905D01*
X5862048Y-47277581D01*
X5914155Y-47235083D01*
X5967489Y-47187061D01*
X5986476Y-47176099D01*
X5998975Y-47165905D01*
X6064220Y-47131214D01*
X6131512Y-47092363D01*
X6146364Y-47087537D01*
X6154997Y-47082947D01*
X6232570Y-47059527D01*
X6311640Y-47033835D01*
X6320886Y-47032863D01*
X6324149Y-47031878D01*
X6415290Y-47022941D01*
X6452789Y-47019000D01*
X6547211Y-47019000D01*
X6688360Y-47033835D01*
X6688360Y-47033835D01*
G37*
G36*
X6688360Y-44493835D02*
G01*
X6769397Y-44520166D01*
X6856663Y-44547848D01*
X6859655Y-44549493D01*
X6868488Y-44552363D01*
X6940466Y-44593919D01*
X7011499Y-44632970D01*
X7018986Y-44639253D01*
X7032511Y-44647061D01*
X7090259Y-44699057D01*
X7146857Y-44746549D01*
X7156962Y-44759118D01*
X7173261Y-44773793D01*
X7215454Y-44831867D01*
X7257579Y-44884260D01*
X7267994Y-44904182D01*
X7284586Y-44927019D01*
X7311297Y-44987012D01*
X7339439Y-45040843D01*
X7347582Y-45068510D01*
X7361621Y-45100042D01*
X7373992Y-45158241D01*
X7389328Y-45210349D01*
X7392518Y-45245401D01*
X7400999Y-45285301D01*
X7400999Y-45338592D01*
X7405343Y-45386324D01*
X7400999Y-45427653D01*
X7400999Y-45474699D01*
X7391217Y-45520721D01*
X7386873Y-45562047D01*
X7372702Y-45607827D01*
X7361621Y-45659958D01*
X7345028Y-45697226D01*
X7334622Y-45730843D01*
X7308789Y-45778620D01*
X7284586Y-45832981D01*
X7264298Y-45860905D01*
X7250580Y-45886276D01*
X7211859Y-45933082D01*
X7173261Y-45986207D01*
X7152284Y-46005095D01*
X7137952Y-46022419D01*
X7085845Y-46064917D01*
X7032511Y-46112939D01*
X7013524Y-46123901D01*
X7001025Y-46134095D01*
X6935780Y-46168786D01*
X6868488Y-46207637D01*
X6853636Y-46212463D01*
X6845003Y-46217053D01*
X6767430Y-46240473D01*
X6688360Y-46266165D01*
X6679114Y-46267137D01*
X6675851Y-46268122D01*
X6584710Y-46277059D01*
X6547211Y-46281000D01*
X6452789Y-46281000D01*
X6311640Y-46266165D01*
X6230603Y-46239834D01*
X6143337Y-46212152D01*
X6140345Y-46210507D01*
X6131512Y-46207637D01*
X6059534Y-46166081D01*
X5988501Y-46127030D01*
X5981014Y-46120747D01*
X5967489Y-46112939D01*
X5909741Y-46060943D01*
X5853143Y-46013451D01*
X5843038Y-46000882D01*
X5826739Y-45986207D01*
X5784546Y-45928133D01*
X5742421Y-45875740D01*
X5732006Y-45855818D01*
X5715414Y-45832981D01*
X5688703Y-45772988D01*
X5660561Y-45719157D01*
X5652418Y-45691490D01*
X5638379Y-45659958D01*
X5626008Y-45601759D01*
X5610672Y-45549651D01*
X5607482Y-45514599D01*
X5599001Y-45474699D01*
X5599001Y-45421408D01*
X5594657Y-45373676D01*
X5599001Y-45332347D01*
X5599001Y-45285301D01*
X5608783Y-45239279D01*
X5613127Y-45197953D01*
X5627298Y-45152173D01*
X5638379Y-45100042D01*
X5654972Y-45062774D01*
X5665378Y-45029157D01*
X5691211Y-44981380D01*
X5715414Y-44927019D01*
X5735702Y-44899095D01*
X5749420Y-44873724D01*
X5788141Y-44826918D01*
X5826739Y-44773793D01*
X5847716Y-44754905D01*
X5862048Y-44737581D01*
X5914155Y-44695083D01*
X5967489Y-44647061D01*
X5986476Y-44636099D01*
X5998975Y-44625905D01*
X6064220Y-44591214D01*
X6131512Y-44552363D01*
X6146364Y-44547537D01*
X6154997Y-44542947D01*
X6232570Y-44519527D01*
X6311640Y-44493835D01*
X6320886Y-44492863D01*
X6324149Y-44491878D01*
X6415290Y-44482941D01*
X6452789Y-44479000D01*
X6547211Y-44479000D01*
X6688360Y-44493835D01*
X6688360Y-44493835D01*
G37*
G36*
X6688360Y-41953835D02*
G01*
X6769397Y-41980166D01*
X6856663Y-42007848D01*
X6859655Y-42009493D01*
X6868488Y-42012363D01*
X6940466Y-42053919D01*
X7011499Y-42092970D01*
X7018986Y-42099253D01*
X7032511Y-42107061D01*
X7090259Y-42159057D01*
X7146857Y-42206549D01*
X7156962Y-42219118D01*
X7173261Y-42233793D01*
X7215454Y-42291867D01*
X7257579Y-42344260D01*
X7267994Y-42364182D01*
X7284586Y-42387019D01*
X7311297Y-42447012D01*
X7339439Y-42500843D01*
X7347582Y-42528510D01*
X7361621Y-42560042D01*
X7373992Y-42618241D01*
X7389328Y-42670349D01*
X7392518Y-42705401D01*
X7400999Y-42745301D01*
X7400999Y-42798592D01*
X7405343Y-42846324D01*
X7400999Y-42887653D01*
X7400999Y-42934699D01*
X7391217Y-42980721D01*
X7386873Y-43022047D01*
X7372702Y-43067827D01*
X7361621Y-43119958D01*
X7345028Y-43157226D01*
X7334622Y-43190843D01*
X7308789Y-43238620D01*
X7284586Y-43292981D01*
X7264298Y-43320905D01*
X7250580Y-43346276D01*
X7211859Y-43393082D01*
X7173261Y-43446207D01*
X7152284Y-43465095D01*
X7137952Y-43482419D01*
X7085845Y-43524917D01*
X7032511Y-43572939D01*
X7013524Y-43583901D01*
X7001025Y-43594095D01*
X6935780Y-43628786D01*
X6868488Y-43667637D01*
X6853636Y-43672463D01*
X6845003Y-43677053D01*
X6767430Y-43700473D01*
X6688360Y-43726165D01*
X6679114Y-43727137D01*
X6675851Y-43728122D01*
X6584710Y-43737059D01*
X6547211Y-43741000D01*
X6452789Y-43741000D01*
X6311640Y-43726165D01*
X6230603Y-43699834D01*
X6143337Y-43672152D01*
X6140345Y-43670507D01*
X6131512Y-43667637D01*
X6059534Y-43626081D01*
X5988501Y-43587030D01*
X5981014Y-43580747D01*
X5967489Y-43572939D01*
X5909741Y-43520943D01*
X5853143Y-43473451D01*
X5843038Y-43460882D01*
X5826739Y-43446207D01*
X5784546Y-43388133D01*
X5742421Y-43335740D01*
X5732006Y-43315818D01*
X5715414Y-43292981D01*
X5688703Y-43232988D01*
X5660561Y-43179157D01*
X5652418Y-43151490D01*
X5638379Y-43119958D01*
X5626008Y-43061759D01*
X5610672Y-43009651D01*
X5607482Y-42974599D01*
X5599001Y-42934699D01*
X5599001Y-42881408D01*
X5594657Y-42833676D01*
X5599001Y-42792347D01*
X5599001Y-42745301D01*
X5608783Y-42699279D01*
X5613127Y-42657953D01*
X5627298Y-42612173D01*
X5638379Y-42560042D01*
X5654972Y-42522774D01*
X5665378Y-42489157D01*
X5691211Y-42441380D01*
X5715414Y-42387019D01*
X5735702Y-42359095D01*
X5749420Y-42333724D01*
X5788141Y-42286918D01*
X5826739Y-42233793D01*
X5847716Y-42214905D01*
X5862048Y-42197581D01*
X5914155Y-42155083D01*
X5967489Y-42107061D01*
X5986476Y-42096099D01*
X5998975Y-42085905D01*
X6064220Y-42051214D01*
X6131512Y-42012363D01*
X6146364Y-42007537D01*
X6154997Y-42002947D01*
X6232570Y-41979527D01*
X6311640Y-41953835D01*
X6320886Y-41952863D01*
X6324149Y-41951878D01*
X6415290Y-41942941D01*
X6452789Y-41939000D01*
X6547211Y-41939000D01*
X6688360Y-41953835D01*
X6688360Y-41953835D01*
G37*
G36*
X48113899Y-41037359D02*
G01*
X48130769Y-41048631D01*
X48142041Y-41065501D01*
X48148448Y-41097712D01*
X48148448Y-42773088D01*
X48145999Y-42785400D01*
X48142041Y-42805299D01*
X48130769Y-42822169D01*
X48113899Y-42833441D01*
X48094000Y-42837399D01*
X48081688Y-42839848D01*
X46406312Y-42839848D01*
X46374101Y-42833441D01*
X46357231Y-42822169D01*
X46345959Y-42805299D01*
X46339552Y-42773088D01*
X46339552Y-41097712D01*
X46345959Y-41065501D01*
X46357231Y-41048631D01*
X46374101Y-41037359D01*
X46406312Y-41030952D01*
X48081688Y-41030952D01*
X48113899Y-41037359D01*
X48113899Y-41037359D01*
G37*
G36*
X6688360Y-39413835D02*
G01*
X6769397Y-39440166D01*
X6856663Y-39467848D01*
X6859655Y-39469493D01*
X6868488Y-39472363D01*
X6940466Y-39513919D01*
X7011499Y-39552970D01*
X7018986Y-39559253D01*
X7032511Y-39567061D01*
X7090259Y-39619057D01*
X7146857Y-39666549D01*
X7156962Y-39679118D01*
X7173261Y-39693793D01*
X7215454Y-39751867D01*
X7257579Y-39804260D01*
X7267994Y-39824182D01*
X7284586Y-39847019D01*
X7311297Y-39907012D01*
X7339439Y-39960843D01*
X7347582Y-39988510D01*
X7361621Y-40020042D01*
X7373992Y-40078241D01*
X7389328Y-40130349D01*
X7392518Y-40165401D01*
X7400999Y-40205301D01*
X7400999Y-40258592D01*
X7405343Y-40306324D01*
X7400999Y-40347653D01*
X7400999Y-40394699D01*
X7391217Y-40440721D01*
X7386873Y-40482047D01*
X7372702Y-40527827D01*
X7361621Y-40579958D01*
X7345028Y-40617226D01*
X7334622Y-40650843D01*
X7308789Y-40698620D01*
X7284586Y-40752981D01*
X7264298Y-40780905D01*
X7250580Y-40806276D01*
X7211859Y-40853082D01*
X7173261Y-40906207D01*
X7152284Y-40925095D01*
X7137952Y-40942419D01*
X7085845Y-40984917D01*
X7032511Y-41032939D01*
X7013524Y-41043901D01*
X7001025Y-41054095D01*
X6935780Y-41088786D01*
X6868488Y-41127637D01*
X6853636Y-41132463D01*
X6845003Y-41137053D01*
X6767430Y-41160473D01*
X6688360Y-41186165D01*
X6679114Y-41187137D01*
X6675851Y-41188122D01*
X6584710Y-41197059D01*
X6547211Y-41201000D01*
X6452789Y-41201000D01*
X6311640Y-41186165D01*
X6230603Y-41159834D01*
X6143337Y-41132152D01*
X6140345Y-41130507D01*
X6131512Y-41127637D01*
X6059534Y-41086081D01*
X5988501Y-41047030D01*
X5981014Y-41040747D01*
X5967489Y-41032939D01*
X5909741Y-40980943D01*
X5853143Y-40933451D01*
X5843038Y-40920882D01*
X5826739Y-40906207D01*
X5784546Y-40848133D01*
X5742421Y-40795740D01*
X5732006Y-40775818D01*
X5715414Y-40752981D01*
X5688703Y-40692988D01*
X5660561Y-40639157D01*
X5652418Y-40611490D01*
X5638379Y-40579958D01*
X5626008Y-40521759D01*
X5610672Y-40469651D01*
X5607482Y-40434599D01*
X5599001Y-40394699D01*
X5599001Y-40341408D01*
X5594657Y-40293676D01*
X5599001Y-40252347D01*
X5599001Y-40205301D01*
X5608783Y-40159279D01*
X5613127Y-40117953D01*
X5627298Y-40072173D01*
X5638379Y-40020042D01*
X5654972Y-39982774D01*
X5665378Y-39949157D01*
X5691211Y-39901380D01*
X5715414Y-39847019D01*
X5735702Y-39819095D01*
X5749420Y-39793724D01*
X5788141Y-39746918D01*
X5826739Y-39693793D01*
X5847716Y-39674905D01*
X5862048Y-39657581D01*
X5914155Y-39615083D01*
X5967489Y-39567061D01*
X5986476Y-39556099D01*
X5998975Y-39545905D01*
X6064220Y-39511214D01*
X6131512Y-39472363D01*
X6146364Y-39467537D01*
X6154997Y-39462947D01*
X6232570Y-39439527D01*
X6311640Y-39413835D01*
X6320886Y-39412863D01*
X6324149Y-39411878D01*
X6415290Y-39402941D01*
X6452789Y-39399000D01*
X6547211Y-39399000D01*
X6688360Y-39413835D01*
X6688360Y-39413835D01*
G37*
G36*
X47432360Y-38509235D02*
G01*
X47513397Y-38535566D01*
X47600663Y-38563248D01*
X47603655Y-38564893D01*
X47612488Y-38567763D01*
X47684466Y-38609319D01*
X47755499Y-38648370D01*
X47762986Y-38654653D01*
X47776511Y-38662461D01*
X47834259Y-38714457D01*
X47890857Y-38761949D01*
X47900962Y-38774518D01*
X47917261Y-38789193D01*
X47959454Y-38847267D01*
X48001579Y-38899660D01*
X48011994Y-38919582D01*
X48028586Y-38942419D01*
X48055297Y-39002412D01*
X48083439Y-39056243D01*
X48091582Y-39083910D01*
X48105621Y-39115442D01*
X48117992Y-39173641D01*
X48133328Y-39225749D01*
X48136518Y-39260801D01*
X48144999Y-39300701D01*
X48144999Y-39353992D01*
X48149343Y-39401724D01*
X48144999Y-39443053D01*
X48144999Y-39490099D01*
X48135217Y-39536121D01*
X48130873Y-39577447D01*
X48116702Y-39623227D01*
X48105621Y-39675358D01*
X48089028Y-39712626D01*
X48078622Y-39746243D01*
X48052789Y-39794020D01*
X48028586Y-39848381D01*
X48008298Y-39876305D01*
X47994580Y-39901676D01*
X47955859Y-39948482D01*
X47917261Y-40001607D01*
X47896284Y-40020495D01*
X47881952Y-40037819D01*
X47829845Y-40080317D01*
X47776511Y-40128339D01*
X47757524Y-40139301D01*
X47745025Y-40149495D01*
X47679780Y-40184186D01*
X47612488Y-40223037D01*
X47597636Y-40227863D01*
X47589003Y-40232453D01*
X47511430Y-40255873D01*
X47432360Y-40281565D01*
X47423114Y-40282537D01*
X47419851Y-40283522D01*
X47328710Y-40292459D01*
X47291211Y-40296400D01*
X47196789Y-40296400D01*
X47055640Y-40281565D01*
X46974603Y-40255234D01*
X46887337Y-40227552D01*
X46884345Y-40225907D01*
X46875512Y-40223037D01*
X46803534Y-40181481D01*
X46732501Y-40142430D01*
X46725014Y-40136147D01*
X46711489Y-40128339D01*
X46653741Y-40076343D01*
X46597143Y-40028851D01*
X46587038Y-40016282D01*
X46570739Y-40001607D01*
X46528546Y-39943533D01*
X46486421Y-39891140D01*
X46476006Y-39871218D01*
X46459414Y-39848381D01*
X46432703Y-39788388D01*
X46404561Y-39734557D01*
X46396418Y-39706890D01*
X46382379Y-39675358D01*
X46370008Y-39617159D01*
X46354672Y-39565051D01*
X46351482Y-39529999D01*
X46343001Y-39490099D01*
X46343001Y-39436808D01*
X46338657Y-39389076D01*
X46343001Y-39347747D01*
X46343001Y-39300701D01*
X46352783Y-39254679D01*
X46357127Y-39213353D01*
X46371298Y-39167573D01*
X46382379Y-39115442D01*
X46398972Y-39078174D01*
X46409378Y-39044557D01*
X46435211Y-38996780D01*
X46459414Y-38942419D01*
X46479702Y-38914495D01*
X46493420Y-38889124D01*
X46532141Y-38842318D01*
X46570739Y-38789193D01*
X46591716Y-38770305D01*
X46606048Y-38752981D01*
X46658155Y-38710483D01*
X46711489Y-38662461D01*
X46730476Y-38651499D01*
X46742975Y-38641305D01*
X46808220Y-38606614D01*
X46875512Y-38567763D01*
X46890364Y-38562937D01*
X46898997Y-38558347D01*
X46976570Y-38534927D01*
X47055640Y-38509235D01*
X47064886Y-38508263D01*
X47068149Y-38507278D01*
X47159290Y-38498341D01*
X47196789Y-38494400D01*
X47291211Y-38494400D01*
X47432360Y-38509235D01*
X47432360Y-38509235D01*
G37*
G36*
X6688360Y-36873835D02*
G01*
X6769397Y-36900166D01*
X6856663Y-36927848D01*
X6859655Y-36929493D01*
X6868488Y-36932363D01*
X6940466Y-36973919D01*
X7011499Y-37012970D01*
X7018986Y-37019253D01*
X7032511Y-37027061D01*
X7090259Y-37079057D01*
X7146857Y-37126549D01*
X7156962Y-37139118D01*
X7173261Y-37153793D01*
X7215454Y-37211867D01*
X7257579Y-37264260D01*
X7267994Y-37284182D01*
X7284586Y-37307019D01*
X7311297Y-37367012D01*
X7339439Y-37420843D01*
X7347582Y-37448510D01*
X7361621Y-37480042D01*
X7373992Y-37538241D01*
X7389328Y-37590349D01*
X7392518Y-37625401D01*
X7400999Y-37665301D01*
X7400999Y-37718592D01*
X7405343Y-37766324D01*
X7400999Y-37807653D01*
X7400999Y-37854699D01*
X7391217Y-37900721D01*
X7386873Y-37942047D01*
X7372702Y-37987827D01*
X7361621Y-38039958D01*
X7345028Y-38077226D01*
X7334622Y-38110843D01*
X7308789Y-38158620D01*
X7284586Y-38212981D01*
X7264298Y-38240905D01*
X7250580Y-38266276D01*
X7211859Y-38313082D01*
X7173261Y-38366207D01*
X7152284Y-38385095D01*
X7137952Y-38402419D01*
X7085845Y-38444917D01*
X7032511Y-38492939D01*
X7013524Y-38503901D01*
X7001025Y-38514095D01*
X6935780Y-38548786D01*
X6868488Y-38587637D01*
X6853636Y-38592463D01*
X6845003Y-38597053D01*
X6767430Y-38620473D01*
X6688360Y-38646165D01*
X6679114Y-38647137D01*
X6675851Y-38648122D01*
X6584710Y-38657059D01*
X6547211Y-38661000D01*
X6452789Y-38661000D01*
X6311640Y-38646165D01*
X6230603Y-38619834D01*
X6143337Y-38592152D01*
X6140345Y-38590507D01*
X6131512Y-38587637D01*
X6059534Y-38546081D01*
X5988501Y-38507030D01*
X5981014Y-38500747D01*
X5967489Y-38492939D01*
X5909741Y-38440943D01*
X5853143Y-38393451D01*
X5843038Y-38380882D01*
X5826739Y-38366207D01*
X5784546Y-38308133D01*
X5742421Y-38255740D01*
X5732006Y-38235818D01*
X5715414Y-38212981D01*
X5688703Y-38152988D01*
X5660561Y-38099157D01*
X5652418Y-38071490D01*
X5638379Y-38039958D01*
X5626008Y-37981759D01*
X5610672Y-37929651D01*
X5607482Y-37894599D01*
X5599001Y-37854699D01*
X5599001Y-37801408D01*
X5594657Y-37753676D01*
X5599001Y-37712347D01*
X5599001Y-37665301D01*
X5608783Y-37619279D01*
X5613127Y-37577953D01*
X5627298Y-37532173D01*
X5638379Y-37480042D01*
X5654972Y-37442774D01*
X5665378Y-37409157D01*
X5691211Y-37361380D01*
X5715414Y-37307019D01*
X5735702Y-37279095D01*
X5749420Y-37253724D01*
X5788141Y-37206918D01*
X5826739Y-37153793D01*
X5847716Y-37134905D01*
X5862048Y-37117581D01*
X5914155Y-37075083D01*
X5967489Y-37027061D01*
X5986476Y-37016099D01*
X5998975Y-37005905D01*
X6064220Y-36971214D01*
X6131512Y-36932363D01*
X6146364Y-36927537D01*
X6154997Y-36922947D01*
X6232570Y-36899527D01*
X6311640Y-36873835D01*
X6320886Y-36872863D01*
X6324149Y-36871878D01*
X6415290Y-36862941D01*
X6452789Y-36859000D01*
X6547211Y-36859000D01*
X6688360Y-36873835D01*
X6688360Y-36873835D01*
G37*
G36*
X6688360Y-34333835D02*
G01*
X6769397Y-34360166D01*
X6856663Y-34387848D01*
X6859655Y-34389493D01*
X6868488Y-34392363D01*
X6940466Y-34433919D01*
X7011499Y-34472970D01*
X7018986Y-34479253D01*
X7032511Y-34487061D01*
X7090259Y-34539057D01*
X7146857Y-34586549D01*
X7156962Y-34599118D01*
X7173261Y-34613793D01*
X7215454Y-34671867D01*
X7257579Y-34724260D01*
X7267994Y-34744182D01*
X7284586Y-34767019D01*
X7311297Y-34827012D01*
X7339439Y-34880843D01*
X7347582Y-34908510D01*
X7361621Y-34940042D01*
X7373992Y-34998241D01*
X7389328Y-35050349D01*
X7392518Y-35085401D01*
X7400999Y-35125301D01*
X7400999Y-35178592D01*
X7405343Y-35226324D01*
X7400999Y-35267653D01*
X7400999Y-35314699D01*
X7391217Y-35360721D01*
X7386873Y-35402047D01*
X7372702Y-35447827D01*
X7361621Y-35499958D01*
X7345028Y-35537226D01*
X7334622Y-35570843D01*
X7308789Y-35618620D01*
X7284586Y-35672981D01*
X7264298Y-35700905D01*
X7250580Y-35726276D01*
X7211859Y-35773082D01*
X7173261Y-35826207D01*
X7152284Y-35845095D01*
X7137952Y-35862419D01*
X7085845Y-35904917D01*
X7032511Y-35952939D01*
X7013524Y-35963901D01*
X7001025Y-35974095D01*
X6935780Y-36008786D01*
X6868488Y-36047637D01*
X6853636Y-36052463D01*
X6845003Y-36057053D01*
X6767430Y-36080473D01*
X6688360Y-36106165D01*
X6679114Y-36107137D01*
X6675851Y-36108122D01*
X6584710Y-36117059D01*
X6547211Y-36121000D01*
X6452789Y-36121000D01*
X6311640Y-36106165D01*
X6230603Y-36079834D01*
X6143337Y-36052152D01*
X6140345Y-36050507D01*
X6131512Y-36047637D01*
X6059534Y-36006081D01*
X5988501Y-35967030D01*
X5981014Y-35960747D01*
X5967489Y-35952939D01*
X5909741Y-35900943D01*
X5853143Y-35853451D01*
X5843038Y-35840882D01*
X5826739Y-35826207D01*
X5784546Y-35768133D01*
X5742421Y-35715740D01*
X5732006Y-35695818D01*
X5715414Y-35672981D01*
X5688703Y-35612988D01*
X5660561Y-35559157D01*
X5652418Y-35531490D01*
X5638379Y-35499958D01*
X5626008Y-35441759D01*
X5610672Y-35389651D01*
X5607482Y-35354599D01*
X5599001Y-35314699D01*
X5599001Y-35261408D01*
X5594657Y-35213676D01*
X5599001Y-35172347D01*
X5599001Y-35125301D01*
X5608783Y-35079279D01*
X5613127Y-35037953D01*
X5627298Y-34992173D01*
X5638379Y-34940042D01*
X5654972Y-34902774D01*
X5665378Y-34869157D01*
X5691211Y-34821380D01*
X5715414Y-34767019D01*
X5735702Y-34739095D01*
X5749420Y-34713724D01*
X5788141Y-34666918D01*
X5826739Y-34613793D01*
X5847716Y-34594905D01*
X5862048Y-34577581D01*
X5914155Y-34535083D01*
X5967489Y-34487061D01*
X5986476Y-34476099D01*
X5998975Y-34465905D01*
X6064220Y-34431214D01*
X6131512Y-34392363D01*
X6146364Y-34387537D01*
X6154997Y-34382947D01*
X6232570Y-34359527D01*
X6311640Y-34333835D01*
X6320886Y-34332863D01*
X6324149Y-34331878D01*
X6415290Y-34322941D01*
X6452789Y-34319000D01*
X6547211Y-34319000D01*
X6688360Y-34333835D01*
X6688360Y-34333835D01*
G37*
G36*
X6688360Y-31793835D02*
G01*
X6769397Y-31820166D01*
X6856663Y-31847848D01*
X6859655Y-31849493D01*
X6868488Y-31852363D01*
X6940466Y-31893919D01*
X7011499Y-31932970D01*
X7018986Y-31939253D01*
X7032511Y-31947061D01*
X7090259Y-31999057D01*
X7146857Y-32046549D01*
X7156962Y-32059118D01*
X7173261Y-32073793D01*
X7215454Y-32131867D01*
X7257579Y-32184260D01*
X7267994Y-32204182D01*
X7284586Y-32227019D01*
X7311297Y-32287012D01*
X7339439Y-32340843D01*
X7347582Y-32368510D01*
X7361621Y-32400042D01*
X7373992Y-32458241D01*
X7389328Y-32510349D01*
X7392518Y-32545401D01*
X7400999Y-32585301D01*
X7400999Y-32638592D01*
X7405343Y-32686324D01*
X7400999Y-32727653D01*
X7400999Y-32774699D01*
X7391217Y-32820721D01*
X7386873Y-32862047D01*
X7372702Y-32907827D01*
X7361621Y-32959958D01*
X7345028Y-32997226D01*
X7334622Y-33030843D01*
X7308789Y-33078620D01*
X7284586Y-33132981D01*
X7264298Y-33160905D01*
X7250580Y-33186276D01*
X7211859Y-33233082D01*
X7173261Y-33286207D01*
X7152284Y-33305095D01*
X7137952Y-33322419D01*
X7085845Y-33364917D01*
X7032511Y-33412939D01*
X7013524Y-33423901D01*
X7001025Y-33434095D01*
X6935780Y-33468786D01*
X6868488Y-33507637D01*
X6853636Y-33512463D01*
X6845003Y-33517053D01*
X6767430Y-33540473D01*
X6688360Y-33566165D01*
X6679114Y-33567137D01*
X6675851Y-33568122D01*
X6584710Y-33577059D01*
X6547211Y-33581000D01*
X6452789Y-33581000D01*
X6311640Y-33566165D01*
X6230603Y-33539834D01*
X6143337Y-33512152D01*
X6140345Y-33510507D01*
X6131512Y-33507637D01*
X6059534Y-33466081D01*
X5988501Y-33427030D01*
X5981014Y-33420747D01*
X5967489Y-33412939D01*
X5909741Y-33360943D01*
X5853143Y-33313451D01*
X5843038Y-33300882D01*
X5826739Y-33286207D01*
X5784546Y-33228133D01*
X5742421Y-33175740D01*
X5732006Y-33155818D01*
X5715414Y-33132981D01*
X5688703Y-33072988D01*
X5660561Y-33019157D01*
X5652418Y-32991490D01*
X5638379Y-32959958D01*
X5626008Y-32901759D01*
X5610672Y-32849651D01*
X5607482Y-32814599D01*
X5599001Y-32774699D01*
X5599001Y-32721408D01*
X5594657Y-32673676D01*
X5599001Y-32632347D01*
X5599001Y-32585301D01*
X5608783Y-32539279D01*
X5613127Y-32497953D01*
X5627298Y-32452173D01*
X5638379Y-32400042D01*
X5654972Y-32362774D01*
X5665378Y-32329157D01*
X5691211Y-32281380D01*
X5715414Y-32227019D01*
X5735702Y-32199095D01*
X5749420Y-32173724D01*
X5788141Y-32126918D01*
X5826739Y-32073793D01*
X5847716Y-32054905D01*
X5862048Y-32037581D01*
X5914155Y-31995083D01*
X5967489Y-31947061D01*
X5986476Y-31936099D01*
X5998975Y-31925905D01*
X6064220Y-31891214D01*
X6131512Y-31852363D01*
X6146364Y-31847537D01*
X6154997Y-31842947D01*
X6232570Y-31819527D01*
X6311640Y-31793835D01*
X6320886Y-31792863D01*
X6324149Y-31791878D01*
X6415290Y-31782941D01*
X6452789Y-31779000D01*
X6547211Y-31779000D01*
X6688360Y-31793835D01*
X6688360Y-31793835D01*
G37*
G36*
X6688360Y-29253835D02*
G01*
X6769397Y-29280166D01*
X6856663Y-29307848D01*
X6859655Y-29309493D01*
X6868488Y-29312363D01*
X6940466Y-29353919D01*
X7011499Y-29392970D01*
X7018986Y-29399253D01*
X7032511Y-29407061D01*
X7090259Y-29459057D01*
X7146857Y-29506549D01*
X7156962Y-29519118D01*
X7173261Y-29533793D01*
X7215454Y-29591867D01*
X7257579Y-29644260D01*
X7267994Y-29664182D01*
X7284586Y-29687019D01*
X7311297Y-29747012D01*
X7339439Y-29800843D01*
X7347582Y-29828510D01*
X7361621Y-29860042D01*
X7373992Y-29918241D01*
X7389328Y-29970349D01*
X7392518Y-30005401D01*
X7400999Y-30045301D01*
X7400999Y-30098592D01*
X7405343Y-30146324D01*
X7400999Y-30187653D01*
X7400999Y-30234699D01*
X7391217Y-30280721D01*
X7386873Y-30322047D01*
X7372702Y-30367827D01*
X7361621Y-30419958D01*
X7345028Y-30457226D01*
X7334622Y-30490843D01*
X7308789Y-30538620D01*
X7284586Y-30592981D01*
X7264298Y-30620905D01*
X7250580Y-30646276D01*
X7211859Y-30693082D01*
X7173261Y-30746207D01*
X7152284Y-30765095D01*
X7137952Y-30782419D01*
X7085845Y-30824917D01*
X7032511Y-30872939D01*
X7013524Y-30883901D01*
X7001025Y-30894095D01*
X6935780Y-30928786D01*
X6868488Y-30967637D01*
X6853636Y-30972463D01*
X6845003Y-30977053D01*
X6767430Y-31000473D01*
X6688360Y-31026165D01*
X6679114Y-31027137D01*
X6675851Y-31028122D01*
X6584710Y-31037059D01*
X6547211Y-31041000D01*
X6452789Y-31041000D01*
X6311640Y-31026165D01*
X6230603Y-30999834D01*
X6143337Y-30972152D01*
X6140345Y-30970507D01*
X6131512Y-30967637D01*
X6059534Y-30926081D01*
X5988501Y-30887030D01*
X5981014Y-30880747D01*
X5967489Y-30872939D01*
X5909741Y-30820943D01*
X5853143Y-30773451D01*
X5843038Y-30760882D01*
X5826739Y-30746207D01*
X5784546Y-30688133D01*
X5742421Y-30635740D01*
X5732006Y-30615818D01*
X5715414Y-30592981D01*
X5688703Y-30532988D01*
X5660561Y-30479157D01*
X5652418Y-30451490D01*
X5638379Y-30419958D01*
X5626008Y-30361759D01*
X5610672Y-30309651D01*
X5607482Y-30274599D01*
X5599001Y-30234699D01*
X5599001Y-30181408D01*
X5594657Y-30133676D01*
X5599001Y-30092347D01*
X5599001Y-30045301D01*
X5608783Y-29999279D01*
X5613127Y-29957953D01*
X5627298Y-29912173D01*
X5638379Y-29860042D01*
X5654972Y-29822774D01*
X5665378Y-29789157D01*
X5691211Y-29741380D01*
X5715414Y-29687019D01*
X5735702Y-29659095D01*
X5749420Y-29633724D01*
X5788141Y-29586918D01*
X5826739Y-29533793D01*
X5847716Y-29514905D01*
X5862048Y-29497581D01*
X5914155Y-29455083D01*
X5967489Y-29407061D01*
X5986476Y-29396099D01*
X5998975Y-29385905D01*
X6064220Y-29351214D01*
X6131512Y-29312363D01*
X6146364Y-29307537D01*
X6154997Y-29302947D01*
X6232570Y-29279527D01*
X6311640Y-29253835D01*
X6320886Y-29252863D01*
X6324149Y-29251878D01*
X6415290Y-29242941D01*
X6452789Y-29239000D01*
X6547211Y-29239000D01*
X6688360Y-29253835D01*
X6688360Y-29253835D01*
G37*
G36*
X6688360Y-26713835D02*
G01*
X6769397Y-26740166D01*
X6856663Y-26767848D01*
X6859655Y-26769493D01*
X6868488Y-26772363D01*
X6940466Y-26813919D01*
X7011499Y-26852970D01*
X7018986Y-26859253D01*
X7032511Y-26867061D01*
X7090259Y-26919057D01*
X7146857Y-26966549D01*
X7156962Y-26979118D01*
X7173261Y-26993793D01*
X7215454Y-27051867D01*
X7257579Y-27104260D01*
X7267994Y-27124182D01*
X7284586Y-27147019D01*
X7311297Y-27207012D01*
X7339439Y-27260843D01*
X7347582Y-27288510D01*
X7361621Y-27320042D01*
X7373992Y-27378241D01*
X7389328Y-27430349D01*
X7392518Y-27465401D01*
X7400999Y-27505301D01*
X7400999Y-27558592D01*
X7405343Y-27606324D01*
X7400999Y-27647653D01*
X7400999Y-27694699D01*
X7391217Y-27740721D01*
X7386873Y-27782047D01*
X7372702Y-27827827D01*
X7361621Y-27879958D01*
X7345028Y-27917226D01*
X7334622Y-27950843D01*
X7308789Y-27998620D01*
X7284586Y-28052981D01*
X7264298Y-28080905D01*
X7250580Y-28106276D01*
X7211859Y-28153082D01*
X7173261Y-28206207D01*
X7152284Y-28225095D01*
X7137952Y-28242419D01*
X7085845Y-28284917D01*
X7032511Y-28332939D01*
X7013524Y-28343901D01*
X7001025Y-28354095D01*
X6935780Y-28388786D01*
X6868488Y-28427637D01*
X6853636Y-28432463D01*
X6845003Y-28437053D01*
X6767430Y-28460473D01*
X6688360Y-28486165D01*
X6679114Y-28487137D01*
X6675851Y-28488122D01*
X6584710Y-28497059D01*
X6547211Y-28501000D01*
X6452789Y-28501000D01*
X6311640Y-28486165D01*
X6230603Y-28459834D01*
X6143337Y-28432152D01*
X6140345Y-28430507D01*
X6131512Y-28427637D01*
X6059534Y-28386081D01*
X5988501Y-28347030D01*
X5981014Y-28340747D01*
X5967489Y-28332939D01*
X5909741Y-28280943D01*
X5853143Y-28233451D01*
X5843038Y-28220882D01*
X5826739Y-28206207D01*
X5784546Y-28148133D01*
X5742421Y-28095740D01*
X5732006Y-28075818D01*
X5715414Y-28052981D01*
X5688703Y-27992988D01*
X5660561Y-27939157D01*
X5652418Y-27911490D01*
X5638379Y-27879958D01*
X5626008Y-27821759D01*
X5610672Y-27769651D01*
X5607482Y-27734599D01*
X5599001Y-27694699D01*
X5599001Y-27641408D01*
X5594657Y-27593676D01*
X5599001Y-27552347D01*
X5599001Y-27505301D01*
X5608783Y-27459279D01*
X5613127Y-27417953D01*
X5627298Y-27372173D01*
X5638379Y-27320042D01*
X5654972Y-27282774D01*
X5665378Y-27249157D01*
X5691211Y-27201380D01*
X5715414Y-27147019D01*
X5735702Y-27119095D01*
X5749420Y-27093724D01*
X5788141Y-27046918D01*
X5826739Y-26993793D01*
X5847716Y-26974905D01*
X5862048Y-26957581D01*
X5914155Y-26915083D01*
X5967489Y-26867061D01*
X5986476Y-26856099D01*
X5998975Y-26845905D01*
X6064220Y-26811214D01*
X6131512Y-26772363D01*
X6146364Y-26767537D01*
X6154997Y-26762947D01*
X6232570Y-26739527D01*
X6311640Y-26713835D01*
X6320886Y-26712863D01*
X6324149Y-26711878D01*
X6415290Y-26702941D01*
X6452789Y-26699000D01*
X6547211Y-26699000D01*
X6688360Y-26713835D01*
X6688360Y-26713835D01*
G37*
G36*
X6688360Y-24173835D02*
G01*
X6769397Y-24200166D01*
X6856663Y-24227848D01*
X6859655Y-24229493D01*
X6868488Y-24232363D01*
X6940466Y-24273919D01*
X7011499Y-24312970D01*
X7018986Y-24319253D01*
X7032511Y-24327061D01*
X7090259Y-24379057D01*
X7146857Y-24426549D01*
X7156962Y-24439118D01*
X7173261Y-24453793D01*
X7215454Y-24511867D01*
X7257579Y-24564260D01*
X7267994Y-24584182D01*
X7284586Y-24607019D01*
X7311297Y-24667012D01*
X7339439Y-24720843D01*
X7347582Y-24748510D01*
X7361621Y-24780042D01*
X7373992Y-24838241D01*
X7389328Y-24890349D01*
X7392518Y-24925401D01*
X7400999Y-24965301D01*
X7400999Y-25018592D01*
X7405343Y-25066324D01*
X7400999Y-25107653D01*
X7400999Y-25154699D01*
X7391217Y-25200721D01*
X7386873Y-25242047D01*
X7372702Y-25287827D01*
X7361621Y-25339958D01*
X7345028Y-25377226D01*
X7334622Y-25410843D01*
X7308789Y-25458620D01*
X7284586Y-25512981D01*
X7264298Y-25540905D01*
X7250580Y-25566276D01*
X7211859Y-25613082D01*
X7173261Y-25666207D01*
X7152284Y-25685095D01*
X7137952Y-25702419D01*
X7085845Y-25744917D01*
X7032511Y-25792939D01*
X7013524Y-25803901D01*
X7001025Y-25814095D01*
X6935780Y-25848786D01*
X6868488Y-25887637D01*
X6853636Y-25892463D01*
X6845003Y-25897053D01*
X6767430Y-25920473D01*
X6688360Y-25946165D01*
X6679114Y-25947137D01*
X6675851Y-25948122D01*
X6584710Y-25957059D01*
X6547211Y-25961000D01*
X6452789Y-25961000D01*
X6311640Y-25946165D01*
X6230603Y-25919834D01*
X6143337Y-25892152D01*
X6140345Y-25890507D01*
X6131512Y-25887637D01*
X6059534Y-25846081D01*
X5988501Y-25807030D01*
X5981014Y-25800747D01*
X5967489Y-25792939D01*
X5909741Y-25740943D01*
X5853143Y-25693451D01*
X5843038Y-25680882D01*
X5826739Y-25666207D01*
X5784546Y-25608133D01*
X5742421Y-25555740D01*
X5732006Y-25535818D01*
X5715414Y-25512981D01*
X5688703Y-25452988D01*
X5660561Y-25399157D01*
X5652418Y-25371490D01*
X5638379Y-25339958D01*
X5626008Y-25281759D01*
X5610672Y-25229651D01*
X5607482Y-25194599D01*
X5599001Y-25154699D01*
X5599001Y-25101408D01*
X5594657Y-25053676D01*
X5599001Y-25012347D01*
X5599001Y-24965301D01*
X5608783Y-24919279D01*
X5613127Y-24877953D01*
X5627298Y-24832173D01*
X5638379Y-24780042D01*
X5654972Y-24742774D01*
X5665378Y-24709157D01*
X5691211Y-24661380D01*
X5715414Y-24607019D01*
X5735702Y-24579095D01*
X5749420Y-24553724D01*
X5788141Y-24506918D01*
X5826739Y-24453793D01*
X5847716Y-24434905D01*
X5862048Y-24417581D01*
X5914155Y-24375083D01*
X5967489Y-24327061D01*
X5986476Y-24316099D01*
X5998975Y-24305905D01*
X6064220Y-24271214D01*
X6131512Y-24232363D01*
X6146364Y-24227537D01*
X6154997Y-24222947D01*
X6232570Y-24199527D01*
X6311640Y-24173835D01*
X6320886Y-24172863D01*
X6324149Y-24171878D01*
X6415290Y-24162941D01*
X6452789Y-24159000D01*
X6547211Y-24159000D01*
X6688360Y-24173835D01*
X6688360Y-24173835D01*
G37*
G36*
X6688360Y-21633835D02*
G01*
X6769397Y-21660166D01*
X6856663Y-21687848D01*
X6859655Y-21689493D01*
X6868488Y-21692363D01*
X6940466Y-21733919D01*
X7011499Y-21772970D01*
X7018986Y-21779253D01*
X7032511Y-21787061D01*
X7090259Y-21839057D01*
X7146857Y-21886549D01*
X7156962Y-21899118D01*
X7173261Y-21913793D01*
X7215454Y-21971867D01*
X7257579Y-22024260D01*
X7267994Y-22044182D01*
X7284586Y-22067019D01*
X7311297Y-22127012D01*
X7339439Y-22180843D01*
X7347582Y-22208510D01*
X7361621Y-22240042D01*
X7373992Y-22298241D01*
X7389328Y-22350349D01*
X7392518Y-22385401D01*
X7400999Y-22425301D01*
X7400999Y-22478592D01*
X7405343Y-22526324D01*
X7400999Y-22567653D01*
X7400999Y-22614699D01*
X7391217Y-22660721D01*
X7386873Y-22702047D01*
X7372702Y-22747827D01*
X7361621Y-22799958D01*
X7345028Y-22837226D01*
X7334622Y-22870843D01*
X7308789Y-22918620D01*
X7284586Y-22972981D01*
X7264298Y-23000905D01*
X7250580Y-23026276D01*
X7211859Y-23073082D01*
X7173261Y-23126207D01*
X7152284Y-23145095D01*
X7137952Y-23162419D01*
X7085845Y-23204917D01*
X7032511Y-23252939D01*
X7013524Y-23263901D01*
X7001025Y-23274095D01*
X6935780Y-23308786D01*
X6868488Y-23347637D01*
X6853636Y-23352463D01*
X6845003Y-23357053D01*
X6767430Y-23380473D01*
X6688360Y-23406165D01*
X6679114Y-23407137D01*
X6675851Y-23408122D01*
X6584710Y-23417059D01*
X6547211Y-23421000D01*
X6452789Y-23421000D01*
X6311640Y-23406165D01*
X6230603Y-23379834D01*
X6143337Y-23352152D01*
X6140345Y-23350507D01*
X6131512Y-23347637D01*
X6059534Y-23306081D01*
X5988501Y-23267030D01*
X5981014Y-23260747D01*
X5967489Y-23252939D01*
X5909741Y-23200943D01*
X5853143Y-23153451D01*
X5843038Y-23140882D01*
X5826739Y-23126207D01*
X5784546Y-23068133D01*
X5742421Y-23015740D01*
X5732006Y-22995818D01*
X5715414Y-22972981D01*
X5688703Y-22912988D01*
X5660561Y-22859157D01*
X5652418Y-22831490D01*
X5638379Y-22799958D01*
X5626008Y-22741759D01*
X5610672Y-22689651D01*
X5607482Y-22654599D01*
X5599001Y-22614699D01*
X5599001Y-22561408D01*
X5594657Y-22513676D01*
X5599001Y-22472347D01*
X5599001Y-22425301D01*
X5608783Y-22379279D01*
X5613127Y-22337953D01*
X5627298Y-22292173D01*
X5638379Y-22240042D01*
X5654972Y-22202774D01*
X5665378Y-22169157D01*
X5691211Y-22121380D01*
X5715414Y-22067019D01*
X5735702Y-22039095D01*
X5749420Y-22013724D01*
X5788141Y-21966918D01*
X5826739Y-21913793D01*
X5847716Y-21894905D01*
X5862048Y-21877581D01*
X5914155Y-21835083D01*
X5967489Y-21787061D01*
X5986476Y-21776099D01*
X5998975Y-21765905D01*
X6064220Y-21731214D01*
X6131512Y-21692363D01*
X6146364Y-21687537D01*
X6154997Y-21682947D01*
X6232570Y-21659527D01*
X6311640Y-21633835D01*
X6320886Y-21632863D01*
X6324149Y-21631878D01*
X6415290Y-21622941D01*
X6452789Y-21619000D01*
X6547211Y-21619000D01*
X6688360Y-21633835D01*
X6688360Y-21633835D01*
G37*
G36*
X49337518Y-16438432D02*
G01*
X49386330Y-16439071D01*
X49434208Y-16448594D01*
X49488354Y-16454285D01*
X49534258Y-16468495D01*
X49575782Y-16476754D01*
X49627168Y-16497255D01*
X49685248Y-16515234D01*
X49721889Y-16535046D01*
X49755191Y-16548332D01*
X49807490Y-16581330D01*
X49866555Y-16613266D01*
X49893707Y-16635728D01*
X49918554Y-16651405D01*
X49968777Y-16697831D01*
X50025367Y-16744646D01*
X50043584Y-16766982D01*
X50060398Y-16782525D01*
X50105276Y-16842623D01*
X50155636Y-16904371D01*
X50166148Y-16924141D01*
X50175972Y-16937297D01*
X50212147Y-17010653D01*
X50252399Y-17086357D01*
X50257009Y-17101625D01*
X50261404Y-17110538D01*
X50285573Y-17196235D01*
X50311972Y-17283672D01*
X50312899Y-17293124D01*
X50313836Y-17296447D01*
X50322952Y-17395653D01*
X50327000Y-17436939D01*
X50327000Y-18137179D01*
X50309007Y-18308371D01*
X50280733Y-18397501D01*
X50251165Y-18492727D01*
X50249555Y-18495786D01*
X50246685Y-18504835D01*
X50202706Y-18584833D01*
X50161226Y-18663674D01*
X50155070Y-18671482D01*
X50147390Y-18685453D01*
X50092285Y-18751124D01*
X50041641Y-18815366D01*
X50029296Y-18826192D01*
X50014904Y-18843344D01*
X49952807Y-18893271D01*
X49896413Y-18942727D01*
X49876734Y-18954435D01*
X49854273Y-18972494D01*
X49789195Y-19006516D01*
X49730410Y-19041490D01*
X49702843Y-19051660D01*
X49671616Y-19067985D01*
X49607202Y-19086943D01*
X49549189Y-19108345D01*
X49513858Y-19114416D01*
X49473891Y-19126179D01*
X49413324Y-19131691D01*
X49358811Y-19141058D01*
X49316485Y-19140504D01*
X49268628Y-19144859D01*
X49214482Y-19139168D01*
X49165670Y-19138529D01*
X49117792Y-19129006D01*
X49063646Y-19123315D01*
X49017742Y-19109105D01*
X48976218Y-19100846D01*
X48924832Y-19080345D01*
X48866752Y-19062366D01*
X48830112Y-19042555D01*
X48796809Y-19029268D01*
X48744508Y-18996269D01*
X48685446Y-18964334D01*
X48658295Y-18941873D01*
X48633447Y-18926195D01*
X48583224Y-18879769D01*
X48526634Y-18832954D01*
X48508417Y-18810618D01*
X48491603Y-18795075D01*
X48446729Y-18734981D01*
X48396365Y-18673229D01*
X48385852Y-18653456D01*
X48376029Y-18640302D01*
X48339852Y-18566943D01*
X48299602Y-18491243D01*
X48294994Y-18475979D01*
X48290596Y-18467062D01*
X48266421Y-18381343D01*
X48240028Y-18293928D01*
X48239101Y-18284476D01*
X48238164Y-18281153D01*
X48229048Y-18181947D01*
X48225000Y-18140661D01*
X48225000Y-17440421D01*
X48242993Y-17269229D01*
X48271219Y-17180250D01*
X48300833Y-17084877D01*
X48302444Y-17081814D01*
X48305315Y-17072765D01*
X48349302Y-16992753D01*
X48390774Y-16913927D01*
X48396928Y-16906121D01*
X48404610Y-16892147D01*
X48459720Y-16826469D01*
X48510359Y-16762234D01*
X48522704Y-16751408D01*
X48537096Y-16734256D01*
X48599193Y-16684329D01*
X48655587Y-16634873D01*
X48675266Y-16623165D01*
X48697727Y-16605106D01*
X48762805Y-16571084D01*
X48821590Y-16536110D01*
X48849157Y-16525940D01*
X48880384Y-16509615D01*
X48944798Y-16490657D01*
X49002811Y-16469255D01*
X49038142Y-16463184D01*
X49078109Y-16451421D01*
X49138676Y-16445909D01*
X49193189Y-16436542D01*
X49235515Y-16437096D01*
X49283372Y-16432741D01*
X49337518Y-16438432D01*
X49337518Y-16438432D01*
G37*
G36*
X55885518Y-16438432D02*
G01*
X55934330Y-16439071D01*
X55982208Y-16448594D01*
X56036354Y-16454285D01*
X56082258Y-16468495D01*
X56123782Y-16476754D01*
X56175168Y-16497255D01*
X56233248Y-16515234D01*
X56269889Y-16535046D01*
X56303191Y-16548332D01*
X56355490Y-16581330D01*
X56414555Y-16613266D01*
X56441707Y-16635728D01*
X56466554Y-16651405D01*
X56516777Y-16697831D01*
X56573367Y-16744646D01*
X56591584Y-16766982D01*
X56608398Y-16782525D01*
X56653276Y-16842623D01*
X56703636Y-16904371D01*
X56714148Y-16924141D01*
X56723972Y-16937297D01*
X56760147Y-17010653D01*
X56800399Y-17086357D01*
X56805009Y-17101625D01*
X56809404Y-17110538D01*
X56833573Y-17196235D01*
X56859972Y-17283672D01*
X56860899Y-17293124D01*
X56861836Y-17296447D01*
X56870952Y-17395653D01*
X56875000Y-17436939D01*
X56875000Y-18137179D01*
X56857007Y-18308371D01*
X56828733Y-18397501D01*
X56799165Y-18492727D01*
X56797555Y-18495786D01*
X56794685Y-18504835D01*
X56750706Y-18584833D01*
X56709226Y-18663674D01*
X56703070Y-18671482D01*
X56695390Y-18685453D01*
X56640285Y-18751124D01*
X56589641Y-18815366D01*
X56577296Y-18826192D01*
X56562904Y-18843344D01*
X56500807Y-18893271D01*
X56444413Y-18942727D01*
X56424734Y-18954435D01*
X56402273Y-18972494D01*
X56337195Y-19006516D01*
X56278410Y-19041490D01*
X56250843Y-19051660D01*
X56219616Y-19067985D01*
X56155202Y-19086943D01*
X56097189Y-19108345D01*
X56061858Y-19114416D01*
X56021891Y-19126179D01*
X55961324Y-19131691D01*
X55906811Y-19141058D01*
X55864485Y-19140504D01*
X55816628Y-19144859D01*
X55762482Y-19139168D01*
X55713670Y-19138529D01*
X55665792Y-19129006D01*
X55611646Y-19123315D01*
X55565742Y-19109105D01*
X55524218Y-19100846D01*
X55472832Y-19080345D01*
X55414752Y-19062366D01*
X55378112Y-19042555D01*
X55344809Y-19029268D01*
X55292508Y-18996269D01*
X55233446Y-18964334D01*
X55206295Y-18941873D01*
X55181447Y-18926195D01*
X55131224Y-18879769D01*
X55074634Y-18832954D01*
X55056417Y-18810618D01*
X55039603Y-18795075D01*
X54994729Y-18734981D01*
X54944365Y-18673229D01*
X54933852Y-18653456D01*
X54924029Y-18640302D01*
X54887852Y-18566943D01*
X54847602Y-18491243D01*
X54842994Y-18475979D01*
X54838596Y-18467062D01*
X54814421Y-18381343D01*
X54788028Y-18293928D01*
X54787101Y-18284476D01*
X54786164Y-18281153D01*
X54777048Y-18181947D01*
X54773000Y-18140661D01*
X54773000Y-17440421D01*
X54790993Y-17269229D01*
X54819219Y-17180250D01*
X54848833Y-17084877D01*
X54850444Y-17081814D01*
X54853315Y-17072765D01*
X54897302Y-16992753D01*
X54938774Y-16913927D01*
X54944928Y-16906121D01*
X54952610Y-16892147D01*
X55007720Y-16826469D01*
X55058359Y-16762234D01*
X55070704Y-16751408D01*
X55085096Y-16734256D01*
X55147193Y-16684329D01*
X55203587Y-16634873D01*
X55223266Y-16623165D01*
X55245727Y-16605106D01*
X55310805Y-16571084D01*
X55369590Y-16536110D01*
X55397157Y-16525940D01*
X55428384Y-16509615D01*
X55492798Y-16490657D01*
X55550811Y-16469255D01*
X55586142Y-16463184D01*
X55626109Y-16451421D01*
X55686676Y-16445909D01*
X55741189Y-16436542D01*
X55783515Y-16437096D01*
X55831372Y-16432741D01*
X55885518Y-16438432D01*
X55885518Y-16438432D01*
G37*
G36*
X54303899Y-16440759D02*
G01*
X54320769Y-16452031D01*
X54332041Y-16468901D01*
X54338448Y-16501112D01*
X54338448Y-19076488D01*
X54335999Y-19088800D01*
X54332041Y-19108699D01*
X54320769Y-19125569D01*
X54303899Y-19136841D01*
X54284000Y-19140799D01*
X54271688Y-19143248D01*
X52296312Y-19143248D01*
X52264101Y-19136841D01*
X52247231Y-19125569D01*
X52235959Y-19108699D01*
X52229552Y-19076488D01*
X52229552Y-16501112D01*
X52235959Y-16468901D01*
X52247231Y-16452031D01*
X52264101Y-16440759D01*
X52296312Y-16434352D01*
X54271688Y-16434352D01*
X54303899Y-16440759D01*
X54303899Y-16440759D01*
G37*
G36*
X47755899Y-16440759D02*
G01*
X47772769Y-16452031D01*
X47784041Y-16468901D01*
X47790448Y-16501112D01*
X47790448Y-19076488D01*
X47787999Y-19088800D01*
X47784041Y-19108699D01*
X47772769Y-19125569D01*
X47755899Y-19136841D01*
X47736000Y-19140799D01*
X47723688Y-19143248D01*
X45748312Y-19143248D01*
X45716101Y-19136841D01*
X45699231Y-19125569D01*
X45687959Y-19108699D01*
X45681552Y-19076488D01*
X45681552Y-16501112D01*
X45687959Y-16468901D01*
X45699231Y-16452031D01*
X45716101Y-16440759D01*
X45748312Y-16434352D01*
X47723688Y-16434352D01*
X47755899Y-16440759D01*
X47755899Y-16440759D01*
G37*
G36*
X5081499Y-2249413D02*
G01*
X5182653Y-2250031D01*
X5243360Y-2257754D01*
X5302411Y-2260797D01*
X5406794Y-2278546D01*
X5511702Y-2291892D01*
X5566432Y-2305690D01*
X5619927Y-2314786D01*
X5726337Y-2346003D01*
X5833340Y-2372980D01*
X5881595Y-2391552D01*
X5928980Y-2405453D01*
X6035669Y-2450849D01*
X6142906Y-2492121D01*
X6184372Y-2514123D01*
X6225346Y-2531557D01*
X6330467Y-2591639D01*
X6435917Y-2647590D01*
X6470539Y-2671698D01*
X6504972Y-2691378D01*
X6606545Y-2766400D01*
X6708128Y-2837134D01*
X6736040Y-2862046D01*
X6764045Y-2882731D01*
X6860070Y-2972747D01*
X6955597Y-3058008D01*
X6977162Y-3082512D01*
X6999021Y-3103003D01*
X7087451Y-3207831D01*
X7174738Y-3307013D01*
X7190494Y-3329982D01*
X7206693Y-3349184D01*
X7285494Y-3468466D01*
X7362377Y-3580541D01*
X7373051Y-3601002D01*
X7384219Y-3617907D01*
X7451335Y-3751064D01*
X7515797Y-3874630D01*
X7522257Y-3891771D01*
X7529191Y-3905528D01*
X7582804Y-4052429D01*
X7632774Y-4185020D01*
X7635987Y-4198150D01*
X7639611Y-4208080D01*
X7677970Y-4369719D01*
X7711615Y-4507216D01*
X7712656Y-4515885D01*
X7713977Y-4521450D01*
X7735476Y-4705850D01*
X7751177Y-4836550D01*
X7746761Y-5225825D01*
X7728492Y-5353391D01*
X7726437Y-5400454D01*
X7711096Y-5474861D01*
X7699737Y-5554176D01*
X7678322Y-5633821D01*
X7661942Y-5713266D01*
X7635632Y-5792587D01*
X7613607Y-5874501D01*
X7584540Y-5946626D01*
X7560545Y-6018967D01*
X7523071Y-6099148D01*
X7489617Y-6182157D01*
X7454382Y-6246116D01*
X7424176Y-6310747D01*
X7375003Y-6390210D01*
X7329565Y-6472690D01*
X7289657Y-6528126D01*
X7254694Y-6584625D01*
X7193513Y-6661679D01*
X7135769Y-6741890D01*
X7092703Y-6788642D01*
X7054420Y-6836857D01*
X6981135Y-6909759D01*
X6911035Y-6985859D01*
X6866267Y-7024027D01*
X6826079Y-7064005D01*
X6740868Y-7130938D01*
X6658619Y-7201062D01*
X6613538Y-7230957D01*
X6572795Y-7262961D01*
X6476063Y-7322123D01*
X6382178Y-7384382D01*
X6338090Y-7406507D01*
X6298036Y-7431005D01*
X6190419Y-7480617D01*
X6085715Y-7533163D01*
X6043771Y-7548222D01*
X6005540Y-7565847D01*
X5887941Y-7604171D01*
X5773525Y-7645250D01*
X5734731Y-7654100D01*
X5699318Y-7665640D01*
X5572884Y-7691019D01*
X5450131Y-7719021D01*
X5415301Y-7722651D01*
X5383547Y-7729025D01*
X5249653Y-7739915D01*
X5120216Y-7753405D01*
X5089960Y-7752903D01*
X5062520Y-7755135D01*
X4922636Y-7750128D01*
X4788560Y-7747905D01*
X4763333Y-7744427D01*
X4740650Y-7743615D01*
X4596347Y-7721404D01*
X4459967Y-7702601D01*
X4439956Y-7697333D01*
X4422326Y-7694619D01*
X4275239Y-7653967D01*
X4139196Y-7618150D01*
X4124405Y-7612279D01*
X4111883Y-7608818D01*
X3962917Y-7548178D01*
X3830895Y-7495773D01*
X3821130Y-7490460D01*
X3813581Y-7487387D01*
X3661548Y-7403633D01*
X3539528Y-7337244D01*
X3534375Y-7333575D01*
X3531474Y-7331977D01*
X3354206Y-7205299D01*
X3269316Y-7144860D01*
X3192276Y-7074636D01*
X3031025Y-6928166D01*
X3028854Y-6925673D01*
X3024174Y-6921407D01*
X2933455Y-6816122D01*
X2819511Y-6685275D01*
X2814911Y-6678545D01*
X2807653Y-6670121D01*
X2728532Y-6552155D01*
X2637780Y-6419366D01*
X2631749Y-6407855D01*
X2622888Y-6394643D01*
X2559166Y-6269311D01*
X2488315Y-6134074D01*
X2481934Y-6117406D01*
X2472557Y-6098964D01*
X2425351Y-5969618D01*
X2373153Y-5833282D01*
X2367568Y-5811291D01*
X2358836Y-5787365D01*
X2328333Y-5656803D01*
X2293873Y-5521114D01*
X2290254Y-5493810D01*
X2283374Y-5464361D01*
X2269212Y-5335054D01*
X2251555Y-5201833D01*
X2251075Y-5169442D01*
X2247262Y-5134631D01*
X2248690Y-5008722D01*
X2246778Y-4879793D01*
X2250573Y-4842747D01*
X2251025Y-4802951D01*
X2266998Y-4682436D01*
X2279605Y-4559389D01*
X2288754Y-4518290D01*
X2294608Y-4474125D01*
X2323837Y-4360695D01*
X2349590Y-4245013D01*
X2365070Y-4200685D01*
X2377379Y-4152917D01*
X2418382Y-4048019D01*
X2455775Y-3940942D01*
X2478454Y-3894341D01*
X2498140Y-3843978D01*
X2549292Y-3748780D01*
X2596711Y-3651341D01*
X2627292Y-3603614D01*
X2655141Y-3551785D01*
X2714713Y-3467179D01*
X2770477Y-3380151D01*
X2809512Y-3332544D01*
X2846108Y-3280570D01*
X2912299Y-3207186D01*
X2974689Y-3131096D01*
X3022528Y-3084979D01*
X3068274Y-3034262D01*
X3139292Y-2972419D01*
X3206567Y-2907565D01*
X3263353Y-2864384D01*
X3318423Y-2816428D01*
X3392483Y-2766191D01*
X3462939Y-2712615D01*
X3528584Y-2673870D01*
X3592929Y-2630223D01*
X3668329Y-2591389D01*
X3740305Y-2548908D01*
X3814503Y-2516106D01*
X3887818Y-2478346D01*
X3962934Y-2450485D01*
X4034885Y-2418676D01*
X4117092Y-2393307D01*
X4198817Y-2362995D01*
X4272148Y-2345457D01*
X4342636Y-2323705D01*
X4432085Y-2307207D01*
X4521421Y-2285842D01*
X4591640Y-2277779D01*
X4659379Y-2265286D01*
X4755079Y-2259014D01*
X4850957Y-2248005D01*
X4916897Y-2248408D01*
X4980761Y-2244222D01*
X5081499Y-2249413D01*
X5081499Y-2249413D01*
G37*
M02*
