G04 #@! TF.GenerationSoftware,KiCad,Pcbnew,(5.1.0-1152-gc9ccd8a64)*
G04 #@! TF.CreationDate,2019-07-22T10:44:07-04:00*
G04 #@! TF.ProjectId,LTC6811,4c544336-3831-4312-9e6b-696361645f70,rev?*
G04 #@! TF.SameCoordinates,Original*
G04 #@! TF.FileFunction,Copper,L2,Bot*
G04 #@! TF.FilePolarity,Positive*
%FSLAX46Y46*%
G04 Gerber Fmt 4.6, Leading zero omitted, Abs format (unit mm)*
G04 Created by KiCad (PCBNEW (5.1.0-1152-gc9ccd8a64)) date 2019-07-22 10:44:07*
%MOMM*%
%LPD*%
G04 APERTURE LIST*
%ADD10R,1.700000X1.700000*%
%ADD11O,1.700000X1.700000*%
%ADD12R,2.000000X2.600000*%
%ADD13O,2.000000X2.600000*%
%ADD14C,5.400000*%
%ADD15C,0.800000*%
%ADD16C,1.000000*%
%ADD17C,0.250000*%
%ADD18C,0.254000*%
G04 APERTURE END LIST*
D10*
X47244000Y-41935400D03*
D11*
X47244000Y-39395400D03*
D10*
X6500000Y-64000000D03*
D11*
X6500000Y-61460000D03*
X6500000Y-58920000D03*
D10*
X6500000Y-89000000D03*
D11*
X6500000Y-86460000D03*
X6500000Y-83920000D03*
D10*
X6500000Y-78000000D03*
D11*
X6500000Y-75460000D03*
X6500000Y-72920000D03*
X6500000Y-70380000D03*
D10*
X6500000Y-53000000D03*
D11*
X6500000Y-50460000D03*
X6500000Y-47920000D03*
X6500000Y-45380000D03*
X6500000Y-42840000D03*
X6500000Y-40300000D03*
X6500000Y-37760000D03*
X6500000Y-35220000D03*
X6500000Y-32680000D03*
X6500000Y-30140000D03*
X6500000Y-27600000D03*
X6500000Y-25060000D03*
X6500000Y-22520000D03*
D12*
X46736000Y-17788800D03*
D13*
X49276000Y-17788800D03*
D12*
X53284000Y-17788800D03*
D13*
X55824000Y-17788800D03*
D14*
X5000000Y-5000000D03*
D15*
X7025000Y-5000000D03*
X6431891Y-6431891D03*
X5000000Y-7025000D03*
X3568109Y-6431891D03*
X2975000Y-5000000D03*
X3568109Y-3568109D03*
X5000000Y-2975000D03*
X6431891Y-3568109D03*
D14*
X5000000Y-95000000D03*
D15*
X7025000Y-95000000D03*
X6431891Y-96431891D03*
X5000000Y-97025000D03*
X3568109Y-96431891D03*
X2975000Y-95000000D03*
X3568109Y-93568109D03*
X5000000Y-92975000D03*
X6431891Y-93568109D03*
D14*
X55000000Y-95000000D03*
D15*
X57025000Y-95000000D03*
X56431891Y-96431891D03*
X55000000Y-97025000D03*
X53568109Y-96431891D03*
X52975000Y-95000000D03*
X53568109Y-93568109D03*
X55000000Y-92975000D03*
X56431891Y-93568109D03*
X44805600Y-51663600D03*
X44805600Y-52654200D03*
X50368200Y-44602400D03*
X44958000Y-13182600D03*
X46888400Y-13157200D03*
X46913800Y-12217400D03*
X44958000Y-12293600D03*
X51231800Y-44577000D03*
X58953400Y-59182000D03*
X58064400Y-59182000D03*
X53035200Y-56718200D03*
X52171600Y-56718200D03*
X47142400Y-58166000D03*
X47142410Y-56997610D03*
X58433800Y-65711200D03*
X53543800Y-66141200D03*
X53543800Y-65141200D03*
X58443800Y-64881200D03*
X56464200Y-41935400D03*
X50927000Y-41325800D03*
X55626000Y-41935400D03*
X50927000Y-40487600D03*
X48550000Y-57350000D03*
X49450000Y-57350000D03*
X49744200Y-60934600D03*
X44094400Y-61010800D03*
X49744200Y-61899800D03*
X44094400Y-61899800D03*
X47625000Y-83591400D03*
X41833800Y-83591400D03*
X48488600Y-83591400D03*
X40995600Y-83591400D03*
X48793400Y-69392800D03*
X43840400Y-69367400D03*
X42900600Y-69367400D03*
X49733200Y-69392800D03*
X19250000Y-93950000D03*
X19250000Y-91950000D03*
X19250000Y-92950000D03*
X19250000Y-89950000D03*
X19250000Y-87950000D03*
X19250000Y-88950000D03*
X19250000Y-85900000D03*
X19250000Y-83900000D03*
X19250000Y-84900000D03*
X19250000Y-81950000D03*
X19250000Y-79950000D03*
X19250000Y-80950000D03*
X19250000Y-78050000D03*
X19250000Y-76050000D03*
X19250000Y-77050000D03*
X19250000Y-74250000D03*
X19250000Y-72250000D03*
X19250000Y-73250000D03*
X19250000Y-70350000D03*
X19250000Y-68350000D03*
X19250000Y-69350000D03*
X19250000Y-66550000D03*
X19250000Y-64550000D03*
X19250000Y-65550000D03*
X19250000Y-62650000D03*
X19250000Y-60650000D03*
X19250000Y-61650000D03*
X19300000Y-58850000D03*
X19300000Y-56850000D03*
X19300000Y-57850000D03*
X19250000Y-54950000D03*
X19250000Y-52950000D03*
X19250000Y-53950000D03*
X19250000Y-51150000D03*
X19250000Y-49150000D03*
X19250000Y-50150000D03*
X19250000Y-47200000D03*
X19250000Y-45200000D03*
X19250000Y-46200000D03*
X19250000Y-43350000D03*
X19250000Y-41350000D03*
X19250000Y-42350000D03*
X19250000Y-39450000D03*
X19250000Y-37450000D03*
X19250000Y-38450000D03*
X19250000Y-35650000D03*
X19250000Y-33650000D03*
X19250000Y-34650000D03*
X19250000Y-31750000D03*
X19250000Y-29750000D03*
X19250000Y-30750000D03*
X19250000Y-27950000D03*
X19250000Y-25950000D03*
X19250000Y-26950000D03*
X19250000Y-24050000D03*
X19250000Y-22050000D03*
X19250000Y-23050000D03*
X19250000Y-20250000D03*
X19250000Y-18250000D03*
X19250000Y-19250000D03*
X19250000Y-16350000D03*
X19250000Y-14350000D03*
X19250000Y-15350000D03*
X19250000Y-12500000D03*
X19250000Y-10500000D03*
X19250000Y-11500000D03*
X19250000Y-8650000D03*
X19250000Y-6500000D03*
X19250000Y-7600000D03*
X19250000Y-4800000D03*
X19250000Y-2800000D03*
X19250000Y-3800000D03*
X4775000Y-55900000D03*
X3875000Y-55900000D03*
X13970000Y-98323400D03*
X13970000Y-96266000D03*
X13970000Y-97282000D03*
X6000000Y-19300000D03*
X6000000Y-16800000D03*
X6000000Y-14300000D03*
X34900000Y-40110000D03*
X34900000Y-39250000D03*
X37250000Y-33650000D03*
X36400000Y-33660000D03*
X37050000Y-25950000D03*
X36220000Y-25950000D03*
X37250000Y-18250000D03*
X36360000Y-18250000D03*
X58547600Y-10316400D03*
X30390000Y-92380000D03*
X36370000Y-87960000D03*
X37230000Y-87960000D03*
X36607800Y-80610400D03*
X36420000Y-72250000D03*
X36340000Y-64550000D03*
X36420000Y-56860000D03*
X34900000Y-47610000D03*
X36470000Y-10520000D03*
X36410000Y-2800000D03*
X30400000Y-93200000D03*
X37427800Y-80610400D03*
X37250000Y-72250000D03*
X37250000Y-64550000D03*
X37300000Y-56850000D03*
X34900000Y-46750000D03*
X37350000Y-10550000D03*
X37250000Y-2800000D03*
X58557600Y-11186400D03*
X49530000Y-53797200D03*
X48082194Y-55118000D03*
X49021998Y-55118000D03*
X48641000Y-53797200D03*
X42976800Y-78943200D03*
X50190400Y-78943200D03*
X49326800Y-78968600D03*
X43840400Y-78943200D03*
D16*
X44805600Y-52654200D02*
X44805600Y-51663600D01*
D17*
X44405601Y-53054199D02*
X44805600Y-52654200D01*
X4775000Y-55900000D02*
X31831600Y-55900000D01*
X31831600Y-55900000D02*
X34677401Y-53054199D01*
X34677401Y-53054199D02*
X44405601Y-53054199D01*
D16*
X52171600Y-56718200D02*
X53035200Y-56718200D01*
X48550000Y-57350000D02*
X49450000Y-57350000D01*
D17*
X49744200Y-57644200D02*
X49450000Y-57350000D01*
X49744200Y-60934600D02*
X49744200Y-57644200D01*
D16*
X49744200Y-61899800D02*
X49744200Y-60934600D01*
X44094400Y-61899800D02*
X44094400Y-61010800D01*
D17*
X6382000Y-86900000D02*
X5942000Y-86460000D01*
D16*
X40995600Y-83591400D02*
X41833800Y-83591400D01*
X47625000Y-83591400D02*
X48488600Y-83591400D01*
X48793400Y-69392800D02*
X49733200Y-69392800D01*
X42900600Y-69367400D02*
X43840400Y-69367400D01*
X19250000Y-88950000D02*
X19250000Y-87950000D01*
X19250000Y-85900000D02*
X19250000Y-84900000D01*
X19250000Y-80950000D02*
X19250000Y-79950000D01*
X19250000Y-78050000D02*
X19250000Y-77050000D01*
X19250000Y-73250000D02*
X19250000Y-72250000D01*
X19250000Y-64550000D02*
X19250000Y-65550000D01*
X19250000Y-70350000D02*
X19250000Y-69350000D01*
X19300000Y-57850000D02*
X19300000Y-56850000D01*
X19250000Y-62650000D02*
X19250000Y-61650000D01*
X19250000Y-54950000D02*
X19250000Y-53950000D01*
X3875000Y-55900000D02*
X4775000Y-55900000D01*
D17*
X3875000Y-55900000D02*
X3875000Y-55900000D01*
X51689000Y-82677000D02*
X51689000Y-68124210D01*
X50774600Y-83591400D02*
X51689000Y-82677000D01*
X48514000Y-83591400D02*
X50774600Y-83591400D01*
X51689000Y-68124210D02*
X52171600Y-67641610D01*
X52171600Y-57283885D02*
X52171600Y-56718200D01*
X52171600Y-67641610D02*
X52171600Y-57283885D01*
D16*
X48082194Y-55118000D02*
X49021998Y-55118000D01*
D17*
X49421997Y-55517999D02*
X49021998Y-55118000D01*
X50756389Y-56852391D02*
X49421997Y-55517999D01*
X50756389Y-68369611D02*
X50756389Y-56852391D01*
X49733200Y-69392800D02*
X50756389Y-68369611D01*
D16*
X48641000Y-53797200D02*
X49530000Y-53797200D01*
D17*
X49606200Y-53797200D02*
X49530000Y-53797200D01*
X51206400Y-55397400D02*
X49606200Y-53797200D01*
X51206400Y-78492885D02*
X51206400Y-55397400D01*
X50756085Y-78943200D02*
X51206400Y-78492885D01*
X50190400Y-78943200D02*
X50756085Y-78943200D01*
D16*
X42976800Y-78943200D02*
X43840400Y-78943200D01*
X50165000Y-78968600D02*
X50190400Y-78943200D01*
X49326800Y-78968600D02*
X50165000Y-78968600D01*
D17*
X40987000Y-83600000D02*
X34200000Y-83600000D01*
X40995600Y-83591400D02*
X40987000Y-83600000D01*
X6984200Y-86944200D02*
X6500000Y-86460000D01*
X34200000Y-83600000D02*
X30900000Y-86900000D01*
X7489401Y-86900000D02*
X7445201Y-86944200D01*
X30900000Y-86900000D02*
X7489401Y-86900000D01*
X7445201Y-86944200D02*
X6984200Y-86944200D01*
X9983200Y-78943200D02*
X6500000Y-75460000D01*
X42976800Y-78943200D02*
X9983200Y-78943200D01*
X8120000Y-71300000D02*
X6500000Y-72920000D01*
X31011200Y-71300000D02*
X8120000Y-71300000D01*
X32893000Y-69418200D02*
X31011200Y-71300000D01*
X42900600Y-69367400D02*
X42849800Y-69418200D01*
X42849800Y-69418200D02*
X32893000Y-69418200D01*
X7231000Y-61460000D02*
X6500000Y-61460000D01*
X9495990Y-63724990D02*
X7231000Y-61460000D01*
X30407410Y-63724990D02*
X9495990Y-63724990D01*
X31832601Y-62299799D02*
X30407410Y-63724990D01*
X44094400Y-61899800D02*
X43694401Y-62299799D01*
X43694401Y-62299799D02*
X31832601Y-62299799D01*
D18*
G36*
X11183296Y-1220092D02*
G01*
X11164670Y-1237797D01*
X11032874Y-1391322D01*
X11018195Y-1412412D01*
X10920000Y-1589324D01*
X10909866Y-1612939D01*
X10849294Y-1805996D01*
X10844122Y-1831167D01*
X10823652Y-2032466D01*
X10823000Y-2045314D01*
X10823000Y-9045314D01*
X10823367Y-9054958D01*
X10834899Y-9206386D01*
X10838586Y-9228575D01*
X10889302Y-9424452D01*
X10898227Y-9448550D01*
X10899408Y-9450957D01*
X10849294Y-9610682D01*
X10844122Y-9635853D01*
X10823652Y-9837152D01*
X10823000Y-9850000D01*
X10823000Y-17000000D01*
X10823382Y-17009847D01*
X10835407Y-17164463D01*
X10839183Y-17186846D01*
X10875770Y-17326296D01*
X10849294Y-17410682D01*
X10844122Y-17435853D01*
X10823652Y-17637152D01*
X10823000Y-17650000D01*
X10823000Y-24750000D01*
X10823367Y-24759644D01*
X10834899Y-24911072D01*
X10838586Y-24933261D01*
X10868625Y-25049279D01*
X10848883Y-25112584D01*
X10843754Y-25137763D01*
X10823631Y-25339097D01*
X10823001Y-25351947D01*
X10835096Y-32351947D01*
X10835471Y-32361482D01*
X10847002Y-32511182D01*
X10850681Y-32533261D01*
X10882314Y-32655438D01*
X10849294Y-32760682D01*
X10844122Y-32785853D01*
X10823652Y-32987152D01*
X10823000Y-33000000D01*
X10823000Y-40000000D01*
X10823367Y-40009644D01*
X10834899Y-40161072D01*
X10838586Y-40183261D01*
X10889302Y-40379138D01*
X10889986Y-40380986D01*
X10849294Y-40510682D01*
X10844122Y-40535853D01*
X10823652Y-40737152D01*
X10823000Y-40750000D01*
X10823000Y-47750000D01*
X10823367Y-47759644D01*
X10834899Y-47911072D01*
X10838586Y-47933261D01*
X10889302Y-48129138D01*
X10889986Y-48130986D01*
X10849294Y-48260682D01*
X10844122Y-48285853D01*
X10823652Y-48487152D01*
X10823000Y-48500000D01*
X10823000Y-54648000D01*
X8148780Y-54648000D01*
X8188226Y-54613054D01*
X8208528Y-54590137D01*
X8346479Y-54390281D01*
X8360707Y-54363171D01*
X8446820Y-54136107D01*
X8454147Y-54106381D01*
X8483419Y-53865308D01*
X8484345Y-53850000D01*
X8484345Y-52150000D01*
X8482265Y-52127108D01*
X8416804Y-51769899D01*
X8404337Y-51733771D01*
X8291482Y-51518743D01*
X8274090Y-51493547D01*
X8221488Y-51434171D01*
X8312198Y-51261760D01*
X8319557Y-51244916D01*
X8408956Y-50991760D01*
X8413807Y-50974030D01*
X8465724Y-50710620D01*
X8467964Y-50692376D01*
X8481314Y-50424231D01*
X8480897Y-50405854D01*
X8455397Y-50138591D01*
X8452331Y-50120467D01*
X8388518Y-49859683D01*
X8382869Y-49842191D01*
X8282079Y-49593352D01*
X8273963Y-49576859D01*
X8138306Y-49345175D01*
X8127895Y-49330027D01*
X8018482Y-49193212D01*
X8019482Y-49192028D01*
X8177478Y-48974964D01*
X8187191Y-48959359D01*
X8312198Y-48721760D01*
X8319557Y-48704916D01*
X8408956Y-48451760D01*
X8413807Y-48434030D01*
X8465724Y-48170620D01*
X8467964Y-48152376D01*
X8481314Y-47884231D01*
X8480897Y-47865854D01*
X8455397Y-47598591D01*
X8452331Y-47580467D01*
X8388518Y-47319683D01*
X8382869Y-47302191D01*
X8282079Y-47053352D01*
X8273963Y-47036859D01*
X8138306Y-46805175D01*
X8127895Y-46790027D01*
X8018482Y-46653212D01*
X8019482Y-46652028D01*
X8177478Y-46434964D01*
X8187191Y-46419359D01*
X8312198Y-46181760D01*
X8319557Y-46164916D01*
X8408956Y-45911760D01*
X8413807Y-45894030D01*
X8465724Y-45630620D01*
X8467964Y-45612376D01*
X8481314Y-45344231D01*
X8480897Y-45325854D01*
X8455397Y-45058591D01*
X8452331Y-45040467D01*
X8388518Y-44779683D01*
X8382869Y-44762191D01*
X8282079Y-44513352D01*
X8273963Y-44496859D01*
X8138306Y-44265175D01*
X8127895Y-44250027D01*
X8018482Y-44113212D01*
X8019482Y-44112028D01*
X8177478Y-43894964D01*
X8187191Y-43879359D01*
X8312198Y-43641760D01*
X8319557Y-43624916D01*
X8408956Y-43371760D01*
X8413807Y-43354030D01*
X8465724Y-43090620D01*
X8467964Y-43072376D01*
X8481314Y-42804231D01*
X8480897Y-42785854D01*
X8455397Y-42518591D01*
X8452331Y-42500467D01*
X8388518Y-42239683D01*
X8382869Y-42222191D01*
X8282079Y-41973352D01*
X8273963Y-41956859D01*
X8138306Y-41725175D01*
X8127895Y-41710027D01*
X8018482Y-41573212D01*
X8019482Y-41572028D01*
X8177478Y-41354964D01*
X8187191Y-41339359D01*
X8312198Y-41101760D01*
X8319557Y-41084916D01*
X8408956Y-40831760D01*
X8413807Y-40814030D01*
X8465724Y-40550620D01*
X8467964Y-40532376D01*
X8481314Y-40264231D01*
X8480897Y-40245854D01*
X8455397Y-39978591D01*
X8452331Y-39960467D01*
X8388518Y-39699683D01*
X8382869Y-39682191D01*
X8282079Y-39433352D01*
X8273963Y-39416859D01*
X8138306Y-39185175D01*
X8127895Y-39170027D01*
X8018482Y-39033212D01*
X8019482Y-39032028D01*
X8177478Y-38814964D01*
X8187191Y-38799359D01*
X8312198Y-38561760D01*
X8319557Y-38544916D01*
X8408956Y-38291760D01*
X8413807Y-38274030D01*
X8465724Y-38010620D01*
X8467964Y-37992376D01*
X8481314Y-37724231D01*
X8480897Y-37705854D01*
X8455397Y-37438591D01*
X8452331Y-37420467D01*
X8388518Y-37159683D01*
X8382869Y-37142191D01*
X8282079Y-36893352D01*
X8273963Y-36876859D01*
X8138306Y-36645175D01*
X8127895Y-36630027D01*
X8018482Y-36493212D01*
X8019482Y-36492028D01*
X8177478Y-36274964D01*
X8187191Y-36259359D01*
X8312198Y-36021760D01*
X8319557Y-36004916D01*
X8408956Y-35751760D01*
X8413807Y-35734030D01*
X8465724Y-35470620D01*
X8467964Y-35452376D01*
X8481314Y-35184231D01*
X8480897Y-35165854D01*
X8455397Y-34898591D01*
X8452331Y-34880467D01*
X8388518Y-34619683D01*
X8382869Y-34602191D01*
X8282079Y-34353352D01*
X8273963Y-34336859D01*
X8138306Y-34105175D01*
X8127895Y-34090027D01*
X8018482Y-33953212D01*
X8019482Y-33952028D01*
X8177478Y-33734964D01*
X8187191Y-33719359D01*
X8312198Y-33481760D01*
X8319557Y-33464916D01*
X8408956Y-33211760D01*
X8413807Y-33194030D01*
X8465724Y-32930620D01*
X8467964Y-32912376D01*
X8481314Y-32644231D01*
X8480897Y-32625854D01*
X8455397Y-32358591D01*
X8452331Y-32340467D01*
X8388518Y-32079683D01*
X8382869Y-32062191D01*
X8282079Y-31813352D01*
X8273963Y-31796859D01*
X8138306Y-31565175D01*
X8127895Y-31550027D01*
X8018482Y-31413212D01*
X8019482Y-31412028D01*
X8177478Y-31194964D01*
X8187191Y-31179359D01*
X8312198Y-30941760D01*
X8319557Y-30924916D01*
X8408956Y-30671760D01*
X8413807Y-30654030D01*
X8465724Y-30390620D01*
X8467964Y-30372376D01*
X8481314Y-30104231D01*
X8480897Y-30085854D01*
X8455397Y-29818591D01*
X8452331Y-29800467D01*
X8388518Y-29539683D01*
X8382869Y-29522191D01*
X8282079Y-29273352D01*
X8273963Y-29256859D01*
X8138306Y-29025175D01*
X8127895Y-29010027D01*
X8018482Y-28873212D01*
X8019482Y-28872028D01*
X8177478Y-28654964D01*
X8187191Y-28639359D01*
X8312198Y-28401760D01*
X8319557Y-28384916D01*
X8408956Y-28131760D01*
X8413807Y-28114030D01*
X8465724Y-27850620D01*
X8467964Y-27832376D01*
X8481314Y-27564231D01*
X8480897Y-27545854D01*
X8455397Y-27278591D01*
X8452331Y-27260467D01*
X8388518Y-26999683D01*
X8382869Y-26982191D01*
X8282079Y-26733352D01*
X8273963Y-26716859D01*
X8138306Y-26485175D01*
X8127895Y-26470027D01*
X8018482Y-26333212D01*
X8019482Y-26332028D01*
X8177478Y-26114964D01*
X8187191Y-26099359D01*
X8312198Y-25861760D01*
X8319557Y-25844916D01*
X8408956Y-25591760D01*
X8413807Y-25574030D01*
X8465724Y-25310620D01*
X8467964Y-25292376D01*
X8481314Y-25024231D01*
X8480897Y-25005854D01*
X8455397Y-24738591D01*
X8452331Y-24720467D01*
X8388518Y-24459683D01*
X8382869Y-24442191D01*
X8282079Y-24193352D01*
X8273963Y-24176859D01*
X8138306Y-23945175D01*
X8127895Y-23930027D01*
X8018482Y-23793212D01*
X8019482Y-23792028D01*
X8177478Y-23574964D01*
X8187191Y-23559359D01*
X8312198Y-23321760D01*
X8319557Y-23304916D01*
X8408956Y-23051760D01*
X8413807Y-23034030D01*
X8465724Y-22770620D01*
X8467964Y-22752376D01*
X8481314Y-22484231D01*
X8480897Y-22465854D01*
X8455397Y-22198591D01*
X8452331Y-22180467D01*
X8388518Y-21919683D01*
X8382869Y-21902191D01*
X8282079Y-21653352D01*
X8273963Y-21636859D01*
X8138306Y-21405175D01*
X8127895Y-21390027D01*
X7960215Y-21180353D01*
X7947726Y-21166866D01*
X7751534Y-20983593D01*
X7737228Y-20972050D01*
X7516634Y-20819019D01*
X7500813Y-20809662D01*
X7260439Y-20690078D01*
X7243432Y-20683103D01*
X6988314Y-20599471D01*
X6964230Y-20594099D01*
X6555775Y-20543947D01*
X6540298Y-20543000D01*
X6431806Y-20543000D01*
X6422615Y-20543333D01*
X6223036Y-20557814D01*
X6204848Y-20560467D01*
X5942684Y-20618347D01*
X5925068Y-20623599D01*
X5674005Y-20718719D01*
X5657332Y-20726458D01*
X5422631Y-20856823D01*
X5407251Y-20866888D01*
X5193826Y-21029768D01*
X5180058Y-21041948D01*
X4992382Y-21233932D01*
X4980518Y-21247972D01*
X4822522Y-21465036D01*
X4812809Y-21480641D01*
X4687802Y-21718240D01*
X4680443Y-21735084D01*
X4591044Y-21988240D01*
X4586193Y-22005970D01*
X4534276Y-22269380D01*
X4532036Y-22287624D01*
X4518686Y-22555769D01*
X4519103Y-22574146D01*
X4544603Y-22841409D01*
X4547669Y-22859533D01*
X4611482Y-23120317D01*
X4617131Y-23137809D01*
X4717921Y-23386648D01*
X4726037Y-23403141D01*
X4861694Y-23634825D01*
X4872105Y-23649973D01*
X4981518Y-23786788D01*
X4980518Y-23787972D01*
X4822522Y-24005036D01*
X4812809Y-24020641D01*
X4687802Y-24258240D01*
X4680443Y-24275084D01*
X4591044Y-24528240D01*
X4586193Y-24545970D01*
X4534276Y-24809380D01*
X4532036Y-24827624D01*
X4518686Y-25095769D01*
X4519103Y-25114146D01*
X4544603Y-25381409D01*
X4547669Y-25399533D01*
X4611482Y-25660317D01*
X4617131Y-25677809D01*
X4717921Y-25926648D01*
X4726037Y-25943141D01*
X4861694Y-26174825D01*
X4872105Y-26189973D01*
X4981518Y-26326788D01*
X4980518Y-26327972D01*
X4822522Y-26545036D01*
X4812809Y-26560641D01*
X4687802Y-26798240D01*
X4680443Y-26815084D01*
X4591044Y-27068240D01*
X4586193Y-27085970D01*
X4534276Y-27349380D01*
X4532036Y-27367624D01*
X4518686Y-27635769D01*
X4519103Y-27654146D01*
X4544603Y-27921409D01*
X4547669Y-27939533D01*
X4611482Y-28200317D01*
X4617131Y-28217809D01*
X4717921Y-28466648D01*
X4726037Y-28483141D01*
X4861694Y-28714825D01*
X4872105Y-28729973D01*
X4981518Y-28866788D01*
X4980518Y-28867972D01*
X4822522Y-29085036D01*
X4812809Y-29100641D01*
X4687802Y-29338240D01*
X4680443Y-29355084D01*
X4591044Y-29608240D01*
X4586193Y-29625970D01*
X4534276Y-29889380D01*
X4532036Y-29907624D01*
X4518686Y-30175769D01*
X4519103Y-30194146D01*
X4544603Y-30461409D01*
X4547669Y-30479533D01*
X4611482Y-30740317D01*
X4617131Y-30757809D01*
X4717921Y-31006648D01*
X4726037Y-31023141D01*
X4861694Y-31254825D01*
X4872105Y-31269973D01*
X4981518Y-31406788D01*
X4980518Y-31407972D01*
X4822522Y-31625036D01*
X4812809Y-31640641D01*
X4687802Y-31878240D01*
X4680443Y-31895084D01*
X4591044Y-32148240D01*
X4586193Y-32165970D01*
X4534276Y-32429380D01*
X4532036Y-32447624D01*
X4518686Y-32715769D01*
X4519103Y-32734146D01*
X4544603Y-33001409D01*
X4547669Y-33019533D01*
X4611482Y-33280317D01*
X4617131Y-33297809D01*
X4717921Y-33546648D01*
X4726037Y-33563141D01*
X4861694Y-33794825D01*
X4872105Y-33809973D01*
X4981518Y-33946788D01*
X4980518Y-33947972D01*
X4822522Y-34165036D01*
X4812809Y-34180641D01*
X4687802Y-34418240D01*
X4680443Y-34435084D01*
X4591044Y-34688240D01*
X4586193Y-34705970D01*
X4534276Y-34969380D01*
X4532036Y-34987624D01*
X4518686Y-35255769D01*
X4519103Y-35274146D01*
X4544603Y-35541409D01*
X4547669Y-35559533D01*
X4611482Y-35820317D01*
X4617131Y-35837809D01*
X4717921Y-36086648D01*
X4726037Y-36103141D01*
X4861694Y-36334825D01*
X4872105Y-36349973D01*
X4981518Y-36486788D01*
X4980518Y-36487972D01*
X4822522Y-36705036D01*
X4812809Y-36720641D01*
X4687802Y-36958240D01*
X4680443Y-36975084D01*
X4591044Y-37228240D01*
X4586193Y-37245970D01*
X4534276Y-37509380D01*
X4532036Y-37527624D01*
X4518686Y-37795769D01*
X4519103Y-37814146D01*
X4544603Y-38081409D01*
X4547669Y-38099533D01*
X4611482Y-38360317D01*
X4617131Y-38377809D01*
X4717921Y-38626648D01*
X4726037Y-38643141D01*
X4861694Y-38874825D01*
X4872105Y-38889973D01*
X4981518Y-39026788D01*
X4980518Y-39027972D01*
X4822522Y-39245036D01*
X4812809Y-39260641D01*
X4687802Y-39498240D01*
X4680443Y-39515084D01*
X4591044Y-39768240D01*
X4586193Y-39785970D01*
X4534276Y-40049380D01*
X4532036Y-40067624D01*
X4518686Y-40335769D01*
X4519103Y-40354146D01*
X4544603Y-40621409D01*
X4547669Y-40639533D01*
X4611482Y-40900317D01*
X4617131Y-40917809D01*
X4717921Y-41166648D01*
X4726037Y-41183141D01*
X4861694Y-41414825D01*
X4872105Y-41429973D01*
X4981518Y-41566788D01*
X4980518Y-41567972D01*
X4822522Y-41785036D01*
X4812809Y-41800641D01*
X4687802Y-42038240D01*
X4680443Y-42055084D01*
X4591044Y-42308240D01*
X4586193Y-42325970D01*
X4534276Y-42589380D01*
X4532036Y-42607624D01*
X4518686Y-42875769D01*
X4519103Y-42894146D01*
X4544603Y-43161409D01*
X4547669Y-43179533D01*
X4611482Y-43440317D01*
X4617131Y-43457809D01*
X4717921Y-43706648D01*
X4726037Y-43723141D01*
X4861694Y-43954825D01*
X4872105Y-43969973D01*
X4981518Y-44106788D01*
X4980518Y-44107972D01*
X4822522Y-44325036D01*
X4812809Y-44340641D01*
X4687802Y-44578240D01*
X4680443Y-44595084D01*
X4591044Y-44848240D01*
X4586193Y-44865970D01*
X4534276Y-45129380D01*
X4532036Y-45147624D01*
X4518686Y-45415769D01*
X4519103Y-45434146D01*
X4544603Y-45701409D01*
X4547669Y-45719533D01*
X4611482Y-45980317D01*
X4617131Y-45997809D01*
X4717921Y-46246648D01*
X4726037Y-46263141D01*
X4861694Y-46494825D01*
X4872105Y-46509973D01*
X4981518Y-46646788D01*
X4980518Y-46647972D01*
X4822522Y-46865036D01*
X4812809Y-46880641D01*
X4687802Y-47118240D01*
X4680443Y-47135084D01*
X4591044Y-47388240D01*
X4586193Y-47405970D01*
X4534276Y-47669380D01*
X4532036Y-47687624D01*
X4518686Y-47955769D01*
X4519103Y-47974146D01*
X4544603Y-48241409D01*
X4547669Y-48259533D01*
X4611482Y-48520317D01*
X4617131Y-48537809D01*
X4717921Y-48786648D01*
X4726037Y-48803141D01*
X4861694Y-49034825D01*
X4872105Y-49049973D01*
X4981518Y-49186788D01*
X4980518Y-49187972D01*
X4822522Y-49405036D01*
X4812809Y-49420641D01*
X4687802Y-49658240D01*
X4680443Y-49675084D01*
X4591044Y-49928240D01*
X4586193Y-49945970D01*
X4534276Y-50209380D01*
X4532036Y-50227624D01*
X4518686Y-50495769D01*
X4519103Y-50514146D01*
X4544603Y-50781409D01*
X4547669Y-50799533D01*
X4611482Y-51060317D01*
X4617131Y-51077809D01*
X4717921Y-51326648D01*
X4726037Y-51343141D01*
X4777206Y-51430531D01*
X4653521Y-51609719D01*
X4639293Y-51636829D01*
X4553180Y-51863893D01*
X4545853Y-51893619D01*
X4516581Y-52134692D01*
X4515655Y-52150000D01*
X4515655Y-53850000D01*
X4517735Y-53872892D01*
X4583196Y-54230101D01*
X4595663Y-54266229D01*
X4599217Y-54273000D01*
X3798850Y-54273000D01*
X3786016Y-54273650D01*
X3558994Y-54296710D01*
X3533850Y-54301871D01*
X3243062Y-54392998D01*
X3219469Y-54403110D01*
X2952944Y-54550848D01*
X2931867Y-54565497D01*
X2700493Y-54763808D01*
X2682791Y-54782397D01*
X2496018Y-55023183D01*
X2482416Y-55044951D01*
X2347875Y-55318375D01*
X2338928Y-55342433D01*
X2262114Y-55637325D01*
X2258187Y-55662692D01*
X2242239Y-55967007D01*
X2243493Y-55992644D01*
X2289061Y-56293949D01*
X2295444Y-56318811D01*
X2400668Y-56604801D01*
X2411921Y-56627871D01*
X2572501Y-56886860D01*
X2588162Y-56907197D01*
X2797540Y-57128608D01*
X2816971Y-57145380D01*
X3066593Y-57320167D01*
X3088999Y-57332690D01*
X3368668Y-57453714D01*
X3399677Y-57462664D01*
X3805606Y-57525505D01*
X3825035Y-57527000D01*
X4851150Y-57527000D01*
X4863984Y-57526350D01*
X5091006Y-57503290D01*
X5116150Y-57498129D01*
X5406938Y-57407002D01*
X5430531Y-57396890D01*
X5697056Y-57249152D01*
X5718133Y-57234502D01*
X5814390Y-57152000D01*
X10823000Y-57152000D01*
X10823000Y-62472990D01*
X10014586Y-62472990D01*
X8382245Y-60840650D01*
X8282079Y-60593352D01*
X8273963Y-60576859D01*
X8138306Y-60345175D01*
X8127895Y-60330027D01*
X7960215Y-60120353D01*
X7947726Y-60106866D01*
X7751534Y-59923593D01*
X7737228Y-59912050D01*
X7655203Y-59855148D01*
X7760218Y-59714003D01*
X7771534Y-59695751D01*
X7875982Y-59490317D01*
X7884062Y-59470420D01*
X7952403Y-59250326D01*
X7957014Y-59229353D01*
X7962139Y-59190688D01*
X7951175Y-59119973D01*
X7903720Y-59066411D01*
X7836240Y-59047000D01*
X5165694Y-59047000D01*
X5097033Y-59067161D01*
X5050171Y-59121242D01*
X5041401Y-59200079D01*
X5070282Y-59337725D01*
X5076453Y-59358295D01*
X5161104Y-59572646D01*
X5170652Y-59591881D01*
X5290209Y-59788905D01*
X5302862Y-59806257D01*
X5344781Y-59854564D01*
X5193826Y-59969768D01*
X5180058Y-59981948D01*
X4992382Y-60173932D01*
X4980518Y-60187972D01*
X4822522Y-60405036D01*
X4812809Y-60420641D01*
X4687802Y-60658240D01*
X4680443Y-60675084D01*
X4591044Y-60928240D01*
X4586193Y-60945970D01*
X4534276Y-61209380D01*
X4532036Y-61227624D01*
X4518686Y-61495769D01*
X4519103Y-61514146D01*
X4544603Y-61781409D01*
X4547669Y-61799533D01*
X4611482Y-62060317D01*
X4617131Y-62077809D01*
X4717921Y-62326648D01*
X4726037Y-62343141D01*
X4777206Y-62430531D01*
X4653521Y-62609719D01*
X4639293Y-62636829D01*
X4553180Y-62863893D01*
X4545853Y-62893619D01*
X4516581Y-63134692D01*
X4515655Y-63150000D01*
X4515655Y-64850000D01*
X4517735Y-64872892D01*
X4583196Y-65230101D01*
X4595663Y-65266229D01*
X4708518Y-65481257D01*
X4725910Y-65506454D01*
X4886946Y-65688226D01*
X4909863Y-65708528D01*
X5109719Y-65846479D01*
X5136829Y-65860707D01*
X5363893Y-65946820D01*
X5393619Y-65954147D01*
X5634692Y-65983419D01*
X5650000Y-65984345D01*
X7350000Y-65984345D01*
X7372892Y-65982265D01*
X7730101Y-65916804D01*
X7766229Y-65904337D01*
X7981257Y-65791482D01*
X8006454Y-65774090D01*
X8188226Y-65613054D01*
X8208528Y-65590137D01*
X8346479Y-65390281D01*
X8360707Y-65363171D01*
X8446820Y-65136107D01*
X8454147Y-65106381D01*
X8483419Y-64865308D01*
X8484345Y-64850000D01*
X8484345Y-64483941D01*
X8543559Y-64543155D01*
X8565328Y-64572736D01*
X8585389Y-64594248D01*
X8646961Y-64646557D01*
X8657138Y-64656734D01*
X8668142Y-64666529D01*
X8702026Y-64693337D01*
X8785315Y-64764096D01*
X8809788Y-64780418D01*
X8816286Y-64783736D01*
X8822009Y-64788264D01*
X8847037Y-64803722D01*
X8946077Y-64850010D01*
X9043421Y-64899717D01*
X9075725Y-64910604D01*
X9084694Y-64914796D01*
X9112604Y-64924081D01*
X9369440Y-64977503D01*
X9398738Y-64980118D01*
X9514335Y-64976990D01*
X10823000Y-64976990D01*
X10823000Y-70048000D01*
X8214934Y-70048000D01*
X8178630Y-70042477D01*
X8149233Y-70041450D01*
X8068707Y-70048000D01*
X8054315Y-70048000D01*
X8039607Y-70048855D01*
X7996709Y-70053857D01*
X7949736Y-70057677D01*
X7929718Y-69962274D01*
X7923547Y-69941705D01*
X7838896Y-69727354D01*
X7829348Y-69708119D01*
X7709791Y-69511095D01*
X7697138Y-69493743D01*
X7546094Y-69319680D01*
X7530698Y-69304708D01*
X7352485Y-69158583D01*
X7334787Y-69146420D01*
X7134502Y-69032411D01*
X7115007Y-69023403D01*
X6898376Y-68944770D01*
X6871731Y-68938250D01*
X6770687Y-68924857D01*
X6699972Y-68935821D01*
X6646411Y-68983276D01*
X6627000Y-69050756D01*
X6627000Y-70507000D01*
X5165694Y-70507000D01*
X5097033Y-70527161D01*
X5050171Y-70581242D01*
X5041401Y-70660079D01*
X5070282Y-70797725D01*
X5076453Y-70818295D01*
X5161104Y-71032646D01*
X5170652Y-71051881D01*
X5290209Y-71248905D01*
X5302862Y-71266257D01*
X5344781Y-71314564D01*
X5193826Y-71429768D01*
X5180058Y-71441948D01*
X4992382Y-71633932D01*
X4980518Y-71647972D01*
X4822522Y-71865036D01*
X4812809Y-71880641D01*
X4687802Y-72118240D01*
X4680443Y-72135084D01*
X4591044Y-72388240D01*
X4586193Y-72405970D01*
X4534276Y-72669380D01*
X4532036Y-72687624D01*
X4518686Y-72955769D01*
X4519103Y-72974146D01*
X4544603Y-73241409D01*
X4547669Y-73259533D01*
X4611482Y-73520317D01*
X4617131Y-73537809D01*
X4717921Y-73786648D01*
X4726037Y-73803141D01*
X4861694Y-74034825D01*
X4872105Y-74049973D01*
X4981518Y-74186788D01*
X4980518Y-74187972D01*
X4822522Y-74405036D01*
X4812809Y-74420641D01*
X4687802Y-74658240D01*
X4680443Y-74675084D01*
X4591044Y-74928240D01*
X4586193Y-74945970D01*
X4534276Y-75209380D01*
X4532036Y-75227624D01*
X4518686Y-75495769D01*
X4519103Y-75514146D01*
X4544603Y-75781409D01*
X4547669Y-75799533D01*
X4611482Y-76060317D01*
X4617131Y-76077809D01*
X4717921Y-76326648D01*
X4726037Y-76343141D01*
X4777206Y-76430531D01*
X4653521Y-76609719D01*
X4639293Y-76636829D01*
X4553180Y-76863893D01*
X4545853Y-76893619D01*
X4516581Y-77134692D01*
X4515655Y-77150000D01*
X4515655Y-78850000D01*
X4517735Y-78872892D01*
X4583196Y-79230101D01*
X4595663Y-79266229D01*
X4708518Y-79481257D01*
X4725910Y-79506454D01*
X4886946Y-79688226D01*
X4909863Y-79708528D01*
X5109719Y-79846479D01*
X5136829Y-79860707D01*
X5363893Y-79946820D01*
X5393619Y-79954147D01*
X5634692Y-79983419D01*
X5650000Y-79984345D01*
X7350000Y-79984345D01*
X7372892Y-79982265D01*
X7730101Y-79916804D01*
X7766229Y-79904337D01*
X7981257Y-79791482D01*
X8006454Y-79774090D01*
X8188226Y-79613054D01*
X8208528Y-79590137D01*
X8346479Y-79390281D01*
X8360707Y-79363171D01*
X8435462Y-79166057D01*
X9030769Y-79761365D01*
X9052538Y-79790946D01*
X9072599Y-79812458D01*
X9134171Y-79864767D01*
X9144348Y-79874944D01*
X9155352Y-79884739D01*
X9189236Y-79911547D01*
X9272525Y-79982306D01*
X9296998Y-79998628D01*
X9303496Y-80001946D01*
X9309219Y-80006474D01*
X9334247Y-80021932D01*
X9433287Y-80068220D01*
X9530631Y-80117927D01*
X9562935Y-80128814D01*
X9571904Y-80133006D01*
X9599814Y-80142291D01*
X9856650Y-80195713D01*
X9885948Y-80198328D01*
X10001545Y-80195200D01*
X10823000Y-80195200D01*
X10823000Y-85648000D01*
X8304213Y-85648000D01*
X8282079Y-85593353D01*
X8273963Y-85576859D01*
X8138306Y-85345175D01*
X8127895Y-85330027D01*
X7960215Y-85120353D01*
X7947726Y-85106866D01*
X7751534Y-84923593D01*
X7737228Y-84912050D01*
X7655203Y-84855148D01*
X7760218Y-84714003D01*
X7771534Y-84695751D01*
X7875982Y-84490317D01*
X7884062Y-84470420D01*
X7952403Y-84250326D01*
X7957014Y-84229353D01*
X7962139Y-84190688D01*
X7951175Y-84119973D01*
X7903720Y-84066411D01*
X7836240Y-84047000D01*
X5165694Y-84047000D01*
X5097033Y-84067161D01*
X5050171Y-84121242D01*
X5041401Y-84200079D01*
X5070282Y-84337725D01*
X5076453Y-84358295D01*
X5161104Y-84572646D01*
X5170652Y-84591881D01*
X5290209Y-84788905D01*
X5302862Y-84806257D01*
X5344781Y-84854564D01*
X5193826Y-84969768D01*
X5180058Y-84981948D01*
X4992382Y-85173932D01*
X4980518Y-85187972D01*
X4822522Y-85405036D01*
X4812809Y-85420641D01*
X4687802Y-85658240D01*
X4680443Y-85675084D01*
X4591044Y-85928240D01*
X4586193Y-85945970D01*
X4534276Y-86209380D01*
X4532036Y-86227624D01*
X4518686Y-86495769D01*
X4519103Y-86514146D01*
X4544603Y-86781409D01*
X4547669Y-86799533D01*
X4611482Y-87060317D01*
X4617131Y-87077809D01*
X4717921Y-87326648D01*
X4726037Y-87343141D01*
X4777206Y-87430531D01*
X4653521Y-87609719D01*
X4639293Y-87636829D01*
X4553180Y-87863893D01*
X4545853Y-87893619D01*
X4516581Y-88134692D01*
X4515655Y-88150000D01*
X4515655Y-89850000D01*
X4517735Y-89872892D01*
X4583196Y-90230101D01*
X4595663Y-90266229D01*
X4708518Y-90481257D01*
X4725910Y-90506454D01*
X4886946Y-90688226D01*
X4909863Y-90708528D01*
X5109719Y-90846479D01*
X5136829Y-90860707D01*
X5363893Y-90946820D01*
X5393619Y-90954147D01*
X5634692Y-90983419D01*
X5650000Y-90984345D01*
X7350000Y-90984345D01*
X7372892Y-90982265D01*
X7730101Y-90916804D01*
X7766229Y-90904337D01*
X7981257Y-90791482D01*
X8006454Y-90774090D01*
X8188226Y-90613054D01*
X8208528Y-90590137D01*
X8346479Y-90390281D01*
X8360707Y-90363171D01*
X8446820Y-90136107D01*
X8454147Y-90106381D01*
X8483419Y-89865308D01*
X8484345Y-89850000D01*
X8484345Y-88152000D01*
X10831853Y-88152000D01*
X10823001Y-94348390D01*
X10823361Y-94358124D01*
X10834892Y-94510981D01*
X10838586Y-94533261D01*
X10889302Y-94729138D01*
X10898227Y-94753235D01*
X10987335Y-94934894D01*
X11000927Y-94956701D01*
X11124778Y-95116704D01*
X11142483Y-95135330D01*
X11296008Y-95267126D01*
X11317098Y-95281805D01*
X11494010Y-95380000D01*
X11517625Y-95390134D01*
X11710682Y-95450706D01*
X11735853Y-95455878D01*
X11937152Y-95476348D01*
X11950000Y-95477000D01*
X19169982Y-95477000D01*
X19236725Y-95484015D01*
X19263275Y-95484015D01*
X19330018Y-95477000D01*
X27400000Y-95477000D01*
X27409191Y-95476667D01*
X27553555Y-95466192D01*
X27575318Y-95462695D01*
X27771552Y-95413379D01*
X27795712Y-95404627D01*
X27978003Y-95316819D01*
X27999908Y-95303382D01*
X28160791Y-95180676D01*
X28179541Y-95163106D01*
X28312431Y-95010527D01*
X28327261Y-94989541D01*
X28426717Y-94813335D01*
X28429886Y-94806091D01*
X51173001Y-94806091D01*
X51173001Y-95193909D01*
X51173697Y-95207184D01*
X51214235Y-95592877D01*
X51216314Y-95606007D01*
X51296945Y-95985349D01*
X51300386Y-95998189D01*
X51420229Y-96367026D01*
X51424993Y-96379436D01*
X51582732Y-96733725D01*
X51588767Y-96745570D01*
X51782676Y-97081430D01*
X51789916Y-97092579D01*
X52017869Y-97406330D01*
X52026235Y-97416661D01*
X52285736Y-97704865D01*
X52295135Y-97714264D01*
X52583339Y-97973765D01*
X52593670Y-97982131D01*
X52907421Y-98210084D01*
X52918570Y-98217324D01*
X53254430Y-98411233D01*
X53266275Y-98417268D01*
X53620564Y-98575007D01*
X53632974Y-98579771D01*
X54001811Y-98699614D01*
X54014651Y-98703055D01*
X54393993Y-98783686D01*
X54407123Y-98785765D01*
X54792816Y-98826303D01*
X54806091Y-98826999D01*
X55193909Y-98826999D01*
X55207184Y-98826303D01*
X55592877Y-98785765D01*
X55606007Y-98783686D01*
X55985349Y-98703055D01*
X55998189Y-98699614D01*
X56367026Y-98579771D01*
X56379436Y-98575007D01*
X56733725Y-98417268D01*
X56745570Y-98411233D01*
X57081430Y-98217324D01*
X57092579Y-98210084D01*
X57406330Y-97982131D01*
X57416661Y-97973765D01*
X57704865Y-97714264D01*
X57714264Y-97704865D01*
X57973765Y-97416661D01*
X57982131Y-97406330D01*
X58210084Y-97092579D01*
X58217324Y-97081430D01*
X58411233Y-96745570D01*
X58417268Y-96733725D01*
X58575007Y-96379436D01*
X58579771Y-96367026D01*
X58699614Y-95998189D01*
X58703055Y-95985349D01*
X58783686Y-95606007D01*
X58785765Y-95592877D01*
X58826303Y-95207184D01*
X58826999Y-95193909D01*
X58826999Y-94806091D01*
X58826303Y-94792816D01*
X58785765Y-94407123D01*
X58783686Y-94393993D01*
X58703055Y-94014651D01*
X58699614Y-94001811D01*
X58579771Y-93632974D01*
X58575007Y-93620564D01*
X58417268Y-93266275D01*
X58411233Y-93254430D01*
X58217324Y-92918570D01*
X58210084Y-92907421D01*
X57982131Y-92593670D01*
X57973765Y-92583339D01*
X57714264Y-92295135D01*
X57704865Y-92285736D01*
X57416661Y-92026235D01*
X57406330Y-92017869D01*
X57092579Y-91789916D01*
X57081430Y-91782676D01*
X56745570Y-91588767D01*
X56733725Y-91582732D01*
X56379436Y-91424993D01*
X56367026Y-91420229D01*
X55998189Y-91300386D01*
X55985349Y-91296945D01*
X55606007Y-91216314D01*
X55592877Y-91214235D01*
X55207184Y-91173697D01*
X55193909Y-91173001D01*
X54806091Y-91173001D01*
X54792816Y-91173697D01*
X54407123Y-91214235D01*
X54393993Y-91216314D01*
X54014651Y-91296945D01*
X54001811Y-91300386D01*
X53632974Y-91420229D01*
X53620564Y-91424993D01*
X53266275Y-91582732D01*
X53254430Y-91588767D01*
X52918570Y-91782676D01*
X52907421Y-91789916D01*
X52593670Y-92017869D01*
X52583339Y-92026235D01*
X52295135Y-92285736D01*
X52285736Y-92295135D01*
X52026235Y-92583339D01*
X52017869Y-92593670D01*
X51789916Y-92907421D01*
X51782676Y-92918570D01*
X51588767Y-93254430D01*
X51582732Y-93266275D01*
X51424993Y-93620564D01*
X51420229Y-93632974D01*
X51300386Y-94001811D01*
X51296945Y-94014651D01*
X51216314Y-94393993D01*
X51214235Y-94407123D01*
X51173697Y-94792816D01*
X51173001Y-94806091D01*
X28429886Y-94806091D01*
X28437019Y-94789793D01*
X28498968Y-94597173D01*
X28504320Y-94572040D01*
X28526227Y-94370893D01*
X28526971Y-94358050D01*
X28571300Y-88152000D01*
X30805066Y-88152000D01*
X30841370Y-88157523D01*
X30870767Y-88158550D01*
X30951292Y-88152000D01*
X30965685Y-88152000D01*
X30980392Y-88151146D01*
X31023317Y-88146141D01*
X31132235Y-88137282D01*
X31161080Y-88131518D01*
X31168015Y-88129271D01*
X31175274Y-88128425D01*
X31203901Y-88121658D01*
X31306710Y-88084340D01*
X31410642Y-88050671D01*
X31441175Y-88035531D01*
X31450488Y-88032151D01*
X31476791Y-88018979D01*
X31696176Y-87875144D01*
X31718742Y-87856277D01*
X31798277Y-87772318D01*
X34718596Y-84852000D01*
X39959307Y-84852000D01*
X40187193Y-85011567D01*
X40209599Y-85024090D01*
X40489268Y-85145114D01*
X40520277Y-85154064D01*
X40926206Y-85216905D01*
X40945635Y-85218400D01*
X41909950Y-85218400D01*
X41922784Y-85217750D01*
X42149806Y-85194690D01*
X42174950Y-85189529D01*
X42465738Y-85098402D01*
X42489331Y-85088290D01*
X42755856Y-84940552D01*
X42776933Y-84925903D01*
X43008307Y-84727592D01*
X43026009Y-84709003D01*
X43212782Y-84468217D01*
X43226384Y-84446449D01*
X43360925Y-84173025D01*
X43369872Y-84148967D01*
X43446686Y-83854075D01*
X43450613Y-83828708D01*
X43459537Y-83658407D01*
X45992239Y-83658407D01*
X45993493Y-83684044D01*
X46039061Y-83985349D01*
X46045444Y-84010211D01*
X46150668Y-84296201D01*
X46161921Y-84319271D01*
X46322501Y-84578260D01*
X46338162Y-84598597D01*
X46547540Y-84820008D01*
X46566971Y-84836780D01*
X46816593Y-85011567D01*
X46838999Y-85024090D01*
X47118668Y-85145114D01*
X47149677Y-85154064D01*
X47555606Y-85216905D01*
X47575035Y-85218400D01*
X48564750Y-85218400D01*
X48577584Y-85217750D01*
X48804606Y-85194690D01*
X48829750Y-85189529D01*
X49120538Y-85098402D01*
X49144131Y-85088290D01*
X49410656Y-84940552D01*
X49431733Y-84925902D01*
X49527990Y-84843400D01*
X50679666Y-84843400D01*
X50715970Y-84848923D01*
X50745367Y-84849950D01*
X50825892Y-84843400D01*
X50840285Y-84843400D01*
X50854992Y-84842546D01*
X50897917Y-84837541D01*
X51006835Y-84828682D01*
X51035680Y-84822918D01*
X51042615Y-84820671D01*
X51049874Y-84819825D01*
X51078501Y-84813058D01*
X51181310Y-84775740D01*
X51285242Y-84742071D01*
X51315775Y-84726931D01*
X51325088Y-84723551D01*
X51351391Y-84710379D01*
X51570776Y-84566544D01*
X51593342Y-84547677D01*
X51672877Y-84463718D01*
X52507165Y-83629431D01*
X52536746Y-83607662D01*
X52558258Y-83587601D01*
X52610567Y-83526029D01*
X52620744Y-83515852D01*
X52630539Y-83504848D01*
X52657347Y-83470964D01*
X52728106Y-83387675D01*
X52744428Y-83363202D01*
X52747746Y-83356704D01*
X52752274Y-83350981D01*
X52767732Y-83325953D01*
X52814020Y-83226913D01*
X52863727Y-83129569D01*
X52874614Y-83097265D01*
X52878806Y-83088296D01*
X52888091Y-83060386D01*
X52941513Y-82803550D01*
X52944128Y-82774252D01*
X52941000Y-82658655D01*
X52941000Y-68642806D01*
X52989765Y-68594041D01*
X53019346Y-68572272D01*
X53040858Y-68552211D01*
X53093167Y-68490639D01*
X53103344Y-68480462D01*
X53113139Y-68469457D01*
X53139921Y-68435605D01*
X53210706Y-68352286D01*
X53227025Y-68327817D01*
X53230346Y-68321313D01*
X53234878Y-68315585D01*
X53250332Y-68290562D01*
X53296612Y-68191540D01*
X53346327Y-68094179D01*
X53357219Y-68061863D01*
X53361405Y-68052906D01*
X53370690Y-68024996D01*
X53424112Y-67768161D01*
X53426727Y-67738863D01*
X53423600Y-67623303D01*
X53423600Y-58301522D01*
X53667138Y-58225202D01*
X53690731Y-58215090D01*
X53957256Y-58067352D01*
X53978333Y-58052703D01*
X54209707Y-57854392D01*
X54227409Y-57835803D01*
X54414182Y-57595017D01*
X54427784Y-57573249D01*
X54562325Y-57299825D01*
X54571272Y-57275767D01*
X54648086Y-56980875D01*
X54652013Y-56955508D01*
X54667961Y-56651193D01*
X54666707Y-56625556D01*
X54621139Y-56324251D01*
X54614756Y-56299389D01*
X54509532Y-56013399D01*
X54498279Y-55990329D01*
X54337699Y-55731340D01*
X54322038Y-55711003D01*
X54112660Y-55489592D01*
X54093229Y-55472820D01*
X53843607Y-55298033D01*
X53821201Y-55285510D01*
X53541532Y-55164486D01*
X53510523Y-55155536D01*
X53104594Y-55092695D01*
X53085165Y-55091200D01*
X52427223Y-55091200D01*
X52390753Y-54990727D01*
X52357071Y-54886756D01*
X52341926Y-54856212D01*
X52338549Y-54846908D01*
X52325379Y-54820609D01*
X52181544Y-54601224D01*
X52162677Y-54578658D01*
X52078736Y-54499140D01*
X51139654Y-53560059D01*
X51115939Y-53403251D01*
X51109556Y-53378389D01*
X51004332Y-53092399D01*
X50993079Y-53069329D01*
X50832499Y-52810340D01*
X50816838Y-52790003D01*
X50607460Y-52568592D01*
X50588029Y-52551820D01*
X50338407Y-52377033D01*
X50316001Y-52364510D01*
X50036332Y-52243486D01*
X50005323Y-52234536D01*
X49599394Y-52171695D01*
X49579965Y-52170200D01*
X48564850Y-52170200D01*
X48552016Y-52170850D01*
X48324994Y-52193910D01*
X48299850Y-52199071D01*
X48009062Y-52290198D01*
X47985469Y-52300310D01*
X47718944Y-52448048D01*
X47697867Y-52462697D01*
X47466493Y-52661008D01*
X47448791Y-52679597D01*
X47262018Y-52920383D01*
X47248416Y-52942151D01*
X47113875Y-53215575D01*
X47104928Y-53239633D01*
X47028114Y-53534525D01*
X47024187Y-53559892D01*
X47008239Y-53864207D01*
X47009493Y-53889844D01*
X47010123Y-53894010D01*
X46907687Y-53981808D01*
X46889985Y-54000397D01*
X46703212Y-54241183D01*
X46689610Y-54262951D01*
X46555069Y-54536375D01*
X46546122Y-54560433D01*
X46469308Y-54855325D01*
X46465381Y-54880692D01*
X46449433Y-55185007D01*
X46450687Y-55210644D01*
X46496255Y-55511949D01*
X46502638Y-55536811D01*
X46607862Y-55822801D01*
X46619115Y-55845871D01*
X46779695Y-56104860D01*
X46795356Y-56125197D01*
X47004734Y-56346608D01*
X47024165Y-56363380D01*
X47174525Y-56468663D01*
X47171019Y-56473182D01*
X47157416Y-56494951D01*
X47022875Y-56768375D01*
X47013928Y-56792433D01*
X46937114Y-57087325D01*
X46933187Y-57112692D01*
X46917239Y-57417007D01*
X46918493Y-57442644D01*
X46964061Y-57743949D01*
X46970444Y-57768811D01*
X47075668Y-58054801D01*
X47086921Y-58077871D01*
X47247501Y-58336860D01*
X47263162Y-58357197D01*
X47472540Y-58578608D01*
X47491971Y-58595380D01*
X47741593Y-58770167D01*
X47763999Y-58782690D01*
X48043668Y-58903714D01*
X48074677Y-58912664D01*
X48480606Y-58975505D01*
X48492201Y-58976397D01*
X48492200Y-59886027D01*
X48324033Y-60126193D01*
X48311510Y-60148599D01*
X48190486Y-60428268D01*
X48181536Y-60459277D01*
X48118695Y-60865206D01*
X48117200Y-60884635D01*
X48117200Y-61975949D01*
X48117850Y-61988783D01*
X48140910Y-62215805D01*
X48146071Y-62240949D01*
X48237198Y-62531737D01*
X48247310Y-62555330D01*
X48395048Y-62821855D01*
X48409697Y-62842932D01*
X48608008Y-63074307D01*
X48626597Y-63092009D01*
X48867383Y-63278782D01*
X48889151Y-63292384D01*
X49162575Y-63426925D01*
X49186633Y-63435872D01*
X49481525Y-63512686D01*
X49504389Y-63516226D01*
X49504389Y-67765800D01*
X48717250Y-67765800D01*
X48704416Y-67766450D01*
X48477394Y-67789510D01*
X48452250Y-67794671D01*
X48161462Y-67885798D01*
X48137869Y-67895910D01*
X47871344Y-68043648D01*
X47850267Y-68058297D01*
X47618893Y-68256608D01*
X47601191Y-68275197D01*
X47414418Y-68515983D01*
X47400816Y-68537751D01*
X47266275Y-68811175D01*
X47257328Y-68835233D01*
X47180514Y-69130125D01*
X47176587Y-69155492D01*
X47160639Y-69459807D01*
X47161893Y-69485444D01*
X47207461Y-69786749D01*
X47213844Y-69811611D01*
X47319068Y-70097601D01*
X47330321Y-70120671D01*
X47490901Y-70379660D01*
X47506562Y-70399997D01*
X47715940Y-70621408D01*
X47735371Y-70638180D01*
X47984993Y-70812967D01*
X48007399Y-70825490D01*
X48287068Y-70946514D01*
X48318077Y-70955464D01*
X48724006Y-71018305D01*
X48743435Y-71019800D01*
X49809350Y-71019800D01*
X49822184Y-71019150D01*
X49954400Y-71005720D01*
X49954400Y-77332698D01*
X49903914Y-77341600D01*
X49250650Y-77341600D01*
X49237816Y-77342250D01*
X49010794Y-77365310D01*
X48985650Y-77370471D01*
X48694862Y-77461598D01*
X48671269Y-77471710D01*
X48404744Y-77619448D01*
X48383667Y-77634097D01*
X48152293Y-77832408D01*
X48134591Y-77850997D01*
X47947818Y-78091783D01*
X47934216Y-78113551D01*
X47799675Y-78386975D01*
X47790728Y-78411033D01*
X47713914Y-78705925D01*
X47709987Y-78731292D01*
X47694039Y-79035607D01*
X47695293Y-79061244D01*
X47740861Y-79362549D01*
X47747244Y-79387411D01*
X47852468Y-79673401D01*
X47863721Y-79696471D01*
X48024301Y-79955460D01*
X48039962Y-79975797D01*
X48249340Y-80197208D01*
X48268771Y-80213980D01*
X48518393Y-80388767D01*
X48540799Y-80401290D01*
X48820468Y-80522314D01*
X48851477Y-80531264D01*
X49257406Y-80594105D01*
X49276835Y-80595600D01*
X50141733Y-80595600D01*
X50271877Y-80599235D01*
X50297476Y-80597356D01*
X50388762Y-80581260D01*
X50437000Y-80576360D01*
X50437000Y-82158405D01*
X50256006Y-82339400D01*
X49537175Y-82339400D01*
X49297007Y-82171233D01*
X49274601Y-82158710D01*
X48994932Y-82037686D01*
X48963923Y-82028736D01*
X48557994Y-81965895D01*
X48538565Y-81964400D01*
X47548850Y-81964400D01*
X47536016Y-81965050D01*
X47308994Y-81988110D01*
X47283850Y-81993271D01*
X46993062Y-82084398D01*
X46969469Y-82094510D01*
X46702944Y-82242248D01*
X46681867Y-82256897D01*
X46450493Y-82455208D01*
X46432791Y-82473797D01*
X46246018Y-82714583D01*
X46232416Y-82736351D01*
X46097875Y-83009775D01*
X46088928Y-83033833D01*
X46012114Y-83328725D01*
X46008187Y-83354092D01*
X45992239Y-83658407D01*
X43459537Y-83658407D01*
X43466561Y-83524393D01*
X43465307Y-83498756D01*
X43419739Y-83197451D01*
X43413356Y-83172589D01*
X43308132Y-82886599D01*
X43296879Y-82863529D01*
X43136299Y-82604540D01*
X43120638Y-82584203D01*
X42911260Y-82362792D01*
X42891829Y-82346020D01*
X42642207Y-82171233D01*
X42619801Y-82158710D01*
X42340132Y-82037686D01*
X42309123Y-82028736D01*
X41903194Y-81965895D01*
X41883765Y-81964400D01*
X40919450Y-81964400D01*
X40906616Y-81965050D01*
X40679594Y-81988110D01*
X40654450Y-81993271D01*
X40363662Y-82084398D01*
X40340069Y-82094510D01*
X40073544Y-82242248D01*
X40052467Y-82256897D01*
X39946175Y-82348000D01*
X34294934Y-82348000D01*
X34258630Y-82342477D01*
X34229233Y-82341450D01*
X34148707Y-82348000D01*
X34134315Y-82348000D01*
X34119607Y-82348855D01*
X34076709Y-82353857D01*
X33967764Y-82362718D01*
X33938921Y-82368481D01*
X33931982Y-82370729D01*
X33924725Y-82371575D01*
X33896100Y-82378342D01*
X33793316Y-82415651D01*
X33689356Y-82449329D01*
X33658812Y-82464474D01*
X33649508Y-82467851D01*
X33623209Y-82481021D01*
X33403824Y-82624856D01*
X33381258Y-82643723D01*
X33301740Y-82727664D01*
X30381405Y-85648000D01*
X28577000Y-85648000D01*
X28577000Y-80195200D01*
X41928225Y-80195200D01*
X42168393Y-80363367D01*
X42190799Y-80375890D01*
X42470468Y-80496914D01*
X42501477Y-80505864D01*
X42907406Y-80568705D01*
X42926835Y-80570200D01*
X43916550Y-80570200D01*
X43929384Y-80569550D01*
X44156406Y-80546490D01*
X44181550Y-80541329D01*
X44472338Y-80450202D01*
X44495931Y-80440090D01*
X44762456Y-80292352D01*
X44783533Y-80277703D01*
X45014907Y-80079392D01*
X45032609Y-80060803D01*
X45219382Y-79820017D01*
X45232984Y-79798249D01*
X45367525Y-79524825D01*
X45376472Y-79500767D01*
X45453286Y-79205875D01*
X45457213Y-79180508D01*
X45473161Y-78876193D01*
X45471907Y-78850556D01*
X45426339Y-78549251D01*
X45419956Y-78524389D01*
X45314732Y-78238399D01*
X45303479Y-78215329D01*
X45142899Y-77956340D01*
X45127238Y-77936003D01*
X44917860Y-77714592D01*
X44898429Y-77697820D01*
X44648807Y-77523033D01*
X44626401Y-77510510D01*
X44346732Y-77389486D01*
X44315723Y-77380536D01*
X43909794Y-77317695D01*
X43890365Y-77316200D01*
X42900650Y-77316200D01*
X42887816Y-77316850D01*
X42660794Y-77339910D01*
X42635650Y-77345071D01*
X42344862Y-77436198D01*
X42321269Y-77446310D01*
X42054744Y-77594048D01*
X42033667Y-77608698D01*
X41937410Y-77691200D01*
X28577000Y-77691200D01*
X28577000Y-72552000D01*
X30916266Y-72552000D01*
X30952570Y-72557523D01*
X30981967Y-72558550D01*
X31062492Y-72552000D01*
X31076885Y-72552000D01*
X31091592Y-72551146D01*
X31134517Y-72546141D01*
X31243435Y-72537282D01*
X31272280Y-72531518D01*
X31279215Y-72529271D01*
X31286474Y-72528425D01*
X31315101Y-72521658D01*
X31417910Y-72484340D01*
X31521842Y-72450671D01*
X31552375Y-72435531D01*
X31561688Y-72432151D01*
X31587991Y-72418979D01*
X31807376Y-72275144D01*
X31829942Y-72256277D01*
X31909477Y-72172318D01*
X33411596Y-70670200D01*
X41924576Y-70670200D01*
X42092193Y-70787567D01*
X42114599Y-70800090D01*
X42394268Y-70921114D01*
X42425277Y-70930064D01*
X42831206Y-70992905D01*
X42850635Y-70994400D01*
X43916550Y-70994400D01*
X43929384Y-70993750D01*
X44156406Y-70970690D01*
X44181550Y-70965529D01*
X44472338Y-70874402D01*
X44495931Y-70864290D01*
X44762456Y-70716552D01*
X44783533Y-70701903D01*
X45014907Y-70503592D01*
X45032609Y-70485003D01*
X45219382Y-70244217D01*
X45232984Y-70222449D01*
X45367525Y-69949025D01*
X45376472Y-69924967D01*
X45453286Y-69630075D01*
X45457213Y-69604708D01*
X45473161Y-69300393D01*
X45471907Y-69274756D01*
X45426339Y-68973451D01*
X45419956Y-68948589D01*
X45314732Y-68662599D01*
X45303479Y-68639529D01*
X45142899Y-68380540D01*
X45127238Y-68360203D01*
X44917860Y-68138792D01*
X44898429Y-68122020D01*
X44648807Y-67947233D01*
X44626401Y-67934710D01*
X44346732Y-67813686D01*
X44315723Y-67804736D01*
X43909794Y-67741895D01*
X43890365Y-67740400D01*
X42824450Y-67740400D01*
X42811616Y-67741050D01*
X42584594Y-67764110D01*
X42559450Y-67769271D01*
X42268662Y-67860398D01*
X42245069Y-67870510D01*
X41978544Y-68018248D01*
X41957467Y-68032897D01*
X41801939Y-68166200D01*
X32987934Y-68166200D01*
X32951630Y-68160677D01*
X32922233Y-68159650D01*
X32841707Y-68166200D01*
X32827315Y-68166200D01*
X32812607Y-68167055D01*
X32769709Y-68172057D01*
X32660764Y-68180918D01*
X32631921Y-68186681D01*
X32624982Y-68188929D01*
X32617725Y-68189775D01*
X32589100Y-68196542D01*
X32486316Y-68233851D01*
X32382356Y-68267529D01*
X32351812Y-68282674D01*
X32342508Y-68286051D01*
X32316209Y-68299221D01*
X32096824Y-68443056D01*
X32074258Y-68461923D01*
X31994758Y-68545845D01*
X30492605Y-70048000D01*
X28577000Y-70048000D01*
X28577000Y-64976990D01*
X30312476Y-64976990D01*
X30348780Y-64982513D01*
X30378177Y-64983540D01*
X30458702Y-64976990D01*
X30473095Y-64976990D01*
X30487802Y-64976136D01*
X30530727Y-64971131D01*
X30639645Y-64962272D01*
X30668490Y-64956508D01*
X30675425Y-64954261D01*
X30682684Y-64953415D01*
X30711311Y-64946648D01*
X30814120Y-64909330D01*
X30918052Y-64875661D01*
X30948585Y-64860521D01*
X30957898Y-64857141D01*
X30984201Y-64843969D01*
X31203586Y-64700134D01*
X31226152Y-64681267D01*
X31305686Y-64597309D01*
X32351197Y-63551799D01*
X43599467Y-63551799D01*
X43635771Y-63557322D01*
X43665168Y-63558349D01*
X43745693Y-63551799D01*
X43760086Y-63551799D01*
X43774793Y-63550945D01*
X43817718Y-63545940D01*
X43926636Y-63537081D01*
X43955481Y-63531317D01*
X43962416Y-63529070D01*
X43969675Y-63528224D01*
X43989450Y-63523550D01*
X44161406Y-63532561D01*
X44187043Y-63531307D01*
X44488348Y-63485739D01*
X44513210Y-63479356D01*
X44799200Y-63374132D01*
X44822270Y-63362879D01*
X45081259Y-63202299D01*
X45101596Y-63186638D01*
X45323008Y-62977260D01*
X45339780Y-62957829D01*
X45514567Y-62708207D01*
X45527090Y-62685801D01*
X45648114Y-62406132D01*
X45657064Y-62375123D01*
X45719905Y-61969194D01*
X45721400Y-61949765D01*
X45721400Y-60934651D01*
X45720750Y-60921817D01*
X45697690Y-60694794D01*
X45692529Y-60669650D01*
X45601402Y-60378862D01*
X45591290Y-60355269D01*
X45443552Y-60088744D01*
X45428903Y-60067667D01*
X45230592Y-59836293D01*
X45212003Y-59818591D01*
X44971217Y-59631818D01*
X44949449Y-59618216D01*
X44676025Y-59483675D01*
X44651967Y-59474728D01*
X44357075Y-59397914D01*
X44331708Y-59393987D01*
X44027394Y-59378039D01*
X44001757Y-59379293D01*
X43700452Y-59424861D01*
X43675590Y-59431244D01*
X43389600Y-59536468D01*
X43366530Y-59547721D01*
X43107541Y-59708301D01*
X43087204Y-59723962D01*
X42865792Y-59933340D01*
X42849020Y-59952771D01*
X42674233Y-60202393D01*
X42661710Y-60224799D01*
X42540686Y-60504468D01*
X42531736Y-60535477D01*
X42468895Y-60941406D01*
X42467400Y-60960835D01*
X42467400Y-61047799D01*
X31927535Y-61047799D01*
X31891232Y-61042276D01*
X31861834Y-61041249D01*
X31781308Y-61047799D01*
X31766916Y-61047799D01*
X31752208Y-61048654D01*
X31709310Y-61053656D01*
X31600365Y-61062517D01*
X31571522Y-61068280D01*
X31564583Y-61070528D01*
X31557326Y-61071374D01*
X31528701Y-61078141D01*
X31425922Y-61115448D01*
X31321956Y-61149128D01*
X31291420Y-61164270D01*
X31282111Y-61167649D01*
X31255810Y-61180820D01*
X31036425Y-61324655D01*
X31013859Y-61343522D01*
X30934341Y-61427463D01*
X29888815Y-62472990D01*
X28576881Y-62472990D01*
X28576064Y-57152000D01*
X31736666Y-57152000D01*
X31772970Y-57157523D01*
X31802367Y-57158550D01*
X31882892Y-57152000D01*
X31897285Y-57152000D01*
X31911992Y-57151146D01*
X31954917Y-57146141D01*
X32063835Y-57137282D01*
X32092680Y-57131518D01*
X32099615Y-57129271D01*
X32106874Y-57128425D01*
X32135501Y-57121658D01*
X32238310Y-57084340D01*
X32342242Y-57050671D01*
X32372775Y-57035531D01*
X32382088Y-57032151D01*
X32408391Y-57018979D01*
X32627776Y-56875144D01*
X32650342Y-56856277D01*
X32729877Y-56772318D01*
X35195998Y-54306199D01*
X44310667Y-54306199D01*
X44346971Y-54311722D01*
X44376368Y-54312749D01*
X44456893Y-54306199D01*
X44471286Y-54306199D01*
X44485993Y-54305345D01*
X44528918Y-54300340D01*
X44637836Y-54291481D01*
X44666681Y-54285717D01*
X44673616Y-54283470D01*
X44680875Y-54282624D01*
X44700650Y-54277950D01*
X44872606Y-54286961D01*
X44898243Y-54285707D01*
X45199548Y-54240139D01*
X45224410Y-54233756D01*
X45510400Y-54128532D01*
X45533470Y-54117279D01*
X45792459Y-53956699D01*
X45812796Y-53941038D01*
X46034208Y-53731660D01*
X46050980Y-53712229D01*
X46225767Y-53462607D01*
X46238290Y-53440201D01*
X46359314Y-53160532D01*
X46368264Y-53129523D01*
X46431105Y-52723594D01*
X46432600Y-52704165D01*
X46432600Y-51587450D01*
X46431950Y-51574616D01*
X46408890Y-51347594D01*
X46403729Y-51322450D01*
X46312602Y-51031662D01*
X46302490Y-51008069D01*
X46154752Y-50741544D01*
X46140103Y-50720467D01*
X45941792Y-50489093D01*
X45923203Y-50471391D01*
X45682417Y-50284618D01*
X45660649Y-50271016D01*
X45387225Y-50136475D01*
X45363167Y-50127528D01*
X45068275Y-50050714D01*
X45042908Y-50046787D01*
X44738594Y-50030839D01*
X44712957Y-50032093D01*
X44411652Y-50077661D01*
X44386790Y-50084044D01*
X44100800Y-50189268D01*
X44077730Y-50200521D01*
X43818741Y-50361101D01*
X43798404Y-50376762D01*
X43576993Y-50586140D01*
X43560221Y-50605571D01*
X43385433Y-50855193D01*
X43372910Y-50877599D01*
X43251886Y-51157268D01*
X43242936Y-51188277D01*
X43180095Y-51594206D01*
X43178600Y-51613635D01*
X43178600Y-51802199D01*
X34772335Y-51802199D01*
X34736032Y-51796676D01*
X34706634Y-51795649D01*
X34626108Y-51802199D01*
X34611716Y-51802199D01*
X34597008Y-51803054D01*
X34554110Y-51808056D01*
X34445165Y-51816917D01*
X34416322Y-51822680D01*
X34409383Y-51824928D01*
X34402126Y-51825774D01*
X34373501Y-51832541D01*
X34270722Y-51869848D01*
X34166756Y-51903528D01*
X34136220Y-51918670D01*
X34126911Y-51922049D01*
X34100610Y-51935220D01*
X33881225Y-52079055D01*
X33858659Y-52097922D01*
X33779159Y-52181844D01*
X31313005Y-54648000D01*
X28577000Y-54648000D01*
X28577000Y-48500000D01*
X28576633Y-48490356D01*
X28565101Y-48338928D01*
X28561414Y-48316739D01*
X28510698Y-48120862D01*
X28510014Y-48119014D01*
X28550706Y-47989318D01*
X28555878Y-47964147D01*
X28576348Y-47762848D01*
X28577000Y-47750000D01*
X28577000Y-41085400D01*
X45259655Y-41085400D01*
X45259655Y-42785400D01*
X45261735Y-42808292D01*
X45327196Y-43165501D01*
X45339663Y-43201629D01*
X45452518Y-43416657D01*
X45469910Y-43441854D01*
X45630946Y-43623626D01*
X45653863Y-43643928D01*
X45853719Y-43781879D01*
X45880829Y-43796107D01*
X46107893Y-43882220D01*
X46137619Y-43889547D01*
X46378692Y-43918819D01*
X46394000Y-43919745D01*
X48094000Y-43919745D01*
X48116892Y-43917665D01*
X48474101Y-43852204D01*
X48510229Y-43839737D01*
X48725257Y-43726882D01*
X48750454Y-43709490D01*
X48932226Y-43548454D01*
X48952528Y-43525537D01*
X49090479Y-43325681D01*
X49104707Y-43298571D01*
X49190820Y-43071507D01*
X49198147Y-43041781D01*
X49227419Y-42800708D01*
X49228345Y-42785400D01*
X49228345Y-41085400D01*
X49226265Y-41062508D01*
X49160804Y-40705299D01*
X49148337Y-40669171D01*
X49035482Y-40454143D01*
X49018090Y-40428947D01*
X48965488Y-40369571D01*
X49056198Y-40197160D01*
X49063557Y-40180316D01*
X49152956Y-39927160D01*
X49157807Y-39909430D01*
X49209724Y-39646020D01*
X49211964Y-39627776D01*
X49225314Y-39359631D01*
X49224897Y-39341254D01*
X49199397Y-39073991D01*
X49196331Y-39055867D01*
X49132518Y-38795083D01*
X49126869Y-38777591D01*
X49026079Y-38528752D01*
X49017963Y-38512259D01*
X48882306Y-38280575D01*
X48871895Y-38265427D01*
X48704215Y-38055753D01*
X48691726Y-38042266D01*
X48495534Y-37858993D01*
X48481228Y-37847450D01*
X48260634Y-37694419D01*
X48244813Y-37685062D01*
X48004439Y-37565478D01*
X47987432Y-37558503D01*
X47732314Y-37474871D01*
X47708230Y-37469499D01*
X47299775Y-37419347D01*
X47284298Y-37418400D01*
X47175806Y-37418400D01*
X47166615Y-37418733D01*
X46967036Y-37433214D01*
X46948848Y-37435867D01*
X46686684Y-37493747D01*
X46669068Y-37498999D01*
X46418005Y-37594119D01*
X46401332Y-37601858D01*
X46166631Y-37732223D01*
X46151251Y-37742288D01*
X45937826Y-37905168D01*
X45924058Y-37917348D01*
X45736382Y-38109332D01*
X45724518Y-38123372D01*
X45566522Y-38340436D01*
X45556809Y-38356041D01*
X45431802Y-38593640D01*
X45424443Y-38610484D01*
X45335044Y-38863640D01*
X45330193Y-38881370D01*
X45278276Y-39144780D01*
X45276036Y-39163024D01*
X45262686Y-39431169D01*
X45263103Y-39449546D01*
X45288603Y-39716809D01*
X45291669Y-39734933D01*
X45355482Y-39995717D01*
X45361131Y-40013209D01*
X45461921Y-40262048D01*
X45470037Y-40278541D01*
X45521206Y-40365931D01*
X45397521Y-40545119D01*
X45383293Y-40572229D01*
X45297180Y-40799293D01*
X45289853Y-40829019D01*
X45260581Y-41070092D01*
X45259655Y-41085400D01*
X28577000Y-41085400D01*
X28577000Y-40750000D01*
X28576633Y-40740356D01*
X28565101Y-40588928D01*
X28561414Y-40566739D01*
X28510698Y-40370862D01*
X28510014Y-40369014D01*
X28550706Y-40239318D01*
X28555878Y-40214147D01*
X28576348Y-40012848D01*
X28577000Y-40000000D01*
X28577000Y-33000000D01*
X28576633Y-32990356D01*
X28565101Y-32838928D01*
X28561414Y-32816739D01*
X28510698Y-32620862D01*
X28506478Y-32609468D01*
X28512800Y-32589319D01*
X28517973Y-32564147D01*
X28538443Y-32362848D01*
X28539095Y-32350000D01*
X28539095Y-25350000D01*
X28538728Y-25340356D01*
X28527196Y-25188928D01*
X28523509Y-25166740D01*
X28510637Y-25117026D01*
X28550706Y-24989318D01*
X28555878Y-24964147D01*
X28576348Y-24762848D01*
X28577000Y-24750000D01*
X28577000Y-17650000D01*
X28576633Y-17640356D01*
X28565101Y-17488928D01*
X28561414Y-17466739D01*
X28517219Y-17296049D01*
X28550706Y-17189318D01*
X28555878Y-17164147D01*
X28576348Y-16962848D01*
X28577000Y-16950000D01*
X28577000Y-16488800D01*
X44601655Y-16488800D01*
X44601655Y-19088800D01*
X44603735Y-19111692D01*
X44669196Y-19468901D01*
X44681663Y-19505029D01*
X44794518Y-19720057D01*
X44811910Y-19745254D01*
X44972946Y-19927026D01*
X44995863Y-19947328D01*
X45195719Y-20085279D01*
X45222829Y-20099507D01*
X45449893Y-20185620D01*
X45479619Y-20192947D01*
X45720692Y-20222219D01*
X45736000Y-20223145D01*
X47736000Y-20223145D01*
X47758892Y-20221065D01*
X48116101Y-20155604D01*
X48152229Y-20143137D01*
X48367257Y-20030282D01*
X48378691Y-20022390D01*
X48640595Y-20123713D01*
X48657741Y-20128988D01*
X48933656Y-20192942D01*
X48951375Y-20195748D01*
X49233548Y-20220187D01*
X49251485Y-20220469D01*
X49534286Y-20204905D01*
X49552083Y-20202657D01*
X49829870Y-20147402D01*
X49847174Y-20142668D01*
X50114404Y-20048823D01*
X50130867Y-20041699D01*
X50382209Y-19911138D01*
X50397506Y-19901764D01*
X50627944Y-19737090D01*
X50641766Y-19725655D01*
X50846702Y-19530156D01*
X50858775Y-19516888D01*
X51034121Y-19294463D01*
X51044205Y-19279626D01*
X51150384Y-19096825D01*
X51151735Y-19111692D01*
X51217196Y-19468901D01*
X51229663Y-19505029D01*
X51342518Y-19720057D01*
X51359910Y-19745254D01*
X51520946Y-19927026D01*
X51543863Y-19947328D01*
X51743719Y-20085279D01*
X51770829Y-20099507D01*
X51997893Y-20185620D01*
X52027619Y-20192947D01*
X52268692Y-20222219D01*
X52284000Y-20223145D01*
X54284000Y-20223145D01*
X54306892Y-20221065D01*
X54664101Y-20155604D01*
X54700229Y-20143137D01*
X54915257Y-20030282D01*
X54926691Y-20022390D01*
X55188595Y-20123713D01*
X55205741Y-20128988D01*
X55481656Y-20192942D01*
X55499375Y-20195748D01*
X55781548Y-20220187D01*
X55799485Y-20220469D01*
X56082286Y-20204905D01*
X56100083Y-20202657D01*
X56377870Y-20147402D01*
X56395174Y-20142668D01*
X56662404Y-20048823D01*
X56678867Y-20041699D01*
X56930209Y-19911138D01*
X56945506Y-19901764D01*
X57175944Y-19737090D01*
X57189766Y-19725655D01*
X57394702Y-19530156D01*
X57406775Y-19516888D01*
X57582121Y-19294463D01*
X57592205Y-19279626D01*
X57734461Y-19034714D01*
X57742353Y-19018604D01*
X57848682Y-18756089D01*
X57854225Y-18739028D01*
X57922505Y-18464152D01*
X57925777Y-18444493D01*
X57950526Y-18158735D01*
X57951000Y-18147777D01*
X57951000Y-17416658D01*
X57950683Y-17407688D01*
X57935787Y-17197308D01*
X57933259Y-17179548D01*
X57873648Y-16902663D01*
X57868643Y-16885436D01*
X57770612Y-16619712D01*
X57763230Y-16603362D01*
X57628737Y-16354102D01*
X57619124Y-16338955D01*
X57450851Y-16111133D01*
X57439201Y-16097493D01*
X57240507Y-15895652D01*
X57227050Y-15883788D01*
X57001898Y-15711958D01*
X56986905Y-15702109D01*
X56739787Y-15563717D01*
X56723555Y-15556079D01*
X56459405Y-15453887D01*
X56442259Y-15448612D01*
X56166344Y-15384658D01*
X56148625Y-15381852D01*
X55866452Y-15357413D01*
X55848515Y-15357131D01*
X55565714Y-15372695D01*
X55547917Y-15374943D01*
X55270130Y-15430198D01*
X55252826Y-15434932D01*
X54985596Y-15528777D01*
X54969132Y-15535901D01*
X54922506Y-15560121D01*
X54824281Y-15492321D01*
X54797171Y-15478093D01*
X54570107Y-15391980D01*
X54540381Y-15384653D01*
X54299308Y-15355381D01*
X54284000Y-15354455D01*
X52284000Y-15354455D01*
X52261108Y-15356535D01*
X51903899Y-15421996D01*
X51867771Y-15434463D01*
X51652743Y-15547318D01*
X51627546Y-15564710D01*
X51445774Y-15725746D01*
X51425472Y-15748663D01*
X51287521Y-15948519D01*
X51273293Y-15975629D01*
X51187180Y-16202693D01*
X51179853Y-16232419D01*
X51150581Y-16473492D01*
X51150034Y-16482532D01*
X51080737Y-16354102D01*
X51071124Y-16338955D01*
X50902851Y-16111133D01*
X50891201Y-16097493D01*
X50692507Y-15895652D01*
X50679050Y-15883788D01*
X50453898Y-15711958D01*
X50438905Y-15702109D01*
X50191787Y-15563717D01*
X50175555Y-15556079D01*
X49911405Y-15453887D01*
X49894259Y-15448612D01*
X49618344Y-15384658D01*
X49600625Y-15381852D01*
X49318452Y-15357413D01*
X49300515Y-15357131D01*
X49017714Y-15372695D01*
X48999917Y-15374943D01*
X48722130Y-15430198D01*
X48704826Y-15434932D01*
X48437596Y-15528777D01*
X48421132Y-15535901D01*
X48374506Y-15560121D01*
X48276281Y-15492321D01*
X48249171Y-15478093D01*
X48022107Y-15391980D01*
X47992381Y-15384653D01*
X47751308Y-15355381D01*
X47736000Y-15354455D01*
X45736000Y-15354455D01*
X45713108Y-15356535D01*
X45355899Y-15421996D01*
X45319771Y-15434463D01*
X45104743Y-15547318D01*
X45079546Y-15564710D01*
X44897774Y-15725746D01*
X44877472Y-15748663D01*
X44739521Y-15948519D01*
X44725293Y-15975629D01*
X44639180Y-16202693D01*
X44631853Y-16232419D01*
X44602581Y-16473492D01*
X44601655Y-16488800D01*
X28577000Y-16488800D01*
X28577000Y-9850000D01*
X28576633Y-9840356D01*
X28565101Y-9688928D01*
X28561414Y-9666739D01*
X28510698Y-9470862D01*
X28501773Y-9446764D01*
X28500592Y-9444357D01*
X28550706Y-9284632D01*
X28555878Y-9259461D01*
X28576348Y-9058162D01*
X28577000Y-9045314D01*
X28577000Y-2045314D01*
X28576633Y-2035670D01*
X28565101Y-1884242D01*
X28561414Y-1862053D01*
X28510698Y-1666176D01*
X28501773Y-1642079D01*
X28412665Y-1460420D01*
X28399073Y-1438613D01*
X28275222Y-1278610D01*
X28257517Y-1259984D01*
X28103992Y-1128188D01*
X28102285Y-1127000D01*
X54906289Y-1127000D01*
X54942996Y-1130567D01*
X54949629Y-1131036D01*
X55343726Y-1148587D01*
X55684746Y-1194392D01*
X56020310Y-1270323D01*
X56347836Y-1375794D01*
X56664675Y-1509959D01*
X56968311Y-1671744D01*
X57256398Y-1859904D01*
X57526594Y-2072911D01*
X57776790Y-2309097D01*
X58005009Y-2566597D01*
X58209420Y-2843347D01*
X58388434Y-3137196D01*
X58540612Y-3445780D01*
X58664752Y-3766661D01*
X58759884Y-4097338D01*
X58825240Y-4435144D01*
X58861217Y-4786283D01*
X58868313Y-5032599D01*
X58869332Y-5045409D01*
X58873000Y-5073460D01*
X58873001Y-94906277D01*
X58869433Y-94942995D01*
X58868964Y-94949628D01*
X58851413Y-95343726D01*
X58805608Y-95684746D01*
X58729677Y-96020312D01*
X58624206Y-96347836D01*
X58490041Y-96664675D01*
X58328256Y-96968311D01*
X58140095Y-97256399D01*
X57927092Y-97526590D01*
X57690904Y-97776790D01*
X57433403Y-98005009D01*
X57156652Y-98209421D01*
X56862804Y-98388434D01*
X56554218Y-98540613D01*
X56233322Y-98664758D01*
X55902660Y-98759885D01*
X55564864Y-98825240D01*
X55213717Y-98861217D01*
X54967400Y-98868313D01*
X54954590Y-98869332D01*
X54926539Y-98873000D01*
X5093712Y-98873000D01*
X5057005Y-98869433D01*
X5050372Y-98868964D01*
X4656274Y-98851413D01*
X4315254Y-98805608D01*
X3979688Y-98729677D01*
X3652164Y-98624206D01*
X3335325Y-98490041D01*
X3031689Y-98328256D01*
X2743601Y-98140095D01*
X2473410Y-97927092D01*
X2223210Y-97690904D01*
X1994991Y-97433403D01*
X1790579Y-97156652D01*
X1611566Y-96862804D01*
X1459387Y-96554218D01*
X1335242Y-96233322D01*
X1240115Y-95902660D01*
X1174760Y-95564864D01*
X1138783Y-95213717D01*
X1131687Y-94967400D01*
X1130668Y-94954590D01*
X1127000Y-94926539D01*
X1127000Y-94806091D01*
X1173001Y-94806091D01*
X1173001Y-95193909D01*
X1173697Y-95207184D01*
X1214235Y-95592877D01*
X1216314Y-95606007D01*
X1296945Y-95985349D01*
X1300386Y-95998189D01*
X1420229Y-96367026D01*
X1424993Y-96379436D01*
X1582732Y-96733725D01*
X1588767Y-96745570D01*
X1782676Y-97081430D01*
X1789916Y-97092579D01*
X2017869Y-97406330D01*
X2026235Y-97416661D01*
X2285736Y-97704865D01*
X2295135Y-97714264D01*
X2583339Y-97973765D01*
X2593670Y-97982131D01*
X2907421Y-98210084D01*
X2918570Y-98217324D01*
X3254430Y-98411233D01*
X3266275Y-98417268D01*
X3620564Y-98575007D01*
X3632974Y-98579771D01*
X4001811Y-98699614D01*
X4014651Y-98703055D01*
X4393993Y-98783686D01*
X4407123Y-98785765D01*
X4792816Y-98826303D01*
X4806091Y-98826999D01*
X5193909Y-98826999D01*
X5207184Y-98826303D01*
X5592877Y-98785765D01*
X5606007Y-98783686D01*
X5985349Y-98703055D01*
X5998189Y-98699614D01*
X6367026Y-98579771D01*
X6379436Y-98575007D01*
X6733725Y-98417268D01*
X6745570Y-98411233D01*
X7081430Y-98217324D01*
X7092579Y-98210084D01*
X7406330Y-97982131D01*
X7416661Y-97973765D01*
X7704865Y-97714264D01*
X7714264Y-97704865D01*
X7973765Y-97416661D01*
X7982131Y-97406330D01*
X8210084Y-97092579D01*
X8217324Y-97081430D01*
X8411233Y-96745570D01*
X8417268Y-96733725D01*
X8575007Y-96379436D01*
X8579771Y-96367026D01*
X8699614Y-95998189D01*
X8703055Y-95985349D01*
X8783686Y-95606007D01*
X8785765Y-95592877D01*
X8826303Y-95207184D01*
X8826999Y-95193909D01*
X8826999Y-94806091D01*
X8826303Y-94792816D01*
X8785765Y-94407123D01*
X8783686Y-94393993D01*
X8703055Y-94014651D01*
X8699614Y-94001811D01*
X8579771Y-93632974D01*
X8575007Y-93620564D01*
X8417268Y-93266275D01*
X8411233Y-93254430D01*
X8217324Y-92918570D01*
X8210084Y-92907421D01*
X7982131Y-92593670D01*
X7973765Y-92583339D01*
X7714264Y-92295135D01*
X7704865Y-92285736D01*
X7416661Y-92026235D01*
X7406330Y-92017869D01*
X7092579Y-91789916D01*
X7081430Y-91782676D01*
X6745570Y-91588767D01*
X6733725Y-91582732D01*
X6379436Y-91424993D01*
X6367026Y-91420229D01*
X5998189Y-91300386D01*
X5985349Y-91296945D01*
X5606007Y-91216314D01*
X5592877Y-91214235D01*
X5207184Y-91173697D01*
X5193909Y-91173001D01*
X4806091Y-91173001D01*
X4792816Y-91173697D01*
X4407123Y-91214235D01*
X4393993Y-91216314D01*
X4014651Y-91296945D01*
X4001811Y-91300386D01*
X3632974Y-91420229D01*
X3620564Y-91424993D01*
X3266275Y-91582732D01*
X3254430Y-91588767D01*
X2918570Y-91782676D01*
X2907421Y-91789916D01*
X2593670Y-92017869D01*
X2583339Y-92026235D01*
X2295135Y-92285736D01*
X2285736Y-92295135D01*
X2026235Y-92583339D01*
X2017869Y-92593670D01*
X1789916Y-92907421D01*
X1782676Y-92918570D01*
X1588767Y-93254430D01*
X1582732Y-93266275D01*
X1424993Y-93620564D01*
X1420229Y-93632974D01*
X1300386Y-94001811D01*
X1296945Y-94014651D01*
X1216314Y-94393993D01*
X1214235Y-94407123D01*
X1173697Y-94792816D01*
X1173001Y-94806091D01*
X1127000Y-94806091D01*
X1127000Y-83649312D01*
X5037861Y-83649312D01*
X5048825Y-83720027D01*
X5096280Y-83773589D01*
X5163760Y-83793000D01*
X6246000Y-83793000D01*
X6314661Y-83772839D01*
X6361523Y-83718758D01*
X6373000Y-83666000D01*
X6373000Y-82590756D01*
X6627000Y-82590756D01*
X6627000Y-83666000D01*
X6647161Y-83734661D01*
X6701242Y-83781523D01*
X6754000Y-83793000D01*
X7834306Y-83793000D01*
X7902967Y-83772839D01*
X7949829Y-83718758D01*
X7958599Y-83639921D01*
X7929718Y-83502275D01*
X7923547Y-83481705D01*
X7838896Y-83267354D01*
X7829348Y-83248119D01*
X7709791Y-83051095D01*
X7697138Y-83033743D01*
X7546094Y-82859680D01*
X7530698Y-82844708D01*
X7352485Y-82698583D01*
X7334787Y-82686420D01*
X7134502Y-82572411D01*
X7115007Y-82563403D01*
X6898376Y-82484770D01*
X6871731Y-82478250D01*
X6770687Y-82464857D01*
X6699972Y-82475821D01*
X6646411Y-82523276D01*
X6627000Y-82590756D01*
X6373000Y-82590756D01*
X6373000Y-82582900D01*
X6352839Y-82514239D01*
X6298758Y-82467377D01*
X6214095Y-82459973D01*
X6015390Y-82511546D01*
X5995134Y-82518679D01*
X5785008Y-82613334D01*
X5766243Y-82623778D01*
X5575070Y-82752483D01*
X5558334Y-82765940D01*
X5391580Y-82925016D01*
X5377350Y-82941099D01*
X5239782Y-83125997D01*
X5228466Y-83144249D01*
X5124018Y-83349683D01*
X5115938Y-83369580D01*
X5047597Y-83589674D01*
X5042986Y-83610647D01*
X5037861Y-83649312D01*
X1127000Y-83649312D01*
X1127000Y-70109312D01*
X5037861Y-70109312D01*
X5048825Y-70180027D01*
X5096280Y-70233589D01*
X5163760Y-70253000D01*
X6246000Y-70253000D01*
X6314661Y-70232839D01*
X6361523Y-70178758D01*
X6373000Y-70126000D01*
X6373000Y-69042900D01*
X6352839Y-68974239D01*
X6298758Y-68927377D01*
X6214095Y-68919973D01*
X6015390Y-68971546D01*
X5995134Y-68978679D01*
X5785008Y-69073334D01*
X5766243Y-69083778D01*
X5575070Y-69212483D01*
X5558334Y-69225940D01*
X5391580Y-69385016D01*
X5377350Y-69401099D01*
X5239782Y-69585997D01*
X5228466Y-69604249D01*
X5124018Y-69809683D01*
X5115938Y-69829580D01*
X5047597Y-70049674D01*
X5042986Y-70070647D01*
X5037861Y-70109312D01*
X1127000Y-70109312D01*
X1127000Y-58649312D01*
X5037861Y-58649312D01*
X5048825Y-58720027D01*
X5096280Y-58773589D01*
X5163760Y-58793000D01*
X6246000Y-58793000D01*
X6314661Y-58772839D01*
X6361523Y-58718758D01*
X6373000Y-58666000D01*
X6373000Y-57590756D01*
X6627000Y-57590756D01*
X6627000Y-58666000D01*
X6647161Y-58734661D01*
X6701242Y-58781523D01*
X6754000Y-58793000D01*
X7834306Y-58793000D01*
X7902967Y-58772839D01*
X7949829Y-58718758D01*
X7958599Y-58639921D01*
X7929718Y-58502275D01*
X7923547Y-58481705D01*
X7838896Y-58267354D01*
X7829348Y-58248119D01*
X7709791Y-58051095D01*
X7697138Y-58033743D01*
X7546094Y-57859680D01*
X7530698Y-57844708D01*
X7352485Y-57698583D01*
X7334787Y-57686420D01*
X7134502Y-57572411D01*
X7115007Y-57563403D01*
X6898376Y-57484770D01*
X6871731Y-57478250D01*
X6770687Y-57464857D01*
X6699972Y-57475821D01*
X6646411Y-57523276D01*
X6627000Y-57590756D01*
X6373000Y-57590756D01*
X6373000Y-57582900D01*
X6352839Y-57514239D01*
X6298758Y-57467377D01*
X6214095Y-57459973D01*
X6015390Y-57511546D01*
X5995134Y-57518679D01*
X5785008Y-57613334D01*
X5766243Y-57623778D01*
X5575070Y-57752483D01*
X5558334Y-57765940D01*
X5391580Y-57925016D01*
X5377350Y-57941099D01*
X5239782Y-58125997D01*
X5228466Y-58144249D01*
X5124018Y-58349683D01*
X5115938Y-58369580D01*
X5047597Y-58589674D01*
X5042986Y-58610647D01*
X5037861Y-58649312D01*
X1127000Y-58649312D01*
X1127000Y-5093711D01*
X1130567Y-5057004D01*
X1131036Y-5050371D01*
X1141914Y-4806091D01*
X1173001Y-4806091D01*
X1173001Y-5193909D01*
X1173697Y-5207184D01*
X1214235Y-5592877D01*
X1216314Y-5606007D01*
X1296945Y-5985349D01*
X1300386Y-5998189D01*
X1420229Y-6367026D01*
X1424993Y-6379436D01*
X1582732Y-6733725D01*
X1588767Y-6745570D01*
X1782676Y-7081430D01*
X1789916Y-7092579D01*
X2017869Y-7406330D01*
X2026235Y-7416661D01*
X2285736Y-7704865D01*
X2295135Y-7714264D01*
X2583339Y-7973765D01*
X2593670Y-7982131D01*
X2907421Y-8210084D01*
X2918570Y-8217324D01*
X3254430Y-8411233D01*
X3266275Y-8417268D01*
X3620564Y-8575007D01*
X3632974Y-8579771D01*
X4001811Y-8699614D01*
X4014651Y-8703055D01*
X4393993Y-8783686D01*
X4407123Y-8785765D01*
X4792816Y-8826303D01*
X4806091Y-8826999D01*
X5193909Y-8826999D01*
X5207184Y-8826303D01*
X5592877Y-8785765D01*
X5606007Y-8783686D01*
X5985349Y-8703055D01*
X5998189Y-8699614D01*
X6367026Y-8579771D01*
X6379436Y-8575007D01*
X6733725Y-8417268D01*
X6745570Y-8411233D01*
X7081430Y-8217324D01*
X7092579Y-8210084D01*
X7406330Y-7982131D01*
X7416661Y-7973765D01*
X7704865Y-7714264D01*
X7714264Y-7704865D01*
X7973765Y-7416661D01*
X7982131Y-7406330D01*
X8210084Y-7092579D01*
X8217324Y-7081430D01*
X8411233Y-6745570D01*
X8417268Y-6733725D01*
X8575007Y-6379436D01*
X8579771Y-6367026D01*
X8699614Y-5998189D01*
X8703055Y-5985349D01*
X8783686Y-5606007D01*
X8785765Y-5592877D01*
X8826303Y-5207184D01*
X8826999Y-5193909D01*
X8826999Y-4806091D01*
X8826303Y-4792816D01*
X8785765Y-4407123D01*
X8783686Y-4393993D01*
X8703055Y-4014651D01*
X8699614Y-4001811D01*
X8579771Y-3632974D01*
X8575007Y-3620564D01*
X8417268Y-3266275D01*
X8411233Y-3254430D01*
X8217324Y-2918570D01*
X8210084Y-2907421D01*
X7982131Y-2593670D01*
X7973765Y-2583339D01*
X7714264Y-2295135D01*
X7704865Y-2285736D01*
X7416661Y-2026235D01*
X7406330Y-2017869D01*
X7092579Y-1789916D01*
X7081430Y-1782676D01*
X6745570Y-1588767D01*
X6733725Y-1582732D01*
X6379436Y-1424993D01*
X6367026Y-1420229D01*
X5998189Y-1300386D01*
X5985349Y-1296945D01*
X5606007Y-1216314D01*
X5592877Y-1214235D01*
X5207184Y-1173697D01*
X5193909Y-1173001D01*
X4806091Y-1173001D01*
X4792816Y-1173697D01*
X4407123Y-1214235D01*
X4393993Y-1216314D01*
X4014651Y-1296945D01*
X4001811Y-1300386D01*
X3632974Y-1420229D01*
X3620564Y-1424993D01*
X3266275Y-1582732D01*
X3254430Y-1588767D01*
X2918570Y-1782676D01*
X2907421Y-1789916D01*
X2593670Y-2017869D01*
X2583339Y-2026235D01*
X2295135Y-2285736D01*
X2285736Y-2295135D01*
X2026235Y-2583339D01*
X2017869Y-2593670D01*
X1789916Y-2907421D01*
X1782676Y-2918570D01*
X1588767Y-3254430D01*
X1582732Y-3266275D01*
X1424993Y-3620564D01*
X1420229Y-3632974D01*
X1300386Y-4001811D01*
X1296945Y-4014651D01*
X1216314Y-4393993D01*
X1214235Y-4407123D01*
X1173697Y-4792816D01*
X1173001Y-4806091D01*
X1141914Y-4806091D01*
X1148587Y-4656274D01*
X1194392Y-4315254D01*
X1270323Y-3979690D01*
X1375794Y-3652164D01*
X1509959Y-3335325D01*
X1671744Y-3031689D01*
X1859904Y-2743602D01*
X2072911Y-2473406D01*
X2309097Y-2223210D01*
X2566597Y-1994991D01*
X2843347Y-1790580D01*
X3137196Y-1611566D01*
X3445780Y-1459388D01*
X3766661Y-1335248D01*
X4097338Y-1240116D01*
X4435144Y-1174760D01*
X4786283Y-1138783D01*
X5032599Y-1131687D01*
X5045409Y-1130668D01*
X5073460Y-1127000D01*
X11303561Y-1127000D01*
X11183296Y-1220092D01*
X11183296Y-1220092D01*
G37*
X11183296Y-1220092D02*
X11164670Y-1237797D01*
X11032874Y-1391322D01*
X11018195Y-1412412D01*
X10920000Y-1589324D01*
X10909866Y-1612939D01*
X10849294Y-1805996D01*
X10844122Y-1831167D01*
X10823652Y-2032466D01*
X10823000Y-2045314D01*
X10823000Y-9045314D01*
X10823367Y-9054958D01*
X10834899Y-9206386D01*
X10838586Y-9228575D01*
X10889302Y-9424452D01*
X10898227Y-9448550D01*
X10899408Y-9450957D01*
X10849294Y-9610682D01*
X10844122Y-9635853D01*
X10823652Y-9837152D01*
X10823000Y-9850000D01*
X10823000Y-17000000D01*
X10823382Y-17009847D01*
X10835407Y-17164463D01*
X10839183Y-17186846D01*
X10875770Y-17326296D01*
X10849294Y-17410682D01*
X10844122Y-17435853D01*
X10823652Y-17637152D01*
X10823000Y-17650000D01*
X10823000Y-24750000D01*
X10823367Y-24759644D01*
X10834899Y-24911072D01*
X10838586Y-24933261D01*
X10868625Y-25049279D01*
X10848883Y-25112584D01*
X10843754Y-25137763D01*
X10823631Y-25339097D01*
X10823001Y-25351947D01*
X10835096Y-32351947D01*
X10835471Y-32361482D01*
X10847002Y-32511182D01*
X10850681Y-32533261D01*
X10882314Y-32655438D01*
X10849294Y-32760682D01*
X10844122Y-32785853D01*
X10823652Y-32987152D01*
X10823000Y-33000000D01*
X10823000Y-40000000D01*
X10823367Y-40009644D01*
X10834899Y-40161072D01*
X10838586Y-40183261D01*
X10889302Y-40379138D01*
X10889986Y-40380986D01*
X10849294Y-40510682D01*
X10844122Y-40535853D01*
X10823652Y-40737152D01*
X10823000Y-40750000D01*
X10823000Y-47750000D01*
X10823367Y-47759644D01*
X10834899Y-47911072D01*
X10838586Y-47933261D01*
X10889302Y-48129138D01*
X10889986Y-48130986D01*
X10849294Y-48260682D01*
X10844122Y-48285853D01*
X10823652Y-48487152D01*
X10823000Y-48500000D01*
X10823000Y-54648000D01*
X8148780Y-54648000D01*
X8188226Y-54613054D01*
X8208528Y-54590137D01*
X8346479Y-54390281D01*
X8360707Y-54363171D01*
X8446820Y-54136107D01*
X8454147Y-54106381D01*
X8483419Y-53865308D01*
X8484345Y-53850000D01*
X8484345Y-52150000D01*
X8482265Y-52127108D01*
X8416804Y-51769899D01*
X8404337Y-51733771D01*
X8291482Y-51518743D01*
X8274090Y-51493547D01*
X8221488Y-51434171D01*
X8312198Y-51261760D01*
X8319557Y-51244916D01*
X8408956Y-50991760D01*
X8413807Y-50974030D01*
X8465724Y-50710620D01*
X8467964Y-50692376D01*
X8481314Y-50424231D01*
X8480897Y-50405854D01*
X8455397Y-50138591D01*
X8452331Y-50120467D01*
X8388518Y-49859683D01*
X8382869Y-49842191D01*
X8282079Y-49593352D01*
X8273963Y-49576859D01*
X8138306Y-49345175D01*
X8127895Y-49330027D01*
X8018482Y-49193212D01*
X8019482Y-49192028D01*
X8177478Y-48974964D01*
X8187191Y-48959359D01*
X8312198Y-48721760D01*
X8319557Y-48704916D01*
X8408956Y-48451760D01*
X8413807Y-48434030D01*
X8465724Y-48170620D01*
X8467964Y-48152376D01*
X8481314Y-47884231D01*
X8480897Y-47865854D01*
X8455397Y-47598591D01*
X8452331Y-47580467D01*
X8388518Y-47319683D01*
X8382869Y-47302191D01*
X8282079Y-47053352D01*
X8273963Y-47036859D01*
X8138306Y-46805175D01*
X8127895Y-46790027D01*
X8018482Y-46653212D01*
X8019482Y-46652028D01*
X8177478Y-46434964D01*
X8187191Y-46419359D01*
X8312198Y-46181760D01*
X8319557Y-46164916D01*
X8408956Y-45911760D01*
X8413807Y-45894030D01*
X8465724Y-45630620D01*
X8467964Y-45612376D01*
X8481314Y-45344231D01*
X8480897Y-45325854D01*
X8455397Y-45058591D01*
X8452331Y-45040467D01*
X8388518Y-44779683D01*
X8382869Y-44762191D01*
X8282079Y-44513352D01*
X8273963Y-44496859D01*
X8138306Y-44265175D01*
X8127895Y-44250027D01*
X8018482Y-44113212D01*
X8019482Y-44112028D01*
X8177478Y-43894964D01*
X8187191Y-43879359D01*
X8312198Y-43641760D01*
X8319557Y-43624916D01*
X8408956Y-43371760D01*
X8413807Y-43354030D01*
X8465724Y-43090620D01*
X8467964Y-43072376D01*
X8481314Y-42804231D01*
X8480897Y-42785854D01*
X8455397Y-42518591D01*
X8452331Y-42500467D01*
X8388518Y-42239683D01*
X8382869Y-42222191D01*
X8282079Y-41973352D01*
X8273963Y-41956859D01*
X8138306Y-41725175D01*
X8127895Y-41710027D01*
X8018482Y-41573212D01*
X8019482Y-41572028D01*
X8177478Y-41354964D01*
X8187191Y-41339359D01*
X8312198Y-41101760D01*
X8319557Y-41084916D01*
X8408956Y-40831760D01*
X8413807Y-40814030D01*
X8465724Y-40550620D01*
X8467964Y-40532376D01*
X8481314Y-40264231D01*
X8480897Y-40245854D01*
X8455397Y-39978591D01*
X8452331Y-39960467D01*
X8388518Y-39699683D01*
X8382869Y-39682191D01*
X8282079Y-39433352D01*
X8273963Y-39416859D01*
X8138306Y-39185175D01*
X8127895Y-39170027D01*
X8018482Y-39033212D01*
X8019482Y-39032028D01*
X8177478Y-38814964D01*
X8187191Y-38799359D01*
X8312198Y-38561760D01*
X8319557Y-38544916D01*
X8408956Y-38291760D01*
X8413807Y-38274030D01*
X8465724Y-38010620D01*
X8467964Y-37992376D01*
X8481314Y-37724231D01*
X8480897Y-37705854D01*
X8455397Y-37438591D01*
X8452331Y-37420467D01*
X8388518Y-37159683D01*
X8382869Y-37142191D01*
X8282079Y-36893352D01*
X8273963Y-36876859D01*
X8138306Y-36645175D01*
X8127895Y-36630027D01*
X8018482Y-36493212D01*
X8019482Y-36492028D01*
X8177478Y-36274964D01*
X8187191Y-36259359D01*
X8312198Y-36021760D01*
X8319557Y-36004916D01*
X8408956Y-35751760D01*
X8413807Y-35734030D01*
X8465724Y-35470620D01*
X8467964Y-35452376D01*
X8481314Y-35184231D01*
X8480897Y-35165854D01*
X8455397Y-34898591D01*
X8452331Y-34880467D01*
X8388518Y-34619683D01*
X8382869Y-34602191D01*
X8282079Y-34353352D01*
X8273963Y-34336859D01*
X8138306Y-34105175D01*
X8127895Y-34090027D01*
X8018482Y-33953212D01*
X8019482Y-33952028D01*
X8177478Y-33734964D01*
X8187191Y-33719359D01*
X8312198Y-33481760D01*
X8319557Y-33464916D01*
X8408956Y-33211760D01*
X8413807Y-33194030D01*
X8465724Y-32930620D01*
X8467964Y-32912376D01*
X8481314Y-32644231D01*
X8480897Y-32625854D01*
X8455397Y-32358591D01*
X8452331Y-32340467D01*
X8388518Y-32079683D01*
X8382869Y-32062191D01*
X8282079Y-31813352D01*
X8273963Y-31796859D01*
X8138306Y-31565175D01*
X8127895Y-31550027D01*
X8018482Y-31413212D01*
X8019482Y-31412028D01*
X8177478Y-31194964D01*
X8187191Y-31179359D01*
X8312198Y-30941760D01*
X8319557Y-30924916D01*
X8408956Y-30671760D01*
X8413807Y-30654030D01*
X8465724Y-30390620D01*
X8467964Y-30372376D01*
X8481314Y-30104231D01*
X8480897Y-30085854D01*
X8455397Y-29818591D01*
X8452331Y-29800467D01*
X8388518Y-29539683D01*
X8382869Y-29522191D01*
X8282079Y-29273352D01*
X8273963Y-29256859D01*
X8138306Y-29025175D01*
X8127895Y-29010027D01*
X8018482Y-28873212D01*
X8019482Y-28872028D01*
X8177478Y-28654964D01*
X8187191Y-28639359D01*
X8312198Y-28401760D01*
X8319557Y-28384916D01*
X8408956Y-28131760D01*
X8413807Y-28114030D01*
X8465724Y-27850620D01*
X8467964Y-27832376D01*
X8481314Y-27564231D01*
X8480897Y-27545854D01*
X8455397Y-27278591D01*
X8452331Y-27260467D01*
X8388518Y-26999683D01*
X8382869Y-26982191D01*
X8282079Y-26733352D01*
X8273963Y-26716859D01*
X8138306Y-26485175D01*
X8127895Y-26470027D01*
X8018482Y-26333212D01*
X8019482Y-26332028D01*
X8177478Y-26114964D01*
X8187191Y-26099359D01*
X8312198Y-25861760D01*
X8319557Y-25844916D01*
X8408956Y-25591760D01*
X8413807Y-25574030D01*
X8465724Y-25310620D01*
X8467964Y-25292376D01*
X8481314Y-25024231D01*
X8480897Y-25005854D01*
X8455397Y-24738591D01*
X8452331Y-24720467D01*
X8388518Y-24459683D01*
X8382869Y-24442191D01*
X8282079Y-24193352D01*
X8273963Y-24176859D01*
X8138306Y-23945175D01*
X8127895Y-23930027D01*
X8018482Y-23793212D01*
X8019482Y-23792028D01*
X8177478Y-23574964D01*
X8187191Y-23559359D01*
X8312198Y-23321760D01*
X8319557Y-23304916D01*
X8408956Y-23051760D01*
X8413807Y-23034030D01*
X8465724Y-22770620D01*
X8467964Y-22752376D01*
X8481314Y-22484231D01*
X8480897Y-22465854D01*
X8455397Y-22198591D01*
X8452331Y-22180467D01*
X8388518Y-21919683D01*
X8382869Y-21902191D01*
X8282079Y-21653352D01*
X8273963Y-21636859D01*
X8138306Y-21405175D01*
X8127895Y-21390027D01*
X7960215Y-21180353D01*
X7947726Y-21166866D01*
X7751534Y-20983593D01*
X7737228Y-20972050D01*
X7516634Y-20819019D01*
X7500813Y-20809662D01*
X7260439Y-20690078D01*
X7243432Y-20683103D01*
X6988314Y-20599471D01*
X6964230Y-20594099D01*
X6555775Y-20543947D01*
X6540298Y-20543000D01*
X6431806Y-20543000D01*
X6422615Y-20543333D01*
X6223036Y-20557814D01*
X6204848Y-20560467D01*
X5942684Y-20618347D01*
X5925068Y-20623599D01*
X5674005Y-20718719D01*
X5657332Y-20726458D01*
X5422631Y-20856823D01*
X5407251Y-20866888D01*
X5193826Y-21029768D01*
X5180058Y-21041948D01*
X4992382Y-21233932D01*
X4980518Y-21247972D01*
X4822522Y-21465036D01*
X4812809Y-21480641D01*
X4687802Y-21718240D01*
X4680443Y-21735084D01*
X4591044Y-21988240D01*
X4586193Y-22005970D01*
X4534276Y-22269380D01*
X4532036Y-22287624D01*
X4518686Y-22555769D01*
X4519103Y-22574146D01*
X4544603Y-22841409D01*
X4547669Y-22859533D01*
X4611482Y-23120317D01*
X4617131Y-23137809D01*
X4717921Y-23386648D01*
X4726037Y-23403141D01*
X4861694Y-23634825D01*
X4872105Y-23649973D01*
X4981518Y-23786788D01*
X4980518Y-23787972D01*
X4822522Y-24005036D01*
X4812809Y-24020641D01*
X4687802Y-24258240D01*
X4680443Y-24275084D01*
X4591044Y-24528240D01*
X4586193Y-24545970D01*
X4534276Y-24809380D01*
X4532036Y-24827624D01*
X4518686Y-25095769D01*
X4519103Y-25114146D01*
X4544603Y-25381409D01*
X4547669Y-25399533D01*
X4611482Y-25660317D01*
X4617131Y-25677809D01*
X4717921Y-25926648D01*
X4726037Y-25943141D01*
X4861694Y-26174825D01*
X4872105Y-26189973D01*
X4981518Y-26326788D01*
X4980518Y-26327972D01*
X4822522Y-26545036D01*
X4812809Y-26560641D01*
X4687802Y-26798240D01*
X4680443Y-26815084D01*
X4591044Y-27068240D01*
X4586193Y-27085970D01*
X4534276Y-27349380D01*
X4532036Y-27367624D01*
X4518686Y-27635769D01*
X4519103Y-27654146D01*
X4544603Y-27921409D01*
X4547669Y-27939533D01*
X4611482Y-28200317D01*
X4617131Y-28217809D01*
X4717921Y-28466648D01*
X4726037Y-28483141D01*
X4861694Y-28714825D01*
X4872105Y-28729973D01*
X4981518Y-28866788D01*
X4980518Y-28867972D01*
X4822522Y-29085036D01*
X4812809Y-29100641D01*
X4687802Y-29338240D01*
X4680443Y-29355084D01*
X4591044Y-29608240D01*
X4586193Y-29625970D01*
X4534276Y-29889380D01*
X4532036Y-29907624D01*
X4518686Y-30175769D01*
X4519103Y-30194146D01*
X4544603Y-30461409D01*
X4547669Y-30479533D01*
X4611482Y-30740317D01*
X4617131Y-30757809D01*
X4717921Y-31006648D01*
X4726037Y-31023141D01*
X4861694Y-31254825D01*
X4872105Y-31269973D01*
X4981518Y-31406788D01*
X4980518Y-31407972D01*
X4822522Y-31625036D01*
X4812809Y-31640641D01*
X4687802Y-31878240D01*
X4680443Y-31895084D01*
X4591044Y-32148240D01*
X4586193Y-32165970D01*
X4534276Y-32429380D01*
X4532036Y-32447624D01*
X4518686Y-32715769D01*
X4519103Y-32734146D01*
X4544603Y-33001409D01*
X4547669Y-33019533D01*
X4611482Y-33280317D01*
X4617131Y-33297809D01*
X4717921Y-33546648D01*
X4726037Y-33563141D01*
X4861694Y-33794825D01*
X4872105Y-33809973D01*
X4981518Y-33946788D01*
X4980518Y-33947972D01*
X4822522Y-34165036D01*
X4812809Y-34180641D01*
X4687802Y-34418240D01*
X4680443Y-34435084D01*
X4591044Y-34688240D01*
X4586193Y-34705970D01*
X4534276Y-34969380D01*
X4532036Y-34987624D01*
X4518686Y-35255769D01*
X4519103Y-35274146D01*
X4544603Y-35541409D01*
X4547669Y-35559533D01*
X4611482Y-35820317D01*
X4617131Y-35837809D01*
X4717921Y-36086648D01*
X4726037Y-36103141D01*
X4861694Y-36334825D01*
X4872105Y-36349973D01*
X4981518Y-36486788D01*
X4980518Y-36487972D01*
X4822522Y-36705036D01*
X4812809Y-36720641D01*
X4687802Y-36958240D01*
X4680443Y-36975084D01*
X4591044Y-37228240D01*
X4586193Y-37245970D01*
X4534276Y-37509380D01*
X4532036Y-37527624D01*
X4518686Y-37795769D01*
X4519103Y-37814146D01*
X4544603Y-38081409D01*
X4547669Y-38099533D01*
X4611482Y-38360317D01*
X4617131Y-38377809D01*
X4717921Y-38626648D01*
X4726037Y-38643141D01*
X4861694Y-38874825D01*
X4872105Y-38889973D01*
X4981518Y-39026788D01*
X4980518Y-39027972D01*
X4822522Y-39245036D01*
X4812809Y-39260641D01*
X4687802Y-39498240D01*
X4680443Y-39515084D01*
X4591044Y-39768240D01*
X4586193Y-39785970D01*
X4534276Y-40049380D01*
X4532036Y-40067624D01*
X4518686Y-40335769D01*
X4519103Y-40354146D01*
X4544603Y-40621409D01*
X4547669Y-40639533D01*
X4611482Y-40900317D01*
X4617131Y-40917809D01*
X4717921Y-41166648D01*
X4726037Y-41183141D01*
X4861694Y-41414825D01*
X4872105Y-41429973D01*
X4981518Y-41566788D01*
X4980518Y-41567972D01*
X4822522Y-41785036D01*
X4812809Y-41800641D01*
X4687802Y-42038240D01*
X4680443Y-42055084D01*
X4591044Y-42308240D01*
X4586193Y-42325970D01*
X4534276Y-42589380D01*
X4532036Y-42607624D01*
X4518686Y-42875769D01*
X4519103Y-42894146D01*
X4544603Y-43161409D01*
X4547669Y-43179533D01*
X4611482Y-43440317D01*
X4617131Y-43457809D01*
X4717921Y-43706648D01*
X4726037Y-43723141D01*
X4861694Y-43954825D01*
X4872105Y-43969973D01*
X4981518Y-44106788D01*
X4980518Y-44107972D01*
X4822522Y-44325036D01*
X4812809Y-44340641D01*
X4687802Y-44578240D01*
X4680443Y-44595084D01*
X4591044Y-44848240D01*
X4586193Y-44865970D01*
X4534276Y-45129380D01*
X4532036Y-45147624D01*
X4518686Y-45415769D01*
X4519103Y-45434146D01*
X4544603Y-45701409D01*
X4547669Y-45719533D01*
X4611482Y-45980317D01*
X4617131Y-45997809D01*
X4717921Y-46246648D01*
X4726037Y-46263141D01*
X4861694Y-46494825D01*
X4872105Y-46509973D01*
X4981518Y-46646788D01*
X4980518Y-46647972D01*
X4822522Y-46865036D01*
X4812809Y-46880641D01*
X4687802Y-47118240D01*
X4680443Y-47135084D01*
X4591044Y-47388240D01*
X4586193Y-47405970D01*
X4534276Y-47669380D01*
X4532036Y-47687624D01*
X4518686Y-47955769D01*
X4519103Y-47974146D01*
X4544603Y-48241409D01*
X4547669Y-48259533D01*
X4611482Y-48520317D01*
X4617131Y-48537809D01*
X4717921Y-48786648D01*
X4726037Y-48803141D01*
X4861694Y-49034825D01*
X4872105Y-49049973D01*
X4981518Y-49186788D01*
X4980518Y-49187972D01*
X4822522Y-49405036D01*
X4812809Y-49420641D01*
X4687802Y-49658240D01*
X4680443Y-49675084D01*
X4591044Y-49928240D01*
X4586193Y-49945970D01*
X4534276Y-50209380D01*
X4532036Y-50227624D01*
X4518686Y-50495769D01*
X4519103Y-50514146D01*
X4544603Y-50781409D01*
X4547669Y-50799533D01*
X4611482Y-51060317D01*
X4617131Y-51077809D01*
X4717921Y-51326648D01*
X4726037Y-51343141D01*
X4777206Y-51430531D01*
X4653521Y-51609719D01*
X4639293Y-51636829D01*
X4553180Y-51863893D01*
X4545853Y-51893619D01*
X4516581Y-52134692D01*
X4515655Y-52150000D01*
X4515655Y-53850000D01*
X4517735Y-53872892D01*
X4583196Y-54230101D01*
X4595663Y-54266229D01*
X4599217Y-54273000D01*
X3798850Y-54273000D01*
X3786016Y-54273650D01*
X3558994Y-54296710D01*
X3533850Y-54301871D01*
X3243062Y-54392998D01*
X3219469Y-54403110D01*
X2952944Y-54550848D01*
X2931867Y-54565497D01*
X2700493Y-54763808D01*
X2682791Y-54782397D01*
X2496018Y-55023183D01*
X2482416Y-55044951D01*
X2347875Y-55318375D01*
X2338928Y-55342433D01*
X2262114Y-55637325D01*
X2258187Y-55662692D01*
X2242239Y-55967007D01*
X2243493Y-55992644D01*
X2289061Y-56293949D01*
X2295444Y-56318811D01*
X2400668Y-56604801D01*
X2411921Y-56627871D01*
X2572501Y-56886860D01*
X2588162Y-56907197D01*
X2797540Y-57128608D01*
X2816971Y-57145380D01*
X3066593Y-57320167D01*
X3088999Y-57332690D01*
X3368668Y-57453714D01*
X3399677Y-57462664D01*
X3805606Y-57525505D01*
X3825035Y-57527000D01*
X4851150Y-57527000D01*
X4863984Y-57526350D01*
X5091006Y-57503290D01*
X5116150Y-57498129D01*
X5406938Y-57407002D01*
X5430531Y-57396890D01*
X5697056Y-57249152D01*
X5718133Y-57234502D01*
X5814390Y-57152000D01*
X10823000Y-57152000D01*
X10823000Y-62472990D01*
X10014586Y-62472990D01*
X8382245Y-60840650D01*
X8282079Y-60593352D01*
X8273963Y-60576859D01*
X8138306Y-60345175D01*
X8127895Y-60330027D01*
X7960215Y-60120353D01*
X7947726Y-60106866D01*
X7751534Y-59923593D01*
X7737228Y-59912050D01*
X7655203Y-59855148D01*
X7760218Y-59714003D01*
X7771534Y-59695751D01*
X7875982Y-59490317D01*
X7884062Y-59470420D01*
X7952403Y-59250326D01*
X7957014Y-59229353D01*
X7962139Y-59190688D01*
X7951175Y-59119973D01*
X7903720Y-59066411D01*
X7836240Y-59047000D01*
X5165694Y-59047000D01*
X5097033Y-59067161D01*
X5050171Y-59121242D01*
X5041401Y-59200079D01*
X5070282Y-59337725D01*
X5076453Y-59358295D01*
X5161104Y-59572646D01*
X5170652Y-59591881D01*
X5290209Y-59788905D01*
X5302862Y-59806257D01*
X5344781Y-59854564D01*
X5193826Y-59969768D01*
X5180058Y-59981948D01*
X4992382Y-60173932D01*
X4980518Y-60187972D01*
X4822522Y-60405036D01*
X4812809Y-60420641D01*
X4687802Y-60658240D01*
X4680443Y-60675084D01*
X4591044Y-60928240D01*
X4586193Y-60945970D01*
X4534276Y-61209380D01*
X4532036Y-61227624D01*
X4518686Y-61495769D01*
X4519103Y-61514146D01*
X4544603Y-61781409D01*
X4547669Y-61799533D01*
X4611482Y-62060317D01*
X4617131Y-62077809D01*
X4717921Y-62326648D01*
X4726037Y-62343141D01*
X4777206Y-62430531D01*
X4653521Y-62609719D01*
X4639293Y-62636829D01*
X4553180Y-62863893D01*
X4545853Y-62893619D01*
X4516581Y-63134692D01*
X4515655Y-63150000D01*
X4515655Y-64850000D01*
X4517735Y-64872892D01*
X4583196Y-65230101D01*
X4595663Y-65266229D01*
X4708518Y-65481257D01*
X4725910Y-65506454D01*
X4886946Y-65688226D01*
X4909863Y-65708528D01*
X5109719Y-65846479D01*
X5136829Y-65860707D01*
X5363893Y-65946820D01*
X5393619Y-65954147D01*
X5634692Y-65983419D01*
X5650000Y-65984345D01*
X7350000Y-65984345D01*
X7372892Y-65982265D01*
X7730101Y-65916804D01*
X7766229Y-65904337D01*
X7981257Y-65791482D01*
X8006454Y-65774090D01*
X8188226Y-65613054D01*
X8208528Y-65590137D01*
X8346479Y-65390281D01*
X8360707Y-65363171D01*
X8446820Y-65136107D01*
X8454147Y-65106381D01*
X8483419Y-64865308D01*
X8484345Y-64850000D01*
X8484345Y-64483941D01*
X8543559Y-64543155D01*
X8565328Y-64572736D01*
X8585389Y-64594248D01*
X8646961Y-64646557D01*
X8657138Y-64656734D01*
X8668142Y-64666529D01*
X8702026Y-64693337D01*
X8785315Y-64764096D01*
X8809788Y-64780418D01*
X8816286Y-64783736D01*
X8822009Y-64788264D01*
X8847037Y-64803722D01*
X8946077Y-64850010D01*
X9043421Y-64899717D01*
X9075725Y-64910604D01*
X9084694Y-64914796D01*
X9112604Y-64924081D01*
X9369440Y-64977503D01*
X9398738Y-64980118D01*
X9514335Y-64976990D01*
X10823000Y-64976990D01*
X10823000Y-70048000D01*
X8214934Y-70048000D01*
X8178630Y-70042477D01*
X8149233Y-70041450D01*
X8068707Y-70048000D01*
X8054315Y-70048000D01*
X8039607Y-70048855D01*
X7996709Y-70053857D01*
X7949736Y-70057677D01*
X7929718Y-69962274D01*
X7923547Y-69941705D01*
X7838896Y-69727354D01*
X7829348Y-69708119D01*
X7709791Y-69511095D01*
X7697138Y-69493743D01*
X7546094Y-69319680D01*
X7530698Y-69304708D01*
X7352485Y-69158583D01*
X7334787Y-69146420D01*
X7134502Y-69032411D01*
X7115007Y-69023403D01*
X6898376Y-68944770D01*
X6871731Y-68938250D01*
X6770687Y-68924857D01*
X6699972Y-68935821D01*
X6646411Y-68983276D01*
X6627000Y-69050756D01*
X6627000Y-70507000D01*
X5165694Y-70507000D01*
X5097033Y-70527161D01*
X5050171Y-70581242D01*
X5041401Y-70660079D01*
X5070282Y-70797725D01*
X5076453Y-70818295D01*
X5161104Y-71032646D01*
X5170652Y-71051881D01*
X5290209Y-71248905D01*
X5302862Y-71266257D01*
X5344781Y-71314564D01*
X5193826Y-71429768D01*
X5180058Y-71441948D01*
X4992382Y-71633932D01*
X4980518Y-71647972D01*
X4822522Y-71865036D01*
X4812809Y-71880641D01*
X4687802Y-72118240D01*
X4680443Y-72135084D01*
X4591044Y-72388240D01*
X4586193Y-72405970D01*
X4534276Y-72669380D01*
X4532036Y-72687624D01*
X4518686Y-72955769D01*
X4519103Y-72974146D01*
X4544603Y-73241409D01*
X4547669Y-73259533D01*
X4611482Y-73520317D01*
X4617131Y-73537809D01*
X4717921Y-73786648D01*
X4726037Y-73803141D01*
X4861694Y-74034825D01*
X4872105Y-74049973D01*
X4981518Y-74186788D01*
X4980518Y-74187972D01*
X4822522Y-74405036D01*
X4812809Y-74420641D01*
X4687802Y-74658240D01*
X4680443Y-74675084D01*
X4591044Y-74928240D01*
X4586193Y-74945970D01*
X4534276Y-75209380D01*
X4532036Y-75227624D01*
X4518686Y-75495769D01*
X4519103Y-75514146D01*
X4544603Y-75781409D01*
X4547669Y-75799533D01*
X4611482Y-76060317D01*
X4617131Y-76077809D01*
X4717921Y-76326648D01*
X4726037Y-76343141D01*
X4777206Y-76430531D01*
X4653521Y-76609719D01*
X4639293Y-76636829D01*
X4553180Y-76863893D01*
X4545853Y-76893619D01*
X4516581Y-77134692D01*
X4515655Y-77150000D01*
X4515655Y-78850000D01*
X4517735Y-78872892D01*
X4583196Y-79230101D01*
X4595663Y-79266229D01*
X4708518Y-79481257D01*
X4725910Y-79506454D01*
X4886946Y-79688226D01*
X4909863Y-79708528D01*
X5109719Y-79846479D01*
X5136829Y-79860707D01*
X5363893Y-79946820D01*
X5393619Y-79954147D01*
X5634692Y-79983419D01*
X5650000Y-79984345D01*
X7350000Y-79984345D01*
X7372892Y-79982265D01*
X7730101Y-79916804D01*
X7766229Y-79904337D01*
X7981257Y-79791482D01*
X8006454Y-79774090D01*
X8188226Y-79613054D01*
X8208528Y-79590137D01*
X8346479Y-79390281D01*
X8360707Y-79363171D01*
X8435462Y-79166057D01*
X9030769Y-79761365D01*
X9052538Y-79790946D01*
X9072599Y-79812458D01*
X9134171Y-79864767D01*
X9144348Y-79874944D01*
X9155352Y-79884739D01*
X9189236Y-79911547D01*
X9272525Y-79982306D01*
X9296998Y-79998628D01*
X9303496Y-80001946D01*
X9309219Y-80006474D01*
X9334247Y-80021932D01*
X9433287Y-80068220D01*
X9530631Y-80117927D01*
X9562935Y-80128814D01*
X9571904Y-80133006D01*
X9599814Y-80142291D01*
X9856650Y-80195713D01*
X9885948Y-80198328D01*
X10001545Y-80195200D01*
X10823000Y-80195200D01*
X10823000Y-85648000D01*
X8304213Y-85648000D01*
X8282079Y-85593353D01*
X8273963Y-85576859D01*
X8138306Y-85345175D01*
X8127895Y-85330027D01*
X7960215Y-85120353D01*
X7947726Y-85106866D01*
X7751534Y-84923593D01*
X7737228Y-84912050D01*
X7655203Y-84855148D01*
X7760218Y-84714003D01*
X7771534Y-84695751D01*
X7875982Y-84490317D01*
X7884062Y-84470420D01*
X7952403Y-84250326D01*
X7957014Y-84229353D01*
X7962139Y-84190688D01*
X7951175Y-84119973D01*
X7903720Y-84066411D01*
X7836240Y-84047000D01*
X5165694Y-84047000D01*
X5097033Y-84067161D01*
X5050171Y-84121242D01*
X5041401Y-84200079D01*
X5070282Y-84337725D01*
X5076453Y-84358295D01*
X5161104Y-84572646D01*
X5170652Y-84591881D01*
X5290209Y-84788905D01*
X5302862Y-84806257D01*
X5344781Y-84854564D01*
X5193826Y-84969768D01*
X5180058Y-84981948D01*
X4992382Y-85173932D01*
X4980518Y-85187972D01*
X4822522Y-85405036D01*
X4812809Y-85420641D01*
X4687802Y-85658240D01*
X4680443Y-85675084D01*
X4591044Y-85928240D01*
X4586193Y-85945970D01*
X4534276Y-86209380D01*
X4532036Y-86227624D01*
X4518686Y-86495769D01*
X4519103Y-86514146D01*
X4544603Y-86781409D01*
X4547669Y-86799533D01*
X4611482Y-87060317D01*
X4617131Y-87077809D01*
X4717921Y-87326648D01*
X4726037Y-87343141D01*
X4777206Y-87430531D01*
X4653521Y-87609719D01*
X4639293Y-87636829D01*
X4553180Y-87863893D01*
X4545853Y-87893619D01*
X4516581Y-88134692D01*
X4515655Y-88150000D01*
X4515655Y-89850000D01*
X4517735Y-89872892D01*
X4583196Y-90230101D01*
X4595663Y-90266229D01*
X4708518Y-90481257D01*
X4725910Y-90506454D01*
X4886946Y-90688226D01*
X4909863Y-90708528D01*
X5109719Y-90846479D01*
X5136829Y-90860707D01*
X5363893Y-90946820D01*
X5393619Y-90954147D01*
X5634692Y-90983419D01*
X5650000Y-90984345D01*
X7350000Y-90984345D01*
X7372892Y-90982265D01*
X7730101Y-90916804D01*
X7766229Y-90904337D01*
X7981257Y-90791482D01*
X8006454Y-90774090D01*
X8188226Y-90613054D01*
X8208528Y-90590137D01*
X8346479Y-90390281D01*
X8360707Y-90363171D01*
X8446820Y-90136107D01*
X8454147Y-90106381D01*
X8483419Y-89865308D01*
X8484345Y-89850000D01*
X8484345Y-88152000D01*
X10831853Y-88152000D01*
X10823001Y-94348390D01*
X10823361Y-94358124D01*
X10834892Y-94510981D01*
X10838586Y-94533261D01*
X10889302Y-94729138D01*
X10898227Y-94753235D01*
X10987335Y-94934894D01*
X11000927Y-94956701D01*
X11124778Y-95116704D01*
X11142483Y-95135330D01*
X11296008Y-95267126D01*
X11317098Y-95281805D01*
X11494010Y-95380000D01*
X11517625Y-95390134D01*
X11710682Y-95450706D01*
X11735853Y-95455878D01*
X11937152Y-95476348D01*
X11950000Y-95477000D01*
X19169982Y-95477000D01*
X19236725Y-95484015D01*
X19263275Y-95484015D01*
X19330018Y-95477000D01*
X27400000Y-95477000D01*
X27409191Y-95476667D01*
X27553555Y-95466192D01*
X27575318Y-95462695D01*
X27771552Y-95413379D01*
X27795712Y-95404627D01*
X27978003Y-95316819D01*
X27999908Y-95303382D01*
X28160791Y-95180676D01*
X28179541Y-95163106D01*
X28312431Y-95010527D01*
X28327261Y-94989541D01*
X28426717Y-94813335D01*
X28429886Y-94806091D01*
X51173001Y-94806091D01*
X51173001Y-95193909D01*
X51173697Y-95207184D01*
X51214235Y-95592877D01*
X51216314Y-95606007D01*
X51296945Y-95985349D01*
X51300386Y-95998189D01*
X51420229Y-96367026D01*
X51424993Y-96379436D01*
X51582732Y-96733725D01*
X51588767Y-96745570D01*
X51782676Y-97081430D01*
X51789916Y-97092579D01*
X52017869Y-97406330D01*
X52026235Y-97416661D01*
X52285736Y-97704865D01*
X52295135Y-97714264D01*
X52583339Y-97973765D01*
X52593670Y-97982131D01*
X52907421Y-98210084D01*
X52918570Y-98217324D01*
X53254430Y-98411233D01*
X53266275Y-98417268D01*
X53620564Y-98575007D01*
X53632974Y-98579771D01*
X54001811Y-98699614D01*
X54014651Y-98703055D01*
X54393993Y-98783686D01*
X54407123Y-98785765D01*
X54792816Y-98826303D01*
X54806091Y-98826999D01*
X55193909Y-98826999D01*
X55207184Y-98826303D01*
X55592877Y-98785765D01*
X55606007Y-98783686D01*
X55985349Y-98703055D01*
X55998189Y-98699614D01*
X56367026Y-98579771D01*
X56379436Y-98575007D01*
X56733725Y-98417268D01*
X56745570Y-98411233D01*
X57081430Y-98217324D01*
X57092579Y-98210084D01*
X57406330Y-97982131D01*
X57416661Y-97973765D01*
X57704865Y-97714264D01*
X57714264Y-97704865D01*
X57973765Y-97416661D01*
X57982131Y-97406330D01*
X58210084Y-97092579D01*
X58217324Y-97081430D01*
X58411233Y-96745570D01*
X58417268Y-96733725D01*
X58575007Y-96379436D01*
X58579771Y-96367026D01*
X58699614Y-95998189D01*
X58703055Y-95985349D01*
X58783686Y-95606007D01*
X58785765Y-95592877D01*
X58826303Y-95207184D01*
X58826999Y-95193909D01*
X58826999Y-94806091D01*
X58826303Y-94792816D01*
X58785765Y-94407123D01*
X58783686Y-94393993D01*
X58703055Y-94014651D01*
X58699614Y-94001811D01*
X58579771Y-93632974D01*
X58575007Y-93620564D01*
X58417268Y-93266275D01*
X58411233Y-93254430D01*
X58217324Y-92918570D01*
X58210084Y-92907421D01*
X57982131Y-92593670D01*
X57973765Y-92583339D01*
X57714264Y-92295135D01*
X57704865Y-92285736D01*
X57416661Y-92026235D01*
X57406330Y-92017869D01*
X57092579Y-91789916D01*
X57081430Y-91782676D01*
X56745570Y-91588767D01*
X56733725Y-91582732D01*
X56379436Y-91424993D01*
X56367026Y-91420229D01*
X55998189Y-91300386D01*
X55985349Y-91296945D01*
X55606007Y-91216314D01*
X55592877Y-91214235D01*
X55207184Y-91173697D01*
X55193909Y-91173001D01*
X54806091Y-91173001D01*
X54792816Y-91173697D01*
X54407123Y-91214235D01*
X54393993Y-91216314D01*
X54014651Y-91296945D01*
X54001811Y-91300386D01*
X53632974Y-91420229D01*
X53620564Y-91424993D01*
X53266275Y-91582732D01*
X53254430Y-91588767D01*
X52918570Y-91782676D01*
X52907421Y-91789916D01*
X52593670Y-92017869D01*
X52583339Y-92026235D01*
X52295135Y-92285736D01*
X52285736Y-92295135D01*
X52026235Y-92583339D01*
X52017869Y-92593670D01*
X51789916Y-92907421D01*
X51782676Y-92918570D01*
X51588767Y-93254430D01*
X51582732Y-93266275D01*
X51424993Y-93620564D01*
X51420229Y-93632974D01*
X51300386Y-94001811D01*
X51296945Y-94014651D01*
X51216314Y-94393993D01*
X51214235Y-94407123D01*
X51173697Y-94792816D01*
X51173001Y-94806091D01*
X28429886Y-94806091D01*
X28437019Y-94789793D01*
X28498968Y-94597173D01*
X28504320Y-94572040D01*
X28526227Y-94370893D01*
X28526971Y-94358050D01*
X28571300Y-88152000D01*
X30805066Y-88152000D01*
X30841370Y-88157523D01*
X30870767Y-88158550D01*
X30951292Y-88152000D01*
X30965685Y-88152000D01*
X30980392Y-88151146D01*
X31023317Y-88146141D01*
X31132235Y-88137282D01*
X31161080Y-88131518D01*
X31168015Y-88129271D01*
X31175274Y-88128425D01*
X31203901Y-88121658D01*
X31306710Y-88084340D01*
X31410642Y-88050671D01*
X31441175Y-88035531D01*
X31450488Y-88032151D01*
X31476791Y-88018979D01*
X31696176Y-87875144D01*
X31718742Y-87856277D01*
X31798277Y-87772318D01*
X34718596Y-84852000D01*
X39959307Y-84852000D01*
X40187193Y-85011567D01*
X40209599Y-85024090D01*
X40489268Y-85145114D01*
X40520277Y-85154064D01*
X40926206Y-85216905D01*
X40945635Y-85218400D01*
X41909950Y-85218400D01*
X41922784Y-85217750D01*
X42149806Y-85194690D01*
X42174950Y-85189529D01*
X42465738Y-85098402D01*
X42489331Y-85088290D01*
X42755856Y-84940552D01*
X42776933Y-84925903D01*
X43008307Y-84727592D01*
X43026009Y-84709003D01*
X43212782Y-84468217D01*
X43226384Y-84446449D01*
X43360925Y-84173025D01*
X43369872Y-84148967D01*
X43446686Y-83854075D01*
X43450613Y-83828708D01*
X43459537Y-83658407D01*
X45992239Y-83658407D01*
X45993493Y-83684044D01*
X46039061Y-83985349D01*
X46045444Y-84010211D01*
X46150668Y-84296201D01*
X46161921Y-84319271D01*
X46322501Y-84578260D01*
X46338162Y-84598597D01*
X46547540Y-84820008D01*
X46566971Y-84836780D01*
X46816593Y-85011567D01*
X46838999Y-85024090D01*
X47118668Y-85145114D01*
X47149677Y-85154064D01*
X47555606Y-85216905D01*
X47575035Y-85218400D01*
X48564750Y-85218400D01*
X48577584Y-85217750D01*
X48804606Y-85194690D01*
X48829750Y-85189529D01*
X49120538Y-85098402D01*
X49144131Y-85088290D01*
X49410656Y-84940552D01*
X49431733Y-84925902D01*
X49527990Y-84843400D01*
X50679666Y-84843400D01*
X50715970Y-84848923D01*
X50745367Y-84849950D01*
X50825892Y-84843400D01*
X50840285Y-84843400D01*
X50854992Y-84842546D01*
X50897917Y-84837541D01*
X51006835Y-84828682D01*
X51035680Y-84822918D01*
X51042615Y-84820671D01*
X51049874Y-84819825D01*
X51078501Y-84813058D01*
X51181310Y-84775740D01*
X51285242Y-84742071D01*
X51315775Y-84726931D01*
X51325088Y-84723551D01*
X51351391Y-84710379D01*
X51570776Y-84566544D01*
X51593342Y-84547677D01*
X51672877Y-84463718D01*
X52507165Y-83629431D01*
X52536746Y-83607662D01*
X52558258Y-83587601D01*
X52610567Y-83526029D01*
X52620744Y-83515852D01*
X52630539Y-83504848D01*
X52657347Y-83470964D01*
X52728106Y-83387675D01*
X52744428Y-83363202D01*
X52747746Y-83356704D01*
X52752274Y-83350981D01*
X52767732Y-83325953D01*
X52814020Y-83226913D01*
X52863727Y-83129569D01*
X52874614Y-83097265D01*
X52878806Y-83088296D01*
X52888091Y-83060386D01*
X52941513Y-82803550D01*
X52944128Y-82774252D01*
X52941000Y-82658655D01*
X52941000Y-68642806D01*
X52989765Y-68594041D01*
X53019346Y-68572272D01*
X53040858Y-68552211D01*
X53093167Y-68490639D01*
X53103344Y-68480462D01*
X53113139Y-68469457D01*
X53139921Y-68435605D01*
X53210706Y-68352286D01*
X53227025Y-68327817D01*
X53230346Y-68321313D01*
X53234878Y-68315585D01*
X53250332Y-68290562D01*
X53296612Y-68191540D01*
X53346327Y-68094179D01*
X53357219Y-68061863D01*
X53361405Y-68052906D01*
X53370690Y-68024996D01*
X53424112Y-67768161D01*
X53426727Y-67738863D01*
X53423600Y-67623303D01*
X53423600Y-58301522D01*
X53667138Y-58225202D01*
X53690731Y-58215090D01*
X53957256Y-58067352D01*
X53978333Y-58052703D01*
X54209707Y-57854392D01*
X54227409Y-57835803D01*
X54414182Y-57595017D01*
X54427784Y-57573249D01*
X54562325Y-57299825D01*
X54571272Y-57275767D01*
X54648086Y-56980875D01*
X54652013Y-56955508D01*
X54667961Y-56651193D01*
X54666707Y-56625556D01*
X54621139Y-56324251D01*
X54614756Y-56299389D01*
X54509532Y-56013399D01*
X54498279Y-55990329D01*
X54337699Y-55731340D01*
X54322038Y-55711003D01*
X54112660Y-55489592D01*
X54093229Y-55472820D01*
X53843607Y-55298033D01*
X53821201Y-55285510D01*
X53541532Y-55164486D01*
X53510523Y-55155536D01*
X53104594Y-55092695D01*
X53085165Y-55091200D01*
X52427223Y-55091200D01*
X52390753Y-54990727D01*
X52357071Y-54886756D01*
X52341926Y-54856212D01*
X52338549Y-54846908D01*
X52325379Y-54820609D01*
X52181544Y-54601224D01*
X52162677Y-54578658D01*
X52078736Y-54499140D01*
X51139654Y-53560059D01*
X51115939Y-53403251D01*
X51109556Y-53378389D01*
X51004332Y-53092399D01*
X50993079Y-53069329D01*
X50832499Y-52810340D01*
X50816838Y-52790003D01*
X50607460Y-52568592D01*
X50588029Y-52551820D01*
X50338407Y-52377033D01*
X50316001Y-52364510D01*
X50036332Y-52243486D01*
X50005323Y-52234536D01*
X49599394Y-52171695D01*
X49579965Y-52170200D01*
X48564850Y-52170200D01*
X48552016Y-52170850D01*
X48324994Y-52193910D01*
X48299850Y-52199071D01*
X48009062Y-52290198D01*
X47985469Y-52300310D01*
X47718944Y-52448048D01*
X47697867Y-52462697D01*
X47466493Y-52661008D01*
X47448791Y-52679597D01*
X47262018Y-52920383D01*
X47248416Y-52942151D01*
X47113875Y-53215575D01*
X47104928Y-53239633D01*
X47028114Y-53534525D01*
X47024187Y-53559892D01*
X47008239Y-53864207D01*
X47009493Y-53889844D01*
X47010123Y-53894010D01*
X46907687Y-53981808D01*
X46889985Y-54000397D01*
X46703212Y-54241183D01*
X46689610Y-54262951D01*
X46555069Y-54536375D01*
X46546122Y-54560433D01*
X46469308Y-54855325D01*
X46465381Y-54880692D01*
X46449433Y-55185007D01*
X46450687Y-55210644D01*
X46496255Y-55511949D01*
X46502638Y-55536811D01*
X46607862Y-55822801D01*
X46619115Y-55845871D01*
X46779695Y-56104860D01*
X46795356Y-56125197D01*
X47004734Y-56346608D01*
X47024165Y-56363380D01*
X47174525Y-56468663D01*
X47171019Y-56473182D01*
X47157416Y-56494951D01*
X47022875Y-56768375D01*
X47013928Y-56792433D01*
X46937114Y-57087325D01*
X46933187Y-57112692D01*
X46917239Y-57417007D01*
X46918493Y-57442644D01*
X46964061Y-57743949D01*
X46970444Y-57768811D01*
X47075668Y-58054801D01*
X47086921Y-58077871D01*
X47247501Y-58336860D01*
X47263162Y-58357197D01*
X47472540Y-58578608D01*
X47491971Y-58595380D01*
X47741593Y-58770167D01*
X47763999Y-58782690D01*
X48043668Y-58903714D01*
X48074677Y-58912664D01*
X48480606Y-58975505D01*
X48492201Y-58976397D01*
X48492200Y-59886027D01*
X48324033Y-60126193D01*
X48311510Y-60148599D01*
X48190486Y-60428268D01*
X48181536Y-60459277D01*
X48118695Y-60865206D01*
X48117200Y-60884635D01*
X48117200Y-61975949D01*
X48117850Y-61988783D01*
X48140910Y-62215805D01*
X48146071Y-62240949D01*
X48237198Y-62531737D01*
X48247310Y-62555330D01*
X48395048Y-62821855D01*
X48409697Y-62842932D01*
X48608008Y-63074307D01*
X48626597Y-63092009D01*
X48867383Y-63278782D01*
X48889151Y-63292384D01*
X49162575Y-63426925D01*
X49186633Y-63435872D01*
X49481525Y-63512686D01*
X49504389Y-63516226D01*
X49504389Y-67765800D01*
X48717250Y-67765800D01*
X48704416Y-67766450D01*
X48477394Y-67789510D01*
X48452250Y-67794671D01*
X48161462Y-67885798D01*
X48137869Y-67895910D01*
X47871344Y-68043648D01*
X47850267Y-68058297D01*
X47618893Y-68256608D01*
X47601191Y-68275197D01*
X47414418Y-68515983D01*
X47400816Y-68537751D01*
X47266275Y-68811175D01*
X47257328Y-68835233D01*
X47180514Y-69130125D01*
X47176587Y-69155492D01*
X47160639Y-69459807D01*
X47161893Y-69485444D01*
X47207461Y-69786749D01*
X47213844Y-69811611D01*
X47319068Y-70097601D01*
X47330321Y-70120671D01*
X47490901Y-70379660D01*
X47506562Y-70399997D01*
X47715940Y-70621408D01*
X47735371Y-70638180D01*
X47984993Y-70812967D01*
X48007399Y-70825490D01*
X48287068Y-70946514D01*
X48318077Y-70955464D01*
X48724006Y-71018305D01*
X48743435Y-71019800D01*
X49809350Y-71019800D01*
X49822184Y-71019150D01*
X49954400Y-71005720D01*
X49954400Y-77332698D01*
X49903914Y-77341600D01*
X49250650Y-77341600D01*
X49237816Y-77342250D01*
X49010794Y-77365310D01*
X48985650Y-77370471D01*
X48694862Y-77461598D01*
X48671269Y-77471710D01*
X48404744Y-77619448D01*
X48383667Y-77634097D01*
X48152293Y-77832408D01*
X48134591Y-77850997D01*
X47947818Y-78091783D01*
X47934216Y-78113551D01*
X47799675Y-78386975D01*
X47790728Y-78411033D01*
X47713914Y-78705925D01*
X47709987Y-78731292D01*
X47694039Y-79035607D01*
X47695293Y-79061244D01*
X47740861Y-79362549D01*
X47747244Y-79387411D01*
X47852468Y-79673401D01*
X47863721Y-79696471D01*
X48024301Y-79955460D01*
X48039962Y-79975797D01*
X48249340Y-80197208D01*
X48268771Y-80213980D01*
X48518393Y-80388767D01*
X48540799Y-80401290D01*
X48820468Y-80522314D01*
X48851477Y-80531264D01*
X49257406Y-80594105D01*
X49276835Y-80595600D01*
X50141733Y-80595600D01*
X50271877Y-80599235D01*
X50297476Y-80597356D01*
X50388762Y-80581260D01*
X50437000Y-80576360D01*
X50437000Y-82158405D01*
X50256006Y-82339400D01*
X49537175Y-82339400D01*
X49297007Y-82171233D01*
X49274601Y-82158710D01*
X48994932Y-82037686D01*
X48963923Y-82028736D01*
X48557994Y-81965895D01*
X48538565Y-81964400D01*
X47548850Y-81964400D01*
X47536016Y-81965050D01*
X47308994Y-81988110D01*
X47283850Y-81993271D01*
X46993062Y-82084398D01*
X46969469Y-82094510D01*
X46702944Y-82242248D01*
X46681867Y-82256897D01*
X46450493Y-82455208D01*
X46432791Y-82473797D01*
X46246018Y-82714583D01*
X46232416Y-82736351D01*
X46097875Y-83009775D01*
X46088928Y-83033833D01*
X46012114Y-83328725D01*
X46008187Y-83354092D01*
X45992239Y-83658407D01*
X43459537Y-83658407D01*
X43466561Y-83524393D01*
X43465307Y-83498756D01*
X43419739Y-83197451D01*
X43413356Y-83172589D01*
X43308132Y-82886599D01*
X43296879Y-82863529D01*
X43136299Y-82604540D01*
X43120638Y-82584203D01*
X42911260Y-82362792D01*
X42891829Y-82346020D01*
X42642207Y-82171233D01*
X42619801Y-82158710D01*
X42340132Y-82037686D01*
X42309123Y-82028736D01*
X41903194Y-81965895D01*
X41883765Y-81964400D01*
X40919450Y-81964400D01*
X40906616Y-81965050D01*
X40679594Y-81988110D01*
X40654450Y-81993271D01*
X40363662Y-82084398D01*
X40340069Y-82094510D01*
X40073544Y-82242248D01*
X40052467Y-82256897D01*
X39946175Y-82348000D01*
X34294934Y-82348000D01*
X34258630Y-82342477D01*
X34229233Y-82341450D01*
X34148707Y-82348000D01*
X34134315Y-82348000D01*
X34119607Y-82348855D01*
X34076709Y-82353857D01*
X33967764Y-82362718D01*
X33938921Y-82368481D01*
X33931982Y-82370729D01*
X33924725Y-82371575D01*
X33896100Y-82378342D01*
X33793316Y-82415651D01*
X33689356Y-82449329D01*
X33658812Y-82464474D01*
X33649508Y-82467851D01*
X33623209Y-82481021D01*
X33403824Y-82624856D01*
X33381258Y-82643723D01*
X33301740Y-82727664D01*
X30381405Y-85648000D01*
X28577000Y-85648000D01*
X28577000Y-80195200D01*
X41928225Y-80195200D01*
X42168393Y-80363367D01*
X42190799Y-80375890D01*
X42470468Y-80496914D01*
X42501477Y-80505864D01*
X42907406Y-80568705D01*
X42926835Y-80570200D01*
X43916550Y-80570200D01*
X43929384Y-80569550D01*
X44156406Y-80546490D01*
X44181550Y-80541329D01*
X44472338Y-80450202D01*
X44495931Y-80440090D01*
X44762456Y-80292352D01*
X44783533Y-80277703D01*
X45014907Y-80079392D01*
X45032609Y-80060803D01*
X45219382Y-79820017D01*
X45232984Y-79798249D01*
X45367525Y-79524825D01*
X45376472Y-79500767D01*
X45453286Y-79205875D01*
X45457213Y-79180508D01*
X45473161Y-78876193D01*
X45471907Y-78850556D01*
X45426339Y-78549251D01*
X45419956Y-78524389D01*
X45314732Y-78238399D01*
X45303479Y-78215329D01*
X45142899Y-77956340D01*
X45127238Y-77936003D01*
X44917860Y-77714592D01*
X44898429Y-77697820D01*
X44648807Y-77523033D01*
X44626401Y-77510510D01*
X44346732Y-77389486D01*
X44315723Y-77380536D01*
X43909794Y-77317695D01*
X43890365Y-77316200D01*
X42900650Y-77316200D01*
X42887816Y-77316850D01*
X42660794Y-77339910D01*
X42635650Y-77345071D01*
X42344862Y-77436198D01*
X42321269Y-77446310D01*
X42054744Y-77594048D01*
X42033667Y-77608698D01*
X41937410Y-77691200D01*
X28577000Y-77691200D01*
X28577000Y-72552000D01*
X30916266Y-72552000D01*
X30952570Y-72557523D01*
X30981967Y-72558550D01*
X31062492Y-72552000D01*
X31076885Y-72552000D01*
X31091592Y-72551146D01*
X31134517Y-72546141D01*
X31243435Y-72537282D01*
X31272280Y-72531518D01*
X31279215Y-72529271D01*
X31286474Y-72528425D01*
X31315101Y-72521658D01*
X31417910Y-72484340D01*
X31521842Y-72450671D01*
X31552375Y-72435531D01*
X31561688Y-72432151D01*
X31587991Y-72418979D01*
X31807376Y-72275144D01*
X31829942Y-72256277D01*
X31909477Y-72172318D01*
X33411596Y-70670200D01*
X41924576Y-70670200D01*
X42092193Y-70787567D01*
X42114599Y-70800090D01*
X42394268Y-70921114D01*
X42425277Y-70930064D01*
X42831206Y-70992905D01*
X42850635Y-70994400D01*
X43916550Y-70994400D01*
X43929384Y-70993750D01*
X44156406Y-70970690D01*
X44181550Y-70965529D01*
X44472338Y-70874402D01*
X44495931Y-70864290D01*
X44762456Y-70716552D01*
X44783533Y-70701903D01*
X45014907Y-70503592D01*
X45032609Y-70485003D01*
X45219382Y-70244217D01*
X45232984Y-70222449D01*
X45367525Y-69949025D01*
X45376472Y-69924967D01*
X45453286Y-69630075D01*
X45457213Y-69604708D01*
X45473161Y-69300393D01*
X45471907Y-69274756D01*
X45426339Y-68973451D01*
X45419956Y-68948589D01*
X45314732Y-68662599D01*
X45303479Y-68639529D01*
X45142899Y-68380540D01*
X45127238Y-68360203D01*
X44917860Y-68138792D01*
X44898429Y-68122020D01*
X44648807Y-67947233D01*
X44626401Y-67934710D01*
X44346732Y-67813686D01*
X44315723Y-67804736D01*
X43909794Y-67741895D01*
X43890365Y-67740400D01*
X42824450Y-67740400D01*
X42811616Y-67741050D01*
X42584594Y-67764110D01*
X42559450Y-67769271D01*
X42268662Y-67860398D01*
X42245069Y-67870510D01*
X41978544Y-68018248D01*
X41957467Y-68032897D01*
X41801939Y-68166200D01*
X32987934Y-68166200D01*
X32951630Y-68160677D01*
X32922233Y-68159650D01*
X32841707Y-68166200D01*
X32827315Y-68166200D01*
X32812607Y-68167055D01*
X32769709Y-68172057D01*
X32660764Y-68180918D01*
X32631921Y-68186681D01*
X32624982Y-68188929D01*
X32617725Y-68189775D01*
X32589100Y-68196542D01*
X32486316Y-68233851D01*
X32382356Y-68267529D01*
X32351812Y-68282674D01*
X32342508Y-68286051D01*
X32316209Y-68299221D01*
X32096824Y-68443056D01*
X32074258Y-68461923D01*
X31994758Y-68545845D01*
X30492605Y-70048000D01*
X28577000Y-70048000D01*
X28577000Y-64976990D01*
X30312476Y-64976990D01*
X30348780Y-64982513D01*
X30378177Y-64983540D01*
X30458702Y-64976990D01*
X30473095Y-64976990D01*
X30487802Y-64976136D01*
X30530727Y-64971131D01*
X30639645Y-64962272D01*
X30668490Y-64956508D01*
X30675425Y-64954261D01*
X30682684Y-64953415D01*
X30711311Y-64946648D01*
X30814120Y-64909330D01*
X30918052Y-64875661D01*
X30948585Y-64860521D01*
X30957898Y-64857141D01*
X30984201Y-64843969D01*
X31203586Y-64700134D01*
X31226152Y-64681267D01*
X31305686Y-64597309D01*
X32351197Y-63551799D01*
X43599467Y-63551799D01*
X43635771Y-63557322D01*
X43665168Y-63558349D01*
X43745693Y-63551799D01*
X43760086Y-63551799D01*
X43774793Y-63550945D01*
X43817718Y-63545940D01*
X43926636Y-63537081D01*
X43955481Y-63531317D01*
X43962416Y-63529070D01*
X43969675Y-63528224D01*
X43989450Y-63523550D01*
X44161406Y-63532561D01*
X44187043Y-63531307D01*
X44488348Y-63485739D01*
X44513210Y-63479356D01*
X44799200Y-63374132D01*
X44822270Y-63362879D01*
X45081259Y-63202299D01*
X45101596Y-63186638D01*
X45323008Y-62977260D01*
X45339780Y-62957829D01*
X45514567Y-62708207D01*
X45527090Y-62685801D01*
X45648114Y-62406132D01*
X45657064Y-62375123D01*
X45719905Y-61969194D01*
X45721400Y-61949765D01*
X45721400Y-60934651D01*
X45720750Y-60921817D01*
X45697690Y-60694794D01*
X45692529Y-60669650D01*
X45601402Y-60378862D01*
X45591290Y-60355269D01*
X45443552Y-60088744D01*
X45428903Y-60067667D01*
X45230592Y-59836293D01*
X45212003Y-59818591D01*
X44971217Y-59631818D01*
X44949449Y-59618216D01*
X44676025Y-59483675D01*
X44651967Y-59474728D01*
X44357075Y-59397914D01*
X44331708Y-59393987D01*
X44027394Y-59378039D01*
X44001757Y-59379293D01*
X43700452Y-59424861D01*
X43675590Y-59431244D01*
X43389600Y-59536468D01*
X43366530Y-59547721D01*
X43107541Y-59708301D01*
X43087204Y-59723962D01*
X42865792Y-59933340D01*
X42849020Y-59952771D01*
X42674233Y-60202393D01*
X42661710Y-60224799D01*
X42540686Y-60504468D01*
X42531736Y-60535477D01*
X42468895Y-60941406D01*
X42467400Y-60960835D01*
X42467400Y-61047799D01*
X31927535Y-61047799D01*
X31891232Y-61042276D01*
X31861834Y-61041249D01*
X31781308Y-61047799D01*
X31766916Y-61047799D01*
X31752208Y-61048654D01*
X31709310Y-61053656D01*
X31600365Y-61062517D01*
X31571522Y-61068280D01*
X31564583Y-61070528D01*
X31557326Y-61071374D01*
X31528701Y-61078141D01*
X31425922Y-61115448D01*
X31321956Y-61149128D01*
X31291420Y-61164270D01*
X31282111Y-61167649D01*
X31255810Y-61180820D01*
X31036425Y-61324655D01*
X31013859Y-61343522D01*
X30934341Y-61427463D01*
X29888815Y-62472990D01*
X28576881Y-62472990D01*
X28576064Y-57152000D01*
X31736666Y-57152000D01*
X31772970Y-57157523D01*
X31802367Y-57158550D01*
X31882892Y-57152000D01*
X31897285Y-57152000D01*
X31911992Y-57151146D01*
X31954917Y-57146141D01*
X32063835Y-57137282D01*
X32092680Y-57131518D01*
X32099615Y-57129271D01*
X32106874Y-57128425D01*
X32135501Y-57121658D01*
X32238310Y-57084340D01*
X32342242Y-57050671D01*
X32372775Y-57035531D01*
X32382088Y-57032151D01*
X32408391Y-57018979D01*
X32627776Y-56875144D01*
X32650342Y-56856277D01*
X32729877Y-56772318D01*
X35195998Y-54306199D01*
X44310667Y-54306199D01*
X44346971Y-54311722D01*
X44376368Y-54312749D01*
X44456893Y-54306199D01*
X44471286Y-54306199D01*
X44485993Y-54305345D01*
X44528918Y-54300340D01*
X44637836Y-54291481D01*
X44666681Y-54285717D01*
X44673616Y-54283470D01*
X44680875Y-54282624D01*
X44700650Y-54277950D01*
X44872606Y-54286961D01*
X44898243Y-54285707D01*
X45199548Y-54240139D01*
X45224410Y-54233756D01*
X45510400Y-54128532D01*
X45533470Y-54117279D01*
X45792459Y-53956699D01*
X45812796Y-53941038D01*
X46034208Y-53731660D01*
X46050980Y-53712229D01*
X46225767Y-53462607D01*
X46238290Y-53440201D01*
X46359314Y-53160532D01*
X46368264Y-53129523D01*
X46431105Y-52723594D01*
X46432600Y-52704165D01*
X46432600Y-51587450D01*
X46431950Y-51574616D01*
X46408890Y-51347594D01*
X46403729Y-51322450D01*
X46312602Y-51031662D01*
X46302490Y-51008069D01*
X46154752Y-50741544D01*
X46140103Y-50720467D01*
X45941792Y-50489093D01*
X45923203Y-50471391D01*
X45682417Y-50284618D01*
X45660649Y-50271016D01*
X45387225Y-50136475D01*
X45363167Y-50127528D01*
X45068275Y-50050714D01*
X45042908Y-50046787D01*
X44738594Y-50030839D01*
X44712957Y-50032093D01*
X44411652Y-50077661D01*
X44386790Y-50084044D01*
X44100800Y-50189268D01*
X44077730Y-50200521D01*
X43818741Y-50361101D01*
X43798404Y-50376762D01*
X43576993Y-50586140D01*
X43560221Y-50605571D01*
X43385433Y-50855193D01*
X43372910Y-50877599D01*
X43251886Y-51157268D01*
X43242936Y-51188277D01*
X43180095Y-51594206D01*
X43178600Y-51613635D01*
X43178600Y-51802199D01*
X34772335Y-51802199D01*
X34736032Y-51796676D01*
X34706634Y-51795649D01*
X34626108Y-51802199D01*
X34611716Y-51802199D01*
X34597008Y-51803054D01*
X34554110Y-51808056D01*
X34445165Y-51816917D01*
X34416322Y-51822680D01*
X34409383Y-51824928D01*
X34402126Y-51825774D01*
X34373501Y-51832541D01*
X34270722Y-51869848D01*
X34166756Y-51903528D01*
X34136220Y-51918670D01*
X34126911Y-51922049D01*
X34100610Y-51935220D01*
X33881225Y-52079055D01*
X33858659Y-52097922D01*
X33779159Y-52181844D01*
X31313005Y-54648000D01*
X28577000Y-54648000D01*
X28577000Y-48500000D01*
X28576633Y-48490356D01*
X28565101Y-48338928D01*
X28561414Y-48316739D01*
X28510698Y-48120862D01*
X28510014Y-48119014D01*
X28550706Y-47989318D01*
X28555878Y-47964147D01*
X28576348Y-47762848D01*
X28577000Y-47750000D01*
X28577000Y-41085400D01*
X45259655Y-41085400D01*
X45259655Y-42785400D01*
X45261735Y-42808292D01*
X45327196Y-43165501D01*
X45339663Y-43201629D01*
X45452518Y-43416657D01*
X45469910Y-43441854D01*
X45630946Y-43623626D01*
X45653863Y-43643928D01*
X45853719Y-43781879D01*
X45880829Y-43796107D01*
X46107893Y-43882220D01*
X46137619Y-43889547D01*
X46378692Y-43918819D01*
X46394000Y-43919745D01*
X48094000Y-43919745D01*
X48116892Y-43917665D01*
X48474101Y-43852204D01*
X48510229Y-43839737D01*
X48725257Y-43726882D01*
X48750454Y-43709490D01*
X48932226Y-43548454D01*
X48952528Y-43525537D01*
X49090479Y-43325681D01*
X49104707Y-43298571D01*
X49190820Y-43071507D01*
X49198147Y-43041781D01*
X49227419Y-42800708D01*
X49228345Y-42785400D01*
X49228345Y-41085400D01*
X49226265Y-41062508D01*
X49160804Y-40705299D01*
X49148337Y-40669171D01*
X49035482Y-40454143D01*
X49018090Y-40428947D01*
X48965488Y-40369571D01*
X49056198Y-40197160D01*
X49063557Y-40180316D01*
X49152956Y-39927160D01*
X49157807Y-39909430D01*
X49209724Y-39646020D01*
X49211964Y-39627776D01*
X49225314Y-39359631D01*
X49224897Y-39341254D01*
X49199397Y-39073991D01*
X49196331Y-39055867D01*
X49132518Y-38795083D01*
X49126869Y-38777591D01*
X49026079Y-38528752D01*
X49017963Y-38512259D01*
X48882306Y-38280575D01*
X48871895Y-38265427D01*
X48704215Y-38055753D01*
X48691726Y-38042266D01*
X48495534Y-37858993D01*
X48481228Y-37847450D01*
X48260634Y-37694419D01*
X48244813Y-37685062D01*
X48004439Y-37565478D01*
X47987432Y-37558503D01*
X47732314Y-37474871D01*
X47708230Y-37469499D01*
X47299775Y-37419347D01*
X47284298Y-37418400D01*
X47175806Y-37418400D01*
X47166615Y-37418733D01*
X46967036Y-37433214D01*
X46948848Y-37435867D01*
X46686684Y-37493747D01*
X46669068Y-37498999D01*
X46418005Y-37594119D01*
X46401332Y-37601858D01*
X46166631Y-37732223D01*
X46151251Y-37742288D01*
X45937826Y-37905168D01*
X45924058Y-37917348D01*
X45736382Y-38109332D01*
X45724518Y-38123372D01*
X45566522Y-38340436D01*
X45556809Y-38356041D01*
X45431802Y-38593640D01*
X45424443Y-38610484D01*
X45335044Y-38863640D01*
X45330193Y-38881370D01*
X45278276Y-39144780D01*
X45276036Y-39163024D01*
X45262686Y-39431169D01*
X45263103Y-39449546D01*
X45288603Y-39716809D01*
X45291669Y-39734933D01*
X45355482Y-39995717D01*
X45361131Y-40013209D01*
X45461921Y-40262048D01*
X45470037Y-40278541D01*
X45521206Y-40365931D01*
X45397521Y-40545119D01*
X45383293Y-40572229D01*
X45297180Y-40799293D01*
X45289853Y-40829019D01*
X45260581Y-41070092D01*
X45259655Y-41085400D01*
X28577000Y-41085400D01*
X28577000Y-40750000D01*
X28576633Y-40740356D01*
X28565101Y-40588928D01*
X28561414Y-40566739D01*
X28510698Y-40370862D01*
X28510014Y-40369014D01*
X28550706Y-40239318D01*
X28555878Y-40214147D01*
X28576348Y-40012848D01*
X28577000Y-40000000D01*
X28577000Y-33000000D01*
X28576633Y-32990356D01*
X28565101Y-32838928D01*
X28561414Y-32816739D01*
X28510698Y-32620862D01*
X28506478Y-32609468D01*
X28512800Y-32589319D01*
X28517973Y-32564147D01*
X28538443Y-32362848D01*
X28539095Y-32350000D01*
X28539095Y-25350000D01*
X28538728Y-25340356D01*
X28527196Y-25188928D01*
X28523509Y-25166740D01*
X28510637Y-25117026D01*
X28550706Y-24989318D01*
X28555878Y-24964147D01*
X28576348Y-24762848D01*
X28577000Y-24750000D01*
X28577000Y-17650000D01*
X28576633Y-17640356D01*
X28565101Y-17488928D01*
X28561414Y-17466739D01*
X28517219Y-17296049D01*
X28550706Y-17189318D01*
X28555878Y-17164147D01*
X28576348Y-16962848D01*
X28577000Y-16950000D01*
X28577000Y-16488800D01*
X44601655Y-16488800D01*
X44601655Y-19088800D01*
X44603735Y-19111692D01*
X44669196Y-19468901D01*
X44681663Y-19505029D01*
X44794518Y-19720057D01*
X44811910Y-19745254D01*
X44972946Y-19927026D01*
X44995863Y-19947328D01*
X45195719Y-20085279D01*
X45222829Y-20099507D01*
X45449893Y-20185620D01*
X45479619Y-20192947D01*
X45720692Y-20222219D01*
X45736000Y-20223145D01*
X47736000Y-20223145D01*
X47758892Y-20221065D01*
X48116101Y-20155604D01*
X48152229Y-20143137D01*
X48367257Y-20030282D01*
X48378691Y-20022390D01*
X48640595Y-20123713D01*
X48657741Y-20128988D01*
X48933656Y-20192942D01*
X48951375Y-20195748D01*
X49233548Y-20220187D01*
X49251485Y-20220469D01*
X49534286Y-20204905D01*
X49552083Y-20202657D01*
X49829870Y-20147402D01*
X49847174Y-20142668D01*
X50114404Y-20048823D01*
X50130867Y-20041699D01*
X50382209Y-19911138D01*
X50397506Y-19901764D01*
X50627944Y-19737090D01*
X50641766Y-19725655D01*
X50846702Y-19530156D01*
X50858775Y-19516888D01*
X51034121Y-19294463D01*
X51044205Y-19279626D01*
X51150384Y-19096825D01*
X51151735Y-19111692D01*
X51217196Y-19468901D01*
X51229663Y-19505029D01*
X51342518Y-19720057D01*
X51359910Y-19745254D01*
X51520946Y-19927026D01*
X51543863Y-19947328D01*
X51743719Y-20085279D01*
X51770829Y-20099507D01*
X51997893Y-20185620D01*
X52027619Y-20192947D01*
X52268692Y-20222219D01*
X52284000Y-20223145D01*
X54284000Y-20223145D01*
X54306892Y-20221065D01*
X54664101Y-20155604D01*
X54700229Y-20143137D01*
X54915257Y-20030282D01*
X54926691Y-20022390D01*
X55188595Y-20123713D01*
X55205741Y-20128988D01*
X55481656Y-20192942D01*
X55499375Y-20195748D01*
X55781548Y-20220187D01*
X55799485Y-20220469D01*
X56082286Y-20204905D01*
X56100083Y-20202657D01*
X56377870Y-20147402D01*
X56395174Y-20142668D01*
X56662404Y-20048823D01*
X56678867Y-20041699D01*
X56930209Y-19911138D01*
X56945506Y-19901764D01*
X57175944Y-19737090D01*
X57189766Y-19725655D01*
X57394702Y-19530156D01*
X57406775Y-19516888D01*
X57582121Y-19294463D01*
X57592205Y-19279626D01*
X57734461Y-19034714D01*
X57742353Y-19018604D01*
X57848682Y-18756089D01*
X57854225Y-18739028D01*
X57922505Y-18464152D01*
X57925777Y-18444493D01*
X57950526Y-18158735D01*
X57951000Y-18147777D01*
X57951000Y-17416658D01*
X57950683Y-17407688D01*
X57935787Y-17197308D01*
X57933259Y-17179548D01*
X57873648Y-16902663D01*
X57868643Y-16885436D01*
X57770612Y-16619712D01*
X57763230Y-16603362D01*
X57628737Y-16354102D01*
X57619124Y-16338955D01*
X57450851Y-16111133D01*
X57439201Y-16097493D01*
X57240507Y-15895652D01*
X57227050Y-15883788D01*
X57001898Y-15711958D01*
X56986905Y-15702109D01*
X56739787Y-15563717D01*
X56723555Y-15556079D01*
X56459405Y-15453887D01*
X56442259Y-15448612D01*
X56166344Y-15384658D01*
X56148625Y-15381852D01*
X55866452Y-15357413D01*
X55848515Y-15357131D01*
X55565714Y-15372695D01*
X55547917Y-15374943D01*
X55270130Y-15430198D01*
X55252826Y-15434932D01*
X54985596Y-15528777D01*
X54969132Y-15535901D01*
X54922506Y-15560121D01*
X54824281Y-15492321D01*
X54797171Y-15478093D01*
X54570107Y-15391980D01*
X54540381Y-15384653D01*
X54299308Y-15355381D01*
X54284000Y-15354455D01*
X52284000Y-15354455D01*
X52261108Y-15356535D01*
X51903899Y-15421996D01*
X51867771Y-15434463D01*
X51652743Y-15547318D01*
X51627546Y-15564710D01*
X51445774Y-15725746D01*
X51425472Y-15748663D01*
X51287521Y-15948519D01*
X51273293Y-15975629D01*
X51187180Y-16202693D01*
X51179853Y-16232419D01*
X51150581Y-16473492D01*
X51150034Y-16482532D01*
X51080737Y-16354102D01*
X51071124Y-16338955D01*
X50902851Y-16111133D01*
X50891201Y-16097493D01*
X50692507Y-15895652D01*
X50679050Y-15883788D01*
X50453898Y-15711958D01*
X50438905Y-15702109D01*
X50191787Y-15563717D01*
X50175555Y-15556079D01*
X49911405Y-15453887D01*
X49894259Y-15448612D01*
X49618344Y-15384658D01*
X49600625Y-15381852D01*
X49318452Y-15357413D01*
X49300515Y-15357131D01*
X49017714Y-15372695D01*
X48999917Y-15374943D01*
X48722130Y-15430198D01*
X48704826Y-15434932D01*
X48437596Y-15528777D01*
X48421132Y-15535901D01*
X48374506Y-15560121D01*
X48276281Y-15492321D01*
X48249171Y-15478093D01*
X48022107Y-15391980D01*
X47992381Y-15384653D01*
X47751308Y-15355381D01*
X47736000Y-15354455D01*
X45736000Y-15354455D01*
X45713108Y-15356535D01*
X45355899Y-15421996D01*
X45319771Y-15434463D01*
X45104743Y-15547318D01*
X45079546Y-15564710D01*
X44897774Y-15725746D01*
X44877472Y-15748663D01*
X44739521Y-15948519D01*
X44725293Y-15975629D01*
X44639180Y-16202693D01*
X44631853Y-16232419D01*
X44602581Y-16473492D01*
X44601655Y-16488800D01*
X28577000Y-16488800D01*
X28577000Y-9850000D01*
X28576633Y-9840356D01*
X28565101Y-9688928D01*
X28561414Y-9666739D01*
X28510698Y-9470862D01*
X28501773Y-9446764D01*
X28500592Y-9444357D01*
X28550706Y-9284632D01*
X28555878Y-9259461D01*
X28576348Y-9058162D01*
X28577000Y-9045314D01*
X28577000Y-2045314D01*
X28576633Y-2035670D01*
X28565101Y-1884242D01*
X28561414Y-1862053D01*
X28510698Y-1666176D01*
X28501773Y-1642079D01*
X28412665Y-1460420D01*
X28399073Y-1438613D01*
X28275222Y-1278610D01*
X28257517Y-1259984D01*
X28103992Y-1128188D01*
X28102285Y-1127000D01*
X54906289Y-1127000D01*
X54942996Y-1130567D01*
X54949629Y-1131036D01*
X55343726Y-1148587D01*
X55684746Y-1194392D01*
X56020310Y-1270323D01*
X56347836Y-1375794D01*
X56664675Y-1509959D01*
X56968311Y-1671744D01*
X57256398Y-1859904D01*
X57526594Y-2072911D01*
X57776790Y-2309097D01*
X58005009Y-2566597D01*
X58209420Y-2843347D01*
X58388434Y-3137196D01*
X58540612Y-3445780D01*
X58664752Y-3766661D01*
X58759884Y-4097338D01*
X58825240Y-4435144D01*
X58861217Y-4786283D01*
X58868313Y-5032599D01*
X58869332Y-5045409D01*
X58873000Y-5073460D01*
X58873001Y-94906277D01*
X58869433Y-94942995D01*
X58868964Y-94949628D01*
X58851413Y-95343726D01*
X58805608Y-95684746D01*
X58729677Y-96020312D01*
X58624206Y-96347836D01*
X58490041Y-96664675D01*
X58328256Y-96968311D01*
X58140095Y-97256399D01*
X57927092Y-97526590D01*
X57690904Y-97776790D01*
X57433403Y-98005009D01*
X57156652Y-98209421D01*
X56862804Y-98388434D01*
X56554218Y-98540613D01*
X56233322Y-98664758D01*
X55902660Y-98759885D01*
X55564864Y-98825240D01*
X55213717Y-98861217D01*
X54967400Y-98868313D01*
X54954590Y-98869332D01*
X54926539Y-98873000D01*
X5093712Y-98873000D01*
X5057005Y-98869433D01*
X5050372Y-98868964D01*
X4656274Y-98851413D01*
X4315254Y-98805608D01*
X3979688Y-98729677D01*
X3652164Y-98624206D01*
X3335325Y-98490041D01*
X3031689Y-98328256D01*
X2743601Y-98140095D01*
X2473410Y-97927092D01*
X2223210Y-97690904D01*
X1994991Y-97433403D01*
X1790579Y-97156652D01*
X1611566Y-96862804D01*
X1459387Y-96554218D01*
X1335242Y-96233322D01*
X1240115Y-95902660D01*
X1174760Y-95564864D01*
X1138783Y-95213717D01*
X1131687Y-94967400D01*
X1130668Y-94954590D01*
X1127000Y-94926539D01*
X1127000Y-94806091D01*
X1173001Y-94806091D01*
X1173001Y-95193909D01*
X1173697Y-95207184D01*
X1214235Y-95592877D01*
X1216314Y-95606007D01*
X1296945Y-95985349D01*
X1300386Y-95998189D01*
X1420229Y-96367026D01*
X1424993Y-96379436D01*
X1582732Y-96733725D01*
X1588767Y-96745570D01*
X1782676Y-97081430D01*
X1789916Y-97092579D01*
X2017869Y-97406330D01*
X2026235Y-97416661D01*
X2285736Y-97704865D01*
X2295135Y-97714264D01*
X2583339Y-97973765D01*
X2593670Y-97982131D01*
X2907421Y-98210084D01*
X2918570Y-98217324D01*
X3254430Y-98411233D01*
X3266275Y-98417268D01*
X3620564Y-98575007D01*
X3632974Y-98579771D01*
X4001811Y-98699614D01*
X4014651Y-98703055D01*
X4393993Y-98783686D01*
X4407123Y-98785765D01*
X4792816Y-98826303D01*
X4806091Y-98826999D01*
X5193909Y-98826999D01*
X5207184Y-98826303D01*
X5592877Y-98785765D01*
X5606007Y-98783686D01*
X5985349Y-98703055D01*
X5998189Y-98699614D01*
X6367026Y-98579771D01*
X6379436Y-98575007D01*
X6733725Y-98417268D01*
X6745570Y-98411233D01*
X7081430Y-98217324D01*
X7092579Y-98210084D01*
X7406330Y-97982131D01*
X7416661Y-97973765D01*
X7704865Y-97714264D01*
X7714264Y-97704865D01*
X7973765Y-97416661D01*
X7982131Y-97406330D01*
X8210084Y-97092579D01*
X8217324Y-97081430D01*
X8411233Y-96745570D01*
X8417268Y-96733725D01*
X8575007Y-96379436D01*
X8579771Y-96367026D01*
X8699614Y-95998189D01*
X8703055Y-95985349D01*
X8783686Y-95606007D01*
X8785765Y-95592877D01*
X8826303Y-95207184D01*
X8826999Y-95193909D01*
X8826999Y-94806091D01*
X8826303Y-94792816D01*
X8785765Y-94407123D01*
X8783686Y-94393993D01*
X8703055Y-94014651D01*
X8699614Y-94001811D01*
X8579771Y-93632974D01*
X8575007Y-93620564D01*
X8417268Y-93266275D01*
X8411233Y-93254430D01*
X8217324Y-92918570D01*
X8210084Y-92907421D01*
X7982131Y-92593670D01*
X7973765Y-92583339D01*
X7714264Y-92295135D01*
X7704865Y-92285736D01*
X7416661Y-92026235D01*
X7406330Y-92017869D01*
X7092579Y-91789916D01*
X7081430Y-91782676D01*
X6745570Y-91588767D01*
X6733725Y-91582732D01*
X6379436Y-91424993D01*
X6367026Y-91420229D01*
X5998189Y-91300386D01*
X5985349Y-91296945D01*
X5606007Y-91216314D01*
X5592877Y-91214235D01*
X5207184Y-91173697D01*
X5193909Y-91173001D01*
X4806091Y-91173001D01*
X4792816Y-91173697D01*
X4407123Y-91214235D01*
X4393993Y-91216314D01*
X4014651Y-91296945D01*
X4001811Y-91300386D01*
X3632974Y-91420229D01*
X3620564Y-91424993D01*
X3266275Y-91582732D01*
X3254430Y-91588767D01*
X2918570Y-91782676D01*
X2907421Y-91789916D01*
X2593670Y-92017869D01*
X2583339Y-92026235D01*
X2295135Y-92285736D01*
X2285736Y-92295135D01*
X2026235Y-92583339D01*
X2017869Y-92593670D01*
X1789916Y-92907421D01*
X1782676Y-92918570D01*
X1588767Y-93254430D01*
X1582732Y-93266275D01*
X1424993Y-93620564D01*
X1420229Y-93632974D01*
X1300386Y-94001811D01*
X1296945Y-94014651D01*
X1216314Y-94393993D01*
X1214235Y-94407123D01*
X1173697Y-94792816D01*
X1173001Y-94806091D01*
X1127000Y-94806091D01*
X1127000Y-83649312D01*
X5037861Y-83649312D01*
X5048825Y-83720027D01*
X5096280Y-83773589D01*
X5163760Y-83793000D01*
X6246000Y-83793000D01*
X6314661Y-83772839D01*
X6361523Y-83718758D01*
X6373000Y-83666000D01*
X6373000Y-82590756D01*
X6627000Y-82590756D01*
X6627000Y-83666000D01*
X6647161Y-83734661D01*
X6701242Y-83781523D01*
X6754000Y-83793000D01*
X7834306Y-83793000D01*
X7902967Y-83772839D01*
X7949829Y-83718758D01*
X7958599Y-83639921D01*
X7929718Y-83502275D01*
X7923547Y-83481705D01*
X7838896Y-83267354D01*
X7829348Y-83248119D01*
X7709791Y-83051095D01*
X7697138Y-83033743D01*
X7546094Y-82859680D01*
X7530698Y-82844708D01*
X7352485Y-82698583D01*
X7334787Y-82686420D01*
X7134502Y-82572411D01*
X7115007Y-82563403D01*
X6898376Y-82484770D01*
X6871731Y-82478250D01*
X6770687Y-82464857D01*
X6699972Y-82475821D01*
X6646411Y-82523276D01*
X6627000Y-82590756D01*
X6373000Y-82590756D01*
X6373000Y-82582900D01*
X6352839Y-82514239D01*
X6298758Y-82467377D01*
X6214095Y-82459973D01*
X6015390Y-82511546D01*
X5995134Y-82518679D01*
X5785008Y-82613334D01*
X5766243Y-82623778D01*
X5575070Y-82752483D01*
X5558334Y-82765940D01*
X5391580Y-82925016D01*
X5377350Y-82941099D01*
X5239782Y-83125997D01*
X5228466Y-83144249D01*
X5124018Y-83349683D01*
X5115938Y-83369580D01*
X5047597Y-83589674D01*
X5042986Y-83610647D01*
X5037861Y-83649312D01*
X1127000Y-83649312D01*
X1127000Y-70109312D01*
X5037861Y-70109312D01*
X5048825Y-70180027D01*
X5096280Y-70233589D01*
X5163760Y-70253000D01*
X6246000Y-70253000D01*
X6314661Y-70232839D01*
X6361523Y-70178758D01*
X6373000Y-70126000D01*
X6373000Y-69042900D01*
X6352839Y-68974239D01*
X6298758Y-68927377D01*
X6214095Y-68919973D01*
X6015390Y-68971546D01*
X5995134Y-68978679D01*
X5785008Y-69073334D01*
X5766243Y-69083778D01*
X5575070Y-69212483D01*
X5558334Y-69225940D01*
X5391580Y-69385016D01*
X5377350Y-69401099D01*
X5239782Y-69585997D01*
X5228466Y-69604249D01*
X5124018Y-69809683D01*
X5115938Y-69829580D01*
X5047597Y-70049674D01*
X5042986Y-70070647D01*
X5037861Y-70109312D01*
X1127000Y-70109312D01*
X1127000Y-58649312D01*
X5037861Y-58649312D01*
X5048825Y-58720027D01*
X5096280Y-58773589D01*
X5163760Y-58793000D01*
X6246000Y-58793000D01*
X6314661Y-58772839D01*
X6361523Y-58718758D01*
X6373000Y-58666000D01*
X6373000Y-57590756D01*
X6627000Y-57590756D01*
X6627000Y-58666000D01*
X6647161Y-58734661D01*
X6701242Y-58781523D01*
X6754000Y-58793000D01*
X7834306Y-58793000D01*
X7902967Y-58772839D01*
X7949829Y-58718758D01*
X7958599Y-58639921D01*
X7929718Y-58502275D01*
X7923547Y-58481705D01*
X7838896Y-58267354D01*
X7829348Y-58248119D01*
X7709791Y-58051095D01*
X7697138Y-58033743D01*
X7546094Y-57859680D01*
X7530698Y-57844708D01*
X7352485Y-57698583D01*
X7334787Y-57686420D01*
X7134502Y-57572411D01*
X7115007Y-57563403D01*
X6898376Y-57484770D01*
X6871731Y-57478250D01*
X6770687Y-57464857D01*
X6699972Y-57475821D01*
X6646411Y-57523276D01*
X6627000Y-57590756D01*
X6373000Y-57590756D01*
X6373000Y-57582900D01*
X6352839Y-57514239D01*
X6298758Y-57467377D01*
X6214095Y-57459973D01*
X6015390Y-57511546D01*
X5995134Y-57518679D01*
X5785008Y-57613334D01*
X5766243Y-57623778D01*
X5575070Y-57752483D01*
X5558334Y-57765940D01*
X5391580Y-57925016D01*
X5377350Y-57941099D01*
X5239782Y-58125997D01*
X5228466Y-58144249D01*
X5124018Y-58349683D01*
X5115938Y-58369580D01*
X5047597Y-58589674D01*
X5042986Y-58610647D01*
X5037861Y-58649312D01*
X1127000Y-58649312D01*
X1127000Y-5093711D01*
X1130567Y-5057004D01*
X1131036Y-5050371D01*
X1141914Y-4806091D01*
X1173001Y-4806091D01*
X1173001Y-5193909D01*
X1173697Y-5207184D01*
X1214235Y-5592877D01*
X1216314Y-5606007D01*
X1296945Y-5985349D01*
X1300386Y-5998189D01*
X1420229Y-6367026D01*
X1424993Y-6379436D01*
X1582732Y-6733725D01*
X1588767Y-6745570D01*
X1782676Y-7081430D01*
X1789916Y-7092579D01*
X2017869Y-7406330D01*
X2026235Y-7416661D01*
X2285736Y-7704865D01*
X2295135Y-7714264D01*
X2583339Y-7973765D01*
X2593670Y-7982131D01*
X2907421Y-8210084D01*
X2918570Y-8217324D01*
X3254430Y-8411233D01*
X3266275Y-8417268D01*
X3620564Y-8575007D01*
X3632974Y-8579771D01*
X4001811Y-8699614D01*
X4014651Y-8703055D01*
X4393993Y-8783686D01*
X4407123Y-8785765D01*
X4792816Y-8826303D01*
X4806091Y-8826999D01*
X5193909Y-8826999D01*
X5207184Y-8826303D01*
X5592877Y-8785765D01*
X5606007Y-8783686D01*
X5985349Y-8703055D01*
X5998189Y-8699614D01*
X6367026Y-8579771D01*
X6379436Y-8575007D01*
X6733725Y-8417268D01*
X6745570Y-8411233D01*
X7081430Y-8217324D01*
X7092579Y-8210084D01*
X7406330Y-7982131D01*
X7416661Y-7973765D01*
X7704865Y-7714264D01*
X7714264Y-7704865D01*
X7973765Y-7416661D01*
X7982131Y-7406330D01*
X8210084Y-7092579D01*
X8217324Y-7081430D01*
X8411233Y-6745570D01*
X8417268Y-6733725D01*
X8575007Y-6379436D01*
X8579771Y-6367026D01*
X8699614Y-5998189D01*
X8703055Y-5985349D01*
X8783686Y-5606007D01*
X8785765Y-5592877D01*
X8826303Y-5207184D01*
X8826999Y-5193909D01*
X8826999Y-4806091D01*
X8826303Y-4792816D01*
X8785765Y-4407123D01*
X8783686Y-4393993D01*
X8703055Y-4014651D01*
X8699614Y-4001811D01*
X8579771Y-3632974D01*
X8575007Y-3620564D01*
X8417268Y-3266275D01*
X8411233Y-3254430D01*
X8217324Y-2918570D01*
X8210084Y-2907421D01*
X7982131Y-2593670D01*
X7973765Y-2583339D01*
X7714264Y-2295135D01*
X7704865Y-2285736D01*
X7416661Y-2026235D01*
X7406330Y-2017869D01*
X7092579Y-1789916D01*
X7081430Y-1782676D01*
X6745570Y-1588767D01*
X6733725Y-1582732D01*
X6379436Y-1424993D01*
X6367026Y-1420229D01*
X5998189Y-1300386D01*
X5985349Y-1296945D01*
X5606007Y-1216314D01*
X5592877Y-1214235D01*
X5207184Y-1173697D01*
X5193909Y-1173001D01*
X4806091Y-1173001D01*
X4792816Y-1173697D01*
X4407123Y-1214235D01*
X4393993Y-1216314D01*
X4014651Y-1296945D01*
X4001811Y-1300386D01*
X3632974Y-1420229D01*
X3620564Y-1424993D01*
X3266275Y-1582732D01*
X3254430Y-1588767D01*
X2918570Y-1782676D01*
X2907421Y-1789916D01*
X2593670Y-2017869D01*
X2583339Y-2026235D01*
X2295135Y-2285736D01*
X2285736Y-2295135D01*
X2026235Y-2583339D01*
X2017869Y-2593670D01*
X1789916Y-2907421D01*
X1782676Y-2918570D01*
X1588767Y-3254430D01*
X1582732Y-3266275D01*
X1424993Y-3620564D01*
X1420229Y-3632974D01*
X1300386Y-4001811D01*
X1296945Y-4014651D01*
X1216314Y-4393993D01*
X1214235Y-4407123D01*
X1173697Y-4792816D01*
X1173001Y-4806091D01*
X1141914Y-4806091D01*
X1148587Y-4656274D01*
X1194392Y-4315254D01*
X1270323Y-3979690D01*
X1375794Y-3652164D01*
X1509959Y-3335325D01*
X1671744Y-3031689D01*
X1859904Y-2743602D01*
X2072911Y-2473406D01*
X2309097Y-2223210D01*
X2566597Y-1994991D01*
X2843347Y-1790580D01*
X3137196Y-1611566D01*
X3445780Y-1459388D01*
X3766661Y-1335248D01*
X4097338Y-1240116D01*
X4435144Y-1174760D01*
X4786283Y-1138783D01*
X5032599Y-1131687D01*
X5045409Y-1130668D01*
X5073460Y-1127000D01*
X11303561Y-1127000D01*
X11183296Y-1220092D01*
G36*
X27323000Y-8918314D02*
G01*
X12077000Y-8918314D01*
X12077000Y-2172314D01*
X27323000Y-2172314D01*
X27323000Y-8918314D01*
X27323000Y-8918314D01*
G37*
X27323000Y-8918314D02*
X12077000Y-8918314D01*
X12077000Y-2172314D01*
X27323000Y-2172314D01*
X27323000Y-8918314D01*
G36*
X18613932Y-10045993D02*
G01*
X18638187Y-10056792D01*
X18918075Y-10147733D01*
X18944045Y-10153253D01*
X19236725Y-10184015D01*
X19263275Y-10184015D01*
X19555955Y-10153253D01*
X19581925Y-10147733D01*
X19861813Y-10056792D01*
X19886068Y-10045993D01*
X20005567Y-9977000D01*
X27323000Y-9977000D01*
X27323000Y-16823409D01*
X19871335Y-16847447D01*
X19861813Y-16843208D01*
X19581925Y-16752267D01*
X19555955Y-16746747D01*
X19263275Y-16715985D01*
X19236725Y-16715985D01*
X18944045Y-16746747D01*
X18918075Y-16752267D01*
X18638187Y-16843208D01*
X18619597Y-16851485D01*
X12077000Y-16872590D01*
X12077000Y-9977000D01*
X18494433Y-9977000D01*
X18613932Y-10045993D01*
X18613932Y-10045993D01*
G37*
X18613932Y-10045993D02*
X18638187Y-10056792D01*
X18918075Y-10147733D01*
X18944045Y-10153253D01*
X19236725Y-10184015D01*
X19263275Y-10184015D01*
X19555955Y-10153253D01*
X19581925Y-10147733D01*
X19861813Y-10056792D01*
X19886068Y-10045993D01*
X20005567Y-9977000D01*
X27323000Y-9977000D01*
X27323000Y-16823409D01*
X19871335Y-16847447D01*
X19861813Y-16843208D01*
X19581925Y-16752267D01*
X19555955Y-16746747D01*
X19263275Y-16715985D01*
X19236725Y-16715985D01*
X18944045Y-16746747D01*
X18918075Y-16752267D01*
X18638187Y-16843208D01*
X18619597Y-16851485D01*
X12077000Y-16872590D01*
X12077000Y-9977000D01*
X18494433Y-9977000D01*
X18613932Y-10045993D01*
G36*
X18918075Y-25547733D02*
G01*
X18944045Y-25553253D01*
X19236725Y-25584015D01*
X19263275Y-25584015D01*
X19555955Y-25553253D01*
X19581925Y-25547733D01*
X19799619Y-25477000D01*
X27285095Y-25477000D01*
X27285095Y-32223000D01*
X19799619Y-32223000D01*
X19581925Y-32152267D01*
X19555955Y-32146747D01*
X19263275Y-32115985D01*
X19236725Y-32115985D01*
X18944045Y-32146747D01*
X18918075Y-32152267D01*
X18700381Y-32223000D01*
X12088876Y-32223000D01*
X12077220Y-25477000D01*
X18700381Y-25477000D01*
X18918075Y-25547733D01*
X18918075Y-25547733D01*
G37*
X18918075Y-25547733D02*
X18944045Y-25553253D01*
X19236725Y-25584015D01*
X19263275Y-25584015D01*
X19555955Y-25553253D01*
X19581925Y-25547733D01*
X19799619Y-25477000D01*
X27285095Y-25477000D01*
X27285095Y-32223000D01*
X19799619Y-32223000D01*
X19581925Y-32152267D01*
X19555955Y-32146747D01*
X19263275Y-32115985D01*
X19236725Y-32115985D01*
X18944045Y-32146747D01*
X18918075Y-32152267D01*
X18700381Y-32223000D01*
X12088876Y-32223000D01*
X12077220Y-25477000D01*
X18700381Y-25477000D01*
X18918075Y-25547733D01*
G36*
X18613932Y-33145993D02*
G01*
X18638187Y-33156792D01*
X18918075Y-33247733D01*
X18944045Y-33253253D01*
X19236725Y-33284015D01*
X19263275Y-33284015D01*
X19555955Y-33253253D01*
X19581925Y-33247733D01*
X19861813Y-33156792D01*
X19886068Y-33145993D01*
X19918965Y-33127000D01*
X27323000Y-33127000D01*
X27323000Y-39873000D01*
X19645735Y-39873000D01*
X19581925Y-39852267D01*
X19555955Y-39846747D01*
X19263275Y-39815985D01*
X19236725Y-39815985D01*
X18944045Y-39846747D01*
X18918075Y-39852267D01*
X18854265Y-39873000D01*
X12077000Y-39873000D01*
X12077000Y-33127000D01*
X18581035Y-33127000D01*
X18613932Y-33145993D01*
X18613932Y-33145993D01*
G37*
X18613932Y-33145993D02*
X18638187Y-33156792D01*
X18918075Y-33247733D01*
X18944045Y-33253253D01*
X19236725Y-33284015D01*
X19263275Y-33284015D01*
X19555955Y-33253253D01*
X19581925Y-33247733D01*
X19861813Y-33156792D01*
X19886068Y-33145993D01*
X19918965Y-33127000D01*
X27323000Y-33127000D01*
X27323000Y-39873000D01*
X19645735Y-39873000D01*
X19581925Y-39852267D01*
X19555955Y-39846747D01*
X19263275Y-39815985D01*
X19236725Y-39815985D01*
X18944045Y-39846747D01*
X18918075Y-39852267D01*
X18854265Y-39873000D01*
X12077000Y-39873000D01*
X12077000Y-33127000D01*
X18581035Y-33127000D01*
X18613932Y-33145993D01*
G36*
X18918075Y-40947733D02*
G01*
X18944045Y-40953253D01*
X19236725Y-40984015D01*
X19263275Y-40984015D01*
X19555955Y-40953253D01*
X19581925Y-40947733D01*
X19799619Y-40877000D01*
X27323000Y-40877000D01*
X27323000Y-47623000D01*
X19330018Y-47623000D01*
X19263275Y-47615985D01*
X19236725Y-47615985D01*
X19169982Y-47623000D01*
X12077000Y-47623000D01*
X12077000Y-40877000D01*
X18700381Y-40877000D01*
X18918075Y-40947733D01*
X18918075Y-40947733D01*
G37*
X18918075Y-40947733D02*
X18944045Y-40953253D01*
X19236725Y-40984015D01*
X19263275Y-40984015D01*
X19555955Y-40953253D01*
X19581925Y-40947733D01*
X19799619Y-40877000D01*
X27323000Y-40877000D01*
X27323000Y-47623000D01*
X19330018Y-47623000D01*
X19263275Y-47615985D01*
X19236725Y-47615985D01*
X19169982Y-47623000D01*
X12077000Y-47623000D01*
X12077000Y-40877000D01*
X18700381Y-40877000D01*
X18918075Y-40947733D01*
G36*
X27323000Y-55373409D02*
G01*
X20939900Y-55394000D01*
X12077000Y-55394000D01*
X12077000Y-48627000D01*
X27323000Y-48627000D01*
X27323000Y-55373409D01*
X27323000Y-55373409D01*
G37*
X27323000Y-55373409D02*
X20939900Y-55394000D01*
X12077000Y-55394000D01*
X12077000Y-48627000D01*
X27323000Y-48627000D01*
X27323000Y-55373409D01*
G36*
X27322981Y-63123000D02*
G01*
X12077000Y-63123000D01*
X12077000Y-56406000D01*
X27321949Y-56406000D01*
X27322981Y-63123000D01*
X27322981Y-63123000D01*
G37*
X27322981Y-63123000D02*
X12077000Y-63123000D01*
X12077000Y-56406000D01*
X27321949Y-56406000D01*
X27322981Y-63123000D01*
G36*
X27323000Y-70794000D02*
G01*
X12077000Y-70794000D01*
X12077000Y-64230990D01*
X27323000Y-64230990D01*
X27323000Y-70794000D01*
X27323000Y-70794000D01*
G37*
X27323000Y-70794000D02*
X12077000Y-70794000D01*
X12077000Y-64230990D01*
X27323000Y-64230990D01*
X27323000Y-70794000D01*
G36*
X27323000Y-86394000D02*
G01*
X12077000Y-86394000D01*
X12077000Y-79477000D01*
X27323000Y-79477000D01*
X27323000Y-86394000D01*
X27323000Y-86394000D01*
G37*
X27323000Y-86394000D02*
X12077000Y-86394000D01*
X12077000Y-79477000D01*
X27323000Y-79477000D01*
X27323000Y-86394000D01*
G36*
X27273904Y-94223000D02*
G01*
X12077182Y-94223000D01*
X12086819Y-87477000D01*
X27322089Y-87477000D01*
X27273904Y-94223000D01*
X27273904Y-94223000D01*
G37*
X27273904Y-94223000D02*
X12077182Y-94223000D01*
X12086819Y-87477000D01*
X27322089Y-87477000D01*
X27273904Y-94223000D01*
G36*
X18918075Y-17847733D02*
G01*
X18944045Y-17853253D01*
X19236725Y-17884015D01*
X19263275Y-17884015D01*
X19555955Y-17853253D01*
X19581925Y-17847733D01*
X19799619Y-17777000D01*
X27323000Y-17777000D01*
X27323000Y-24623000D01*
X20005567Y-24623000D01*
X19886068Y-24554007D01*
X19861813Y-24543208D01*
X19581925Y-24452267D01*
X19555955Y-24446747D01*
X19263275Y-24415985D01*
X19236725Y-24415985D01*
X18944045Y-24446747D01*
X18918075Y-24452267D01*
X18638187Y-24543208D01*
X18613932Y-24554007D01*
X18494433Y-24623000D01*
X12077000Y-24623000D01*
X12077000Y-17777000D01*
X18700381Y-17777000D01*
X18918075Y-17847733D01*
X18918075Y-17847733D01*
G37*
X18918075Y-17847733D02*
X18944045Y-17853253D01*
X19236725Y-17884015D01*
X19263275Y-17884015D01*
X19555955Y-17853253D01*
X19581925Y-17847733D01*
X19799619Y-17777000D01*
X27323000Y-17777000D01*
X27323000Y-24623000D01*
X20005567Y-24623000D01*
X19886068Y-24554007D01*
X19861813Y-24543208D01*
X19581925Y-24452267D01*
X19555955Y-24446747D01*
X19263275Y-24415985D01*
X19236725Y-24415985D01*
X18944045Y-24446747D01*
X18918075Y-24452267D01*
X18638187Y-24543208D01*
X18613932Y-24554007D01*
X18494433Y-24623000D01*
X12077000Y-24623000D01*
X12077000Y-17777000D01*
X18700381Y-17777000D01*
X18918075Y-17847733D01*
G36*
X27323000Y-78437200D02*
G01*
X12077000Y-78437200D01*
X12077000Y-71806000D01*
X27323000Y-71806000D01*
X27323000Y-78437200D01*
X27323000Y-78437200D01*
G37*
X27323000Y-78437200D02*
X12077000Y-78437200D01*
X12077000Y-71806000D01*
X27323000Y-71806000D01*
X27323000Y-78437200D01*
M02*
