G04 #@! TF.GenerationSoftware,KiCad,Pcbnew,5.1.0-rc2-unknown-38be0fc~81~ubuntu18.10.1*
G04 #@! TF.CreationDate,2019-03-05T14:14:04-05:00*
G04 #@! TF.ProjectId,LTC6811,4c544336-3831-4312-9e6b-696361645f70,rev?*
G04 #@! TF.SameCoordinates,Original*
G04 #@! TF.FileFunction,Copper,L2,Bot*
G04 #@! TF.FilePolarity,Positive*
%FSLAX46Y46*%
G04 Gerber Fmt 4.6, Leading zero omitted, Abs format (unit mm)*
G04 Created by KiCad (PCBNEW 5.1.0-rc2-unknown-38be0fc~81~ubuntu18.10.1) date 2019-03-05 14:14:04*
%MOMM*%
%LPD*%
G04 APERTURE LIST*
%ADD10O,1.700000X1.700000*%
%ADD11R,1.700000X1.700000*%
%ADD12O,2.600000X2.000000*%
%ADD13R,2.600000X2.000000*%
%ADD14C,5.400000*%
%ADD15C,0.800000*%
%ADD16C,0.250000*%
%ADD17C,1.000000*%
%ADD18C,0.254000*%
G04 APERTURE END LIST*
D10*
X3300000Y-35920000D03*
X3300000Y-38460000D03*
X3300000Y-41000000D03*
X3300000Y-43540000D03*
X3300000Y-46080000D03*
X3300000Y-48620000D03*
X3300000Y-51160000D03*
X3300000Y-53700000D03*
X3300000Y-56240000D03*
X3300000Y-58780000D03*
X3300000Y-61320000D03*
X3300000Y-63860000D03*
D11*
X3300000Y-66400000D03*
D12*
X94000000Y-22540000D03*
D13*
X94000000Y-20000000D03*
X94000000Y-27000000D03*
D12*
X94000000Y-29540000D03*
D10*
X80200000Y-97500000D03*
X77660000Y-97500000D03*
X75120000Y-97500000D03*
X72580000Y-97500000D03*
X70040000Y-97500000D03*
D11*
X67500000Y-97500000D03*
D10*
X78961495Y-56000000D03*
X81501495Y-56000000D03*
D11*
X84041495Y-56000000D03*
X84000000Y-38000000D03*
D10*
X81460000Y-38000000D03*
X78920000Y-38000000D03*
D14*
X5000000Y-5000000D03*
D15*
X7025000Y-5000000D03*
X6431891Y-6431891D03*
X5000000Y-7025000D03*
X3568109Y-6431891D03*
X2975000Y-5000000D03*
X3568109Y-3568109D03*
X5000000Y-2975000D03*
X6431891Y-3568109D03*
X6431891Y-93568109D03*
X5000000Y-92975000D03*
X3568109Y-93568109D03*
X2975000Y-95000000D03*
X3568109Y-96431891D03*
X5000000Y-97025000D03*
X6431891Y-96431891D03*
X7025000Y-95000000D03*
D14*
X5000000Y-95000000D03*
D15*
X96431891Y-3568109D03*
X95000000Y-2975000D03*
X93568109Y-3568109D03*
X92975000Y-5000000D03*
X93568109Y-6431891D03*
X95000000Y-7025000D03*
X96431891Y-6431891D03*
X97025000Y-5000000D03*
D14*
X95000000Y-5000000D03*
X95000000Y-95000000D03*
D15*
X97025000Y-95000000D03*
X96431891Y-96431891D03*
X95000000Y-97025000D03*
X93568109Y-96431891D03*
X92975000Y-95000000D03*
X93568109Y-93568109D03*
X95000000Y-92975000D03*
X96431891Y-93568109D03*
X64300000Y-87700000D03*
X71300000Y-53700000D03*
X71300000Y-55700000D03*
X56300000Y-55700000D03*
X56300000Y-57700000D03*
X68300000Y-86700000D03*
X72300000Y-86700000D03*
X76300000Y-86700000D03*
X80300000Y-86700000D03*
X80300000Y-48300000D03*
X52000000Y-17500000D03*
X52000000Y-14500000D03*
X66000000Y-22000000D03*
X66000000Y-28000000D03*
X67000000Y-44000000D03*
X43500000Y-21000000D03*
X43500000Y-27000000D03*
X43500000Y-33000000D03*
X43500000Y-45000000D03*
X43500000Y-51000000D03*
X43500000Y-57000000D03*
X43500000Y-63000000D03*
X43500000Y-69000000D03*
X43500000Y-75000000D03*
X43500000Y-81000000D03*
X43500000Y-86500000D03*
X43500000Y-39225010D03*
X66300000Y-87700000D03*
X82300000Y-87700000D03*
X78300000Y-87700000D03*
X74300000Y-87700000D03*
X70300000Y-87700000D03*
X65000000Y-54500000D03*
X82500000Y-46000000D03*
X54500000Y-44500000D03*
X24000000Y-22000000D03*
X24000000Y-21000000D03*
X24000000Y-23000000D03*
X24000000Y-28000000D03*
X24000000Y-27000000D03*
X24000000Y-29000000D03*
X24000000Y-34000000D03*
X24000000Y-33000000D03*
X24000000Y-35000000D03*
X24000000Y-40000000D03*
X24000000Y-39000000D03*
X24000000Y-41000000D03*
X24000000Y-46000000D03*
X24000000Y-45000000D03*
X24000000Y-47000000D03*
X24000000Y-52000000D03*
X24000000Y-51000000D03*
X24000000Y-53000000D03*
X24000000Y-58000000D03*
X24000000Y-57000000D03*
X24000000Y-59000000D03*
X24000000Y-64000000D03*
X24000000Y-63000000D03*
X24000000Y-65000000D03*
X24000000Y-70000000D03*
X24000000Y-69000000D03*
X24000000Y-71000000D03*
X24000000Y-76000000D03*
X24000000Y-75000000D03*
X24000000Y-77000000D03*
X24000000Y-82000000D03*
X24000000Y-81000000D03*
X24000000Y-83000000D03*
X24000000Y-88000000D03*
X24000000Y-87000000D03*
X24000000Y-89000000D03*
X16100000Y-91900000D03*
X16100000Y-92800000D03*
X35900000Y-92000000D03*
D16*
X81734315Y-87700000D02*
X82300000Y-87700000D01*
X78300000Y-87700000D02*
X81734315Y-87700000D01*
X66300000Y-87700000D02*
X70300000Y-87700000D01*
X70300000Y-87700000D02*
X78300000Y-87700000D01*
X65000000Y-86400000D02*
X65000000Y-55065685D01*
X66300000Y-87700000D02*
X65000000Y-86400000D01*
X65000000Y-55065685D02*
X65000000Y-54500000D01*
D17*
X54500000Y-45000000D02*
X54500000Y-44500000D01*
X82500000Y-46000000D02*
X55500000Y-46000000D01*
X55500000Y-46000000D02*
X54500000Y-45000000D01*
D16*
X84000000Y-55958505D02*
X84041495Y-56000000D01*
X84000000Y-38000000D02*
X84000000Y-55958505D01*
D18*
G36*
X95761865Y-765758D02*
G01*
X96499637Y-967589D01*
X97190018Y-1296884D01*
X97811168Y-1743225D01*
X98343467Y-2292514D01*
X98770080Y-2927383D01*
X99077524Y-3627759D01*
X99257368Y-4376860D01*
X99305000Y-5025490D01*
X99305001Y-94969032D01*
X99234243Y-95761862D01*
X99032411Y-96499637D01*
X98703116Y-97190018D01*
X98256775Y-97811168D01*
X97707483Y-98343469D01*
X97072617Y-98770080D01*
X96372240Y-99077525D01*
X95623140Y-99257368D01*
X94974510Y-99305000D01*
X5030957Y-99305000D01*
X4238138Y-99234243D01*
X3500363Y-99032411D01*
X2809982Y-98703116D01*
X2188832Y-98256775D01*
X1656531Y-97707483D01*
X1229920Y-97072617D01*
X922475Y-96372240D01*
X742632Y-95623140D01*
X695000Y-94974510D01*
X695000Y-94671531D01*
X1665000Y-94671531D01*
X1665000Y-95328469D01*
X1793162Y-95972784D01*
X2044561Y-96579715D01*
X2409536Y-97125939D01*
X2874061Y-97590464D01*
X3420285Y-97955439D01*
X4027216Y-98206838D01*
X4671531Y-98335000D01*
X5328469Y-98335000D01*
X5972784Y-98206838D01*
X6579715Y-97955439D01*
X7125939Y-97590464D01*
X7590464Y-97125939D01*
X7908476Y-96650000D01*
X66011928Y-96650000D01*
X66011928Y-98350000D01*
X66024188Y-98474482D01*
X66060498Y-98594180D01*
X66119463Y-98704494D01*
X66198815Y-98801185D01*
X66295506Y-98880537D01*
X66405820Y-98939502D01*
X66525518Y-98975812D01*
X66650000Y-98988072D01*
X68350000Y-98988072D01*
X68474482Y-98975812D01*
X68594180Y-98939502D01*
X68704494Y-98880537D01*
X68801185Y-98801185D01*
X68880537Y-98704494D01*
X68939502Y-98594180D01*
X68960393Y-98525313D01*
X68984866Y-98555134D01*
X69210986Y-98740706D01*
X69468966Y-98878599D01*
X69748889Y-98963513D01*
X69967050Y-98985000D01*
X70112950Y-98985000D01*
X70331111Y-98963513D01*
X70611034Y-98878599D01*
X70869014Y-98740706D01*
X71095134Y-98555134D01*
X71280706Y-98329014D01*
X71310000Y-98274209D01*
X71339294Y-98329014D01*
X71524866Y-98555134D01*
X71750986Y-98740706D01*
X72008966Y-98878599D01*
X72288889Y-98963513D01*
X72507050Y-98985000D01*
X72652950Y-98985000D01*
X72871111Y-98963513D01*
X73151034Y-98878599D01*
X73409014Y-98740706D01*
X73635134Y-98555134D01*
X73820706Y-98329014D01*
X73850000Y-98274209D01*
X73879294Y-98329014D01*
X74064866Y-98555134D01*
X74290986Y-98740706D01*
X74548966Y-98878599D01*
X74828889Y-98963513D01*
X75047050Y-98985000D01*
X75192950Y-98985000D01*
X75411111Y-98963513D01*
X75691034Y-98878599D01*
X75949014Y-98740706D01*
X76175134Y-98555134D01*
X76360706Y-98329014D01*
X76390000Y-98274209D01*
X76419294Y-98329014D01*
X76604866Y-98555134D01*
X76830986Y-98740706D01*
X77088966Y-98878599D01*
X77368889Y-98963513D01*
X77587050Y-98985000D01*
X77732950Y-98985000D01*
X77951111Y-98963513D01*
X78231034Y-98878599D01*
X78489014Y-98740706D01*
X78715134Y-98555134D01*
X78900706Y-98329014D01*
X78935201Y-98264477D01*
X79004822Y-98381355D01*
X79199731Y-98597588D01*
X79433080Y-98771641D01*
X79695901Y-98896825D01*
X79843110Y-98941476D01*
X80073000Y-98820155D01*
X80073000Y-97627000D01*
X80327000Y-97627000D01*
X80327000Y-98820155D01*
X80556890Y-98941476D01*
X80704099Y-98896825D01*
X80966920Y-98771641D01*
X81200269Y-98597588D01*
X81395178Y-98381355D01*
X81544157Y-98131252D01*
X81641481Y-97856891D01*
X81520814Y-97627000D01*
X80327000Y-97627000D01*
X80073000Y-97627000D01*
X80053000Y-97627000D01*
X80053000Y-97373000D01*
X80073000Y-97373000D01*
X80073000Y-96179845D01*
X80327000Y-96179845D01*
X80327000Y-97373000D01*
X81520814Y-97373000D01*
X81641481Y-97143109D01*
X81544157Y-96868748D01*
X81395178Y-96618645D01*
X81200269Y-96402412D01*
X80966920Y-96228359D01*
X80704099Y-96103175D01*
X80556890Y-96058524D01*
X80327000Y-96179845D01*
X80073000Y-96179845D01*
X79843110Y-96058524D01*
X79695901Y-96103175D01*
X79433080Y-96228359D01*
X79199731Y-96402412D01*
X79004822Y-96618645D01*
X78935201Y-96735523D01*
X78900706Y-96670986D01*
X78715134Y-96444866D01*
X78489014Y-96259294D01*
X78231034Y-96121401D01*
X77951111Y-96036487D01*
X77732950Y-96015000D01*
X77587050Y-96015000D01*
X77368889Y-96036487D01*
X77088966Y-96121401D01*
X76830986Y-96259294D01*
X76604866Y-96444866D01*
X76419294Y-96670986D01*
X76390000Y-96725791D01*
X76360706Y-96670986D01*
X76175134Y-96444866D01*
X75949014Y-96259294D01*
X75691034Y-96121401D01*
X75411111Y-96036487D01*
X75192950Y-96015000D01*
X75047050Y-96015000D01*
X74828889Y-96036487D01*
X74548966Y-96121401D01*
X74290986Y-96259294D01*
X74064866Y-96444866D01*
X73879294Y-96670986D01*
X73850000Y-96725791D01*
X73820706Y-96670986D01*
X73635134Y-96444866D01*
X73409014Y-96259294D01*
X73151034Y-96121401D01*
X72871111Y-96036487D01*
X72652950Y-96015000D01*
X72507050Y-96015000D01*
X72288889Y-96036487D01*
X72008966Y-96121401D01*
X71750986Y-96259294D01*
X71524866Y-96444866D01*
X71339294Y-96670986D01*
X71310000Y-96725791D01*
X71280706Y-96670986D01*
X71095134Y-96444866D01*
X70869014Y-96259294D01*
X70611034Y-96121401D01*
X70331111Y-96036487D01*
X70112950Y-96015000D01*
X69967050Y-96015000D01*
X69748889Y-96036487D01*
X69468966Y-96121401D01*
X69210986Y-96259294D01*
X68984866Y-96444866D01*
X68960393Y-96474687D01*
X68939502Y-96405820D01*
X68880537Y-96295506D01*
X68801185Y-96198815D01*
X68704494Y-96119463D01*
X68594180Y-96060498D01*
X68474482Y-96024188D01*
X68350000Y-96011928D01*
X66650000Y-96011928D01*
X66525518Y-96024188D01*
X66405820Y-96060498D01*
X66295506Y-96119463D01*
X66198815Y-96198815D01*
X66119463Y-96295506D01*
X66060498Y-96405820D01*
X66024188Y-96525518D01*
X66011928Y-96650000D01*
X7908476Y-96650000D01*
X7955439Y-96579715D01*
X8206838Y-95972784D01*
X8335000Y-95328469D01*
X8335000Y-94671531D01*
X91665000Y-94671531D01*
X91665000Y-95328469D01*
X91793162Y-95972784D01*
X92044561Y-96579715D01*
X92409536Y-97125939D01*
X92874061Y-97590464D01*
X93420285Y-97955439D01*
X94027216Y-98206838D01*
X94671531Y-98335000D01*
X95328469Y-98335000D01*
X95972784Y-98206838D01*
X96579715Y-97955439D01*
X97125939Y-97590464D01*
X97590464Y-97125939D01*
X97955439Y-96579715D01*
X98206838Y-95972784D01*
X98335000Y-95328469D01*
X98335000Y-94671531D01*
X98206838Y-94027216D01*
X97955439Y-93420285D01*
X97590464Y-92874061D01*
X97125939Y-92409536D01*
X96579715Y-92044561D01*
X95972784Y-91793162D01*
X95328469Y-91665000D01*
X94671531Y-91665000D01*
X94027216Y-91793162D01*
X93420285Y-92044561D01*
X92874061Y-92409536D01*
X92409536Y-92874061D01*
X92044561Y-93420285D01*
X91793162Y-94027216D01*
X91665000Y-94671531D01*
X8335000Y-94671531D01*
X8206838Y-94027216D01*
X7955439Y-93420285D01*
X7590464Y-92874061D01*
X7125939Y-92409536D01*
X6579715Y-92044561D01*
X5972784Y-91793162D01*
X5328469Y-91665000D01*
X4671531Y-91665000D01*
X4027216Y-91793162D01*
X3420285Y-92044561D01*
X2874061Y-92409536D01*
X2409536Y-92874061D01*
X2044561Y-93420285D01*
X1793162Y-94027216D01*
X1665000Y-94671531D01*
X695000Y-94671531D01*
X695000Y-35920000D01*
X1807815Y-35920000D01*
X1836487Y-36211111D01*
X1921401Y-36491034D01*
X2059294Y-36749014D01*
X2244866Y-36975134D01*
X2470986Y-37160706D01*
X2525791Y-37190000D01*
X2470986Y-37219294D01*
X2244866Y-37404866D01*
X2059294Y-37630986D01*
X1921401Y-37888966D01*
X1836487Y-38168889D01*
X1807815Y-38460000D01*
X1836487Y-38751111D01*
X1921401Y-39031034D01*
X2059294Y-39289014D01*
X2244866Y-39515134D01*
X2470986Y-39700706D01*
X2525791Y-39730000D01*
X2470986Y-39759294D01*
X2244866Y-39944866D01*
X2059294Y-40170986D01*
X1921401Y-40428966D01*
X1836487Y-40708889D01*
X1807815Y-41000000D01*
X1836487Y-41291111D01*
X1921401Y-41571034D01*
X2059294Y-41829014D01*
X2244866Y-42055134D01*
X2470986Y-42240706D01*
X2525791Y-42270000D01*
X2470986Y-42299294D01*
X2244866Y-42484866D01*
X2059294Y-42710986D01*
X1921401Y-42968966D01*
X1836487Y-43248889D01*
X1807815Y-43540000D01*
X1836487Y-43831111D01*
X1921401Y-44111034D01*
X2059294Y-44369014D01*
X2244866Y-44595134D01*
X2470986Y-44780706D01*
X2525791Y-44810000D01*
X2470986Y-44839294D01*
X2244866Y-45024866D01*
X2059294Y-45250986D01*
X1921401Y-45508966D01*
X1836487Y-45788889D01*
X1807815Y-46080000D01*
X1836487Y-46371111D01*
X1921401Y-46651034D01*
X2059294Y-46909014D01*
X2244866Y-47135134D01*
X2470986Y-47320706D01*
X2525791Y-47350000D01*
X2470986Y-47379294D01*
X2244866Y-47564866D01*
X2059294Y-47790986D01*
X1921401Y-48048966D01*
X1836487Y-48328889D01*
X1807815Y-48620000D01*
X1836487Y-48911111D01*
X1921401Y-49191034D01*
X2059294Y-49449014D01*
X2244866Y-49675134D01*
X2470986Y-49860706D01*
X2525791Y-49890000D01*
X2470986Y-49919294D01*
X2244866Y-50104866D01*
X2059294Y-50330986D01*
X1921401Y-50588966D01*
X1836487Y-50868889D01*
X1807815Y-51160000D01*
X1836487Y-51451111D01*
X1921401Y-51731034D01*
X2059294Y-51989014D01*
X2244866Y-52215134D01*
X2470986Y-52400706D01*
X2525791Y-52430000D01*
X2470986Y-52459294D01*
X2244866Y-52644866D01*
X2059294Y-52870986D01*
X1921401Y-53128966D01*
X1836487Y-53408889D01*
X1807815Y-53700000D01*
X1836487Y-53991111D01*
X1921401Y-54271034D01*
X2059294Y-54529014D01*
X2244866Y-54755134D01*
X2470986Y-54940706D01*
X2525791Y-54970000D01*
X2470986Y-54999294D01*
X2244866Y-55184866D01*
X2059294Y-55410986D01*
X1921401Y-55668966D01*
X1836487Y-55948889D01*
X1807815Y-56240000D01*
X1836487Y-56531111D01*
X1921401Y-56811034D01*
X2059294Y-57069014D01*
X2244866Y-57295134D01*
X2470986Y-57480706D01*
X2525791Y-57510000D01*
X2470986Y-57539294D01*
X2244866Y-57724866D01*
X2059294Y-57950986D01*
X1921401Y-58208966D01*
X1836487Y-58488889D01*
X1807815Y-58780000D01*
X1836487Y-59071111D01*
X1921401Y-59351034D01*
X2059294Y-59609014D01*
X2244866Y-59835134D01*
X2470986Y-60020706D01*
X2525791Y-60050000D01*
X2470986Y-60079294D01*
X2244866Y-60264866D01*
X2059294Y-60490986D01*
X1921401Y-60748966D01*
X1836487Y-61028889D01*
X1807815Y-61320000D01*
X1836487Y-61611111D01*
X1921401Y-61891034D01*
X2059294Y-62149014D01*
X2244866Y-62375134D01*
X2470986Y-62560706D01*
X2525791Y-62590000D01*
X2470986Y-62619294D01*
X2244866Y-62804866D01*
X2059294Y-63030986D01*
X1921401Y-63288966D01*
X1836487Y-63568889D01*
X1807815Y-63860000D01*
X1836487Y-64151111D01*
X1921401Y-64431034D01*
X2059294Y-64689014D01*
X2244866Y-64915134D01*
X2274687Y-64939607D01*
X2205820Y-64960498D01*
X2095506Y-65019463D01*
X1998815Y-65098815D01*
X1919463Y-65195506D01*
X1860498Y-65305820D01*
X1824188Y-65425518D01*
X1811928Y-65550000D01*
X1811928Y-67250000D01*
X1824188Y-67374482D01*
X1860498Y-67494180D01*
X1919463Y-67604494D01*
X1998815Y-67701185D01*
X2095506Y-67780537D01*
X2205820Y-67839502D01*
X2325518Y-67875812D01*
X2450000Y-67888072D01*
X4150000Y-67888072D01*
X4274482Y-67875812D01*
X4394180Y-67839502D01*
X4504494Y-67780537D01*
X4601185Y-67701185D01*
X4680537Y-67604494D01*
X4739502Y-67494180D01*
X4775812Y-67374482D01*
X4788072Y-67250000D01*
X4788072Y-65550000D01*
X4775812Y-65425518D01*
X4739502Y-65305820D01*
X4680537Y-65195506D01*
X4601185Y-65098815D01*
X4504494Y-65019463D01*
X4394180Y-64960498D01*
X4325313Y-64939607D01*
X4355134Y-64915134D01*
X4540706Y-64689014D01*
X4678599Y-64431034D01*
X4763513Y-64151111D01*
X4792185Y-63860000D01*
X4763513Y-63568889D01*
X4678599Y-63288966D01*
X4540706Y-63030986D01*
X4355134Y-62804866D01*
X4129014Y-62619294D01*
X4074209Y-62590000D01*
X4129014Y-62560706D01*
X4355134Y-62375134D01*
X4540706Y-62149014D01*
X4678599Y-61891034D01*
X4763513Y-61611111D01*
X4774456Y-61500000D01*
X9321926Y-61500000D01*
X9321926Y-66500000D01*
X9343581Y-66719867D01*
X9407714Y-66931284D01*
X9469980Y-67047776D01*
X9458788Y-67068716D01*
X9394655Y-67280133D01*
X9373000Y-67500000D01*
X9373000Y-72500000D01*
X9394655Y-72719867D01*
X9458788Y-72931284D01*
X9495517Y-73000000D01*
X9458788Y-73068716D01*
X9394655Y-73280133D01*
X9373000Y-73500000D01*
X9373000Y-78500000D01*
X9394655Y-78719867D01*
X9458788Y-78931284D01*
X9495517Y-79000000D01*
X9458788Y-79068716D01*
X9394655Y-79280133D01*
X9373000Y-79500000D01*
X9373000Y-84500000D01*
X9394655Y-84719867D01*
X9458788Y-84931284D01*
X9495517Y-85000000D01*
X9458788Y-85068716D01*
X9394655Y-85280133D01*
X9373000Y-85500000D01*
X9373000Y-90500000D01*
X9394655Y-90719867D01*
X9458788Y-90931284D01*
X9562934Y-91126128D01*
X9703091Y-91296909D01*
X9873872Y-91437066D01*
X10068716Y-91541212D01*
X10280133Y-91605345D01*
X10500000Y-91627000D01*
X26000000Y-91627000D01*
X26219867Y-91605345D01*
X26431284Y-91541212D01*
X26626128Y-91437066D01*
X26796909Y-91296909D01*
X26937066Y-91126128D01*
X27041212Y-90931284D01*
X27105345Y-90719867D01*
X27127000Y-90500000D01*
X27127000Y-85500000D01*
X27105345Y-85280133D01*
X27041212Y-85068716D01*
X27004483Y-85000000D01*
X27041212Y-84931284D01*
X27105345Y-84719867D01*
X27127000Y-84500000D01*
X27127000Y-79500000D01*
X27105345Y-79280133D01*
X27041212Y-79068716D01*
X27004483Y-79000000D01*
X27041212Y-78931284D01*
X27105345Y-78719867D01*
X27127000Y-78500000D01*
X27127000Y-73500000D01*
X27105345Y-73280133D01*
X27041212Y-73068716D01*
X27004483Y-73000000D01*
X27041212Y-72931284D01*
X27105345Y-72719867D01*
X27127000Y-72500000D01*
X27127000Y-67500000D01*
X27105345Y-67280133D01*
X27041212Y-67068716D01*
X26978946Y-66952224D01*
X26990138Y-66931284D01*
X27054271Y-66719867D01*
X27075926Y-66500000D01*
X27075926Y-61500000D01*
X27054271Y-61280133D01*
X26990138Y-61068716D01*
X26978946Y-61047776D01*
X27041212Y-60931284D01*
X27105345Y-60719867D01*
X27127000Y-60500000D01*
X27127000Y-55500000D01*
X27105345Y-55280133D01*
X27041212Y-55068716D01*
X27004483Y-55000000D01*
X27041212Y-54931284D01*
X27105345Y-54719867D01*
X27127000Y-54500000D01*
X27127000Y-54398061D01*
X63965000Y-54398061D01*
X63965000Y-54601939D01*
X64004774Y-54801898D01*
X64082795Y-54990256D01*
X64196063Y-55159774D01*
X64240001Y-55203712D01*
X64240000Y-86362678D01*
X64236324Y-86400000D01*
X64240000Y-86437322D01*
X64240000Y-86437332D01*
X64250997Y-86548985D01*
X64286189Y-86665000D01*
X64294454Y-86692246D01*
X64365026Y-86824276D01*
X64404871Y-86872826D01*
X64459999Y-86940001D01*
X64489003Y-86963804D01*
X65265000Y-87739802D01*
X65265000Y-87801939D01*
X65304774Y-88001898D01*
X65382795Y-88190256D01*
X65496063Y-88359774D01*
X65640226Y-88503937D01*
X65809744Y-88617205D01*
X65998102Y-88695226D01*
X66198061Y-88735000D01*
X66401939Y-88735000D01*
X66601898Y-88695226D01*
X66790256Y-88617205D01*
X66959774Y-88503937D01*
X67003711Y-88460000D01*
X69596289Y-88460000D01*
X69640226Y-88503937D01*
X69809744Y-88617205D01*
X69998102Y-88695226D01*
X70198061Y-88735000D01*
X70401939Y-88735000D01*
X70601898Y-88695226D01*
X70790256Y-88617205D01*
X70959774Y-88503937D01*
X71003711Y-88460000D01*
X73596289Y-88460000D01*
X73640226Y-88503937D01*
X73809744Y-88617205D01*
X73998102Y-88695226D01*
X74198061Y-88735000D01*
X74401939Y-88735000D01*
X74601898Y-88695226D01*
X74790256Y-88617205D01*
X74959774Y-88503937D01*
X75003711Y-88460000D01*
X77596289Y-88460000D01*
X77640226Y-88503937D01*
X77809744Y-88617205D01*
X77998102Y-88695226D01*
X78198061Y-88735000D01*
X78401939Y-88735000D01*
X78601898Y-88695226D01*
X78790256Y-88617205D01*
X78959774Y-88503937D01*
X79003711Y-88460000D01*
X81596289Y-88460000D01*
X81640226Y-88503937D01*
X81809744Y-88617205D01*
X81998102Y-88695226D01*
X82198061Y-88735000D01*
X82401939Y-88735000D01*
X82601898Y-88695226D01*
X82790256Y-88617205D01*
X82959774Y-88503937D01*
X83103937Y-88359774D01*
X83217205Y-88190256D01*
X83295226Y-88001898D01*
X83335000Y-87801939D01*
X83335000Y-87598061D01*
X83295226Y-87398102D01*
X83217205Y-87209744D01*
X83103937Y-87040226D01*
X82959774Y-86896063D01*
X82790256Y-86782795D01*
X82601898Y-86704774D01*
X82401939Y-86665000D01*
X82198061Y-86665000D01*
X81998102Y-86704774D01*
X81809744Y-86782795D01*
X81640226Y-86896063D01*
X81596289Y-86940000D01*
X79003711Y-86940000D01*
X78959774Y-86896063D01*
X78790256Y-86782795D01*
X78601898Y-86704774D01*
X78401939Y-86665000D01*
X78198061Y-86665000D01*
X77998102Y-86704774D01*
X77809744Y-86782795D01*
X77640226Y-86896063D01*
X77596289Y-86940000D01*
X75003711Y-86940000D01*
X74959774Y-86896063D01*
X74790256Y-86782795D01*
X74601898Y-86704774D01*
X74401939Y-86665000D01*
X74198061Y-86665000D01*
X73998102Y-86704774D01*
X73809744Y-86782795D01*
X73640226Y-86896063D01*
X73596289Y-86940000D01*
X71003711Y-86940000D01*
X70959774Y-86896063D01*
X70790256Y-86782795D01*
X70601898Y-86704774D01*
X70401939Y-86665000D01*
X70198061Y-86665000D01*
X69998102Y-86704774D01*
X69809744Y-86782795D01*
X69640226Y-86896063D01*
X69596289Y-86940000D01*
X67003711Y-86940000D01*
X66959774Y-86896063D01*
X66790256Y-86782795D01*
X66601898Y-86704774D01*
X66401939Y-86665000D01*
X66339802Y-86665000D01*
X65760000Y-86085199D01*
X65760000Y-56356891D01*
X77520014Y-56356891D01*
X77617338Y-56631252D01*
X77766317Y-56881355D01*
X77961226Y-57097588D01*
X78194575Y-57271641D01*
X78457396Y-57396825D01*
X78604605Y-57441476D01*
X78834495Y-57320155D01*
X78834495Y-56127000D01*
X77640681Y-56127000D01*
X77520014Y-56356891D01*
X65760000Y-56356891D01*
X65760000Y-55643109D01*
X77520014Y-55643109D01*
X77640681Y-55873000D01*
X78834495Y-55873000D01*
X78834495Y-54679845D01*
X78604605Y-54558524D01*
X78457396Y-54603175D01*
X78194575Y-54728359D01*
X77961226Y-54902412D01*
X77766317Y-55118645D01*
X77617338Y-55368748D01*
X77520014Y-55643109D01*
X65760000Y-55643109D01*
X65760000Y-55203711D01*
X65803937Y-55159774D01*
X65917205Y-54990256D01*
X65995226Y-54801898D01*
X66035000Y-54601939D01*
X66035000Y-54398061D01*
X65995226Y-54198102D01*
X65917205Y-54009744D01*
X65803937Y-53840226D01*
X65659774Y-53696063D01*
X65490256Y-53582795D01*
X65301898Y-53504774D01*
X65101939Y-53465000D01*
X64898061Y-53465000D01*
X64698102Y-53504774D01*
X64509744Y-53582795D01*
X64340226Y-53696063D01*
X64196063Y-53840226D01*
X64082795Y-54009744D01*
X64004774Y-54198102D01*
X63965000Y-54398061D01*
X27127000Y-54398061D01*
X27127000Y-49500000D01*
X27105345Y-49280133D01*
X27041212Y-49068716D01*
X27004483Y-49000000D01*
X27041212Y-48931284D01*
X27105345Y-48719867D01*
X27127000Y-48500000D01*
X27127000Y-45000000D01*
X52865129Y-45000000D01*
X52873000Y-45079914D01*
X52873000Y-45079924D01*
X52896542Y-45318947D01*
X52989575Y-45625637D01*
X53140654Y-45908285D01*
X53343971Y-46156029D01*
X53406055Y-46206980D01*
X54293016Y-47093940D01*
X54343971Y-47156029D01*
X54591714Y-47359346D01*
X54874362Y-47510425D01*
X55181052Y-47603458D01*
X55500000Y-47634872D01*
X55579925Y-47627000D01*
X82579925Y-47627000D01*
X82818948Y-47603458D01*
X83125638Y-47510425D01*
X83240001Y-47449297D01*
X83240001Y-54511928D01*
X83191495Y-54511928D01*
X83067013Y-54524188D01*
X82947315Y-54560498D01*
X82837001Y-54619463D01*
X82740310Y-54698815D01*
X82660958Y-54795506D01*
X82601993Y-54905820D01*
X82581102Y-54974687D01*
X82556629Y-54944866D01*
X82330509Y-54759294D01*
X82072529Y-54621401D01*
X81792606Y-54536487D01*
X81574445Y-54515000D01*
X81428545Y-54515000D01*
X81210384Y-54536487D01*
X80930461Y-54621401D01*
X80672481Y-54759294D01*
X80446361Y-54944866D01*
X80260789Y-55170986D01*
X80226294Y-55235523D01*
X80156673Y-55118645D01*
X79961764Y-54902412D01*
X79728415Y-54728359D01*
X79465594Y-54603175D01*
X79318385Y-54558524D01*
X79088495Y-54679845D01*
X79088495Y-55873000D01*
X79108495Y-55873000D01*
X79108495Y-56127000D01*
X79088495Y-56127000D01*
X79088495Y-57320155D01*
X79318385Y-57441476D01*
X79465594Y-57396825D01*
X79728415Y-57271641D01*
X79961764Y-57097588D01*
X80156673Y-56881355D01*
X80226294Y-56764477D01*
X80260789Y-56829014D01*
X80446361Y-57055134D01*
X80672481Y-57240706D01*
X80930461Y-57378599D01*
X81210384Y-57463513D01*
X81428545Y-57485000D01*
X81574445Y-57485000D01*
X81792606Y-57463513D01*
X82072529Y-57378599D01*
X82330509Y-57240706D01*
X82556629Y-57055134D01*
X82581102Y-57025313D01*
X82601993Y-57094180D01*
X82660958Y-57204494D01*
X82740310Y-57301185D01*
X82837001Y-57380537D01*
X82947315Y-57439502D01*
X83067013Y-57475812D01*
X83191495Y-57488072D01*
X84891495Y-57488072D01*
X85015977Y-57475812D01*
X85135675Y-57439502D01*
X85245989Y-57380537D01*
X85342680Y-57301185D01*
X85422032Y-57204494D01*
X85480997Y-57094180D01*
X85517307Y-56974482D01*
X85529567Y-56850000D01*
X85529567Y-55150000D01*
X85517307Y-55025518D01*
X85480997Y-54905820D01*
X85422032Y-54795506D01*
X85342680Y-54698815D01*
X85245989Y-54619463D01*
X85135675Y-54560498D01*
X85015977Y-54524188D01*
X84891495Y-54511928D01*
X84760000Y-54511928D01*
X84760000Y-39488072D01*
X84850000Y-39488072D01*
X84974482Y-39475812D01*
X85094180Y-39439502D01*
X85204494Y-39380537D01*
X85301185Y-39301185D01*
X85380537Y-39204494D01*
X85439502Y-39094180D01*
X85475812Y-38974482D01*
X85488072Y-38850000D01*
X85488072Y-37150000D01*
X85475812Y-37025518D01*
X85439502Y-36905820D01*
X85380537Y-36795506D01*
X85301185Y-36698815D01*
X85204494Y-36619463D01*
X85094180Y-36560498D01*
X84974482Y-36524188D01*
X84850000Y-36511928D01*
X83150000Y-36511928D01*
X83025518Y-36524188D01*
X82905820Y-36560498D01*
X82795506Y-36619463D01*
X82698815Y-36698815D01*
X82619463Y-36795506D01*
X82560498Y-36905820D01*
X82539607Y-36974687D01*
X82515134Y-36944866D01*
X82289014Y-36759294D01*
X82031034Y-36621401D01*
X81751111Y-36536487D01*
X81532950Y-36515000D01*
X81387050Y-36515000D01*
X81168889Y-36536487D01*
X80888966Y-36621401D01*
X80630986Y-36759294D01*
X80404866Y-36944866D01*
X80219294Y-37170986D01*
X80184799Y-37235523D01*
X80115178Y-37118645D01*
X79920269Y-36902412D01*
X79686920Y-36728359D01*
X79424099Y-36603175D01*
X79276890Y-36558524D01*
X79047000Y-36679845D01*
X79047000Y-37873000D01*
X79067000Y-37873000D01*
X79067000Y-38127000D01*
X79047000Y-38127000D01*
X79047000Y-39320155D01*
X79276890Y-39441476D01*
X79424099Y-39396825D01*
X79686920Y-39271641D01*
X79920269Y-39097588D01*
X80115178Y-38881355D01*
X80184799Y-38764477D01*
X80219294Y-38829014D01*
X80404866Y-39055134D01*
X80630986Y-39240706D01*
X80888966Y-39378599D01*
X81168889Y-39463513D01*
X81387050Y-39485000D01*
X81532950Y-39485000D01*
X81751111Y-39463513D01*
X82031034Y-39378599D01*
X82289014Y-39240706D01*
X82515134Y-39055134D01*
X82539607Y-39025313D01*
X82560498Y-39094180D01*
X82619463Y-39204494D01*
X82698815Y-39301185D01*
X82795506Y-39380537D01*
X82905820Y-39439502D01*
X83025518Y-39475812D01*
X83150000Y-39488072D01*
X83240000Y-39488072D01*
X83240000Y-44550703D01*
X83125638Y-44489575D01*
X82818948Y-44396542D01*
X82579925Y-44373000D01*
X56173924Y-44373000D01*
X56116730Y-44315806D01*
X56103458Y-44181053D01*
X56010425Y-43874362D01*
X55859346Y-43591714D01*
X55656029Y-43343971D01*
X55408286Y-43140654D01*
X55125638Y-42989575D01*
X54818948Y-42896542D01*
X54500000Y-42865128D01*
X54181053Y-42896542D01*
X53874363Y-42989575D01*
X53591715Y-43140654D01*
X53343971Y-43343971D01*
X53140654Y-43591714D01*
X52989575Y-43874362D01*
X52896542Y-44181052D01*
X52873000Y-44420075D01*
X52873000Y-44920086D01*
X52865129Y-45000000D01*
X27127000Y-45000000D01*
X27127000Y-43500000D01*
X27105345Y-43280133D01*
X27041212Y-43068716D01*
X27004483Y-43000000D01*
X27041212Y-42931284D01*
X27105345Y-42719867D01*
X27127000Y-42500000D01*
X27127000Y-38356891D01*
X77478519Y-38356891D01*
X77575843Y-38631252D01*
X77724822Y-38881355D01*
X77919731Y-39097588D01*
X78153080Y-39271641D01*
X78415901Y-39396825D01*
X78563110Y-39441476D01*
X78793000Y-39320155D01*
X78793000Y-38127000D01*
X77599186Y-38127000D01*
X77478519Y-38356891D01*
X27127000Y-38356891D01*
X27127000Y-37643109D01*
X77478519Y-37643109D01*
X77599186Y-37873000D01*
X78793000Y-37873000D01*
X78793000Y-36679845D01*
X78563110Y-36558524D01*
X78415901Y-36603175D01*
X78153080Y-36728359D01*
X77919731Y-36902412D01*
X77724822Y-37118645D01*
X77575843Y-37368748D01*
X77478519Y-37643109D01*
X27127000Y-37643109D01*
X27127000Y-37500000D01*
X27105345Y-37280133D01*
X27041212Y-37068716D01*
X27004483Y-37000000D01*
X27041212Y-36931284D01*
X27105345Y-36719867D01*
X27127000Y-36500000D01*
X27127000Y-31500000D01*
X27105345Y-31280133D01*
X27041212Y-31068716D01*
X27004483Y-31000000D01*
X27041212Y-30931284D01*
X27105345Y-30719867D01*
X27127000Y-30500000D01*
X27127000Y-29540000D01*
X92057089Y-29540000D01*
X92088657Y-29860516D01*
X92182148Y-30168715D01*
X92333969Y-30452752D01*
X92538286Y-30701714D01*
X92787248Y-30906031D01*
X93071285Y-31057852D01*
X93379484Y-31151343D01*
X93619678Y-31175000D01*
X94380322Y-31175000D01*
X94620516Y-31151343D01*
X94928715Y-31057852D01*
X95212752Y-30906031D01*
X95461714Y-30701714D01*
X95666031Y-30452752D01*
X95817852Y-30168715D01*
X95911343Y-29860516D01*
X95942911Y-29540000D01*
X95911343Y-29219484D01*
X95817852Y-28911285D01*
X95666031Y-28627248D01*
X95607345Y-28555739D01*
X95654494Y-28530537D01*
X95751185Y-28451185D01*
X95830537Y-28354494D01*
X95889502Y-28244180D01*
X95925812Y-28124482D01*
X95938072Y-28000000D01*
X95938072Y-26000000D01*
X95925812Y-25875518D01*
X95889502Y-25755820D01*
X95830537Y-25645506D01*
X95751185Y-25548815D01*
X95654494Y-25469463D01*
X95544180Y-25410498D01*
X95424482Y-25374188D01*
X95300000Y-25361928D01*
X92700000Y-25361928D01*
X92575518Y-25374188D01*
X92455820Y-25410498D01*
X92345506Y-25469463D01*
X92248815Y-25548815D01*
X92169463Y-25645506D01*
X92110498Y-25755820D01*
X92074188Y-25875518D01*
X92061928Y-26000000D01*
X92061928Y-28000000D01*
X92074188Y-28124482D01*
X92110498Y-28244180D01*
X92169463Y-28354494D01*
X92248815Y-28451185D01*
X92345506Y-28530537D01*
X92392655Y-28555739D01*
X92333969Y-28627248D01*
X92182148Y-28911285D01*
X92088657Y-29219484D01*
X92057089Y-29540000D01*
X27127000Y-29540000D01*
X27127000Y-25500000D01*
X27105345Y-25280133D01*
X27041212Y-25068716D01*
X27004483Y-25000000D01*
X27041212Y-24931284D01*
X27105345Y-24719867D01*
X27127000Y-24500000D01*
X27127000Y-22540000D01*
X92057089Y-22540000D01*
X92088657Y-22860516D01*
X92182148Y-23168715D01*
X92333969Y-23452752D01*
X92538286Y-23701714D01*
X92787248Y-23906031D01*
X93071285Y-24057852D01*
X93379484Y-24151343D01*
X93619678Y-24175000D01*
X94380322Y-24175000D01*
X94620516Y-24151343D01*
X94928715Y-24057852D01*
X95212752Y-23906031D01*
X95461714Y-23701714D01*
X95666031Y-23452752D01*
X95817852Y-23168715D01*
X95911343Y-22860516D01*
X95942911Y-22540000D01*
X95911343Y-22219484D01*
X95817852Y-21911285D01*
X95666031Y-21627248D01*
X95607345Y-21555739D01*
X95654494Y-21530537D01*
X95751185Y-21451185D01*
X95830537Y-21354494D01*
X95889502Y-21244180D01*
X95925812Y-21124482D01*
X95938072Y-21000000D01*
X95938072Y-19000000D01*
X95925812Y-18875518D01*
X95889502Y-18755820D01*
X95830537Y-18645506D01*
X95751185Y-18548815D01*
X95654494Y-18469463D01*
X95544180Y-18410498D01*
X95424482Y-18374188D01*
X95300000Y-18361928D01*
X92700000Y-18361928D01*
X92575518Y-18374188D01*
X92455820Y-18410498D01*
X92345506Y-18469463D01*
X92248815Y-18548815D01*
X92169463Y-18645506D01*
X92110498Y-18755820D01*
X92074188Y-18875518D01*
X92061928Y-19000000D01*
X92061928Y-21000000D01*
X92074188Y-21124482D01*
X92110498Y-21244180D01*
X92169463Y-21354494D01*
X92248815Y-21451185D01*
X92345506Y-21530537D01*
X92392655Y-21555739D01*
X92333969Y-21627248D01*
X92182148Y-21911285D01*
X92088657Y-22219484D01*
X92057089Y-22540000D01*
X27127000Y-22540000D01*
X27127000Y-19500000D01*
X27105345Y-19280133D01*
X27041212Y-19068716D01*
X26937066Y-18873872D01*
X26796909Y-18703091D01*
X26626128Y-18562934D01*
X26431284Y-18458788D01*
X26219867Y-18394655D01*
X26000000Y-18373000D01*
X10500000Y-18373000D01*
X10280133Y-18394655D01*
X10068716Y-18458788D01*
X9873872Y-18562934D01*
X9703091Y-18703091D01*
X9562934Y-18873872D01*
X9458788Y-19068716D01*
X9394655Y-19280133D01*
X9373000Y-19500000D01*
X9373000Y-24500000D01*
X9394655Y-24719867D01*
X9458788Y-24931284D01*
X9495517Y-25000000D01*
X9458788Y-25068716D01*
X9394655Y-25280133D01*
X9373000Y-25500000D01*
X9373000Y-30500000D01*
X9394655Y-30719867D01*
X9458788Y-30931284D01*
X9495517Y-31000000D01*
X9458788Y-31068716D01*
X9394655Y-31280133D01*
X9373000Y-31500000D01*
X9373000Y-36500000D01*
X9394655Y-36719867D01*
X9458788Y-36931284D01*
X9495517Y-37000000D01*
X9458788Y-37068716D01*
X9394655Y-37280133D01*
X9373000Y-37500000D01*
X9373000Y-42500000D01*
X9394655Y-42719867D01*
X9458788Y-42931284D01*
X9495517Y-43000000D01*
X9458788Y-43068716D01*
X9394655Y-43280133D01*
X9373000Y-43500000D01*
X9373000Y-48500000D01*
X9394655Y-48719867D01*
X9458788Y-48931284D01*
X9495517Y-49000000D01*
X9458788Y-49068716D01*
X9394655Y-49280133D01*
X9373000Y-49500000D01*
X9373000Y-54500000D01*
X9394655Y-54719867D01*
X9458788Y-54931284D01*
X9495517Y-55000000D01*
X9458788Y-55068716D01*
X9394655Y-55280133D01*
X9373000Y-55500000D01*
X9373000Y-60500000D01*
X9394655Y-60719867D01*
X9458788Y-60931284D01*
X9469980Y-60952224D01*
X9407714Y-61068716D01*
X9343581Y-61280133D01*
X9321926Y-61500000D01*
X4774456Y-61500000D01*
X4792185Y-61320000D01*
X4763513Y-61028889D01*
X4678599Y-60748966D01*
X4540706Y-60490986D01*
X4355134Y-60264866D01*
X4129014Y-60079294D01*
X4074209Y-60050000D01*
X4129014Y-60020706D01*
X4355134Y-59835134D01*
X4540706Y-59609014D01*
X4678599Y-59351034D01*
X4763513Y-59071111D01*
X4792185Y-58780000D01*
X4763513Y-58488889D01*
X4678599Y-58208966D01*
X4540706Y-57950986D01*
X4355134Y-57724866D01*
X4129014Y-57539294D01*
X4074209Y-57510000D01*
X4129014Y-57480706D01*
X4355134Y-57295134D01*
X4540706Y-57069014D01*
X4678599Y-56811034D01*
X4763513Y-56531111D01*
X4792185Y-56240000D01*
X4763513Y-55948889D01*
X4678599Y-55668966D01*
X4540706Y-55410986D01*
X4355134Y-55184866D01*
X4129014Y-54999294D01*
X4074209Y-54970000D01*
X4129014Y-54940706D01*
X4355134Y-54755134D01*
X4540706Y-54529014D01*
X4678599Y-54271034D01*
X4763513Y-53991111D01*
X4792185Y-53700000D01*
X4763513Y-53408889D01*
X4678599Y-53128966D01*
X4540706Y-52870986D01*
X4355134Y-52644866D01*
X4129014Y-52459294D01*
X4074209Y-52430000D01*
X4129014Y-52400706D01*
X4355134Y-52215134D01*
X4540706Y-51989014D01*
X4678599Y-51731034D01*
X4763513Y-51451111D01*
X4792185Y-51160000D01*
X4763513Y-50868889D01*
X4678599Y-50588966D01*
X4540706Y-50330986D01*
X4355134Y-50104866D01*
X4129014Y-49919294D01*
X4074209Y-49890000D01*
X4129014Y-49860706D01*
X4355134Y-49675134D01*
X4540706Y-49449014D01*
X4678599Y-49191034D01*
X4763513Y-48911111D01*
X4792185Y-48620000D01*
X4763513Y-48328889D01*
X4678599Y-48048966D01*
X4540706Y-47790986D01*
X4355134Y-47564866D01*
X4129014Y-47379294D01*
X4074209Y-47350000D01*
X4129014Y-47320706D01*
X4355134Y-47135134D01*
X4540706Y-46909014D01*
X4678599Y-46651034D01*
X4763513Y-46371111D01*
X4792185Y-46080000D01*
X4763513Y-45788889D01*
X4678599Y-45508966D01*
X4540706Y-45250986D01*
X4355134Y-45024866D01*
X4129014Y-44839294D01*
X4074209Y-44810000D01*
X4129014Y-44780706D01*
X4355134Y-44595134D01*
X4540706Y-44369014D01*
X4678599Y-44111034D01*
X4763513Y-43831111D01*
X4792185Y-43540000D01*
X4763513Y-43248889D01*
X4678599Y-42968966D01*
X4540706Y-42710986D01*
X4355134Y-42484866D01*
X4129014Y-42299294D01*
X4074209Y-42270000D01*
X4129014Y-42240706D01*
X4355134Y-42055134D01*
X4540706Y-41829014D01*
X4678599Y-41571034D01*
X4763513Y-41291111D01*
X4792185Y-41000000D01*
X4763513Y-40708889D01*
X4678599Y-40428966D01*
X4540706Y-40170986D01*
X4355134Y-39944866D01*
X4129014Y-39759294D01*
X4074209Y-39730000D01*
X4129014Y-39700706D01*
X4355134Y-39515134D01*
X4540706Y-39289014D01*
X4678599Y-39031034D01*
X4763513Y-38751111D01*
X4792185Y-38460000D01*
X4763513Y-38168889D01*
X4678599Y-37888966D01*
X4540706Y-37630986D01*
X4355134Y-37404866D01*
X4129014Y-37219294D01*
X4074209Y-37190000D01*
X4129014Y-37160706D01*
X4355134Y-36975134D01*
X4540706Y-36749014D01*
X4678599Y-36491034D01*
X4763513Y-36211111D01*
X4792185Y-35920000D01*
X4763513Y-35628889D01*
X4678599Y-35348966D01*
X4540706Y-35090986D01*
X4355134Y-34864866D01*
X4129014Y-34679294D01*
X3871034Y-34541401D01*
X3591111Y-34456487D01*
X3372950Y-34435000D01*
X3227050Y-34435000D01*
X3008889Y-34456487D01*
X2728966Y-34541401D01*
X2470986Y-34679294D01*
X2244866Y-34864866D01*
X2059294Y-35090986D01*
X1921401Y-35348966D01*
X1836487Y-35628889D01*
X1807815Y-35920000D01*
X695000Y-35920000D01*
X695000Y-5030958D01*
X727078Y-4671531D01*
X1665000Y-4671531D01*
X1665000Y-5328469D01*
X1793162Y-5972784D01*
X2044561Y-6579715D01*
X2409536Y-7125939D01*
X2874061Y-7590464D01*
X3420285Y-7955439D01*
X4027216Y-8206838D01*
X4671531Y-8335000D01*
X5328469Y-8335000D01*
X5972784Y-8206838D01*
X6579715Y-7955439D01*
X7125939Y-7590464D01*
X7590464Y-7125939D01*
X7955439Y-6579715D01*
X8206838Y-5972784D01*
X8335000Y-5328469D01*
X8335000Y-4671531D01*
X91665000Y-4671531D01*
X91665000Y-5328469D01*
X91793162Y-5972784D01*
X92044561Y-6579715D01*
X92409536Y-7125939D01*
X92874061Y-7590464D01*
X93420285Y-7955439D01*
X94027216Y-8206838D01*
X94671531Y-8335000D01*
X95328469Y-8335000D01*
X95972784Y-8206838D01*
X96579715Y-7955439D01*
X97125939Y-7590464D01*
X97590464Y-7125939D01*
X97955439Y-6579715D01*
X98206838Y-5972784D01*
X98335000Y-5328469D01*
X98335000Y-4671531D01*
X98206838Y-4027216D01*
X97955439Y-3420285D01*
X97590464Y-2874061D01*
X97125939Y-2409536D01*
X96579715Y-2044561D01*
X95972784Y-1793162D01*
X95328469Y-1665000D01*
X94671531Y-1665000D01*
X94027216Y-1793162D01*
X93420285Y-2044561D01*
X92874061Y-2409536D01*
X92409536Y-2874061D01*
X92044561Y-3420285D01*
X91793162Y-4027216D01*
X91665000Y-4671531D01*
X8335000Y-4671531D01*
X8206838Y-4027216D01*
X7955439Y-3420285D01*
X7590464Y-2874061D01*
X7125939Y-2409536D01*
X6579715Y-2044561D01*
X5972784Y-1793162D01*
X5328469Y-1665000D01*
X4671531Y-1665000D01*
X4027216Y-1793162D01*
X3420285Y-2044561D01*
X2874061Y-2409536D01*
X2409536Y-2874061D01*
X2044561Y-3420285D01*
X1793162Y-4027216D01*
X1665000Y-4671531D01*
X727078Y-4671531D01*
X765758Y-4238135D01*
X967589Y-3500363D01*
X1296884Y-2809982D01*
X1743225Y-2188832D01*
X2292514Y-1656533D01*
X2927383Y-1229920D01*
X3627759Y-922476D01*
X4376860Y-742632D01*
X5025490Y-695000D01*
X94969042Y-695000D01*
X95761865Y-765758D01*
X95761865Y-765758D01*
G37*
X95761865Y-765758D02*
X96499637Y-967589D01*
X97190018Y-1296884D01*
X97811168Y-1743225D01*
X98343467Y-2292514D01*
X98770080Y-2927383D01*
X99077524Y-3627759D01*
X99257368Y-4376860D01*
X99305000Y-5025490D01*
X99305001Y-94969032D01*
X99234243Y-95761862D01*
X99032411Y-96499637D01*
X98703116Y-97190018D01*
X98256775Y-97811168D01*
X97707483Y-98343469D01*
X97072617Y-98770080D01*
X96372240Y-99077525D01*
X95623140Y-99257368D01*
X94974510Y-99305000D01*
X5030957Y-99305000D01*
X4238138Y-99234243D01*
X3500363Y-99032411D01*
X2809982Y-98703116D01*
X2188832Y-98256775D01*
X1656531Y-97707483D01*
X1229920Y-97072617D01*
X922475Y-96372240D01*
X742632Y-95623140D01*
X695000Y-94974510D01*
X695000Y-94671531D01*
X1665000Y-94671531D01*
X1665000Y-95328469D01*
X1793162Y-95972784D01*
X2044561Y-96579715D01*
X2409536Y-97125939D01*
X2874061Y-97590464D01*
X3420285Y-97955439D01*
X4027216Y-98206838D01*
X4671531Y-98335000D01*
X5328469Y-98335000D01*
X5972784Y-98206838D01*
X6579715Y-97955439D01*
X7125939Y-97590464D01*
X7590464Y-97125939D01*
X7908476Y-96650000D01*
X66011928Y-96650000D01*
X66011928Y-98350000D01*
X66024188Y-98474482D01*
X66060498Y-98594180D01*
X66119463Y-98704494D01*
X66198815Y-98801185D01*
X66295506Y-98880537D01*
X66405820Y-98939502D01*
X66525518Y-98975812D01*
X66650000Y-98988072D01*
X68350000Y-98988072D01*
X68474482Y-98975812D01*
X68594180Y-98939502D01*
X68704494Y-98880537D01*
X68801185Y-98801185D01*
X68880537Y-98704494D01*
X68939502Y-98594180D01*
X68960393Y-98525313D01*
X68984866Y-98555134D01*
X69210986Y-98740706D01*
X69468966Y-98878599D01*
X69748889Y-98963513D01*
X69967050Y-98985000D01*
X70112950Y-98985000D01*
X70331111Y-98963513D01*
X70611034Y-98878599D01*
X70869014Y-98740706D01*
X71095134Y-98555134D01*
X71280706Y-98329014D01*
X71310000Y-98274209D01*
X71339294Y-98329014D01*
X71524866Y-98555134D01*
X71750986Y-98740706D01*
X72008966Y-98878599D01*
X72288889Y-98963513D01*
X72507050Y-98985000D01*
X72652950Y-98985000D01*
X72871111Y-98963513D01*
X73151034Y-98878599D01*
X73409014Y-98740706D01*
X73635134Y-98555134D01*
X73820706Y-98329014D01*
X73850000Y-98274209D01*
X73879294Y-98329014D01*
X74064866Y-98555134D01*
X74290986Y-98740706D01*
X74548966Y-98878599D01*
X74828889Y-98963513D01*
X75047050Y-98985000D01*
X75192950Y-98985000D01*
X75411111Y-98963513D01*
X75691034Y-98878599D01*
X75949014Y-98740706D01*
X76175134Y-98555134D01*
X76360706Y-98329014D01*
X76390000Y-98274209D01*
X76419294Y-98329014D01*
X76604866Y-98555134D01*
X76830986Y-98740706D01*
X77088966Y-98878599D01*
X77368889Y-98963513D01*
X77587050Y-98985000D01*
X77732950Y-98985000D01*
X77951111Y-98963513D01*
X78231034Y-98878599D01*
X78489014Y-98740706D01*
X78715134Y-98555134D01*
X78900706Y-98329014D01*
X78935201Y-98264477D01*
X79004822Y-98381355D01*
X79199731Y-98597588D01*
X79433080Y-98771641D01*
X79695901Y-98896825D01*
X79843110Y-98941476D01*
X80073000Y-98820155D01*
X80073000Y-97627000D01*
X80327000Y-97627000D01*
X80327000Y-98820155D01*
X80556890Y-98941476D01*
X80704099Y-98896825D01*
X80966920Y-98771641D01*
X81200269Y-98597588D01*
X81395178Y-98381355D01*
X81544157Y-98131252D01*
X81641481Y-97856891D01*
X81520814Y-97627000D01*
X80327000Y-97627000D01*
X80073000Y-97627000D01*
X80053000Y-97627000D01*
X80053000Y-97373000D01*
X80073000Y-97373000D01*
X80073000Y-96179845D01*
X80327000Y-96179845D01*
X80327000Y-97373000D01*
X81520814Y-97373000D01*
X81641481Y-97143109D01*
X81544157Y-96868748D01*
X81395178Y-96618645D01*
X81200269Y-96402412D01*
X80966920Y-96228359D01*
X80704099Y-96103175D01*
X80556890Y-96058524D01*
X80327000Y-96179845D01*
X80073000Y-96179845D01*
X79843110Y-96058524D01*
X79695901Y-96103175D01*
X79433080Y-96228359D01*
X79199731Y-96402412D01*
X79004822Y-96618645D01*
X78935201Y-96735523D01*
X78900706Y-96670986D01*
X78715134Y-96444866D01*
X78489014Y-96259294D01*
X78231034Y-96121401D01*
X77951111Y-96036487D01*
X77732950Y-96015000D01*
X77587050Y-96015000D01*
X77368889Y-96036487D01*
X77088966Y-96121401D01*
X76830986Y-96259294D01*
X76604866Y-96444866D01*
X76419294Y-96670986D01*
X76390000Y-96725791D01*
X76360706Y-96670986D01*
X76175134Y-96444866D01*
X75949014Y-96259294D01*
X75691034Y-96121401D01*
X75411111Y-96036487D01*
X75192950Y-96015000D01*
X75047050Y-96015000D01*
X74828889Y-96036487D01*
X74548966Y-96121401D01*
X74290986Y-96259294D01*
X74064866Y-96444866D01*
X73879294Y-96670986D01*
X73850000Y-96725791D01*
X73820706Y-96670986D01*
X73635134Y-96444866D01*
X73409014Y-96259294D01*
X73151034Y-96121401D01*
X72871111Y-96036487D01*
X72652950Y-96015000D01*
X72507050Y-96015000D01*
X72288889Y-96036487D01*
X72008966Y-96121401D01*
X71750986Y-96259294D01*
X71524866Y-96444866D01*
X71339294Y-96670986D01*
X71310000Y-96725791D01*
X71280706Y-96670986D01*
X71095134Y-96444866D01*
X70869014Y-96259294D01*
X70611034Y-96121401D01*
X70331111Y-96036487D01*
X70112950Y-96015000D01*
X69967050Y-96015000D01*
X69748889Y-96036487D01*
X69468966Y-96121401D01*
X69210986Y-96259294D01*
X68984866Y-96444866D01*
X68960393Y-96474687D01*
X68939502Y-96405820D01*
X68880537Y-96295506D01*
X68801185Y-96198815D01*
X68704494Y-96119463D01*
X68594180Y-96060498D01*
X68474482Y-96024188D01*
X68350000Y-96011928D01*
X66650000Y-96011928D01*
X66525518Y-96024188D01*
X66405820Y-96060498D01*
X66295506Y-96119463D01*
X66198815Y-96198815D01*
X66119463Y-96295506D01*
X66060498Y-96405820D01*
X66024188Y-96525518D01*
X66011928Y-96650000D01*
X7908476Y-96650000D01*
X7955439Y-96579715D01*
X8206838Y-95972784D01*
X8335000Y-95328469D01*
X8335000Y-94671531D01*
X91665000Y-94671531D01*
X91665000Y-95328469D01*
X91793162Y-95972784D01*
X92044561Y-96579715D01*
X92409536Y-97125939D01*
X92874061Y-97590464D01*
X93420285Y-97955439D01*
X94027216Y-98206838D01*
X94671531Y-98335000D01*
X95328469Y-98335000D01*
X95972784Y-98206838D01*
X96579715Y-97955439D01*
X97125939Y-97590464D01*
X97590464Y-97125939D01*
X97955439Y-96579715D01*
X98206838Y-95972784D01*
X98335000Y-95328469D01*
X98335000Y-94671531D01*
X98206838Y-94027216D01*
X97955439Y-93420285D01*
X97590464Y-92874061D01*
X97125939Y-92409536D01*
X96579715Y-92044561D01*
X95972784Y-91793162D01*
X95328469Y-91665000D01*
X94671531Y-91665000D01*
X94027216Y-91793162D01*
X93420285Y-92044561D01*
X92874061Y-92409536D01*
X92409536Y-92874061D01*
X92044561Y-93420285D01*
X91793162Y-94027216D01*
X91665000Y-94671531D01*
X8335000Y-94671531D01*
X8206838Y-94027216D01*
X7955439Y-93420285D01*
X7590464Y-92874061D01*
X7125939Y-92409536D01*
X6579715Y-92044561D01*
X5972784Y-91793162D01*
X5328469Y-91665000D01*
X4671531Y-91665000D01*
X4027216Y-91793162D01*
X3420285Y-92044561D01*
X2874061Y-92409536D01*
X2409536Y-92874061D01*
X2044561Y-93420285D01*
X1793162Y-94027216D01*
X1665000Y-94671531D01*
X695000Y-94671531D01*
X695000Y-35920000D01*
X1807815Y-35920000D01*
X1836487Y-36211111D01*
X1921401Y-36491034D01*
X2059294Y-36749014D01*
X2244866Y-36975134D01*
X2470986Y-37160706D01*
X2525791Y-37190000D01*
X2470986Y-37219294D01*
X2244866Y-37404866D01*
X2059294Y-37630986D01*
X1921401Y-37888966D01*
X1836487Y-38168889D01*
X1807815Y-38460000D01*
X1836487Y-38751111D01*
X1921401Y-39031034D01*
X2059294Y-39289014D01*
X2244866Y-39515134D01*
X2470986Y-39700706D01*
X2525791Y-39730000D01*
X2470986Y-39759294D01*
X2244866Y-39944866D01*
X2059294Y-40170986D01*
X1921401Y-40428966D01*
X1836487Y-40708889D01*
X1807815Y-41000000D01*
X1836487Y-41291111D01*
X1921401Y-41571034D01*
X2059294Y-41829014D01*
X2244866Y-42055134D01*
X2470986Y-42240706D01*
X2525791Y-42270000D01*
X2470986Y-42299294D01*
X2244866Y-42484866D01*
X2059294Y-42710986D01*
X1921401Y-42968966D01*
X1836487Y-43248889D01*
X1807815Y-43540000D01*
X1836487Y-43831111D01*
X1921401Y-44111034D01*
X2059294Y-44369014D01*
X2244866Y-44595134D01*
X2470986Y-44780706D01*
X2525791Y-44810000D01*
X2470986Y-44839294D01*
X2244866Y-45024866D01*
X2059294Y-45250986D01*
X1921401Y-45508966D01*
X1836487Y-45788889D01*
X1807815Y-46080000D01*
X1836487Y-46371111D01*
X1921401Y-46651034D01*
X2059294Y-46909014D01*
X2244866Y-47135134D01*
X2470986Y-47320706D01*
X2525791Y-47350000D01*
X2470986Y-47379294D01*
X2244866Y-47564866D01*
X2059294Y-47790986D01*
X1921401Y-48048966D01*
X1836487Y-48328889D01*
X1807815Y-48620000D01*
X1836487Y-48911111D01*
X1921401Y-49191034D01*
X2059294Y-49449014D01*
X2244866Y-49675134D01*
X2470986Y-49860706D01*
X2525791Y-49890000D01*
X2470986Y-49919294D01*
X2244866Y-50104866D01*
X2059294Y-50330986D01*
X1921401Y-50588966D01*
X1836487Y-50868889D01*
X1807815Y-51160000D01*
X1836487Y-51451111D01*
X1921401Y-51731034D01*
X2059294Y-51989014D01*
X2244866Y-52215134D01*
X2470986Y-52400706D01*
X2525791Y-52430000D01*
X2470986Y-52459294D01*
X2244866Y-52644866D01*
X2059294Y-52870986D01*
X1921401Y-53128966D01*
X1836487Y-53408889D01*
X1807815Y-53700000D01*
X1836487Y-53991111D01*
X1921401Y-54271034D01*
X2059294Y-54529014D01*
X2244866Y-54755134D01*
X2470986Y-54940706D01*
X2525791Y-54970000D01*
X2470986Y-54999294D01*
X2244866Y-55184866D01*
X2059294Y-55410986D01*
X1921401Y-55668966D01*
X1836487Y-55948889D01*
X1807815Y-56240000D01*
X1836487Y-56531111D01*
X1921401Y-56811034D01*
X2059294Y-57069014D01*
X2244866Y-57295134D01*
X2470986Y-57480706D01*
X2525791Y-57510000D01*
X2470986Y-57539294D01*
X2244866Y-57724866D01*
X2059294Y-57950986D01*
X1921401Y-58208966D01*
X1836487Y-58488889D01*
X1807815Y-58780000D01*
X1836487Y-59071111D01*
X1921401Y-59351034D01*
X2059294Y-59609014D01*
X2244866Y-59835134D01*
X2470986Y-60020706D01*
X2525791Y-60050000D01*
X2470986Y-60079294D01*
X2244866Y-60264866D01*
X2059294Y-60490986D01*
X1921401Y-60748966D01*
X1836487Y-61028889D01*
X1807815Y-61320000D01*
X1836487Y-61611111D01*
X1921401Y-61891034D01*
X2059294Y-62149014D01*
X2244866Y-62375134D01*
X2470986Y-62560706D01*
X2525791Y-62590000D01*
X2470986Y-62619294D01*
X2244866Y-62804866D01*
X2059294Y-63030986D01*
X1921401Y-63288966D01*
X1836487Y-63568889D01*
X1807815Y-63860000D01*
X1836487Y-64151111D01*
X1921401Y-64431034D01*
X2059294Y-64689014D01*
X2244866Y-64915134D01*
X2274687Y-64939607D01*
X2205820Y-64960498D01*
X2095506Y-65019463D01*
X1998815Y-65098815D01*
X1919463Y-65195506D01*
X1860498Y-65305820D01*
X1824188Y-65425518D01*
X1811928Y-65550000D01*
X1811928Y-67250000D01*
X1824188Y-67374482D01*
X1860498Y-67494180D01*
X1919463Y-67604494D01*
X1998815Y-67701185D01*
X2095506Y-67780537D01*
X2205820Y-67839502D01*
X2325518Y-67875812D01*
X2450000Y-67888072D01*
X4150000Y-67888072D01*
X4274482Y-67875812D01*
X4394180Y-67839502D01*
X4504494Y-67780537D01*
X4601185Y-67701185D01*
X4680537Y-67604494D01*
X4739502Y-67494180D01*
X4775812Y-67374482D01*
X4788072Y-67250000D01*
X4788072Y-65550000D01*
X4775812Y-65425518D01*
X4739502Y-65305820D01*
X4680537Y-65195506D01*
X4601185Y-65098815D01*
X4504494Y-65019463D01*
X4394180Y-64960498D01*
X4325313Y-64939607D01*
X4355134Y-64915134D01*
X4540706Y-64689014D01*
X4678599Y-64431034D01*
X4763513Y-64151111D01*
X4792185Y-63860000D01*
X4763513Y-63568889D01*
X4678599Y-63288966D01*
X4540706Y-63030986D01*
X4355134Y-62804866D01*
X4129014Y-62619294D01*
X4074209Y-62590000D01*
X4129014Y-62560706D01*
X4355134Y-62375134D01*
X4540706Y-62149014D01*
X4678599Y-61891034D01*
X4763513Y-61611111D01*
X4774456Y-61500000D01*
X9321926Y-61500000D01*
X9321926Y-66500000D01*
X9343581Y-66719867D01*
X9407714Y-66931284D01*
X9469980Y-67047776D01*
X9458788Y-67068716D01*
X9394655Y-67280133D01*
X9373000Y-67500000D01*
X9373000Y-72500000D01*
X9394655Y-72719867D01*
X9458788Y-72931284D01*
X9495517Y-73000000D01*
X9458788Y-73068716D01*
X9394655Y-73280133D01*
X9373000Y-73500000D01*
X9373000Y-78500000D01*
X9394655Y-78719867D01*
X9458788Y-78931284D01*
X9495517Y-79000000D01*
X9458788Y-79068716D01*
X9394655Y-79280133D01*
X9373000Y-79500000D01*
X9373000Y-84500000D01*
X9394655Y-84719867D01*
X9458788Y-84931284D01*
X9495517Y-85000000D01*
X9458788Y-85068716D01*
X9394655Y-85280133D01*
X9373000Y-85500000D01*
X9373000Y-90500000D01*
X9394655Y-90719867D01*
X9458788Y-90931284D01*
X9562934Y-91126128D01*
X9703091Y-91296909D01*
X9873872Y-91437066D01*
X10068716Y-91541212D01*
X10280133Y-91605345D01*
X10500000Y-91627000D01*
X26000000Y-91627000D01*
X26219867Y-91605345D01*
X26431284Y-91541212D01*
X26626128Y-91437066D01*
X26796909Y-91296909D01*
X26937066Y-91126128D01*
X27041212Y-90931284D01*
X27105345Y-90719867D01*
X27127000Y-90500000D01*
X27127000Y-85500000D01*
X27105345Y-85280133D01*
X27041212Y-85068716D01*
X27004483Y-85000000D01*
X27041212Y-84931284D01*
X27105345Y-84719867D01*
X27127000Y-84500000D01*
X27127000Y-79500000D01*
X27105345Y-79280133D01*
X27041212Y-79068716D01*
X27004483Y-79000000D01*
X27041212Y-78931284D01*
X27105345Y-78719867D01*
X27127000Y-78500000D01*
X27127000Y-73500000D01*
X27105345Y-73280133D01*
X27041212Y-73068716D01*
X27004483Y-73000000D01*
X27041212Y-72931284D01*
X27105345Y-72719867D01*
X27127000Y-72500000D01*
X27127000Y-67500000D01*
X27105345Y-67280133D01*
X27041212Y-67068716D01*
X26978946Y-66952224D01*
X26990138Y-66931284D01*
X27054271Y-66719867D01*
X27075926Y-66500000D01*
X27075926Y-61500000D01*
X27054271Y-61280133D01*
X26990138Y-61068716D01*
X26978946Y-61047776D01*
X27041212Y-60931284D01*
X27105345Y-60719867D01*
X27127000Y-60500000D01*
X27127000Y-55500000D01*
X27105345Y-55280133D01*
X27041212Y-55068716D01*
X27004483Y-55000000D01*
X27041212Y-54931284D01*
X27105345Y-54719867D01*
X27127000Y-54500000D01*
X27127000Y-54398061D01*
X63965000Y-54398061D01*
X63965000Y-54601939D01*
X64004774Y-54801898D01*
X64082795Y-54990256D01*
X64196063Y-55159774D01*
X64240001Y-55203712D01*
X64240000Y-86362678D01*
X64236324Y-86400000D01*
X64240000Y-86437322D01*
X64240000Y-86437332D01*
X64250997Y-86548985D01*
X64286189Y-86665000D01*
X64294454Y-86692246D01*
X64365026Y-86824276D01*
X64404871Y-86872826D01*
X64459999Y-86940001D01*
X64489003Y-86963804D01*
X65265000Y-87739802D01*
X65265000Y-87801939D01*
X65304774Y-88001898D01*
X65382795Y-88190256D01*
X65496063Y-88359774D01*
X65640226Y-88503937D01*
X65809744Y-88617205D01*
X65998102Y-88695226D01*
X66198061Y-88735000D01*
X66401939Y-88735000D01*
X66601898Y-88695226D01*
X66790256Y-88617205D01*
X66959774Y-88503937D01*
X67003711Y-88460000D01*
X69596289Y-88460000D01*
X69640226Y-88503937D01*
X69809744Y-88617205D01*
X69998102Y-88695226D01*
X70198061Y-88735000D01*
X70401939Y-88735000D01*
X70601898Y-88695226D01*
X70790256Y-88617205D01*
X70959774Y-88503937D01*
X71003711Y-88460000D01*
X73596289Y-88460000D01*
X73640226Y-88503937D01*
X73809744Y-88617205D01*
X73998102Y-88695226D01*
X74198061Y-88735000D01*
X74401939Y-88735000D01*
X74601898Y-88695226D01*
X74790256Y-88617205D01*
X74959774Y-88503937D01*
X75003711Y-88460000D01*
X77596289Y-88460000D01*
X77640226Y-88503937D01*
X77809744Y-88617205D01*
X77998102Y-88695226D01*
X78198061Y-88735000D01*
X78401939Y-88735000D01*
X78601898Y-88695226D01*
X78790256Y-88617205D01*
X78959774Y-88503937D01*
X79003711Y-88460000D01*
X81596289Y-88460000D01*
X81640226Y-88503937D01*
X81809744Y-88617205D01*
X81998102Y-88695226D01*
X82198061Y-88735000D01*
X82401939Y-88735000D01*
X82601898Y-88695226D01*
X82790256Y-88617205D01*
X82959774Y-88503937D01*
X83103937Y-88359774D01*
X83217205Y-88190256D01*
X83295226Y-88001898D01*
X83335000Y-87801939D01*
X83335000Y-87598061D01*
X83295226Y-87398102D01*
X83217205Y-87209744D01*
X83103937Y-87040226D01*
X82959774Y-86896063D01*
X82790256Y-86782795D01*
X82601898Y-86704774D01*
X82401939Y-86665000D01*
X82198061Y-86665000D01*
X81998102Y-86704774D01*
X81809744Y-86782795D01*
X81640226Y-86896063D01*
X81596289Y-86940000D01*
X79003711Y-86940000D01*
X78959774Y-86896063D01*
X78790256Y-86782795D01*
X78601898Y-86704774D01*
X78401939Y-86665000D01*
X78198061Y-86665000D01*
X77998102Y-86704774D01*
X77809744Y-86782795D01*
X77640226Y-86896063D01*
X77596289Y-86940000D01*
X75003711Y-86940000D01*
X74959774Y-86896063D01*
X74790256Y-86782795D01*
X74601898Y-86704774D01*
X74401939Y-86665000D01*
X74198061Y-86665000D01*
X73998102Y-86704774D01*
X73809744Y-86782795D01*
X73640226Y-86896063D01*
X73596289Y-86940000D01*
X71003711Y-86940000D01*
X70959774Y-86896063D01*
X70790256Y-86782795D01*
X70601898Y-86704774D01*
X70401939Y-86665000D01*
X70198061Y-86665000D01*
X69998102Y-86704774D01*
X69809744Y-86782795D01*
X69640226Y-86896063D01*
X69596289Y-86940000D01*
X67003711Y-86940000D01*
X66959774Y-86896063D01*
X66790256Y-86782795D01*
X66601898Y-86704774D01*
X66401939Y-86665000D01*
X66339802Y-86665000D01*
X65760000Y-86085199D01*
X65760000Y-56356891D01*
X77520014Y-56356891D01*
X77617338Y-56631252D01*
X77766317Y-56881355D01*
X77961226Y-57097588D01*
X78194575Y-57271641D01*
X78457396Y-57396825D01*
X78604605Y-57441476D01*
X78834495Y-57320155D01*
X78834495Y-56127000D01*
X77640681Y-56127000D01*
X77520014Y-56356891D01*
X65760000Y-56356891D01*
X65760000Y-55643109D01*
X77520014Y-55643109D01*
X77640681Y-55873000D01*
X78834495Y-55873000D01*
X78834495Y-54679845D01*
X78604605Y-54558524D01*
X78457396Y-54603175D01*
X78194575Y-54728359D01*
X77961226Y-54902412D01*
X77766317Y-55118645D01*
X77617338Y-55368748D01*
X77520014Y-55643109D01*
X65760000Y-55643109D01*
X65760000Y-55203711D01*
X65803937Y-55159774D01*
X65917205Y-54990256D01*
X65995226Y-54801898D01*
X66035000Y-54601939D01*
X66035000Y-54398061D01*
X65995226Y-54198102D01*
X65917205Y-54009744D01*
X65803937Y-53840226D01*
X65659774Y-53696063D01*
X65490256Y-53582795D01*
X65301898Y-53504774D01*
X65101939Y-53465000D01*
X64898061Y-53465000D01*
X64698102Y-53504774D01*
X64509744Y-53582795D01*
X64340226Y-53696063D01*
X64196063Y-53840226D01*
X64082795Y-54009744D01*
X64004774Y-54198102D01*
X63965000Y-54398061D01*
X27127000Y-54398061D01*
X27127000Y-49500000D01*
X27105345Y-49280133D01*
X27041212Y-49068716D01*
X27004483Y-49000000D01*
X27041212Y-48931284D01*
X27105345Y-48719867D01*
X27127000Y-48500000D01*
X27127000Y-45000000D01*
X52865129Y-45000000D01*
X52873000Y-45079914D01*
X52873000Y-45079924D01*
X52896542Y-45318947D01*
X52989575Y-45625637D01*
X53140654Y-45908285D01*
X53343971Y-46156029D01*
X53406055Y-46206980D01*
X54293016Y-47093940D01*
X54343971Y-47156029D01*
X54591714Y-47359346D01*
X54874362Y-47510425D01*
X55181052Y-47603458D01*
X55500000Y-47634872D01*
X55579925Y-47627000D01*
X82579925Y-47627000D01*
X82818948Y-47603458D01*
X83125638Y-47510425D01*
X83240001Y-47449297D01*
X83240001Y-54511928D01*
X83191495Y-54511928D01*
X83067013Y-54524188D01*
X82947315Y-54560498D01*
X82837001Y-54619463D01*
X82740310Y-54698815D01*
X82660958Y-54795506D01*
X82601993Y-54905820D01*
X82581102Y-54974687D01*
X82556629Y-54944866D01*
X82330509Y-54759294D01*
X82072529Y-54621401D01*
X81792606Y-54536487D01*
X81574445Y-54515000D01*
X81428545Y-54515000D01*
X81210384Y-54536487D01*
X80930461Y-54621401D01*
X80672481Y-54759294D01*
X80446361Y-54944866D01*
X80260789Y-55170986D01*
X80226294Y-55235523D01*
X80156673Y-55118645D01*
X79961764Y-54902412D01*
X79728415Y-54728359D01*
X79465594Y-54603175D01*
X79318385Y-54558524D01*
X79088495Y-54679845D01*
X79088495Y-55873000D01*
X79108495Y-55873000D01*
X79108495Y-56127000D01*
X79088495Y-56127000D01*
X79088495Y-57320155D01*
X79318385Y-57441476D01*
X79465594Y-57396825D01*
X79728415Y-57271641D01*
X79961764Y-57097588D01*
X80156673Y-56881355D01*
X80226294Y-56764477D01*
X80260789Y-56829014D01*
X80446361Y-57055134D01*
X80672481Y-57240706D01*
X80930461Y-57378599D01*
X81210384Y-57463513D01*
X81428545Y-57485000D01*
X81574445Y-57485000D01*
X81792606Y-57463513D01*
X82072529Y-57378599D01*
X82330509Y-57240706D01*
X82556629Y-57055134D01*
X82581102Y-57025313D01*
X82601993Y-57094180D01*
X82660958Y-57204494D01*
X82740310Y-57301185D01*
X82837001Y-57380537D01*
X82947315Y-57439502D01*
X83067013Y-57475812D01*
X83191495Y-57488072D01*
X84891495Y-57488072D01*
X85015977Y-57475812D01*
X85135675Y-57439502D01*
X85245989Y-57380537D01*
X85342680Y-57301185D01*
X85422032Y-57204494D01*
X85480997Y-57094180D01*
X85517307Y-56974482D01*
X85529567Y-56850000D01*
X85529567Y-55150000D01*
X85517307Y-55025518D01*
X85480997Y-54905820D01*
X85422032Y-54795506D01*
X85342680Y-54698815D01*
X85245989Y-54619463D01*
X85135675Y-54560498D01*
X85015977Y-54524188D01*
X84891495Y-54511928D01*
X84760000Y-54511928D01*
X84760000Y-39488072D01*
X84850000Y-39488072D01*
X84974482Y-39475812D01*
X85094180Y-39439502D01*
X85204494Y-39380537D01*
X85301185Y-39301185D01*
X85380537Y-39204494D01*
X85439502Y-39094180D01*
X85475812Y-38974482D01*
X85488072Y-38850000D01*
X85488072Y-37150000D01*
X85475812Y-37025518D01*
X85439502Y-36905820D01*
X85380537Y-36795506D01*
X85301185Y-36698815D01*
X85204494Y-36619463D01*
X85094180Y-36560498D01*
X84974482Y-36524188D01*
X84850000Y-36511928D01*
X83150000Y-36511928D01*
X83025518Y-36524188D01*
X82905820Y-36560498D01*
X82795506Y-36619463D01*
X82698815Y-36698815D01*
X82619463Y-36795506D01*
X82560498Y-36905820D01*
X82539607Y-36974687D01*
X82515134Y-36944866D01*
X82289014Y-36759294D01*
X82031034Y-36621401D01*
X81751111Y-36536487D01*
X81532950Y-36515000D01*
X81387050Y-36515000D01*
X81168889Y-36536487D01*
X80888966Y-36621401D01*
X80630986Y-36759294D01*
X80404866Y-36944866D01*
X80219294Y-37170986D01*
X80184799Y-37235523D01*
X80115178Y-37118645D01*
X79920269Y-36902412D01*
X79686920Y-36728359D01*
X79424099Y-36603175D01*
X79276890Y-36558524D01*
X79047000Y-36679845D01*
X79047000Y-37873000D01*
X79067000Y-37873000D01*
X79067000Y-38127000D01*
X79047000Y-38127000D01*
X79047000Y-39320155D01*
X79276890Y-39441476D01*
X79424099Y-39396825D01*
X79686920Y-39271641D01*
X79920269Y-39097588D01*
X80115178Y-38881355D01*
X80184799Y-38764477D01*
X80219294Y-38829014D01*
X80404866Y-39055134D01*
X80630986Y-39240706D01*
X80888966Y-39378599D01*
X81168889Y-39463513D01*
X81387050Y-39485000D01*
X81532950Y-39485000D01*
X81751111Y-39463513D01*
X82031034Y-39378599D01*
X82289014Y-39240706D01*
X82515134Y-39055134D01*
X82539607Y-39025313D01*
X82560498Y-39094180D01*
X82619463Y-39204494D01*
X82698815Y-39301185D01*
X82795506Y-39380537D01*
X82905820Y-39439502D01*
X83025518Y-39475812D01*
X83150000Y-39488072D01*
X83240000Y-39488072D01*
X83240000Y-44550703D01*
X83125638Y-44489575D01*
X82818948Y-44396542D01*
X82579925Y-44373000D01*
X56173924Y-44373000D01*
X56116730Y-44315806D01*
X56103458Y-44181053D01*
X56010425Y-43874362D01*
X55859346Y-43591714D01*
X55656029Y-43343971D01*
X55408286Y-43140654D01*
X55125638Y-42989575D01*
X54818948Y-42896542D01*
X54500000Y-42865128D01*
X54181053Y-42896542D01*
X53874363Y-42989575D01*
X53591715Y-43140654D01*
X53343971Y-43343971D01*
X53140654Y-43591714D01*
X52989575Y-43874362D01*
X52896542Y-44181052D01*
X52873000Y-44420075D01*
X52873000Y-44920086D01*
X52865129Y-45000000D01*
X27127000Y-45000000D01*
X27127000Y-43500000D01*
X27105345Y-43280133D01*
X27041212Y-43068716D01*
X27004483Y-43000000D01*
X27041212Y-42931284D01*
X27105345Y-42719867D01*
X27127000Y-42500000D01*
X27127000Y-38356891D01*
X77478519Y-38356891D01*
X77575843Y-38631252D01*
X77724822Y-38881355D01*
X77919731Y-39097588D01*
X78153080Y-39271641D01*
X78415901Y-39396825D01*
X78563110Y-39441476D01*
X78793000Y-39320155D01*
X78793000Y-38127000D01*
X77599186Y-38127000D01*
X77478519Y-38356891D01*
X27127000Y-38356891D01*
X27127000Y-37643109D01*
X77478519Y-37643109D01*
X77599186Y-37873000D01*
X78793000Y-37873000D01*
X78793000Y-36679845D01*
X78563110Y-36558524D01*
X78415901Y-36603175D01*
X78153080Y-36728359D01*
X77919731Y-36902412D01*
X77724822Y-37118645D01*
X77575843Y-37368748D01*
X77478519Y-37643109D01*
X27127000Y-37643109D01*
X27127000Y-37500000D01*
X27105345Y-37280133D01*
X27041212Y-37068716D01*
X27004483Y-37000000D01*
X27041212Y-36931284D01*
X27105345Y-36719867D01*
X27127000Y-36500000D01*
X27127000Y-31500000D01*
X27105345Y-31280133D01*
X27041212Y-31068716D01*
X27004483Y-31000000D01*
X27041212Y-30931284D01*
X27105345Y-30719867D01*
X27127000Y-30500000D01*
X27127000Y-29540000D01*
X92057089Y-29540000D01*
X92088657Y-29860516D01*
X92182148Y-30168715D01*
X92333969Y-30452752D01*
X92538286Y-30701714D01*
X92787248Y-30906031D01*
X93071285Y-31057852D01*
X93379484Y-31151343D01*
X93619678Y-31175000D01*
X94380322Y-31175000D01*
X94620516Y-31151343D01*
X94928715Y-31057852D01*
X95212752Y-30906031D01*
X95461714Y-30701714D01*
X95666031Y-30452752D01*
X95817852Y-30168715D01*
X95911343Y-29860516D01*
X95942911Y-29540000D01*
X95911343Y-29219484D01*
X95817852Y-28911285D01*
X95666031Y-28627248D01*
X95607345Y-28555739D01*
X95654494Y-28530537D01*
X95751185Y-28451185D01*
X95830537Y-28354494D01*
X95889502Y-28244180D01*
X95925812Y-28124482D01*
X95938072Y-28000000D01*
X95938072Y-26000000D01*
X95925812Y-25875518D01*
X95889502Y-25755820D01*
X95830537Y-25645506D01*
X95751185Y-25548815D01*
X95654494Y-25469463D01*
X95544180Y-25410498D01*
X95424482Y-25374188D01*
X95300000Y-25361928D01*
X92700000Y-25361928D01*
X92575518Y-25374188D01*
X92455820Y-25410498D01*
X92345506Y-25469463D01*
X92248815Y-25548815D01*
X92169463Y-25645506D01*
X92110498Y-25755820D01*
X92074188Y-25875518D01*
X92061928Y-26000000D01*
X92061928Y-28000000D01*
X92074188Y-28124482D01*
X92110498Y-28244180D01*
X92169463Y-28354494D01*
X92248815Y-28451185D01*
X92345506Y-28530537D01*
X92392655Y-28555739D01*
X92333969Y-28627248D01*
X92182148Y-28911285D01*
X92088657Y-29219484D01*
X92057089Y-29540000D01*
X27127000Y-29540000D01*
X27127000Y-25500000D01*
X27105345Y-25280133D01*
X27041212Y-25068716D01*
X27004483Y-25000000D01*
X27041212Y-24931284D01*
X27105345Y-24719867D01*
X27127000Y-24500000D01*
X27127000Y-22540000D01*
X92057089Y-22540000D01*
X92088657Y-22860516D01*
X92182148Y-23168715D01*
X92333969Y-23452752D01*
X92538286Y-23701714D01*
X92787248Y-23906031D01*
X93071285Y-24057852D01*
X93379484Y-24151343D01*
X93619678Y-24175000D01*
X94380322Y-24175000D01*
X94620516Y-24151343D01*
X94928715Y-24057852D01*
X95212752Y-23906031D01*
X95461714Y-23701714D01*
X95666031Y-23452752D01*
X95817852Y-23168715D01*
X95911343Y-22860516D01*
X95942911Y-22540000D01*
X95911343Y-22219484D01*
X95817852Y-21911285D01*
X95666031Y-21627248D01*
X95607345Y-21555739D01*
X95654494Y-21530537D01*
X95751185Y-21451185D01*
X95830537Y-21354494D01*
X95889502Y-21244180D01*
X95925812Y-21124482D01*
X95938072Y-21000000D01*
X95938072Y-19000000D01*
X95925812Y-18875518D01*
X95889502Y-18755820D01*
X95830537Y-18645506D01*
X95751185Y-18548815D01*
X95654494Y-18469463D01*
X95544180Y-18410498D01*
X95424482Y-18374188D01*
X95300000Y-18361928D01*
X92700000Y-18361928D01*
X92575518Y-18374188D01*
X92455820Y-18410498D01*
X92345506Y-18469463D01*
X92248815Y-18548815D01*
X92169463Y-18645506D01*
X92110498Y-18755820D01*
X92074188Y-18875518D01*
X92061928Y-19000000D01*
X92061928Y-21000000D01*
X92074188Y-21124482D01*
X92110498Y-21244180D01*
X92169463Y-21354494D01*
X92248815Y-21451185D01*
X92345506Y-21530537D01*
X92392655Y-21555739D01*
X92333969Y-21627248D01*
X92182148Y-21911285D01*
X92088657Y-22219484D01*
X92057089Y-22540000D01*
X27127000Y-22540000D01*
X27127000Y-19500000D01*
X27105345Y-19280133D01*
X27041212Y-19068716D01*
X26937066Y-18873872D01*
X26796909Y-18703091D01*
X26626128Y-18562934D01*
X26431284Y-18458788D01*
X26219867Y-18394655D01*
X26000000Y-18373000D01*
X10500000Y-18373000D01*
X10280133Y-18394655D01*
X10068716Y-18458788D01*
X9873872Y-18562934D01*
X9703091Y-18703091D01*
X9562934Y-18873872D01*
X9458788Y-19068716D01*
X9394655Y-19280133D01*
X9373000Y-19500000D01*
X9373000Y-24500000D01*
X9394655Y-24719867D01*
X9458788Y-24931284D01*
X9495517Y-25000000D01*
X9458788Y-25068716D01*
X9394655Y-25280133D01*
X9373000Y-25500000D01*
X9373000Y-30500000D01*
X9394655Y-30719867D01*
X9458788Y-30931284D01*
X9495517Y-31000000D01*
X9458788Y-31068716D01*
X9394655Y-31280133D01*
X9373000Y-31500000D01*
X9373000Y-36500000D01*
X9394655Y-36719867D01*
X9458788Y-36931284D01*
X9495517Y-37000000D01*
X9458788Y-37068716D01*
X9394655Y-37280133D01*
X9373000Y-37500000D01*
X9373000Y-42500000D01*
X9394655Y-42719867D01*
X9458788Y-42931284D01*
X9495517Y-43000000D01*
X9458788Y-43068716D01*
X9394655Y-43280133D01*
X9373000Y-43500000D01*
X9373000Y-48500000D01*
X9394655Y-48719867D01*
X9458788Y-48931284D01*
X9495517Y-49000000D01*
X9458788Y-49068716D01*
X9394655Y-49280133D01*
X9373000Y-49500000D01*
X9373000Y-54500000D01*
X9394655Y-54719867D01*
X9458788Y-54931284D01*
X9495517Y-55000000D01*
X9458788Y-55068716D01*
X9394655Y-55280133D01*
X9373000Y-55500000D01*
X9373000Y-60500000D01*
X9394655Y-60719867D01*
X9458788Y-60931284D01*
X9469980Y-60952224D01*
X9407714Y-61068716D01*
X9343581Y-61280133D01*
X9321926Y-61500000D01*
X4774456Y-61500000D01*
X4792185Y-61320000D01*
X4763513Y-61028889D01*
X4678599Y-60748966D01*
X4540706Y-60490986D01*
X4355134Y-60264866D01*
X4129014Y-60079294D01*
X4074209Y-60050000D01*
X4129014Y-60020706D01*
X4355134Y-59835134D01*
X4540706Y-59609014D01*
X4678599Y-59351034D01*
X4763513Y-59071111D01*
X4792185Y-58780000D01*
X4763513Y-58488889D01*
X4678599Y-58208966D01*
X4540706Y-57950986D01*
X4355134Y-57724866D01*
X4129014Y-57539294D01*
X4074209Y-57510000D01*
X4129014Y-57480706D01*
X4355134Y-57295134D01*
X4540706Y-57069014D01*
X4678599Y-56811034D01*
X4763513Y-56531111D01*
X4792185Y-56240000D01*
X4763513Y-55948889D01*
X4678599Y-55668966D01*
X4540706Y-55410986D01*
X4355134Y-55184866D01*
X4129014Y-54999294D01*
X4074209Y-54970000D01*
X4129014Y-54940706D01*
X4355134Y-54755134D01*
X4540706Y-54529014D01*
X4678599Y-54271034D01*
X4763513Y-53991111D01*
X4792185Y-53700000D01*
X4763513Y-53408889D01*
X4678599Y-53128966D01*
X4540706Y-52870986D01*
X4355134Y-52644866D01*
X4129014Y-52459294D01*
X4074209Y-52430000D01*
X4129014Y-52400706D01*
X4355134Y-52215134D01*
X4540706Y-51989014D01*
X4678599Y-51731034D01*
X4763513Y-51451111D01*
X4792185Y-51160000D01*
X4763513Y-50868889D01*
X4678599Y-50588966D01*
X4540706Y-50330986D01*
X4355134Y-50104866D01*
X4129014Y-49919294D01*
X4074209Y-49890000D01*
X4129014Y-49860706D01*
X4355134Y-49675134D01*
X4540706Y-49449014D01*
X4678599Y-49191034D01*
X4763513Y-48911111D01*
X4792185Y-48620000D01*
X4763513Y-48328889D01*
X4678599Y-48048966D01*
X4540706Y-47790986D01*
X4355134Y-47564866D01*
X4129014Y-47379294D01*
X4074209Y-47350000D01*
X4129014Y-47320706D01*
X4355134Y-47135134D01*
X4540706Y-46909014D01*
X4678599Y-46651034D01*
X4763513Y-46371111D01*
X4792185Y-46080000D01*
X4763513Y-45788889D01*
X4678599Y-45508966D01*
X4540706Y-45250986D01*
X4355134Y-45024866D01*
X4129014Y-44839294D01*
X4074209Y-44810000D01*
X4129014Y-44780706D01*
X4355134Y-44595134D01*
X4540706Y-44369014D01*
X4678599Y-44111034D01*
X4763513Y-43831111D01*
X4792185Y-43540000D01*
X4763513Y-43248889D01*
X4678599Y-42968966D01*
X4540706Y-42710986D01*
X4355134Y-42484866D01*
X4129014Y-42299294D01*
X4074209Y-42270000D01*
X4129014Y-42240706D01*
X4355134Y-42055134D01*
X4540706Y-41829014D01*
X4678599Y-41571034D01*
X4763513Y-41291111D01*
X4792185Y-41000000D01*
X4763513Y-40708889D01*
X4678599Y-40428966D01*
X4540706Y-40170986D01*
X4355134Y-39944866D01*
X4129014Y-39759294D01*
X4074209Y-39730000D01*
X4129014Y-39700706D01*
X4355134Y-39515134D01*
X4540706Y-39289014D01*
X4678599Y-39031034D01*
X4763513Y-38751111D01*
X4792185Y-38460000D01*
X4763513Y-38168889D01*
X4678599Y-37888966D01*
X4540706Y-37630986D01*
X4355134Y-37404866D01*
X4129014Y-37219294D01*
X4074209Y-37190000D01*
X4129014Y-37160706D01*
X4355134Y-36975134D01*
X4540706Y-36749014D01*
X4678599Y-36491034D01*
X4763513Y-36211111D01*
X4792185Y-35920000D01*
X4763513Y-35628889D01*
X4678599Y-35348966D01*
X4540706Y-35090986D01*
X4355134Y-34864866D01*
X4129014Y-34679294D01*
X3871034Y-34541401D01*
X3591111Y-34456487D01*
X3372950Y-34435000D01*
X3227050Y-34435000D01*
X3008889Y-34456487D01*
X2728966Y-34541401D01*
X2470986Y-34679294D01*
X2244866Y-34864866D01*
X2059294Y-35090986D01*
X1921401Y-35348966D01*
X1836487Y-35628889D01*
X1807815Y-35920000D01*
X695000Y-35920000D01*
X695000Y-5030958D01*
X727078Y-4671531D01*
X1665000Y-4671531D01*
X1665000Y-5328469D01*
X1793162Y-5972784D01*
X2044561Y-6579715D01*
X2409536Y-7125939D01*
X2874061Y-7590464D01*
X3420285Y-7955439D01*
X4027216Y-8206838D01*
X4671531Y-8335000D01*
X5328469Y-8335000D01*
X5972784Y-8206838D01*
X6579715Y-7955439D01*
X7125939Y-7590464D01*
X7590464Y-7125939D01*
X7955439Y-6579715D01*
X8206838Y-5972784D01*
X8335000Y-5328469D01*
X8335000Y-4671531D01*
X91665000Y-4671531D01*
X91665000Y-5328469D01*
X91793162Y-5972784D01*
X92044561Y-6579715D01*
X92409536Y-7125939D01*
X92874061Y-7590464D01*
X93420285Y-7955439D01*
X94027216Y-8206838D01*
X94671531Y-8335000D01*
X95328469Y-8335000D01*
X95972784Y-8206838D01*
X96579715Y-7955439D01*
X97125939Y-7590464D01*
X97590464Y-7125939D01*
X97955439Y-6579715D01*
X98206838Y-5972784D01*
X98335000Y-5328469D01*
X98335000Y-4671531D01*
X98206838Y-4027216D01*
X97955439Y-3420285D01*
X97590464Y-2874061D01*
X97125939Y-2409536D01*
X96579715Y-2044561D01*
X95972784Y-1793162D01*
X95328469Y-1665000D01*
X94671531Y-1665000D01*
X94027216Y-1793162D01*
X93420285Y-2044561D01*
X92874061Y-2409536D01*
X92409536Y-2874061D01*
X92044561Y-3420285D01*
X91793162Y-4027216D01*
X91665000Y-4671531D01*
X8335000Y-4671531D01*
X8206838Y-4027216D01*
X7955439Y-3420285D01*
X7590464Y-2874061D01*
X7125939Y-2409536D01*
X6579715Y-2044561D01*
X5972784Y-1793162D01*
X5328469Y-1665000D01*
X4671531Y-1665000D01*
X4027216Y-1793162D01*
X3420285Y-2044561D01*
X2874061Y-2409536D01*
X2409536Y-2874061D01*
X2044561Y-3420285D01*
X1793162Y-4027216D01*
X1665000Y-4671531D01*
X727078Y-4671531D01*
X765758Y-4238135D01*
X967589Y-3500363D01*
X1296884Y-2809982D01*
X1743225Y-2188832D01*
X2292514Y-1656533D01*
X2927383Y-1229920D01*
X3627759Y-922476D01*
X4376860Y-742632D01*
X5025490Y-695000D01*
X94969042Y-695000D01*
X95761865Y-765758D01*
G36*
X25873000Y-24373000D02*
G01*
X10627000Y-24373000D01*
X10627000Y-19627000D01*
X25873000Y-19627000D01*
X25873000Y-24373000D01*
X25873000Y-24373000D01*
G37*
X25873000Y-24373000D02*
X10627000Y-24373000D01*
X10627000Y-19627000D01*
X25873000Y-19627000D01*
X25873000Y-24373000D01*
G36*
X25873000Y-30373000D02*
G01*
X10627000Y-30373000D01*
X10627000Y-25627000D01*
X25873000Y-25627000D01*
X25873000Y-30373000D01*
X25873000Y-30373000D01*
G37*
X25873000Y-30373000D02*
X10627000Y-30373000D01*
X10627000Y-25627000D01*
X25873000Y-25627000D01*
X25873000Y-30373000D01*
G36*
X25873000Y-36373000D02*
G01*
X10627000Y-36373000D01*
X10627000Y-31627000D01*
X25873000Y-31627000D01*
X25873000Y-36373000D01*
X25873000Y-36373000D01*
G37*
X25873000Y-36373000D02*
X10627000Y-36373000D01*
X10627000Y-31627000D01*
X25873000Y-31627000D01*
X25873000Y-36373000D01*
G36*
X25873000Y-42373000D02*
G01*
X10627000Y-42373000D01*
X10627000Y-37627000D01*
X25873000Y-37627000D01*
X25873000Y-42373000D01*
X25873000Y-42373000D01*
G37*
X25873000Y-42373000D02*
X10627000Y-42373000D01*
X10627000Y-37627000D01*
X25873000Y-37627000D01*
X25873000Y-42373000D01*
G36*
X25873000Y-48373000D02*
G01*
X10627000Y-48373000D01*
X10627000Y-43627000D01*
X25873000Y-43627000D01*
X25873000Y-48373000D01*
X25873000Y-48373000D01*
G37*
X25873000Y-48373000D02*
X10627000Y-48373000D01*
X10627000Y-43627000D01*
X25873000Y-43627000D01*
X25873000Y-48373000D01*
G36*
X25873000Y-54373000D02*
G01*
X10627000Y-54373000D01*
X10627000Y-49627000D01*
X25873000Y-49627000D01*
X25873000Y-54373000D01*
X25873000Y-54373000D01*
G37*
X25873000Y-54373000D02*
X10627000Y-54373000D01*
X10627000Y-49627000D01*
X25873000Y-49627000D01*
X25873000Y-54373000D01*
G36*
X25873000Y-60373000D02*
G01*
X10627000Y-60373000D01*
X10627000Y-55627000D01*
X25873000Y-55627000D01*
X25873000Y-60373000D01*
X25873000Y-60373000D01*
G37*
X25873000Y-60373000D02*
X10627000Y-60373000D01*
X10627000Y-55627000D01*
X25873000Y-55627000D01*
X25873000Y-60373000D01*
G36*
X25821926Y-66373000D02*
G01*
X10575926Y-66373000D01*
X10575926Y-61627000D01*
X25821926Y-61627000D01*
X25821926Y-66373000D01*
X25821926Y-66373000D01*
G37*
X25821926Y-66373000D02*
X10575926Y-66373000D01*
X10575926Y-61627000D01*
X25821926Y-61627000D01*
X25821926Y-66373000D01*
G36*
X25873000Y-72373000D02*
G01*
X10627000Y-72373000D01*
X10627000Y-67627000D01*
X25873000Y-67627000D01*
X25873000Y-72373000D01*
X25873000Y-72373000D01*
G37*
X25873000Y-72373000D02*
X10627000Y-72373000D01*
X10627000Y-67627000D01*
X25873000Y-67627000D01*
X25873000Y-72373000D01*
G36*
X25873000Y-78373000D02*
G01*
X10627000Y-78373000D01*
X10627000Y-73627000D01*
X25873000Y-73627000D01*
X25873000Y-78373000D01*
X25873000Y-78373000D01*
G37*
X25873000Y-78373000D02*
X10627000Y-78373000D01*
X10627000Y-73627000D01*
X25873000Y-73627000D01*
X25873000Y-78373000D01*
G36*
X25873000Y-84373000D02*
G01*
X10627000Y-84373000D01*
X10627000Y-79627000D01*
X25873000Y-79627000D01*
X25873000Y-84373000D01*
X25873000Y-84373000D01*
G37*
X25873000Y-84373000D02*
X10627000Y-84373000D01*
X10627000Y-79627000D01*
X25873000Y-79627000D01*
X25873000Y-84373000D01*
G36*
X25873000Y-90373000D02*
G01*
X10627000Y-90373000D01*
X10627000Y-85627000D01*
X25873000Y-85627000D01*
X25873000Y-90373000D01*
X25873000Y-90373000D01*
G37*
X25873000Y-90373000D02*
X10627000Y-90373000D01*
X10627000Y-85627000D01*
X25873000Y-85627000D01*
X25873000Y-90373000D01*
M02*
