M48
; DRILL file {KiCad 5.1.0-unknown-c054944~86~ubuntu19.04.1} date Wed 08 May 2019 03:05:40 PM EDT
; FORMAT={3:3/ absolute / metric / suppress leading zeros}
; #@! TF.CreationDate,2019-05-08T15:05:40-04:00
; #@! TF.GenerationSoftware,Kicad,Pcbnew,5.1.0-unknown-c054944~86~ubuntu19.04.1
FMAT,2
METRIC,TZ
T1C0.400
T2C0.500
T3C1.000
T4C1.200
T5C2.700
%
G90
G05
T1
X2900Y-56000
X3900Y-56000
X6000Y-14300
X6000Y-16800
X6000Y-19300
X13970Y-96266
X13970Y-97282
X13970Y-98323
X19250Y-2800
X19250Y-3800
X19250Y-4800
X19250Y-6500
X19250Y-7600
X19250Y-8650
X19250Y-10500
X19250Y-11500
X19250Y-12500
X19250Y-14350
X19250Y-15350
X19250Y-16350
X19250Y-18250
X19250Y-19250
X19250Y-20250
X19250Y-22050
X19250Y-23050
X19250Y-24050
X19250Y-25950
X19250Y-26950
X19250Y-27950
X19250Y-29750
X19250Y-30750
X19250Y-31750
X19250Y-33650
X19250Y-34650
X19250Y-35650
X19250Y-37450
X19250Y-38450
X19250Y-39450
X19250Y-41350
X19250Y-42350
X19250Y-43350
X19250Y-45200
X19250Y-46200
X19250Y-47200
X19250Y-49150
X19250Y-50150
X19250Y-51150
X19250Y-52950
X19250Y-53950
X19250Y-54950
X19250Y-60650
X19250Y-61650
X19250Y-62650
X19250Y-64550
X19250Y-65550
X19250Y-66550
X19250Y-68350
X19250Y-69350
X19250Y-70350
X19250Y-72250
X19250Y-73250
X19250Y-74250
X19250Y-76050
X19250Y-77050
X19250Y-78050
X19250Y-79950
X19250Y-80950
X19250Y-81950
X19250Y-83900
X19250Y-84900
X19250Y-85900
X19250Y-87950
X19250Y-88950
X19250Y-89950
X19250Y-91950
X19250Y-92950
X19250Y-93950
X19300Y-56850
X19300Y-57850
X19300Y-58850
X30390Y-92380
X30400Y-93200
X34900Y-39250
X34900Y-40110
X34900Y-46750
X34900Y-47610
X36220Y-25950
X36340Y-64550
X36360Y-18250
X36370Y-87960
X36400Y-33660
X36410Y-2800
X36420Y-56860
X36420Y-72250
X36430Y-79950
X36470Y-10520
X37050Y-25950
X37230Y-87960
X37250Y-2800
X37250Y-18250
X37250Y-33650
X37250Y-64550
X37250Y-72250
X37250Y-79950
X37300Y-56850
X37350Y-10550
X40996Y-83591
X41834Y-83591
X42901Y-69367
X42951Y-75565
X43840Y-69367
X43942Y-75565
X44094Y-61011
X44094Y-61900
X46250Y-2500
X46250Y-7500
X46270Y-6630
X47142Y-58166
X47142Y-56998
X47193Y-55905
X47200Y-2490
X47625Y-83591
X47981Y-54400
X48400Y-52299
X48400Y-53200
X48489Y-83591
X48540Y-36580
X48550Y-37450
X48666Y-57201
X48793Y-69393
X48900Y-54400
X49174Y-75565
X49531Y-57200
X49733Y-69393
X49744Y-60935
X49744Y-61900
X50038Y-75565
X52425Y-55956
X52500Y-2500
X52500Y-5500
X53264Y-55956
X53340Y-2500
X53410Y-5520
X54254Y-55067
X54990Y-40380
X55000Y-41250
X55118Y-55067
X55500Y-56600
X56413Y-56591
X57300Y-44550
X57380Y-45450
X60980Y-40390
X61000Y-41250
X62230Y-57810
X62240Y-56200
X62260Y-53960
X63068Y-57785
X63070Y-56210
X63090Y-53950
T2
X2975Y-5000
X3568Y-3568
X3568Y-6432
X5000Y-2975
X5000Y-7025
X6432Y-3568
X6432Y-6432
X7025Y-5000
X2975Y-95000
X3568Y-93568
X3568Y-96432
X5000Y-92975
X5000Y-97025
X6432Y-93568
X6432Y-96432
X7025Y-95000
X57975Y-95000
X58568Y-93568
X58568Y-96432
X60000Y-92975
X60000Y-97025
X61432Y-93568
X61432Y-96432
X62025Y-95000
X57975Y-5000
X58568Y-3568
X58568Y-6432
X60000Y-2975
X60000Y-7025
X61432Y-3568
X61432Y-6432
X62025Y-5000
T3
X4000Y-22520
X4000Y-25060
X4000Y-27600
X4000Y-30140
X4000Y-32680
X4000Y-35220
X4000Y-37760
X4000Y-40300
X4000Y-42840
X4000Y-45380
X4000Y-47920
X4000Y-50460
X4000Y-53000
X45900Y-38020
X45900Y-40560
X45900Y-43100
X4000Y-70380
X4000Y-72920
X4000Y-75460
X4000Y-78000
X51000Y-37920
X51000Y-40460
X51000Y-43000
X4000Y-58920
X4000Y-61460
X4000Y-64000
X54100Y-28900
X56640Y-28900
X59180Y-28900
X61720Y-28900
X4000Y-83920
X4000Y-86460
X4000Y-89000
T4
X53000Y-13250
X55540Y-13250
X60000Y-13250
X62540Y-13250
T5
X5000Y-5000
X5000Y-95000
X60000Y-95000
X60000Y-5000
T0
M30
