G04 #@! TF.GenerationSoftware,KiCad,Pcbnew,5.1.0-rc2-unknown-38be0fc~81~ubuntu18.10.1*
G04 #@! TF.CreationDate,2019-03-05T14:14:04-05:00*
G04 #@! TF.ProjectId,LTC6811,4c544336-3831-4312-9e6b-696361645f70,rev?*
G04 #@! TF.SameCoordinates,Original*
G04 #@! TF.FileFunction,Copper,L1,Top*
G04 #@! TF.FilePolarity,Positive*
%FSLAX46Y46*%
G04 Gerber Fmt 4.6, Leading zero omitted, Abs format (unit mm)*
G04 Created by KiCad (PCBNEW 5.1.0-rc2-unknown-38be0fc~81~ubuntu18.10.1) date 2019-03-05 14:14:04*
%MOMM*%
%LPD*%
G04 APERTURE LIST*
%ADD10R,1.500000X1.250000*%
%ADD11R,1.200000X0.750000*%
%ADD12R,0.750000X1.200000*%
%ADD13R,2.650000X2.030000*%
%ADD14O,1.700000X1.700000*%
%ADD15R,1.700000X1.700000*%
%ADD16O,2.600000X2.000000*%
%ADD17R,2.600000X2.000000*%
%ADD18R,2.000000X1.500000*%
%ADD19R,2.000000X3.800000*%
%ADD20R,0.900000X0.800000*%
%ADD21R,1.200000X0.900000*%
%ADD22R,0.900000X1.200000*%
%ADD23R,1.750000X1.000000*%
%ADD24R,1.753000X1.000000*%
%ADD25R,1.000000X0.285000*%
%ADD26C,5.400000*%
%ADD27C,0.800000*%
%ADD28R,1.000000X3.200000*%
%ADD29R,1.000000X1.000000*%
%ADD30C,0.250000*%
%ADD31C,1.000000*%
%ADD32C,0.254000*%
G04 APERTURE END LIST*
D10*
X69550000Y-55950000D03*
X67050000Y-55950000D03*
X67050000Y-53700000D03*
X69550000Y-53700000D03*
D11*
X50650000Y-17500000D03*
X48750000Y-17500000D03*
X48750000Y-14500000D03*
X50650000Y-14500000D03*
D10*
X85300000Y-48300000D03*
X82800000Y-48300000D03*
D11*
X69950000Y-22000000D03*
X68050000Y-22000000D03*
X68050000Y-28000000D03*
X69950000Y-28000000D03*
D12*
X64300000Y-89750000D03*
X64300000Y-91650000D03*
X68300000Y-91650000D03*
X68300000Y-89750000D03*
X72300000Y-89750000D03*
X72300000Y-91650000D03*
X76300000Y-91650000D03*
X76300000Y-89750000D03*
X80300000Y-89750000D03*
X80300000Y-91650000D03*
D13*
X11910000Y-16000000D03*
X16090000Y-16000000D03*
X16090000Y-22000000D03*
X11910000Y-22000000D03*
X11910000Y-28000000D03*
X16090000Y-28000000D03*
X16090000Y-34000000D03*
X11910000Y-34000000D03*
X11910000Y-40000000D03*
X16090000Y-40000000D03*
X16090000Y-46000000D03*
X11910000Y-46000000D03*
X11910000Y-52000000D03*
X16090000Y-52000000D03*
X16090000Y-58000000D03*
X11910000Y-58000000D03*
X11910000Y-64000000D03*
X16090000Y-64000000D03*
X16090000Y-70000000D03*
X11910000Y-70000000D03*
X11910000Y-76000000D03*
X16090000Y-76000000D03*
X16090000Y-82000000D03*
X11910000Y-82000000D03*
D14*
X3300000Y-35920000D03*
X3300000Y-38460000D03*
X3300000Y-41000000D03*
X3300000Y-43540000D03*
X3300000Y-46080000D03*
X3300000Y-48620000D03*
X3300000Y-51160000D03*
X3300000Y-53700000D03*
X3300000Y-56240000D03*
X3300000Y-58780000D03*
X3300000Y-61320000D03*
X3300000Y-63860000D03*
D15*
X3300000Y-66400000D03*
D16*
X94000000Y-22540000D03*
D17*
X94000000Y-20000000D03*
X94000000Y-27000000D03*
D16*
X94000000Y-29540000D03*
D14*
X80200000Y-97500000D03*
X77660000Y-97500000D03*
X75120000Y-97500000D03*
X72580000Y-97500000D03*
X70040000Y-97500000D03*
D15*
X67500000Y-97500000D03*
D14*
X78961495Y-56000000D03*
X81501495Y-56000000D03*
D15*
X84041495Y-56000000D03*
X84000000Y-38000000D03*
D14*
X81460000Y-38000000D03*
X78920000Y-38000000D03*
D18*
X88050000Y-43800000D03*
X88050000Y-48400000D03*
X88050000Y-46100000D03*
D19*
X94350000Y-46100000D03*
D20*
X29000000Y-22950000D03*
X29000000Y-21050000D03*
X27000000Y-22000000D03*
X27000000Y-28000000D03*
X29000000Y-27050000D03*
X29000000Y-28950000D03*
X27000000Y-34000000D03*
X29000000Y-33050000D03*
X29000000Y-34950000D03*
X29000000Y-40950000D03*
X29000000Y-39050000D03*
X27000000Y-40000000D03*
X27000000Y-46000000D03*
X29000000Y-45050000D03*
X29000000Y-46950000D03*
X27000000Y-52000000D03*
X29000000Y-51050000D03*
X29000000Y-52950000D03*
X29000000Y-58950000D03*
X29000000Y-57050000D03*
X27000000Y-58000000D03*
X27000000Y-64000000D03*
X29000000Y-63050000D03*
X29000000Y-64950000D03*
X29000000Y-70950000D03*
X29000000Y-69050000D03*
X27000000Y-70000000D03*
X29000000Y-76950000D03*
X29000000Y-75050000D03*
X27000000Y-76000000D03*
X27000000Y-82000000D03*
X29000000Y-81050000D03*
X29000000Y-82950000D03*
X29000000Y-88950000D03*
X29000000Y-87050000D03*
X27000000Y-88000000D03*
D21*
X38900000Y-14500000D03*
X41100000Y-14500000D03*
X41100000Y-17500000D03*
X38900000Y-17500000D03*
X67100000Y-48000000D03*
X64900000Y-48000000D03*
X64900000Y-46000000D03*
X67100000Y-46000000D03*
D22*
X73000000Y-20800000D03*
X73000000Y-23000000D03*
X73000000Y-29100000D03*
X73000000Y-26900000D03*
X66300000Y-89600000D03*
X66300000Y-91800000D03*
X70300000Y-91800000D03*
X70300000Y-89600000D03*
X74300000Y-89600000D03*
X74300000Y-91800000D03*
X78300000Y-89600000D03*
X78300000Y-91800000D03*
X82300000Y-91800000D03*
X82300000Y-89600000D03*
D21*
X33100000Y-21000000D03*
X30900000Y-21000000D03*
X33100000Y-23000000D03*
X30900000Y-23000000D03*
X33100000Y-27000000D03*
X30900000Y-27000000D03*
X30900000Y-29000000D03*
X33100000Y-29000000D03*
X33100000Y-33000000D03*
X30900000Y-33000000D03*
X30900000Y-35000000D03*
X33100000Y-35000000D03*
X33100000Y-39000000D03*
X30900000Y-39000000D03*
X30900000Y-41000000D03*
X33100000Y-41000000D03*
X33100000Y-45000000D03*
X30900000Y-45000000D03*
X30900000Y-47000000D03*
X33100000Y-47000000D03*
X30900000Y-51000000D03*
X33100000Y-51000000D03*
X33100000Y-53000000D03*
X30900000Y-53000000D03*
X33100000Y-57000000D03*
X30900000Y-57000000D03*
X30900000Y-59000000D03*
X33100000Y-59000000D03*
X30900000Y-63000000D03*
X33100000Y-63000000D03*
X33100000Y-65000000D03*
X30900000Y-65000000D03*
X30900000Y-69000000D03*
X33100000Y-69000000D03*
X30900000Y-71000000D03*
X33100000Y-71000000D03*
X30900000Y-75000000D03*
X33100000Y-75000000D03*
X30900000Y-77000000D03*
X33100000Y-77000000D03*
X33100000Y-81000000D03*
X30900000Y-81000000D03*
X30900000Y-83000000D03*
X33100000Y-83000000D03*
X33100000Y-87000000D03*
X30900000Y-87000000D03*
X30900000Y-89000000D03*
X33100000Y-89000000D03*
D23*
X75125000Y-29900000D03*
X75125000Y-27900000D03*
X75125000Y-25900000D03*
X75125000Y-23900000D03*
X75125000Y-21900000D03*
D24*
X75125000Y-19900000D03*
D23*
X88875000Y-19900000D03*
X88875000Y-21900000D03*
X88875000Y-23900000D03*
X88875000Y-29900000D03*
X88875000Y-27900000D03*
X88875000Y-25900000D03*
D25*
X58050000Y-46950000D03*
X58050000Y-47450000D03*
X58050000Y-47950000D03*
X58050000Y-48450000D03*
X58050000Y-48950000D03*
X58050000Y-49450000D03*
X58050000Y-49950000D03*
X58050000Y-50450000D03*
X58050000Y-50950000D03*
X58050000Y-51450000D03*
X58050000Y-51950000D03*
X58050000Y-52450000D03*
X58050000Y-52950000D03*
X58050000Y-53450000D03*
X58050000Y-53950000D03*
X58050000Y-54450000D03*
X58050000Y-54950000D03*
X58050000Y-55450000D03*
X58050000Y-55950000D03*
X58050000Y-56450000D03*
X58050000Y-56950000D03*
X58050000Y-57450000D03*
X58050000Y-57950000D03*
X58050000Y-58450000D03*
X50550000Y-58450000D03*
X50550000Y-57950000D03*
X50550000Y-57450000D03*
X50550000Y-56950000D03*
X50550000Y-56450000D03*
X50550000Y-55950000D03*
X50550000Y-55450000D03*
X50550000Y-54950000D03*
X50550000Y-54450000D03*
X50550000Y-53950000D03*
X50550000Y-53450000D03*
X50550000Y-52950000D03*
X50550000Y-52450000D03*
X50550000Y-51950000D03*
X50550000Y-51450000D03*
X50550000Y-50950000D03*
X50550000Y-50450000D03*
X50550000Y-49950000D03*
X50550000Y-49450000D03*
X50550000Y-48950000D03*
X50550000Y-48450000D03*
X50550000Y-47950000D03*
X50550000Y-47450000D03*
X50550000Y-46950000D03*
D26*
X5000000Y-5000000D03*
D27*
X7025000Y-5000000D03*
X6431891Y-6431891D03*
X5000000Y-7025000D03*
X3568109Y-6431891D03*
X2975000Y-5000000D03*
X3568109Y-3568109D03*
X5000000Y-2975000D03*
X6431891Y-3568109D03*
X6431891Y-93568109D03*
X5000000Y-92975000D03*
X3568109Y-93568109D03*
X2975000Y-95000000D03*
X3568109Y-96431891D03*
X5000000Y-97025000D03*
X6431891Y-96431891D03*
X7025000Y-95000000D03*
D26*
X5000000Y-95000000D03*
D27*
X96431891Y-3568109D03*
X95000000Y-2975000D03*
X93568109Y-3568109D03*
X92975000Y-5000000D03*
X93568109Y-6431891D03*
X95000000Y-7025000D03*
X96431891Y-6431891D03*
X97025000Y-5000000D03*
D26*
X95000000Y-5000000D03*
X95000000Y-95000000D03*
D27*
X97025000Y-95000000D03*
X96431891Y-96431891D03*
X95000000Y-97025000D03*
X93568109Y-96431891D03*
X92975000Y-95000000D03*
X93568109Y-93568109D03*
X95000000Y-92975000D03*
X96431891Y-93568109D03*
D28*
X25100000Y-22000000D03*
X18900000Y-22000000D03*
X18900000Y-28000000D03*
X25100000Y-28000000D03*
X25100000Y-34000000D03*
X18900000Y-34000000D03*
X25100000Y-40000000D03*
X18900000Y-40000000D03*
X18900000Y-46000000D03*
X25100000Y-46000000D03*
X18900000Y-52000000D03*
X25100000Y-52000000D03*
X18900000Y-58000000D03*
X25100000Y-58000000D03*
X18900000Y-64000000D03*
X25100000Y-64000000D03*
X25100000Y-76000000D03*
X18900000Y-76000000D03*
X25100000Y-82000000D03*
X18900000Y-82000000D03*
X18900000Y-88000000D03*
X25100000Y-88000000D03*
X25100000Y-70000000D03*
X18900000Y-70000000D03*
D10*
X38750000Y-21000000D03*
X41250000Y-21000000D03*
X38750000Y-27000000D03*
X41250000Y-27000000D03*
X41250000Y-33000000D03*
X38750000Y-33000000D03*
X38750000Y-39000000D03*
X41250000Y-39000000D03*
X41250000Y-45000000D03*
X38750000Y-45000000D03*
X38750000Y-51000000D03*
X41250000Y-51000000D03*
X41250000Y-57000000D03*
X38750000Y-57000000D03*
X41250000Y-63000000D03*
X38750000Y-63000000D03*
X41250000Y-69000000D03*
X38750000Y-69000000D03*
X38750000Y-75000000D03*
X41250000Y-75000000D03*
X41250000Y-81000000D03*
X38750000Y-81000000D03*
X38750000Y-87000000D03*
X41250000Y-87000000D03*
D29*
X35900000Y-24250000D03*
X35900000Y-21750000D03*
X35900000Y-30250000D03*
X35900000Y-27750000D03*
X35900000Y-33750000D03*
X35900000Y-36250000D03*
X35900000Y-39750000D03*
X35900000Y-42250000D03*
X35900000Y-45750000D03*
X35900000Y-48250000D03*
X35900000Y-54250000D03*
X35900000Y-51750000D03*
X35900000Y-60750000D03*
X35900000Y-58250000D03*
X35900000Y-64250000D03*
X35900000Y-66750000D03*
X35900000Y-69750000D03*
X35900000Y-72250000D03*
X35900000Y-75750000D03*
X35900000Y-78250000D03*
X35900000Y-84550000D03*
X35900000Y-82050000D03*
X35900000Y-90250000D03*
X35900000Y-87750000D03*
D13*
X16090000Y-88000000D03*
X11910000Y-88000000D03*
D27*
X64300000Y-87700000D03*
X71300000Y-53700000D03*
X71300000Y-55700000D03*
X56300000Y-55700000D03*
X56300000Y-57700000D03*
X68300000Y-86700000D03*
X72300000Y-86700000D03*
X76300000Y-86700000D03*
X80300000Y-86700000D03*
X80300000Y-48300000D03*
X52000000Y-17500000D03*
X52000000Y-14500000D03*
X66000000Y-22000000D03*
X66000000Y-28000000D03*
X67000000Y-44000000D03*
X43500000Y-21000000D03*
X43500000Y-27000000D03*
X43500000Y-33000000D03*
X43500000Y-45000000D03*
X43500000Y-51000000D03*
X43500000Y-57000000D03*
X43500000Y-63000000D03*
X43500000Y-69000000D03*
X43500000Y-75000000D03*
X43500000Y-81000000D03*
X43500000Y-86500000D03*
X43500000Y-39225010D03*
X66300000Y-87700000D03*
X82300000Y-87700000D03*
X78300000Y-87700000D03*
X74300000Y-87700000D03*
X70300000Y-87700000D03*
X65000000Y-54500000D03*
X82500000Y-46000000D03*
X54500000Y-44500000D03*
X24000000Y-22000000D03*
X24000000Y-21000000D03*
X24000000Y-23000000D03*
X24000000Y-28000000D03*
X24000000Y-27000000D03*
X24000000Y-29000000D03*
X24000000Y-34000000D03*
X24000000Y-33000000D03*
X24000000Y-35000000D03*
X24000000Y-40000000D03*
X24000000Y-39000000D03*
X24000000Y-41000000D03*
X24000000Y-46000000D03*
X24000000Y-45000000D03*
X24000000Y-47000000D03*
X24000000Y-52000000D03*
X24000000Y-51000000D03*
X24000000Y-53000000D03*
X24000000Y-58000000D03*
X24000000Y-57000000D03*
X24000000Y-59000000D03*
X24000000Y-64000000D03*
X24000000Y-63000000D03*
X24000000Y-65000000D03*
X24000000Y-70000000D03*
X24000000Y-69000000D03*
X24000000Y-71000000D03*
X24000000Y-76000000D03*
X24000000Y-75000000D03*
X24000000Y-77000000D03*
X24000000Y-82000000D03*
X24000000Y-81000000D03*
X24000000Y-83000000D03*
X24000000Y-88000000D03*
X24000000Y-87000000D03*
X24000000Y-89000000D03*
X16100000Y-91900000D03*
X16100000Y-92800000D03*
X35900000Y-92000000D03*
D30*
X64300000Y-89750000D02*
X64300000Y-87700000D01*
X69550000Y-53700000D02*
X71300000Y-53700000D01*
X69550000Y-55950000D02*
X71050000Y-55950000D01*
X71050000Y-55950000D02*
X71300000Y-55700000D01*
X58050000Y-55950000D02*
X56550000Y-55950000D01*
X56550000Y-55950000D02*
X56300000Y-55700000D01*
X56550000Y-55450000D02*
X56300000Y-55700000D01*
X58050000Y-55450000D02*
X56550000Y-55450000D01*
X58050000Y-57950000D02*
X56550000Y-57950000D01*
X56550000Y-57950000D02*
X56300000Y-57700000D01*
X68300000Y-89750000D02*
X68300000Y-86700000D01*
X72300000Y-89750000D02*
X72300000Y-86700000D01*
X76300000Y-89750000D02*
X76300000Y-86700000D01*
X80300000Y-89750000D02*
X80300000Y-86700000D01*
X82800000Y-48300000D02*
X80300000Y-48300000D01*
X50650000Y-17500000D02*
X52000000Y-17500000D01*
X50650000Y-14500000D02*
X52000000Y-14500000D01*
X68050000Y-22000000D02*
X66000000Y-22000000D01*
X67100000Y-46000000D02*
X67100000Y-44100000D01*
X67100000Y-44100000D02*
X67000000Y-44000000D01*
X41250000Y-21000000D02*
X43500000Y-21000000D01*
X41250000Y-27000000D02*
X43500000Y-27000000D01*
X41250000Y-33000000D02*
X43500000Y-33000000D01*
X41250000Y-45000000D02*
X43500000Y-45000000D01*
X41250000Y-51000000D02*
X43500000Y-51000000D01*
X41250000Y-57000000D02*
X43500000Y-57000000D01*
X41250000Y-63000000D02*
X43500000Y-63000000D01*
X41250000Y-69000000D02*
X43500000Y-69000000D01*
X41250000Y-75000000D02*
X43500000Y-75000000D01*
X41250000Y-81000000D02*
X43500000Y-81000000D01*
X41250000Y-87000000D02*
X43000000Y-87000000D01*
X43000000Y-87000000D02*
X43500000Y-86500000D01*
X43274990Y-39000000D02*
X43500000Y-39225010D01*
X41250000Y-39000000D02*
X43274990Y-39000000D01*
X3300000Y-66400000D02*
X5500000Y-68600000D01*
X5500000Y-85000000D02*
X8500000Y-88000000D01*
X5500000Y-68600000D02*
X5500000Y-85000000D01*
X8500000Y-88000000D02*
X11910000Y-88000000D01*
X62876984Y-53950000D02*
X64876984Y-55950000D01*
X64876984Y-55950000D02*
X66050000Y-55950000D01*
X66050000Y-55950000D02*
X67050000Y-55950000D01*
X58050000Y-53950000D02*
X62876984Y-53950000D01*
X66800000Y-53450000D02*
X67050000Y-53700000D01*
X66300000Y-87700000D02*
X66300000Y-89600000D01*
X82300000Y-89600000D02*
X82300000Y-87700000D01*
X78300000Y-89600000D02*
X78300000Y-87700000D01*
X74300000Y-89600000D02*
X74300000Y-87700000D01*
X70300000Y-89600000D02*
X70300000Y-87700000D01*
X65000000Y-53500000D02*
X64950000Y-53450000D01*
X65000000Y-54500000D02*
X65000000Y-53500000D01*
X58050000Y-53450000D02*
X64950000Y-53450000D01*
X64950000Y-53450000D02*
X66800000Y-53450000D01*
X41100000Y-17500000D02*
X48750000Y-17500000D01*
X41100000Y-14500000D02*
X48750000Y-14500000D01*
D31*
X88050000Y-46100000D02*
X82600000Y-46100000D01*
X82600000Y-46100000D02*
X82500000Y-46000000D01*
X54500000Y-44500000D02*
X54500000Y-14000000D01*
X54500000Y-14000000D02*
X53000000Y-12500000D01*
X48750000Y-13125000D02*
X48750000Y-14500000D01*
X53000000Y-12500000D02*
X49375000Y-12500000D01*
X49375000Y-12500000D02*
X48750000Y-13125000D01*
D30*
X87950000Y-48300000D02*
X88050000Y-48400000D01*
X85300000Y-48300000D02*
X87950000Y-48300000D01*
X57300000Y-52450000D02*
X57000000Y-52150000D01*
X58050000Y-52450000D02*
X57300000Y-52450000D01*
X57300000Y-50950000D02*
X58050000Y-50950000D01*
X57000000Y-52150000D02*
X57000000Y-51250000D01*
X57000000Y-51250000D02*
X57300000Y-50950000D01*
X84041495Y-53041495D02*
X84041495Y-56000000D01*
X64600000Y-52500000D02*
X64863590Y-52500000D01*
X64550000Y-52450000D02*
X64600000Y-52500000D01*
X58050000Y-52450000D02*
X64550000Y-52450000D01*
X65313600Y-52049990D02*
X83049990Y-52049990D01*
X64863590Y-52500000D02*
X65313600Y-52049990D01*
X83049990Y-52049990D02*
X84041495Y-53041495D01*
X85300000Y-49799980D02*
X85300000Y-48300000D01*
X83049990Y-52049990D02*
X85300000Y-49799980D01*
X70050000Y-21900000D02*
X69950000Y-22000000D01*
X70050000Y-27900000D02*
X69950000Y-28000000D01*
X66150000Y-91650000D02*
X66300000Y-91800000D01*
X66300000Y-95700000D02*
X67300000Y-96700000D01*
X66300000Y-91800000D02*
X66300000Y-95700000D01*
X64300000Y-91650000D02*
X65250000Y-91650000D01*
X65250000Y-91650000D02*
X66150000Y-91650000D01*
X65300000Y-91600000D02*
X65250000Y-91650000D01*
X65300000Y-60800000D02*
X65300000Y-91600000D01*
X58050000Y-57450000D02*
X61950000Y-57450000D01*
X61950000Y-57450000D02*
X65300000Y-60800000D01*
X70150000Y-91650000D02*
X70300000Y-91800000D01*
X70300000Y-96240000D02*
X69840000Y-96700000D01*
X70300000Y-91800000D02*
X70300000Y-96240000D01*
X68300000Y-91650000D02*
X69250000Y-91650000D01*
X69250000Y-91650000D02*
X70150000Y-91650000D01*
X69250000Y-63750000D02*
X69250000Y-91650000D01*
X58050000Y-56950000D02*
X62450000Y-56950000D01*
X62450000Y-56950000D02*
X69250000Y-63750000D01*
X74150000Y-91650000D02*
X74300000Y-91800000D01*
X72300000Y-96620000D02*
X72380000Y-96700000D01*
X72300000Y-91650000D02*
X72300000Y-96620000D01*
X72300000Y-91650000D02*
X73250000Y-91650000D01*
X73250000Y-91650000D02*
X74150000Y-91650000D01*
X73250000Y-66750000D02*
X73250000Y-91650000D01*
X58050000Y-56450000D02*
X62950000Y-56450000D01*
X62950000Y-56450000D02*
X73250000Y-66750000D01*
X76450000Y-91800000D02*
X76300000Y-91650000D01*
X76300000Y-95320000D02*
X74920000Y-96700000D01*
X76300000Y-91650000D02*
X76300000Y-95320000D01*
X58050000Y-54950000D02*
X62550000Y-54950000D01*
X77200000Y-69600000D02*
X77200000Y-91800000D01*
X62550000Y-54950000D02*
X77200000Y-69600000D01*
X78300000Y-91800000D02*
X77200000Y-91800000D01*
X77200000Y-91800000D02*
X76450000Y-91800000D01*
X80450000Y-91800000D02*
X80300000Y-91650000D01*
X80300000Y-93860000D02*
X77460000Y-96700000D01*
X80300000Y-91650000D02*
X80300000Y-93860000D01*
X82300000Y-91800000D02*
X81200000Y-91800000D01*
X81200000Y-91800000D02*
X80450000Y-91800000D01*
X64690584Y-56400011D02*
X65000011Y-56400011D01*
X62740573Y-54450000D02*
X64690584Y-56400011D01*
X58050000Y-54450000D02*
X62740573Y-54450000D01*
X81200000Y-72600000D02*
X81200000Y-91800000D01*
X65000011Y-56400011D02*
X81200000Y-72600000D01*
X35900000Y-21750000D02*
X35900000Y-21000000D01*
X33100000Y-21000000D02*
X35900000Y-21000000D01*
X35900000Y-21000000D02*
X38750000Y-21000000D01*
X49450000Y-47450000D02*
X50550000Y-47450000D01*
X38750000Y-22350000D02*
X40400000Y-24000000D01*
X38750000Y-21000000D02*
X38750000Y-22350000D01*
X46500000Y-24000000D02*
X49000000Y-26500000D01*
X40400000Y-24000000D02*
X46500000Y-24000000D01*
X49000000Y-47000000D02*
X49450000Y-47450000D01*
X49000000Y-26500000D02*
X49000000Y-47000000D01*
X35900000Y-24250000D02*
X35900000Y-27000000D01*
X33100000Y-27000000D02*
X35900000Y-27000000D01*
X35900000Y-27000000D02*
X38750000Y-27000000D01*
X35900000Y-27750000D02*
X35900000Y-27000000D01*
X35900000Y-30250000D02*
X35900000Y-33000000D01*
X33100000Y-33000000D02*
X35900000Y-33000000D01*
X35900000Y-33000000D02*
X38750000Y-33000000D01*
X35900000Y-33750000D02*
X35900000Y-33000000D01*
X35900000Y-37000000D02*
X35900000Y-39000000D01*
X35900000Y-36250000D02*
X35900000Y-37000000D01*
X33100000Y-39000000D02*
X35900000Y-39000000D01*
X35900000Y-39000000D02*
X38750000Y-39000000D01*
X33100000Y-45000000D02*
X33950000Y-45000000D01*
X3300000Y-18200000D02*
X3300000Y-35920000D01*
X11910000Y-16000000D02*
X5500000Y-16000000D01*
X5500000Y-16000000D02*
X3300000Y-18200000D01*
X29000000Y-20400000D02*
X29000000Y-21050000D01*
X16090000Y-16000000D02*
X24600000Y-16000000D01*
X24600000Y-16000000D02*
X29000000Y-20400000D01*
X30850000Y-21050000D02*
X30900000Y-21000000D01*
X29000000Y-21050000D02*
X30850000Y-21050000D01*
X38800000Y-16000000D02*
X38900000Y-16100000D01*
X24600000Y-16000000D02*
X38800000Y-16000000D01*
X38900000Y-17500000D02*
X38900000Y-16100000D01*
X38900000Y-16100000D02*
X38900000Y-14500000D01*
X16090000Y-22000000D02*
X18900000Y-22000000D01*
X29000000Y-26400000D02*
X27600000Y-25000000D01*
X29000000Y-27050000D02*
X29000000Y-26400000D01*
X19650000Y-22000000D02*
X18900000Y-22000000D01*
X27600000Y-25000000D02*
X22650000Y-25000000D01*
X22650000Y-25000000D02*
X19650000Y-22000000D01*
X29050000Y-27000000D02*
X29000000Y-27050000D01*
X30900000Y-27000000D02*
X29050000Y-27000000D01*
X11910000Y-22000000D02*
X7500000Y-22000000D01*
X5500000Y-36260000D02*
X3300000Y-38460000D01*
X5500000Y-24000000D02*
X5500000Y-36260000D01*
X7500000Y-22000000D02*
X5500000Y-24000000D01*
X6500000Y-37800000D02*
X3300000Y-41000000D01*
X6500000Y-30000000D02*
X6500000Y-37800000D01*
X11910000Y-28000000D02*
X8500000Y-28000000D01*
X8500000Y-28000000D02*
X6500000Y-30000000D01*
X16090000Y-28000000D02*
X18900000Y-28000000D01*
X29000000Y-32400000D02*
X28000000Y-31400000D01*
X29000000Y-33050000D02*
X29000000Y-32400000D01*
X28000000Y-31400000D02*
X23050000Y-31400000D01*
X19650000Y-28000000D02*
X18900000Y-28000000D01*
X23050000Y-31400000D02*
X19650000Y-28000000D01*
X30850000Y-33050000D02*
X30900000Y-33000000D01*
X29000000Y-33050000D02*
X30850000Y-33050000D01*
X16090000Y-34000000D02*
X18900000Y-34000000D01*
X30850000Y-39050000D02*
X30900000Y-39000000D01*
X29000000Y-39050000D02*
X30850000Y-39050000D01*
X29000000Y-38400000D02*
X27600000Y-37000000D01*
X29000000Y-39050000D02*
X29000000Y-38400000D01*
X19650000Y-34000000D02*
X18900000Y-34000000D01*
X27600000Y-37000000D02*
X22650000Y-37000000D01*
X22650000Y-37000000D02*
X19650000Y-34000000D01*
X7500000Y-39340000D02*
X3300000Y-43540000D01*
X7500000Y-35500000D02*
X7500000Y-39340000D01*
X11910000Y-34000000D02*
X9000000Y-34000000D01*
X9000000Y-34000000D02*
X7500000Y-35500000D01*
X9380000Y-40000000D02*
X3300000Y-46080000D01*
X11910000Y-40000000D02*
X9380000Y-40000000D01*
X16090000Y-40000000D02*
X18900000Y-40000000D01*
X29000000Y-44400000D02*
X27600000Y-43000000D01*
X29000000Y-45050000D02*
X29000000Y-44400000D01*
X27600000Y-43000000D02*
X22650000Y-43000000D01*
X19650000Y-40000000D02*
X18900000Y-40000000D01*
X22650000Y-43000000D02*
X19650000Y-40000000D01*
X29050000Y-45000000D02*
X29000000Y-45050000D01*
X30900000Y-45000000D02*
X29050000Y-45000000D01*
X16090000Y-46000000D02*
X18900000Y-46000000D01*
X19650000Y-46000000D02*
X18900000Y-46000000D01*
X23000000Y-49000000D02*
X20000000Y-46000000D01*
X27000000Y-49000000D02*
X23000000Y-49000000D01*
X29000000Y-51050000D02*
X29000000Y-51000000D01*
X20000000Y-46000000D02*
X19650000Y-46000000D01*
X29000000Y-51000000D02*
X27000000Y-49000000D01*
X30850000Y-51050000D02*
X30900000Y-51000000D01*
X29000000Y-51050000D02*
X30850000Y-51050000D01*
X5920000Y-46000000D02*
X3300000Y-48620000D01*
X5920000Y-46000000D02*
X11910000Y-46000000D01*
X4140000Y-52000000D02*
X3300000Y-51160000D01*
X11910000Y-52000000D02*
X4140000Y-52000000D01*
X16090000Y-52000000D02*
X18900000Y-52000000D01*
X29000000Y-56400000D02*
X27600000Y-55000000D01*
X29000000Y-57050000D02*
X29000000Y-56400000D01*
X19650000Y-52000000D02*
X18900000Y-52000000D01*
X27600000Y-55000000D02*
X22650000Y-55000000D01*
X22650000Y-55000000D02*
X19650000Y-52000000D01*
X30850000Y-57050000D02*
X30900000Y-57000000D01*
X29000000Y-57050000D02*
X30850000Y-57050000D01*
X16090000Y-58000000D02*
X18900000Y-58000000D01*
X29000000Y-62400000D02*
X27600000Y-61000000D01*
X29000000Y-63050000D02*
X29000000Y-62400000D01*
X19650000Y-58000000D02*
X18900000Y-58000000D01*
X27600000Y-61000000D02*
X22650000Y-61000000D01*
X22650000Y-61000000D02*
X19650000Y-58000000D01*
X30850000Y-63050000D02*
X30900000Y-63000000D01*
X29000000Y-63050000D02*
X30850000Y-63050000D01*
X7600000Y-58000000D02*
X3300000Y-53700000D01*
X11910000Y-58000000D02*
X7600000Y-58000000D01*
X11910000Y-64000000D02*
X11600000Y-64000000D01*
X3840000Y-56240000D02*
X3300000Y-56240000D01*
X11600000Y-64000000D02*
X3840000Y-56240000D01*
X16090000Y-64000000D02*
X18900000Y-64000000D01*
X30850000Y-69050000D02*
X30900000Y-69000000D01*
X29000000Y-69050000D02*
X30850000Y-69050000D01*
X29000000Y-68400000D02*
X27600000Y-67000000D01*
X29000000Y-69050000D02*
X29000000Y-68400000D01*
X19650000Y-64000000D02*
X18900000Y-64000000D01*
X27600000Y-67000000D02*
X22650000Y-67000000D01*
X22650000Y-67000000D02*
X19650000Y-64000000D01*
X17665000Y-70000000D02*
X18900000Y-70000000D01*
X16090000Y-70000000D02*
X17665000Y-70000000D01*
X30850000Y-75050000D02*
X30900000Y-75000000D01*
X29000000Y-75050000D02*
X30850000Y-75050000D01*
X29000000Y-74400000D02*
X27600000Y-73000000D01*
X29000000Y-75050000D02*
X29000000Y-74400000D01*
X19650000Y-70000000D02*
X18900000Y-70000000D01*
X27600000Y-73000000D02*
X22650000Y-73000000D01*
X22650000Y-73000000D02*
X19650000Y-70000000D01*
X10000000Y-70000000D02*
X11910000Y-70000000D01*
X8500000Y-68500000D02*
X10000000Y-70000000D01*
X8500000Y-63500000D02*
X8500000Y-68500000D01*
X3300000Y-58780000D02*
X3780000Y-58780000D01*
X3780000Y-58780000D02*
X8500000Y-63500000D01*
X7500000Y-65520000D02*
X3300000Y-61320000D01*
X7500000Y-74500000D02*
X7500000Y-65520000D01*
X9000000Y-76000000D02*
X7500000Y-74500000D01*
X11910000Y-76000000D02*
X9000000Y-76000000D01*
X29000000Y-80400000D02*
X27600000Y-79000000D01*
X29000000Y-81050000D02*
X29000000Y-80400000D01*
X19650000Y-76000000D02*
X18900000Y-76000000D01*
X27600000Y-79000000D02*
X22650000Y-79000000D01*
X22650000Y-79000000D02*
X19650000Y-76000000D01*
X30850000Y-81050000D02*
X30900000Y-81000000D01*
X29000000Y-81050000D02*
X30850000Y-81050000D01*
X17665000Y-76000000D02*
X18900000Y-76000000D01*
X16090000Y-76000000D02*
X17665000Y-76000000D01*
X17665000Y-82000000D02*
X18900000Y-82000000D01*
X16090000Y-82000000D02*
X17665000Y-82000000D01*
X30850000Y-87050000D02*
X30900000Y-87000000D01*
X29000000Y-87050000D02*
X30850000Y-87050000D01*
X29000000Y-86400000D02*
X27100000Y-84500000D01*
X29000000Y-87050000D02*
X29000000Y-86400000D01*
X19650000Y-82000000D02*
X18900000Y-82000000D01*
X27100000Y-84500000D02*
X22150000Y-84500000D01*
X22150000Y-84500000D02*
X19650000Y-82000000D01*
X9000000Y-82000000D02*
X11910000Y-82000000D01*
X6500000Y-79500000D02*
X9000000Y-82000000D01*
X3300000Y-63860000D02*
X6500000Y-67060000D01*
X6500000Y-67060000D02*
X6500000Y-79500000D01*
X94000000Y-23790000D02*
X94000000Y-22540000D01*
X88875000Y-23900000D02*
X93890000Y-23900000D01*
X93890000Y-23900000D02*
X94000000Y-23790000D01*
X93900000Y-19900000D02*
X94000000Y-20000000D01*
X88875000Y-19900000D02*
X93900000Y-19900000D01*
X92900000Y-25900000D02*
X94000000Y-27000000D01*
X88875000Y-25900000D02*
X92900000Y-25900000D01*
X93640000Y-29900000D02*
X94000000Y-29540000D01*
X88875000Y-29900000D02*
X93640000Y-29900000D01*
X80651496Y-55150001D02*
X81501495Y-56000000D01*
X78001495Y-52500000D02*
X80651496Y-55150001D01*
X65500000Y-52500000D02*
X78001495Y-52500000D01*
X58050000Y-52950000D02*
X65050000Y-52950000D01*
X65050000Y-52950000D02*
X65500000Y-52500000D01*
X80610001Y-38849999D02*
X81460000Y-38000000D01*
X73000000Y-51000000D02*
X80610001Y-43389999D01*
X59250000Y-51000000D02*
X73000000Y-51000000D01*
X58050000Y-51450000D02*
X58800000Y-51450000D01*
X80610001Y-43389999D02*
X80610001Y-38849999D01*
X58800000Y-51450000D02*
X59250000Y-51000000D01*
X81200000Y-43800000D02*
X86800000Y-43800000D01*
X73500000Y-51500000D02*
X81200000Y-43800000D01*
X58082499Y-51917501D02*
X58810001Y-51917501D01*
X58050000Y-51950000D02*
X58082499Y-51917501D01*
X58810001Y-51917501D02*
X58827492Y-51900010D01*
X86800000Y-43800000D02*
X88050000Y-43800000D01*
X58827492Y-51900010D02*
X58986401Y-51900009D01*
X58986401Y-51900009D02*
X59386410Y-51500000D01*
X59386410Y-51500000D02*
X73500000Y-51500000D01*
X30850000Y-22950000D02*
X30900000Y-23000000D01*
X29000000Y-22950000D02*
X30850000Y-22950000D01*
X25100000Y-22000000D02*
X27000000Y-22000000D01*
D31*
X24000000Y-21000000D02*
X24000000Y-23000000D01*
X24000000Y-22000000D02*
X25100000Y-22000000D01*
D30*
X25100000Y-28000000D02*
X27000000Y-28000000D01*
D31*
X25100000Y-28000000D02*
X24000000Y-28000000D01*
X24000000Y-27000000D02*
X24000000Y-29000000D01*
D30*
X30850000Y-28950000D02*
X30900000Y-29000000D01*
X29000000Y-28950000D02*
X30850000Y-28950000D01*
X25100000Y-34000000D02*
X27000000Y-34000000D01*
D31*
X25100000Y-34000000D02*
X24000000Y-34000000D01*
X24000000Y-33000000D02*
X24000000Y-35000000D01*
D30*
X30850000Y-34950000D02*
X30900000Y-35000000D01*
X29000000Y-34950000D02*
X30850000Y-34950000D01*
X30850000Y-40950000D02*
X30900000Y-41000000D01*
X29000000Y-40950000D02*
X30850000Y-40950000D01*
X25100000Y-40000000D02*
X27000000Y-40000000D01*
D31*
X25100000Y-40000000D02*
X24000000Y-40000000D01*
X24000000Y-39000000D02*
X24000000Y-41000000D01*
D30*
X25100000Y-46000000D02*
X27000000Y-46000000D01*
D31*
X25100000Y-46000000D02*
X24000000Y-46000000D01*
X24000000Y-45000000D02*
X24000000Y-47000000D01*
D30*
X30850000Y-46950000D02*
X30900000Y-47000000D01*
X29000000Y-46950000D02*
X30850000Y-46950000D01*
X25100000Y-52000000D02*
X27000000Y-52000000D01*
D31*
X25100000Y-52000000D02*
X24000000Y-52000000D01*
X24000000Y-51000000D02*
X24000000Y-53000000D01*
D30*
X30850000Y-52950000D02*
X30900000Y-53000000D01*
X29000000Y-52950000D02*
X30850000Y-52950000D01*
X30850000Y-58950000D02*
X30900000Y-59000000D01*
X29000000Y-58950000D02*
X30850000Y-58950000D01*
X27000000Y-58000000D02*
X25100000Y-58000000D01*
D31*
X25100000Y-58000000D02*
X24000000Y-58000000D01*
X24000000Y-57000000D02*
X24000000Y-59000000D01*
D30*
X25100000Y-64000000D02*
X27000000Y-64000000D01*
D31*
X25100000Y-64000000D02*
X24000000Y-64000000D01*
X24000000Y-63000000D02*
X24000000Y-65000000D01*
D30*
X30850000Y-64950000D02*
X30900000Y-65000000D01*
X29000000Y-64950000D02*
X30850000Y-64950000D01*
X30850000Y-70950000D02*
X30900000Y-71000000D01*
X29000000Y-70950000D02*
X30850000Y-70950000D01*
X25100000Y-70000000D02*
X27000000Y-70000000D01*
D31*
X25100000Y-70000000D02*
X24000000Y-70000000D01*
X24000000Y-69000000D02*
X24000000Y-71000000D01*
D30*
X30850000Y-76950000D02*
X30900000Y-77000000D01*
X29000000Y-76950000D02*
X30850000Y-76950000D01*
X25100000Y-76000000D02*
X27000000Y-76000000D01*
D31*
X25100000Y-76000000D02*
X24000000Y-76000000D01*
X24000000Y-75000000D02*
X24000000Y-77000000D01*
D30*
X25100000Y-82000000D02*
X27000000Y-82000000D01*
D31*
X25100000Y-82000000D02*
X24000000Y-82000000D01*
X24000000Y-81000000D02*
X24000000Y-83000000D01*
D30*
X30850000Y-82950000D02*
X30900000Y-83000000D01*
X29000000Y-82950000D02*
X30850000Y-82950000D01*
X30850000Y-88950000D02*
X30900000Y-89000000D01*
X29000000Y-88950000D02*
X30850000Y-88950000D01*
X25100000Y-88000000D02*
X27000000Y-88000000D01*
D31*
X25100000Y-88000000D02*
X24000000Y-88000000D01*
X24000000Y-87000000D02*
X24000000Y-89000000D01*
D30*
X62000000Y-47000000D02*
X63000000Y-46000000D01*
X63000000Y-46000000D02*
X64900000Y-46000000D01*
X62050000Y-47050000D02*
X62000000Y-47000000D01*
X66000000Y-47050000D02*
X62050000Y-47050000D01*
X67100000Y-48000000D02*
X66950000Y-48000000D01*
X66950000Y-48000000D02*
X66000000Y-47050000D01*
X62000000Y-47000000D02*
X61272821Y-47000000D01*
X61272821Y-47000000D02*
X60422800Y-47850021D01*
X59013892Y-47850021D02*
X58996401Y-47867512D01*
X58996401Y-47867512D02*
X58746078Y-47867512D01*
X58663590Y-47950000D02*
X58050000Y-47950000D01*
X60422800Y-47850021D02*
X59013892Y-47850021D01*
X58746078Y-47867512D02*
X58663590Y-47950000D01*
X64450000Y-48450000D02*
X64900000Y-48000000D01*
X58050000Y-48450000D02*
X64450000Y-48450000D01*
X73000000Y-20650000D02*
X73000000Y-20800000D01*
X75125000Y-19900000D02*
X73750000Y-19900000D01*
X73750000Y-19900000D02*
X73000000Y-20650000D01*
X61000000Y-46000000D02*
X60050000Y-46950000D01*
X61000000Y-23000000D02*
X61000000Y-46000000D01*
X64000000Y-20000000D02*
X61000000Y-23000000D01*
X73000000Y-20800000D02*
X72200000Y-20000000D01*
X60050000Y-46950000D02*
X58050000Y-46950000D01*
X72200000Y-20000000D02*
X64000000Y-20000000D01*
X73000000Y-23150000D02*
X73000000Y-23000000D01*
X75125000Y-23900000D02*
X73750000Y-23900000D01*
X73750000Y-23900000D02*
X73000000Y-23150000D01*
X73000000Y-29250000D02*
X73000000Y-29100000D01*
X58800000Y-50450000D02*
X58050000Y-50450000D01*
X68550000Y-50450000D02*
X58800000Y-50450000D01*
X70000000Y-49000000D02*
X68550000Y-50450000D01*
X70000000Y-45000000D02*
X70000000Y-49000000D01*
X72250000Y-30000000D02*
X65000000Y-30000000D01*
X67000000Y-42000000D02*
X70000000Y-45000000D01*
X73000000Y-29250000D02*
X72250000Y-30000000D01*
X65000000Y-30000000D02*
X64000000Y-31000000D01*
X64000000Y-31000000D02*
X64000000Y-41000000D01*
X64000000Y-41000000D02*
X65000000Y-42000000D01*
X65000000Y-42000000D02*
X67000000Y-42000000D01*
X74000000Y-25900000D02*
X73000000Y-26900000D01*
X75125000Y-25900000D02*
X74000000Y-25900000D01*
X69549989Y-48813601D02*
X68413590Y-49950000D01*
X69549989Y-45186399D02*
X69549989Y-48813601D01*
X66813601Y-42450011D02*
X69549989Y-45186399D01*
X64450011Y-42450011D02*
X66813601Y-42450011D01*
X58800000Y-49950000D02*
X58050000Y-49950000D01*
X68413590Y-49950000D02*
X58800000Y-49950000D01*
X73000000Y-26900000D02*
X72300000Y-26900000D01*
X72300000Y-26900000D02*
X71400000Y-26000000D01*
X71400000Y-26000000D02*
X64000000Y-26000000D01*
X63000000Y-41000000D02*
X64450011Y-42450011D01*
X63000000Y-27000000D02*
X63000000Y-41000000D01*
X64000000Y-26000000D02*
X63000000Y-27000000D01*
X33100000Y-23000000D02*
X38500000Y-23000000D01*
X38500000Y-23000000D02*
X40500000Y-25000000D01*
X40500000Y-25000000D02*
X46500000Y-25000000D01*
X46500000Y-25000000D02*
X48500000Y-27000000D01*
X48500000Y-27000000D02*
X48500000Y-47500000D01*
X48950000Y-47950000D02*
X50550000Y-47950000D01*
X48500000Y-47500000D02*
X48950000Y-47950000D01*
X33100000Y-83000000D02*
X46000000Y-83000000D01*
X46000000Y-83000000D02*
X49500000Y-79500000D01*
X49800000Y-57950000D02*
X50550000Y-57950000D01*
X49500000Y-79500000D02*
X49500000Y-58250000D01*
X49500000Y-58250000D02*
X49800000Y-57950000D01*
X33100000Y-89000000D02*
X46500000Y-89000000D01*
X58050000Y-77450000D02*
X58050000Y-58450000D01*
X46500000Y-89000000D02*
X58050000Y-77450000D01*
X17665000Y-88000000D02*
X18900000Y-88000000D01*
X16090000Y-88000000D02*
X17665000Y-88000000D01*
X16090000Y-88000000D02*
X16090000Y-91890000D01*
X16090000Y-91890000D02*
X16100000Y-91900000D01*
D31*
X16100000Y-91900000D02*
X16100000Y-92800000D01*
D30*
X68050000Y-28000000D02*
X66000000Y-28000000D01*
X35900000Y-90250000D02*
X35900000Y-92000000D01*
X50550000Y-24250000D02*
X50550000Y-46557500D01*
X50550000Y-46557500D02*
X50550000Y-46950000D01*
X48750000Y-17500000D02*
X48750000Y-22450000D01*
X48750000Y-22450000D02*
X50550000Y-24250000D01*
X75025000Y-22000000D02*
X75125000Y-21900000D01*
X69950000Y-22000000D02*
X75025000Y-22000000D01*
X75025000Y-28000000D02*
X75125000Y-27900000D01*
X69950000Y-28000000D02*
X75025000Y-28000000D01*
X49800000Y-48450000D02*
X50550000Y-48450000D01*
X48000000Y-47636410D02*
X48813590Y-48450000D01*
X48000000Y-32500000D02*
X48000000Y-47636410D01*
X39600000Y-30000000D02*
X45500000Y-30000000D01*
X48813590Y-48450000D02*
X49800000Y-48450000D01*
X45500000Y-30000000D02*
X48000000Y-32500000D01*
X38750000Y-27000000D02*
X38750000Y-29150000D01*
X38750000Y-29150000D02*
X39600000Y-30000000D01*
X38750000Y-33000000D02*
X38750000Y-34650000D01*
X38750000Y-34650000D02*
X39649989Y-35549989D01*
X49800000Y-49450000D02*
X50550000Y-49450000D01*
X47000000Y-36863589D02*
X47000000Y-48090770D01*
X48359230Y-49450000D02*
X49800000Y-49450000D01*
X45686400Y-35549989D02*
X47000000Y-36863589D01*
X39649989Y-35549989D02*
X45686400Y-35549989D01*
X47000000Y-48090770D02*
X48359230Y-49450000D01*
X49800000Y-50450000D02*
X50550000Y-50450000D01*
X48086410Y-50450000D02*
X49800000Y-50450000D01*
X46000000Y-42000000D02*
X46000000Y-48363590D01*
X38750000Y-41050000D02*
X39100000Y-41400000D01*
X38750000Y-39000000D02*
X38750000Y-41050000D01*
X39100000Y-41400000D02*
X45400000Y-41400000D01*
X46000000Y-48363590D02*
X48086410Y-50450000D01*
X45400000Y-41400000D02*
X46000000Y-42000000D01*
X35900000Y-39750000D02*
X35900000Y-39000000D01*
X47586410Y-51450000D02*
X49800000Y-51450000D01*
X39749989Y-48049989D02*
X44186400Y-48049989D01*
X38750000Y-47050000D02*
X39749989Y-48049989D01*
X38750000Y-45000000D02*
X38750000Y-47050000D01*
X49800000Y-51450000D02*
X50550000Y-51450000D01*
X44186400Y-48049989D02*
X47586410Y-51450000D01*
X35900000Y-42250000D02*
X35900000Y-45000000D01*
X33950000Y-45000000D02*
X35900000Y-45000000D01*
X35900000Y-45000000D02*
X38750000Y-45000000D01*
X35900000Y-45750000D02*
X35900000Y-45000000D01*
X49800000Y-52450000D02*
X50550000Y-52450000D01*
X49667523Y-52582477D02*
X49800000Y-52450000D01*
X48035923Y-52599968D02*
X49399708Y-52599968D01*
X49399708Y-52599968D02*
X49417199Y-52582477D01*
X39600000Y-53300000D02*
X47335891Y-53300000D01*
X38750000Y-51000000D02*
X38750000Y-52450000D01*
X49417199Y-52582477D02*
X49667523Y-52582477D01*
X38750000Y-52450000D02*
X39600000Y-53300000D01*
X47335891Y-53300000D02*
X48035923Y-52599968D01*
X35900000Y-48250000D02*
X35900000Y-51000000D01*
X33100000Y-51000000D02*
X35900000Y-51000000D01*
X35900000Y-51000000D02*
X38750000Y-51000000D01*
X35900000Y-51750000D02*
X35900000Y-51000000D01*
X50517501Y-53482499D02*
X50550000Y-53450000D01*
X49789999Y-53482499D02*
X50517501Y-53482499D01*
X38750000Y-55050000D02*
X39599978Y-54200022D01*
X38750000Y-57000000D02*
X38750000Y-55050000D01*
X47708691Y-54200022D02*
X48408723Y-53499990D01*
X48408723Y-53499990D02*
X49772508Y-53499990D01*
X39599978Y-54200022D02*
X47708691Y-54200022D01*
X49772508Y-53499990D02*
X49789999Y-53482499D01*
X35900000Y-54250000D02*
X35900000Y-57000000D01*
X33100000Y-57000000D02*
X35900000Y-57000000D01*
X35900000Y-57000000D02*
X38750000Y-57000000D01*
X35900000Y-58250000D02*
X35900000Y-57000000D01*
X35900000Y-60750000D02*
X35900000Y-62900000D01*
X33100000Y-63000000D02*
X36000000Y-63000000D01*
X35900000Y-62900000D02*
X36000000Y-63000000D01*
X36000000Y-63000000D02*
X38750000Y-63000000D01*
X35900000Y-63100000D02*
X36000000Y-63000000D01*
X35900000Y-64250000D02*
X35900000Y-63100000D01*
X46250011Y-58886400D02*
X46250011Y-56931523D01*
X38875000Y-63000000D02*
X41924989Y-59950011D01*
X38750000Y-63000000D02*
X38875000Y-63000000D01*
X46250011Y-56931523D02*
X48731534Y-54450000D01*
X49800000Y-54450000D02*
X50550000Y-54450000D01*
X48731534Y-54450000D02*
X49800000Y-54450000D01*
X45186400Y-59950011D02*
X46250011Y-58886400D01*
X41924989Y-59950011D02*
X45186400Y-59950011D01*
X35900000Y-66750000D02*
X35900000Y-69000000D01*
X33100000Y-69000000D02*
X35900000Y-69000000D01*
X35900000Y-69000000D02*
X38750000Y-69000000D01*
X35900000Y-69750000D02*
X35900000Y-69000000D01*
X45000000Y-66000000D02*
X47149967Y-63850033D01*
X47150033Y-57304323D02*
X49004356Y-55450000D01*
X47149967Y-59259266D02*
X47150033Y-59259200D01*
X49800000Y-55450000D02*
X50550000Y-55450000D01*
X41875000Y-66000000D02*
X45000000Y-66000000D01*
X47149967Y-63850033D02*
X47149967Y-59259266D01*
X49004356Y-55450000D02*
X49800000Y-55450000D01*
X38875000Y-69000000D02*
X41875000Y-66000000D01*
X47150033Y-59259200D02*
X47150033Y-57304323D01*
X38750000Y-69000000D02*
X38875000Y-69000000D01*
X35900000Y-72250000D02*
X35900000Y-75000000D01*
X33100000Y-75000000D02*
X35900000Y-75000000D01*
X35900000Y-75000000D02*
X38750000Y-75000000D01*
X35900000Y-75750000D02*
X35900000Y-75000000D01*
X49800000Y-56450000D02*
X50550000Y-56450000D01*
X38750000Y-75000000D02*
X38875000Y-75000000D01*
X38875000Y-75000000D02*
X41375000Y-72500000D01*
X44500000Y-72500000D02*
X48049989Y-68950011D01*
X48050055Y-59632000D02*
X48050055Y-57677123D01*
X41375000Y-72500000D02*
X44500000Y-72500000D01*
X49277178Y-56450000D02*
X49800000Y-56450000D01*
X48050055Y-57677123D02*
X49277178Y-56450000D01*
X48049989Y-59632066D02*
X48050055Y-59632000D01*
X48049989Y-68950011D02*
X48049989Y-59632066D01*
X35900000Y-80900000D02*
X35800000Y-81000000D01*
X35900000Y-78250000D02*
X35900000Y-80900000D01*
X33100000Y-81000000D02*
X35800000Y-81000000D01*
X35900000Y-82050000D02*
X35900000Y-81000000D01*
X35800000Y-81000000D02*
X35900000Y-81000000D01*
X35900000Y-81000000D02*
X38750000Y-81000000D01*
X49550000Y-57450000D02*
X50550000Y-57450000D01*
X38750000Y-79350000D02*
X39900000Y-78200000D01*
X39900000Y-78200000D02*
X46800000Y-78200000D01*
X38750000Y-81000000D02*
X38750000Y-79350000D01*
X46800000Y-78200000D02*
X49000000Y-76000000D01*
X49000000Y-58000000D02*
X49550000Y-57450000D01*
X49000000Y-76000000D02*
X49000000Y-58000000D01*
X35900000Y-84550000D02*
X35900000Y-86900000D01*
X35900000Y-86900000D02*
X35800000Y-87000000D01*
X33100000Y-87000000D02*
X35800000Y-87000000D01*
X35900000Y-87100000D02*
X36000000Y-87000000D01*
X35900000Y-87750000D02*
X35900000Y-87100000D01*
X35800000Y-87000000D02*
X36000000Y-87000000D01*
X36000000Y-87000000D02*
X38750000Y-87000000D01*
X50550000Y-58950000D02*
X50550000Y-58450000D01*
X50550000Y-80450000D02*
X50550000Y-58950000D01*
X47100000Y-83900000D02*
X50550000Y-80450000D01*
X39900000Y-83900000D02*
X47100000Y-83900000D01*
X38750000Y-87000000D02*
X38750000Y-85050000D01*
X38750000Y-85050000D02*
X39900000Y-83900000D01*
X58082499Y-47417501D02*
X58050000Y-47450000D01*
X58810001Y-47417501D02*
X58082499Y-47417501D01*
X58827492Y-47400010D02*
X58810001Y-47417501D01*
X72600000Y-23400000D02*
X64600000Y-23400000D01*
X73000000Y-23000000D02*
X72600000Y-23400000D01*
X64600000Y-23400000D02*
X62000000Y-26000000D01*
X62000000Y-26000000D02*
X62000000Y-45636410D01*
X62000000Y-45636410D02*
X60236400Y-47400010D01*
X60236400Y-47400010D02*
X58827492Y-47400010D01*
X73525000Y-29775000D02*
X73000000Y-29250000D01*
X75125000Y-29900000D02*
X73650000Y-29900000D01*
X73650000Y-29900000D02*
X73525000Y-29775000D01*
X33100000Y-29000000D02*
X37963589Y-29000000D01*
X48495640Y-48950000D02*
X49800000Y-48950000D01*
X49800000Y-48950000D02*
X50550000Y-48950000D01*
X47500000Y-47954360D02*
X48495640Y-48950000D01*
X47500000Y-33500000D02*
X47500000Y-47954360D01*
X44500000Y-30500000D02*
X47500000Y-33500000D01*
X37963589Y-29000000D02*
X39463589Y-30500000D01*
X39463589Y-30500000D02*
X44500000Y-30500000D01*
X45000000Y-36000000D02*
X46500000Y-37500000D01*
X46500000Y-48227180D02*
X48222820Y-49950000D01*
X46500000Y-37500000D02*
X46500000Y-48227180D01*
X49800000Y-49950000D02*
X50550000Y-49950000D01*
X39463589Y-36000000D02*
X45000000Y-36000000D01*
X38463589Y-35000000D02*
X39463589Y-36000000D01*
X33100000Y-35000000D02*
X38463589Y-35000000D01*
X48222820Y-49950000D02*
X49800000Y-49950000D01*
X49800000Y-50950000D02*
X50550000Y-50950000D01*
X47950000Y-50950000D02*
X49800000Y-50950000D01*
X38000000Y-41000000D02*
X39000000Y-42000000D01*
X33100000Y-41000000D02*
X38000000Y-41000000D01*
X39000000Y-42000000D02*
X45000000Y-42000000D01*
X45000000Y-42000000D02*
X45500000Y-42500000D01*
X45500000Y-48500000D02*
X47950000Y-50950000D01*
X45500000Y-42500000D02*
X45500000Y-48500000D01*
X47450000Y-51950000D02*
X49800000Y-51950000D01*
X49800000Y-51950000D02*
X50550000Y-51950000D01*
X44000000Y-48500000D02*
X47450000Y-51950000D01*
X39563589Y-48500000D02*
X44000000Y-48500000D01*
X38063589Y-47000000D02*
X39563589Y-48500000D01*
X33100000Y-47000000D02*
X38063589Y-47000000D01*
X49936411Y-52950000D02*
X50550000Y-52950000D01*
X38613590Y-52950000D02*
X39413600Y-53750011D01*
X49853923Y-53032488D02*
X49936411Y-52950000D01*
X33950000Y-53000000D02*
X34000000Y-52950000D01*
X49586108Y-53049979D02*
X49603599Y-53032488D01*
X49603599Y-53032488D02*
X49853923Y-53032488D01*
X47522291Y-53750011D02*
X48222323Y-53049979D01*
X39413600Y-53750011D02*
X47522291Y-53750011D01*
X33100000Y-53000000D02*
X33950000Y-53000000D01*
X48222323Y-53049979D02*
X49586108Y-53049979D01*
X34000000Y-52950000D02*
X38613590Y-52950000D01*
X45800000Y-58700000D02*
X45800000Y-56745123D01*
X33600000Y-59500000D02*
X45000000Y-59500000D01*
X33100000Y-59000000D02*
X33600000Y-59500000D01*
X45800000Y-56745123D02*
X48595123Y-53950000D01*
X49800000Y-53950000D02*
X50550000Y-53950000D01*
X48595123Y-53950000D02*
X49800000Y-53950000D01*
X45000000Y-59500000D02*
X45800000Y-58700000D01*
X46700022Y-57117923D02*
X48867945Y-54950000D01*
X46699956Y-63300044D02*
X46699956Y-59072866D01*
X44500000Y-65500000D02*
X46699956Y-63300044D01*
X48867945Y-54950000D02*
X49800000Y-54950000D01*
X46699956Y-59072866D02*
X46700022Y-59072800D01*
X34450000Y-65500000D02*
X44500000Y-65500000D01*
X46700022Y-59072800D02*
X46700022Y-57117923D01*
X49800000Y-54950000D02*
X50550000Y-54950000D01*
X33950000Y-65000000D02*
X34450000Y-65500000D01*
X33100000Y-65000000D02*
X33950000Y-65000000D01*
X47599978Y-59445666D02*
X47600044Y-59445600D01*
X47600044Y-59445600D02*
X47600044Y-57490723D01*
X49800000Y-55950000D02*
X50550000Y-55950000D01*
X47599978Y-67900022D02*
X47599978Y-59445666D01*
X44500000Y-71000000D02*
X47599978Y-67900022D01*
X47600044Y-57490723D02*
X49140767Y-55950000D01*
X33100000Y-71000000D02*
X44500000Y-71000000D01*
X49140767Y-55950000D02*
X49800000Y-55950000D01*
X48500000Y-74500000D02*
X48500000Y-59818466D01*
X33100000Y-77000000D02*
X46000000Y-77000000D01*
X49800000Y-56950000D02*
X50550000Y-56950000D01*
X48500066Y-59818400D02*
X48500066Y-57863523D01*
X46000000Y-77000000D02*
X48500000Y-74500000D01*
X49413589Y-56950000D02*
X49800000Y-56950000D01*
X48500000Y-59818466D02*
X48500066Y-59818400D01*
X48500066Y-57863523D02*
X49413589Y-56950000D01*
D32*
G36*
X98813001Y-51373000D02*
G01*
X86627000Y-51373000D01*
X86627000Y-50199396D01*
X86829069Y-50260693D01*
X87050000Y-50282453D01*
X89050000Y-50282453D01*
X89270931Y-50260693D01*
X89483371Y-50196250D01*
X89679157Y-50091600D01*
X89850765Y-49950765D01*
X89991600Y-49779157D01*
X90096250Y-49583371D01*
X90160693Y-49370931D01*
X90182453Y-49150000D01*
X90182453Y-47650000D01*
X90160693Y-47429069D01*
X90096250Y-47216629D01*
X89991600Y-47020843D01*
X89850765Y-46849235D01*
X89685000Y-46713195D01*
X89685000Y-46385750D01*
X92715000Y-46385750D01*
X92715000Y-48062542D01*
X92739403Y-48185223D01*
X92787270Y-48300785D01*
X92856763Y-48404789D01*
X92945211Y-48493237D01*
X93049215Y-48562730D01*
X93164777Y-48610597D01*
X93287458Y-48635000D01*
X94064250Y-48635000D01*
X94223000Y-48476250D01*
X94223000Y-46227000D01*
X94477000Y-46227000D01*
X94477000Y-48476250D01*
X94635750Y-48635000D01*
X95412542Y-48635000D01*
X95535223Y-48610597D01*
X95650785Y-48562730D01*
X95754789Y-48493237D01*
X95843237Y-48404789D01*
X95912730Y-48300785D01*
X95960597Y-48185223D01*
X95985000Y-48062542D01*
X95985000Y-46385750D01*
X95826250Y-46227000D01*
X94477000Y-46227000D01*
X94223000Y-46227000D01*
X92873750Y-46227000D01*
X92715000Y-46385750D01*
X89685000Y-46385750D01*
X89526250Y-46227000D01*
X88177000Y-46227000D01*
X88177000Y-46247000D01*
X87923000Y-46247000D01*
X87923000Y-46227000D01*
X87903000Y-46227000D01*
X87903000Y-45973000D01*
X87923000Y-45973000D01*
X87923000Y-45953000D01*
X88177000Y-45953000D01*
X88177000Y-45973000D01*
X89526250Y-45973000D01*
X89685000Y-45814250D01*
X89685000Y-45486805D01*
X89850765Y-45350765D01*
X89991600Y-45179157D01*
X90096250Y-44983371D01*
X90160693Y-44770931D01*
X90182453Y-44550000D01*
X90182453Y-44137458D01*
X92715000Y-44137458D01*
X92715000Y-45814250D01*
X92873750Y-45973000D01*
X94223000Y-45973000D01*
X94223000Y-43723750D01*
X94477000Y-43723750D01*
X94477000Y-45973000D01*
X95826250Y-45973000D01*
X95985000Y-45814250D01*
X95985000Y-44137458D01*
X95960597Y-44014777D01*
X95912730Y-43899215D01*
X95843237Y-43795211D01*
X95754789Y-43706763D01*
X95650785Y-43637270D01*
X95535223Y-43589403D01*
X95412542Y-43565000D01*
X94635750Y-43565000D01*
X94477000Y-43723750D01*
X94223000Y-43723750D01*
X94064250Y-43565000D01*
X93287458Y-43565000D01*
X93164777Y-43589403D01*
X93049215Y-43637270D01*
X92945211Y-43706763D01*
X92856763Y-43795211D01*
X92787270Y-43899215D01*
X92739403Y-44014777D01*
X92715000Y-44137458D01*
X90182453Y-44137458D01*
X90182453Y-43050000D01*
X90160693Y-42829069D01*
X90096250Y-42616629D01*
X89991600Y-42420843D01*
X89850765Y-42249235D01*
X89679157Y-42108400D01*
X89483371Y-42003750D01*
X89270931Y-41939307D01*
X89050000Y-41917547D01*
X87050000Y-41917547D01*
X86829069Y-41939307D01*
X86627000Y-42000604D01*
X86627000Y-40627000D01*
X98813000Y-40627000D01*
X98813001Y-51373000D01*
X98813001Y-51373000D01*
G37*
X98813001Y-51373000D02*
X86627000Y-51373000D01*
X86627000Y-50199396D01*
X86829069Y-50260693D01*
X87050000Y-50282453D01*
X89050000Y-50282453D01*
X89270931Y-50260693D01*
X89483371Y-50196250D01*
X89679157Y-50091600D01*
X89850765Y-49950765D01*
X89991600Y-49779157D01*
X90096250Y-49583371D01*
X90160693Y-49370931D01*
X90182453Y-49150000D01*
X90182453Y-47650000D01*
X90160693Y-47429069D01*
X90096250Y-47216629D01*
X89991600Y-47020843D01*
X89850765Y-46849235D01*
X89685000Y-46713195D01*
X89685000Y-46385750D01*
X92715000Y-46385750D01*
X92715000Y-48062542D01*
X92739403Y-48185223D01*
X92787270Y-48300785D01*
X92856763Y-48404789D01*
X92945211Y-48493237D01*
X93049215Y-48562730D01*
X93164777Y-48610597D01*
X93287458Y-48635000D01*
X94064250Y-48635000D01*
X94223000Y-48476250D01*
X94223000Y-46227000D01*
X94477000Y-46227000D01*
X94477000Y-48476250D01*
X94635750Y-48635000D01*
X95412542Y-48635000D01*
X95535223Y-48610597D01*
X95650785Y-48562730D01*
X95754789Y-48493237D01*
X95843237Y-48404789D01*
X95912730Y-48300785D01*
X95960597Y-48185223D01*
X95985000Y-48062542D01*
X95985000Y-46385750D01*
X95826250Y-46227000D01*
X94477000Y-46227000D01*
X94223000Y-46227000D01*
X92873750Y-46227000D01*
X92715000Y-46385750D01*
X89685000Y-46385750D01*
X89526250Y-46227000D01*
X88177000Y-46227000D01*
X88177000Y-46247000D01*
X87923000Y-46247000D01*
X87923000Y-46227000D01*
X87903000Y-46227000D01*
X87903000Y-45973000D01*
X87923000Y-45973000D01*
X87923000Y-45953000D01*
X88177000Y-45953000D01*
X88177000Y-45973000D01*
X89526250Y-45973000D01*
X89685000Y-45814250D01*
X89685000Y-45486805D01*
X89850765Y-45350765D01*
X89991600Y-45179157D01*
X90096250Y-44983371D01*
X90160693Y-44770931D01*
X90182453Y-44550000D01*
X90182453Y-44137458D01*
X92715000Y-44137458D01*
X92715000Y-45814250D01*
X92873750Y-45973000D01*
X94223000Y-45973000D01*
X94223000Y-43723750D01*
X94477000Y-43723750D01*
X94477000Y-45973000D01*
X95826250Y-45973000D01*
X95985000Y-45814250D01*
X95985000Y-44137458D01*
X95960597Y-44014777D01*
X95912730Y-43899215D01*
X95843237Y-43795211D01*
X95754789Y-43706763D01*
X95650785Y-43637270D01*
X95535223Y-43589403D01*
X95412542Y-43565000D01*
X94635750Y-43565000D01*
X94477000Y-43723750D01*
X94223000Y-43723750D01*
X94064250Y-43565000D01*
X93287458Y-43565000D01*
X93164777Y-43589403D01*
X93049215Y-43637270D01*
X92945211Y-43706763D01*
X92856763Y-43795211D01*
X92787270Y-43899215D01*
X92739403Y-44014777D01*
X92715000Y-44137458D01*
X90182453Y-44137458D01*
X90182453Y-43050000D01*
X90160693Y-42829069D01*
X90096250Y-42616629D01*
X89991600Y-42420843D01*
X89850765Y-42249235D01*
X89679157Y-42108400D01*
X89483371Y-42003750D01*
X89270931Y-41939307D01*
X89050000Y-41917547D01*
X87050000Y-41917547D01*
X86829069Y-41939307D01*
X86627000Y-42000604D01*
X86627000Y-40627000D01*
X98813000Y-40627000D01*
X98813001Y-51373000D01*
M02*
