G04 #@! TF.GenerationSoftware,KiCad,Pcbnew,5.1.0-rc2-unknown-38be0fc~81~ubuntu18.10.1*
G04 #@! TF.CreationDate,2019-03-05T14:14:04-05:00*
G04 #@! TF.ProjectId,LTC6811,4c544336-3831-4312-9e6b-696361645f70,rev?*
G04 #@! TF.SameCoordinates,Original*
G04 #@! TF.FileFunction,Legend,Top*
G04 #@! TF.FilePolarity,Positive*
%FSLAX46Y46*%
G04 Gerber Fmt 4.6, Leading zero omitted, Abs format (unit mm)*
G04 Created by KiCad (PCBNEW 5.1.0-rc2-unknown-38be0fc~81~ubuntu18.10.1) date 2019-03-05 14:14:04*
%MOMM*%
%LPD*%
G04 APERTURE LIST*
%ADD10C,0.300000*%
%ADD11C,0.120000*%
%ADD12C,0.150000*%
G04 APERTURE END LIST*
D10*
X46285714Y-4678571D02*
X45571428Y-4678571D01*
X45571428Y-3178571D01*
X46571428Y-3178571D02*
X47428571Y-3178571D01*
X47000000Y-4678571D02*
X47000000Y-3178571D01*
X48785714Y-4535714D02*
X48714285Y-4607142D01*
X48500000Y-4678571D01*
X48357142Y-4678571D01*
X48142857Y-4607142D01*
X48000000Y-4464285D01*
X47928571Y-4321428D01*
X47857142Y-4035714D01*
X47857142Y-3821428D01*
X47928571Y-3535714D01*
X48000000Y-3392857D01*
X48142857Y-3250000D01*
X48357142Y-3178571D01*
X48500000Y-3178571D01*
X48714285Y-3250000D01*
X48785714Y-3321428D01*
X50071428Y-3178571D02*
X49785714Y-3178571D01*
X49642857Y-3250000D01*
X49571428Y-3321428D01*
X49428571Y-3535714D01*
X49357142Y-3821428D01*
X49357142Y-4392857D01*
X49428571Y-4535714D01*
X49500000Y-4607142D01*
X49642857Y-4678571D01*
X49928571Y-4678571D01*
X50071428Y-4607142D01*
X50142857Y-4535714D01*
X50214285Y-4392857D01*
X50214285Y-4035714D01*
X50142857Y-3892857D01*
X50071428Y-3821428D01*
X49928571Y-3750000D01*
X49642857Y-3750000D01*
X49500000Y-3821428D01*
X49428571Y-3892857D01*
X49357142Y-4035714D01*
X51071428Y-3821428D02*
X50928571Y-3750000D01*
X50857142Y-3678571D01*
X50785714Y-3535714D01*
X50785714Y-3464285D01*
X50857142Y-3321428D01*
X50928571Y-3250000D01*
X51071428Y-3178571D01*
X51357142Y-3178571D01*
X51500000Y-3250000D01*
X51571428Y-3321428D01*
X51642857Y-3464285D01*
X51642857Y-3535714D01*
X51571428Y-3678571D01*
X51500000Y-3750000D01*
X51357142Y-3821428D01*
X51071428Y-3821428D01*
X50928571Y-3892857D01*
X50857142Y-3964285D01*
X50785714Y-4107142D01*
X50785714Y-4392857D01*
X50857142Y-4535714D01*
X50928571Y-4607142D01*
X51071428Y-4678571D01*
X51357142Y-4678571D01*
X51500000Y-4607142D01*
X51571428Y-4535714D01*
X51642857Y-4392857D01*
X51642857Y-4107142D01*
X51571428Y-3964285D01*
X51500000Y-3892857D01*
X51357142Y-3821428D01*
X53071428Y-4678571D02*
X52214285Y-4678571D01*
X52642857Y-4678571D02*
X52642857Y-3178571D01*
X52500000Y-3392857D01*
X52357142Y-3535714D01*
X52214285Y-3607142D01*
X54500000Y-4678571D02*
X53642857Y-4678571D01*
X54071428Y-4678571D02*
X54071428Y-3178571D01*
X53928571Y-3392857D01*
X53785714Y-3535714D01*
X53642857Y-3607142D01*
D11*
X67800000Y-56800000D02*
X68800000Y-56800000D01*
X68800000Y-55100000D02*
X67800000Y-55100000D01*
X68800000Y-52850000D02*
X67800000Y-52850000D01*
X67800000Y-54550000D02*
X68800000Y-54550000D01*
X50050000Y-18100000D02*
X49350000Y-18100000D01*
X49350000Y-16900000D02*
X50050000Y-16900000D01*
X49350000Y-13900000D02*
X50050000Y-13900000D01*
X50050000Y-15100000D02*
X49350000Y-15100000D01*
X83550000Y-49150000D02*
X84550000Y-49150000D01*
X84550000Y-47450000D02*
X83550000Y-47450000D01*
X69350000Y-22600000D02*
X68650000Y-22600000D01*
X68650000Y-21400000D02*
X69350000Y-21400000D01*
X68650000Y-27400000D02*
X69350000Y-27400000D01*
X69350000Y-28600000D02*
X68650000Y-28600000D01*
X64900000Y-90350000D02*
X64900000Y-91050000D01*
X63700000Y-91050000D02*
X63700000Y-90350000D01*
X67700000Y-91050000D02*
X67700000Y-90350000D01*
X68900000Y-90350000D02*
X68900000Y-91050000D01*
X72900000Y-90350000D02*
X72900000Y-91050000D01*
X71700000Y-91050000D02*
X71700000Y-90350000D01*
X75700000Y-91050000D02*
X75700000Y-90350000D01*
X76900000Y-90350000D02*
X76900000Y-91050000D01*
X80900000Y-90350000D02*
X80900000Y-91050000D01*
X79700000Y-91050000D02*
X79700000Y-90350000D01*
X15000000Y-17070000D02*
X13000000Y-17070000D01*
X13000000Y-14930000D02*
X15000000Y-14930000D01*
X13000000Y-20930000D02*
X15000000Y-20930000D01*
X15000000Y-23070000D02*
X13000000Y-23070000D01*
X15000000Y-29070000D02*
X13000000Y-29070000D01*
X13000000Y-26930000D02*
X15000000Y-26930000D01*
X13000000Y-32930000D02*
X15000000Y-32930000D01*
X15000000Y-35070000D02*
X13000000Y-35070000D01*
X15000000Y-41070000D02*
X13000000Y-41070000D01*
X13000000Y-38930000D02*
X15000000Y-38930000D01*
X13000000Y-44930000D02*
X15000000Y-44930000D01*
X15000000Y-47070000D02*
X13000000Y-47070000D01*
X15000000Y-53070000D02*
X13000000Y-53070000D01*
X13000000Y-50930000D02*
X15000000Y-50930000D01*
X13000000Y-56930000D02*
X15000000Y-56930000D01*
X15000000Y-59070000D02*
X13000000Y-59070000D01*
X15000000Y-65070000D02*
X13000000Y-65070000D01*
X13000000Y-62930000D02*
X15000000Y-62930000D01*
X13000000Y-68930000D02*
X15000000Y-68930000D01*
X15000000Y-71070000D02*
X13000000Y-71070000D01*
X15000000Y-77070000D02*
X13000000Y-77070000D01*
X13000000Y-74930000D02*
X15000000Y-74930000D01*
X13000000Y-80930000D02*
X15000000Y-80930000D01*
X15000000Y-83070000D02*
X13000000Y-83070000D01*
X4570000Y-67670000D02*
X3300000Y-67670000D01*
X4570000Y-66400000D02*
X4570000Y-67670000D01*
X2257071Y-35540000D02*
X1860000Y-35540000D01*
X2257071Y-36300000D02*
X1860000Y-36300000D01*
X-6800000Y-35540000D02*
X-800000Y-35540000D01*
X-6800000Y-36300000D02*
X-6800000Y-35540000D01*
X-800000Y-36300000D02*
X-6800000Y-36300000D01*
X1860000Y-37190000D02*
X-800000Y-37190000D01*
X2257071Y-38080000D02*
X1860000Y-38080000D01*
X2257071Y-38840000D02*
X1860000Y-38840000D01*
X-6800000Y-38080000D02*
X-800000Y-38080000D01*
X-6800000Y-38840000D02*
X-6800000Y-38080000D01*
X-800000Y-38840000D02*
X-6800000Y-38840000D01*
X1860000Y-39730000D02*
X-800000Y-39730000D01*
X2257071Y-40620000D02*
X1860000Y-40620000D01*
X2257071Y-41380000D02*
X1860000Y-41380000D01*
X-6800000Y-40620000D02*
X-800000Y-40620000D01*
X-6800000Y-41380000D02*
X-6800000Y-40620000D01*
X-800000Y-41380000D02*
X-6800000Y-41380000D01*
X1860000Y-42270000D02*
X-800000Y-42270000D01*
X2257071Y-43160000D02*
X1860000Y-43160000D01*
X2257071Y-43920000D02*
X1860000Y-43920000D01*
X-6800000Y-43160000D02*
X-800000Y-43160000D01*
X-6800000Y-43920000D02*
X-6800000Y-43160000D01*
X-800000Y-43920000D02*
X-6800000Y-43920000D01*
X1860000Y-44810000D02*
X-800000Y-44810000D01*
X2257071Y-45700000D02*
X1860000Y-45700000D01*
X2257071Y-46460000D02*
X1860000Y-46460000D01*
X-6800000Y-45700000D02*
X-800000Y-45700000D01*
X-6800000Y-46460000D02*
X-6800000Y-45700000D01*
X-800000Y-46460000D02*
X-6800000Y-46460000D01*
X1860000Y-47350000D02*
X-800000Y-47350000D01*
X2257071Y-48240000D02*
X1860000Y-48240000D01*
X2257071Y-49000000D02*
X1860000Y-49000000D01*
X-6800000Y-48240000D02*
X-800000Y-48240000D01*
X-6800000Y-49000000D02*
X-6800000Y-48240000D01*
X-800000Y-49000000D02*
X-6800000Y-49000000D01*
X1860000Y-49890000D02*
X-800000Y-49890000D01*
X2257071Y-50780000D02*
X1860000Y-50780000D01*
X2257071Y-51540000D02*
X1860000Y-51540000D01*
X-6800000Y-50780000D02*
X-800000Y-50780000D01*
X-6800000Y-51540000D02*
X-6800000Y-50780000D01*
X-800000Y-51540000D02*
X-6800000Y-51540000D01*
X1860000Y-52430000D02*
X-800000Y-52430000D01*
X2257071Y-53320000D02*
X1860000Y-53320000D01*
X2257071Y-54080000D02*
X1860000Y-54080000D01*
X-6800000Y-53320000D02*
X-800000Y-53320000D01*
X-6800000Y-54080000D02*
X-6800000Y-53320000D01*
X-800000Y-54080000D02*
X-6800000Y-54080000D01*
X1860000Y-54970000D02*
X-800000Y-54970000D01*
X2257071Y-55860000D02*
X1860000Y-55860000D01*
X2257071Y-56620000D02*
X1860000Y-56620000D01*
X-6800000Y-55860000D02*
X-800000Y-55860000D01*
X-6800000Y-56620000D02*
X-6800000Y-55860000D01*
X-800000Y-56620000D02*
X-6800000Y-56620000D01*
X1860000Y-57510000D02*
X-800000Y-57510000D01*
X2257071Y-58400000D02*
X1860000Y-58400000D01*
X2257071Y-59160000D02*
X1860000Y-59160000D01*
X-6800000Y-58400000D02*
X-800000Y-58400000D01*
X-6800000Y-59160000D02*
X-6800000Y-58400000D01*
X-800000Y-59160000D02*
X-6800000Y-59160000D01*
X1860000Y-60050000D02*
X-800000Y-60050000D01*
X2257071Y-60940000D02*
X1860000Y-60940000D01*
X2257071Y-61700000D02*
X1860000Y-61700000D01*
X-6800000Y-60940000D02*
X-800000Y-60940000D01*
X-6800000Y-61700000D02*
X-6800000Y-60940000D01*
X-800000Y-61700000D02*
X-6800000Y-61700000D01*
X1860000Y-62590000D02*
X-800000Y-62590000D01*
X2257071Y-63480000D02*
X1860000Y-63480000D01*
X2257071Y-64240000D02*
X1860000Y-64240000D01*
X-6800000Y-63480000D02*
X-800000Y-63480000D01*
X-6800000Y-64240000D02*
X-6800000Y-63480000D01*
X-800000Y-64240000D02*
X-6800000Y-64240000D01*
X1860000Y-65130000D02*
X-800000Y-65130000D01*
X2190000Y-66020000D02*
X1860000Y-66020000D01*
X2190000Y-66780000D02*
X1860000Y-66780000D01*
X-800000Y-66120000D02*
X-6800000Y-66120000D01*
X-800000Y-66240000D02*
X-6800000Y-66240000D01*
X-800000Y-66360000D02*
X-6800000Y-66360000D01*
X-800000Y-66480000D02*
X-6800000Y-66480000D01*
X-800000Y-66600000D02*
X-6800000Y-66600000D01*
X-800000Y-66720000D02*
X-6800000Y-66720000D01*
X-6800000Y-66020000D02*
X-800000Y-66020000D01*
X-6800000Y-66780000D02*
X-6800000Y-66020000D01*
X-800000Y-66780000D02*
X-6800000Y-66780000D01*
X-800000Y-67730000D02*
X1860000Y-67730000D01*
X-800000Y-34590000D02*
X-800000Y-67730000D01*
X1860000Y-34590000D02*
X-800000Y-34590000D01*
X1860000Y-67730000D02*
X1860000Y-34590000D01*
X96400000Y-23340000D02*
X97020000Y-23340000D01*
X96400000Y-21740000D02*
X96400000Y-23340000D01*
X97020000Y-21740000D02*
X96400000Y-21740000D01*
X96400000Y-20800000D02*
X97020000Y-20800000D01*
X96400000Y-19200000D02*
X96400000Y-20800000D01*
X97020000Y-19200000D02*
X96400000Y-19200000D01*
X91020000Y-22290000D02*
X92020000Y-22290000D01*
X91020000Y-20250000D02*
X92020000Y-20250000D01*
X92450000Y-22290000D02*
X92020000Y-22540000D01*
X92450000Y-20250000D02*
X92450000Y-22290000D01*
X92020000Y-20000000D02*
X92450000Y-20250000D01*
X92020000Y-22540000D02*
X91020000Y-22540000D01*
X92020000Y-20000000D02*
X92020000Y-22540000D01*
X91020000Y-20000000D02*
X92020000Y-20000000D01*
X97020000Y-23910000D02*
X97020000Y-18630000D01*
X91020000Y-23910000D02*
X97020000Y-23910000D01*
X91020000Y-18630000D02*
X91020000Y-23910000D01*
X97020000Y-18630000D02*
X91020000Y-18630000D01*
X97020000Y-25630000D02*
X91020000Y-25630000D01*
X91020000Y-25630000D02*
X91020000Y-30910000D01*
X91020000Y-30910000D02*
X97020000Y-30910000D01*
X97020000Y-30910000D02*
X97020000Y-25630000D01*
X91020000Y-27000000D02*
X92020000Y-27000000D01*
X92020000Y-27000000D02*
X92020000Y-29540000D01*
X92020000Y-29540000D02*
X91020000Y-29540000D01*
X92020000Y-27000000D02*
X92450000Y-27250000D01*
X92450000Y-27250000D02*
X92450000Y-29290000D01*
X92450000Y-29290000D02*
X92020000Y-29540000D01*
X91020000Y-27250000D02*
X92020000Y-27250000D01*
X91020000Y-29290000D02*
X92020000Y-29290000D01*
X97020000Y-26200000D02*
X96400000Y-26200000D01*
X96400000Y-26200000D02*
X96400000Y-27800000D01*
X96400000Y-27800000D02*
X97020000Y-27800000D01*
X97020000Y-28740000D02*
X96400000Y-28740000D01*
X96400000Y-28740000D02*
X96400000Y-30340000D01*
X96400000Y-30340000D02*
X97020000Y-30340000D01*
X66170000Y-98830000D02*
X66170000Y-97500000D01*
X67500000Y-98830000D02*
X66170000Y-98830000D01*
X68770000Y-98830000D02*
X68770000Y-96170000D01*
X68770000Y-96170000D02*
X81530000Y-96170000D01*
X68770000Y-98830000D02*
X81530000Y-98830000D01*
X81530000Y-98830000D02*
X81530000Y-96170000D01*
X85371495Y-54670000D02*
X85371495Y-56000000D01*
X84041495Y-54670000D02*
X85371495Y-54670000D01*
X82771495Y-54670000D02*
X82771495Y-57330000D01*
X82771495Y-57330000D02*
X77631495Y-57330000D01*
X82771495Y-54670000D02*
X77631495Y-54670000D01*
X77631495Y-54670000D02*
X77631495Y-57330000D01*
X77590000Y-36670000D02*
X77590000Y-39330000D01*
X82730000Y-36670000D02*
X77590000Y-36670000D01*
X82730000Y-39330000D02*
X77590000Y-39330000D01*
X82730000Y-36670000D02*
X82730000Y-39330000D01*
X84000000Y-36670000D02*
X85330000Y-36670000D01*
X85330000Y-36670000D02*
X85330000Y-38000000D01*
X87100000Y-42690000D02*
X93110000Y-42690000D01*
X89350000Y-49510000D02*
X93110000Y-49510000D01*
X93110000Y-42690000D02*
X93110000Y-43950000D01*
X93110000Y-49510000D02*
X93110000Y-48250000D01*
X27240000Y-20420000D02*
X27240000Y-21350000D01*
X27240000Y-23580000D02*
X27240000Y-22650000D01*
X27240000Y-23580000D02*
X29400000Y-23580000D01*
X27240000Y-20420000D02*
X28700000Y-20420000D01*
X27240000Y-26420000D02*
X28700000Y-26420000D01*
X27240000Y-29580000D02*
X29400000Y-29580000D01*
X27240000Y-29580000D02*
X27240000Y-28650000D01*
X27240000Y-26420000D02*
X27240000Y-27350000D01*
X27240000Y-32420000D02*
X28700000Y-32420000D01*
X27240000Y-35580000D02*
X29400000Y-35580000D01*
X27240000Y-35580000D02*
X27240000Y-34650000D01*
X27240000Y-32420000D02*
X27240000Y-33350000D01*
X27240000Y-38420000D02*
X27240000Y-39350000D01*
X27240000Y-41580000D02*
X27240000Y-40650000D01*
X27240000Y-41580000D02*
X29400000Y-41580000D01*
X27240000Y-38420000D02*
X28700000Y-38420000D01*
X27240000Y-44420000D02*
X28700000Y-44420000D01*
X27240000Y-47580000D02*
X29400000Y-47580000D01*
X27240000Y-47580000D02*
X27240000Y-46650000D01*
X27240000Y-44420000D02*
X27240000Y-45350000D01*
X27240000Y-50420000D02*
X28700000Y-50420000D01*
X27240000Y-53580000D02*
X29400000Y-53580000D01*
X27240000Y-53580000D02*
X27240000Y-52650000D01*
X27240000Y-50420000D02*
X27240000Y-51350000D01*
X27240000Y-56420000D02*
X27240000Y-57350000D01*
X27240000Y-59580000D02*
X27240000Y-58650000D01*
X27240000Y-59580000D02*
X29400000Y-59580000D01*
X27240000Y-56420000D02*
X28700000Y-56420000D01*
X27240000Y-62420000D02*
X28700000Y-62420000D01*
X27240000Y-65580000D02*
X29400000Y-65580000D01*
X27240000Y-65580000D02*
X27240000Y-64650000D01*
X27240000Y-62420000D02*
X27240000Y-63350000D01*
X27240000Y-68420000D02*
X27240000Y-69350000D01*
X27240000Y-71580000D02*
X27240000Y-70650000D01*
X27240000Y-71580000D02*
X29400000Y-71580000D01*
X27240000Y-68420000D02*
X28700000Y-68420000D01*
X27240000Y-74420000D02*
X27240000Y-75350000D01*
X27240000Y-77580000D02*
X27240000Y-76650000D01*
X27240000Y-77580000D02*
X29400000Y-77580000D01*
X27240000Y-74420000D02*
X28700000Y-74420000D01*
X27240000Y-80420000D02*
X28700000Y-80420000D01*
X27240000Y-83580000D02*
X29400000Y-83580000D01*
X27240000Y-83580000D02*
X27240000Y-82650000D01*
X27240000Y-80420000D02*
X27240000Y-81350000D01*
X27240000Y-86420000D02*
X27240000Y-87350000D01*
X27240000Y-89580000D02*
X27240000Y-88650000D01*
X27240000Y-89580000D02*
X29400000Y-89580000D01*
X27240000Y-86420000D02*
X28700000Y-86420000D01*
X40500000Y-15180000D02*
X39500000Y-15180000D01*
X39500000Y-13820000D02*
X40500000Y-13820000D01*
X39500000Y-16820000D02*
X40500000Y-16820000D01*
X40500000Y-18180000D02*
X39500000Y-18180000D01*
X65500000Y-47320000D02*
X66500000Y-47320000D01*
X66500000Y-48680000D02*
X65500000Y-48680000D01*
X66500000Y-46680000D02*
X65500000Y-46680000D01*
X65500000Y-45320000D02*
X66500000Y-45320000D01*
X72320000Y-22400000D02*
X72320000Y-21400000D01*
X73680000Y-21400000D02*
X73680000Y-22400000D01*
X73680000Y-27500000D02*
X73680000Y-28500000D01*
X72320000Y-28500000D02*
X72320000Y-27500000D01*
X65620000Y-91200000D02*
X65620000Y-90200000D01*
X66980000Y-90200000D02*
X66980000Y-91200000D01*
X70980000Y-90200000D02*
X70980000Y-91200000D01*
X69620000Y-91200000D02*
X69620000Y-90200000D01*
X73620000Y-91200000D02*
X73620000Y-90200000D01*
X74980000Y-90200000D02*
X74980000Y-91200000D01*
X77620000Y-91200000D02*
X77620000Y-90200000D01*
X78980000Y-90200000D02*
X78980000Y-91200000D01*
X82980000Y-90200000D02*
X82980000Y-91200000D01*
X81620000Y-91200000D02*
X81620000Y-90200000D01*
X31500000Y-20320000D02*
X32500000Y-20320000D01*
X32500000Y-21680000D02*
X31500000Y-21680000D01*
X31500000Y-22320000D02*
X32500000Y-22320000D01*
X32500000Y-23680000D02*
X31500000Y-23680000D01*
X31500000Y-26320000D02*
X32500000Y-26320000D01*
X32500000Y-27680000D02*
X31500000Y-27680000D01*
X32500000Y-29680000D02*
X31500000Y-29680000D01*
X31500000Y-28320000D02*
X32500000Y-28320000D01*
X31500000Y-32320000D02*
X32500000Y-32320000D01*
X32500000Y-33680000D02*
X31500000Y-33680000D01*
X32500000Y-35680000D02*
X31500000Y-35680000D01*
X31500000Y-34320000D02*
X32500000Y-34320000D01*
X31500000Y-38320000D02*
X32500000Y-38320000D01*
X32500000Y-39680000D02*
X31500000Y-39680000D01*
X32500000Y-41680000D02*
X31500000Y-41680000D01*
X31500000Y-40320000D02*
X32500000Y-40320000D01*
X31500000Y-44320000D02*
X32500000Y-44320000D01*
X32500000Y-45680000D02*
X31500000Y-45680000D01*
X32500000Y-47680000D02*
X31500000Y-47680000D01*
X31500000Y-46320000D02*
X32500000Y-46320000D01*
X32500000Y-51680000D02*
X31500000Y-51680000D01*
X31500000Y-50320000D02*
X32500000Y-50320000D01*
X31500000Y-52320000D02*
X32500000Y-52320000D01*
X32500000Y-53680000D02*
X31500000Y-53680000D01*
X31500000Y-56320000D02*
X32500000Y-56320000D01*
X32500000Y-57680000D02*
X31500000Y-57680000D01*
X32500000Y-59680000D02*
X31500000Y-59680000D01*
X31500000Y-58320000D02*
X32500000Y-58320000D01*
X32500000Y-63680000D02*
X31500000Y-63680000D01*
X31500000Y-62320000D02*
X32500000Y-62320000D01*
X31500000Y-64320000D02*
X32500000Y-64320000D01*
X32500000Y-65680000D02*
X31500000Y-65680000D01*
X32500000Y-69680000D02*
X31500000Y-69680000D01*
X31500000Y-68320000D02*
X32500000Y-68320000D01*
X32500000Y-71680000D02*
X31500000Y-71680000D01*
X31500000Y-70320000D02*
X32500000Y-70320000D01*
X32500000Y-75680000D02*
X31500000Y-75680000D01*
X31500000Y-74320000D02*
X32500000Y-74320000D01*
X32500000Y-77680000D02*
X31500000Y-77680000D01*
X31500000Y-76320000D02*
X32500000Y-76320000D01*
X31500000Y-80320000D02*
X32500000Y-80320000D01*
X32500000Y-81680000D02*
X31500000Y-81680000D01*
X32500000Y-83680000D02*
X31500000Y-83680000D01*
X31500000Y-82320000D02*
X32500000Y-82320000D01*
X31500000Y-86320000D02*
X32500000Y-86320000D01*
X32500000Y-87680000D02*
X31500000Y-87680000D01*
X32500000Y-89680000D02*
X31500000Y-89680000D01*
X31500000Y-88320000D02*
X32500000Y-88320000D01*
D12*
X87068830Y-29802200D02*
G75*
G03X87068830Y-29802200I-369830J0D01*
G01*
D11*
X74250000Y-18900000D02*
X89750000Y-18900000D01*
X89750000Y-18900000D02*
X89750000Y-30900000D01*
X89750000Y-30900000D02*
X74250000Y-30900000D01*
X74250000Y-30900000D02*
X74250000Y-18900000D01*
D12*
X51125000Y-46500000D02*
X50050000Y-46500000D01*
X51125000Y-59075000D02*
X57475000Y-59075000D01*
X51125000Y-46325000D02*
X57475000Y-46325000D01*
X51125000Y-59075000D02*
X51125000Y-58817500D01*
X57475000Y-59075000D02*
X57475000Y-58817500D01*
X57475000Y-46325000D02*
X57475000Y-46582500D01*
X51125000Y-46325000D02*
X51125000Y-46500000D01*
D11*
X19400000Y-20180000D02*
X24600000Y-20180000D01*
X24600000Y-23820000D02*
X19400000Y-23820000D01*
X24600000Y-29820000D02*
X19400000Y-29820000D01*
X19400000Y-26180000D02*
X24600000Y-26180000D01*
X19400000Y-32180000D02*
X24600000Y-32180000D01*
X24600000Y-35820000D02*
X19400000Y-35820000D01*
X19400000Y-38180000D02*
X24600000Y-38180000D01*
X24600000Y-41820000D02*
X19400000Y-41820000D01*
X24600000Y-47820000D02*
X19400000Y-47820000D01*
X19400000Y-44180000D02*
X24600000Y-44180000D01*
X24600000Y-53820000D02*
X19400000Y-53820000D01*
X19400000Y-50180000D02*
X24600000Y-50180000D01*
X24600000Y-59820000D02*
X19400000Y-59820000D01*
X19400000Y-56180000D02*
X24600000Y-56180000D01*
X24600000Y-65820000D02*
X19400000Y-65820000D01*
X19400000Y-62180000D02*
X24600000Y-62180000D01*
X19400000Y-74180000D02*
X24600000Y-74180000D01*
X24600000Y-77820000D02*
X19400000Y-77820000D01*
X19400000Y-80180000D02*
X24600000Y-80180000D01*
X24600000Y-83820000D02*
X19400000Y-83820000D01*
X24600000Y-89820000D02*
X19400000Y-89820000D01*
X19400000Y-86180000D02*
X24600000Y-86180000D01*
X19400000Y-68180000D02*
X24600000Y-68180000D01*
X24600000Y-71820000D02*
X19400000Y-71820000D01*
X40500000Y-20150000D02*
X39500000Y-20150000D01*
X39500000Y-21850000D02*
X40500000Y-21850000D01*
X40500000Y-26150000D02*
X39500000Y-26150000D01*
X39500000Y-27850000D02*
X40500000Y-27850000D01*
X39500000Y-33850000D02*
X40500000Y-33850000D01*
X40500000Y-32150000D02*
X39500000Y-32150000D01*
X40500000Y-38150000D02*
X39500000Y-38150000D01*
X39500000Y-39850000D02*
X40500000Y-39850000D01*
X39500000Y-45850000D02*
X40500000Y-45850000D01*
X40500000Y-44150000D02*
X39500000Y-44150000D01*
X40500000Y-50150000D02*
X39500000Y-50150000D01*
X39500000Y-51850000D02*
X40500000Y-51850000D01*
X39500000Y-57850000D02*
X40500000Y-57850000D01*
X40500000Y-56150000D02*
X39500000Y-56150000D01*
X39500000Y-63850000D02*
X40500000Y-63850000D01*
X40500000Y-62150000D02*
X39500000Y-62150000D01*
X39500000Y-69850000D02*
X40500000Y-69850000D01*
X40500000Y-68150000D02*
X39500000Y-68150000D01*
X40500000Y-74150000D02*
X39500000Y-74150000D01*
X39500000Y-75850000D02*
X40500000Y-75850000D01*
X39500000Y-81850000D02*
X40500000Y-81850000D01*
X40500000Y-80150000D02*
X39500000Y-80150000D01*
X40500000Y-86150000D02*
X39500000Y-86150000D01*
X39500000Y-87850000D02*
X40500000Y-87850000D01*
X36750000Y-21100000D02*
X36750000Y-24250000D01*
X35050000Y-21100000D02*
X35050000Y-24250000D01*
X36750000Y-21100000D02*
X35050000Y-21100000D01*
X36750000Y-27100000D02*
X36750000Y-30250000D01*
X35050000Y-27100000D02*
X35050000Y-30250000D01*
X36750000Y-27100000D02*
X35050000Y-27100000D01*
X36750000Y-33100000D02*
X35050000Y-33100000D01*
X35050000Y-33100000D02*
X35050000Y-36250000D01*
X36750000Y-33100000D02*
X36750000Y-36250000D01*
X36750000Y-39100000D02*
X35050000Y-39100000D01*
X35050000Y-39100000D02*
X35050000Y-42250000D01*
X36750000Y-39100000D02*
X36750000Y-42250000D01*
X36750000Y-45100000D02*
X35050000Y-45100000D01*
X35050000Y-45100000D02*
X35050000Y-48250000D01*
X36750000Y-45100000D02*
X36750000Y-48250000D01*
X36750000Y-51100000D02*
X36750000Y-54250000D01*
X35050000Y-51100000D02*
X35050000Y-54250000D01*
X36750000Y-51100000D02*
X35050000Y-51100000D01*
X36750000Y-57600000D02*
X36750000Y-60750000D01*
X35050000Y-57600000D02*
X35050000Y-60750000D01*
X36750000Y-57600000D02*
X35050000Y-57600000D01*
X36750000Y-63600000D02*
X35050000Y-63600000D01*
X35050000Y-63600000D02*
X35050000Y-66750000D01*
X36750000Y-63600000D02*
X36750000Y-66750000D01*
X36750000Y-69100000D02*
X35050000Y-69100000D01*
X35050000Y-69100000D02*
X35050000Y-72250000D01*
X36750000Y-69100000D02*
X36750000Y-72250000D01*
X36750000Y-75100000D02*
X35050000Y-75100000D01*
X35050000Y-75100000D02*
X35050000Y-78250000D01*
X36750000Y-75100000D02*
X36750000Y-78250000D01*
X36750000Y-81400000D02*
X36750000Y-84550000D01*
X35050000Y-81400000D02*
X35050000Y-84550000D01*
X36750000Y-81400000D02*
X35050000Y-81400000D01*
X36750000Y-87100000D02*
X36750000Y-90250000D01*
X35050000Y-87100000D02*
X35050000Y-90250000D01*
X36750000Y-87100000D02*
X35050000Y-87100000D01*
X13000000Y-86930000D02*
X15000000Y-86930000D01*
X15000000Y-89070000D02*
X13000000Y-89070000D01*
D12*
X64133333Y-56057142D02*
X64085714Y-56104761D01*
X63942857Y-56152380D01*
X63847619Y-56152380D01*
X63704761Y-56104761D01*
X63609523Y-56009523D01*
X63561904Y-55914285D01*
X63514285Y-55723809D01*
X63514285Y-55580952D01*
X63561904Y-55390476D01*
X63609523Y-55295238D01*
X63704761Y-55200000D01*
X63847619Y-55152380D01*
X63942857Y-55152380D01*
X64085714Y-55200000D01*
X64133333Y-55247619D01*
X65085714Y-56152380D02*
X64514285Y-56152380D01*
X64800000Y-56152380D02*
X64800000Y-55152380D01*
X64704761Y-55295238D01*
X64609523Y-55390476D01*
X64514285Y-55438095D01*
X64133333Y-54057142D02*
X64085714Y-54104761D01*
X63942857Y-54152380D01*
X63847619Y-54152380D01*
X63704761Y-54104761D01*
X63609523Y-54009523D01*
X63561904Y-53914285D01*
X63514285Y-53723809D01*
X63514285Y-53580952D01*
X63561904Y-53390476D01*
X63609523Y-53295238D01*
X63704761Y-53200000D01*
X63847619Y-53152380D01*
X63942857Y-53152380D01*
X64085714Y-53200000D01*
X64133333Y-53247619D01*
X64514285Y-53247619D02*
X64561904Y-53200000D01*
X64657142Y-53152380D01*
X64895238Y-53152380D01*
X64990476Y-53200000D01*
X65038095Y-53247619D01*
X65085714Y-53342857D01*
X65085714Y-53438095D01*
X65038095Y-53580952D01*
X64466666Y-54152380D01*
X65085714Y-54152380D01*
X49533333Y-16607142D02*
X49485714Y-16654761D01*
X49342857Y-16702380D01*
X49247619Y-16702380D01*
X49104761Y-16654761D01*
X49009523Y-16559523D01*
X48961904Y-16464285D01*
X48914285Y-16273809D01*
X48914285Y-16130952D01*
X48961904Y-15940476D01*
X49009523Y-15845238D01*
X49104761Y-15750000D01*
X49247619Y-15702380D01*
X49342857Y-15702380D01*
X49485714Y-15750000D01*
X49533333Y-15797619D01*
X49866666Y-15702380D02*
X50485714Y-15702380D01*
X50152380Y-16083333D01*
X50295238Y-16083333D01*
X50390476Y-16130952D01*
X50438095Y-16178571D01*
X50485714Y-16273809D01*
X50485714Y-16511904D01*
X50438095Y-16607142D01*
X50390476Y-16654761D01*
X50295238Y-16702380D01*
X50009523Y-16702380D01*
X49914285Y-16654761D01*
X49866666Y-16607142D01*
X49533333Y-13607142D02*
X49485714Y-13654761D01*
X49342857Y-13702380D01*
X49247619Y-13702380D01*
X49104761Y-13654761D01*
X49009523Y-13559523D01*
X48961904Y-13464285D01*
X48914285Y-13273809D01*
X48914285Y-13130952D01*
X48961904Y-12940476D01*
X49009523Y-12845238D01*
X49104761Y-12750000D01*
X49247619Y-12702380D01*
X49342857Y-12702380D01*
X49485714Y-12750000D01*
X49533333Y-12797619D01*
X50390476Y-13035714D02*
X50390476Y-13702380D01*
X50152380Y-12654761D02*
X49914285Y-13369047D01*
X50533333Y-13369047D01*
X83883333Y-50407142D02*
X83835714Y-50454761D01*
X83692857Y-50502380D01*
X83597619Y-50502380D01*
X83454761Y-50454761D01*
X83359523Y-50359523D01*
X83311904Y-50264285D01*
X83264285Y-50073809D01*
X83264285Y-49930952D01*
X83311904Y-49740476D01*
X83359523Y-49645238D01*
X83454761Y-49550000D01*
X83597619Y-49502380D01*
X83692857Y-49502380D01*
X83835714Y-49550000D01*
X83883333Y-49597619D01*
X84788095Y-49502380D02*
X84311904Y-49502380D01*
X84264285Y-49978571D01*
X84311904Y-49930952D01*
X84407142Y-49883333D01*
X84645238Y-49883333D01*
X84740476Y-49930952D01*
X84788095Y-49978571D01*
X84835714Y-50073809D01*
X84835714Y-50311904D01*
X84788095Y-50407142D01*
X84740476Y-50454761D01*
X84645238Y-50502380D01*
X84407142Y-50502380D01*
X84311904Y-50454761D01*
X84264285Y-50407142D01*
X65833333Y-22357142D02*
X65785714Y-22404761D01*
X65642857Y-22452380D01*
X65547619Y-22452380D01*
X65404761Y-22404761D01*
X65309523Y-22309523D01*
X65261904Y-22214285D01*
X65214285Y-22023809D01*
X65214285Y-21880952D01*
X65261904Y-21690476D01*
X65309523Y-21595238D01*
X65404761Y-21500000D01*
X65547619Y-21452380D01*
X65642857Y-21452380D01*
X65785714Y-21500000D01*
X65833333Y-21547619D01*
X66690476Y-21452380D02*
X66500000Y-21452380D01*
X66404761Y-21500000D01*
X66357142Y-21547619D01*
X66261904Y-21690476D01*
X66214285Y-21880952D01*
X66214285Y-22261904D01*
X66261904Y-22357142D01*
X66309523Y-22404761D01*
X66404761Y-22452380D01*
X66595238Y-22452380D01*
X66690476Y-22404761D01*
X66738095Y-22357142D01*
X66785714Y-22261904D01*
X66785714Y-22023809D01*
X66738095Y-21928571D01*
X66690476Y-21880952D01*
X66595238Y-21833333D01*
X66404761Y-21833333D01*
X66309523Y-21880952D01*
X66261904Y-21928571D01*
X66214285Y-22023809D01*
X65833333Y-28357142D02*
X65785714Y-28404761D01*
X65642857Y-28452380D01*
X65547619Y-28452380D01*
X65404761Y-28404761D01*
X65309523Y-28309523D01*
X65261904Y-28214285D01*
X65214285Y-28023809D01*
X65214285Y-27880952D01*
X65261904Y-27690476D01*
X65309523Y-27595238D01*
X65404761Y-27500000D01*
X65547619Y-27452380D01*
X65642857Y-27452380D01*
X65785714Y-27500000D01*
X65833333Y-27547619D01*
X66166666Y-27452380D02*
X66833333Y-27452380D01*
X66404761Y-28452380D01*
X64657142Y-87866666D02*
X64704761Y-87914285D01*
X64752380Y-88057142D01*
X64752380Y-88152380D01*
X64704761Y-88295238D01*
X64609523Y-88390476D01*
X64514285Y-88438095D01*
X64323809Y-88485714D01*
X64180952Y-88485714D01*
X63990476Y-88438095D01*
X63895238Y-88390476D01*
X63800000Y-88295238D01*
X63752380Y-88152380D01*
X63752380Y-88057142D01*
X63800000Y-87914285D01*
X63847619Y-87866666D01*
X64180952Y-87295238D02*
X64133333Y-87390476D01*
X64085714Y-87438095D01*
X63990476Y-87485714D01*
X63942857Y-87485714D01*
X63847619Y-87438095D01*
X63800000Y-87390476D01*
X63752380Y-87295238D01*
X63752380Y-87104761D01*
X63800000Y-87009523D01*
X63847619Y-86961904D01*
X63942857Y-86914285D01*
X63990476Y-86914285D01*
X64085714Y-86961904D01*
X64133333Y-87009523D01*
X64180952Y-87104761D01*
X64180952Y-87295238D01*
X64228571Y-87390476D01*
X64276190Y-87438095D01*
X64371428Y-87485714D01*
X64561904Y-87485714D01*
X64657142Y-87438095D01*
X64704761Y-87390476D01*
X64752380Y-87295238D01*
X64752380Y-87104761D01*
X64704761Y-87009523D01*
X64657142Y-86961904D01*
X64561904Y-86914285D01*
X64371428Y-86914285D01*
X64276190Y-86961904D01*
X64228571Y-87009523D01*
X64180952Y-87104761D01*
X68657142Y-87866666D02*
X68704761Y-87914285D01*
X68752380Y-88057142D01*
X68752380Y-88152380D01*
X68704761Y-88295238D01*
X68609523Y-88390476D01*
X68514285Y-88438095D01*
X68323809Y-88485714D01*
X68180952Y-88485714D01*
X67990476Y-88438095D01*
X67895238Y-88390476D01*
X67800000Y-88295238D01*
X67752380Y-88152380D01*
X67752380Y-88057142D01*
X67800000Y-87914285D01*
X67847619Y-87866666D01*
X68752380Y-87390476D02*
X68752380Y-87200000D01*
X68704761Y-87104761D01*
X68657142Y-87057142D01*
X68514285Y-86961904D01*
X68323809Y-86914285D01*
X67942857Y-86914285D01*
X67847619Y-86961904D01*
X67800000Y-87009523D01*
X67752380Y-87104761D01*
X67752380Y-87295238D01*
X67800000Y-87390476D01*
X67847619Y-87438095D01*
X67942857Y-87485714D01*
X68180952Y-87485714D01*
X68276190Y-87438095D01*
X68323809Y-87390476D01*
X68371428Y-87295238D01*
X68371428Y-87104761D01*
X68323809Y-87009523D01*
X68276190Y-86961904D01*
X68180952Y-86914285D01*
X72657142Y-88342857D02*
X72704761Y-88390476D01*
X72752380Y-88533333D01*
X72752380Y-88628571D01*
X72704761Y-88771428D01*
X72609523Y-88866666D01*
X72514285Y-88914285D01*
X72323809Y-88961904D01*
X72180952Y-88961904D01*
X71990476Y-88914285D01*
X71895238Y-88866666D01*
X71800000Y-88771428D01*
X71752380Y-88628571D01*
X71752380Y-88533333D01*
X71800000Y-88390476D01*
X71847619Y-88342857D01*
X72752380Y-87390476D02*
X72752380Y-87961904D01*
X72752380Y-87676190D02*
X71752380Y-87676190D01*
X71895238Y-87771428D01*
X71990476Y-87866666D01*
X72038095Y-87961904D01*
X71752380Y-86771428D02*
X71752380Y-86676190D01*
X71800000Y-86580952D01*
X71847619Y-86533333D01*
X71942857Y-86485714D01*
X72133333Y-86438095D01*
X72371428Y-86438095D01*
X72561904Y-86485714D01*
X72657142Y-86533333D01*
X72704761Y-86580952D01*
X72752380Y-86676190D01*
X72752380Y-86771428D01*
X72704761Y-86866666D01*
X72657142Y-86914285D01*
X72561904Y-86961904D01*
X72371428Y-87009523D01*
X72133333Y-87009523D01*
X71942857Y-86961904D01*
X71847619Y-86914285D01*
X71800000Y-86866666D01*
X71752380Y-86771428D01*
X76657142Y-88342857D02*
X76704761Y-88390476D01*
X76752380Y-88533333D01*
X76752380Y-88628571D01*
X76704761Y-88771428D01*
X76609523Y-88866666D01*
X76514285Y-88914285D01*
X76323809Y-88961904D01*
X76180952Y-88961904D01*
X75990476Y-88914285D01*
X75895238Y-88866666D01*
X75800000Y-88771428D01*
X75752380Y-88628571D01*
X75752380Y-88533333D01*
X75800000Y-88390476D01*
X75847619Y-88342857D01*
X76752380Y-87390476D02*
X76752380Y-87961904D01*
X76752380Y-87676190D02*
X75752380Y-87676190D01*
X75895238Y-87771428D01*
X75990476Y-87866666D01*
X76038095Y-87961904D01*
X76752380Y-86438095D02*
X76752380Y-87009523D01*
X76752380Y-86723809D02*
X75752380Y-86723809D01*
X75895238Y-86819047D01*
X75990476Y-86914285D01*
X76038095Y-87009523D01*
X80657142Y-88342857D02*
X80704761Y-88390476D01*
X80752380Y-88533333D01*
X80752380Y-88628571D01*
X80704761Y-88771428D01*
X80609523Y-88866666D01*
X80514285Y-88914285D01*
X80323809Y-88961904D01*
X80180952Y-88961904D01*
X79990476Y-88914285D01*
X79895238Y-88866666D01*
X79800000Y-88771428D01*
X79752380Y-88628571D01*
X79752380Y-88533333D01*
X79800000Y-88390476D01*
X79847619Y-88342857D01*
X80752380Y-87390476D02*
X80752380Y-87961904D01*
X80752380Y-87676190D02*
X79752380Y-87676190D01*
X79895238Y-87771428D01*
X79990476Y-87866666D01*
X80038095Y-87961904D01*
X79847619Y-87009523D02*
X79800000Y-86961904D01*
X79752380Y-86866666D01*
X79752380Y-86628571D01*
X79800000Y-86533333D01*
X79847619Y-86485714D01*
X79942857Y-86438095D01*
X80038095Y-86438095D01*
X80180952Y-86485714D01*
X80752380Y-87057142D01*
X80752380Y-86438095D01*
X13616666Y-13728571D02*
X13283333Y-13728571D01*
X13283333Y-14252380D02*
X13283333Y-13252380D01*
X13759523Y-13252380D01*
X14664285Y-14252380D02*
X14092857Y-14252380D01*
X14378571Y-14252380D02*
X14378571Y-13252380D01*
X14283333Y-13395238D01*
X14188095Y-13490476D01*
X14092857Y-13538095D01*
X13616666Y-19728571D02*
X13283333Y-19728571D01*
X13283333Y-20252380D02*
X13283333Y-19252380D01*
X13759523Y-19252380D01*
X14092857Y-19347619D02*
X14140476Y-19300000D01*
X14235714Y-19252380D01*
X14473809Y-19252380D01*
X14569047Y-19300000D01*
X14616666Y-19347619D01*
X14664285Y-19442857D01*
X14664285Y-19538095D01*
X14616666Y-19680952D01*
X14045238Y-20252380D01*
X14664285Y-20252380D01*
X13666666Y-25728571D02*
X13333333Y-25728571D01*
X13333333Y-26252380D02*
X13333333Y-25252380D01*
X13809523Y-25252380D01*
X14095238Y-25252380D02*
X14714285Y-25252380D01*
X14380952Y-25633333D01*
X14523809Y-25633333D01*
X14619047Y-25680952D01*
X14666666Y-25728571D01*
X14714285Y-25823809D01*
X14714285Y-26061904D01*
X14666666Y-26157142D01*
X14619047Y-26204761D01*
X14523809Y-26252380D01*
X14238095Y-26252380D01*
X14142857Y-26204761D01*
X14095238Y-26157142D01*
X13616666Y-31728571D02*
X13283333Y-31728571D01*
X13283333Y-32252380D02*
X13283333Y-31252380D01*
X13759523Y-31252380D01*
X14569047Y-31585714D02*
X14569047Y-32252380D01*
X14330952Y-31204761D02*
X14092857Y-31919047D01*
X14711904Y-31919047D01*
X13616666Y-37728571D02*
X13283333Y-37728571D01*
X13283333Y-38252380D02*
X13283333Y-37252380D01*
X13759523Y-37252380D01*
X14616666Y-37252380D02*
X14140476Y-37252380D01*
X14092857Y-37728571D01*
X14140476Y-37680952D01*
X14235714Y-37633333D01*
X14473809Y-37633333D01*
X14569047Y-37680952D01*
X14616666Y-37728571D01*
X14664285Y-37823809D01*
X14664285Y-38061904D01*
X14616666Y-38157142D01*
X14569047Y-38204761D01*
X14473809Y-38252380D01*
X14235714Y-38252380D01*
X14140476Y-38204761D01*
X14092857Y-38157142D01*
X13616666Y-43728571D02*
X13283333Y-43728571D01*
X13283333Y-44252380D02*
X13283333Y-43252380D01*
X13759523Y-43252380D01*
X14569047Y-43252380D02*
X14378571Y-43252380D01*
X14283333Y-43300000D01*
X14235714Y-43347619D01*
X14140476Y-43490476D01*
X14092857Y-43680952D01*
X14092857Y-44061904D01*
X14140476Y-44157142D01*
X14188095Y-44204761D01*
X14283333Y-44252380D01*
X14473809Y-44252380D01*
X14569047Y-44204761D01*
X14616666Y-44157142D01*
X14664285Y-44061904D01*
X14664285Y-43823809D01*
X14616666Y-43728571D01*
X14569047Y-43680952D01*
X14473809Y-43633333D01*
X14283333Y-43633333D01*
X14188095Y-43680952D01*
X14140476Y-43728571D01*
X14092857Y-43823809D01*
X13616666Y-49728571D02*
X13283333Y-49728571D01*
X13283333Y-50252380D02*
X13283333Y-49252380D01*
X13759523Y-49252380D01*
X14045238Y-49252380D02*
X14711904Y-49252380D01*
X14283333Y-50252380D01*
X13616666Y-55728571D02*
X13283333Y-55728571D01*
X13283333Y-56252380D02*
X13283333Y-55252380D01*
X13759523Y-55252380D01*
X14283333Y-55680952D02*
X14188095Y-55633333D01*
X14140476Y-55585714D01*
X14092857Y-55490476D01*
X14092857Y-55442857D01*
X14140476Y-55347619D01*
X14188095Y-55300000D01*
X14283333Y-55252380D01*
X14473809Y-55252380D01*
X14569047Y-55300000D01*
X14616666Y-55347619D01*
X14664285Y-55442857D01*
X14664285Y-55490476D01*
X14616666Y-55585714D01*
X14569047Y-55633333D01*
X14473809Y-55680952D01*
X14283333Y-55680952D01*
X14188095Y-55728571D01*
X14140476Y-55776190D01*
X14092857Y-55871428D01*
X14092857Y-56061904D01*
X14140476Y-56157142D01*
X14188095Y-56204761D01*
X14283333Y-56252380D01*
X14473809Y-56252380D01*
X14569047Y-56204761D01*
X14616666Y-56157142D01*
X14664285Y-56061904D01*
X14664285Y-55871428D01*
X14616666Y-55776190D01*
X14569047Y-55728571D01*
X14473809Y-55680952D01*
X13616666Y-61728571D02*
X13283333Y-61728571D01*
X13283333Y-62252380D02*
X13283333Y-61252380D01*
X13759523Y-61252380D01*
X14188095Y-62252380D02*
X14378571Y-62252380D01*
X14473809Y-62204761D01*
X14521428Y-62157142D01*
X14616666Y-62014285D01*
X14664285Y-61823809D01*
X14664285Y-61442857D01*
X14616666Y-61347619D01*
X14569047Y-61300000D01*
X14473809Y-61252380D01*
X14283333Y-61252380D01*
X14188095Y-61300000D01*
X14140476Y-61347619D01*
X14092857Y-61442857D01*
X14092857Y-61680952D01*
X14140476Y-61776190D01*
X14188095Y-61823809D01*
X14283333Y-61871428D01*
X14473809Y-61871428D01*
X14569047Y-61823809D01*
X14616666Y-61776190D01*
X14664285Y-61680952D01*
X13140476Y-67728571D02*
X12807142Y-67728571D01*
X12807142Y-68252380D02*
X12807142Y-67252380D01*
X13283333Y-67252380D01*
X14188095Y-68252380D02*
X13616666Y-68252380D01*
X13902380Y-68252380D02*
X13902380Y-67252380D01*
X13807142Y-67395238D01*
X13711904Y-67490476D01*
X13616666Y-67538095D01*
X14807142Y-67252380D02*
X14902380Y-67252380D01*
X14997619Y-67300000D01*
X15045238Y-67347619D01*
X15092857Y-67442857D01*
X15140476Y-67633333D01*
X15140476Y-67871428D01*
X15092857Y-68061904D01*
X15045238Y-68157142D01*
X14997619Y-68204761D01*
X14902380Y-68252380D01*
X14807142Y-68252380D01*
X14711904Y-68204761D01*
X14664285Y-68157142D01*
X14616666Y-68061904D01*
X14569047Y-67871428D01*
X14569047Y-67633333D01*
X14616666Y-67442857D01*
X14664285Y-67347619D01*
X14711904Y-67300000D01*
X14807142Y-67252380D01*
X13140476Y-73728571D02*
X12807142Y-73728571D01*
X12807142Y-74252380D02*
X12807142Y-73252380D01*
X13283333Y-73252380D01*
X14188095Y-74252380D02*
X13616666Y-74252380D01*
X13902380Y-74252380D02*
X13902380Y-73252380D01*
X13807142Y-73395238D01*
X13711904Y-73490476D01*
X13616666Y-73538095D01*
X15140476Y-74252380D02*
X14569047Y-74252380D01*
X14854761Y-74252380D02*
X14854761Y-73252380D01*
X14759523Y-73395238D01*
X14664285Y-73490476D01*
X14569047Y-73538095D01*
X13140476Y-79728571D02*
X12807142Y-79728571D01*
X12807142Y-80252380D02*
X12807142Y-79252380D01*
X13283333Y-79252380D01*
X14188095Y-80252380D02*
X13616666Y-80252380D01*
X13902380Y-80252380D02*
X13902380Y-79252380D01*
X13807142Y-79395238D01*
X13711904Y-79490476D01*
X13616666Y-79538095D01*
X14569047Y-79347619D02*
X14616666Y-79300000D01*
X14711904Y-79252380D01*
X14950000Y-79252380D01*
X15045238Y-79300000D01*
X15092857Y-79347619D01*
X15140476Y-79442857D01*
X15140476Y-79538095D01*
X15092857Y-79680952D01*
X14521428Y-80252380D01*
X15140476Y-80252380D01*
X6857142Y-52047619D02*
X6904761Y-52095238D01*
X6952380Y-52238095D01*
X6952380Y-52333333D01*
X6904761Y-52476190D01*
X6809523Y-52571428D01*
X6714285Y-52619047D01*
X6523809Y-52666666D01*
X6380952Y-52666666D01*
X6190476Y-52619047D01*
X6095238Y-52571428D01*
X6000000Y-52476190D01*
X5952380Y-52333333D01*
X5952380Y-52238095D01*
X6000000Y-52095238D01*
X6047619Y-52047619D01*
X6904761Y-51238095D02*
X6952380Y-51333333D01*
X6952380Y-51523809D01*
X6904761Y-51619047D01*
X6809523Y-51666666D01*
X6428571Y-51666666D01*
X6333333Y-51619047D01*
X6285714Y-51523809D01*
X6285714Y-51333333D01*
X6333333Y-51238095D01*
X6428571Y-51190476D01*
X6523809Y-51190476D01*
X6619047Y-51666666D01*
X6952380Y-50619047D02*
X6904761Y-50714285D01*
X6809523Y-50761904D01*
X5952380Y-50761904D01*
X6952380Y-50095238D02*
X6904761Y-50190476D01*
X6809523Y-50238095D01*
X5952380Y-50238095D01*
X6904761Y-49761904D02*
X6952380Y-49666666D01*
X6952380Y-49476190D01*
X6904761Y-49380952D01*
X6809523Y-49333333D01*
X6761904Y-49333333D01*
X6666666Y-49380952D01*
X6619047Y-49476190D01*
X6619047Y-49619047D01*
X6571428Y-49714285D01*
X6476190Y-49761904D01*
X6428571Y-49761904D01*
X6333333Y-49714285D01*
X6285714Y-49619047D01*
X6285714Y-49476190D01*
X6333333Y-49380952D01*
X98904761Y-22809523D02*
X98952380Y-22666666D01*
X98952380Y-22428571D01*
X98904761Y-22333333D01*
X98857142Y-22285714D01*
X98761904Y-22238095D01*
X98666666Y-22238095D01*
X98571428Y-22285714D01*
X98523809Y-22333333D01*
X98476190Y-22428571D01*
X98428571Y-22619047D01*
X98380952Y-22714285D01*
X98333333Y-22761904D01*
X98238095Y-22809523D01*
X98142857Y-22809523D01*
X98047619Y-22761904D01*
X98000000Y-22714285D01*
X97952380Y-22619047D01*
X97952380Y-22380952D01*
X98000000Y-22238095D01*
X98952380Y-21666666D02*
X98904761Y-21761904D01*
X98809523Y-21809523D01*
X97952380Y-21809523D01*
X98952380Y-20857142D02*
X98428571Y-20857142D01*
X98333333Y-20904761D01*
X98285714Y-21000000D01*
X98285714Y-21190476D01*
X98333333Y-21285714D01*
X98904761Y-20857142D02*
X98952380Y-20952380D01*
X98952380Y-21190476D01*
X98904761Y-21285714D01*
X98809523Y-21333333D01*
X98714285Y-21333333D01*
X98619047Y-21285714D01*
X98571428Y-21190476D01*
X98571428Y-20952380D01*
X98523809Y-20857142D01*
X98285714Y-20476190D02*
X98952380Y-20238095D01*
X98285714Y-20000000D01*
X98904761Y-19238095D02*
X98952380Y-19333333D01*
X98952380Y-19523809D01*
X98904761Y-19619047D01*
X98809523Y-19666666D01*
X98428571Y-19666666D01*
X98333333Y-19619047D01*
X98285714Y-19523809D01*
X98285714Y-19333333D01*
X98333333Y-19238095D01*
X98428571Y-19190476D01*
X98523809Y-19190476D01*
X98619047Y-19666666D01*
X98952380Y-30484285D02*
X97952380Y-30484285D01*
X98666666Y-30150952D01*
X97952380Y-29817619D01*
X98952380Y-29817619D01*
X98952380Y-28912857D02*
X98428571Y-28912857D01*
X98333333Y-28960476D01*
X98285714Y-29055714D01*
X98285714Y-29246190D01*
X98333333Y-29341428D01*
X98904761Y-28912857D02*
X98952380Y-29008095D01*
X98952380Y-29246190D01*
X98904761Y-29341428D01*
X98809523Y-29389047D01*
X98714285Y-29389047D01*
X98619047Y-29341428D01*
X98571428Y-29246190D01*
X98571428Y-29008095D01*
X98523809Y-28912857D01*
X98904761Y-28484285D02*
X98952380Y-28389047D01*
X98952380Y-28198571D01*
X98904761Y-28103333D01*
X98809523Y-28055714D01*
X98761904Y-28055714D01*
X98666666Y-28103333D01*
X98619047Y-28198571D01*
X98619047Y-28341428D01*
X98571428Y-28436666D01*
X98476190Y-28484285D01*
X98428571Y-28484285D01*
X98333333Y-28436666D01*
X98285714Y-28341428D01*
X98285714Y-28198571D01*
X98333333Y-28103333D01*
X98285714Y-27770000D02*
X98285714Y-27389047D01*
X97952380Y-27627142D02*
X98809523Y-27627142D01*
X98904761Y-27579523D01*
X98952380Y-27484285D01*
X98952380Y-27389047D01*
X98904761Y-26674761D02*
X98952380Y-26770000D01*
X98952380Y-26960476D01*
X98904761Y-27055714D01*
X98809523Y-27103333D01*
X98428571Y-27103333D01*
X98333333Y-27055714D01*
X98285714Y-26960476D01*
X98285714Y-26770000D01*
X98333333Y-26674761D01*
X98428571Y-26627142D01*
X98523809Y-26627142D01*
X98619047Y-27103333D01*
X98952380Y-26198571D02*
X98285714Y-26198571D01*
X98476190Y-26198571D02*
X98380952Y-26150952D01*
X98333333Y-26103333D01*
X98285714Y-26008095D01*
X98285714Y-25912857D01*
X69200000Y-94252380D02*
X69771428Y-94252380D01*
X69485714Y-95252380D02*
X69485714Y-94252380D01*
X70485714Y-95204761D02*
X70390476Y-95252380D01*
X70200000Y-95252380D01*
X70104761Y-95204761D01*
X70057142Y-95109523D01*
X70057142Y-94728571D01*
X70104761Y-94633333D01*
X70200000Y-94585714D01*
X70390476Y-94585714D01*
X70485714Y-94633333D01*
X70533333Y-94728571D01*
X70533333Y-94823809D01*
X70057142Y-94919047D01*
X70961904Y-95252380D02*
X70961904Y-94585714D01*
X70961904Y-94680952D02*
X71009523Y-94633333D01*
X71104761Y-94585714D01*
X71247619Y-94585714D01*
X71342857Y-94633333D01*
X71390476Y-94728571D01*
X71390476Y-95252380D01*
X71390476Y-94728571D02*
X71438095Y-94633333D01*
X71533333Y-94585714D01*
X71676190Y-94585714D01*
X71771428Y-94633333D01*
X71819047Y-94728571D01*
X71819047Y-95252380D01*
X72295238Y-94585714D02*
X72295238Y-95585714D01*
X72295238Y-94633333D02*
X72390476Y-94585714D01*
X72580952Y-94585714D01*
X72676190Y-94633333D01*
X72723809Y-94680952D01*
X72771428Y-94776190D01*
X72771428Y-95061904D01*
X72723809Y-95157142D01*
X72676190Y-95204761D01*
X72580952Y-95252380D01*
X72390476Y-95252380D01*
X72295238Y-95204761D01*
X73580952Y-95204761D02*
X73485714Y-95252380D01*
X73295238Y-95252380D01*
X73200000Y-95204761D01*
X73152380Y-95109523D01*
X73152380Y-94728571D01*
X73200000Y-94633333D01*
X73295238Y-94585714D01*
X73485714Y-94585714D01*
X73580952Y-94633333D01*
X73628571Y-94728571D01*
X73628571Y-94823809D01*
X73152380Y-94919047D01*
X74057142Y-95252380D02*
X74057142Y-94585714D01*
X74057142Y-94776190D02*
X74104761Y-94680952D01*
X74152380Y-94633333D01*
X74247619Y-94585714D01*
X74342857Y-94585714D01*
X75104761Y-95252380D02*
X75104761Y-94728571D01*
X75057142Y-94633333D01*
X74961904Y-94585714D01*
X74771428Y-94585714D01*
X74676190Y-94633333D01*
X75104761Y-95204761D02*
X75009523Y-95252380D01*
X74771428Y-95252380D01*
X74676190Y-95204761D01*
X74628571Y-95109523D01*
X74628571Y-95014285D01*
X74676190Y-94919047D01*
X74771428Y-94871428D01*
X75009523Y-94871428D01*
X75104761Y-94823809D01*
X75438095Y-94585714D02*
X75819047Y-94585714D01*
X75580952Y-94252380D02*
X75580952Y-95109523D01*
X75628571Y-95204761D01*
X75723809Y-95252380D01*
X75819047Y-95252380D01*
X76580952Y-94585714D02*
X76580952Y-95252380D01*
X76152380Y-94585714D02*
X76152380Y-95109523D01*
X76200000Y-95204761D01*
X76295238Y-95252380D01*
X76438095Y-95252380D01*
X76533333Y-95204761D01*
X76580952Y-95157142D01*
X77057142Y-95252380D02*
X77057142Y-94585714D01*
X77057142Y-94776190D02*
X77104761Y-94680952D01*
X77152380Y-94633333D01*
X77247619Y-94585714D01*
X77342857Y-94585714D01*
X78057142Y-95204761D02*
X77961904Y-95252380D01*
X77771428Y-95252380D01*
X77676190Y-95204761D01*
X77628571Y-95109523D01*
X77628571Y-94728571D01*
X77676190Y-94633333D01*
X77771428Y-94585714D01*
X77961904Y-94585714D01*
X78057142Y-94633333D01*
X78104761Y-94728571D01*
X78104761Y-94823809D01*
X77628571Y-94919047D01*
X81166666Y-52452380D02*
X81166666Y-53166666D01*
X81119047Y-53309523D01*
X81023809Y-53404761D01*
X80880952Y-53452380D01*
X80785714Y-53452380D01*
X81642857Y-53452380D02*
X81642857Y-52452380D01*
X82023809Y-52452380D01*
X82119047Y-52500000D01*
X82166666Y-52547619D01*
X82214285Y-52642857D01*
X82214285Y-52785714D01*
X82166666Y-52880952D01*
X82119047Y-52928571D01*
X82023809Y-52976190D01*
X81642857Y-52976190D01*
X83166666Y-53452380D02*
X82595238Y-53452380D01*
X82880952Y-53452380D02*
X82880952Y-52452380D01*
X82785714Y-52595238D01*
X82690476Y-52690476D01*
X82595238Y-52738095D01*
X80826666Y-40452380D02*
X80826666Y-41166666D01*
X80779047Y-41309523D01*
X80683809Y-41404761D01*
X80540952Y-41452380D01*
X80445714Y-41452380D01*
X81302857Y-41452380D02*
X81302857Y-40452380D01*
X81683809Y-40452380D01*
X81779047Y-40500000D01*
X81826666Y-40547619D01*
X81874285Y-40642857D01*
X81874285Y-40785714D01*
X81826666Y-40880952D01*
X81779047Y-40928571D01*
X81683809Y-40976190D01*
X81302857Y-40976190D01*
X82255238Y-40547619D02*
X82302857Y-40500000D01*
X82398095Y-40452380D01*
X82636190Y-40452380D01*
X82731428Y-40500000D01*
X82779047Y-40547619D01*
X82826666Y-40642857D01*
X82826666Y-40738095D01*
X82779047Y-40880952D01*
X82207619Y-41452380D01*
X82826666Y-41452380D01*
X91104761Y-42147619D02*
X91009523Y-42100000D01*
X90914285Y-42004761D01*
X90771428Y-41861904D01*
X90676190Y-41814285D01*
X90580952Y-41814285D01*
X90628571Y-42052380D02*
X90533333Y-42004761D01*
X90438095Y-41909523D01*
X90390476Y-41719047D01*
X90390476Y-41385714D01*
X90438095Y-41195238D01*
X90533333Y-41100000D01*
X90628571Y-41052380D01*
X90819047Y-41052380D01*
X90914285Y-41100000D01*
X91009523Y-41195238D01*
X91057142Y-41385714D01*
X91057142Y-41719047D01*
X91009523Y-41909523D01*
X90914285Y-42004761D01*
X90819047Y-42052380D01*
X90628571Y-42052380D01*
X92009523Y-42052380D02*
X91438095Y-42052380D01*
X91723809Y-42052380D02*
X91723809Y-41052380D01*
X91628571Y-41195238D01*
X91533333Y-41290476D01*
X91438095Y-41338095D01*
X27904761Y-19547619D02*
X27809523Y-19500000D01*
X27714285Y-19404761D01*
X27571428Y-19261904D01*
X27476190Y-19214285D01*
X27380952Y-19214285D01*
X27428571Y-19452380D02*
X27333333Y-19404761D01*
X27238095Y-19309523D01*
X27190476Y-19119047D01*
X27190476Y-18785714D01*
X27238095Y-18595238D01*
X27333333Y-18500000D01*
X27428571Y-18452380D01*
X27619047Y-18452380D01*
X27714285Y-18500000D01*
X27809523Y-18595238D01*
X27857142Y-18785714D01*
X27857142Y-19119047D01*
X27809523Y-19309523D01*
X27714285Y-19404761D01*
X27619047Y-19452380D01*
X27428571Y-19452380D01*
X28238095Y-18547619D02*
X28285714Y-18500000D01*
X28380952Y-18452380D01*
X28619047Y-18452380D01*
X28714285Y-18500000D01*
X28761904Y-18547619D01*
X28809523Y-18642857D01*
X28809523Y-18738095D01*
X28761904Y-18880952D01*
X28190476Y-19452380D01*
X28809523Y-19452380D01*
X27904761Y-25547619D02*
X27809523Y-25500000D01*
X27714285Y-25404761D01*
X27571428Y-25261904D01*
X27476190Y-25214285D01*
X27380952Y-25214285D01*
X27428571Y-25452380D02*
X27333333Y-25404761D01*
X27238095Y-25309523D01*
X27190476Y-25119047D01*
X27190476Y-24785714D01*
X27238095Y-24595238D01*
X27333333Y-24500000D01*
X27428571Y-24452380D01*
X27619047Y-24452380D01*
X27714285Y-24500000D01*
X27809523Y-24595238D01*
X27857142Y-24785714D01*
X27857142Y-25119047D01*
X27809523Y-25309523D01*
X27714285Y-25404761D01*
X27619047Y-25452380D01*
X27428571Y-25452380D01*
X28190476Y-24452380D02*
X28809523Y-24452380D01*
X28476190Y-24833333D01*
X28619047Y-24833333D01*
X28714285Y-24880952D01*
X28761904Y-24928571D01*
X28809523Y-25023809D01*
X28809523Y-25261904D01*
X28761904Y-25357142D01*
X28714285Y-25404761D01*
X28619047Y-25452380D01*
X28333333Y-25452380D01*
X28238095Y-25404761D01*
X28190476Y-25357142D01*
X27904761Y-31547619D02*
X27809523Y-31500000D01*
X27714285Y-31404761D01*
X27571428Y-31261904D01*
X27476190Y-31214285D01*
X27380952Y-31214285D01*
X27428571Y-31452380D02*
X27333333Y-31404761D01*
X27238095Y-31309523D01*
X27190476Y-31119047D01*
X27190476Y-30785714D01*
X27238095Y-30595238D01*
X27333333Y-30500000D01*
X27428571Y-30452380D01*
X27619047Y-30452380D01*
X27714285Y-30500000D01*
X27809523Y-30595238D01*
X27857142Y-30785714D01*
X27857142Y-31119047D01*
X27809523Y-31309523D01*
X27714285Y-31404761D01*
X27619047Y-31452380D01*
X27428571Y-31452380D01*
X28714285Y-30785714D02*
X28714285Y-31452380D01*
X28476190Y-30404761D02*
X28238095Y-31119047D01*
X28857142Y-31119047D01*
X27904761Y-37547619D02*
X27809523Y-37500000D01*
X27714285Y-37404761D01*
X27571428Y-37261904D01*
X27476190Y-37214285D01*
X27380952Y-37214285D01*
X27428571Y-37452380D02*
X27333333Y-37404761D01*
X27238095Y-37309523D01*
X27190476Y-37119047D01*
X27190476Y-36785714D01*
X27238095Y-36595238D01*
X27333333Y-36500000D01*
X27428571Y-36452380D01*
X27619047Y-36452380D01*
X27714285Y-36500000D01*
X27809523Y-36595238D01*
X27857142Y-36785714D01*
X27857142Y-37119047D01*
X27809523Y-37309523D01*
X27714285Y-37404761D01*
X27619047Y-37452380D01*
X27428571Y-37452380D01*
X28761904Y-36452380D02*
X28285714Y-36452380D01*
X28238095Y-36928571D01*
X28285714Y-36880952D01*
X28380952Y-36833333D01*
X28619047Y-36833333D01*
X28714285Y-36880952D01*
X28761904Y-36928571D01*
X28809523Y-37023809D01*
X28809523Y-37261904D01*
X28761904Y-37357142D01*
X28714285Y-37404761D01*
X28619047Y-37452380D01*
X28380952Y-37452380D01*
X28285714Y-37404761D01*
X28238095Y-37357142D01*
X27904761Y-43547619D02*
X27809523Y-43500000D01*
X27714285Y-43404761D01*
X27571428Y-43261904D01*
X27476190Y-43214285D01*
X27380952Y-43214285D01*
X27428571Y-43452380D02*
X27333333Y-43404761D01*
X27238095Y-43309523D01*
X27190476Y-43119047D01*
X27190476Y-42785714D01*
X27238095Y-42595238D01*
X27333333Y-42500000D01*
X27428571Y-42452380D01*
X27619047Y-42452380D01*
X27714285Y-42500000D01*
X27809523Y-42595238D01*
X27857142Y-42785714D01*
X27857142Y-43119047D01*
X27809523Y-43309523D01*
X27714285Y-43404761D01*
X27619047Y-43452380D01*
X27428571Y-43452380D01*
X28714285Y-42452380D02*
X28523809Y-42452380D01*
X28428571Y-42500000D01*
X28380952Y-42547619D01*
X28285714Y-42690476D01*
X28238095Y-42880952D01*
X28238095Y-43261904D01*
X28285714Y-43357142D01*
X28333333Y-43404761D01*
X28428571Y-43452380D01*
X28619047Y-43452380D01*
X28714285Y-43404761D01*
X28761904Y-43357142D01*
X28809523Y-43261904D01*
X28809523Y-43023809D01*
X28761904Y-42928571D01*
X28714285Y-42880952D01*
X28619047Y-42833333D01*
X28428571Y-42833333D01*
X28333333Y-42880952D01*
X28285714Y-42928571D01*
X28238095Y-43023809D01*
X27904761Y-49547619D02*
X27809523Y-49500000D01*
X27714285Y-49404761D01*
X27571428Y-49261904D01*
X27476190Y-49214285D01*
X27380952Y-49214285D01*
X27428571Y-49452380D02*
X27333333Y-49404761D01*
X27238095Y-49309523D01*
X27190476Y-49119047D01*
X27190476Y-48785714D01*
X27238095Y-48595238D01*
X27333333Y-48500000D01*
X27428571Y-48452380D01*
X27619047Y-48452380D01*
X27714285Y-48500000D01*
X27809523Y-48595238D01*
X27857142Y-48785714D01*
X27857142Y-49119047D01*
X27809523Y-49309523D01*
X27714285Y-49404761D01*
X27619047Y-49452380D01*
X27428571Y-49452380D01*
X28190476Y-48452380D02*
X28857142Y-48452380D01*
X28428571Y-49452380D01*
X27904761Y-55547619D02*
X27809523Y-55500000D01*
X27714285Y-55404761D01*
X27571428Y-55261904D01*
X27476190Y-55214285D01*
X27380952Y-55214285D01*
X27428571Y-55452380D02*
X27333333Y-55404761D01*
X27238095Y-55309523D01*
X27190476Y-55119047D01*
X27190476Y-54785714D01*
X27238095Y-54595238D01*
X27333333Y-54500000D01*
X27428571Y-54452380D01*
X27619047Y-54452380D01*
X27714285Y-54500000D01*
X27809523Y-54595238D01*
X27857142Y-54785714D01*
X27857142Y-55119047D01*
X27809523Y-55309523D01*
X27714285Y-55404761D01*
X27619047Y-55452380D01*
X27428571Y-55452380D01*
X28428571Y-54880952D02*
X28333333Y-54833333D01*
X28285714Y-54785714D01*
X28238095Y-54690476D01*
X28238095Y-54642857D01*
X28285714Y-54547619D01*
X28333333Y-54500000D01*
X28428571Y-54452380D01*
X28619047Y-54452380D01*
X28714285Y-54500000D01*
X28761904Y-54547619D01*
X28809523Y-54642857D01*
X28809523Y-54690476D01*
X28761904Y-54785714D01*
X28714285Y-54833333D01*
X28619047Y-54880952D01*
X28428571Y-54880952D01*
X28333333Y-54928571D01*
X28285714Y-54976190D01*
X28238095Y-55071428D01*
X28238095Y-55261904D01*
X28285714Y-55357142D01*
X28333333Y-55404761D01*
X28428571Y-55452380D01*
X28619047Y-55452380D01*
X28714285Y-55404761D01*
X28761904Y-55357142D01*
X28809523Y-55261904D01*
X28809523Y-55071428D01*
X28761904Y-54976190D01*
X28714285Y-54928571D01*
X28619047Y-54880952D01*
X27904761Y-61547619D02*
X27809523Y-61500000D01*
X27714285Y-61404761D01*
X27571428Y-61261904D01*
X27476190Y-61214285D01*
X27380952Y-61214285D01*
X27428571Y-61452380D02*
X27333333Y-61404761D01*
X27238095Y-61309523D01*
X27190476Y-61119047D01*
X27190476Y-60785714D01*
X27238095Y-60595238D01*
X27333333Y-60500000D01*
X27428571Y-60452380D01*
X27619047Y-60452380D01*
X27714285Y-60500000D01*
X27809523Y-60595238D01*
X27857142Y-60785714D01*
X27857142Y-61119047D01*
X27809523Y-61309523D01*
X27714285Y-61404761D01*
X27619047Y-61452380D01*
X27428571Y-61452380D01*
X28333333Y-61452380D02*
X28523809Y-61452380D01*
X28619047Y-61404761D01*
X28666666Y-61357142D01*
X28761904Y-61214285D01*
X28809523Y-61023809D01*
X28809523Y-60642857D01*
X28761904Y-60547619D01*
X28714285Y-60500000D01*
X28619047Y-60452380D01*
X28428571Y-60452380D01*
X28333333Y-60500000D01*
X28285714Y-60547619D01*
X28238095Y-60642857D01*
X28238095Y-60880952D01*
X28285714Y-60976190D01*
X28333333Y-61023809D01*
X28428571Y-61071428D01*
X28619047Y-61071428D01*
X28714285Y-61023809D01*
X28761904Y-60976190D01*
X28809523Y-60880952D01*
X27428571Y-67547619D02*
X27333333Y-67500000D01*
X27238095Y-67404761D01*
X27095238Y-67261904D01*
X27000000Y-67214285D01*
X26904761Y-67214285D01*
X26952380Y-67452380D02*
X26857142Y-67404761D01*
X26761904Y-67309523D01*
X26714285Y-67119047D01*
X26714285Y-66785714D01*
X26761904Y-66595238D01*
X26857142Y-66500000D01*
X26952380Y-66452380D01*
X27142857Y-66452380D01*
X27238095Y-66500000D01*
X27333333Y-66595238D01*
X27380952Y-66785714D01*
X27380952Y-67119047D01*
X27333333Y-67309523D01*
X27238095Y-67404761D01*
X27142857Y-67452380D01*
X26952380Y-67452380D01*
X28333333Y-67452380D02*
X27761904Y-67452380D01*
X28047619Y-67452380D02*
X28047619Y-66452380D01*
X27952380Y-66595238D01*
X27857142Y-66690476D01*
X27761904Y-66738095D01*
X28952380Y-66452380D02*
X29047619Y-66452380D01*
X29142857Y-66500000D01*
X29190476Y-66547619D01*
X29238095Y-66642857D01*
X29285714Y-66833333D01*
X29285714Y-67071428D01*
X29238095Y-67261904D01*
X29190476Y-67357142D01*
X29142857Y-67404761D01*
X29047619Y-67452380D01*
X28952380Y-67452380D01*
X28857142Y-67404761D01*
X28809523Y-67357142D01*
X28761904Y-67261904D01*
X28714285Y-67071428D01*
X28714285Y-66833333D01*
X28761904Y-66642857D01*
X28809523Y-66547619D01*
X28857142Y-66500000D01*
X28952380Y-66452380D01*
X27428571Y-73547619D02*
X27333333Y-73500000D01*
X27238095Y-73404761D01*
X27095238Y-73261904D01*
X27000000Y-73214285D01*
X26904761Y-73214285D01*
X26952380Y-73452380D02*
X26857142Y-73404761D01*
X26761904Y-73309523D01*
X26714285Y-73119047D01*
X26714285Y-72785714D01*
X26761904Y-72595238D01*
X26857142Y-72500000D01*
X26952380Y-72452380D01*
X27142857Y-72452380D01*
X27238095Y-72500000D01*
X27333333Y-72595238D01*
X27380952Y-72785714D01*
X27380952Y-73119047D01*
X27333333Y-73309523D01*
X27238095Y-73404761D01*
X27142857Y-73452380D01*
X26952380Y-73452380D01*
X28333333Y-73452380D02*
X27761904Y-73452380D01*
X28047619Y-73452380D02*
X28047619Y-72452380D01*
X27952380Y-72595238D01*
X27857142Y-72690476D01*
X27761904Y-72738095D01*
X29285714Y-73452380D02*
X28714285Y-73452380D01*
X29000000Y-73452380D02*
X29000000Y-72452380D01*
X28904761Y-72595238D01*
X28809523Y-72690476D01*
X28714285Y-72738095D01*
X27428571Y-79547619D02*
X27333333Y-79500000D01*
X27238095Y-79404761D01*
X27095238Y-79261904D01*
X27000000Y-79214285D01*
X26904761Y-79214285D01*
X26952380Y-79452380D02*
X26857142Y-79404761D01*
X26761904Y-79309523D01*
X26714285Y-79119047D01*
X26714285Y-78785714D01*
X26761904Y-78595238D01*
X26857142Y-78500000D01*
X26952380Y-78452380D01*
X27142857Y-78452380D01*
X27238095Y-78500000D01*
X27333333Y-78595238D01*
X27380952Y-78785714D01*
X27380952Y-79119047D01*
X27333333Y-79309523D01*
X27238095Y-79404761D01*
X27142857Y-79452380D01*
X26952380Y-79452380D01*
X28333333Y-79452380D02*
X27761904Y-79452380D01*
X28047619Y-79452380D02*
X28047619Y-78452380D01*
X27952380Y-78595238D01*
X27857142Y-78690476D01*
X27761904Y-78738095D01*
X28714285Y-78547619D02*
X28761904Y-78500000D01*
X28857142Y-78452380D01*
X29095238Y-78452380D01*
X29190476Y-78500000D01*
X29238095Y-78547619D01*
X29285714Y-78642857D01*
X29285714Y-78738095D01*
X29238095Y-78880952D01*
X28666666Y-79452380D01*
X29285714Y-79452380D01*
X27428571Y-85547619D02*
X27333333Y-85500000D01*
X27238095Y-85404761D01*
X27095238Y-85261904D01*
X27000000Y-85214285D01*
X26904761Y-85214285D01*
X26952380Y-85452380D02*
X26857142Y-85404761D01*
X26761904Y-85309523D01*
X26714285Y-85119047D01*
X26714285Y-84785714D01*
X26761904Y-84595238D01*
X26857142Y-84500000D01*
X26952380Y-84452380D01*
X27142857Y-84452380D01*
X27238095Y-84500000D01*
X27333333Y-84595238D01*
X27380952Y-84785714D01*
X27380952Y-85119047D01*
X27333333Y-85309523D01*
X27238095Y-85404761D01*
X27142857Y-85452380D01*
X26952380Y-85452380D01*
X28333333Y-85452380D02*
X27761904Y-85452380D01*
X28047619Y-85452380D02*
X28047619Y-84452380D01*
X27952380Y-84595238D01*
X27857142Y-84690476D01*
X27761904Y-84738095D01*
X28666666Y-84452380D02*
X29285714Y-84452380D01*
X28952380Y-84833333D01*
X29095238Y-84833333D01*
X29190476Y-84880952D01*
X29238095Y-84928571D01*
X29285714Y-85023809D01*
X29285714Y-85261904D01*
X29238095Y-85357142D01*
X29190476Y-85404761D01*
X29095238Y-85452380D01*
X28809523Y-85452380D01*
X28714285Y-85404761D01*
X28666666Y-85357142D01*
X39833333Y-13502380D02*
X39500000Y-13026190D01*
X39261904Y-13502380D02*
X39261904Y-12502380D01*
X39642857Y-12502380D01*
X39738095Y-12550000D01*
X39785714Y-12597619D01*
X39833333Y-12692857D01*
X39833333Y-12835714D01*
X39785714Y-12930952D01*
X39738095Y-12978571D01*
X39642857Y-13026190D01*
X39261904Y-13026190D01*
X40785714Y-13502380D02*
X40214285Y-13502380D01*
X40500000Y-13502380D02*
X40500000Y-12502380D01*
X40404761Y-12645238D01*
X40309523Y-12740476D01*
X40214285Y-12788095D01*
X39833333Y-16502380D02*
X39500000Y-16026190D01*
X39261904Y-16502380D02*
X39261904Y-15502380D01*
X39642857Y-15502380D01*
X39738095Y-15550000D01*
X39785714Y-15597619D01*
X39833333Y-15692857D01*
X39833333Y-15835714D01*
X39785714Y-15930952D01*
X39738095Y-15978571D01*
X39642857Y-16026190D01*
X39261904Y-16026190D01*
X40214285Y-15597619D02*
X40261904Y-15550000D01*
X40357142Y-15502380D01*
X40595238Y-15502380D01*
X40690476Y-15550000D01*
X40738095Y-15597619D01*
X40785714Y-15692857D01*
X40785714Y-15788095D01*
X40738095Y-15930952D01*
X40166666Y-16502380D01*
X40785714Y-16502380D01*
X62833333Y-48452380D02*
X62500000Y-47976190D01*
X62261904Y-48452380D02*
X62261904Y-47452380D01*
X62642857Y-47452380D01*
X62738095Y-47500000D01*
X62785714Y-47547619D01*
X62833333Y-47642857D01*
X62833333Y-47785714D01*
X62785714Y-47880952D01*
X62738095Y-47928571D01*
X62642857Y-47976190D01*
X62261904Y-47976190D01*
X63166666Y-47452380D02*
X63785714Y-47452380D01*
X63452380Y-47833333D01*
X63595238Y-47833333D01*
X63690476Y-47880952D01*
X63738095Y-47928571D01*
X63785714Y-48023809D01*
X63785714Y-48261904D01*
X63738095Y-48357142D01*
X63690476Y-48404761D01*
X63595238Y-48452380D01*
X63309523Y-48452380D01*
X63214285Y-48404761D01*
X63166666Y-48357142D01*
X62833333Y-46452380D02*
X62500000Y-45976190D01*
X62261904Y-46452380D02*
X62261904Y-45452380D01*
X62642857Y-45452380D01*
X62738095Y-45500000D01*
X62785714Y-45547619D01*
X62833333Y-45642857D01*
X62833333Y-45785714D01*
X62785714Y-45880952D01*
X62738095Y-45928571D01*
X62642857Y-45976190D01*
X62261904Y-45976190D01*
X63690476Y-45785714D02*
X63690476Y-46452380D01*
X63452380Y-45404761D02*
X63214285Y-46119047D01*
X63833333Y-46119047D01*
X73452380Y-19166666D02*
X72976190Y-19500000D01*
X73452380Y-19738095D02*
X72452380Y-19738095D01*
X72452380Y-19357142D01*
X72500000Y-19261904D01*
X72547619Y-19214285D01*
X72642857Y-19166666D01*
X72785714Y-19166666D01*
X72880952Y-19214285D01*
X72928571Y-19261904D01*
X72976190Y-19357142D01*
X72976190Y-19738095D01*
X72452380Y-18261904D02*
X72452380Y-18738095D01*
X72928571Y-18785714D01*
X72880952Y-18738095D01*
X72833333Y-18642857D01*
X72833333Y-18404761D01*
X72880952Y-18309523D01*
X72928571Y-18261904D01*
X73023809Y-18214285D01*
X73261904Y-18214285D01*
X73357142Y-18261904D01*
X73404761Y-18309523D01*
X73452380Y-18404761D01*
X73452380Y-18642857D01*
X73404761Y-18738095D01*
X73357142Y-18785714D01*
X73452380Y-31166666D02*
X72976190Y-31500000D01*
X73452380Y-31738095D02*
X72452380Y-31738095D01*
X72452380Y-31357142D01*
X72500000Y-31261904D01*
X72547619Y-31214285D01*
X72642857Y-31166666D01*
X72785714Y-31166666D01*
X72880952Y-31214285D01*
X72928571Y-31261904D01*
X72976190Y-31357142D01*
X72976190Y-31738095D01*
X72452380Y-30309523D02*
X72452380Y-30500000D01*
X72500000Y-30595238D01*
X72547619Y-30642857D01*
X72690476Y-30738095D01*
X72880952Y-30785714D01*
X73261904Y-30785714D01*
X73357142Y-30738095D01*
X73404761Y-30690476D01*
X73452380Y-30595238D01*
X73452380Y-30404761D01*
X73404761Y-30309523D01*
X73357142Y-30261904D01*
X73261904Y-30214285D01*
X73023809Y-30214285D01*
X72928571Y-30261904D01*
X72880952Y-30309523D01*
X72833333Y-30404761D01*
X72833333Y-30595238D01*
X72880952Y-30690476D01*
X72928571Y-30738095D01*
X73023809Y-30785714D01*
X66752380Y-87866666D02*
X66276190Y-88200000D01*
X66752380Y-88438095D02*
X65752380Y-88438095D01*
X65752380Y-88057142D01*
X65800000Y-87961904D01*
X65847619Y-87914285D01*
X65942857Y-87866666D01*
X66085714Y-87866666D01*
X66180952Y-87914285D01*
X66228571Y-87961904D01*
X66276190Y-88057142D01*
X66276190Y-88438095D01*
X65752380Y-87533333D02*
X65752380Y-86866666D01*
X66752380Y-87295238D01*
X70752380Y-87866666D02*
X70276190Y-88200000D01*
X70752380Y-88438095D02*
X69752380Y-88438095D01*
X69752380Y-88057142D01*
X69800000Y-87961904D01*
X69847619Y-87914285D01*
X69942857Y-87866666D01*
X70085714Y-87866666D01*
X70180952Y-87914285D01*
X70228571Y-87961904D01*
X70276190Y-88057142D01*
X70276190Y-88438095D01*
X70180952Y-87295238D02*
X70133333Y-87390476D01*
X70085714Y-87438095D01*
X69990476Y-87485714D01*
X69942857Y-87485714D01*
X69847619Y-87438095D01*
X69800000Y-87390476D01*
X69752380Y-87295238D01*
X69752380Y-87104761D01*
X69800000Y-87009523D01*
X69847619Y-86961904D01*
X69942857Y-86914285D01*
X69990476Y-86914285D01*
X70085714Y-86961904D01*
X70133333Y-87009523D01*
X70180952Y-87104761D01*
X70180952Y-87295238D01*
X70228571Y-87390476D01*
X70276190Y-87438095D01*
X70371428Y-87485714D01*
X70561904Y-87485714D01*
X70657142Y-87438095D01*
X70704761Y-87390476D01*
X70752380Y-87295238D01*
X70752380Y-87104761D01*
X70704761Y-87009523D01*
X70657142Y-86961904D01*
X70561904Y-86914285D01*
X70371428Y-86914285D01*
X70276190Y-86961904D01*
X70228571Y-87009523D01*
X70180952Y-87104761D01*
X74752380Y-87866666D02*
X74276190Y-88200000D01*
X74752380Y-88438095D02*
X73752380Y-88438095D01*
X73752380Y-88057142D01*
X73800000Y-87961904D01*
X73847619Y-87914285D01*
X73942857Y-87866666D01*
X74085714Y-87866666D01*
X74180952Y-87914285D01*
X74228571Y-87961904D01*
X74276190Y-88057142D01*
X74276190Y-88438095D01*
X74752380Y-87390476D02*
X74752380Y-87200000D01*
X74704761Y-87104761D01*
X74657142Y-87057142D01*
X74514285Y-86961904D01*
X74323809Y-86914285D01*
X73942857Y-86914285D01*
X73847619Y-86961904D01*
X73800000Y-87009523D01*
X73752380Y-87104761D01*
X73752380Y-87295238D01*
X73800000Y-87390476D01*
X73847619Y-87438095D01*
X73942857Y-87485714D01*
X74180952Y-87485714D01*
X74276190Y-87438095D01*
X74323809Y-87390476D01*
X74371428Y-87295238D01*
X74371428Y-87104761D01*
X74323809Y-87009523D01*
X74276190Y-86961904D01*
X74180952Y-86914285D01*
X78752380Y-88342857D02*
X78276190Y-88676190D01*
X78752380Y-88914285D02*
X77752380Y-88914285D01*
X77752380Y-88533333D01*
X77800000Y-88438095D01*
X77847619Y-88390476D01*
X77942857Y-88342857D01*
X78085714Y-88342857D01*
X78180952Y-88390476D01*
X78228571Y-88438095D01*
X78276190Y-88533333D01*
X78276190Y-88914285D01*
X78752380Y-87390476D02*
X78752380Y-87961904D01*
X78752380Y-87676190D02*
X77752380Y-87676190D01*
X77895238Y-87771428D01*
X77990476Y-87866666D01*
X78038095Y-87961904D01*
X77752380Y-86771428D02*
X77752380Y-86676190D01*
X77800000Y-86580952D01*
X77847619Y-86533333D01*
X77942857Y-86485714D01*
X78133333Y-86438095D01*
X78371428Y-86438095D01*
X78561904Y-86485714D01*
X78657142Y-86533333D01*
X78704761Y-86580952D01*
X78752380Y-86676190D01*
X78752380Y-86771428D01*
X78704761Y-86866666D01*
X78657142Y-86914285D01*
X78561904Y-86961904D01*
X78371428Y-87009523D01*
X78133333Y-87009523D01*
X77942857Y-86961904D01*
X77847619Y-86914285D01*
X77800000Y-86866666D01*
X77752380Y-86771428D01*
X82752380Y-88342857D02*
X82276190Y-88676190D01*
X82752380Y-88914285D02*
X81752380Y-88914285D01*
X81752380Y-88533333D01*
X81800000Y-88438095D01*
X81847619Y-88390476D01*
X81942857Y-88342857D01*
X82085714Y-88342857D01*
X82180952Y-88390476D01*
X82228571Y-88438095D01*
X82276190Y-88533333D01*
X82276190Y-88914285D01*
X82752380Y-87390476D02*
X82752380Y-87961904D01*
X82752380Y-87676190D02*
X81752380Y-87676190D01*
X81895238Y-87771428D01*
X81990476Y-87866666D01*
X82038095Y-87961904D01*
X82752380Y-86438095D02*
X82752380Y-87009523D01*
X82752380Y-86723809D02*
X81752380Y-86723809D01*
X81895238Y-86819047D01*
X81990476Y-86914285D01*
X82038095Y-87009523D01*
X31157142Y-19952380D02*
X30823809Y-19476190D01*
X30585714Y-19952380D02*
X30585714Y-18952380D01*
X30966666Y-18952380D01*
X31061904Y-19000000D01*
X31109523Y-19047619D01*
X31157142Y-19142857D01*
X31157142Y-19285714D01*
X31109523Y-19380952D01*
X31061904Y-19428571D01*
X30966666Y-19476190D01*
X30585714Y-19476190D01*
X32109523Y-19952380D02*
X31538095Y-19952380D01*
X31823809Y-19952380D02*
X31823809Y-18952380D01*
X31728571Y-19095238D01*
X31633333Y-19190476D01*
X31538095Y-19238095D01*
X32442857Y-18952380D02*
X33061904Y-18952380D01*
X32728571Y-19333333D01*
X32871428Y-19333333D01*
X32966666Y-19380952D01*
X33014285Y-19428571D01*
X33061904Y-19523809D01*
X33061904Y-19761904D01*
X33014285Y-19857142D01*
X32966666Y-19904761D01*
X32871428Y-19952380D01*
X32585714Y-19952380D01*
X32490476Y-19904761D01*
X32442857Y-19857142D01*
X31357142Y-24852380D02*
X31023809Y-24376190D01*
X30785714Y-24852380D02*
X30785714Y-23852380D01*
X31166666Y-23852380D01*
X31261904Y-23900000D01*
X31309523Y-23947619D01*
X31357142Y-24042857D01*
X31357142Y-24185714D01*
X31309523Y-24280952D01*
X31261904Y-24328571D01*
X31166666Y-24376190D01*
X30785714Y-24376190D01*
X32309523Y-24852380D02*
X31738095Y-24852380D01*
X32023809Y-24852380D02*
X32023809Y-23852380D01*
X31928571Y-23995238D01*
X31833333Y-24090476D01*
X31738095Y-24138095D01*
X33166666Y-24185714D02*
X33166666Y-24852380D01*
X32928571Y-23804761D02*
X32690476Y-24519047D01*
X33309523Y-24519047D01*
X31357142Y-26152380D02*
X31023809Y-25676190D01*
X30785714Y-26152380D02*
X30785714Y-25152380D01*
X31166666Y-25152380D01*
X31261904Y-25200000D01*
X31309523Y-25247619D01*
X31357142Y-25342857D01*
X31357142Y-25485714D01*
X31309523Y-25580952D01*
X31261904Y-25628571D01*
X31166666Y-25676190D01*
X30785714Y-25676190D01*
X32309523Y-26152380D02*
X31738095Y-26152380D01*
X32023809Y-26152380D02*
X32023809Y-25152380D01*
X31928571Y-25295238D01*
X31833333Y-25390476D01*
X31738095Y-25438095D01*
X33166666Y-25152380D02*
X32976190Y-25152380D01*
X32880952Y-25200000D01*
X32833333Y-25247619D01*
X32738095Y-25390476D01*
X32690476Y-25580952D01*
X32690476Y-25961904D01*
X32738095Y-26057142D01*
X32785714Y-26104761D01*
X32880952Y-26152380D01*
X33071428Y-26152380D01*
X33166666Y-26104761D01*
X33214285Y-26057142D01*
X33261904Y-25961904D01*
X33261904Y-25723809D01*
X33214285Y-25628571D01*
X33166666Y-25580952D01*
X33071428Y-25533333D01*
X32880952Y-25533333D01*
X32785714Y-25580952D01*
X32738095Y-25628571D01*
X32690476Y-25723809D01*
X31357142Y-30852380D02*
X31023809Y-30376190D01*
X30785714Y-30852380D02*
X30785714Y-29852380D01*
X31166666Y-29852380D01*
X31261904Y-29900000D01*
X31309523Y-29947619D01*
X31357142Y-30042857D01*
X31357142Y-30185714D01*
X31309523Y-30280952D01*
X31261904Y-30328571D01*
X31166666Y-30376190D01*
X30785714Y-30376190D01*
X32309523Y-30852380D02*
X31738095Y-30852380D01*
X32023809Y-30852380D02*
X32023809Y-29852380D01*
X31928571Y-29995238D01*
X31833333Y-30090476D01*
X31738095Y-30138095D01*
X32642857Y-29852380D02*
X33309523Y-29852380D01*
X32880952Y-30852380D01*
X31357142Y-32152380D02*
X31023809Y-31676190D01*
X30785714Y-32152380D02*
X30785714Y-31152380D01*
X31166666Y-31152380D01*
X31261904Y-31200000D01*
X31309523Y-31247619D01*
X31357142Y-31342857D01*
X31357142Y-31485714D01*
X31309523Y-31580952D01*
X31261904Y-31628571D01*
X31166666Y-31676190D01*
X30785714Y-31676190D01*
X32309523Y-32152380D02*
X31738095Y-32152380D01*
X32023809Y-32152380D02*
X32023809Y-31152380D01*
X31928571Y-31295238D01*
X31833333Y-31390476D01*
X31738095Y-31438095D01*
X32785714Y-32152380D02*
X32976190Y-32152380D01*
X33071428Y-32104761D01*
X33119047Y-32057142D01*
X33214285Y-31914285D01*
X33261904Y-31723809D01*
X33261904Y-31342857D01*
X33214285Y-31247619D01*
X33166666Y-31200000D01*
X33071428Y-31152380D01*
X32880952Y-31152380D01*
X32785714Y-31200000D01*
X32738095Y-31247619D01*
X32690476Y-31342857D01*
X32690476Y-31580952D01*
X32738095Y-31676190D01*
X32785714Y-31723809D01*
X32880952Y-31771428D01*
X33071428Y-31771428D01*
X33166666Y-31723809D01*
X33214285Y-31676190D01*
X33261904Y-31580952D01*
X31357142Y-36852380D02*
X31023809Y-36376190D01*
X30785714Y-36852380D02*
X30785714Y-35852380D01*
X31166666Y-35852380D01*
X31261904Y-35900000D01*
X31309523Y-35947619D01*
X31357142Y-36042857D01*
X31357142Y-36185714D01*
X31309523Y-36280952D01*
X31261904Y-36328571D01*
X31166666Y-36376190D01*
X30785714Y-36376190D01*
X31738095Y-35947619D02*
X31785714Y-35900000D01*
X31880952Y-35852380D01*
X32119047Y-35852380D01*
X32214285Y-35900000D01*
X32261904Y-35947619D01*
X32309523Y-36042857D01*
X32309523Y-36138095D01*
X32261904Y-36280952D01*
X31690476Y-36852380D01*
X32309523Y-36852380D01*
X32928571Y-35852380D02*
X33023809Y-35852380D01*
X33119047Y-35900000D01*
X33166666Y-35947619D01*
X33214285Y-36042857D01*
X33261904Y-36233333D01*
X33261904Y-36471428D01*
X33214285Y-36661904D01*
X33166666Y-36757142D01*
X33119047Y-36804761D01*
X33023809Y-36852380D01*
X32928571Y-36852380D01*
X32833333Y-36804761D01*
X32785714Y-36757142D01*
X32738095Y-36661904D01*
X32690476Y-36471428D01*
X32690476Y-36233333D01*
X32738095Y-36042857D01*
X32785714Y-35947619D01*
X32833333Y-35900000D01*
X32928571Y-35852380D01*
X31357142Y-38152380D02*
X31023809Y-37676190D01*
X30785714Y-38152380D02*
X30785714Y-37152380D01*
X31166666Y-37152380D01*
X31261904Y-37200000D01*
X31309523Y-37247619D01*
X31357142Y-37342857D01*
X31357142Y-37485714D01*
X31309523Y-37580952D01*
X31261904Y-37628571D01*
X31166666Y-37676190D01*
X30785714Y-37676190D01*
X31738095Y-37247619D02*
X31785714Y-37200000D01*
X31880952Y-37152380D01*
X32119047Y-37152380D01*
X32214285Y-37200000D01*
X32261904Y-37247619D01*
X32309523Y-37342857D01*
X32309523Y-37438095D01*
X32261904Y-37580952D01*
X31690476Y-38152380D01*
X32309523Y-38152380D01*
X32690476Y-37247619D02*
X32738095Y-37200000D01*
X32833333Y-37152380D01*
X33071428Y-37152380D01*
X33166666Y-37200000D01*
X33214285Y-37247619D01*
X33261904Y-37342857D01*
X33261904Y-37438095D01*
X33214285Y-37580952D01*
X32642857Y-38152380D01*
X33261904Y-38152380D01*
X31357142Y-42852380D02*
X31023809Y-42376190D01*
X30785714Y-42852380D02*
X30785714Y-41852380D01*
X31166666Y-41852380D01*
X31261904Y-41900000D01*
X31309523Y-41947619D01*
X31357142Y-42042857D01*
X31357142Y-42185714D01*
X31309523Y-42280952D01*
X31261904Y-42328571D01*
X31166666Y-42376190D01*
X30785714Y-42376190D01*
X31738095Y-41947619D02*
X31785714Y-41900000D01*
X31880952Y-41852380D01*
X32119047Y-41852380D01*
X32214285Y-41900000D01*
X32261904Y-41947619D01*
X32309523Y-42042857D01*
X32309523Y-42138095D01*
X32261904Y-42280952D01*
X31690476Y-42852380D01*
X32309523Y-42852380D01*
X32642857Y-41852380D02*
X33261904Y-41852380D01*
X32928571Y-42233333D01*
X33071428Y-42233333D01*
X33166666Y-42280952D01*
X33214285Y-42328571D01*
X33261904Y-42423809D01*
X33261904Y-42661904D01*
X33214285Y-42757142D01*
X33166666Y-42804761D01*
X33071428Y-42852380D01*
X32785714Y-42852380D01*
X32690476Y-42804761D01*
X32642857Y-42757142D01*
X31357142Y-44152380D02*
X31023809Y-43676190D01*
X30785714Y-44152380D02*
X30785714Y-43152380D01*
X31166666Y-43152380D01*
X31261904Y-43200000D01*
X31309523Y-43247619D01*
X31357142Y-43342857D01*
X31357142Y-43485714D01*
X31309523Y-43580952D01*
X31261904Y-43628571D01*
X31166666Y-43676190D01*
X30785714Y-43676190D01*
X31738095Y-43247619D02*
X31785714Y-43200000D01*
X31880952Y-43152380D01*
X32119047Y-43152380D01*
X32214285Y-43200000D01*
X32261904Y-43247619D01*
X32309523Y-43342857D01*
X32309523Y-43438095D01*
X32261904Y-43580952D01*
X31690476Y-44152380D01*
X32309523Y-44152380D01*
X33214285Y-43152380D02*
X32738095Y-43152380D01*
X32690476Y-43628571D01*
X32738095Y-43580952D01*
X32833333Y-43533333D01*
X33071428Y-43533333D01*
X33166666Y-43580952D01*
X33214285Y-43628571D01*
X33261904Y-43723809D01*
X33261904Y-43961904D01*
X33214285Y-44057142D01*
X33166666Y-44104761D01*
X33071428Y-44152380D01*
X32833333Y-44152380D01*
X32738095Y-44104761D01*
X32690476Y-44057142D01*
X31357142Y-48952380D02*
X31023809Y-48476190D01*
X30785714Y-48952380D02*
X30785714Y-47952380D01*
X31166666Y-47952380D01*
X31261904Y-48000000D01*
X31309523Y-48047619D01*
X31357142Y-48142857D01*
X31357142Y-48285714D01*
X31309523Y-48380952D01*
X31261904Y-48428571D01*
X31166666Y-48476190D01*
X30785714Y-48476190D01*
X31738095Y-48047619D02*
X31785714Y-48000000D01*
X31880952Y-47952380D01*
X32119047Y-47952380D01*
X32214285Y-48000000D01*
X32261904Y-48047619D01*
X32309523Y-48142857D01*
X32309523Y-48238095D01*
X32261904Y-48380952D01*
X31690476Y-48952380D01*
X32309523Y-48952380D01*
X33166666Y-47952380D02*
X32976190Y-47952380D01*
X32880952Y-48000000D01*
X32833333Y-48047619D01*
X32738095Y-48190476D01*
X32690476Y-48380952D01*
X32690476Y-48761904D01*
X32738095Y-48857142D01*
X32785714Y-48904761D01*
X32880952Y-48952380D01*
X33071428Y-48952380D01*
X33166666Y-48904761D01*
X33214285Y-48857142D01*
X33261904Y-48761904D01*
X33261904Y-48523809D01*
X33214285Y-48428571D01*
X33166666Y-48380952D01*
X33071428Y-48333333D01*
X32880952Y-48333333D01*
X32785714Y-48380952D01*
X32738095Y-48428571D01*
X32690476Y-48523809D01*
X31357142Y-50152380D02*
X31023809Y-49676190D01*
X30785714Y-50152380D02*
X30785714Y-49152380D01*
X31166666Y-49152380D01*
X31261904Y-49200000D01*
X31309523Y-49247619D01*
X31357142Y-49342857D01*
X31357142Y-49485714D01*
X31309523Y-49580952D01*
X31261904Y-49628571D01*
X31166666Y-49676190D01*
X30785714Y-49676190D01*
X31738095Y-49247619D02*
X31785714Y-49200000D01*
X31880952Y-49152380D01*
X32119047Y-49152380D01*
X32214285Y-49200000D01*
X32261904Y-49247619D01*
X32309523Y-49342857D01*
X32309523Y-49438095D01*
X32261904Y-49580952D01*
X31690476Y-50152380D01*
X32309523Y-50152380D01*
X32880952Y-49580952D02*
X32785714Y-49533333D01*
X32738095Y-49485714D01*
X32690476Y-49390476D01*
X32690476Y-49342857D01*
X32738095Y-49247619D01*
X32785714Y-49200000D01*
X32880952Y-49152380D01*
X33071428Y-49152380D01*
X33166666Y-49200000D01*
X33214285Y-49247619D01*
X33261904Y-49342857D01*
X33261904Y-49390476D01*
X33214285Y-49485714D01*
X33166666Y-49533333D01*
X33071428Y-49580952D01*
X32880952Y-49580952D01*
X32785714Y-49628571D01*
X32738095Y-49676190D01*
X32690476Y-49771428D01*
X32690476Y-49961904D01*
X32738095Y-50057142D01*
X32785714Y-50104761D01*
X32880952Y-50152380D01*
X33071428Y-50152380D01*
X33166666Y-50104761D01*
X33214285Y-50057142D01*
X33261904Y-49961904D01*
X33261904Y-49771428D01*
X33214285Y-49676190D01*
X33166666Y-49628571D01*
X33071428Y-49580952D01*
X31357142Y-54852380D02*
X31023809Y-54376190D01*
X30785714Y-54852380D02*
X30785714Y-53852380D01*
X31166666Y-53852380D01*
X31261904Y-53900000D01*
X31309523Y-53947619D01*
X31357142Y-54042857D01*
X31357142Y-54185714D01*
X31309523Y-54280952D01*
X31261904Y-54328571D01*
X31166666Y-54376190D01*
X30785714Y-54376190D01*
X31738095Y-53947619D02*
X31785714Y-53900000D01*
X31880952Y-53852380D01*
X32119047Y-53852380D01*
X32214285Y-53900000D01*
X32261904Y-53947619D01*
X32309523Y-54042857D01*
X32309523Y-54138095D01*
X32261904Y-54280952D01*
X31690476Y-54852380D01*
X32309523Y-54852380D01*
X32785714Y-54852380D02*
X32976190Y-54852380D01*
X33071428Y-54804761D01*
X33119047Y-54757142D01*
X33214285Y-54614285D01*
X33261904Y-54423809D01*
X33261904Y-54042857D01*
X33214285Y-53947619D01*
X33166666Y-53900000D01*
X33071428Y-53852380D01*
X32880952Y-53852380D01*
X32785714Y-53900000D01*
X32738095Y-53947619D01*
X32690476Y-54042857D01*
X32690476Y-54280952D01*
X32738095Y-54376190D01*
X32785714Y-54423809D01*
X32880952Y-54471428D01*
X33071428Y-54471428D01*
X33166666Y-54423809D01*
X33214285Y-54376190D01*
X33261904Y-54280952D01*
X31357142Y-56152380D02*
X31023809Y-55676190D01*
X30785714Y-56152380D02*
X30785714Y-55152380D01*
X31166666Y-55152380D01*
X31261904Y-55200000D01*
X31309523Y-55247619D01*
X31357142Y-55342857D01*
X31357142Y-55485714D01*
X31309523Y-55580952D01*
X31261904Y-55628571D01*
X31166666Y-55676190D01*
X30785714Y-55676190D01*
X31690476Y-55152380D02*
X32309523Y-55152380D01*
X31976190Y-55533333D01*
X32119047Y-55533333D01*
X32214285Y-55580952D01*
X32261904Y-55628571D01*
X32309523Y-55723809D01*
X32309523Y-55961904D01*
X32261904Y-56057142D01*
X32214285Y-56104761D01*
X32119047Y-56152380D01*
X31833333Y-56152380D01*
X31738095Y-56104761D01*
X31690476Y-56057142D01*
X33261904Y-56152380D02*
X32690476Y-56152380D01*
X32976190Y-56152380D02*
X32976190Y-55152380D01*
X32880952Y-55295238D01*
X32785714Y-55390476D01*
X32690476Y-55438095D01*
X31357142Y-60952380D02*
X31023809Y-60476190D01*
X30785714Y-60952380D02*
X30785714Y-59952380D01*
X31166666Y-59952380D01*
X31261904Y-60000000D01*
X31309523Y-60047619D01*
X31357142Y-60142857D01*
X31357142Y-60285714D01*
X31309523Y-60380952D01*
X31261904Y-60428571D01*
X31166666Y-60476190D01*
X30785714Y-60476190D01*
X31690476Y-59952380D02*
X32309523Y-59952380D01*
X31976190Y-60333333D01*
X32119047Y-60333333D01*
X32214285Y-60380952D01*
X32261904Y-60428571D01*
X32309523Y-60523809D01*
X32309523Y-60761904D01*
X32261904Y-60857142D01*
X32214285Y-60904761D01*
X32119047Y-60952380D01*
X31833333Y-60952380D01*
X31738095Y-60904761D01*
X31690476Y-60857142D01*
X32690476Y-60047619D02*
X32738095Y-60000000D01*
X32833333Y-59952380D01*
X33071428Y-59952380D01*
X33166666Y-60000000D01*
X33214285Y-60047619D01*
X33261904Y-60142857D01*
X33261904Y-60238095D01*
X33214285Y-60380952D01*
X32642857Y-60952380D01*
X33261904Y-60952380D01*
X31357142Y-62152380D02*
X31023809Y-61676190D01*
X30785714Y-62152380D02*
X30785714Y-61152380D01*
X31166666Y-61152380D01*
X31261904Y-61200000D01*
X31309523Y-61247619D01*
X31357142Y-61342857D01*
X31357142Y-61485714D01*
X31309523Y-61580952D01*
X31261904Y-61628571D01*
X31166666Y-61676190D01*
X30785714Y-61676190D01*
X31690476Y-61152380D02*
X32309523Y-61152380D01*
X31976190Y-61533333D01*
X32119047Y-61533333D01*
X32214285Y-61580952D01*
X32261904Y-61628571D01*
X32309523Y-61723809D01*
X32309523Y-61961904D01*
X32261904Y-62057142D01*
X32214285Y-62104761D01*
X32119047Y-62152380D01*
X31833333Y-62152380D01*
X31738095Y-62104761D01*
X31690476Y-62057142D01*
X33166666Y-61485714D02*
X33166666Y-62152380D01*
X32928571Y-61104761D02*
X32690476Y-61819047D01*
X33309523Y-61819047D01*
X31357142Y-66952380D02*
X31023809Y-66476190D01*
X30785714Y-66952380D02*
X30785714Y-65952380D01*
X31166666Y-65952380D01*
X31261904Y-66000000D01*
X31309523Y-66047619D01*
X31357142Y-66142857D01*
X31357142Y-66285714D01*
X31309523Y-66380952D01*
X31261904Y-66428571D01*
X31166666Y-66476190D01*
X30785714Y-66476190D01*
X31690476Y-65952380D02*
X32309523Y-65952380D01*
X31976190Y-66333333D01*
X32119047Y-66333333D01*
X32214285Y-66380952D01*
X32261904Y-66428571D01*
X32309523Y-66523809D01*
X32309523Y-66761904D01*
X32261904Y-66857142D01*
X32214285Y-66904761D01*
X32119047Y-66952380D01*
X31833333Y-66952380D01*
X31738095Y-66904761D01*
X31690476Y-66857142D01*
X33214285Y-65952380D02*
X32738095Y-65952380D01*
X32690476Y-66428571D01*
X32738095Y-66380952D01*
X32833333Y-66333333D01*
X33071428Y-66333333D01*
X33166666Y-66380952D01*
X33214285Y-66428571D01*
X33261904Y-66523809D01*
X33261904Y-66761904D01*
X33214285Y-66857142D01*
X33166666Y-66904761D01*
X33071428Y-66952380D01*
X32833333Y-66952380D01*
X32738095Y-66904761D01*
X32690476Y-66857142D01*
X31357142Y-68152380D02*
X31023809Y-67676190D01*
X30785714Y-68152380D02*
X30785714Y-67152380D01*
X31166666Y-67152380D01*
X31261904Y-67200000D01*
X31309523Y-67247619D01*
X31357142Y-67342857D01*
X31357142Y-67485714D01*
X31309523Y-67580952D01*
X31261904Y-67628571D01*
X31166666Y-67676190D01*
X30785714Y-67676190D01*
X31690476Y-67152380D02*
X32309523Y-67152380D01*
X31976190Y-67533333D01*
X32119047Y-67533333D01*
X32214285Y-67580952D01*
X32261904Y-67628571D01*
X32309523Y-67723809D01*
X32309523Y-67961904D01*
X32261904Y-68057142D01*
X32214285Y-68104761D01*
X32119047Y-68152380D01*
X31833333Y-68152380D01*
X31738095Y-68104761D01*
X31690476Y-68057142D01*
X32642857Y-67152380D02*
X33309523Y-67152380D01*
X32880952Y-68152380D01*
X31357142Y-72852380D02*
X31023809Y-72376190D01*
X30785714Y-72852380D02*
X30785714Y-71852380D01*
X31166666Y-71852380D01*
X31261904Y-71900000D01*
X31309523Y-71947619D01*
X31357142Y-72042857D01*
X31357142Y-72185714D01*
X31309523Y-72280952D01*
X31261904Y-72328571D01*
X31166666Y-72376190D01*
X30785714Y-72376190D01*
X31690476Y-71852380D02*
X32309523Y-71852380D01*
X31976190Y-72233333D01*
X32119047Y-72233333D01*
X32214285Y-72280952D01*
X32261904Y-72328571D01*
X32309523Y-72423809D01*
X32309523Y-72661904D01*
X32261904Y-72757142D01*
X32214285Y-72804761D01*
X32119047Y-72852380D01*
X31833333Y-72852380D01*
X31738095Y-72804761D01*
X31690476Y-72757142D01*
X32880952Y-72280952D02*
X32785714Y-72233333D01*
X32738095Y-72185714D01*
X32690476Y-72090476D01*
X32690476Y-72042857D01*
X32738095Y-71947619D01*
X32785714Y-71900000D01*
X32880952Y-71852380D01*
X33071428Y-71852380D01*
X33166666Y-71900000D01*
X33214285Y-71947619D01*
X33261904Y-72042857D01*
X33261904Y-72090476D01*
X33214285Y-72185714D01*
X33166666Y-72233333D01*
X33071428Y-72280952D01*
X32880952Y-72280952D01*
X32785714Y-72328571D01*
X32738095Y-72376190D01*
X32690476Y-72471428D01*
X32690476Y-72661904D01*
X32738095Y-72757142D01*
X32785714Y-72804761D01*
X32880952Y-72852380D01*
X33071428Y-72852380D01*
X33166666Y-72804761D01*
X33214285Y-72757142D01*
X33261904Y-72661904D01*
X33261904Y-72471428D01*
X33214285Y-72376190D01*
X33166666Y-72328571D01*
X33071428Y-72280952D01*
X31357142Y-74152380D02*
X31023809Y-73676190D01*
X30785714Y-74152380D02*
X30785714Y-73152380D01*
X31166666Y-73152380D01*
X31261904Y-73200000D01*
X31309523Y-73247619D01*
X31357142Y-73342857D01*
X31357142Y-73485714D01*
X31309523Y-73580952D01*
X31261904Y-73628571D01*
X31166666Y-73676190D01*
X30785714Y-73676190D01*
X32214285Y-73485714D02*
X32214285Y-74152380D01*
X31976190Y-73104761D02*
X31738095Y-73819047D01*
X32357142Y-73819047D01*
X32928571Y-73152380D02*
X33023809Y-73152380D01*
X33119047Y-73200000D01*
X33166666Y-73247619D01*
X33214285Y-73342857D01*
X33261904Y-73533333D01*
X33261904Y-73771428D01*
X33214285Y-73961904D01*
X33166666Y-74057142D01*
X33119047Y-74104761D01*
X33023809Y-74152380D01*
X32928571Y-74152380D01*
X32833333Y-74104761D01*
X32785714Y-74057142D01*
X32738095Y-73961904D01*
X32690476Y-73771428D01*
X32690476Y-73533333D01*
X32738095Y-73342857D01*
X32785714Y-73247619D01*
X32833333Y-73200000D01*
X32928571Y-73152380D01*
X31357142Y-78952380D02*
X31023809Y-78476190D01*
X30785714Y-78952380D02*
X30785714Y-77952380D01*
X31166666Y-77952380D01*
X31261904Y-78000000D01*
X31309523Y-78047619D01*
X31357142Y-78142857D01*
X31357142Y-78285714D01*
X31309523Y-78380952D01*
X31261904Y-78428571D01*
X31166666Y-78476190D01*
X30785714Y-78476190D01*
X32214285Y-78285714D02*
X32214285Y-78952380D01*
X31976190Y-77904761D02*
X31738095Y-78619047D01*
X32357142Y-78619047D01*
X33261904Y-78952380D02*
X32690476Y-78952380D01*
X32976190Y-78952380D02*
X32976190Y-77952380D01*
X32880952Y-78095238D01*
X32785714Y-78190476D01*
X32690476Y-78238095D01*
X31357142Y-80152380D02*
X31023809Y-79676190D01*
X30785714Y-80152380D02*
X30785714Y-79152380D01*
X31166666Y-79152380D01*
X31261904Y-79200000D01*
X31309523Y-79247619D01*
X31357142Y-79342857D01*
X31357142Y-79485714D01*
X31309523Y-79580952D01*
X31261904Y-79628571D01*
X31166666Y-79676190D01*
X30785714Y-79676190D01*
X32214285Y-79485714D02*
X32214285Y-80152380D01*
X31976190Y-79104761D02*
X31738095Y-79819047D01*
X32357142Y-79819047D01*
X32642857Y-79152380D02*
X33261904Y-79152380D01*
X32928571Y-79533333D01*
X33071428Y-79533333D01*
X33166666Y-79580952D01*
X33214285Y-79628571D01*
X33261904Y-79723809D01*
X33261904Y-79961904D01*
X33214285Y-80057142D01*
X33166666Y-80104761D01*
X33071428Y-80152380D01*
X32785714Y-80152380D01*
X32690476Y-80104761D01*
X32642857Y-80057142D01*
X31357142Y-84952380D02*
X31023809Y-84476190D01*
X30785714Y-84952380D02*
X30785714Y-83952380D01*
X31166666Y-83952380D01*
X31261904Y-84000000D01*
X31309523Y-84047619D01*
X31357142Y-84142857D01*
X31357142Y-84285714D01*
X31309523Y-84380952D01*
X31261904Y-84428571D01*
X31166666Y-84476190D01*
X30785714Y-84476190D01*
X32214285Y-84285714D02*
X32214285Y-84952380D01*
X31976190Y-83904761D02*
X31738095Y-84619047D01*
X32357142Y-84619047D01*
X33166666Y-84285714D02*
X33166666Y-84952380D01*
X32928571Y-83904761D02*
X32690476Y-84619047D01*
X33309523Y-84619047D01*
X31357142Y-86152380D02*
X31023809Y-85676190D01*
X30785714Y-86152380D02*
X30785714Y-85152380D01*
X31166666Y-85152380D01*
X31261904Y-85200000D01*
X31309523Y-85247619D01*
X31357142Y-85342857D01*
X31357142Y-85485714D01*
X31309523Y-85580952D01*
X31261904Y-85628571D01*
X31166666Y-85676190D01*
X30785714Y-85676190D01*
X32214285Y-85485714D02*
X32214285Y-86152380D01*
X31976190Y-85104761D02*
X31738095Y-85819047D01*
X32357142Y-85819047D01*
X33166666Y-85152380D02*
X32976190Y-85152380D01*
X32880952Y-85200000D01*
X32833333Y-85247619D01*
X32738095Y-85390476D01*
X32690476Y-85580952D01*
X32690476Y-85961904D01*
X32738095Y-86057142D01*
X32785714Y-86104761D01*
X32880952Y-86152380D01*
X33071428Y-86152380D01*
X33166666Y-86104761D01*
X33214285Y-86057142D01*
X33261904Y-85961904D01*
X33261904Y-85723809D01*
X33214285Y-85628571D01*
X33166666Y-85580952D01*
X33071428Y-85533333D01*
X32880952Y-85533333D01*
X32785714Y-85580952D01*
X32738095Y-85628571D01*
X32690476Y-85723809D01*
X31357142Y-90952380D02*
X31023809Y-90476190D01*
X30785714Y-90952380D02*
X30785714Y-89952380D01*
X31166666Y-89952380D01*
X31261904Y-90000000D01*
X31309523Y-90047619D01*
X31357142Y-90142857D01*
X31357142Y-90285714D01*
X31309523Y-90380952D01*
X31261904Y-90428571D01*
X31166666Y-90476190D01*
X30785714Y-90476190D01*
X32214285Y-90285714D02*
X32214285Y-90952380D01*
X31976190Y-89904761D02*
X31738095Y-90619047D01*
X32357142Y-90619047D01*
X32642857Y-89952380D02*
X33309523Y-89952380D01*
X32880952Y-90952380D01*
X80738095Y-17452380D02*
X81309523Y-17452380D01*
X81023809Y-18452380D02*
X81023809Y-17452380D01*
X82214285Y-18452380D02*
X81880952Y-17976190D01*
X81642857Y-18452380D02*
X81642857Y-17452380D01*
X82023809Y-17452380D01*
X82119047Y-17500000D01*
X82166666Y-17547619D01*
X82214285Y-17642857D01*
X82214285Y-17785714D01*
X82166666Y-17880952D01*
X82119047Y-17928571D01*
X82023809Y-17976190D01*
X81642857Y-17976190D01*
X83166666Y-18452380D02*
X82595238Y-18452380D01*
X82880952Y-18452380D02*
X82880952Y-17452380D01*
X82785714Y-17595238D01*
X82690476Y-17690476D01*
X82595238Y-17738095D01*
X53538095Y-44852380D02*
X53538095Y-45661904D01*
X53585714Y-45757142D01*
X53633333Y-45804761D01*
X53728571Y-45852380D01*
X53919047Y-45852380D01*
X54014285Y-45804761D01*
X54061904Y-45757142D01*
X54109523Y-45661904D01*
X54109523Y-44852380D01*
X55109523Y-45852380D02*
X54538095Y-45852380D01*
X54823809Y-45852380D02*
X54823809Y-44852380D01*
X54728571Y-44995238D01*
X54633333Y-45090476D01*
X54538095Y-45138095D01*
X21357142Y-19452380D02*
X21023809Y-18976190D01*
X20785714Y-19452380D02*
X20785714Y-18452380D01*
X21166666Y-18452380D01*
X21261904Y-18500000D01*
X21309523Y-18547619D01*
X21357142Y-18642857D01*
X21357142Y-18785714D01*
X21309523Y-18880952D01*
X21261904Y-18928571D01*
X21166666Y-18976190D01*
X20785714Y-18976190D01*
X22309523Y-19452380D02*
X21738095Y-19452380D01*
X22023809Y-19452380D02*
X22023809Y-18452380D01*
X21928571Y-18595238D01*
X21833333Y-18690476D01*
X21738095Y-18738095D01*
X22690476Y-18547619D02*
X22738095Y-18500000D01*
X22833333Y-18452380D01*
X23071428Y-18452380D01*
X23166666Y-18500000D01*
X23214285Y-18547619D01*
X23261904Y-18642857D01*
X23261904Y-18738095D01*
X23214285Y-18880952D01*
X22642857Y-19452380D01*
X23261904Y-19452380D01*
X21357142Y-25452380D02*
X21023809Y-24976190D01*
X20785714Y-25452380D02*
X20785714Y-24452380D01*
X21166666Y-24452380D01*
X21261904Y-24500000D01*
X21309523Y-24547619D01*
X21357142Y-24642857D01*
X21357142Y-24785714D01*
X21309523Y-24880952D01*
X21261904Y-24928571D01*
X21166666Y-24976190D01*
X20785714Y-24976190D01*
X22309523Y-25452380D02*
X21738095Y-25452380D01*
X22023809Y-25452380D02*
X22023809Y-24452380D01*
X21928571Y-24595238D01*
X21833333Y-24690476D01*
X21738095Y-24738095D01*
X23214285Y-24452380D02*
X22738095Y-24452380D01*
X22690476Y-24928571D01*
X22738095Y-24880952D01*
X22833333Y-24833333D01*
X23071428Y-24833333D01*
X23166666Y-24880952D01*
X23214285Y-24928571D01*
X23261904Y-25023809D01*
X23261904Y-25261904D01*
X23214285Y-25357142D01*
X23166666Y-25404761D01*
X23071428Y-25452380D01*
X22833333Y-25452380D01*
X22738095Y-25404761D01*
X22690476Y-25357142D01*
X21357142Y-31452380D02*
X21023809Y-30976190D01*
X20785714Y-31452380D02*
X20785714Y-30452380D01*
X21166666Y-30452380D01*
X21261904Y-30500000D01*
X21309523Y-30547619D01*
X21357142Y-30642857D01*
X21357142Y-30785714D01*
X21309523Y-30880952D01*
X21261904Y-30928571D01*
X21166666Y-30976190D01*
X20785714Y-30976190D01*
X22309523Y-31452380D02*
X21738095Y-31452380D01*
X22023809Y-31452380D02*
X22023809Y-30452380D01*
X21928571Y-30595238D01*
X21833333Y-30690476D01*
X21738095Y-30738095D01*
X22880952Y-30880952D02*
X22785714Y-30833333D01*
X22738095Y-30785714D01*
X22690476Y-30690476D01*
X22690476Y-30642857D01*
X22738095Y-30547619D01*
X22785714Y-30500000D01*
X22880952Y-30452380D01*
X23071428Y-30452380D01*
X23166666Y-30500000D01*
X23214285Y-30547619D01*
X23261904Y-30642857D01*
X23261904Y-30690476D01*
X23214285Y-30785714D01*
X23166666Y-30833333D01*
X23071428Y-30880952D01*
X22880952Y-30880952D01*
X22785714Y-30928571D01*
X22738095Y-30976190D01*
X22690476Y-31071428D01*
X22690476Y-31261904D01*
X22738095Y-31357142D01*
X22785714Y-31404761D01*
X22880952Y-31452380D01*
X23071428Y-31452380D01*
X23166666Y-31404761D01*
X23214285Y-31357142D01*
X23261904Y-31261904D01*
X23261904Y-31071428D01*
X23214285Y-30976190D01*
X23166666Y-30928571D01*
X23071428Y-30880952D01*
X21357142Y-37452380D02*
X21023809Y-36976190D01*
X20785714Y-37452380D02*
X20785714Y-36452380D01*
X21166666Y-36452380D01*
X21261904Y-36500000D01*
X21309523Y-36547619D01*
X21357142Y-36642857D01*
X21357142Y-36785714D01*
X21309523Y-36880952D01*
X21261904Y-36928571D01*
X21166666Y-36976190D01*
X20785714Y-36976190D01*
X21738095Y-36547619D02*
X21785714Y-36500000D01*
X21880952Y-36452380D01*
X22119047Y-36452380D01*
X22214285Y-36500000D01*
X22261904Y-36547619D01*
X22309523Y-36642857D01*
X22309523Y-36738095D01*
X22261904Y-36880952D01*
X21690476Y-37452380D01*
X22309523Y-37452380D01*
X23261904Y-37452380D02*
X22690476Y-37452380D01*
X22976190Y-37452380D02*
X22976190Y-36452380D01*
X22880952Y-36595238D01*
X22785714Y-36690476D01*
X22690476Y-36738095D01*
X21357142Y-43452380D02*
X21023809Y-42976190D01*
X20785714Y-43452380D02*
X20785714Y-42452380D01*
X21166666Y-42452380D01*
X21261904Y-42500000D01*
X21309523Y-42547619D01*
X21357142Y-42642857D01*
X21357142Y-42785714D01*
X21309523Y-42880952D01*
X21261904Y-42928571D01*
X21166666Y-42976190D01*
X20785714Y-42976190D01*
X21738095Y-42547619D02*
X21785714Y-42500000D01*
X21880952Y-42452380D01*
X22119047Y-42452380D01*
X22214285Y-42500000D01*
X22261904Y-42547619D01*
X22309523Y-42642857D01*
X22309523Y-42738095D01*
X22261904Y-42880952D01*
X21690476Y-43452380D01*
X22309523Y-43452380D01*
X23166666Y-42785714D02*
X23166666Y-43452380D01*
X22928571Y-42404761D02*
X22690476Y-43119047D01*
X23309523Y-43119047D01*
X21357142Y-49452380D02*
X21023809Y-48976190D01*
X20785714Y-49452380D02*
X20785714Y-48452380D01*
X21166666Y-48452380D01*
X21261904Y-48500000D01*
X21309523Y-48547619D01*
X21357142Y-48642857D01*
X21357142Y-48785714D01*
X21309523Y-48880952D01*
X21261904Y-48928571D01*
X21166666Y-48976190D01*
X20785714Y-48976190D01*
X21738095Y-48547619D02*
X21785714Y-48500000D01*
X21880952Y-48452380D01*
X22119047Y-48452380D01*
X22214285Y-48500000D01*
X22261904Y-48547619D01*
X22309523Y-48642857D01*
X22309523Y-48738095D01*
X22261904Y-48880952D01*
X21690476Y-49452380D01*
X22309523Y-49452380D01*
X22642857Y-48452380D02*
X23309523Y-48452380D01*
X22880952Y-49452380D01*
X21357142Y-55452380D02*
X21023809Y-54976190D01*
X20785714Y-55452380D02*
X20785714Y-54452380D01*
X21166666Y-54452380D01*
X21261904Y-54500000D01*
X21309523Y-54547619D01*
X21357142Y-54642857D01*
X21357142Y-54785714D01*
X21309523Y-54880952D01*
X21261904Y-54928571D01*
X21166666Y-54976190D01*
X20785714Y-54976190D01*
X21690476Y-54452380D02*
X22309523Y-54452380D01*
X21976190Y-54833333D01*
X22119047Y-54833333D01*
X22214285Y-54880952D01*
X22261904Y-54928571D01*
X22309523Y-55023809D01*
X22309523Y-55261904D01*
X22261904Y-55357142D01*
X22214285Y-55404761D01*
X22119047Y-55452380D01*
X21833333Y-55452380D01*
X21738095Y-55404761D01*
X21690476Y-55357142D01*
X22928571Y-54452380D02*
X23023809Y-54452380D01*
X23119047Y-54500000D01*
X23166666Y-54547619D01*
X23214285Y-54642857D01*
X23261904Y-54833333D01*
X23261904Y-55071428D01*
X23214285Y-55261904D01*
X23166666Y-55357142D01*
X23119047Y-55404761D01*
X23023809Y-55452380D01*
X22928571Y-55452380D01*
X22833333Y-55404761D01*
X22785714Y-55357142D01*
X22738095Y-55261904D01*
X22690476Y-55071428D01*
X22690476Y-54833333D01*
X22738095Y-54642857D01*
X22785714Y-54547619D01*
X22833333Y-54500000D01*
X22928571Y-54452380D01*
X21357142Y-61452380D02*
X21023809Y-60976190D01*
X20785714Y-61452380D02*
X20785714Y-60452380D01*
X21166666Y-60452380D01*
X21261904Y-60500000D01*
X21309523Y-60547619D01*
X21357142Y-60642857D01*
X21357142Y-60785714D01*
X21309523Y-60880952D01*
X21261904Y-60928571D01*
X21166666Y-60976190D01*
X20785714Y-60976190D01*
X21690476Y-60452380D02*
X22309523Y-60452380D01*
X21976190Y-60833333D01*
X22119047Y-60833333D01*
X22214285Y-60880952D01*
X22261904Y-60928571D01*
X22309523Y-61023809D01*
X22309523Y-61261904D01*
X22261904Y-61357142D01*
X22214285Y-61404761D01*
X22119047Y-61452380D01*
X21833333Y-61452380D01*
X21738095Y-61404761D01*
X21690476Y-61357142D01*
X22642857Y-60452380D02*
X23261904Y-60452380D01*
X22928571Y-60833333D01*
X23071428Y-60833333D01*
X23166666Y-60880952D01*
X23214285Y-60928571D01*
X23261904Y-61023809D01*
X23261904Y-61261904D01*
X23214285Y-61357142D01*
X23166666Y-61404761D01*
X23071428Y-61452380D01*
X22785714Y-61452380D01*
X22690476Y-61404761D01*
X22642857Y-61357142D01*
X21357142Y-73452380D02*
X21023809Y-72976190D01*
X20785714Y-73452380D02*
X20785714Y-72452380D01*
X21166666Y-72452380D01*
X21261904Y-72500000D01*
X21309523Y-72547619D01*
X21357142Y-72642857D01*
X21357142Y-72785714D01*
X21309523Y-72880952D01*
X21261904Y-72928571D01*
X21166666Y-72976190D01*
X20785714Y-72976190D01*
X21690476Y-72452380D02*
X22309523Y-72452380D01*
X21976190Y-72833333D01*
X22119047Y-72833333D01*
X22214285Y-72880952D01*
X22261904Y-72928571D01*
X22309523Y-73023809D01*
X22309523Y-73261904D01*
X22261904Y-73357142D01*
X22214285Y-73404761D01*
X22119047Y-73452380D01*
X21833333Y-73452380D01*
X21738095Y-73404761D01*
X21690476Y-73357142D01*
X22785714Y-73452380D02*
X22976190Y-73452380D01*
X23071428Y-73404761D01*
X23119047Y-73357142D01*
X23214285Y-73214285D01*
X23261904Y-73023809D01*
X23261904Y-72642857D01*
X23214285Y-72547619D01*
X23166666Y-72500000D01*
X23071428Y-72452380D01*
X22880952Y-72452380D01*
X22785714Y-72500000D01*
X22738095Y-72547619D01*
X22690476Y-72642857D01*
X22690476Y-72880952D01*
X22738095Y-72976190D01*
X22785714Y-73023809D01*
X22880952Y-73071428D01*
X23071428Y-73071428D01*
X23166666Y-73023809D01*
X23214285Y-72976190D01*
X23261904Y-72880952D01*
X21357142Y-79452380D02*
X21023809Y-78976190D01*
X20785714Y-79452380D02*
X20785714Y-78452380D01*
X21166666Y-78452380D01*
X21261904Y-78500000D01*
X21309523Y-78547619D01*
X21357142Y-78642857D01*
X21357142Y-78785714D01*
X21309523Y-78880952D01*
X21261904Y-78928571D01*
X21166666Y-78976190D01*
X20785714Y-78976190D01*
X22214285Y-78785714D02*
X22214285Y-79452380D01*
X21976190Y-78404761D02*
X21738095Y-79119047D01*
X22357142Y-79119047D01*
X22690476Y-78547619D02*
X22738095Y-78500000D01*
X22833333Y-78452380D01*
X23071428Y-78452380D01*
X23166666Y-78500000D01*
X23214285Y-78547619D01*
X23261904Y-78642857D01*
X23261904Y-78738095D01*
X23214285Y-78880952D01*
X22642857Y-79452380D01*
X23261904Y-79452380D01*
X21357142Y-85852380D02*
X21023809Y-85376190D01*
X20785714Y-85852380D02*
X20785714Y-84852380D01*
X21166666Y-84852380D01*
X21261904Y-84900000D01*
X21309523Y-84947619D01*
X21357142Y-85042857D01*
X21357142Y-85185714D01*
X21309523Y-85280952D01*
X21261904Y-85328571D01*
X21166666Y-85376190D01*
X20785714Y-85376190D01*
X22214285Y-85185714D02*
X22214285Y-85852380D01*
X21976190Y-84804761D02*
X21738095Y-85519047D01*
X22357142Y-85519047D01*
X23214285Y-84852380D02*
X22738095Y-84852380D01*
X22690476Y-85328571D01*
X22738095Y-85280952D01*
X22833333Y-85233333D01*
X23071428Y-85233333D01*
X23166666Y-85280952D01*
X23214285Y-85328571D01*
X23261904Y-85423809D01*
X23261904Y-85661904D01*
X23214285Y-85757142D01*
X23166666Y-85804761D01*
X23071428Y-85852380D01*
X22833333Y-85852380D01*
X22738095Y-85804761D01*
X22690476Y-85757142D01*
X21357142Y-67852380D02*
X21023809Y-67376190D01*
X20785714Y-67852380D02*
X20785714Y-66852380D01*
X21166666Y-66852380D01*
X21261904Y-66900000D01*
X21309523Y-66947619D01*
X21357142Y-67042857D01*
X21357142Y-67185714D01*
X21309523Y-67280952D01*
X21261904Y-67328571D01*
X21166666Y-67376190D01*
X20785714Y-67376190D01*
X21690476Y-66852380D02*
X22309523Y-66852380D01*
X21976190Y-67233333D01*
X22119047Y-67233333D01*
X22214285Y-67280952D01*
X22261904Y-67328571D01*
X22309523Y-67423809D01*
X22309523Y-67661904D01*
X22261904Y-67757142D01*
X22214285Y-67804761D01*
X22119047Y-67852380D01*
X21833333Y-67852380D01*
X21738095Y-67804761D01*
X21690476Y-67757142D01*
X23166666Y-66852380D02*
X22976190Y-66852380D01*
X22880952Y-66900000D01*
X22833333Y-66947619D01*
X22738095Y-67090476D01*
X22690476Y-67280952D01*
X22690476Y-67661904D01*
X22738095Y-67757142D01*
X22785714Y-67804761D01*
X22880952Y-67852380D01*
X23071428Y-67852380D01*
X23166666Y-67804761D01*
X23214285Y-67757142D01*
X23261904Y-67661904D01*
X23261904Y-67423809D01*
X23214285Y-67328571D01*
X23166666Y-67280952D01*
X23071428Y-67233333D01*
X22880952Y-67233333D01*
X22785714Y-67280952D01*
X22738095Y-67328571D01*
X22690476Y-67423809D01*
X39357142Y-19607142D02*
X39309523Y-19654761D01*
X39166666Y-19702380D01*
X39071428Y-19702380D01*
X38928571Y-19654761D01*
X38833333Y-19559523D01*
X38785714Y-19464285D01*
X38738095Y-19273809D01*
X38738095Y-19130952D01*
X38785714Y-18940476D01*
X38833333Y-18845238D01*
X38928571Y-18750000D01*
X39071428Y-18702380D01*
X39166666Y-18702380D01*
X39309523Y-18750000D01*
X39357142Y-18797619D01*
X40309523Y-19702380D02*
X39738095Y-19702380D01*
X40023809Y-19702380D02*
X40023809Y-18702380D01*
X39928571Y-18845238D01*
X39833333Y-18940476D01*
X39738095Y-18988095D01*
X40642857Y-18702380D02*
X41261904Y-18702380D01*
X40928571Y-19083333D01*
X41071428Y-19083333D01*
X41166666Y-19130952D01*
X41214285Y-19178571D01*
X41261904Y-19273809D01*
X41261904Y-19511904D01*
X41214285Y-19607142D01*
X41166666Y-19654761D01*
X41071428Y-19702380D01*
X40785714Y-19702380D01*
X40690476Y-19654761D01*
X40642857Y-19607142D01*
X39357142Y-25607142D02*
X39309523Y-25654761D01*
X39166666Y-25702380D01*
X39071428Y-25702380D01*
X38928571Y-25654761D01*
X38833333Y-25559523D01*
X38785714Y-25464285D01*
X38738095Y-25273809D01*
X38738095Y-25130952D01*
X38785714Y-24940476D01*
X38833333Y-24845238D01*
X38928571Y-24750000D01*
X39071428Y-24702380D01*
X39166666Y-24702380D01*
X39309523Y-24750000D01*
X39357142Y-24797619D01*
X40309523Y-25702380D02*
X39738095Y-25702380D01*
X40023809Y-25702380D02*
X40023809Y-24702380D01*
X39928571Y-24845238D01*
X39833333Y-24940476D01*
X39738095Y-24988095D01*
X41166666Y-25035714D02*
X41166666Y-25702380D01*
X40928571Y-24654761D02*
X40690476Y-25369047D01*
X41309523Y-25369047D01*
X39357142Y-31607142D02*
X39309523Y-31654761D01*
X39166666Y-31702380D01*
X39071428Y-31702380D01*
X38928571Y-31654761D01*
X38833333Y-31559523D01*
X38785714Y-31464285D01*
X38738095Y-31273809D01*
X38738095Y-31130952D01*
X38785714Y-30940476D01*
X38833333Y-30845238D01*
X38928571Y-30750000D01*
X39071428Y-30702380D01*
X39166666Y-30702380D01*
X39309523Y-30750000D01*
X39357142Y-30797619D01*
X40309523Y-31702380D02*
X39738095Y-31702380D01*
X40023809Y-31702380D02*
X40023809Y-30702380D01*
X39928571Y-30845238D01*
X39833333Y-30940476D01*
X39738095Y-30988095D01*
X41214285Y-30702380D02*
X40738095Y-30702380D01*
X40690476Y-31178571D01*
X40738095Y-31130952D01*
X40833333Y-31083333D01*
X41071428Y-31083333D01*
X41166666Y-31130952D01*
X41214285Y-31178571D01*
X41261904Y-31273809D01*
X41261904Y-31511904D01*
X41214285Y-31607142D01*
X41166666Y-31654761D01*
X41071428Y-31702380D01*
X40833333Y-31702380D01*
X40738095Y-31654761D01*
X40690476Y-31607142D01*
X39357142Y-37607142D02*
X39309523Y-37654761D01*
X39166666Y-37702380D01*
X39071428Y-37702380D01*
X38928571Y-37654761D01*
X38833333Y-37559523D01*
X38785714Y-37464285D01*
X38738095Y-37273809D01*
X38738095Y-37130952D01*
X38785714Y-36940476D01*
X38833333Y-36845238D01*
X38928571Y-36750000D01*
X39071428Y-36702380D01*
X39166666Y-36702380D01*
X39309523Y-36750000D01*
X39357142Y-36797619D01*
X40309523Y-37702380D02*
X39738095Y-37702380D01*
X40023809Y-37702380D02*
X40023809Y-36702380D01*
X39928571Y-36845238D01*
X39833333Y-36940476D01*
X39738095Y-36988095D01*
X41166666Y-36702380D02*
X40976190Y-36702380D01*
X40880952Y-36750000D01*
X40833333Y-36797619D01*
X40738095Y-36940476D01*
X40690476Y-37130952D01*
X40690476Y-37511904D01*
X40738095Y-37607142D01*
X40785714Y-37654761D01*
X40880952Y-37702380D01*
X41071428Y-37702380D01*
X41166666Y-37654761D01*
X41214285Y-37607142D01*
X41261904Y-37511904D01*
X41261904Y-37273809D01*
X41214285Y-37178571D01*
X41166666Y-37130952D01*
X41071428Y-37083333D01*
X40880952Y-37083333D01*
X40785714Y-37130952D01*
X40738095Y-37178571D01*
X40690476Y-37273809D01*
X39357142Y-43607142D02*
X39309523Y-43654761D01*
X39166666Y-43702380D01*
X39071428Y-43702380D01*
X38928571Y-43654761D01*
X38833333Y-43559523D01*
X38785714Y-43464285D01*
X38738095Y-43273809D01*
X38738095Y-43130952D01*
X38785714Y-42940476D01*
X38833333Y-42845238D01*
X38928571Y-42750000D01*
X39071428Y-42702380D01*
X39166666Y-42702380D01*
X39309523Y-42750000D01*
X39357142Y-42797619D01*
X40309523Y-43702380D02*
X39738095Y-43702380D01*
X40023809Y-43702380D02*
X40023809Y-42702380D01*
X39928571Y-42845238D01*
X39833333Y-42940476D01*
X39738095Y-42988095D01*
X40642857Y-42702380D02*
X41309523Y-42702380D01*
X40880952Y-43702380D01*
X39357142Y-49607142D02*
X39309523Y-49654761D01*
X39166666Y-49702380D01*
X39071428Y-49702380D01*
X38928571Y-49654761D01*
X38833333Y-49559523D01*
X38785714Y-49464285D01*
X38738095Y-49273809D01*
X38738095Y-49130952D01*
X38785714Y-48940476D01*
X38833333Y-48845238D01*
X38928571Y-48750000D01*
X39071428Y-48702380D01*
X39166666Y-48702380D01*
X39309523Y-48750000D01*
X39357142Y-48797619D01*
X40309523Y-49702380D02*
X39738095Y-49702380D01*
X40023809Y-49702380D02*
X40023809Y-48702380D01*
X39928571Y-48845238D01*
X39833333Y-48940476D01*
X39738095Y-48988095D01*
X40880952Y-49130952D02*
X40785714Y-49083333D01*
X40738095Y-49035714D01*
X40690476Y-48940476D01*
X40690476Y-48892857D01*
X40738095Y-48797619D01*
X40785714Y-48750000D01*
X40880952Y-48702380D01*
X41071428Y-48702380D01*
X41166666Y-48750000D01*
X41214285Y-48797619D01*
X41261904Y-48892857D01*
X41261904Y-48940476D01*
X41214285Y-49035714D01*
X41166666Y-49083333D01*
X41071428Y-49130952D01*
X40880952Y-49130952D01*
X40785714Y-49178571D01*
X40738095Y-49226190D01*
X40690476Y-49321428D01*
X40690476Y-49511904D01*
X40738095Y-49607142D01*
X40785714Y-49654761D01*
X40880952Y-49702380D01*
X41071428Y-49702380D01*
X41166666Y-49654761D01*
X41214285Y-49607142D01*
X41261904Y-49511904D01*
X41261904Y-49321428D01*
X41214285Y-49226190D01*
X41166666Y-49178571D01*
X41071428Y-49130952D01*
X39357142Y-55607142D02*
X39309523Y-55654761D01*
X39166666Y-55702380D01*
X39071428Y-55702380D01*
X38928571Y-55654761D01*
X38833333Y-55559523D01*
X38785714Y-55464285D01*
X38738095Y-55273809D01*
X38738095Y-55130952D01*
X38785714Y-54940476D01*
X38833333Y-54845238D01*
X38928571Y-54750000D01*
X39071428Y-54702380D01*
X39166666Y-54702380D01*
X39309523Y-54750000D01*
X39357142Y-54797619D01*
X40309523Y-55702380D02*
X39738095Y-55702380D01*
X40023809Y-55702380D02*
X40023809Y-54702380D01*
X39928571Y-54845238D01*
X39833333Y-54940476D01*
X39738095Y-54988095D01*
X40785714Y-55702380D02*
X40976190Y-55702380D01*
X41071428Y-55654761D01*
X41119047Y-55607142D01*
X41214285Y-55464285D01*
X41261904Y-55273809D01*
X41261904Y-54892857D01*
X41214285Y-54797619D01*
X41166666Y-54750000D01*
X41071428Y-54702380D01*
X40880952Y-54702380D01*
X40785714Y-54750000D01*
X40738095Y-54797619D01*
X40690476Y-54892857D01*
X40690476Y-55130952D01*
X40738095Y-55226190D01*
X40785714Y-55273809D01*
X40880952Y-55321428D01*
X41071428Y-55321428D01*
X41166666Y-55273809D01*
X41214285Y-55226190D01*
X41261904Y-55130952D01*
X39357142Y-61607142D02*
X39309523Y-61654761D01*
X39166666Y-61702380D01*
X39071428Y-61702380D01*
X38928571Y-61654761D01*
X38833333Y-61559523D01*
X38785714Y-61464285D01*
X38738095Y-61273809D01*
X38738095Y-61130952D01*
X38785714Y-60940476D01*
X38833333Y-60845238D01*
X38928571Y-60750000D01*
X39071428Y-60702380D01*
X39166666Y-60702380D01*
X39309523Y-60750000D01*
X39357142Y-60797619D01*
X39738095Y-60797619D02*
X39785714Y-60750000D01*
X39880952Y-60702380D01*
X40119047Y-60702380D01*
X40214285Y-60750000D01*
X40261904Y-60797619D01*
X40309523Y-60892857D01*
X40309523Y-60988095D01*
X40261904Y-61130952D01*
X39690476Y-61702380D01*
X40309523Y-61702380D01*
X40928571Y-60702380D02*
X41023809Y-60702380D01*
X41119047Y-60750000D01*
X41166666Y-60797619D01*
X41214285Y-60892857D01*
X41261904Y-61083333D01*
X41261904Y-61321428D01*
X41214285Y-61511904D01*
X41166666Y-61607142D01*
X41119047Y-61654761D01*
X41023809Y-61702380D01*
X40928571Y-61702380D01*
X40833333Y-61654761D01*
X40785714Y-61607142D01*
X40738095Y-61511904D01*
X40690476Y-61321428D01*
X40690476Y-61083333D01*
X40738095Y-60892857D01*
X40785714Y-60797619D01*
X40833333Y-60750000D01*
X40928571Y-60702380D01*
X39357142Y-67607142D02*
X39309523Y-67654761D01*
X39166666Y-67702380D01*
X39071428Y-67702380D01*
X38928571Y-67654761D01*
X38833333Y-67559523D01*
X38785714Y-67464285D01*
X38738095Y-67273809D01*
X38738095Y-67130952D01*
X38785714Y-66940476D01*
X38833333Y-66845238D01*
X38928571Y-66750000D01*
X39071428Y-66702380D01*
X39166666Y-66702380D01*
X39309523Y-66750000D01*
X39357142Y-66797619D01*
X39738095Y-66797619D02*
X39785714Y-66750000D01*
X39880952Y-66702380D01*
X40119047Y-66702380D01*
X40214285Y-66750000D01*
X40261904Y-66797619D01*
X40309523Y-66892857D01*
X40309523Y-66988095D01*
X40261904Y-67130952D01*
X39690476Y-67702380D01*
X40309523Y-67702380D01*
X41261904Y-67702380D02*
X40690476Y-67702380D01*
X40976190Y-67702380D02*
X40976190Y-66702380D01*
X40880952Y-66845238D01*
X40785714Y-66940476D01*
X40690476Y-66988095D01*
X39357142Y-73607142D02*
X39309523Y-73654761D01*
X39166666Y-73702380D01*
X39071428Y-73702380D01*
X38928571Y-73654761D01*
X38833333Y-73559523D01*
X38785714Y-73464285D01*
X38738095Y-73273809D01*
X38738095Y-73130952D01*
X38785714Y-72940476D01*
X38833333Y-72845238D01*
X38928571Y-72750000D01*
X39071428Y-72702380D01*
X39166666Y-72702380D01*
X39309523Y-72750000D01*
X39357142Y-72797619D01*
X39738095Y-72797619D02*
X39785714Y-72750000D01*
X39880952Y-72702380D01*
X40119047Y-72702380D01*
X40214285Y-72750000D01*
X40261904Y-72797619D01*
X40309523Y-72892857D01*
X40309523Y-72988095D01*
X40261904Y-73130952D01*
X39690476Y-73702380D01*
X40309523Y-73702380D01*
X40690476Y-72797619D02*
X40738095Y-72750000D01*
X40833333Y-72702380D01*
X41071428Y-72702380D01*
X41166666Y-72750000D01*
X41214285Y-72797619D01*
X41261904Y-72892857D01*
X41261904Y-72988095D01*
X41214285Y-73130952D01*
X40642857Y-73702380D01*
X41261904Y-73702380D01*
X39357142Y-79607142D02*
X39309523Y-79654761D01*
X39166666Y-79702380D01*
X39071428Y-79702380D01*
X38928571Y-79654761D01*
X38833333Y-79559523D01*
X38785714Y-79464285D01*
X38738095Y-79273809D01*
X38738095Y-79130952D01*
X38785714Y-78940476D01*
X38833333Y-78845238D01*
X38928571Y-78750000D01*
X39071428Y-78702380D01*
X39166666Y-78702380D01*
X39309523Y-78750000D01*
X39357142Y-78797619D01*
X39738095Y-78797619D02*
X39785714Y-78750000D01*
X39880952Y-78702380D01*
X40119047Y-78702380D01*
X40214285Y-78750000D01*
X40261904Y-78797619D01*
X40309523Y-78892857D01*
X40309523Y-78988095D01*
X40261904Y-79130952D01*
X39690476Y-79702380D01*
X40309523Y-79702380D01*
X40642857Y-78702380D02*
X41261904Y-78702380D01*
X40928571Y-79083333D01*
X41071428Y-79083333D01*
X41166666Y-79130952D01*
X41214285Y-79178571D01*
X41261904Y-79273809D01*
X41261904Y-79511904D01*
X41214285Y-79607142D01*
X41166666Y-79654761D01*
X41071428Y-79702380D01*
X40785714Y-79702380D01*
X40690476Y-79654761D01*
X40642857Y-79607142D01*
X39357142Y-85607142D02*
X39309523Y-85654761D01*
X39166666Y-85702380D01*
X39071428Y-85702380D01*
X38928571Y-85654761D01*
X38833333Y-85559523D01*
X38785714Y-85464285D01*
X38738095Y-85273809D01*
X38738095Y-85130952D01*
X38785714Y-84940476D01*
X38833333Y-84845238D01*
X38928571Y-84750000D01*
X39071428Y-84702380D01*
X39166666Y-84702380D01*
X39309523Y-84750000D01*
X39357142Y-84797619D01*
X39738095Y-84797619D02*
X39785714Y-84750000D01*
X39880952Y-84702380D01*
X40119047Y-84702380D01*
X40214285Y-84750000D01*
X40261904Y-84797619D01*
X40309523Y-84892857D01*
X40309523Y-84988095D01*
X40261904Y-85130952D01*
X39690476Y-85702380D01*
X40309523Y-85702380D01*
X41166666Y-85035714D02*
X41166666Y-85702380D01*
X40928571Y-84654761D02*
X40690476Y-85369047D01*
X41309523Y-85369047D01*
X38202380Y-23738095D02*
X37202380Y-23738095D01*
X37202380Y-23500000D01*
X37250000Y-23357142D01*
X37345238Y-23261904D01*
X37440476Y-23214285D01*
X37630952Y-23166666D01*
X37773809Y-23166666D01*
X37964285Y-23214285D01*
X38059523Y-23261904D01*
X38154761Y-23357142D01*
X38202380Y-23500000D01*
X38202380Y-23738095D01*
X38202380Y-22214285D02*
X38202380Y-22785714D01*
X38202380Y-22500000D02*
X37202380Y-22500000D01*
X37345238Y-22595238D01*
X37440476Y-22690476D01*
X37488095Y-22785714D01*
X38202380Y-29738095D02*
X37202380Y-29738095D01*
X37202380Y-29500000D01*
X37250000Y-29357142D01*
X37345238Y-29261904D01*
X37440476Y-29214285D01*
X37630952Y-29166666D01*
X37773809Y-29166666D01*
X37964285Y-29214285D01*
X38059523Y-29261904D01*
X38154761Y-29357142D01*
X38202380Y-29500000D01*
X38202380Y-29738095D01*
X37297619Y-28785714D02*
X37250000Y-28738095D01*
X37202380Y-28642857D01*
X37202380Y-28404761D01*
X37250000Y-28309523D01*
X37297619Y-28261904D01*
X37392857Y-28214285D01*
X37488095Y-28214285D01*
X37630952Y-28261904D01*
X38202380Y-28833333D01*
X38202380Y-28214285D01*
X38202380Y-35738095D02*
X37202380Y-35738095D01*
X37202380Y-35500000D01*
X37250000Y-35357142D01*
X37345238Y-35261904D01*
X37440476Y-35214285D01*
X37630952Y-35166666D01*
X37773809Y-35166666D01*
X37964285Y-35214285D01*
X38059523Y-35261904D01*
X38154761Y-35357142D01*
X38202380Y-35500000D01*
X38202380Y-35738095D01*
X37202380Y-34833333D02*
X37202380Y-34214285D01*
X37583333Y-34547619D01*
X37583333Y-34404761D01*
X37630952Y-34309523D01*
X37678571Y-34261904D01*
X37773809Y-34214285D01*
X38011904Y-34214285D01*
X38107142Y-34261904D01*
X38154761Y-34309523D01*
X38202380Y-34404761D01*
X38202380Y-34690476D01*
X38154761Y-34785714D01*
X38107142Y-34833333D01*
X38202380Y-41738095D02*
X37202380Y-41738095D01*
X37202380Y-41500000D01*
X37250000Y-41357142D01*
X37345238Y-41261904D01*
X37440476Y-41214285D01*
X37630952Y-41166666D01*
X37773809Y-41166666D01*
X37964285Y-41214285D01*
X38059523Y-41261904D01*
X38154761Y-41357142D01*
X38202380Y-41500000D01*
X38202380Y-41738095D01*
X37535714Y-40309523D02*
X38202380Y-40309523D01*
X37154761Y-40547619D02*
X37869047Y-40785714D01*
X37869047Y-40166666D01*
X38202380Y-47738095D02*
X37202380Y-47738095D01*
X37202380Y-47500000D01*
X37250000Y-47357142D01*
X37345238Y-47261904D01*
X37440476Y-47214285D01*
X37630952Y-47166666D01*
X37773809Y-47166666D01*
X37964285Y-47214285D01*
X38059523Y-47261904D01*
X38154761Y-47357142D01*
X38202380Y-47500000D01*
X38202380Y-47738095D01*
X37202380Y-46261904D02*
X37202380Y-46738095D01*
X37678571Y-46785714D01*
X37630952Y-46738095D01*
X37583333Y-46642857D01*
X37583333Y-46404761D01*
X37630952Y-46309523D01*
X37678571Y-46261904D01*
X37773809Y-46214285D01*
X38011904Y-46214285D01*
X38107142Y-46261904D01*
X38154761Y-46309523D01*
X38202380Y-46404761D01*
X38202380Y-46642857D01*
X38154761Y-46738095D01*
X38107142Y-46785714D01*
X38202380Y-53738095D02*
X37202380Y-53738095D01*
X37202380Y-53500000D01*
X37250000Y-53357142D01*
X37345238Y-53261904D01*
X37440476Y-53214285D01*
X37630952Y-53166666D01*
X37773809Y-53166666D01*
X37964285Y-53214285D01*
X38059523Y-53261904D01*
X38154761Y-53357142D01*
X38202380Y-53500000D01*
X38202380Y-53738095D01*
X37202380Y-52309523D02*
X37202380Y-52500000D01*
X37250000Y-52595238D01*
X37297619Y-52642857D01*
X37440476Y-52738095D01*
X37630952Y-52785714D01*
X38011904Y-52785714D01*
X38107142Y-52738095D01*
X38154761Y-52690476D01*
X38202380Y-52595238D01*
X38202380Y-52404761D01*
X38154761Y-52309523D01*
X38107142Y-52261904D01*
X38011904Y-52214285D01*
X37773809Y-52214285D01*
X37678571Y-52261904D01*
X37630952Y-52309523D01*
X37583333Y-52404761D01*
X37583333Y-52595238D01*
X37630952Y-52690476D01*
X37678571Y-52738095D01*
X37773809Y-52785714D01*
X38202380Y-60238095D02*
X37202380Y-60238095D01*
X37202380Y-60000000D01*
X37250000Y-59857142D01*
X37345238Y-59761904D01*
X37440476Y-59714285D01*
X37630952Y-59666666D01*
X37773809Y-59666666D01*
X37964285Y-59714285D01*
X38059523Y-59761904D01*
X38154761Y-59857142D01*
X38202380Y-60000000D01*
X38202380Y-60238095D01*
X37202380Y-59333333D02*
X37202380Y-58666666D01*
X38202380Y-59095238D01*
X38202380Y-66238095D02*
X37202380Y-66238095D01*
X37202380Y-66000000D01*
X37250000Y-65857142D01*
X37345238Y-65761904D01*
X37440476Y-65714285D01*
X37630952Y-65666666D01*
X37773809Y-65666666D01*
X37964285Y-65714285D01*
X38059523Y-65761904D01*
X38154761Y-65857142D01*
X38202380Y-66000000D01*
X38202380Y-66238095D01*
X37630952Y-65095238D02*
X37583333Y-65190476D01*
X37535714Y-65238095D01*
X37440476Y-65285714D01*
X37392857Y-65285714D01*
X37297619Y-65238095D01*
X37250000Y-65190476D01*
X37202380Y-65095238D01*
X37202380Y-64904761D01*
X37250000Y-64809523D01*
X37297619Y-64761904D01*
X37392857Y-64714285D01*
X37440476Y-64714285D01*
X37535714Y-64761904D01*
X37583333Y-64809523D01*
X37630952Y-64904761D01*
X37630952Y-65095238D01*
X37678571Y-65190476D01*
X37726190Y-65238095D01*
X37821428Y-65285714D01*
X38011904Y-65285714D01*
X38107142Y-65238095D01*
X38154761Y-65190476D01*
X38202380Y-65095238D01*
X38202380Y-64904761D01*
X38154761Y-64809523D01*
X38107142Y-64761904D01*
X38011904Y-64714285D01*
X37821428Y-64714285D01*
X37726190Y-64761904D01*
X37678571Y-64809523D01*
X37630952Y-64904761D01*
X38202380Y-71738095D02*
X37202380Y-71738095D01*
X37202380Y-71500000D01*
X37250000Y-71357142D01*
X37345238Y-71261904D01*
X37440476Y-71214285D01*
X37630952Y-71166666D01*
X37773809Y-71166666D01*
X37964285Y-71214285D01*
X38059523Y-71261904D01*
X38154761Y-71357142D01*
X38202380Y-71500000D01*
X38202380Y-71738095D01*
X38202380Y-70690476D02*
X38202380Y-70500000D01*
X38154761Y-70404761D01*
X38107142Y-70357142D01*
X37964285Y-70261904D01*
X37773809Y-70214285D01*
X37392857Y-70214285D01*
X37297619Y-70261904D01*
X37250000Y-70309523D01*
X37202380Y-70404761D01*
X37202380Y-70595238D01*
X37250000Y-70690476D01*
X37297619Y-70738095D01*
X37392857Y-70785714D01*
X37630952Y-70785714D01*
X37726190Y-70738095D01*
X37773809Y-70690476D01*
X37821428Y-70595238D01*
X37821428Y-70404761D01*
X37773809Y-70309523D01*
X37726190Y-70261904D01*
X37630952Y-70214285D01*
X38202380Y-78214285D02*
X37202380Y-78214285D01*
X37202380Y-77976190D01*
X37250000Y-77833333D01*
X37345238Y-77738095D01*
X37440476Y-77690476D01*
X37630952Y-77642857D01*
X37773809Y-77642857D01*
X37964285Y-77690476D01*
X38059523Y-77738095D01*
X38154761Y-77833333D01*
X38202380Y-77976190D01*
X38202380Y-78214285D01*
X38202380Y-76690476D02*
X38202380Y-77261904D01*
X38202380Y-76976190D02*
X37202380Y-76976190D01*
X37345238Y-77071428D01*
X37440476Y-77166666D01*
X37488095Y-77261904D01*
X37202380Y-76071428D02*
X37202380Y-75976190D01*
X37250000Y-75880952D01*
X37297619Y-75833333D01*
X37392857Y-75785714D01*
X37583333Y-75738095D01*
X37821428Y-75738095D01*
X38011904Y-75785714D01*
X38107142Y-75833333D01*
X38154761Y-75880952D01*
X38202380Y-75976190D01*
X38202380Y-76071428D01*
X38154761Y-76166666D01*
X38107142Y-76214285D01*
X38011904Y-76261904D01*
X37821428Y-76309523D01*
X37583333Y-76309523D01*
X37392857Y-76261904D01*
X37297619Y-76214285D01*
X37250000Y-76166666D01*
X37202380Y-76071428D01*
X38202380Y-84514285D02*
X37202380Y-84514285D01*
X37202380Y-84276190D01*
X37250000Y-84133333D01*
X37345238Y-84038095D01*
X37440476Y-83990476D01*
X37630952Y-83942857D01*
X37773809Y-83942857D01*
X37964285Y-83990476D01*
X38059523Y-84038095D01*
X38154761Y-84133333D01*
X38202380Y-84276190D01*
X38202380Y-84514285D01*
X38202380Y-82990476D02*
X38202380Y-83561904D01*
X38202380Y-83276190D02*
X37202380Y-83276190D01*
X37345238Y-83371428D01*
X37440476Y-83466666D01*
X37488095Y-83561904D01*
X38202380Y-82038095D02*
X38202380Y-82609523D01*
X38202380Y-82323809D02*
X37202380Y-82323809D01*
X37345238Y-82419047D01*
X37440476Y-82514285D01*
X37488095Y-82609523D01*
X38202380Y-90214285D02*
X37202380Y-90214285D01*
X37202380Y-89976190D01*
X37250000Y-89833333D01*
X37345238Y-89738095D01*
X37440476Y-89690476D01*
X37630952Y-89642857D01*
X37773809Y-89642857D01*
X37964285Y-89690476D01*
X38059523Y-89738095D01*
X38154761Y-89833333D01*
X38202380Y-89976190D01*
X38202380Y-90214285D01*
X38202380Y-88690476D02*
X38202380Y-89261904D01*
X38202380Y-88976190D02*
X37202380Y-88976190D01*
X37345238Y-89071428D01*
X37440476Y-89166666D01*
X37488095Y-89261904D01*
X37297619Y-88309523D02*
X37250000Y-88261904D01*
X37202380Y-88166666D01*
X37202380Y-87928571D01*
X37250000Y-87833333D01*
X37297619Y-87785714D01*
X37392857Y-87738095D01*
X37488095Y-87738095D01*
X37630952Y-87785714D01*
X38202380Y-88357142D01*
X38202380Y-87738095D01*
X13140476Y-85728571D02*
X12807142Y-85728571D01*
X12807142Y-86252380D02*
X12807142Y-85252380D01*
X13283333Y-85252380D01*
X14188095Y-86252380D02*
X13616666Y-86252380D01*
X13902380Y-86252380D02*
X13902380Y-85252380D01*
X13807142Y-85395238D01*
X13711904Y-85490476D01*
X13616666Y-85538095D01*
X14521428Y-85252380D02*
X15140476Y-85252380D01*
X14807142Y-85633333D01*
X14950000Y-85633333D01*
X15045238Y-85680952D01*
X15092857Y-85728571D01*
X15140476Y-85823809D01*
X15140476Y-86061904D01*
X15092857Y-86157142D01*
X15045238Y-86204761D01*
X14950000Y-86252380D01*
X14664285Y-86252380D01*
X14569047Y-86204761D01*
X14521428Y-86157142D01*
M02*
