M48
; DRILL file {KiCad (5.1.0-1152-gc9ccd8a64)} date 2019-07-16 3:59:57 PM
; FORMAT={-:-/ absolute / inch / decimal}
; #@! TF.CreationDate,2019-07-16T15:59:57-04:00
; #@! TF.GenerationSoftware,Kicad,Pcbnew,(5.1.0-1152-gc9ccd8a64)
FMAT,2
INCH
T1C0.0157
T2C0.0197
T3C0.0394
T4C0.0472
T5C0.1063
%
G90
G05
T1
X0.1526Y-2.2008
X0.188Y-2.2008
X0.2362Y-0.563
X0.2362Y-0.6614
X0.2362Y-0.7598
X0.55Y-3.79
X0.55Y-3.83
X0.55Y-3.871
X0.7579Y-0.1102
X0.7579Y-0.1496
X0.7579Y-0.189
X0.7579Y-0.2559
X0.7579Y-0.2992
X0.7579Y-0.3406
X0.7579Y-0.4134
X0.7579Y-0.4528
X0.7579Y-0.4921
X0.7579Y-0.565
X0.7579Y-0.6043
X0.7579Y-0.6437
X0.7579Y-0.7185
X0.7579Y-0.7579
X0.7579Y-0.7972
X0.7579Y-0.8681
X0.7579Y-0.9075
X0.7579Y-0.9469
X0.7579Y-1.0217
X0.7579Y-1.061
X0.7579Y-1.1004
X0.7579Y-1.1713
X0.7579Y-1.2106
X0.7579Y-1.25
X0.7579Y-1.3248
X0.7579Y-1.3642
X0.7579Y-1.4035
X0.7579Y-1.4744
X0.7579Y-1.5138
X0.7579Y-1.5531
X0.7579Y-1.628
X0.7579Y-1.6673
X0.7579Y-1.7067
X0.7579Y-1.7795
X0.7579Y-1.8189
X0.7579Y-1.8583
X0.7579Y-1.935
X0.7579Y-1.9744
X0.7579Y-2.0138
X0.7579Y-2.0846
X0.7579Y-2.124
X0.7579Y-2.1634
X0.7579Y-2.3878
X0.7579Y-2.4272
X0.7579Y-2.4665
X0.7579Y-2.5413
X0.7579Y-2.5807
X0.7579Y-2.6201
X0.7579Y-2.6909
X0.7579Y-2.7303
X0.7579Y-2.7697
X0.7579Y-2.8445
X0.7579Y-2.8839
X0.7579Y-2.9232
X0.7579Y-2.9941
X0.7579Y-3.0335
X0.7579Y-3.0728
X0.7579Y-3.1476
X0.7579Y-3.187
X0.7579Y-3.2264
X0.7579Y-3.3031
X0.7579Y-3.3425
X0.7579Y-3.3819
X0.7579Y-3.4626
X0.7579Y-3.502
X0.7579Y-3.5413
X0.7579Y-3.6201
X0.7579Y-3.6594
X0.7579Y-3.6988
X0.7598Y-2.2382
X0.7598Y-2.2776
X0.7598Y-2.3169
X1.1965Y-3.637
X1.1969Y-3.6693
X1.374Y-1.5453
X1.374Y-1.5791
X1.374Y-1.8406
X1.374Y-1.8744
X1.426Y-1.0217
X1.4307Y-2.5413
X1.4315Y-0.7185
X1.4319Y-3.463
X1.4331Y-1.3252
X1.4335Y-0.1102
X1.4339Y-2.2386
X1.4339Y-2.8445
X1.4343Y-3.1476
X1.4358Y-0.4142
X1.4587Y-1.0217
X1.4657Y-3.463
X1.4665Y-0.1102
X1.4665Y-0.7185
X1.4665Y-1.3248
X1.4665Y-2.5413
X1.4665Y-2.8445
X1.4665Y-3.1476
X1.4685Y-2.2382
X1.4705Y-0.4154
X1.614Y-3.291
X1.647Y-3.291
X1.689Y-2.731
X1.691Y-2.975
X1.726Y-2.731
X1.73Y-2.975
X1.736Y-2.402
X1.736Y-2.437
X1.764Y-2.034
X1.764Y-2.073
X1.77Y-0.484
X1.77Y-0.519
X1.846Y-0.518
X1.847Y-0.481
X1.856Y-2.29
X1.856Y-2.244
X1.858Y-2.201
X1.875Y-3.291
X1.909Y-3.291
X1.9114Y-2.2579
X1.914Y-2.17
X1.915Y-2.115
X1.921Y-2.732
X1.936Y-2.975
X1.9469Y-2.2579
X1.949Y-2.114
X1.949Y-2.17
X1.958Y-2.732
X1.9584Y-2.399
X1.9584Y-2.437
X1.97Y-2.975
X1.983Y-1.756
X2.005Y-1.594
X2.005Y-1.627
X2.017Y-1.755
X2.054Y-2.233
X2.088Y-2.233
X2.108Y-2.5646
X2.108Y-2.604
X2.19Y-1.651
X2.223Y-1.651
X2.286Y-2.33
X2.3005Y-2.5871
X2.3009Y-2.5544
X2.305Y-0.4062
X2.3054Y-0.4404
X2.321Y-2.33
T2
X0.1171Y-0.1969
X0.1405Y-0.1405
X0.1405Y-0.2532
X0.1969Y-0.1171
X0.1969Y-0.2766
X0.2532Y-0.1405
X0.2532Y-0.2532
X0.2766Y-0.1969
X2.0856Y-3.7402
X2.109Y-3.6838
X2.109Y-3.7965
X2.1654Y-3.6604
X2.1654Y-3.8199
X2.2217Y-3.6838
X2.2217Y-3.7965
X2.2451Y-3.7402
X0.1171Y-3.7402
X0.1405Y-3.6838
X0.1405Y-3.7965
X0.1969Y-3.6604
X0.1969Y-3.8199
X0.2532Y-3.6838
X0.2532Y-3.7965
X0.2766Y-3.7402
T3
X0.1575Y-2.7709
X0.1575Y-2.8709
X0.1575Y-2.9709
X0.1575Y-3.0709
X1.86Y-1.551
X0.1575Y-1.8866
X1.86Y-1.651
X0.1575Y-1.6866
X0.1575Y-1.7866
X0.1575Y-3.5039
X0.1575Y-0.8866
X0.1575Y-0.9866
X0.1575Y-1.0866
X0.1575Y-1.1866
X0.1575Y-1.2866
X0.1575Y-1.3866
X0.1575Y-1.4866
X0.1575Y-1.5866
X0.1575Y-3.3039
X0.1575Y-3.4039
X0.1575Y-1.9866
X0.1575Y-2.0866
X0.1575Y-2.3197
X0.1575Y-2.4197
X0.1575Y-2.5197
T4
X1.84Y-0.7003
X1.94Y-0.7003
X2.0978Y-0.7003
X2.1978Y-0.7003
T5
X0.1969Y-0.1969
X2.1654Y-3.7402
X0.1969Y-3.7402
T0
M30
