G04 #@! TF.GenerationSoftware,KiCad,Pcbnew,(5.1.0-1152-gc9ccd8a64)*
G04 #@! TF.CreationDate,2019-07-22T10:44:07-04:00*
G04 #@! TF.ProjectId,LTC6811,4c544336-3831-4312-9e6b-696361645f70,rev?*
G04 #@! TF.SameCoordinates,Original*
G04 #@! TF.FileFunction,Legend,Top*
G04 #@! TF.FilePolarity,Positive*
%FSLAX46Y46*%
G04 Gerber Fmt 4.6, Leading zero omitted, Abs format (unit mm)*
G04 Created by KiCad (PCBNEW (5.1.0-1152-gc9ccd8a64)) date 2019-07-22 10:44:07*
%MOMM*%
%LPD*%
G04 APERTURE LIST*
%ADD10C,0.150000*%
%ADD11C,0.200000*%
%ADD12C,0.120000*%
G04 APERTURE END LIST*
D10*
X45613914Y-13990580D02*
X45613914Y-12990580D01*
X45994866Y-12990580D01*
X46090104Y-13038200D01*
X46137723Y-13085819D01*
X46185342Y-13181057D01*
X46185342Y-13323914D01*
X46137723Y-13419152D01*
X46090104Y-13466771D01*
X45994866Y-13514390D01*
X45613914Y-13514390D01*
X46947247Y-13466771D02*
X47090104Y-13514390D01*
X47137723Y-13562009D01*
X47185342Y-13657247D01*
X47185342Y-13800104D01*
X47137723Y-13895342D01*
X47090104Y-13942961D01*
X46994866Y-13990580D01*
X46613914Y-13990580D01*
X46613914Y-12990580D01*
X46947247Y-12990580D01*
X47042485Y-13038200D01*
X47090104Y-13085819D01*
X47137723Y-13181057D01*
X47137723Y-13276295D01*
X47090104Y-13371533D01*
X47042485Y-13419152D01*
X46947247Y-13466771D01*
X46613914Y-13466771D01*
X48375819Y-13990580D02*
X48375819Y-12990580D01*
X48709152Y-13704866D01*
X49042485Y-12990580D01*
X49042485Y-13990580D01*
X49852009Y-13466771D02*
X49994866Y-13514390D01*
X50042485Y-13562009D01*
X50090104Y-13657247D01*
X50090104Y-13800104D01*
X50042485Y-13895342D01*
X49994866Y-13942961D01*
X49899628Y-13990580D01*
X49518676Y-13990580D01*
X49518676Y-12990580D01*
X49852009Y-12990580D01*
X49947247Y-13038200D01*
X49994866Y-13085819D01*
X50042485Y-13181057D01*
X50042485Y-13276295D01*
X49994866Y-13371533D01*
X49947247Y-13419152D01*
X49852009Y-13466771D01*
X49518676Y-13466771D01*
X52563971Y-13990580D02*
X52563971Y-12990580D01*
X52944923Y-12990580D01*
X53040161Y-13038200D01*
X53087780Y-13085819D01*
X53135400Y-13181057D01*
X53135400Y-13323914D01*
X53087780Y-13419152D01*
X53040161Y-13466771D01*
X52944923Y-13514390D01*
X52563971Y-13514390D01*
X53516352Y-13704866D02*
X53992542Y-13704866D01*
X53421114Y-13990580D02*
X53754447Y-12990580D01*
X54087780Y-13990580D01*
X55183019Y-13990580D02*
X55183019Y-12990580D01*
X55516352Y-13704866D01*
X55849685Y-12990580D01*
X55849685Y-13990580D01*
X56278257Y-13704866D02*
X56754447Y-13704866D01*
X56183019Y-13990580D02*
X56516352Y-12990580D01*
X56849685Y-13990580D01*
D11*
X9502457Y-83617200D02*
X9359600Y-83545771D01*
X9145314Y-83545771D01*
X8931028Y-83617200D01*
X8788171Y-83760057D01*
X8716742Y-83902914D01*
X8645314Y-84188628D01*
X8645314Y-84402914D01*
X8716742Y-84688628D01*
X8788171Y-84831485D01*
X8931028Y-84974342D01*
X9145314Y-85045771D01*
X9288171Y-85045771D01*
X9502457Y-84974342D01*
X9573885Y-84902914D01*
X9573885Y-84402914D01*
X9288171Y-84402914D01*
X10216742Y-85045771D02*
X10216742Y-83545771D01*
X11073885Y-85045771D01*
X11073885Y-83545771D01*
X11788171Y-85045771D02*
X11788171Y-83545771D01*
X12145314Y-83545771D01*
X12359600Y-83617200D01*
X12502457Y-83760057D01*
X12573885Y-83902914D01*
X12645314Y-84188628D01*
X12645314Y-84402914D01*
X12573885Y-84688628D01*
X12502457Y-84831485D01*
X12359600Y-84974342D01*
X12145314Y-85045771D01*
X11788171Y-85045771D01*
X9502457Y-86067200D02*
X9359600Y-85995771D01*
X9145314Y-85995771D01*
X8931028Y-86067200D01*
X8788171Y-86210057D01*
X8716742Y-86352914D01*
X8645314Y-86638628D01*
X8645314Y-86852914D01*
X8716742Y-87138628D01*
X8788171Y-87281485D01*
X8931028Y-87424342D01*
X9145314Y-87495771D01*
X9288171Y-87495771D01*
X9502457Y-87424342D01*
X9573885Y-87352914D01*
X9573885Y-86852914D01*
X9288171Y-86852914D01*
X10216742Y-87495771D02*
X10216742Y-85995771D01*
X10788171Y-85995771D01*
X10931028Y-86067200D01*
X11002457Y-86138628D01*
X11073885Y-86281485D01*
X11073885Y-86495771D01*
X11002457Y-86638628D01*
X10931028Y-86710057D01*
X10788171Y-86781485D01*
X10216742Y-86781485D01*
X11716742Y-87495771D02*
X11716742Y-85995771D01*
X12716742Y-85995771D02*
X13002457Y-85995771D01*
X13145314Y-86067200D01*
X13288171Y-86210057D01*
X13359600Y-86495771D01*
X13359600Y-86995771D01*
X13288171Y-87281485D01*
X13145314Y-87424342D01*
X13002457Y-87495771D01*
X12716742Y-87495771D01*
X12573885Y-87424342D01*
X12431028Y-87281485D01*
X12359600Y-86995771D01*
X12359600Y-86495771D01*
X12431028Y-86210057D01*
X12573885Y-86067200D01*
X12716742Y-85995771D01*
X9431028Y-88445771D02*
X8716742Y-88445771D01*
X8645314Y-89160057D01*
X8716742Y-89088628D01*
X8859600Y-89017200D01*
X9216742Y-89017200D01*
X9359600Y-89088628D01*
X9431028Y-89160057D01*
X9502457Y-89302914D01*
X9502457Y-89660057D01*
X9431028Y-89802914D01*
X9359600Y-89874342D01*
X9216742Y-89945771D01*
X8859600Y-89945771D01*
X8716742Y-89874342D01*
X8645314Y-89802914D01*
X9931028Y-88445771D02*
X10431028Y-89945771D01*
X10931028Y-88445771D01*
X9426247Y-58372800D02*
X9273866Y-58296609D01*
X9045295Y-58296609D01*
X8816723Y-58372800D01*
X8664342Y-58525180D01*
X8588152Y-58677561D01*
X8511961Y-58982323D01*
X8511961Y-59210895D01*
X8588152Y-59515657D01*
X8664342Y-59668038D01*
X8816723Y-59820419D01*
X9045295Y-59896609D01*
X9197676Y-59896609D01*
X9426247Y-59820419D01*
X9502438Y-59744228D01*
X9502438Y-59210895D01*
X9197676Y-59210895D01*
X10188152Y-59896609D02*
X10188152Y-58296609D01*
X11102438Y-59896609D01*
X11102438Y-58296609D01*
X11864342Y-59896609D02*
X11864342Y-58296609D01*
X12245295Y-58296609D01*
X12473866Y-58372800D01*
X12626247Y-58525180D01*
X12702438Y-58677561D01*
X12778628Y-58982323D01*
X12778628Y-59210895D01*
X12702438Y-59515657D01*
X12626247Y-59668038D01*
X12473866Y-59820419D01*
X12245295Y-59896609D01*
X11864342Y-59896609D01*
X8511961Y-62420419D02*
X8740533Y-62496609D01*
X9121485Y-62496609D01*
X9273866Y-62420419D01*
X9350057Y-62344228D01*
X9426247Y-62191847D01*
X9426247Y-62039466D01*
X9350057Y-61887085D01*
X9273866Y-61810895D01*
X9121485Y-61734704D01*
X8816723Y-61658514D01*
X8664342Y-61582323D01*
X8588152Y-61506133D01*
X8511961Y-61353752D01*
X8511961Y-61201371D01*
X8588152Y-61048990D01*
X8664342Y-60972800D01*
X8816723Y-60896609D01*
X9197676Y-60896609D01*
X9426247Y-60972800D01*
X10111961Y-62496609D02*
X10111961Y-61429942D01*
X10111961Y-60896609D02*
X10035771Y-60972800D01*
X10111961Y-61048990D01*
X10188152Y-60972800D01*
X10111961Y-60896609D01*
X10111961Y-61048990D01*
X11559580Y-61429942D02*
X11559580Y-62725180D01*
X11483390Y-62877561D01*
X11407200Y-62953752D01*
X11254819Y-63029942D01*
X11026247Y-63029942D01*
X10873866Y-62953752D01*
X11559580Y-62420419D02*
X11407200Y-62496609D01*
X11102438Y-62496609D01*
X10950057Y-62420419D01*
X10873866Y-62344228D01*
X10797676Y-62191847D01*
X10797676Y-61734704D01*
X10873866Y-61582323D01*
X10950057Y-61506133D01*
X11102438Y-61429942D01*
X11407200Y-61429942D01*
X11559580Y-61506133D01*
X9350057Y-63496609D02*
X8588152Y-63496609D01*
X8511961Y-64258514D01*
X8588152Y-64182323D01*
X8740533Y-64106133D01*
X9121485Y-64106133D01*
X9273866Y-64182323D01*
X9350057Y-64258514D01*
X9426247Y-64410895D01*
X9426247Y-64791847D01*
X9350057Y-64944228D01*
X9273866Y-65020419D01*
X9121485Y-65096609D01*
X8740533Y-65096609D01*
X8588152Y-65020419D01*
X8511961Y-64944228D01*
X9883390Y-63496609D02*
X10416723Y-65096609D01*
X10950057Y-63496609D01*
X9705647Y-69544200D02*
X9553266Y-69468009D01*
X9324695Y-69468009D01*
X9096123Y-69544200D01*
X8943742Y-69696580D01*
X8867552Y-69848961D01*
X8791361Y-70153723D01*
X8791361Y-70382295D01*
X8867552Y-70687057D01*
X8943742Y-70839438D01*
X9096123Y-70991819D01*
X9324695Y-71068009D01*
X9477076Y-71068009D01*
X9705647Y-70991819D01*
X9781838Y-70915628D01*
X9781838Y-70382295D01*
X9477076Y-70382295D01*
X10467552Y-71068009D02*
X10467552Y-69468009D01*
X11381838Y-71068009D01*
X11381838Y-69468009D01*
X12143742Y-71068009D02*
X12143742Y-69468009D01*
X12524695Y-69468009D01*
X12753266Y-69544200D01*
X12905647Y-69696580D01*
X12981838Y-69848961D01*
X13058028Y-70153723D01*
X13058028Y-70382295D01*
X12981838Y-70687057D01*
X12905647Y-70839438D01*
X12753266Y-70991819D01*
X12524695Y-71068009D01*
X12143742Y-71068009D01*
X8791361Y-73591819D02*
X9019933Y-73668009D01*
X9400885Y-73668009D01*
X9553266Y-73591819D01*
X9629457Y-73515628D01*
X9705647Y-73363247D01*
X9705647Y-73210866D01*
X9629457Y-73058485D01*
X9553266Y-72982295D01*
X9400885Y-72906104D01*
X9096123Y-72829914D01*
X8943742Y-72753723D01*
X8867552Y-72677533D01*
X8791361Y-72525152D01*
X8791361Y-72372771D01*
X8867552Y-72220390D01*
X8943742Y-72144200D01*
X9096123Y-72068009D01*
X9477076Y-72068009D01*
X9705647Y-72144200D01*
X10391361Y-73668009D02*
X10391361Y-72068009D01*
X10772314Y-72068009D01*
X11000885Y-72144200D01*
X11153266Y-72296580D01*
X11229457Y-72448961D01*
X11305647Y-72753723D01*
X11305647Y-72982295D01*
X11229457Y-73287057D01*
X11153266Y-73439438D01*
X11000885Y-73591819D01*
X10772314Y-73668009D01*
X10391361Y-73668009D01*
X11915171Y-73210866D02*
X12677076Y-73210866D01*
X11762790Y-73668009D02*
X12296123Y-72068009D01*
X12829457Y-73668009D01*
X8791361Y-76191819D02*
X9019933Y-76268009D01*
X9400885Y-76268009D01*
X9553266Y-76191819D01*
X9629457Y-76115628D01*
X9705647Y-75963247D01*
X9705647Y-75810866D01*
X9629457Y-75658485D01*
X9553266Y-75582295D01*
X9400885Y-75506104D01*
X9096123Y-75429914D01*
X8943742Y-75353723D01*
X8867552Y-75277533D01*
X8791361Y-75125152D01*
X8791361Y-74972771D01*
X8867552Y-74820390D01*
X8943742Y-74744200D01*
X9096123Y-74668009D01*
X9477076Y-74668009D01*
X9705647Y-74744200D01*
X11305647Y-76115628D02*
X11229457Y-76191819D01*
X11000885Y-76268009D01*
X10848504Y-76268009D01*
X10619933Y-76191819D01*
X10467552Y-76039438D01*
X10391361Y-75887057D01*
X10315171Y-75582295D01*
X10315171Y-75353723D01*
X10391361Y-75048961D01*
X10467552Y-74896580D01*
X10619933Y-74744200D01*
X10848504Y-74668009D01*
X11000885Y-74668009D01*
X11229457Y-74744200D01*
X11305647Y-74820390D01*
X12753266Y-76268009D02*
X11991361Y-76268009D01*
X11991361Y-74668009D01*
X9629457Y-77268009D02*
X8867552Y-77268009D01*
X8791361Y-78029914D01*
X8867552Y-77953723D01*
X9019933Y-77877533D01*
X9400885Y-77877533D01*
X9553266Y-77953723D01*
X9629457Y-78029914D01*
X9705647Y-78182295D01*
X9705647Y-78563247D01*
X9629457Y-78715628D01*
X9553266Y-78791819D01*
X9400885Y-78868009D01*
X9019933Y-78868009D01*
X8867552Y-78791819D01*
X8791361Y-78715628D01*
X10162790Y-77268009D02*
X10696123Y-78868009D01*
X11229457Y-77268009D01*
X9477047Y-22995209D02*
X8562761Y-22995209D01*
X9019904Y-22995209D02*
X9019904Y-21395209D01*
X8867523Y-21623780D01*
X8715142Y-21776161D01*
X8562761Y-21852352D01*
X10086571Y-21547590D02*
X10162761Y-21471400D01*
X10315142Y-21395209D01*
X10696095Y-21395209D01*
X10848476Y-21471400D01*
X10924666Y-21547590D01*
X11000857Y-21699971D01*
X11000857Y-21852352D01*
X10924666Y-22080923D01*
X10010380Y-22995209D01*
X11000857Y-22995209D01*
X9477047Y-25595209D02*
X8562761Y-25595209D01*
X9019904Y-25595209D02*
X9019904Y-23995209D01*
X8867523Y-24223780D01*
X8715142Y-24376161D01*
X8562761Y-24452352D01*
X11000857Y-25595209D02*
X10086571Y-25595209D01*
X10543714Y-25595209D02*
X10543714Y-23995209D01*
X10391333Y-24223780D01*
X10238952Y-24376161D01*
X10086571Y-24452352D01*
X9477047Y-28195209D02*
X8562761Y-28195209D01*
X9019904Y-28195209D02*
X9019904Y-26595209D01*
X8867523Y-26823780D01*
X8715142Y-26976161D01*
X8562761Y-27052352D01*
X10467523Y-26595209D02*
X10619904Y-26595209D01*
X10772285Y-26671400D01*
X10848476Y-26747590D01*
X10924666Y-26899971D01*
X11000857Y-27204733D01*
X11000857Y-27585685D01*
X10924666Y-27890447D01*
X10848476Y-28042828D01*
X10772285Y-28119019D01*
X10619904Y-28195209D01*
X10467523Y-28195209D01*
X10315142Y-28119019D01*
X10238952Y-28042828D01*
X10162761Y-27890447D01*
X10086571Y-27585685D01*
X10086571Y-27204733D01*
X10162761Y-26899971D01*
X10238952Y-26747590D01*
X10315142Y-26671400D01*
X10467523Y-26595209D01*
X8715142Y-30795209D02*
X9019904Y-30795209D01*
X9172285Y-30719019D01*
X9248476Y-30642828D01*
X9400857Y-30414257D01*
X9477047Y-30109495D01*
X9477047Y-29499971D01*
X9400857Y-29347590D01*
X9324666Y-29271400D01*
X9172285Y-29195209D01*
X8867523Y-29195209D01*
X8715142Y-29271400D01*
X8638952Y-29347590D01*
X8562761Y-29499971D01*
X8562761Y-29880923D01*
X8638952Y-30033304D01*
X8715142Y-30109495D01*
X8867523Y-30185685D01*
X9172285Y-30185685D01*
X9324666Y-30109495D01*
X9400857Y-30033304D01*
X9477047Y-29880923D01*
X8867523Y-32480923D02*
X8715142Y-32404733D01*
X8638952Y-32328542D01*
X8562761Y-32176161D01*
X8562761Y-32099971D01*
X8638952Y-31947590D01*
X8715142Y-31871400D01*
X8867523Y-31795209D01*
X9172285Y-31795209D01*
X9324666Y-31871400D01*
X9400857Y-31947590D01*
X9477047Y-32099971D01*
X9477047Y-32176161D01*
X9400857Y-32328542D01*
X9324666Y-32404733D01*
X9172285Y-32480923D01*
X8867523Y-32480923D01*
X8715142Y-32557114D01*
X8638952Y-32633304D01*
X8562761Y-32785685D01*
X8562761Y-33090447D01*
X8638952Y-33242828D01*
X8715142Y-33319019D01*
X8867523Y-33395209D01*
X9172285Y-33395209D01*
X9324666Y-33319019D01*
X9400857Y-33242828D01*
X9477047Y-33090447D01*
X9477047Y-32785685D01*
X9400857Y-32633304D01*
X9324666Y-32557114D01*
X9172285Y-32480923D01*
X8486571Y-34395209D02*
X9553238Y-34395209D01*
X8867523Y-35995209D01*
X9324666Y-36995209D02*
X9019904Y-36995209D01*
X8867523Y-37071400D01*
X8791333Y-37147590D01*
X8638952Y-37376161D01*
X8562761Y-37680923D01*
X8562761Y-38290447D01*
X8638952Y-38442828D01*
X8715142Y-38519019D01*
X8867523Y-38595209D01*
X9172285Y-38595209D01*
X9324666Y-38519019D01*
X9400857Y-38442828D01*
X9477047Y-38290447D01*
X9477047Y-37909495D01*
X9400857Y-37757114D01*
X9324666Y-37680923D01*
X9172285Y-37604733D01*
X8867523Y-37604733D01*
X8715142Y-37680923D01*
X8638952Y-37757114D01*
X8562761Y-37909495D01*
X9400857Y-39595209D02*
X8638952Y-39595209D01*
X8562761Y-40357114D01*
X8638952Y-40280923D01*
X8791333Y-40204733D01*
X9172285Y-40204733D01*
X9324666Y-40280923D01*
X9400857Y-40357114D01*
X9477047Y-40509495D01*
X9477047Y-40890447D01*
X9400857Y-41042828D01*
X9324666Y-41119019D01*
X9172285Y-41195209D01*
X8791333Y-41195209D01*
X8638952Y-41119019D01*
X8562761Y-41042828D01*
X9324666Y-42728542D02*
X9324666Y-43795209D01*
X8943714Y-42119019D02*
X8562761Y-43261876D01*
X9553238Y-43261876D01*
X8486571Y-44795209D02*
X9477047Y-44795209D01*
X8943714Y-45404733D01*
X9172285Y-45404733D01*
X9324666Y-45480923D01*
X9400857Y-45557114D01*
X9477047Y-45709495D01*
X9477047Y-46090447D01*
X9400857Y-46242828D01*
X9324666Y-46319019D01*
X9172285Y-46395209D01*
X8715142Y-46395209D01*
X8562761Y-46319019D01*
X8486571Y-46242828D01*
X8562761Y-47547590D02*
X8638952Y-47471400D01*
X8791333Y-47395209D01*
X9172285Y-47395209D01*
X9324666Y-47471400D01*
X9400857Y-47547590D01*
X9477047Y-47699971D01*
X9477047Y-47852352D01*
X9400857Y-48080923D01*
X8486571Y-48995209D01*
X9477047Y-48995209D01*
X9477047Y-51595209D02*
X8562761Y-51595209D01*
X9019904Y-51595209D02*
X9019904Y-49995209D01*
X8867523Y-50223780D01*
X8715142Y-50376161D01*
X8562761Y-50452352D01*
X9172285Y-53357114D02*
X9400857Y-53433304D01*
X9477047Y-53509495D01*
X9553238Y-53661876D01*
X9553238Y-53890447D01*
X9477047Y-54042828D01*
X9400857Y-54119019D01*
X9248476Y-54195209D01*
X8638952Y-54195209D01*
X8638952Y-52595209D01*
X9172285Y-52595209D01*
X9324666Y-52671400D01*
X9400857Y-52747590D01*
X9477047Y-52899971D01*
X9477047Y-53052352D01*
X9400857Y-53204733D01*
X9324666Y-53280923D01*
X9172285Y-53357114D01*
X8638952Y-53357114D01*
X10162761Y-53738066D02*
X10924666Y-53738066D01*
X10010380Y-54195209D02*
X10543714Y-52595209D01*
X11077047Y-54195209D01*
X11381809Y-52595209D02*
X12296095Y-52595209D01*
X11838952Y-54195209D02*
X11838952Y-52595209D01*
X12829428Y-53585685D02*
X14048476Y-53585685D01*
D12*
X57593800Y-61691200D02*
X57593800Y-62691200D01*
X59293800Y-62691200D02*
X59293800Y-61691200D01*
X54448600Y-61833200D02*
X54448600Y-63033200D01*
X52688600Y-63033200D02*
X52688600Y-61833200D01*
X54645000Y-62249800D02*
X54645000Y-61549800D01*
X55845000Y-61549800D02*
X55845000Y-62249800D01*
X56012800Y-62552200D02*
X56012800Y-61552200D01*
X57372800Y-61552200D02*
X57372800Y-62552200D01*
X49234800Y-40151800D02*
X49234800Y-39451800D01*
X50434800Y-39451800D02*
X50434800Y-40151800D01*
X48574000Y-43265400D02*
X47244000Y-43265400D01*
X48574000Y-41935400D02*
X48574000Y-43265400D01*
X48574000Y-40665400D02*
X45914000Y-40665400D01*
X45914000Y-40665400D02*
X45914000Y-38065400D01*
X48574000Y-40665400D02*
X48574000Y-38065400D01*
X48574000Y-38065400D02*
X45914000Y-38065400D01*
D10*
X43925000Y-46750000D02*
X42850000Y-46750000D01*
X43925000Y-59325000D02*
X50275000Y-59325000D01*
X43925000Y-46575000D02*
X50275000Y-46575000D01*
X43925000Y-59325000D02*
X43925000Y-59067500D01*
X50275000Y-59325000D02*
X50275000Y-59067500D01*
X50275000Y-46575000D02*
X50275000Y-46832500D01*
X43925000Y-46575000D02*
X43925000Y-46750000D01*
D12*
X57777000Y-54324800D02*
X56777000Y-54324800D01*
X56777000Y-52964800D02*
X57777000Y-52964800D01*
X57005600Y-55352400D02*
X58005600Y-55352400D01*
X58005600Y-56712400D02*
X57005600Y-56712400D01*
X56802400Y-49739000D02*
X57802400Y-49739000D01*
X57802400Y-51099000D02*
X56802400Y-51099000D01*
X53400000Y-51320000D02*
X54400000Y-51320000D01*
X54400000Y-52680000D02*
X53400000Y-52680000D01*
X7770000Y-65270000D02*
X6500000Y-65270000D01*
X7770000Y-64000000D02*
X7770000Y-65270000D01*
X5457071Y-58540000D02*
X5060000Y-58540000D01*
X5457071Y-59300000D02*
X5060000Y-59300000D01*
X-3600000Y-58540000D02*
X2400000Y-58540000D01*
X-3600000Y-59300000D02*
X-3600000Y-58540000D01*
X2400000Y-59300000D02*
X-3600000Y-59300000D01*
X5060000Y-60190000D02*
X2400000Y-60190000D01*
X5457071Y-61080000D02*
X5060000Y-61080000D01*
X5457071Y-61840000D02*
X5060000Y-61840000D01*
X-3600000Y-61080000D02*
X2400000Y-61080000D01*
X-3600000Y-61840000D02*
X-3600000Y-61080000D01*
X2400000Y-61840000D02*
X-3600000Y-61840000D01*
X5060000Y-62730000D02*
X2400000Y-62730000D01*
X5390000Y-63620000D02*
X5060000Y-63620000D01*
X5390000Y-64380000D02*
X5060000Y-64380000D01*
X2400000Y-63720000D02*
X-3600000Y-63720000D01*
X2400000Y-63840000D02*
X-3600000Y-63840000D01*
X2400000Y-63960000D02*
X-3600000Y-63960000D01*
X2400000Y-64080000D02*
X-3600000Y-64080000D01*
X2400000Y-64200000D02*
X-3600000Y-64200000D01*
X2400000Y-64320000D02*
X-3600000Y-64320000D01*
X-3600000Y-63620000D02*
X2400000Y-63620000D01*
X-3600000Y-64380000D02*
X-3600000Y-63620000D01*
X2400000Y-64380000D02*
X-3600000Y-64380000D01*
X2400000Y-65330000D02*
X5060000Y-65330000D01*
X2400000Y-57590000D02*
X2400000Y-65330000D01*
X5060000Y-57590000D02*
X2400000Y-57590000D01*
X5060000Y-65330000D02*
X5060000Y-57590000D01*
X7770000Y-90270000D02*
X6500000Y-90270000D01*
X7770000Y-89000000D02*
X7770000Y-90270000D01*
X5457071Y-83540000D02*
X5060000Y-83540000D01*
X5457071Y-84300000D02*
X5060000Y-84300000D01*
X-3600000Y-83540000D02*
X2400000Y-83540000D01*
X-3600000Y-84300000D02*
X-3600000Y-83540000D01*
X2400000Y-84300000D02*
X-3600000Y-84300000D01*
X5060000Y-85190000D02*
X2400000Y-85190000D01*
X5457071Y-86080000D02*
X5060000Y-86080000D01*
X5457071Y-86840000D02*
X5060000Y-86840000D01*
X-3600000Y-86080000D02*
X2400000Y-86080000D01*
X-3600000Y-86840000D02*
X-3600000Y-86080000D01*
X2400000Y-86840000D02*
X-3600000Y-86840000D01*
X5060000Y-87730000D02*
X2400000Y-87730000D01*
X5390000Y-88620000D02*
X5060000Y-88620000D01*
X5390000Y-89380000D02*
X5060000Y-89380000D01*
X2400000Y-88720000D02*
X-3600000Y-88720000D01*
X2400000Y-88840000D02*
X-3600000Y-88840000D01*
X2400000Y-88960000D02*
X-3600000Y-88960000D01*
X2400000Y-89080000D02*
X-3600000Y-89080000D01*
X2400000Y-89200000D02*
X-3600000Y-89200000D01*
X2400000Y-89320000D02*
X-3600000Y-89320000D01*
X-3600000Y-88620000D02*
X2400000Y-88620000D01*
X-3600000Y-89380000D02*
X-3600000Y-88620000D01*
X2400000Y-89380000D02*
X-3600000Y-89380000D01*
X2400000Y-90330000D02*
X5060000Y-90330000D01*
X2400000Y-82590000D02*
X2400000Y-90330000D01*
X5060000Y-82590000D02*
X2400000Y-82590000D01*
X5060000Y-90330000D02*
X5060000Y-82590000D01*
X7770000Y-79270000D02*
X6500000Y-79270000D01*
X7770000Y-78000000D02*
X7770000Y-79270000D01*
X5457071Y-70000000D02*
X5060000Y-70000000D01*
X5457071Y-70760000D02*
X5060000Y-70760000D01*
X-3600000Y-70000000D02*
X2400000Y-70000000D01*
X-3600000Y-70760000D02*
X-3600000Y-70000000D01*
X2400000Y-70760000D02*
X-3600000Y-70760000D01*
X5060000Y-71650000D02*
X2400000Y-71650000D01*
X5457071Y-72540000D02*
X5060000Y-72540000D01*
X5457071Y-73300000D02*
X5060000Y-73300000D01*
X-3600000Y-72540000D02*
X2400000Y-72540000D01*
X-3600000Y-73300000D02*
X-3600000Y-72540000D01*
X2400000Y-73300000D02*
X-3600000Y-73300000D01*
X5060000Y-74190000D02*
X2400000Y-74190000D01*
X5457071Y-75080000D02*
X5060000Y-75080000D01*
X5457071Y-75840000D02*
X5060000Y-75840000D01*
X-3600000Y-75080000D02*
X2400000Y-75080000D01*
X-3600000Y-75840000D02*
X-3600000Y-75080000D01*
X2400000Y-75840000D02*
X-3600000Y-75840000D01*
X5060000Y-76730000D02*
X2400000Y-76730000D01*
X5390000Y-77620000D02*
X5060000Y-77620000D01*
X5390000Y-78380000D02*
X5060000Y-78380000D01*
X2400000Y-77720000D02*
X-3600000Y-77720000D01*
X2400000Y-77840000D02*
X-3600000Y-77840000D01*
X2400000Y-77960000D02*
X-3600000Y-77960000D01*
X2400000Y-78080000D02*
X-3600000Y-78080000D01*
X2400000Y-78200000D02*
X-3600000Y-78200000D01*
X2400000Y-78320000D02*
X-3600000Y-78320000D01*
X-3600000Y-77620000D02*
X2400000Y-77620000D01*
X-3600000Y-78380000D02*
X-3600000Y-77620000D01*
X2400000Y-78380000D02*
X-3600000Y-78380000D01*
X2400000Y-79330000D02*
X5060000Y-79330000D01*
X2400000Y-69050000D02*
X2400000Y-79330000D01*
X5060000Y-69050000D02*
X2400000Y-69050000D01*
X5060000Y-79330000D02*
X5060000Y-69050000D01*
X920000Y-11300000D02*
X920000Y-10300000D01*
X2280000Y-10300000D02*
X2280000Y-11300000D01*
X850000Y-13300000D02*
X4750000Y-13300000D01*
X850000Y-15300000D02*
X4750000Y-15300000D01*
X850000Y-13300000D02*
X850000Y-15300000D01*
X850000Y-18300000D02*
X4750000Y-18300000D01*
X850000Y-20300000D02*
X4750000Y-20300000D01*
X850000Y-18300000D02*
X850000Y-20300000D01*
X850000Y-15800000D02*
X4750000Y-15800000D01*
X850000Y-17800000D02*
X4750000Y-17800000D01*
X850000Y-15800000D02*
X850000Y-17800000D01*
X56796600Y-9796600D02*
X57796600Y-9796600D01*
X57796600Y-8096600D02*
X56796600Y-8096600D01*
X56796600Y-7896600D02*
X57796600Y-7896600D01*
X57796600Y-6196600D02*
X56796600Y-6196600D01*
X14650000Y-44330000D02*
X19850000Y-44330000D01*
X19850000Y-47970000D02*
X14650000Y-47970000D01*
X14650000Y-13530000D02*
X19850000Y-13530000D01*
X19850000Y-17170000D02*
X14650000Y-17170000D01*
X56726200Y-58558800D02*
X57726200Y-58558800D01*
X57726200Y-56858800D02*
X56726200Y-56858800D01*
X44307200Y-10230600D02*
X44307200Y-9530600D01*
X45507200Y-9530600D02*
X45507200Y-10230600D01*
X45932800Y-10205200D02*
X45932800Y-9505200D01*
X47132800Y-9505200D02*
X47132800Y-10205200D01*
X56796600Y-5946600D02*
X57796600Y-5946600D01*
X57796600Y-4246600D02*
X56796600Y-4246600D01*
X53908400Y-41345600D02*
X53908400Y-40645600D01*
X55108400Y-40645600D02*
X55108400Y-41345600D01*
X7770000Y-54270000D02*
X6500000Y-54270000D01*
X7770000Y-53000000D02*
X7770000Y-54270000D01*
X5457071Y-22140000D02*
X5060000Y-22140000D01*
X5457071Y-22900000D02*
X5060000Y-22900000D01*
X-3600000Y-22140000D02*
X2400000Y-22140000D01*
X-3600000Y-22900000D02*
X-3600000Y-22140000D01*
X2400000Y-22900000D02*
X-3600000Y-22900000D01*
X5060000Y-23790000D02*
X2400000Y-23790000D01*
X5457071Y-24680000D02*
X5060000Y-24680000D01*
X5457071Y-25440000D02*
X5060000Y-25440000D01*
X-3600000Y-24680000D02*
X2400000Y-24680000D01*
X-3600000Y-25440000D02*
X-3600000Y-24680000D01*
X2400000Y-25440000D02*
X-3600000Y-25440000D01*
X5060000Y-26330000D02*
X2400000Y-26330000D01*
X5457071Y-27220000D02*
X5060000Y-27220000D01*
X5457071Y-27980000D02*
X5060000Y-27980000D01*
X-3600000Y-27220000D02*
X2400000Y-27220000D01*
X-3600000Y-27980000D02*
X-3600000Y-27220000D01*
X2400000Y-27980000D02*
X-3600000Y-27980000D01*
X5060000Y-28870000D02*
X2400000Y-28870000D01*
X5457071Y-29760000D02*
X5060000Y-29760000D01*
X5457071Y-30520000D02*
X5060000Y-30520000D01*
X-3600000Y-29760000D02*
X2400000Y-29760000D01*
X-3600000Y-30520000D02*
X-3600000Y-29760000D01*
X2400000Y-30520000D02*
X-3600000Y-30520000D01*
X5060000Y-31410000D02*
X2400000Y-31410000D01*
X5457071Y-32300000D02*
X5060000Y-32300000D01*
X5457071Y-33060000D02*
X5060000Y-33060000D01*
X-3600000Y-32300000D02*
X2400000Y-32300000D01*
X-3600000Y-33060000D02*
X-3600000Y-32300000D01*
X2400000Y-33060000D02*
X-3600000Y-33060000D01*
X5060000Y-33950000D02*
X2400000Y-33950000D01*
X5457071Y-34840000D02*
X5060000Y-34840000D01*
X5457071Y-35600000D02*
X5060000Y-35600000D01*
X-3600000Y-34840000D02*
X2400000Y-34840000D01*
X-3600000Y-35600000D02*
X-3600000Y-34840000D01*
X2400000Y-35600000D02*
X-3600000Y-35600000D01*
X5060000Y-36490000D02*
X2400000Y-36490000D01*
X5457071Y-37380000D02*
X5060000Y-37380000D01*
X5457071Y-38140000D02*
X5060000Y-38140000D01*
X-3600000Y-37380000D02*
X2400000Y-37380000D01*
X-3600000Y-38140000D02*
X-3600000Y-37380000D01*
X2400000Y-38140000D02*
X-3600000Y-38140000D01*
X5060000Y-39030000D02*
X2400000Y-39030000D01*
X5457071Y-39920000D02*
X5060000Y-39920000D01*
X5457071Y-40680000D02*
X5060000Y-40680000D01*
X-3600000Y-39920000D02*
X2400000Y-39920000D01*
X-3600000Y-40680000D02*
X-3600000Y-39920000D01*
X2400000Y-40680000D02*
X-3600000Y-40680000D01*
X5060000Y-41570000D02*
X2400000Y-41570000D01*
X5457071Y-42460000D02*
X5060000Y-42460000D01*
X5457071Y-43220000D02*
X5060000Y-43220000D01*
X-3600000Y-42460000D02*
X2400000Y-42460000D01*
X-3600000Y-43220000D02*
X-3600000Y-42460000D01*
X2400000Y-43220000D02*
X-3600000Y-43220000D01*
X5060000Y-44110000D02*
X2400000Y-44110000D01*
X5457071Y-45000000D02*
X5060000Y-45000000D01*
X5457071Y-45760000D02*
X5060000Y-45760000D01*
X-3600000Y-45000000D02*
X2400000Y-45000000D01*
X-3600000Y-45760000D02*
X-3600000Y-45000000D01*
X2400000Y-45760000D02*
X-3600000Y-45760000D01*
X5060000Y-46650000D02*
X2400000Y-46650000D01*
X5457071Y-47540000D02*
X5060000Y-47540000D01*
X5457071Y-48300000D02*
X5060000Y-48300000D01*
X-3600000Y-47540000D02*
X2400000Y-47540000D01*
X-3600000Y-48300000D02*
X-3600000Y-47540000D01*
X2400000Y-48300000D02*
X-3600000Y-48300000D01*
X5060000Y-49190000D02*
X2400000Y-49190000D01*
X5457071Y-50080000D02*
X5060000Y-50080000D01*
X5457071Y-50840000D02*
X5060000Y-50840000D01*
X-3600000Y-50080000D02*
X2400000Y-50080000D01*
X-3600000Y-50840000D02*
X-3600000Y-50080000D01*
X2400000Y-50840000D02*
X-3600000Y-50840000D01*
X5060000Y-51730000D02*
X2400000Y-51730000D01*
X5390000Y-52620000D02*
X5060000Y-52620000D01*
X5390000Y-53380000D02*
X5060000Y-53380000D01*
X2400000Y-52720000D02*
X-3600000Y-52720000D01*
X2400000Y-52840000D02*
X-3600000Y-52840000D01*
X2400000Y-52960000D02*
X-3600000Y-52960000D01*
X2400000Y-53080000D02*
X-3600000Y-53080000D01*
X2400000Y-53200000D02*
X-3600000Y-53200000D01*
X2400000Y-53320000D02*
X-3600000Y-53320000D01*
X-3600000Y-52620000D02*
X2400000Y-52620000D01*
X-3600000Y-53380000D02*
X-3600000Y-52620000D01*
X2400000Y-53380000D02*
X-3600000Y-53380000D01*
X2400000Y-54330000D02*
X5060000Y-54330000D01*
X2400000Y-21190000D02*
X2400000Y-54330000D01*
X5060000Y-21190000D02*
X2400000Y-21190000D01*
X5060000Y-54330000D02*
X5060000Y-21190000D01*
X50076000Y-15388800D02*
X50076000Y-14768800D01*
X48476000Y-15388800D02*
X50076000Y-15388800D01*
X48476000Y-14768800D02*
X48476000Y-15388800D01*
X47536000Y-15388800D02*
X47536000Y-14768800D01*
X45936000Y-15388800D02*
X47536000Y-15388800D01*
X45936000Y-14768800D02*
X45936000Y-15388800D01*
X49026000Y-20768800D02*
X49026000Y-19768800D01*
X46986000Y-20768800D02*
X46986000Y-19768800D01*
X49026000Y-19338800D02*
X49276000Y-19768800D01*
X46986000Y-19338800D02*
X49026000Y-19338800D01*
X46736000Y-19768800D02*
X46986000Y-19338800D01*
X49276000Y-19768800D02*
X49276000Y-20768800D01*
X46736000Y-19768800D02*
X49276000Y-19768800D01*
X46736000Y-20768800D02*
X46736000Y-19768800D01*
X50646000Y-14768800D02*
X45366000Y-14768800D01*
X50646000Y-20768800D02*
X50646000Y-14768800D01*
X45366000Y-20768800D02*
X50646000Y-20768800D01*
X45366000Y-14768800D02*
X45366000Y-20768800D01*
X56624000Y-15388800D02*
X56624000Y-14768800D01*
X55024000Y-15388800D02*
X56624000Y-15388800D01*
X55024000Y-14768800D02*
X55024000Y-15388800D01*
X54084000Y-15388800D02*
X54084000Y-14768800D01*
X52484000Y-15388800D02*
X54084000Y-15388800D01*
X52484000Y-14768800D02*
X52484000Y-15388800D01*
X55574000Y-20768800D02*
X55574000Y-19768800D01*
X53534000Y-20768800D02*
X53534000Y-19768800D01*
X55574000Y-19338800D02*
X55824000Y-19768800D01*
X53534000Y-19338800D02*
X55574000Y-19338800D01*
X53284000Y-19768800D02*
X53534000Y-19338800D01*
X55824000Y-19768800D02*
X55824000Y-20768800D01*
X53284000Y-19768800D02*
X55824000Y-19768800D01*
X53284000Y-20768800D02*
X53284000Y-19768800D01*
X57194000Y-14768800D02*
X51914000Y-14768800D01*
X57194000Y-20768800D02*
X57194000Y-14768800D01*
X51914000Y-20768800D02*
X57194000Y-20768800D01*
X51914000Y-14768800D02*
X51914000Y-20768800D01*
X47796400Y-9561000D02*
X47796400Y-3551000D01*
X54616400Y-7311000D02*
X54616400Y-3551000D01*
X47796400Y-3551000D02*
X49056400Y-3551000D01*
X54616400Y-3551000D02*
X53356400Y-3551000D01*
X22490000Y-2220000D02*
X23950000Y-2220000D01*
X22490000Y-5380000D02*
X24650000Y-5380000D01*
X22490000Y-5380000D02*
X22490000Y-4450000D01*
X22490000Y-2220000D02*
X22490000Y-3150000D01*
X22490000Y-9920000D02*
X23950000Y-9920000D01*
X22490000Y-13080000D02*
X24650000Y-13080000D01*
X22490000Y-13080000D02*
X22490000Y-12150000D01*
X22490000Y-9920000D02*
X22490000Y-10850000D01*
X22490000Y-17670000D02*
X23950000Y-17670000D01*
X22490000Y-20830000D02*
X24650000Y-20830000D01*
X22490000Y-20830000D02*
X22490000Y-19900000D01*
X22490000Y-17670000D02*
X22490000Y-18600000D01*
X22490000Y-25370000D02*
X23950000Y-25370000D01*
X22490000Y-28530000D02*
X24650000Y-28530000D01*
X22490000Y-28530000D02*
X22490000Y-27600000D01*
X22490000Y-25370000D02*
X22490000Y-26300000D01*
X22490000Y-33070000D02*
X23950000Y-33070000D01*
X22490000Y-36230000D02*
X24650000Y-36230000D01*
X22490000Y-36230000D02*
X22490000Y-35300000D01*
X22490000Y-33070000D02*
X22490000Y-34000000D01*
X22490000Y-40770000D02*
X23950000Y-40770000D01*
X22490000Y-43930000D02*
X24650000Y-43930000D01*
X22490000Y-43930000D02*
X22490000Y-43000000D01*
X22490000Y-40770000D02*
X22490000Y-41700000D01*
X22490000Y-48570000D02*
X23950000Y-48570000D01*
X22490000Y-51730000D02*
X24650000Y-51730000D01*
X22490000Y-51730000D02*
X22490000Y-50800000D01*
X22490000Y-48570000D02*
X22490000Y-49500000D01*
X22540000Y-56270000D02*
X24000000Y-56270000D01*
X22540000Y-59430000D02*
X24700000Y-59430000D01*
X22540000Y-59430000D02*
X22540000Y-58500000D01*
X22540000Y-56270000D02*
X22540000Y-57200000D01*
X22490000Y-63970000D02*
X23950000Y-63970000D01*
X22490000Y-67130000D02*
X24650000Y-67130000D01*
X22490000Y-67130000D02*
X22490000Y-66200000D01*
X22490000Y-63970000D02*
X22490000Y-64900000D01*
X22490000Y-71670000D02*
X23950000Y-71670000D01*
X22490000Y-74830000D02*
X24650000Y-74830000D01*
X22490000Y-74830000D02*
X22490000Y-73900000D01*
X22490000Y-71670000D02*
X22490000Y-72600000D01*
X22490000Y-79370000D02*
X23950000Y-79370000D01*
X22490000Y-82530000D02*
X24650000Y-82530000D01*
X22490000Y-82530000D02*
X22490000Y-81600000D01*
X22490000Y-79370000D02*
X22490000Y-80300000D01*
X22490000Y-87370000D02*
X23950000Y-87370000D01*
X22490000Y-90530000D02*
X24650000Y-90530000D01*
X22490000Y-90530000D02*
X22490000Y-89600000D01*
X22490000Y-87370000D02*
X22490000Y-88300000D01*
X46450800Y-3665600D02*
X46450800Y-4665600D01*
X45090800Y-4665600D02*
X45090800Y-3665600D01*
X44825200Y-3665600D02*
X44825200Y-4665600D01*
X43465200Y-4665600D02*
X43465200Y-3665600D01*
X53364400Y-46155600D02*
X53364400Y-45155600D01*
X54724400Y-45155600D02*
X54724400Y-46155600D01*
X51864400Y-46155600D02*
X51864400Y-45155600D01*
X53224400Y-45155600D02*
X53224400Y-46155600D01*
X50706400Y-41966600D02*
X51706400Y-41966600D01*
X51706400Y-43326600D02*
X50706400Y-43326600D01*
X53983000Y-37648600D02*
X54983000Y-37648600D01*
X54983000Y-39008600D02*
X53983000Y-39008600D01*
X27750000Y-3480000D02*
X26750000Y-3480000D01*
X26750000Y-2120000D02*
X27750000Y-2120000D01*
X27750000Y-5480000D02*
X26750000Y-5480000D01*
X26750000Y-4120000D02*
X27750000Y-4120000D01*
X27750000Y-11180000D02*
X26750000Y-11180000D01*
X26750000Y-9820000D02*
X27750000Y-9820000D01*
X27750000Y-13180000D02*
X26750000Y-13180000D01*
X26750000Y-11820000D02*
X27750000Y-11820000D01*
X27750000Y-18930000D02*
X26750000Y-18930000D01*
X26750000Y-17570000D02*
X27750000Y-17570000D01*
X27750000Y-20930000D02*
X26750000Y-20930000D01*
X26750000Y-19570000D02*
X27750000Y-19570000D01*
X27750000Y-26630000D02*
X26750000Y-26630000D01*
X26750000Y-25270000D02*
X27750000Y-25270000D01*
X27750000Y-28630000D02*
X26750000Y-28630000D01*
X26750000Y-27270000D02*
X27750000Y-27270000D01*
X27750000Y-34330000D02*
X26750000Y-34330000D01*
X26750000Y-32970000D02*
X27750000Y-32970000D01*
X27750000Y-36330000D02*
X26750000Y-36330000D01*
X26750000Y-34970000D02*
X27750000Y-34970000D01*
X27750000Y-42030000D02*
X26750000Y-42030000D01*
X26750000Y-40670000D02*
X27750000Y-40670000D01*
X27750000Y-44030000D02*
X26750000Y-44030000D01*
X26750000Y-42670000D02*
X27750000Y-42670000D01*
X27750000Y-49830000D02*
X26750000Y-49830000D01*
X26750000Y-48470000D02*
X27750000Y-48470000D01*
X27750000Y-51830000D02*
X26750000Y-51830000D01*
X26750000Y-50470000D02*
X27750000Y-50470000D01*
X27800000Y-57530000D02*
X26800000Y-57530000D01*
X26800000Y-56170000D02*
X27800000Y-56170000D01*
X27800000Y-59530000D02*
X26800000Y-59530000D01*
X26800000Y-58170000D02*
X27800000Y-58170000D01*
X27750000Y-65230000D02*
X26750000Y-65230000D01*
X26750000Y-63870000D02*
X27750000Y-63870000D01*
X27750000Y-67230000D02*
X26750000Y-67230000D01*
X26750000Y-65870000D02*
X27750000Y-65870000D01*
X27750000Y-72930000D02*
X26750000Y-72930000D01*
X26750000Y-71570000D02*
X27750000Y-71570000D01*
X27750000Y-74930000D02*
X26750000Y-74930000D01*
X26750000Y-73570000D02*
X27750000Y-73570000D01*
X27750000Y-80630000D02*
X26750000Y-80630000D01*
X26750000Y-79270000D02*
X27750000Y-79270000D01*
X27750000Y-82630000D02*
X26750000Y-82630000D01*
X26750000Y-81270000D02*
X27750000Y-81270000D01*
X27750000Y-88630000D02*
X26750000Y-88630000D01*
X26750000Y-87270000D02*
X27750000Y-87270000D01*
X27750000Y-90630000D02*
X26750000Y-90630000D01*
X26750000Y-89270000D02*
X27750000Y-89270000D01*
X57511200Y-37214000D02*
X45511200Y-37214000D01*
X57511200Y-21714000D02*
X57511200Y-37214000D01*
X45511200Y-21714000D02*
X57511200Y-21714000D01*
X45511200Y-37214000D02*
X45511200Y-21714000D01*
D10*
X56783230Y-24765000D02*
G75*
G03X56783230Y-24765000I-369830J0D01*
G01*
D12*
X14650000Y-1980000D02*
X19850000Y-1980000D01*
X19850000Y-5620000D02*
X14650000Y-5620000D01*
X14650000Y-9680000D02*
X19850000Y-9680000D01*
X19850000Y-13320000D02*
X14650000Y-13320000D01*
X14650000Y-17430000D02*
X19850000Y-17430000D01*
X19850000Y-21070000D02*
X14650000Y-21070000D01*
X14650000Y-25130000D02*
X19850000Y-25130000D01*
X19850000Y-28770000D02*
X14650000Y-28770000D01*
X14650000Y-32830000D02*
X19850000Y-32830000D01*
X19850000Y-36470000D02*
X14650000Y-36470000D01*
X14650000Y-40530000D02*
X19850000Y-40530000D01*
X19850000Y-44170000D02*
X14650000Y-44170000D01*
X14650000Y-48330000D02*
X19850000Y-48330000D01*
X19850000Y-51970000D02*
X14650000Y-51970000D01*
X14700000Y-56030000D02*
X19900000Y-56030000D01*
X19900000Y-59670000D02*
X14700000Y-59670000D01*
X14650000Y-71430000D02*
X19850000Y-71430000D01*
X19850000Y-75070000D02*
X14650000Y-75070000D01*
X14650000Y-79130000D02*
X19850000Y-79130000D01*
X19850000Y-82770000D02*
X14650000Y-82770000D01*
X14650000Y-87130000D02*
X19850000Y-87130000D01*
X19850000Y-90770000D02*
X14650000Y-90770000D01*
X14650000Y-63730000D02*
X19850000Y-63730000D01*
X19850000Y-67370000D02*
X14650000Y-67370000D01*
X33250000Y-3650000D02*
X34250000Y-3650000D01*
X34250000Y-1950000D02*
X33250000Y-1950000D01*
X33250000Y-11350000D02*
X34250000Y-11350000D01*
X34250000Y-9650000D02*
X33250000Y-9650000D01*
X33250000Y-19100000D02*
X34250000Y-19100000D01*
X34250000Y-17400000D02*
X33250000Y-17400000D01*
X33250000Y-26800000D02*
X34250000Y-26800000D01*
X34250000Y-25100000D02*
X33250000Y-25100000D01*
X33250000Y-34500000D02*
X34250000Y-34500000D01*
X34250000Y-32800000D02*
X33250000Y-32800000D01*
X33250000Y-42200000D02*
X34250000Y-42200000D01*
X34250000Y-40500000D02*
X33250000Y-40500000D01*
X33250000Y-50000000D02*
X34250000Y-50000000D01*
X34250000Y-48300000D02*
X33250000Y-48300000D01*
X33300000Y-57700000D02*
X34300000Y-57700000D01*
X34300000Y-56000000D02*
X33300000Y-56000000D01*
X33200000Y-65450000D02*
X34200000Y-65450000D01*
X34200000Y-63750000D02*
X33200000Y-63750000D01*
X33250000Y-73100000D02*
X34250000Y-73100000D01*
X34250000Y-71400000D02*
X33250000Y-71400000D01*
X33250000Y-80800000D02*
X34250000Y-80800000D01*
X34250000Y-79100000D02*
X33250000Y-79100000D01*
X33250000Y-88800000D02*
X34250000Y-88800000D01*
X34250000Y-87100000D02*
X33250000Y-87100000D01*
X14650000Y-5780000D02*
X19850000Y-5780000D01*
X19850000Y-9420000D02*
X14650000Y-9420000D01*
X14650000Y-21230000D02*
X19850000Y-21230000D01*
X19850000Y-24870000D02*
X14650000Y-24870000D01*
X14650000Y-28930000D02*
X19850000Y-28930000D01*
X19850000Y-32570000D02*
X14650000Y-32570000D01*
X14650000Y-36630000D02*
X19850000Y-36630000D01*
X19850000Y-40270000D02*
X14650000Y-40270000D01*
X14650000Y-52130000D02*
X19850000Y-52130000D01*
X19850000Y-55770000D02*
X14650000Y-55770000D01*
X14700000Y-59830000D02*
X19900000Y-59830000D01*
X19900000Y-63470000D02*
X14700000Y-63470000D01*
X14650000Y-67530000D02*
X19850000Y-67530000D01*
X19850000Y-71170000D02*
X14650000Y-71170000D01*
X14650000Y-75230000D02*
X19850000Y-75230000D01*
X19850000Y-78870000D02*
X14650000Y-78870000D01*
X14650000Y-83130000D02*
X19850000Y-83130000D01*
X19850000Y-86770000D02*
X14650000Y-86770000D01*
X14650000Y-90930000D02*
X19850000Y-90930000D01*
X19850000Y-94570000D02*
X14650000Y-94570000D01*
X31250000Y-2900000D02*
X31250000Y-6050000D01*
X29550000Y-2900000D02*
X29550000Y-6050000D01*
X31250000Y-2900000D02*
X29550000Y-2900000D01*
X31250000Y-10600000D02*
X29550000Y-10600000D01*
X29550000Y-10600000D02*
X29550000Y-13750000D01*
X31250000Y-10600000D02*
X31250000Y-13750000D01*
X31250000Y-18350000D02*
X29550000Y-18350000D01*
X29550000Y-18350000D02*
X29550000Y-21500000D01*
X31250000Y-18350000D02*
X31250000Y-21500000D01*
X31250000Y-26050000D02*
X29550000Y-26050000D01*
X29550000Y-26050000D02*
X29550000Y-29200000D01*
X31250000Y-26050000D02*
X31250000Y-29200000D01*
X31250000Y-33750000D02*
X31250000Y-36900000D01*
X29550000Y-33750000D02*
X29550000Y-36900000D01*
X31250000Y-33750000D02*
X29550000Y-33750000D01*
X31250000Y-41350000D02*
X31250000Y-44500000D01*
X29550000Y-41350000D02*
X29550000Y-44500000D01*
X31250000Y-41350000D02*
X29550000Y-41350000D01*
X31250000Y-49600000D02*
X31250000Y-52750000D01*
X29550000Y-49600000D02*
X29550000Y-52750000D01*
X31250000Y-49600000D02*
X29550000Y-49600000D01*
X31300000Y-57100000D02*
X31300000Y-60250000D01*
X29600000Y-57100000D02*
X29600000Y-60250000D01*
X31300000Y-57100000D02*
X29600000Y-57100000D01*
X31250000Y-64650000D02*
X31250000Y-67800000D01*
X29550000Y-64650000D02*
X29550000Y-67800000D01*
X31250000Y-64650000D02*
X29550000Y-64650000D01*
X31250000Y-72350000D02*
X31250000Y-75500000D01*
X29550000Y-72350000D02*
X29550000Y-75500000D01*
X31250000Y-72350000D02*
X29550000Y-72350000D01*
X31250000Y-80200000D02*
X29550000Y-80200000D01*
X29550000Y-80200000D02*
X29550000Y-83350000D01*
X31250000Y-80200000D02*
X31250000Y-83350000D01*
X31250000Y-88050000D02*
X29550000Y-88050000D01*
X29550000Y-88050000D02*
X29550000Y-91200000D01*
X31250000Y-88050000D02*
X31250000Y-91200000D01*
X59241800Y-51258800D02*
X56781800Y-51258800D01*
X59241800Y-52728800D02*
X59241800Y-51258800D01*
X56781800Y-52728800D02*
X59241800Y-52728800D01*
D10*
X58878742Y-65698666D02*
X58926361Y-65746285D01*
X58973980Y-65889142D01*
X58973980Y-65984380D01*
X58926361Y-66127238D01*
X58831123Y-66222476D01*
X58735885Y-66270095D01*
X58545409Y-66317714D01*
X58402552Y-66317714D01*
X58212076Y-66270095D01*
X58116838Y-66222476D01*
X58021600Y-66127238D01*
X57973980Y-65984380D01*
X57973980Y-65889142D01*
X58021600Y-65746285D01*
X58069219Y-65698666D01*
X58973980Y-64746285D02*
X58973980Y-65317714D01*
X58973980Y-65032000D02*
X57973980Y-65032000D01*
X58116838Y-65127238D01*
X58212076Y-65222476D01*
X58259695Y-65317714D01*
X52920980Y-67618914D02*
X52920980Y-67047485D01*
X53920980Y-67333200D02*
X52920980Y-67333200D01*
X53920980Y-66714152D02*
X52920980Y-66714152D01*
X53397171Y-66714152D02*
X53397171Y-66142723D01*
X53920980Y-66142723D02*
X52920980Y-66142723D01*
X53920980Y-65142723D02*
X53920980Y-65714152D01*
X53920980Y-65428438D02*
X52920980Y-65428438D01*
X53063838Y-65523676D01*
X53159076Y-65618914D01*
X53206695Y-65714152D01*
X55562342Y-65844657D02*
X55609961Y-65892276D01*
X55657580Y-66035133D01*
X55657580Y-66130371D01*
X55609961Y-66273228D01*
X55514723Y-66368466D01*
X55419485Y-66416085D01*
X55229009Y-66463704D01*
X55086152Y-66463704D01*
X54895676Y-66416085D01*
X54800438Y-66368466D01*
X54705200Y-66273228D01*
X54657580Y-66130371D01*
X54657580Y-66035133D01*
X54705200Y-65892276D01*
X54752819Y-65844657D01*
X55657580Y-64892276D02*
X55657580Y-65463704D01*
X55657580Y-65177990D02*
X54657580Y-65177990D01*
X54800438Y-65273228D01*
X54895676Y-65368466D01*
X54943295Y-65463704D01*
X54752819Y-64511323D02*
X54705200Y-64463704D01*
X54657580Y-64368466D01*
X54657580Y-64130371D01*
X54705200Y-64035133D01*
X54752819Y-63987514D01*
X54848057Y-63939895D01*
X54943295Y-63939895D01*
X55086152Y-63987514D01*
X55657580Y-64558942D01*
X55657580Y-63939895D01*
X57145180Y-66047857D02*
X56668990Y-66381190D01*
X57145180Y-66619285D02*
X56145180Y-66619285D01*
X56145180Y-66238333D01*
X56192800Y-66143095D01*
X56240419Y-66095476D01*
X56335657Y-66047857D01*
X56478514Y-66047857D01*
X56573752Y-66095476D01*
X56621371Y-66143095D01*
X56668990Y-66238333D01*
X56668990Y-66619285D01*
X57145180Y-65095476D02*
X57145180Y-65666904D01*
X57145180Y-65381190D02*
X56145180Y-65381190D01*
X56288038Y-65476428D01*
X56383276Y-65571666D01*
X56430895Y-65666904D01*
X57145180Y-64143095D02*
X57145180Y-64714523D01*
X57145180Y-64428809D02*
X56145180Y-64428809D01*
X56288038Y-64524047D01*
X56383276Y-64619285D01*
X56430895Y-64714523D01*
X51639742Y-39892266D02*
X51687361Y-39939885D01*
X51734980Y-40082742D01*
X51734980Y-40177980D01*
X51687361Y-40320838D01*
X51592123Y-40416076D01*
X51496885Y-40463695D01*
X51306409Y-40511314D01*
X51163552Y-40511314D01*
X50973076Y-40463695D01*
X50877838Y-40416076D01*
X50782600Y-40320838D01*
X50734980Y-40177980D01*
X50734980Y-40082742D01*
X50782600Y-39939885D01*
X50830219Y-39892266D01*
X50734980Y-39035123D02*
X50734980Y-39225600D01*
X50782600Y-39320838D01*
X50830219Y-39368457D01*
X50973076Y-39463695D01*
X51163552Y-39511314D01*
X51544504Y-39511314D01*
X51639742Y-39463695D01*
X51687361Y-39416076D01*
X51734980Y-39320838D01*
X51734980Y-39130361D01*
X51687361Y-39035123D01*
X51639742Y-38987504D01*
X51544504Y-38939885D01*
X51306409Y-38939885D01*
X51211171Y-38987504D01*
X51163552Y-39035123D01*
X51115933Y-39130361D01*
X51115933Y-39320838D01*
X51163552Y-39416076D01*
X51211171Y-39463695D01*
X51306409Y-39511314D01*
X43789000Y-42692390D02*
X43789000Y-41882866D01*
X45156380Y-41978104D02*
X45156380Y-42454295D01*
X44156380Y-42454295D01*
X43789000Y-41882866D02*
X43789000Y-40978104D01*
X45156380Y-41216200D02*
X44632571Y-41216200D01*
X44537333Y-41263819D01*
X44489714Y-41359057D01*
X44489714Y-41549533D01*
X44537333Y-41644771D01*
X45108761Y-41216200D02*
X45156380Y-41311438D01*
X45156380Y-41549533D01*
X45108761Y-41644771D01*
X45013523Y-41692390D01*
X44918285Y-41692390D01*
X44823047Y-41644771D01*
X44775428Y-41549533D01*
X44775428Y-41311438D01*
X44727809Y-41216200D01*
X43789000Y-40978104D02*
X43789000Y-40168580D01*
X45108761Y-40787628D02*
X45156380Y-40692390D01*
X45156380Y-40501914D01*
X45108761Y-40406676D01*
X45013523Y-40359057D01*
X44965904Y-40359057D01*
X44870666Y-40406676D01*
X44823047Y-40501914D01*
X44823047Y-40644771D01*
X44775428Y-40740009D01*
X44680190Y-40787628D01*
X44632571Y-40787628D01*
X44537333Y-40740009D01*
X44489714Y-40644771D01*
X44489714Y-40501914D01*
X44537333Y-40406676D01*
X43789000Y-40168580D02*
X43789000Y-39597152D01*
X44489714Y-40073342D02*
X44489714Y-39692390D01*
X44156380Y-39930485D02*
X45013523Y-39930485D01*
X45108761Y-39882866D01*
X45156380Y-39787628D01*
X45156380Y-39692390D01*
X43789000Y-39597152D02*
X43789000Y-38740009D01*
X45061142Y-39216200D02*
X45108761Y-39168580D01*
X45156380Y-39216200D01*
X45108761Y-39263819D01*
X45061142Y-39216200D01*
X45156380Y-39216200D01*
X44204000Y-39406676D02*
X44156380Y-39311438D01*
X44156380Y-39073342D01*
X44204000Y-38978104D01*
X44299238Y-38930485D01*
X44394476Y-38930485D01*
X44489714Y-38978104D01*
X44537333Y-39025723D01*
X44584952Y-39120961D01*
X44632571Y-39168580D01*
X44727809Y-39216200D01*
X44775428Y-39216200D01*
X46338095Y-45102380D02*
X46338095Y-45911904D01*
X46385714Y-46007142D01*
X46433333Y-46054761D01*
X46528571Y-46102380D01*
X46719047Y-46102380D01*
X46814285Y-46054761D01*
X46861904Y-46007142D01*
X46909523Y-45911904D01*
X46909523Y-45102380D01*
X47909523Y-46102380D02*
X47338095Y-46102380D01*
X47623809Y-46102380D02*
X47623809Y-45102380D01*
X47528571Y-45245238D01*
X47433333Y-45340476D01*
X47338095Y-45388095D01*
X53255942Y-54147980D02*
X52922609Y-53671790D01*
X52684514Y-54147980D02*
X52684514Y-53147980D01*
X53065466Y-53147980D01*
X53160704Y-53195600D01*
X53208323Y-53243219D01*
X53255942Y-53338457D01*
X53255942Y-53481314D01*
X53208323Y-53576552D01*
X53160704Y-53624171D01*
X53065466Y-53671790D01*
X52684514Y-53671790D01*
X54208323Y-54147980D02*
X53636895Y-54147980D01*
X53922609Y-54147980D02*
X53922609Y-53147980D01*
X53827371Y-53290838D01*
X53732133Y-53386076D01*
X53636895Y-53433695D01*
X54827371Y-53147980D02*
X54922609Y-53147980D01*
X55017847Y-53195600D01*
X55065466Y-53243219D01*
X55113085Y-53338457D01*
X55160704Y-53528933D01*
X55160704Y-53767028D01*
X55113085Y-53957504D01*
X55065466Y-54052742D01*
X55017847Y-54100361D01*
X54922609Y-54147980D01*
X54827371Y-54147980D01*
X54732133Y-54100361D01*
X54684514Y-54052742D01*
X54636895Y-53957504D01*
X54589276Y-53767028D01*
X54589276Y-53528933D01*
X54636895Y-53338457D01*
X54684514Y-53243219D01*
X54732133Y-53195600D01*
X54827371Y-53147980D01*
X54240133Y-56560980D02*
X53906800Y-56084790D01*
X53668704Y-56560980D02*
X53668704Y-55560980D01*
X54049657Y-55560980D01*
X54144895Y-55608600D01*
X54192514Y-55656219D01*
X54240133Y-55751457D01*
X54240133Y-55894314D01*
X54192514Y-55989552D01*
X54144895Y-56037171D01*
X54049657Y-56084790D01*
X53668704Y-56084790D01*
X54716323Y-56560980D02*
X54906800Y-56560980D01*
X55002038Y-56513361D01*
X55049657Y-56465742D01*
X55144895Y-56322885D01*
X55192514Y-56132409D01*
X55192514Y-55751457D01*
X55144895Y-55656219D01*
X55097276Y-55608600D01*
X55002038Y-55560980D01*
X54811561Y-55560980D01*
X54716323Y-55608600D01*
X54668704Y-55656219D01*
X54621085Y-55751457D01*
X54621085Y-55989552D01*
X54668704Y-56084790D01*
X54716323Y-56132409D01*
X54811561Y-56180028D01*
X55002038Y-56180028D01*
X55097276Y-56132409D01*
X55144895Y-56084790D01*
X55192514Y-55989552D01*
X57186533Y-48077380D02*
X56853200Y-47601190D01*
X56615104Y-48077380D02*
X56615104Y-47077380D01*
X56996057Y-47077380D01*
X57091295Y-47125000D01*
X57138914Y-47172619D01*
X57186533Y-47267857D01*
X57186533Y-47410714D01*
X57138914Y-47505952D01*
X57091295Y-47553571D01*
X56996057Y-47601190D01*
X56615104Y-47601190D01*
X57757961Y-47505952D02*
X57662723Y-47458333D01*
X57615104Y-47410714D01*
X57567485Y-47315476D01*
X57567485Y-47267857D01*
X57615104Y-47172619D01*
X57662723Y-47125000D01*
X57757961Y-47077380D01*
X57948438Y-47077380D01*
X58043676Y-47125000D01*
X58091295Y-47172619D01*
X58138914Y-47267857D01*
X58138914Y-47315476D01*
X58091295Y-47410714D01*
X58043676Y-47458333D01*
X57948438Y-47505952D01*
X57757961Y-47505952D01*
X57662723Y-47553571D01*
X57615104Y-47601190D01*
X57567485Y-47696428D01*
X57567485Y-47886904D01*
X57615104Y-47982142D01*
X57662723Y-48029761D01*
X57757961Y-48077380D01*
X57948438Y-48077380D01*
X58043676Y-48029761D01*
X58091295Y-47982142D01*
X58138914Y-47886904D01*
X58138914Y-47696428D01*
X58091295Y-47601190D01*
X58043676Y-47553571D01*
X57948438Y-47505952D01*
X53733333Y-51002380D02*
X53400000Y-50526190D01*
X53161904Y-51002380D02*
X53161904Y-50002380D01*
X53542857Y-50002380D01*
X53638095Y-50050000D01*
X53685714Y-50097619D01*
X53733333Y-50192857D01*
X53733333Y-50335714D01*
X53685714Y-50430952D01*
X53638095Y-50478571D01*
X53542857Y-50526190D01*
X53161904Y-50526190D01*
X54066666Y-50002380D02*
X54733333Y-50002380D01*
X54304761Y-51002380D01*
X1628571Y-8233333D02*
X1628571Y-8566666D01*
X2152380Y-8566666D02*
X1152380Y-8566666D01*
X1152380Y-8090476D01*
X1628571Y-7376190D02*
X1676190Y-7233333D01*
X1723809Y-7185714D01*
X1819047Y-7138095D01*
X1961904Y-7138095D01*
X2057142Y-7185714D01*
X2104761Y-7233333D01*
X2152380Y-7328571D01*
X2152380Y-7709523D01*
X1152380Y-7709523D01*
X1152380Y-7376190D01*
X1200000Y-7280952D01*
X1247619Y-7233333D01*
X1342857Y-7185714D01*
X1438095Y-7185714D01*
X1533333Y-7233333D01*
X1580952Y-7280952D01*
X1628571Y-7376190D01*
X1628571Y-7709523D01*
X2152380Y-6185714D02*
X2152380Y-6757142D01*
X2152380Y-6471428D02*
X1152380Y-6471428D01*
X1295238Y-6566666D01*
X1390476Y-6661904D01*
X1438095Y-6757142D01*
X5685714Y-14752380D02*
X5685714Y-13752380D01*
X5923809Y-13752380D01*
X6066666Y-13800000D01*
X6161904Y-13895238D01*
X6209523Y-13990476D01*
X6257142Y-14180952D01*
X6257142Y-14323809D01*
X6209523Y-14514285D01*
X6161904Y-14609523D01*
X6066666Y-14704761D01*
X5923809Y-14752380D01*
X5685714Y-14752380D01*
X7209523Y-14752380D02*
X6638095Y-14752380D01*
X6923809Y-14752380D02*
X6923809Y-13752380D01*
X6828571Y-13895238D01*
X6733333Y-13990476D01*
X6638095Y-14038095D01*
X8114285Y-13752380D02*
X7638095Y-13752380D01*
X7590476Y-14228571D01*
X7638095Y-14180952D01*
X7733333Y-14133333D01*
X7971428Y-14133333D01*
X8066666Y-14180952D01*
X8114285Y-14228571D01*
X8161904Y-14323809D01*
X8161904Y-14561904D01*
X8114285Y-14657142D01*
X8066666Y-14704761D01*
X7971428Y-14752380D01*
X7733333Y-14752380D01*
X7638095Y-14704761D01*
X7590476Y-14657142D01*
X5685714Y-19752380D02*
X5685714Y-18752380D01*
X5923809Y-18752380D01*
X6066666Y-18800000D01*
X6161904Y-18895238D01*
X6209523Y-18990476D01*
X6257142Y-19180952D01*
X6257142Y-19323809D01*
X6209523Y-19514285D01*
X6161904Y-19609523D01*
X6066666Y-19704761D01*
X5923809Y-19752380D01*
X5685714Y-19752380D01*
X7209523Y-19752380D02*
X6638095Y-19752380D01*
X6923809Y-19752380D02*
X6923809Y-18752380D01*
X6828571Y-18895238D01*
X6733333Y-18990476D01*
X6638095Y-19038095D01*
X8066666Y-19085714D02*
X8066666Y-19752380D01*
X7828571Y-18704761D02*
X7590476Y-19419047D01*
X8209523Y-19419047D01*
X5685714Y-17252380D02*
X5685714Y-16252380D01*
X5923809Y-16252380D01*
X6066666Y-16300000D01*
X6161904Y-16395238D01*
X6209523Y-16490476D01*
X6257142Y-16680952D01*
X6257142Y-16823809D01*
X6209523Y-17014285D01*
X6161904Y-17109523D01*
X6066666Y-17204761D01*
X5923809Y-17252380D01*
X5685714Y-17252380D01*
X7209523Y-17252380D02*
X6638095Y-17252380D01*
X6923809Y-17252380D02*
X6923809Y-16252380D01*
X6828571Y-16395238D01*
X6733333Y-16490476D01*
X6638095Y-16538095D01*
X7542857Y-16252380D02*
X8161904Y-16252380D01*
X7828571Y-16633333D01*
X7971428Y-16633333D01*
X8066666Y-16680952D01*
X8114285Y-16728571D01*
X8161904Y-16823809D01*
X8161904Y-17061904D01*
X8114285Y-17157142D01*
X8066666Y-17204761D01*
X7971428Y-17252380D01*
X7685714Y-17252380D01*
X7590476Y-17204761D01*
X7542857Y-17157142D01*
X56733142Y-10855942D02*
X56685523Y-10903561D01*
X56542666Y-10951180D01*
X56447428Y-10951180D01*
X56304571Y-10903561D01*
X56209333Y-10808323D01*
X56161714Y-10713085D01*
X56114095Y-10522609D01*
X56114095Y-10379752D01*
X56161714Y-10189276D01*
X56209333Y-10094038D01*
X56304571Y-9998800D01*
X56447428Y-9951180D01*
X56542666Y-9951180D01*
X56685523Y-9998800D01*
X56733142Y-10046419D01*
X57114095Y-10046419D02*
X57161714Y-9998800D01*
X57256952Y-9951180D01*
X57495047Y-9951180D01*
X57590285Y-9998800D01*
X57637904Y-10046419D01*
X57685523Y-10141657D01*
X57685523Y-10236895D01*
X57637904Y-10379752D01*
X57066476Y-10951180D01*
X57685523Y-10951180D01*
X58542666Y-9951180D02*
X58352190Y-9951180D01*
X58256952Y-9998800D01*
X58209333Y-10046419D01*
X58114095Y-10189276D01*
X58066476Y-10379752D01*
X58066476Y-10760704D01*
X58114095Y-10855942D01*
X58161714Y-10903561D01*
X58256952Y-10951180D01*
X58447428Y-10951180D01*
X58542666Y-10903561D01*
X58590285Y-10855942D01*
X58637904Y-10760704D01*
X58637904Y-10522609D01*
X58590285Y-10427371D01*
X58542666Y-10379752D01*
X58447428Y-10332133D01*
X58256952Y-10332133D01*
X58161714Y-10379752D01*
X58114095Y-10427371D01*
X58066476Y-10522609D01*
X56733142Y-12355942D02*
X56685523Y-12403561D01*
X56542666Y-12451180D01*
X56447428Y-12451180D01*
X56304571Y-12403561D01*
X56209333Y-12308323D01*
X56161714Y-12213085D01*
X56114095Y-12022609D01*
X56114095Y-11879752D01*
X56161714Y-11689276D01*
X56209333Y-11594038D01*
X56304571Y-11498800D01*
X56447428Y-11451180D01*
X56542666Y-11451180D01*
X56685523Y-11498800D01*
X56733142Y-11546419D01*
X57114095Y-11546419D02*
X57161714Y-11498800D01*
X57256952Y-11451180D01*
X57495047Y-11451180D01*
X57590285Y-11498800D01*
X57637904Y-11546419D01*
X57685523Y-11641657D01*
X57685523Y-11736895D01*
X57637904Y-11879752D01*
X57066476Y-12451180D01*
X57685523Y-12451180D01*
X58590285Y-11451180D02*
X58114095Y-11451180D01*
X58066476Y-11927371D01*
X58114095Y-11879752D01*
X58209333Y-11832133D01*
X58447428Y-11832133D01*
X58542666Y-11879752D01*
X58590285Y-11927371D01*
X58637904Y-12022609D01*
X58637904Y-12260704D01*
X58590285Y-12355942D01*
X58542666Y-12403561D01*
X58447428Y-12451180D01*
X58209333Y-12451180D01*
X58114095Y-12403561D01*
X58066476Y-12355942D01*
X16107142Y-46602380D02*
X15773809Y-46126190D01*
X15535714Y-46602380D02*
X15535714Y-45602380D01*
X15916666Y-45602380D01*
X16011904Y-45650000D01*
X16059523Y-45697619D01*
X16107142Y-45792857D01*
X16107142Y-45935714D01*
X16059523Y-46030952D01*
X16011904Y-46078571D01*
X15916666Y-46126190D01*
X15535714Y-46126190D01*
X17011904Y-45602380D02*
X16535714Y-45602380D01*
X16488095Y-46078571D01*
X16535714Y-46030952D01*
X16630952Y-45983333D01*
X16869047Y-45983333D01*
X16964285Y-46030952D01*
X17011904Y-46078571D01*
X17059523Y-46173809D01*
X17059523Y-46411904D01*
X17011904Y-46507142D01*
X16964285Y-46554761D01*
X16869047Y-46602380D01*
X16630952Y-46602380D01*
X16535714Y-46554761D01*
X16488095Y-46507142D01*
X17392857Y-45602380D02*
X18011904Y-45602380D01*
X17678571Y-45983333D01*
X17821428Y-45983333D01*
X17916666Y-46030952D01*
X17964285Y-46078571D01*
X18011904Y-46173809D01*
X18011904Y-46411904D01*
X17964285Y-46507142D01*
X17916666Y-46554761D01*
X17821428Y-46602380D01*
X17535714Y-46602380D01*
X17440476Y-46554761D01*
X17392857Y-46507142D01*
X16107142Y-15802380D02*
X15773809Y-15326190D01*
X15535714Y-15802380D02*
X15535714Y-14802380D01*
X15916666Y-14802380D01*
X16011904Y-14850000D01*
X16059523Y-14897619D01*
X16107142Y-14992857D01*
X16107142Y-15135714D01*
X16059523Y-15230952D01*
X16011904Y-15278571D01*
X15916666Y-15326190D01*
X15535714Y-15326190D01*
X16964285Y-15135714D02*
X16964285Y-15802380D01*
X16726190Y-14754761D02*
X16488095Y-15469047D01*
X17107142Y-15469047D01*
X17535714Y-15802380D02*
X17726190Y-15802380D01*
X17821428Y-15754761D01*
X17869047Y-15707142D01*
X17964285Y-15564285D01*
X18011904Y-15373809D01*
X18011904Y-14992857D01*
X17964285Y-14897619D01*
X17916666Y-14850000D01*
X17821428Y-14802380D01*
X17630952Y-14802380D01*
X17535714Y-14850000D01*
X17488095Y-14897619D01*
X17440476Y-14992857D01*
X17440476Y-15230952D01*
X17488095Y-15326190D01*
X17535714Y-15373809D01*
X17630952Y-15421428D01*
X17821428Y-15421428D01*
X17916666Y-15373809D01*
X17964285Y-15326190D01*
X18011904Y-15230952D01*
X53782933Y-58115942D02*
X53735314Y-58163561D01*
X53592457Y-58211180D01*
X53497219Y-58211180D01*
X53354361Y-58163561D01*
X53259123Y-58068323D01*
X53211504Y-57973085D01*
X53163885Y-57782609D01*
X53163885Y-57639752D01*
X53211504Y-57449276D01*
X53259123Y-57354038D01*
X53354361Y-57258800D01*
X53497219Y-57211180D01*
X53592457Y-57211180D01*
X53735314Y-57258800D01*
X53782933Y-57306419D01*
X54163885Y-57306419D02*
X54211504Y-57258800D01*
X54306742Y-57211180D01*
X54544838Y-57211180D01*
X54640076Y-57258800D01*
X54687695Y-57306419D01*
X54735314Y-57401657D01*
X54735314Y-57496895D01*
X54687695Y-57639752D01*
X54116266Y-58211180D01*
X54735314Y-58211180D01*
X42241742Y-10123466D02*
X42289361Y-10171085D01*
X42336980Y-10313942D01*
X42336980Y-10409180D01*
X42289361Y-10552038D01*
X42194123Y-10647276D01*
X42098885Y-10694895D01*
X41908409Y-10742514D01*
X41765552Y-10742514D01*
X41575076Y-10694895D01*
X41479838Y-10647276D01*
X41384600Y-10552038D01*
X41336980Y-10409180D01*
X41336980Y-10313942D01*
X41384600Y-10171085D01*
X41432219Y-10123466D01*
X41336980Y-9790133D02*
X41336980Y-9171085D01*
X41717933Y-9504419D01*
X41717933Y-9361561D01*
X41765552Y-9266323D01*
X41813171Y-9218704D01*
X41908409Y-9171085D01*
X42146504Y-9171085D01*
X42241742Y-9218704D01*
X42289361Y-9266323D01*
X42336980Y-9361561D01*
X42336980Y-9647276D01*
X42289361Y-9742514D01*
X42241742Y-9790133D01*
X43867342Y-10123466D02*
X43914961Y-10171085D01*
X43962580Y-10313942D01*
X43962580Y-10409180D01*
X43914961Y-10552038D01*
X43819723Y-10647276D01*
X43724485Y-10694895D01*
X43534009Y-10742514D01*
X43391152Y-10742514D01*
X43200676Y-10694895D01*
X43105438Y-10647276D01*
X43010200Y-10552038D01*
X42962580Y-10409180D01*
X42962580Y-10313942D01*
X43010200Y-10171085D01*
X43057819Y-10123466D01*
X43295914Y-9266323D02*
X43962580Y-9266323D01*
X42914961Y-9504419D02*
X43629247Y-9742514D01*
X43629247Y-9123466D01*
X57186533Y-3684542D02*
X57138914Y-3732161D01*
X56996057Y-3779780D01*
X56900819Y-3779780D01*
X56757961Y-3732161D01*
X56662723Y-3636923D01*
X56615104Y-3541685D01*
X56567485Y-3351209D01*
X56567485Y-3208352D01*
X56615104Y-3017876D01*
X56662723Y-2922638D01*
X56757961Y-2827400D01*
X56900819Y-2779780D01*
X56996057Y-2779780D01*
X57138914Y-2827400D01*
X57186533Y-2875019D01*
X58091295Y-2779780D02*
X57615104Y-2779780D01*
X57567485Y-3255971D01*
X57615104Y-3208352D01*
X57710342Y-3160733D01*
X57948438Y-3160733D01*
X58043676Y-3208352D01*
X58091295Y-3255971D01*
X58138914Y-3351209D01*
X58138914Y-3589304D01*
X58091295Y-3684542D01*
X58043676Y-3732161D01*
X57948438Y-3779780D01*
X57710342Y-3779780D01*
X57615104Y-3732161D01*
X57567485Y-3684542D01*
X56364142Y-41060666D02*
X56411761Y-41108285D01*
X56459380Y-41251142D01*
X56459380Y-41346380D01*
X56411761Y-41489238D01*
X56316523Y-41584476D01*
X56221285Y-41632095D01*
X56030809Y-41679714D01*
X55887952Y-41679714D01*
X55697476Y-41632095D01*
X55602238Y-41584476D01*
X55507000Y-41489238D01*
X55459380Y-41346380D01*
X55459380Y-41251142D01*
X55507000Y-41108285D01*
X55554619Y-41060666D01*
X55459380Y-40727333D02*
X55459380Y-40060666D01*
X56459380Y-40489238D01*
X4569657Y-38518647D02*
X4618704Y-38567695D01*
X4667752Y-38714838D01*
X4667752Y-38812933D01*
X4618704Y-38960076D01*
X4520609Y-39058171D01*
X4422514Y-39107219D01*
X4226323Y-39156266D01*
X4079180Y-39156266D01*
X3882990Y-39107219D01*
X3784895Y-39058171D01*
X3686800Y-38960076D01*
X3637752Y-38812933D01*
X3637752Y-38714838D01*
X3686800Y-38567695D01*
X3735847Y-38518647D01*
X4618704Y-37684838D02*
X4667752Y-37782933D01*
X4667752Y-37979123D01*
X4618704Y-38077219D01*
X4520609Y-38126266D01*
X4128228Y-38126266D01*
X4030133Y-38077219D01*
X3981085Y-37979123D01*
X3981085Y-37782933D01*
X4030133Y-37684838D01*
X4128228Y-37635790D01*
X4226323Y-37635790D01*
X4324419Y-38126266D01*
X4667752Y-37047219D02*
X4618704Y-37145314D01*
X4520609Y-37194361D01*
X3637752Y-37194361D01*
X4667752Y-36507695D02*
X4618704Y-36605790D01*
X4520609Y-36654838D01*
X3637752Y-36654838D01*
X4618704Y-36164361D02*
X4667752Y-36066266D01*
X4667752Y-35870076D01*
X4618704Y-35771980D01*
X4520609Y-35722933D01*
X4471561Y-35722933D01*
X4373466Y-35771980D01*
X4324419Y-35870076D01*
X4324419Y-36017219D01*
X4275371Y-36115314D01*
X4177276Y-36164361D01*
X4128228Y-36164361D01*
X4030133Y-36115314D01*
X3981085Y-36017219D01*
X3981085Y-35870076D01*
X4030133Y-35771980D01*
X44397561Y-19665723D02*
X44445180Y-19522866D01*
X44445180Y-19284771D01*
X44397561Y-19189533D01*
X44349942Y-19141914D01*
X44254704Y-19094295D01*
X44159466Y-19094295D01*
X44064228Y-19141914D01*
X44016609Y-19189533D01*
X43968990Y-19284771D01*
X43921371Y-19475247D01*
X43873752Y-19570485D01*
X43826133Y-19618104D01*
X43730895Y-19665723D01*
X43635657Y-19665723D01*
X43540419Y-19618104D01*
X43492800Y-19570485D01*
X43445180Y-19475247D01*
X43445180Y-19237152D01*
X43492800Y-19094295D01*
X44445180Y-18522866D02*
X44397561Y-18618104D01*
X44302323Y-18665723D01*
X43445180Y-18665723D01*
X44445180Y-17713342D02*
X43921371Y-17713342D01*
X43826133Y-17760961D01*
X43778514Y-17856200D01*
X43778514Y-18046676D01*
X43826133Y-18141914D01*
X44397561Y-17713342D02*
X44445180Y-17808580D01*
X44445180Y-18046676D01*
X44397561Y-18141914D01*
X44302323Y-18189533D01*
X44207085Y-18189533D01*
X44111847Y-18141914D01*
X44064228Y-18046676D01*
X44064228Y-17808580D01*
X44016609Y-17713342D01*
X43778514Y-17332390D02*
X44445180Y-17094295D01*
X43778514Y-16856200D01*
X44397561Y-16094295D02*
X44445180Y-16189533D01*
X44445180Y-16380009D01*
X44397561Y-16475247D01*
X44302323Y-16522866D01*
X43921371Y-16522866D01*
X43826133Y-16475247D01*
X43778514Y-16380009D01*
X43778514Y-16189533D01*
X43826133Y-16094295D01*
X43921371Y-16046676D01*
X44016609Y-16046676D01*
X44111847Y-16522866D01*
X58948580Y-19689485D02*
X57948580Y-19689485D01*
X58662866Y-19356152D01*
X57948580Y-19022819D01*
X58948580Y-19022819D01*
X58948580Y-18118057D02*
X58424771Y-18118057D01*
X58329533Y-18165676D01*
X58281914Y-18260914D01*
X58281914Y-18451390D01*
X58329533Y-18546628D01*
X58900961Y-18118057D02*
X58948580Y-18213295D01*
X58948580Y-18451390D01*
X58900961Y-18546628D01*
X58805723Y-18594247D01*
X58710485Y-18594247D01*
X58615247Y-18546628D01*
X58567628Y-18451390D01*
X58567628Y-18213295D01*
X58520009Y-18118057D01*
X58900961Y-17689485D02*
X58948580Y-17594247D01*
X58948580Y-17403771D01*
X58900961Y-17308533D01*
X58805723Y-17260914D01*
X58758104Y-17260914D01*
X58662866Y-17308533D01*
X58615247Y-17403771D01*
X58615247Y-17546628D01*
X58567628Y-17641866D01*
X58472390Y-17689485D01*
X58424771Y-17689485D01*
X58329533Y-17641866D01*
X58281914Y-17546628D01*
X58281914Y-17403771D01*
X58329533Y-17308533D01*
X58281914Y-16975200D02*
X58281914Y-16594247D01*
X57948580Y-16832342D02*
X58805723Y-16832342D01*
X58900961Y-16784723D01*
X58948580Y-16689485D01*
X58948580Y-16594247D01*
X58900961Y-15879961D02*
X58948580Y-15975200D01*
X58948580Y-16165676D01*
X58900961Y-16260914D01*
X58805723Y-16308533D01*
X58424771Y-16308533D01*
X58329533Y-16260914D01*
X58281914Y-16165676D01*
X58281914Y-15975200D01*
X58329533Y-15879961D01*
X58424771Y-15832342D01*
X58520009Y-15832342D01*
X58615247Y-16308533D01*
X58948580Y-15403771D02*
X58281914Y-15403771D01*
X58472390Y-15403771D02*
X58377152Y-15356152D01*
X58329533Y-15308533D01*
X58281914Y-15213295D01*
X58281914Y-15118057D01*
X51844019Y-5625438D02*
X51796400Y-5720676D01*
X51701161Y-5815914D01*
X51558304Y-5958771D01*
X51510685Y-6054009D01*
X51510685Y-6149247D01*
X51748780Y-6101628D02*
X51701161Y-6196866D01*
X51605923Y-6292104D01*
X51415447Y-6339723D01*
X51082114Y-6339723D01*
X50891638Y-6292104D01*
X50796400Y-6196866D01*
X50748780Y-6101628D01*
X50748780Y-5911152D01*
X50796400Y-5815914D01*
X50891638Y-5720676D01*
X51082114Y-5673057D01*
X51415447Y-5673057D01*
X51605923Y-5720676D01*
X51701161Y-5815914D01*
X51748780Y-5911152D01*
X51748780Y-6101628D01*
X51748780Y-4720676D02*
X51748780Y-5292104D01*
X51748780Y-5006390D02*
X50748780Y-5006390D01*
X50891638Y-5101628D01*
X50986876Y-5196866D01*
X51034495Y-5292104D01*
X23154761Y-1347619D02*
X23059523Y-1300000D01*
X22964285Y-1204761D01*
X22821428Y-1061904D01*
X22726190Y-1014285D01*
X22630952Y-1014285D01*
X22678571Y-1252380D02*
X22583333Y-1204761D01*
X22488095Y-1109523D01*
X22440476Y-919047D01*
X22440476Y-585714D01*
X22488095Y-395238D01*
X22583333Y-300000D01*
X22678571Y-252380D01*
X22869047Y-252380D01*
X22964285Y-300000D01*
X23059523Y-395238D01*
X23107142Y-585714D01*
X23107142Y-919047D01*
X23059523Y-1109523D01*
X22964285Y-1204761D01*
X22869047Y-1252380D01*
X22678571Y-1252380D01*
X23488095Y-347619D02*
X23535714Y-300000D01*
X23630952Y-252380D01*
X23869047Y-252380D01*
X23964285Y-300000D01*
X24011904Y-347619D01*
X24059523Y-442857D01*
X24059523Y-538095D01*
X24011904Y-680952D01*
X23440476Y-1252380D01*
X24059523Y-1252380D01*
X23154761Y-9047619D02*
X23059523Y-9000000D01*
X22964285Y-8904761D01*
X22821428Y-8761904D01*
X22726190Y-8714285D01*
X22630952Y-8714285D01*
X22678571Y-8952380D02*
X22583333Y-8904761D01*
X22488095Y-8809523D01*
X22440476Y-8619047D01*
X22440476Y-8285714D01*
X22488095Y-8095238D01*
X22583333Y-8000000D01*
X22678571Y-7952380D01*
X22869047Y-7952380D01*
X22964285Y-8000000D01*
X23059523Y-8095238D01*
X23107142Y-8285714D01*
X23107142Y-8619047D01*
X23059523Y-8809523D01*
X22964285Y-8904761D01*
X22869047Y-8952380D01*
X22678571Y-8952380D01*
X23440476Y-7952380D02*
X24059523Y-7952380D01*
X23726190Y-8333333D01*
X23869047Y-8333333D01*
X23964285Y-8380952D01*
X24011904Y-8428571D01*
X24059523Y-8523809D01*
X24059523Y-8761904D01*
X24011904Y-8857142D01*
X23964285Y-8904761D01*
X23869047Y-8952380D01*
X23583333Y-8952380D01*
X23488095Y-8904761D01*
X23440476Y-8857142D01*
X23154761Y-16797619D02*
X23059523Y-16750000D01*
X22964285Y-16654761D01*
X22821428Y-16511904D01*
X22726190Y-16464285D01*
X22630952Y-16464285D01*
X22678571Y-16702380D02*
X22583333Y-16654761D01*
X22488095Y-16559523D01*
X22440476Y-16369047D01*
X22440476Y-16035714D01*
X22488095Y-15845238D01*
X22583333Y-15750000D01*
X22678571Y-15702380D01*
X22869047Y-15702380D01*
X22964285Y-15750000D01*
X23059523Y-15845238D01*
X23107142Y-16035714D01*
X23107142Y-16369047D01*
X23059523Y-16559523D01*
X22964285Y-16654761D01*
X22869047Y-16702380D01*
X22678571Y-16702380D01*
X23964285Y-16035714D02*
X23964285Y-16702380D01*
X23726190Y-15654761D02*
X23488095Y-16369047D01*
X24107142Y-16369047D01*
X23154761Y-24497619D02*
X23059523Y-24450000D01*
X22964285Y-24354761D01*
X22821428Y-24211904D01*
X22726190Y-24164285D01*
X22630952Y-24164285D01*
X22678571Y-24402380D02*
X22583333Y-24354761D01*
X22488095Y-24259523D01*
X22440476Y-24069047D01*
X22440476Y-23735714D01*
X22488095Y-23545238D01*
X22583333Y-23450000D01*
X22678571Y-23402380D01*
X22869047Y-23402380D01*
X22964285Y-23450000D01*
X23059523Y-23545238D01*
X23107142Y-23735714D01*
X23107142Y-24069047D01*
X23059523Y-24259523D01*
X22964285Y-24354761D01*
X22869047Y-24402380D01*
X22678571Y-24402380D01*
X24011904Y-23402380D02*
X23535714Y-23402380D01*
X23488095Y-23878571D01*
X23535714Y-23830952D01*
X23630952Y-23783333D01*
X23869047Y-23783333D01*
X23964285Y-23830952D01*
X24011904Y-23878571D01*
X24059523Y-23973809D01*
X24059523Y-24211904D01*
X24011904Y-24307142D01*
X23964285Y-24354761D01*
X23869047Y-24402380D01*
X23630952Y-24402380D01*
X23535714Y-24354761D01*
X23488095Y-24307142D01*
X23154761Y-32197619D02*
X23059523Y-32150000D01*
X22964285Y-32054761D01*
X22821428Y-31911904D01*
X22726190Y-31864285D01*
X22630952Y-31864285D01*
X22678571Y-32102380D02*
X22583333Y-32054761D01*
X22488095Y-31959523D01*
X22440476Y-31769047D01*
X22440476Y-31435714D01*
X22488095Y-31245238D01*
X22583333Y-31150000D01*
X22678571Y-31102380D01*
X22869047Y-31102380D01*
X22964285Y-31150000D01*
X23059523Y-31245238D01*
X23107142Y-31435714D01*
X23107142Y-31769047D01*
X23059523Y-31959523D01*
X22964285Y-32054761D01*
X22869047Y-32102380D01*
X22678571Y-32102380D01*
X23964285Y-31102380D02*
X23773809Y-31102380D01*
X23678571Y-31150000D01*
X23630952Y-31197619D01*
X23535714Y-31340476D01*
X23488095Y-31530952D01*
X23488095Y-31911904D01*
X23535714Y-32007142D01*
X23583333Y-32054761D01*
X23678571Y-32102380D01*
X23869047Y-32102380D01*
X23964285Y-32054761D01*
X24011904Y-32007142D01*
X24059523Y-31911904D01*
X24059523Y-31673809D01*
X24011904Y-31578571D01*
X23964285Y-31530952D01*
X23869047Y-31483333D01*
X23678571Y-31483333D01*
X23583333Y-31530952D01*
X23535714Y-31578571D01*
X23488095Y-31673809D01*
X23154761Y-39897619D02*
X23059523Y-39850000D01*
X22964285Y-39754761D01*
X22821428Y-39611904D01*
X22726190Y-39564285D01*
X22630952Y-39564285D01*
X22678571Y-39802380D02*
X22583333Y-39754761D01*
X22488095Y-39659523D01*
X22440476Y-39469047D01*
X22440476Y-39135714D01*
X22488095Y-38945238D01*
X22583333Y-38850000D01*
X22678571Y-38802380D01*
X22869047Y-38802380D01*
X22964285Y-38850000D01*
X23059523Y-38945238D01*
X23107142Y-39135714D01*
X23107142Y-39469047D01*
X23059523Y-39659523D01*
X22964285Y-39754761D01*
X22869047Y-39802380D01*
X22678571Y-39802380D01*
X23440476Y-38802380D02*
X24107142Y-38802380D01*
X23678571Y-39802380D01*
X23154761Y-47697619D02*
X23059523Y-47650000D01*
X22964285Y-47554761D01*
X22821428Y-47411904D01*
X22726190Y-47364285D01*
X22630952Y-47364285D01*
X22678571Y-47602380D02*
X22583333Y-47554761D01*
X22488095Y-47459523D01*
X22440476Y-47269047D01*
X22440476Y-46935714D01*
X22488095Y-46745238D01*
X22583333Y-46650000D01*
X22678571Y-46602380D01*
X22869047Y-46602380D01*
X22964285Y-46650000D01*
X23059523Y-46745238D01*
X23107142Y-46935714D01*
X23107142Y-47269047D01*
X23059523Y-47459523D01*
X22964285Y-47554761D01*
X22869047Y-47602380D01*
X22678571Y-47602380D01*
X23678571Y-47030952D02*
X23583333Y-46983333D01*
X23535714Y-46935714D01*
X23488095Y-46840476D01*
X23488095Y-46792857D01*
X23535714Y-46697619D01*
X23583333Y-46650000D01*
X23678571Y-46602380D01*
X23869047Y-46602380D01*
X23964285Y-46650000D01*
X24011904Y-46697619D01*
X24059523Y-46792857D01*
X24059523Y-46840476D01*
X24011904Y-46935714D01*
X23964285Y-46983333D01*
X23869047Y-47030952D01*
X23678571Y-47030952D01*
X23583333Y-47078571D01*
X23535714Y-47126190D01*
X23488095Y-47221428D01*
X23488095Y-47411904D01*
X23535714Y-47507142D01*
X23583333Y-47554761D01*
X23678571Y-47602380D01*
X23869047Y-47602380D01*
X23964285Y-47554761D01*
X24011904Y-47507142D01*
X24059523Y-47411904D01*
X24059523Y-47221428D01*
X24011904Y-47126190D01*
X23964285Y-47078571D01*
X23869047Y-47030952D01*
X23204761Y-55397619D02*
X23109523Y-55350000D01*
X23014285Y-55254761D01*
X22871428Y-55111904D01*
X22776190Y-55064285D01*
X22680952Y-55064285D01*
X22728571Y-55302380D02*
X22633333Y-55254761D01*
X22538095Y-55159523D01*
X22490476Y-54969047D01*
X22490476Y-54635714D01*
X22538095Y-54445238D01*
X22633333Y-54350000D01*
X22728571Y-54302380D01*
X22919047Y-54302380D01*
X23014285Y-54350000D01*
X23109523Y-54445238D01*
X23157142Y-54635714D01*
X23157142Y-54969047D01*
X23109523Y-55159523D01*
X23014285Y-55254761D01*
X22919047Y-55302380D01*
X22728571Y-55302380D01*
X23633333Y-55302380D02*
X23823809Y-55302380D01*
X23919047Y-55254761D01*
X23966666Y-55207142D01*
X24061904Y-55064285D01*
X24109523Y-54873809D01*
X24109523Y-54492857D01*
X24061904Y-54397619D01*
X24014285Y-54350000D01*
X23919047Y-54302380D01*
X23728571Y-54302380D01*
X23633333Y-54350000D01*
X23585714Y-54397619D01*
X23538095Y-54492857D01*
X23538095Y-54730952D01*
X23585714Y-54826190D01*
X23633333Y-54873809D01*
X23728571Y-54921428D01*
X23919047Y-54921428D01*
X24014285Y-54873809D01*
X24061904Y-54826190D01*
X24109523Y-54730952D01*
X22678571Y-63097619D02*
X22583333Y-63050000D01*
X22488095Y-62954761D01*
X22345238Y-62811904D01*
X22250000Y-62764285D01*
X22154761Y-62764285D01*
X22202380Y-63002380D02*
X22107142Y-62954761D01*
X22011904Y-62859523D01*
X21964285Y-62669047D01*
X21964285Y-62335714D01*
X22011904Y-62145238D01*
X22107142Y-62050000D01*
X22202380Y-62002380D01*
X22392857Y-62002380D01*
X22488095Y-62050000D01*
X22583333Y-62145238D01*
X22630952Y-62335714D01*
X22630952Y-62669047D01*
X22583333Y-62859523D01*
X22488095Y-62954761D01*
X22392857Y-63002380D01*
X22202380Y-63002380D01*
X23583333Y-63002380D02*
X23011904Y-63002380D01*
X23297619Y-63002380D02*
X23297619Y-62002380D01*
X23202380Y-62145238D01*
X23107142Y-62240476D01*
X23011904Y-62288095D01*
X24202380Y-62002380D02*
X24297619Y-62002380D01*
X24392857Y-62050000D01*
X24440476Y-62097619D01*
X24488095Y-62192857D01*
X24535714Y-62383333D01*
X24535714Y-62621428D01*
X24488095Y-62811904D01*
X24440476Y-62907142D01*
X24392857Y-62954761D01*
X24297619Y-63002380D01*
X24202380Y-63002380D01*
X24107142Y-62954761D01*
X24059523Y-62907142D01*
X24011904Y-62811904D01*
X23964285Y-62621428D01*
X23964285Y-62383333D01*
X24011904Y-62192857D01*
X24059523Y-62097619D01*
X24107142Y-62050000D01*
X24202380Y-62002380D01*
X22678571Y-70797619D02*
X22583333Y-70750000D01*
X22488095Y-70654761D01*
X22345238Y-70511904D01*
X22250000Y-70464285D01*
X22154761Y-70464285D01*
X22202380Y-70702380D02*
X22107142Y-70654761D01*
X22011904Y-70559523D01*
X21964285Y-70369047D01*
X21964285Y-70035714D01*
X22011904Y-69845238D01*
X22107142Y-69750000D01*
X22202380Y-69702380D01*
X22392857Y-69702380D01*
X22488095Y-69750000D01*
X22583333Y-69845238D01*
X22630952Y-70035714D01*
X22630952Y-70369047D01*
X22583333Y-70559523D01*
X22488095Y-70654761D01*
X22392857Y-70702380D01*
X22202380Y-70702380D01*
X23583333Y-70702380D02*
X23011904Y-70702380D01*
X23297619Y-70702380D02*
X23297619Y-69702380D01*
X23202380Y-69845238D01*
X23107142Y-69940476D01*
X23011904Y-69988095D01*
X24535714Y-70702380D02*
X23964285Y-70702380D01*
X24250000Y-70702380D02*
X24250000Y-69702380D01*
X24154761Y-69845238D01*
X24059523Y-69940476D01*
X23964285Y-69988095D01*
X22678571Y-78497619D02*
X22583333Y-78450000D01*
X22488095Y-78354761D01*
X22345238Y-78211904D01*
X22250000Y-78164285D01*
X22154761Y-78164285D01*
X22202380Y-78402380D02*
X22107142Y-78354761D01*
X22011904Y-78259523D01*
X21964285Y-78069047D01*
X21964285Y-77735714D01*
X22011904Y-77545238D01*
X22107142Y-77450000D01*
X22202380Y-77402380D01*
X22392857Y-77402380D01*
X22488095Y-77450000D01*
X22583333Y-77545238D01*
X22630952Y-77735714D01*
X22630952Y-78069047D01*
X22583333Y-78259523D01*
X22488095Y-78354761D01*
X22392857Y-78402380D01*
X22202380Y-78402380D01*
X23583333Y-78402380D02*
X23011904Y-78402380D01*
X23297619Y-78402380D02*
X23297619Y-77402380D01*
X23202380Y-77545238D01*
X23107142Y-77640476D01*
X23011904Y-77688095D01*
X23964285Y-77497619D02*
X24011904Y-77450000D01*
X24107142Y-77402380D01*
X24345238Y-77402380D01*
X24440476Y-77450000D01*
X24488095Y-77497619D01*
X24535714Y-77592857D01*
X24535714Y-77688095D01*
X24488095Y-77830952D01*
X23916666Y-78402380D01*
X24535714Y-78402380D01*
X22678571Y-86497619D02*
X22583333Y-86450000D01*
X22488095Y-86354761D01*
X22345238Y-86211904D01*
X22250000Y-86164285D01*
X22154761Y-86164285D01*
X22202380Y-86402380D02*
X22107142Y-86354761D01*
X22011904Y-86259523D01*
X21964285Y-86069047D01*
X21964285Y-85735714D01*
X22011904Y-85545238D01*
X22107142Y-85450000D01*
X22202380Y-85402380D01*
X22392857Y-85402380D01*
X22488095Y-85450000D01*
X22583333Y-85545238D01*
X22630952Y-85735714D01*
X22630952Y-86069047D01*
X22583333Y-86259523D01*
X22488095Y-86354761D01*
X22392857Y-86402380D01*
X22202380Y-86402380D01*
X23583333Y-86402380D02*
X23011904Y-86402380D01*
X23297619Y-86402380D02*
X23297619Y-85402380D01*
X23202380Y-85545238D01*
X23107142Y-85640476D01*
X23011904Y-85688095D01*
X23916666Y-85402380D02*
X24535714Y-85402380D01*
X24202380Y-85783333D01*
X24345238Y-85783333D01*
X24440476Y-85830952D01*
X24488095Y-85878571D01*
X24535714Y-85973809D01*
X24535714Y-86211904D01*
X24488095Y-86307142D01*
X24440476Y-86354761D01*
X24345238Y-86402380D01*
X24059523Y-86402380D01*
X23964285Y-86354761D01*
X23916666Y-86307142D01*
X46248580Y-1423666D02*
X45772390Y-1757000D01*
X46248580Y-1995095D02*
X45248580Y-1995095D01*
X45248580Y-1614142D01*
X45296200Y-1518904D01*
X45343819Y-1471285D01*
X45439057Y-1423666D01*
X45581914Y-1423666D01*
X45677152Y-1471285D01*
X45724771Y-1518904D01*
X45772390Y-1614142D01*
X45772390Y-1995095D01*
X46248580Y-471285D02*
X46248580Y-1042714D01*
X46248580Y-757000D02*
X45248580Y-757000D01*
X45391438Y-852238D01*
X45486676Y-947476D01*
X45534295Y-1042714D01*
X44636580Y-1347466D02*
X44160390Y-1680800D01*
X44636580Y-1918895D02*
X43636580Y-1918895D01*
X43636580Y-1537942D01*
X43684200Y-1442704D01*
X43731819Y-1395085D01*
X43827057Y-1347466D01*
X43969914Y-1347466D01*
X44065152Y-1395085D01*
X44112771Y-1442704D01*
X44160390Y-1537942D01*
X44160390Y-1918895D01*
X43731819Y-966514D02*
X43684200Y-918895D01*
X43636580Y-823657D01*
X43636580Y-585561D01*
X43684200Y-490323D01*
X43731819Y-442704D01*
X43827057Y-395085D01*
X43922295Y-395085D01*
X44065152Y-442704D01*
X44636580Y-1014133D01*
X44636580Y-395085D01*
X54496780Y-48822266D02*
X54020590Y-49155600D01*
X54496780Y-49393695D02*
X53496780Y-49393695D01*
X53496780Y-49012742D01*
X53544400Y-48917504D01*
X53592019Y-48869885D01*
X53687257Y-48822266D01*
X53830114Y-48822266D01*
X53925352Y-48869885D01*
X53972971Y-48917504D01*
X54020590Y-49012742D01*
X54020590Y-49393695D01*
X53496780Y-48488933D02*
X53496780Y-47869885D01*
X53877733Y-48203219D01*
X53877733Y-48060361D01*
X53925352Y-47965123D01*
X53972971Y-47917504D01*
X54068209Y-47869885D01*
X54306304Y-47869885D01*
X54401542Y-47917504D01*
X54449161Y-47965123D01*
X54496780Y-48060361D01*
X54496780Y-48346076D01*
X54449161Y-48441314D01*
X54401542Y-48488933D01*
X52996780Y-48822266D02*
X52520590Y-49155600D01*
X52996780Y-49393695D02*
X51996780Y-49393695D01*
X51996780Y-49012742D01*
X52044400Y-48917504D01*
X52092019Y-48869885D01*
X52187257Y-48822266D01*
X52330114Y-48822266D01*
X52425352Y-48869885D01*
X52472971Y-48917504D01*
X52520590Y-49012742D01*
X52520590Y-49393695D01*
X52330114Y-47965123D02*
X52996780Y-47965123D01*
X51949161Y-48203219D02*
X52663447Y-48441314D01*
X52663447Y-47822266D01*
X51039733Y-44548980D02*
X50706400Y-44072790D01*
X50468304Y-44548980D02*
X50468304Y-43548980D01*
X50849257Y-43548980D01*
X50944495Y-43596600D01*
X50992114Y-43644219D01*
X51039733Y-43739457D01*
X51039733Y-43882314D01*
X50992114Y-43977552D01*
X50944495Y-44025171D01*
X50849257Y-44072790D01*
X50468304Y-44072790D01*
X51944495Y-43548980D02*
X51468304Y-43548980D01*
X51420685Y-44025171D01*
X51468304Y-43977552D01*
X51563542Y-43929933D01*
X51801638Y-43929933D01*
X51896876Y-43977552D01*
X51944495Y-44025171D01*
X51992114Y-44120409D01*
X51992114Y-44358504D01*
X51944495Y-44453742D01*
X51896876Y-44501361D01*
X51801638Y-44548980D01*
X51563542Y-44548980D01*
X51468304Y-44501361D01*
X51420685Y-44453742D01*
X57313533Y-38780980D02*
X56980200Y-38304790D01*
X56742104Y-38780980D02*
X56742104Y-37780980D01*
X57123057Y-37780980D01*
X57218295Y-37828600D01*
X57265914Y-37876219D01*
X57313533Y-37971457D01*
X57313533Y-38114314D01*
X57265914Y-38209552D01*
X57218295Y-38257171D01*
X57123057Y-38304790D01*
X56742104Y-38304790D01*
X58170676Y-37780980D02*
X57980200Y-37780980D01*
X57884961Y-37828600D01*
X57837342Y-37876219D01*
X57742104Y-38019076D01*
X57694485Y-38209552D01*
X57694485Y-38590504D01*
X57742104Y-38685742D01*
X57789723Y-38733361D01*
X57884961Y-38780980D01*
X58075438Y-38780980D01*
X58170676Y-38733361D01*
X58218295Y-38685742D01*
X58265914Y-38590504D01*
X58265914Y-38352409D01*
X58218295Y-38257171D01*
X58170676Y-38209552D01*
X58075438Y-38161933D01*
X57884961Y-38161933D01*
X57789723Y-38209552D01*
X57742104Y-38257171D01*
X57694485Y-38352409D01*
X26407142Y-1752380D02*
X26073809Y-1276190D01*
X25835714Y-1752380D02*
X25835714Y-752380D01*
X26216666Y-752380D01*
X26311904Y-800000D01*
X26359523Y-847619D01*
X26407142Y-942857D01*
X26407142Y-1085714D01*
X26359523Y-1180952D01*
X26311904Y-1228571D01*
X26216666Y-1276190D01*
X25835714Y-1276190D01*
X27359523Y-1752380D02*
X26788095Y-1752380D01*
X27073809Y-1752380D02*
X27073809Y-752380D01*
X26978571Y-895238D01*
X26883333Y-990476D01*
X26788095Y-1038095D01*
X27692857Y-752380D02*
X28311904Y-752380D01*
X27978571Y-1133333D01*
X28121428Y-1133333D01*
X28216666Y-1180952D01*
X28264285Y-1228571D01*
X28311904Y-1323809D01*
X28311904Y-1561904D01*
X28264285Y-1657142D01*
X28216666Y-1704761D01*
X28121428Y-1752380D01*
X27835714Y-1752380D01*
X27740476Y-1704761D01*
X27692857Y-1657142D01*
X26607142Y-6652380D02*
X26273809Y-6176190D01*
X26035714Y-6652380D02*
X26035714Y-5652380D01*
X26416666Y-5652380D01*
X26511904Y-5700000D01*
X26559523Y-5747619D01*
X26607142Y-5842857D01*
X26607142Y-5985714D01*
X26559523Y-6080952D01*
X26511904Y-6128571D01*
X26416666Y-6176190D01*
X26035714Y-6176190D01*
X27559523Y-6652380D02*
X26988095Y-6652380D01*
X27273809Y-6652380D02*
X27273809Y-5652380D01*
X27178571Y-5795238D01*
X27083333Y-5890476D01*
X26988095Y-5938095D01*
X28416666Y-5985714D02*
X28416666Y-6652380D01*
X28178571Y-5604761D02*
X27940476Y-6319047D01*
X28559523Y-6319047D01*
X26607142Y-9652380D02*
X26273809Y-9176190D01*
X26035714Y-9652380D02*
X26035714Y-8652380D01*
X26416666Y-8652380D01*
X26511904Y-8700000D01*
X26559523Y-8747619D01*
X26607142Y-8842857D01*
X26607142Y-8985714D01*
X26559523Y-9080952D01*
X26511904Y-9128571D01*
X26416666Y-9176190D01*
X26035714Y-9176190D01*
X27559523Y-9652380D02*
X26988095Y-9652380D01*
X27273809Y-9652380D02*
X27273809Y-8652380D01*
X27178571Y-8795238D01*
X27083333Y-8890476D01*
X26988095Y-8938095D01*
X28416666Y-8652380D02*
X28226190Y-8652380D01*
X28130952Y-8700000D01*
X28083333Y-8747619D01*
X27988095Y-8890476D01*
X27940476Y-9080952D01*
X27940476Y-9461904D01*
X27988095Y-9557142D01*
X28035714Y-9604761D01*
X28130952Y-9652380D01*
X28321428Y-9652380D01*
X28416666Y-9604761D01*
X28464285Y-9557142D01*
X28511904Y-9461904D01*
X28511904Y-9223809D01*
X28464285Y-9128571D01*
X28416666Y-9080952D01*
X28321428Y-9033333D01*
X28130952Y-9033333D01*
X28035714Y-9080952D01*
X27988095Y-9128571D01*
X27940476Y-9223809D01*
X26607142Y-14352380D02*
X26273809Y-13876190D01*
X26035714Y-14352380D02*
X26035714Y-13352380D01*
X26416666Y-13352380D01*
X26511904Y-13400000D01*
X26559523Y-13447619D01*
X26607142Y-13542857D01*
X26607142Y-13685714D01*
X26559523Y-13780952D01*
X26511904Y-13828571D01*
X26416666Y-13876190D01*
X26035714Y-13876190D01*
X27559523Y-14352380D02*
X26988095Y-14352380D01*
X27273809Y-14352380D02*
X27273809Y-13352380D01*
X27178571Y-13495238D01*
X27083333Y-13590476D01*
X26988095Y-13638095D01*
X27892857Y-13352380D02*
X28559523Y-13352380D01*
X28130952Y-14352380D01*
X26607142Y-17402380D02*
X26273809Y-16926190D01*
X26035714Y-17402380D02*
X26035714Y-16402380D01*
X26416666Y-16402380D01*
X26511904Y-16450000D01*
X26559523Y-16497619D01*
X26607142Y-16592857D01*
X26607142Y-16735714D01*
X26559523Y-16830952D01*
X26511904Y-16878571D01*
X26416666Y-16926190D01*
X26035714Y-16926190D01*
X27559523Y-17402380D02*
X26988095Y-17402380D01*
X27273809Y-17402380D02*
X27273809Y-16402380D01*
X27178571Y-16545238D01*
X27083333Y-16640476D01*
X26988095Y-16688095D01*
X28035714Y-17402380D02*
X28226190Y-17402380D01*
X28321428Y-17354761D01*
X28369047Y-17307142D01*
X28464285Y-17164285D01*
X28511904Y-16973809D01*
X28511904Y-16592857D01*
X28464285Y-16497619D01*
X28416666Y-16450000D01*
X28321428Y-16402380D01*
X28130952Y-16402380D01*
X28035714Y-16450000D01*
X27988095Y-16497619D01*
X27940476Y-16592857D01*
X27940476Y-16830952D01*
X27988095Y-16926190D01*
X28035714Y-16973809D01*
X28130952Y-17021428D01*
X28321428Y-17021428D01*
X28416666Y-16973809D01*
X28464285Y-16926190D01*
X28511904Y-16830952D01*
X26607142Y-22102380D02*
X26273809Y-21626190D01*
X26035714Y-22102380D02*
X26035714Y-21102380D01*
X26416666Y-21102380D01*
X26511904Y-21150000D01*
X26559523Y-21197619D01*
X26607142Y-21292857D01*
X26607142Y-21435714D01*
X26559523Y-21530952D01*
X26511904Y-21578571D01*
X26416666Y-21626190D01*
X26035714Y-21626190D01*
X26988095Y-21197619D02*
X27035714Y-21150000D01*
X27130952Y-21102380D01*
X27369047Y-21102380D01*
X27464285Y-21150000D01*
X27511904Y-21197619D01*
X27559523Y-21292857D01*
X27559523Y-21388095D01*
X27511904Y-21530952D01*
X26940476Y-22102380D01*
X27559523Y-22102380D01*
X28178571Y-21102380D02*
X28273809Y-21102380D01*
X28369047Y-21150000D01*
X28416666Y-21197619D01*
X28464285Y-21292857D01*
X28511904Y-21483333D01*
X28511904Y-21721428D01*
X28464285Y-21911904D01*
X28416666Y-22007142D01*
X28369047Y-22054761D01*
X28273809Y-22102380D01*
X28178571Y-22102380D01*
X28083333Y-22054761D01*
X28035714Y-22007142D01*
X27988095Y-21911904D01*
X27940476Y-21721428D01*
X27940476Y-21483333D01*
X27988095Y-21292857D01*
X28035714Y-21197619D01*
X28083333Y-21150000D01*
X28178571Y-21102380D01*
X26607142Y-25102380D02*
X26273809Y-24626190D01*
X26035714Y-25102380D02*
X26035714Y-24102380D01*
X26416666Y-24102380D01*
X26511904Y-24150000D01*
X26559523Y-24197619D01*
X26607142Y-24292857D01*
X26607142Y-24435714D01*
X26559523Y-24530952D01*
X26511904Y-24578571D01*
X26416666Y-24626190D01*
X26035714Y-24626190D01*
X26988095Y-24197619D02*
X27035714Y-24150000D01*
X27130952Y-24102380D01*
X27369047Y-24102380D01*
X27464285Y-24150000D01*
X27511904Y-24197619D01*
X27559523Y-24292857D01*
X27559523Y-24388095D01*
X27511904Y-24530952D01*
X26940476Y-25102380D01*
X27559523Y-25102380D01*
X27940476Y-24197619D02*
X27988095Y-24150000D01*
X28083333Y-24102380D01*
X28321428Y-24102380D01*
X28416666Y-24150000D01*
X28464285Y-24197619D01*
X28511904Y-24292857D01*
X28511904Y-24388095D01*
X28464285Y-24530952D01*
X27892857Y-25102380D01*
X28511904Y-25102380D01*
X26607142Y-29802380D02*
X26273809Y-29326190D01*
X26035714Y-29802380D02*
X26035714Y-28802380D01*
X26416666Y-28802380D01*
X26511904Y-28850000D01*
X26559523Y-28897619D01*
X26607142Y-28992857D01*
X26607142Y-29135714D01*
X26559523Y-29230952D01*
X26511904Y-29278571D01*
X26416666Y-29326190D01*
X26035714Y-29326190D01*
X26988095Y-28897619D02*
X27035714Y-28850000D01*
X27130952Y-28802380D01*
X27369047Y-28802380D01*
X27464285Y-28850000D01*
X27511904Y-28897619D01*
X27559523Y-28992857D01*
X27559523Y-29088095D01*
X27511904Y-29230952D01*
X26940476Y-29802380D01*
X27559523Y-29802380D01*
X27892857Y-28802380D02*
X28511904Y-28802380D01*
X28178571Y-29183333D01*
X28321428Y-29183333D01*
X28416666Y-29230952D01*
X28464285Y-29278571D01*
X28511904Y-29373809D01*
X28511904Y-29611904D01*
X28464285Y-29707142D01*
X28416666Y-29754761D01*
X28321428Y-29802380D01*
X28035714Y-29802380D01*
X27940476Y-29754761D01*
X27892857Y-29707142D01*
X26607142Y-32802380D02*
X26273809Y-32326190D01*
X26035714Y-32802380D02*
X26035714Y-31802380D01*
X26416666Y-31802380D01*
X26511904Y-31850000D01*
X26559523Y-31897619D01*
X26607142Y-31992857D01*
X26607142Y-32135714D01*
X26559523Y-32230952D01*
X26511904Y-32278571D01*
X26416666Y-32326190D01*
X26035714Y-32326190D01*
X26988095Y-31897619D02*
X27035714Y-31850000D01*
X27130952Y-31802380D01*
X27369047Y-31802380D01*
X27464285Y-31850000D01*
X27511904Y-31897619D01*
X27559523Y-31992857D01*
X27559523Y-32088095D01*
X27511904Y-32230952D01*
X26940476Y-32802380D01*
X27559523Y-32802380D01*
X28464285Y-31802380D02*
X27988095Y-31802380D01*
X27940476Y-32278571D01*
X27988095Y-32230952D01*
X28083333Y-32183333D01*
X28321428Y-32183333D01*
X28416666Y-32230952D01*
X28464285Y-32278571D01*
X28511904Y-32373809D01*
X28511904Y-32611904D01*
X28464285Y-32707142D01*
X28416666Y-32754761D01*
X28321428Y-32802380D01*
X28083333Y-32802380D01*
X27988095Y-32754761D01*
X27940476Y-32707142D01*
X26607142Y-37602380D02*
X26273809Y-37126190D01*
X26035714Y-37602380D02*
X26035714Y-36602380D01*
X26416666Y-36602380D01*
X26511904Y-36650000D01*
X26559523Y-36697619D01*
X26607142Y-36792857D01*
X26607142Y-36935714D01*
X26559523Y-37030952D01*
X26511904Y-37078571D01*
X26416666Y-37126190D01*
X26035714Y-37126190D01*
X26988095Y-36697619D02*
X27035714Y-36650000D01*
X27130952Y-36602380D01*
X27369047Y-36602380D01*
X27464285Y-36650000D01*
X27511904Y-36697619D01*
X27559523Y-36792857D01*
X27559523Y-36888095D01*
X27511904Y-37030952D01*
X26940476Y-37602380D01*
X27559523Y-37602380D01*
X28416666Y-36602380D02*
X28226190Y-36602380D01*
X28130952Y-36650000D01*
X28083333Y-36697619D01*
X27988095Y-36840476D01*
X27940476Y-37030952D01*
X27940476Y-37411904D01*
X27988095Y-37507142D01*
X28035714Y-37554761D01*
X28130952Y-37602380D01*
X28321428Y-37602380D01*
X28416666Y-37554761D01*
X28464285Y-37507142D01*
X28511904Y-37411904D01*
X28511904Y-37173809D01*
X28464285Y-37078571D01*
X28416666Y-37030952D01*
X28321428Y-36983333D01*
X28130952Y-36983333D01*
X28035714Y-37030952D01*
X27988095Y-37078571D01*
X27940476Y-37173809D01*
X26607142Y-40502380D02*
X26273809Y-40026190D01*
X26035714Y-40502380D02*
X26035714Y-39502380D01*
X26416666Y-39502380D01*
X26511904Y-39550000D01*
X26559523Y-39597619D01*
X26607142Y-39692857D01*
X26607142Y-39835714D01*
X26559523Y-39930952D01*
X26511904Y-39978571D01*
X26416666Y-40026190D01*
X26035714Y-40026190D01*
X26988095Y-39597619D02*
X27035714Y-39550000D01*
X27130952Y-39502380D01*
X27369047Y-39502380D01*
X27464285Y-39550000D01*
X27511904Y-39597619D01*
X27559523Y-39692857D01*
X27559523Y-39788095D01*
X27511904Y-39930952D01*
X26940476Y-40502380D01*
X27559523Y-40502380D01*
X28130952Y-39930952D02*
X28035714Y-39883333D01*
X27988095Y-39835714D01*
X27940476Y-39740476D01*
X27940476Y-39692857D01*
X27988095Y-39597619D01*
X28035714Y-39550000D01*
X28130952Y-39502380D01*
X28321428Y-39502380D01*
X28416666Y-39550000D01*
X28464285Y-39597619D01*
X28511904Y-39692857D01*
X28511904Y-39740476D01*
X28464285Y-39835714D01*
X28416666Y-39883333D01*
X28321428Y-39930952D01*
X28130952Y-39930952D01*
X28035714Y-39978571D01*
X27988095Y-40026190D01*
X27940476Y-40121428D01*
X27940476Y-40311904D01*
X27988095Y-40407142D01*
X28035714Y-40454761D01*
X28130952Y-40502380D01*
X28321428Y-40502380D01*
X28416666Y-40454761D01*
X28464285Y-40407142D01*
X28511904Y-40311904D01*
X28511904Y-40121428D01*
X28464285Y-40026190D01*
X28416666Y-39978571D01*
X28321428Y-39930952D01*
X26607142Y-45202380D02*
X26273809Y-44726190D01*
X26035714Y-45202380D02*
X26035714Y-44202380D01*
X26416666Y-44202380D01*
X26511904Y-44250000D01*
X26559523Y-44297619D01*
X26607142Y-44392857D01*
X26607142Y-44535714D01*
X26559523Y-44630952D01*
X26511904Y-44678571D01*
X26416666Y-44726190D01*
X26035714Y-44726190D01*
X26988095Y-44297619D02*
X27035714Y-44250000D01*
X27130952Y-44202380D01*
X27369047Y-44202380D01*
X27464285Y-44250000D01*
X27511904Y-44297619D01*
X27559523Y-44392857D01*
X27559523Y-44488095D01*
X27511904Y-44630952D01*
X26940476Y-45202380D01*
X27559523Y-45202380D01*
X28035714Y-45202380D02*
X28226190Y-45202380D01*
X28321428Y-45154761D01*
X28369047Y-45107142D01*
X28464285Y-44964285D01*
X28511904Y-44773809D01*
X28511904Y-44392857D01*
X28464285Y-44297619D01*
X28416666Y-44250000D01*
X28321428Y-44202380D01*
X28130952Y-44202380D01*
X28035714Y-44250000D01*
X27988095Y-44297619D01*
X27940476Y-44392857D01*
X27940476Y-44630952D01*
X27988095Y-44726190D01*
X28035714Y-44773809D01*
X28130952Y-44821428D01*
X28321428Y-44821428D01*
X28416666Y-44773809D01*
X28464285Y-44726190D01*
X28511904Y-44630952D01*
X26607142Y-48302380D02*
X26273809Y-47826190D01*
X26035714Y-48302380D02*
X26035714Y-47302380D01*
X26416666Y-47302380D01*
X26511904Y-47350000D01*
X26559523Y-47397619D01*
X26607142Y-47492857D01*
X26607142Y-47635714D01*
X26559523Y-47730952D01*
X26511904Y-47778571D01*
X26416666Y-47826190D01*
X26035714Y-47826190D01*
X26940476Y-47302380D02*
X27559523Y-47302380D01*
X27226190Y-47683333D01*
X27369047Y-47683333D01*
X27464285Y-47730952D01*
X27511904Y-47778571D01*
X27559523Y-47873809D01*
X27559523Y-48111904D01*
X27511904Y-48207142D01*
X27464285Y-48254761D01*
X27369047Y-48302380D01*
X27083333Y-48302380D01*
X26988095Y-48254761D01*
X26940476Y-48207142D01*
X28511904Y-48302380D02*
X27940476Y-48302380D01*
X28226190Y-48302380D02*
X28226190Y-47302380D01*
X28130952Y-47445238D01*
X28035714Y-47540476D01*
X27940476Y-47588095D01*
X26607142Y-53102380D02*
X26273809Y-52626190D01*
X26035714Y-53102380D02*
X26035714Y-52102380D01*
X26416666Y-52102380D01*
X26511904Y-52150000D01*
X26559523Y-52197619D01*
X26607142Y-52292857D01*
X26607142Y-52435714D01*
X26559523Y-52530952D01*
X26511904Y-52578571D01*
X26416666Y-52626190D01*
X26035714Y-52626190D01*
X26940476Y-52102380D02*
X27559523Y-52102380D01*
X27226190Y-52483333D01*
X27369047Y-52483333D01*
X27464285Y-52530952D01*
X27511904Y-52578571D01*
X27559523Y-52673809D01*
X27559523Y-52911904D01*
X27511904Y-53007142D01*
X27464285Y-53054761D01*
X27369047Y-53102380D01*
X27083333Y-53102380D01*
X26988095Y-53054761D01*
X26940476Y-53007142D01*
X27940476Y-52197619D02*
X27988095Y-52150000D01*
X28083333Y-52102380D01*
X28321428Y-52102380D01*
X28416666Y-52150000D01*
X28464285Y-52197619D01*
X28511904Y-52292857D01*
X28511904Y-52388095D01*
X28464285Y-52530952D01*
X27892857Y-53102380D01*
X28511904Y-53102380D01*
X26657142Y-56002380D02*
X26323809Y-55526190D01*
X26085714Y-56002380D02*
X26085714Y-55002380D01*
X26466666Y-55002380D01*
X26561904Y-55050000D01*
X26609523Y-55097619D01*
X26657142Y-55192857D01*
X26657142Y-55335714D01*
X26609523Y-55430952D01*
X26561904Y-55478571D01*
X26466666Y-55526190D01*
X26085714Y-55526190D01*
X26990476Y-55002380D02*
X27609523Y-55002380D01*
X27276190Y-55383333D01*
X27419047Y-55383333D01*
X27514285Y-55430952D01*
X27561904Y-55478571D01*
X27609523Y-55573809D01*
X27609523Y-55811904D01*
X27561904Y-55907142D01*
X27514285Y-55954761D01*
X27419047Y-56002380D01*
X27133333Y-56002380D01*
X27038095Y-55954761D01*
X26990476Y-55907142D01*
X28466666Y-55335714D02*
X28466666Y-56002380D01*
X28228571Y-54954761D02*
X27990476Y-55669047D01*
X28609523Y-55669047D01*
X26657142Y-60802380D02*
X26323809Y-60326190D01*
X26085714Y-60802380D02*
X26085714Y-59802380D01*
X26466666Y-59802380D01*
X26561904Y-59850000D01*
X26609523Y-59897619D01*
X26657142Y-59992857D01*
X26657142Y-60135714D01*
X26609523Y-60230952D01*
X26561904Y-60278571D01*
X26466666Y-60326190D01*
X26085714Y-60326190D01*
X26990476Y-59802380D02*
X27609523Y-59802380D01*
X27276190Y-60183333D01*
X27419047Y-60183333D01*
X27514285Y-60230952D01*
X27561904Y-60278571D01*
X27609523Y-60373809D01*
X27609523Y-60611904D01*
X27561904Y-60707142D01*
X27514285Y-60754761D01*
X27419047Y-60802380D01*
X27133333Y-60802380D01*
X27038095Y-60754761D01*
X26990476Y-60707142D01*
X28514285Y-59802380D02*
X28038095Y-59802380D01*
X27990476Y-60278571D01*
X28038095Y-60230952D01*
X28133333Y-60183333D01*
X28371428Y-60183333D01*
X28466666Y-60230952D01*
X28514285Y-60278571D01*
X28561904Y-60373809D01*
X28561904Y-60611904D01*
X28514285Y-60707142D01*
X28466666Y-60754761D01*
X28371428Y-60802380D01*
X28133333Y-60802380D01*
X28038095Y-60754761D01*
X27990476Y-60707142D01*
X26607142Y-63702380D02*
X26273809Y-63226190D01*
X26035714Y-63702380D02*
X26035714Y-62702380D01*
X26416666Y-62702380D01*
X26511904Y-62750000D01*
X26559523Y-62797619D01*
X26607142Y-62892857D01*
X26607142Y-63035714D01*
X26559523Y-63130952D01*
X26511904Y-63178571D01*
X26416666Y-63226190D01*
X26035714Y-63226190D01*
X26940476Y-62702380D02*
X27559523Y-62702380D01*
X27226190Y-63083333D01*
X27369047Y-63083333D01*
X27464285Y-63130952D01*
X27511904Y-63178571D01*
X27559523Y-63273809D01*
X27559523Y-63511904D01*
X27511904Y-63607142D01*
X27464285Y-63654761D01*
X27369047Y-63702380D01*
X27083333Y-63702380D01*
X26988095Y-63654761D01*
X26940476Y-63607142D01*
X27892857Y-62702380D02*
X28559523Y-62702380D01*
X28130952Y-63702380D01*
X26607142Y-68402380D02*
X26273809Y-67926190D01*
X26035714Y-68402380D02*
X26035714Y-67402380D01*
X26416666Y-67402380D01*
X26511904Y-67450000D01*
X26559523Y-67497619D01*
X26607142Y-67592857D01*
X26607142Y-67735714D01*
X26559523Y-67830952D01*
X26511904Y-67878571D01*
X26416666Y-67926190D01*
X26035714Y-67926190D01*
X26940476Y-67402380D02*
X27559523Y-67402380D01*
X27226190Y-67783333D01*
X27369047Y-67783333D01*
X27464285Y-67830952D01*
X27511904Y-67878571D01*
X27559523Y-67973809D01*
X27559523Y-68211904D01*
X27511904Y-68307142D01*
X27464285Y-68354761D01*
X27369047Y-68402380D01*
X27083333Y-68402380D01*
X26988095Y-68354761D01*
X26940476Y-68307142D01*
X28130952Y-67830952D02*
X28035714Y-67783333D01*
X27988095Y-67735714D01*
X27940476Y-67640476D01*
X27940476Y-67592857D01*
X27988095Y-67497619D01*
X28035714Y-67450000D01*
X28130952Y-67402380D01*
X28321428Y-67402380D01*
X28416666Y-67450000D01*
X28464285Y-67497619D01*
X28511904Y-67592857D01*
X28511904Y-67640476D01*
X28464285Y-67735714D01*
X28416666Y-67783333D01*
X28321428Y-67830952D01*
X28130952Y-67830952D01*
X28035714Y-67878571D01*
X27988095Y-67926190D01*
X27940476Y-68021428D01*
X27940476Y-68211904D01*
X27988095Y-68307142D01*
X28035714Y-68354761D01*
X28130952Y-68402380D01*
X28321428Y-68402380D01*
X28416666Y-68354761D01*
X28464285Y-68307142D01*
X28511904Y-68211904D01*
X28511904Y-68021428D01*
X28464285Y-67926190D01*
X28416666Y-67878571D01*
X28321428Y-67830952D01*
X26607142Y-71402380D02*
X26273809Y-70926190D01*
X26035714Y-71402380D02*
X26035714Y-70402380D01*
X26416666Y-70402380D01*
X26511904Y-70450000D01*
X26559523Y-70497619D01*
X26607142Y-70592857D01*
X26607142Y-70735714D01*
X26559523Y-70830952D01*
X26511904Y-70878571D01*
X26416666Y-70926190D01*
X26035714Y-70926190D01*
X27464285Y-70735714D02*
X27464285Y-71402380D01*
X27226190Y-70354761D02*
X26988095Y-71069047D01*
X27607142Y-71069047D01*
X28178571Y-70402380D02*
X28273809Y-70402380D01*
X28369047Y-70450000D01*
X28416666Y-70497619D01*
X28464285Y-70592857D01*
X28511904Y-70783333D01*
X28511904Y-71021428D01*
X28464285Y-71211904D01*
X28416666Y-71307142D01*
X28369047Y-71354761D01*
X28273809Y-71402380D01*
X28178571Y-71402380D01*
X28083333Y-71354761D01*
X28035714Y-71307142D01*
X27988095Y-71211904D01*
X27940476Y-71021428D01*
X27940476Y-70783333D01*
X27988095Y-70592857D01*
X28035714Y-70497619D01*
X28083333Y-70450000D01*
X28178571Y-70402380D01*
X26607142Y-76202380D02*
X26273809Y-75726190D01*
X26035714Y-76202380D02*
X26035714Y-75202380D01*
X26416666Y-75202380D01*
X26511904Y-75250000D01*
X26559523Y-75297619D01*
X26607142Y-75392857D01*
X26607142Y-75535714D01*
X26559523Y-75630952D01*
X26511904Y-75678571D01*
X26416666Y-75726190D01*
X26035714Y-75726190D01*
X27464285Y-75535714D02*
X27464285Y-76202380D01*
X27226190Y-75154761D02*
X26988095Y-75869047D01*
X27607142Y-75869047D01*
X28511904Y-76202380D02*
X27940476Y-76202380D01*
X28226190Y-76202380D02*
X28226190Y-75202380D01*
X28130952Y-75345238D01*
X28035714Y-75440476D01*
X27940476Y-75488095D01*
X26607142Y-79102380D02*
X26273809Y-78626190D01*
X26035714Y-79102380D02*
X26035714Y-78102380D01*
X26416666Y-78102380D01*
X26511904Y-78150000D01*
X26559523Y-78197619D01*
X26607142Y-78292857D01*
X26607142Y-78435714D01*
X26559523Y-78530952D01*
X26511904Y-78578571D01*
X26416666Y-78626190D01*
X26035714Y-78626190D01*
X27464285Y-78435714D02*
X27464285Y-79102380D01*
X27226190Y-78054761D02*
X26988095Y-78769047D01*
X27607142Y-78769047D01*
X27892857Y-78102380D02*
X28511904Y-78102380D01*
X28178571Y-78483333D01*
X28321428Y-78483333D01*
X28416666Y-78530952D01*
X28464285Y-78578571D01*
X28511904Y-78673809D01*
X28511904Y-78911904D01*
X28464285Y-79007142D01*
X28416666Y-79054761D01*
X28321428Y-79102380D01*
X28035714Y-79102380D01*
X27940476Y-79054761D01*
X27892857Y-79007142D01*
X26607142Y-83902380D02*
X26273809Y-83426190D01*
X26035714Y-83902380D02*
X26035714Y-82902380D01*
X26416666Y-82902380D01*
X26511904Y-82950000D01*
X26559523Y-82997619D01*
X26607142Y-83092857D01*
X26607142Y-83235714D01*
X26559523Y-83330952D01*
X26511904Y-83378571D01*
X26416666Y-83426190D01*
X26035714Y-83426190D01*
X27464285Y-83235714D02*
X27464285Y-83902380D01*
X27226190Y-82854761D02*
X26988095Y-83569047D01*
X27607142Y-83569047D01*
X28416666Y-83235714D02*
X28416666Y-83902380D01*
X28178571Y-82854761D02*
X27940476Y-83569047D01*
X28559523Y-83569047D01*
X26607142Y-87102380D02*
X26273809Y-86626190D01*
X26035714Y-87102380D02*
X26035714Y-86102380D01*
X26416666Y-86102380D01*
X26511904Y-86150000D01*
X26559523Y-86197619D01*
X26607142Y-86292857D01*
X26607142Y-86435714D01*
X26559523Y-86530952D01*
X26511904Y-86578571D01*
X26416666Y-86626190D01*
X26035714Y-86626190D01*
X27464285Y-86435714D02*
X27464285Y-87102380D01*
X27226190Y-86054761D02*
X26988095Y-86769047D01*
X27607142Y-86769047D01*
X28416666Y-86102380D02*
X28226190Y-86102380D01*
X28130952Y-86150000D01*
X28083333Y-86197619D01*
X27988095Y-86340476D01*
X27940476Y-86530952D01*
X27940476Y-86911904D01*
X27988095Y-87007142D01*
X28035714Y-87054761D01*
X28130952Y-87102380D01*
X28321428Y-87102380D01*
X28416666Y-87054761D01*
X28464285Y-87007142D01*
X28511904Y-86911904D01*
X28511904Y-86673809D01*
X28464285Y-86578571D01*
X28416666Y-86530952D01*
X28321428Y-86483333D01*
X28130952Y-86483333D01*
X28035714Y-86530952D01*
X27988095Y-86578571D01*
X27940476Y-86673809D01*
X26607142Y-91902380D02*
X26273809Y-91426190D01*
X26035714Y-91902380D02*
X26035714Y-90902380D01*
X26416666Y-90902380D01*
X26511904Y-90950000D01*
X26559523Y-90997619D01*
X26607142Y-91092857D01*
X26607142Y-91235714D01*
X26559523Y-91330952D01*
X26511904Y-91378571D01*
X26416666Y-91426190D01*
X26035714Y-91426190D01*
X27464285Y-91235714D02*
X27464285Y-91902380D01*
X27226190Y-90854761D02*
X26988095Y-91569047D01*
X27607142Y-91569047D01*
X27892857Y-90902380D02*
X28559523Y-90902380D01*
X28130952Y-91902380D01*
X51063580Y-30725904D02*
X51063580Y-30154476D01*
X52063580Y-30440190D02*
X51063580Y-30440190D01*
X52063580Y-29249714D02*
X51587390Y-29583047D01*
X52063580Y-29821142D02*
X51063580Y-29821142D01*
X51063580Y-29440190D01*
X51111200Y-29344952D01*
X51158819Y-29297333D01*
X51254057Y-29249714D01*
X51396914Y-29249714D01*
X51492152Y-29297333D01*
X51539771Y-29344952D01*
X51587390Y-29440190D01*
X51587390Y-29821142D01*
X52063580Y-28297333D02*
X52063580Y-28868761D01*
X52063580Y-28583047D02*
X51063580Y-28583047D01*
X51206438Y-28678285D01*
X51301676Y-28773523D01*
X51349295Y-28868761D01*
X16107142Y-4252380D02*
X15773809Y-3776190D01*
X15535714Y-4252380D02*
X15535714Y-3252380D01*
X15916666Y-3252380D01*
X16011904Y-3300000D01*
X16059523Y-3347619D01*
X16107142Y-3442857D01*
X16107142Y-3585714D01*
X16059523Y-3680952D01*
X16011904Y-3728571D01*
X15916666Y-3776190D01*
X15535714Y-3776190D01*
X17059523Y-4252380D02*
X16488095Y-4252380D01*
X16773809Y-4252380D02*
X16773809Y-3252380D01*
X16678571Y-3395238D01*
X16583333Y-3490476D01*
X16488095Y-3538095D01*
X17440476Y-3347619D02*
X17488095Y-3300000D01*
X17583333Y-3252380D01*
X17821428Y-3252380D01*
X17916666Y-3300000D01*
X17964285Y-3347619D01*
X18011904Y-3442857D01*
X18011904Y-3538095D01*
X17964285Y-3680952D01*
X17392857Y-4252380D01*
X18011904Y-4252380D01*
X16107142Y-11952380D02*
X15773809Y-11476190D01*
X15535714Y-11952380D02*
X15535714Y-10952380D01*
X15916666Y-10952380D01*
X16011904Y-11000000D01*
X16059523Y-11047619D01*
X16107142Y-11142857D01*
X16107142Y-11285714D01*
X16059523Y-11380952D01*
X16011904Y-11428571D01*
X15916666Y-11476190D01*
X15535714Y-11476190D01*
X17059523Y-11952380D02*
X16488095Y-11952380D01*
X16773809Y-11952380D02*
X16773809Y-10952380D01*
X16678571Y-11095238D01*
X16583333Y-11190476D01*
X16488095Y-11238095D01*
X17964285Y-10952380D02*
X17488095Y-10952380D01*
X17440476Y-11428571D01*
X17488095Y-11380952D01*
X17583333Y-11333333D01*
X17821428Y-11333333D01*
X17916666Y-11380952D01*
X17964285Y-11428571D01*
X18011904Y-11523809D01*
X18011904Y-11761904D01*
X17964285Y-11857142D01*
X17916666Y-11904761D01*
X17821428Y-11952380D01*
X17583333Y-11952380D01*
X17488095Y-11904761D01*
X17440476Y-11857142D01*
X16107142Y-19702380D02*
X15773809Y-19226190D01*
X15535714Y-19702380D02*
X15535714Y-18702380D01*
X15916666Y-18702380D01*
X16011904Y-18750000D01*
X16059523Y-18797619D01*
X16107142Y-18892857D01*
X16107142Y-19035714D01*
X16059523Y-19130952D01*
X16011904Y-19178571D01*
X15916666Y-19226190D01*
X15535714Y-19226190D01*
X17059523Y-19702380D02*
X16488095Y-19702380D01*
X16773809Y-19702380D02*
X16773809Y-18702380D01*
X16678571Y-18845238D01*
X16583333Y-18940476D01*
X16488095Y-18988095D01*
X17630952Y-19130952D02*
X17535714Y-19083333D01*
X17488095Y-19035714D01*
X17440476Y-18940476D01*
X17440476Y-18892857D01*
X17488095Y-18797619D01*
X17535714Y-18750000D01*
X17630952Y-18702380D01*
X17821428Y-18702380D01*
X17916666Y-18750000D01*
X17964285Y-18797619D01*
X18011904Y-18892857D01*
X18011904Y-18940476D01*
X17964285Y-19035714D01*
X17916666Y-19083333D01*
X17821428Y-19130952D01*
X17630952Y-19130952D01*
X17535714Y-19178571D01*
X17488095Y-19226190D01*
X17440476Y-19321428D01*
X17440476Y-19511904D01*
X17488095Y-19607142D01*
X17535714Y-19654761D01*
X17630952Y-19702380D01*
X17821428Y-19702380D01*
X17916666Y-19654761D01*
X17964285Y-19607142D01*
X18011904Y-19511904D01*
X18011904Y-19321428D01*
X17964285Y-19226190D01*
X17916666Y-19178571D01*
X17821428Y-19130952D01*
X16107142Y-27402380D02*
X15773809Y-26926190D01*
X15535714Y-27402380D02*
X15535714Y-26402380D01*
X15916666Y-26402380D01*
X16011904Y-26450000D01*
X16059523Y-26497619D01*
X16107142Y-26592857D01*
X16107142Y-26735714D01*
X16059523Y-26830952D01*
X16011904Y-26878571D01*
X15916666Y-26926190D01*
X15535714Y-26926190D01*
X16488095Y-26497619D02*
X16535714Y-26450000D01*
X16630952Y-26402380D01*
X16869047Y-26402380D01*
X16964285Y-26450000D01*
X17011904Y-26497619D01*
X17059523Y-26592857D01*
X17059523Y-26688095D01*
X17011904Y-26830952D01*
X16440476Y-27402380D01*
X17059523Y-27402380D01*
X18011904Y-27402380D02*
X17440476Y-27402380D01*
X17726190Y-27402380D02*
X17726190Y-26402380D01*
X17630952Y-26545238D01*
X17535714Y-26640476D01*
X17440476Y-26688095D01*
X16107142Y-35102380D02*
X15773809Y-34626190D01*
X15535714Y-35102380D02*
X15535714Y-34102380D01*
X15916666Y-34102380D01*
X16011904Y-34150000D01*
X16059523Y-34197619D01*
X16107142Y-34292857D01*
X16107142Y-34435714D01*
X16059523Y-34530952D01*
X16011904Y-34578571D01*
X15916666Y-34626190D01*
X15535714Y-34626190D01*
X16488095Y-34197619D02*
X16535714Y-34150000D01*
X16630952Y-34102380D01*
X16869047Y-34102380D01*
X16964285Y-34150000D01*
X17011904Y-34197619D01*
X17059523Y-34292857D01*
X17059523Y-34388095D01*
X17011904Y-34530952D01*
X16440476Y-35102380D01*
X17059523Y-35102380D01*
X17916666Y-34435714D02*
X17916666Y-35102380D01*
X17678571Y-34054761D02*
X17440476Y-34769047D01*
X18059523Y-34769047D01*
X16107142Y-42802380D02*
X15773809Y-42326190D01*
X15535714Y-42802380D02*
X15535714Y-41802380D01*
X15916666Y-41802380D01*
X16011904Y-41850000D01*
X16059523Y-41897619D01*
X16107142Y-41992857D01*
X16107142Y-42135714D01*
X16059523Y-42230952D01*
X16011904Y-42278571D01*
X15916666Y-42326190D01*
X15535714Y-42326190D01*
X16488095Y-41897619D02*
X16535714Y-41850000D01*
X16630952Y-41802380D01*
X16869047Y-41802380D01*
X16964285Y-41850000D01*
X17011904Y-41897619D01*
X17059523Y-41992857D01*
X17059523Y-42088095D01*
X17011904Y-42230952D01*
X16440476Y-42802380D01*
X17059523Y-42802380D01*
X17392857Y-41802380D02*
X18059523Y-41802380D01*
X17630952Y-42802380D01*
X16107142Y-50602380D02*
X15773809Y-50126190D01*
X15535714Y-50602380D02*
X15535714Y-49602380D01*
X15916666Y-49602380D01*
X16011904Y-49650000D01*
X16059523Y-49697619D01*
X16107142Y-49792857D01*
X16107142Y-49935714D01*
X16059523Y-50030952D01*
X16011904Y-50078571D01*
X15916666Y-50126190D01*
X15535714Y-50126190D01*
X16440476Y-49602380D02*
X17059523Y-49602380D01*
X16726190Y-49983333D01*
X16869047Y-49983333D01*
X16964285Y-50030952D01*
X17011904Y-50078571D01*
X17059523Y-50173809D01*
X17059523Y-50411904D01*
X17011904Y-50507142D01*
X16964285Y-50554761D01*
X16869047Y-50602380D01*
X16583333Y-50602380D01*
X16488095Y-50554761D01*
X16440476Y-50507142D01*
X17678571Y-49602380D02*
X17773809Y-49602380D01*
X17869047Y-49650000D01*
X17916666Y-49697619D01*
X17964285Y-49792857D01*
X18011904Y-49983333D01*
X18011904Y-50221428D01*
X17964285Y-50411904D01*
X17916666Y-50507142D01*
X17869047Y-50554761D01*
X17773809Y-50602380D01*
X17678571Y-50602380D01*
X17583333Y-50554761D01*
X17535714Y-50507142D01*
X17488095Y-50411904D01*
X17440476Y-50221428D01*
X17440476Y-49983333D01*
X17488095Y-49792857D01*
X17535714Y-49697619D01*
X17583333Y-49650000D01*
X17678571Y-49602380D01*
X16157142Y-58452380D02*
X15823809Y-57976190D01*
X15585714Y-58452380D02*
X15585714Y-57452380D01*
X15966666Y-57452380D01*
X16061904Y-57500000D01*
X16109523Y-57547619D01*
X16157142Y-57642857D01*
X16157142Y-57785714D01*
X16109523Y-57880952D01*
X16061904Y-57928571D01*
X15966666Y-57976190D01*
X15585714Y-57976190D01*
X16490476Y-57452380D02*
X17109523Y-57452380D01*
X16776190Y-57833333D01*
X16919047Y-57833333D01*
X17014285Y-57880952D01*
X17061904Y-57928571D01*
X17109523Y-58023809D01*
X17109523Y-58261904D01*
X17061904Y-58357142D01*
X17014285Y-58404761D01*
X16919047Y-58452380D01*
X16633333Y-58452380D01*
X16538095Y-58404761D01*
X16490476Y-58357142D01*
X17442857Y-57452380D02*
X18061904Y-57452380D01*
X17728571Y-57833333D01*
X17871428Y-57833333D01*
X17966666Y-57880952D01*
X18014285Y-57928571D01*
X18061904Y-58023809D01*
X18061904Y-58261904D01*
X18014285Y-58357142D01*
X17966666Y-58404761D01*
X17871428Y-58452380D01*
X17585714Y-58452380D01*
X17490476Y-58404761D01*
X17442857Y-58357142D01*
X16157142Y-73702380D02*
X15823809Y-73226190D01*
X15585714Y-73702380D02*
X15585714Y-72702380D01*
X15966666Y-72702380D01*
X16061904Y-72750000D01*
X16109523Y-72797619D01*
X16157142Y-72892857D01*
X16157142Y-73035714D01*
X16109523Y-73130952D01*
X16061904Y-73178571D01*
X15966666Y-73226190D01*
X15585714Y-73226190D01*
X16490476Y-72702380D02*
X17109523Y-72702380D01*
X16776190Y-73083333D01*
X16919047Y-73083333D01*
X17014285Y-73130952D01*
X17061904Y-73178571D01*
X17109523Y-73273809D01*
X17109523Y-73511904D01*
X17061904Y-73607142D01*
X17014285Y-73654761D01*
X16919047Y-73702380D01*
X16633333Y-73702380D01*
X16538095Y-73654761D01*
X16490476Y-73607142D01*
X17585714Y-73702380D02*
X17776190Y-73702380D01*
X17871428Y-73654761D01*
X17919047Y-73607142D01*
X18014285Y-73464285D01*
X18061904Y-73273809D01*
X18061904Y-72892857D01*
X18014285Y-72797619D01*
X17966666Y-72750000D01*
X17871428Y-72702380D01*
X17680952Y-72702380D01*
X17585714Y-72750000D01*
X17538095Y-72797619D01*
X17490476Y-72892857D01*
X17490476Y-73130952D01*
X17538095Y-73226190D01*
X17585714Y-73273809D01*
X17680952Y-73321428D01*
X17871428Y-73321428D01*
X17966666Y-73273809D01*
X18014285Y-73226190D01*
X18061904Y-73130952D01*
X16157142Y-81352380D02*
X15823809Y-80876190D01*
X15585714Y-81352380D02*
X15585714Y-80352380D01*
X15966666Y-80352380D01*
X16061904Y-80400000D01*
X16109523Y-80447619D01*
X16157142Y-80542857D01*
X16157142Y-80685714D01*
X16109523Y-80780952D01*
X16061904Y-80828571D01*
X15966666Y-80876190D01*
X15585714Y-80876190D01*
X17014285Y-80685714D02*
X17014285Y-81352380D01*
X16776190Y-80304761D02*
X16538095Y-81019047D01*
X17157142Y-81019047D01*
X17490476Y-80447619D02*
X17538095Y-80400000D01*
X17633333Y-80352380D01*
X17871428Y-80352380D01*
X17966666Y-80400000D01*
X18014285Y-80447619D01*
X18061904Y-80542857D01*
X18061904Y-80638095D01*
X18014285Y-80780952D01*
X17442857Y-81352380D01*
X18061904Y-81352380D01*
X16107142Y-89402380D02*
X15773809Y-88926190D01*
X15535714Y-89402380D02*
X15535714Y-88402380D01*
X15916666Y-88402380D01*
X16011904Y-88450000D01*
X16059523Y-88497619D01*
X16107142Y-88592857D01*
X16107142Y-88735714D01*
X16059523Y-88830952D01*
X16011904Y-88878571D01*
X15916666Y-88926190D01*
X15535714Y-88926190D01*
X16964285Y-88735714D02*
X16964285Y-89402380D01*
X16726190Y-88354761D02*
X16488095Y-89069047D01*
X17107142Y-89069047D01*
X17964285Y-88402380D02*
X17488095Y-88402380D01*
X17440476Y-88878571D01*
X17488095Y-88830952D01*
X17583333Y-88783333D01*
X17821428Y-88783333D01*
X17916666Y-88830952D01*
X17964285Y-88878571D01*
X18011904Y-88973809D01*
X18011904Y-89211904D01*
X17964285Y-89307142D01*
X17916666Y-89354761D01*
X17821428Y-89402380D01*
X17583333Y-89402380D01*
X17488095Y-89354761D01*
X17440476Y-89307142D01*
X16157142Y-65952380D02*
X15823809Y-65476190D01*
X15585714Y-65952380D02*
X15585714Y-64952380D01*
X15966666Y-64952380D01*
X16061904Y-65000000D01*
X16109523Y-65047619D01*
X16157142Y-65142857D01*
X16157142Y-65285714D01*
X16109523Y-65380952D01*
X16061904Y-65428571D01*
X15966666Y-65476190D01*
X15585714Y-65476190D01*
X16490476Y-64952380D02*
X17109523Y-64952380D01*
X16776190Y-65333333D01*
X16919047Y-65333333D01*
X17014285Y-65380952D01*
X17061904Y-65428571D01*
X17109523Y-65523809D01*
X17109523Y-65761904D01*
X17061904Y-65857142D01*
X17014285Y-65904761D01*
X16919047Y-65952380D01*
X16633333Y-65952380D01*
X16538095Y-65904761D01*
X16490476Y-65857142D01*
X17966666Y-64952380D02*
X17776190Y-64952380D01*
X17680952Y-65000000D01*
X17633333Y-65047619D01*
X17538095Y-65190476D01*
X17490476Y-65380952D01*
X17490476Y-65761904D01*
X17538095Y-65857142D01*
X17585714Y-65904761D01*
X17680952Y-65952380D01*
X17871428Y-65952380D01*
X17966666Y-65904761D01*
X18014285Y-65857142D01*
X18061904Y-65761904D01*
X18061904Y-65523809D01*
X18014285Y-65428571D01*
X17966666Y-65380952D01*
X17871428Y-65333333D01*
X17680952Y-65333333D01*
X17585714Y-65380952D01*
X17538095Y-65428571D01*
X17490476Y-65523809D01*
X33107142Y-1407142D02*
X33059523Y-1454761D01*
X32916666Y-1502380D01*
X32821428Y-1502380D01*
X32678571Y-1454761D01*
X32583333Y-1359523D01*
X32535714Y-1264285D01*
X32488095Y-1073809D01*
X32488095Y-930952D01*
X32535714Y-740476D01*
X32583333Y-645238D01*
X32678571Y-550000D01*
X32821428Y-502380D01*
X32916666Y-502380D01*
X33059523Y-550000D01*
X33107142Y-597619D01*
X34059523Y-1502380D02*
X33488095Y-1502380D01*
X33773809Y-1502380D02*
X33773809Y-502380D01*
X33678571Y-645238D01*
X33583333Y-740476D01*
X33488095Y-788095D01*
X34392857Y-502380D02*
X35011904Y-502380D01*
X34678571Y-883333D01*
X34821428Y-883333D01*
X34916666Y-930952D01*
X34964285Y-978571D01*
X35011904Y-1073809D01*
X35011904Y-1311904D01*
X34964285Y-1407142D01*
X34916666Y-1454761D01*
X34821428Y-1502380D01*
X34535714Y-1502380D01*
X34440476Y-1454761D01*
X34392857Y-1407142D01*
X33107142Y-9107142D02*
X33059523Y-9154761D01*
X32916666Y-9202380D01*
X32821428Y-9202380D01*
X32678571Y-9154761D01*
X32583333Y-9059523D01*
X32535714Y-8964285D01*
X32488095Y-8773809D01*
X32488095Y-8630952D01*
X32535714Y-8440476D01*
X32583333Y-8345238D01*
X32678571Y-8250000D01*
X32821428Y-8202380D01*
X32916666Y-8202380D01*
X33059523Y-8250000D01*
X33107142Y-8297619D01*
X34059523Y-9202380D02*
X33488095Y-9202380D01*
X33773809Y-9202380D02*
X33773809Y-8202380D01*
X33678571Y-8345238D01*
X33583333Y-8440476D01*
X33488095Y-8488095D01*
X34916666Y-8535714D02*
X34916666Y-9202380D01*
X34678571Y-8154761D02*
X34440476Y-8869047D01*
X35059523Y-8869047D01*
X33107142Y-16857142D02*
X33059523Y-16904761D01*
X32916666Y-16952380D01*
X32821428Y-16952380D01*
X32678571Y-16904761D01*
X32583333Y-16809523D01*
X32535714Y-16714285D01*
X32488095Y-16523809D01*
X32488095Y-16380952D01*
X32535714Y-16190476D01*
X32583333Y-16095238D01*
X32678571Y-16000000D01*
X32821428Y-15952380D01*
X32916666Y-15952380D01*
X33059523Y-16000000D01*
X33107142Y-16047619D01*
X34059523Y-16952380D02*
X33488095Y-16952380D01*
X33773809Y-16952380D02*
X33773809Y-15952380D01*
X33678571Y-16095238D01*
X33583333Y-16190476D01*
X33488095Y-16238095D01*
X34964285Y-15952380D02*
X34488095Y-15952380D01*
X34440476Y-16428571D01*
X34488095Y-16380952D01*
X34583333Y-16333333D01*
X34821428Y-16333333D01*
X34916666Y-16380952D01*
X34964285Y-16428571D01*
X35011904Y-16523809D01*
X35011904Y-16761904D01*
X34964285Y-16857142D01*
X34916666Y-16904761D01*
X34821428Y-16952380D01*
X34583333Y-16952380D01*
X34488095Y-16904761D01*
X34440476Y-16857142D01*
X33107142Y-24557142D02*
X33059523Y-24604761D01*
X32916666Y-24652380D01*
X32821428Y-24652380D01*
X32678571Y-24604761D01*
X32583333Y-24509523D01*
X32535714Y-24414285D01*
X32488095Y-24223809D01*
X32488095Y-24080952D01*
X32535714Y-23890476D01*
X32583333Y-23795238D01*
X32678571Y-23700000D01*
X32821428Y-23652380D01*
X32916666Y-23652380D01*
X33059523Y-23700000D01*
X33107142Y-23747619D01*
X34059523Y-24652380D02*
X33488095Y-24652380D01*
X33773809Y-24652380D02*
X33773809Y-23652380D01*
X33678571Y-23795238D01*
X33583333Y-23890476D01*
X33488095Y-23938095D01*
X34916666Y-23652380D02*
X34726190Y-23652380D01*
X34630952Y-23700000D01*
X34583333Y-23747619D01*
X34488095Y-23890476D01*
X34440476Y-24080952D01*
X34440476Y-24461904D01*
X34488095Y-24557142D01*
X34535714Y-24604761D01*
X34630952Y-24652380D01*
X34821428Y-24652380D01*
X34916666Y-24604761D01*
X34964285Y-24557142D01*
X35011904Y-24461904D01*
X35011904Y-24223809D01*
X34964285Y-24128571D01*
X34916666Y-24080952D01*
X34821428Y-24033333D01*
X34630952Y-24033333D01*
X34535714Y-24080952D01*
X34488095Y-24128571D01*
X34440476Y-24223809D01*
X33107142Y-32257142D02*
X33059523Y-32304761D01*
X32916666Y-32352380D01*
X32821428Y-32352380D01*
X32678571Y-32304761D01*
X32583333Y-32209523D01*
X32535714Y-32114285D01*
X32488095Y-31923809D01*
X32488095Y-31780952D01*
X32535714Y-31590476D01*
X32583333Y-31495238D01*
X32678571Y-31400000D01*
X32821428Y-31352380D01*
X32916666Y-31352380D01*
X33059523Y-31400000D01*
X33107142Y-31447619D01*
X34059523Y-32352380D02*
X33488095Y-32352380D01*
X33773809Y-32352380D02*
X33773809Y-31352380D01*
X33678571Y-31495238D01*
X33583333Y-31590476D01*
X33488095Y-31638095D01*
X34392857Y-31352380D02*
X35059523Y-31352380D01*
X34630952Y-32352380D01*
X33107142Y-39957142D02*
X33059523Y-40004761D01*
X32916666Y-40052380D01*
X32821428Y-40052380D01*
X32678571Y-40004761D01*
X32583333Y-39909523D01*
X32535714Y-39814285D01*
X32488095Y-39623809D01*
X32488095Y-39480952D01*
X32535714Y-39290476D01*
X32583333Y-39195238D01*
X32678571Y-39100000D01*
X32821428Y-39052380D01*
X32916666Y-39052380D01*
X33059523Y-39100000D01*
X33107142Y-39147619D01*
X34059523Y-40052380D02*
X33488095Y-40052380D01*
X33773809Y-40052380D02*
X33773809Y-39052380D01*
X33678571Y-39195238D01*
X33583333Y-39290476D01*
X33488095Y-39338095D01*
X34630952Y-39480952D02*
X34535714Y-39433333D01*
X34488095Y-39385714D01*
X34440476Y-39290476D01*
X34440476Y-39242857D01*
X34488095Y-39147619D01*
X34535714Y-39100000D01*
X34630952Y-39052380D01*
X34821428Y-39052380D01*
X34916666Y-39100000D01*
X34964285Y-39147619D01*
X35011904Y-39242857D01*
X35011904Y-39290476D01*
X34964285Y-39385714D01*
X34916666Y-39433333D01*
X34821428Y-39480952D01*
X34630952Y-39480952D01*
X34535714Y-39528571D01*
X34488095Y-39576190D01*
X34440476Y-39671428D01*
X34440476Y-39861904D01*
X34488095Y-39957142D01*
X34535714Y-40004761D01*
X34630952Y-40052380D01*
X34821428Y-40052380D01*
X34916666Y-40004761D01*
X34964285Y-39957142D01*
X35011904Y-39861904D01*
X35011904Y-39671428D01*
X34964285Y-39576190D01*
X34916666Y-39528571D01*
X34821428Y-39480952D01*
X33107142Y-47757142D02*
X33059523Y-47804761D01*
X32916666Y-47852380D01*
X32821428Y-47852380D01*
X32678571Y-47804761D01*
X32583333Y-47709523D01*
X32535714Y-47614285D01*
X32488095Y-47423809D01*
X32488095Y-47280952D01*
X32535714Y-47090476D01*
X32583333Y-46995238D01*
X32678571Y-46900000D01*
X32821428Y-46852380D01*
X32916666Y-46852380D01*
X33059523Y-46900000D01*
X33107142Y-46947619D01*
X34059523Y-47852380D02*
X33488095Y-47852380D01*
X33773809Y-47852380D02*
X33773809Y-46852380D01*
X33678571Y-46995238D01*
X33583333Y-47090476D01*
X33488095Y-47138095D01*
X34535714Y-47852380D02*
X34726190Y-47852380D01*
X34821428Y-47804761D01*
X34869047Y-47757142D01*
X34964285Y-47614285D01*
X35011904Y-47423809D01*
X35011904Y-47042857D01*
X34964285Y-46947619D01*
X34916666Y-46900000D01*
X34821428Y-46852380D01*
X34630952Y-46852380D01*
X34535714Y-46900000D01*
X34488095Y-46947619D01*
X34440476Y-47042857D01*
X34440476Y-47280952D01*
X34488095Y-47376190D01*
X34535714Y-47423809D01*
X34630952Y-47471428D01*
X34821428Y-47471428D01*
X34916666Y-47423809D01*
X34964285Y-47376190D01*
X35011904Y-47280952D01*
X33157142Y-55457142D02*
X33109523Y-55504761D01*
X32966666Y-55552380D01*
X32871428Y-55552380D01*
X32728571Y-55504761D01*
X32633333Y-55409523D01*
X32585714Y-55314285D01*
X32538095Y-55123809D01*
X32538095Y-54980952D01*
X32585714Y-54790476D01*
X32633333Y-54695238D01*
X32728571Y-54600000D01*
X32871428Y-54552380D01*
X32966666Y-54552380D01*
X33109523Y-54600000D01*
X33157142Y-54647619D01*
X33538095Y-54647619D02*
X33585714Y-54600000D01*
X33680952Y-54552380D01*
X33919047Y-54552380D01*
X34014285Y-54600000D01*
X34061904Y-54647619D01*
X34109523Y-54742857D01*
X34109523Y-54838095D01*
X34061904Y-54980952D01*
X33490476Y-55552380D01*
X34109523Y-55552380D01*
X34728571Y-54552380D02*
X34823809Y-54552380D01*
X34919047Y-54600000D01*
X34966666Y-54647619D01*
X35014285Y-54742857D01*
X35061904Y-54933333D01*
X35061904Y-55171428D01*
X35014285Y-55361904D01*
X34966666Y-55457142D01*
X34919047Y-55504761D01*
X34823809Y-55552380D01*
X34728571Y-55552380D01*
X34633333Y-55504761D01*
X34585714Y-55457142D01*
X34538095Y-55361904D01*
X34490476Y-55171428D01*
X34490476Y-54933333D01*
X34538095Y-54742857D01*
X34585714Y-54647619D01*
X34633333Y-54600000D01*
X34728571Y-54552380D01*
X33057142Y-63207142D02*
X33009523Y-63254761D01*
X32866666Y-63302380D01*
X32771428Y-63302380D01*
X32628571Y-63254761D01*
X32533333Y-63159523D01*
X32485714Y-63064285D01*
X32438095Y-62873809D01*
X32438095Y-62730952D01*
X32485714Y-62540476D01*
X32533333Y-62445238D01*
X32628571Y-62350000D01*
X32771428Y-62302380D01*
X32866666Y-62302380D01*
X33009523Y-62350000D01*
X33057142Y-62397619D01*
X33438095Y-62397619D02*
X33485714Y-62350000D01*
X33580952Y-62302380D01*
X33819047Y-62302380D01*
X33914285Y-62350000D01*
X33961904Y-62397619D01*
X34009523Y-62492857D01*
X34009523Y-62588095D01*
X33961904Y-62730952D01*
X33390476Y-63302380D01*
X34009523Y-63302380D01*
X34961904Y-63302380D02*
X34390476Y-63302380D01*
X34676190Y-63302380D02*
X34676190Y-62302380D01*
X34580952Y-62445238D01*
X34485714Y-62540476D01*
X34390476Y-62588095D01*
X33107142Y-70857142D02*
X33059523Y-70904761D01*
X32916666Y-70952380D01*
X32821428Y-70952380D01*
X32678571Y-70904761D01*
X32583333Y-70809523D01*
X32535714Y-70714285D01*
X32488095Y-70523809D01*
X32488095Y-70380952D01*
X32535714Y-70190476D01*
X32583333Y-70095238D01*
X32678571Y-70000000D01*
X32821428Y-69952380D01*
X32916666Y-69952380D01*
X33059523Y-70000000D01*
X33107142Y-70047619D01*
X33488095Y-70047619D02*
X33535714Y-70000000D01*
X33630952Y-69952380D01*
X33869047Y-69952380D01*
X33964285Y-70000000D01*
X34011904Y-70047619D01*
X34059523Y-70142857D01*
X34059523Y-70238095D01*
X34011904Y-70380952D01*
X33440476Y-70952380D01*
X34059523Y-70952380D01*
X34440476Y-70047619D02*
X34488095Y-70000000D01*
X34583333Y-69952380D01*
X34821428Y-69952380D01*
X34916666Y-70000000D01*
X34964285Y-70047619D01*
X35011904Y-70142857D01*
X35011904Y-70238095D01*
X34964285Y-70380952D01*
X34392857Y-70952380D01*
X35011904Y-70952380D01*
X33107142Y-78557142D02*
X33059523Y-78604761D01*
X32916666Y-78652380D01*
X32821428Y-78652380D01*
X32678571Y-78604761D01*
X32583333Y-78509523D01*
X32535714Y-78414285D01*
X32488095Y-78223809D01*
X32488095Y-78080952D01*
X32535714Y-77890476D01*
X32583333Y-77795238D01*
X32678571Y-77700000D01*
X32821428Y-77652380D01*
X32916666Y-77652380D01*
X33059523Y-77700000D01*
X33107142Y-77747619D01*
X33488095Y-77747619D02*
X33535714Y-77700000D01*
X33630952Y-77652380D01*
X33869047Y-77652380D01*
X33964285Y-77700000D01*
X34011904Y-77747619D01*
X34059523Y-77842857D01*
X34059523Y-77938095D01*
X34011904Y-78080952D01*
X33440476Y-78652380D01*
X34059523Y-78652380D01*
X34392857Y-77652380D02*
X35011904Y-77652380D01*
X34678571Y-78033333D01*
X34821428Y-78033333D01*
X34916666Y-78080952D01*
X34964285Y-78128571D01*
X35011904Y-78223809D01*
X35011904Y-78461904D01*
X34964285Y-78557142D01*
X34916666Y-78604761D01*
X34821428Y-78652380D01*
X34535714Y-78652380D01*
X34440476Y-78604761D01*
X34392857Y-78557142D01*
X33107142Y-86557142D02*
X33059523Y-86604761D01*
X32916666Y-86652380D01*
X32821428Y-86652380D01*
X32678571Y-86604761D01*
X32583333Y-86509523D01*
X32535714Y-86414285D01*
X32488095Y-86223809D01*
X32488095Y-86080952D01*
X32535714Y-85890476D01*
X32583333Y-85795238D01*
X32678571Y-85700000D01*
X32821428Y-85652380D01*
X32916666Y-85652380D01*
X33059523Y-85700000D01*
X33107142Y-85747619D01*
X33488095Y-85747619D02*
X33535714Y-85700000D01*
X33630952Y-85652380D01*
X33869047Y-85652380D01*
X33964285Y-85700000D01*
X34011904Y-85747619D01*
X34059523Y-85842857D01*
X34059523Y-85938095D01*
X34011904Y-86080952D01*
X33440476Y-86652380D01*
X34059523Y-86652380D01*
X34916666Y-85985714D02*
X34916666Y-86652380D01*
X34678571Y-85604761D02*
X34440476Y-86319047D01*
X35059523Y-86319047D01*
X16107142Y-8052380D02*
X15773809Y-7576190D01*
X15535714Y-8052380D02*
X15535714Y-7052380D01*
X15916666Y-7052380D01*
X16011904Y-7100000D01*
X16059523Y-7147619D01*
X16107142Y-7242857D01*
X16107142Y-7385714D01*
X16059523Y-7480952D01*
X16011904Y-7528571D01*
X15916666Y-7576190D01*
X15535714Y-7576190D01*
X16964285Y-7385714D02*
X16964285Y-8052380D01*
X16726190Y-7004761D02*
X16488095Y-7719047D01*
X17107142Y-7719047D01*
X17630952Y-7480952D02*
X17535714Y-7433333D01*
X17488095Y-7385714D01*
X17440476Y-7290476D01*
X17440476Y-7242857D01*
X17488095Y-7147619D01*
X17535714Y-7100000D01*
X17630952Y-7052380D01*
X17821428Y-7052380D01*
X17916666Y-7100000D01*
X17964285Y-7147619D01*
X18011904Y-7242857D01*
X18011904Y-7290476D01*
X17964285Y-7385714D01*
X17916666Y-7433333D01*
X17821428Y-7480952D01*
X17630952Y-7480952D01*
X17535714Y-7528571D01*
X17488095Y-7576190D01*
X17440476Y-7671428D01*
X17440476Y-7861904D01*
X17488095Y-7957142D01*
X17535714Y-8004761D01*
X17630952Y-8052380D01*
X17821428Y-8052380D01*
X17916666Y-8004761D01*
X17964285Y-7957142D01*
X18011904Y-7861904D01*
X18011904Y-7671428D01*
X17964285Y-7576190D01*
X17916666Y-7528571D01*
X17821428Y-7480952D01*
X16107142Y-23502380D02*
X15773809Y-23026190D01*
X15535714Y-23502380D02*
X15535714Y-22502380D01*
X15916666Y-22502380D01*
X16011904Y-22550000D01*
X16059523Y-22597619D01*
X16107142Y-22692857D01*
X16107142Y-22835714D01*
X16059523Y-22930952D01*
X16011904Y-22978571D01*
X15916666Y-23026190D01*
X15535714Y-23026190D01*
X17011904Y-22502380D02*
X16535714Y-22502380D01*
X16488095Y-22978571D01*
X16535714Y-22930952D01*
X16630952Y-22883333D01*
X16869047Y-22883333D01*
X16964285Y-22930952D01*
X17011904Y-22978571D01*
X17059523Y-23073809D01*
X17059523Y-23311904D01*
X17011904Y-23407142D01*
X16964285Y-23454761D01*
X16869047Y-23502380D01*
X16630952Y-23502380D01*
X16535714Y-23454761D01*
X16488095Y-23407142D01*
X17678571Y-22502380D02*
X17773809Y-22502380D01*
X17869047Y-22550000D01*
X17916666Y-22597619D01*
X17964285Y-22692857D01*
X18011904Y-22883333D01*
X18011904Y-23121428D01*
X17964285Y-23311904D01*
X17916666Y-23407142D01*
X17869047Y-23454761D01*
X17773809Y-23502380D01*
X17678571Y-23502380D01*
X17583333Y-23454761D01*
X17535714Y-23407142D01*
X17488095Y-23311904D01*
X17440476Y-23121428D01*
X17440476Y-22883333D01*
X17488095Y-22692857D01*
X17535714Y-22597619D01*
X17583333Y-22550000D01*
X17678571Y-22502380D01*
X16107142Y-31202380D02*
X15773809Y-30726190D01*
X15535714Y-31202380D02*
X15535714Y-30202380D01*
X15916666Y-30202380D01*
X16011904Y-30250000D01*
X16059523Y-30297619D01*
X16107142Y-30392857D01*
X16107142Y-30535714D01*
X16059523Y-30630952D01*
X16011904Y-30678571D01*
X15916666Y-30726190D01*
X15535714Y-30726190D01*
X17011904Y-30202380D02*
X16535714Y-30202380D01*
X16488095Y-30678571D01*
X16535714Y-30630952D01*
X16630952Y-30583333D01*
X16869047Y-30583333D01*
X16964285Y-30630952D01*
X17011904Y-30678571D01*
X17059523Y-30773809D01*
X17059523Y-31011904D01*
X17011904Y-31107142D01*
X16964285Y-31154761D01*
X16869047Y-31202380D01*
X16630952Y-31202380D01*
X16535714Y-31154761D01*
X16488095Y-31107142D01*
X18011904Y-31202380D02*
X17440476Y-31202380D01*
X17726190Y-31202380D02*
X17726190Y-30202380D01*
X17630952Y-30345238D01*
X17535714Y-30440476D01*
X17440476Y-30488095D01*
X16107142Y-38902380D02*
X15773809Y-38426190D01*
X15535714Y-38902380D02*
X15535714Y-37902380D01*
X15916666Y-37902380D01*
X16011904Y-37950000D01*
X16059523Y-37997619D01*
X16107142Y-38092857D01*
X16107142Y-38235714D01*
X16059523Y-38330952D01*
X16011904Y-38378571D01*
X15916666Y-38426190D01*
X15535714Y-38426190D01*
X17011904Y-37902380D02*
X16535714Y-37902380D01*
X16488095Y-38378571D01*
X16535714Y-38330952D01*
X16630952Y-38283333D01*
X16869047Y-38283333D01*
X16964285Y-38330952D01*
X17011904Y-38378571D01*
X17059523Y-38473809D01*
X17059523Y-38711904D01*
X17011904Y-38807142D01*
X16964285Y-38854761D01*
X16869047Y-38902380D01*
X16630952Y-38902380D01*
X16535714Y-38854761D01*
X16488095Y-38807142D01*
X17440476Y-37997619D02*
X17488095Y-37950000D01*
X17583333Y-37902380D01*
X17821428Y-37902380D01*
X17916666Y-37950000D01*
X17964285Y-37997619D01*
X18011904Y-38092857D01*
X18011904Y-38188095D01*
X17964285Y-38330952D01*
X17392857Y-38902380D01*
X18011904Y-38902380D01*
X16157142Y-54452380D02*
X15823809Y-53976190D01*
X15585714Y-54452380D02*
X15585714Y-53452380D01*
X15966666Y-53452380D01*
X16061904Y-53500000D01*
X16109523Y-53547619D01*
X16157142Y-53642857D01*
X16157142Y-53785714D01*
X16109523Y-53880952D01*
X16061904Y-53928571D01*
X15966666Y-53976190D01*
X15585714Y-53976190D01*
X17061904Y-53452380D02*
X16585714Y-53452380D01*
X16538095Y-53928571D01*
X16585714Y-53880952D01*
X16680952Y-53833333D01*
X16919047Y-53833333D01*
X17014285Y-53880952D01*
X17061904Y-53928571D01*
X17109523Y-54023809D01*
X17109523Y-54261904D01*
X17061904Y-54357142D01*
X17014285Y-54404761D01*
X16919047Y-54452380D01*
X16680952Y-54452380D01*
X16585714Y-54404761D01*
X16538095Y-54357142D01*
X17966666Y-53785714D02*
X17966666Y-54452380D01*
X17728571Y-53404761D02*
X17490476Y-54119047D01*
X18109523Y-54119047D01*
X16157142Y-61952380D02*
X15823809Y-61476190D01*
X15585714Y-61952380D02*
X15585714Y-60952380D01*
X15966666Y-60952380D01*
X16061904Y-61000000D01*
X16109523Y-61047619D01*
X16157142Y-61142857D01*
X16157142Y-61285714D01*
X16109523Y-61380952D01*
X16061904Y-61428571D01*
X15966666Y-61476190D01*
X15585714Y-61476190D01*
X17061904Y-60952380D02*
X16585714Y-60952380D01*
X16538095Y-61428571D01*
X16585714Y-61380952D01*
X16680952Y-61333333D01*
X16919047Y-61333333D01*
X17014285Y-61380952D01*
X17061904Y-61428571D01*
X17109523Y-61523809D01*
X17109523Y-61761904D01*
X17061904Y-61857142D01*
X17014285Y-61904761D01*
X16919047Y-61952380D01*
X16680952Y-61952380D01*
X16585714Y-61904761D01*
X16538095Y-61857142D01*
X18014285Y-60952380D02*
X17538095Y-60952380D01*
X17490476Y-61428571D01*
X17538095Y-61380952D01*
X17633333Y-61333333D01*
X17871428Y-61333333D01*
X17966666Y-61380952D01*
X18014285Y-61428571D01*
X18061904Y-61523809D01*
X18061904Y-61761904D01*
X18014285Y-61857142D01*
X17966666Y-61904761D01*
X17871428Y-61952380D01*
X17633333Y-61952380D01*
X17538095Y-61904761D01*
X17490476Y-61857142D01*
X16157142Y-69952380D02*
X15823809Y-69476190D01*
X15585714Y-69952380D02*
X15585714Y-68952380D01*
X15966666Y-68952380D01*
X16061904Y-69000000D01*
X16109523Y-69047619D01*
X16157142Y-69142857D01*
X16157142Y-69285714D01*
X16109523Y-69380952D01*
X16061904Y-69428571D01*
X15966666Y-69476190D01*
X15585714Y-69476190D01*
X17061904Y-68952380D02*
X16585714Y-68952380D01*
X16538095Y-69428571D01*
X16585714Y-69380952D01*
X16680952Y-69333333D01*
X16919047Y-69333333D01*
X17014285Y-69380952D01*
X17061904Y-69428571D01*
X17109523Y-69523809D01*
X17109523Y-69761904D01*
X17061904Y-69857142D01*
X17014285Y-69904761D01*
X16919047Y-69952380D01*
X16680952Y-69952380D01*
X16585714Y-69904761D01*
X16538095Y-69857142D01*
X17966666Y-68952380D02*
X17776190Y-68952380D01*
X17680952Y-69000000D01*
X17633333Y-69047619D01*
X17538095Y-69190476D01*
X17490476Y-69380952D01*
X17490476Y-69761904D01*
X17538095Y-69857142D01*
X17585714Y-69904761D01*
X17680952Y-69952380D01*
X17871428Y-69952380D01*
X17966666Y-69904761D01*
X18014285Y-69857142D01*
X18061904Y-69761904D01*
X18061904Y-69523809D01*
X18014285Y-69428571D01*
X17966666Y-69380952D01*
X17871428Y-69333333D01*
X17680952Y-69333333D01*
X17585714Y-69380952D01*
X17538095Y-69428571D01*
X17490476Y-69523809D01*
X16157142Y-77452380D02*
X15823809Y-76976190D01*
X15585714Y-77452380D02*
X15585714Y-76452380D01*
X15966666Y-76452380D01*
X16061904Y-76500000D01*
X16109523Y-76547619D01*
X16157142Y-76642857D01*
X16157142Y-76785714D01*
X16109523Y-76880952D01*
X16061904Y-76928571D01*
X15966666Y-76976190D01*
X15585714Y-76976190D01*
X17061904Y-76452380D02*
X16585714Y-76452380D01*
X16538095Y-76928571D01*
X16585714Y-76880952D01*
X16680952Y-76833333D01*
X16919047Y-76833333D01*
X17014285Y-76880952D01*
X17061904Y-76928571D01*
X17109523Y-77023809D01*
X17109523Y-77261904D01*
X17061904Y-77357142D01*
X17014285Y-77404761D01*
X16919047Y-77452380D01*
X16680952Y-77452380D01*
X16585714Y-77404761D01*
X16538095Y-77357142D01*
X17442857Y-76452380D02*
X18109523Y-76452380D01*
X17680952Y-77452380D01*
X16157142Y-85352380D02*
X15823809Y-84876190D01*
X15585714Y-85352380D02*
X15585714Y-84352380D01*
X15966666Y-84352380D01*
X16061904Y-84400000D01*
X16109523Y-84447619D01*
X16157142Y-84542857D01*
X16157142Y-84685714D01*
X16109523Y-84780952D01*
X16061904Y-84828571D01*
X15966666Y-84876190D01*
X15585714Y-84876190D01*
X17061904Y-84352380D02*
X16585714Y-84352380D01*
X16538095Y-84828571D01*
X16585714Y-84780952D01*
X16680952Y-84733333D01*
X16919047Y-84733333D01*
X17014285Y-84780952D01*
X17061904Y-84828571D01*
X17109523Y-84923809D01*
X17109523Y-85161904D01*
X17061904Y-85257142D01*
X17014285Y-85304761D01*
X16919047Y-85352380D01*
X16680952Y-85352380D01*
X16585714Y-85304761D01*
X16538095Y-85257142D01*
X17680952Y-84780952D02*
X17585714Y-84733333D01*
X17538095Y-84685714D01*
X17490476Y-84590476D01*
X17490476Y-84542857D01*
X17538095Y-84447619D01*
X17585714Y-84400000D01*
X17680952Y-84352380D01*
X17871428Y-84352380D01*
X17966666Y-84400000D01*
X18014285Y-84447619D01*
X18061904Y-84542857D01*
X18061904Y-84590476D01*
X18014285Y-84685714D01*
X17966666Y-84733333D01*
X17871428Y-84780952D01*
X17680952Y-84780952D01*
X17585714Y-84828571D01*
X17538095Y-84876190D01*
X17490476Y-84971428D01*
X17490476Y-85161904D01*
X17538095Y-85257142D01*
X17585714Y-85304761D01*
X17680952Y-85352380D01*
X17871428Y-85352380D01*
X17966666Y-85304761D01*
X18014285Y-85257142D01*
X18061904Y-85161904D01*
X18061904Y-84971428D01*
X18014285Y-84876190D01*
X17966666Y-84828571D01*
X17871428Y-84780952D01*
X16107142Y-93202380D02*
X15773809Y-92726190D01*
X15535714Y-93202380D02*
X15535714Y-92202380D01*
X15916666Y-92202380D01*
X16011904Y-92250000D01*
X16059523Y-92297619D01*
X16107142Y-92392857D01*
X16107142Y-92535714D01*
X16059523Y-92630952D01*
X16011904Y-92678571D01*
X15916666Y-92726190D01*
X15535714Y-92726190D01*
X17011904Y-92202380D02*
X16535714Y-92202380D01*
X16488095Y-92678571D01*
X16535714Y-92630952D01*
X16630952Y-92583333D01*
X16869047Y-92583333D01*
X16964285Y-92630952D01*
X17011904Y-92678571D01*
X17059523Y-92773809D01*
X17059523Y-93011904D01*
X17011904Y-93107142D01*
X16964285Y-93154761D01*
X16869047Y-93202380D01*
X16630952Y-93202380D01*
X16535714Y-93154761D01*
X16488095Y-93107142D01*
X17535714Y-93202380D02*
X17726190Y-93202380D01*
X17821428Y-93154761D01*
X17869047Y-93107142D01*
X17964285Y-92964285D01*
X18011904Y-92773809D01*
X18011904Y-92392857D01*
X17964285Y-92297619D01*
X17916666Y-92250000D01*
X17821428Y-92202380D01*
X17630952Y-92202380D01*
X17535714Y-92250000D01*
X17488095Y-92297619D01*
X17440476Y-92392857D01*
X17440476Y-92630952D01*
X17488095Y-92726190D01*
X17535714Y-92773809D01*
X17630952Y-92821428D01*
X17821428Y-92821428D01*
X17916666Y-92773809D01*
X17964285Y-92726190D01*
X18011904Y-92630952D01*
X30952380Y-2488095D02*
X29952380Y-2488095D01*
X29952380Y-2250000D01*
X30000000Y-2107142D01*
X30095238Y-2011904D01*
X30190476Y-1964285D01*
X30380952Y-1916666D01*
X30523809Y-1916666D01*
X30714285Y-1964285D01*
X30809523Y-2011904D01*
X30904761Y-2107142D01*
X30952380Y-2250000D01*
X30952380Y-2488095D01*
X30952380Y-964285D02*
X30952380Y-1535714D01*
X30952380Y-1250000D02*
X29952380Y-1250000D01*
X30095238Y-1345238D01*
X30190476Y-1440476D01*
X30238095Y-1535714D01*
X30952380Y-10238095D02*
X29952380Y-10238095D01*
X29952380Y-10000000D01*
X30000000Y-9857142D01*
X30095238Y-9761904D01*
X30190476Y-9714285D01*
X30380952Y-9666666D01*
X30523809Y-9666666D01*
X30714285Y-9714285D01*
X30809523Y-9761904D01*
X30904761Y-9857142D01*
X30952380Y-10000000D01*
X30952380Y-10238095D01*
X30047619Y-9285714D02*
X30000000Y-9238095D01*
X29952380Y-9142857D01*
X29952380Y-8904761D01*
X30000000Y-8809523D01*
X30047619Y-8761904D01*
X30142857Y-8714285D01*
X30238095Y-8714285D01*
X30380952Y-8761904D01*
X30952380Y-9333333D01*
X30952380Y-8714285D01*
X30952380Y-17988095D02*
X29952380Y-17988095D01*
X29952380Y-17750000D01*
X30000000Y-17607142D01*
X30095238Y-17511904D01*
X30190476Y-17464285D01*
X30380952Y-17416666D01*
X30523809Y-17416666D01*
X30714285Y-17464285D01*
X30809523Y-17511904D01*
X30904761Y-17607142D01*
X30952380Y-17750000D01*
X30952380Y-17988095D01*
X29952380Y-17083333D02*
X29952380Y-16464285D01*
X30333333Y-16797619D01*
X30333333Y-16654761D01*
X30380952Y-16559523D01*
X30428571Y-16511904D01*
X30523809Y-16464285D01*
X30761904Y-16464285D01*
X30857142Y-16511904D01*
X30904761Y-16559523D01*
X30952380Y-16654761D01*
X30952380Y-16940476D01*
X30904761Y-17035714D01*
X30857142Y-17083333D01*
X30952380Y-25738095D02*
X29952380Y-25738095D01*
X29952380Y-25500000D01*
X30000000Y-25357142D01*
X30095238Y-25261904D01*
X30190476Y-25214285D01*
X30380952Y-25166666D01*
X30523809Y-25166666D01*
X30714285Y-25214285D01*
X30809523Y-25261904D01*
X30904761Y-25357142D01*
X30952380Y-25500000D01*
X30952380Y-25738095D01*
X30285714Y-24309523D02*
X30952380Y-24309523D01*
X29904761Y-24547619D02*
X30619047Y-24785714D01*
X30619047Y-24166666D01*
X30952380Y-33488095D02*
X29952380Y-33488095D01*
X29952380Y-33250000D01*
X30000000Y-33107142D01*
X30095238Y-33011904D01*
X30190476Y-32964285D01*
X30380952Y-32916666D01*
X30523809Y-32916666D01*
X30714285Y-32964285D01*
X30809523Y-33011904D01*
X30904761Y-33107142D01*
X30952380Y-33250000D01*
X30952380Y-33488095D01*
X29952380Y-32011904D02*
X29952380Y-32488095D01*
X30428571Y-32535714D01*
X30380952Y-32488095D01*
X30333333Y-32392857D01*
X30333333Y-32154761D01*
X30380952Y-32059523D01*
X30428571Y-32011904D01*
X30523809Y-31964285D01*
X30761904Y-31964285D01*
X30857142Y-32011904D01*
X30904761Y-32059523D01*
X30952380Y-32154761D01*
X30952380Y-32392857D01*
X30904761Y-32488095D01*
X30857142Y-32535714D01*
X30952380Y-40988095D02*
X29952380Y-40988095D01*
X29952380Y-40750000D01*
X30000000Y-40607142D01*
X30095238Y-40511904D01*
X30190476Y-40464285D01*
X30380952Y-40416666D01*
X30523809Y-40416666D01*
X30714285Y-40464285D01*
X30809523Y-40511904D01*
X30904761Y-40607142D01*
X30952380Y-40750000D01*
X30952380Y-40988095D01*
X29952380Y-39559523D02*
X29952380Y-39750000D01*
X30000000Y-39845238D01*
X30047619Y-39892857D01*
X30190476Y-39988095D01*
X30380952Y-40035714D01*
X30761904Y-40035714D01*
X30857142Y-39988095D01*
X30904761Y-39940476D01*
X30952380Y-39845238D01*
X30952380Y-39654761D01*
X30904761Y-39559523D01*
X30857142Y-39511904D01*
X30761904Y-39464285D01*
X30523809Y-39464285D01*
X30428571Y-39511904D01*
X30380952Y-39559523D01*
X30333333Y-39654761D01*
X30333333Y-39845238D01*
X30380952Y-39940476D01*
X30428571Y-39988095D01*
X30523809Y-40035714D01*
X30952380Y-49238095D02*
X29952380Y-49238095D01*
X29952380Y-49000000D01*
X30000000Y-48857142D01*
X30095238Y-48761904D01*
X30190476Y-48714285D01*
X30380952Y-48666666D01*
X30523809Y-48666666D01*
X30714285Y-48714285D01*
X30809523Y-48761904D01*
X30904761Y-48857142D01*
X30952380Y-49000000D01*
X30952380Y-49238095D01*
X29952380Y-48333333D02*
X29952380Y-47666666D01*
X30952380Y-48095238D01*
X30952380Y-56738095D02*
X29952380Y-56738095D01*
X29952380Y-56500000D01*
X30000000Y-56357142D01*
X30095238Y-56261904D01*
X30190476Y-56214285D01*
X30380952Y-56166666D01*
X30523809Y-56166666D01*
X30714285Y-56214285D01*
X30809523Y-56261904D01*
X30904761Y-56357142D01*
X30952380Y-56500000D01*
X30952380Y-56738095D01*
X30380952Y-55595238D02*
X30333333Y-55690476D01*
X30285714Y-55738095D01*
X30190476Y-55785714D01*
X30142857Y-55785714D01*
X30047619Y-55738095D01*
X30000000Y-55690476D01*
X29952380Y-55595238D01*
X29952380Y-55404761D01*
X30000000Y-55309523D01*
X30047619Y-55261904D01*
X30142857Y-55214285D01*
X30190476Y-55214285D01*
X30285714Y-55261904D01*
X30333333Y-55309523D01*
X30380952Y-55404761D01*
X30380952Y-55595238D01*
X30428571Y-55690476D01*
X30476190Y-55738095D01*
X30571428Y-55785714D01*
X30761904Y-55785714D01*
X30857142Y-55738095D01*
X30904761Y-55690476D01*
X30952380Y-55595238D01*
X30952380Y-55404761D01*
X30904761Y-55309523D01*
X30857142Y-55261904D01*
X30761904Y-55214285D01*
X30571428Y-55214285D01*
X30476190Y-55261904D01*
X30428571Y-55309523D01*
X30380952Y-55404761D01*
X30952380Y-64238095D02*
X29952380Y-64238095D01*
X29952380Y-64000000D01*
X30000000Y-63857142D01*
X30095238Y-63761904D01*
X30190476Y-63714285D01*
X30380952Y-63666666D01*
X30523809Y-63666666D01*
X30714285Y-63714285D01*
X30809523Y-63761904D01*
X30904761Y-63857142D01*
X30952380Y-64000000D01*
X30952380Y-64238095D01*
X30952380Y-63190476D02*
X30952380Y-63000000D01*
X30904761Y-62904761D01*
X30857142Y-62857142D01*
X30714285Y-62761904D01*
X30523809Y-62714285D01*
X30142857Y-62714285D01*
X30047619Y-62761904D01*
X30000000Y-62809523D01*
X29952380Y-62904761D01*
X29952380Y-63095238D01*
X30000000Y-63190476D01*
X30047619Y-63238095D01*
X30142857Y-63285714D01*
X30380952Y-63285714D01*
X30476190Y-63238095D01*
X30523809Y-63190476D01*
X30571428Y-63095238D01*
X30571428Y-62904761D01*
X30523809Y-62809523D01*
X30476190Y-62761904D01*
X30380952Y-62714285D01*
X30952380Y-71964285D02*
X29952380Y-71964285D01*
X29952380Y-71726190D01*
X30000000Y-71583333D01*
X30095238Y-71488095D01*
X30190476Y-71440476D01*
X30380952Y-71392857D01*
X30523809Y-71392857D01*
X30714285Y-71440476D01*
X30809523Y-71488095D01*
X30904761Y-71583333D01*
X30952380Y-71726190D01*
X30952380Y-71964285D01*
X30952380Y-70440476D02*
X30952380Y-71011904D01*
X30952380Y-70726190D02*
X29952380Y-70726190D01*
X30095238Y-70821428D01*
X30190476Y-70916666D01*
X30238095Y-71011904D01*
X29952380Y-69821428D02*
X29952380Y-69726190D01*
X30000000Y-69630952D01*
X30047619Y-69583333D01*
X30142857Y-69535714D01*
X30333333Y-69488095D01*
X30571428Y-69488095D01*
X30761904Y-69535714D01*
X30857142Y-69583333D01*
X30904761Y-69630952D01*
X30952380Y-69726190D01*
X30952380Y-69821428D01*
X30904761Y-69916666D01*
X30857142Y-69964285D01*
X30761904Y-70011904D01*
X30571428Y-70059523D01*
X30333333Y-70059523D01*
X30142857Y-70011904D01*
X30047619Y-69964285D01*
X30000000Y-69916666D01*
X29952380Y-69821428D01*
X30952380Y-79714285D02*
X29952380Y-79714285D01*
X29952380Y-79476190D01*
X30000000Y-79333333D01*
X30095238Y-79238095D01*
X30190476Y-79190476D01*
X30380952Y-79142857D01*
X30523809Y-79142857D01*
X30714285Y-79190476D01*
X30809523Y-79238095D01*
X30904761Y-79333333D01*
X30952380Y-79476190D01*
X30952380Y-79714285D01*
X30952380Y-78190476D02*
X30952380Y-78761904D01*
X30952380Y-78476190D02*
X29952380Y-78476190D01*
X30095238Y-78571428D01*
X30190476Y-78666666D01*
X30238095Y-78761904D01*
X30952380Y-77238095D02*
X30952380Y-77809523D01*
X30952380Y-77523809D02*
X29952380Y-77523809D01*
X30095238Y-77619047D01*
X30190476Y-77714285D01*
X30238095Y-77809523D01*
X30952380Y-87714285D02*
X29952380Y-87714285D01*
X29952380Y-87476190D01*
X30000000Y-87333333D01*
X30095238Y-87238095D01*
X30190476Y-87190476D01*
X30380952Y-87142857D01*
X30523809Y-87142857D01*
X30714285Y-87190476D01*
X30809523Y-87238095D01*
X30904761Y-87333333D01*
X30952380Y-87476190D01*
X30952380Y-87714285D01*
X30952380Y-86190476D02*
X30952380Y-86761904D01*
X30952380Y-86476190D02*
X29952380Y-86476190D01*
X30095238Y-86571428D01*
X30190476Y-86666666D01*
X30238095Y-86761904D01*
X30047619Y-85809523D02*
X30000000Y-85761904D01*
X29952380Y-85666666D01*
X29952380Y-85428571D01*
X30000000Y-85333333D01*
X30047619Y-85285714D01*
X30142857Y-85238095D01*
X30238095Y-85238095D01*
X30380952Y-85285714D01*
X30952380Y-85857142D01*
X30952380Y-85238095D01*
X56088114Y-49525180D02*
X56088114Y-48525180D01*
X56326209Y-48525180D01*
X56469066Y-48572800D01*
X56564304Y-48668038D01*
X56611923Y-48763276D01*
X56659542Y-48953752D01*
X56659542Y-49096609D01*
X56611923Y-49287085D01*
X56564304Y-49382323D01*
X56469066Y-49477561D01*
X56326209Y-49525180D01*
X56088114Y-49525180D01*
X57611923Y-49525180D02*
X57040495Y-49525180D01*
X57326209Y-49525180D02*
X57326209Y-48525180D01*
X57230971Y-48668038D01*
X57135733Y-48763276D01*
X57040495Y-48810895D01*
X58469066Y-48525180D02*
X58278590Y-48525180D01*
X58183352Y-48572800D01*
X58135733Y-48620419D01*
X58040495Y-48763276D01*
X57992876Y-48953752D01*
X57992876Y-49334704D01*
X58040495Y-49429942D01*
X58088114Y-49477561D01*
X58183352Y-49525180D01*
X58373828Y-49525180D01*
X58469066Y-49477561D01*
X58516685Y-49429942D01*
X58564304Y-49334704D01*
X58564304Y-49096609D01*
X58516685Y-49001371D01*
X58469066Y-48953752D01*
X58373828Y-48906133D01*
X58183352Y-48906133D01*
X58088114Y-48953752D01*
X58040495Y-49001371D01*
X57992876Y-49096609D01*
M02*
