G04 #@! TF.GenerationSoftware,KiCad,Pcbnew,5.1.0-unknown-c054944~86~ubuntu19.04.1*
G04 #@! TF.CreationDate,2019-05-13T10:22:25-04:00*
G04 #@! TF.ProjectId,LTC6811,4c544336-3831-4312-9e6b-696361645f70,rev?*
G04 #@! TF.SameCoordinates,Original*
G04 #@! TF.FileFunction,Copper,L2,Bot*
G04 #@! TF.FilePolarity,Positive*
%FSLAX46Y46*%
G04 Gerber Fmt 4.6, Leading zero omitted, Abs format (unit mm)*
G04 Created by KiCad (PCBNEW 5.1.0-unknown-c054944~86~ubuntu19.04.1) date 2019-05-13 10:22:25*
%MOMM*%
%LPD*%
G04 APERTURE LIST*
%ADD10O,1.700000X1.700000*%
%ADD11R,1.700000X1.700000*%
%ADD12R,2.000000X2.600000*%
%ADD13O,2.000000X2.600000*%
%ADD14C,5.400000*%
%ADD15C,0.800000*%
%ADD16C,0.250000*%
%ADD17C,1.000000*%
%ADD18C,0.254000*%
G04 APERTURE END LIST*
D10*
X61720000Y-28900000D03*
X59180000Y-28900000D03*
X56640000Y-28900000D03*
D11*
X54100000Y-28900000D03*
X4000000Y-64000000D03*
D10*
X4000000Y-61460000D03*
X4000000Y-58920000D03*
D11*
X4000000Y-89000000D03*
D10*
X4000000Y-86460000D03*
X4000000Y-83920000D03*
D11*
X4000000Y-78000000D03*
D10*
X4000000Y-75460000D03*
X4000000Y-72920000D03*
X4000000Y-70380000D03*
D11*
X4000000Y-53000000D03*
D10*
X4000000Y-50460000D03*
X4000000Y-47920000D03*
X4000000Y-45380000D03*
X4000000Y-42840000D03*
X4000000Y-40300000D03*
X4000000Y-37760000D03*
X4000000Y-35220000D03*
X4000000Y-32680000D03*
X4000000Y-30140000D03*
X4000000Y-27600000D03*
X4000000Y-25060000D03*
X4000000Y-22520000D03*
D12*
X53000000Y-13250000D03*
D13*
X55540000Y-13250000D03*
D12*
X60000000Y-13250000D03*
D13*
X62540000Y-13250000D03*
D14*
X5000000Y-5000000D03*
D15*
X7025000Y-5000000D03*
X6431891Y-6431891D03*
X5000000Y-7025000D03*
X3568109Y-6431891D03*
X2975000Y-5000000D03*
X3568109Y-3568109D03*
X5000000Y-2975000D03*
X6431891Y-3568109D03*
D14*
X5000000Y-95000000D03*
D15*
X7025000Y-95000000D03*
X6431891Y-96431891D03*
X5000000Y-97025000D03*
X3568109Y-96431891D03*
X2975000Y-95000000D03*
X3568109Y-93568109D03*
X5000000Y-92975000D03*
X6431891Y-93568109D03*
D14*
X60000000Y-5000000D03*
D15*
X62025000Y-5000000D03*
X61431891Y-6431891D03*
X60000000Y-7025000D03*
X58568109Y-6431891D03*
X57975000Y-5000000D03*
X58568109Y-3568109D03*
X60000000Y-2975000D03*
X61431891Y-3568109D03*
D14*
X60000000Y-95000000D03*
D15*
X62025000Y-95000000D03*
X61431891Y-96431891D03*
X60000000Y-97025000D03*
X58568109Y-96431891D03*
X57975000Y-95000000D03*
X58568109Y-93568109D03*
X60000000Y-92975000D03*
X61431891Y-93568109D03*
X48550000Y-37450000D03*
X52500000Y-5500000D03*
X52500000Y-2500000D03*
X55000000Y-41250000D03*
X61000000Y-41250000D03*
X57300000Y-44550000D03*
X37250000Y-2800000D03*
X37350000Y-10550000D03*
X34900000Y-46750000D03*
X37300000Y-56850000D03*
X37250000Y-64550000D03*
X37250000Y-72250000D03*
X37250000Y-79950000D03*
X30400000Y-93200000D03*
X36410000Y-2800000D03*
X36470000Y-10520000D03*
X34900000Y-47610000D03*
X36420000Y-56860000D03*
X36340000Y-64550000D03*
X36420000Y-72250000D03*
X36430000Y-79950000D03*
X37230000Y-87960000D03*
X36370000Y-87960000D03*
X30390000Y-92380000D03*
X53410000Y-5520000D03*
X54990000Y-40380000D03*
X60980000Y-40390000D03*
X57380000Y-45450000D03*
X48540000Y-36580000D03*
X63115000Y-55175000D03*
X63095000Y-57060000D03*
X62265000Y-57050000D03*
X62285000Y-55185000D03*
X53339982Y-2499982D03*
X36360000Y-18250000D03*
X37250000Y-18250000D03*
X36220000Y-25950000D03*
X37050000Y-25950000D03*
X36400000Y-33660000D03*
X37250000Y-33650000D03*
X34900000Y-39250000D03*
X34900000Y-40110000D03*
X6000000Y-14300000D03*
X6000000Y-16800000D03*
X6000000Y-19300000D03*
X62255000Y-58660400D03*
X63093200Y-58635000D03*
X13970000Y-97282000D03*
X13970000Y-96266000D03*
X13970000Y-98323400D03*
X47142400Y-58166000D03*
X47193180Y-55905420D03*
X47142410Y-56997610D03*
X62525000Y-61950000D03*
X63525000Y-61950000D03*
X62970000Y-53485000D03*
X62140000Y-53475000D03*
X46250000Y-7500000D03*
X46250000Y-2500000D03*
X47200000Y-2490000D03*
X46270000Y-6630000D03*
X52075000Y-38025000D03*
X52050000Y-37125000D03*
X3875000Y-55900000D03*
X4775000Y-55900000D03*
X60925000Y-48350000D03*
X61799999Y-48350003D03*
X19250000Y-3800000D03*
X19250000Y-2800000D03*
X19250000Y-4800000D03*
X19250000Y-7600000D03*
X19250000Y-6500000D03*
X19250000Y-8650000D03*
X19250000Y-11500000D03*
X19250000Y-10500000D03*
X19250000Y-12500000D03*
X19250000Y-15350000D03*
X19250000Y-14350000D03*
X19250000Y-16350000D03*
X19250000Y-19250000D03*
X19250000Y-18250000D03*
X19250000Y-20250000D03*
X19250000Y-23050000D03*
X19250000Y-22050000D03*
X19250000Y-24050000D03*
X19250000Y-26950000D03*
X19250000Y-25950000D03*
X19250000Y-27950000D03*
X19250000Y-30750000D03*
X19250000Y-29750000D03*
X19250000Y-31750000D03*
X19250000Y-34650000D03*
X19250000Y-33650000D03*
X19250000Y-35650000D03*
X19250000Y-38450000D03*
X19250000Y-37450000D03*
X19250000Y-39450000D03*
X19250000Y-42350000D03*
X19250000Y-41350000D03*
X19250000Y-43350000D03*
X19250000Y-46200000D03*
X19250000Y-45200000D03*
X19250000Y-47200000D03*
X19250000Y-50150000D03*
X19250000Y-49150000D03*
X19250000Y-51150000D03*
X19250000Y-53950000D03*
X19250000Y-52950000D03*
X19250000Y-54950000D03*
X19300000Y-57850000D03*
X19300000Y-56850000D03*
X19300000Y-58850000D03*
X19250000Y-61650000D03*
X19250000Y-60650000D03*
X19250000Y-62650000D03*
X19250000Y-65550000D03*
X19250000Y-64550000D03*
X19250000Y-66550000D03*
X19250000Y-69350000D03*
X19250000Y-68350000D03*
X19250000Y-70350000D03*
X19250000Y-73250000D03*
X19250000Y-72250000D03*
X19250000Y-74250000D03*
X19250000Y-77050000D03*
X19250000Y-76050000D03*
X19250000Y-78050000D03*
X19250000Y-80950000D03*
X19250000Y-79950000D03*
X19250000Y-81950000D03*
X19250000Y-84900000D03*
X19250000Y-83900000D03*
X19250000Y-85900000D03*
X19250000Y-88950000D03*
X19250000Y-87950000D03*
X19250000Y-89950000D03*
X19250000Y-92950000D03*
X19250000Y-91950000D03*
X19250000Y-93950000D03*
X49733200Y-69392800D03*
X42900600Y-69367400D03*
X43840400Y-69367400D03*
X48793400Y-69392800D03*
X52425484Y-55956200D03*
X53263800Y-55956200D03*
X55500000Y-56600000D03*
X40995600Y-83591400D03*
X48488600Y-83591400D03*
X41833800Y-83591400D03*
X47625000Y-83591400D03*
X56413400Y-56591200D03*
X44094400Y-61899800D03*
X49744200Y-61899800D03*
X44094400Y-61010800D03*
X49744200Y-60934600D03*
X49450000Y-57350000D03*
X48550000Y-57350000D03*
X50038000Y-75565000D03*
X42951400Y-75565000D03*
X43942000Y-75565000D03*
X49174400Y-75565000D03*
X54254400Y-55067200D03*
X55118000Y-55067200D03*
D16*
X46250000Y-7500000D02*
X46250000Y-2500000D01*
D17*
X52075000Y-37150000D02*
X52050000Y-37125000D01*
X52075000Y-38025000D02*
X52075000Y-37150000D01*
X52075000Y-38025000D02*
X52075000Y-45100000D01*
D16*
X30875000Y-55900000D02*
X4775000Y-55900000D01*
X52075000Y-45100000D02*
X41675000Y-45100000D01*
X41675000Y-45100000D02*
X30875000Y-55900000D01*
X3875000Y-55900000D02*
X3875000Y-55900000D01*
D17*
X3875000Y-55900000D02*
X4775000Y-55900000D01*
D16*
X55325000Y-48350000D02*
X60925000Y-48350000D01*
X52075000Y-45100000D02*
X55325000Y-48350000D01*
D17*
X61799996Y-48350000D02*
X61799999Y-48350003D01*
X60925000Y-48350000D02*
X61799996Y-48350000D01*
X19250000Y-54950000D02*
X19250000Y-53950000D01*
X19250000Y-62650000D02*
X19250000Y-61650000D01*
X19300000Y-57850000D02*
X19300000Y-56850000D01*
X19250000Y-70350000D02*
X19250000Y-69350000D01*
X19250000Y-64550000D02*
X19250000Y-65550000D01*
X19250000Y-73250000D02*
X19250000Y-72250000D01*
X19250000Y-78050000D02*
X19250000Y-77050000D01*
X19250000Y-80950000D02*
X19250000Y-79950000D01*
X19250000Y-85900000D02*
X19250000Y-84900000D01*
X19250000Y-88950000D02*
X19250000Y-87950000D01*
D16*
X52425484Y-66700516D02*
X52425484Y-56521885D01*
X52425484Y-56521885D02*
X52425484Y-55956200D01*
X49733200Y-69392800D02*
X52425484Y-66700516D01*
D17*
X52425484Y-55956200D02*
X53263800Y-55956200D01*
X42900600Y-69367400D02*
X43840400Y-69367400D01*
X48793400Y-69392800D02*
X49733200Y-69392800D01*
D16*
X6277200Y-72920000D02*
X4000000Y-72920000D01*
X7897200Y-71300000D02*
X6277200Y-72920000D01*
X31011200Y-71300000D02*
X7897200Y-71300000D01*
X32893000Y-69418200D02*
X31011200Y-71300000D01*
X42900600Y-69367400D02*
X42849800Y-69418200D01*
X42849800Y-69418200D02*
X32893000Y-69418200D01*
X55500000Y-67600000D02*
X55500000Y-56600000D01*
X48514000Y-83591400D02*
X50774600Y-83591400D01*
X55500000Y-78866000D02*
X55500000Y-67600000D01*
X50774600Y-83591400D02*
X55500000Y-78866000D01*
D17*
X47625000Y-83591400D02*
X48488600Y-83591400D01*
X40995600Y-83591400D02*
X41833800Y-83591400D01*
X56404600Y-56600000D02*
X56413400Y-56591200D01*
X55500000Y-56600000D02*
X56404600Y-56600000D01*
D16*
X5942000Y-86460000D02*
X4000000Y-86460000D01*
X6382000Y-86900000D02*
X5942000Y-86460000D01*
X30900000Y-86900000D02*
X6382000Y-86900000D01*
X34200000Y-83600000D02*
X30900000Y-86900000D01*
X40995600Y-83591400D02*
X40987000Y-83600000D01*
X40987000Y-83600000D02*
X34200000Y-83600000D01*
D17*
X44094400Y-61899800D02*
X44094400Y-61010800D01*
X49744200Y-61899800D02*
X49744200Y-60934600D01*
D16*
X4008000Y-61468000D02*
X4000000Y-61460000D01*
X43694401Y-62299799D02*
X31832601Y-62299799D01*
X44094400Y-61899800D02*
X43694401Y-62299799D01*
X31832601Y-62299799D02*
X30407410Y-63724990D01*
X30407410Y-63724990D02*
X8911790Y-63724990D01*
X8911790Y-63724990D02*
X6654800Y-61468000D01*
X6654800Y-61468000D02*
X4008000Y-61468000D01*
X49744200Y-60934600D02*
X49744200Y-57644200D01*
X49744200Y-57644200D02*
X49450000Y-57350000D01*
D17*
X48550000Y-57350000D02*
X49450000Y-57350000D01*
D16*
X50603685Y-75565000D02*
X54254400Y-71914285D01*
X50038000Y-75565000D02*
X50603685Y-75565000D01*
X54254400Y-71914285D02*
X54254400Y-59766200D01*
X43688000Y-75565000D02*
X43713399Y-75539601D01*
D17*
X49174400Y-75565000D02*
X50038000Y-75565000D01*
D16*
X54254400Y-59766200D02*
X54254400Y-55067200D01*
D17*
X55118000Y-55067200D02*
X54254400Y-55067200D01*
X42951400Y-75565000D02*
X43942000Y-75565000D01*
D16*
X38150800Y-75565000D02*
X42951400Y-75565000D01*
X34696400Y-79019400D02*
X38150800Y-75565000D01*
X10312400Y-79019400D02*
X34696400Y-79019400D01*
X6680200Y-75387200D02*
X10312400Y-79019400D01*
X4000000Y-75460000D02*
X4072800Y-75387200D01*
X4072800Y-75387200D02*
X6680200Y-75387200D01*
D18*
G36*
X11153091Y-1248405D02*
G01*
X11012934Y-1419186D01*
X10908788Y-1614030D01*
X10844655Y-1825447D01*
X10823000Y-2045314D01*
X10823000Y-9045314D01*
X10844655Y-9265181D01*
X10900009Y-9447657D01*
X10844655Y-9630133D01*
X10823000Y-9850000D01*
X10823000Y-17000000D01*
X10845370Y-17223431D01*
X10876543Y-17325014D01*
X10844655Y-17430133D01*
X10823000Y-17650000D01*
X10823000Y-24750000D01*
X10844655Y-24969867D01*
X10868986Y-25050077D01*
X10844277Y-25132043D01*
X10823002Y-25351947D01*
X10835097Y-32351947D01*
X10856750Y-32569867D01*
X10882594Y-32655064D01*
X10844655Y-32780133D01*
X10823000Y-33000000D01*
X10823000Y-40000000D01*
X10844655Y-40219867D01*
X10891714Y-40375000D01*
X10844655Y-40530133D01*
X10823000Y-40750000D01*
X10823000Y-47750000D01*
X10844655Y-47969867D01*
X10891714Y-48125000D01*
X10844655Y-48280133D01*
X10823000Y-48500000D01*
X10823000Y-54648000D01*
X5814088Y-54648000D01*
X5717851Y-54569021D01*
X5791600Y-54479157D01*
X5896250Y-54283371D01*
X5960693Y-54070931D01*
X5982453Y-53850000D01*
X5982453Y-52150000D01*
X5960693Y-51929069D01*
X5896250Y-51716629D01*
X5791600Y-51520843D01*
X5720785Y-51434555D01*
X5835347Y-51220226D01*
X5948394Y-50847560D01*
X5986565Y-50460000D01*
X5948394Y-50072440D01*
X5835347Y-49699774D01*
X5651768Y-49356324D01*
X5515270Y-49190000D01*
X5651768Y-49023676D01*
X5835347Y-48680226D01*
X5948394Y-48307560D01*
X5986565Y-47920000D01*
X5948394Y-47532440D01*
X5835347Y-47159774D01*
X5651768Y-46816324D01*
X5515270Y-46650000D01*
X5651768Y-46483676D01*
X5835347Y-46140226D01*
X5948394Y-45767560D01*
X5986565Y-45380000D01*
X5948394Y-44992440D01*
X5835347Y-44619774D01*
X5651768Y-44276324D01*
X5515270Y-44110000D01*
X5651768Y-43943676D01*
X5835347Y-43600226D01*
X5948394Y-43227560D01*
X5986565Y-42840000D01*
X5948394Y-42452440D01*
X5835347Y-42079774D01*
X5651768Y-41736324D01*
X5515270Y-41570000D01*
X5651768Y-41403676D01*
X5835347Y-41060226D01*
X5948394Y-40687560D01*
X5986565Y-40300000D01*
X5948394Y-39912440D01*
X5835347Y-39539774D01*
X5651768Y-39196324D01*
X5515270Y-39030000D01*
X5651768Y-38863676D01*
X5835347Y-38520226D01*
X5948394Y-38147560D01*
X5986565Y-37760000D01*
X5948394Y-37372440D01*
X5835347Y-36999774D01*
X5651768Y-36656324D01*
X5515270Y-36490000D01*
X5651768Y-36323676D01*
X5835347Y-35980226D01*
X5948394Y-35607560D01*
X5986565Y-35220000D01*
X5948394Y-34832440D01*
X5835347Y-34459774D01*
X5651768Y-34116324D01*
X5515270Y-33950000D01*
X5651768Y-33783676D01*
X5835347Y-33440226D01*
X5948394Y-33067560D01*
X5986565Y-32680000D01*
X5948394Y-32292440D01*
X5835347Y-31919774D01*
X5651768Y-31576324D01*
X5515270Y-31410000D01*
X5651768Y-31243676D01*
X5835347Y-30900226D01*
X5948394Y-30527560D01*
X5986565Y-30140000D01*
X5948394Y-29752440D01*
X5835347Y-29379774D01*
X5651768Y-29036324D01*
X5515270Y-28870000D01*
X5651768Y-28703676D01*
X5835347Y-28360226D01*
X5948394Y-27987560D01*
X5986565Y-27600000D01*
X5948394Y-27212440D01*
X5835347Y-26839774D01*
X5651768Y-26496324D01*
X5515270Y-26330000D01*
X5651768Y-26163676D01*
X5835347Y-25820226D01*
X5948394Y-25447560D01*
X5986565Y-25060000D01*
X5948394Y-24672440D01*
X5835347Y-24299774D01*
X5651768Y-23956324D01*
X5515270Y-23790000D01*
X5651768Y-23623676D01*
X5835347Y-23280226D01*
X5948394Y-22907560D01*
X5986565Y-22520000D01*
X5948394Y-22132440D01*
X5835347Y-21759774D01*
X5651768Y-21416324D01*
X5404714Y-21115286D01*
X5103676Y-20868232D01*
X4760226Y-20684653D01*
X4387560Y-20571606D01*
X4097116Y-20543000D01*
X3902884Y-20543000D01*
X3612440Y-20571606D01*
X3239774Y-20684653D01*
X2896324Y-20868232D01*
X2595286Y-21115286D01*
X2348232Y-21416324D01*
X2164653Y-21759774D01*
X2051606Y-22132440D01*
X2013435Y-22520000D01*
X2051606Y-22907560D01*
X2164653Y-23280226D01*
X2348232Y-23623676D01*
X2484730Y-23790000D01*
X2348232Y-23956324D01*
X2164653Y-24299774D01*
X2051606Y-24672440D01*
X2013435Y-25060000D01*
X2051606Y-25447560D01*
X2164653Y-25820226D01*
X2348232Y-26163676D01*
X2484730Y-26330000D01*
X2348232Y-26496324D01*
X2164653Y-26839774D01*
X2051606Y-27212440D01*
X2013435Y-27600000D01*
X2051606Y-27987560D01*
X2164653Y-28360226D01*
X2348232Y-28703676D01*
X2484730Y-28870000D01*
X2348232Y-29036324D01*
X2164653Y-29379774D01*
X2051606Y-29752440D01*
X2013435Y-30140000D01*
X2051606Y-30527560D01*
X2164653Y-30900226D01*
X2348232Y-31243676D01*
X2484730Y-31410000D01*
X2348232Y-31576324D01*
X2164653Y-31919774D01*
X2051606Y-32292440D01*
X2013435Y-32680000D01*
X2051606Y-33067560D01*
X2164653Y-33440226D01*
X2348232Y-33783676D01*
X2484730Y-33950000D01*
X2348232Y-34116324D01*
X2164653Y-34459774D01*
X2051606Y-34832440D01*
X2013435Y-35220000D01*
X2051606Y-35607560D01*
X2164653Y-35980226D01*
X2348232Y-36323676D01*
X2484730Y-36490000D01*
X2348232Y-36656324D01*
X2164653Y-36999774D01*
X2051606Y-37372440D01*
X2013435Y-37760000D01*
X2051606Y-38147560D01*
X2164653Y-38520226D01*
X2348232Y-38863676D01*
X2484730Y-39030000D01*
X2348232Y-39196324D01*
X2164653Y-39539774D01*
X2051606Y-39912440D01*
X2013435Y-40300000D01*
X2051606Y-40687560D01*
X2164653Y-41060226D01*
X2348232Y-41403676D01*
X2484730Y-41570000D01*
X2348232Y-41736324D01*
X2164653Y-42079774D01*
X2051606Y-42452440D01*
X2013435Y-42840000D01*
X2051606Y-43227560D01*
X2164653Y-43600226D01*
X2348232Y-43943676D01*
X2484730Y-44110000D01*
X2348232Y-44276324D01*
X2164653Y-44619774D01*
X2051606Y-44992440D01*
X2013435Y-45380000D01*
X2051606Y-45767560D01*
X2164653Y-46140226D01*
X2348232Y-46483676D01*
X2484730Y-46650000D01*
X2348232Y-46816324D01*
X2164653Y-47159774D01*
X2051606Y-47532440D01*
X2013435Y-47920000D01*
X2051606Y-48307560D01*
X2164653Y-48680226D01*
X2348232Y-49023676D01*
X2484730Y-49190000D01*
X2348232Y-49356324D01*
X2164653Y-49699774D01*
X2051606Y-50072440D01*
X2013435Y-50460000D01*
X2051606Y-50847560D01*
X2164653Y-51220226D01*
X2279215Y-51434555D01*
X2208400Y-51520843D01*
X2103750Y-51716629D01*
X2039307Y-51929069D01*
X2017547Y-52150000D01*
X2017547Y-53850000D01*
X2039307Y-54070931D01*
X2103750Y-54283371D01*
X2208400Y-54479157D01*
X2349235Y-54650765D01*
X2520843Y-54791600D01*
X2631390Y-54850689D01*
X2515654Y-54991714D01*
X2364575Y-55274362D01*
X2271542Y-55581052D01*
X2240128Y-55900000D01*
X2271542Y-56218948D01*
X2364575Y-56525638D01*
X2515654Y-56808286D01*
X2718971Y-57056029D01*
X2966714Y-57259346D01*
X3249362Y-57410425D01*
X3556052Y-57503458D01*
X3569164Y-57504749D01*
X3368748Y-57575843D01*
X3118645Y-57724822D01*
X2902412Y-57919731D01*
X2728359Y-58153080D01*
X2603175Y-58415901D01*
X2558524Y-58563110D01*
X2679845Y-58793000D01*
X3873000Y-58793000D01*
X3873000Y-58773000D01*
X4127000Y-58773000D01*
X4127000Y-58793000D01*
X5320155Y-58793000D01*
X5441476Y-58563110D01*
X5396825Y-58415901D01*
X5271641Y-58153080D01*
X5097588Y-57919731D01*
X4881355Y-57724822D01*
X4631252Y-57575843D01*
X4493561Y-57527000D01*
X4854925Y-57527000D01*
X5093948Y-57503458D01*
X5400638Y-57410425D01*
X5683286Y-57259346D01*
X5814088Y-57152000D01*
X10823000Y-57152000D01*
X10823000Y-62472990D01*
X9430385Y-62472990D01*
X7583587Y-60626192D01*
X7544381Y-60578419D01*
X7353739Y-60421964D01*
X7136238Y-60305707D01*
X6900235Y-60234116D01*
X6716298Y-60216000D01*
X6716296Y-60216000D01*
X6654800Y-60209943D01*
X6593304Y-60216000D01*
X5536608Y-60216000D01*
X5404714Y-60055286D01*
X5151736Y-59847674D01*
X5271641Y-59686920D01*
X5396825Y-59424099D01*
X5441476Y-59276890D01*
X5320155Y-59047000D01*
X4127000Y-59047000D01*
X4127000Y-59067000D01*
X3873000Y-59067000D01*
X3873000Y-59047000D01*
X2679845Y-59047000D01*
X2558524Y-59276890D01*
X2603175Y-59424099D01*
X2728359Y-59686920D01*
X2848264Y-59847674D01*
X2595286Y-60055286D01*
X2348232Y-60356324D01*
X2164653Y-60699774D01*
X2051606Y-61072440D01*
X2013435Y-61460000D01*
X2051606Y-61847560D01*
X2164653Y-62220226D01*
X2279215Y-62434555D01*
X2208400Y-62520843D01*
X2103750Y-62716629D01*
X2039307Y-62929069D01*
X2017547Y-63150000D01*
X2017547Y-64850000D01*
X2039307Y-65070931D01*
X2103750Y-65283371D01*
X2208400Y-65479157D01*
X2349235Y-65650765D01*
X2520843Y-65791600D01*
X2716629Y-65896250D01*
X2929069Y-65960693D01*
X3150000Y-65982453D01*
X4850000Y-65982453D01*
X5070931Y-65960693D01*
X5283371Y-65896250D01*
X5479157Y-65791600D01*
X5650765Y-65650765D01*
X5791600Y-65479157D01*
X5896250Y-65283371D01*
X5960693Y-65070931D01*
X5982453Y-64850000D01*
X5982453Y-63150000D01*
X5960693Y-62929069D01*
X5897273Y-62720000D01*
X6136205Y-62720000D01*
X7983003Y-64566798D01*
X8022209Y-64614571D01*
X8212851Y-64771026D01*
X8430352Y-64887283D01*
X8666355Y-64958874D01*
X8850292Y-64976990D01*
X8850294Y-64976990D01*
X8911790Y-64983047D01*
X8973286Y-64976990D01*
X10823000Y-64976990D01*
X10823000Y-70048000D01*
X7958696Y-70048000D01*
X7897200Y-70041943D01*
X7835704Y-70048000D01*
X7835702Y-70048000D01*
X7651765Y-70066116D01*
X7415762Y-70137707D01*
X7198261Y-70253964D01*
X7007619Y-70410419D01*
X6968417Y-70458187D01*
X5758605Y-71668000D01*
X5530042Y-71668000D01*
X5404714Y-71515286D01*
X5151736Y-71307674D01*
X5271641Y-71146920D01*
X5396825Y-70884099D01*
X5441476Y-70736890D01*
X5320155Y-70507000D01*
X4127000Y-70507000D01*
X4127000Y-70527000D01*
X3873000Y-70527000D01*
X3873000Y-70507000D01*
X2679845Y-70507000D01*
X2558524Y-70736890D01*
X2603175Y-70884099D01*
X2728359Y-71146920D01*
X2848264Y-71307674D01*
X2595286Y-71515286D01*
X2348232Y-71816324D01*
X2164653Y-72159774D01*
X2051606Y-72532440D01*
X2013435Y-72920000D01*
X2051606Y-73307560D01*
X2164653Y-73680226D01*
X2348232Y-74023676D01*
X2484730Y-74190000D01*
X2348232Y-74356324D01*
X2164653Y-74699774D01*
X2051606Y-75072440D01*
X2013435Y-75460000D01*
X2051606Y-75847560D01*
X2164653Y-76220226D01*
X2279215Y-76434555D01*
X2208400Y-76520843D01*
X2103750Y-76716629D01*
X2039307Y-76929069D01*
X2017547Y-77150000D01*
X2017547Y-78850000D01*
X2039307Y-79070931D01*
X2103750Y-79283371D01*
X2208400Y-79479157D01*
X2349235Y-79650765D01*
X2520843Y-79791600D01*
X2716629Y-79896250D01*
X2929069Y-79960693D01*
X3150000Y-79982453D01*
X4850000Y-79982453D01*
X5070931Y-79960693D01*
X5283371Y-79896250D01*
X5479157Y-79791600D01*
X5650765Y-79650765D01*
X5791600Y-79479157D01*
X5896250Y-79283371D01*
X5960693Y-79070931D01*
X5982453Y-78850000D01*
X5982453Y-77150000D01*
X5960693Y-76929069D01*
X5896250Y-76716629D01*
X5854863Y-76639200D01*
X6161605Y-76639200D01*
X9383613Y-79861208D01*
X9422819Y-79908981D01*
X9613461Y-80065436D01*
X9830962Y-80181693D01*
X9979310Y-80226694D01*
X10066965Y-80253284D01*
X10312400Y-80277457D01*
X10373898Y-80271400D01*
X10823000Y-80271400D01*
X10823000Y-85648000D01*
X6900595Y-85648000D01*
X6870787Y-85618192D01*
X6831581Y-85570419D01*
X6640939Y-85413964D01*
X6423438Y-85297707D01*
X6187435Y-85226116D01*
X6003498Y-85208000D01*
X6003496Y-85208000D01*
X5942000Y-85201943D01*
X5880504Y-85208000D01*
X5530042Y-85208000D01*
X5404714Y-85055286D01*
X5151736Y-84847674D01*
X5271641Y-84686920D01*
X5396825Y-84424099D01*
X5441476Y-84276890D01*
X5320155Y-84047000D01*
X4127000Y-84047000D01*
X4127000Y-84067000D01*
X3873000Y-84067000D01*
X3873000Y-84047000D01*
X2679845Y-84047000D01*
X2558524Y-84276890D01*
X2603175Y-84424099D01*
X2728359Y-84686920D01*
X2848264Y-84847674D01*
X2595286Y-85055286D01*
X2348232Y-85356324D01*
X2164653Y-85699774D01*
X2051606Y-86072440D01*
X2013435Y-86460000D01*
X2051606Y-86847560D01*
X2164653Y-87220226D01*
X2279215Y-87434555D01*
X2208400Y-87520843D01*
X2103750Y-87716629D01*
X2039307Y-87929069D01*
X2017547Y-88150000D01*
X2017547Y-89850000D01*
X2039307Y-90070931D01*
X2103750Y-90283371D01*
X2208400Y-90479157D01*
X2349235Y-90650765D01*
X2520843Y-90791600D01*
X2716629Y-90896250D01*
X2929069Y-90960693D01*
X3150000Y-90982453D01*
X4850000Y-90982453D01*
X5070931Y-90960693D01*
X5283371Y-90896250D01*
X5479157Y-90791600D01*
X5650765Y-90650765D01*
X5791600Y-90479157D01*
X5896250Y-90283371D01*
X5960693Y-90070931D01*
X5982453Y-89850000D01*
X5982453Y-88150000D01*
X5976071Y-88085198D01*
X6136565Y-88133884D01*
X6320502Y-88152000D01*
X6320504Y-88152000D01*
X6382000Y-88158057D01*
X6443496Y-88152000D01*
X10831853Y-88152000D01*
X10823001Y-94348390D01*
X10844655Y-94569867D01*
X10908788Y-94781284D01*
X11012934Y-94976128D01*
X11153091Y-95146909D01*
X11323872Y-95287066D01*
X11518716Y-95391212D01*
X11730133Y-95455345D01*
X11950000Y-95477000D01*
X27400000Y-95477000D01*
X27611966Y-95456887D01*
X27823836Y-95394266D01*
X28019419Y-95291515D01*
X28191197Y-95152581D01*
X28332570Y-94982805D01*
X28438105Y-94788710D01*
X28489645Y-94623073D01*
X56173000Y-94623073D01*
X56173000Y-95376927D01*
X56320070Y-96116295D01*
X56608557Y-96812764D01*
X57027375Y-97439570D01*
X57560430Y-97972625D01*
X58187236Y-98391443D01*
X58883705Y-98679930D01*
X59623073Y-98827000D01*
X60376927Y-98827000D01*
X61116295Y-98679930D01*
X61812764Y-98391443D01*
X62439570Y-97972625D01*
X62972625Y-97439570D01*
X63391443Y-96812764D01*
X63679930Y-96116295D01*
X63827000Y-95376927D01*
X63827000Y-94623073D01*
X63679930Y-93883705D01*
X63391443Y-93187236D01*
X62972625Y-92560430D01*
X62439570Y-92027375D01*
X61812764Y-91608557D01*
X61116295Y-91320070D01*
X60376927Y-91173000D01*
X59623073Y-91173000D01*
X58883705Y-91320070D01*
X58187236Y-91608557D01*
X57560430Y-92027375D01*
X57027375Y-92560430D01*
X56608557Y-93187236D01*
X56320070Y-93883705D01*
X56173000Y-94623073D01*
X28489645Y-94623073D01*
X28503746Y-94577756D01*
X28526971Y-94358050D01*
X28571300Y-88152000D01*
X30838504Y-88152000D01*
X30900000Y-88158057D01*
X30961496Y-88152000D01*
X30961498Y-88152000D01*
X31145435Y-88133884D01*
X31381438Y-88062293D01*
X31598939Y-87946036D01*
X31789581Y-87789581D01*
X31828787Y-87741808D01*
X34718595Y-84852000D01*
X39966991Y-84852000D01*
X40087314Y-84950746D01*
X40369962Y-85101825D01*
X40676652Y-85194858D01*
X40915675Y-85218400D01*
X41913725Y-85218400D01*
X42152748Y-85194858D01*
X42459438Y-85101825D01*
X42742086Y-84950746D01*
X42989829Y-84747429D01*
X43193146Y-84499686D01*
X43344225Y-84217038D01*
X43437258Y-83910348D01*
X43468672Y-83591400D01*
X45990128Y-83591400D01*
X46021542Y-83910348D01*
X46114575Y-84217038D01*
X46265654Y-84499686D01*
X46468971Y-84747429D01*
X46716714Y-84950746D01*
X46999362Y-85101825D01*
X47306052Y-85194858D01*
X47545075Y-85218400D01*
X48568525Y-85218400D01*
X48807548Y-85194858D01*
X49114238Y-85101825D01*
X49396886Y-84950746D01*
X49527688Y-84843400D01*
X50713104Y-84843400D01*
X50774600Y-84849457D01*
X50836096Y-84843400D01*
X50836098Y-84843400D01*
X51020035Y-84825284D01*
X51256038Y-84753693D01*
X51473539Y-84637436D01*
X51664181Y-84480981D01*
X51703387Y-84433208D01*
X56341809Y-79794786D01*
X56389581Y-79755581D01*
X56546036Y-79564939D01*
X56662293Y-79347438D01*
X56733884Y-79111435D01*
X56752000Y-78927498D01*
X56752000Y-78927496D01*
X56758057Y-78866000D01*
X56752000Y-78804504D01*
X56752000Y-58194827D01*
X57030238Y-58110425D01*
X57312886Y-57959346D01*
X57560629Y-57756029D01*
X57611580Y-57693945D01*
X57620378Y-57685147D01*
X57772746Y-57499485D01*
X57923824Y-57216838D01*
X58016857Y-56910147D01*
X58048271Y-56591201D01*
X58016857Y-56272253D01*
X57923824Y-55965562D01*
X57772746Y-55682915D01*
X57569429Y-55435171D01*
X57321685Y-55231854D01*
X57039038Y-55080776D01*
X56745437Y-54991714D01*
X56721458Y-54748252D01*
X56628425Y-54441562D01*
X56477346Y-54158914D01*
X56274029Y-53911171D01*
X56026286Y-53707854D01*
X55743638Y-53556775D01*
X55436948Y-53463742D01*
X55197925Y-53440200D01*
X54174475Y-53440200D01*
X53935452Y-53463742D01*
X53628762Y-53556775D01*
X53346114Y-53707854D01*
X53098371Y-53911171D01*
X52895054Y-54158914D01*
X52804034Y-54329200D01*
X52345559Y-54329200D01*
X52106536Y-54352742D01*
X51799846Y-54445775D01*
X51517198Y-54596854D01*
X51269455Y-54800171D01*
X51066138Y-55047914D01*
X50915059Y-55330562D01*
X50822026Y-55637252D01*
X50790612Y-55956200D01*
X50822026Y-56275148D01*
X50915059Y-56581838D01*
X51066138Y-56864486D01*
X51173485Y-56995289D01*
X51173485Y-60157160D01*
X51103546Y-60026314D01*
X50996200Y-59895512D01*
X50996200Y-57857703D01*
X51053458Y-57668948D01*
X51084872Y-57350000D01*
X51053458Y-57031052D01*
X50960425Y-56724362D01*
X50809346Y-56441714D01*
X50606029Y-56193971D01*
X50358286Y-55990654D01*
X50075638Y-55839575D01*
X49768948Y-55746542D01*
X49529925Y-55723000D01*
X48470075Y-55723000D01*
X48231052Y-55746542D01*
X47924362Y-55839575D01*
X47641714Y-55990654D01*
X47393971Y-56193971D01*
X47190654Y-56441714D01*
X47039575Y-56724362D01*
X46946542Y-57031052D01*
X46915128Y-57350000D01*
X46946542Y-57668948D01*
X47039575Y-57975638D01*
X47190654Y-58258286D01*
X47393971Y-58506029D01*
X47641714Y-58709346D01*
X47924362Y-58860425D01*
X48231052Y-58953458D01*
X48470075Y-58977000D01*
X48492201Y-58977000D01*
X48492200Y-59895512D01*
X48384854Y-60026314D01*
X48233775Y-60308962D01*
X48140742Y-60615652D01*
X48117200Y-60854675D01*
X48117200Y-61979724D01*
X48140742Y-62218747D01*
X48233775Y-62525437D01*
X48384854Y-62808085D01*
X48588171Y-63055829D01*
X48835914Y-63259146D01*
X49118562Y-63410225D01*
X49425252Y-63503258D01*
X49744200Y-63534672D01*
X50063147Y-63503258D01*
X50369837Y-63410225D01*
X50652485Y-63259146D01*
X50900229Y-63055829D01*
X51103546Y-62808086D01*
X51173484Y-62677241D01*
X51173484Y-66181921D01*
X49589605Y-67765800D01*
X48713475Y-67765800D01*
X48474452Y-67789342D01*
X48167762Y-67882375D01*
X47885114Y-68033454D01*
X47637371Y-68236771D01*
X47434054Y-68484514D01*
X47282975Y-68767162D01*
X47189942Y-69073852D01*
X47158528Y-69392800D01*
X47189942Y-69711748D01*
X47282975Y-70018438D01*
X47434054Y-70301086D01*
X47637371Y-70548829D01*
X47885114Y-70752146D01*
X48167762Y-70903225D01*
X48474452Y-70996258D01*
X48713475Y-71019800D01*
X49813125Y-71019800D01*
X50052148Y-70996258D01*
X50358838Y-70903225D01*
X50641486Y-70752146D01*
X50889229Y-70548829D01*
X51092546Y-70301086D01*
X51243625Y-70018438D01*
X51336658Y-69711748D01*
X51353244Y-69543351D01*
X53002400Y-67894195D01*
X53002400Y-71395690D01*
X50418022Y-73980068D01*
X50356948Y-73961542D01*
X50117925Y-73938000D01*
X49094475Y-73938000D01*
X48855452Y-73961542D01*
X48548762Y-74054575D01*
X48266114Y-74205654D01*
X48018371Y-74408971D01*
X47815054Y-74656714D01*
X47663975Y-74939362D01*
X47570942Y-75246052D01*
X47539528Y-75565000D01*
X47570942Y-75883948D01*
X47663975Y-76190638D01*
X47815054Y-76473286D01*
X48018371Y-76721029D01*
X48266114Y-76924346D01*
X48548762Y-77075425D01*
X48855452Y-77168458D01*
X49094475Y-77192000D01*
X50117925Y-77192000D01*
X50356948Y-77168458D01*
X50663638Y-77075425D01*
X50946286Y-76924346D01*
X51194029Y-76721029D01*
X51269977Y-76628486D01*
X51302624Y-76611036D01*
X51493266Y-76454581D01*
X51532472Y-76406808D01*
X54248000Y-73691280D01*
X54248000Y-78347405D01*
X50256005Y-82339400D01*
X49527688Y-82339400D01*
X49396886Y-82232054D01*
X49114238Y-82080975D01*
X48807548Y-81987942D01*
X48568525Y-81964400D01*
X47545075Y-81964400D01*
X47306052Y-81987942D01*
X46999362Y-82080975D01*
X46716714Y-82232054D01*
X46468971Y-82435371D01*
X46265654Y-82683114D01*
X46114575Y-82965762D01*
X46021542Y-83272452D01*
X45990128Y-83591400D01*
X43468672Y-83591400D01*
X43437258Y-83272452D01*
X43344225Y-82965762D01*
X43193146Y-82683114D01*
X42989829Y-82435371D01*
X42742086Y-82232054D01*
X42459438Y-82080975D01*
X42152748Y-81987942D01*
X41913725Y-81964400D01*
X40915675Y-81964400D01*
X40676652Y-81987942D01*
X40369962Y-82080975D01*
X40087314Y-82232054D01*
X39946033Y-82348000D01*
X34261496Y-82348000D01*
X34200000Y-82341943D01*
X34138504Y-82348000D01*
X34138502Y-82348000D01*
X33954565Y-82366116D01*
X33718562Y-82437707D01*
X33501061Y-82553964D01*
X33310419Y-82710419D01*
X33271213Y-82758192D01*
X30381405Y-85648000D01*
X28577000Y-85648000D01*
X28577000Y-80271400D01*
X34634904Y-80271400D01*
X34696400Y-80277457D01*
X34757896Y-80271400D01*
X34757898Y-80271400D01*
X34941835Y-80253284D01*
X35177838Y-80181693D01*
X35395339Y-80065436D01*
X35585981Y-79908981D01*
X35625187Y-79861208D01*
X38669396Y-76817000D01*
X41912312Y-76817000D01*
X42043114Y-76924346D01*
X42325762Y-77075425D01*
X42632452Y-77168458D01*
X42871475Y-77192000D01*
X44021925Y-77192000D01*
X44260948Y-77168458D01*
X44567638Y-77075425D01*
X44850286Y-76924346D01*
X45098029Y-76721029D01*
X45301346Y-76473286D01*
X45452425Y-76190638D01*
X45545458Y-75883948D01*
X45576872Y-75565000D01*
X45545458Y-75246052D01*
X45452425Y-74939362D01*
X45301346Y-74656714D01*
X45098029Y-74408971D01*
X44850286Y-74205654D01*
X44567638Y-74054575D01*
X44260948Y-73961542D01*
X44021925Y-73938000D01*
X42871475Y-73938000D01*
X42632452Y-73961542D01*
X42325762Y-74054575D01*
X42043114Y-74205654D01*
X41912312Y-74313000D01*
X38212295Y-74313000D01*
X38150799Y-74306943D01*
X38089303Y-74313000D01*
X38089302Y-74313000D01*
X37905365Y-74331116D01*
X37676980Y-74400396D01*
X37669362Y-74402707D01*
X37451860Y-74518964D01*
X37308987Y-74636217D01*
X37261219Y-74675419D01*
X37222017Y-74723187D01*
X34177805Y-77767400D01*
X28577000Y-77767400D01*
X28577000Y-72552000D01*
X30949704Y-72552000D01*
X31011200Y-72558057D01*
X31072696Y-72552000D01*
X31072698Y-72552000D01*
X31256635Y-72533884D01*
X31492638Y-72462293D01*
X31710139Y-72346036D01*
X31900781Y-72189581D01*
X31939987Y-72141808D01*
X33411596Y-70670200D01*
X41923412Y-70670200D01*
X41992314Y-70726746D01*
X42274962Y-70877825D01*
X42581652Y-70970858D01*
X42820675Y-70994400D01*
X43920325Y-70994400D01*
X44159348Y-70970858D01*
X44466038Y-70877825D01*
X44748686Y-70726746D01*
X44996429Y-70523429D01*
X45199746Y-70275686D01*
X45350825Y-69993038D01*
X45443858Y-69686348D01*
X45475272Y-69367400D01*
X45443858Y-69048452D01*
X45350825Y-68741762D01*
X45199746Y-68459114D01*
X44996429Y-68211371D01*
X44748686Y-68008054D01*
X44466038Y-67856975D01*
X44159348Y-67763942D01*
X43920325Y-67740400D01*
X42820675Y-67740400D01*
X42581652Y-67763942D01*
X42274962Y-67856975D01*
X41992314Y-68008054D01*
X41799612Y-68166200D01*
X32954495Y-68166200D01*
X32892999Y-68160143D01*
X32831503Y-68166200D01*
X32831502Y-68166200D01*
X32647565Y-68184316D01*
X32411562Y-68255907D01*
X32194060Y-68372164D01*
X32065318Y-68477820D01*
X32003419Y-68528619D01*
X31964217Y-68576387D01*
X30492605Y-70048000D01*
X28577000Y-70048000D01*
X28577000Y-64976990D01*
X30345914Y-64976990D01*
X30407410Y-64983047D01*
X30468906Y-64976990D01*
X30468908Y-64976990D01*
X30652845Y-64958874D01*
X30888848Y-64887283D01*
X31106349Y-64771026D01*
X31296991Y-64614571D01*
X31336197Y-64566798D01*
X32351197Y-63551799D01*
X43632905Y-63551799D01*
X43694401Y-63557856D01*
X43755897Y-63551799D01*
X43755899Y-63551799D01*
X43939836Y-63533683D01*
X43975259Y-63522938D01*
X44094400Y-63534672D01*
X44413347Y-63503258D01*
X44720037Y-63410225D01*
X45002685Y-63259146D01*
X45250429Y-63055829D01*
X45453746Y-62808086D01*
X45604825Y-62525438D01*
X45697858Y-62218748D01*
X45721400Y-61979725D01*
X45721400Y-60930876D01*
X45697858Y-60691852D01*
X45604825Y-60385162D01*
X45453746Y-60102514D01*
X45250429Y-59854771D01*
X45002686Y-59651454D01*
X44720038Y-59500375D01*
X44413348Y-59407342D01*
X44094400Y-59375928D01*
X43775453Y-59407342D01*
X43468763Y-59500375D01*
X43186115Y-59651454D01*
X42938372Y-59854771D01*
X42735054Y-60102514D01*
X42583975Y-60385162D01*
X42490942Y-60691852D01*
X42467400Y-60930875D01*
X42467400Y-61047799D01*
X31894096Y-61047799D01*
X31832600Y-61041742D01*
X31771104Y-61047799D01*
X31771103Y-61047799D01*
X31587166Y-61065915D01*
X31398983Y-61123000D01*
X31351163Y-61137506D01*
X31133661Y-61253763D01*
X30990788Y-61371016D01*
X30943020Y-61410218D01*
X30903818Y-61457986D01*
X29888815Y-62472990D01*
X28576881Y-62472990D01*
X28576064Y-57152000D01*
X30813504Y-57152000D01*
X30875000Y-57158057D01*
X30936496Y-57152000D01*
X30936498Y-57152000D01*
X31120435Y-57133884D01*
X31356438Y-57062293D01*
X31573939Y-56946036D01*
X31764581Y-56789581D01*
X31803787Y-56741808D01*
X42193596Y-46352000D01*
X51035913Y-46352000D01*
X51166715Y-46459346D01*
X51449363Y-46610425D01*
X51756053Y-46703458D01*
X51924449Y-46720044D01*
X54396217Y-49191813D01*
X54435419Y-49239581D01*
X54483187Y-49278783D01*
X54626060Y-49396036D01*
X54831843Y-49506029D01*
X54843562Y-49512293D01*
X55079565Y-49583884D01*
X55263502Y-49602000D01*
X55263503Y-49602000D01*
X55324999Y-49608057D01*
X55386495Y-49602000D01*
X59885912Y-49602000D01*
X60016714Y-49709346D01*
X60299362Y-49860425D01*
X60606052Y-49953458D01*
X60845075Y-49977000D01*
X61720053Y-49977000D01*
X61799998Y-49984874D01*
X62118946Y-49953460D01*
X62425637Y-49860427D01*
X62708284Y-49709349D01*
X62956027Y-49506031D01*
X63159345Y-49258288D01*
X63310423Y-48975641D01*
X63403456Y-48668950D01*
X63434870Y-48350002D01*
X63403456Y-48031056D01*
X63310423Y-47724364D01*
X63159345Y-47441718D01*
X63105900Y-47376594D01*
X62956025Y-47193971D01*
X62708282Y-46990654D01*
X62425634Y-46839575D01*
X62118944Y-46746542D01*
X61879921Y-46723000D01*
X61879910Y-46723000D01*
X61799996Y-46715129D01*
X61720082Y-46723000D01*
X60845075Y-46723000D01*
X60606052Y-46746542D01*
X60299362Y-46839575D01*
X60016714Y-46990654D01*
X59885912Y-47098000D01*
X55843596Y-47098000D01*
X53702000Y-44956405D01*
X53702000Y-37229914D01*
X53709871Y-37149999D01*
X53702000Y-37070085D01*
X53702000Y-37070076D01*
X53678458Y-36831052D01*
X53585425Y-36524362D01*
X53434346Y-36241714D01*
X53231029Y-35993971D01*
X53168945Y-35943020D01*
X53143947Y-35918022D01*
X52958285Y-35765654D01*
X52675638Y-35614576D01*
X52368947Y-35521543D01*
X52050000Y-35490129D01*
X51731053Y-35521543D01*
X51424362Y-35614576D01*
X51141715Y-35765654D01*
X50893971Y-35968971D01*
X50690654Y-36216715D01*
X50539576Y-36499362D01*
X50446543Y-36806053D01*
X50415129Y-37125000D01*
X50446543Y-37443947D01*
X50448000Y-37448750D01*
X50448000Y-37945076D01*
X50448001Y-43848000D01*
X41736495Y-43848000D01*
X41674999Y-43841943D01*
X41613503Y-43848000D01*
X41613502Y-43848000D01*
X41429565Y-43866116D01*
X41193562Y-43937707D01*
X40976060Y-44053964D01*
X40833187Y-44171217D01*
X40785419Y-44210419D01*
X40746217Y-44258187D01*
X30356405Y-54648000D01*
X28577000Y-54648000D01*
X28577000Y-48500000D01*
X28555345Y-48280133D01*
X28508286Y-48125000D01*
X28555345Y-47969867D01*
X28577000Y-47750000D01*
X28577000Y-40750000D01*
X28555345Y-40530133D01*
X28508286Y-40375000D01*
X28555345Y-40219867D01*
X28577000Y-40000000D01*
X28577000Y-33000000D01*
X28555345Y-32780133D01*
X28504501Y-32612522D01*
X28517440Y-32569867D01*
X28539095Y-32350000D01*
X28539095Y-28050000D01*
X52117547Y-28050000D01*
X52117547Y-29750000D01*
X52139307Y-29970931D01*
X52203750Y-30183371D01*
X52308400Y-30379157D01*
X52449235Y-30550765D01*
X52620843Y-30691600D01*
X52816629Y-30796250D01*
X53029069Y-30860693D01*
X53250000Y-30882453D01*
X54950000Y-30882453D01*
X55170931Y-30860693D01*
X55383371Y-30796250D01*
X55579157Y-30691600D01*
X55665445Y-30620785D01*
X55879774Y-30735347D01*
X56252440Y-30848394D01*
X56542884Y-30877000D01*
X56737116Y-30877000D01*
X57027560Y-30848394D01*
X57400226Y-30735347D01*
X57743676Y-30551768D01*
X57910000Y-30415270D01*
X58076324Y-30551768D01*
X58419774Y-30735347D01*
X58792440Y-30848394D01*
X59082884Y-30877000D01*
X59277116Y-30877000D01*
X59567560Y-30848394D01*
X59940226Y-30735347D01*
X60283676Y-30551768D01*
X60450000Y-30415270D01*
X60616324Y-30551768D01*
X60959774Y-30735347D01*
X61332440Y-30848394D01*
X61622884Y-30877000D01*
X61817116Y-30877000D01*
X62107560Y-30848394D01*
X62480226Y-30735347D01*
X62823676Y-30551768D01*
X63124714Y-30304714D01*
X63371768Y-30003676D01*
X63555347Y-29660226D01*
X63668394Y-29287560D01*
X63706565Y-28900000D01*
X63668394Y-28512440D01*
X63555347Y-28139774D01*
X63371768Y-27796324D01*
X63124714Y-27495286D01*
X62823676Y-27248232D01*
X62480226Y-27064653D01*
X62107560Y-26951606D01*
X61817116Y-26923000D01*
X61622884Y-26923000D01*
X61332440Y-26951606D01*
X60959774Y-27064653D01*
X60616324Y-27248232D01*
X60450000Y-27384730D01*
X60283676Y-27248232D01*
X59940226Y-27064653D01*
X59567560Y-26951606D01*
X59277116Y-26923000D01*
X59082884Y-26923000D01*
X58792440Y-26951606D01*
X58419774Y-27064653D01*
X58076324Y-27248232D01*
X57910000Y-27384730D01*
X57743676Y-27248232D01*
X57400226Y-27064653D01*
X57027560Y-26951606D01*
X56737116Y-26923000D01*
X56542884Y-26923000D01*
X56252440Y-26951606D01*
X55879774Y-27064653D01*
X55665445Y-27179215D01*
X55579157Y-27108400D01*
X55383371Y-27003750D01*
X55170931Y-26939307D01*
X54950000Y-26917547D01*
X53250000Y-26917547D01*
X53029069Y-26939307D01*
X52816629Y-27003750D01*
X52620843Y-27108400D01*
X52449235Y-27249235D01*
X52308400Y-27420843D01*
X52203750Y-27616629D01*
X52139307Y-27829069D01*
X52117547Y-28050000D01*
X28539095Y-28050000D01*
X28539095Y-25350000D01*
X28517440Y-25130133D01*
X28512084Y-25112478D01*
X28555345Y-24969867D01*
X28577000Y-24750000D01*
X28577000Y-17650000D01*
X28555345Y-17430133D01*
X28515869Y-17300000D01*
X28555345Y-17169867D01*
X28577000Y-16950000D01*
X28577000Y-11950000D01*
X50867547Y-11950000D01*
X50867547Y-14550000D01*
X50889307Y-14770931D01*
X50953750Y-14983371D01*
X51058400Y-15179157D01*
X51199235Y-15350765D01*
X51370843Y-15491600D01*
X51566629Y-15596250D01*
X51779069Y-15660693D01*
X52000000Y-15682453D01*
X54000000Y-15682453D01*
X54220931Y-15660693D01*
X54433371Y-15596250D01*
X54629157Y-15491600D01*
X54641463Y-15481501D01*
X54722095Y-15524599D01*
X55123036Y-15646224D01*
X55540000Y-15687291D01*
X55956965Y-15646224D01*
X56357906Y-15524599D01*
X56727415Y-15327093D01*
X57051293Y-15061293D01*
X57317093Y-14737415D01*
X57514599Y-14367905D01*
X57636224Y-13966964D01*
X57667000Y-13654486D01*
X57667000Y-12845513D01*
X57636224Y-12533035D01*
X57514599Y-12132094D01*
X57317093Y-11762585D01*
X57051293Y-11438707D01*
X56727415Y-11172907D01*
X56357905Y-10975401D01*
X55956964Y-10853776D01*
X55540000Y-10812709D01*
X55123035Y-10853776D01*
X54722094Y-10975401D01*
X54641463Y-11018499D01*
X54629157Y-11008400D01*
X54433371Y-10903750D01*
X54220931Y-10839307D01*
X54000000Y-10817547D01*
X52000000Y-10817547D01*
X51779069Y-10839307D01*
X51566629Y-10903750D01*
X51370843Y-11008400D01*
X51199235Y-11149235D01*
X51058400Y-11320843D01*
X50953750Y-11516629D01*
X50889307Y-11729069D01*
X50867547Y-11950000D01*
X28577000Y-11950000D01*
X28577000Y-9850000D01*
X28555345Y-9630133D01*
X28499991Y-9447657D01*
X28555345Y-9265181D01*
X28577000Y-9045314D01*
X28577000Y-2045314D01*
X28555345Y-1825447D01*
X28491212Y-1614030D01*
X28387066Y-1419186D01*
X28246909Y-1248405D01*
X28098977Y-1127000D01*
X45574471Y-1127000D01*
X45526694Y-1146790D01*
X45276594Y-1313901D01*
X45063901Y-1526594D01*
X44896790Y-1776694D01*
X44781681Y-2054590D01*
X44723000Y-2349604D01*
X44723000Y-2650396D01*
X44781681Y-2945410D01*
X44896790Y-3223306D01*
X44998001Y-3374779D01*
X44998000Y-5785154D01*
X44916790Y-5906694D01*
X44801681Y-6184590D01*
X44743000Y-6479604D01*
X44743000Y-6780396D01*
X44792395Y-7028725D01*
X44781681Y-7054590D01*
X44723000Y-7349604D01*
X44723000Y-7650396D01*
X44781681Y-7945410D01*
X44896790Y-8223306D01*
X45063901Y-8473406D01*
X45276594Y-8686099D01*
X45526694Y-8853210D01*
X45804590Y-8968319D01*
X46099604Y-9027000D01*
X46400396Y-9027000D01*
X46695410Y-8968319D01*
X46973306Y-8853210D01*
X47223406Y-8686099D01*
X47436099Y-8473406D01*
X47603210Y-8223306D01*
X47718319Y-7945410D01*
X47777000Y-7650396D01*
X47777000Y-7349604D01*
X47727605Y-7101275D01*
X47738319Y-7075410D01*
X47797000Y-6780396D01*
X47797000Y-6479604D01*
X47738319Y-6184590D01*
X47623210Y-5906694D01*
X47502000Y-5725290D01*
X47502000Y-4623073D01*
X56173000Y-4623073D01*
X56173000Y-5376927D01*
X56320070Y-6116295D01*
X56608557Y-6812764D01*
X57027375Y-7439570D01*
X57560430Y-7972625D01*
X58187236Y-8391443D01*
X58883705Y-8679930D01*
X59623073Y-8827000D01*
X60376927Y-8827000D01*
X61116295Y-8679930D01*
X61812764Y-8391443D01*
X62439570Y-7972625D01*
X62972625Y-7439570D01*
X63391443Y-6812764D01*
X63679930Y-6116295D01*
X63827000Y-5376927D01*
X63827000Y-4623073D01*
X63679930Y-3883705D01*
X63391443Y-3187236D01*
X62972625Y-2560430D01*
X62439570Y-2027375D01*
X61812764Y-1608557D01*
X61116295Y-1320070D01*
X60376927Y-1173000D01*
X59623073Y-1173000D01*
X58883705Y-1320070D01*
X58187236Y-1608557D01*
X57560430Y-2027375D01*
X57027375Y-2560430D01*
X56608557Y-3187236D01*
X56320070Y-3883705D01*
X56173000Y-4623073D01*
X47502000Y-4623073D01*
X47502000Y-3986845D01*
X47645410Y-3958319D01*
X47923306Y-3843210D01*
X48173406Y-3676099D01*
X48386099Y-3463406D01*
X48553210Y-3213306D01*
X48668319Y-2935410D01*
X48727000Y-2640396D01*
X48727000Y-2339604D01*
X48668319Y-2044590D01*
X48553210Y-1766694D01*
X48386099Y-1516594D01*
X48173406Y-1303901D01*
X47923306Y-1136790D01*
X47899671Y-1127000D01*
X59949812Y-1127000D01*
X60685056Y-1192619D01*
X61348456Y-1374104D01*
X61969235Y-1670201D01*
X62527771Y-2071549D01*
X63006406Y-2565462D01*
X63390010Y-3136326D01*
X63666462Y-3766101D01*
X63829103Y-4443549D01*
X63873000Y-5041319D01*
X63873000Y-11292386D01*
X63727415Y-11172907D01*
X63357905Y-10975401D01*
X62956964Y-10853776D01*
X62540000Y-10812709D01*
X62123035Y-10853776D01*
X61722094Y-10975401D01*
X61641463Y-11018499D01*
X61629157Y-11008400D01*
X61433371Y-10903750D01*
X61220931Y-10839307D01*
X61000000Y-10817547D01*
X59000000Y-10817547D01*
X58779069Y-10839307D01*
X58566629Y-10903750D01*
X58370843Y-11008400D01*
X58199235Y-11149235D01*
X58058400Y-11320843D01*
X57953750Y-11516629D01*
X57889307Y-11729069D01*
X57867547Y-11950000D01*
X57867547Y-14550000D01*
X57889307Y-14770931D01*
X57953750Y-14983371D01*
X58058400Y-15179157D01*
X58199235Y-15350765D01*
X58370843Y-15491600D01*
X58566629Y-15596250D01*
X58779069Y-15660693D01*
X59000000Y-15682453D01*
X61000000Y-15682453D01*
X61220931Y-15660693D01*
X61433371Y-15596250D01*
X61629157Y-15491600D01*
X61641463Y-15481501D01*
X61722095Y-15524599D01*
X62123036Y-15646224D01*
X62540000Y-15687291D01*
X62956965Y-15646224D01*
X63357906Y-15524599D01*
X63727415Y-15327093D01*
X63873000Y-15207614D01*
X63873001Y-94949801D01*
X63807381Y-95685056D01*
X63625896Y-96348455D01*
X63329797Y-96969239D01*
X62928451Y-97527771D01*
X62434538Y-98006406D01*
X61863674Y-98390010D01*
X61233903Y-98666461D01*
X60556452Y-98829103D01*
X59958681Y-98873000D01*
X5050188Y-98873000D01*
X4314944Y-98807381D01*
X3651545Y-98625896D01*
X3030761Y-98329797D01*
X2472229Y-97928451D01*
X1993594Y-97434538D01*
X1609990Y-96863674D01*
X1333539Y-96233903D01*
X1170897Y-95556452D01*
X1127000Y-94958681D01*
X1127000Y-94623073D01*
X1173000Y-94623073D01*
X1173000Y-95376927D01*
X1320070Y-96116295D01*
X1608557Y-96812764D01*
X2027375Y-97439570D01*
X2560430Y-97972625D01*
X3187236Y-98391443D01*
X3883705Y-98679930D01*
X4623073Y-98827000D01*
X5376927Y-98827000D01*
X6116295Y-98679930D01*
X6812764Y-98391443D01*
X7439570Y-97972625D01*
X7972625Y-97439570D01*
X8391443Y-96812764D01*
X8679930Y-96116295D01*
X8827000Y-95376927D01*
X8827000Y-94623073D01*
X8679930Y-93883705D01*
X8391443Y-93187236D01*
X7972625Y-92560430D01*
X7439570Y-92027375D01*
X6812764Y-91608557D01*
X6116295Y-91320070D01*
X5376927Y-91173000D01*
X4623073Y-91173000D01*
X3883705Y-91320070D01*
X3187236Y-91608557D01*
X2560430Y-92027375D01*
X2027375Y-92560430D01*
X1608557Y-93187236D01*
X1320070Y-93883705D01*
X1173000Y-94623073D01*
X1127000Y-94623073D01*
X1127000Y-83563110D01*
X2558524Y-83563110D01*
X2679845Y-83793000D01*
X3873000Y-83793000D01*
X3873000Y-82599186D01*
X4127000Y-82599186D01*
X4127000Y-83793000D01*
X5320155Y-83793000D01*
X5441476Y-83563110D01*
X5396825Y-83415901D01*
X5271641Y-83153080D01*
X5097588Y-82919731D01*
X4881355Y-82724822D01*
X4631252Y-82575843D01*
X4356891Y-82478519D01*
X4127000Y-82599186D01*
X3873000Y-82599186D01*
X3643109Y-82478519D01*
X3368748Y-82575843D01*
X3118645Y-82724822D01*
X2902412Y-82919731D01*
X2728359Y-83153080D01*
X2603175Y-83415901D01*
X2558524Y-83563110D01*
X1127000Y-83563110D01*
X1127000Y-70023110D01*
X2558524Y-70023110D01*
X2679845Y-70253000D01*
X3873000Y-70253000D01*
X3873000Y-69059186D01*
X4127000Y-69059186D01*
X4127000Y-70253000D01*
X5320155Y-70253000D01*
X5441476Y-70023110D01*
X5396825Y-69875901D01*
X5271641Y-69613080D01*
X5097588Y-69379731D01*
X4881355Y-69184822D01*
X4631252Y-69035843D01*
X4356891Y-68938519D01*
X4127000Y-69059186D01*
X3873000Y-69059186D01*
X3643109Y-68938519D01*
X3368748Y-69035843D01*
X3118645Y-69184822D01*
X2902412Y-69379731D01*
X2728359Y-69613080D01*
X2603175Y-69875901D01*
X2558524Y-70023110D01*
X1127000Y-70023110D01*
X1127000Y-5050188D01*
X1165119Y-4623073D01*
X1173000Y-4623073D01*
X1173000Y-5376927D01*
X1320070Y-6116295D01*
X1608557Y-6812764D01*
X2027375Y-7439570D01*
X2560430Y-7972625D01*
X3187236Y-8391443D01*
X3883705Y-8679930D01*
X4623073Y-8827000D01*
X5376927Y-8827000D01*
X6116295Y-8679930D01*
X6812764Y-8391443D01*
X7439570Y-7972625D01*
X7972625Y-7439570D01*
X8391443Y-6812764D01*
X8679930Y-6116295D01*
X8827000Y-5376927D01*
X8827000Y-4623073D01*
X8679930Y-3883705D01*
X8391443Y-3187236D01*
X7972625Y-2560430D01*
X7439570Y-2027375D01*
X6812764Y-1608557D01*
X6116295Y-1320070D01*
X5376927Y-1173000D01*
X4623073Y-1173000D01*
X3883705Y-1320070D01*
X3187236Y-1608557D01*
X2560430Y-2027375D01*
X2027375Y-2560430D01*
X1608557Y-3187236D01*
X1320070Y-3883705D01*
X1173000Y-4623073D01*
X1165119Y-4623073D01*
X1192619Y-4314944D01*
X1374104Y-3651544D01*
X1670201Y-3030765D01*
X2071549Y-2472229D01*
X2565462Y-1993594D01*
X3136326Y-1609990D01*
X3766101Y-1333538D01*
X4443549Y-1170897D01*
X5041319Y-1127000D01*
X11301023Y-1127000D01*
X11153091Y-1248405D01*
X11153091Y-1248405D01*
G37*
X11153091Y-1248405D02*
X11012934Y-1419186D01*
X10908788Y-1614030D01*
X10844655Y-1825447D01*
X10823000Y-2045314D01*
X10823000Y-9045314D01*
X10844655Y-9265181D01*
X10900009Y-9447657D01*
X10844655Y-9630133D01*
X10823000Y-9850000D01*
X10823000Y-17000000D01*
X10845370Y-17223431D01*
X10876543Y-17325014D01*
X10844655Y-17430133D01*
X10823000Y-17650000D01*
X10823000Y-24750000D01*
X10844655Y-24969867D01*
X10868986Y-25050077D01*
X10844277Y-25132043D01*
X10823002Y-25351947D01*
X10835097Y-32351947D01*
X10856750Y-32569867D01*
X10882594Y-32655064D01*
X10844655Y-32780133D01*
X10823000Y-33000000D01*
X10823000Y-40000000D01*
X10844655Y-40219867D01*
X10891714Y-40375000D01*
X10844655Y-40530133D01*
X10823000Y-40750000D01*
X10823000Y-47750000D01*
X10844655Y-47969867D01*
X10891714Y-48125000D01*
X10844655Y-48280133D01*
X10823000Y-48500000D01*
X10823000Y-54648000D01*
X5814088Y-54648000D01*
X5717851Y-54569021D01*
X5791600Y-54479157D01*
X5896250Y-54283371D01*
X5960693Y-54070931D01*
X5982453Y-53850000D01*
X5982453Y-52150000D01*
X5960693Y-51929069D01*
X5896250Y-51716629D01*
X5791600Y-51520843D01*
X5720785Y-51434555D01*
X5835347Y-51220226D01*
X5948394Y-50847560D01*
X5986565Y-50460000D01*
X5948394Y-50072440D01*
X5835347Y-49699774D01*
X5651768Y-49356324D01*
X5515270Y-49190000D01*
X5651768Y-49023676D01*
X5835347Y-48680226D01*
X5948394Y-48307560D01*
X5986565Y-47920000D01*
X5948394Y-47532440D01*
X5835347Y-47159774D01*
X5651768Y-46816324D01*
X5515270Y-46650000D01*
X5651768Y-46483676D01*
X5835347Y-46140226D01*
X5948394Y-45767560D01*
X5986565Y-45380000D01*
X5948394Y-44992440D01*
X5835347Y-44619774D01*
X5651768Y-44276324D01*
X5515270Y-44110000D01*
X5651768Y-43943676D01*
X5835347Y-43600226D01*
X5948394Y-43227560D01*
X5986565Y-42840000D01*
X5948394Y-42452440D01*
X5835347Y-42079774D01*
X5651768Y-41736324D01*
X5515270Y-41570000D01*
X5651768Y-41403676D01*
X5835347Y-41060226D01*
X5948394Y-40687560D01*
X5986565Y-40300000D01*
X5948394Y-39912440D01*
X5835347Y-39539774D01*
X5651768Y-39196324D01*
X5515270Y-39030000D01*
X5651768Y-38863676D01*
X5835347Y-38520226D01*
X5948394Y-38147560D01*
X5986565Y-37760000D01*
X5948394Y-37372440D01*
X5835347Y-36999774D01*
X5651768Y-36656324D01*
X5515270Y-36490000D01*
X5651768Y-36323676D01*
X5835347Y-35980226D01*
X5948394Y-35607560D01*
X5986565Y-35220000D01*
X5948394Y-34832440D01*
X5835347Y-34459774D01*
X5651768Y-34116324D01*
X5515270Y-33950000D01*
X5651768Y-33783676D01*
X5835347Y-33440226D01*
X5948394Y-33067560D01*
X5986565Y-32680000D01*
X5948394Y-32292440D01*
X5835347Y-31919774D01*
X5651768Y-31576324D01*
X5515270Y-31410000D01*
X5651768Y-31243676D01*
X5835347Y-30900226D01*
X5948394Y-30527560D01*
X5986565Y-30140000D01*
X5948394Y-29752440D01*
X5835347Y-29379774D01*
X5651768Y-29036324D01*
X5515270Y-28870000D01*
X5651768Y-28703676D01*
X5835347Y-28360226D01*
X5948394Y-27987560D01*
X5986565Y-27600000D01*
X5948394Y-27212440D01*
X5835347Y-26839774D01*
X5651768Y-26496324D01*
X5515270Y-26330000D01*
X5651768Y-26163676D01*
X5835347Y-25820226D01*
X5948394Y-25447560D01*
X5986565Y-25060000D01*
X5948394Y-24672440D01*
X5835347Y-24299774D01*
X5651768Y-23956324D01*
X5515270Y-23790000D01*
X5651768Y-23623676D01*
X5835347Y-23280226D01*
X5948394Y-22907560D01*
X5986565Y-22520000D01*
X5948394Y-22132440D01*
X5835347Y-21759774D01*
X5651768Y-21416324D01*
X5404714Y-21115286D01*
X5103676Y-20868232D01*
X4760226Y-20684653D01*
X4387560Y-20571606D01*
X4097116Y-20543000D01*
X3902884Y-20543000D01*
X3612440Y-20571606D01*
X3239774Y-20684653D01*
X2896324Y-20868232D01*
X2595286Y-21115286D01*
X2348232Y-21416324D01*
X2164653Y-21759774D01*
X2051606Y-22132440D01*
X2013435Y-22520000D01*
X2051606Y-22907560D01*
X2164653Y-23280226D01*
X2348232Y-23623676D01*
X2484730Y-23790000D01*
X2348232Y-23956324D01*
X2164653Y-24299774D01*
X2051606Y-24672440D01*
X2013435Y-25060000D01*
X2051606Y-25447560D01*
X2164653Y-25820226D01*
X2348232Y-26163676D01*
X2484730Y-26330000D01*
X2348232Y-26496324D01*
X2164653Y-26839774D01*
X2051606Y-27212440D01*
X2013435Y-27600000D01*
X2051606Y-27987560D01*
X2164653Y-28360226D01*
X2348232Y-28703676D01*
X2484730Y-28870000D01*
X2348232Y-29036324D01*
X2164653Y-29379774D01*
X2051606Y-29752440D01*
X2013435Y-30140000D01*
X2051606Y-30527560D01*
X2164653Y-30900226D01*
X2348232Y-31243676D01*
X2484730Y-31410000D01*
X2348232Y-31576324D01*
X2164653Y-31919774D01*
X2051606Y-32292440D01*
X2013435Y-32680000D01*
X2051606Y-33067560D01*
X2164653Y-33440226D01*
X2348232Y-33783676D01*
X2484730Y-33950000D01*
X2348232Y-34116324D01*
X2164653Y-34459774D01*
X2051606Y-34832440D01*
X2013435Y-35220000D01*
X2051606Y-35607560D01*
X2164653Y-35980226D01*
X2348232Y-36323676D01*
X2484730Y-36490000D01*
X2348232Y-36656324D01*
X2164653Y-36999774D01*
X2051606Y-37372440D01*
X2013435Y-37760000D01*
X2051606Y-38147560D01*
X2164653Y-38520226D01*
X2348232Y-38863676D01*
X2484730Y-39030000D01*
X2348232Y-39196324D01*
X2164653Y-39539774D01*
X2051606Y-39912440D01*
X2013435Y-40300000D01*
X2051606Y-40687560D01*
X2164653Y-41060226D01*
X2348232Y-41403676D01*
X2484730Y-41570000D01*
X2348232Y-41736324D01*
X2164653Y-42079774D01*
X2051606Y-42452440D01*
X2013435Y-42840000D01*
X2051606Y-43227560D01*
X2164653Y-43600226D01*
X2348232Y-43943676D01*
X2484730Y-44110000D01*
X2348232Y-44276324D01*
X2164653Y-44619774D01*
X2051606Y-44992440D01*
X2013435Y-45380000D01*
X2051606Y-45767560D01*
X2164653Y-46140226D01*
X2348232Y-46483676D01*
X2484730Y-46650000D01*
X2348232Y-46816324D01*
X2164653Y-47159774D01*
X2051606Y-47532440D01*
X2013435Y-47920000D01*
X2051606Y-48307560D01*
X2164653Y-48680226D01*
X2348232Y-49023676D01*
X2484730Y-49190000D01*
X2348232Y-49356324D01*
X2164653Y-49699774D01*
X2051606Y-50072440D01*
X2013435Y-50460000D01*
X2051606Y-50847560D01*
X2164653Y-51220226D01*
X2279215Y-51434555D01*
X2208400Y-51520843D01*
X2103750Y-51716629D01*
X2039307Y-51929069D01*
X2017547Y-52150000D01*
X2017547Y-53850000D01*
X2039307Y-54070931D01*
X2103750Y-54283371D01*
X2208400Y-54479157D01*
X2349235Y-54650765D01*
X2520843Y-54791600D01*
X2631390Y-54850689D01*
X2515654Y-54991714D01*
X2364575Y-55274362D01*
X2271542Y-55581052D01*
X2240128Y-55900000D01*
X2271542Y-56218948D01*
X2364575Y-56525638D01*
X2515654Y-56808286D01*
X2718971Y-57056029D01*
X2966714Y-57259346D01*
X3249362Y-57410425D01*
X3556052Y-57503458D01*
X3569164Y-57504749D01*
X3368748Y-57575843D01*
X3118645Y-57724822D01*
X2902412Y-57919731D01*
X2728359Y-58153080D01*
X2603175Y-58415901D01*
X2558524Y-58563110D01*
X2679845Y-58793000D01*
X3873000Y-58793000D01*
X3873000Y-58773000D01*
X4127000Y-58773000D01*
X4127000Y-58793000D01*
X5320155Y-58793000D01*
X5441476Y-58563110D01*
X5396825Y-58415901D01*
X5271641Y-58153080D01*
X5097588Y-57919731D01*
X4881355Y-57724822D01*
X4631252Y-57575843D01*
X4493561Y-57527000D01*
X4854925Y-57527000D01*
X5093948Y-57503458D01*
X5400638Y-57410425D01*
X5683286Y-57259346D01*
X5814088Y-57152000D01*
X10823000Y-57152000D01*
X10823000Y-62472990D01*
X9430385Y-62472990D01*
X7583587Y-60626192D01*
X7544381Y-60578419D01*
X7353739Y-60421964D01*
X7136238Y-60305707D01*
X6900235Y-60234116D01*
X6716298Y-60216000D01*
X6716296Y-60216000D01*
X6654800Y-60209943D01*
X6593304Y-60216000D01*
X5536608Y-60216000D01*
X5404714Y-60055286D01*
X5151736Y-59847674D01*
X5271641Y-59686920D01*
X5396825Y-59424099D01*
X5441476Y-59276890D01*
X5320155Y-59047000D01*
X4127000Y-59047000D01*
X4127000Y-59067000D01*
X3873000Y-59067000D01*
X3873000Y-59047000D01*
X2679845Y-59047000D01*
X2558524Y-59276890D01*
X2603175Y-59424099D01*
X2728359Y-59686920D01*
X2848264Y-59847674D01*
X2595286Y-60055286D01*
X2348232Y-60356324D01*
X2164653Y-60699774D01*
X2051606Y-61072440D01*
X2013435Y-61460000D01*
X2051606Y-61847560D01*
X2164653Y-62220226D01*
X2279215Y-62434555D01*
X2208400Y-62520843D01*
X2103750Y-62716629D01*
X2039307Y-62929069D01*
X2017547Y-63150000D01*
X2017547Y-64850000D01*
X2039307Y-65070931D01*
X2103750Y-65283371D01*
X2208400Y-65479157D01*
X2349235Y-65650765D01*
X2520843Y-65791600D01*
X2716629Y-65896250D01*
X2929069Y-65960693D01*
X3150000Y-65982453D01*
X4850000Y-65982453D01*
X5070931Y-65960693D01*
X5283371Y-65896250D01*
X5479157Y-65791600D01*
X5650765Y-65650765D01*
X5791600Y-65479157D01*
X5896250Y-65283371D01*
X5960693Y-65070931D01*
X5982453Y-64850000D01*
X5982453Y-63150000D01*
X5960693Y-62929069D01*
X5897273Y-62720000D01*
X6136205Y-62720000D01*
X7983003Y-64566798D01*
X8022209Y-64614571D01*
X8212851Y-64771026D01*
X8430352Y-64887283D01*
X8666355Y-64958874D01*
X8850292Y-64976990D01*
X8850294Y-64976990D01*
X8911790Y-64983047D01*
X8973286Y-64976990D01*
X10823000Y-64976990D01*
X10823000Y-70048000D01*
X7958696Y-70048000D01*
X7897200Y-70041943D01*
X7835704Y-70048000D01*
X7835702Y-70048000D01*
X7651765Y-70066116D01*
X7415762Y-70137707D01*
X7198261Y-70253964D01*
X7007619Y-70410419D01*
X6968417Y-70458187D01*
X5758605Y-71668000D01*
X5530042Y-71668000D01*
X5404714Y-71515286D01*
X5151736Y-71307674D01*
X5271641Y-71146920D01*
X5396825Y-70884099D01*
X5441476Y-70736890D01*
X5320155Y-70507000D01*
X4127000Y-70507000D01*
X4127000Y-70527000D01*
X3873000Y-70527000D01*
X3873000Y-70507000D01*
X2679845Y-70507000D01*
X2558524Y-70736890D01*
X2603175Y-70884099D01*
X2728359Y-71146920D01*
X2848264Y-71307674D01*
X2595286Y-71515286D01*
X2348232Y-71816324D01*
X2164653Y-72159774D01*
X2051606Y-72532440D01*
X2013435Y-72920000D01*
X2051606Y-73307560D01*
X2164653Y-73680226D01*
X2348232Y-74023676D01*
X2484730Y-74190000D01*
X2348232Y-74356324D01*
X2164653Y-74699774D01*
X2051606Y-75072440D01*
X2013435Y-75460000D01*
X2051606Y-75847560D01*
X2164653Y-76220226D01*
X2279215Y-76434555D01*
X2208400Y-76520843D01*
X2103750Y-76716629D01*
X2039307Y-76929069D01*
X2017547Y-77150000D01*
X2017547Y-78850000D01*
X2039307Y-79070931D01*
X2103750Y-79283371D01*
X2208400Y-79479157D01*
X2349235Y-79650765D01*
X2520843Y-79791600D01*
X2716629Y-79896250D01*
X2929069Y-79960693D01*
X3150000Y-79982453D01*
X4850000Y-79982453D01*
X5070931Y-79960693D01*
X5283371Y-79896250D01*
X5479157Y-79791600D01*
X5650765Y-79650765D01*
X5791600Y-79479157D01*
X5896250Y-79283371D01*
X5960693Y-79070931D01*
X5982453Y-78850000D01*
X5982453Y-77150000D01*
X5960693Y-76929069D01*
X5896250Y-76716629D01*
X5854863Y-76639200D01*
X6161605Y-76639200D01*
X9383613Y-79861208D01*
X9422819Y-79908981D01*
X9613461Y-80065436D01*
X9830962Y-80181693D01*
X9979310Y-80226694D01*
X10066965Y-80253284D01*
X10312400Y-80277457D01*
X10373898Y-80271400D01*
X10823000Y-80271400D01*
X10823000Y-85648000D01*
X6900595Y-85648000D01*
X6870787Y-85618192D01*
X6831581Y-85570419D01*
X6640939Y-85413964D01*
X6423438Y-85297707D01*
X6187435Y-85226116D01*
X6003498Y-85208000D01*
X6003496Y-85208000D01*
X5942000Y-85201943D01*
X5880504Y-85208000D01*
X5530042Y-85208000D01*
X5404714Y-85055286D01*
X5151736Y-84847674D01*
X5271641Y-84686920D01*
X5396825Y-84424099D01*
X5441476Y-84276890D01*
X5320155Y-84047000D01*
X4127000Y-84047000D01*
X4127000Y-84067000D01*
X3873000Y-84067000D01*
X3873000Y-84047000D01*
X2679845Y-84047000D01*
X2558524Y-84276890D01*
X2603175Y-84424099D01*
X2728359Y-84686920D01*
X2848264Y-84847674D01*
X2595286Y-85055286D01*
X2348232Y-85356324D01*
X2164653Y-85699774D01*
X2051606Y-86072440D01*
X2013435Y-86460000D01*
X2051606Y-86847560D01*
X2164653Y-87220226D01*
X2279215Y-87434555D01*
X2208400Y-87520843D01*
X2103750Y-87716629D01*
X2039307Y-87929069D01*
X2017547Y-88150000D01*
X2017547Y-89850000D01*
X2039307Y-90070931D01*
X2103750Y-90283371D01*
X2208400Y-90479157D01*
X2349235Y-90650765D01*
X2520843Y-90791600D01*
X2716629Y-90896250D01*
X2929069Y-90960693D01*
X3150000Y-90982453D01*
X4850000Y-90982453D01*
X5070931Y-90960693D01*
X5283371Y-90896250D01*
X5479157Y-90791600D01*
X5650765Y-90650765D01*
X5791600Y-90479157D01*
X5896250Y-90283371D01*
X5960693Y-90070931D01*
X5982453Y-89850000D01*
X5982453Y-88150000D01*
X5976071Y-88085198D01*
X6136565Y-88133884D01*
X6320502Y-88152000D01*
X6320504Y-88152000D01*
X6382000Y-88158057D01*
X6443496Y-88152000D01*
X10831853Y-88152000D01*
X10823001Y-94348390D01*
X10844655Y-94569867D01*
X10908788Y-94781284D01*
X11012934Y-94976128D01*
X11153091Y-95146909D01*
X11323872Y-95287066D01*
X11518716Y-95391212D01*
X11730133Y-95455345D01*
X11950000Y-95477000D01*
X27400000Y-95477000D01*
X27611966Y-95456887D01*
X27823836Y-95394266D01*
X28019419Y-95291515D01*
X28191197Y-95152581D01*
X28332570Y-94982805D01*
X28438105Y-94788710D01*
X28489645Y-94623073D01*
X56173000Y-94623073D01*
X56173000Y-95376927D01*
X56320070Y-96116295D01*
X56608557Y-96812764D01*
X57027375Y-97439570D01*
X57560430Y-97972625D01*
X58187236Y-98391443D01*
X58883705Y-98679930D01*
X59623073Y-98827000D01*
X60376927Y-98827000D01*
X61116295Y-98679930D01*
X61812764Y-98391443D01*
X62439570Y-97972625D01*
X62972625Y-97439570D01*
X63391443Y-96812764D01*
X63679930Y-96116295D01*
X63827000Y-95376927D01*
X63827000Y-94623073D01*
X63679930Y-93883705D01*
X63391443Y-93187236D01*
X62972625Y-92560430D01*
X62439570Y-92027375D01*
X61812764Y-91608557D01*
X61116295Y-91320070D01*
X60376927Y-91173000D01*
X59623073Y-91173000D01*
X58883705Y-91320070D01*
X58187236Y-91608557D01*
X57560430Y-92027375D01*
X57027375Y-92560430D01*
X56608557Y-93187236D01*
X56320070Y-93883705D01*
X56173000Y-94623073D01*
X28489645Y-94623073D01*
X28503746Y-94577756D01*
X28526971Y-94358050D01*
X28571300Y-88152000D01*
X30838504Y-88152000D01*
X30900000Y-88158057D01*
X30961496Y-88152000D01*
X30961498Y-88152000D01*
X31145435Y-88133884D01*
X31381438Y-88062293D01*
X31598939Y-87946036D01*
X31789581Y-87789581D01*
X31828787Y-87741808D01*
X34718595Y-84852000D01*
X39966991Y-84852000D01*
X40087314Y-84950746D01*
X40369962Y-85101825D01*
X40676652Y-85194858D01*
X40915675Y-85218400D01*
X41913725Y-85218400D01*
X42152748Y-85194858D01*
X42459438Y-85101825D01*
X42742086Y-84950746D01*
X42989829Y-84747429D01*
X43193146Y-84499686D01*
X43344225Y-84217038D01*
X43437258Y-83910348D01*
X43468672Y-83591400D01*
X45990128Y-83591400D01*
X46021542Y-83910348D01*
X46114575Y-84217038D01*
X46265654Y-84499686D01*
X46468971Y-84747429D01*
X46716714Y-84950746D01*
X46999362Y-85101825D01*
X47306052Y-85194858D01*
X47545075Y-85218400D01*
X48568525Y-85218400D01*
X48807548Y-85194858D01*
X49114238Y-85101825D01*
X49396886Y-84950746D01*
X49527688Y-84843400D01*
X50713104Y-84843400D01*
X50774600Y-84849457D01*
X50836096Y-84843400D01*
X50836098Y-84843400D01*
X51020035Y-84825284D01*
X51256038Y-84753693D01*
X51473539Y-84637436D01*
X51664181Y-84480981D01*
X51703387Y-84433208D01*
X56341809Y-79794786D01*
X56389581Y-79755581D01*
X56546036Y-79564939D01*
X56662293Y-79347438D01*
X56733884Y-79111435D01*
X56752000Y-78927498D01*
X56752000Y-78927496D01*
X56758057Y-78866000D01*
X56752000Y-78804504D01*
X56752000Y-58194827D01*
X57030238Y-58110425D01*
X57312886Y-57959346D01*
X57560629Y-57756029D01*
X57611580Y-57693945D01*
X57620378Y-57685147D01*
X57772746Y-57499485D01*
X57923824Y-57216838D01*
X58016857Y-56910147D01*
X58048271Y-56591201D01*
X58016857Y-56272253D01*
X57923824Y-55965562D01*
X57772746Y-55682915D01*
X57569429Y-55435171D01*
X57321685Y-55231854D01*
X57039038Y-55080776D01*
X56745437Y-54991714D01*
X56721458Y-54748252D01*
X56628425Y-54441562D01*
X56477346Y-54158914D01*
X56274029Y-53911171D01*
X56026286Y-53707854D01*
X55743638Y-53556775D01*
X55436948Y-53463742D01*
X55197925Y-53440200D01*
X54174475Y-53440200D01*
X53935452Y-53463742D01*
X53628762Y-53556775D01*
X53346114Y-53707854D01*
X53098371Y-53911171D01*
X52895054Y-54158914D01*
X52804034Y-54329200D01*
X52345559Y-54329200D01*
X52106536Y-54352742D01*
X51799846Y-54445775D01*
X51517198Y-54596854D01*
X51269455Y-54800171D01*
X51066138Y-55047914D01*
X50915059Y-55330562D01*
X50822026Y-55637252D01*
X50790612Y-55956200D01*
X50822026Y-56275148D01*
X50915059Y-56581838D01*
X51066138Y-56864486D01*
X51173485Y-56995289D01*
X51173485Y-60157160D01*
X51103546Y-60026314D01*
X50996200Y-59895512D01*
X50996200Y-57857703D01*
X51053458Y-57668948D01*
X51084872Y-57350000D01*
X51053458Y-57031052D01*
X50960425Y-56724362D01*
X50809346Y-56441714D01*
X50606029Y-56193971D01*
X50358286Y-55990654D01*
X50075638Y-55839575D01*
X49768948Y-55746542D01*
X49529925Y-55723000D01*
X48470075Y-55723000D01*
X48231052Y-55746542D01*
X47924362Y-55839575D01*
X47641714Y-55990654D01*
X47393971Y-56193971D01*
X47190654Y-56441714D01*
X47039575Y-56724362D01*
X46946542Y-57031052D01*
X46915128Y-57350000D01*
X46946542Y-57668948D01*
X47039575Y-57975638D01*
X47190654Y-58258286D01*
X47393971Y-58506029D01*
X47641714Y-58709346D01*
X47924362Y-58860425D01*
X48231052Y-58953458D01*
X48470075Y-58977000D01*
X48492201Y-58977000D01*
X48492200Y-59895512D01*
X48384854Y-60026314D01*
X48233775Y-60308962D01*
X48140742Y-60615652D01*
X48117200Y-60854675D01*
X48117200Y-61979724D01*
X48140742Y-62218747D01*
X48233775Y-62525437D01*
X48384854Y-62808085D01*
X48588171Y-63055829D01*
X48835914Y-63259146D01*
X49118562Y-63410225D01*
X49425252Y-63503258D01*
X49744200Y-63534672D01*
X50063147Y-63503258D01*
X50369837Y-63410225D01*
X50652485Y-63259146D01*
X50900229Y-63055829D01*
X51103546Y-62808086D01*
X51173484Y-62677241D01*
X51173484Y-66181921D01*
X49589605Y-67765800D01*
X48713475Y-67765800D01*
X48474452Y-67789342D01*
X48167762Y-67882375D01*
X47885114Y-68033454D01*
X47637371Y-68236771D01*
X47434054Y-68484514D01*
X47282975Y-68767162D01*
X47189942Y-69073852D01*
X47158528Y-69392800D01*
X47189942Y-69711748D01*
X47282975Y-70018438D01*
X47434054Y-70301086D01*
X47637371Y-70548829D01*
X47885114Y-70752146D01*
X48167762Y-70903225D01*
X48474452Y-70996258D01*
X48713475Y-71019800D01*
X49813125Y-71019800D01*
X50052148Y-70996258D01*
X50358838Y-70903225D01*
X50641486Y-70752146D01*
X50889229Y-70548829D01*
X51092546Y-70301086D01*
X51243625Y-70018438D01*
X51336658Y-69711748D01*
X51353244Y-69543351D01*
X53002400Y-67894195D01*
X53002400Y-71395690D01*
X50418022Y-73980068D01*
X50356948Y-73961542D01*
X50117925Y-73938000D01*
X49094475Y-73938000D01*
X48855452Y-73961542D01*
X48548762Y-74054575D01*
X48266114Y-74205654D01*
X48018371Y-74408971D01*
X47815054Y-74656714D01*
X47663975Y-74939362D01*
X47570942Y-75246052D01*
X47539528Y-75565000D01*
X47570942Y-75883948D01*
X47663975Y-76190638D01*
X47815054Y-76473286D01*
X48018371Y-76721029D01*
X48266114Y-76924346D01*
X48548762Y-77075425D01*
X48855452Y-77168458D01*
X49094475Y-77192000D01*
X50117925Y-77192000D01*
X50356948Y-77168458D01*
X50663638Y-77075425D01*
X50946286Y-76924346D01*
X51194029Y-76721029D01*
X51269977Y-76628486D01*
X51302624Y-76611036D01*
X51493266Y-76454581D01*
X51532472Y-76406808D01*
X54248000Y-73691280D01*
X54248000Y-78347405D01*
X50256005Y-82339400D01*
X49527688Y-82339400D01*
X49396886Y-82232054D01*
X49114238Y-82080975D01*
X48807548Y-81987942D01*
X48568525Y-81964400D01*
X47545075Y-81964400D01*
X47306052Y-81987942D01*
X46999362Y-82080975D01*
X46716714Y-82232054D01*
X46468971Y-82435371D01*
X46265654Y-82683114D01*
X46114575Y-82965762D01*
X46021542Y-83272452D01*
X45990128Y-83591400D01*
X43468672Y-83591400D01*
X43437258Y-83272452D01*
X43344225Y-82965762D01*
X43193146Y-82683114D01*
X42989829Y-82435371D01*
X42742086Y-82232054D01*
X42459438Y-82080975D01*
X42152748Y-81987942D01*
X41913725Y-81964400D01*
X40915675Y-81964400D01*
X40676652Y-81987942D01*
X40369962Y-82080975D01*
X40087314Y-82232054D01*
X39946033Y-82348000D01*
X34261496Y-82348000D01*
X34200000Y-82341943D01*
X34138504Y-82348000D01*
X34138502Y-82348000D01*
X33954565Y-82366116D01*
X33718562Y-82437707D01*
X33501061Y-82553964D01*
X33310419Y-82710419D01*
X33271213Y-82758192D01*
X30381405Y-85648000D01*
X28577000Y-85648000D01*
X28577000Y-80271400D01*
X34634904Y-80271400D01*
X34696400Y-80277457D01*
X34757896Y-80271400D01*
X34757898Y-80271400D01*
X34941835Y-80253284D01*
X35177838Y-80181693D01*
X35395339Y-80065436D01*
X35585981Y-79908981D01*
X35625187Y-79861208D01*
X38669396Y-76817000D01*
X41912312Y-76817000D01*
X42043114Y-76924346D01*
X42325762Y-77075425D01*
X42632452Y-77168458D01*
X42871475Y-77192000D01*
X44021925Y-77192000D01*
X44260948Y-77168458D01*
X44567638Y-77075425D01*
X44850286Y-76924346D01*
X45098029Y-76721029D01*
X45301346Y-76473286D01*
X45452425Y-76190638D01*
X45545458Y-75883948D01*
X45576872Y-75565000D01*
X45545458Y-75246052D01*
X45452425Y-74939362D01*
X45301346Y-74656714D01*
X45098029Y-74408971D01*
X44850286Y-74205654D01*
X44567638Y-74054575D01*
X44260948Y-73961542D01*
X44021925Y-73938000D01*
X42871475Y-73938000D01*
X42632452Y-73961542D01*
X42325762Y-74054575D01*
X42043114Y-74205654D01*
X41912312Y-74313000D01*
X38212295Y-74313000D01*
X38150799Y-74306943D01*
X38089303Y-74313000D01*
X38089302Y-74313000D01*
X37905365Y-74331116D01*
X37676980Y-74400396D01*
X37669362Y-74402707D01*
X37451860Y-74518964D01*
X37308987Y-74636217D01*
X37261219Y-74675419D01*
X37222017Y-74723187D01*
X34177805Y-77767400D01*
X28577000Y-77767400D01*
X28577000Y-72552000D01*
X30949704Y-72552000D01*
X31011200Y-72558057D01*
X31072696Y-72552000D01*
X31072698Y-72552000D01*
X31256635Y-72533884D01*
X31492638Y-72462293D01*
X31710139Y-72346036D01*
X31900781Y-72189581D01*
X31939987Y-72141808D01*
X33411596Y-70670200D01*
X41923412Y-70670200D01*
X41992314Y-70726746D01*
X42274962Y-70877825D01*
X42581652Y-70970858D01*
X42820675Y-70994400D01*
X43920325Y-70994400D01*
X44159348Y-70970858D01*
X44466038Y-70877825D01*
X44748686Y-70726746D01*
X44996429Y-70523429D01*
X45199746Y-70275686D01*
X45350825Y-69993038D01*
X45443858Y-69686348D01*
X45475272Y-69367400D01*
X45443858Y-69048452D01*
X45350825Y-68741762D01*
X45199746Y-68459114D01*
X44996429Y-68211371D01*
X44748686Y-68008054D01*
X44466038Y-67856975D01*
X44159348Y-67763942D01*
X43920325Y-67740400D01*
X42820675Y-67740400D01*
X42581652Y-67763942D01*
X42274962Y-67856975D01*
X41992314Y-68008054D01*
X41799612Y-68166200D01*
X32954495Y-68166200D01*
X32892999Y-68160143D01*
X32831503Y-68166200D01*
X32831502Y-68166200D01*
X32647565Y-68184316D01*
X32411562Y-68255907D01*
X32194060Y-68372164D01*
X32065318Y-68477820D01*
X32003419Y-68528619D01*
X31964217Y-68576387D01*
X30492605Y-70048000D01*
X28577000Y-70048000D01*
X28577000Y-64976990D01*
X30345914Y-64976990D01*
X30407410Y-64983047D01*
X30468906Y-64976990D01*
X30468908Y-64976990D01*
X30652845Y-64958874D01*
X30888848Y-64887283D01*
X31106349Y-64771026D01*
X31296991Y-64614571D01*
X31336197Y-64566798D01*
X32351197Y-63551799D01*
X43632905Y-63551799D01*
X43694401Y-63557856D01*
X43755897Y-63551799D01*
X43755899Y-63551799D01*
X43939836Y-63533683D01*
X43975259Y-63522938D01*
X44094400Y-63534672D01*
X44413347Y-63503258D01*
X44720037Y-63410225D01*
X45002685Y-63259146D01*
X45250429Y-63055829D01*
X45453746Y-62808086D01*
X45604825Y-62525438D01*
X45697858Y-62218748D01*
X45721400Y-61979725D01*
X45721400Y-60930876D01*
X45697858Y-60691852D01*
X45604825Y-60385162D01*
X45453746Y-60102514D01*
X45250429Y-59854771D01*
X45002686Y-59651454D01*
X44720038Y-59500375D01*
X44413348Y-59407342D01*
X44094400Y-59375928D01*
X43775453Y-59407342D01*
X43468763Y-59500375D01*
X43186115Y-59651454D01*
X42938372Y-59854771D01*
X42735054Y-60102514D01*
X42583975Y-60385162D01*
X42490942Y-60691852D01*
X42467400Y-60930875D01*
X42467400Y-61047799D01*
X31894096Y-61047799D01*
X31832600Y-61041742D01*
X31771104Y-61047799D01*
X31771103Y-61047799D01*
X31587166Y-61065915D01*
X31398983Y-61123000D01*
X31351163Y-61137506D01*
X31133661Y-61253763D01*
X30990788Y-61371016D01*
X30943020Y-61410218D01*
X30903818Y-61457986D01*
X29888815Y-62472990D01*
X28576881Y-62472990D01*
X28576064Y-57152000D01*
X30813504Y-57152000D01*
X30875000Y-57158057D01*
X30936496Y-57152000D01*
X30936498Y-57152000D01*
X31120435Y-57133884D01*
X31356438Y-57062293D01*
X31573939Y-56946036D01*
X31764581Y-56789581D01*
X31803787Y-56741808D01*
X42193596Y-46352000D01*
X51035913Y-46352000D01*
X51166715Y-46459346D01*
X51449363Y-46610425D01*
X51756053Y-46703458D01*
X51924449Y-46720044D01*
X54396217Y-49191813D01*
X54435419Y-49239581D01*
X54483187Y-49278783D01*
X54626060Y-49396036D01*
X54831843Y-49506029D01*
X54843562Y-49512293D01*
X55079565Y-49583884D01*
X55263502Y-49602000D01*
X55263503Y-49602000D01*
X55324999Y-49608057D01*
X55386495Y-49602000D01*
X59885912Y-49602000D01*
X60016714Y-49709346D01*
X60299362Y-49860425D01*
X60606052Y-49953458D01*
X60845075Y-49977000D01*
X61720053Y-49977000D01*
X61799998Y-49984874D01*
X62118946Y-49953460D01*
X62425637Y-49860427D01*
X62708284Y-49709349D01*
X62956027Y-49506031D01*
X63159345Y-49258288D01*
X63310423Y-48975641D01*
X63403456Y-48668950D01*
X63434870Y-48350002D01*
X63403456Y-48031056D01*
X63310423Y-47724364D01*
X63159345Y-47441718D01*
X63105900Y-47376594D01*
X62956025Y-47193971D01*
X62708282Y-46990654D01*
X62425634Y-46839575D01*
X62118944Y-46746542D01*
X61879921Y-46723000D01*
X61879910Y-46723000D01*
X61799996Y-46715129D01*
X61720082Y-46723000D01*
X60845075Y-46723000D01*
X60606052Y-46746542D01*
X60299362Y-46839575D01*
X60016714Y-46990654D01*
X59885912Y-47098000D01*
X55843596Y-47098000D01*
X53702000Y-44956405D01*
X53702000Y-37229914D01*
X53709871Y-37149999D01*
X53702000Y-37070085D01*
X53702000Y-37070076D01*
X53678458Y-36831052D01*
X53585425Y-36524362D01*
X53434346Y-36241714D01*
X53231029Y-35993971D01*
X53168945Y-35943020D01*
X53143947Y-35918022D01*
X52958285Y-35765654D01*
X52675638Y-35614576D01*
X52368947Y-35521543D01*
X52050000Y-35490129D01*
X51731053Y-35521543D01*
X51424362Y-35614576D01*
X51141715Y-35765654D01*
X50893971Y-35968971D01*
X50690654Y-36216715D01*
X50539576Y-36499362D01*
X50446543Y-36806053D01*
X50415129Y-37125000D01*
X50446543Y-37443947D01*
X50448000Y-37448750D01*
X50448000Y-37945076D01*
X50448001Y-43848000D01*
X41736495Y-43848000D01*
X41674999Y-43841943D01*
X41613503Y-43848000D01*
X41613502Y-43848000D01*
X41429565Y-43866116D01*
X41193562Y-43937707D01*
X40976060Y-44053964D01*
X40833187Y-44171217D01*
X40785419Y-44210419D01*
X40746217Y-44258187D01*
X30356405Y-54648000D01*
X28577000Y-54648000D01*
X28577000Y-48500000D01*
X28555345Y-48280133D01*
X28508286Y-48125000D01*
X28555345Y-47969867D01*
X28577000Y-47750000D01*
X28577000Y-40750000D01*
X28555345Y-40530133D01*
X28508286Y-40375000D01*
X28555345Y-40219867D01*
X28577000Y-40000000D01*
X28577000Y-33000000D01*
X28555345Y-32780133D01*
X28504501Y-32612522D01*
X28517440Y-32569867D01*
X28539095Y-32350000D01*
X28539095Y-28050000D01*
X52117547Y-28050000D01*
X52117547Y-29750000D01*
X52139307Y-29970931D01*
X52203750Y-30183371D01*
X52308400Y-30379157D01*
X52449235Y-30550765D01*
X52620843Y-30691600D01*
X52816629Y-30796250D01*
X53029069Y-30860693D01*
X53250000Y-30882453D01*
X54950000Y-30882453D01*
X55170931Y-30860693D01*
X55383371Y-30796250D01*
X55579157Y-30691600D01*
X55665445Y-30620785D01*
X55879774Y-30735347D01*
X56252440Y-30848394D01*
X56542884Y-30877000D01*
X56737116Y-30877000D01*
X57027560Y-30848394D01*
X57400226Y-30735347D01*
X57743676Y-30551768D01*
X57910000Y-30415270D01*
X58076324Y-30551768D01*
X58419774Y-30735347D01*
X58792440Y-30848394D01*
X59082884Y-30877000D01*
X59277116Y-30877000D01*
X59567560Y-30848394D01*
X59940226Y-30735347D01*
X60283676Y-30551768D01*
X60450000Y-30415270D01*
X60616324Y-30551768D01*
X60959774Y-30735347D01*
X61332440Y-30848394D01*
X61622884Y-30877000D01*
X61817116Y-30877000D01*
X62107560Y-30848394D01*
X62480226Y-30735347D01*
X62823676Y-30551768D01*
X63124714Y-30304714D01*
X63371768Y-30003676D01*
X63555347Y-29660226D01*
X63668394Y-29287560D01*
X63706565Y-28900000D01*
X63668394Y-28512440D01*
X63555347Y-28139774D01*
X63371768Y-27796324D01*
X63124714Y-27495286D01*
X62823676Y-27248232D01*
X62480226Y-27064653D01*
X62107560Y-26951606D01*
X61817116Y-26923000D01*
X61622884Y-26923000D01*
X61332440Y-26951606D01*
X60959774Y-27064653D01*
X60616324Y-27248232D01*
X60450000Y-27384730D01*
X60283676Y-27248232D01*
X59940226Y-27064653D01*
X59567560Y-26951606D01*
X59277116Y-26923000D01*
X59082884Y-26923000D01*
X58792440Y-26951606D01*
X58419774Y-27064653D01*
X58076324Y-27248232D01*
X57910000Y-27384730D01*
X57743676Y-27248232D01*
X57400226Y-27064653D01*
X57027560Y-26951606D01*
X56737116Y-26923000D01*
X56542884Y-26923000D01*
X56252440Y-26951606D01*
X55879774Y-27064653D01*
X55665445Y-27179215D01*
X55579157Y-27108400D01*
X55383371Y-27003750D01*
X55170931Y-26939307D01*
X54950000Y-26917547D01*
X53250000Y-26917547D01*
X53029069Y-26939307D01*
X52816629Y-27003750D01*
X52620843Y-27108400D01*
X52449235Y-27249235D01*
X52308400Y-27420843D01*
X52203750Y-27616629D01*
X52139307Y-27829069D01*
X52117547Y-28050000D01*
X28539095Y-28050000D01*
X28539095Y-25350000D01*
X28517440Y-25130133D01*
X28512084Y-25112478D01*
X28555345Y-24969867D01*
X28577000Y-24750000D01*
X28577000Y-17650000D01*
X28555345Y-17430133D01*
X28515869Y-17300000D01*
X28555345Y-17169867D01*
X28577000Y-16950000D01*
X28577000Y-11950000D01*
X50867547Y-11950000D01*
X50867547Y-14550000D01*
X50889307Y-14770931D01*
X50953750Y-14983371D01*
X51058400Y-15179157D01*
X51199235Y-15350765D01*
X51370843Y-15491600D01*
X51566629Y-15596250D01*
X51779069Y-15660693D01*
X52000000Y-15682453D01*
X54000000Y-15682453D01*
X54220931Y-15660693D01*
X54433371Y-15596250D01*
X54629157Y-15491600D01*
X54641463Y-15481501D01*
X54722095Y-15524599D01*
X55123036Y-15646224D01*
X55540000Y-15687291D01*
X55956965Y-15646224D01*
X56357906Y-15524599D01*
X56727415Y-15327093D01*
X57051293Y-15061293D01*
X57317093Y-14737415D01*
X57514599Y-14367905D01*
X57636224Y-13966964D01*
X57667000Y-13654486D01*
X57667000Y-12845513D01*
X57636224Y-12533035D01*
X57514599Y-12132094D01*
X57317093Y-11762585D01*
X57051293Y-11438707D01*
X56727415Y-11172907D01*
X56357905Y-10975401D01*
X55956964Y-10853776D01*
X55540000Y-10812709D01*
X55123035Y-10853776D01*
X54722094Y-10975401D01*
X54641463Y-11018499D01*
X54629157Y-11008400D01*
X54433371Y-10903750D01*
X54220931Y-10839307D01*
X54000000Y-10817547D01*
X52000000Y-10817547D01*
X51779069Y-10839307D01*
X51566629Y-10903750D01*
X51370843Y-11008400D01*
X51199235Y-11149235D01*
X51058400Y-11320843D01*
X50953750Y-11516629D01*
X50889307Y-11729069D01*
X50867547Y-11950000D01*
X28577000Y-11950000D01*
X28577000Y-9850000D01*
X28555345Y-9630133D01*
X28499991Y-9447657D01*
X28555345Y-9265181D01*
X28577000Y-9045314D01*
X28577000Y-2045314D01*
X28555345Y-1825447D01*
X28491212Y-1614030D01*
X28387066Y-1419186D01*
X28246909Y-1248405D01*
X28098977Y-1127000D01*
X45574471Y-1127000D01*
X45526694Y-1146790D01*
X45276594Y-1313901D01*
X45063901Y-1526594D01*
X44896790Y-1776694D01*
X44781681Y-2054590D01*
X44723000Y-2349604D01*
X44723000Y-2650396D01*
X44781681Y-2945410D01*
X44896790Y-3223306D01*
X44998001Y-3374779D01*
X44998000Y-5785154D01*
X44916790Y-5906694D01*
X44801681Y-6184590D01*
X44743000Y-6479604D01*
X44743000Y-6780396D01*
X44792395Y-7028725D01*
X44781681Y-7054590D01*
X44723000Y-7349604D01*
X44723000Y-7650396D01*
X44781681Y-7945410D01*
X44896790Y-8223306D01*
X45063901Y-8473406D01*
X45276594Y-8686099D01*
X45526694Y-8853210D01*
X45804590Y-8968319D01*
X46099604Y-9027000D01*
X46400396Y-9027000D01*
X46695410Y-8968319D01*
X46973306Y-8853210D01*
X47223406Y-8686099D01*
X47436099Y-8473406D01*
X47603210Y-8223306D01*
X47718319Y-7945410D01*
X47777000Y-7650396D01*
X47777000Y-7349604D01*
X47727605Y-7101275D01*
X47738319Y-7075410D01*
X47797000Y-6780396D01*
X47797000Y-6479604D01*
X47738319Y-6184590D01*
X47623210Y-5906694D01*
X47502000Y-5725290D01*
X47502000Y-4623073D01*
X56173000Y-4623073D01*
X56173000Y-5376927D01*
X56320070Y-6116295D01*
X56608557Y-6812764D01*
X57027375Y-7439570D01*
X57560430Y-7972625D01*
X58187236Y-8391443D01*
X58883705Y-8679930D01*
X59623073Y-8827000D01*
X60376927Y-8827000D01*
X61116295Y-8679930D01*
X61812764Y-8391443D01*
X62439570Y-7972625D01*
X62972625Y-7439570D01*
X63391443Y-6812764D01*
X63679930Y-6116295D01*
X63827000Y-5376927D01*
X63827000Y-4623073D01*
X63679930Y-3883705D01*
X63391443Y-3187236D01*
X62972625Y-2560430D01*
X62439570Y-2027375D01*
X61812764Y-1608557D01*
X61116295Y-1320070D01*
X60376927Y-1173000D01*
X59623073Y-1173000D01*
X58883705Y-1320070D01*
X58187236Y-1608557D01*
X57560430Y-2027375D01*
X57027375Y-2560430D01*
X56608557Y-3187236D01*
X56320070Y-3883705D01*
X56173000Y-4623073D01*
X47502000Y-4623073D01*
X47502000Y-3986845D01*
X47645410Y-3958319D01*
X47923306Y-3843210D01*
X48173406Y-3676099D01*
X48386099Y-3463406D01*
X48553210Y-3213306D01*
X48668319Y-2935410D01*
X48727000Y-2640396D01*
X48727000Y-2339604D01*
X48668319Y-2044590D01*
X48553210Y-1766694D01*
X48386099Y-1516594D01*
X48173406Y-1303901D01*
X47923306Y-1136790D01*
X47899671Y-1127000D01*
X59949812Y-1127000D01*
X60685056Y-1192619D01*
X61348456Y-1374104D01*
X61969235Y-1670201D01*
X62527771Y-2071549D01*
X63006406Y-2565462D01*
X63390010Y-3136326D01*
X63666462Y-3766101D01*
X63829103Y-4443549D01*
X63873000Y-5041319D01*
X63873000Y-11292386D01*
X63727415Y-11172907D01*
X63357905Y-10975401D01*
X62956964Y-10853776D01*
X62540000Y-10812709D01*
X62123035Y-10853776D01*
X61722094Y-10975401D01*
X61641463Y-11018499D01*
X61629157Y-11008400D01*
X61433371Y-10903750D01*
X61220931Y-10839307D01*
X61000000Y-10817547D01*
X59000000Y-10817547D01*
X58779069Y-10839307D01*
X58566629Y-10903750D01*
X58370843Y-11008400D01*
X58199235Y-11149235D01*
X58058400Y-11320843D01*
X57953750Y-11516629D01*
X57889307Y-11729069D01*
X57867547Y-11950000D01*
X57867547Y-14550000D01*
X57889307Y-14770931D01*
X57953750Y-14983371D01*
X58058400Y-15179157D01*
X58199235Y-15350765D01*
X58370843Y-15491600D01*
X58566629Y-15596250D01*
X58779069Y-15660693D01*
X59000000Y-15682453D01*
X61000000Y-15682453D01*
X61220931Y-15660693D01*
X61433371Y-15596250D01*
X61629157Y-15491600D01*
X61641463Y-15481501D01*
X61722095Y-15524599D01*
X62123036Y-15646224D01*
X62540000Y-15687291D01*
X62956965Y-15646224D01*
X63357906Y-15524599D01*
X63727415Y-15327093D01*
X63873000Y-15207614D01*
X63873001Y-94949801D01*
X63807381Y-95685056D01*
X63625896Y-96348455D01*
X63329797Y-96969239D01*
X62928451Y-97527771D01*
X62434538Y-98006406D01*
X61863674Y-98390010D01*
X61233903Y-98666461D01*
X60556452Y-98829103D01*
X59958681Y-98873000D01*
X5050188Y-98873000D01*
X4314944Y-98807381D01*
X3651545Y-98625896D01*
X3030761Y-98329797D01*
X2472229Y-97928451D01*
X1993594Y-97434538D01*
X1609990Y-96863674D01*
X1333539Y-96233903D01*
X1170897Y-95556452D01*
X1127000Y-94958681D01*
X1127000Y-94623073D01*
X1173000Y-94623073D01*
X1173000Y-95376927D01*
X1320070Y-96116295D01*
X1608557Y-96812764D01*
X2027375Y-97439570D01*
X2560430Y-97972625D01*
X3187236Y-98391443D01*
X3883705Y-98679930D01*
X4623073Y-98827000D01*
X5376927Y-98827000D01*
X6116295Y-98679930D01*
X6812764Y-98391443D01*
X7439570Y-97972625D01*
X7972625Y-97439570D01*
X8391443Y-96812764D01*
X8679930Y-96116295D01*
X8827000Y-95376927D01*
X8827000Y-94623073D01*
X8679930Y-93883705D01*
X8391443Y-93187236D01*
X7972625Y-92560430D01*
X7439570Y-92027375D01*
X6812764Y-91608557D01*
X6116295Y-91320070D01*
X5376927Y-91173000D01*
X4623073Y-91173000D01*
X3883705Y-91320070D01*
X3187236Y-91608557D01*
X2560430Y-92027375D01*
X2027375Y-92560430D01*
X1608557Y-93187236D01*
X1320070Y-93883705D01*
X1173000Y-94623073D01*
X1127000Y-94623073D01*
X1127000Y-83563110D01*
X2558524Y-83563110D01*
X2679845Y-83793000D01*
X3873000Y-83793000D01*
X3873000Y-82599186D01*
X4127000Y-82599186D01*
X4127000Y-83793000D01*
X5320155Y-83793000D01*
X5441476Y-83563110D01*
X5396825Y-83415901D01*
X5271641Y-83153080D01*
X5097588Y-82919731D01*
X4881355Y-82724822D01*
X4631252Y-82575843D01*
X4356891Y-82478519D01*
X4127000Y-82599186D01*
X3873000Y-82599186D01*
X3643109Y-82478519D01*
X3368748Y-82575843D01*
X3118645Y-82724822D01*
X2902412Y-82919731D01*
X2728359Y-83153080D01*
X2603175Y-83415901D01*
X2558524Y-83563110D01*
X1127000Y-83563110D01*
X1127000Y-70023110D01*
X2558524Y-70023110D01*
X2679845Y-70253000D01*
X3873000Y-70253000D01*
X3873000Y-69059186D01*
X4127000Y-69059186D01*
X4127000Y-70253000D01*
X5320155Y-70253000D01*
X5441476Y-70023110D01*
X5396825Y-69875901D01*
X5271641Y-69613080D01*
X5097588Y-69379731D01*
X4881355Y-69184822D01*
X4631252Y-69035843D01*
X4356891Y-68938519D01*
X4127000Y-69059186D01*
X3873000Y-69059186D01*
X3643109Y-68938519D01*
X3368748Y-69035843D01*
X3118645Y-69184822D01*
X2902412Y-69379731D01*
X2728359Y-69613080D01*
X2603175Y-69875901D01*
X2558524Y-70023110D01*
X1127000Y-70023110D01*
X1127000Y-5050188D01*
X1165119Y-4623073D01*
X1173000Y-4623073D01*
X1173000Y-5376927D01*
X1320070Y-6116295D01*
X1608557Y-6812764D01*
X2027375Y-7439570D01*
X2560430Y-7972625D01*
X3187236Y-8391443D01*
X3883705Y-8679930D01*
X4623073Y-8827000D01*
X5376927Y-8827000D01*
X6116295Y-8679930D01*
X6812764Y-8391443D01*
X7439570Y-7972625D01*
X7972625Y-7439570D01*
X8391443Y-6812764D01*
X8679930Y-6116295D01*
X8827000Y-5376927D01*
X8827000Y-4623073D01*
X8679930Y-3883705D01*
X8391443Y-3187236D01*
X7972625Y-2560430D01*
X7439570Y-2027375D01*
X6812764Y-1608557D01*
X6116295Y-1320070D01*
X5376927Y-1173000D01*
X4623073Y-1173000D01*
X3883705Y-1320070D01*
X3187236Y-1608557D01*
X2560430Y-2027375D01*
X2027375Y-2560430D01*
X1608557Y-3187236D01*
X1320070Y-3883705D01*
X1173000Y-4623073D01*
X1165119Y-4623073D01*
X1192619Y-4314944D01*
X1374104Y-3651544D01*
X1670201Y-3030765D01*
X2071549Y-2472229D01*
X2565462Y-1993594D01*
X3136326Y-1609990D01*
X3766101Y-1333538D01*
X4443549Y-1170897D01*
X5041319Y-1127000D01*
X11301023Y-1127000D01*
X11153091Y-1248405D01*
G36*
X27323000Y-8918314D02*
G01*
X12077000Y-8918314D01*
X12077000Y-2172314D01*
X27323000Y-2172314D01*
X27323000Y-8918314D01*
X27323000Y-8918314D01*
G37*
X27323000Y-8918314D02*
X12077000Y-8918314D01*
X12077000Y-2172314D01*
X27323000Y-2172314D01*
X27323000Y-8918314D01*
G36*
X18526694Y-10003210D02*
G01*
X18804590Y-10118319D01*
X19099604Y-10177000D01*
X19400396Y-10177000D01*
X19695410Y-10118319D01*
X19973306Y-10003210D01*
X20012532Y-9977000D01*
X27323000Y-9977000D01*
X27323000Y-16823409D01*
X19854314Y-16847502D01*
X19695410Y-16781681D01*
X19400396Y-16723000D01*
X19099604Y-16723000D01*
X18804590Y-16781681D01*
X18636199Y-16851431D01*
X12077000Y-16872590D01*
X12077000Y-9977000D01*
X18487468Y-9977000D01*
X18526694Y-10003210D01*
X18526694Y-10003210D01*
G37*
X18526694Y-10003210D02*
X18804590Y-10118319D01*
X19099604Y-10177000D01*
X19400396Y-10177000D01*
X19695410Y-10118319D01*
X19973306Y-10003210D01*
X20012532Y-9977000D01*
X27323000Y-9977000D01*
X27323000Y-16823409D01*
X19854314Y-16847502D01*
X19695410Y-16781681D01*
X19400396Y-16723000D01*
X19099604Y-16723000D01*
X18804590Y-16781681D01*
X18636199Y-16851431D01*
X12077000Y-16872590D01*
X12077000Y-9977000D01*
X18487468Y-9977000D01*
X18526694Y-10003210D01*
G36*
X18804590Y-25518319D02*
G01*
X19099604Y-25577000D01*
X19400396Y-25577000D01*
X19695410Y-25518319D01*
X19795162Y-25477000D01*
X27285095Y-25477000D01*
X27285095Y-32223000D01*
X19795162Y-32223000D01*
X19695410Y-32181681D01*
X19400396Y-32123000D01*
X19099604Y-32123000D01*
X18804590Y-32181681D01*
X18704838Y-32223000D01*
X12088876Y-32223000D01*
X12077220Y-25477000D01*
X18704838Y-25477000D01*
X18804590Y-25518319D01*
X18804590Y-25518319D01*
G37*
X18804590Y-25518319D02*
X19099604Y-25577000D01*
X19400396Y-25577000D01*
X19695410Y-25518319D01*
X19795162Y-25477000D01*
X27285095Y-25477000D01*
X27285095Y-32223000D01*
X19795162Y-32223000D01*
X19695410Y-32181681D01*
X19400396Y-32123000D01*
X19099604Y-32123000D01*
X18804590Y-32181681D01*
X18704838Y-32223000D01*
X12088876Y-32223000D01*
X12077220Y-25477000D01*
X18704838Y-25477000D01*
X18804590Y-25518319D01*
G36*
X18804590Y-33218319D02*
G01*
X19099604Y-33277000D01*
X19400396Y-33277000D01*
X19695410Y-33218319D01*
X19915872Y-33127000D01*
X27323000Y-33127000D01*
X27323000Y-39873000D01*
X19651767Y-39873000D01*
X19400396Y-39823000D01*
X19099604Y-39823000D01*
X18848233Y-39873000D01*
X12077000Y-39873000D01*
X12077000Y-33127000D01*
X18584128Y-33127000D01*
X18804590Y-33218319D01*
X18804590Y-33218319D01*
G37*
X18804590Y-33218319D02*
X19099604Y-33277000D01*
X19400396Y-33277000D01*
X19695410Y-33218319D01*
X19915872Y-33127000D01*
X27323000Y-33127000D01*
X27323000Y-39873000D01*
X19651767Y-39873000D01*
X19400396Y-39823000D01*
X19099604Y-39823000D01*
X18848233Y-39873000D01*
X12077000Y-39873000D01*
X12077000Y-33127000D01*
X18584128Y-33127000D01*
X18804590Y-33218319D01*
G36*
X18804590Y-40918319D02*
G01*
X19099604Y-40977000D01*
X19400396Y-40977000D01*
X19695410Y-40918319D01*
X19795162Y-40877000D01*
X27323000Y-40877000D01*
X27323000Y-47623000D01*
X12077000Y-47623000D01*
X12077000Y-40877000D01*
X18704838Y-40877000D01*
X18804590Y-40918319D01*
X18804590Y-40918319D01*
G37*
X18804590Y-40918319D02*
X19099604Y-40977000D01*
X19400396Y-40977000D01*
X19695410Y-40918319D01*
X19795162Y-40877000D01*
X27323000Y-40877000D01*
X27323000Y-47623000D01*
X12077000Y-47623000D01*
X12077000Y-40877000D01*
X18704838Y-40877000D01*
X18804590Y-40918319D01*
G36*
X27323000Y-55373409D02*
G01*
X20939836Y-55394000D01*
X12077000Y-55394000D01*
X12077000Y-48627000D01*
X27323000Y-48627000D01*
X27323000Y-55373409D01*
X27323000Y-55373409D01*
G37*
X27323000Y-55373409D02*
X20939836Y-55394000D01*
X12077000Y-55394000D01*
X12077000Y-48627000D01*
X27323000Y-48627000D01*
X27323000Y-55373409D01*
G36*
X27322981Y-63123000D02*
G01*
X12077000Y-63123000D01*
X12077000Y-56406000D01*
X27321949Y-56406000D01*
X27322981Y-63123000D01*
X27322981Y-63123000D01*
G37*
X27322981Y-63123000D02*
X12077000Y-63123000D01*
X12077000Y-56406000D01*
X27321949Y-56406000D01*
X27322981Y-63123000D01*
G36*
X27323000Y-70794000D02*
G01*
X12077000Y-70794000D01*
X12077000Y-64230990D01*
X27323000Y-64230990D01*
X27323000Y-70794000D01*
X27323000Y-70794000D01*
G37*
X27323000Y-70794000D02*
X12077000Y-70794000D01*
X12077000Y-64230990D01*
X27323000Y-64230990D01*
X27323000Y-70794000D01*
G36*
X27323000Y-86394000D02*
G01*
X12077000Y-86394000D01*
X12077000Y-79525400D01*
X27323000Y-79525400D01*
X27323000Y-86394000D01*
X27323000Y-86394000D01*
G37*
X27323000Y-86394000D02*
X12077000Y-86394000D01*
X12077000Y-79525400D01*
X27323000Y-79525400D01*
X27323000Y-86394000D01*
G36*
X27273904Y-94223000D02*
G01*
X12077182Y-94223000D01*
X12086819Y-87477000D01*
X27322089Y-87477000D01*
X27273904Y-94223000D01*
X27273904Y-94223000D01*
G37*
X27273904Y-94223000D02*
X12077182Y-94223000D01*
X12086819Y-87477000D01*
X27322089Y-87477000D01*
X27273904Y-94223000D01*
G36*
X18804590Y-17818319D02*
G01*
X19099604Y-17877000D01*
X19400396Y-17877000D01*
X19695410Y-17818319D01*
X19795162Y-17777000D01*
X27323000Y-17777000D01*
X27323000Y-24623000D01*
X20012532Y-24623000D01*
X19973306Y-24596790D01*
X19695410Y-24481681D01*
X19400396Y-24423000D01*
X19099604Y-24423000D01*
X18804590Y-24481681D01*
X18526694Y-24596790D01*
X18487468Y-24623000D01*
X12077000Y-24623000D01*
X12077000Y-17777000D01*
X18704838Y-17777000D01*
X18804590Y-17818319D01*
X18804590Y-17818319D01*
G37*
X18804590Y-17818319D02*
X19099604Y-17877000D01*
X19400396Y-17877000D01*
X19695410Y-17818319D01*
X19795162Y-17777000D01*
X27323000Y-17777000D01*
X27323000Y-24623000D01*
X20012532Y-24623000D01*
X19973306Y-24596790D01*
X19695410Y-24481681D01*
X19400396Y-24423000D01*
X19099604Y-24423000D01*
X18804590Y-24481681D01*
X18526694Y-24596790D01*
X18487468Y-24623000D01*
X12077000Y-24623000D01*
X12077000Y-17777000D01*
X18704838Y-17777000D01*
X18804590Y-17818319D01*
G36*
X27323000Y-78513400D02*
G01*
X12077000Y-78513400D01*
X12077000Y-71806000D01*
X27323000Y-71806000D01*
X27323000Y-78513400D01*
X27323000Y-78513400D01*
G37*
X27323000Y-78513400D02*
X12077000Y-78513400D01*
X12077000Y-71806000D01*
X27323000Y-71806000D01*
X27323000Y-78513400D01*
M02*
