M48
; DRILL file {KiCad 5.1.0-rc2-unknown-d2d2101~82~ubuntu18.10.1} date Fri 08 Mar 2019 03:06:43 PM EST
; FORMAT={3:3/ absolute / metric / suppress leading zeros}
; #@! TF.CreationDate,2019-03-08T15:06:43-05:00
; #@! TF.GenerationSoftware,Kicad,Pcbnew,5.1.0-rc2-unknown-d2d2101~82~ubuntu18.10.1
FMAT,2
METRIC,TZ
T1C0.400
T2C0.500
T3C1.000
T4C1.200
T5C2.700
%
G90
G05
T1
X15100Y-99100
X16000Y-99100
X23950Y-6300
X23950Y-7300
X23950Y-8300
X23950Y-10000
X23950Y-11100
X23950Y-12150
X23950Y-14000
X23950Y-15000
X23950Y-16000
X23950Y-17850
X23950Y-18850
X23950Y-19850
X23950Y-21750
X23950Y-22750
X23950Y-23750
X23950Y-25550
X23950Y-26550
X23950Y-27550
X23950Y-29450
X23950Y-30450
X23950Y-31450
X23950Y-33250
X23950Y-34250
X23950Y-35250
X23950Y-37150
X23950Y-38150
X23950Y-39150
X23950Y-40950
X23950Y-41950
X23950Y-42950
X23950Y-44850
X23950Y-45850
X23950Y-46850
X23950Y-48700
X23950Y-49700
X23950Y-50700
X23950Y-52650
X23950Y-53650
X23950Y-54650
X23950Y-56450
X23950Y-57450
X23950Y-58450
X23950Y-64150
X23950Y-65150
X23950Y-66150
X23950Y-68050
X23950Y-69050
X23950Y-70050
X23950Y-71850
X23950Y-72850
X23950Y-73850
X23950Y-75750
X23950Y-76750
X23950Y-77750
X23950Y-79550
X23950Y-80550
X23950Y-81550
X23950Y-83450
X23950Y-84450
X23950Y-85450
X23950Y-87400
X23950Y-88400
X23950Y-89400
X23950Y-91450
X23950Y-92450
X23950Y-93450
X23950Y-95450
X23950Y-96450
X23950Y-97450
X24000Y-60350
X24000Y-61350
X24000Y-62350
X35840Y-95630
X35850Y-96450
X42370Y-44860
X42420Y-29450
X42540Y-68050
X42560Y-21750
X42570Y-91460
X42590Y-52650
X42600Y-37160
X42610Y-6300
X42620Y-60360
X42620Y-75750
X42630Y-83450
X42670Y-14020
X43240Y-44860
X43250Y-29450
X43430Y-91460
X43450Y-6300
X43450Y-21750
X43450Y-37150
X43450Y-52650
X43450Y-52650
X43450Y-68050
X43450Y-75750
X43450Y-83450
X43500Y-60350
X43550Y-14050
X54490Y-43610
X54500Y-44500
X56300Y-55700
X56300Y-57700
X61000Y-2500
X61000Y-7500
X61020Y-6630
X61950Y-2490
X64300Y-87700
X64990Y-54860
X65000Y-53990
X66000Y-22000
X66000Y-28000
X66300Y-87700
X66860Y-27980
X66870Y-21990
X67000Y-44000
X67080Y-44900
X68300Y-86700
X70000Y-2500
X70000Y-5500
X70300Y-87700
X70840Y-2500
X70910Y-5520
X70990Y-55950
X71010Y-53710
X71820Y-55960
X71840Y-53700
X72300Y-86700
X74300Y-87700
X76300Y-86700
X78300Y-87700
X80300Y-48300
X80300Y-86700
X81170Y-48290
X81650Y-46010
X82300Y-87700
X82500Y-46000
T2
X2975Y-5000
X3568Y-3568
X3568Y-6432
X5000Y-2975
X5000Y-7025
X6432Y-3568
X6432Y-6432
X7025Y-5000
X92975Y-5000
X93568Y-3568
X93568Y-6432
X95000Y-2975
X95000Y-7025
X96432Y-3568
X96432Y-6432
X97025Y-5000
X2975Y-95000
X3568Y-93568
X3568Y-96432
X5000Y-92975
X5000Y-97025
X6432Y-93568
X6432Y-96432
X7025Y-95000
X92975Y-95000
X93568Y-93568
X93568Y-96432
X95000Y-92975
X95000Y-97025
X96432Y-93568
X96432Y-96432
X97025Y-95000
T3
X78920Y-38000
X81460Y-38000
X84000Y-38000
X65000Y-95000
X67540Y-95000
X70080Y-95000
X72620Y-95000
X75160Y-95000
X77700Y-95000
X80240Y-95000
X82780Y-95000
X85320Y-95000
X87860Y-95000
X78961Y-56000
X81501Y-56000
X84041Y-56000
X3300Y-35920
X3300Y-38460
X3300Y-41000
X3300Y-43540
X3300Y-46080
X3300Y-48620
X3300Y-51160
X3300Y-53700
X3300Y-56240
X3300Y-58780
X3300Y-61320
X3300Y-63860
X3300Y-66400
T4
X94000Y-27000
X94000Y-29540
X94000Y-20000
X94000Y-22540
T5
X5000Y-5000
X95000Y-5000
X5000Y-95000
X95000Y-95000
T0
M30
