G04 #@! TF.GenerationSoftware,KiCad,Pcbnew,5.1.0-unknown-c054944~86~ubuntu19.04.1*
G04 #@! TF.CreationDate,2019-05-13T10:22:25-04:00*
G04 #@! TF.ProjectId,LTC6811,4c544336-3831-4312-9e6b-696361645f70,rev?*
G04 #@! TF.SameCoordinates,Original*
G04 #@! TF.FileFunction,Soldermask,Bot*
G04 #@! TF.FilePolarity,Negative*
%FSLAX46Y46*%
G04 Gerber Fmt 4.6, Leading zero omitted, Abs format (unit mm)*
G04 Created by KiCad (PCBNEW 5.1.0-unknown-c054944~86~ubuntu19.04.1) date 2019-05-13 10:22:25*
%MOMM*%
%LPD*%
G04 APERTURE LIST*
%ADD10C,0.100000*%
G04 APERTURE END LIST*
D10*
G36*
X5536693Y-92301859D02*
G01*
X5802437Y-92354719D01*
X6303087Y-92562095D01*
X6483561Y-92682684D01*
X6753660Y-92863158D01*
X7136842Y-93246340D01*
X7317316Y-93516439D01*
X7437905Y-93696913D01*
X7571363Y-94019109D01*
X7645281Y-94197564D01*
X7751000Y-94729049D01*
X7751000Y-95270951D01*
X7715186Y-95451000D01*
X7645281Y-95802437D01*
X7437905Y-96303087D01*
X7381521Y-96387471D01*
X7136842Y-96753660D01*
X6753660Y-97136842D01*
X6490774Y-97312496D01*
X6303087Y-97437905D01*
X5802437Y-97645281D01*
X5536694Y-97698140D01*
X5270951Y-97751000D01*
X4729049Y-97751000D01*
X4463306Y-97698140D01*
X4197563Y-97645281D01*
X3696913Y-97437905D01*
X3509226Y-97312496D01*
X3246340Y-97136842D01*
X2863158Y-96753660D01*
X2618479Y-96387471D01*
X2562095Y-96303087D01*
X2354719Y-95802437D01*
X2284814Y-95451000D01*
X2249000Y-95270951D01*
X2249000Y-94729049D01*
X2354719Y-94197564D01*
X2428637Y-94019109D01*
X2562095Y-93696913D01*
X2682684Y-93516439D01*
X2863158Y-93246340D01*
X3246340Y-92863158D01*
X3516439Y-92682684D01*
X3696913Y-92562095D01*
X4197563Y-92354719D01*
X4463307Y-92301859D01*
X4729049Y-92249000D01*
X5270951Y-92249000D01*
X5536693Y-92301859D01*
X5536693Y-92301859D01*
G37*
G36*
X60536693Y-92301859D02*
G01*
X60802437Y-92354719D01*
X61303087Y-92562095D01*
X61483561Y-92682684D01*
X61753660Y-92863158D01*
X62136842Y-93246340D01*
X62317316Y-93516439D01*
X62437905Y-93696913D01*
X62571363Y-94019109D01*
X62645281Y-94197564D01*
X62751000Y-94729049D01*
X62751000Y-95270951D01*
X62715186Y-95451000D01*
X62645281Y-95802437D01*
X62437905Y-96303087D01*
X62381521Y-96387471D01*
X62136842Y-96753660D01*
X61753660Y-97136842D01*
X61490774Y-97312496D01*
X61303087Y-97437905D01*
X60802437Y-97645281D01*
X60536693Y-97698141D01*
X60270951Y-97751000D01*
X59729049Y-97751000D01*
X59463306Y-97698140D01*
X59197563Y-97645281D01*
X58696913Y-97437905D01*
X58509226Y-97312496D01*
X58246340Y-97136842D01*
X57863158Y-96753660D01*
X57618479Y-96387471D01*
X57562095Y-96303087D01*
X57354719Y-95802437D01*
X57284814Y-95451000D01*
X57249000Y-95270951D01*
X57249000Y-94729049D01*
X57354719Y-94197564D01*
X57428637Y-94019109D01*
X57562095Y-93696913D01*
X57682684Y-93516439D01*
X57863158Y-93246340D01*
X58246340Y-92863158D01*
X58516439Y-92682684D01*
X58696913Y-92562095D01*
X59197563Y-92354719D01*
X59463307Y-92301859D01*
X59729049Y-92249000D01*
X60270951Y-92249000D01*
X60536693Y-92301859D01*
X60536693Y-92301859D01*
G37*
G36*
X4901000Y-89901000D02*
G01*
X3099000Y-89901000D01*
X3099000Y-88099000D01*
X4901000Y-88099000D01*
X4901000Y-89901000D01*
X4901000Y-89901000D01*
G37*
G36*
X4110442Y-85565518D02*
G01*
X4176627Y-85572037D01*
X4346466Y-85623557D01*
X4502991Y-85707222D01*
X4538729Y-85736552D01*
X4640186Y-85819814D01*
X4723448Y-85921271D01*
X4752778Y-85957009D01*
X4836443Y-86113534D01*
X4887963Y-86283373D01*
X4905359Y-86460000D01*
X4887963Y-86636627D01*
X4836443Y-86806466D01*
X4752778Y-86962991D01*
X4723448Y-86998729D01*
X4640186Y-87100186D01*
X4538729Y-87183448D01*
X4502991Y-87212778D01*
X4346466Y-87296443D01*
X4176627Y-87347963D01*
X4110443Y-87354481D01*
X4044260Y-87361000D01*
X3955740Y-87361000D01*
X3889557Y-87354481D01*
X3823373Y-87347963D01*
X3653534Y-87296443D01*
X3497009Y-87212778D01*
X3461271Y-87183448D01*
X3359814Y-87100186D01*
X3276552Y-86998729D01*
X3247222Y-86962991D01*
X3163557Y-86806466D01*
X3112037Y-86636627D01*
X3094641Y-86460000D01*
X3112037Y-86283373D01*
X3163557Y-86113534D01*
X3247222Y-85957009D01*
X3276552Y-85921271D01*
X3359814Y-85819814D01*
X3461271Y-85736552D01*
X3497009Y-85707222D01*
X3653534Y-85623557D01*
X3823373Y-85572037D01*
X3889558Y-85565518D01*
X3955740Y-85559000D01*
X4044260Y-85559000D01*
X4110442Y-85565518D01*
X4110442Y-85565518D01*
G37*
G36*
X4110442Y-83025518D02*
G01*
X4176627Y-83032037D01*
X4346466Y-83083557D01*
X4502991Y-83167222D01*
X4538729Y-83196552D01*
X4640186Y-83279814D01*
X4723448Y-83381271D01*
X4752778Y-83417009D01*
X4836443Y-83573534D01*
X4887963Y-83743373D01*
X4905359Y-83920000D01*
X4887963Y-84096627D01*
X4836443Y-84266466D01*
X4752778Y-84422991D01*
X4723448Y-84458729D01*
X4640186Y-84560186D01*
X4538729Y-84643448D01*
X4502991Y-84672778D01*
X4346466Y-84756443D01*
X4176627Y-84807963D01*
X4110442Y-84814482D01*
X4044260Y-84821000D01*
X3955740Y-84821000D01*
X3889558Y-84814482D01*
X3823373Y-84807963D01*
X3653534Y-84756443D01*
X3497009Y-84672778D01*
X3461271Y-84643448D01*
X3359814Y-84560186D01*
X3276552Y-84458729D01*
X3247222Y-84422991D01*
X3163557Y-84266466D01*
X3112037Y-84096627D01*
X3094641Y-83920000D01*
X3112037Y-83743373D01*
X3163557Y-83573534D01*
X3247222Y-83417009D01*
X3276552Y-83381271D01*
X3359814Y-83279814D01*
X3461271Y-83196552D01*
X3497009Y-83167222D01*
X3653534Y-83083557D01*
X3823373Y-83032037D01*
X3889558Y-83025518D01*
X3955740Y-83019000D01*
X4044260Y-83019000D01*
X4110442Y-83025518D01*
X4110442Y-83025518D01*
G37*
G36*
X4901000Y-78901000D02*
G01*
X3099000Y-78901000D01*
X3099000Y-77099000D01*
X4901000Y-77099000D01*
X4901000Y-78901000D01*
X4901000Y-78901000D01*
G37*
G36*
X4110443Y-74565519D02*
G01*
X4176627Y-74572037D01*
X4346466Y-74623557D01*
X4502991Y-74707222D01*
X4538729Y-74736552D01*
X4640186Y-74819814D01*
X4723448Y-74921271D01*
X4752778Y-74957009D01*
X4836443Y-75113534D01*
X4887963Y-75283373D01*
X4905359Y-75460000D01*
X4887963Y-75636627D01*
X4836443Y-75806466D01*
X4752778Y-75962991D01*
X4723448Y-75998729D01*
X4640186Y-76100186D01*
X4538729Y-76183448D01*
X4502991Y-76212778D01*
X4346466Y-76296443D01*
X4176627Y-76347963D01*
X4110443Y-76354481D01*
X4044260Y-76361000D01*
X3955740Y-76361000D01*
X3889557Y-76354481D01*
X3823373Y-76347963D01*
X3653534Y-76296443D01*
X3497009Y-76212778D01*
X3461271Y-76183448D01*
X3359814Y-76100186D01*
X3276552Y-75998729D01*
X3247222Y-75962991D01*
X3163557Y-75806466D01*
X3112037Y-75636627D01*
X3094641Y-75460000D01*
X3112037Y-75283373D01*
X3163557Y-75113534D01*
X3247222Y-74957009D01*
X3276552Y-74921271D01*
X3359814Y-74819814D01*
X3461271Y-74736552D01*
X3497009Y-74707222D01*
X3653534Y-74623557D01*
X3823373Y-74572037D01*
X3889557Y-74565519D01*
X3955740Y-74559000D01*
X4044260Y-74559000D01*
X4110443Y-74565519D01*
X4110443Y-74565519D01*
G37*
G36*
X4110443Y-72025519D02*
G01*
X4176627Y-72032037D01*
X4346466Y-72083557D01*
X4502991Y-72167222D01*
X4538729Y-72196552D01*
X4640186Y-72279814D01*
X4723448Y-72381271D01*
X4752778Y-72417009D01*
X4836443Y-72573534D01*
X4887963Y-72743373D01*
X4905359Y-72920000D01*
X4887963Y-73096627D01*
X4836443Y-73266466D01*
X4752778Y-73422991D01*
X4723448Y-73458729D01*
X4640186Y-73560186D01*
X4538729Y-73643448D01*
X4502991Y-73672778D01*
X4346466Y-73756443D01*
X4176627Y-73807963D01*
X4110442Y-73814482D01*
X4044260Y-73821000D01*
X3955740Y-73821000D01*
X3889558Y-73814482D01*
X3823373Y-73807963D01*
X3653534Y-73756443D01*
X3497009Y-73672778D01*
X3461271Y-73643448D01*
X3359814Y-73560186D01*
X3276552Y-73458729D01*
X3247222Y-73422991D01*
X3163557Y-73266466D01*
X3112037Y-73096627D01*
X3094641Y-72920000D01*
X3112037Y-72743373D01*
X3163557Y-72573534D01*
X3247222Y-72417009D01*
X3276552Y-72381271D01*
X3359814Y-72279814D01*
X3461271Y-72196552D01*
X3497009Y-72167222D01*
X3653534Y-72083557D01*
X3823373Y-72032037D01*
X3889557Y-72025519D01*
X3955740Y-72019000D01*
X4044260Y-72019000D01*
X4110443Y-72025519D01*
X4110443Y-72025519D01*
G37*
G36*
X4110443Y-69485519D02*
G01*
X4176627Y-69492037D01*
X4346466Y-69543557D01*
X4502991Y-69627222D01*
X4538729Y-69656552D01*
X4640186Y-69739814D01*
X4723448Y-69841271D01*
X4752778Y-69877009D01*
X4836443Y-70033534D01*
X4887963Y-70203373D01*
X4905359Y-70380000D01*
X4887963Y-70556627D01*
X4836443Y-70726466D01*
X4752778Y-70882991D01*
X4723448Y-70918729D01*
X4640186Y-71020186D01*
X4538729Y-71103448D01*
X4502991Y-71132778D01*
X4346466Y-71216443D01*
X4176627Y-71267963D01*
X4110443Y-71274481D01*
X4044260Y-71281000D01*
X3955740Y-71281000D01*
X3889557Y-71274481D01*
X3823373Y-71267963D01*
X3653534Y-71216443D01*
X3497009Y-71132778D01*
X3461271Y-71103448D01*
X3359814Y-71020186D01*
X3276552Y-70918729D01*
X3247222Y-70882991D01*
X3163557Y-70726466D01*
X3112037Y-70556627D01*
X3094641Y-70380000D01*
X3112037Y-70203373D01*
X3163557Y-70033534D01*
X3247222Y-69877009D01*
X3276552Y-69841271D01*
X3359814Y-69739814D01*
X3461271Y-69656552D01*
X3497009Y-69627222D01*
X3653534Y-69543557D01*
X3823373Y-69492037D01*
X3889557Y-69485519D01*
X3955740Y-69479000D01*
X4044260Y-69479000D01*
X4110443Y-69485519D01*
X4110443Y-69485519D01*
G37*
G36*
X4901000Y-64901000D02*
G01*
X3099000Y-64901000D01*
X3099000Y-63099000D01*
X4901000Y-63099000D01*
X4901000Y-64901000D01*
X4901000Y-64901000D01*
G37*
G36*
X4110442Y-60565518D02*
G01*
X4176627Y-60572037D01*
X4346466Y-60623557D01*
X4502991Y-60707222D01*
X4538729Y-60736552D01*
X4640186Y-60819814D01*
X4723448Y-60921271D01*
X4752778Y-60957009D01*
X4836443Y-61113534D01*
X4887963Y-61283373D01*
X4905359Y-61460000D01*
X4887963Y-61636627D01*
X4836443Y-61806466D01*
X4752778Y-61962991D01*
X4723448Y-61998729D01*
X4640186Y-62100186D01*
X4538729Y-62183448D01*
X4502991Y-62212778D01*
X4346466Y-62296443D01*
X4176627Y-62347963D01*
X4110442Y-62354482D01*
X4044260Y-62361000D01*
X3955740Y-62361000D01*
X3889558Y-62354482D01*
X3823373Y-62347963D01*
X3653534Y-62296443D01*
X3497009Y-62212778D01*
X3461271Y-62183448D01*
X3359814Y-62100186D01*
X3276552Y-61998729D01*
X3247222Y-61962991D01*
X3163557Y-61806466D01*
X3112037Y-61636627D01*
X3094641Y-61460000D01*
X3112037Y-61283373D01*
X3163557Y-61113534D01*
X3247222Y-60957009D01*
X3276552Y-60921271D01*
X3359814Y-60819814D01*
X3461271Y-60736552D01*
X3497009Y-60707222D01*
X3653534Y-60623557D01*
X3823373Y-60572037D01*
X3889558Y-60565518D01*
X3955740Y-60559000D01*
X4044260Y-60559000D01*
X4110442Y-60565518D01*
X4110442Y-60565518D01*
G37*
G36*
X4110443Y-58025519D02*
G01*
X4176627Y-58032037D01*
X4346466Y-58083557D01*
X4502991Y-58167222D01*
X4538729Y-58196552D01*
X4640186Y-58279814D01*
X4723448Y-58381271D01*
X4752778Y-58417009D01*
X4836443Y-58573534D01*
X4887963Y-58743373D01*
X4905359Y-58920000D01*
X4887963Y-59096627D01*
X4836443Y-59266466D01*
X4752778Y-59422991D01*
X4723448Y-59458729D01*
X4640186Y-59560186D01*
X4538729Y-59643448D01*
X4502991Y-59672778D01*
X4346466Y-59756443D01*
X4176627Y-59807963D01*
X4110443Y-59814481D01*
X4044260Y-59821000D01*
X3955740Y-59821000D01*
X3889557Y-59814481D01*
X3823373Y-59807963D01*
X3653534Y-59756443D01*
X3497009Y-59672778D01*
X3461271Y-59643448D01*
X3359814Y-59560186D01*
X3276552Y-59458729D01*
X3247222Y-59422991D01*
X3163557Y-59266466D01*
X3112037Y-59096627D01*
X3094641Y-58920000D01*
X3112037Y-58743373D01*
X3163557Y-58573534D01*
X3247222Y-58417009D01*
X3276552Y-58381271D01*
X3359814Y-58279814D01*
X3461271Y-58196552D01*
X3497009Y-58167222D01*
X3653534Y-58083557D01*
X3823373Y-58032037D01*
X3889557Y-58025519D01*
X3955740Y-58019000D01*
X4044260Y-58019000D01*
X4110443Y-58025519D01*
X4110443Y-58025519D01*
G37*
G36*
X4901000Y-53901000D02*
G01*
X3099000Y-53901000D01*
X3099000Y-52099000D01*
X4901000Y-52099000D01*
X4901000Y-53901000D01*
X4901000Y-53901000D01*
G37*
G36*
X4110442Y-49565518D02*
G01*
X4176627Y-49572037D01*
X4346466Y-49623557D01*
X4502991Y-49707222D01*
X4538729Y-49736552D01*
X4640186Y-49819814D01*
X4723448Y-49921271D01*
X4752778Y-49957009D01*
X4836443Y-50113534D01*
X4887963Y-50283373D01*
X4905359Y-50460000D01*
X4887963Y-50636627D01*
X4836443Y-50806466D01*
X4752778Y-50962991D01*
X4723448Y-50998729D01*
X4640186Y-51100186D01*
X4538729Y-51183448D01*
X4502991Y-51212778D01*
X4346466Y-51296443D01*
X4176627Y-51347963D01*
X4110443Y-51354481D01*
X4044260Y-51361000D01*
X3955740Y-51361000D01*
X3889557Y-51354481D01*
X3823373Y-51347963D01*
X3653534Y-51296443D01*
X3497009Y-51212778D01*
X3461271Y-51183448D01*
X3359814Y-51100186D01*
X3276552Y-50998729D01*
X3247222Y-50962991D01*
X3163557Y-50806466D01*
X3112037Y-50636627D01*
X3094641Y-50460000D01*
X3112037Y-50283373D01*
X3163557Y-50113534D01*
X3247222Y-49957009D01*
X3276552Y-49921271D01*
X3359814Y-49819814D01*
X3461271Y-49736552D01*
X3497009Y-49707222D01*
X3653534Y-49623557D01*
X3823373Y-49572037D01*
X3889558Y-49565518D01*
X3955740Y-49559000D01*
X4044260Y-49559000D01*
X4110442Y-49565518D01*
X4110442Y-49565518D01*
G37*
G36*
X4110443Y-47025519D02*
G01*
X4176627Y-47032037D01*
X4346466Y-47083557D01*
X4502991Y-47167222D01*
X4538729Y-47196552D01*
X4640186Y-47279814D01*
X4723448Y-47381271D01*
X4752778Y-47417009D01*
X4836443Y-47573534D01*
X4887963Y-47743373D01*
X4905359Y-47920000D01*
X4887963Y-48096627D01*
X4836443Y-48266466D01*
X4752778Y-48422991D01*
X4723448Y-48458729D01*
X4640186Y-48560186D01*
X4538729Y-48643448D01*
X4502991Y-48672778D01*
X4346466Y-48756443D01*
X4176627Y-48807963D01*
X4110443Y-48814481D01*
X4044260Y-48821000D01*
X3955740Y-48821000D01*
X3889557Y-48814481D01*
X3823373Y-48807963D01*
X3653534Y-48756443D01*
X3497009Y-48672778D01*
X3461271Y-48643448D01*
X3359814Y-48560186D01*
X3276552Y-48458729D01*
X3247222Y-48422991D01*
X3163557Y-48266466D01*
X3112037Y-48096627D01*
X3094641Y-47920000D01*
X3112037Y-47743373D01*
X3163557Y-47573534D01*
X3247222Y-47417009D01*
X3276552Y-47381271D01*
X3359814Y-47279814D01*
X3461271Y-47196552D01*
X3497009Y-47167222D01*
X3653534Y-47083557D01*
X3823373Y-47032037D01*
X3889557Y-47025519D01*
X3955740Y-47019000D01*
X4044260Y-47019000D01*
X4110443Y-47025519D01*
X4110443Y-47025519D01*
G37*
G36*
X4110442Y-44485518D02*
G01*
X4176627Y-44492037D01*
X4346466Y-44543557D01*
X4502991Y-44627222D01*
X4538729Y-44656552D01*
X4640186Y-44739814D01*
X4723448Y-44841271D01*
X4752778Y-44877009D01*
X4836443Y-45033534D01*
X4887963Y-45203373D01*
X4905359Y-45380000D01*
X4887963Y-45556627D01*
X4836443Y-45726466D01*
X4752778Y-45882991D01*
X4723448Y-45918729D01*
X4640186Y-46020186D01*
X4538729Y-46103448D01*
X4502991Y-46132778D01*
X4346466Y-46216443D01*
X4176627Y-46267963D01*
X4110442Y-46274482D01*
X4044260Y-46281000D01*
X3955740Y-46281000D01*
X3889558Y-46274482D01*
X3823373Y-46267963D01*
X3653534Y-46216443D01*
X3497009Y-46132778D01*
X3461271Y-46103448D01*
X3359814Y-46020186D01*
X3276552Y-45918729D01*
X3247222Y-45882991D01*
X3163557Y-45726466D01*
X3112037Y-45556627D01*
X3094641Y-45380000D01*
X3112037Y-45203373D01*
X3163557Y-45033534D01*
X3247222Y-44877009D01*
X3276552Y-44841271D01*
X3359814Y-44739814D01*
X3461271Y-44656552D01*
X3497009Y-44627222D01*
X3653534Y-44543557D01*
X3823373Y-44492037D01*
X3889558Y-44485518D01*
X3955740Y-44479000D01*
X4044260Y-44479000D01*
X4110442Y-44485518D01*
X4110442Y-44485518D01*
G37*
G36*
X4110443Y-41945519D02*
G01*
X4176627Y-41952037D01*
X4346466Y-42003557D01*
X4502991Y-42087222D01*
X4538729Y-42116552D01*
X4640186Y-42199814D01*
X4723448Y-42301271D01*
X4752778Y-42337009D01*
X4836443Y-42493534D01*
X4887963Y-42663373D01*
X4905359Y-42840000D01*
X4887963Y-43016627D01*
X4836443Y-43186466D01*
X4752778Y-43342991D01*
X4723448Y-43378729D01*
X4640186Y-43480186D01*
X4538729Y-43563448D01*
X4502991Y-43592778D01*
X4346466Y-43676443D01*
X4176627Y-43727963D01*
X4110443Y-43734481D01*
X4044260Y-43741000D01*
X3955740Y-43741000D01*
X3889557Y-43734481D01*
X3823373Y-43727963D01*
X3653534Y-43676443D01*
X3497009Y-43592778D01*
X3461271Y-43563448D01*
X3359814Y-43480186D01*
X3276552Y-43378729D01*
X3247222Y-43342991D01*
X3163557Y-43186466D01*
X3112037Y-43016627D01*
X3094641Y-42840000D01*
X3112037Y-42663373D01*
X3163557Y-42493534D01*
X3247222Y-42337009D01*
X3276552Y-42301271D01*
X3359814Y-42199814D01*
X3461271Y-42116552D01*
X3497009Y-42087222D01*
X3653534Y-42003557D01*
X3823373Y-41952037D01*
X3889557Y-41945519D01*
X3955740Y-41939000D01*
X4044260Y-41939000D01*
X4110443Y-41945519D01*
X4110443Y-41945519D01*
G37*
G36*
X4110442Y-39405518D02*
G01*
X4176627Y-39412037D01*
X4346466Y-39463557D01*
X4502991Y-39547222D01*
X4538729Y-39576552D01*
X4640186Y-39659814D01*
X4723448Y-39761271D01*
X4752778Y-39797009D01*
X4836443Y-39953534D01*
X4887963Y-40123373D01*
X4905359Y-40300000D01*
X4887963Y-40476627D01*
X4836443Y-40646466D01*
X4752778Y-40802991D01*
X4723448Y-40838729D01*
X4640186Y-40940186D01*
X4538729Y-41023448D01*
X4502991Y-41052778D01*
X4346466Y-41136443D01*
X4176627Y-41187963D01*
X4110442Y-41194482D01*
X4044260Y-41201000D01*
X3955740Y-41201000D01*
X3889558Y-41194482D01*
X3823373Y-41187963D01*
X3653534Y-41136443D01*
X3497009Y-41052778D01*
X3461271Y-41023448D01*
X3359814Y-40940186D01*
X3276552Y-40838729D01*
X3247222Y-40802991D01*
X3163557Y-40646466D01*
X3112037Y-40476627D01*
X3094641Y-40300000D01*
X3112037Y-40123373D01*
X3163557Y-39953534D01*
X3247222Y-39797009D01*
X3276552Y-39761271D01*
X3359814Y-39659814D01*
X3461271Y-39576552D01*
X3497009Y-39547222D01*
X3653534Y-39463557D01*
X3823373Y-39412037D01*
X3889558Y-39405518D01*
X3955740Y-39399000D01*
X4044260Y-39399000D01*
X4110442Y-39405518D01*
X4110442Y-39405518D01*
G37*
G36*
X4110442Y-36865518D02*
G01*
X4176627Y-36872037D01*
X4346466Y-36923557D01*
X4502991Y-37007222D01*
X4538729Y-37036552D01*
X4640186Y-37119814D01*
X4723448Y-37221271D01*
X4752778Y-37257009D01*
X4836443Y-37413534D01*
X4887963Y-37583373D01*
X4905359Y-37760000D01*
X4887963Y-37936627D01*
X4836443Y-38106466D01*
X4752778Y-38262991D01*
X4723448Y-38298729D01*
X4640186Y-38400186D01*
X4538729Y-38483448D01*
X4502991Y-38512778D01*
X4346466Y-38596443D01*
X4176627Y-38647963D01*
X4110442Y-38654482D01*
X4044260Y-38661000D01*
X3955740Y-38661000D01*
X3889558Y-38654482D01*
X3823373Y-38647963D01*
X3653534Y-38596443D01*
X3497009Y-38512778D01*
X3461271Y-38483448D01*
X3359814Y-38400186D01*
X3276552Y-38298729D01*
X3247222Y-38262991D01*
X3163557Y-38106466D01*
X3112037Y-37936627D01*
X3094641Y-37760000D01*
X3112037Y-37583373D01*
X3163557Y-37413534D01*
X3247222Y-37257009D01*
X3276552Y-37221271D01*
X3359814Y-37119814D01*
X3461271Y-37036552D01*
X3497009Y-37007222D01*
X3653534Y-36923557D01*
X3823373Y-36872037D01*
X3889558Y-36865518D01*
X3955740Y-36859000D01*
X4044260Y-36859000D01*
X4110442Y-36865518D01*
X4110442Y-36865518D01*
G37*
G36*
X4110442Y-34325518D02*
G01*
X4176627Y-34332037D01*
X4346466Y-34383557D01*
X4502991Y-34467222D01*
X4538729Y-34496552D01*
X4640186Y-34579814D01*
X4723448Y-34681271D01*
X4752778Y-34717009D01*
X4836443Y-34873534D01*
X4887963Y-35043373D01*
X4905359Y-35220000D01*
X4887963Y-35396627D01*
X4836443Y-35566466D01*
X4752778Y-35722991D01*
X4723448Y-35758729D01*
X4640186Y-35860186D01*
X4538729Y-35943448D01*
X4502991Y-35972778D01*
X4346466Y-36056443D01*
X4176627Y-36107963D01*
X4110442Y-36114482D01*
X4044260Y-36121000D01*
X3955740Y-36121000D01*
X3889558Y-36114482D01*
X3823373Y-36107963D01*
X3653534Y-36056443D01*
X3497009Y-35972778D01*
X3461271Y-35943448D01*
X3359814Y-35860186D01*
X3276552Y-35758729D01*
X3247222Y-35722991D01*
X3163557Y-35566466D01*
X3112037Y-35396627D01*
X3094641Y-35220000D01*
X3112037Y-35043373D01*
X3163557Y-34873534D01*
X3247222Y-34717009D01*
X3276552Y-34681271D01*
X3359814Y-34579814D01*
X3461271Y-34496552D01*
X3497009Y-34467222D01*
X3653534Y-34383557D01*
X3823373Y-34332037D01*
X3889558Y-34325518D01*
X3955740Y-34319000D01*
X4044260Y-34319000D01*
X4110442Y-34325518D01*
X4110442Y-34325518D01*
G37*
G36*
X4110442Y-31785518D02*
G01*
X4176627Y-31792037D01*
X4346466Y-31843557D01*
X4502991Y-31927222D01*
X4538729Y-31956552D01*
X4640186Y-32039814D01*
X4723448Y-32141271D01*
X4752778Y-32177009D01*
X4836443Y-32333534D01*
X4887963Y-32503373D01*
X4905359Y-32680000D01*
X4887963Y-32856627D01*
X4836443Y-33026466D01*
X4752778Y-33182991D01*
X4723448Y-33218729D01*
X4640186Y-33320186D01*
X4538729Y-33403448D01*
X4502991Y-33432778D01*
X4346466Y-33516443D01*
X4176627Y-33567963D01*
X4110442Y-33574482D01*
X4044260Y-33581000D01*
X3955740Y-33581000D01*
X3889558Y-33574482D01*
X3823373Y-33567963D01*
X3653534Y-33516443D01*
X3497009Y-33432778D01*
X3461271Y-33403448D01*
X3359814Y-33320186D01*
X3276552Y-33218729D01*
X3247222Y-33182991D01*
X3163557Y-33026466D01*
X3112037Y-32856627D01*
X3094641Y-32680000D01*
X3112037Y-32503373D01*
X3163557Y-32333534D01*
X3247222Y-32177009D01*
X3276552Y-32141271D01*
X3359814Y-32039814D01*
X3461271Y-31956552D01*
X3497009Y-31927222D01*
X3653534Y-31843557D01*
X3823373Y-31792037D01*
X3889558Y-31785518D01*
X3955740Y-31779000D01*
X4044260Y-31779000D01*
X4110442Y-31785518D01*
X4110442Y-31785518D01*
G37*
G36*
X4110442Y-29245518D02*
G01*
X4176627Y-29252037D01*
X4346466Y-29303557D01*
X4502991Y-29387222D01*
X4522203Y-29402989D01*
X4640186Y-29499814D01*
X4723448Y-29601271D01*
X4752778Y-29637009D01*
X4836443Y-29793534D01*
X4887963Y-29963373D01*
X4905359Y-30140000D01*
X4887963Y-30316627D01*
X4836443Y-30486466D01*
X4752778Y-30642991D01*
X4723448Y-30678729D01*
X4640186Y-30780186D01*
X4538729Y-30863448D01*
X4502991Y-30892778D01*
X4346466Y-30976443D01*
X4176627Y-31027963D01*
X4110442Y-31034482D01*
X4044260Y-31041000D01*
X3955740Y-31041000D01*
X3889558Y-31034482D01*
X3823373Y-31027963D01*
X3653534Y-30976443D01*
X3497009Y-30892778D01*
X3461271Y-30863448D01*
X3359814Y-30780186D01*
X3276552Y-30678729D01*
X3247222Y-30642991D01*
X3163557Y-30486466D01*
X3112037Y-30316627D01*
X3094641Y-30140000D01*
X3112037Y-29963373D01*
X3163557Y-29793534D01*
X3247222Y-29637009D01*
X3276552Y-29601271D01*
X3359814Y-29499814D01*
X3477797Y-29402989D01*
X3497009Y-29387222D01*
X3653534Y-29303557D01*
X3823373Y-29252037D01*
X3889558Y-29245518D01*
X3955740Y-29239000D01*
X4044260Y-29239000D01*
X4110442Y-29245518D01*
X4110442Y-29245518D01*
G37*
G36*
X55001000Y-29801000D02*
G01*
X53199000Y-29801000D01*
X53199000Y-27999000D01*
X55001000Y-27999000D01*
X55001000Y-29801000D01*
X55001000Y-29801000D01*
G37*
G36*
X61830442Y-28005518D02*
G01*
X61896627Y-28012037D01*
X62066466Y-28063557D01*
X62222991Y-28147222D01*
X62258729Y-28176552D01*
X62360186Y-28259814D01*
X62436478Y-28352778D01*
X62472778Y-28397009D01*
X62556443Y-28553534D01*
X62607963Y-28723373D01*
X62625359Y-28900000D01*
X62607963Y-29076627D01*
X62556443Y-29246466D01*
X62472778Y-29402991D01*
X62443448Y-29438729D01*
X62360186Y-29540186D01*
X62258729Y-29623448D01*
X62222991Y-29652778D01*
X62066466Y-29736443D01*
X61896627Y-29787963D01*
X61830443Y-29794481D01*
X61764260Y-29801000D01*
X61675740Y-29801000D01*
X61609557Y-29794481D01*
X61543373Y-29787963D01*
X61373534Y-29736443D01*
X61217009Y-29652778D01*
X61181271Y-29623448D01*
X61079814Y-29540186D01*
X60996552Y-29438729D01*
X60967222Y-29402991D01*
X60883557Y-29246466D01*
X60832037Y-29076627D01*
X60814641Y-28900000D01*
X60832037Y-28723373D01*
X60883557Y-28553534D01*
X60967222Y-28397009D01*
X61003522Y-28352778D01*
X61079814Y-28259814D01*
X61181271Y-28176552D01*
X61217009Y-28147222D01*
X61373534Y-28063557D01*
X61543373Y-28012037D01*
X61609558Y-28005518D01*
X61675740Y-27999000D01*
X61764260Y-27999000D01*
X61830442Y-28005518D01*
X61830442Y-28005518D01*
G37*
G36*
X59290442Y-28005518D02*
G01*
X59356627Y-28012037D01*
X59526466Y-28063557D01*
X59682991Y-28147222D01*
X59718729Y-28176552D01*
X59820186Y-28259814D01*
X59896478Y-28352778D01*
X59932778Y-28397009D01*
X60016443Y-28553534D01*
X60067963Y-28723373D01*
X60085359Y-28900000D01*
X60067963Y-29076627D01*
X60016443Y-29246466D01*
X59932778Y-29402991D01*
X59903448Y-29438729D01*
X59820186Y-29540186D01*
X59718729Y-29623448D01*
X59682991Y-29652778D01*
X59526466Y-29736443D01*
X59356627Y-29787963D01*
X59290443Y-29794481D01*
X59224260Y-29801000D01*
X59135740Y-29801000D01*
X59069557Y-29794481D01*
X59003373Y-29787963D01*
X58833534Y-29736443D01*
X58677009Y-29652778D01*
X58641271Y-29623448D01*
X58539814Y-29540186D01*
X58456552Y-29438729D01*
X58427222Y-29402991D01*
X58343557Y-29246466D01*
X58292037Y-29076627D01*
X58274641Y-28900000D01*
X58292037Y-28723373D01*
X58343557Y-28553534D01*
X58427222Y-28397009D01*
X58463522Y-28352778D01*
X58539814Y-28259814D01*
X58641271Y-28176552D01*
X58677009Y-28147222D01*
X58833534Y-28063557D01*
X59003373Y-28012037D01*
X59069558Y-28005518D01*
X59135740Y-27999000D01*
X59224260Y-27999000D01*
X59290442Y-28005518D01*
X59290442Y-28005518D01*
G37*
G36*
X56750442Y-28005518D02*
G01*
X56816627Y-28012037D01*
X56986466Y-28063557D01*
X57142991Y-28147222D01*
X57178729Y-28176552D01*
X57280186Y-28259814D01*
X57356478Y-28352778D01*
X57392778Y-28397009D01*
X57476443Y-28553534D01*
X57527963Y-28723373D01*
X57545359Y-28900000D01*
X57527963Y-29076627D01*
X57476443Y-29246466D01*
X57392778Y-29402991D01*
X57363448Y-29438729D01*
X57280186Y-29540186D01*
X57178729Y-29623448D01*
X57142991Y-29652778D01*
X56986466Y-29736443D01*
X56816627Y-29787963D01*
X56750443Y-29794481D01*
X56684260Y-29801000D01*
X56595740Y-29801000D01*
X56529557Y-29794481D01*
X56463373Y-29787963D01*
X56293534Y-29736443D01*
X56137009Y-29652778D01*
X56101271Y-29623448D01*
X55999814Y-29540186D01*
X55916552Y-29438729D01*
X55887222Y-29402991D01*
X55803557Y-29246466D01*
X55752037Y-29076627D01*
X55734641Y-28900000D01*
X55752037Y-28723373D01*
X55803557Y-28553534D01*
X55887222Y-28397009D01*
X55923522Y-28352778D01*
X55999814Y-28259814D01*
X56101271Y-28176552D01*
X56137009Y-28147222D01*
X56293534Y-28063557D01*
X56463373Y-28012037D01*
X56529558Y-28005518D01*
X56595740Y-27999000D01*
X56684260Y-27999000D01*
X56750442Y-28005518D01*
X56750442Y-28005518D01*
G37*
G36*
X4110442Y-26705518D02*
G01*
X4176627Y-26712037D01*
X4346466Y-26763557D01*
X4502991Y-26847222D01*
X4538729Y-26876552D01*
X4640186Y-26959814D01*
X4723448Y-27061271D01*
X4752778Y-27097009D01*
X4836443Y-27253534D01*
X4887963Y-27423373D01*
X4905359Y-27600000D01*
X4887963Y-27776627D01*
X4836443Y-27946466D01*
X4752778Y-28102991D01*
X4723448Y-28138729D01*
X4640186Y-28240186D01*
X4538729Y-28323448D01*
X4502991Y-28352778D01*
X4346466Y-28436443D01*
X4176627Y-28487963D01*
X4110442Y-28494482D01*
X4044260Y-28501000D01*
X3955740Y-28501000D01*
X3889558Y-28494482D01*
X3823373Y-28487963D01*
X3653534Y-28436443D01*
X3497009Y-28352778D01*
X3461271Y-28323448D01*
X3359814Y-28240186D01*
X3276552Y-28138729D01*
X3247222Y-28102991D01*
X3163557Y-27946466D01*
X3112037Y-27776627D01*
X3094641Y-27600000D01*
X3112037Y-27423373D01*
X3163557Y-27253534D01*
X3247222Y-27097009D01*
X3276552Y-27061271D01*
X3359814Y-26959814D01*
X3461271Y-26876552D01*
X3497009Y-26847222D01*
X3653534Y-26763557D01*
X3823373Y-26712037D01*
X3889558Y-26705518D01*
X3955740Y-26699000D01*
X4044260Y-26699000D01*
X4110442Y-26705518D01*
X4110442Y-26705518D01*
G37*
G36*
X4110443Y-24165519D02*
G01*
X4176627Y-24172037D01*
X4346466Y-24223557D01*
X4502991Y-24307222D01*
X4538729Y-24336552D01*
X4640186Y-24419814D01*
X4723448Y-24521271D01*
X4752778Y-24557009D01*
X4836443Y-24713534D01*
X4887963Y-24883373D01*
X4905359Y-25060000D01*
X4887963Y-25236627D01*
X4836443Y-25406466D01*
X4752778Y-25562991D01*
X4723448Y-25598729D01*
X4640186Y-25700186D01*
X4538729Y-25783448D01*
X4502991Y-25812778D01*
X4346466Y-25896443D01*
X4176627Y-25947963D01*
X4110443Y-25954481D01*
X4044260Y-25961000D01*
X3955740Y-25961000D01*
X3889557Y-25954481D01*
X3823373Y-25947963D01*
X3653534Y-25896443D01*
X3497009Y-25812778D01*
X3461271Y-25783448D01*
X3359814Y-25700186D01*
X3276552Y-25598729D01*
X3247222Y-25562991D01*
X3163557Y-25406466D01*
X3112037Y-25236627D01*
X3094641Y-25060000D01*
X3112037Y-24883373D01*
X3163557Y-24713534D01*
X3247222Y-24557009D01*
X3276552Y-24521271D01*
X3359814Y-24419814D01*
X3461271Y-24336552D01*
X3497009Y-24307222D01*
X3653534Y-24223557D01*
X3823373Y-24172037D01*
X3889557Y-24165519D01*
X3955740Y-24159000D01*
X4044260Y-24159000D01*
X4110443Y-24165519D01*
X4110443Y-24165519D01*
G37*
G36*
X4110443Y-21625519D02*
G01*
X4176627Y-21632037D01*
X4346466Y-21683557D01*
X4502991Y-21767222D01*
X4538729Y-21796552D01*
X4640186Y-21879814D01*
X4723448Y-21981271D01*
X4752778Y-22017009D01*
X4836443Y-22173534D01*
X4887963Y-22343373D01*
X4905359Y-22520000D01*
X4887963Y-22696627D01*
X4836443Y-22866466D01*
X4752778Y-23022991D01*
X4723448Y-23058729D01*
X4640186Y-23160186D01*
X4538729Y-23243448D01*
X4502991Y-23272778D01*
X4346466Y-23356443D01*
X4176627Y-23407963D01*
X4110443Y-23414481D01*
X4044260Y-23421000D01*
X3955740Y-23421000D01*
X3889557Y-23414481D01*
X3823373Y-23407963D01*
X3653534Y-23356443D01*
X3497009Y-23272778D01*
X3461271Y-23243448D01*
X3359814Y-23160186D01*
X3276552Y-23058729D01*
X3247222Y-23022991D01*
X3163557Y-22866466D01*
X3112037Y-22696627D01*
X3094641Y-22520000D01*
X3112037Y-22343373D01*
X3163557Y-22173534D01*
X3247222Y-22017009D01*
X3276552Y-21981271D01*
X3359814Y-21879814D01*
X3461271Y-21796552D01*
X3497009Y-21767222D01*
X3653534Y-21683557D01*
X3823373Y-21632037D01*
X3889557Y-21625519D01*
X3955740Y-21619000D01*
X4044260Y-21619000D01*
X4110443Y-21625519D01*
X4110443Y-21625519D01*
G37*
G36*
X55746031Y-11914207D02*
G01*
X55944145Y-11974305D01*
X55944148Y-11974306D01*
X56010030Y-12009521D01*
X56126729Y-12071897D01*
X56286765Y-12203235D01*
X56418103Y-12363271D01*
X56418104Y-12363273D01*
X56515694Y-12545851D01*
X56515694Y-12545852D01*
X56515695Y-12545854D01*
X56575793Y-12743968D01*
X56591000Y-12898370D01*
X56591000Y-13601629D01*
X56575793Y-13756031D01*
X56531333Y-13902595D01*
X56515694Y-13954149D01*
X56449291Y-14078379D01*
X56418103Y-14136729D01*
X56286765Y-14296765D01*
X56126729Y-14428103D01*
X56040975Y-14473939D01*
X55944149Y-14525694D01*
X55944146Y-14525695D01*
X55746032Y-14585793D01*
X55540000Y-14606085D01*
X55333969Y-14585793D01*
X55135855Y-14525695D01*
X55135852Y-14525694D01*
X55039026Y-14473939D01*
X54953272Y-14428103D01*
X54793236Y-14296765D01*
X54661898Y-14136729D01*
X54639184Y-14094234D01*
X54564305Y-13954147D01*
X54523296Y-13818960D01*
X54504207Y-13756032D01*
X54489000Y-13601630D01*
X54489000Y-12898371D01*
X54504207Y-12743969D01*
X54564305Y-12545855D01*
X54564306Y-12545852D01*
X54599521Y-12479970D01*
X54661897Y-12363271D01*
X54793235Y-12203235D01*
X54953271Y-12071897D01*
X55039025Y-12026061D01*
X55135851Y-11974306D01*
X55135854Y-11974305D01*
X55333968Y-11914207D01*
X55540000Y-11893915D01*
X55746031Y-11914207D01*
X55746031Y-11914207D01*
G37*
G36*
X62746031Y-11914207D02*
G01*
X62944145Y-11974305D01*
X62944148Y-11974306D01*
X63010030Y-12009521D01*
X63126729Y-12071897D01*
X63286765Y-12203235D01*
X63418103Y-12363271D01*
X63418104Y-12363273D01*
X63515694Y-12545851D01*
X63515694Y-12545852D01*
X63515695Y-12545854D01*
X63575793Y-12743968D01*
X63591000Y-12898370D01*
X63591000Y-13601629D01*
X63575793Y-13756031D01*
X63531333Y-13902595D01*
X63515694Y-13954149D01*
X63449291Y-14078379D01*
X63418103Y-14136729D01*
X63286765Y-14296765D01*
X63126729Y-14428103D01*
X63040975Y-14473939D01*
X62944149Y-14525694D01*
X62944146Y-14525695D01*
X62746032Y-14585793D01*
X62540000Y-14606085D01*
X62333969Y-14585793D01*
X62135855Y-14525695D01*
X62135852Y-14525694D01*
X62039026Y-14473939D01*
X61953272Y-14428103D01*
X61793236Y-14296765D01*
X61661898Y-14136729D01*
X61639184Y-14094234D01*
X61564305Y-13954147D01*
X61523296Y-13818960D01*
X61504207Y-13756032D01*
X61489000Y-13601630D01*
X61489000Y-12898371D01*
X61504207Y-12743969D01*
X61564305Y-12545855D01*
X61564306Y-12545852D01*
X61599521Y-12479970D01*
X61661897Y-12363271D01*
X61793235Y-12203235D01*
X61953271Y-12071897D01*
X62039025Y-12026061D01*
X62135851Y-11974306D01*
X62135854Y-11974305D01*
X62333968Y-11914207D01*
X62540000Y-11893915D01*
X62746031Y-11914207D01*
X62746031Y-11914207D01*
G37*
G36*
X54051000Y-14601000D02*
G01*
X51949000Y-14601000D01*
X51949000Y-11899000D01*
X54051000Y-11899000D01*
X54051000Y-14601000D01*
X54051000Y-14601000D01*
G37*
G36*
X61051000Y-14601000D02*
G01*
X58949000Y-14601000D01*
X58949000Y-11899000D01*
X61051000Y-11899000D01*
X61051000Y-14601000D01*
X61051000Y-14601000D01*
G37*
G36*
X5536694Y-2301860D02*
G01*
X5802437Y-2354719D01*
X6303087Y-2562095D01*
X6483561Y-2682684D01*
X6753660Y-2863158D01*
X7136842Y-3246340D01*
X7317316Y-3516439D01*
X7437905Y-3696913D01*
X7571363Y-4019109D01*
X7645281Y-4197564D01*
X7751000Y-4729049D01*
X7751000Y-5270951D01*
X7715186Y-5451000D01*
X7645281Y-5802437D01*
X7437905Y-6303087D01*
X7381521Y-6387471D01*
X7136842Y-6753660D01*
X6753660Y-7136842D01*
X6490774Y-7312496D01*
X6303087Y-7437905D01*
X5802437Y-7645281D01*
X5536694Y-7698140D01*
X5270951Y-7751000D01*
X4729049Y-7751000D01*
X4463306Y-7698140D01*
X4197563Y-7645281D01*
X3696913Y-7437905D01*
X3509226Y-7312496D01*
X3246340Y-7136842D01*
X2863158Y-6753660D01*
X2618479Y-6387471D01*
X2562095Y-6303087D01*
X2354719Y-5802437D01*
X2284814Y-5451000D01*
X2249000Y-5270951D01*
X2249000Y-4729049D01*
X2354719Y-4197564D01*
X2428637Y-4019109D01*
X2562095Y-3696913D01*
X2682684Y-3516439D01*
X2863158Y-3246340D01*
X3246340Y-2863158D01*
X3516439Y-2682684D01*
X3696913Y-2562095D01*
X4197563Y-2354719D01*
X4463306Y-2301860D01*
X4729049Y-2249000D01*
X5270951Y-2249000D01*
X5536694Y-2301860D01*
X5536694Y-2301860D01*
G37*
G36*
X60536693Y-2301859D02*
G01*
X60802437Y-2354719D01*
X61303087Y-2562095D01*
X61483561Y-2682684D01*
X61753660Y-2863158D01*
X62136842Y-3246340D01*
X62317316Y-3516439D01*
X62437905Y-3696913D01*
X62571363Y-4019109D01*
X62645281Y-4197564D01*
X62751000Y-4729049D01*
X62751000Y-5270951D01*
X62715186Y-5451000D01*
X62645281Y-5802437D01*
X62437905Y-6303087D01*
X62381521Y-6387471D01*
X62136842Y-6753660D01*
X61753660Y-7136842D01*
X61490774Y-7312496D01*
X61303087Y-7437905D01*
X60802437Y-7645281D01*
X60536694Y-7698140D01*
X60270951Y-7751000D01*
X59729049Y-7751000D01*
X59463306Y-7698140D01*
X59197563Y-7645281D01*
X58696913Y-7437905D01*
X58509226Y-7312496D01*
X58246340Y-7136842D01*
X57863158Y-6753660D01*
X57618479Y-6387471D01*
X57562095Y-6303087D01*
X57354719Y-5802437D01*
X57284814Y-5451000D01*
X57249000Y-5270951D01*
X57249000Y-4729049D01*
X57354719Y-4197564D01*
X57428637Y-4019109D01*
X57562095Y-3696913D01*
X57682684Y-3516439D01*
X57863158Y-3246340D01*
X58246340Y-2863158D01*
X58516439Y-2682684D01*
X58696913Y-2562095D01*
X59197563Y-2354719D01*
X59463306Y-2301860D01*
X59729049Y-2249000D01*
X60270951Y-2249000D01*
X60536693Y-2301859D01*
X60536693Y-2301859D01*
G37*
M02*
