G04 #@! TF.GenerationSoftware,KiCad,Pcbnew,(5.1.0-1152-gc9ccd8a64)*
G04 #@! TF.CreationDate,2019-07-16T15:59:55-04:00*
G04 #@! TF.ProjectId,LTC6811,4c544336-3831-4312-9e6b-696361645f70,rev?*
G04 #@! TF.SameCoordinates,Original*
G04 #@! TF.FileFunction,Copper,L2,Bot*
G04 #@! TF.FilePolarity,Positive*
%FSLAX46Y46*%
G04 Gerber Fmt 4.6, Leading zero omitted, Abs format (unit mm)*
G04 Created by KiCad (PCBNEW (5.1.0-1152-gc9ccd8a64)) date 2019-07-16 15:59:55*
%MOMM*%
%LPD*%
G04 APERTURE LIST*
%ADD10R,1.700000X1.700000*%
%ADD11O,1.700000X1.700000*%
%ADD12R,2.000000X2.600000*%
%ADD13O,2.000000X2.600000*%
%ADD14C,5.400000*%
%ADD15C,0.800000*%
%ADD16C,1.000000*%
%ADD17C,0.250000*%
%ADD18C,0.254000*%
G04 APERTURE END LIST*
D10*
X47244000Y-41935400D03*
D11*
X47244000Y-39395400D03*
D10*
X4000000Y-64000000D03*
D11*
X4000000Y-61460000D03*
X4000000Y-58920000D03*
D10*
X4000000Y-89000000D03*
D11*
X4000000Y-86460000D03*
X4000000Y-83920000D03*
D10*
X4000000Y-78000000D03*
D11*
X4000000Y-75460000D03*
X4000000Y-72920000D03*
X4000000Y-70380000D03*
D10*
X4000000Y-53000000D03*
D11*
X4000000Y-50460000D03*
X4000000Y-47920000D03*
X4000000Y-45380000D03*
X4000000Y-42840000D03*
X4000000Y-40300000D03*
X4000000Y-37760000D03*
X4000000Y-35220000D03*
X4000000Y-32680000D03*
X4000000Y-30140000D03*
X4000000Y-27600000D03*
X4000000Y-25060000D03*
X4000000Y-22520000D03*
D12*
X46736000Y-17788800D03*
D13*
X49276000Y-17788800D03*
D12*
X53284000Y-17788800D03*
D13*
X55824000Y-17788800D03*
D14*
X5000000Y-5000000D03*
D15*
X7025000Y-5000000D03*
X6431891Y-6431891D03*
X5000000Y-7025000D03*
X3568109Y-6431891D03*
X2975000Y-5000000D03*
X3568109Y-3568109D03*
X5000000Y-2975000D03*
X6431891Y-3568109D03*
D14*
X5000000Y-95000000D03*
D15*
X7025000Y-95000000D03*
X6431891Y-96431891D03*
X5000000Y-97025000D03*
X3568109Y-96431891D03*
X2975000Y-95000000D03*
X3568109Y-93568109D03*
X5000000Y-92975000D03*
X6431891Y-93568109D03*
D14*
X55000000Y-95000000D03*
D15*
X57025000Y-95000000D03*
X56431891Y-96431891D03*
X55000000Y-97025000D03*
X53568109Y-96431891D03*
X52975000Y-95000000D03*
X53568109Y-93568109D03*
X55000000Y-92975000D03*
X56431891Y-93568109D03*
X44805600Y-51663600D03*
X44805600Y-52654200D03*
X50368200Y-44602400D03*
X44958000Y-13182600D03*
X46888400Y-13157200D03*
X46913800Y-12217400D03*
X44958000Y-12293600D03*
X51231800Y-44577000D03*
X58953400Y-59182000D03*
X58064400Y-59182000D03*
X53035200Y-56718200D03*
X52171600Y-56718200D03*
X48641000Y-53721000D03*
X49504600Y-53695600D03*
X47142400Y-58166000D03*
X47193180Y-55905420D03*
X47142410Y-56997610D03*
X49504600Y-55118000D03*
X48615600Y-55118000D03*
X58433800Y-65711200D03*
X53543800Y-66141200D03*
X53543800Y-65141200D03*
X58443800Y-64881200D03*
X56464200Y-41935400D03*
X50927000Y-41325800D03*
X55626000Y-41935400D03*
X50927000Y-40487600D03*
X49174400Y-75565000D03*
X43942000Y-75565000D03*
X42951400Y-75565000D03*
X50038000Y-75565000D03*
X48550000Y-57350000D03*
X49450000Y-57350000D03*
X49744200Y-60934600D03*
X44094400Y-61010800D03*
X49744200Y-61899800D03*
X44094400Y-61899800D03*
X47625000Y-83591400D03*
X41833800Y-83591400D03*
X48488600Y-83591400D03*
X40995600Y-83591400D03*
X48793400Y-69392800D03*
X43840400Y-69367400D03*
X42900600Y-69367400D03*
X49733200Y-69392800D03*
X19250000Y-93950000D03*
X19250000Y-91950000D03*
X19250000Y-92950000D03*
X19250000Y-89950000D03*
X19250000Y-87950000D03*
X19250000Y-88950000D03*
X19250000Y-85900000D03*
X19250000Y-83900000D03*
X19250000Y-84900000D03*
X19250000Y-81950000D03*
X19250000Y-79950000D03*
X19250000Y-80950000D03*
X19250000Y-78050000D03*
X19250000Y-76050000D03*
X19250000Y-77050000D03*
X19250000Y-74250000D03*
X19250000Y-72250000D03*
X19250000Y-73250000D03*
X19250000Y-70350000D03*
X19250000Y-68350000D03*
X19250000Y-69350000D03*
X19250000Y-66550000D03*
X19250000Y-64550000D03*
X19250000Y-65550000D03*
X19250000Y-62650000D03*
X19250000Y-60650000D03*
X19250000Y-61650000D03*
X19300000Y-58850000D03*
X19300000Y-56850000D03*
X19300000Y-57850000D03*
X19250000Y-54950000D03*
X19250000Y-52950000D03*
X19250000Y-53950000D03*
X19250000Y-51150000D03*
X19250000Y-49150000D03*
X19250000Y-50150000D03*
X19250000Y-47200000D03*
X19250000Y-45200000D03*
X19250000Y-46200000D03*
X19250000Y-43350000D03*
X19250000Y-41350000D03*
X19250000Y-42350000D03*
X19250000Y-39450000D03*
X19250000Y-37450000D03*
X19250000Y-38450000D03*
X19250000Y-35650000D03*
X19250000Y-33650000D03*
X19250000Y-34650000D03*
X19250000Y-31750000D03*
X19250000Y-29750000D03*
X19250000Y-30750000D03*
X19250000Y-27950000D03*
X19250000Y-25950000D03*
X19250000Y-26950000D03*
X19250000Y-24050000D03*
X19250000Y-22050000D03*
X19250000Y-23050000D03*
X19250000Y-20250000D03*
X19250000Y-18250000D03*
X19250000Y-19250000D03*
X19250000Y-16350000D03*
X19250000Y-14350000D03*
X19250000Y-15350000D03*
X19250000Y-12500000D03*
X19250000Y-10500000D03*
X19250000Y-11500000D03*
X19250000Y-8650000D03*
X19250000Y-6500000D03*
X19250000Y-7600000D03*
X19250000Y-4800000D03*
X19250000Y-2800000D03*
X19250000Y-3800000D03*
X4775000Y-55900000D03*
X3875000Y-55900000D03*
X13970000Y-98323400D03*
X13970000Y-96266000D03*
X13970000Y-97282000D03*
X6000000Y-19300000D03*
X6000000Y-16800000D03*
X6000000Y-14300000D03*
X34900000Y-40110000D03*
X34900000Y-39250000D03*
X37250000Y-33650000D03*
X36400000Y-33660000D03*
X37050000Y-25950000D03*
X36220000Y-25950000D03*
X37250000Y-18250000D03*
X36360000Y-18250000D03*
X58547600Y-10316400D03*
X30390000Y-92380000D03*
X36370000Y-87960000D03*
X37230000Y-87960000D03*
X36430000Y-79950000D03*
X36420000Y-72250000D03*
X36340000Y-64550000D03*
X36420000Y-56860000D03*
X34900000Y-47610000D03*
X36470000Y-10520000D03*
X36410000Y-2800000D03*
X30400000Y-93200000D03*
X37250000Y-79950000D03*
X37250000Y-72250000D03*
X37250000Y-64550000D03*
X37300000Y-56850000D03*
X34900000Y-46750000D03*
X37350000Y-10550000D03*
X37250000Y-2800000D03*
X58557600Y-11186400D03*
D16*
X44805600Y-52654200D02*
X44805600Y-51663600D01*
D17*
X44405601Y-53054199D02*
X44805600Y-52654200D01*
X4775000Y-55900000D02*
X31831600Y-55900000D01*
X31831600Y-55900000D02*
X34677401Y-53054199D01*
X34677401Y-53054199D02*
X44405601Y-53054199D01*
D16*
X52171600Y-56718200D02*
X53035200Y-56718200D01*
D17*
X51689000Y-57200800D02*
X52171600Y-56718200D01*
X51689000Y-60411000D02*
X51689000Y-57200800D01*
D16*
X48641000Y-53721000D02*
X49479200Y-53721000D01*
X49479200Y-53721000D02*
X49504600Y-53695600D01*
D17*
X51238989Y-55429989D02*
X49504600Y-53695600D01*
X51238989Y-60224600D02*
X51238989Y-55429989D01*
D16*
X48615600Y-55118000D02*
X49504600Y-55118000D01*
D17*
X50788978Y-68337022D02*
X50788978Y-56402378D01*
X49733200Y-69392800D02*
X50788978Y-68337022D01*
X50788978Y-56402378D02*
X49504600Y-55118000D01*
X50774600Y-83591400D02*
X51689000Y-82677000D01*
X48514000Y-83591400D02*
X50774600Y-83591400D01*
X51689000Y-82677000D02*
X51689000Y-60411000D01*
X51238989Y-74364011D02*
X51238989Y-60224600D01*
X50038000Y-75565000D02*
X51238989Y-74364011D01*
X4072800Y-75387200D02*
X6680200Y-75387200D01*
X4000000Y-75460000D02*
X4072800Y-75387200D01*
X6680200Y-75387200D02*
X10312400Y-79019400D01*
X10312400Y-79019400D02*
X34696400Y-79019400D01*
X34696400Y-79019400D02*
X38150800Y-75565000D01*
X38150800Y-75565000D02*
X42951400Y-75565000D01*
D16*
X42951400Y-75565000D02*
X43942000Y-75565000D01*
X49174400Y-75565000D02*
X50038000Y-75565000D01*
D17*
X43688000Y-75565000D02*
X43713399Y-75539601D01*
D16*
X48550000Y-57350000D02*
X49450000Y-57350000D01*
D17*
X49744200Y-57644200D02*
X49450000Y-57350000D01*
X49744200Y-60934600D02*
X49744200Y-57644200D01*
X6654800Y-61468000D02*
X4008000Y-61468000D01*
X8911790Y-63724990D02*
X6654800Y-61468000D01*
X30407410Y-63724990D02*
X8911790Y-63724990D01*
X31832601Y-62299799D02*
X30407410Y-63724990D01*
X44094400Y-61899800D02*
X43694401Y-62299799D01*
X43694401Y-62299799D02*
X31832601Y-62299799D01*
X4008000Y-61468000D02*
X4000000Y-61460000D01*
D16*
X49744200Y-61899800D02*
X49744200Y-60934600D01*
X44094400Y-61899800D02*
X44094400Y-61010800D01*
D17*
X40987000Y-83600000D02*
X34200000Y-83600000D01*
X40995600Y-83591400D02*
X40987000Y-83600000D01*
X34200000Y-83600000D02*
X30900000Y-86900000D01*
X30900000Y-86900000D02*
X6382000Y-86900000D01*
X6382000Y-86900000D02*
X5942000Y-86460000D01*
X5942000Y-86460000D02*
X4000000Y-86460000D01*
D16*
X40995600Y-83591400D02*
X41833800Y-83591400D01*
X47625000Y-83591400D02*
X48488600Y-83591400D01*
D17*
X42849800Y-69418200D02*
X32893000Y-69418200D01*
X42900600Y-69367400D02*
X42849800Y-69418200D01*
X32893000Y-69418200D02*
X31011200Y-71300000D01*
X31011200Y-71300000D02*
X7897200Y-71300000D01*
X7897200Y-71300000D02*
X6277200Y-72920000D01*
X6277200Y-72920000D02*
X4000000Y-72920000D01*
D16*
X48793400Y-69392800D02*
X49733200Y-69392800D01*
X42900600Y-69367400D02*
X43840400Y-69367400D01*
X19250000Y-88950000D02*
X19250000Y-87950000D01*
X19250000Y-85900000D02*
X19250000Y-84900000D01*
X19250000Y-80950000D02*
X19250000Y-79950000D01*
X19250000Y-78050000D02*
X19250000Y-77050000D01*
X19250000Y-73250000D02*
X19250000Y-72250000D01*
X19250000Y-64550000D02*
X19250000Y-65550000D01*
X19250000Y-70350000D02*
X19250000Y-69350000D01*
X19300000Y-57850000D02*
X19300000Y-56850000D01*
X19250000Y-62650000D02*
X19250000Y-61650000D01*
X19250000Y-54950000D02*
X19250000Y-53950000D01*
X3875000Y-55900000D02*
X4775000Y-55900000D01*
D17*
X3875000Y-55900000D02*
X3875000Y-55900000D01*
D18*
G36*
X11183296Y-1220092D02*
G01*
X11164670Y-1237797D01*
X11032874Y-1391322D01*
X11018195Y-1412412D01*
X10920000Y-1589324D01*
X10909866Y-1612939D01*
X10849294Y-1805996D01*
X10844122Y-1831167D01*
X10823652Y-2032466D01*
X10823000Y-2045314D01*
X10823000Y-9045314D01*
X10823367Y-9054958D01*
X10834899Y-9206386D01*
X10838586Y-9228575D01*
X10889302Y-9424452D01*
X10898227Y-9448550D01*
X10899408Y-9450957D01*
X10849294Y-9610682D01*
X10844122Y-9635853D01*
X10823652Y-9837152D01*
X10823000Y-9850000D01*
X10823000Y-17000000D01*
X10823382Y-17009847D01*
X10835407Y-17164463D01*
X10839183Y-17186846D01*
X10875770Y-17326296D01*
X10849294Y-17410682D01*
X10844122Y-17435853D01*
X10823652Y-17637152D01*
X10823000Y-17650000D01*
X10823000Y-24750000D01*
X10823367Y-24759644D01*
X10834899Y-24911072D01*
X10838586Y-24933261D01*
X10868625Y-25049279D01*
X10848883Y-25112584D01*
X10843754Y-25137763D01*
X10823631Y-25339097D01*
X10823001Y-25351947D01*
X10835096Y-32351947D01*
X10835471Y-32361482D01*
X10847002Y-32511182D01*
X10850681Y-32533261D01*
X10882314Y-32655438D01*
X10849294Y-32760682D01*
X10844122Y-32785853D01*
X10823652Y-32987152D01*
X10823000Y-33000000D01*
X10823000Y-40000000D01*
X10823367Y-40009644D01*
X10834899Y-40161072D01*
X10838586Y-40183261D01*
X10889302Y-40379138D01*
X10889986Y-40380986D01*
X10849294Y-40510682D01*
X10844122Y-40535853D01*
X10823652Y-40737152D01*
X10823000Y-40750000D01*
X10823000Y-47750000D01*
X10823367Y-47759644D01*
X10834899Y-47911072D01*
X10838586Y-47933261D01*
X10889302Y-48129138D01*
X10889986Y-48130986D01*
X10849294Y-48260682D01*
X10844122Y-48285853D01*
X10823652Y-48487152D01*
X10823000Y-48500000D01*
X10823000Y-54648000D01*
X5823575Y-54648000D01*
X5719088Y-54574838D01*
X5846479Y-54390281D01*
X5860707Y-54363171D01*
X5946820Y-54136107D01*
X5954147Y-54106381D01*
X5983419Y-53865308D01*
X5984345Y-53850000D01*
X5984345Y-52150000D01*
X5982265Y-52127108D01*
X5916804Y-51769899D01*
X5904337Y-51733771D01*
X5791482Y-51518743D01*
X5774090Y-51493547D01*
X5721488Y-51434171D01*
X5812198Y-51261760D01*
X5819557Y-51244916D01*
X5908956Y-50991760D01*
X5913807Y-50974030D01*
X5965724Y-50710620D01*
X5967964Y-50692376D01*
X5981314Y-50424231D01*
X5980897Y-50405854D01*
X5955397Y-50138591D01*
X5952331Y-50120467D01*
X5888518Y-49859683D01*
X5882869Y-49842191D01*
X5782079Y-49593352D01*
X5773963Y-49576859D01*
X5638306Y-49345175D01*
X5627895Y-49330027D01*
X5518482Y-49193212D01*
X5519482Y-49192028D01*
X5677478Y-48974964D01*
X5687191Y-48959359D01*
X5812198Y-48721760D01*
X5819557Y-48704916D01*
X5908956Y-48451760D01*
X5913807Y-48434030D01*
X5965724Y-48170620D01*
X5967964Y-48152376D01*
X5981314Y-47884231D01*
X5980897Y-47865854D01*
X5955397Y-47598591D01*
X5952331Y-47580467D01*
X5888518Y-47319683D01*
X5882869Y-47302191D01*
X5782079Y-47053352D01*
X5773963Y-47036859D01*
X5638306Y-46805175D01*
X5627895Y-46790027D01*
X5518482Y-46653212D01*
X5519482Y-46652028D01*
X5677478Y-46434964D01*
X5687191Y-46419359D01*
X5812198Y-46181760D01*
X5819557Y-46164916D01*
X5908956Y-45911760D01*
X5913807Y-45894030D01*
X5965724Y-45630620D01*
X5967964Y-45612376D01*
X5981314Y-45344231D01*
X5980897Y-45325854D01*
X5955397Y-45058591D01*
X5952331Y-45040467D01*
X5888518Y-44779683D01*
X5882869Y-44762191D01*
X5782079Y-44513352D01*
X5773963Y-44496859D01*
X5638306Y-44265175D01*
X5627895Y-44250027D01*
X5518482Y-44113212D01*
X5519482Y-44112028D01*
X5677478Y-43894964D01*
X5687191Y-43879359D01*
X5812198Y-43641760D01*
X5819557Y-43624916D01*
X5908956Y-43371760D01*
X5913807Y-43354030D01*
X5965724Y-43090620D01*
X5967964Y-43072376D01*
X5981314Y-42804231D01*
X5980897Y-42785854D01*
X5955397Y-42518591D01*
X5952331Y-42500467D01*
X5888518Y-42239683D01*
X5882869Y-42222191D01*
X5782079Y-41973352D01*
X5773963Y-41956859D01*
X5638306Y-41725175D01*
X5627895Y-41710027D01*
X5518482Y-41573212D01*
X5519482Y-41572028D01*
X5677478Y-41354964D01*
X5687191Y-41339359D01*
X5812198Y-41101760D01*
X5819557Y-41084916D01*
X5908956Y-40831760D01*
X5913807Y-40814030D01*
X5965724Y-40550620D01*
X5967964Y-40532376D01*
X5981314Y-40264231D01*
X5980897Y-40245854D01*
X5955397Y-39978591D01*
X5952331Y-39960467D01*
X5888518Y-39699683D01*
X5882869Y-39682191D01*
X5782079Y-39433352D01*
X5773963Y-39416859D01*
X5638306Y-39185175D01*
X5627895Y-39170027D01*
X5518482Y-39033212D01*
X5519482Y-39032028D01*
X5677478Y-38814964D01*
X5687191Y-38799359D01*
X5812198Y-38561760D01*
X5819557Y-38544916D01*
X5908956Y-38291760D01*
X5913807Y-38274030D01*
X5965724Y-38010620D01*
X5967964Y-37992376D01*
X5981314Y-37724231D01*
X5980897Y-37705854D01*
X5955397Y-37438591D01*
X5952331Y-37420467D01*
X5888518Y-37159683D01*
X5882869Y-37142191D01*
X5782079Y-36893352D01*
X5773963Y-36876859D01*
X5638306Y-36645175D01*
X5627895Y-36630027D01*
X5518482Y-36493212D01*
X5519482Y-36492028D01*
X5677478Y-36274964D01*
X5687191Y-36259359D01*
X5812198Y-36021760D01*
X5819557Y-36004916D01*
X5908956Y-35751760D01*
X5913807Y-35734030D01*
X5965724Y-35470620D01*
X5967964Y-35452376D01*
X5981314Y-35184231D01*
X5980897Y-35165854D01*
X5955397Y-34898591D01*
X5952331Y-34880467D01*
X5888518Y-34619683D01*
X5882869Y-34602191D01*
X5782079Y-34353352D01*
X5773963Y-34336859D01*
X5638306Y-34105175D01*
X5627895Y-34090027D01*
X5518482Y-33953212D01*
X5519482Y-33952028D01*
X5677478Y-33734964D01*
X5687191Y-33719359D01*
X5812198Y-33481760D01*
X5819557Y-33464916D01*
X5908956Y-33211760D01*
X5913807Y-33194030D01*
X5965724Y-32930620D01*
X5967964Y-32912376D01*
X5981314Y-32644231D01*
X5980897Y-32625854D01*
X5955397Y-32358591D01*
X5952331Y-32340467D01*
X5888518Y-32079683D01*
X5882869Y-32062191D01*
X5782079Y-31813352D01*
X5773963Y-31796859D01*
X5638306Y-31565175D01*
X5627895Y-31550027D01*
X5518482Y-31413212D01*
X5519482Y-31412028D01*
X5677478Y-31194964D01*
X5687191Y-31179359D01*
X5812198Y-30941760D01*
X5819557Y-30924916D01*
X5908956Y-30671760D01*
X5913807Y-30654030D01*
X5965724Y-30390620D01*
X5967964Y-30372376D01*
X5981314Y-30104231D01*
X5980897Y-30085854D01*
X5955397Y-29818591D01*
X5952331Y-29800467D01*
X5888518Y-29539683D01*
X5882869Y-29522191D01*
X5782079Y-29273352D01*
X5773963Y-29256859D01*
X5638306Y-29025175D01*
X5627895Y-29010027D01*
X5518482Y-28873212D01*
X5519482Y-28872028D01*
X5677478Y-28654964D01*
X5687191Y-28639359D01*
X5812198Y-28401760D01*
X5819557Y-28384916D01*
X5908956Y-28131760D01*
X5913807Y-28114030D01*
X5965724Y-27850620D01*
X5967964Y-27832376D01*
X5981314Y-27564231D01*
X5980897Y-27545854D01*
X5955397Y-27278591D01*
X5952331Y-27260467D01*
X5888518Y-26999683D01*
X5882869Y-26982191D01*
X5782079Y-26733352D01*
X5773963Y-26716859D01*
X5638306Y-26485175D01*
X5627895Y-26470027D01*
X5518482Y-26333212D01*
X5519482Y-26332028D01*
X5677478Y-26114964D01*
X5687191Y-26099359D01*
X5812198Y-25861760D01*
X5819557Y-25844916D01*
X5908956Y-25591760D01*
X5913807Y-25574030D01*
X5965724Y-25310620D01*
X5967964Y-25292376D01*
X5981314Y-25024231D01*
X5980897Y-25005854D01*
X5955397Y-24738591D01*
X5952331Y-24720467D01*
X5888518Y-24459683D01*
X5882869Y-24442191D01*
X5782079Y-24193352D01*
X5773963Y-24176859D01*
X5638306Y-23945175D01*
X5627895Y-23930027D01*
X5518482Y-23793212D01*
X5519482Y-23792028D01*
X5677478Y-23574964D01*
X5687191Y-23559359D01*
X5812198Y-23321760D01*
X5819557Y-23304916D01*
X5908956Y-23051760D01*
X5913807Y-23034030D01*
X5965724Y-22770620D01*
X5967964Y-22752376D01*
X5981314Y-22484231D01*
X5980897Y-22465854D01*
X5955397Y-22198591D01*
X5952331Y-22180467D01*
X5888518Y-21919683D01*
X5882869Y-21902191D01*
X5782079Y-21653352D01*
X5773963Y-21636859D01*
X5638306Y-21405175D01*
X5627895Y-21390027D01*
X5460215Y-21180353D01*
X5447726Y-21166866D01*
X5251534Y-20983593D01*
X5237228Y-20972050D01*
X5016634Y-20819019D01*
X5000813Y-20809662D01*
X4760439Y-20690078D01*
X4743432Y-20683103D01*
X4488314Y-20599471D01*
X4464230Y-20594099D01*
X4055775Y-20543947D01*
X4040298Y-20543000D01*
X3931806Y-20543000D01*
X3922615Y-20543333D01*
X3723036Y-20557814D01*
X3704848Y-20560467D01*
X3442684Y-20618347D01*
X3425068Y-20623599D01*
X3174005Y-20718719D01*
X3157332Y-20726458D01*
X2922631Y-20856823D01*
X2907251Y-20866888D01*
X2693826Y-21029768D01*
X2680058Y-21041948D01*
X2492382Y-21233932D01*
X2480518Y-21247972D01*
X2322522Y-21465036D01*
X2312809Y-21480641D01*
X2187802Y-21718240D01*
X2180443Y-21735084D01*
X2091044Y-21988240D01*
X2086193Y-22005970D01*
X2034276Y-22269380D01*
X2032036Y-22287624D01*
X2018686Y-22555769D01*
X2019103Y-22574146D01*
X2044603Y-22841409D01*
X2047669Y-22859533D01*
X2111482Y-23120317D01*
X2117131Y-23137809D01*
X2217921Y-23386648D01*
X2226037Y-23403141D01*
X2361694Y-23634825D01*
X2372105Y-23649973D01*
X2481518Y-23786788D01*
X2480518Y-23787972D01*
X2322522Y-24005036D01*
X2312809Y-24020641D01*
X2187802Y-24258240D01*
X2180443Y-24275084D01*
X2091044Y-24528240D01*
X2086193Y-24545970D01*
X2034276Y-24809380D01*
X2032036Y-24827624D01*
X2018686Y-25095769D01*
X2019103Y-25114146D01*
X2044603Y-25381409D01*
X2047669Y-25399533D01*
X2111482Y-25660317D01*
X2117131Y-25677809D01*
X2217921Y-25926648D01*
X2226037Y-25943141D01*
X2361694Y-26174825D01*
X2372105Y-26189973D01*
X2481518Y-26326788D01*
X2480518Y-26327972D01*
X2322522Y-26545036D01*
X2312809Y-26560641D01*
X2187802Y-26798240D01*
X2180443Y-26815084D01*
X2091044Y-27068240D01*
X2086193Y-27085970D01*
X2034276Y-27349380D01*
X2032036Y-27367624D01*
X2018686Y-27635769D01*
X2019103Y-27654146D01*
X2044603Y-27921409D01*
X2047669Y-27939533D01*
X2111482Y-28200317D01*
X2117131Y-28217809D01*
X2217921Y-28466648D01*
X2226037Y-28483141D01*
X2361694Y-28714825D01*
X2372105Y-28729973D01*
X2481518Y-28866788D01*
X2480518Y-28867972D01*
X2322522Y-29085036D01*
X2312809Y-29100641D01*
X2187802Y-29338240D01*
X2180443Y-29355084D01*
X2091044Y-29608240D01*
X2086193Y-29625970D01*
X2034276Y-29889380D01*
X2032036Y-29907624D01*
X2018686Y-30175769D01*
X2019103Y-30194146D01*
X2044603Y-30461409D01*
X2047669Y-30479533D01*
X2111482Y-30740317D01*
X2117131Y-30757809D01*
X2217921Y-31006648D01*
X2226037Y-31023141D01*
X2361694Y-31254825D01*
X2372105Y-31269973D01*
X2481518Y-31406788D01*
X2480518Y-31407972D01*
X2322522Y-31625036D01*
X2312809Y-31640641D01*
X2187802Y-31878240D01*
X2180443Y-31895084D01*
X2091044Y-32148240D01*
X2086193Y-32165970D01*
X2034276Y-32429380D01*
X2032036Y-32447624D01*
X2018686Y-32715769D01*
X2019103Y-32734146D01*
X2044603Y-33001409D01*
X2047669Y-33019533D01*
X2111482Y-33280317D01*
X2117131Y-33297809D01*
X2217921Y-33546648D01*
X2226037Y-33563141D01*
X2361694Y-33794825D01*
X2372105Y-33809973D01*
X2481518Y-33946788D01*
X2480518Y-33947972D01*
X2322522Y-34165036D01*
X2312809Y-34180641D01*
X2187802Y-34418240D01*
X2180443Y-34435084D01*
X2091044Y-34688240D01*
X2086193Y-34705970D01*
X2034276Y-34969380D01*
X2032036Y-34987624D01*
X2018686Y-35255769D01*
X2019103Y-35274146D01*
X2044603Y-35541409D01*
X2047669Y-35559533D01*
X2111482Y-35820317D01*
X2117131Y-35837809D01*
X2217921Y-36086648D01*
X2226037Y-36103141D01*
X2361694Y-36334825D01*
X2372105Y-36349973D01*
X2481518Y-36486788D01*
X2480518Y-36487972D01*
X2322522Y-36705036D01*
X2312809Y-36720641D01*
X2187802Y-36958240D01*
X2180443Y-36975084D01*
X2091044Y-37228240D01*
X2086193Y-37245970D01*
X2034276Y-37509380D01*
X2032036Y-37527624D01*
X2018686Y-37795769D01*
X2019103Y-37814146D01*
X2044603Y-38081409D01*
X2047669Y-38099533D01*
X2111482Y-38360317D01*
X2117131Y-38377809D01*
X2217921Y-38626648D01*
X2226037Y-38643141D01*
X2361694Y-38874825D01*
X2372105Y-38889973D01*
X2481518Y-39026788D01*
X2480518Y-39027972D01*
X2322522Y-39245036D01*
X2312809Y-39260641D01*
X2187802Y-39498240D01*
X2180443Y-39515084D01*
X2091044Y-39768240D01*
X2086193Y-39785970D01*
X2034276Y-40049380D01*
X2032036Y-40067624D01*
X2018686Y-40335769D01*
X2019103Y-40354146D01*
X2044603Y-40621409D01*
X2047669Y-40639533D01*
X2111482Y-40900317D01*
X2117131Y-40917809D01*
X2217921Y-41166648D01*
X2226037Y-41183141D01*
X2361694Y-41414825D01*
X2372105Y-41429973D01*
X2481518Y-41566788D01*
X2480518Y-41567972D01*
X2322522Y-41785036D01*
X2312809Y-41800641D01*
X2187802Y-42038240D01*
X2180443Y-42055084D01*
X2091044Y-42308240D01*
X2086193Y-42325970D01*
X2034276Y-42589380D01*
X2032036Y-42607624D01*
X2018686Y-42875769D01*
X2019103Y-42894146D01*
X2044603Y-43161409D01*
X2047669Y-43179533D01*
X2111482Y-43440317D01*
X2117131Y-43457809D01*
X2217921Y-43706648D01*
X2226037Y-43723141D01*
X2361694Y-43954825D01*
X2372105Y-43969973D01*
X2481518Y-44106788D01*
X2480518Y-44107972D01*
X2322522Y-44325036D01*
X2312809Y-44340641D01*
X2187802Y-44578240D01*
X2180443Y-44595084D01*
X2091044Y-44848240D01*
X2086193Y-44865970D01*
X2034276Y-45129380D01*
X2032036Y-45147624D01*
X2018686Y-45415769D01*
X2019103Y-45434146D01*
X2044603Y-45701409D01*
X2047669Y-45719533D01*
X2111482Y-45980317D01*
X2117131Y-45997809D01*
X2217921Y-46246648D01*
X2226037Y-46263141D01*
X2361694Y-46494825D01*
X2372105Y-46509973D01*
X2481518Y-46646788D01*
X2480518Y-46647972D01*
X2322522Y-46865036D01*
X2312809Y-46880641D01*
X2187802Y-47118240D01*
X2180443Y-47135084D01*
X2091044Y-47388240D01*
X2086193Y-47405970D01*
X2034276Y-47669380D01*
X2032036Y-47687624D01*
X2018686Y-47955769D01*
X2019103Y-47974146D01*
X2044603Y-48241409D01*
X2047669Y-48259533D01*
X2111482Y-48520317D01*
X2117131Y-48537809D01*
X2217921Y-48786648D01*
X2226037Y-48803141D01*
X2361694Y-49034825D01*
X2372105Y-49049973D01*
X2481518Y-49186788D01*
X2480518Y-49187972D01*
X2322522Y-49405036D01*
X2312809Y-49420641D01*
X2187802Y-49658240D01*
X2180443Y-49675084D01*
X2091044Y-49928240D01*
X2086193Y-49945970D01*
X2034276Y-50209380D01*
X2032036Y-50227624D01*
X2018686Y-50495769D01*
X2019103Y-50514146D01*
X2044603Y-50781409D01*
X2047669Y-50799533D01*
X2111482Y-51060317D01*
X2117131Y-51077809D01*
X2217921Y-51326648D01*
X2226037Y-51343141D01*
X2277206Y-51430531D01*
X2153521Y-51609719D01*
X2139293Y-51636829D01*
X2053180Y-51863893D01*
X2045853Y-51893619D01*
X2016581Y-52134692D01*
X2015655Y-52150000D01*
X2015655Y-53850000D01*
X2017735Y-53872892D01*
X2083196Y-54230101D01*
X2095663Y-54266229D01*
X2208518Y-54481257D01*
X2225910Y-54506454D01*
X2386946Y-54688226D01*
X2409863Y-54708528D01*
X2609719Y-54846479D01*
X2626324Y-54855194D01*
X2496018Y-55023183D01*
X2482416Y-55044951D01*
X2347875Y-55318375D01*
X2338928Y-55342433D01*
X2262114Y-55637325D01*
X2258187Y-55662692D01*
X2242239Y-55967007D01*
X2243493Y-55992644D01*
X2289061Y-56293949D01*
X2295444Y-56318811D01*
X2400668Y-56604801D01*
X2411921Y-56627871D01*
X2572501Y-56886860D01*
X2588162Y-56907197D01*
X2797540Y-57128608D01*
X2816971Y-57145380D01*
X3066593Y-57320167D01*
X3088999Y-57332690D01*
X3368668Y-57453714D01*
X3399677Y-57462664D01*
X3590130Y-57492148D01*
X3515390Y-57511546D01*
X3495134Y-57518679D01*
X3285008Y-57613334D01*
X3266243Y-57623778D01*
X3075070Y-57752483D01*
X3058334Y-57765940D01*
X2891580Y-57925016D01*
X2877350Y-57941099D01*
X2739782Y-58125997D01*
X2728466Y-58144249D01*
X2624018Y-58349683D01*
X2615938Y-58369580D01*
X2547597Y-58589674D01*
X2542986Y-58610647D01*
X2537861Y-58649312D01*
X2548825Y-58720027D01*
X2596280Y-58773589D01*
X2663760Y-58793000D01*
X5334306Y-58793000D01*
X5402967Y-58772839D01*
X5449829Y-58718758D01*
X5458599Y-58639921D01*
X5429718Y-58502275D01*
X5423547Y-58481705D01*
X5338896Y-58267354D01*
X5329348Y-58248119D01*
X5209791Y-58051095D01*
X5197138Y-58033743D01*
X5046094Y-57859680D01*
X5030698Y-57844708D01*
X4852485Y-57698583D01*
X4834787Y-57686420D01*
X4634502Y-57572411D01*
X4615007Y-57563403D01*
X4514718Y-57527000D01*
X4851150Y-57527000D01*
X4863984Y-57526350D01*
X5091006Y-57503290D01*
X5116150Y-57498129D01*
X5406938Y-57407002D01*
X5430531Y-57396890D01*
X5697056Y-57249152D01*
X5718133Y-57234502D01*
X5814390Y-57152000D01*
X10823000Y-57152000D01*
X10823000Y-62472990D01*
X9430386Y-62472990D01*
X7607230Y-60649835D01*
X7585461Y-60620254D01*
X7565401Y-60598742D01*
X7503822Y-60546427D01*
X7493651Y-60536256D01*
X7482646Y-60526460D01*
X7448788Y-60499673D01*
X7365476Y-60428894D01*
X7341005Y-60412574D01*
X7334501Y-60409253D01*
X7328778Y-60404725D01*
X7303752Y-60389268D01*
X7204724Y-60342985D01*
X7107369Y-60293273D01*
X7075059Y-60282383D01*
X7066093Y-60278193D01*
X7038185Y-60268909D01*
X6781350Y-60215487D01*
X6752052Y-60212872D01*
X6636455Y-60216000D01*
X5536706Y-60216000D01*
X5460215Y-60120353D01*
X5447726Y-60106866D01*
X5251534Y-59923593D01*
X5237228Y-59912050D01*
X5155203Y-59855148D01*
X5260218Y-59714003D01*
X5271534Y-59695751D01*
X5375982Y-59490317D01*
X5384062Y-59470420D01*
X5452403Y-59250326D01*
X5457014Y-59229353D01*
X5462139Y-59190688D01*
X5451175Y-59119973D01*
X5403720Y-59066411D01*
X5336240Y-59047000D01*
X2665694Y-59047000D01*
X2597033Y-59067161D01*
X2550171Y-59121242D01*
X2541401Y-59200079D01*
X2570282Y-59337725D01*
X2576453Y-59358295D01*
X2661104Y-59572646D01*
X2670652Y-59591881D01*
X2790209Y-59788905D01*
X2802862Y-59806257D01*
X2844781Y-59854564D01*
X2693826Y-59969768D01*
X2680058Y-59981948D01*
X2492382Y-60173932D01*
X2480518Y-60187972D01*
X2322522Y-60405036D01*
X2312809Y-60420641D01*
X2187802Y-60658240D01*
X2180443Y-60675084D01*
X2091044Y-60928240D01*
X2086193Y-60945970D01*
X2034276Y-61209380D01*
X2032036Y-61227624D01*
X2018686Y-61495769D01*
X2019103Y-61514146D01*
X2044603Y-61781409D01*
X2047669Y-61799533D01*
X2111482Y-62060317D01*
X2117131Y-62077809D01*
X2217921Y-62326648D01*
X2226037Y-62343141D01*
X2277206Y-62430531D01*
X2153521Y-62609719D01*
X2139293Y-62636829D01*
X2053180Y-62863893D01*
X2045853Y-62893619D01*
X2016581Y-63134692D01*
X2015655Y-63150000D01*
X2015655Y-64850000D01*
X2017735Y-64872892D01*
X2083196Y-65230101D01*
X2095663Y-65266229D01*
X2208518Y-65481257D01*
X2225910Y-65506454D01*
X2386946Y-65688226D01*
X2409863Y-65708528D01*
X2609719Y-65846479D01*
X2636829Y-65860707D01*
X2863893Y-65946820D01*
X2893619Y-65954147D01*
X3134692Y-65983419D01*
X3150000Y-65984345D01*
X4850000Y-65984345D01*
X4872892Y-65982265D01*
X5230101Y-65916804D01*
X5266229Y-65904337D01*
X5481257Y-65791482D01*
X5506454Y-65774090D01*
X5688226Y-65613054D01*
X5708528Y-65590137D01*
X5846479Y-65390281D01*
X5860707Y-65363171D01*
X5946820Y-65136107D01*
X5954147Y-65106381D01*
X5983419Y-64865308D01*
X5984345Y-64850000D01*
X5984345Y-63150000D01*
X5982265Y-63127108D01*
X5916804Y-62769899D01*
X5904337Y-62733771D01*
X5897109Y-62720000D01*
X6136205Y-62720000D01*
X7959359Y-64543155D01*
X7981128Y-64572736D01*
X8001189Y-64594248D01*
X8062761Y-64646557D01*
X8072938Y-64656734D01*
X8083942Y-64666529D01*
X8117826Y-64693337D01*
X8201115Y-64764096D01*
X8225588Y-64780418D01*
X8232086Y-64783736D01*
X8237809Y-64788264D01*
X8262837Y-64803722D01*
X8361877Y-64850010D01*
X8459221Y-64899717D01*
X8491525Y-64910604D01*
X8500494Y-64914796D01*
X8528404Y-64924081D01*
X8785240Y-64977503D01*
X8814538Y-64980118D01*
X8930135Y-64976990D01*
X10823000Y-64976990D01*
X10823000Y-70048000D01*
X7992134Y-70048000D01*
X7955830Y-70042477D01*
X7926433Y-70041450D01*
X7845907Y-70048000D01*
X7831515Y-70048000D01*
X7816807Y-70048855D01*
X7773909Y-70053857D01*
X7664964Y-70062718D01*
X7636121Y-70068481D01*
X7629182Y-70070729D01*
X7621925Y-70071575D01*
X7593300Y-70078342D01*
X7490516Y-70115651D01*
X7386556Y-70149329D01*
X7356012Y-70164474D01*
X7346708Y-70167851D01*
X7320409Y-70181021D01*
X7101024Y-70324856D01*
X7078458Y-70343723D01*
X6998940Y-70427664D01*
X5758605Y-71668000D01*
X5530308Y-71668000D01*
X5460215Y-71580353D01*
X5447726Y-71566866D01*
X5251534Y-71383593D01*
X5237228Y-71372050D01*
X5155203Y-71315148D01*
X5260218Y-71174003D01*
X5271534Y-71155751D01*
X5375982Y-70950317D01*
X5384062Y-70930420D01*
X5452403Y-70710326D01*
X5457014Y-70689353D01*
X5462139Y-70650688D01*
X5451175Y-70579973D01*
X5403720Y-70526411D01*
X5336240Y-70507000D01*
X2665694Y-70507000D01*
X2597033Y-70527161D01*
X2550171Y-70581242D01*
X2541401Y-70660079D01*
X2570282Y-70797725D01*
X2576453Y-70818295D01*
X2661104Y-71032646D01*
X2670652Y-71051881D01*
X2790209Y-71248905D01*
X2802862Y-71266257D01*
X2844781Y-71314564D01*
X2693826Y-71429768D01*
X2680058Y-71441948D01*
X2492382Y-71633932D01*
X2480518Y-71647972D01*
X2322522Y-71865036D01*
X2312809Y-71880641D01*
X2187802Y-72118240D01*
X2180443Y-72135084D01*
X2091044Y-72388240D01*
X2086193Y-72405970D01*
X2034276Y-72669380D01*
X2032036Y-72687624D01*
X2018686Y-72955769D01*
X2019103Y-72974146D01*
X2044603Y-73241409D01*
X2047669Y-73259533D01*
X2111482Y-73520317D01*
X2117131Y-73537809D01*
X2217921Y-73786648D01*
X2226037Y-73803141D01*
X2361694Y-74034825D01*
X2372105Y-74049973D01*
X2481518Y-74186788D01*
X2480518Y-74187972D01*
X2322522Y-74405036D01*
X2312809Y-74420641D01*
X2187802Y-74658240D01*
X2180443Y-74675084D01*
X2091044Y-74928240D01*
X2086193Y-74945970D01*
X2034276Y-75209380D01*
X2032036Y-75227624D01*
X2018686Y-75495769D01*
X2019103Y-75514146D01*
X2044603Y-75781409D01*
X2047669Y-75799533D01*
X2111482Y-76060317D01*
X2117131Y-76077809D01*
X2217921Y-76326648D01*
X2226037Y-76343141D01*
X2277206Y-76430531D01*
X2153521Y-76609719D01*
X2139293Y-76636829D01*
X2053180Y-76863893D01*
X2045853Y-76893619D01*
X2016581Y-77134692D01*
X2015655Y-77150000D01*
X2015655Y-78850000D01*
X2017735Y-78872892D01*
X2083196Y-79230101D01*
X2095663Y-79266229D01*
X2208518Y-79481257D01*
X2225910Y-79506454D01*
X2386946Y-79688226D01*
X2409863Y-79708528D01*
X2609719Y-79846479D01*
X2636829Y-79860707D01*
X2863893Y-79946820D01*
X2893619Y-79954147D01*
X3134692Y-79983419D01*
X3150000Y-79984345D01*
X4850000Y-79984345D01*
X4872892Y-79982265D01*
X5230101Y-79916804D01*
X5266229Y-79904337D01*
X5481257Y-79791482D01*
X5506454Y-79774090D01*
X5688226Y-79613054D01*
X5708528Y-79590137D01*
X5846479Y-79390281D01*
X5860707Y-79363171D01*
X5946820Y-79136107D01*
X5954147Y-79106381D01*
X5983419Y-78865308D01*
X5984345Y-78850000D01*
X5984345Y-77150000D01*
X5982265Y-77127108D01*
X5916804Y-76769899D01*
X5904337Y-76733771D01*
X5854702Y-76639200D01*
X6161605Y-76639200D01*
X9359969Y-79837565D01*
X9381738Y-79867146D01*
X9401799Y-79888658D01*
X9463371Y-79940967D01*
X9473548Y-79951144D01*
X9484552Y-79960939D01*
X9518436Y-79987747D01*
X9601725Y-80058506D01*
X9626198Y-80074828D01*
X9632696Y-80078146D01*
X9638419Y-80082674D01*
X9663447Y-80098132D01*
X9762487Y-80144420D01*
X9859831Y-80194127D01*
X9892135Y-80205014D01*
X9901104Y-80209206D01*
X9929014Y-80218491D01*
X10185850Y-80271913D01*
X10215148Y-80274528D01*
X10330745Y-80271400D01*
X10823000Y-80271400D01*
X10823000Y-85648000D01*
X6900595Y-85648000D01*
X6894430Y-85641835D01*
X6872661Y-85612254D01*
X6852601Y-85590742D01*
X6791022Y-85538427D01*
X6780851Y-85528256D01*
X6769846Y-85518460D01*
X6735988Y-85491673D01*
X6652676Y-85420894D01*
X6628205Y-85404574D01*
X6621701Y-85401253D01*
X6615978Y-85396725D01*
X6590952Y-85381268D01*
X6491924Y-85334985D01*
X6394569Y-85285273D01*
X6362259Y-85274383D01*
X6353293Y-85270193D01*
X6325385Y-85260909D01*
X6068550Y-85207487D01*
X6039252Y-85204872D01*
X5923655Y-85208000D01*
X5530308Y-85208000D01*
X5460215Y-85120353D01*
X5447726Y-85106866D01*
X5251534Y-84923593D01*
X5237228Y-84912050D01*
X5155203Y-84855148D01*
X5260218Y-84714003D01*
X5271534Y-84695751D01*
X5375982Y-84490317D01*
X5384062Y-84470420D01*
X5452403Y-84250326D01*
X5457014Y-84229353D01*
X5462139Y-84190688D01*
X5451175Y-84119973D01*
X5403720Y-84066411D01*
X5336240Y-84047000D01*
X2665694Y-84047000D01*
X2597033Y-84067161D01*
X2550171Y-84121242D01*
X2541401Y-84200079D01*
X2570282Y-84337725D01*
X2576453Y-84358295D01*
X2661104Y-84572646D01*
X2670652Y-84591881D01*
X2790209Y-84788905D01*
X2802862Y-84806257D01*
X2844781Y-84854564D01*
X2693826Y-84969768D01*
X2680058Y-84981948D01*
X2492382Y-85173932D01*
X2480518Y-85187972D01*
X2322522Y-85405036D01*
X2312809Y-85420641D01*
X2187802Y-85658240D01*
X2180443Y-85675084D01*
X2091044Y-85928240D01*
X2086193Y-85945970D01*
X2034276Y-86209380D01*
X2032036Y-86227624D01*
X2018686Y-86495769D01*
X2019103Y-86514146D01*
X2044603Y-86781409D01*
X2047669Y-86799533D01*
X2111482Y-87060317D01*
X2117131Y-87077809D01*
X2217921Y-87326648D01*
X2226037Y-87343141D01*
X2277206Y-87430531D01*
X2153521Y-87609719D01*
X2139293Y-87636829D01*
X2053180Y-87863893D01*
X2045853Y-87893619D01*
X2016581Y-88134692D01*
X2015655Y-88150000D01*
X2015655Y-89850000D01*
X2017735Y-89872892D01*
X2083196Y-90230101D01*
X2095663Y-90266229D01*
X2208518Y-90481257D01*
X2225910Y-90506454D01*
X2386946Y-90688226D01*
X2409863Y-90708528D01*
X2609719Y-90846479D01*
X2636829Y-90860707D01*
X2863893Y-90946820D01*
X2893619Y-90954147D01*
X3134692Y-90983419D01*
X3150000Y-90984345D01*
X4850000Y-90984345D01*
X4872892Y-90982265D01*
X5230101Y-90916804D01*
X5266229Y-90904337D01*
X5481257Y-90791482D01*
X5506454Y-90774090D01*
X5688226Y-90613054D01*
X5708528Y-90590137D01*
X5846479Y-90390281D01*
X5860707Y-90363171D01*
X5946820Y-90136107D01*
X5954147Y-90106381D01*
X5983419Y-89865308D01*
X5984345Y-89850000D01*
X5984345Y-88150000D01*
X5982265Y-88127108D01*
X5975736Y-88091480D01*
X5998614Y-88099091D01*
X6255449Y-88152513D01*
X6284747Y-88155128D01*
X6400344Y-88152000D01*
X10831853Y-88152000D01*
X10823001Y-94348390D01*
X10823361Y-94358124D01*
X10834892Y-94510981D01*
X10838586Y-94533261D01*
X10889302Y-94729138D01*
X10898227Y-94753235D01*
X10987335Y-94934894D01*
X11000927Y-94956701D01*
X11124778Y-95116704D01*
X11142483Y-95135330D01*
X11296008Y-95267126D01*
X11317098Y-95281805D01*
X11494010Y-95380000D01*
X11517625Y-95390134D01*
X11710682Y-95450706D01*
X11735853Y-95455878D01*
X11937152Y-95476348D01*
X11950000Y-95477000D01*
X19169982Y-95477000D01*
X19236725Y-95484015D01*
X19263275Y-95484015D01*
X19330018Y-95477000D01*
X27400000Y-95477000D01*
X27409191Y-95476667D01*
X27553555Y-95466192D01*
X27575318Y-95462695D01*
X27771552Y-95413379D01*
X27795712Y-95404627D01*
X27978003Y-95316819D01*
X27999908Y-95303382D01*
X28160791Y-95180676D01*
X28179541Y-95163106D01*
X28312431Y-95010527D01*
X28327261Y-94989541D01*
X28426717Y-94813335D01*
X28429886Y-94806091D01*
X51173001Y-94806091D01*
X51173001Y-95193909D01*
X51173697Y-95207184D01*
X51214235Y-95592877D01*
X51216314Y-95606007D01*
X51296945Y-95985349D01*
X51300386Y-95998189D01*
X51420229Y-96367026D01*
X51424993Y-96379436D01*
X51582732Y-96733725D01*
X51588767Y-96745570D01*
X51782676Y-97081430D01*
X51789916Y-97092579D01*
X52017869Y-97406330D01*
X52026235Y-97416661D01*
X52285736Y-97704865D01*
X52295135Y-97714264D01*
X52583339Y-97973765D01*
X52593670Y-97982131D01*
X52907421Y-98210084D01*
X52918570Y-98217324D01*
X53254430Y-98411233D01*
X53266275Y-98417268D01*
X53620564Y-98575007D01*
X53632974Y-98579771D01*
X54001811Y-98699614D01*
X54014651Y-98703055D01*
X54393993Y-98783686D01*
X54407123Y-98785765D01*
X54792816Y-98826303D01*
X54806091Y-98826999D01*
X55193909Y-98826999D01*
X55207184Y-98826303D01*
X55592877Y-98785765D01*
X55606007Y-98783686D01*
X55985349Y-98703055D01*
X55998189Y-98699614D01*
X56367026Y-98579771D01*
X56379436Y-98575007D01*
X56733725Y-98417268D01*
X56745570Y-98411233D01*
X57081430Y-98217324D01*
X57092579Y-98210084D01*
X57406330Y-97982131D01*
X57416661Y-97973765D01*
X57704865Y-97714264D01*
X57714264Y-97704865D01*
X57973765Y-97416661D01*
X57982131Y-97406330D01*
X58210084Y-97092579D01*
X58217324Y-97081430D01*
X58411233Y-96745570D01*
X58417268Y-96733725D01*
X58575007Y-96379436D01*
X58579771Y-96367026D01*
X58699614Y-95998189D01*
X58703055Y-95985349D01*
X58783686Y-95606007D01*
X58785765Y-95592877D01*
X58826303Y-95207184D01*
X58826999Y-95193909D01*
X58826999Y-94806091D01*
X58826303Y-94792816D01*
X58785765Y-94407123D01*
X58783686Y-94393993D01*
X58703055Y-94014651D01*
X58699614Y-94001811D01*
X58579771Y-93632974D01*
X58575007Y-93620564D01*
X58417268Y-93266275D01*
X58411233Y-93254430D01*
X58217324Y-92918570D01*
X58210084Y-92907421D01*
X57982131Y-92593670D01*
X57973765Y-92583339D01*
X57714264Y-92295135D01*
X57704865Y-92285736D01*
X57416661Y-92026235D01*
X57406330Y-92017869D01*
X57092579Y-91789916D01*
X57081430Y-91782676D01*
X56745570Y-91588767D01*
X56733725Y-91582732D01*
X56379436Y-91424993D01*
X56367026Y-91420229D01*
X55998189Y-91300386D01*
X55985349Y-91296945D01*
X55606007Y-91216314D01*
X55592877Y-91214235D01*
X55207184Y-91173697D01*
X55193909Y-91173001D01*
X54806091Y-91173001D01*
X54792816Y-91173697D01*
X54407123Y-91214235D01*
X54393993Y-91216314D01*
X54014651Y-91296945D01*
X54001811Y-91300386D01*
X53632974Y-91420229D01*
X53620564Y-91424993D01*
X53266275Y-91582732D01*
X53254430Y-91588767D01*
X52918570Y-91782676D01*
X52907421Y-91789916D01*
X52593670Y-92017869D01*
X52583339Y-92026235D01*
X52295135Y-92285736D01*
X52285736Y-92295135D01*
X52026235Y-92583339D01*
X52017869Y-92593670D01*
X51789916Y-92907421D01*
X51782676Y-92918570D01*
X51588767Y-93254430D01*
X51582732Y-93266275D01*
X51424993Y-93620564D01*
X51420229Y-93632974D01*
X51300386Y-94001811D01*
X51296945Y-94014651D01*
X51216314Y-94393993D01*
X51214235Y-94407123D01*
X51173697Y-94792816D01*
X51173001Y-94806091D01*
X28429886Y-94806091D01*
X28437019Y-94789793D01*
X28498968Y-94597173D01*
X28504320Y-94572040D01*
X28526227Y-94370893D01*
X28526971Y-94358050D01*
X28571300Y-88152000D01*
X30805066Y-88152000D01*
X30841370Y-88157523D01*
X30870767Y-88158550D01*
X30951292Y-88152000D01*
X30965685Y-88152000D01*
X30980392Y-88151146D01*
X31023317Y-88146141D01*
X31132235Y-88137282D01*
X31161080Y-88131518D01*
X31168015Y-88129271D01*
X31175274Y-88128425D01*
X31203901Y-88121658D01*
X31306710Y-88084340D01*
X31410642Y-88050671D01*
X31441175Y-88035531D01*
X31450488Y-88032151D01*
X31476791Y-88018979D01*
X31696176Y-87875144D01*
X31718742Y-87856277D01*
X31798277Y-87772318D01*
X34718596Y-84852000D01*
X39959307Y-84852000D01*
X40187193Y-85011567D01*
X40209599Y-85024090D01*
X40489268Y-85145114D01*
X40520277Y-85154064D01*
X40926206Y-85216905D01*
X40945635Y-85218400D01*
X41909950Y-85218400D01*
X41922784Y-85217750D01*
X42149806Y-85194690D01*
X42174950Y-85189529D01*
X42465738Y-85098402D01*
X42489331Y-85088290D01*
X42755856Y-84940552D01*
X42776933Y-84925903D01*
X43008307Y-84727592D01*
X43026009Y-84709003D01*
X43212782Y-84468217D01*
X43226384Y-84446449D01*
X43360925Y-84173025D01*
X43369872Y-84148967D01*
X43446686Y-83854075D01*
X43450613Y-83828708D01*
X43459537Y-83658407D01*
X45992239Y-83658407D01*
X45993493Y-83684044D01*
X46039061Y-83985349D01*
X46045444Y-84010211D01*
X46150668Y-84296201D01*
X46161921Y-84319271D01*
X46322501Y-84578260D01*
X46338162Y-84598597D01*
X46547540Y-84820008D01*
X46566971Y-84836780D01*
X46816593Y-85011567D01*
X46838999Y-85024090D01*
X47118668Y-85145114D01*
X47149677Y-85154064D01*
X47555606Y-85216905D01*
X47575035Y-85218400D01*
X48564750Y-85218400D01*
X48577584Y-85217750D01*
X48804606Y-85194690D01*
X48829750Y-85189529D01*
X49120538Y-85098402D01*
X49144131Y-85088290D01*
X49410656Y-84940552D01*
X49431733Y-84925902D01*
X49527990Y-84843400D01*
X50679666Y-84843400D01*
X50715970Y-84848923D01*
X50745367Y-84849950D01*
X50825892Y-84843400D01*
X50840285Y-84843400D01*
X50854992Y-84842546D01*
X50897917Y-84837541D01*
X51006835Y-84828682D01*
X51035680Y-84822918D01*
X51042615Y-84820671D01*
X51049874Y-84819825D01*
X51078501Y-84813058D01*
X51181310Y-84775740D01*
X51285242Y-84742071D01*
X51315775Y-84726931D01*
X51325088Y-84723551D01*
X51351391Y-84710379D01*
X51570776Y-84566544D01*
X51593342Y-84547677D01*
X51672877Y-84463718D01*
X52507165Y-83629431D01*
X52536746Y-83607662D01*
X52558258Y-83587601D01*
X52610567Y-83526029D01*
X52620744Y-83515852D01*
X52630539Y-83504848D01*
X52657347Y-83470964D01*
X52728106Y-83387675D01*
X52744428Y-83363202D01*
X52747746Y-83356704D01*
X52752274Y-83350981D01*
X52767732Y-83325953D01*
X52814020Y-83226913D01*
X52863727Y-83129569D01*
X52874614Y-83097265D01*
X52878806Y-83088296D01*
X52888091Y-83060386D01*
X52941513Y-82803550D01*
X52944128Y-82774252D01*
X52941000Y-82658655D01*
X52941000Y-58345200D01*
X53111350Y-58345200D01*
X53124184Y-58344550D01*
X53351206Y-58321490D01*
X53376350Y-58316329D01*
X53667138Y-58225202D01*
X53690731Y-58215090D01*
X53957256Y-58067352D01*
X53978333Y-58052703D01*
X54209707Y-57854392D01*
X54227409Y-57835803D01*
X54414182Y-57595017D01*
X54427784Y-57573249D01*
X54562325Y-57299825D01*
X54571272Y-57275767D01*
X54648086Y-56980875D01*
X54652013Y-56955508D01*
X54667961Y-56651193D01*
X54666707Y-56625556D01*
X54621139Y-56324251D01*
X54614756Y-56299389D01*
X54509532Y-56013399D01*
X54498279Y-55990329D01*
X54337699Y-55731340D01*
X54322038Y-55711003D01*
X54112660Y-55489592D01*
X54093229Y-55472820D01*
X53843607Y-55298033D01*
X53821201Y-55285510D01*
X53541532Y-55164486D01*
X53510523Y-55155536D01*
X53104594Y-55092695D01*
X53085165Y-55091200D01*
X52447983Y-55091200D01*
X52423340Y-55023310D01*
X52389660Y-54919344D01*
X52374518Y-54888808D01*
X52371139Y-54879499D01*
X52357968Y-54853198D01*
X52214133Y-54633813D01*
X52195266Y-54611247D01*
X52111325Y-54531729D01*
X51125657Y-53546062D01*
X51099691Y-53340517D01*
X51093916Y-53315506D01*
X50995710Y-53027031D01*
X50985025Y-53003693D01*
X50830821Y-52740857D01*
X50815661Y-52720143D01*
X50611755Y-52493683D01*
X50592740Y-52476441D01*
X50347464Y-52295608D01*
X50325370Y-52282542D01*
X50048739Y-52154721D01*
X50024470Y-52146365D01*
X49727790Y-52076779D01*
X49702335Y-52073473D01*
X49397723Y-52064965D01*
X49372124Y-52066844D01*
X49218114Y-52094000D01*
X48564850Y-52094000D01*
X48552016Y-52094650D01*
X48324994Y-52117710D01*
X48299850Y-52122871D01*
X48009062Y-52213998D01*
X47985469Y-52224110D01*
X47718944Y-52371848D01*
X47697867Y-52386497D01*
X47466493Y-52584808D01*
X47448791Y-52603397D01*
X47262018Y-52844183D01*
X47248416Y-52865951D01*
X47113875Y-53139375D01*
X47104928Y-53163433D01*
X47028114Y-53458325D01*
X47024187Y-53483692D01*
X47008239Y-53788007D01*
X47009493Y-53813644D01*
X47055061Y-54114949D01*
X47061444Y-54139811D01*
X47156493Y-54398145D01*
X47088475Y-54536375D01*
X47079528Y-54560433D01*
X47002714Y-54855325D01*
X46998787Y-54880692D01*
X46982839Y-55185007D01*
X46984093Y-55210644D01*
X47029661Y-55511949D01*
X47036044Y-55536811D01*
X47141268Y-55822801D01*
X47152521Y-55845871D01*
X47313101Y-56104860D01*
X47328762Y-56125197D01*
X47395965Y-56196262D01*
X47375493Y-56213809D01*
X47357791Y-56232397D01*
X47171018Y-56473183D01*
X47157416Y-56494951D01*
X47022875Y-56768375D01*
X47013928Y-56792433D01*
X46937114Y-57087325D01*
X46933187Y-57112692D01*
X46917239Y-57417007D01*
X46918493Y-57442644D01*
X46964061Y-57743949D01*
X46970444Y-57768811D01*
X47075668Y-58054801D01*
X47086921Y-58077871D01*
X47247501Y-58336860D01*
X47263162Y-58357197D01*
X47472540Y-58578608D01*
X47491971Y-58595380D01*
X47741593Y-58770167D01*
X47763999Y-58782690D01*
X48043668Y-58903714D01*
X48074677Y-58912664D01*
X48480606Y-58975505D01*
X48492201Y-58976397D01*
X48492200Y-59886027D01*
X48324033Y-60126193D01*
X48311510Y-60148599D01*
X48190486Y-60428268D01*
X48181536Y-60459277D01*
X48118695Y-60865206D01*
X48117200Y-60884635D01*
X48117200Y-61975949D01*
X48117850Y-61988783D01*
X48140910Y-62215805D01*
X48146071Y-62240949D01*
X48237198Y-62531737D01*
X48247310Y-62555330D01*
X48395048Y-62821855D01*
X48409697Y-62842932D01*
X48608008Y-63074307D01*
X48626597Y-63092009D01*
X48867383Y-63278782D01*
X48889151Y-63292384D01*
X49162575Y-63426925D01*
X49186633Y-63435872D01*
X49481525Y-63512686D01*
X49506892Y-63516613D01*
X49536978Y-63518190D01*
X49536978Y-67765800D01*
X48717250Y-67765800D01*
X48704416Y-67766450D01*
X48477394Y-67789510D01*
X48452250Y-67794671D01*
X48161462Y-67885798D01*
X48137869Y-67895910D01*
X47871344Y-68043648D01*
X47850267Y-68058297D01*
X47618893Y-68256608D01*
X47601191Y-68275197D01*
X47414418Y-68515983D01*
X47400816Y-68537751D01*
X47266275Y-68811175D01*
X47257328Y-68835233D01*
X47180514Y-69130125D01*
X47176587Y-69155492D01*
X47160639Y-69459807D01*
X47161893Y-69485444D01*
X47207461Y-69786749D01*
X47213844Y-69811611D01*
X47319068Y-70097601D01*
X47330321Y-70120671D01*
X47490901Y-70379660D01*
X47506562Y-70399997D01*
X47715940Y-70621408D01*
X47735371Y-70638180D01*
X47984993Y-70812967D01*
X48007399Y-70825490D01*
X48287068Y-70946514D01*
X48318077Y-70955464D01*
X48724006Y-71018305D01*
X48743435Y-71019800D01*
X49809350Y-71019800D01*
X49822184Y-71019150D01*
X49986989Y-71002410D01*
X49986989Y-73845415D01*
X49894404Y-73938000D01*
X49098250Y-73938000D01*
X49085416Y-73938650D01*
X48858394Y-73961710D01*
X48833250Y-73966871D01*
X48542462Y-74057998D01*
X48518869Y-74068110D01*
X48252344Y-74215848D01*
X48231267Y-74230497D01*
X47999893Y-74428808D01*
X47982191Y-74447397D01*
X47795418Y-74688183D01*
X47781816Y-74709951D01*
X47647275Y-74983375D01*
X47638328Y-75007433D01*
X47561514Y-75302325D01*
X47557587Y-75327692D01*
X47541639Y-75632007D01*
X47542893Y-75657644D01*
X47588461Y-75958949D01*
X47594844Y-75983811D01*
X47700068Y-76269801D01*
X47711321Y-76292871D01*
X47871901Y-76551860D01*
X47887562Y-76572197D01*
X48096940Y-76793608D01*
X48116371Y-76810380D01*
X48365993Y-76985167D01*
X48388399Y-76997690D01*
X48668068Y-77118714D01*
X48699077Y-77127664D01*
X49105006Y-77190505D01*
X49124435Y-77192000D01*
X50114150Y-77192000D01*
X50126984Y-77191350D01*
X50354006Y-77168290D01*
X50379150Y-77163129D01*
X50437000Y-77145000D01*
X50437000Y-82158405D01*
X50256006Y-82339400D01*
X49537175Y-82339400D01*
X49297007Y-82171233D01*
X49274601Y-82158710D01*
X48994932Y-82037686D01*
X48963923Y-82028736D01*
X48557994Y-81965895D01*
X48538565Y-81964400D01*
X47548850Y-81964400D01*
X47536016Y-81965050D01*
X47308994Y-81988110D01*
X47283850Y-81993271D01*
X46993062Y-82084398D01*
X46969469Y-82094510D01*
X46702944Y-82242248D01*
X46681867Y-82256897D01*
X46450493Y-82455208D01*
X46432791Y-82473797D01*
X46246018Y-82714583D01*
X46232416Y-82736351D01*
X46097875Y-83009775D01*
X46088928Y-83033833D01*
X46012114Y-83328725D01*
X46008187Y-83354092D01*
X45992239Y-83658407D01*
X43459537Y-83658407D01*
X43466561Y-83524393D01*
X43465307Y-83498756D01*
X43419739Y-83197451D01*
X43413356Y-83172589D01*
X43308132Y-82886599D01*
X43296879Y-82863529D01*
X43136299Y-82604540D01*
X43120638Y-82584203D01*
X42911260Y-82362792D01*
X42891829Y-82346020D01*
X42642207Y-82171233D01*
X42619801Y-82158710D01*
X42340132Y-82037686D01*
X42309123Y-82028736D01*
X41903194Y-81965895D01*
X41883765Y-81964400D01*
X40919450Y-81964400D01*
X40906616Y-81965050D01*
X40679594Y-81988110D01*
X40654450Y-81993271D01*
X40363662Y-82084398D01*
X40340069Y-82094510D01*
X40073544Y-82242248D01*
X40052467Y-82256897D01*
X39946175Y-82348000D01*
X34294934Y-82348000D01*
X34258630Y-82342477D01*
X34229233Y-82341450D01*
X34148707Y-82348000D01*
X34134315Y-82348000D01*
X34119607Y-82348855D01*
X34076709Y-82353857D01*
X33967764Y-82362718D01*
X33938921Y-82368481D01*
X33931982Y-82370729D01*
X33924725Y-82371575D01*
X33896100Y-82378342D01*
X33793316Y-82415651D01*
X33689356Y-82449329D01*
X33658812Y-82464474D01*
X33649508Y-82467851D01*
X33623209Y-82481021D01*
X33403824Y-82624856D01*
X33381258Y-82643723D01*
X33301740Y-82727664D01*
X30381405Y-85648000D01*
X28577000Y-85648000D01*
X28577000Y-80271400D01*
X34601466Y-80271400D01*
X34637770Y-80276923D01*
X34667167Y-80277950D01*
X34747692Y-80271400D01*
X34762085Y-80271400D01*
X34776792Y-80270546D01*
X34819717Y-80265541D01*
X34928635Y-80256682D01*
X34957480Y-80250918D01*
X34964415Y-80248671D01*
X34971674Y-80247825D01*
X35000301Y-80241058D01*
X35103110Y-80203740D01*
X35207042Y-80170071D01*
X35237575Y-80154931D01*
X35246888Y-80151551D01*
X35273191Y-80138379D01*
X35492576Y-79994544D01*
X35515142Y-79975677D01*
X35594677Y-79891718D01*
X38669397Y-76817000D01*
X41902825Y-76817000D01*
X42142993Y-76985167D01*
X42165399Y-76997690D01*
X42445068Y-77118714D01*
X42476077Y-77127664D01*
X42882006Y-77190505D01*
X42901435Y-77192000D01*
X44018150Y-77192000D01*
X44030984Y-77191350D01*
X44258006Y-77168290D01*
X44283150Y-77163129D01*
X44573938Y-77072002D01*
X44597531Y-77061890D01*
X44864056Y-76914152D01*
X44885133Y-76899503D01*
X45116507Y-76701192D01*
X45134209Y-76682603D01*
X45320982Y-76441817D01*
X45334584Y-76420049D01*
X45469125Y-76146625D01*
X45478072Y-76122567D01*
X45554886Y-75827675D01*
X45558813Y-75802308D01*
X45574761Y-75497993D01*
X45573507Y-75472356D01*
X45527939Y-75171051D01*
X45521556Y-75146189D01*
X45416332Y-74860199D01*
X45405079Y-74837129D01*
X45244499Y-74578140D01*
X45228838Y-74557803D01*
X45019460Y-74336392D01*
X45000029Y-74319620D01*
X44750407Y-74144833D01*
X44728001Y-74132310D01*
X44448332Y-74011286D01*
X44417323Y-74002336D01*
X44011394Y-73939495D01*
X43991965Y-73938000D01*
X42875250Y-73938000D01*
X42862416Y-73938650D01*
X42635394Y-73961710D01*
X42610250Y-73966871D01*
X42319462Y-74057998D01*
X42295869Y-74068110D01*
X42029344Y-74215848D01*
X42008267Y-74230498D01*
X41912010Y-74313000D01*
X38245734Y-74313000D01*
X38209431Y-74307477D01*
X38180033Y-74306450D01*
X38099507Y-74313000D01*
X38085115Y-74313000D01*
X38070407Y-74313855D01*
X38027509Y-74318857D01*
X37918564Y-74327718D01*
X37889721Y-74333481D01*
X37882782Y-74335729D01*
X37875525Y-74336575D01*
X37846900Y-74343342D01*
X37744116Y-74380651D01*
X37640156Y-74414329D01*
X37609612Y-74429474D01*
X37600308Y-74432851D01*
X37574009Y-74446021D01*
X37354624Y-74589856D01*
X37332058Y-74608723D01*
X37252558Y-74692645D01*
X34177805Y-77767400D01*
X28577000Y-77767400D01*
X28577000Y-72552000D01*
X30916266Y-72552000D01*
X30952570Y-72557523D01*
X30981967Y-72558550D01*
X31062492Y-72552000D01*
X31076885Y-72552000D01*
X31091592Y-72551146D01*
X31134517Y-72546141D01*
X31243435Y-72537282D01*
X31272280Y-72531518D01*
X31279215Y-72529271D01*
X31286474Y-72528425D01*
X31315101Y-72521658D01*
X31417910Y-72484340D01*
X31521842Y-72450671D01*
X31552375Y-72435531D01*
X31561688Y-72432151D01*
X31587991Y-72418979D01*
X31807376Y-72275144D01*
X31829942Y-72256277D01*
X31909477Y-72172318D01*
X33411596Y-70670200D01*
X41924576Y-70670200D01*
X42092193Y-70787567D01*
X42114599Y-70800090D01*
X42394268Y-70921114D01*
X42425277Y-70930064D01*
X42831206Y-70992905D01*
X42850635Y-70994400D01*
X43916550Y-70994400D01*
X43929384Y-70993750D01*
X44156406Y-70970690D01*
X44181550Y-70965529D01*
X44472338Y-70874402D01*
X44495931Y-70864290D01*
X44762456Y-70716552D01*
X44783533Y-70701903D01*
X45014907Y-70503592D01*
X45032609Y-70485003D01*
X45219382Y-70244217D01*
X45232984Y-70222449D01*
X45367525Y-69949025D01*
X45376472Y-69924967D01*
X45453286Y-69630075D01*
X45457213Y-69604708D01*
X45473161Y-69300393D01*
X45471907Y-69274756D01*
X45426339Y-68973451D01*
X45419956Y-68948589D01*
X45314732Y-68662599D01*
X45303479Y-68639529D01*
X45142899Y-68380540D01*
X45127238Y-68360203D01*
X44917860Y-68138792D01*
X44898429Y-68122020D01*
X44648807Y-67947233D01*
X44626401Y-67934710D01*
X44346732Y-67813686D01*
X44315723Y-67804736D01*
X43909794Y-67741895D01*
X43890365Y-67740400D01*
X42824450Y-67740400D01*
X42811616Y-67741050D01*
X42584594Y-67764110D01*
X42559450Y-67769271D01*
X42268662Y-67860398D01*
X42245069Y-67870510D01*
X41978544Y-68018248D01*
X41957467Y-68032897D01*
X41801939Y-68166200D01*
X32987934Y-68166200D01*
X32951630Y-68160677D01*
X32922233Y-68159650D01*
X32841707Y-68166200D01*
X32827315Y-68166200D01*
X32812607Y-68167055D01*
X32769709Y-68172057D01*
X32660764Y-68180918D01*
X32631921Y-68186681D01*
X32624982Y-68188929D01*
X32617725Y-68189775D01*
X32589100Y-68196542D01*
X32486316Y-68233851D01*
X32382356Y-68267529D01*
X32351812Y-68282674D01*
X32342508Y-68286051D01*
X32316209Y-68299221D01*
X32096824Y-68443056D01*
X32074258Y-68461923D01*
X31994758Y-68545845D01*
X30492605Y-70048000D01*
X28577000Y-70048000D01*
X28577000Y-64976990D01*
X30312476Y-64976990D01*
X30348780Y-64982513D01*
X30378177Y-64983540D01*
X30458702Y-64976990D01*
X30473095Y-64976990D01*
X30487802Y-64976136D01*
X30530727Y-64971131D01*
X30639645Y-64962272D01*
X30668490Y-64956508D01*
X30675425Y-64954261D01*
X30682684Y-64953415D01*
X30711311Y-64946648D01*
X30814120Y-64909330D01*
X30918052Y-64875661D01*
X30948585Y-64860521D01*
X30957898Y-64857141D01*
X30984201Y-64843969D01*
X31203586Y-64700134D01*
X31226152Y-64681267D01*
X31305686Y-64597309D01*
X32351197Y-63551799D01*
X43599467Y-63551799D01*
X43635771Y-63557322D01*
X43665168Y-63558349D01*
X43745693Y-63551799D01*
X43760086Y-63551799D01*
X43774793Y-63550945D01*
X43817718Y-63545940D01*
X43926636Y-63537081D01*
X43955481Y-63531317D01*
X43962416Y-63529070D01*
X43969675Y-63528224D01*
X43989450Y-63523550D01*
X44161406Y-63532561D01*
X44187043Y-63531307D01*
X44488348Y-63485739D01*
X44513210Y-63479356D01*
X44799200Y-63374132D01*
X44822270Y-63362879D01*
X45081259Y-63202299D01*
X45101596Y-63186638D01*
X45323008Y-62977260D01*
X45339780Y-62957829D01*
X45514567Y-62708207D01*
X45527090Y-62685801D01*
X45648114Y-62406132D01*
X45657064Y-62375123D01*
X45719905Y-61969194D01*
X45721400Y-61949765D01*
X45721400Y-60934651D01*
X45720750Y-60921817D01*
X45697690Y-60694794D01*
X45692529Y-60669650D01*
X45601402Y-60378862D01*
X45591290Y-60355269D01*
X45443552Y-60088744D01*
X45428903Y-60067667D01*
X45230592Y-59836293D01*
X45212003Y-59818591D01*
X44971217Y-59631818D01*
X44949449Y-59618216D01*
X44676025Y-59483675D01*
X44651967Y-59474728D01*
X44357075Y-59397914D01*
X44331708Y-59393987D01*
X44027394Y-59378039D01*
X44001757Y-59379293D01*
X43700452Y-59424861D01*
X43675590Y-59431244D01*
X43389600Y-59536468D01*
X43366530Y-59547721D01*
X43107541Y-59708301D01*
X43087204Y-59723962D01*
X42865792Y-59933340D01*
X42849020Y-59952771D01*
X42674233Y-60202393D01*
X42661710Y-60224799D01*
X42540686Y-60504468D01*
X42531736Y-60535477D01*
X42468895Y-60941406D01*
X42467400Y-60960835D01*
X42467400Y-61047799D01*
X31927535Y-61047799D01*
X31891232Y-61042276D01*
X31861834Y-61041249D01*
X31781308Y-61047799D01*
X31766916Y-61047799D01*
X31752208Y-61048654D01*
X31709310Y-61053656D01*
X31600365Y-61062517D01*
X31571522Y-61068280D01*
X31564583Y-61070528D01*
X31557326Y-61071374D01*
X31528701Y-61078141D01*
X31425922Y-61115448D01*
X31321956Y-61149128D01*
X31291420Y-61164270D01*
X31282111Y-61167649D01*
X31255810Y-61180820D01*
X31036425Y-61324655D01*
X31013859Y-61343522D01*
X30934341Y-61427463D01*
X29888815Y-62472990D01*
X28576881Y-62472990D01*
X28576064Y-57152000D01*
X31736666Y-57152000D01*
X31772970Y-57157523D01*
X31802367Y-57158550D01*
X31882892Y-57152000D01*
X31897285Y-57152000D01*
X31911992Y-57151146D01*
X31954917Y-57146141D01*
X32063835Y-57137282D01*
X32092680Y-57131518D01*
X32099615Y-57129271D01*
X32106874Y-57128425D01*
X32135501Y-57121658D01*
X32238310Y-57084340D01*
X32342242Y-57050671D01*
X32372775Y-57035531D01*
X32382088Y-57032151D01*
X32408391Y-57018979D01*
X32627776Y-56875144D01*
X32650342Y-56856277D01*
X32729877Y-56772318D01*
X35195998Y-54306199D01*
X44310667Y-54306199D01*
X44346971Y-54311722D01*
X44376368Y-54312749D01*
X44456893Y-54306199D01*
X44471286Y-54306199D01*
X44485993Y-54305345D01*
X44528918Y-54300340D01*
X44637836Y-54291481D01*
X44666681Y-54285717D01*
X44673616Y-54283470D01*
X44680875Y-54282624D01*
X44700650Y-54277950D01*
X44872606Y-54286961D01*
X44898243Y-54285707D01*
X45199548Y-54240139D01*
X45224410Y-54233756D01*
X45510400Y-54128532D01*
X45533470Y-54117279D01*
X45792459Y-53956699D01*
X45812796Y-53941038D01*
X46034208Y-53731660D01*
X46050980Y-53712229D01*
X46225767Y-53462607D01*
X46238290Y-53440201D01*
X46359314Y-53160532D01*
X46368264Y-53129523D01*
X46431105Y-52723594D01*
X46432600Y-52704165D01*
X46432600Y-51587450D01*
X46431950Y-51574616D01*
X46408890Y-51347594D01*
X46403729Y-51322450D01*
X46312602Y-51031662D01*
X46302490Y-51008069D01*
X46154752Y-50741544D01*
X46140103Y-50720467D01*
X45941792Y-50489093D01*
X45923203Y-50471391D01*
X45682417Y-50284618D01*
X45660649Y-50271016D01*
X45387225Y-50136475D01*
X45363167Y-50127528D01*
X45068275Y-50050714D01*
X45042908Y-50046787D01*
X44738594Y-50030839D01*
X44712957Y-50032093D01*
X44411652Y-50077661D01*
X44386790Y-50084044D01*
X44100800Y-50189268D01*
X44077730Y-50200521D01*
X43818741Y-50361101D01*
X43798404Y-50376762D01*
X43576993Y-50586140D01*
X43560221Y-50605571D01*
X43385433Y-50855193D01*
X43372910Y-50877599D01*
X43251886Y-51157268D01*
X43242936Y-51188277D01*
X43180095Y-51594206D01*
X43178600Y-51613635D01*
X43178600Y-51802199D01*
X34772335Y-51802199D01*
X34736032Y-51796676D01*
X34706634Y-51795649D01*
X34626108Y-51802199D01*
X34611716Y-51802199D01*
X34597008Y-51803054D01*
X34554110Y-51808056D01*
X34445165Y-51816917D01*
X34416322Y-51822680D01*
X34409383Y-51824928D01*
X34402126Y-51825774D01*
X34373501Y-51832541D01*
X34270722Y-51869848D01*
X34166756Y-51903528D01*
X34136220Y-51918670D01*
X34126911Y-51922049D01*
X34100610Y-51935220D01*
X33881225Y-52079055D01*
X33858659Y-52097922D01*
X33779159Y-52181844D01*
X31313005Y-54648000D01*
X28577000Y-54648000D01*
X28577000Y-48500000D01*
X28576633Y-48490356D01*
X28565101Y-48338928D01*
X28561414Y-48316739D01*
X28510698Y-48120862D01*
X28510014Y-48119014D01*
X28550706Y-47989318D01*
X28555878Y-47964147D01*
X28576348Y-47762848D01*
X28577000Y-47750000D01*
X28577000Y-41085400D01*
X45259655Y-41085400D01*
X45259655Y-42785400D01*
X45261735Y-42808292D01*
X45327196Y-43165501D01*
X45339663Y-43201629D01*
X45452518Y-43416657D01*
X45469910Y-43441854D01*
X45630946Y-43623626D01*
X45653863Y-43643928D01*
X45853719Y-43781879D01*
X45880829Y-43796107D01*
X46107893Y-43882220D01*
X46137619Y-43889547D01*
X46378692Y-43918819D01*
X46394000Y-43919745D01*
X48094000Y-43919745D01*
X48116892Y-43917665D01*
X48474101Y-43852204D01*
X48510229Y-43839737D01*
X48725257Y-43726882D01*
X48750454Y-43709490D01*
X48932226Y-43548454D01*
X48952528Y-43525537D01*
X49090479Y-43325681D01*
X49104707Y-43298571D01*
X49190820Y-43071507D01*
X49198147Y-43041781D01*
X49227419Y-42800708D01*
X49228345Y-42785400D01*
X49228345Y-41085400D01*
X49226265Y-41062508D01*
X49160804Y-40705299D01*
X49148337Y-40669171D01*
X49035482Y-40454143D01*
X49018090Y-40428947D01*
X48965488Y-40369571D01*
X49056198Y-40197160D01*
X49063557Y-40180316D01*
X49152956Y-39927160D01*
X49157807Y-39909430D01*
X49209724Y-39646020D01*
X49211964Y-39627776D01*
X49225314Y-39359631D01*
X49224897Y-39341254D01*
X49199397Y-39073991D01*
X49196331Y-39055867D01*
X49132518Y-38795083D01*
X49126869Y-38777591D01*
X49026079Y-38528752D01*
X49017963Y-38512259D01*
X48882306Y-38280575D01*
X48871895Y-38265427D01*
X48704215Y-38055753D01*
X48691726Y-38042266D01*
X48495534Y-37858993D01*
X48481228Y-37847450D01*
X48260634Y-37694419D01*
X48244813Y-37685062D01*
X48004439Y-37565478D01*
X47987432Y-37558503D01*
X47732314Y-37474871D01*
X47708230Y-37469499D01*
X47299775Y-37419347D01*
X47284298Y-37418400D01*
X47175806Y-37418400D01*
X47166615Y-37418733D01*
X46967036Y-37433214D01*
X46948848Y-37435867D01*
X46686684Y-37493747D01*
X46669068Y-37498999D01*
X46418005Y-37594119D01*
X46401332Y-37601858D01*
X46166631Y-37732223D01*
X46151251Y-37742288D01*
X45937826Y-37905168D01*
X45924058Y-37917348D01*
X45736382Y-38109332D01*
X45724518Y-38123372D01*
X45566522Y-38340436D01*
X45556809Y-38356041D01*
X45431802Y-38593640D01*
X45424443Y-38610484D01*
X45335044Y-38863640D01*
X45330193Y-38881370D01*
X45278276Y-39144780D01*
X45276036Y-39163024D01*
X45262686Y-39431169D01*
X45263103Y-39449546D01*
X45288603Y-39716809D01*
X45291669Y-39734933D01*
X45355482Y-39995717D01*
X45361131Y-40013209D01*
X45461921Y-40262048D01*
X45470037Y-40278541D01*
X45521206Y-40365931D01*
X45397521Y-40545119D01*
X45383293Y-40572229D01*
X45297180Y-40799293D01*
X45289853Y-40829019D01*
X45260581Y-41070092D01*
X45259655Y-41085400D01*
X28577000Y-41085400D01*
X28577000Y-40750000D01*
X28576633Y-40740356D01*
X28565101Y-40588928D01*
X28561414Y-40566739D01*
X28510698Y-40370862D01*
X28510014Y-40369014D01*
X28550706Y-40239318D01*
X28555878Y-40214147D01*
X28576348Y-40012848D01*
X28577000Y-40000000D01*
X28577000Y-33000000D01*
X28576633Y-32990356D01*
X28565101Y-32838928D01*
X28561414Y-32816739D01*
X28510698Y-32620862D01*
X28506478Y-32609468D01*
X28512800Y-32589319D01*
X28517973Y-32564147D01*
X28538443Y-32362848D01*
X28539095Y-32350000D01*
X28539095Y-25350000D01*
X28538728Y-25340356D01*
X28527196Y-25188928D01*
X28523509Y-25166740D01*
X28510637Y-25117026D01*
X28550706Y-24989318D01*
X28555878Y-24964147D01*
X28576348Y-24762848D01*
X28577000Y-24750000D01*
X28577000Y-17650000D01*
X28576633Y-17640356D01*
X28565101Y-17488928D01*
X28561414Y-17466739D01*
X28517219Y-17296049D01*
X28550706Y-17189318D01*
X28555878Y-17164147D01*
X28576348Y-16962848D01*
X28577000Y-16950000D01*
X28577000Y-16488800D01*
X44601655Y-16488800D01*
X44601655Y-19088800D01*
X44603735Y-19111692D01*
X44669196Y-19468901D01*
X44681663Y-19505029D01*
X44794518Y-19720057D01*
X44811910Y-19745254D01*
X44972946Y-19927026D01*
X44995863Y-19947328D01*
X45195719Y-20085279D01*
X45222829Y-20099507D01*
X45449893Y-20185620D01*
X45479619Y-20192947D01*
X45720692Y-20222219D01*
X45736000Y-20223145D01*
X47736000Y-20223145D01*
X47758892Y-20221065D01*
X48116101Y-20155604D01*
X48152229Y-20143137D01*
X48367257Y-20030282D01*
X48378691Y-20022390D01*
X48640595Y-20123713D01*
X48657741Y-20128988D01*
X48933656Y-20192942D01*
X48951375Y-20195748D01*
X49233548Y-20220187D01*
X49251485Y-20220469D01*
X49534286Y-20204905D01*
X49552083Y-20202657D01*
X49829870Y-20147402D01*
X49847174Y-20142668D01*
X50114404Y-20048823D01*
X50130867Y-20041699D01*
X50382209Y-19911138D01*
X50397506Y-19901764D01*
X50627944Y-19737090D01*
X50641766Y-19725655D01*
X50846702Y-19530156D01*
X50858775Y-19516888D01*
X51034121Y-19294463D01*
X51044205Y-19279626D01*
X51150384Y-19096825D01*
X51151735Y-19111692D01*
X51217196Y-19468901D01*
X51229663Y-19505029D01*
X51342518Y-19720057D01*
X51359910Y-19745254D01*
X51520946Y-19927026D01*
X51543863Y-19947328D01*
X51743719Y-20085279D01*
X51770829Y-20099507D01*
X51997893Y-20185620D01*
X52027619Y-20192947D01*
X52268692Y-20222219D01*
X52284000Y-20223145D01*
X54284000Y-20223145D01*
X54306892Y-20221065D01*
X54664101Y-20155604D01*
X54700229Y-20143137D01*
X54915257Y-20030282D01*
X54926691Y-20022390D01*
X55188595Y-20123713D01*
X55205741Y-20128988D01*
X55481656Y-20192942D01*
X55499375Y-20195748D01*
X55781548Y-20220187D01*
X55799485Y-20220469D01*
X56082286Y-20204905D01*
X56100083Y-20202657D01*
X56377870Y-20147402D01*
X56395174Y-20142668D01*
X56662404Y-20048823D01*
X56678867Y-20041699D01*
X56930209Y-19911138D01*
X56945506Y-19901764D01*
X57175944Y-19737090D01*
X57189766Y-19725655D01*
X57394702Y-19530156D01*
X57406775Y-19516888D01*
X57582121Y-19294463D01*
X57592205Y-19279626D01*
X57734461Y-19034714D01*
X57742353Y-19018604D01*
X57848682Y-18756089D01*
X57854225Y-18739028D01*
X57922505Y-18464152D01*
X57925777Y-18444493D01*
X57950526Y-18158735D01*
X57951000Y-18147777D01*
X57951000Y-17416658D01*
X57950683Y-17407688D01*
X57935787Y-17197308D01*
X57933259Y-17179548D01*
X57873648Y-16902663D01*
X57868643Y-16885436D01*
X57770612Y-16619712D01*
X57763230Y-16603362D01*
X57628737Y-16354102D01*
X57619124Y-16338955D01*
X57450851Y-16111133D01*
X57439201Y-16097493D01*
X57240507Y-15895652D01*
X57227050Y-15883788D01*
X57001898Y-15711958D01*
X56986905Y-15702109D01*
X56739787Y-15563717D01*
X56723555Y-15556079D01*
X56459405Y-15453887D01*
X56442259Y-15448612D01*
X56166344Y-15384658D01*
X56148625Y-15381852D01*
X55866452Y-15357413D01*
X55848515Y-15357131D01*
X55565714Y-15372695D01*
X55547917Y-15374943D01*
X55270130Y-15430198D01*
X55252826Y-15434932D01*
X54985596Y-15528777D01*
X54969132Y-15535901D01*
X54922506Y-15560121D01*
X54824281Y-15492321D01*
X54797171Y-15478093D01*
X54570107Y-15391980D01*
X54540381Y-15384653D01*
X54299308Y-15355381D01*
X54284000Y-15354455D01*
X52284000Y-15354455D01*
X52261108Y-15356535D01*
X51903899Y-15421996D01*
X51867771Y-15434463D01*
X51652743Y-15547318D01*
X51627546Y-15564710D01*
X51445774Y-15725746D01*
X51425472Y-15748663D01*
X51287521Y-15948519D01*
X51273293Y-15975629D01*
X51187180Y-16202693D01*
X51179853Y-16232419D01*
X51150581Y-16473492D01*
X51150034Y-16482532D01*
X51080737Y-16354102D01*
X51071124Y-16338955D01*
X50902851Y-16111133D01*
X50891201Y-16097493D01*
X50692507Y-15895652D01*
X50679050Y-15883788D01*
X50453898Y-15711958D01*
X50438905Y-15702109D01*
X50191787Y-15563717D01*
X50175555Y-15556079D01*
X49911405Y-15453887D01*
X49894259Y-15448612D01*
X49618344Y-15384658D01*
X49600625Y-15381852D01*
X49318452Y-15357413D01*
X49300515Y-15357131D01*
X49017714Y-15372695D01*
X48999917Y-15374943D01*
X48722130Y-15430198D01*
X48704826Y-15434932D01*
X48437596Y-15528777D01*
X48421132Y-15535901D01*
X48374506Y-15560121D01*
X48276281Y-15492321D01*
X48249171Y-15478093D01*
X48022107Y-15391980D01*
X47992381Y-15384653D01*
X47751308Y-15355381D01*
X47736000Y-15354455D01*
X45736000Y-15354455D01*
X45713108Y-15356535D01*
X45355899Y-15421996D01*
X45319771Y-15434463D01*
X45104743Y-15547318D01*
X45079546Y-15564710D01*
X44897774Y-15725746D01*
X44877472Y-15748663D01*
X44739521Y-15948519D01*
X44725293Y-15975629D01*
X44639180Y-16202693D01*
X44631853Y-16232419D01*
X44602581Y-16473492D01*
X44601655Y-16488800D01*
X28577000Y-16488800D01*
X28577000Y-9850000D01*
X28576633Y-9840356D01*
X28565101Y-9688928D01*
X28561414Y-9666739D01*
X28510698Y-9470862D01*
X28501773Y-9446764D01*
X28500592Y-9444357D01*
X28550706Y-9284632D01*
X28555878Y-9259461D01*
X28576348Y-9058162D01*
X28577000Y-9045314D01*
X28577000Y-2045314D01*
X28576633Y-2035670D01*
X28565101Y-1884242D01*
X28561414Y-1862053D01*
X28510698Y-1666176D01*
X28501773Y-1642079D01*
X28412665Y-1460420D01*
X28399073Y-1438613D01*
X28275222Y-1278610D01*
X28257517Y-1259984D01*
X28103992Y-1128188D01*
X28102285Y-1127000D01*
X54906289Y-1127000D01*
X54942996Y-1130567D01*
X54949629Y-1131036D01*
X55343726Y-1148587D01*
X55684746Y-1194392D01*
X56020310Y-1270323D01*
X56347836Y-1375794D01*
X56664675Y-1509959D01*
X56968311Y-1671744D01*
X57256398Y-1859904D01*
X57526594Y-2072911D01*
X57776790Y-2309097D01*
X58005009Y-2566597D01*
X58209420Y-2843347D01*
X58388434Y-3137196D01*
X58540612Y-3445780D01*
X58664752Y-3766661D01*
X58759884Y-4097338D01*
X58825240Y-4435144D01*
X58861217Y-4786283D01*
X58868313Y-5032599D01*
X58869332Y-5045409D01*
X58873000Y-5073460D01*
X58873001Y-94906277D01*
X58869433Y-94942995D01*
X58868964Y-94949628D01*
X58851413Y-95343726D01*
X58805608Y-95684746D01*
X58729677Y-96020312D01*
X58624206Y-96347836D01*
X58490041Y-96664675D01*
X58328256Y-96968311D01*
X58140095Y-97256399D01*
X57927092Y-97526590D01*
X57690904Y-97776790D01*
X57433403Y-98005009D01*
X57156652Y-98209421D01*
X56862804Y-98388434D01*
X56554218Y-98540613D01*
X56233322Y-98664758D01*
X55902660Y-98759885D01*
X55564864Y-98825240D01*
X55213717Y-98861217D01*
X54967400Y-98868313D01*
X54954590Y-98869332D01*
X54926539Y-98873000D01*
X5093712Y-98873000D01*
X5057005Y-98869433D01*
X5050372Y-98868964D01*
X4656274Y-98851413D01*
X4315254Y-98805608D01*
X3979688Y-98729677D01*
X3652164Y-98624206D01*
X3335325Y-98490041D01*
X3031689Y-98328256D01*
X2743601Y-98140095D01*
X2473410Y-97927092D01*
X2223210Y-97690904D01*
X1994991Y-97433403D01*
X1790579Y-97156652D01*
X1611566Y-96862804D01*
X1459387Y-96554218D01*
X1335242Y-96233322D01*
X1240115Y-95902660D01*
X1174760Y-95564864D01*
X1138783Y-95213717D01*
X1131687Y-94967400D01*
X1130668Y-94954590D01*
X1127000Y-94926539D01*
X1127000Y-94806091D01*
X1173001Y-94806091D01*
X1173001Y-95193909D01*
X1173697Y-95207184D01*
X1214235Y-95592877D01*
X1216314Y-95606007D01*
X1296945Y-95985349D01*
X1300386Y-95998189D01*
X1420229Y-96367026D01*
X1424993Y-96379436D01*
X1582732Y-96733725D01*
X1588767Y-96745570D01*
X1782676Y-97081430D01*
X1789916Y-97092579D01*
X2017869Y-97406330D01*
X2026235Y-97416661D01*
X2285736Y-97704865D01*
X2295135Y-97714264D01*
X2583339Y-97973765D01*
X2593670Y-97982131D01*
X2907421Y-98210084D01*
X2918570Y-98217324D01*
X3254430Y-98411233D01*
X3266275Y-98417268D01*
X3620564Y-98575007D01*
X3632974Y-98579771D01*
X4001811Y-98699614D01*
X4014651Y-98703055D01*
X4393993Y-98783686D01*
X4407123Y-98785765D01*
X4792816Y-98826303D01*
X4806091Y-98826999D01*
X5193909Y-98826999D01*
X5207184Y-98826303D01*
X5592877Y-98785765D01*
X5606007Y-98783686D01*
X5985349Y-98703055D01*
X5998189Y-98699614D01*
X6367026Y-98579771D01*
X6379436Y-98575007D01*
X6733725Y-98417268D01*
X6745570Y-98411233D01*
X7081430Y-98217324D01*
X7092579Y-98210084D01*
X7406330Y-97982131D01*
X7416661Y-97973765D01*
X7704865Y-97714264D01*
X7714264Y-97704865D01*
X7973765Y-97416661D01*
X7982131Y-97406330D01*
X8210084Y-97092579D01*
X8217324Y-97081430D01*
X8411233Y-96745570D01*
X8417268Y-96733725D01*
X8575007Y-96379436D01*
X8579771Y-96367026D01*
X8699614Y-95998189D01*
X8703055Y-95985349D01*
X8783686Y-95606007D01*
X8785765Y-95592877D01*
X8826303Y-95207184D01*
X8826999Y-95193909D01*
X8826999Y-94806091D01*
X8826303Y-94792816D01*
X8785765Y-94407123D01*
X8783686Y-94393993D01*
X8703055Y-94014651D01*
X8699614Y-94001811D01*
X8579771Y-93632974D01*
X8575007Y-93620564D01*
X8417268Y-93266275D01*
X8411233Y-93254430D01*
X8217324Y-92918570D01*
X8210084Y-92907421D01*
X7982131Y-92593670D01*
X7973765Y-92583339D01*
X7714264Y-92295135D01*
X7704865Y-92285736D01*
X7416661Y-92026235D01*
X7406330Y-92017869D01*
X7092579Y-91789916D01*
X7081430Y-91782676D01*
X6745570Y-91588767D01*
X6733725Y-91582732D01*
X6379436Y-91424993D01*
X6367026Y-91420229D01*
X5998189Y-91300386D01*
X5985349Y-91296945D01*
X5606007Y-91216314D01*
X5592877Y-91214235D01*
X5207184Y-91173697D01*
X5193909Y-91173001D01*
X4806091Y-91173001D01*
X4792816Y-91173697D01*
X4407123Y-91214235D01*
X4393993Y-91216314D01*
X4014651Y-91296945D01*
X4001811Y-91300386D01*
X3632974Y-91420229D01*
X3620564Y-91424993D01*
X3266275Y-91582732D01*
X3254430Y-91588767D01*
X2918570Y-91782676D01*
X2907421Y-91789916D01*
X2593670Y-92017869D01*
X2583339Y-92026235D01*
X2295135Y-92285736D01*
X2285736Y-92295135D01*
X2026235Y-92583339D01*
X2017869Y-92593670D01*
X1789916Y-92907421D01*
X1782676Y-92918570D01*
X1588767Y-93254430D01*
X1582732Y-93266275D01*
X1424993Y-93620564D01*
X1420229Y-93632974D01*
X1300386Y-94001811D01*
X1296945Y-94014651D01*
X1216314Y-94393993D01*
X1214235Y-94407123D01*
X1173697Y-94792816D01*
X1173001Y-94806091D01*
X1127000Y-94806091D01*
X1127000Y-83649312D01*
X2537861Y-83649312D01*
X2548825Y-83720027D01*
X2596280Y-83773589D01*
X2663760Y-83793000D01*
X3746000Y-83793000D01*
X3814661Y-83772839D01*
X3861523Y-83718758D01*
X3873000Y-83666000D01*
X3873000Y-82590756D01*
X4127000Y-82590756D01*
X4127000Y-83666000D01*
X4147161Y-83734661D01*
X4201242Y-83781523D01*
X4254000Y-83793000D01*
X5334306Y-83793000D01*
X5402967Y-83772839D01*
X5449829Y-83718758D01*
X5458599Y-83639921D01*
X5429718Y-83502275D01*
X5423547Y-83481705D01*
X5338896Y-83267354D01*
X5329348Y-83248119D01*
X5209791Y-83051095D01*
X5197138Y-83033743D01*
X5046094Y-82859680D01*
X5030698Y-82844708D01*
X4852485Y-82698583D01*
X4834787Y-82686420D01*
X4634502Y-82572411D01*
X4615007Y-82563403D01*
X4398376Y-82484770D01*
X4371731Y-82478250D01*
X4270687Y-82464857D01*
X4199972Y-82475821D01*
X4146411Y-82523276D01*
X4127000Y-82590756D01*
X3873000Y-82590756D01*
X3873000Y-82582900D01*
X3852839Y-82514239D01*
X3798758Y-82467377D01*
X3714095Y-82459973D01*
X3515390Y-82511546D01*
X3495134Y-82518679D01*
X3285008Y-82613334D01*
X3266243Y-82623778D01*
X3075070Y-82752483D01*
X3058334Y-82765940D01*
X2891580Y-82925016D01*
X2877350Y-82941099D01*
X2739782Y-83125997D01*
X2728466Y-83144249D01*
X2624018Y-83349683D01*
X2615938Y-83369580D01*
X2547597Y-83589674D01*
X2542986Y-83610647D01*
X2537861Y-83649312D01*
X1127000Y-83649312D01*
X1127000Y-70109312D01*
X2537861Y-70109312D01*
X2548825Y-70180027D01*
X2596280Y-70233589D01*
X2663760Y-70253000D01*
X3746000Y-70253000D01*
X3814661Y-70232839D01*
X3861523Y-70178758D01*
X3873000Y-70126000D01*
X3873000Y-69050756D01*
X4127000Y-69050756D01*
X4127000Y-70126000D01*
X4147161Y-70194661D01*
X4201242Y-70241523D01*
X4254000Y-70253000D01*
X5334306Y-70253000D01*
X5402967Y-70232839D01*
X5449829Y-70178758D01*
X5458599Y-70099921D01*
X5429718Y-69962275D01*
X5423547Y-69941705D01*
X5338896Y-69727354D01*
X5329348Y-69708119D01*
X5209791Y-69511095D01*
X5197138Y-69493743D01*
X5046094Y-69319680D01*
X5030698Y-69304708D01*
X4852485Y-69158583D01*
X4834787Y-69146420D01*
X4634502Y-69032411D01*
X4615007Y-69023403D01*
X4398376Y-68944770D01*
X4371731Y-68938250D01*
X4270687Y-68924857D01*
X4199972Y-68935821D01*
X4146411Y-68983276D01*
X4127000Y-69050756D01*
X3873000Y-69050756D01*
X3873000Y-69042900D01*
X3852839Y-68974239D01*
X3798758Y-68927377D01*
X3714095Y-68919973D01*
X3515390Y-68971546D01*
X3495134Y-68978679D01*
X3285008Y-69073334D01*
X3266243Y-69083778D01*
X3075070Y-69212483D01*
X3058334Y-69225940D01*
X2891580Y-69385016D01*
X2877350Y-69401099D01*
X2739782Y-69585997D01*
X2728466Y-69604249D01*
X2624018Y-69809683D01*
X2615938Y-69829580D01*
X2547597Y-70049674D01*
X2542986Y-70070647D01*
X2537861Y-70109312D01*
X1127000Y-70109312D01*
X1127000Y-5093711D01*
X1130567Y-5057004D01*
X1131036Y-5050371D01*
X1141914Y-4806091D01*
X1173001Y-4806091D01*
X1173001Y-5193909D01*
X1173697Y-5207184D01*
X1214235Y-5592877D01*
X1216314Y-5606007D01*
X1296945Y-5985349D01*
X1300386Y-5998189D01*
X1420229Y-6367026D01*
X1424993Y-6379436D01*
X1582732Y-6733725D01*
X1588767Y-6745570D01*
X1782676Y-7081430D01*
X1789916Y-7092579D01*
X2017869Y-7406330D01*
X2026235Y-7416661D01*
X2285736Y-7704865D01*
X2295135Y-7714264D01*
X2583339Y-7973765D01*
X2593670Y-7982131D01*
X2907421Y-8210084D01*
X2918570Y-8217324D01*
X3254430Y-8411233D01*
X3266275Y-8417268D01*
X3620564Y-8575007D01*
X3632974Y-8579771D01*
X4001811Y-8699614D01*
X4014651Y-8703055D01*
X4393993Y-8783686D01*
X4407123Y-8785765D01*
X4792816Y-8826303D01*
X4806091Y-8826999D01*
X5193909Y-8826999D01*
X5207184Y-8826303D01*
X5592877Y-8785765D01*
X5606007Y-8783686D01*
X5985349Y-8703055D01*
X5998189Y-8699614D01*
X6367026Y-8579771D01*
X6379436Y-8575007D01*
X6733725Y-8417268D01*
X6745570Y-8411233D01*
X7081430Y-8217324D01*
X7092579Y-8210084D01*
X7406330Y-7982131D01*
X7416661Y-7973765D01*
X7704865Y-7714264D01*
X7714264Y-7704865D01*
X7973765Y-7416661D01*
X7982131Y-7406330D01*
X8210084Y-7092579D01*
X8217324Y-7081430D01*
X8411233Y-6745570D01*
X8417268Y-6733725D01*
X8575007Y-6379436D01*
X8579771Y-6367026D01*
X8699614Y-5998189D01*
X8703055Y-5985349D01*
X8783686Y-5606007D01*
X8785765Y-5592877D01*
X8826303Y-5207184D01*
X8826999Y-5193909D01*
X8826999Y-4806091D01*
X8826303Y-4792816D01*
X8785765Y-4407123D01*
X8783686Y-4393993D01*
X8703055Y-4014651D01*
X8699614Y-4001811D01*
X8579771Y-3632974D01*
X8575007Y-3620564D01*
X8417268Y-3266275D01*
X8411233Y-3254430D01*
X8217324Y-2918570D01*
X8210084Y-2907421D01*
X7982131Y-2593670D01*
X7973765Y-2583339D01*
X7714264Y-2295135D01*
X7704865Y-2285736D01*
X7416661Y-2026235D01*
X7406330Y-2017869D01*
X7092579Y-1789916D01*
X7081430Y-1782676D01*
X6745570Y-1588767D01*
X6733725Y-1582732D01*
X6379436Y-1424993D01*
X6367026Y-1420229D01*
X5998189Y-1300386D01*
X5985349Y-1296945D01*
X5606007Y-1216314D01*
X5592877Y-1214235D01*
X5207184Y-1173697D01*
X5193909Y-1173001D01*
X4806091Y-1173001D01*
X4792816Y-1173697D01*
X4407123Y-1214235D01*
X4393993Y-1216314D01*
X4014651Y-1296945D01*
X4001811Y-1300386D01*
X3632974Y-1420229D01*
X3620564Y-1424993D01*
X3266275Y-1582732D01*
X3254430Y-1588767D01*
X2918570Y-1782676D01*
X2907421Y-1789916D01*
X2593670Y-2017869D01*
X2583339Y-2026235D01*
X2295135Y-2285736D01*
X2285736Y-2295135D01*
X2026235Y-2583339D01*
X2017869Y-2593670D01*
X1789916Y-2907421D01*
X1782676Y-2918570D01*
X1588767Y-3254430D01*
X1582732Y-3266275D01*
X1424993Y-3620564D01*
X1420229Y-3632974D01*
X1300386Y-4001811D01*
X1296945Y-4014651D01*
X1216314Y-4393993D01*
X1214235Y-4407123D01*
X1173697Y-4792816D01*
X1173001Y-4806091D01*
X1141914Y-4806091D01*
X1148587Y-4656274D01*
X1194392Y-4315254D01*
X1270323Y-3979690D01*
X1375794Y-3652164D01*
X1509959Y-3335325D01*
X1671744Y-3031689D01*
X1859904Y-2743602D01*
X2072911Y-2473406D01*
X2309097Y-2223210D01*
X2566597Y-1994991D01*
X2843347Y-1790580D01*
X3137196Y-1611566D01*
X3445780Y-1459388D01*
X3766661Y-1335248D01*
X4097338Y-1240116D01*
X4435144Y-1174760D01*
X4786283Y-1138783D01*
X5032599Y-1131687D01*
X5045409Y-1130668D01*
X5073460Y-1127000D01*
X11303561Y-1127000D01*
X11183296Y-1220092D01*
X11183296Y-1220092D01*
G37*
X11183296Y-1220092D02*
X11164670Y-1237797D01*
X11032874Y-1391322D01*
X11018195Y-1412412D01*
X10920000Y-1589324D01*
X10909866Y-1612939D01*
X10849294Y-1805996D01*
X10844122Y-1831167D01*
X10823652Y-2032466D01*
X10823000Y-2045314D01*
X10823000Y-9045314D01*
X10823367Y-9054958D01*
X10834899Y-9206386D01*
X10838586Y-9228575D01*
X10889302Y-9424452D01*
X10898227Y-9448550D01*
X10899408Y-9450957D01*
X10849294Y-9610682D01*
X10844122Y-9635853D01*
X10823652Y-9837152D01*
X10823000Y-9850000D01*
X10823000Y-17000000D01*
X10823382Y-17009847D01*
X10835407Y-17164463D01*
X10839183Y-17186846D01*
X10875770Y-17326296D01*
X10849294Y-17410682D01*
X10844122Y-17435853D01*
X10823652Y-17637152D01*
X10823000Y-17650000D01*
X10823000Y-24750000D01*
X10823367Y-24759644D01*
X10834899Y-24911072D01*
X10838586Y-24933261D01*
X10868625Y-25049279D01*
X10848883Y-25112584D01*
X10843754Y-25137763D01*
X10823631Y-25339097D01*
X10823001Y-25351947D01*
X10835096Y-32351947D01*
X10835471Y-32361482D01*
X10847002Y-32511182D01*
X10850681Y-32533261D01*
X10882314Y-32655438D01*
X10849294Y-32760682D01*
X10844122Y-32785853D01*
X10823652Y-32987152D01*
X10823000Y-33000000D01*
X10823000Y-40000000D01*
X10823367Y-40009644D01*
X10834899Y-40161072D01*
X10838586Y-40183261D01*
X10889302Y-40379138D01*
X10889986Y-40380986D01*
X10849294Y-40510682D01*
X10844122Y-40535853D01*
X10823652Y-40737152D01*
X10823000Y-40750000D01*
X10823000Y-47750000D01*
X10823367Y-47759644D01*
X10834899Y-47911072D01*
X10838586Y-47933261D01*
X10889302Y-48129138D01*
X10889986Y-48130986D01*
X10849294Y-48260682D01*
X10844122Y-48285853D01*
X10823652Y-48487152D01*
X10823000Y-48500000D01*
X10823000Y-54648000D01*
X5823575Y-54648000D01*
X5719088Y-54574838D01*
X5846479Y-54390281D01*
X5860707Y-54363171D01*
X5946820Y-54136107D01*
X5954147Y-54106381D01*
X5983419Y-53865308D01*
X5984345Y-53850000D01*
X5984345Y-52150000D01*
X5982265Y-52127108D01*
X5916804Y-51769899D01*
X5904337Y-51733771D01*
X5791482Y-51518743D01*
X5774090Y-51493547D01*
X5721488Y-51434171D01*
X5812198Y-51261760D01*
X5819557Y-51244916D01*
X5908956Y-50991760D01*
X5913807Y-50974030D01*
X5965724Y-50710620D01*
X5967964Y-50692376D01*
X5981314Y-50424231D01*
X5980897Y-50405854D01*
X5955397Y-50138591D01*
X5952331Y-50120467D01*
X5888518Y-49859683D01*
X5882869Y-49842191D01*
X5782079Y-49593352D01*
X5773963Y-49576859D01*
X5638306Y-49345175D01*
X5627895Y-49330027D01*
X5518482Y-49193212D01*
X5519482Y-49192028D01*
X5677478Y-48974964D01*
X5687191Y-48959359D01*
X5812198Y-48721760D01*
X5819557Y-48704916D01*
X5908956Y-48451760D01*
X5913807Y-48434030D01*
X5965724Y-48170620D01*
X5967964Y-48152376D01*
X5981314Y-47884231D01*
X5980897Y-47865854D01*
X5955397Y-47598591D01*
X5952331Y-47580467D01*
X5888518Y-47319683D01*
X5882869Y-47302191D01*
X5782079Y-47053352D01*
X5773963Y-47036859D01*
X5638306Y-46805175D01*
X5627895Y-46790027D01*
X5518482Y-46653212D01*
X5519482Y-46652028D01*
X5677478Y-46434964D01*
X5687191Y-46419359D01*
X5812198Y-46181760D01*
X5819557Y-46164916D01*
X5908956Y-45911760D01*
X5913807Y-45894030D01*
X5965724Y-45630620D01*
X5967964Y-45612376D01*
X5981314Y-45344231D01*
X5980897Y-45325854D01*
X5955397Y-45058591D01*
X5952331Y-45040467D01*
X5888518Y-44779683D01*
X5882869Y-44762191D01*
X5782079Y-44513352D01*
X5773963Y-44496859D01*
X5638306Y-44265175D01*
X5627895Y-44250027D01*
X5518482Y-44113212D01*
X5519482Y-44112028D01*
X5677478Y-43894964D01*
X5687191Y-43879359D01*
X5812198Y-43641760D01*
X5819557Y-43624916D01*
X5908956Y-43371760D01*
X5913807Y-43354030D01*
X5965724Y-43090620D01*
X5967964Y-43072376D01*
X5981314Y-42804231D01*
X5980897Y-42785854D01*
X5955397Y-42518591D01*
X5952331Y-42500467D01*
X5888518Y-42239683D01*
X5882869Y-42222191D01*
X5782079Y-41973352D01*
X5773963Y-41956859D01*
X5638306Y-41725175D01*
X5627895Y-41710027D01*
X5518482Y-41573212D01*
X5519482Y-41572028D01*
X5677478Y-41354964D01*
X5687191Y-41339359D01*
X5812198Y-41101760D01*
X5819557Y-41084916D01*
X5908956Y-40831760D01*
X5913807Y-40814030D01*
X5965724Y-40550620D01*
X5967964Y-40532376D01*
X5981314Y-40264231D01*
X5980897Y-40245854D01*
X5955397Y-39978591D01*
X5952331Y-39960467D01*
X5888518Y-39699683D01*
X5882869Y-39682191D01*
X5782079Y-39433352D01*
X5773963Y-39416859D01*
X5638306Y-39185175D01*
X5627895Y-39170027D01*
X5518482Y-39033212D01*
X5519482Y-39032028D01*
X5677478Y-38814964D01*
X5687191Y-38799359D01*
X5812198Y-38561760D01*
X5819557Y-38544916D01*
X5908956Y-38291760D01*
X5913807Y-38274030D01*
X5965724Y-38010620D01*
X5967964Y-37992376D01*
X5981314Y-37724231D01*
X5980897Y-37705854D01*
X5955397Y-37438591D01*
X5952331Y-37420467D01*
X5888518Y-37159683D01*
X5882869Y-37142191D01*
X5782079Y-36893352D01*
X5773963Y-36876859D01*
X5638306Y-36645175D01*
X5627895Y-36630027D01*
X5518482Y-36493212D01*
X5519482Y-36492028D01*
X5677478Y-36274964D01*
X5687191Y-36259359D01*
X5812198Y-36021760D01*
X5819557Y-36004916D01*
X5908956Y-35751760D01*
X5913807Y-35734030D01*
X5965724Y-35470620D01*
X5967964Y-35452376D01*
X5981314Y-35184231D01*
X5980897Y-35165854D01*
X5955397Y-34898591D01*
X5952331Y-34880467D01*
X5888518Y-34619683D01*
X5882869Y-34602191D01*
X5782079Y-34353352D01*
X5773963Y-34336859D01*
X5638306Y-34105175D01*
X5627895Y-34090027D01*
X5518482Y-33953212D01*
X5519482Y-33952028D01*
X5677478Y-33734964D01*
X5687191Y-33719359D01*
X5812198Y-33481760D01*
X5819557Y-33464916D01*
X5908956Y-33211760D01*
X5913807Y-33194030D01*
X5965724Y-32930620D01*
X5967964Y-32912376D01*
X5981314Y-32644231D01*
X5980897Y-32625854D01*
X5955397Y-32358591D01*
X5952331Y-32340467D01*
X5888518Y-32079683D01*
X5882869Y-32062191D01*
X5782079Y-31813352D01*
X5773963Y-31796859D01*
X5638306Y-31565175D01*
X5627895Y-31550027D01*
X5518482Y-31413212D01*
X5519482Y-31412028D01*
X5677478Y-31194964D01*
X5687191Y-31179359D01*
X5812198Y-30941760D01*
X5819557Y-30924916D01*
X5908956Y-30671760D01*
X5913807Y-30654030D01*
X5965724Y-30390620D01*
X5967964Y-30372376D01*
X5981314Y-30104231D01*
X5980897Y-30085854D01*
X5955397Y-29818591D01*
X5952331Y-29800467D01*
X5888518Y-29539683D01*
X5882869Y-29522191D01*
X5782079Y-29273352D01*
X5773963Y-29256859D01*
X5638306Y-29025175D01*
X5627895Y-29010027D01*
X5518482Y-28873212D01*
X5519482Y-28872028D01*
X5677478Y-28654964D01*
X5687191Y-28639359D01*
X5812198Y-28401760D01*
X5819557Y-28384916D01*
X5908956Y-28131760D01*
X5913807Y-28114030D01*
X5965724Y-27850620D01*
X5967964Y-27832376D01*
X5981314Y-27564231D01*
X5980897Y-27545854D01*
X5955397Y-27278591D01*
X5952331Y-27260467D01*
X5888518Y-26999683D01*
X5882869Y-26982191D01*
X5782079Y-26733352D01*
X5773963Y-26716859D01*
X5638306Y-26485175D01*
X5627895Y-26470027D01*
X5518482Y-26333212D01*
X5519482Y-26332028D01*
X5677478Y-26114964D01*
X5687191Y-26099359D01*
X5812198Y-25861760D01*
X5819557Y-25844916D01*
X5908956Y-25591760D01*
X5913807Y-25574030D01*
X5965724Y-25310620D01*
X5967964Y-25292376D01*
X5981314Y-25024231D01*
X5980897Y-25005854D01*
X5955397Y-24738591D01*
X5952331Y-24720467D01*
X5888518Y-24459683D01*
X5882869Y-24442191D01*
X5782079Y-24193352D01*
X5773963Y-24176859D01*
X5638306Y-23945175D01*
X5627895Y-23930027D01*
X5518482Y-23793212D01*
X5519482Y-23792028D01*
X5677478Y-23574964D01*
X5687191Y-23559359D01*
X5812198Y-23321760D01*
X5819557Y-23304916D01*
X5908956Y-23051760D01*
X5913807Y-23034030D01*
X5965724Y-22770620D01*
X5967964Y-22752376D01*
X5981314Y-22484231D01*
X5980897Y-22465854D01*
X5955397Y-22198591D01*
X5952331Y-22180467D01*
X5888518Y-21919683D01*
X5882869Y-21902191D01*
X5782079Y-21653352D01*
X5773963Y-21636859D01*
X5638306Y-21405175D01*
X5627895Y-21390027D01*
X5460215Y-21180353D01*
X5447726Y-21166866D01*
X5251534Y-20983593D01*
X5237228Y-20972050D01*
X5016634Y-20819019D01*
X5000813Y-20809662D01*
X4760439Y-20690078D01*
X4743432Y-20683103D01*
X4488314Y-20599471D01*
X4464230Y-20594099D01*
X4055775Y-20543947D01*
X4040298Y-20543000D01*
X3931806Y-20543000D01*
X3922615Y-20543333D01*
X3723036Y-20557814D01*
X3704848Y-20560467D01*
X3442684Y-20618347D01*
X3425068Y-20623599D01*
X3174005Y-20718719D01*
X3157332Y-20726458D01*
X2922631Y-20856823D01*
X2907251Y-20866888D01*
X2693826Y-21029768D01*
X2680058Y-21041948D01*
X2492382Y-21233932D01*
X2480518Y-21247972D01*
X2322522Y-21465036D01*
X2312809Y-21480641D01*
X2187802Y-21718240D01*
X2180443Y-21735084D01*
X2091044Y-21988240D01*
X2086193Y-22005970D01*
X2034276Y-22269380D01*
X2032036Y-22287624D01*
X2018686Y-22555769D01*
X2019103Y-22574146D01*
X2044603Y-22841409D01*
X2047669Y-22859533D01*
X2111482Y-23120317D01*
X2117131Y-23137809D01*
X2217921Y-23386648D01*
X2226037Y-23403141D01*
X2361694Y-23634825D01*
X2372105Y-23649973D01*
X2481518Y-23786788D01*
X2480518Y-23787972D01*
X2322522Y-24005036D01*
X2312809Y-24020641D01*
X2187802Y-24258240D01*
X2180443Y-24275084D01*
X2091044Y-24528240D01*
X2086193Y-24545970D01*
X2034276Y-24809380D01*
X2032036Y-24827624D01*
X2018686Y-25095769D01*
X2019103Y-25114146D01*
X2044603Y-25381409D01*
X2047669Y-25399533D01*
X2111482Y-25660317D01*
X2117131Y-25677809D01*
X2217921Y-25926648D01*
X2226037Y-25943141D01*
X2361694Y-26174825D01*
X2372105Y-26189973D01*
X2481518Y-26326788D01*
X2480518Y-26327972D01*
X2322522Y-26545036D01*
X2312809Y-26560641D01*
X2187802Y-26798240D01*
X2180443Y-26815084D01*
X2091044Y-27068240D01*
X2086193Y-27085970D01*
X2034276Y-27349380D01*
X2032036Y-27367624D01*
X2018686Y-27635769D01*
X2019103Y-27654146D01*
X2044603Y-27921409D01*
X2047669Y-27939533D01*
X2111482Y-28200317D01*
X2117131Y-28217809D01*
X2217921Y-28466648D01*
X2226037Y-28483141D01*
X2361694Y-28714825D01*
X2372105Y-28729973D01*
X2481518Y-28866788D01*
X2480518Y-28867972D01*
X2322522Y-29085036D01*
X2312809Y-29100641D01*
X2187802Y-29338240D01*
X2180443Y-29355084D01*
X2091044Y-29608240D01*
X2086193Y-29625970D01*
X2034276Y-29889380D01*
X2032036Y-29907624D01*
X2018686Y-30175769D01*
X2019103Y-30194146D01*
X2044603Y-30461409D01*
X2047669Y-30479533D01*
X2111482Y-30740317D01*
X2117131Y-30757809D01*
X2217921Y-31006648D01*
X2226037Y-31023141D01*
X2361694Y-31254825D01*
X2372105Y-31269973D01*
X2481518Y-31406788D01*
X2480518Y-31407972D01*
X2322522Y-31625036D01*
X2312809Y-31640641D01*
X2187802Y-31878240D01*
X2180443Y-31895084D01*
X2091044Y-32148240D01*
X2086193Y-32165970D01*
X2034276Y-32429380D01*
X2032036Y-32447624D01*
X2018686Y-32715769D01*
X2019103Y-32734146D01*
X2044603Y-33001409D01*
X2047669Y-33019533D01*
X2111482Y-33280317D01*
X2117131Y-33297809D01*
X2217921Y-33546648D01*
X2226037Y-33563141D01*
X2361694Y-33794825D01*
X2372105Y-33809973D01*
X2481518Y-33946788D01*
X2480518Y-33947972D01*
X2322522Y-34165036D01*
X2312809Y-34180641D01*
X2187802Y-34418240D01*
X2180443Y-34435084D01*
X2091044Y-34688240D01*
X2086193Y-34705970D01*
X2034276Y-34969380D01*
X2032036Y-34987624D01*
X2018686Y-35255769D01*
X2019103Y-35274146D01*
X2044603Y-35541409D01*
X2047669Y-35559533D01*
X2111482Y-35820317D01*
X2117131Y-35837809D01*
X2217921Y-36086648D01*
X2226037Y-36103141D01*
X2361694Y-36334825D01*
X2372105Y-36349973D01*
X2481518Y-36486788D01*
X2480518Y-36487972D01*
X2322522Y-36705036D01*
X2312809Y-36720641D01*
X2187802Y-36958240D01*
X2180443Y-36975084D01*
X2091044Y-37228240D01*
X2086193Y-37245970D01*
X2034276Y-37509380D01*
X2032036Y-37527624D01*
X2018686Y-37795769D01*
X2019103Y-37814146D01*
X2044603Y-38081409D01*
X2047669Y-38099533D01*
X2111482Y-38360317D01*
X2117131Y-38377809D01*
X2217921Y-38626648D01*
X2226037Y-38643141D01*
X2361694Y-38874825D01*
X2372105Y-38889973D01*
X2481518Y-39026788D01*
X2480518Y-39027972D01*
X2322522Y-39245036D01*
X2312809Y-39260641D01*
X2187802Y-39498240D01*
X2180443Y-39515084D01*
X2091044Y-39768240D01*
X2086193Y-39785970D01*
X2034276Y-40049380D01*
X2032036Y-40067624D01*
X2018686Y-40335769D01*
X2019103Y-40354146D01*
X2044603Y-40621409D01*
X2047669Y-40639533D01*
X2111482Y-40900317D01*
X2117131Y-40917809D01*
X2217921Y-41166648D01*
X2226037Y-41183141D01*
X2361694Y-41414825D01*
X2372105Y-41429973D01*
X2481518Y-41566788D01*
X2480518Y-41567972D01*
X2322522Y-41785036D01*
X2312809Y-41800641D01*
X2187802Y-42038240D01*
X2180443Y-42055084D01*
X2091044Y-42308240D01*
X2086193Y-42325970D01*
X2034276Y-42589380D01*
X2032036Y-42607624D01*
X2018686Y-42875769D01*
X2019103Y-42894146D01*
X2044603Y-43161409D01*
X2047669Y-43179533D01*
X2111482Y-43440317D01*
X2117131Y-43457809D01*
X2217921Y-43706648D01*
X2226037Y-43723141D01*
X2361694Y-43954825D01*
X2372105Y-43969973D01*
X2481518Y-44106788D01*
X2480518Y-44107972D01*
X2322522Y-44325036D01*
X2312809Y-44340641D01*
X2187802Y-44578240D01*
X2180443Y-44595084D01*
X2091044Y-44848240D01*
X2086193Y-44865970D01*
X2034276Y-45129380D01*
X2032036Y-45147624D01*
X2018686Y-45415769D01*
X2019103Y-45434146D01*
X2044603Y-45701409D01*
X2047669Y-45719533D01*
X2111482Y-45980317D01*
X2117131Y-45997809D01*
X2217921Y-46246648D01*
X2226037Y-46263141D01*
X2361694Y-46494825D01*
X2372105Y-46509973D01*
X2481518Y-46646788D01*
X2480518Y-46647972D01*
X2322522Y-46865036D01*
X2312809Y-46880641D01*
X2187802Y-47118240D01*
X2180443Y-47135084D01*
X2091044Y-47388240D01*
X2086193Y-47405970D01*
X2034276Y-47669380D01*
X2032036Y-47687624D01*
X2018686Y-47955769D01*
X2019103Y-47974146D01*
X2044603Y-48241409D01*
X2047669Y-48259533D01*
X2111482Y-48520317D01*
X2117131Y-48537809D01*
X2217921Y-48786648D01*
X2226037Y-48803141D01*
X2361694Y-49034825D01*
X2372105Y-49049973D01*
X2481518Y-49186788D01*
X2480518Y-49187972D01*
X2322522Y-49405036D01*
X2312809Y-49420641D01*
X2187802Y-49658240D01*
X2180443Y-49675084D01*
X2091044Y-49928240D01*
X2086193Y-49945970D01*
X2034276Y-50209380D01*
X2032036Y-50227624D01*
X2018686Y-50495769D01*
X2019103Y-50514146D01*
X2044603Y-50781409D01*
X2047669Y-50799533D01*
X2111482Y-51060317D01*
X2117131Y-51077809D01*
X2217921Y-51326648D01*
X2226037Y-51343141D01*
X2277206Y-51430531D01*
X2153521Y-51609719D01*
X2139293Y-51636829D01*
X2053180Y-51863893D01*
X2045853Y-51893619D01*
X2016581Y-52134692D01*
X2015655Y-52150000D01*
X2015655Y-53850000D01*
X2017735Y-53872892D01*
X2083196Y-54230101D01*
X2095663Y-54266229D01*
X2208518Y-54481257D01*
X2225910Y-54506454D01*
X2386946Y-54688226D01*
X2409863Y-54708528D01*
X2609719Y-54846479D01*
X2626324Y-54855194D01*
X2496018Y-55023183D01*
X2482416Y-55044951D01*
X2347875Y-55318375D01*
X2338928Y-55342433D01*
X2262114Y-55637325D01*
X2258187Y-55662692D01*
X2242239Y-55967007D01*
X2243493Y-55992644D01*
X2289061Y-56293949D01*
X2295444Y-56318811D01*
X2400668Y-56604801D01*
X2411921Y-56627871D01*
X2572501Y-56886860D01*
X2588162Y-56907197D01*
X2797540Y-57128608D01*
X2816971Y-57145380D01*
X3066593Y-57320167D01*
X3088999Y-57332690D01*
X3368668Y-57453714D01*
X3399677Y-57462664D01*
X3590130Y-57492148D01*
X3515390Y-57511546D01*
X3495134Y-57518679D01*
X3285008Y-57613334D01*
X3266243Y-57623778D01*
X3075070Y-57752483D01*
X3058334Y-57765940D01*
X2891580Y-57925016D01*
X2877350Y-57941099D01*
X2739782Y-58125997D01*
X2728466Y-58144249D01*
X2624018Y-58349683D01*
X2615938Y-58369580D01*
X2547597Y-58589674D01*
X2542986Y-58610647D01*
X2537861Y-58649312D01*
X2548825Y-58720027D01*
X2596280Y-58773589D01*
X2663760Y-58793000D01*
X5334306Y-58793000D01*
X5402967Y-58772839D01*
X5449829Y-58718758D01*
X5458599Y-58639921D01*
X5429718Y-58502275D01*
X5423547Y-58481705D01*
X5338896Y-58267354D01*
X5329348Y-58248119D01*
X5209791Y-58051095D01*
X5197138Y-58033743D01*
X5046094Y-57859680D01*
X5030698Y-57844708D01*
X4852485Y-57698583D01*
X4834787Y-57686420D01*
X4634502Y-57572411D01*
X4615007Y-57563403D01*
X4514718Y-57527000D01*
X4851150Y-57527000D01*
X4863984Y-57526350D01*
X5091006Y-57503290D01*
X5116150Y-57498129D01*
X5406938Y-57407002D01*
X5430531Y-57396890D01*
X5697056Y-57249152D01*
X5718133Y-57234502D01*
X5814390Y-57152000D01*
X10823000Y-57152000D01*
X10823000Y-62472990D01*
X9430386Y-62472990D01*
X7607230Y-60649835D01*
X7585461Y-60620254D01*
X7565401Y-60598742D01*
X7503822Y-60546427D01*
X7493651Y-60536256D01*
X7482646Y-60526460D01*
X7448788Y-60499673D01*
X7365476Y-60428894D01*
X7341005Y-60412574D01*
X7334501Y-60409253D01*
X7328778Y-60404725D01*
X7303752Y-60389268D01*
X7204724Y-60342985D01*
X7107369Y-60293273D01*
X7075059Y-60282383D01*
X7066093Y-60278193D01*
X7038185Y-60268909D01*
X6781350Y-60215487D01*
X6752052Y-60212872D01*
X6636455Y-60216000D01*
X5536706Y-60216000D01*
X5460215Y-60120353D01*
X5447726Y-60106866D01*
X5251534Y-59923593D01*
X5237228Y-59912050D01*
X5155203Y-59855148D01*
X5260218Y-59714003D01*
X5271534Y-59695751D01*
X5375982Y-59490317D01*
X5384062Y-59470420D01*
X5452403Y-59250326D01*
X5457014Y-59229353D01*
X5462139Y-59190688D01*
X5451175Y-59119973D01*
X5403720Y-59066411D01*
X5336240Y-59047000D01*
X2665694Y-59047000D01*
X2597033Y-59067161D01*
X2550171Y-59121242D01*
X2541401Y-59200079D01*
X2570282Y-59337725D01*
X2576453Y-59358295D01*
X2661104Y-59572646D01*
X2670652Y-59591881D01*
X2790209Y-59788905D01*
X2802862Y-59806257D01*
X2844781Y-59854564D01*
X2693826Y-59969768D01*
X2680058Y-59981948D01*
X2492382Y-60173932D01*
X2480518Y-60187972D01*
X2322522Y-60405036D01*
X2312809Y-60420641D01*
X2187802Y-60658240D01*
X2180443Y-60675084D01*
X2091044Y-60928240D01*
X2086193Y-60945970D01*
X2034276Y-61209380D01*
X2032036Y-61227624D01*
X2018686Y-61495769D01*
X2019103Y-61514146D01*
X2044603Y-61781409D01*
X2047669Y-61799533D01*
X2111482Y-62060317D01*
X2117131Y-62077809D01*
X2217921Y-62326648D01*
X2226037Y-62343141D01*
X2277206Y-62430531D01*
X2153521Y-62609719D01*
X2139293Y-62636829D01*
X2053180Y-62863893D01*
X2045853Y-62893619D01*
X2016581Y-63134692D01*
X2015655Y-63150000D01*
X2015655Y-64850000D01*
X2017735Y-64872892D01*
X2083196Y-65230101D01*
X2095663Y-65266229D01*
X2208518Y-65481257D01*
X2225910Y-65506454D01*
X2386946Y-65688226D01*
X2409863Y-65708528D01*
X2609719Y-65846479D01*
X2636829Y-65860707D01*
X2863893Y-65946820D01*
X2893619Y-65954147D01*
X3134692Y-65983419D01*
X3150000Y-65984345D01*
X4850000Y-65984345D01*
X4872892Y-65982265D01*
X5230101Y-65916804D01*
X5266229Y-65904337D01*
X5481257Y-65791482D01*
X5506454Y-65774090D01*
X5688226Y-65613054D01*
X5708528Y-65590137D01*
X5846479Y-65390281D01*
X5860707Y-65363171D01*
X5946820Y-65136107D01*
X5954147Y-65106381D01*
X5983419Y-64865308D01*
X5984345Y-64850000D01*
X5984345Y-63150000D01*
X5982265Y-63127108D01*
X5916804Y-62769899D01*
X5904337Y-62733771D01*
X5897109Y-62720000D01*
X6136205Y-62720000D01*
X7959359Y-64543155D01*
X7981128Y-64572736D01*
X8001189Y-64594248D01*
X8062761Y-64646557D01*
X8072938Y-64656734D01*
X8083942Y-64666529D01*
X8117826Y-64693337D01*
X8201115Y-64764096D01*
X8225588Y-64780418D01*
X8232086Y-64783736D01*
X8237809Y-64788264D01*
X8262837Y-64803722D01*
X8361877Y-64850010D01*
X8459221Y-64899717D01*
X8491525Y-64910604D01*
X8500494Y-64914796D01*
X8528404Y-64924081D01*
X8785240Y-64977503D01*
X8814538Y-64980118D01*
X8930135Y-64976990D01*
X10823000Y-64976990D01*
X10823000Y-70048000D01*
X7992134Y-70048000D01*
X7955830Y-70042477D01*
X7926433Y-70041450D01*
X7845907Y-70048000D01*
X7831515Y-70048000D01*
X7816807Y-70048855D01*
X7773909Y-70053857D01*
X7664964Y-70062718D01*
X7636121Y-70068481D01*
X7629182Y-70070729D01*
X7621925Y-70071575D01*
X7593300Y-70078342D01*
X7490516Y-70115651D01*
X7386556Y-70149329D01*
X7356012Y-70164474D01*
X7346708Y-70167851D01*
X7320409Y-70181021D01*
X7101024Y-70324856D01*
X7078458Y-70343723D01*
X6998940Y-70427664D01*
X5758605Y-71668000D01*
X5530308Y-71668000D01*
X5460215Y-71580353D01*
X5447726Y-71566866D01*
X5251534Y-71383593D01*
X5237228Y-71372050D01*
X5155203Y-71315148D01*
X5260218Y-71174003D01*
X5271534Y-71155751D01*
X5375982Y-70950317D01*
X5384062Y-70930420D01*
X5452403Y-70710326D01*
X5457014Y-70689353D01*
X5462139Y-70650688D01*
X5451175Y-70579973D01*
X5403720Y-70526411D01*
X5336240Y-70507000D01*
X2665694Y-70507000D01*
X2597033Y-70527161D01*
X2550171Y-70581242D01*
X2541401Y-70660079D01*
X2570282Y-70797725D01*
X2576453Y-70818295D01*
X2661104Y-71032646D01*
X2670652Y-71051881D01*
X2790209Y-71248905D01*
X2802862Y-71266257D01*
X2844781Y-71314564D01*
X2693826Y-71429768D01*
X2680058Y-71441948D01*
X2492382Y-71633932D01*
X2480518Y-71647972D01*
X2322522Y-71865036D01*
X2312809Y-71880641D01*
X2187802Y-72118240D01*
X2180443Y-72135084D01*
X2091044Y-72388240D01*
X2086193Y-72405970D01*
X2034276Y-72669380D01*
X2032036Y-72687624D01*
X2018686Y-72955769D01*
X2019103Y-72974146D01*
X2044603Y-73241409D01*
X2047669Y-73259533D01*
X2111482Y-73520317D01*
X2117131Y-73537809D01*
X2217921Y-73786648D01*
X2226037Y-73803141D01*
X2361694Y-74034825D01*
X2372105Y-74049973D01*
X2481518Y-74186788D01*
X2480518Y-74187972D01*
X2322522Y-74405036D01*
X2312809Y-74420641D01*
X2187802Y-74658240D01*
X2180443Y-74675084D01*
X2091044Y-74928240D01*
X2086193Y-74945970D01*
X2034276Y-75209380D01*
X2032036Y-75227624D01*
X2018686Y-75495769D01*
X2019103Y-75514146D01*
X2044603Y-75781409D01*
X2047669Y-75799533D01*
X2111482Y-76060317D01*
X2117131Y-76077809D01*
X2217921Y-76326648D01*
X2226037Y-76343141D01*
X2277206Y-76430531D01*
X2153521Y-76609719D01*
X2139293Y-76636829D01*
X2053180Y-76863893D01*
X2045853Y-76893619D01*
X2016581Y-77134692D01*
X2015655Y-77150000D01*
X2015655Y-78850000D01*
X2017735Y-78872892D01*
X2083196Y-79230101D01*
X2095663Y-79266229D01*
X2208518Y-79481257D01*
X2225910Y-79506454D01*
X2386946Y-79688226D01*
X2409863Y-79708528D01*
X2609719Y-79846479D01*
X2636829Y-79860707D01*
X2863893Y-79946820D01*
X2893619Y-79954147D01*
X3134692Y-79983419D01*
X3150000Y-79984345D01*
X4850000Y-79984345D01*
X4872892Y-79982265D01*
X5230101Y-79916804D01*
X5266229Y-79904337D01*
X5481257Y-79791482D01*
X5506454Y-79774090D01*
X5688226Y-79613054D01*
X5708528Y-79590137D01*
X5846479Y-79390281D01*
X5860707Y-79363171D01*
X5946820Y-79136107D01*
X5954147Y-79106381D01*
X5983419Y-78865308D01*
X5984345Y-78850000D01*
X5984345Y-77150000D01*
X5982265Y-77127108D01*
X5916804Y-76769899D01*
X5904337Y-76733771D01*
X5854702Y-76639200D01*
X6161605Y-76639200D01*
X9359969Y-79837565D01*
X9381738Y-79867146D01*
X9401799Y-79888658D01*
X9463371Y-79940967D01*
X9473548Y-79951144D01*
X9484552Y-79960939D01*
X9518436Y-79987747D01*
X9601725Y-80058506D01*
X9626198Y-80074828D01*
X9632696Y-80078146D01*
X9638419Y-80082674D01*
X9663447Y-80098132D01*
X9762487Y-80144420D01*
X9859831Y-80194127D01*
X9892135Y-80205014D01*
X9901104Y-80209206D01*
X9929014Y-80218491D01*
X10185850Y-80271913D01*
X10215148Y-80274528D01*
X10330745Y-80271400D01*
X10823000Y-80271400D01*
X10823000Y-85648000D01*
X6900595Y-85648000D01*
X6894430Y-85641835D01*
X6872661Y-85612254D01*
X6852601Y-85590742D01*
X6791022Y-85538427D01*
X6780851Y-85528256D01*
X6769846Y-85518460D01*
X6735988Y-85491673D01*
X6652676Y-85420894D01*
X6628205Y-85404574D01*
X6621701Y-85401253D01*
X6615978Y-85396725D01*
X6590952Y-85381268D01*
X6491924Y-85334985D01*
X6394569Y-85285273D01*
X6362259Y-85274383D01*
X6353293Y-85270193D01*
X6325385Y-85260909D01*
X6068550Y-85207487D01*
X6039252Y-85204872D01*
X5923655Y-85208000D01*
X5530308Y-85208000D01*
X5460215Y-85120353D01*
X5447726Y-85106866D01*
X5251534Y-84923593D01*
X5237228Y-84912050D01*
X5155203Y-84855148D01*
X5260218Y-84714003D01*
X5271534Y-84695751D01*
X5375982Y-84490317D01*
X5384062Y-84470420D01*
X5452403Y-84250326D01*
X5457014Y-84229353D01*
X5462139Y-84190688D01*
X5451175Y-84119973D01*
X5403720Y-84066411D01*
X5336240Y-84047000D01*
X2665694Y-84047000D01*
X2597033Y-84067161D01*
X2550171Y-84121242D01*
X2541401Y-84200079D01*
X2570282Y-84337725D01*
X2576453Y-84358295D01*
X2661104Y-84572646D01*
X2670652Y-84591881D01*
X2790209Y-84788905D01*
X2802862Y-84806257D01*
X2844781Y-84854564D01*
X2693826Y-84969768D01*
X2680058Y-84981948D01*
X2492382Y-85173932D01*
X2480518Y-85187972D01*
X2322522Y-85405036D01*
X2312809Y-85420641D01*
X2187802Y-85658240D01*
X2180443Y-85675084D01*
X2091044Y-85928240D01*
X2086193Y-85945970D01*
X2034276Y-86209380D01*
X2032036Y-86227624D01*
X2018686Y-86495769D01*
X2019103Y-86514146D01*
X2044603Y-86781409D01*
X2047669Y-86799533D01*
X2111482Y-87060317D01*
X2117131Y-87077809D01*
X2217921Y-87326648D01*
X2226037Y-87343141D01*
X2277206Y-87430531D01*
X2153521Y-87609719D01*
X2139293Y-87636829D01*
X2053180Y-87863893D01*
X2045853Y-87893619D01*
X2016581Y-88134692D01*
X2015655Y-88150000D01*
X2015655Y-89850000D01*
X2017735Y-89872892D01*
X2083196Y-90230101D01*
X2095663Y-90266229D01*
X2208518Y-90481257D01*
X2225910Y-90506454D01*
X2386946Y-90688226D01*
X2409863Y-90708528D01*
X2609719Y-90846479D01*
X2636829Y-90860707D01*
X2863893Y-90946820D01*
X2893619Y-90954147D01*
X3134692Y-90983419D01*
X3150000Y-90984345D01*
X4850000Y-90984345D01*
X4872892Y-90982265D01*
X5230101Y-90916804D01*
X5266229Y-90904337D01*
X5481257Y-90791482D01*
X5506454Y-90774090D01*
X5688226Y-90613054D01*
X5708528Y-90590137D01*
X5846479Y-90390281D01*
X5860707Y-90363171D01*
X5946820Y-90136107D01*
X5954147Y-90106381D01*
X5983419Y-89865308D01*
X5984345Y-89850000D01*
X5984345Y-88150000D01*
X5982265Y-88127108D01*
X5975736Y-88091480D01*
X5998614Y-88099091D01*
X6255449Y-88152513D01*
X6284747Y-88155128D01*
X6400344Y-88152000D01*
X10831853Y-88152000D01*
X10823001Y-94348390D01*
X10823361Y-94358124D01*
X10834892Y-94510981D01*
X10838586Y-94533261D01*
X10889302Y-94729138D01*
X10898227Y-94753235D01*
X10987335Y-94934894D01*
X11000927Y-94956701D01*
X11124778Y-95116704D01*
X11142483Y-95135330D01*
X11296008Y-95267126D01*
X11317098Y-95281805D01*
X11494010Y-95380000D01*
X11517625Y-95390134D01*
X11710682Y-95450706D01*
X11735853Y-95455878D01*
X11937152Y-95476348D01*
X11950000Y-95477000D01*
X19169982Y-95477000D01*
X19236725Y-95484015D01*
X19263275Y-95484015D01*
X19330018Y-95477000D01*
X27400000Y-95477000D01*
X27409191Y-95476667D01*
X27553555Y-95466192D01*
X27575318Y-95462695D01*
X27771552Y-95413379D01*
X27795712Y-95404627D01*
X27978003Y-95316819D01*
X27999908Y-95303382D01*
X28160791Y-95180676D01*
X28179541Y-95163106D01*
X28312431Y-95010527D01*
X28327261Y-94989541D01*
X28426717Y-94813335D01*
X28429886Y-94806091D01*
X51173001Y-94806091D01*
X51173001Y-95193909D01*
X51173697Y-95207184D01*
X51214235Y-95592877D01*
X51216314Y-95606007D01*
X51296945Y-95985349D01*
X51300386Y-95998189D01*
X51420229Y-96367026D01*
X51424993Y-96379436D01*
X51582732Y-96733725D01*
X51588767Y-96745570D01*
X51782676Y-97081430D01*
X51789916Y-97092579D01*
X52017869Y-97406330D01*
X52026235Y-97416661D01*
X52285736Y-97704865D01*
X52295135Y-97714264D01*
X52583339Y-97973765D01*
X52593670Y-97982131D01*
X52907421Y-98210084D01*
X52918570Y-98217324D01*
X53254430Y-98411233D01*
X53266275Y-98417268D01*
X53620564Y-98575007D01*
X53632974Y-98579771D01*
X54001811Y-98699614D01*
X54014651Y-98703055D01*
X54393993Y-98783686D01*
X54407123Y-98785765D01*
X54792816Y-98826303D01*
X54806091Y-98826999D01*
X55193909Y-98826999D01*
X55207184Y-98826303D01*
X55592877Y-98785765D01*
X55606007Y-98783686D01*
X55985349Y-98703055D01*
X55998189Y-98699614D01*
X56367026Y-98579771D01*
X56379436Y-98575007D01*
X56733725Y-98417268D01*
X56745570Y-98411233D01*
X57081430Y-98217324D01*
X57092579Y-98210084D01*
X57406330Y-97982131D01*
X57416661Y-97973765D01*
X57704865Y-97714264D01*
X57714264Y-97704865D01*
X57973765Y-97416661D01*
X57982131Y-97406330D01*
X58210084Y-97092579D01*
X58217324Y-97081430D01*
X58411233Y-96745570D01*
X58417268Y-96733725D01*
X58575007Y-96379436D01*
X58579771Y-96367026D01*
X58699614Y-95998189D01*
X58703055Y-95985349D01*
X58783686Y-95606007D01*
X58785765Y-95592877D01*
X58826303Y-95207184D01*
X58826999Y-95193909D01*
X58826999Y-94806091D01*
X58826303Y-94792816D01*
X58785765Y-94407123D01*
X58783686Y-94393993D01*
X58703055Y-94014651D01*
X58699614Y-94001811D01*
X58579771Y-93632974D01*
X58575007Y-93620564D01*
X58417268Y-93266275D01*
X58411233Y-93254430D01*
X58217324Y-92918570D01*
X58210084Y-92907421D01*
X57982131Y-92593670D01*
X57973765Y-92583339D01*
X57714264Y-92295135D01*
X57704865Y-92285736D01*
X57416661Y-92026235D01*
X57406330Y-92017869D01*
X57092579Y-91789916D01*
X57081430Y-91782676D01*
X56745570Y-91588767D01*
X56733725Y-91582732D01*
X56379436Y-91424993D01*
X56367026Y-91420229D01*
X55998189Y-91300386D01*
X55985349Y-91296945D01*
X55606007Y-91216314D01*
X55592877Y-91214235D01*
X55207184Y-91173697D01*
X55193909Y-91173001D01*
X54806091Y-91173001D01*
X54792816Y-91173697D01*
X54407123Y-91214235D01*
X54393993Y-91216314D01*
X54014651Y-91296945D01*
X54001811Y-91300386D01*
X53632974Y-91420229D01*
X53620564Y-91424993D01*
X53266275Y-91582732D01*
X53254430Y-91588767D01*
X52918570Y-91782676D01*
X52907421Y-91789916D01*
X52593670Y-92017869D01*
X52583339Y-92026235D01*
X52295135Y-92285736D01*
X52285736Y-92295135D01*
X52026235Y-92583339D01*
X52017869Y-92593670D01*
X51789916Y-92907421D01*
X51782676Y-92918570D01*
X51588767Y-93254430D01*
X51582732Y-93266275D01*
X51424993Y-93620564D01*
X51420229Y-93632974D01*
X51300386Y-94001811D01*
X51296945Y-94014651D01*
X51216314Y-94393993D01*
X51214235Y-94407123D01*
X51173697Y-94792816D01*
X51173001Y-94806091D01*
X28429886Y-94806091D01*
X28437019Y-94789793D01*
X28498968Y-94597173D01*
X28504320Y-94572040D01*
X28526227Y-94370893D01*
X28526971Y-94358050D01*
X28571300Y-88152000D01*
X30805066Y-88152000D01*
X30841370Y-88157523D01*
X30870767Y-88158550D01*
X30951292Y-88152000D01*
X30965685Y-88152000D01*
X30980392Y-88151146D01*
X31023317Y-88146141D01*
X31132235Y-88137282D01*
X31161080Y-88131518D01*
X31168015Y-88129271D01*
X31175274Y-88128425D01*
X31203901Y-88121658D01*
X31306710Y-88084340D01*
X31410642Y-88050671D01*
X31441175Y-88035531D01*
X31450488Y-88032151D01*
X31476791Y-88018979D01*
X31696176Y-87875144D01*
X31718742Y-87856277D01*
X31798277Y-87772318D01*
X34718596Y-84852000D01*
X39959307Y-84852000D01*
X40187193Y-85011567D01*
X40209599Y-85024090D01*
X40489268Y-85145114D01*
X40520277Y-85154064D01*
X40926206Y-85216905D01*
X40945635Y-85218400D01*
X41909950Y-85218400D01*
X41922784Y-85217750D01*
X42149806Y-85194690D01*
X42174950Y-85189529D01*
X42465738Y-85098402D01*
X42489331Y-85088290D01*
X42755856Y-84940552D01*
X42776933Y-84925903D01*
X43008307Y-84727592D01*
X43026009Y-84709003D01*
X43212782Y-84468217D01*
X43226384Y-84446449D01*
X43360925Y-84173025D01*
X43369872Y-84148967D01*
X43446686Y-83854075D01*
X43450613Y-83828708D01*
X43459537Y-83658407D01*
X45992239Y-83658407D01*
X45993493Y-83684044D01*
X46039061Y-83985349D01*
X46045444Y-84010211D01*
X46150668Y-84296201D01*
X46161921Y-84319271D01*
X46322501Y-84578260D01*
X46338162Y-84598597D01*
X46547540Y-84820008D01*
X46566971Y-84836780D01*
X46816593Y-85011567D01*
X46838999Y-85024090D01*
X47118668Y-85145114D01*
X47149677Y-85154064D01*
X47555606Y-85216905D01*
X47575035Y-85218400D01*
X48564750Y-85218400D01*
X48577584Y-85217750D01*
X48804606Y-85194690D01*
X48829750Y-85189529D01*
X49120538Y-85098402D01*
X49144131Y-85088290D01*
X49410656Y-84940552D01*
X49431733Y-84925902D01*
X49527990Y-84843400D01*
X50679666Y-84843400D01*
X50715970Y-84848923D01*
X50745367Y-84849950D01*
X50825892Y-84843400D01*
X50840285Y-84843400D01*
X50854992Y-84842546D01*
X50897917Y-84837541D01*
X51006835Y-84828682D01*
X51035680Y-84822918D01*
X51042615Y-84820671D01*
X51049874Y-84819825D01*
X51078501Y-84813058D01*
X51181310Y-84775740D01*
X51285242Y-84742071D01*
X51315775Y-84726931D01*
X51325088Y-84723551D01*
X51351391Y-84710379D01*
X51570776Y-84566544D01*
X51593342Y-84547677D01*
X51672877Y-84463718D01*
X52507165Y-83629431D01*
X52536746Y-83607662D01*
X52558258Y-83587601D01*
X52610567Y-83526029D01*
X52620744Y-83515852D01*
X52630539Y-83504848D01*
X52657347Y-83470964D01*
X52728106Y-83387675D01*
X52744428Y-83363202D01*
X52747746Y-83356704D01*
X52752274Y-83350981D01*
X52767732Y-83325953D01*
X52814020Y-83226913D01*
X52863727Y-83129569D01*
X52874614Y-83097265D01*
X52878806Y-83088296D01*
X52888091Y-83060386D01*
X52941513Y-82803550D01*
X52944128Y-82774252D01*
X52941000Y-82658655D01*
X52941000Y-58345200D01*
X53111350Y-58345200D01*
X53124184Y-58344550D01*
X53351206Y-58321490D01*
X53376350Y-58316329D01*
X53667138Y-58225202D01*
X53690731Y-58215090D01*
X53957256Y-58067352D01*
X53978333Y-58052703D01*
X54209707Y-57854392D01*
X54227409Y-57835803D01*
X54414182Y-57595017D01*
X54427784Y-57573249D01*
X54562325Y-57299825D01*
X54571272Y-57275767D01*
X54648086Y-56980875D01*
X54652013Y-56955508D01*
X54667961Y-56651193D01*
X54666707Y-56625556D01*
X54621139Y-56324251D01*
X54614756Y-56299389D01*
X54509532Y-56013399D01*
X54498279Y-55990329D01*
X54337699Y-55731340D01*
X54322038Y-55711003D01*
X54112660Y-55489592D01*
X54093229Y-55472820D01*
X53843607Y-55298033D01*
X53821201Y-55285510D01*
X53541532Y-55164486D01*
X53510523Y-55155536D01*
X53104594Y-55092695D01*
X53085165Y-55091200D01*
X52447983Y-55091200D01*
X52423340Y-55023310D01*
X52389660Y-54919344D01*
X52374518Y-54888808D01*
X52371139Y-54879499D01*
X52357968Y-54853198D01*
X52214133Y-54633813D01*
X52195266Y-54611247D01*
X52111325Y-54531729D01*
X51125657Y-53546062D01*
X51099691Y-53340517D01*
X51093916Y-53315506D01*
X50995710Y-53027031D01*
X50985025Y-53003693D01*
X50830821Y-52740857D01*
X50815661Y-52720143D01*
X50611755Y-52493683D01*
X50592740Y-52476441D01*
X50347464Y-52295608D01*
X50325370Y-52282542D01*
X50048739Y-52154721D01*
X50024470Y-52146365D01*
X49727790Y-52076779D01*
X49702335Y-52073473D01*
X49397723Y-52064965D01*
X49372124Y-52066844D01*
X49218114Y-52094000D01*
X48564850Y-52094000D01*
X48552016Y-52094650D01*
X48324994Y-52117710D01*
X48299850Y-52122871D01*
X48009062Y-52213998D01*
X47985469Y-52224110D01*
X47718944Y-52371848D01*
X47697867Y-52386497D01*
X47466493Y-52584808D01*
X47448791Y-52603397D01*
X47262018Y-52844183D01*
X47248416Y-52865951D01*
X47113875Y-53139375D01*
X47104928Y-53163433D01*
X47028114Y-53458325D01*
X47024187Y-53483692D01*
X47008239Y-53788007D01*
X47009493Y-53813644D01*
X47055061Y-54114949D01*
X47061444Y-54139811D01*
X47156493Y-54398145D01*
X47088475Y-54536375D01*
X47079528Y-54560433D01*
X47002714Y-54855325D01*
X46998787Y-54880692D01*
X46982839Y-55185007D01*
X46984093Y-55210644D01*
X47029661Y-55511949D01*
X47036044Y-55536811D01*
X47141268Y-55822801D01*
X47152521Y-55845871D01*
X47313101Y-56104860D01*
X47328762Y-56125197D01*
X47395965Y-56196262D01*
X47375493Y-56213809D01*
X47357791Y-56232397D01*
X47171018Y-56473183D01*
X47157416Y-56494951D01*
X47022875Y-56768375D01*
X47013928Y-56792433D01*
X46937114Y-57087325D01*
X46933187Y-57112692D01*
X46917239Y-57417007D01*
X46918493Y-57442644D01*
X46964061Y-57743949D01*
X46970444Y-57768811D01*
X47075668Y-58054801D01*
X47086921Y-58077871D01*
X47247501Y-58336860D01*
X47263162Y-58357197D01*
X47472540Y-58578608D01*
X47491971Y-58595380D01*
X47741593Y-58770167D01*
X47763999Y-58782690D01*
X48043668Y-58903714D01*
X48074677Y-58912664D01*
X48480606Y-58975505D01*
X48492201Y-58976397D01*
X48492200Y-59886027D01*
X48324033Y-60126193D01*
X48311510Y-60148599D01*
X48190486Y-60428268D01*
X48181536Y-60459277D01*
X48118695Y-60865206D01*
X48117200Y-60884635D01*
X48117200Y-61975949D01*
X48117850Y-61988783D01*
X48140910Y-62215805D01*
X48146071Y-62240949D01*
X48237198Y-62531737D01*
X48247310Y-62555330D01*
X48395048Y-62821855D01*
X48409697Y-62842932D01*
X48608008Y-63074307D01*
X48626597Y-63092009D01*
X48867383Y-63278782D01*
X48889151Y-63292384D01*
X49162575Y-63426925D01*
X49186633Y-63435872D01*
X49481525Y-63512686D01*
X49506892Y-63516613D01*
X49536978Y-63518190D01*
X49536978Y-67765800D01*
X48717250Y-67765800D01*
X48704416Y-67766450D01*
X48477394Y-67789510D01*
X48452250Y-67794671D01*
X48161462Y-67885798D01*
X48137869Y-67895910D01*
X47871344Y-68043648D01*
X47850267Y-68058297D01*
X47618893Y-68256608D01*
X47601191Y-68275197D01*
X47414418Y-68515983D01*
X47400816Y-68537751D01*
X47266275Y-68811175D01*
X47257328Y-68835233D01*
X47180514Y-69130125D01*
X47176587Y-69155492D01*
X47160639Y-69459807D01*
X47161893Y-69485444D01*
X47207461Y-69786749D01*
X47213844Y-69811611D01*
X47319068Y-70097601D01*
X47330321Y-70120671D01*
X47490901Y-70379660D01*
X47506562Y-70399997D01*
X47715940Y-70621408D01*
X47735371Y-70638180D01*
X47984993Y-70812967D01*
X48007399Y-70825490D01*
X48287068Y-70946514D01*
X48318077Y-70955464D01*
X48724006Y-71018305D01*
X48743435Y-71019800D01*
X49809350Y-71019800D01*
X49822184Y-71019150D01*
X49986989Y-71002410D01*
X49986989Y-73845415D01*
X49894404Y-73938000D01*
X49098250Y-73938000D01*
X49085416Y-73938650D01*
X48858394Y-73961710D01*
X48833250Y-73966871D01*
X48542462Y-74057998D01*
X48518869Y-74068110D01*
X48252344Y-74215848D01*
X48231267Y-74230497D01*
X47999893Y-74428808D01*
X47982191Y-74447397D01*
X47795418Y-74688183D01*
X47781816Y-74709951D01*
X47647275Y-74983375D01*
X47638328Y-75007433D01*
X47561514Y-75302325D01*
X47557587Y-75327692D01*
X47541639Y-75632007D01*
X47542893Y-75657644D01*
X47588461Y-75958949D01*
X47594844Y-75983811D01*
X47700068Y-76269801D01*
X47711321Y-76292871D01*
X47871901Y-76551860D01*
X47887562Y-76572197D01*
X48096940Y-76793608D01*
X48116371Y-76810380D01*
X48365993Y-76985167D01*
X48388399Y-76997690D01*
X48668068Y-77118714D01*
X48699077Y-77127664D01*
X49105006Y-77190505D01*
X49124435Y-77192000D01*
X50114150Y-77192000D01*
X50126984Y-77191350D01*
X50354006Y-77168290D01*
X50379150Y-77163129D01*
X50437000Y-77145000D01*
X50437000Y-82158405D01*
X50256006Y-82339400D01*
X49537175Y-82339400D01*
X49297007Y-82171233D01*
X49274601Y-82158710D01*
X48994932Y-82037686D01*
X48963923Y-82028736D01*
X48557994Y-81965895D01*
X48538565Y-81964400D01*
X47548850Y-81964400D01*
X47536016Y-81965050D01*
X47308994Y-81988110D01*
X47283850Y-81993271D01*
X46993062Y-82084398D01*
X46969469Y-82094510D01*
X46702944Y-82242248D01*
X46681867Y-82256897D01*
X46450493Y-82455208D01*
X46432791Y-82473797D01*
X46246018Y-82714583D01*
X46232416Y-82736351D01*
X46097875Y-83009775D01*
X46088928Y-83033833D01*
X46012114Y-83328725D01*
X46008187Y-83354092D01*
X45992239Y-83658407D01*
X43459537Y-83658407D01*
X43466561Y-83524393D01*
X43465307Y-83498756D01*
X43419739Y-83197451D01*
X43413356Y-83172589D01*
X43308132Y-82886599D01*
X43296879Y-82863529D01*
X43136299Y-82604540D01*
X43120638Y-82584203D01*
X42911260Y-82362792D01*
X42891829Y-82346020D01*
X42642207Y-82171233D01*
X42619801Y-82158710D01*
X42340132Y-82037686D01*
X42309123Y-82028736D01*
X41903194Y-81965895D01*
X41883765Y-81964400D01*
X40919450Y-81964400D01*
X40906616Y-81965050D01*
X40679594Y-81988110D01*
X40654450Y-81993271D01*
X40363662Y-82084398D01*
X40340069Y-82094510D01*
X40073544Y-82242248D01*
X40052467Y-82256897D01*
X39946175Y-82348000D01*
X34294934Y-82348000D01*
X34258630Y-82342477D01*
X34229233Y-82341450D01*
X34148707Y-82348000D01*
X34134315Y-82348000D01*
X34119607Y-82348855D01*
X34076709Y-82353857D01*
X33967764Y-82362718D01*
X33938921Y-82368481D01*
X33931982Y-82370729D01*
X33924725Y-82371575D01*
X33896100Y-82378342D01*
X33793316Y-82415651D01*
X33689356Y-82449329D01*
X33658812Y-82464474D01*
X33649508Y-82467851D01*
X33623209Y-82481021D01*
X33403824Y-82624856D01*
X33381258Y-82643723D01*
X33301740Y-82727664D01*
X30381405Y-85648000D01*
X28577000Y-85648000D01*
X28577000Y-80271400D01*
X34601466Y-80271400D01*
X34637770Y-80276923D01*
X34667167Y-80277950D01*
X34747692Y-80271400D01*
X34762085Y-80271400D01*
X34776792Y-80270546D01*
X34819717Y-80265541D01*
X34928635Y-80256682D01*
X34957480Y-80250918D01*
X34964415Y-80248671D01*
X34971674Y-80247825D01*
X35000301Y-80241058D01*
X35103110Y-80203740D01*
X35207042Y-80170071D01*
X35237575Y-80154931D01*
X35246888Y-80151551D01*
X35273191Y-80138379D01*
X35492576Y-79994544D01*
X35515142Y-79975677D01*
X35594677Y-79891718D01*
X38669397Y-76817000D01*
X41902825Y-76817000D01*
X42142993Y-76985167D01*
X42165399Y-76997690D01*
X42445068Y-77118714D01*
X42476077Y-77127664D01*
X42882006Y-77190505D01*
X42901435Y-77192000D01*
X44018150Y-77192000D01*
X44030984Y-77191350D01*
X44258006Y-77168290D01*
X44283150Y-77163129D01*
X44573938Y-77072002D01*
X44597531Y-77061890D01*
X44864056Y-76914152D01*
X44885133Y-76899503D01*
X45116507Y-76701192D01*
X45134209Y-76682603D01*
X45320982Y-76441817D01*
X45334584Y-76420049D01*
X45469125Y-76146625D01*
X45478072Y-76122567D01*
X45554886Y-75827675D01*
X45558813Y-75802308D01*
X45574761Y-75497993D01*
X45573507Y-75472356D01*
X45527939Y-75171051D01*
X45521556Y-75146189D01*
X45416332Y-74860199D01*
X45405079Y-74837129D01*
X45244499Y-74578140D01*
X45228838Y-74557803D01*
X45019460Y-74336392D01*
X45000029Y-74319620D01*
X44750407Y-74144833D01*
X44728001Y-74132310D01*
X44448332Y-74011286D01*
X44417323Y-74002336D01*
X44011394Y-73939495D01*
X43991965Y-73938000D01*
X42875250Y-73938000D01*
X42862416Y-73938650D01*
X42635394Y-73961710D01*
X42610250Y-73966871D01*
X42319462Y-74057998D01*
X42295869Y-74068110D01*
X42029344Y-74215848D01*
X42008267Y-74230498D01*
X41912010Y-74313000D01*
X38245734Y-74313000D01*
X38209431Y-74307477D01*
X38180033Y-74306450D01*
X38099507Y-74313000D01*
X38085115Y-74313000D01*
X38070407Y-74313855D01*
X38027509Y-74318857D01*
X37918564Y-74327718D01*
X37889721Y-74333481D01*
X37882782Y-74335729D01*
X37875525Y-74336575D01*
X37846900Y-74343342D01*
X37744116Y-74380651D01*
X37640156Y-74414329D01*
X37609612Y-74429474D01*
X37600308Y-74432851D01*
X37574009Y-74446021D01*
X37354624Y-74589856D01*
X37332058Y-74608723D01*
X37252558Y-74692645D01*
X34177805Y-77767400D01*
X28577000Y-77767400D01*
X28577000Y-72552000D01*
X30916266Y-72552000D01*
X30952570Y-72557523D01*
X30981967Y-72558550D01*
X31062492Y-72552000D01*
X31076885Y-72552000D01*
X31091592Y-72551146D01*
X31134517Y-72546141D01*
X31243435Y-72537282D01*
X31272280Y-72531518D01*
X31279215Y-72529271D01*
X31286474Y-72528425D01*
X31315101Y-72521658D01*
X31417910Y-72484340D01*
X31521842Y-72450671D01*
X31552375Y-72435531D01*
X31561688Y-72432151D01*
X31587991Y-72418979D01*
X31807376Y-72275144D01*
X31829942Y-72256277D01*
X31909477Y-72172318D01*
X33411596Y-70670200D01*
X41924576Y-70670200D01*
X42092193Y-70787567D01*
X42114599Y-70800090D01*
X42394268Y-70921114D01*
X42425277Y-70930064D01*
X42831206Y-70992905D01*
X42850635Y-70994400D01*
X43916550Y-70994400D01*
X43929384Y-70993750D01*
X44156406Y-70970690D01*
X44181550Y-70965529D01*
X44472338Y-70874402D01*
X44495931Y-70864290D01*
X44762456Y-70716552D01*
X44783533Y-70701903D01*
X45014907Y-70503592D01*
X45032609Y-70485003D01*
X45219382Y-70244217D01*
X45232984Y-70222449D01*
X45367525Y-69949025D01*
X45376472Y-69924967D01*
X45453286Y-69630075D01*
X45457213Y-69604708D01*
X45473161Y-69300393D01*
X45471907Y-69274756D01*
X45426339Y-68973451D01*
X45419956Y-68948589D01*
X45314732Y-68662599D01*
X45303479Y-68639529D01*
X45142899Y-68380540D01*
X45127238Y-68360203D01*
X44917860Y-68138792D01*
X44898429Y-68122020D01*
X44648807Y-67947233D01*
X44626401Y-67934710D01*
X44346732Y-67813686D01*
X44315723Y-67804736D01*
X43909794Y-67741895D01*
X43890365Y-67740400D01*
X42824450Y-67740400D01*
X42811616Y-67741050D01*
X42584594Y-67764110D01*
X42559450Y-67769271D01*
X42268662Y-67860398D01*
X42245069Y-67870510D01*
X41978544Y-68018248D01*
X41957467Y-68032897D01*
X41801939Y-68166200D01*
X32987934Y-68166200D01*
X32951630Y-68160677D01*
X32922233Y-68159650D01*
X32841707Y-68166200D01*
X32827315Y-68166200D01*
X32812607Y-68167055D01*
X32769709Y-68172057D01*
X32660764Y-68180918D01*
X32631921Y-68186681D01*
X32624982Y-68188929D01*
X32617725Y-68189775D01*
X32589100Y-68196542D01*
X32486316Y-68233851D01*
X32382356Y-68267529D01*
X32351812Y-68282674D01*
X32342508Y-68286051D01*
X32316209Y-68299221D01*
X32096824Y-68443056D01*
X32074258Y-68461923D01*
X31994758Y-68545845D01*
X30492605Y-70048000D01*
X28577000Y-70048000D01*
X28577000Y-64976990D01*
X30312476Y-64976990D01*
X30348780Y-64982513D01*
X30378177Y-64983540D01*
X30458702Y-64976990D01*
X30473095Y-64976990D01*
X30487802Y-64976136D01*
X30530727Y-64971131D01*
X30639645Y-64962272D01*
X30668490Y-64956508D01*
X30675425Y-64954261D01*
X30682684Y-64953415D01*
X30711311Y-64946648D01*
X30814120Y-64909330D01*
X30918052Y-64875661D01*
X30948585Y-64860521D01*
X30957898Y-64857141D01*
X30984201Y-64843969D01*
X31203586Y-64700134D01*
X31226152Y-64681267D01*
X31305686Y-64597309D01*
X32351197Y-63551799D01*
X43599467Y-63551799D01*
X43635771Y-63557322D01*
X43665168Y-63558349D01*
X43745693Y-63551799D01*
X43760086Y-63551799D01*
X43774793Y-63550945D01*
X43817718Y-63545940D01*
X43926636Y-63537081D01*
X43955481Y-63531317D01*
X43962416Y-63529070D01*
X43969675Y-63528224D01*
X43989450Y-63523550D01*
X44161406Y-63532561D01*
X44187043Y-63531307D01*
X44488348Y-63485739D01*
X44513210Y-63479356D01*
X44799200Y-63374132D01*
X44822270Y-63362879D01*
X45081259Y-63202299D01*
X45101596Y-63186638D01*
X45323008Y-62977260D01*
X45339780Y-62957829D01*
X45514567Y-62708207D01*
X45527090Y-62685801D01*
X45648114Y-62406132D01*
X45657064Y-62375123D01*
X45719905Y-61969194D01*
X45721400Y-61949765D01*
X45721400Y-60934651D01*
X45720750Y-60921817D01*
X45697690Y-60694794D01*
X45692529Y-60669650D01*
X45601402Y-60378862D01*
X45591290Y-60355269D01*
X45443552Y-60088744D01*
X45428903Y-60067667D01*
X45230592Y-59836293D01*
X45212003Y-59818591D01*
X44971217Y-59631818D01*
X44949449Y-59618216D01*
X44676025Y-59483675D01*
X44651967Y-59474728D01*
X44357075Y-59397914D01*
X44331708Y-59393987D01*
X44027394Y-59378039D01*
X44001757Y-59379293D01*
X43700452Y-59424861D01*
X43675590Y-59431244D01*
X43389600Y-59536468D01*
X43366530Y-59547721D01*
X43107541Y-59708301D01*
X43087204Y-59723962D01*
X42865792Y-59933340D01*
X42849020Y-59952771D01*
X42674233Y-60202393D01*
X42661710Y-60224799D01*
X42540686Y-60504468D01*
X42531736Y-60535477D01*
X42468895Y-60941406D01*
X42467400Y-60960835D01*
X42467400Y-61047799D01*
X31927535Y-61047799D01*
X31891232Y-61042276D01*
X31861834Y-61041249D01*
X31781308Y-61047799D01*
X31766916Y-61047799D01*
X31752208Y-61048654D01*
X31709310Y-61053656D01*
X31600365Y-61062517D01*
X31571522Y-61068280D01*
X31564583Y-61070528D01*
X31557326Y-61071374D01*
X31528701Y-61078141D01*
X31425922Y-61115448D01*
X31321956Y-61149128D01*
X31291420Y-61164270D01*
X31282111Y-61167649D01*
X31255810Y-61180820D01*
X31036425Y-61324655D01*
X31013859Y-61343522D01*
X30934341Y-61427463D01*
X29888815Y-62472990D01*
X28576881Y-62472990D01*
X28576064Y-57152000D01*
X31736666Y-57152000D01*
X31772970Y-57157523D01*
X31802367Y-57158550D01*
X31882892Y-57152000D01*
X31897285Y-57152000D01*
X31911992Y-57151146D01*
X31954917Y-57146141D01*
X32063835Y-57137282D01*
X32092680Y-57131518D01*
X32099615Y-57129271D01*
X32106874Y-57128425D01*
X32135501Y-57121658D01*
X32238310Y-57084340D01*
X32342242Y-57050671D01*
X32372775Y-57035531D01*
X32382088Y-57032151D01*
X32408391Y-57018979D01*
X32627776Y-56875144D01*
X32650342Y-56856277D01*
X32729877Y-56772318D01*
X35195998Y-54306199D01*
X44310667Y-54306199D01*
X44346971Y-54311722D01*
X44376368Y-54312749D01*
X44456893Y-54306199D01*
X44471286Y-54306199D01*
X44485993Y-54305345D01*
X44528918Y-54300340D01*
X44637836Y-54291481D01*
X44666681Y-54285717D01*
X44673616Y-54283470D01*
X44680875Y-54282624D01*
X44700650Y-54277950D01*
X44872606Y-54286961D01*
X44898243Y-54285707D01*
X45199548Y-54240139D01*
X45224410Y-54233756D01*
X45510400Y-54128532D01*
X45533470Y-54117279D01*
X45792459Y-53956699D01*
X45812796Y-53941038D01*
X46034208Y-53731660D01*
X46050980Y-53712229D01*
X46225767Y-53462607D01*
X46238290Y-53440201D01*
X46359314Y-53160532D01*
X46368264Y-53129523D01*
X46431105Y-52723594D01*
X46432600Y-52704165D01*
X46432600Y-51587450D01*
X46431950Y-51574616D01*
X46408890Y-51347594D01*
X46403729Y-51322450D01*
X46312602Y-51031662D01*
X46302490Y-51008069D01*
X46154752Y-50741544D01*
X46140103Y-50720467D01*
X45941792Y-50489093D01*
X45923203Y-50471391D01*
X45682417Y-50284618D01*
X45660649Y-50271016D01*
X45387225Y-50136475D01*
X45363167Y-50127528D01*
X45068275Y-50050714D01*
X45042908Y-50046787D01*
X44738594Y-50030839D01*
X44712957Y-50032093D01*
X44411652Y-50077661D01*
X44386790Y-50084044D01*
X44100800Y-50189268D01*
X44077730Y-50200521D01*
X43818741Y-50361101D01*
X43798404Y-50376762D01*
X43576993Y-50586140D01*
X43560221Y-50605571D01*
X43385433Y-50855193D01*
X43372910Y-50877599D01*
X43251886Y-51157268D01*
X43242936Y-51188277D01*
X43180095Y-51594206D01*
X43178600Y-51613635D01*
X43178600Y-51802199D01*
X34772335Y-51802199D01*
X34736032Y-51796676D01*
X34706634Y-51795649D01*
X34626108Y-51802199D01*
X34611716Y-51802199D01*
X34597008Y-51803054D01*
X34554110Y-51808056D01*
X34445165Y-51816917D01*
X34416322Y-51822680D01*
X34409383Y-51824928D01*
X34402126Y-51825774D01*
X34373501Y-51832541D01*
X34270722Y-51869848D01*
X34166756Y-51903528D01*
X34136220Y-51918670D01*
X34126911Y-51922049D01*
X34100610Y-51935220D01*
X33881225Y-52079055D01*
X33858659Y-52097922D01*
X33779159Y-52181844D01*
X31313005Y-54648000D01*
X28577000Y-54648000D01*
X28577000Y-48500000D01*
X28576633Y-48490356D01*
X28565101Y-48338928D01*
X28561414Y-48316739D01*
X28510698Y-48120862D01*
X28510014Y-48119014D01*
X28550706Y-47989318D01*
X28555878Y-47964147D01*
X28576348Y-47762848D01*
X28577000Y-47750000D01*
X28577000Y-41085400D01*
X45259655Y-41085400D01*
X45259655Y-42785400D01*
X45261735Y-42808292D01*
X45327196Y-43165501D01*
X45339663Y-43201629D01*
X45452518Y-43416657D01*
X45469910Y-43441854D01*
X45630946Y-43623626D01*
X45653863Y-43643928D01*
X45853719Y-43781879D01*
X45880829Y-43796107D01*
X46107893Y-43882220D01*
X46137619Y-43889547D01*
X46378692Y-43918819D01*
X46394000Y-43919745D01*
X48094000Y-43919745D01*
X48116892Y-43917665D01*
X48474101Y-43852204D01*
X48510229Y-43839737D01*
X48725257Y-43726882D01*
X48750454Y-43709490D01*
X48932226Y-43548454D01*
X48952528Y-43525537D01*
X49090479Y-43325681D01*
X49104707Y-43298571D01*
X49190820Y-43071507D01*
X49198147Y-43041781D01*
X49227419Y-42800708D01*
X49228345Y-42785400D01*
X49228345Y-41085400D01*
X49226265Y-41062508D01*
X49160804Y-40705299D01*
X49148337Y-40669171D01*
X49035482Y-40454143D01*
X49018090Y-40428947D01*
X48965488Y-40369571D01*
X49056198Y-40197160D01*
X49063557Y-40180316D01*
X49152956Y-39927160D01*
X49157807Y-39909430D01*
X49209724Y-39646020D01*
X49211964Y-39627776D01*
X49225314Y-39359631D01*
X49224897Y-39341254D01*
X49199397Y-39073991D01*
X49196331Y-39055867D01*
X49132518Y-38795083D01*
X49126869Y-38777591D01*
X49026079Y-38528752D01*
X49017963Y-38512259D01*
X48882306Y-38280575D01*
X48871895Y-38265427D01*
X48704215Y-38055753D01*
X48691726Y-38042266D01*
X48495534Y-37858993D01*
X48481228Y-37847450D01*
X48260634Y-37694419D01*
X48244813Y-37685062D01*
X48004439Y-37565478D01*
X47987432Y-37558503D01*
X47732314Y-37474871D01*
X47708230Y-37469499D01*
X47299775Y-37419347D01*
X47284298Y-37418400D01*
X47175806Y-37418400D01*
X47166615Y-37418733D01*
X46967036Y-37433214D01*
X46948848Y-37435867D01*
X46686684Y-37493747D01*
X46669068Y-37498999D01*
X46418005Y-37594119D01*
X46401332Y-37601858D01*
X46166631Y-37732223D01*
X46151251Y-37742288D01*
X45937826Y-37905168D01*
X45924058Y-37917348D01*
X45736382Y-38109332D01*
X45724518Y-38123372D01*
X45566522Y-38340436D01*
X45556809Y-38356041D01*
X45431802Y-38593640D01*
X45424443Y-38610484D01*
X45335044Y-38863640D01*
X45330193Y-38881370D01*
X45278276Y-39144780D01*
X45276036Y-39163024D01*
X45262686Y-39431169D01*
X45263103Y-39449546D01*
X45288603Y-39716809D01*
X45291669Y-39734933D01*
X45355482Y-39995717D01*
X45361131Y-40013209D01*
X45461921Y-40262048D01*
X45470037Y-40278541D01*
X45521206Y-40365931D01*
X45397521Y-40545119D01*
X45383293Y-40572229D01*
X45297180Y-40799293D01*
X45289853Y-40829019D01*
X45260581Y-41070092D01*
X45259655Y-41085400D01*
X28577000Y-41085400D01*
X28577000Y-40750000D01*
X28576633Y-40740356D01*
X28565101Y-40588928D01*
X28561414Y-40566739D01*
X28510698Y-40370862D01*
X28510014Y-40369014D01*
X28550706Y-40239318D01*
X28555878Y-40214147D01*
X28576348Y-40012848D01*
X28577000Y-40000000D01*
X28577000Y-33000000D01*
X28576633Y-32990356D01*
X28565101Y-32838928D01*
X28561414Y-32816739D01*
X28510698Y-32620862D01*
X28506478Y-32609468D01*
X28512800Y-32589319D01*
X28517973Y-32564147D01*
X28538443Y-32362848D01*
X28539095Y-32350000D01*
X28539095Y-25350000D01*
X28538728Y-25340356D01*
X28527196Y-25188928D01*
X28523509Y-25166740D01*
X28510637Y-25117026D01*
X28550706Y-24989318D01*
X28555878Y-24964147D01*
X28576348Y-24762848D01*
X28577000Y-24750000D01*
X28577000Y-17650000D01*
X28576633Y-17640356D01*
X28565101Y-17488928D01*
X28561414Y-17466739D01*
X28517219Y-17296049D01*
X28550706Y-17189318D01*
X28555878Y-17164147D01*
X28576348Y-16962848D01*
X28577000Y-16950000D01*
X28577000Y-16488800D01*
X44601655Y-16488800D01*
X44601655Y-19088800D01*
X44603735Y-19111692D01*
X44669196Y-19468901D01*
X44681663Y-19505029D01*
X44794518Y-19720057D01*
X44811910Y-19745254D01*
X44972946Y-19927026D01*
X44995863Y-19947328D01*
X45195719Y-20085279D01*
X45222829Y-20099507D01*
X45449893Y-20185620D01*
X45479619Y-20192947D01*
X45720692Y-20222219D01*
X45736000Y-20223145D01*
X47736000Y-20223145D01*
X47758892Y-20221065D01*
X48116101Y-20155604D01*
X48152229Y-20143137D01*
X48367257Y-20030282D01*
X48378691Y-20022390D01*
X48640595Y-20123713D01*
X48657741Y-20128988D01*
X48933656Y-20192942D01*
X48951375Y-20195748D01*
X49233548Y-20220187D01*
X49251485Y-20220469D01*
X49534286Y-20204905D01*
X49552083Y-20202657D01*
X49829870Y-20147402D01*
X49847174Y-20142668D01*
X50114404Y-20048823D01*
X50130867Y-20041699D01*
X50382209Y-19911138D01*
X50397506Y-19901764D01*
X50627944Y-19737090D01*
X50641766Y-19725655D01*
X50846702Y-19530156D01*
X50858775Y-19516888D01*
X51034121Y-19294463D01*
X51044205Y-19279626D01*
X51150384Y-19096825D01*
X51151735Y-19111692D01*
X51217196Y-19468901D01*
X51229663Y-19505029D01*
X51342518Y-19720057D01*
X51359910Y-19745254D01*
X51520946Y-19927026D01*
X51543863Y-19947328D01*
X51743719Y-20085279D01*
X51770829Y-20099507D01*
X51997893Y-20185620D01*
X52027619Y-20192947D01*
X52268692Y-20222219D01*
X52284000Y-20223145D01*
X54284000Y-20223145D01*
X54306892Y-20221065D01*
X54664101Y-20155604D01*
X54700229Y-20143137D01*
X54915257Y-20030282D01*
X54926691Y-20022390D01*
X55188595Y-20123713D01*
X55205741Y-20128988D01*
X55481656Y-20192942D01*
X55499375Y-20195748D01*
X55781548Y-20220187D01*
X55799485Y-20220469D01*
X56082286Y-20204905D01*
X56100083Y-20202657D01*
X56377870Y-20147402D01*
X56395174Y-20142668D01*
X56662404Y-20048823D01*
X56678867Y-20041699D01*
X56930209Y-19911138D01*
X56945506Y-19901764D01*
X57175944Y-19737090D01*
X57189766Y-19725655D01*
X57394702Y-19530156D01*
X57406775Y-19516888D01*
X57582121Y-19294463D01*
X57592205Y-19279626D01*
X57734461Y-19034714D01*
X57742353Y-19018604D01*
X57848682Y-18756089D01*
X57854225Y-18739028D01*
X57922505Y-18464152D01*
X57925777Y-18444493D01*
X57950526Y-18158735D01*
X57951000Y-18147777D01*
X57951000Y-17416658D01*
X57950683Y-17407688D01*
X57935787Y-17197308D01*
X57933259Y-17179548D01*
X57873648Y-16902663D01*
X57868643Y-16885436D01*
X57770612Y-16619712D01*
X57763230Y-16603362D01*
X57628737Y-16354102D01*
X57619124Y-16338955D01*
X57450851Y-16111133D01*
X57439201Y-16097493D01*
X57240507Y-15895652D01*
X57227050Y-15883788D01*
X57001898Y-15711958D01*
X56986905Y-15702109D01*
X56739787Y-15563717D01*
X56723555Y-15556079D01*
X56459405Y-15453887D01*
X56442259Y-15448612D01*
X56166344Y-15384658D01*
X56148625Y-15381852D01*
X55866452Y-15357413D01*
X55848515Y-15357131D01*
X55565714Y-15372695D01*
X55547917Y-15374943D01*
X55270130Y-15430198D01*
X55252826Y-15434932D01*
X54985596Y-15528777D01*
X54969132Y-15535901D01*
X54922506Y-15560121D01*
X54824281Y-15492321D01*
X54797171Y-15478093D01*
X54570107Y-15391980D01*
X54540381Y-15384653D01*
X54299308Y-15355381D01*
X54284000Y-15354455D01*
X52284000Y-15354455D01*
X52261108Y-15356535D01*
X51903899Y-15421996D01*
X51867771Y-15434463D01*
X51652743Y-15547318D01*
X51627546Y-15564710D01*
X51445774Y-15725746D01*
X51425472Y-15748663D01*
X51287521Y-15948519D01*
X51273293Y-15975629D01*
X51187180Y-16202693D01*
X51179853Y-16232419D01*
X51150581Y-16473492D01*
X51150034Y-16482532D01*
X51080737Y-16354102D01*
X51071124Y-16338955D01*
X50902851Y-16111133D01*
X50891201Y-16097493D01*
X50692507Y-15895652D01*
X50679050Y-15883788D01*
X50453898Y-15711958D01*
X50438905Y-15702109D01*
X50191787Y-15563717D01*
X50175555Y-15556079D01*
X49911405Y-15453887D01*
X49894259Y-15448612D01*
X49618344Y-15384658D01*
X49600625Y-15381852D01*
X49318452Y-15357413D01*
X49300515Y-15357131D01*
X49017714Y-15372695D01*
X48999917Y-15374943D01*
X48722130Y-15430198D01*
X48704826Y-15434932D01*
X48437596Y-15528777D01*
X48421132Y-15535901D01*
X48374506Y-15560121D01*
X48276281Y-15492321D01*
X48249171Y-15478093D01*
X48022107Y-15391980D01*
X47992381Y-15384653D01*
X47751308Y-15355381D01*
X47736000Y-15354455D01*
X45736000Y-15354455D01*
X45713108Y-15356535D01*
X45355899Y-15421996D01*
X45319771Y-15434463D01*
X45104743Y-15547318D01*
X45079546Y-15564710D01*
X44897774Y-15725746D01*
X44877472Y-15748663D01*
X44739521Y-15948519D01*
X44725293Y-15975629D01*
X44639180Y-16202693D01*
X44631853Y-16232419D01*
X44602581Y-16473492D01*
X44601655Y-16488800D01*
X28577000Y-16488800D01*
X28577000Y-9850000D01*
X28576633Y-9840356D01*
X28565101Y-9688928D01*
X28561414Y-9666739D01*
X28510698Y-9470862D01*
X28501773Y-9446764D01*
X28500592Y-9444357D01*
X28550706Y-9284632D01*
X28555878Y-9259461D01*
X28576348Y-9058162D01*
X28577000Y-9045314D01*
X28577000Y-2045314D01*
X28576633Y-2035670D01*
X28565101Y-1884242D01*
X28561414Y-1862053D01*
X28510698Y-1666176D01*
X28501773Y-1642079D01*
X28412665Y-1460420D01*
X28399073Y-1438613D01*
X28275222Y-1278610D01*
X28257517Y-1259984D01*
X28103992Y-1128188D01*
X28102285Y-1127000D01*
X54906289Y-1127000D01*
X54942996Y-1130567D01*
X54949629Y-1131036D01*
X55343726Y-1148587D01*
X55684746Y-1194392D01*
X56020310Y-1270323D01*
X56347836Y-1375794D01*
X56664675Y-1509959D01*
X56968311Y-1671744D01*
X57256398Y-1859904D01*
X57526594Y-2072911D01*
X57776790Y-2309097D01*
X58005009Y-2566597D01*
X58209420Y-2843347D01*
X58388434Y-3137196D01*
X58540612Y-3445780D01*
X58664752Y-3766661D01*
X58759884Y-4097338D01*
X58825240Y-4435144D01*
X58861217Y-4786283D01*
X58868313Y-5032599D01*
X58869332Y-5045409D01*
X58873000Y-5073460D01*
X58873001Y-94906277D01*
X58869433Y-94942995D01*
X58868964Y-94949628D01*
X58851413Y-95343726D01*
X58805608Y-95684746D01*
X58729677Y-96020312D01*
X58624206Y-96347836D01*
X58490041Y-96664675D01*
X58328256Y-96968311D01*
X58140095Y-97256399D01*
X57927092Y-97526590D01*
X57690904Y-97776790D01*
X57433403Y-98005009D01*
X57156652Y-98209421D01*
X56862804Y-98388434D01*
X56554218Y-98540613D01*
X56233322Y-98664758D01*
X55902660Y-98759885D01*
X55564864Y-98825240D01*
X55213717Y-98861217D01*
X54967400Y-98868313D01*
X54954590Y-98869332D01*
X54926539Y-98873000D01*
X5093712Y-98873000D01*
X5057005Y-98869433D01*
X5050372Y-98868964D01*
X4656274Y-98851413D01*
X4315254Y-98805608D01*
X3979688Y-98729677D01*
X3652164Y-98624206D01*
X3335325Y-98490041D01*
X3031689Y-98328256D01*
X2743601Y-98140095D01*
X2473410Y-97927092D01*
X2223210Y-97690904D01*
X1994991Y-97433403D01*
X1790579Y-97156652D01*
X1611566Y-96862804D01*
X1459387Y-96554218D01*
X1335242Y-96233322D01*
X1240115Y-95902660D01*
X1174760Y-95564864D01*
X1138783Y-95213717D01*
X1131687Y-94967400D01*
X1130668Y-94954590D01*
X1127000Y-94926539D01*
X1127000Y-94806091D01*
X1173001Y-94806091D01*
X1173001Y-95193909D01*
X1173697Y-95207184D01*
X1214235Y-95592877D01*
X1216314Y-95606007D01*
X1296945Y-95985349D01*
X1300386Y-95998189D01*
X1420229Y-96367026D01*
X1424993Y-96379436D01*
X1582732Y-96733725D01*
X1588767Y-96745570D01*
X1782676Y-97081430D01*
X1789916Y-97092579D01*
X2017869Y-97406330D01*
X2026235Y-97416661D01*
X2285736Y-97704865D01*
X2295135Y-97714264D01*
X2583339Y-97973765D01*
X2593670Y-97982131D01*
X2907421Y-98210084D01*
X2918570Y-98217324D01*
X3254430Y-98411233D01*
X3266275Y-98417268D01*
X3620564Y-98575007D01*
X3632974Y-98579771D01*
X4001811Y-98699614D01*
X4014651Y-98703055D01*
X4393993Y-98783686D01*
X4407123Y-98785765D01*
X4792816Y-98826303D01*
X4806091Y-98826999D01*
X5193909Y-98826999D01*
X5207184Y-98826303D01*
X5592877Y-98785765D01*
X5606007Y-98783686D01*
X5985349Y-98703055D01*
X5998189Y-98699614D01*
X6367026Y-98579771D01*
X6379436Y-98575007D01*
X6733725Y-98417268D01*
X6745570Y-98411233D01*
X7081430Y-98217324D01*
X7092579Y-98210084D01*
X7406330Y-97982131D01*
X7416661Y-97973765D01*
X7704865Y-97714264D01*
X7714264Y-97704865D01*
X7973765Y-97416661D01*
X7982131Y-97406330D01*
X8210084Y-97092579D01*
X8217324Y-97081430D01*
X8411233Y-96745570D01*
X8417268Y-96733725D01*
X8575007Y-96379436D01*
X8579771Y-96367026D01*
X8699614Y-95998189D01*
X8703055Y-95985349D01*
X8783686Y-95606007D01*
X8785765Y-95592877D01*
X8826303Y-95207184D01*
X8826999Y-95193909D01*
X8826999Y-94806091D01*
X8826303Y-94792816D01*
X8785765Y-94407123D01*
X8783686Y-94393993D01*
X8703055Y-94014651D01*
X8699614Y-94001811D01*
X8579771Y-93632974D01*
X8575007Y-93620564D01*
X8417268Y-93266275D01*
X8411233Y-93254430D01*
X8217324Y-92918570D01*
X8210084Y-92907421D01*
X7982131Y-92593670D01*
X7973765Y-92583339D01*
X7714264Y-92295135D01*
X7704865Y-92285736D01*
X7416661Y-92026235D01*
X7406330Y-92017869D01*
X7092579Y-91789916D01*
X7081430Y-91782676D01*
X6745570Y-91588767D01*
X6733725Y-91582732D01*
X6379436Y-91424993D01*
X6367026Y-91420229D01*
X5998189Y-91300386D01*
X5985349Y-91296945D01*
X5606007Y-91216314D01*
X5592877Y-91214235D01*
X5207184Y-91173697D01*
X5193909Y-91173001D01*
X4806091Y-91173001D01*
X4792816Y-91173697D01*
X4407123Y-91214235D01*
X4393993Y-91216314D01*
X4014651Y-91296945D01*
X4001811Y-91300386D01*
X3632974Y-91420229D01*
X3620564Y-91424993D01*
X3266275Y-91582732D01*
X3254430Y-91588767D01*
X2918570Y-91782676D01*
X2907421Y-91789916D01*
X2593670Y-92017869D01*
X2583339Y-92026235D01*
X2295135Y-92285736D01*
X2285736Y-92295135D01*
X2026235Y-92583339D01*
X2017869Y-92593670D01*
X1789916Y-92907421D01*
X1782676Y-92918570D01*
X1588767Y-93254430D01*
X1582732Y-93266275D01*
X1424993Y-93620564D01*
X1420229Y-93632974D01*
X1300386Y-94001811D01*
X1296945Y-94014651D01*
X1216314Y-94393993D01*
X1214235Y-94407123D01*
X1173697Y-94792816D01*
X1173001Y-94806091D01*
X1127000Y-94806091D01*
X1127000Y-83649312D01*
X2537861Y-83649312D01*
X2548825Y-83720027D01*
X2596280Y-83773589D01*
X2663760Y-83793000D01*
X3746000Y-83793000D01*
X3814661Y-83772839D01*
X3861523Y-83718758D01*
X3873000Y-83666000D01*
X3873000Y-82590756D01*
X4127000Y-82590756D01*
X4127000Y-83666000D01*
X4147161Y-83734661D01*
X4201242Y-83781523D01*
X4254000Y-83793000D01*
X5334306Y-83793000D01*
X5402967Y-83772839D01*
X5449829Y-83718758D01*
X5458599Y-83639921D01*
X5429718Y-83502275D01*
X5423547Y-83481705D01*
X5338896Y-83267354D01*
X5329348Y-83248119D01*
X5209791Y-83051095D01*
X5197138Y-83033743D01*
X5046094Y-82859680D01*
X5030698Y-82844708D01*
X4852485Y-82698583D01*
X4834787Y-82686420D01*
X4634502Y-82572411D01*
X4615007Y-82563403D01*
X4398376Y-82484770D01*
X4371731Y-82478250D01*
X4270687Y-82464857D01*
X4199972Y-82475821D01*
X4146411Y-82523276D01*
X4127000Y-82590756D01*
X3873000Y-82590756D01*
X3873000Y-82582900D01*
X3852839Y-82514239D01*
X3798758Y-82467377D01*
X3714095Y-82459973D01*
X3515390Y-82511546D01*
X3495134Y-82518679D01*
X3285008Y-82613334D01*
X3266243Y-82623778D01*
X3075070Y-82752483D01*
X3058334Y-82765940D01*
X2891580Y-82925016D01*
X2877350Y-82941099D01*
X2739782Y-83125997D01*
X2728466Y-83144249D01*
X2624018Y-83349683D01*
X2615938Y-83369580D01*
X2547597Y-83589674D01*
X2542986Y-83610647D01*
X2537861Y-83649312D01*
X1127000Y-83649312D01*
X1127000Y-70109312D01*
X2537861Y-70109312D01*
X2548825Y-70180027D01*
X2596280Y-70233589D01*
X2663760Y-70253000D01*
X3746000Y-70253000D01*
X3814661Y-70232839D01*
X3861523Y-70178758D01*
X3873000Y-70126000D01*
X3873000Y-69050756D01*
X4127000Y-69050756D01*
X4127000Y-70126000D01*
X4147161Y-70194661D01*
X4201242Y-70241523D01*
X4254000Y-70253000D01*
X5334306Y-70253000D01*
X5402967Y-70232839D01*
X5449829Y-70178758D01*
X5458599Y-70099921D01*
X5429718Y-69962275D01*
X5423547Y-69941705D01*
X5338896Y-69727354D01*
X5329348Y-69708119D01*
X5209791Y-69511095D01*
X5197138Y-69493743D01*
X5046094Y-69319680D01*
X5030698Y-69304708D01*
X4852485Y-69158583D01*
X4834787Y-69146420D01*
X4634502Y-69032411D01*
X4615007Y-69023403D01*
X4398376Y-68944770D01*
X4371731Y-68938250D01*
X4270687Y-68924857D01*
X4199972Y-68935821D01*
X4146411Y-68983276D01*
X4127000Y-69050756D01*
X3873000Y-69050756D01*
X3873000Y-69042900D01*
X3852839Y-68974239D01*
X3798758Y-68927377D01*
X3714095Y-68919973D01*
X3515390Y-68971546D01*
X3495134Y-68978679D01*
X3285008Y-69073334D01*
X3266243Y-69083778D01*
X3075070Y-69212483D01*
X3058334Y-69225940D01*
X2891580Y-69385016D01*
X2877350Y-69401099D01*
X2739782Y-69585997D01*
X2728466Y-69604249D01*
X2624018Y-69809683D01*
X2615938Y-69829580D01*
X2547597Y-70049674D01*
X2542986Y-70070647D01*
X2537861Y-70109312D01*
X1127000Y-70109312D01*
X1127000Y-5093711D01*
X1130567Y-5057004D01*
X1131036Y-5050371D01*
X1141914Y-4806091D01*
X1173001Y-4806091D01*
X1173001Y-5193909D01*
X1173697Y-5207184D01*
X1214235Y-5592877D01*
X1216314Y-5606007D01*
X1296945Y-5985349D01*
X1300386Y-5998189D01*
X1420229Y-6367026D01*
X1424993Y-6379436D01*
X1582732Y-6733725D01*
X1588767Y-6745570D01*
X1782676Y-7081430D01*
X1789916Y-7092579D01*
X2017869Y-7406330D01*
X2026235Y-7416661D01*
X2285736Y-7704865D01*
X2295135Y-7714264D01*
X2583339Y-7973765D01*
X2593670Y-7982131D01*
X2907421Y-8210084D01*
X2918570Y-8217324D01*
X3254430Y-8411233D01*
X3266275Y-8417268D01*
X3620564Y-8575007D01*
X3632974Y-8579771D01*
X4001811Y-8699614D01*
X4014651Y-8703055D01*
X4393993Y-8783686D01*
X4407123Y-8785765D01*
X4792816Y-8826303D01*
X4806091Y-8826999D01*
X5193909Y-8826999D01*
X5207184Y-8826303D01*
X5592877Y-8785765D01*
X5606007Y-8783686D01*
X5985349Y-8703055D01*
X5998189Y-8699614D01*
X6367026Y-8579771D01*
X6379436Y-8575007D01*
X6733725Y-8417268D01*
X6745570Y-8411233D01*
X7081430Y-8217324D01*
X7092579Y-8210084D01*
X7406330Y-7982131D01*
X7416661Y-7973765D01*
X7704865Y-7714264D01*
X7714264Y-7704865D01*
X7973765Y-7416661D01*
X7982131Y-7406330D01*
X8210084Y-7092579D01*
X8217324Y-7081430D01*
X8411233Y-6745570D01*
X8417268Y-6733725D01*
X8575007Y-6379436D01*
X8579771Y-6367026D01*
X8699614Y-5998189D01*
X8703055Y-5985349D01*
X8783686Y-5606007D01*
X8785765Y-5592877D01*
X8826303Y-5207184D01*
X8826999Y-5193909D01*
X8826999Y-4806091D01*
X8826303Y-4792816D01*
X8785765Y-4407123D01*
X8783686Y-4393993D01*
X8703055Y-4014651D01*
X8699614Y-4001811D01*
X8579771Y-3632974D01*
X8575007Y-3620564D01*
X8417268Y-3266275D01*
X8411233Y-3254430D01*
X8217324Y-2918570D01*
X8210084Y-2907421D01*
X7982131Y-2593670D01*
X7973765Y-2583339D01*
X7714264Y-2295135D01*
X7704865Y-2285736D01*
X7416661Y-2026235D01*
X7406330Y-2017869D01*
X7092579Y-1789916D01*
X7081430Y-1782676D01*
X6745570Y-1588767D01*
X6733725Y-1582732D01*
X6379436Y-1424993D01*
X6367026Y-1420229D01*
X5998189Y-1300386D01*
X5985349Y-1296945D01*
X5606007Y-1216314D01*
X5592877Y-1214235D01*
X5207184Y-1173697D01*
X5193909Y-1173001D01*
X4806091Y-1173001D01*
X4792816Y-1173697D01*
X4407123Y-1214235D01*
X4393993Y-1216314D01*
X4014651Y-1296945D01*
X4001811Y-1300386D01*
X3632974Y-1420229D01*
X3620564Y-1424993D01*
X3266275Y-1582732D01*
X3254430Y-1588767D01*
X2918570Y-1782676D01*
X2907421Y-1789916D01*
X2593670Y-2017869D01*
X2583339Y-2026235D01*
X2295135Y-2285736D01*
X2285736Y-2295135D01*
X2026235Y-2583339D01*
X2017869Y-2593670D01*
X1789916Y-2907421D01*
X1782676Y-2918570D01*
X1588767Y-3254430D01*
X1582732Y-3266275D01*
X1424993Y-3620564D01*
X1420229Y-3632974D01*
X1300386Y-4001811D01*
X1296945Y-4014651D01*
X1216314Y-4393993D01*
X1214235Y-4407123D01*
X1173697Y-4792816D01*
X1173001Y-4806091D01*
X1141914Y-4806091D01*
X1148587Y-4656274D01*
X1194392Y-4315254D01*
X1270323Y-3979690D01*
X1375794Y-3652164D01*
X1509959Y-3335325D01*
X1671744Y-3031689D01*
X1859904Y-2743602D01*
X2072911Y-2473406D01*
X2309097Y-2223210D01*
X2566597Y-1994991D01*
X2843347Y-1790580D01*
X3137196Y-1611566D01*
X3445780Y-1459388D01*
X3766661Y-1335248D01*
X4097338Y-1240116D01*
X4435144Y-1174760D01*
X4786283Y-1138783D01*
X5032599Y-1131687D01*
X5045409Y-1130668D01*
X5073460Y-1127000D01*
X11303561Y-1127000D01*
X11183296Y-1220092D01*
G36*
X27323000Y-8918314D02*
G01*
X12077000Y-8918314D01*
X12077000Y-2172314D01*
X27323000Y-2172314D01*
X27323000Y-8918314D01*
X27323000Y-8918314D01*
G37*
X27323000Y-8918314D02*
X12077000Y-8918314D01*
X12077000Y-2172314D01*
X27323000Y-2172314D01*
X27323000Y-8918314D01*
G36*
X18613932Y-10045993D02*
G01*
X18638187Y-10056792D01*
X18918075Y-10147733D01*
X18944045Y-10153253D01*
X19236725Y-10184015D01*
X19263275Y-10184015D01*
X19555955Y-10153253D01*
X19581925Y-10147733D01*
X19861813Y-10056792D01*
X19886068Y-10045993D01*
X20005567Y-9977000D01*
X27323000Y-9977000D01*
X27323000Y-16823409D01*
X19871335Y-16847447D01*
X19861813Y-16843208D01*
X19581925Y-16752267D01*
X19555955Y-16746747D01*
X19263275Y-16715985D01*
X19236725Y-16715985D01*
X18944045Y-16746747D01*
X18918075Y-16752267D01*
X18638187Y-16843208D01*
X18619597Y-16851485D01*
X12077000Y-16872590D01*
X12077000Y-9977000D01*
X18494433Y-9977000D01*
X18613932Y-10045993D01*
X18613932Y-10045993D01*
G37*
X18613932Y-10045993D02*
X18638187Y-10056792D01*
X18918075Y-10147733D01*
X18944045Y-10153253D01*
X19236725Y-10184015D01*
X19263275Y-10184015D01*
X19555955Y-10153253D01*
X19581925Y-10147733D01*
X19861813Y-10056792D01*
X19886068Y-10045993D01*
X20005567Y-9977000D01*
X27323000Y-9977000D01*
X27323000Y-16823409D01*
X19871335Y-16847447D01*
X19861813Y-16843208D01*
X19581925Y-16752267D01*
X19555955Y-16746747D01*
X19263275Y-16715985D01*
X19236725Y-16715985D01*
X18944045Y-16746747D01*
X18918075Y-16752267D01*
X18638187Y-16843208D01*
X18619597Y-16851485D01*
X12077000Y-16872590D01*
X12077000Y-9977000D01*
X18494433Y-9977000D01*
X18613932Y-10045993D01*
G36*
X18918075Y-25547733D02*
G01*
X18944045Y-25553253D01*
X19236725Y-25584015D01*
X19263275Y-25584015D01*
X19555955Y-25553253D01*
X19581925Y-25547733D01*
X19799619Y-25477000D01*
X27285095Y-25477000D01*
X27285095Y-32223000D01*
X19799619Y-32223000D01*
X19581925Y-32152267D01*
X19555955Y-32146747D01*
X19263275Y-32115985D01*
X19236725Y-32115985D01*
X18944045Y-32146747D01*
X18918075Y-32152267D01*
X18700381Y-32223000D01*
X12088876Y-32223000D01*
X12077220Y-25477000D01*
X18700381Y-25477000D01*
X18918075Y-25547733D01*
X18918075Y-25547733D01*
G37*
X18918075Y-25547733D02*
X18944045Y-25553253D01*
X19236725Y-25584015D01*
X19263275Y-25584015D01*
X19555955Y-25553253D01*
X19581925Y-25547733D01*
X19799619Y-25477000D01*
X27285095Y-25477000D01*
X27285095Y-32223000D01*
X19799619Y-32223000D01*
X19581925Y-32152267D01*
X19555955Y-32146747D01*
X19263275Y-32115985D01*
X19236725Y-32115985D01*
X18944045Y-32146747D01*
X18918075Y-32152267D01*
X18700381Y-32223000D01*
X12088876Y-32223000D01*
X12077220Y-25477000D01*
X18700381Y-25477000D01*
X18918075Y-25547733D01*
G36*
X18613932Y-33145993D02*
G01*
X18638187Y-33156792D01*
X18918075Y-33247733D01*
X18944045Y-33253253D01*
X19236725Y-33284015D01*
X19263275Y-33284015D01*
X19555955Y-33253253D01*
X19581925Y-33247733D01*
X19861813Y-33156792D01*
X19886068Y-33145993D01*
X19918965Y-33127000D01*
X27323000Y-33127000D01*
X27323000Y-39873000D01*
X19645735Y-39873000D01*
X19581925Y-39852267D01*
X19555955Y-39846747D01*
X19263275Y-39815985D01*
X19236725Y-39815985D01*
X18944045Y-39846747D01*
X18918075Y-39852267D01*
X18854265Y-39873000D01*
X12077000Y-39873000D01*
X12077000Y-33127000D01*
X18581035Y-33127000D01*
X18613932Y-33145993D01*
X18613932Y-33145993D01*
G37*
X18613932Y-33145993D02*
X18638187Y-33156792D01*
X18918075Y-33247733D01*
X18944045Y-33253253D01*
X19236725Y-33284015D01*
X19263275Y-33284015D01*
X19555955Y-33253253D01*
X19581925Y-33247733D01*
X19861813Y-33156792D01*
X19886068Y-33145993D01*
X19918965Y-33127000D01*
X27323000Y-33127000D01*
X27323000Y-39873000D01*
X19645735Y-39873000D01*
X19581925Y-39852267D01*
X19555955Y-39846747D01*
X19263275Y-39815985D01*
X19236725Y-39815985D01*
X18944045Y-39846747D01*
X18918075Y-39852267D01*
X18854265Y-39873000D01*
X12077000Y-39873000D01*
X12077000Y-33127000D01*
X18581035Y-33127000D01*
X18613932Y-33145993D01*
G36*
X18918075Y-40947733D02*
G01*
X18944045Y-40953253D01*
X19236725Y-40984015D01*
X19263275Y-40984015D01*
X19555955Y-40953253D01*
X19581925Y-40947733D01*
X19799619Y-40877000D01*
X27323000Y-40877000D01*
X27323000Y-47623000D01*
X19330018Y-47623000D01*
X19263275Y-47615985D01*
X19236725Y-47615985D01*
X19169982Y-47623000D01*
X12077000Y-47623000D01*
X12077000Y-40877000D01*
X18700381Y-40877000D01*
X18918075Y-40947733D01*
X18918075Y-40947733D01*
G37*
X18918075Y-40947733D02*
X18944045Y-40953253D01*
X19236725Y-40984015D01*
X19263275Y-40984015D01*
X19555955Y-40953253D01*
X19581925Y-40947733D01*
X19799619Y-40877000D01*
X27323000Y-40877000D01*
X27323000Y-47623000D01*
X19330018Y-47623000D01*
X19263275Y-47615985D01*
X19236725Y-47615985D01*
X19169982Y-47623000D01*
X12077000Y-47623000D01*
X12077000Y-40877000D01*
X18700381Y-40877000D01*
X18918075Y-40947733D01*
G36*
X27323000Y-55373409D02*
G01*
X20939900Y-55394000D01*
X12077000Y-55394000D01*
X12077000Y-48627000D01*
X27323000Y-48627000D01*
X27323000Y-55373409D01*
X27323000Y-55373409D01*
G37*
X27323000Y-55373409D02*
X20939900Y-55394000D01*
X12077000Y-55394000D01*
X12077000Y-48627000D01*
X27323000Y-48627000D01*
X27323000Y-55373409D01*
G36*
X27322981Y-63123000D02*
G01*
X12077000Y-63123000D01*
X12077000Y-56406000D01*
X27321949Y-56406000D01*
X27322981Y-63123000D01*
X27322981Y-63123000D01*
G37*
X27322981Y-63123000D02*
X12077000Y-63123000D01*
X12077000Y-56406000D01*
X27321949Y-56406000D01*
X27322981Y-63123000D01*
G36*
X27323000Y-70794000D02*
G01*
X12077000Y-70794000D01*
X12077000Y-64230990D01*
X27323000Y-64230990D01*
X27323000Y-70794000D01*
X27323000Y-70794000D01*
G37*
X27323000Y-70794000D02*
X12077000Y-70794000D01*
X12077000Y-64230990D01*
X27323000Y-64230990D01*
X27323000Y-70794000D01*
G36*
X27323000Y-86394000D02*
G01*
X12077000Y-86394000D01*
X12077000Y-79525400D01*
X27323000Y-79525400D01*
X27323000Y-86394000D01*
X27323000Y-86394000D01*
G37*
X27323000Y-86394000D02*
X12077000Y-86394000D01*
X12077000Y-79525400D01*
X27323000Y-79525400D01*
X27323000Y-86394000D01*
G36*
X27273904Y-94223000D02*
G01*
X12077182Y-94223000D01*
X12086819Y-87477000D01*
X27322089Y-87477000D01*
X27273904Y-94223000D01*
X27273904Y-94223000D01*
G37*
X27273904Y-94223000D02*
X12077182Y-94223000D01*
X12086819Y-87477000D01*
X27322089Y-87477000D01*
X27273904Y-94223000D01*
G36*
X18918075Y-17847733D02*
G01*
X18944045Y-17853253D01*
X19236725Y-17884015D01*
X19263275Y-17884015D01*
X19555955Y-17853253D01*
X19581925Y-17847733D01*
X19799619Y-17777000D01*
X27323000Y-17777000D01*
X27323000Y-24623000D01*
X20005567Y-24623000D01*
X19886068Y-24554007D01*
X19861813Y-24543208D01*
X19581925Y-24452267D01*
X19555955Y-24446747D01*
X19263275Y-24415985D01*
X19236725Y-24415985D01*
X18944045Y-24446747D01*
X18918075Y-24452267D01*
X18638187Y-24543208D01*
X18613932Y-24554007D01*
X18494433Y-24623000D01*
X12077000Y-24623000D01*
X12077000Y-17777000D01*
X18700381Y-17777000D01*
X18918075Y-17847733D01*
X18918075Y-17847733D01*
G37*
X18918075Y-17847733D02*
X18944045Y-17853253D01*
X19236725Y-17884015D01*
X19263275Y-17884015D01*
X19555955Y-17853253D01*
X19581925Y-17847733D01*
X19799619Y-17777000D01*
X27323000Y-17777000D01*
X27323000Y-24623000D01*
X20005567Y-24623000D01*
X19886068Y-24554007D01*
X19861813Y-24543208D01*
X19581925Y-24452267D01*
X19555955Y-24446747D01*
X19263275Y-24415985D01*
X19236725Y-24415985D01*
X18944045Y-24446747D01*
X18918075Y-24452267D01*
X18638187Y-24543208D01*
X18613932Y-24554007D01*
X18494433Y-24623000D01*
X12077000Y-24623000D01*
X12077000Y-17777000D01*
X18700381Y-17777000D01*
X18918075Y-17847733D01*
G36*
X27323000Y-78513400D02*
G01*
X12077000Y-78513400D01*
X12077000Y-71806000D01*
X27323000Y-71806000D01*
X27323000Y-78513400D01*
X27323000Y-78513400D01*
G37*
X27323000Y-78513400D02*
X12077000Y-78513400D01*
X12077000Y-71806000D01*
X27323000Y-71806000D01*
X27323000Y-78513400D01*
M02*
