G04 #@! TF.GenerationSoftware,KiCad,Pcbnew,5.1.0-unknown-c054944~86~ubuntu19.04.1*
G04 #@! TF.CreationDate,2019-05-13T10:22:25-04:00*
G04 #@! TF.ProjectId,LTC6811,4c544336-3831-4312-9e6b-696361645f70,rev?*
G04 #@! TF.SameCoordinates,Original*
G04 #@! TF.FileFunction,Legend,Top*
G04 #@! TF.FilePolarity,Positive*
%FSLAX46Y46*%
G04 Gerber Fmt 4.6, Leading zero omitted, Abs format (unit mm)*
G04 Created by KiCad (PCBNEW 5.1.0-unknown-c054944~86~ubuntu19.04.1) date 2019-05-13 10:22:25*
%MOMM*%
%LPD*%
G04 APERTURE LIST*
%ADD10C,0.150000*%
%ADD11C,0.120000*%
G04 APERTURE END LIST*
D10*
X43925000Y-46575000D02*
X43925000Y-46750000D01*
X50275000Y-46575000D02*
X50275000Y-46832500D01*
X50275000Y-59325000D02*
X50275000Y-59067500D01*
X43925000Y-59325000D02*
X43925000Y-59067500D01*
X43925000Y-46575000D02*
X50275000Y-46575000D01*
X43925000Y-59325000D02*
X50275000Y-59325000D01*
X43925000Y-46750000D02*
X42850000Y-46750000D01*
D11*
X61850000Y-52680000D02*
X60850000Y-52680000D01*
X60850000Y-51320000D02*
X61850000Y-51320000D01*
X60025000Y-54155000D02*
X59025000Y-54155000D01*
X59025000Y-52795000D02*
X60025000Y-52795000D01*
X61850000Y-50630000D02*
X60850000Y-50630000D01*
X60850000Y-49270000D02*
X61850000Y-49270000D01*
X60225000Y-62830000D02*
X59025000Y-62830000D01*
X59025000Y-61070000D02*
X60225000Y-61070000D01*
X54400000Y-52680000D02*
X53400000Y-52680000D01*
X53400000Y-51320000D02*
X54400000Y-51320000D01*
X52770000Y-30230000D02*
X52770000Y-28900000D01*
X54100000Y-30230000D02*
X52770000Y-30230000D01*
X55370000Y-30230000D02*
X55370000Y-27570000D01*
X55370000Y-27570000D02*
X63050000Y-27570000D01*
X55370000Y-30230000D02*
X63050000Y-30230000D01*
X63050000Y-30230000D02*
X63050000Y-27570000D01*
X2560000Y-65330000D02*
X2560000Y-57590000D01*
X2560000Y-57590000D02*
X-100000Y-57590000D01*
X-100000Y-57590000D02*
X-100000Y-65330000D01*
X-100000Y-65330000D02*
X2560000Y-65330000D01*
X-100000Y-64380000D02*
X-6100000Y-64380000D01*
X-6100000Y-64380000D02*
X-6100000Y-63620000D01*
X-6100000Y-63620000D02*
X-100000Y-63620000D01*
X-100000Y-64320000D02*
X-6100000Y-64320000D01*
X-100000Y-64200000D02*
X-6100000Y-64200000D01*
X-100000Y-64080000D02*
X-6100000Y-64080000D01*
X-100000Y-63960000D02*
X-6100000Y-63960000D01*
X-100000Y-63840000D02*
X-6100000Y-63840000D01*
X-100000Y-63720000D02*
X-6100000Y-63720000D01*
X2890000Y-64380000D02*
X2560000Y-64380000D01*
X2890000Y-63620000D02*
X2560000Y-63620000D01*
X2560000Y-62730000D02*
X-100000Y-62730000D01*
X-100000Y-61840000D02*
X-6100000Y-61840000D01*
X-6100000Y-61840000D02*
X-6100000Y-61080000D01*
X-6100000Y-61080000D02*
X-100000Y-61080000D01*
X2957071Y-61840000D02*
X2560000Y-61840000D01*
X2957071Y-61080000D02*
X2560000Y-61080000D01*
X2560000Y-60190000D02*
X-100000Y-60190000D01*
X-100000Y-59300000D02*
X-6100000Y-59300000D01*
X-6100000Y-59300000D02*
X-6100000Y-58540000D01*
X-6100000Y-58540000D02*
X-100000Y-58540000D01*
X2957071Y-59300000D02*
X2560000Y-59300000D01*
X2957071Y-58540000D02*
X2560000Y-58540000D01*
X5270000Y-64000000D02*
X5270000Y-65270000D01*
X5270000Y-65270000D02*
X4000000Y-65270000D01*
X2560000Y-90330000D02*
X2560000Y-82590000D01*
X2560000Y-82590000D02*
X-100000Y-82590000D01*
X-100000Y-82590000D02*
X-100000Y-90330000D01*
X-100000Y-90330000D02*
X2560000Y-90330000D01*
X-100000Y-89380000D02*
X-6100000Y-89380000D01*
X-6100000Y-89380000D02*
X-6100000Y-88620000D01*
X-6100000Y-88620000D02*
X-100000Y-88620000D01*
X-100000Y-89320000D02*
X-6100000Y-89320000D01*
X-100000Y-89200000D02*
X-6100000Y-89200000D01*
X-100000Y-89080000D02*
X-6100000Y-89080000D01*
X-100000Y-88960000D02*
X-6100000Y-88960000D01*
X-100000Y-88840000D02*
X-6100000Y-88840000D01*
X-100000Y-88720000D02*
X-6100000Y-88720000D01*
X2890000Y-89380000D02*
X2560000Y-89380000D01*
X2890000Y-88620000D02*
X2560000Y-88620000D01*
X2560000Y-87730000D02*
X-100000Y-87730000D01*
X-100000Y-86840000D02*
X-6100000Y-86840000D01*
X-6100000Y-86840000D02*
X-6100000Y-86080000D01*
X-6100000Y-86080000D02*
X-100000Y-86080000D01*
X2957071Y-86840000D02*
X2560000Y-86840000D01*
X2957071Y-86080000D02*
X2560000Y-86080000D01*
X2560000Y-85190000D02*
X-100000Y-85190000D01*
X-100000Y-84300000D02*
X-6100000Y-84300000D01*
X-6100000Y-84300000D02*
X-6100000Y-83540000D01*
X-6100000Y-83540000D02*
X-100000Y-83540000D01*
X2957071Y-84300000D02*
X2560000Y-84300000D01*
X2957071Y-83540000D02*
X2560000Y-83540000D01*
X5270000Y-89000000D02*
X5270000Y-90270000D01*
X5270000Y-90270000D02*
X4000000Y-90270000D01*
X2560000Y-79330000D02*
X2560000Y-69050000D01*
X2560000Y-69050000D02*
X-100000Y-69050000D01*
X-100000Y-69050000D02*
X-100000Y-79330000D01*
X-100000Y-79330000D02*
X2560000Y-79330000D01*
X-100000Y-78380000D02*
X-6100000Y-78380000D01*
X-6100000Y-78380000D02*
X-6100000Y-77620000D01*
X-6100000Y-77620000D02*
X-100000Y-77620000D01*
X-100000Y-78320000D02*
X-6100000Y-78320000D01*
X-100000Y-78200000D02*
X-6100000Y-78200000D01*
X-100000Y-78080000D02*
X-6100000Y-78080000D01*
X-100000Y-77960000D02*
X-6100000Y-77960000D01*
X-100000Y-77840000D02*
X-6100000Y-77840000D01*
X-100000Y-77720000D02*
X-6100000Y-77720000D01*
X2890000Y-78380000D02*
X2560000Y-78380000D01*
X2890000Y-77620000D02*
X2560000Y-77620000D01*
X2560000Y-76730000D02*
X-100000Y-76730000D01*
X-100000Y-75840000D02*
X-6100000Y-75840000D01*
X-6100000Y-75840000D02*
X-6100000Y-75080000D01*
X-6100000Y-75080000D02*
X-100000Y-75080000D01*
X2957071Y-75840000D02*
X2560000Y-75840000D01*
X2957071Y-75080000D02*
X2560000Y-75080000D01*
X2560000Y-74190000D02*
X-100000Y-74190000D01*
X-100000Y-73300000D02*
X-6100000Y-73300000D01*
X-6100000Y-73300000D02*
X-6100000Y-72540000D01*
X-6100000Y-72540000D02*
X-100000Y-72540000D01*
X2957071Y-73300000D02*
X2560000Y-73300000D01*
X2957071Y-72540000D02*
X2560000Y-72540000D01*
X2560000Y-71650000D02*
X-100000Y-71650000D01*
X-100000Y-70760000D02*
X-6100000Y-70760000D01*
X-6100000Y-70760000D02*
X-6100000Y-70000000D01*
X-6100000Y-70000000D02*
X-100000Y-70000000D01*
X2957071Y-70760000D02*
X2560000Y-70760000D01*
X2957071Y-70000000D02*
X2560000Y-70000000D01*
X5270000Y-78000000D02*
X5270000Y-79270000D01*
X5270000Y-79270000D02*
X4000000Y-79270000D01*
X2280000Y-10300000D02*
X2280000Y-11300000D01*
X920000Y-11300000D02*
X920000Y-10300000D01*
X850000Y-13300000D02*
X850000Y-15300000D01*
X850000Y-15300000D02*
X4750000Y-15300000D01*
X850000Y-13300000D02*
X4750000Y-13300000D01*
X850000Y-18300000D02*
X850000Y-20300000D01*
X850000Y-20300000D02*
X4750000Y-20300000D01*
X850000Y-18300000D02*
X4750000Y-18300000D01*
X850000Y-15800000D02*
X850000Y-17800000D01*
X850000Y-17800000D02*
X4750000Y-17800000D01*
X850000Y-15800000D02*
X4750000Y-15800000D01*
X47250000Y-34200000D02*
X47250000Y-33200000D01*
X45550000Y-33200000D02*
X45550000Y-34200000D01*
X49150000Y-34200000D02*
X49150000Y-33200000D01*
X47450000Y-33200000D02*
X47450000Y-34200000D01*
X19850000Y-47970000D02*
X14650000Y-47970000D01*
X14650000Y-44330000D02*
X19850000Y-44330000D01*
X19850000Y-17170000D02*
X14650000Y-17170000D01*
X14650000Y-13530000D02*
X19850000Y-13530000D01*
X60075000Y-56200000D02*
X59075000Y-56200000D01*
X59075000Y-57900000D02*
X60075000Y-57900000D01*
X60075000Y-54325000D02*
X59075000Y-54325000D01*
X59075000Y-56025000D02*
X60075000Y-56025000D01*
X49850000Y-4900000D02*
X50550000Y-4900000D01*
X50550000Y-6100000D02*
X49850000Y-6100000D01*
X49850000Y-1900000D02*
X50550000Y-1900000D01*
X50550000Y-3100000D02*
X49850000Y-3100000D01*
X51100000Y-34200000D02*
X51100000Y-33200000D01*
X49400000Y-33200000D02*
X49400000Y-34200000D01*
X55600000Y-37900000D02*
X55600000Y-38600000D01*
X54400000Y-38600000D02*
X54400000Y-37900000D01*
X61600000Y-37900000D02*
X61600000Y-38600000D01*
X60400000Y-38600000D02*
X60400000Y-37900000D01*
X59144000Y-58061000D02*
X59844000Y-58061000D01*
X59844000Y-59261000D02*
X59144000Y-59261000D01*
X2560000Y-54330000D02*
X2560000Y-21190000D01*
X2560000Y-21190000D02*
X-100000Y-21190000D01*
X-100000Y-21190000D02*
X-100000Y-54330000D01*
X-100000Y-54330000D02*
X2560000Y-54330000D01*
X-100000Y-53380000D02*
X-6100000Y-53380000D01*
X-6100000Y-53380000D02*
X-6100000Y-52620000D01*
X-6100000Y-52620000D02*
X-100000Y-52620000D01*
X-100000Y-53320000D02*
X-6100000Y-53320000D01*
X-100000Y-53200000D02*
X-6100000Y-53200000D01*
X-100000Y-53080000D02*
X-6100000Y-53080000D01*
X-100000Y-52960000D02*
X-6100000Y-52960000D01*
X-100000Y-52840000D02*
X-6100000Y-52840000D01*
X-100000Y-52720000D02*
X-6100000Y-52720000D01*
X2890000Y-53380000D02*
X2560000Y-53380000D01*
X2890000Y-52620000D02*
X2560000Y-52620000D01*
X2560000Y-51730000D02*
X-100000Y-51730000D01*
X-100000Y-50840000D02*
X-6100000Y-50840000D01*
X-6100000Y-50840000D02*
X-6100000Y-50080000D01*
X-6100000Y-50080000D02*
X-100000Y-50080000D01*
X2957071Y-50840000D02*
X2560000Y-50840000D01*
X2957071Y-50080000D02*
X2560000Y-50080000D01*
X2560000Y-49190000D02*
X-100000Y-49190000D01*
X-100000Y-48300000D02*
X-6100000Y-48300000D01*
X-6100000Y-48300000D02*
X-6100000Y-47540000D01*
X-6100000Y-47540000D02*
X-100000Y-47540000D01*
X2957071Y-48300000D02*
X2560000Y-48300000D01*
X2957071Y-47540000D02*
X2560000Y-47540000D01*
X2560000Y-46650000D02*
X-100000Y-46650000D01*
X-100000Y-45760000D02*
X-6100000Y-45760000D01*
X-6100000Y-45760000D02*
X-6100000Y-45000000D01*
X-6100000Y-45000000D02*
X-100000Y-45000000D01*
X2957071Y-45760000D02*
X2560000Y-45760000D01*
X2957071Y-45000000D02*
X2560000Y-45000000D01*
X2560000Y-44110000D02*
X-100000Y-44110000D01*
X-100000Y-43220000D02*
X-6100000Y-43220000D01*
X-6100000Y-43220000D02*
X-6100000Y-42460000D01*
X-6100000Y-42460000D02*
X-100000Y-42460000D01*
X2957071Y-43220000D02*
X2560000Y-43220000D01*
X2957071Y-42460000D02*
X2560000Y-42460000D01*
X2560000Y-41570000D02*
X-100000Y-41570000D01*
X-100000Y-40680000D02*
X-6100000Y-40680000D01*
X-6100000Y-40680000D02*
X-6100000Y-39920000D01*
X-6100000Y-39920000D02*
X-100000Y-39920000D01*
X2957071Y-40680000D02*
X2560000Y-40680000D01*
X2957071Y-39920000D02*
X2560000Y-39920000D01*
X2560000Y-39030000D02*
X-100000Y-39030000D01*
X-100000Y-38140000D02*
X-6100000Y-38140000D01*
X-6100000Y-38140000D02*
X-6100000Y-37380000D01*
X-6100000Y-37380000D02*
X-100000Y-37380000D01*
X2957071Y-38140000D02*
X2560000Y-38140000D01*
X2957071Y-37380000D02*
X2560000Y-37380000D01*
X2560000Y-36490000D02*
X-100000Y-36490000D01*
X-100000Y-35600000D02*
X-6100000Y-35600000D01*
X-6100000Y-35600000D02*
X-6100000Y-34840000D01*
X-6100000Y-34840000D02*
X-100000Y-34840000D01*
X2957071Y-35600000D02*
X2560000Y-35600000D01*
X2957071Y-34840000D02*
X2560000Y-34840000D01*
X2560000Y-33950000D02*
X-100000Y-33950000D01*
X-100000Y-33060000D02*
X-6100000Y-33060000D01*
X-6100000Y-33060000D02*
X-6100000Y-32300000D01*
X-6100000Y-32300000D02*
X-100000Y-32300000D01*
X2957071Y-33060000D02*
X2560000Y-33060000D01*
X2957071Y-32300000D02*
X2560000Y-32300000D01*
X2560000Y-31410000D02*
X-100000Y-31410000D01*
X-100000Y-30520000D02*
X-6100000Y-30520000D01*
X-6100000Y-30520000D02*
X-6100000Y-29760000D01*
X-6100000Y-29760000D02*
X-100000Y-29760000D01*
X2957071Y-30520000D02*
X2560000Y-30520000D01*
X2957071Y-29760000D02*
X2560000Y-29760000D01*
X2560000Y-28870000D02*
X-100000Y-28870000D01*
X-100000Y-27980000D02*
X-6100000Y-27980000D01*
X-6100000Y-27980000D02*
X-6100000Y-27220000D01*
X-6100000Y-27220000D02*
X-100000Y-27220000D01*
X2957071Y-27980000D02*
X2560000Y-27980000D01*
X2957071Y-27220000D02*
X2560000Y-27220000D01*
X2560000Y-26330000D02*
X-100000Y-26330000D01*
X-100000Y-25440000D02*
X-6100000Y-25440000D01*
X-6100000Y-25440000D02*
X-6100000Y-24680000D01*
X-6100000Y-24680000D02*
X-100000Y-24680000D01*
X2957071Y-25440000D02*
X2560000Y-25440000D01*
X2957071Y-24680000D02*
X2560000Y-24680000D01*
X2560000Y-23790000D02*
X-100000Y-23790000D01*
X-100000Y-22900000D02*
X-6100000Y-22900000D01*
X-6100000Y-22900000D02*
X-6100000Y-22140000D01*
X-6100000Y-22140000D02*
X-100000Y-22140000D01*
X2957071Y-22900000D02*
X2560000Y-22900000D01*
X2957071Y-22140000D02*
X2560000Y-22140000D01*
X5270000Y-53000000D02*
X5270000Y-54270000D01*
X5270000Y-54270000D02*
X4000000Y-54270000D01*
X51630000Y-10230000D02*
X51630000Y-16230000D01*
X51630000Y-16230000D02*
X56910000Y-16230000D01*
X56910000Y-16230000D02*
X56910000Y-10230000D01*
X56910000Y-10230000D02*
X51630000Y-10230000D01*
X53000000Y-16230000D02*
X53000000Y-15230000D01*
X53000000Y-15230000D02*
X55540000Y-15230000D01*
X55540000Y-15230000D02*
X55540000Y-16230000D01*
X53000000Y-15230000D02*
X53250000Y-14800000D01*
X53250000Y-14800000D02*
X55290000Y-14800000D01*
X55290000Y-14800000D02*
X55540000Y-15230000D01*
X53250000Y-16230000D02*
X53250000Y-15230000D01*
X55290000Y-16230000D02*
X55290000Y-15230000D01*
X52200000Y-10230000D02*
X52200000Y-10850000D01*
X52200000Y-10850000D02*
X53800000Y-10850000D01*
X53800000Y-10850000D02*
X53800000Y-10230000D01*
X54740000Y-10230000D02*
X54740000Y-10850000D01*
X54740000Y-10850000D02*
X56340000Y-10850000D01*
X56340000Y-10850000D02*
X56340000Y-10230000D01*
X58630000Y-10230000D02*
X58630000Y-16230000D01*
X58630000Y-16230000D02*
X63910000Y-16230000D01*
X63910000Y-16230000D02*
X63910000Y-10230000D01*
X63910000Y-10230000D02*
X58630000Y-10230000D01*
X60000000Y-16230000D02*
X60000000Y-15230000D01*
X60000000Y-15230000D02*
X62540000Y-15230000D01*
X62540000Y-15230000D02*
X62540000Y-16230000D01*
X60000000Y-15230000D02*
X60250000Y-14800000D01*
X60250000Y-14800000D02*
X62290000Y-14800000D01*
X62290000Y-14800000D02*
X62540000Y-15230000D01*
X60250000Y-16230000D02*
X60250000Y-15230000D01*
X62290000Y-16230000D02*
X62290000Y-15230000D01*
X59200000Y-10230000D02*
X59200000Y-10850000D01*
X59200000Y-10850000D02*
X60800000Y-10850000D01*
X60800000Y-10850000D02*
X60800000Y-10230000D01*
X61740000Y-10230000D02*
X61740000Y-10850000D01*
X61740000Y-10850000D02*
X63340000Y-10850000D01*
X63340000Y-10850000D02*
X63340000Y-10230000D01*
X50310000Y-24640000D02*
X49050000Y-24640000D01*
X43490000Y-24640000D02*
X44750000Y-24640000D01*
X50310000Y-28400000D02*
X50310000Y-24640000D01*
X43490000Y-30650000D02*
X43490000Y-24640000D01*
X22490000Y-2220000D02*
X22490000Y-3150000D01*
X22490000Y-5380000D02*
X22490000Y-4450000D01*
X22490000Y-5380000D02*
X24650000Y-5380000D01*
X22490000Y-2220000D02*
X23950000Y-2220000D01*
X22490000Y-9920000D02*
X22490000Y-10850000D01*
X22490000Y-13080000D02*
X22490000Y-12150000D01*
X22490000Y-13080000D02*
X24650000Y-13080000D01*
X22490000Y-9920000D02*
X23950000Y-9920000D01*
X22490000Y-17670000D02*
X22490000Y-18600000D01*
X22490000Y-20830000D02*
X22490000Y-19900000D01*
X22490000Y-20830000D02*
X24650000Y-20830000D01*
X22490000Y-17670000D02*
X23950000Y-17670000D01*
X22490000Y-25370000D02*
X22490000Y-26300000D01*
X22490000Y-28530000D02*
X22490000Y-27600000D01*
X22490000Y-28530000D02*
X24650000Y-28530000D01*
X22490000Y-25370000D02*
X23950000Y-25370000D01*
X22490000Y-33070000D02*
X22490000Y-34000000D01*
X22490000Y-36230000D02*
X22490000Y-35300000D01*
X22490000Y-36230000D02*
X24650000Y-36230000D01*
X22490000Y-33070000D02*
X23950000Y-33070000D01*
X22490000Y-40770000D02*
X22490000Y-41700000D01*
X22490000Y-43930000D02*
X22490000Y-43000000D01*
X22490000Y-43930000D02*
X24650000Y-43930000D01*
X22490000Y-40770000D02*
X23950000Y-40770000D01*
X22490000Y-48570000D02*
X22490000Y-49500000D01*
X22490000Y-51730000D02*
X22490000Y-50800000D01*
X22490000Y-51730000D02*
X24650000Y-51730000D01*
X22490000Y-48570000D02*
X23950000Y-48570000D01*
X22540000Y-56270000D02*
X22540000Y-57200000D01*
X22540000Y-59430000D02*
X22540000Y-58500000D01*
X22540000Y-59430000D02*
X24700000Y-59430000D01*
X22540000Y-56270000D02*
X24000000Y-56270000D01*
X22490000Y-63970000D02*
X22490000Y-64900000D01*
X22490000Y-67130000D02*
X22490000Y-66200000D01*
X22490000Y-67130000D02*
X24650000Y-67130000D01*
X22490000Y-63970000D02*
X23950000Y-63970000D01*
X22490000Y-71670000D02*
X22490000Y-72600000D01*
X22490000Y-74830000D02*
X22490000Y-73900000D01*
X22490000Y-74830000D02*
X24650000Y-74830000D01*
X22490000Y-71670000D02*
X23950000Y-71670000D01*
X22490000Y-79370000D02*
X22490000Y-80300000D01*
X22490000Y-82530000D02*
X22490000Y-81600000D01*
X22490000Y-82530000D02*
X24650000Y-82530000D01*
X22490000Y-79370000D02*
X23950000Y-79370000D01*
X22490000Y-87370000D02*
X22490000Y-88300000D01*
X22490000Y-90530000D02*
X22490000Y-89600000D01*
X22490000Y-90530000D02*
X24650000Y-90530000D01*
X22490000Y-87370000D02*
X23950000Y-87370000D01*
X42550000Y-3180000D02*
X41550000Y-3180000D01*
X41550000Y-1820000D02*
X42550000Y-1820000D01*
X42550000Y-6180000D02*
X41550000Y-6180000D01*
X41550000Y-4820000D02*
X42550000Y-4820000D01*
X56800000Y-48730000D02*
X55800000Y-48730000D01*
X55800000Y-47370000D02*
X56800000Y-47370000D01*
X56800000Y-47230000D02*
X55800000Y-47230000D01*
X55800000Y-45870000D02*
X56800000Y-45870000D01*
X55400000Y-34930000D02*
X54400000Y-34930000D01*
X54400000Y-33570000D02*
X55400000Y-33570000D01*
X61500000Y-34930000D02*
X60500000Y-34930000D01*
X60500000Y-33570000D02*
X61500000Y-33570000D01*
X59070200Y-59505000D02*
X60070200Y-59505000D01*
X60070200Y-60865000D02*
X59070200Y-60865000D01*
X26750000Y-2120000D02*
X27750000Y-2120000D01*
X27750000Y-3480000D02*
X26750000Y-3480000D01*
X26750000Y-4120000D02*
X27750000Y-4120000D01*
X27750000Y-5480000D02*
X26750000Y-5480000D01*
X26750000Y-9820000D02*
X27750000Y-9820000D01*
X27750000Y-11180000D02*
X26750000Y-11180000D01*
X26750000Y-11820000D02*
X27750000Y-11820000D01*
X27750000Y-13180000D02*
X26750000Y-13180000D01*
X26750000Y-17570000D02*
X27750000Y-17570000D01*
X27750000Y-18930000D02*
X26750000Y-18930000D01*
X26750000Y-19570000D02*
X27750000Y-19570000D01*
X27750000Y-20930000D02*
X26750000Y-20930000D01*
X26750000Y-25270000D02*
X27750000Y-25270000D01*
X27750000Y-26630000D02*
X26750000Y-26630000D01*
X26750000Y-27270000D02*
X27750000Y-27270000D01*
X27750000Y-28630000D02*
X26750000Y-28630000D01*
X26750000Y-32970000D02*
X27750000Y-32970000D01*
X27750000Y-34330000D02*
X26750000Y-34330000D01*
X26750000Y-34970000D02*
X27750000Y-34970000D01*
X27750000Y-36330000D02*
X26750000Y-36330000D01*
X26750000Y-40670000D02*
X27750000Y-40670000D01*
X27750000Y-42030000D02*
X26750000Y-42030000D01*
X26750000Y-42670000D02*
X27750000Y-42670000D01*
X27750000Y-44030000D02*
X26750000Y-44030000D01*
X26750000Y-48470000D02*
X27750000Y-48470000D01*
X27750000Y-49830000D02*
X26750000Y-49830000D01*
X26750000Y-50470000D02*
X27750000Y-50470000D01*
X27750000Y-51830000D02*
X26750000Y-51830000D01*
X26800000Y-56170000D02*
X27800000Y-56170000D01*
X27800000Y-57530000D02*
X26800000Y-57530000D01*
X26800000Y-58170000D02*
X27800000Y-58170000D01*
X27800000Y-59530000D02*
X26800000Y-59530000D01*
X26750000Y-63870000D02*
X27750000Y-63870000D01*
X27750000Y-65230000D02*
X26750000Y-65230000D01*
X26750000Y-65870000D02*
X27750000Y-65870000D01*
X27750000Y-67230000D02*
X26750000Y-67230000D01*
X26750000Y-71570000D02*
X27750000Y-71570000D01*
X27750000Y-72930000D02*
X26750000Y-72930000D01*
X26750000Y-73570000D02*
X27750000Y-73570000D01*
X27750000Y-74930000D02*
X26750000Y-74930000D01*
X26750000Y-79270000D02*
X27750000Y-79270000D01*
X27750000Y-80630000D02*
X26750000Y-80630000D01*
X26750000Y-81270000D02*
X27750000Y-81270000D01*
X27750000Y-82630000D02*
X26750000Y-82630000D01*
X26750000Y-87270000D02*
X27750000Y-87270000D01*
X27750000Y-88630000D02*
X26750000Y-88630000D01*
X26750000Y-89270000D02*
X27750000Y-89270000D01*
X27750000Y-90630000D02*
X26750000Y-90630000D01*
D10*
X63172030Y-20551000D02*
G75*
G03X63172030Y-20551000I-369830J0D01*
G01*
D11*
X51900000Y-33000000D02*
X51900000Y-17500000D01*
X51900000Y-17500000D02*
X63900000Y-17500000D01*
X63900000Y-17500000D02*
X63900000Y-33000000D01*
X63900000Y-33000000D02*
X51900000Y-33000000D01*
X19850000Y-5620000D02*
X14650000Y-5620000D01*
X14650000Y-1980000D02*
X19850000Y-1980000D01*
X19850000Y-13320000D02*
X14650000Y-13320000D01*
X14650000Y-9680000D02*
X19850000Y-9680000D01*
X19850000Y-21070000D02*
X14650000Y-21070000D01*
X14650000Y-17430000D02*
X19850000Y-17430000D01*
X19850000Y-28770000D02*
X14650000Y-28770000D01*
X14650000Y-25130000D02*
X19850000Y-25130000D01*
X19850000Y-36470000D02*
X14650000Y-36470000D01*
X14650000Y-32830000D02*
X19850000Y-32830000D01*
X19850000Y-44170000D02*
X14650000Y-44170000D01*
X14650000Y-40530000D02*
X19850000Y-40530000D01*
X19850000Y-51970000D02*
X14650000Y-51970000D01*
X14650000Y-48330000D02*
X19850000Y-48330000D01*
X19900000Y-59670000D02*
X14700000Y-59670000D01*
X14700000Y-56030000D02*
X19900000Y-56030000D01*
X19850000Y-75070000D02*
X14650000Y-75070000D01*
X14650000Y-71430000D02*
X19850000Y-71430000D01*
X19850000Y-82770000D02*
X14650000Y-82770000D01*
X14650000Y-79130000D02*
X19850000Y-79130000D01*
X19850000Y-90770000D02*
X14650000Y-90770000D01*
X14650000Y-87130000D02*
X19850000Y-87130000D01*
X19850000Y-67370000D02*
X14650000Y-67370000D01*
X14650000Y-63730000D02*
X19850000Y-63730000D01*
X34250000Y-1950000D02*
X33250000Y-1950000D01*
X33250000Y-3650000D02*
X34250000Y-3650000D01*
X34250000Y-9650000D02*
X33250000Y-9650000D01*
X33250000Y-11350000D02*
X34250000Y-11350000D01*
X34250000Y-17400000D02*
X33250000Y-17400000D01*
X33250000Y-19100000D02*
X34250000Y-19100000D01*
X34250000Y-25100000D02*
X33250000Y-25100000D01*
X33250000Y-26800000D02*
X34250000Y-26800000D01*
X34250000Y-32800000D02*
X33250000Y-32800000D01*
X33250000Y-34500000D02*
X34250000Y-34500000D01*
X34250000Y-40500000D02*
X33250000Y-40500000D01*
X33250000Y-42200000D02*
X34250000Y-42200000D01*
X34250000Y-48300000D02*
X33250000Y-48300000D01*
X33250000Y-50000000D02*
X34250000Y-50000000D01*
X34300000Y-56000000D02*
X33300000Y-56000000D01*
X33300000Y-57700000D02*
X34300000Y-57700000D01*
X34200000Y-63750000D02*
X33200000Y-63750000D01*
X33200000Y-65450000D02*
X34200000Y-65450000D01*
X34250000Y-71400000D02*
X33250000Y-71400000D01*
X33250000Y-73100000D02*
X34250000Y-73100000D01*
X34250000Y-79100000D02*
X33250000Y-79100000D01*
X33250000Y-80800000D02*
X34250000Y-80800000D01*
X34250000Y-87100000D02*
X33250000Y-87100000D01*
X33250000Y-88800000D02*
X34250000Y-88800000D01*
X19850000Y-9420000D02*
X14650000Y-9420000D01*
X14650000Y-5780000D02*
X19850000Y-5780000D01*
X19850000Y-24870000D02*
X14650000Y-24870000D01*
X14650000Y-21230000D02*
X19850000Y-21230000D01*
X19850000Y-32570000D02*
X14650000Y-32570000D01*
X14650000Y-28930000D02*
X19850000Y-28930000D01*
X19850000Y-40270000D02*
X14650000Y-40270000D01*
X14650000Y-36630000D02*
X19850000Y-36630000D01*
X19850000Y-55770000D02*
X14650000Y-55770000D01*
X14650000Y-52130000D02*
X19850000Y-52130000D01*
X19900000Y-63470000D02*
X14700000Y-63470000D01*
X14700000Y-59830000D02*
X19900000Y-59830000D01*
X19850000Y-71170000D02*
X14650000Y-71170000D01*
X14650000Y-67530000D02*
X19850000Y-67530000D01*
X19850000Y-78870000D02*
X14650000Y-78870000D01*
X14650000Y-75230000D02*
X19850000Y-75230000D01*
X19850000Y-86770000D02*
X14650000Y-86770000D01*
X14650000Y-83130000D02*
X19850000Y-83130000D01*
X19850000Y-94570000D02*
X14650000Y-94570000D01*
X14650000Y-90930000D02*
X19850000Y-90930000D01*
X31250000Y-2900000D02*
X29550000Y-2900000D01*
X29550000Y-2900000D02*
X29550000Y-6050000D01*
X31250000Y-2900000D02*
X31250000Y-6050000D01*
X31250000Y-10600000D02*
X31250000Y-13750000D01*
X29550000Y-10600000D02*
X29550000Y-13750000D01*
X31250000Y-10600000D02*
X29550000Y-10600000D01*
X31250000Y-18350000D02*
X31250000Y-21500000D01*
X29550000Y-18350000D02*
X29550000Y-21500000D01*
X31250000Y-18350000D02*
X29550000Y-18350000D01*
X31250000Y-26050000D02*
X31250000Y-29200000D01*
X29550000Y-26050000D02*
X29550000Y-29200000D01*
X31250000Y-26050000D02*
X29550000Y-26050000D01*
X31250000Y-33750000D02*
X29550000Y-33750000D01*
X29550000Y-33750000D02*
X29550000Y-36900000D01*
X31250000Y-33750000D02*
X31250000Y-36900000D01*
X31250000Y-41350000D02*
X29550000Y-41350000D01*
X29550000Y-41350000D02*
X29550000Y-44500000D01*
X31250000Y-41350000D02*
X31250000Y-44500000D01*
X31250000Y-49600000D02*
X29550000Y-49600000D01*
X29550000Y-49600000D02*
X29550000Y-52750000D01*
X31250000Y-49600000D02*
X31250000Y-52750000D01*
X31300000Y-57100000D02*
X29600000Y-57100000D01*
X29600000Y-57100000D02*
X29600000Y-60250000D01*
X31300000Y-57100000D02*
X31300000Y-60250000D01*
X31250000Y-64650000D02*
X29550000Y-64650000D01*
X29550000Y-64650000D02*
X29550000Y-67800000D01*
X31250000Y-64650000D02*
X31250000Y-67800000D01*
X31250000Y-72350000D02*
X29550000Y-72350000D01*
X29550000Y-72350000D02*
X29550000Y-75500000D01*
X31250000Y-72350000D02*
X31250000Y-75500000D01*
X31250000Y-80200000D02*
X31250000Y-83350000D01*
X29550000Y-80200000D02*
X29550000Y-83350000D01*
X31250000Y-80200000D02*
X29550000Y-80200000D01*
X31250000Y-88050000D02*
X31250000Y-91200000D01*
X29550000Y-88050000D02*
X29550000Y-91200000D01*
X31250000Y-88050000D02*
X29550000Y-88050000D01*
X56781800Y-52728800D02*
X59241800Y-52728800D01*
X59241800Y-52728800D02*
X59241800Y-51258800D01*
X59241800Y-51258800D02*
X56781800Y-51258800D01*
D10*
X46338095Y-45102380D02*
X46338095Y-45911904D01*
X46385714Y-46007142D01*
X46433333Y-46054761D01*
X46528571Y-46102380D01*
X46719047Y-46102380D01*
X46814285Y-46054761D01*
X46861904Y-46007142D01*
X46909523Y-45911904D01*
X46909523Y-45102380D01*
X47909523Y-46102380D02*
X47338095Y-46102380D01*
X47623809Y-46102380D02*
X47623809Y-45102380D01*
X47528571Y-45245238D01*
X47433333Y-45340476D01*
X47338095Y-45388095D01*
X60707142Y-51002380D02*
X60373809Y-50526190D01*
X60135714Y-51002380D02*
X60135714Y-50002380D01*
X60516666Y-50002380D01*
X60611904Y-50050000D01*
X60659523Y-50097619D01*
X60707142Y-50192857D01*
X60707142Y-50335714D01*
X60659523Y-50430952D01*
X60611904Y-50478571D01*
X60516666Y-50526190D01*
X60135714Y-50526190D01*
X61659523Y-51002380D02*
X61088095Y-51002380D01*
X61373809Y-51002380D02*
X61373809Y-50002380D01*
X61278571Y-50145238D01*
X61183333Y-50240476D01*
X61088095Y-50288095D01*
X62278571Y-50002380D02*
X62373809Y-50002380D01*
X62469047Y-50050000D01*
X62516666Y-50097619D01*
X62564285Y-50192857D01*
X62611904Y-50383333D01*
X62611904Y-50621428D01*
X62564285Y-50811904D01*
X62516666Y-50907142D01*
X62469047Y-50954761D01*
X62373809Y-51002380D01*
X62278571Y-51002380D01*
X62183333Y-50954761D01*
X62135714Y-50907142D01*
X62088095Y-50811904D01*
X62040476Y-50621428D01*
X62040476Y-50383333D01*
X62088095Y-50192857D01*
X62135714Y-50097619D01*
X62183333Y-50050000D01*
X62278571Y-50002380D01*
X62208333Y-53977380D02*
X61875000Y-53501190D01*
X61636904Y-53977380D02*
X61636904Y-52977380D01*
X62017857Y-52977380D01*
X62113095Y-53025000D01*
X62160714Y-53072619D01*
X62208333Y-53167857D01*
X62208333Y-53310714D01*
X62160714Y-53405952D01*
X62113095Y-53453571D01*
X62017857Y-53501190D01*
X61636904Y-53501190D01*
X62684523Y-53977380D02*
X62875000Y-53977380D01*
X62970238Y-53929761D01*
X63017857Y-53882142D01*
X63113095Y-53739285D01*
X63160714Y-53548809D01*
X63160714Y-53167857D01*
X63113095Y-53072619D01*
X63065476Y-53025000D01*
X62970238Y-52977380D01*
X62779761Y-52977380D01*
X62684523Y-53025000D01*
X62636904Y-53072619D01*
X62589285Y-53167857D01*
X62589285Y-53405952D01*
X62636904Y-53501190D01*
X62684523Y-53548809D01*
X62779761Y-53596428D01*
X62970238Y-53596428D01*
X63065476Y-53548809D01*
X63113095Y-53501190D01*
X63160714Y-53405952D01*
X61183333Y-48952380D02*
X60850000Y-48476190D01*
X60611904Y-48952380D02*
X60611904Y-47952380D01*
X60992857Y-47952380D01*
X61088095Y-48000000D01*
X61135714Y-48047619D01*
X61183333Y-48142857D01*
X61183333Y-48285714D01*
X61135714Y-48380952D01*
X61088095Y-48428571D01*
X60992857Y-48476190D01*
X60611904Y-48476190D01*
X61754761Y-48380952D02*
X61659523Y-48333333D01*
X61611904Y-48285714D01*
X61564285Y-48190476D01*
X61564285Y-48142857D01*
X61611904Y-48047619D01*
X61659523Y-48000000D01*
X61754761Y-47952380D01*
X61945238Y-47952380D01*
X62040476Y-48000000D01*
X62088095Y-48047619D01*
X62135714Y-48142857D01*
X62135714Y-48190476D01*
X62088095Y-48285714D01*
X62040476Y-48333333D01*
X61945238Y-48380952D01*
X61754761Y-48380952D01*
X61659523Y-48428571D01*
X61611904Y-48476190D01*
X61564285Y-48571428D01*
X61564285Y-48761904D01*
X61611904Y-48857142D01*
X61659523Y-48904761D01*
X61754761Y-48952380D01*
X61945238Y-48952380D01*
X62040476Y-48904761D01*
X62088095Y-48857142D01*
X62135714Y-48761904D01*
X62135714Y-48571428D01*
X62088095Y-48476190D01*
X62040476Y-48428571D01*
X61945238Y-48380952D01*
X62239285Y-61502380D02*
X62810714Y-61502380D01*
X62525000Y-62502380D02*
X62525000Y-61502380D01*
X63144047Y-62502380D02*
X63144047Y-61502380D01*
X63144047Y-61978571D02*
X63715476Y-61978571D01*
X63715476Y-62502380D02*
X63715476Y-61502380D01*
X64715476Y-62502380D02*
X64144047Y-62502380D01*
X64429761Y-62502380D02*
X64429761Y-61502380D01*
X64334523Y-61645238D01*
X64239285Y-61740476D01*
X64144047Y-61788095D01*
X53733333Y-51002380D02*
X53400000Y-50526190D01*
X53161904Y-51002380D02*
X53161904Y-50002380D01*
X53542857Y-50002380D01*
X53638095Y-50050000D01*
X53685714Y-50097619D01*
X53733333Y-50192857D01*
X53733333Y-50335714D01*
X53685714Y-50430952D01*
X53638095Y-50478571D01*
X53542857Y-50526190D01*
X53161904Y-50526190D01*
X54066666Y-50002380D02*
X54733333Y-50002380D01*
X54304761Y-51002380D01*
X1628571Y-8233333D02*
X1628571Y-8566666D01*
X2152380Y-8566666D02*
X1152380Y-8566666D01*
X1152380Y-8090476D01*
X1628571Y-7376190D02*
X1676190Y-7233333D01*
X1723809Y-7185714D01*
X1819047Y-7138095D01*
X1961904Y-7138095D01*
X2057142Y-7185714D01*
X2104761Y-7233333D01*
X2152380Y-7328571D01*
X2152380Y-7709523D01*
X1152380Y-7709523D01*
X1152380Y-7376190D01*
X1200000Y-7280952D01*
X1247619Y-7233333D01*
X1342857Y-7185714D01*
X1438095Y-7185714D01*
X1533333Y-7233333D01*
X1580952Y-7280952D01*
X1628571Y-7376190D01*
X1628571Y-7709523D01*
X2152380Y-6185714D02*
X2152380Y-6757142D01*
X2152380Y-6471428D02*
X1152380Y-6471428D01*
X1295238Y-6566666D01*
X1390476Y-6661904D01*
X1438095Y-6757142D01*
X5685714Y-14752380D02*
X5685714Y-13752380D01*
X5923809Y-13752380D01*
X6066666Y-13800000D01*
X6161904Y-13895238D01*
X6209523Y-13990476D01*
X6257142Y-14180952D01*
X6257142Y-14323809D01*
X6209523Y-14514285D01*
X6161904Y-14609523D01*
X6066666Y-14704761D01*
X5923809Y-14752380D01*
X5685714Y-14752380D01*
X7209523Y-14752380D02*
X6638095Y-14752380D01*
X6923809Y-14752380D02*
X6923809Y-13752380D01*
X6828571Y-13895238D01*
X6733333Y-13990476D01*
X6638095Y-14038095D01*
X8114285Y-13752380D02*
X7638095Y-13752380D01*
X7590476Y-14228571D01*
X7638095Y-14180952D01*
X7733333Y-14133333D01*
X7971428Y-14133333D01*
X8066666Y-14180952D01*
X8114285Y-14228571D01*
X8161904Y-14323809D01*
X8161904Y-14561904D01*
X8114285Y-14657142D01*
X8066666Y-14704761D01*
X7971428Y-14752380D01*
X7733333Y-14752380D01*
X7638095Y-14704761D01*
X7590476Y-14657142D01*
X5685714Y-19752380D02*
X5685714Y-18752380D01*
X5923809Y-18752380D01*
X6066666Y-18800000D01*
X6161904Y-18895238D01*
X6209523Y-18990476D01*
X6257142Y-19180952D01*
X6257142Y-19323809D01*
X6209523Y-19514285D01*
X6161904Y-19609523D01*
X6066666Y-19704761D01*
X5923809Y-19752380D01*
X5685714Y-19752380D01*
X7209523Y-19752380D02*
X6638095Y-19752380D01*
X6923809Y-19752380D02*
X6923809Y-18752380D01*
X6828571Y-18895238D01*
X6733333Y-18990476D01*
X6638095Y-19038095D01*
X8066666Y-19085714D02*
X8066666Y-19752380D01*
X7828571Y-18704761D02*
X7590476Y-19419047D01*
X8209523Y-19419047D01*
X5685714Y-17252380D02*
X5685714Y-16252380D01*
X5923809Y-16252380D01*
X6066666Y-16300000D01*
X6161904Y-16395238D01*
X6209523Y-16490476D01*
X6257142Y-16680952D01*
X6257142Y-16823809D01*
X6209523Y-17014285D01*
X6161904Y-17109523D01*
X6066666Y-17204761D01*
X5923809Y-17252380D01*
X5685714Y-17252380D01*
X7209523Y-17252380D02*
X6638095Y-17252380D01*
X6923809Y-17252380D02*
X6923809Y-16252380D01*
X6828571Y-16395238D01*
X6733333Y-16490476D01*
X6638095Y-16538095D01*
X7542857Y-16252380D02*
X8161904Y-16252380D01*
X7828571Y-16633333D01*
X7971428Y-16633333D01*
X8066666Y-16680952D01*
X8114285Y-16728571D01*
X8161904Y-16823809D01*
X8161904Y-17061904D01*
X8114285Y-17157142D01*
X8066666Y-17204761D01*
X7971428Y-17252380D01*
X7685714Y-17252380D01*
X7590476Y-17204761D01*
X7542857Y-17157142D01*
X43757142Y-34142857D02*
X43804761Y-34190476D01*
X43852380Y-34333333D01*
X43852380Y-34428571D01*
X43804761Y-34571428D01*
X43709523Y-34666666D01*
X43614285Y-34714285D01*
X43423809Y-34761904D01*
X43280952Y-34761904D01*
X43090476Y-34714285D01*
X42995238Y-34666666D01*
X42900000Y-34571428D01*
X42852380Y-34428571D01*
X42852380Y-34333333D01*
X42900000Y-34190476D01*
X42947619Y-34142857D01*
X42947619Y-33761904D02*
X42900000Y-33714285D01*
X42852380Y-33619047D01*
X42852380Y-33380952D01*
X42900000Y-33285714D01*
X42947619Y-33238095D01*
X43042857Y-33190476D01*
X43138095Y-33190476D01*
X43280952Y-33238095D01*
X43852380Y-33809523D01*
X43852380Y-33190476D01*
X42852380Y-32333333D02*
X42852380Y-32523809D01*
X42900000Y-32619047D01*
X42947619Y-32666666D01*
X43090476Y-32761904D01*
X43280952Y-32809523D01*
X43661904Y-32809523D01*
X43757142Y-32761904D01*
X43804761Y-32714285D01*
X43852380Y-32619047D01*
X43852380Y-32428571D01*
X43804761Y-32333333D01*
X43757142Y-32285714D01*
X43661904Y-32238095D01*
X43423809Y-32238095D01*
X43328571Y-32285714D01*
X43280952Y-32333333D01*
X43233333Y-32428571D01*
X43233333Y-32619047D01*
X43280952Y-32714285D01*
X43328571Y-32761904D01*
X43423809Y-32809523D01*
X42257142Y-34142857D02*
X42304761Y-34190476D01*
X42352380Y-34333333D01*
X42352380Y-34428571D01*
X42304761Y-34571428D01*
X42209523Y-34666666D01*
X42114285Y-34714285D01*
X41923809Y-34761904D01*
X41780952Y-34761904D01*
X41590476Y-34714285D01*
X41495238Y-34666666D01*
X41400000Y-34571428D01*
X41352380Y-34428571D01*
X41352380Y-34333333D01*
X41400000Y-34190476D01*
X41447619Y-34142857D01*
X41447619Y-33761904D02*
X41400000Y-33714285D01*
X41352380Y-33619047D01*
X41352380Y-33380952D01*
X41400000Y-33285714D01*
X41447619Y-33238095D01*
X41542857Y-33190476D01*
X41638095Y-33190476D01*
X41780952Y-33238095D01*
X42352380Y-33809523D01*
X42352380Y-33190476D01*
X41352380Y-32285714D02*
X41352380Y-32761904D01*
X41828571Y-32809523D01*
X41780952Y-32761904D01*
X41733333Y-32666666D01*
X41733333Y-32428571D01*
X41780952Y-32333333D01*
X41828571Y-32285714D01*
X41923809Y-32238095D01*
X42161904Y-32238095D01*
X42257142Y-32285714D01*
X42304761Y-32333333D01*
X42352380Y-32428571D01*
X42352380Y-32666666D01*
X42304761Y-32761904D01*
X42257142Y-32809523D01*
X16107142Y-46602380D02*
X15773809Y-46126190D01*
X15535714Y-46602380D02*
X15535714Y-45602380D01*
X15916666Y-45602380D01*
X16011904Y-45650000D01*
X16059523Y-45697619D01*
X16107142Y-45792857D01*
X16107142Y-45935714D01*
X16059523Y-46030952D01*
X16011904Y-46078571D01*
X15916666Y-46126190D01*
X15535714Y-46126190D01*
X17011904Y-45602380D02*
X16535714Y-45602380D01*
X16488095Y-46078571D01*
X16535714Y-46030952D01*
X16630952Y-45983333D01*
X16869047Y-45983333D01*
X16964285Y-46030952D01*
X17011904Y-46078571D01*
X17059523Y-46173809D01*
X17059523Y-46411904D01*
X17011904Y-46507142D01*
X16964285Y-46554761D01*
X16869047Y-46602380D01*
X16630952Y-46602380D01*
X16535714Y-46554761D01*
X16488095Y-46507142D01*
X17392857Y-45602380D02*
X18011904Y-45602380D01*
X17678571Y-45983333D01*
X17821428Y-45983333D01*
X17916666Y-46030952D01*
X17964285Y-46078571D01*
X18011904Y-46173809D01*
X18011904Y-46411904D01*
X17964285Y-46507142D01*
X17916666Y-46554761D01*
X17821428Y-46602380D01*
X17535714Y-46602380D01*
X17440476Y-46554761D01*
X17392857Y-46507142D01*
X16107142Y-15802380D02*
X15773809Y-15326190D01*
X15535714Y-15802380D02*
X15535714Y-14802380D01*
X15916666Y-14802380D01*
X16011904Y-14850000D01*
X16059523Y-14897619D01*
X16107142Y-14992857D01*
X16107142Y-15135714D01*
X16059523Y-15230952D01*
X16011904Y-15278571D01*
X15916666Y-15326190D01*
X15535714Y-15326190D01*
X16964285Y-15135714D02*
X16964285Y-15802380D01*
X16726190Y-14754761D02*
X16488095Y-15469047D01*
X17107142Y-15469047D01*
X17535714Y-15802380D02*
X17726190Y-15802380D01*
X17821428Y-15754761D01*
X17869047Y-15707142D01*
X17964285Y-15564285D01*
X18011904Y-15373809D01*
X18011904Y-14992857D01*
X17964285Y-14897619D01*
X17916666Y-14850000D01*
X17821428Y-14802380D01*
X17630952Y-14802380D01*
X17535714Y-14850000D01*
X17488095Y-14897619D01*
X17440476Y-14992857D01*
X17440476Y-15230952D01*
X17488095Y-15326190D01*
X17535714Y-15373809D01*
X17630952Y-15421428D01*
X17821428Y-15421428D01*
X17916666Y-15373809D01*
X17964285Y-15326190D01*
X18011904Y-15230952D01*
X55408333Y-57157142D02*
X55360714Y-57204761D01*
X55217857Y-57252380D01*
X55122619Y-57252380D01*
X54979761Y-57204761D01*
X54884523Y-57109523D01*
X54836904Y-57014285D01*
X54789285Y-56823809D01*
X54789285Y-56680952D01*
X54836904Y-56490476D01*
X54884523Y-56395238D01*
X54979761Y-56300000D01*
X55122619Y-56252380D01*
X55217857Y-56252380D01*
X55360714Y-56300000D01*
X55408333Y-56347619D01*
X56360714Y-57252380D02*
X55789285Y-57252380D01*
X56075000Y-57252380D02*
X56075000Y-56252380D01*
X55979761Y-56395238D01*
X55884523Y-56490476D01*
X55789285Y-56538095D01*
X62508333Y-55582142D02*
X62460714Y-55629761D01*
X62317857Y-55677380D01*
X62222619Y-55677380D01*
X62079761Y-55629761D01*
X61984523Y-55534523D01*
X61936904Y-55439285D01*
X61889285Y-55248809D01*
X61889285Y-55105952D01*
X61936904Y-54915476D01*
X61984523Y-54820238D01*
X62079761Y-54725000D01*
X62222619Y-54677380D01*
X62317857Y-54677380D01*
X62460714Y-54725000D01*
X62508333Y-54772619D01*
X62889285Y-54772619D02*
X62936904Y-54725000D01*
X63032142Y-54677380D01*
X63270238Y-54677380D01*
X63365476Y-54725000D01*
X63413095Y-54772619D01*
X63460714Y-54867857D01*
X63460714Y-54963095D01*
X63413095Y-55105952D01*
X62841666Y-55677380D01*
X63460714Y-55677380D01*
X50033333Y-4607142D02*
X49985714Y-4654761D01*
X49842857Y-4702380D01*
X49747619Y-4702380D01*
X49604761Y-4654761D01*
X49509523Y-4559523D01*
X49461904Y-4464285D01*
X49414285Y-4273809D01*
X49414285Y-4130952D01*
X49461904Y-3940476D01*
X49509523Y-3845238D01*
X49604761Y-3750000D01*
X49747619Y-3702380D01*
X49842857Y-3702380D01*
X49985714Y-3750000D01*
X50033333Y-3797619D01*
X50366666Y-3702380D02*
X50985714Y-3702380D01*
X50652380Y-4083333D01*
X50795238Y-4083333D01*
X50890476Y-4130952D01*
X50938095Y-4178571D01*
X50985714Y-4273809D01*
X50985714Y-4511904D01*
X50938095Y-4607142D01*
X50890476Y-4654761D01*
X50795238Y-4702380D01*
X50509523Y-4702380D01*
X50414285Y-4654761D01*
X50366666Y-4607142D01*
X50033333Y-1607142D02*
X49985714Y-1654761D01*
X49842857Y-1702380D01*
X49747619Y-1702380D01*
X49604761Y-1654761D01*
X49509523Y-1559523D01*
X49461904Y-1464285D01*
X49414285Y-1273809D01*
X49414285Y-1130952D01*
X49461904Y-940476D01*
X49509523Y-845238D01*
X49604761Y-750000D01*
X49747619Y-702380D01*
X49842857Y-702380D01*
X49985714Y-750000D01*
X50033333Y-797619D01*
X50890476Y-1035714D02*
X50890476Y-1702380D01*
X50652380Y-654761D02*
X50414285Y-1369047D01*
X51033333Y-1369047D01*
X45257142Y-33666666D02*
X45304761Y-33714285D01*
X45352380Y-33857142D01*
X45352380Y-33952380D01*
X45304761Y-34095238D01*
X45209523Y-34190476D01*
X45114285Y-34238095D01*
X44923809Y-34285714D01*
X44780952Y-34285714D01*
X44590476Y-34238095D01*
X44495238Y-34190476D01*
X44400000Y-34095238D01*
X44352380Y-33952380D01*
X44352380Y-33857142D01*
X44400000Y-33714285D01*
X44447619Y-33666666D01*
X44352380Y-32761904D02*
X44352380Y-33238095D01*
X44828571Y-33285714D01*
X44780952Y-33238095D01*
X44733333Y-33142857D01*
X44733333Y-32904761D01*
X44780952Y-32809523D01*
X44828571Y-32761904D01*
X44923809Y-32714285D01*
X45161904Y-32714285D01*
X45257142Y-32761904D01*
X45304761Y-32809523D01*
X45352380Y-32904761D01*
X45352380Y-33142857D01*
X45304761Y-33238095D01*
X45257142Y-33285714D01*
X55357142Y-41416666D02*
X55404761Y-41464285D01*
X55452380Y-41607142D01*
X55452380Y-41702380D01*
X55404761Y-41845238D01*
X55309523Y-41940476D01*
X55214285Y-41988095D01*
X55023809Y-42035714D01*
X54880952Y-42035714D01*
X54690476Y-41988095D01*
X54595238Y-41940476D01*
X54500000Y-41845238D01*
X54452380Y-41702380D01*
X54452380Y-41607142D01*
X54500000Y-41464285D01*
X54547619Y-41416666D01*
X54452380Y-40559523D02*
X54452380Y-40750000D01*
X54500000Y-40845238D01*
X54547619Y-40892857D01*
X54690476Y-40988095D01*
X54880952Y-41035714D01*
X55261904Y-41035714D01*
X55357142Y-40988095D01*
X55404761Y-40940476D01*
X55452380Y-40845238D01*
X55452380Y-40654761D01*
X55404761Y-40559523D01*
X55357142Y-40511904D01*
X55261904Y-40464285D01*
X55023809Y-40464285D01*
X54928571Y-40511904D01*
X54880952Y-40559523D01*
X54833333Y-40654761D01*
X54833333Y-40845238D01*
X54880952Y-40940476D01*
X54928571Y-40988095D01*
X55023809Y-41035714D01*
X61357142Y-41416666D02*
X61404761Y-41464285D01*
X61452380Y-41607142D01*
X61452380Y-41702380D01*
X61404761Y-41845238D01*
X61309523Y-41940476D01*
X61214285Y-41988095D01*
X61023809Y-42035714D01*
X60880952Y-42035714D01*
X60690476Y-41988095D01*
X60595238Y-41940476D01*
X60500000Y-41845238D01*
X60452380Y-41702380D01*
X60452380Y-41607142D01*
X60500000Y-41464285D01*
X60547619Y-41416666D01*
X60452380Y-41083333D02*
X60452380Y-40416666D01*
X61452380Y-40845238D01*
X62153142Y-59057942D02*
X62105523Y-59105561D01*
X61962666Y-59153180D01*
X61867428Y-59153180D01*
X61724571Y-59105561D01*
X61629333Y-59010323D01*
X61581714Y-58915085D01*
X61534095Y-58724609D01*
X61534095Y-58581752D01*
X61581714Y-58391276D01*
X61629333Y-58296038D01*
X61724571Y-58200800D01*
X61867428Y-58153180D01*
X61962666Y-58153180D01*
X62105523Y-58200800D01*
X62153142Y-58248419D01*
X63105523Y-59153180D02*
X62534095Y-59153180D01*
X62819809Y-59153180D02*
X62819809Y-58153180D01*
X62724571Y-58296038D01*
X62629333Y-58391276D01*
X62534095Y-58438895D01*
X63486476Y-58248419D02*
X63534095Y-58200800D01*
X63629333Y-58153180D01*
X63867428Y-58153180D01*
X63962666Y-58200800D01*
X64010285Y-58248419D01*
X64057904Y-58343657D01*
X64057904Y-58438895D01*
X64010285Y-58581752D01*
X63438857Y-59153180D01*
X64057904Y-59153180D01*
X7067857Y-38679047D02*
X7116904Y-38728095D01*
X7165952Y-38875238D01*
X7165952Y-38973333D01*
X7116904Y-39120476D01*
X7018809Y-39218571D01*
X6920714Y-39267619D01*
X6724523Y-39316666D01*
X6577380Y-39316666D01*
X6381190Y-39267619D01*
X6283095Y-39218571D01*
X6185000Y-39120476D01*
X6135952Y-38973333D01*
X6135952Y-38875238D01*
X6185000Y-38728095D01*
X6234047Y-38679047D01*
X7116904Y-37845238D02*
X7165952Y-37943333D01*
X7165952Y-38139523D01*
X7116904Y-38237619D01*
X7018809Y-38286666D01*
X6626428Y-38286666D01*
X6528333Y-38237619D01*
X6479285Y-38139523D01*
X6479285Y-37943333D01*
X6528333Y-37845238D01*
X6626428Y-37796190D01*
X6724523Y-37796190D01*
X6822619Y-38286666D01*
X7165952Y-37207619D02*
X7116904Y-37305714D01*
X7018809Y-37354761D01*
X6135952Y-37354761D01*
X7165952Y-36668095D02*
X7116904Y-36766190D01*
X7018809Y-36815238D01*
X6135952Y-36815238D01*
X7116904Y-36324761D02*
X7165952Y-36226666D01*
X7165952Y-36030476D01*
X7116904Y-35932380D01*
X7018809Y-35883333D01*
X6969761Y-35883333D01*
X6871666Y-35932380D01*
X6822619Y-36030476D01*
X6822619Y-36177619D01*
X6773571Y-36275714D01*
X6675476Y-36324761D01*
X6626428Y-36324761D01*
X6528333Y-36275714D01*
X6479285Y-36177619D01*
X6479285Y-36030476D01*
X6528333Y-35932380D01*
X52190476Y-9154761D02*
X52333333Y-9202380D01*
X52571428Y-9202380D01*
X52666666Y-9154761D01*
X52714285Y-9107142D01*
X52761904Y-9011904D01*
X52761904Y-8916666D01*
X52714285Y-8821428D01*
X52666666Y-8773809D01*
X52571428Y-8726190D01*
X52380952Y-8678571D01*
X52285714Y-8630952D01*
X52238095Y-8583333D01*
X52190476Y-8488095D01*
X52190476Y-8392857D01*
X52238095Y-8297619D01*
X52285714Y-8250000D01*
X52380952Y-8202380D01*
X52619047Y-8202380D01*
X52761904Y-8250000D01*
X53333333Y-9202380D02*
X53238095Y-9154761D01*
X53190476Y-9059523D01*
X53190476Y-8202380D01*
X54142857Y-9202380D02*
X54142857Y-8678571D01*
X54095238Y-8583333D01*
X54000000Y-8535714D01*
X53809523Y-8535714D01*
X53714285Y-8583333D01*
X54142857Y-9154761D02*
X54047619Y-9202380D01*
X53809523Y-9202380D01*
X53714285Y-9154761D01*
X53666666Y-9059523D01*
X53666666Y-8964285D01*
X53714285Y-8869047D01*
X53809523Y-8821428D01*
X54047619Y-8821428D01*
X54142857Y-8773809D01*
X54523809Y-8535714D02*
X54761904Y-9202380D01*
X55000000Y-8535714D01*
X55761904Y-9154761D02*
X55666666Y-9202380D01*
X55476190Y-9202380D01*
X55380952Y-9154761D01*
X55333333Y-9059523D01*
X55333333Y-8678571D01*
X55380952Y-8583333D01*
X55476190Y-8535714D01*
X55666666Y-8535714D01*
X55761904Y-8583333D01*
X55809523Y-8678571D01*
X55809523Y-8773809D01*
X55333333Y-8869047D01*
X59055714Y-9202380D02*
X59055714Y-8202380D01*
X59389047Y-8916666D01*
X59722380Y-8202380D01*
X59722380Y-9202380D01*
X60627142Y-9202380D02*
X60627142Y-8678571D01*
X60579523Y-8583333D01*
X60484285Y-8535714D01*
X60293809Y-8535714D01*
X60198571Y-8583333D01*
X60627142Y-9154761D02*
X60531904Y-9202380D01*
X60293809Y-9202380D01*
X60198571Y-9154761D01*
X60150952Y-9059523D01*
X60150952Y-8964285D01*
X60198571Y-8869047D01*
X60293809Y-8821428D01*
X60531904Y-8821428D01*
X60627142Y-8773809D01*
X61055714Y-9154761D02*
X61150952Y-9202380D01*
X61341428Y-9202380D01*
X61436666Y-9154761D01*
X61484285Y-9059523D01*
X61484285Y-9011904D01*
X61436666Y-8916666D01*
X61341428Y-8869047D01*
X61198571Y-8869047D01*
X61103333Y-8821428D01*
X61055714Y-8726190D01*
X61055714Y-8678571D01*
X61103333Y-8583333D01*
X61198571Y-8535714D01*
X61341428Y-8535714D01*
X61436666Y-8583333D01*
X61770000Y-8535714D02*
X62150952Y-8535714D01*
X61912857Y-8202380D02*
X61912857Y-9059523D01*
X61960476Y-9154761D01*
X62055714Y-9202380D01*
X62150952Y-9202380D01*
X62865238Y-9154761D02*
X62770000Y-9202380D01*
X62579523Y-9202380D01*
X62484285Y-9154761D01*
X62436666Y-9059523D01*
X62436666Y-8678571D01*
X62484285Y-8583333D01*
X62579523Y-8535714D01*
X62770000Y-8535714D01*
X62865238Y-8583333D01*
X62912857Y-8678571D01*
X62912857Y-8773809D01*
X62436666Y-8869047D01*
X63341428Y-9202380D02*
X63341428Y-8535714D01*
X63341428Y-8726190D02*
X63389047Y-8630952D01*
X63436666Y-8583333D01*
X63531904Y-8535714D01*
X63627142Y-8535714D01*
X42947619Y-26645238D02*
X42900000Y-26740476D01*
X42804761Y-26835714D01*
X42661904Y-26978571D01*
X42614285Y-27073809D01*
X42614285Y-27169047D01*
X42852380Y-27121428D02*
X42804761Y-27216666D01*
X42709523Y-27311904D01*
X42519047Y-27359523D01*
X42185714Y-27359523D01*
X41995238Y-27311904D01*
X41900000Y-27216666D01*
X41852380Y-27121428D01*
X41852380Y-26930952D01*
X41900000Y-26835714D01*
X41995238Y-26740476D01*
X42185714Y-26692857D01*
X42519047Y-26692857D01*
X42709523Y-26740476D01*
X42804761Y-26835714D01*
X42852380Y-26930952D01*
X42852380Y-27121428D01*
X42852380Y-25740476D02*
X42852380Y-26311904D01*
X42852380Y-26026190D02*
X41852380Y-26026190D01*
X41995238Y-26121428D01*
X42090476Y-26216666D01*
X42138095Y-26311904D01*
X23154761Y-1347619D02*
X23059523Y-1300000D01*
X22964285Y-1204761D01*
X22821428Y-1061904D01*
X22726190Y-1014285D01*
X22630952Y-1014285D01*
X22678571Y-1252380D02*
X22583333Y-1204761D01*
X22488095Y-1109523D01*
X22440476Y-919047D01*
X22440476Y-585714D01*
X22488095Y-395238D01*
X22583333Y-300000D01*
X22678571Y-252380D01*
X22869047Y-252380D01*
X22964285Y-300000D01*
X23059523Y-395238D01*
X23107142Y-585714D01*
X23107142Y-919047D01*
X23059523Y-1109523D01*
X22964285Y-1204761D01*
X22869047Y-1252380D01*
X22678571Y-1252380D01*
X23488095Y-347619D02*
X23535714Y-300000D01*
X23630952Y-252380D01*
X23869047Y-252380D01*
X23964285Y-300000D01*
X24011904Y-347619D01*
X24059523Y-442857D01*
X24059523Y-538095D01*
X24011904Y-680952D01*
X23440476Y-1252380D01*
X24059523Y-1252380D01*
X23154761Y-9047619D02*
X23059523Y-9000000D01*
X22964285Y-8904761D01*
X22821428Y-8761904D01*
X22726190Y-8714285D01*
X22630952Y-8714285D01*
X22678571Y-8952380D02*
X22583333Y-8904761D01*
X22488095Y-8809523D01*
X22440476Y-8619047D01*
X22440476Y-8285714D01*
X22488095Y-8095238D01*
X22583333Y-8000000D01*
X22678571Y-7952380D01*
X22869047Y-7952380D01*
X22964285Y-8000000D01*
X23059523Y-8095238D01*
X23107142Y-8285714D01*
X23107142Y-8619047D01*
X23059523Y-8809523D01*
X22964285Y-8904761D01*
X22869047Y-8952380D01*
X22678571Y-8952380D01*
X23440476Y-7952380D02*
X24059523Y-7952380D01*
X23726190Y-8333333D01*
X23869047Y-8333333D01*
X23964285Y-8380952D01*
X24011904Y-8428571D01*
X24059523Y-8523809D01*
X24059523Y-8761904D01*
X24011904Y-8857142D01*
X23964285Y-8904761D01*
X23869047Y-8952380D01*
X23583333Y-8952380D01*
X23488095Y-8904761D01*
X23440476Y-8857142D01*
X23154761Y-16797619D02*
X23059523Y-16750000D01*
X22964285Y-16654761D01*
X22821428Y-16511904D01*
X22726190Y-16464285D01*
X22630952Y-16464285D01*
X22678571Y-16702380D02*
X22583333Y-16654761D01*
X22488095Y-16559523D01*
X22440476Y-16369047D01*
X22440476Y-16035714D01*
X22488095Y-15845238D01*
X22583333Y-15750000D01*
X22678571Y-15702380D01*
X22869047Y-15702380D01*
X22964285Y-15750000D01*
X23059523Y-15845238D01*
X23107142Y-16035714D01*
X23107142Y-16369047D01*
X23059523Y-16559523D01*
X22964285Y-16654761D01*
X22869047Y-16702380D01*
X22678571Y-16702380D01*
X23964285Y-16035714D02*
X23964285Y-16702380D01*
X23726190Y-15654761D02*
X23488095Y-16369047D01*
X24107142Y-16369047D01*
X23154761Y-24497619D02*
X23059523Y-24450000D01*
X22964285Y-24354761D01*
X22821428Y-24211904D01*
X22726190Y-24164285D01*
X22630952Y-24164285D01*
X22678571Y-24402380D02*
X22583333Y-24354761D01*
X22488095Y-24259523D01*
X22440476Y-24069047D01*
X22440476Y-23735714D01*
X22488095Y-23545238D01*
X22583333Y-23450000D01*
X22678571Y-23402380D01*
X22869047Y-23402380D01*
X22964285Y-23450000D01*
X23059523Y-23545238D01*
X23107142Y-23735714D01*
X23107142Y-24069047D01*
X23059523Y-24259523D01*
X22964285Y-24354761D01*
X22869047Y-24402380D01*
X22678571Y-24402380D01*
X24011904Y-23402380D02*
X23535714Y-23402380D01*
X23488095Y-23878571D01*
X23535714Y-23830952D01*
X23630952Y-23783333D01*
X23869047Y-23783333D01*
X23964285Y-23830952D01*
X24011904Y-23878571D01*
X24059523Y-23973809D01*
X24059523Y-24211904D01*
X24011904Y-24307142D01*
X23964285Y-24354761D01*
X23869047Y-24402380D01*
X23630952Y-24402380D01*
X23535714Y-24354761D01*
X23488095Y-24307142D01*
X23154761Y-32197619D02*
X23059523Y-32150000D01*
X22964285Y-32054761D01*
X22821428Y-31911904D01*
X22726190Y-31864285D01*
X22630952Y-31864285D01*
X22678571Y-32102380D02*
X22583333Y-32054761D01*
X22488095Y-31959523D01*
X22440476Y-31769047D01*
X22440476Y-31435714D01*
X22488095Y-31245238D01*
X22583333Y-31150000D01*
X22678571Y-31102380D01*
X22869047Y-31102380D01*
X22964285Y-31150000D01*
X23059523Y-31245238D01*
X23107142Y-31435714D01*
X23107142Y-31769047D01*
X23059523Y-31959523D01*
X22964285Y-32054761D01*
X22869047Y-32102380D01*
X22678571Y-32102380D01*
X23964285Y-31102380D02*
X23773809Y-31102380D01*
X23678571Y-31150000D01*
X23630952Y-31197619D01*
X23535714Y-31340476D01*
X23488095Y-31530952D01*
X23488095Y-31911904D01*
X23535714Y-32007142D01*
X23583333Y-32054761D01*
X23678571Y-32102380D01*
X23869047Y-32102380D01*
X23964285Y-32054761D01*
X24011904Y-32007142D01*
X24059523Y-31911904D01*
X24059523Y-31673809D01*
X24011904Y-31578571D01*
X23964285Y-31530952D01*
X23869047Y-31483333D01*
X23678571Y-31483333D01*
X23583333Y-31530952D01*
X23535714Y-31578571D01*
X23488095Y-31673809D01*
X23154761Y-39897619D02*
X23059523Y-39850000D01*
X22964285Y-39754761D01*
X22821428Y-39611904D01*
X22726190Y-39564285D01*
X22630952Y-39564285D01*
X22678571Y-39802380D02*
X22583333Y-39754761D01*
X22488095Y-39659523D01*
X22440476Y-39469047D01*
X22440476Y-39135714D01*
X22488095Y-38945238D01*
X22583333Y-38850000D01*
X22678571Y-38802380D01*
X22869047Y-38802380D01*
X22964285Y-38850000D01*
X23059523Y-38945238D01*
X23107142Y-39135714D01*
X23107142Y-39469047D01*
X23059523Y-39659523D01*
X22964285Y-39754761D01*
X22869047Y-39802380D01*
X22678571Y-39802380D01*
X23440476Y-38802380D02*
X24107142Y-38802380D01*
X23678571Y-39802380D01*
X23154761Y-47697619D02*
X23059523Y-47650000D01*
X22964285Y-47554761D01*
X22821428Y-47411904D01*
X22726190Y-47364285D01*
X22630952Y-47364285D01*
X22678571Y-47602380D02*
X22583333Y-47554761D01*
X22488095Y-47459523D01*
X22440476Y-47269047D01*
X22440476Y-46935714D01*
X22488095Y-46745238D01*
X22583333Y-46650000D01*
X22678571Y-46602380D01*
X22869047Y-46602380D01*
X22964285Y-46650000D01*
X23059523Y-46745238D01*
X23107142Y-46935714D01*
X23107142Y-47269047D01*
X23059523Y-47459523D01*
X22964285Y-47554761D01*
X22869047Y-47602380D01*
X22678571Y-47602380D01*
X23678571Y-47030952D02*
X23583333Y-46983333D01*
X23535714Y-46935714D01*
X23488095Y-46840476D01*
X23488095Y-46792857D01*
X23535714Y-46697619D01*
X23583333Y-46650000D01*
X23678571Y-46602380D01*
X23869047Y-46602380D01*
X23964285Y-46650000D01*
X24011904Y-46697619D01*
X24059523Y-46792857D01*
X24059523Y-46840476D01*
X24011904Y-46935714D01*
X23964285Y-46983333D01*
X23869047Y-47030952D01*
X23678571Y-47030952D01*
X23583333Y-47078571D01*
X23535714Y-47126190D01*
X23488095Y-47221428D01*
X23488095Y-47411904D01*
X23535714Y-47507142D01*
X23583333Y-47554761D01*
X23678571Y-47602380D01*
X23869047Y-47602380D01*
X23964285Y-47554761D01*
X24011904Y-47507142D01*
X24059523Y-47411904D01*
X24059523Y-47221428D01*
X24011904Y-47126190D01*
X23964285Y-47078571D01*
X23869047Y-47030952D01*
X23204761Y-55397619D02*
X23109523Y-55350000D01*
X23014285Y-55254761D01*
X22871428Y-55111904D01*
X22776190Y-55064285D01*
X22680952Y-55064285D01*
X22728571Y-55302380D02*
X22633333Y-55254761D01*
X22538095Y-55159523D01*
X22490476Y-54969047D01*
X22490476Y-54635714D01*
X22538095Y-54445238D01*
X22633333Y-54350000D01*
X22728571Y-54302380D01*
X22919047Y-54302380D01*
X23014285Y-54350000D01*
X23109523Y-54445238D01*
X23157142Y-54635714D01*
X23157142Y-54969047D01*
X23109523Y-55159523D01*
X23014285Y-55254761D01*
X22919047Y-55302380D01*
X22728571Y-55302380D01*
X23633333Y-55302380D02*
X23823809Y-55302380D01*
X23919047Y-55254761D01*
X23966666Y-55207142D01*
X24061904Y-55064285D01*
X24109523Y-54873809D01*
X24109523Y-54492857D01*
X24061904Y-54397619D01*
X24014285Y-54350000D01*
X23919047Y-54302380D01*
X23728571Y-54302380D01*
X23633333Y-54350000D01*
X23585714Y-54397619D01*
X23538095Y-54492857D01*
X23538095Y-54730952D01*
X23585714Y-54826190D01*
X23633333Y-54873809D01*
X23728571Y-54921428D01*
X23919047Y-54921428D01*
X24014285Y-54873809D01*
X24061904Y-54826190D01*
X24109523Y-54730952D01*
X22678571Y-63097619D02*
X22583333Y-63050000D01*
X22488095Y-62954761D01*
X22345238Y-62811904D01*
X22250000Y-62764285D01*
X22154761Y-62764285D01*
X22202380Y-63002380D02*
X22107142Y-62954761D01*
X22011904Y-62859523D01*
X21964285Y-62669047D01*
X21964285Y-62335714D01*
X22011904Y-62145238D01*
X22107142Y-62050000D01*
X22202380Y-62002380D01*
X22392857Y-62002380D01*
X22488095Y-62050000D01*
X22583333Y-62145238D01*
X22630952Y-62335714D01*
X22630952Y-62669047D01*
X22583333Y-62859523D01*
X22488095Y-62954761D01*
X22392857Y-63002380D01*
X22202380Y-63002380D01*
X23583333Y-63002380D02*
X23011904Y-63002380D01*
X23297619Y-63002380D02*
X23297619Y-62002380D01*
X23202380Y-62145238D01*
X23107142Y-62240476D01*
X23011904Y-62288095D01*
X24202380Y-62002380D02*
X24297619Y-62002380D01*
X24392857Y-62050000D01*
X24440476Y-62097619D01*
X24488095Y-62192857D01*
X24535714Y-62383333D01*
X24535714Y-62621428D01*
X24488095Y-62811904D01*
X24440476Y-62907142D01*
X24392857Y-62954761D01*
X24297619Y-63002380D01*
X24202380Y-63002380D01*
X24107142Y-62954761D01*
X24059523Y-62907142D01*
X24011904Y-62811904D01*
X23964285Y-62621428D01*
X23964285Y-62383333D01*
X24011904Y-62192857D01*
X24059523Y-62097619D01*
X24107142Y-62050000D01*
X24202380Y-62002380D01*
X22678571Y-70797619D02*
X22583333Y-70750000D01*
X22488095Y-70654761D01*
X22345238Y-70511904D01*
X22250000Y-70464285D01*
X22154761Y-70464285D01*
X22202380Y-70702380D02*
X22107142Y-70654761D01*
X22011904Y-70559523D01*
X21964285Y-70369047D01*
X21964285Y-70035714D01*
X22011904Y-69845238D01*
X22107142Y-69750000D01*
X22202380Y-69702380D01*
X22392857Y-69702380D01*
X22488095Y-69750000D01*
X22583333Y-69845238D01*
X22630952Y-70035714D01*
X22630952Y-70369047D01*
X22583333Y-70559523D01*
X22488095Y-70654761D01*
X22392857Y-70702380D01*
X22202380Y-70702380D01*
X23583333Y-70702380D02*
X23011904Y-70702380D01*
X23297619Y-70702380D02*
X23297619Y-69702380D01*
X23202380Y-69845238D01*
X23107142Y-69940476D01*
X23011904Y-69988095D01*
X24535714Y-70702380D02*
X23964285Y-70702380D01*
X24250000Y-70702380D02*
X24250000Y-69702380D01*
X24154761Y-69845238D01*
X24059523Y-69940476D01*
X23964285Y-69988095D01*
X22678571Y-78497619D02*
X22583333Y-78450000D01*
X22488095Y-78354761D01*
X22345238Y-78211904D01*
X22250000Y-78164285D01*
X22154761Y-78164285D01*
X22202380Y-78402380D02*
X22107142Y-78354761D01*
X22011904Y-78259523D01*
X21964285Y-78069047D01*
X21964285Y-77735714D01*
X22011904Y-77545238D01*
X22107142Y-77450000D01*
X22202380Y-77402380D01*
X22392857Y-77402380D01*
X22488095Y-77450000D01*
X22583333Y-77545238D01*
X22630952Y-77735714D01*
X22630952Y-78069047D01*
X22583333Y-78259523D01*
X22488095Y-78354761D01*
X22392857Y-78402380D01*
X22202380Y-78402380D01*
X23583333Y-78402380D02*
X23011904Y-78402380D01*
X23297619Y-78402380D02*
X23297619Y-77402380D01*
X23202380Y-77545238D01*
X23107142Y-77640476D01*
X23011904Y-77688095D01*
X23964285Y-77497619D02*
X24011904Y-77450000D01*
X24107142Y-77402380D01*
X24345238Y-77402380D01*
X24440476Y-77450000D01*
X24488095Y-77497619D01*
X24535714Y-77592857D01*
X24535714Y-77688095D01*
X24488095Y-77830952D01*
X23916666Y-78402380D01*
X24535714Y-78402380D01*
X22678571Y-86497619D02*
X22583333Y-86450000D01*
X22488095Y-86354761D01*
X22345238Y-86211904D01*
X22250000Y-86164285D01*
X22154761Y-86164285D01*
X22202380Y-86402380D02*
X22107142Y-86354761D01*
X22011904Y-86259523D01*
X21964285Y-86069047D01*
X21964285Y-85735714D01*
X22011904Y-85545238D01*
X22107142Y-85450000D01*
X22202380Y-85402380D01*
X22392857Y-85402380D01*
X22488095Y-85450000D01*
X22583333Y-85545238D01*
X22630952Y-85735714D01*
X22630952Y-86069047D01*
X22583333Y-86259523D01*
X22488095Y-86354761D01*
X22392857Y-86402380D01*
X22202380Y-86402380D01*
X23583333Y-86402380D02*
X23011904Y-86402380D01*
X23297619Y-86402380D02*
X23297619Y-85402380D01*
X23202380Y-85545238D01*
X23107142Y-85640476D01*
X23011904Y-85688095D01*
X23916666Y-85402380D02*
X24535714Y-85402380D01*
X24202380Y-85783333D01*
X24345238Y-85783333D01*
X24440476Y-85830952D01*
X24488095Y-85878571D01*
X24535714Y-85973809D01*
X24535714Y-86211904D01*
X24488095Y-86307142D01*
X24440476Y-86354761D01*
X24345238Y-86402380D01*
X24059523Y-86402380D01*
X23964285Y-86354761D01*
X23916666Y-86307142D01*
X41883333Y-1502380D02*
X41550000Y-1026190D01*
X41311904Y-1502380D02*
X41311904Y-502380D01*
X41692857Y-502380D01*
X41788095Y-550000D01*
X41835714Y-597619D01*
X41883333Y-692857D01*
X41883333Y-835714D01*
X41835714Y-930952D01*
X41788095Y-978571D01*
X41692857Y-1026190D01*
X41311904Y-1026190D01*
X42835714Y-1502380D02*
X42264285Y-1502380D01*
X42550000Y-1502380D02*
X42550000Y-502380D01*
X42454761Y-645238D01*
X42359523Y-740476D01*
X42264285Y-788095D01*
X41883333Y-4502380D02*
X41550000Y-4026190D01*
X41311904Y-4502380D02*
X41311904Y-3502380D01*
X41692857Y-3502380D01*
X41788095Y-3550000D01*
X41835714Y-3597619D01*
X41883333Y-3692857D01*
X41883333Y-3835714D01*
X41835714Y-3930952D01*
X41788095Y-3978571D01*
X41692857Y-4026190D01*
X41311904Y-4026190D01*
X42264285Y-3597619D02*
X42311904Y-3550000D01*
X42407142Y-3502380D01*
X42645238Y-3502380D01*
X42740476Y-3550000D01*
X42788095Y-3597619D01*
X42835714Y-3692857D01*
X42835714Y-3788095D01*
X42788095Y-3930952D01*
X42216666Y-4502380D01*
X42835714Y-4502380D01*
X53133333Y-48502380D02*
X52800000Y-48026190D01*
X52561904Y-48502380D02*
X52561904Y-47502380D01*
X52942857Y-47502380D01*
X53038095Y-47550000D01*
X53085714Y-47597619D01*
X53133333Y-47692857D01*
X53133333Y-47835714D01*
X53085714Y-47930952D01*
X53038095Y-47978571D01*
X52942857Y-48026190D01*
X52561904Y-48026190D01*
X53466666Y-47502380D02*
X54085714Y-47502380D01*
X53752380Y-47883333D01*
X53895238Y-47883333D01*
X53990476Y-47930952D01*
X54038095Y-47978571D01*
X54085714Y-48073809D01*
X54085714Y-48311904D01*
X54038095Y-48407142D01*
X53990476Y-48454761D01*
X53895238Y-48502380D01*
X53609523Y-48502380D01*
X53514285Y-48454761D01*
X53466666Y-48407142D01*
X53133333Y-47002380D02*
X52800000Y-46526190D01*
X52561904Y-47002380D02*
X52561904Y-46002380D01*
X52942857Y-46002380D01*
X53038095Y-46050000D01*
X53085714Y-46097619D01*
X53133333Y-46192857D01*
X53133333Y-46335714D01*
X53085714Y-46430952D01*
X53038095Y-46478571D01*
X52942857Y-46526190D01*
X52561904Y-46526190D01*
X53990476Y-46335714D02*
X53990476Y-47002380D01*
X53752380Y-45954761D02*
X53514285Y-46669047D01*
X54133333Y-46669047D01*
X54733333Y-36152380D02*
X54400000Y-35676190D01*
X54161904Y-36152380D02*
X54161904Y-35152380D01*
X54542857Y-35152380D01*
X54638095Y-35200000D01*
X54685714Y-35247619D01*
X54733333Y-35342857D01*
X54733333Y-35485714D01*
X54685714Y-35580952D01*
X54638095Y-35628571D01*
X54542857Y-35676190D01*
X54161904Y-35676190D01*
X55638095Y-35152380D02*
X55161904Y-35152380D01*
X55114285Y-35628571D01*
X55161904Y-35580952D01*
X55257142Y-35533333D01*
X55495238Y-35533333D01*
X55590476Y-35580952D01*
X55638095Y-35628571D01*
X55685714Y-35723809D01*
X55685714Y-35961904D01*
X55638095Y-36057142D01*
X55590476Y-36104761D01*
X55495238Y-36152380D01*
X55257142Y-36152380D01*
X55161904Y-36104761D01*
X55114285Y-36057142D01*
X60833333Y-36152380D02*
X60500000Y-35676190D01*
X60261904Y-36152380D02*
X60261904Y-35152380D01*
X60642857Y-35152380D01*
X60738095Y-35200000D01*
X60785714Y-35247619D01*
X60833333Y-35342857D01*
X60833333Y-35485714D01*
X60785714Y-35580952D01*
X60738095Y-35628571D01*
X60642857Y-35676190D01*
X60261904Y-35676190D01*
X61690476Y-35152380D02*
X61500000Y-35152380D01*
X61404761Y-35200000D01*
X61357142Y-35247619D01*
X61261904Y-35390476D01*
X61214285Y-35580952D01*
X61214285Y-35961904D01*
X61261904Y-36057142D01*
X61309523Y-36104761D01*
X61404761Y-36152380D01*
X61595238Y-36152380D01*
X61690476Y-36104761D01*
X61738095Y-36057142D01*
X61785714Y-35961904D01*
X61785714Y-35723809D01*
X61738095Y-35628571D01*
X61690476Y-35580952D01*
X61595238Y-35533333D01*
X61404761Y-35533333D01*
X61309523Y-35580952D01*
X61261904Y-35628571D01*
X61214285Y-35723809D01*
X62280142Y-60637380D02*
X61946809Y-60161190D01*
X61708714Y-60637380D02*
X61708714Y-59637380D01*
X62089666Y-59637380D01*
X62184904Y-59685000D01*
X62232523Y-59732619D01*
X62280142Y-59827857D01*
X62280142Y-59970714D01*
X62232523Y-60065952D01*
X62184904Y-60113571D01*
X62089666Y-60161190D01*
X61708714Y-60161190D01*
X63232523Y-60637380D02*
X62661095Y-60637380D01*
X62946809Y-60637380D02*
X62946809Y-59637380D01*
X62851571Y-59780238D01*
X62756333Y-59875476D01*
X62661095Y-59923095D01*
X64184904Y-60637380D02*
X63613476Y-60637380D01*
X63899190Y-60637380D02*
X63899190Y-59637380D01*
X63803952Y-59780238D01*
X63708714Y-59875476D01*
X63613476Y-59923095D01*
X26407142Y-1752380D02*
X26073809Y-1276190D01*
X25835714Y-1752380D02*
X25835714Y-752380D01*
X26216666Y-752380D01*
X26311904Y-800000D01*
X26359523Y-847619D01*
X26407142Y-942857D01*
X26407142Y-1085714D01*
X26359523Y-1180952D01*
X26311904Y-1228571D01*
X26216666Y-1276190D01*
X25835714Y-1276190D01*
X27359523Y-1752380D02*
X26788095Y-1752380D01*
X27073809Y-1752380D02*
X27073809Y-752380D01*
X26978571Y-895238D01*
X26883333Y-990476D01*
X26788095Y-1038095D01*
X27692857Y-752380D02*
X28311904Y-752380D01*
X27978571Y-1133333D01*
X28121428Y-1133333D01*
X28216666Y-1180952D01*
X28264285Y-1228571D01*
X28311904Y-1323809D01*
X28311904Y-1561904D01*
X28264285Y-1657142D01*
X28216666Y-1704761D01*
X28121428Y-1752380D01*
X27835714Y-1752380D01*
X27740476Y-1704761D01*
X27692857Y-1657142D01*
X26607142Y-6652380D02*
X26273809Y-6176190D01*
X26035714Y-6652380D02*
X26035714Y-5652380D01*
X26416666Y-5652380D01*
X26511904Y-5700000D01*
X26559523Y-5747619D01*
X26607142Y-5842857D01*
X26607142Y-5985714D01*
X26559523Y-6080952D01*
X26511904Y-6128571D01*
X26416666Y-6176190D01*
X26035714Y-6176190D01*
X27559523Y-6652380D02*
X26988095Y-6652380D01*
X27273809Y-6652380D02*
X27273809Y-5652380D01*
X27178571Y-5795238D01*
X27083333Y-5890476D01*
X26988095Y-5938095D01*
X28416666Y-5985714D02*
X28416666Y-6652380D01*
X28178571Y-5604761D02*
X27940476Y-6319047D01*
X28559523Y-6319047D01*
X26607142Y-9652380D02*
X26273809Y-9176190D01*
X26035714Y-9652380D02*
X26035714Y-8652380D01*
X26416666Y-8652380D01*
X26511904Y-8700000D01*
X26559523Y-8747619D01*
X26607142Y-8842857D01*
X26607142Y-8985714D01*
X26559523Y-9080952D01*
X26511904Y-9128571D01*
X26416666Y-9176190D01*
X26035714Y-9176190D01*
X27559523Y-9652380D02*
X26988095Y-9652380D01*
X27273809Y-9652380D02*
X27273809Y-8652380D01*
X27178571Y-8795238D01*
X27083333Y-8890476D01*
X26988095Y-8938095D01*
X28416666Y-8652380D02*
X28226190Y-8652380D01*
X28130952Y-8700000D01*
X28083333Y-8747619D01*
X27988095Y-8890476D01*
X27940476Y-9080952D01*
X27940476Y-9461904D01*
X27988095Y-9557142D01*
X28035714Y-9604761D01*
X28130952Y-9652380D01*
X28321428Y-9652380D01*
X28416666Y-9604761D01*
X28464285Y-9557142D01*
X28511904Y-9461904D01*
X28511904Y-9223809D01*
X28464285Y-9128571D01*
X28416666Y-9080952D01*
X28321428Y-9033333D01*
X28130952Y-9033333D01*
X28035714Y-9080952D01*
X27988095Y-9128571D01*
X27940476Y-9223809D01*
X26607142Y-14352380D02*
X26273809Y-13876190D01*
X26035714Y-14352380D02*
X26035714Y-13352380D01*
X26416666Y-13352380D01*
X26511904Y-13400000D01*
X26559523Y-13447619D01*
X26607142Y-13542857D01*
X26607142Y-13685714D01*
X26559523Y-13780952D01*
X26511904Y-13828571D01*
X26416666Y-13876190D01*
X26035714Y-13876190D01*
X27559523Y-14352380D02*
X26988095Y-14352380D01*
X27273809Y-14352380D02*
X27273809Y-13352380D01*
X27178571Y-13495238D01*
X27083333Y-13590476D01*
X26988095Y-13638095D01*
X27892857Y-13352380D02*
X28559523Y-13352380D01*
X28130952Y-14352380D01*
X26607142Y-17402380D02*
X26273809Y-16926190D01*
X26035714Y-17402380D02*
X26035714Y-16402380D01*
X26416666Y-16402380D01*
X26511904Y-16450000D01*
X26559523Y-16497619D01*
X26607142Y-16592857D01*
X26607142Y-16735714D01*
X26559523Y-16830952D01*
X26511904Y-16878571D01*
X26416666Y-16926190D01*
X26035714Y-16926190D01*
X27559523Y-17402380D02*
X26988095Y-17402380D01*
X27273809Y-17402380D02*
X27273809Y-16402380D01*
X27178571Y-16545238D01*
X27083333Y-16640476D01*
X26988095Y-16688095D01*
X28035714Y-17402380D02*
X28226190Y-17402380D01*
X28321428Y-17354761D01*
X28369047Y-17307142D01*
X28464285Y-17164285D01*
X28511904Y-16973809D01*
X28511904Y-16592857D01*
X28464285Y-16497619D01*
X28416666Y-16450000D01*
X28321428Y-16402380D01*
X28130952Y-16402380D01*
X28035714Y-16450000D01*
X27988095Y-16497619D01*
X27940476Y-16592857D01*
X27940476Y-16830952D01*
X27988095Y-16926190D01*
X28035714Y-16973809D01*
X28130952Y-17021428D01*
X28321428Y-17021428D01*
X28416666Y-16973809D01*
X28464285Y-16926190D01*
X28511904Y-16830952D01*
X26607142Y-22102380D02*
X26273809Y-21626190D01*
X26035714Y-22102380D02*
X26035714Y-21102380D01*
X26416666Y-21102380D01*
X26511904Y-21150000D01*
X26559523Y-21197619D01*
X26607142Y-21292857D01*
X26607142Y-21435714D01*
X26559523Y-21530952D01*
X26511904Y-21578571D01*
X26416666Y-21626190D01*
X26035714Y-21626190D01*
X26988095Y-21197619D02*
X27035714Y-21150000D01*
X27130952Y-21102380D01*
X27369047Y-21102380D01*
X27464285Y-21150000D01*
X27511904Y-21197619D01*
X27559523Y-21292857D01*
X27559523Y-21388095D01*
X27511904Y-21530952D01*
X26940476Y-22102380D01*
X27559523Y-22102380D01*
X28178571Y-21102380D02*
X28273809Y-21102380D01*
X28369047Y-21150000D01*
X28416666Y-21197619D01*
X28464285Y-21292857D01*
X28511904Y-21483333D01*
X28511904Y-21721428D01*
X28464285Y-21911904D01*
X28416666Y-22007142D01*
X28369047Y-22054761D01*
X28273809Y-22102380D01*
X28178571Y-22102380D01*
X28083333Y-22054761D01*
X28035714Y-22007142D01*
X27988095Y-21911904D01*
X27940476Y-21721428D01*
X27940476Y-21483333D01*
X27988095Y-21292857D01*
X28035714Y-21197619D01*
X28083333Y-21150000D01*
X28178571Y-21102380D01*
X26607142Y-25102380D02*
X26273809Y-24626190D01*
X26035714Y-25102380D02*
X26035714Y-24102380D01*
X26416666Y-24102380D01*
X26511904Y-24150000D01*
X26559523Y-24197619D01*
X26607142Y-24292857D01*
X26607142Y-24435714D01*
X26559523Y-24530952D01*
X26511904Y-24578571D01*
X26416666Y-24626190D01*
X26035714Y-24626190D01*
X26988095Y-24197619D02*
X27035714Y-24150000D01*
X27130952Y-24102380D01*
X27369047Y-24102380D01*
X27464285Y-24150000D01*
X27511904Y-24197619D01*
X27559523Y-24292857D01*
X27559523Y-24388095D01*
X27511904Y-24530952D01*
X26940476Y-25102380D01*
X27559523Y-25102380D01*
X27940476Y-24197619D02*
X27988095Y-24150000D01*
X28083333Y-24102380D01*
X28321428Y-24102380D01*
X28416666Y-24150000D01*
X28464285Y-24197619D01*
X28511904Y-24292857D01*
X28511904Y-24388095D01*
X28464285Y-24530952D01*
X27892857Y-25102380D01*
X28511904Y-25102380D01*
X26607142Y-29802380D02*
X26273809Y-29326190D01*
X26035714Y-29802380D02*
X26035714Y-28802380D01*
X26416666Y-28802380D01*
X26511904Y-28850000D01*
X26559523Y-28897619D01*
X26607142Y-28992857D01*
X26607142Y-29135714D01*
X26559523Y-29230952D01*
X26511904Y-29278571D01*
X26416666Y-29326190D01*
X26035714Y-29326190D01*
X26988095Y-28897619D02*
X27035714Y-28850000D01*
X27130952Y-28802380D01*
X27369047Y-28802380D01*
X27464285Y-28850000D01*
X27511904Y-28897619D01*
X27559523Y-28992857D01*
X27559523Y-29088095D01*
X27511904Y-29230952D01*
X26940476Y-29802380D01*
X27559523Y-29802380D01*
X27892857Y-28802380D02*
X28511904Y-28802380D01*
X28178571Y-29183333D01*
X28321428Y-29183333D01*
X28416666Y-29230952D01*
X28464285Y-29278571D01*
X28511904Y-29373809D01*
X28511904Y-29611904D01*
X28464285Y-29707142D01*
X28416666Y-29754761D01*
X28321428Y-29802380D01*
X28035714Y-29802380D01*
X27940476Y-29754761D01*
X27892857Y-29707142D01*
X26607142Y-32802380D02*
X26273809Y-32326190D01*
X26035714Y-32802380D02*
X26035714Y-31802380D01*
X26416666Y-31802380D01*
X26511904Y-31850000D01*
X26559523Y-31897619D01*
X26607142Y-31992857D01*
X26607142Y-32135714D01*
X26559523Y-32230952D01*
X26511904Y-32278571D01*
X26416666Y-32326190D01*
X26035714Y-32326190D01*
X26988095Y-31897619D02*
X27035714Y-31850000D01*
X27130952Y-31802380D01*
X27369047Y-31802380D01*
X27464285Y-31850000D01*
X27511904Y-31897619D01*
X27559523Y-31992857D01*
X27559523Y-32088095D01*
X27511904Y-32230952D01*
X26940476Y-32802380D01*
X27559523Y-32802380D01*
X28464285Y-31802380D02*
X27988095Y-31802380D01*
X27940476Y-32278571D01*
X27988095Y-32230952D01*
X28083333Y-32183333D01*
X28321428Y-32183333D01*
X28416666Y-32230952D01*
X28464285Y-32278571D01*
X28511904Y-32373809D01*
X28511904Y-32611904D01*
X28464285Y-32707142D01*
X28416666Y-32754761D01*
X28321428Y-32802380D01*
X28083333Y-32802380D01*
X27988095Y-32754761D01*
X27940476Y-32707142D01*
X26607142Y-37602380D02*
X26273809Y-37126190D01*
X26035714Y-37602380D02*
X26035714Y-36602380D01*
X26416666Y-36602380D01*
X26511904Y-36650000D01*
X26559523Y-36697619D01*
X26607142Y-36792857D01*
X26607142Y-36935714D01*
X26559523Y-37030952D01*
X26511904Y-37078571D01*
X26416666Y-37126190D01*
X26035714Y-37126190D01*
X26988095Y-36697619D02*
X27035714Y-36650000D01*
X27130952Y-36602380D01*
X27369047Y-36602380D01*
X27464285Y-36650000D01*
X27511904Y-36697619D01*
X27559523Y-36792857D01*
X27559523Y-36888095D01*
X27511904Y-37030952D01*
X26940476Y-37602380D01*
X27559523Y-37602380D01*
X28416666Y-36602380D02*
X28226190Y-36602380D01*
X28130952Y-36650000D01*
X28083333Y-36697619D01*
X27988095Y-36840476D01*
X27940476Y-37030952D01*
X27940476Y-37411904D01*
X27988095Y-37507142D01*
X28035714Y-37554761D01*
X28130952Y-37602380D01*
X28321428Y-37602380D01*
X28416666Y-37554761D01*
X28464285Y-37507142D01*
X28511904Y-37411904D01*
X28511904Y-37173809D01*
X28464285Y-37078571D01*
X28416666Y-37030952D01*
X28321428Y-36983333D01*
X28130952Y-36983333D01*
X28035714Y-37030952D01*
X27988095Y-37078571D01*
X27940476Y-37173809D01*
X26607142Y-40502380D02*
X26273809Y-40026190D01*
X26035714Y-40502380D02*
X26035714Y-39502380D01*
X26416666Y-39502380D01*
X26511904Y-39550000D01*
X26559523Y-39597619D01*
X26607142Y-39692857D01*
X26607142Y-39835714D01*
X26559523Y-39930952D01*
X26511904Y-39978571D01*
X26416666Y-40026190D01*
X26035714Y-40026190D01*
X26988095Y-39597619D02*
X27035714Y-39550000D01*
X27130952Y-39502380D01*
X27369047Y-39502380D01*
X27464285Y-39550000D01*
X27511904Y-39597619D01*
X27559523Y-39692857D01*
X27559523Y-39788095D01*
X27511904Y-39930952D01*
X26940476Y-40502380D01*
X27559523Y-40502380D01*
X28130952Y-39930952D02*
X28035714Y-39883333D01*
X27988095Y-39835714D01*
X27940476Y-39740476D01*
X27940476Y-39692857D01*
X27988095Y-39597619D01*
X28035714Y-39550000D01*
X28130952Y-39502380D01*
X28321428Y-39502380D01*
X28416666Y-39550000D01*
X28464285Y-39597619D01*
X28511904Y-39692857D01*
X28511904Y-39740476D01*
X28464285Y-39835714D01*
X28416666Y-39883333D01*
X28321428Y-39930952D01*
X28130952Y-39930952D01*
X28035714Y-39978571D01*
X27988095Y-40026190D01*
X27940476Y-40121428D01*
X27940476Y-40311904D01*
X27988095Y-40407142D01*
X28035714Y-40454761D01*
X28130952Y-40502380D01*
X28321428Y-40502380D01*
X28416666Y-40454761D01*
X28464285Y-40407142D01*
X28511904Y-40311904D01*
X28511904Y-40121428D01*
X28464285Y-40026190D01*
X28416666Y-39978571D01*
X28321428Y-39930952D01*
X26607142Y-45202380D02*
X26273809Y-44726190D01*
X26035714Y-45202380D02*
X26035714Y-44202380D01*
X26416666Y-44202380D01*
X26511904Y-44250000D01*
X26559523Y-44297619D01*
X26607142Y-44392857D01*
X26607142Y-44535714D01*
X26559523Y-44630952D01*
X26511904Y-44678571D01*
X26416666Y-44726190D01*
X26035714Y-44726190D01*
X26988095Y-44297619D02*
X27035714Y-44250000D01*
X27130952Y-44202380D01*
X27369047Y-44202380D01*
X27464285Y-44250000D01*
X27511904Y-44297619D01*
X27559523Y-44392857D01*
X27559523Y-44488095D01*
X27511904Y-44630952D01*
X26940476Y-45202380D01*
X27559523Y-45202380D01*
X28035714Y-45202380D02*
X28226190Y-45202380D01*
X28321428Y-45154761D01*
X28369047Y-45107142D01*
X28464285Y-44964285D01*
X28511904Y-44773809D01*
X28511904Y-44392857D01*
X28464285Y-44297619D01*
X28416666Y-44250000D01*
X28321428Y-44202380D01*
X28130952Y-44202380D01*
X28035714Y-44250000D01*
X27988095Y-44297619D01*
X27940476Y-44392857D01*
X27940476Y-44630952D01*
X27988095Y-44726190D01*
X28035714Y-44773809D01*
X28130952Y-44821428D01*
X28321428Y-44821428D01*
X28416666Y-44773809D01*
X28464285Y-44726190D01*
X28511904Y-44630952D01*
X26607142Y-48302380D02*
X26273809Y-47826190D01*
X26035714Y-48302380D02*
X26035714Y-47302380D01*
X26416666Y-47302380D01*
X26511904Y-47350000D01*
X26559523Y-47397619D01*
X26607142Y-47492857D01*
X26607142Y-47635714D01*
X26559523Y-47730952D01*
X26511904Y-47778571D01*
X26416666Y-47826190D01*
X26035714Y-47826190D01*
X26940476Y-47302380D02*
X27559523Y-47302380D01*
X27226190Y-47683333D01*
X27369047Y-47683333D01*
X27464285Y-47730952D01*
X27511904Y-47778571D01*
X27559523Y-47873809D01*
X27559523Y-48111904D01*
X27511904Y-48207142D01*
X27464285Y-48254761D01*
X27369047Y-48302380D01*
X27083333Y-48302380D01*
X26988095Y-48254761D01*
X26940476Y-48207142D01*
X28511904Y-48302380D02*
X27940476Y-48302380D01*
X28226190Y-48302380D02*
X28226190Y-47302380D01*
X28130952Y-47445238D01*
X28035714Y-47540476D01*
X27940476Y-47588095D01*
X26607142Y-53102380D02*
X26273809Y-52626190D01*
X26035714Y-53102380D02*
X26035714Y-52102380D01*
X26416666Y-52102380D01*
X26511904Y-52150000D01*
X26559523Y-52197619D01*
X26607142Y-52292857D01*
X26607142Y-52435714D01*
X26559523Y-52530952D01*
X26511904Y-52578571D01*
X26416666Y-52626190D01*
X26035714Y-52626190D01*
X26940476Y-52102380D02*
X27559523Y-52102380D01*
X27226190Y-52483333D01*
X27369047Y-52483333D01*
X27464285Y-52530952D01*
X27511904Y-52578571D01*
X27559523Y-52673809D01*
X27559523Y-52911904D01*
X27511904Y-53007142D01*
X27464285Y-53054761D01*
X27369047Y-53102380D01*
X27083333Y-53102380D01*
X26988095Y-53054761D01*
X26940476Y-53007142D01*
X27940476Y-52197619D02*
X27988095Y-52150000D01*
X28083333Y-52102380D01*
X28321428Y-52102380D01*
X28416666Y-52150000D01*
X28464285Y-52197619D01*
X28511904Y-52292857D01*
X28511904Y-52388095D01*
X28464285Y-52530952D01*
X27892857Y-53102380D01*
X28511904Y-53102380D01*
X26657142Y-56002380D02*
X26323809Y-55526190D01*
X26085714Y-56002380D02*
X26085714Y-55002380D01*
X26466666Y-55002380D01*
X26561904Y-55050000D01*
X26609523Y-55097619D01*
X26657142Y-55192857D01*
X26657142Y-55335714D01*
X26609523Y-55430952D01*
X26561904Y-55478571D01*
X26466666Y-55526190D01*
X26085714Y-55526190D01*
X26990476Y-55002380D02*
X27609523Y-55002380D01*
X27276190Y-55383333D01*
X27419047Y-55383333D01*
X27514285Y-55430952D01*
X27561904Y-55478571D01*
X27609523Y-55573809D01*
X27609523Y-55811904D01*
X27561904Y-55907142D01*
X27514285Y-55954761D01*
X27419047Y-56002380D01*
X27133333Y-56002380D01*
X27038095Y-55954761D01*
X26990476Y-55907142D01*
X28466666Y-55335714D02*
X28466666Y-56002380D01*
X28228571Y-54954761D02*
X27990476Y-55669047D01*
X28609523Y-55669047D01*
X26657142Y-60802380D02*
X26323809Y-60326190D01*
X26085714Y-60802380D02*
X26085714Y-59802380D01*
X26466666Y-59802380D01*
X26561904Y-59850000D01*
X26609523Y-59897619D01*
X26657142Y-59992857D01*
X26657142Y-60135714D01*
X26609523Y-60230952D01*
X26561904Y-60278571D01*
X26466666Y-60326190D01*
X26085714Y-60326190D01*
X26990476Y-59802380D02*
X27609523Y-59802380D01*
X27276190Y-60183333D01*
X27419047Y-60183333D01*
X27514285Y-60230952D01*
X27561904Y-60278571D01*
X27609523Y-60373809D01*
X27609523Y-60611904D01*
X27561904Y-60707142D01*
X27514285Y-60754761D01*
X27419047Y-60802380D01*
X27133333Y-60802380D01*
X27038095Y-60754761D01*
X26990476Y-60707142D01*
X28514285Y-59802380D02*
X28038095Y-59802380D01*
X27990476Y-60278571D01*
X28038095Y-60230952D01*
X28133333Y-60183333D01*
X28371428Y-60183333D01*
X28466666Y-60230952D01*
X28514285Y-60278571D01*
X28561904Y-60373809D01*
X28561904Y-60611904D01*
X28514285Y-60707142D01*
X28466666Y-60754761D01*
X28371428Y-60802380D01*
X28133333Y-60802380D01*
X28038095Y-60754761D01*
X27990476Y-60707142D01*
X26607142Y-63702380D02*
X26273809Y-63226190D01*
X26035714Y-63702380D02*
X26035714Y-62702380D01*
X26416666Y-62702380D01*
X26511904Y-62750000D01*
X26559523Y-62797619D01*
X26607142Y-62892857D01*
X26607142Y-63035714D01*
X26559523Y-63130952D01*
X26511904Y-63178571D01*
X26416666Y-63226190D01*
X26035714Y-63226190D01*
X26940476Y-62702380D02*
X27559523Y-62702380D01*
X27226190Y-63083333D01*
X27369047Y-63083333D01*
X27464285Y-63130952D01*
X27511904Y-63178571D01*
X27559523Y-63273809D01*
X27559523Y-63511904D01*
X27511904Y-63607142D01*
X27464285Y-63654761D01*
X27369047Y-63702380D01*
X27083333Y-63702380D01*
X26988095Y-63654761D01*
X26940476Y-63607142D01*
X27892857Y-62702380D02*
X28559523Y-62702380D01*
X28130952Y-63702380D01*
X26607142Y-68402380D02*
X26273809Y-67926190D01*
X26035714Y-68402380D02*
X26035714Y-67402380D01*
X26416666Y-67402380D01*
X26511904Y-67450000D01*
X26559523Y-67497619D01*
X26607142Y-67592857D01*
X26607142Y-67735714D01*
X26559523Y-67830952D01*
X26511904Y-67878571D01*
X26416666Y-67926190D01*
X26035714Y-67926190D01*
X26940476Y-67402380D02*
X27559523Y-67402380D01*
X27226190Y-67783333D01*
X27369047Y-67783333D01*
X27464285Y-67830952D01*
X27511904Y-67878571D01*
X27559523Y-67973809D01*
X27559523Y-68211904D01*
X27511904Y-68307142D01*
X27464285Y-68354761D01*
X27369047Y-68402380D01*
X27083333Y-68402380D01*
X26988095Y-68354761D01*
X26940476Y-68307142D01*
X28130952Y-67830952D02*
X28035714Y-67783333D01*
X27988095Y-67735714D01*
X27940476Y-67640476D01*
X27940476Y-67592857D01*
X27988095Y-67497619D01*
X28035714Y-67450000D01*
X28130952Y-67402380D01*
X28321428Y-67402380D01*
X28416666Y-67450000D01*
X28464285Y-67497619D01*
X28511904Y-67592857D01*
X28511904Y-67640476D01*
X28464285Y-67735714D01*
X28416666Y-67783333D01*
X28321428Y-67830952D01*
X28130952Y-67830952D01*
X28035714Y-67878571D01*
X27988095Y-67926190D01*
X27940476Y-68021428D01*
X27940476Y-68211904D01*
X27988095Y-68307142D01*
X28035714Y-68354761D01*
X28130952Y-68402380D01*
X28321428Y-68402380D01*
X28416666Y-68354761D01*
X28464285Y-68307142D01*
X28511904Y-68211904D01*
X28511904Y-68021428D01*
X28464285Y-67926190D01*
X28416666Y-67878571D01*
X28321428Y-67830952D01*
X26607142Y-71402380D02*
X26273809Y-70926190D01*
X26035714Y-71402380D02*
X26035714Y-70402380D01*
X26416666Y-70402380D01*
X26511904Y-70450000D01*
X26559523Y-70497619D01*
X26607142Y-70592857D01*
X26607142Y-70735714D01*
X26559523Y-70830952D01*
X26511904Y-70878571D01*
X26416666Y-70926190D01*
X26035714Y-70926190D01*
X27464285Y-70735714D02*
X27464285Y-71402380D01*
X27226190Y-70354761D02*
X26988095Y-71069047D01*
X27607142Y-71069047D01*
X28178571Y-70402380D02*
X28273809Y-70402380D01*
X28369047Y-70450000D01*
X28416666Y-70497619D01*
X28464285Y-70592857D01*
X28511904Y-70783333D01*
X28511904Y-71021428D01*
X28464285Y-71211904D01*
X28416666Y-71307142D01*
X28369047Y-71354761D01*
X28273809Y-71402380D01*
X28178571Y-71402380D01*
X28083333Y-71354761D01*
X28035714Y-71307142D01*
X27988095Y-71211904D01*
X27940476Y-71021428D01*
X27940476Y-70783333D01*
X27988095Y-70592857D01*
X28035714Y-70497619D01*
X28083333Y-70450000D01*
X28178571Y-70402380D01*
X26607142Y-76202380D02*
X26273809Y-75726190D01*
X26035714Y-76202380D02*
X26035714Y-75202380D01*
X26416666Y-75202380D01*
X26511904Y-75250000D01*
X26559523Y-75297619D01*
X26607142Y-75392857D01*
X26607142Y-75535714D01*
X26559523Y-75630952D01*
X26511904Y-75678571D01*
X26416666Y-75726190D01*
X26035714Y-75726190D01*
X27464285Y-75535714D02*
X27464285Y-76202380D01*
X27226190Y-75154761D02*
X26988095Y-75869047D01*
X27607142Y-75869047D01*
X28511904Y-76202380D02*
X27940476Y-76202380D01*
X28226190Y-76202380D02*
X28226190Y-75202380D01*
X28130952Y-75345238D01*
X28035714Y-75440476D01*
X27940476Y-75488095D01*
X26607142Y-79102380D02*
X26273809Y-78626190D01*
X26035714Y-79102380D02*
X26035714Y-78102380D01*
X26416666Y-78102380D01*
X26511904Y-78150000D01*
X26559523Y-78197619D01*
X26607142Y-78292857D01*
X26607142Y-78435714D01*
X26559523Y-78530952D01*
X26511904Y-78578571D01*
X26416666Y-78626190D01*
X26035714Y-78626190D01*
X27464285Y-78435714D02*
X27464285Y-79102380D01*
X27226190Y-78054761D02*
X26988095Y-78769047D01*
X27607142Y-78769047D01*
X27892857Y-78102380D02*
X28511904Y-78102380D01*
X28178571Y-78483333D01*
X28321428Y-78483333D01*
X28416666Y-78530952D01*
X28464285Y-78578571D01*
X28511904Y-78673809D01*
X28511904Y-78911904D01*
X28464285Y-79007142D01*
X28416666Y-79054761D01*
X28321428Y-79102380D01*
X28035714Y-79102380D01*
X27940476Y-79054761D01*
X27892857Y-79007142D01*
X26607142Y-83902380D02*
X26273809Y-83426190D01*
X26035714Y-83902380D02*
X26035714Y-82902380D01*
X26416666Y-82902380D01*
X26511904Y-82950000D01*
X26559523Y-82997619D01*
X26607142Y-83092857D01*
X26607142Y-83235714D01*
X26559523Y-83330952D01*
X26511904Y-83378571D01*
X26416666Y-83426190D01*
X26035714Y-83426190D01*
X27464285Y-83235714D02*
X27464285Y-83902380D01*
X27226190Y-82854761D02*
X26988095Y-83569047D01*
X27607142Y-83569047D01*
X28416666Y-83235714D02*
X28416666Y-83902380D01*
X28178571Y-82854761D02*
X27940476Y-83569047D01*
X28559523Y-83569047D01*
X26607142Y-87102380D02*
X26273809Y-86626190D01*
X26035714Y-87102380D02*
X26035714Y-86102380D01*
X26416666Y-86102380D01*
X26511904Y-86150000D01*
X26559523Y-86197619D01*
X26607142Y-86292857D01*
X26607142Y-86435714D01*
X26559523Y-86530952D01*
X26511904Y-86578571D01*
X26416666Y-86626190D01*
X26035714Y-86626190D01*
X27464285Y-86435714D02*
X27464285Y-87102380D01*
X27226190Y-86054761D02*
X26988095Y-86769047D01*
X27607142Y-86769047D01*
X28416666Y-86102380D02*
X28226190Y-86102380D01*
X28130952Y-86150000D01*
X28083333Y-86197619D01*
X27988095Y-86340476D01*
X27940476Y-86530952D01*
X27940476Y-86911904D01*
X27988095Y-87007142D01*
X28035714Y-87054761D01*
X28130952Y-87102380D01*
X28321428Y-87102380D01*
X28416666Y-87054761D01*
X28464285Y-87007142D01*
X28511904Y-86911904D01*
X28511904Y-86673809D01*
X28464285Y-86578571D01*
X28416666Y-86530952D01*
X28321428Y-86483333D01*
X28130952Y-86483333D01*
X28035714Y-86530952D01*
X27988095Y-86578571D01*
X27940476Y-86673809D01*
X26607142Y-91902380D02*
X26273809Y-91426190D01*
X26035714Y-91902380D02*
X26035714Y-90902380D01*
X26416666Y-90902380D01*
X26511904Y-90950000D01*
X26559523Y-90997619D01*
X26607142Y-91092857D01*
X26607142Y-91235714D01*
X26559523Y-91330952D01*
X26511904Y-91378571D01*
X26416666Y-91426190D01*
X26035714Y-91426190D01*
X27464285Y-91235714D02*
X27464285Y-91902380D01*
X27226190Y-90854761D02*
X26988095Y-91569047D01*
X27607142Y-91569047D01*
X27892857Y-90902380D02*
X28559523Y-90902380D01*
X28130952Y-91902380D01*
X57452380Y-26511904D02*
X57452380Y-25940476D01*
X58452380Y-26226190D02*
X57452380Y-26226190D01*
X58452380Y-25035714D02*
X57976190Y-25369047D01*
X58452380Y-25607142D02*
X57452380Y-25607142D01*
X57452380Y-25226190D01*
X57500000Y-25130952D01*
X57547619Y-25083333D01*
X57642857Y-25035714D01*
X57785714Y-25035714D01*
X57880952Y-25083333D01*
X57928571Y-25130952D01*
X57976190Y-25226190D01*
X57976190Y-25607142D01*
X58452380Y-24083333D02*
X58452380Y-24654761D01*
X58452380Y-24369047D02*
X57452380Y-24369047D01*
X57595238Y-24464285D01*
X57690476Y-24559523D01*
X57738095Y-24654761D01*
X16107142Y-4252380D02*
X15773809Y-3776190D01*
X15535714Y-4252380D02*
X15535714Y-3252380D01*
X15916666Y-3252380D01*
X16011904Y-3300000D01*
X16059523Y-3347619D01*
X16107142Y-3442857D01*
X16107142Y-3585714D01*
X16059523Y-3680952D01*
X16011904Y-3728571D01*
X15916666Y-3776190D01*
X15535714Y-3776190D01*
X17059523Y-4252380D02*
X16488095Y-4252380D01*
X16773809Y-4252380D02*
X16773809Y-3252380D01*
X16678571Y-3395238D01*
X16583333Y-3490476D01*
X16488095Y-3538095D01*
X17440476Y-3347619D02*
X17488095Y-3300000D01*
X17583333Y-3252380D01*
X17821428Y-3252380D01*
X17916666Y-3300000D01*
X17964285Y-3347619D01*
X18011904Y-3442857D01*
X18011904Y-3538095D01*
X17964285Y-3680952D01*
X17392857Y-4252380D01*
X18011904Y-4252380D01*
X16107142Y-11952380D02*
X15773809Y-11476190D01*
X15535714Y-11952380D02*
X15535714Y-10952380D01*
X15916666Y-10952380D01*
X16011904Y-11000000D01*
X16059523Y-11047619D01*
X16107142Y-11142857D01*
X16107142Y-11285714D01*
X16059523Y-11380952D01*
X16011904Y-11428571D01*
X15916666Y-11476190D01*
X15535714Y-11476190D01*
X17059523Y-11952380D02*
X16488095Y-11952380D01*
X16773809Y-11952380D02*
X16773809Y-10952380D01*
X16678571Y-11095238D01*
X16583333Y-11190476D01*
X16488095Y-11238095D01*
X17964285Y-10952380D02*
X17488095Y-10952380D01*
X17440476Y-11428571D01*
X17488095Y-11380952D01*
X17583333Y-11333333D01*
X17821428Y-11333333D01*
X17916666Y-11380952D01*
X17964285Y-11428571D01*
X18011904Y-11523809D01*
X18011904Y-11761904D01*
X17964285Y-11857142D01*
X17916666Y-11904761D01*
X17821428Y-11952380D01*
X17583333Y-11952380D01*
X17488095Y-11904761D01*
X17440476Y-11857142D01*
X16107142Y-19702380D02*
X15773809Y-19226190D01*
X15535714Y-19702380D02*
X15535714Y-18702380D01*
X15916666Y-18702380D01*
X16011904Y-18750000D01*
X16059523Y-18797619D01*
X16107142Y-18892857D01*
X16107142Y-19035714D01*
X16059523Y-19130952D01*
X16011904Y-19178571D01*
X15916666Y-19226190D01*
X15535714Y-19226190D01*
X17059523Y-19702380D02*
X16488095Y-19702380D01*
X16773809Y-19702380D02*
X16773809Y-18702380D01*
X16678571Y-18845238D01*
X16583333Y-18940476D01*
X16488095Y-18988095D01*
X17630952Y-19130952D02*
X17535714Y-19083333D01*
X17488095Y-19035714D01*
X17440476Y-18940476D01*
X17440476Y-18892857D01*
X17488095Y-18797619D01*
X17535714Y-18750000D01*
X17630952Y-18702380D01*
X17821428Y-18702380D01*
X17916666Y-18750000D01*
X17964285Y-18797619D01*
X18011904Y-18892857D01*
X18011904Y-18940476D01*
X17964285Y-19035714D01*
X17916666Y-19083333D01*
X17821428Y-19130952D01*
X17630952Y-19130952D01*
X17535714Y-19178571D01*
X17488095Y-19226190D01*
X17440476Y-19321428D01*
X17440476Y-19511904D01*
X17488095Y-19607142D01*
X17535714Y-19654761D01*
X17630952Y-19702380D01*
X17821428Y-19702380D01*
X17916666Y-19654761D01*
X17964285Y-19607142D01*
X18011904Y-19511904D01*
X18011904Y-19321428D01*
X17964285Y-19226190D01*
X17916666Y-19178571D01*
X17821428Y-19130952D01*
X16107142Y-27402380D02*
X15773809Y-26926190D01*
X15535714Y-27402380D02*
X15535714Y-26402380D01*
X15916666Y-26402380D01*
X16011904Y-26450000D01*
X16059523Y-26497619D01*
X16107142Y-26592857D01*
X16107142Y-26735714D01*
X16059523Y-26830952D01*
X16011904Y-26878571D01*
X15916666Y-26926190D01*
X15535714Y-26926190D01*
X16488095Y-26497619D02*
X16535714Y-26450000D01*
X16630952Y-26402380D01*
X16869047Y-26402380D01*
X16964285Y-26450000D01*
X17011904Y-26497619D01*
X17059523Y-26592857D01*
X17059523Y-26688095D01*
X17011904Y-26830952D01*
X16440476Y-27402380D01*
X17059523Y-27402380D01*
X18011904Y-27402380D02*
X17440476Y-27402380D01*
X17726190Y-27402380D02*
X17726190Y-26402380D01*
X17630952Y-26545238D01*
X17535714Y-26640476D01*
X17440476Y-26688095D01*
X16107142Y-35102380D02*
X15773809Y-34626190D01*
X15535714Y-35102380D02*
X15535714Y-34102380D01*
X15916666Y-34102380D01*
X16011904Y-34150000D01*
X16059523Y-34197619D01*
X16107142Y-34292857D01*
X16107142Y-34435714D01*
X16059523Y-34530952D01*
X16011904Y-34578571D01*
X15916666Y-34626190D01*
X15535714Y-34626190D01*
X16488095Y-34197619D02*
X16535714Y-34150000D01*
X16630952Y-34102380D01*
X16869047Y-34102380D01*
X16964285Y-34150000D01*
X17011904Y-34197619D01*
X17059523Y-34292857D01*
X17059523Y-34388095D01*
X17011904Y-34530952D01*
X16440476Y-35102380D01*
X17059523Y-35102380D01*
X17916666Y-34435714D02*
X17916666Y-35102380D01*
X17678571Y-34054761D02*
X17440476Y-34769047D01*
X18059523Y-34769047D01*
X16107142Y-42802380D02*
X15773809Y-42326190D01*
X15535714Y-42802380D02*
X15535714Y-41802380D01*
X15916666Y-41802380D01*
X16011904Y-41850000D01*
X16059523Y-41897619D01*
X16107142Y-41992857D01*
X16107142Y-42135714D01*
X16059523Y-42230952D01*
X16011904Y-42278571D01*
X15916666Y-42326190D01*
X15535714Y-42326190D01*
X16488095Y-41897619D02*
X16535714Y-41850000D01*
X16630952Y-41802380D01*
X16869047Y-41802380D01*
X16964285Y-41850000D01*
X17011904Y-41897619D01*
X17059523Y-41992857D01*
X17059523Y-42088095D01*
X17011904Y-42230952D01*
X16440476Y-42802380D01*
X17059523Y-42802380D01*
X17392857Y-41802380D02*
X18059523Y-41802380D01*
X17630952Y-42802380D01*
X16107142Y-50602380D02*
X15773809Y-50126190D01*
X15535714Y-50602380D02*
X15535714Y-49602380D01*
X15916666Y-49602380D01*
X16011904Y-49650000D01*
X16059523Y-49697619D01*
X16107142Y-49792857D01*
X16107142Y-49935714D01*
X16059523Y-50030952D01*
X16011904Y-50078571D01*
X15916666Y-50126190D01*
X15535714Y-50126190D01*
X16440476Y-49602380D02*
X17059523Y-49602380D01*
X16726190Y-49983333D01*
X16869047Y-49983333D01*
X16964285Y-50030952D01*
X17011904Y-50078571D01*
X17059523Y-50173809D01*
X17059523Y-50411904D01*
X17011904Y-50507142D01*
X16964285Y-50554761D01*
X16869047Y-50602380D01*
X16583333Y-50602380D01*
X16488095Y-50554761D01*
X16440476Y-50507142D01*
X17678571Y-49602380D02*
X17773809Y-49602380D01*
X17869047Y-49650000D01*
X17916666Y-49697619D01*
X17964285Y-49792857D01*
X18011904Y-49983333D01*
X18011904Y-50221428D01*
X17964285Y-50411904D01*
X17916666Y-50507142D01*
X17869047Y-50554761D01*
X17773809Y-50602380D01*
X17678571Y-50602380D01*
X17583333Y-50554761D01*
X17535714Y-50507142D01*
X17488095Y-50411904D01*
X17440476Y-50221428D01*
X17440476Y-49983333D01*
X17488095Y-49792857D01*
X17535714Y-49697619D01*
X17583333Y-49650000D01*
X17678571Y-49602380D01*
X16157142Y-58452380D02*
X15823809Y-57976190D01*
X15585714Y-58452380D02*
X15585714Y-57452380D01*
X15966666Y-57452380D01*
X16061904Y-57500000D01*
X16109523Y-57547619D01*
X16157142Y-57642857D01*
X16157142Y-57785714D01*
X16109523Y-57880952D01*
X16061904Y-57928571D01*
X15966666Y-57976190D01*
X15585714Y-57976190D01*
X16490476Y-57452380D02*
X17109523Y-57452380D01*
X16776190Y-57833333D01*
X16919047Y-57833333D01*
X17014285Y-57880952D01*
X17061904Y-57928571D01*
X17109523Y-58023809D01*
X17109523Y-58261904D01*
X17061904Y-58357142D01*
X17014285Y-58404761D01*
X16919047Y-58452380D01*
X16633333Y-58452380D01*
X16538095Y-58404761D01*
X16490476Y-58357142D01*
X17442857Y-57452380D02*
X18061904Y-57452380D01*
X17728571Y-57833333D01*
X17871428Y-57833333D01*
X17966666Y-57880952D01*
X18014285Y-57928571D01*
X18061904Y-58023809D01*
X18061904Y-58261904D01*
X18014285Y-58357142D01*
X17966666Y-58404761D01*
X17871428Y-58452380D01*
X17585714Y-58452380D01*
X17490476Y-58404761D01*
X17442857Y-58357142D01*
X16157142Y-73702380D02*
X15823809Y-73226190D01*
X15585714Y-73702380D02*
X15585714Y-72702380D01*
X15966666Y-72702380D01*
X16061904Y-72750000D01*
X16109523Y-72797619D01*
X16157142Y-72892857D01*
X16157142Y-73035714D01*
X16109523Y-73130952D01*
X16061904Y-73178571D01*
X15966666Y-73226190D01*
X15585714Y-73226190D01*
X16490476Y-72702380D02*
X17109523Y-72702380D01*
X16776190Y-73083333D01*
X16919047Y-73083333D01*
X17014285Y-73130952D01*
X17061904Y-73178571D01*
X17109523Y-73273809D01*
X17109523Y-73511904D01*
X17061904Y-73607142D01*
X17014285Y-73654761D01*
X16919047Y-73702380D01*
X16633333Y-73702380D01*
X16538095Y-73654761D01*
X16490476Y-73607142D01*
X17585714Y-73702380D02*
X17776190Y-73702380D01*
X17871428Y-73654761D01*
X17919047Y-73607142D01*
X18014285Y-73464285D01*
X18061904Y-73273809D01*
X18061904Y-72892857D01*
X18014285Y-72797619D01*
X17966666Y-72750000D01*
X17871428Y-72702380D01*
X17680952Y-72702380D01*
X17585714Y-72750000D01*
X17538095Y-72797619D01*
X17490476Y-72892857D01*
X17490476Y-73130952D01*
X17538095Y-73226190D01*
X17585714Y-73273809D01*
X17680952Y-73321428D01*
X17871428Y-73321428D01*
X17966666Y-73273809D01*
X18014285Y-73226190D01*
X18061904Y-73130952D01*
X16157142Y-81352380D02*
X15823809Y-80876190D01*
X15585714Y-81352380D02*
X15585714Y-80352380D01*
X15966666Y-80352380D01*
X16061904Y-80400000D01*
X16109523Y-80447619D01*
X16157142Y-80542857D01*
X16157142Y-80685714D01*
X16109523Y-80780952D01*
X16061904Y-80828571D01*
X15966666Y-80876190D01*
X15585714Y-80876190D01*
X17014285Y-80685714D02*
X17014285Y-81352380D01*
X16776190Y-80304761D02*
X16538095Y-81019047D01*
X17157142Y-81019047D01*
X17490476Y-80447619D02*
X17538095Y-80400000D01*
X17633333Y-80352380D01*
X17871428Y-80352380D01*
X17966666Y-80400000D01*
X18014285Y-80447619D01*
X18061904Y-80542857D01*
X18061904Y-80638095D01*
X18014285Y-80780952D01*
X17442857Y-81352380D01*
X18061904Y-81352380D01*
X16107142Y-89402380D02*
X15773809Y-88926190D01*
X15535714Y-89402380D02*
X15535714Y-88402380D01*
X15916666Y-88402380D01*
X16011904Y-88450000D01*
X16059523Y-88497619D01*
X16107142Y-88592857D01*
X16107142Y-88735714D01*
X16059523Y-88830952D01*
X16011904Y-88878571D01*
X15916666Y-88926190D01*
X15535714Y-88926190D01*
X16964285Y-88735714D02*
X16964285Y-89402380D01*
X16726190Y-88354761D02*
X16488095Y-89069047D01*
X17107142Y-89069047D01*
X17964285Y-88402380D02*
X17488095Y-88402380D01*
X17440476Y-88878571D01*
X17488095Y-88830952D01*
X17583333Y-88783333D01*
X17821428Y-88783333D01*
X17916666Y-88830952D01*
X17964285Y-88878571D01*
X18011904Y-88973809D01*
X18011904Y-89211904D01*
X17964285Y-89307142D01*
X17916666Y-89354761D01*
X17821428Y-89402380D01*
X17583333Y-89402380D01*
X17488095Y-89354761D01*
X17440476Y-89307142D01*
X16157142Y-65952380D02*
X15823809Y-65476190D01*
X15585714Y-65952380D02*
X15585714Y-64952380D01*
X15966666Y-64952380D01*
X16061904Y-65000000D01*
X16109523Y-65047619D01*
X16157142Y-65142857D01*
X16157142Y-65285714D01*
X16109523Y-65380952D01*
X16061904Y-65428571D01*
X15966666Y-65476190D01*
X15585714Y-65476190D01*
X16490476Y-64952380D02*
X17109523Y-64952380D01*
X16776190Y-65333333D01*
X16919047Y-65333333D01*
X17014285Y-65380952D01*
X17061904Y-65428571D01*
X17109523Y-65523809D01*
X17109523Y-65761904D01*
X17061904Y-65857142D01*
X17014285Y-65904761D01*
X16919047Y-65952380D01*
X16633333Y-65952380D01*
X16538095Y-65904761D01*
X16490476Y-65857142D01*
X17966666Y-64952380D02*
X17776190Y-64952380D01*
X17680952Y-65000000D01*
X17633333Y-65047619D01*
X17538095Y-65190476D01*
X17490476Y-65380952D01*
X17490476Y-65761904D01*
X17538095Y-65857142D01*
X17585714Y-65904761D01*
X17680952Y-65952380D01*
X17871428Y-65952380D01*
X17966666Y-65904761D01*
X18014285Y-65857142D01*
X18061904Y-65761904D01*
X18061904Y-65523809D01*
X18014285Y-65428571D01*
X17966666Y-65380952D01*
X17871428Y-65333333D01*
X17680952Y-65333333D01*
X17585714Y-65380952D01*
X17538095Y-65428571D01*
X17490476Y-65523809D01*
X33107142Y-1407142D02*
X33059523Y-1454761D01*
X32916666Y-1502380D01*
X32821428Y-1502380D01*
X32678571Y-1454761D01*
X32583333Y-1359523D01*
X32535714Y-1264285D01*
X32488095Y-1073809D01*
X32488095Y-930952D01*
X32535714Y-740476D01*
X32583333Y-645238D01*
X32678571Y-550000D01*
X32821428Y-502380D01*
X32916666Y-502380D01*
X33059523Y-550000D01*
X33107142Y-597619D01*
X34059523Y-1502380D02*
X33488095Y-1502380D01*
X33773809Y-1502380D02*
X33773809Y-502380D01*
X33678571Y-645238D01*
X33583333Y-740476D01*
X33488095Y-788095D01*
X34392857Y-502380D02*
X35011904Y-502380D01*
X34678571Y-883333D01*
X34821428Y-883333D01*
X34916666Y-930952D01*
X34964285Y-978571D01*
X35011904Y-1073809D01*
X35011904Y-1311904D01*
X34964285Y-1407142D01*
X34916666Y-1454761D01*
X34821428Y-1502380D01*
X34535714Y-1502380D01*
X34440476Y-1454761D01*
X34392857Y-1407142D01*
X33107142Y-9107142D02*
X33059523Y-9154761D01*
X32916666Y-9202380D01*
X32821428Y-9202380D01*
X32678571Y-9154761D01*
X32583333Y-9059523D01*
X32535714Y-8964285D01*
X32488095Y-8773809D01*
X32488095Y-8630952D01*
X32535714Y-8440476D01*
X32583333Y-8345238D01*
X32678571Y-8250000D01*
X32821428Y-8202380D01*
X32916666Y-8202380D01*
X33059523Y-8250000D01*
X33107142Y-8297619D01*
X34059523Y-9202380D02*
X33488095Y-9202380D01*
X33773809Y-9202380D02*
X33773809Y-8202380D01*
X33678571Y-8345238D01*
X33583333Y-8440476D01*
X33488095Y-8488095D01*
X34916666Y-8535714D02*
X34916666Y-9202380D01*
X34678571Y-8154761D02*
X34440476Y-8869047D01*
X35059523Y-8869047D01*
X33107142Y-16857142D02*
X33059523Y-16904761D01*
X32916666Y-16952380D01*
X32821428Y-16952380D01*
X32678571Y-16904761D01*
X32583333Y-16809523D01*
X32535714Y-16714285D01*
X32488095Y-16523809D01*
X32488095Y-16380952D01*
X32535714Y-16190476D01*
X32583333Y-16095238D01*
X32678571Y-16000000D01*
X32821428Y-15952380D01*
X32916666Y-15952380D01*
X33059523Y-16000000D01*
X33107142Y-16047619D01*
X34059523Y-16952380D02*
X33488095Y-16952380D01*
X33773809Y-16952380D02*
X33773809Y-15952380D01*
X33678571Y-16095238D01*
X33583333Y-16190476D01*
X33488095Y-16238095D01*
X34964285Y-15952380D02*
X34488095Y-15952380D01*
X34440476Y-16428571D01*
X34488095Y-16380952D01*
X34583333Y-16333333D01*
X34821428Y-16333333D01*
X34916666Y-16380952D01*
X34964285Y-16428571D01*
X35011904Y-16523809D01*
X35011904Y-16761904D01*
X34964285Y-16857142D01*
X34916666Y-16904761D01*
X34821428Y-16952380D01*
X34583333Y-16952380D01*
X34488095Y-16904761D01*
X34440476Y-16857142D01*
X33107142Y-24557142D02*
X33059523Y-24604761D01*
X32916666Y-24652380D01*
X32821428Y-24652380D01*
X32678571Y-24604761D01*
X32583333Y-24509523D01*
X32535714Y-24414285D01*
X32488095Y-24223809D01*
X32488095Y-24080952D01*
X32535714Y-23890476D01*
X32583333Y-23795238D01*
X32678571Y-23700000D01*
X32821428Y-23652380D01*
X32916666Y-23652380D01*
X33059523Y-23700000D01*
X33107142Y-23747619D01*
X34059523Y-24652380D02*
X33488095Y-24652380D01*
X33773809Y-24652380D02*
X33773809Y-23652380D01*
X33678571Y-23795238D01*
X33583333Y-23890476D01*
X33488095Y-23938095D01*
X34916666Y-23652380D02*
X34726190Y-23652380D01*
X34630952Y-23700000D01*
X34583333Y-23747619D01*
X34488095Y-23890476D01*
X34440476Y-24080952D01*
X34440476Y-24461904D01*
X34488095Y-24557142D01*
X34535714Y-24604761D01*
X34630952Y-24652380D01*
X34821428Y-24652380D01*
X34916666Y-24604761D01*
X34964285Y-24557142D01*
X35011904Y-24461904D01*
X35011904Y-24223809D01*
X34964285Y-24128571D01*
X34916666Y-24080952D01*
X34821428Y-24033333D01*
X34630952Y-24033333D01*
X34535714Y-24080952D01*
X34488095Y-24128571D01*
X34440476Y-24223809D01*
X33107142Y-32257142D02*
X33059523Y-32304761D01*
X32916666Y-32352380D01*
X32821428Y-32352380D01*
X32678571Y-32304761D01*
X32583333Y-32209523D01*
X32535714Y-32114285D01*
X32488095Y-31923809D01*
X32488095Y-31780952D01*
X32535714Y-31590476D01*
X32583333Y-31495238D01*
X32678571Y-31400000D01*
X32821428Y-31352380D01*
X32916666Y-31352380D01*
X33059523Y-31400000D01*
X33107142Y-31447619D01*
X34059523Y-32352380D02*
X33488095Y-32352380D01*
X33773809Y-32352380D02*
X33773809Y-31352380D01*
X33678571Y-31495238D01*
X33583333Y-31590476D01*
X33488095Y-31638095D01*
X34392857Y-31352380D02*
X35059523Y-31352380D01*
X34630952Y-32352380D01*
X33107142Y-39957142D02*
X33059523Y-40004761D01*
X32916666Y-40052380D01*
X32821428Y-40052380D01*
X32678571Y-40004761D01*
X32583333Y-39909523D01*
X32535714Y-39814285D01*
X32488095Y-39623809D01*
X32488095Y-39480952D01*
X32535714Y-39290476D01*
X32583333Y-39195238D01*
X32678571Y-39100000D01*
X32821428Y-39052380D01*
X32916666Y-39052380D01*
X33059523Y-39100000D01*
X33107142Y-39147619D01*
X34059523Y-40052380D02*
X33488095Y-40052380D01*
X33773809Y-40052380D02*
X33773809Y-39052380D01*
X33678571Y-39195238D01*
X33583333Y-39290476D01*
X33488095Y-39338095D01*
X34630952Y-39480952D02*
X34535714Y-39433333D01*
X34488095Y-39385714D01*
X34440476Y-39290476D01*
X34440476Y-39242857D01*
X34488095Y-39147619D01*
X34535714Y-39100000D01*
X34630952Y-39052380D01*
X34821428Y-39052380D01*
X34916666Y-39100000D01*
X34964285Y-39147619D01*
X35011904Y-39242857D01*
X35011904Y-39290476D01*
X34964285Y-39385714D01*
X34916666Y-39433333D01*
X34821428Y-39480952D01*
X34630952Y-39480952D01*
X34535714Y-39528571D01*
X34488095Y-39576190D01*
X34440476Y-39671428D01*
X34440476Y-39861904D01*
X34488095Y-39957142D01*
X34535714Y-40004761D01*
X34630952Y-40052380D01*
X34821428Y-40052380D01*
X34916666Y-40004761D01*
X34964285Y-39957142D01*
X35011904Y-39861904D01*
X35011904Y-39671428D01*
X34964285Y-39576190D01*
X34916666Y-39528571D01*
X34821428Y-39480952D01*
X33107142Y-47757142D02*
X33059523Y-47804761D01*
X32916666Y-47852380D01*
X32821428Y-47852380D01*
X32678571Y-47804761D01*
X32583333Y-47709523D01*
X32535714Y-47614285D01*
X32488095Y-47423809D01*
X32488095Y-47280952D01*
X32535714Y-47090476D01*
X32583333Y-46995238D01*
X32678571Y-46900000D01*
X32821428Y-46852380D01*
X32916666Y-46852380D01*
X33059523Y-46900000D01*
X33107142Y-46947619D01*
X34059523Y-47852380D02*
X33488095Y-47852380D01*
X33773809Y-47852380D02*
X33773809Y-46852380D01*
X33678571Y-46995238D01*
X33583333Y-47090476D01*
X33488095Y-47138095D01*
X34535714Y-47852380D02*
X34726190Y-47852380D01*
X34821428Y-47804761D01*
X34869047Y-47757142D01*
X34964285Y-47614285D01*
X35011904Y-47423809D01*
X35011904Y-47042857D01*
X34964285Y-46947619D01*
X34916666Y-46900000D01*
X34821428Y-46852380D01*
X34630952Y-46852380D01*
X34535714Y-46900000D01*
X34488095Y-46947619D01*
X34440476Y-47042857D01*
X34440476Y-47280952D01*
X34488095Y-47376190D01*
X34535714Y-47423809D01*
X34630952Y-47471428D01*
X34821428Y-47471428D01*
X34916666Y-47423809D01*
X34964285Y-47376190D01*
X35011904Y-47280952D01*
X33157142Y-55457142D02*
X33109523Y-55504761D01*
X32966666Y-55552380D01*
X32871428Y-55552380D01*
X32728571Y-55504761D01*
X32633333Y-55409523D01*
X32585714Y-55314285D01*
X32538095Y-55123809D01*
X32538095Y-54980952D01*
X32585714Y-54790476D01*
X32633333Y-54695238D01*
X32728571Y-54600000D01*
X32871428Y-54552380D01*
X32966666Y-54552380D01*
X33109523Y-54600000D01*
X33157142Y-54647619D01*
X33538095Y-54647619D02*
X33585714Y-54600000D01*
X33680952Y-54552380D01*
X33919047Y-54552380D01*
X34014285Y-54600000D01*
X34061904Y-54647619D01*
X34109523Y-54742857D01*
X34109523Y-54838095D01*
X34061904Y-54980952D01*
X33490476Y-55552380D01*
X34109523Y-55552380D01*
X34728571Y-54552380D02*
X34823809Y-54552380D01*
X34919047Y-54600000D01*
X34966666Y-54647619D01*
X35014285Y-54742857D01*
X35061904Y-54933333D01*
X35061904Y-55171428D01*
X35014285Y-55361904D01*
X34966666Y-55457142D01*
X34919047Y-55504761D01*
X34823809Y-55552380D01*
X34728571Y-55552380D01*
X34633333Y-55504761D01*
X34585714Y-55457142D01*
X34538095Y-55361904D01*
X34490476Y-55171428D01*
X34490476Y-54933333D01*
X34538095Y-54742857D01*
X34585714Y-54647619D01*
X34633333Y-54600000D01*
X34728571Y-54552380D01*
X33057142Y-63207142D02*
X33009523Y-63254761D01*
X32866666Y-63302380D01*
X32771428Y-63302380D01*
X32628571Y-63254761D01*
X32533333Y-63159523D01*
X32485714Y-63064285D01*
X32438095Y-62873809D01*
X32438095Y-62730952D01*
X32485714Y-62540476D01*
X32533333Y-62445238D01*
X32628571Y-62350000D01*
X32771428Y-62302380D01*
X32866666Y-62302380D01*
X33009523Y-62350000D01*
X33057142Y-62397619D01*
X33438095Y-62397619D02*
X33485714Y-62350000D01*
X33580952Y-62302380D01*
X33819047Y-62302380D01*
X33914285Y-62350000D01*
X33961904Y-62397619D01*
X34009523Y-62492857D01*
X34009523Y-62588095D01*
X33961904Y-62730952D01*
X33390476Y-63302380D01*
X34009523Y-63302380D01*
X34961904Y-63302380D02*
X34390476Y-63302380D01*
X34676190Y-63302380D02*
X34676190Y-62302380D01*
X34580952Y-62445238D01*
X34485714Y-62540476D01*
X34390476Y-62588095D01*
X33107142Y-70857142D02*
X33059523Y-70904761D01*
X32916666Y-70952380D01*
X32821428Y-70952380D01*
X32678571Y-70904761D01*
X32583333Y-70809523D01*
X32535714Y-70714285D01*
X32488095Y-70523809D01*
X32488095Y-70380952D01*
X32535714Y-70190476D01*
X32583333Y-70095238D01*
X32678571Y-70000000D01*
X32821428Y-69952380D01*
X32916666Y-69952380D01*
X33059523Y-70000000D01*
X33107142Y-70047619D01*
X33488095Y-70047619D02*
X33535714Y-70000000D01*
X33630952Y-69952380D01*
X33869047Y-69952380D01*
X33964285Y-70000000D01*
X34011904Y-70047619D01*
X34059523Y-70142857D01*
X34059523Y-70238095D01*
X34011904Y-70380952D01*
X33440476Y-70952380D01*
X34059523Y-70952380D01*
X34440476Y-70047619D02*
X34488095Y-70000000D01*
X34583333Y-69952380D01*
X34821428Y-69952380D01*
X34916666Y-70000000D01*
X34964285Y-70047619D01*
X35011904Y-70142857D01*
X35011904Y-70238095D01*
X34964285Y-70380952D01*
X34392857Y-70952380D01*
X35011904Y-70952380D01*
X33107142Y-78557142D02*
X33059523Y-78604761D01*
X32916666Y-78652380D01*
X32821428Y-78652380D01*
X32678571Y-78604761D01*
X32583333Y-78509523D01*
X32535714Y-78414285D01*
X32488095Y-78223809D01*
X32488095Y-78080952D01*
X32535714Y-77890476D01*
X32583333Y-77795238D01*
X32678571Y-77700000D01*
X32821428Y-77652380D01*
X32916666Y-77652380D01*
X33059523Y-77700000D01*
X33107142Y-77747619D01*
X33488095Y-77747619D02*
X33535714Y-77700000D01*
X33630952Y-77652380D01*
X33869047Y-77652380D01*
X33964285Y-77700000D01*
X34011904Y-77747619D01*
X34059523Y-77842857D01*
X34059523Y-77938095D01*
X34011904Y-78080952D01*
X33440476Y-78652380D01*
X34059523Y-78652380D01*
X34392857Y-77652380D02*
X35011904Y-77652380D01*
X34678571Y-78033333D01*
X34821428Y-78033333D01*
X34916666Y-78080952D01*
X34964285Y-78128571D01*
X35011904Y-78223809D01*
X35011904Y-78461904D01*
X34964285Y-78557142D01*
X34916666Y-78604761D01*
X34821428Y-78652380D01*
X34535714Y-78652380D01*
X34440476Y-78604761D01*
X34392857Y-78557142D01*
X33107142Y-86557142D02*
X33059523Y-86604761D01*
X32916666Y-86652380D01*
X32821428Y-86652380D01*
X32678571Y-86604761D01*
X32583333Y-86509523D01*
X32535714Y-86414285D01*
X32488095Y-86223809D01*
X32488095Y-86080952D01*
X32535714Y-85890476D01*
X32583333Y-85795238D01*
X32678571Y-85700000D01*
X32821428Y-85652380D01*
X32916666Y-85652380D01*
X33059523Y-85700000D01*
X33107142Y-85747619D01*
X33488095Y-85747619D02*
X33535714Y-85700000D01*
X33630952Y-85652380D01*
X33869047Y-85652380D01*
X33964285Y-85700000D01*
X34011904Y-85747619D01*
X34059523Y-85842857D01*
X34059523Y-85938095D01*
X34011904Y-86080952D01*
X33440476Y-86652380D01*
X34059523Y-86652380D01*
X34916666Y-85985714D02*
X34916666Y-86652380D01*
X34678571Y-85604761D02*
X34440476Y-86319047D01*
X35059523Y-86319047D01*
X16107142Y-8052380D02*
X15773809Y-7576190D01*
X15535714Y-8052380D02*
X15535714Y-7052380D01*
X15916666Y-7052380D01*
X16011904Y-7100000D01*
X16059523Y-7147619D01*
X16107142Y-7242857D01*
X16107142Y-7385714D01*
X16059523Y-7480952D01*
X16011904Y-7528571D01*
X15916666Y-7576190D01*
X15535714Y-7576190D01*
X16964285Y-7385714D02*
X16964285Y-8052380D01*
X16726190Y-7004761D02*
X16488095Y-7719047D01*
X17107142Y-7719047D01*
X17630952Y-7480952D02*
X17535714Y-7433333D01*
X17488095Y-7385714D01*
X17440476Y-7290476D01*
X17440476Y-7242857D01*
X17488095Y-7147619D01*
X17535714Y-7100000D01*
X17630952Y-7052380D01*
X17821428Y-7052380D01*
X17916666Y-7100000D01*
X17964285Y-7147619D01*
X18011904Y-7242857D01*
X18011904Y-7290476D01*
X17964285Y-7385714D01*
X17916666Y-7433333D01*
X17821428Y-7480952D01*
X17630952Y-7480952D01*
X17535714Y-7528571D01*
X17488095Y-7576190D01*
X17440476Y-7671428D01*
X17440476Y-7861904D01*
X17488095Y-7957142D01*
X17535714Y-8004761D01*
X17630952Y-8052380D01*
X17821428Y-8052380D01*
X17916666Y-8004761D01*
X17964285Y-7957142D01*
X18011904Y-7861904D01*
X18011904Y-7671428D01*
X17964285Y-7576190D01*
X17916666Y-7528571D01*
X17821428Y-7480952D01*
X16107142Y-23502380D02*
X15773809Y-23026190D01*
X15535714Y-23502380D02*
X15535714Y-22502380D01*
X15916666Y-22502380D01*
X16011904Y-22550000D01*
X16059523Y-22597619D01*
X16107142Y-22692857D01*
X16107142Y-22835714D01*
X16059523Y-22930952D01*
X16011904Y-22978571D01*
X15916666Y-23026190D01*
X15535714Y-23026190D01*
X17011904Y-22502380D02*
X16535714Y-22502380D01*
X16488095Y-22978571D01*
X16535714Y-22930952D01*
X16630952Y-22883333D01*
X16869047Y-22883333D01*
X16964285Y-22930952D01*
X17011904Y-22978571D01*
X17059523Y-23073809D01*
X17059523Y-23311904D01*
X17011904Y-23407142D01*
X16964285Y-23454761D01*
X16869047Y-23502380D01*
X16630952Y-23502380D01*
X16535714Y-23454761D01*
X16488095Y-23407142D01*
X17678571Y-22502380D02*
X17773809Y-22502380D01*
X17869047Y-22550000D01*
X17916666Y-22597619D01*
X17964285Y-22692857D01*
X18011904Y-22883333D01*
X18011904Y-23121428D01*
X17964285Y-23311904D01*
X17916666Y-23407142D01*
X17869047Y-23454761D01*
X17773809Y-23502380D01*
X17678571Y-23502380D01*
X17583333Y-23454761D01*
X17535714Y-23407142D01*
X17488095Y-23311904D01*
X17440476Y-23121428D01*
X17440476Y-22883333D01*
X17488095Y-22692857D01*
X17535714Y-22597619D01*
X17583333Y-22550000D01*
X17678571Y-22502380D01*
X16107142Y-31202380D02*
X15773809Y-30726190D01*
X15535714Y-31202380D02*
X15535714Y-30202380D01*
X15916666Y-30202380D01*
X16011904Y-30250000D01*
X16059523Y-30297619D01*
X16107142Y-30392857D01*
X16107142Y-30535714D01*
X16059523Y-30630952D01*
X16011904Y-30678571D01*
X15916666Y-30726190D01*
X15535714Y-30726190D01*
X17011904Y-30202380D02*
X16535714Y-30202380D01*
X16488095Y-30678571D01*
X16535714Y-30630952D01*
X16630952Y-30583333D01*
X16869047Y-30583333D01*
X16964285Y-30630952D01*
X17011904Y-30678571D01*
X17059523Y-30773809D01*
X17059523Y-31011904D01*
X17011904Y-31107142D01*
X16964285Y-31154761D01*
X16869047Y-31202380D01*
X16630952Y-31202380D01*
X16535714Y-31154761D01*
X16488095Y-31107142D01*
X18011904Y-31202380D02*
X17440476Y-31202380D01*
X17726190Y-31202380D02*
X17726190Y-30202380D01*
X17630952Y-30345238D01*
X17535714Y-30440476D01*
X17440476Y-30488095D01*
X16107142Y-38902380D02*
X15773809Y-38426190D01*
X15535714Y-38902380D02*
X15535714Y-37902380D01*
X15916666Y-37902380D01*
X16011904Y-37950000D01*
X16059523Y-37997619D01*
X16107142Y-38092857D01*
X16107142Y-38235714D01*
X16059523Y-38330952D01*
X16011904Y-38378571D01*
X15916666Y-38426190D01*
X15535714Y-38426190D01*
X17011904Y-37902380D02*
X16535714Y-37902380D01*
X16488095Y-38378571D01*
X16535714Y-38330952D01*
X16630952Y-38283333D01*
X16869047Y-38283333D01*
X16964285Y-38330952D01*
X17011904Y-38378571D01*
X17059523Y-38473809D01*
X17059523Y-38711904D01*
X17011904Y-38807142D01*
X16964285Y-38854761D01*
X16869047Y-38902380D01*
X16630952Y-38902380D01*
X16535714Y-38854761D01*
X16488095Y-38807142D01*
X17440476Y-37997619D02*
X17488095Y-37950000D01*
X17583333Y-37902380D01*
X17821428Y-37902380D01*
X17916666Y-37950000D01*
X17964285Y-37997619D01*
X18011904Y-38092857D01*
X18011904Y-38188095D01*
X17964285Y-38330952D01*
X17392857Y-38902380D01*
X18011904Y-38902380D01*
X16157142Y-54452380D02*
X15823809Y-53976190D01*
X15585714Y-54452380D02*
X15585714Y-53452380D01*
X15966666Y-53452380D01*
X16061904Y-53500000D01*
X16109523Y-53547619D01*
X16157142Y-53642857D01*
X16157142Y-53785714D01*
X16109523Y-53880952D01*
X16061904Y-53928571D01*
X15966666Y-53976190D01*
X15585714Y-53976190D01*
X17061904Y-53452380D02*
X16585714Y-53452380D01*
X16538095Y-53928571D01*
X16585714Y-53880952D01*
X16680952Y-53833333D01*
X16919047Y-53833333D01*
X17014285Y-53880952D01*
X17061904Y-53928571D01*
X17109523Y-54023809D01*
X17109523Y-54261904D01*
X17061904Y-54357142D01*
X17014285Y-54404761D01*
X16919047Y-54452380D01*
X16680952Y-54452380D01*
X16585714Y-54404761D01*
X16538095Y-54357142D01*
X17966666Y-53785714D02*
X17966666Y-54452380D01*
X17728571Y-53404761D02*
X17490476Y-54119047D01*
X18109523Y-54119047D01*
X16157142Y-61952380D02*
X15823809Y-61476190D01*
X15585714Y-61952380D02*
X15585714Y-60952380D01*
X15966666Y-60952380D01*
X16061904Y-61000000D01*
X16109523Y-61047619D01*
X16157142Y-61142857D01*
X16157142Y-61285714D01*
X16109523Y-61380952D01*
X16061904Y-61428571D01*
X15966666Y-61476190D01*
X15585714Y-61476190D01*
X17061904Y-60952380D02*
X16585714Y-60952380D01*
X16538095Y-61428571D01*
X16585714Y-61380952D01*
X16680952Y-61333333D01*
X16919047Y-61333333D01*
X17014285Y-61380952D01*
X17061904Y-61428571D01*
X17109523Y-61523809D01*
X17109523Y-61761904D01*
X17061904Y-61857142D01*
X17014285Y-61904761D01*
X16919047Y-61952380D01*
X16680952Y-61952380D01*
X16585714Y-61904761D01*
X16538095Y-61857142D01*
X18014285Y-60952380D02*
X17538095Y-60952380D01*
X17490476Y-61428571D01*
X17538095Y-61380952D01*
X17633333Y-61333333D01*
X17871428Y-61333333D01*
X17966666Y-61380952D01*
X18014285Y-61428571D01*
X18061904Y-61523809D01*
X18061904Y-61761904D01*
X18014285Y-61857142D01*
X17966666Y-61904761D01*
X17871428Y-61952380D01*
X17633333Y-61952380D01*
X17538095Y-61904761D01*
X17490476Y-61857142D01*
X16157142Y-69952380D02*
X15823809Y-69476190D01*
X15585714Y-69952380D02*
X15585714Y-68952380D01*
X15966666Y-68952380D01*
X16061904Y-69000000D01*
X16109523Y-69047619D01*
X16157142Y-69142857D01*
X16157142Y-69285714D01*
X16109523Y-69380952D01*
X16061904Y-69428571D01*
X15966666Y-69476190D01*
X15585714Y-69476190D01*
X17061904Y-68952380D02*
X16585714Y-68952380D01*
X16538095Y-69428571D01*
X16585714Y-69380952D01*
X16680952Y-69333333D01*
X16919047Y-69333333D01*
X17014285Y-69380952D01*
X17061904Y-69428571D01*
X17109523Y-69523809D01*
X17109523Y-69761904D01*
X17061904Y-69857142D01*
X17014285Y-69904761D01*
X16919047Y-69952380D01*
X16680952Y-69952380D01*
X16585714Y-69904761D01*
X16538095Y-69857142D01*
X17966666Y-68952380D02*
X17776190Y-68952380D01*
X17680952Y-69000000D01*
X17633333Y-69047619D01*
X17538095Y-69190476D01*
X17490476Y-69380952D01*
X17490476Y-69761904D01*
X17538095Y-69857142D01*
X17585714Y-69904761D01*
X17680952Y-69952380D01*
X17871428Y-69952380D01*
X17966666Y-69904761D01*
X18014285Y-69857142D01*
X18061904Y-69761904D01*
X18061904Y-69523809D01*
X18014285Y-69428571D01*
X17966666Y-69380952D01*
X17871428Y-69333333D01*
X17680952Y-69333333D01*
X17585714Y-69380952D01*
X17538095Y-69428571D01*
X17490476Y-69523809D01*
X16157142Y-77452380D02*
X15823809Y-76976190D01*
X15585714Y-77452380D02*
X15585714Y-76452380D01*
X15966666Y-76452380D01*
X16061904Y-76500000D01*
X16109523Y-76547619D01*
X16157142Y-76642857D01*
X16157142Y-76785714D01*
X16109523Y-76880952D01*
X16061904Y-76928571D01*
X15966666Y-76976190D01*
X15585714Y-76976190D01*
X17061904Y-76452380D02*
X16585714Y-76452380D01*
X16538095Y-76928571D01*
X16585714Y-76880952D01*
X16680952Y-76833333D01*
X16919047Y-76833333D01*
X17014285Y-76880952D01*
X17061904Y-76928571D01*
X17109523Y-77023809D01*
X17109523Y-77261904D01*
X17061904Y-77357142D01*
X17014285Y-77404761D01*
X16919047Y-77452380D01*
X16680952Y-77452380D01*
X16585714Y-77404761D01*
X16538095Y-77357142D01*
X17442857Y-76452380D02*
X18109523Y-76452380D01*
X17680952Y-77452380D01*
X16157142Y-85352380D02*
X15823809Y-84876190D01*
X15585714Y-85352380D02*
X15585714Y-84352380D01*
X15966666Y-84352380D01*
X16061904Y-84400000D01*
X16109523Y-84447619D01*
X16157142Y-84542857D01*
X16157142Y-84685714D01*
X16109523Y-84780952D01*
X16061904Y-84828571D01*
X15966666Y-84876190D01*
X15585714Y-84876190D01*
X17061904Y-84352380D02*
X16585714Y-84352380D01*
X16538095Y-84828571D01*
X16585714Y-84780952D01*
X16680952Y-84733333D01*
X16919047Y-84733333D01*
X17014285Y-84780952D01*
X17061904Y-84828571D01*
X17109523Y-84923809D01*
X17109523Y-85161904D01*
X17061904Y-85257142D01*
X17014285Y-85304761D01*
X16919047Y-85352380D01*
X16680952Y-85352380D01*
X16585714Y-85304761D01*
X16538095Y-85257142D01*
X17680952Y-84780952D02*
X17585714Y-84733333D01*
X17538095Y-84685714D01*
X17490476Y-84590476D01*
X17490476Y-84542857D01*
X17538095Y-84447619D01*
X17585714Y-84400000D01*
X17680952Y-84352380D01*
X17871428Y-84352380D01*
X17966666Y-84400000D01*
X18014285Y-84447619D01*
X18061904Y-84542857D01*
X18061904Y-84590476D01*
X18014285Y-84685714D01*
X17966666Y-84733333D01*
X17871428Y-84780952D01*
X17680952Y-84780952D01*
X17585714Y-84828571D01*
X17538095Y-84876190D01*
X17490476Y-84971428D01*
X17490476Y-85161904D01*
X17538095Y-85257142D01*
X17585714Y-85304761D01*
X17680952Y-85352380D01*
X17871428Y-85352380D01*
X17966666Y-85304761D01*
X18014285Y-85257142D01*
X18061904Y-85161904D01*
X18061904Y-84971428D01*
X18014285Y-84876190D01*
X17966666Y-84828571D01*
X17871428Y-84780952D01*
X16107142Y-93202380D02*
X15773809Y-92726190D01*
X15535714Y-93202380D02*
X15535714Y-92202380D01*
X15916666Y-92202380D01*
X16011904Y-92250000D01*
X16059523Y-92297619D01*
X16107142Y-92392857D01*
X16107142Y-92535714D01*
X16059523Y-92630952D01*
X16011904Y-92678571D01*
X15916666Y-92726190D01*
X15535714Y-92726190D01*
X17011904Y-92202380D02*
X16535714Y-92202380D01*
X16488095Y-92678571D01*
X16535714Y-92630952D01*
X16630952Y-92583333D01*
X16869047Y-92583333D01*
X16964285Y-92630952D01*
X17011904Y-92678571D01*
X17059523Y-92773809D01*
X17059523Y-93011904D01*
X17011904Y-93107142D01*
X16964285Y-93154761D01*
X16869047Y-93202380D01*
X16630952Y-93202380D01*
X16535714Y-93154761D01*
X16488095Y-93107142D01*
X17535714Y-93202380D02*
X17726190Y-93202380D01*
X17821428Y-93154761D01*
X17869047Y-93107142D01*
X17964285Y-92964285D01*
X18011904Y-92773809D01*
X18011904Y-92392857D01*
X17964285Y-92297619D01*
X17916666Y-92250000D01*
X17821428Y-92202380D01*
X17630952Y-92202380D01*
X17535714Y-92250000D01*
X17488095Y-92297619D01*
X17440476Y-92392857D01*
X17440476Y-92630952D01*
X17488095Y-92726190D01*
X17535714Y-92773809D01*
X17630952Y-92821428D01*
X17821428Y-92821428D01*
X17916666Y-92773809D01*
X17964285Y-92726190D01*
X18011904Y-92630952D01*
X30952380Y-2488095D02*
X29952380Y-2488095D01*
X29952380Y-2250000D01*
X30000000Y-2107142D01*
X30095238Y-2011904D01*
X30190476Y-1964285D01*
X30380952Y-1916666D01*
X30523809Y-1916666D01*
X30714285Y-1964285D01*
X30809523Y-2011904D01*
X30904761Y-2107142D01*
X30952380Y-2250000D01*
X30952380Y-2488095D01*
X30952380Y-964285D02*
X30952380Y-1535714D01*
X30952380Y-1250000D02*
X29952380Y-1250000D01*
X30095238Y-1345238D01*
X30190476Y-1440476D01*
X30238095Y-1535714D01*
X30952380Y-10238095D02*
X29952380Y-10238095D01*
X29952380Y-10000000D01*
X30000000Y-9857142D01*
X30095238Y-9761904D01*
X30190476Y-9714285D01*
X30380952Y-9666666D01*
X30523809Y-9666666D01*
X30714285Y-9714285D01*
X30809523Y-9761904D01*
X30904761Y-9857142D01*
X30952380Y-10000000D01*
X30952380Y-10238095D01*
X30047619Y-9285714D02*
X30000000Y-9238095D01*
X29952380Y-9142857D01*
X29952380Y-8904761D01*
X30000000Y-8809523D01*
X30047619Y-8761904D01*
X30142857Y-8714285D01*
X30238095Y-8714285D01*
X30380952Y-8761904D01*
X30952380Y-9333333D01*
X30952380Y-8714285D01*
X30952380Y-17988095D02*
X29952380Y-17988095D01*
X29952380Y-17750000D01*
X30000000Y-17607142D01*
X30095238Y-17511904D01*
X30190476Y-17464285D01*
X30380952Y-17416666D01*
X30523809Y-17416666D01*
X30714285Y-17464285D01*
X30809523Y-17511904D01*
X30904761Y-17607142D01*
X30952380Y-17750000D01*
X30952380Y-17988095D01*
X29952380Y-17083333D02*
X29952380Y-16464285D01*
X30333333Y-16797619D01*
X30333333Y-16654761D01*
X30380952Y-16559523D01*
X30428571Y-16511904D01*
X30523809Y-16464285D01*
X30761904Y-16464285D01*
X30857142Y-16511904D01*
X30904761Y-16559523D01*
X30952380Y-16654761D01*
X30952380Y-16940476D01*
X30904761Y-17035714D01*
X30857142Y-17083333D01*
X30952380Y-25738095D02*
X29952380Y-25738095D01*
X29952380Y-25500000D01*
X30000000Y-25357142D01*
X30095238Y-25261904D01*
X30190476Y-25214285D01*
X30380952Y-25166666D01*
X30523809Y-25166666D01*
X30714285Y-25214285D01*
X30809523Y-25261904D01*
X30904761Y-25357142D01*
X30952380Y-25500000D01*
X30952380Y-25738095D01*
X30285714Y-24309523D02*
X30952380Y-24309523D01*
X29904761Y-24547619D02*
X30619047Y-24785714D01*
X30619047Y-24166666D01*
X30952380Y-33488095D02*
X29952380Y-33488095D01*
X29952380Y-33250000D01*
X30000000Y-33107142D01*
X30095238Y-33011904D01*
X30190476Y-32964285D01*
X30380952Y-32916666D01*
X30523809Y-32916666D01*
X30714285Y-32964285D01*
X30809523Y-33011904D01*
X30904761Y-33107142D01*
X30952380Y-33250000D01*
X30952380Y-33488095D01*
X29952380Y-32011904D02*
X29952380Y-32488095D01*
X30428571Y-32535714D01*
X30380952Y-32488095D01*
X30333333Y-32392857D01*
X30333333Y-32154761D01*
X30380952Y-32059523D01*
X30428571Y-32011904D01*
X30523809Y-31964285D01*
X30761904Y-31964285D01*
X30857142Y-32011904D01*
X30904761Y-32059523D01*
X30952380Y-32154761D01*
X30952380Y-32392857D01*
X30904761Y-32488095D01*
X30857142Y-32535714D01*
X30952380Y-40988095D02*
X29952380Y-40988095D01*
X29952380Y-40750000D01*
X30000000Y-40607142D01*
X30095238Y-40511904D01*
X30190476Y-40464285D01*
X30380952Y-40416666D01*
X30523809Y-40416666D01*
X30714285Y-40464285D01*
X30809523Y-40511904D01*
X30904761Y-40607142D01*
X30952380Y-40750000D01*
X30952380Y-40988095D01*
X29952380Y-39559523D02*
X29952380Y-39750000D01*
X30000000Y-39845238D01*
X30047619Y-39892857D01*
X30190476Y-39988095D01*
X30380952Y-40035714D01*
X30761904Y-40035714D01*
X30857142Y-39988095D01*
X30904761Y-39940476D01*
X30952380Y-39845238D01*
X30952380Y-39654761D01*
X30904761Y-39559523D01*
X30857142Y-39511904D01*
X30761904Y-39464285D01*
X30523809Y-39464285D01*
X30428571Y-39511904D01*
X30380952Y-39559523D01*
X30333333Y-39654761D01*
X30333333Y-39845238D01*
X30380952Y-39940476D01*
X30428571Y-39988095D01*
X30523809Y-40035714D01*
X30952380Y-49238095D02*
X29952380Y-49238095D01*
X29952380Y-49000000D01*
X30000000Y-48857142D01*
X30095238Y-48761904D01*
X30190476Y-48714285D01*
X30380952Y-48666666D01*
X30523809Y-48666666D01*
X30714285Y-48714285D01*
X30809523Y-48761904D01*
X30904761Y-48857142D01*
X30952380Y-49000000D01*
X30952380Y-49238095D01*
X29952380Y-48333333D02*
X29952380Y-47666666D01*
X30952380Y-48095238D01*
X30952380Y-56738095D02*
X29952380Y-56738095D01*
X29952380Y-56500000D01*
X30000000Y-56357142D01*
X30095238Y-56261904D01*
X30190476Y-56214285D01*
X30380952Y-56166666D01*
X30523809Y-56166666D01*
X30714285Y-56214285D01*
X30809523Y-56261904D01*
X30904761Y-56357142D01*
X30952380Y-56500000D01*
X30952380Y-56738095D01*
X30380952Y-55595238D02*
X30333333Y-55690476D01*
X30285714Y-55738095D01*
X30190476Y-55785714D01*
X30142857Y-55785714D01*
X30047619Y-55738095D01*
X30000000Y-55690476D01*
X29952380Y-55595238D01*
X29952380Y-55404761D01*
X30000000Y-55309523D01*
X30047619Y-55261904D01*
X30142857Y-55214285D01*
X30190476Y-55214285D01*
X30285714Y-55261904D01*
X30333333Y-55309523D01*
X30380952Y-55404761D01*
X30380952Y-55595238D01*
X30428571Y-55690476D01*
X30476190Y-55738095D01*
X30571428Y-55785714D01*
X30761904Y-55785714D01*
X30857142Y-55738095D01*
X30904761Y-55690476D01*
X30952380Y-55595238D01*
X30952380Y-55404761D01*
X30904761Y-55309523D01*
X30857142Y-55261904D01*
X30761904Y-55214285D01*
X30571428Y-55214285D01*
X30476190Y-55261904D01*
X30428571Y-55309523D01*
X30380952Y-55404761D01*
X30952380Y-64238095D02*
X29952380Y-64238095D01*
X29952380Y-64000000D01*
X30000000Y-63857142D01*
X30095238Y-63761904D01*
X30190476Y-63714285D01*
X30380952Y-63666666D01*
X30523809Y-63666666D01*
X30714285Y-63714285D01*
X30809523Y-63761904D01*
X30904761Y-63857142D01*
X30952380Y-64000000D01*
X30952380Y-64238095D01*
X30952380Y-63190476D02*
X30952380Y-63000000D01*
X30904761Y-62904761D01*
X30857142Y-62857142D01*
X30714285Y-62761904D01*
X30523809Y-62714285D01*
X30142857Y-62714285D01*
X30047619Y-62761904D01*
X30000000Y-62809523D01*
X29952380Y-62904761D01*
X29952380Y-63095238D01*
X30000000Y-63190476D01*
X30047619Y-63238095D01*
X30142857Y-63285714D01*
X30380952Y-63285714D01*
X30476190Y-63238095D01*
X30523809Y-63190476D01*
X30571428Y-63095238D01*
X30571428Y-62904761D01*
X30523809Y-62809523D01*
X30476190Y-62761904D01*
X30380952Y-62714285D01*
X30952380Y-71964285D02*
X29952380Y-71964285D01*
X29952380Y-71726190D01*
X30000000Y-71583333D01*
X30095238Y-71488095D01*
X30190476Y-71440476D01*
X30380952Y-71392857D01*
X30523809Y-71392857D01*
X30714285Y-71440476D01*
X30809523Y-71488095D01*
X30904761Y-71583333D01*
X30952380Y-71726190D01*
X30952380Y-71964285D01*
X30952380Y-70440476D02*
X30952380Y-71011904D01*
X30952380Y-70726190D02*
X29952380Y-70726190D01*
X30095238Y-70821428D01*
X30190476Y-70916666D01*
X30238095Y-71011904D01*
X29952380Y-69821428D02*
X29952380Y-69726190D01*
X30000000Y-69630952D01*
X30047619Y-69583333D01*
X30142857Y-69535714D01*
X30333333Y-69488095D01*
X30571428Y-69488095D01*
X30761904Y-69535714D01*
X30857142Y-69583333D01*
X30904761Y-69630952D01*
X30952380Y-69726190D01*
X30952380Y-69821428D01*
X30904761Y-69916666D01*
X30857142Y-69964285D01*
X30761904Y-70011904D01*
X30571428Y-70059523D01*
X30333333Y-70059523D01*
X30142857Y-70011904D01*
X30047619Y-69964285D01*
X30000000Y-69916666D01*
X29952380Y-69821428D01*
X30952380Y-79714285D02*
X29952380Y-79714285D01*
X29952380Y-79476190D01*
X30000000Y-79333333D01*
X30095238Y-79238095D01*
X30190476Y-79190476D01*
X30380952Y-79142857D01*
X30523809Y-79142857D01*
X30714285Y-79190476D01*
X30809523Y-79238095D01*
X30904761Y-79333333D01*
X30952380Y-79476190D01*
X30952380Y-79714285D01*
X30952380Y-78190476D02*
X30952380Y-78761904D01*
X30952380Y-78476190D02*
X29952380Y-78476190D01*
X30095238Y-78571428D01*
X30190476Y-78666666D01*
X30238095Y-78761904D01*
X30952380Y-77238095D02*
X30952380Y-77809523D01*
X30952380Y-77523809D02*
X29952380Y-77523809D01*
X30095238Y-77619047D01*
X30190476Y-77714285D01*
X30238095Y-77809523D01*
X30952380Y-87714285D02*
X29952380Y-87714285D01*
X29952380Y-87476190D01*
X30000000Y-87333333D01*
X30095238Y-87238095D01*
X30190476Y-87190476D01*
X30380952Y-87142857D01*
X30523809Y-87142857D01*
X30714285Y-87190476D01*
X30809523Y-87238095D01*
X30904761Y-87333333D01*
X30952380Y-87476190D01*
X30952380Y-87714285D01*
X30952380Y-86190476D02*
X30952380Y-86761904D01*
X30952380Y-86476190D02*
X29952380Y-86476190D01*
X30095238Y-86571428D01*
X30190476Y-86666666D01*
X30238095Y-86761904D01*
X30047619Y-85809523D02*
X30000000Y-85761904D01*
X29952380Y-85666666D01*
X29952380Y-85428571D01*
X30000000Y-85333333D01*
X30047619Y-85285714D01*
X30142857Y-85238095D01*
X30238095Y-85238095D01*
X30380952Y-85285714D01*
X30952380Y-85857142D01*
X30952380Y-85238095D01*
X56367514Y-51049180D02*
X56367514Y-50049180D01*
X56605609Y-50049180D01*
X56748466Y-50096800D01*
X56843704Y-50192038D01*
X56891323Y-50287276D01*
X56938942Y-50477752D01*
X56938942Y-50620609D01*
X56891323Y-50811085D01*
X56843704Y-50906323D01*
X56748466Y-51001561D01*
X56605609Y-51049180D01*
X56367514Y-51049180D01*
X57891323Y-51049180D02*
X57319895Y-51049180D01*
X57605609Y-51049180D02*
X57605609Y-50049180D01*
X57510371Y-50192038D01*
X57415133Y-50287276D01*
X57319895Y-50334895D01*
X58748466Y-50049180D02*
X58557990Y-50049180D01*
X58462752Y-50096800D01*
X58415133Y-50144419D01*
X58319895Y-50287276D01*
X58272276Y-50477752D01*
X58272276Y-50858704D01*
X58319895Y-50953942D01*
X58367514Y-51001561D01*
X58462752Y-51049180D01*
X58653228Y-51049180D01*
X58748466Y-51001561D01*
X58796085Y-50953942D01*
X58843704Y-50858704D01*
X58843704Y-50620609D01*
X58796085Y-50525371D01*
X58748466Y-50477752D01*
X58653228Y-50430133D01*
X58462752Y-50430133D01*
X58367514Y-50477752D01*
X58319895Y-50525371D01*
X58272276Y-50620609D01*
M02*
