M48
; DRILL file {KiCad 5.1.0-rc2-unknown-38be0fc~81~ubuntu18.10.1} date Tue 05 Mar 2019 02:14:06 PM EST
; FORMAT={2:4/ absolute / inch / suppress leading zeros}
; #@! TF.CreationDate,2019-03-05T14:14:06-05:00
; #@! TF.GenerationSoftware,Kicad,Pcbnew,5.1.0-rc2-unknown-38be0fc~81~ubuntu18.10.1
FMAT,2
INCH,TZ
T1C0.0157
T2C0.0197
T3C0.0394
T4C0.0472
T5C0.1063
%
G90
G05
T1
X6339Y-36181
X6339Y-36535
X9449Y-8268
X9449Y-8661
X9449Y-9055
X9449Y-10630
X9449Y-11024
X9449Y-11417
X9449Y-12992
X9449Y-13386
X9449Y-13780
X9449Y-15354
X9449Y-15748
X9449Y-16142
X9449Y-17717
X9449Y-18110
X9449Y-18504
X9449Y-20079
X9449Y-20472
X9449Y-20866
X9449Y-22441
X9449Y-22835
X9449Y-23228
X9449Y-24803
X9449Y-25197
X9449Y-25591
X9449Y-27165
X9449Y-27559
X9449Y-27953
X9449Y-29528
X9449Y-29921
X9449Y-30315
X9449Y-31890
X9449Y-32283
X9449Y-32677
X9449Y-34252
X9449Y-34646
X9449Y-35039
X14134Y-36220
X17126Y-8268
X17126Y-10630
X17126Y-12992
X17126Y-15443
X17126Y-17717
X17126Y-20079
X17126Y-22441
X17126Y-24803
X17126Y-27165
X17126Y-29528
X17126Y-31890
X17126Y-34055
X20472Y-5709
X20472Y-6890
X21457Y-17520
X22165Y-21929
X22165Y-22717
X25315Y-34528
X25591Y-21457
X25984Y-8661
X25984Y-11024
X26102Y-34528
X26378Y-17323
X26890Y-34134
X27677Y-34528
X28071Y-21142
X28071Y-21929
X28465Y-34134
X29252Y-34528
X30039Y-34134
X30827Y-34528
X31614Y-19016
X31614Y-34134
X32402Y-34528
X32480Y-18110
T2
X36604Y-1969
X36838Y-1405
X36838Y-2532
X37402Y-1171
X37402Y-2766
X37965Y-1405
X37965Y-2532
X38199Y-1969
X1171Y-1969
X1405Y-1405
X1405Y-2532
X1969Y-1171
X1969Y-2766
X2532Y-1405
X2532Y-2532
X2766Y-1969
X36604Y-37402
X36838Y-36838
X36838Y-37965
X37402Y-36604
X37402Y-38199
X37965Y-36838
X37965Y-37965
X38199Y-37402
X1171Y-37402
X1405Y-36838
X1405Y-37965
X1969Y-36604
X1969Y-38199
X2532Y-36838
X2532Y-37965
X2766Y-37402
T3
X31071Y-14961
X32071Y-14961
X33071Y-14961
X26575Y-38386
X27575Y-38386
X28575Y-38386
X29575Y-38386
X30575Y-38386
X31575Y-38386
X31087Y-22047
X32087Y-22047
X33087Y-22047
X1299Y-14142
X1299Y-15142
X1299Y-16142
X1299Y-17142
X1299Y-18142
X1299Y-19142
X1299Y-20142
X1299Y-21142
X1299Y-22142
X1299Y-23142
X1299Y-24142
X1299Y-25142
X1299Y-26142
T4
X37008Y-10630
X37008Y-11630
X37008Y-7874
X37008Y-8874
T5
X37402Y-1969
X1969Y-1969
X37402Y-37402
X1969Y-37402
T0
M30
