M48
; DRILL file {KiCad (5.1.0-1152-gc9ccd8a64)} date 2019-07-22 10:50:59 AM
; FORMAT={-:-/ absolute / inch / decimal}
; #@! TF.CreationDate,2019-07-22T10:50:59-04:00
; #@! TF.GenerationSoftware,Kicad,Pcbnew,(5.1.0-1152-gc9ccd8a64)
FMAT,2
INCH
T1C0.0157
T2C0.0472
%
G90
G05
T1
X5.7165Y-3.374
X5.7165Y-3.437
X5.7441Y-3.374
X5.7441Y-3.437
X5.9055Y-3.1693
X5.9055Y-3.2087
X5.9449Y-3.1693
X5.9449Y-3.2087
X5.9657Y-3.5217
X6.0042Y-3.5217
X6.3622Y-3.5276
X6.3962Y-3.281
X6.4016Y-3.1575
X6.4016Y-3.1969
X6.4016Y-3.2362
X6.4016Y-3.5276
X6.428Y-3.4106
X6.437Y-3.6969
X6.5591Y-3.2244
X6.5819Y-3.4831
X6.5827Y-2.9646
X6.5827Y-3.0433
X6.6654Y-3.2638
X6.6654Y-3.3031
X6.689Y-3.4291
X6.724Y-3.353
T2
X6.4244Y-3.6811
X6.5244Y-3.6811
X6.6244Y-3.6811
X6.7244Y-3.6811
T0
M30
