G04 #@! TF.GenerationSoftware,KiCad,Pcbnew,6.0.0-rc1-unknown-5edf350~66~ubuntu18.10.1*
G04 #@! TF.CreationDate,2019-02-07T09:47:30-05:00
G04 #@! TF.ProjectId,current_sensor,63757272-656e-4745-9f73-656e736f722e,rev?*
G04 #@! TF.SameCoordinates,Original*
G04 #@! TF.FileFunction,Copper,L1,Top*
G04 #@! TF.FilePolarity,Positive*
%FSLAX46Y46*%
G04 Gerber Fmt 4.6, Leading zero omitted, Abs format (unit mm)*
G04 Created by KiCad (PCBNEW 6.0.0-rc1-unknown-5edf350~66~ubuntu18.10.1) date 2019-02-07 09:47:30*
%MOMM*%
%LPD*%
G04 APERTURE LIST*
%ADD10R,0.900000X1.200000*%
%ADD11R,0.850000X1.000000*%
%ADD12R,0.950000X1.450000*%
%ADD13R,0.900000X0.950000*%
%ADD14R,0.700000X1.800000*%
%ADD15R,1.600000X2.200000*%
%ADD16R,1.100000X0.600000*%
%ADD17R,1.300000X1.100000*%
%ADD18R,0.950000X0.900000*%
%ADD19R,1.450000X1.150000*%
%ADD20R,1.150000X1.450000*%
%ADD21O,1.950000X0.600000*%
%ADD22R,0.600000X1.100000*%
%ADD23C,0.800000*%
%ADD24C,0.500000*%
%ADD25C,1.000000*%
%ADD26C,0.250000*%
G04 APERTURE END LIST*
D10*
X150500000Y-76900000D03*
X147300000Y-76900000D03*
D11*
X166150000Y-89000000D03*
X164650000Y-89000000D03*
D12*
X168400000Y-88900000D03*
X170400000Y-88900000D03*
D10*
X167100000Y-83400000D03*
X170300000Y-83400000D03*
D13*
X169750000Y-86600000D03*
X168250000Y-86600000D03*
D14*
X164525000Y-91200000D03*
X165775000Y-91200000D03*
X167025000Y-91200000D03*
X168275000Y-91200000D03*
D15*
X162175000Y-94500000D03*
X170625000Y-94500000D03*
D16*
X164300000Y-85650000D03*
X164300000Y-87550000D03*
X164300000Y-86600000D03*
X166500000Y-87550000D03*
X166500000Y-85650000D03*
X166500000Y-86600000D03*
D17*
X161570000Y-78840000D03*
X161570000Y-76300000D03*
X161570000Y-73760000D03*
X152430000Y-73760000D03*
X152430000Y-76300000D03*
X152430000Y-78840000D03*
D18*
X163800000Y-82250000D03*
X163800000Y-83750000D03*
X150000000Y-83850000D03*
X150000000Y-82350000D03*
X150000000Y-87250000D03*
X150000000Y-85750000D03*
X143600000Y-75450000D03*
X143600000Y-73950000D03*
D13*
X163850000Y-80700000D03*
X165350000Y-80700000D03*
X165350000Y-79200000D03*
X163850000Y-79200000D03*
D18*
X165400000Y-82250000D03*
X165400000Y-83750000D03*
D19*
X145300000Y-73600000D03*
X145300000Y-75400000D03*
D20*
X147000000Y-79900000D03*
X148800000Y-79900000D03*
D11*
X168250000Y-85100000D03*
X169750000Y-85100000D03*
X148250000Y-87300000D03*
X146750000Y-87300000D03*
X148250000Y-85700000D03*
X146750000Y-85700000D03*
D21*
X152300000Y-84595000D03*
X152300000Y-85865000D03*
X152300000Y-87135000D03*
X152300000Y-88405000D03*
X161700000Y-88405000D03*
X161700000Y-87135000D03*
X161700000Y-85865000D03*
X161700000Y-84595000D03*
D10*
X147300000Y-73800000D03*
X150500000Y-73800000D03*
D22*
X145050000Y-79800000D03*
X143150000Y-79800000D03*
X144100000Y-77600000D03*
X143150000Y-77600000D03*
X145050000Y-77600000D03*
D16*
X163600000Y-75350000D03*
X163600000Y-77250000D03*
X163600000Y-76300000D03*
X165800000Y-77250000D03*
X165800000Y-75350000D03*
D23*
X161500000Y-93000000D03*
X170300000Y-95900000D03*
X169300000Y-95900000D03*
X169300000Y-94900000D03*
X169300000Y-93900000D03*
X161500000Y-95900000D03*
X162500000Y-95900000D03*
X163500000Y-95900000D03*
X163500000Y-94900000D03*
X163500000Y-93900000D03*
X162600000Y-89600000D03*
X169300000Y-82900000D03*
X169300000Y-83900000D03*
X163764272Y-90210144D03*
X163585651Y-91298110D03*
X162463188Y-83337213D03*
X162600000Y-82200000D03*
X163270745Y-86628392D03*
X167200000Y-75300000D03*
X167200000Y-77300000D03*
X166600000Y-81900000D03*
X162600000Y-81200000D03*
X162600000Y-80200000D03*
X161600000Y-89600000D03*
X169900000Y-87100000D03*
X170132528Y-85476529D03*
X167180400Y-88470994D03*
X145900000Y-85700000D03*
X145200000Y-85700000D03*
X145900000Y-87300000D03*
X151528698Y-89450934D03*
X152507488Y-89450934D03*
X150000000Y-81500000D03*
X151000000Y-81500000D03*
X151000000Y-80500000D03*
X150000000Y-80500000D03*
X145200000Y-87300000D03*
D24*
X163600000Y-75350000D02*
X163160000Y-75350000D01*
X163160000Y-75350000D02*
X161570000Y-73760000D01*
D25*
X161760000Y-73760000D02*
X161570000Y-73760000D01*
D24*
X163600000Y-77250000D02*
X163160000Y-77250000D01*
X163160000Y-77250000D02*
X161570000Y-78840000D01*
D25*
X161760000Y-78840000D02*
X161570000Y-78840000D01*
X170510002Y-81300000D02*
X171450001Y-82239999D01*
X169900002Y-80690000D02*
X170510002Y-81300000D01*
X171100000Y-86000000D02*
X171100000Y-86675000D01*
X169500000Y-80690000D02*
X169900002Y-80690000D01*
X171450001Y-85649999D02*
X171100000Y-86000000D01*
D24*
X170341986Y-88900000D02*
X168250000Y-86808014D01*
X170400000Y-88900000D02*
X170341986Y-88900000D01*
X168250000Y-86808014D02*
X168250000Y-86600000D01*
D25*
X170400000Y-88650000D02*
X171100000Y-87950000D01*
X171100000Y-87950000D02*
X171100000Y-86675000D01*
X170400000Y-88900000D02*
X170400000Y-88650000D01*
D24*
X166500000Y-86600000D02*
X168250000Y-86600000D01*
X164700000Y-76350000D02*
X164700000Y-78000000D01*
D25*
X165350000Y-79200000D02*
X165350000Y-78650000D01*
X165350000Y-78650000D02*
X164700000Y-78000000D01*
X169500000Y-80690000D02*
X165360000Y-80690000D01*
X165360000Y-80690000D02*
X165350000Y-80700000D01*
X169500000Y-80690000D02*
X167660525Y-82536545D01*
X167660525Y-82536545D02*
X167656990Y-82533010D01*
X167089990Y-83100010D02*
X167097060Y-83100010D01*
X165400000Y-83750000D02*
X166440000Y-83750000D01*
X166440000Y-83750000D02*
X167089990Y-83100010D01*
X167097060Y-83100010D02*
X167660525Y-82536545D01*
D24*
X163600000Y-76300000D02*
X161570000Y-76300000D01*
D25*
X165350000Y-79200000D02*
X165350000Y-80700000D01*
D24*
X163600000Y-76300000D02*
X164650000Y-76300000D01*
X164650000Y-76300000D02*
X164700000Y-76350000D01*
D25*
X163800000Y-83750000D02*
X165400000Y-83750000D01*
X161700000Y-84595000D02*
X162955000Y-84595000D01*
X162955000Y-84595000D02*
X163800000Y-83750000D01*
X171450001Y-83300000D02*
X171450001Y-85649999D01*
X171450001Y-82239999D02*
X171450001Y-83300000D01*
X161500000Y-95900000D02*
X161500000Y-93000000D01*
X162500000Y-95900000D02*
X163500000Y-94900000D01*
X170300000Y-95900000D02*
X169300000Y-94900000D01*
X169300000Y-95900000D02*
X170300000Y-95900000D01*
X169300000Y-94900000D02*
X169300000Y-95900000D01*
X169300000Y-93900000D02*
X169300000Y-94900000D01*
X162500000Y-95900000D02*
X161500000Y-95900000D01*
X163500000Y-95900000D02*
X162500000Y-95900000D01*
X163500000Y-94900000D02*
X163500000Y-95900000D01*
X163500000Y-93900000D02*
X163500000Y-94900000D01*
X163764272Y-90210144D02*
X163764272Y-90439272D01*
X163764272Y-90439272D02*
X164525000Y-91200000D01*
X163585651Y-91298110D02*
X164426890Y-91298110D01*
X164426890Y-91298110D02*
X164525000Y-91200000D01*
X162600000Y-89600000D02*
X162600000Y-89305000D01*
X162600000Y-89305000D02*
X161700000Y-88405000D01*
X162600000Y-89600000D02*
X161600000Y-89600000D01*
X161600000Y-89600000D02*
X161600000Y-88505000D01*
X161600000Y-88505000D02*
X161700000Y-88405000D01*
D24*
X169300000Y-83900000D02*
X169800000Y-83900000D01*
X169800000Y-83900000D02*
X170300000Y-83400000D01*
X169300000Y-82900000D02*
X169800000Y-83400000D01*
X169300000Y-82900000D02*
X169800000Y-82900000D01*
X169800000Y-82900000D02*
X170300000Y-83400000D01*
X169300000Y-83900000D02*
X169300000Y-82900000D01*
X170300000Y-83400000D02*
X169800000Y-83400000D01*
X169800000Y-83400000D02*
X169300000Y-83900000D01*
D25*
X163764272Y-90210144D02*
X163764272Y-90339272D01*
X163585651Y-91298110D02*
X163585651Y-90388765D01*
X163585651Y-90388765D02*
X163764272Y-90210144D01*
X163683761Y-91200000D02*
X163585651Y-91298110D01*
X163800000Y-82250000D02*
X163114998Y-82250000D01*
X163114998Y-82250000D02*
X162600000Y-82764998D01*
X162600000Y-82764998D02*
X162600000Y-83200401D01*
X162600000Y-82200000D02*
X162600000Y-83200401D01*
X162600000Y-83200401D02*
X162463188Y-83337213D01*
X163850000Y-80700000D02*
X163850000Y-79200000D01*
X163800000Y-82250000D02*
X162650000Y-82250000D01*
X162650000Y-82250000D02*
X162600000Y-82200000D01*
X162600000Y-81200000D02*
X163350000Y-81200000D01*
X163350000Y-81200000D02*
X163850000Y-80700000D01*
X166034315Y-81900000D02*
X166600000Y-81900000D01*
X165750000Y-81900000D02*
X166034315Y-81900000D01*
X165400000Y-82250000D02*
X165750000Y-81900000D01*
D24*
X164300000Y-86600000D02*
X163299137Y-86600000D01*
X163299137Y-86600000D02*
X163270745Y-86628392D01*
D25*
X165800000Y-75350000D02*
X167150000Y-75350000D01*
X167150000Y-75350000D02*
X167200000Y-75300000D01*
X165800000Y-77250000D02*
X167150000Y-77250000D01*
X167150000Y-77250000D02*
X167200000Y-77300000D01*
X163800000Y-82250000D02*
X165400000Y-82250000D01*
X163800000Y-82250000D02*
X163550000Y-82250000D01*
X162600000Y-80200000D02*
X163350000Y-80200000D01*
X163350000Y-80200000D02*
X163850000Y-80700000D01*
X162600000Y-80200000D02*
X162600000Y-81200000D01*
X165800000Y-75350000D02*
X165800000Y-77250000D01*
X169750000Y-86950000D02*
X169900000Y-87100000D01*
X169750000Y-86600000D02*
X169750000Y-86950000D01*
X147000000Y-79900000D02*
X147000000Y-82325000D01*
X147000000Y-82325000D02*
X148525000Y-83850000D01*
X148525000Y-83850000D02*
X150000000Y-83850000D01*
X152300000Y-84595000D02*
X150745000Y-84595000D01*
X150745000Y-84595000D02*
X150000000Y-83850000D01*
X145050000Y-79800000D02*
X146900000Y-79800000D01*
X146900000Y-79800000D02*
X147000000Y-79900000D01*
X147300000Y-76900000D02*
X147300000Y-76000000D01*
D24*
X145050000Y-77600000D02*
X145050000Y-76900000D01*
X145050000Y-76900000D02*
X143600000Y-75450000D01*
X143150000Y-77600000D02*
X143150000Y-75900000D01*
X143150000Y-75900000D02*
X143600000Y-75450000D01*
D25*
X143600000Y-75450000D02*
X145250000Y-75450000D01*
X145250000Y-75450000D02*
X145300000Y-75400000D01*
X147300000Y-73800000D02*
X147300000Y-74800000D01*
X147300000Y-74800000D02*
X146700000Y-75400000D01*
X146700000Y-75400000D02*
X145300000Y-75400000D01*
X147300000Y-76000000D02*
X146700000Y-75400000D01*
X150500000Y-73800000D02*
X152390000Y-73800000D01*
X152390000Y-73800000D02*
X152430000Y-73760000D01*
X150500000Y-76900000D02*
X150500000Y-77600000D01*
X152430000Y-78840000D02*
X151740000Y-78840000D01*
X151740000Y-78840000D02*
X150500000Y-77600000D01*
D24*
X167180400Y-90019600D02*
X167025000Y-90175000D01*
X167025000Y-90175000D02*
X167025000Y-91200000D01*
X167180400Y-88470994D02*
X167180400Y-90019600D01*
X170132528Y-85435055D02*
X170132528Y-85476529D01*
X169797473Y-85100000D02*
X170132528Y-85435055D01*
X169750000Y-85100000D02*
X169797473Y-85100000D01*
X167125000Y-88526394D02*
X167180400Y-88470994D01*
X150000000Y-85750000D02*
X148300000Y-85750000D01*
X148300000Y-85750000D02*
X148250000Y-85700000D01*
X152300000Y-85865000D02*
X150115000Y-85865000D01*
X150115000Y-85865000D02*
X150000000Y-85750000D01*
X164300000Y-87550000D02*
X163039576Y-87550000D01*
X162944566Y-87454990D02*
X162019990Y-87454990D01*
X163039576Y-87550000D02*
X162944566Y-87454990D01*
X162019990Y-87454990D02*
X161700000Y-87135000D01*
X161915000Y-85650000D02*
X161700000Y-85865000D01*
X164300000Y-85650000D02*
X161915000Y-85650000D01*
D25*
X146750000Y-85700000D02*
X145900000Y-85700000D01*
X145200000Y-85700000D02*
X146750000Y-85700000D01*
D24*
X165775000Y-91200000D02*
X165775000Y-90200000D01*
X165775000Y-90200000D02*
X164650000Y-89075000D01*
X164650000Y-89075000D02*
X164650000Y-89000000D01*
D25*
X146750000Y-87300000D02*
X145900000Y-87300000D01*
X152430000Y-76300000D02*
X151530000Y-75400000D01*
X151530000Y-75400000D02*
X149689998Y-75400000D01*
X149689998Y-75400000D02*
X148800000Y-76289998D01*
X148800000Y-76289998D02*
X148800000Y-79900000D01*
X145200000Y-87300000D02*
X146750000Y-87300000D01*
X151528698Y-89450934D02*
X151528698Y-89176302D01*
X151528698Y-89176302D02*
X152300000Y-88405000D01*
X152507488Y-89450934D02*
X151528698Y-89450934D01*
X152300000Y-88405000D02*
X152300000Y-89243446D01*
X152300000Y-89243446D02*
X152507488Y-89450934D01*
X148800000Y-79900000D02*
X150400000Y-79900000D01*
X150400000Y-79900000D02*
X151000000Y-80500000D01*
X150000000Y-82350000D02*
X150150000Y-82350000D01*
X150150000Y-82350000D02*
X151000000Y-81500000D01*
X150000000Y-82350000D02*
X150000000Y-81500000D01*
X150000000Y-81500000D02*
X150000000Y-80500000D01*
X151000000Y-81500000D02*
X150000000Y-81500000D01*
X151000000Y-80500000D02*
X151000000Y-81500000D01*
X150000000Y-80500000D02*
X151000000Y-80500000D01*
X148800000Y-79900000D02*
X149400000Y-79900000D01*
X149400000Y-79900000D02*
X150000000Y-80500000D01*
X152430000Y-76300000D02*
X151800000Y-76300000D01*
D24*
X166150000Y-88000000D02*
X166150000Y-89000000D01*
X166150000Y-87900000D02*
X166150000Y-88000000D01*
X166500000Y-87550000D02*
X166150000Y-87900000D01*
X168250000Y-85100000D02*
X167050000Y-85100000D01*
X167050000Y-85100000D02*
X166500000Y-85650000D01*
D25*
X168275000Y-91200000D02*
X168275000Y-89025000D01*
X168275000Y-89025000D02*
X168400000Y-88900000D01*
D24*
X168375000Y-88925000D02*
X168400000Y-88900000D01*
X150000000Y-87250000D02*
X148300000Y-87250000D01*
X148300000Y-87250000D02*
X148250000Y-87300000D01*
X152300000Y-87135000D02*
X150115000Y-87135000D01*
X150115000Y-87135000D02*
X150000000Y-87250000D01*
D26*
G36*
X152875000Y-72782944D02*
G01*
X151780000Y-72782944D01*
X151696686Y-72791150D01*
X151616573Y-72815452D01*
X151542740Y-72854916D01*
X151518268Y-72875000D01*
X151223917Y-72875000D01*
X151187260Y-72844916D01*
X151113427Y-72805452D01*
X151033314Y-72781150D01*
X150950000Y-72772944D01*
X150050000Y-72772944D01*
X149966686Y-72781150D01*
X149886573Y-72805452D01*
X149812740Y-72844916D01*
X149748026Y-72898026D01*
X149694916Y-72962740D01*
X149655452Y-73036573D01*
X149631150Y-73116686D01*
X149622944Y-73200000D01*
X149622944Y-73504741D01*
X149588385Y-73618668D01*
X149570525Y-73800000D01*
X149588385Y-73981332D01*
X149622944Y-74095259D01*
X149622944Y-74400000D01*
X149631150Y-74483314D01*
X149655452Y-74563427D01*
X149694916Y-74637260D01*
X149748026Y-74701974D01*
X149812740Y-74755084D01*
X149886573Y-74794548D01*
X149966686Y-74818850D01*
X150050000Y-74827056D01*
X150950000Y-74827056D01*
X151033314Y-74818850D01*
X151113427Y-74794548D01*
X151187260Y-74755084D01*
X151223917Y-74725000D01*
X151683994Y-74725000D01*
X151696686Y-74728850D01*
X151780000Y-74737056D01*
X152875000Y-74737056D01*
X152875000Y-75325000D01*
X152561250Y-75325000D01*
X152455000Y-75431250D01*
X152455000Y-76275000D01*
X152475000Y-76275000D01*
X152475000Y-76325000D01*
X152455000Y-76325000D01*
X152455000Y-77168750D01*
X152561250Y-77275000D01*
X152875000Y-77275000D01*
X152875000Y-77862944D01*
X152071092Y-77862944D01*
X151425000Y-77216853D01*
X151425000Y-77083685D01*
X151449881Y-77120922D01*
X151509078Y-77180119D01*
X151578687Y-77226630D01*
X151656032Y-77258667D01*
X151738141Y-77275000D01*
X152298750Y-77275000D01*
X152405000Y-77168750D01*
X152405000Y-76325000D01*
X152385000Y-76325000D01*
X152385000Y-76275000D01*
X152405000Y-76275000D01*
X152405000Y-75431250D01*
X152298750Y-75325000D01*
X151738141Y-75325000D01*
X151656032Y-75341333D01*
X151578687Y-75373370D01*
X151509078Y-75419881D01*
X151449881Y-75479078D01*
X151403370Y-75548687D01*
X151371332Y-75626032D01*
X151355000Y-75708141D01*
X151355000Y-76168750D01*
X151461248Y-76274998D01*
X151374593Y-76274998D01*
X151368850Y-76216686D01*
X151344548Y-76136573D01*
X151305084Y-76062740D01*
X151251974Y-75998026D01*
X151187260Y-75944916D01*
X151113427Y-75905452D01*
X151033314Y-75881150D01*
X150950000Y-75872944D01*
X150050000Y-75872944D01*
X149966686Y-75881150D01*
X149886573Y-75905452D01*
X149812740Y-75944916D01*
X149748026Y-75998026D01*
X149694916Y-76062740D01*
X149655452Y-76136573D01*
X149631150Y-76216686D01*
X149622944Y-76300000D01*
X149622944Y-76604742D01*
X149588385Y-76718669D01*
X149575000Y-76854566D01*
X149575000Y-77554573D01*
X149570526Y-77600000D01*
X149575000Y-77645427D01*
X149575000Y-77645435D01*
X149586158Y-77758723D01*
X149588385Y-77781331D01*
X149641277Y-77955694D01*
X149727170Y-78116388D01*
X149813799Y-78221946D01*
X149813802Y-78221949D01*
X149842763Y-78257238D01*
X149878052Y-78286199D01*
X151053801Y-79461949D01*
X151082762Y-79497238D01*
X151223611Y-79612830D01*
X151250608Y-79627260D01*
X151384305Y-79698723D01*
X151550091Y-79749013D01*
X151616573Y-79784548D01*
X151696686Y-79808850D01*
X151780000Y-79817056D01*
X152875000Y-79817056D01*
X152875000Y-83870000D01*
X152874670Y-83870000D01*
X152816389Y-83822170D01*
X152655695Y-83736277D01*
X152481332Y-83683385D01*
X152345435Y-83670000D01*
X151128148Y-83670000D01*
X150902056Y-83443909D01*
X150902056Y-83400000D01*
X150893850Y-83316686D01*
X150869548Y-83236573D01*
X150830084Y-83162740D01*
X150777443Y-83098598D01*
X150805119Y-83070922D01*
X150851630Y-83001313D01*
X150883667Y-82923968D01*
X150900000Y-82841859D01*
X150900000Y-82481250D01*
X150793750Y-82375000D01*
X150025000Y-82375000D01*
X150025000Y-82395000D01*
X149975000Y-82395000D01*
X149975000Y-82375000D01*
X149206250Y-82375000D01*
X149100000Y-82481250D01*
X149100000Y-82841859D01*
X149116333Y-82923968D01*
X149116760Y-82925000D01*
X148908148Y-82925000D01*
X147925000Y-81941853D01*
X147925000Y-81858141D01*
X149100000Y-81858141D01*
X149100000Y-82218750D01*
X149206250Y-82325000D01*
X149975000Y-82325000D01*
X149975000Y-81581250D01*
X150025000Y-81581250D01*
X150025000Y-82325000D01*
X150793750Y-82325000D01*
X150900000Y-82218750D01*
X150900000Y-81858141D01*
X150883667Y-81776032D01*
X150851630Y-81698687D01*
X150805119Y-81629078D01*
X150745922Y-81569881D01*
X150676313Y-81523370D01*
X150598968Y-81491332D01*
X150516859Y-81475000D01*
X150131250Y-81475000D01*
X150025000Y-81581250D01*
X149975000Y-81581250D01*
X149868750Y-81475000D01*
X149483141Y-81475000D01*
X149401032Y-81491332D01*
X149323687Y-81523370D01*
X149254078Y-81569881D01*
X149194881Y-81629078D01*
X149148370Y-81698687D01*
X149116333Y-81776032D01*
X149100000Y-81858141D01*
X147925000Y-81858141D01*
X147925000Y-80926041D01*
X147954078Y-80955119D01*
X148023687Y-81001630D01*
X148101032Y-81033667D01*
X148183141Y-81050000D01*
X148668750Y-81050000D01*
X148775000Y-80943750D01*
X148775000Y-79925000D01*
X148825000Y-79925000D01*
X148825000Y-80943750D01*
X148931250Y-81050000D01*
X149416859Y-81050000D01*
X149498968Y-81033667D01*
X149576313Y-81001630D01*
X149645922Y-80955119D01*
X149705119Y-80895922D01*
X149751630Y-80826313D01*
X149783668Y-80748968D01*
X149800000Y-80666859D01*
X149800000Y-80031250D01*
X149693750Y-79925000D01*
X148825000Y-79925000D01*
X148775000Y-79925000D01*
X148755000Y-79925000D01*
X148755000Y-79875000D01*
X148775000Y-79875000D01*
X148775000Y-78856250D01*
X148825000Y-78856250D01*
X148825000Y-79875000D01*
X149693750Y-79875000D01*
X149800000Y-79768750D01*
X149800000Y-79133141D01*
X149783668Y-79051032D01*
X149751630Y-78973687D01*
X149705119Y-78904078D01*
X149645922Y-78844881D01*
X149576313Y-78798370D01*
X149498968Y-78766333D01*
X149416859Y-78750000D01*
X148931250Y-78750000D01*
X148825000Y-78856250D01*
X148775000Y-78856250D01*
X148668750Y-78750000D01*
X148183141Y-78750000D01*
X148101032Y-78766333D01*
X148023687Y-78798370D01*
X147954078Y-78844881D01*
X147899043Y-78899916D01*
X147876974Y-78873026D01*
X147812260Y-78819916D01*
X147738427Y-78780452D01*
X147658314Y-78756150D01*
X147575000Y-78747944D01*
X146425000Y-78747944D01*
X146341686Y-78756150D01*
X146261573Y-78780452D01*
X146187740Y-78819916D01*
X146123026Y-78873026D01*
X146121406Y-78875000D01*
X145549999Y-78875000D01*
X145513427Y-78855452D01*
X145433314Y-78831150D01*
X145350000Y-78822944D01*
X144750000Y-78822944D01*
X144666686Y-78831150D01*
X144586573Y-78855452D01*
X144512740Y-78894916D01*
X144448026Y-78948026D01*
X144394916Y-79012740D01*
X144355452Y-79086573D01*
X144331150Y-79166686D01*
X144325425Y-79224812D01*
X144277170Y-79283611D01*
X144191277Y-79444305D01*
X144138385Y-79618668D01*
X144120525Y-79800000D01*
X144138385Y-79981332D01*
X144191277Y-80155695D01*
X144277170Y-80316389D01*
X144325425Y-80375188D01*
X144331150Y-80433314D01*
X144355452Y-80513427D01*
X144394916Y-80587260D01*
X144448026Y-80651974D01*
X144512740Y-80705084D01*
X144586573Y-80744548D01*
X144666686Y-80768850D01*
X144750000Y-80777056D01*
X145350000Y-80777056D01*
X145433314Y-80768850D01*
X145513427Y-80744548D01*
X145549999Y-80725000D01*
X146011212Y-80725000D01*
X146030452Y-80788427D01*
X146069916Y-80862260D01*
X146075000Y-80868455D01*
X146075001Y-82279564D01*
X146070526Y-82325000D01*
X146088385Y-82506331D01*
X146141277Y-82680694D01*
X146227170Y-82841388D01*
X146313799Y-82946946D01*
X146313802Y-82946949D01*
X146342763Y-82982238D01*
X146378052Y-83011199D01*
X147838801Y-84471949D01*
X147867762Y-84507238D01*
X147903051Y-84536199D01*
X147903053Y-84536201D01*
X147935942Y-84563192D01*
X148008611Y-84622830D01*
X148169305Y-84708723D01*
X148343668Y-84761615D01*
X148458691Y-84772944D01*
X147825000Y-84772944D01*
X147741686Y-84781150D01*
X147661573Y-84805452D01*
X147606306Y-84834992D01*
X147603934Y-84830554D01*
X147588388Y-84811612D01*
X147569446Y-84796066D01*
X147547835Y-84784515D01*
X147524386Y-84777402D01*
X147500000Y-84775000D01*
X147195874Y-84775000D01*
X147175000Y-84772944D01*
X146325000Y-84772944D01*
X146304126Y-84775000D01*
X144500000Y-84775000D01*
X144475614Y-84777402D01*
X144452165Y-84784515D01*
X144430554Y-84796066D01*
X144411612Y-84811612D01*
X144396066Y-84830554D01*
X144384515Y-84852165D01*
X144377402Y-84875614D01*
X144375000Y-84900000D01*
X144375000Y-85281214D01*
X144341277Y-85344305D01*
X144288385Y-85518668D01*
X144270525Y-85700000D01*
X144288385Y-85881332D01*
X144341277Y-86055695D01*
X144375000Y-86118786D01*
X144375000Y-88100000D01*
X144377402Y-88124386D01*
X144384515Y-88147835D01*
X144396066Y-88169446D01*
X144411612Y-88188388D01*
X144430554Y-88203934D01*
X144452165Y-88215485D01*
X144475614Y-88222598D01*
X144500000Y-88225000D01*
X147500000Y-88225000D01*
X147524386Y-88222598D01*
X147547835Y-88215485D01*
X147569446Y-88203934D01*
X147588388Y-88188388D01*
X147603934Y-88169446D01*
X147606306Y-88165008D01*
X147661573Y-88194548D01*
X147741686Y-88218850D01*
X147825000Y-88227056D01*
X148675000Y-88227056D01*
X148758314Y-88218850D01*
X148838427Y-88194548D01*
X148912260Y-88155084D01*
X148976974Y-88101974D01*
X149030084Y-88037260D01*
X149069548Y-87963427D01*
X149081205Y-87925000D01*
X149163363Y-87925000D01*
X149169916Y-87937260D01*
X149223026Y-88001974D01*
X149287740Y-88055084D01*
X149361573Y-88094548D01*
X149441686Y-88118850D01*
X149525000Y-88127056D01*
X150475000Y-88127056D01*
X150558314Y-88118850D01*
X150638427Y-88094548D01*
X150712260Y-88055084D01*
X150776974Y-88001974D01*
X150830084Y-87937260D01*
X150869548Y-87863427D01*
X150885755Y-87810000D01*
X151211902Y-87810000D01*
X151201425Y-87816073D01*
X151094670Y-87910024D01*
X151008295Y-88022997D01*
X150945620Y-88150650D01*
X150913263Y-88266960D01*
X151006755Y-88380000D01*
X152275000Y-88380000D01*
X152275000Y-88360000D01*
X152325000Y-88360000D01*
X152325000Y-88380000D01*
X152345000Y-88380000D01*
X152345000Y-88430000D01*
X152325000Y-88430000D01*
X152325000Y-89130000D01*
X152875000Y-89130000D01*
X152875000Y-96475000D01*
X133525000Y-96475000D01*
X133525000Y-88543040D01*
X150913263Y-88543040D01*
X150945620Y-88659350D01*
X151008295Y-88787003D01*
X151094670Y-88899976D01*
X151201425Y-88993927D01*
X151324458Y-89065246D01*
X151459040Y-89111192D01*
X151600000Y-89130000D01*
X152275000Y-89130000D01*
X152275000Y-88430000D01*
X151006755Y-88430000D01*
X150913263Y-88543040D01*
X133525000Y-88543040D01*
X133525000Y-79250000D01*
X142422944Y-79250000D01*
X142422944Y-80350000D01*
X142431150Y-80433314D01*
X142455452Y-80513427D01*
X142494916Y-80587260D01*
X142548026Y-80651974D01*
X142612740Y-80705084D01*
X142686573Y-80744548D01*
X142766686Y-80768850D01*
X142850000Y-80777056D01*
X143450000Y-80777056D01*
X143533314Y-80768850D01*
X143613427Y-80744548D01*
X143687260Y-80705084D01*
X143751974Y-80651974D01*
X143805084Y-80587260D01*
X143844548Y-80513427D01*
X143868850Y-80433314D01*
X143877056Y-80350000D01*
X143877056Y-79250000D01*
X143868850Y-79166686D01*
X143844548Y-79086573D01*
X143805084Y-79012740D01*
X143751974Y-78948026D01*
X143687260Y-78894916D01*
X143613427Y-78855452D01*
X143533314Y-78831150D01*
X143450000Y-78822944D01*
X142850000Y-78822944D01*
X142766686Y-78831150D01*
X142686573Y-78855452D01*
X142612740Y-78894916D01*
X142548026Y-78948026D01*
X142494916Y-79012740D01*
X142455452Y-79086573D01*
X142431150Y-79166686D01*
X142422944Y-79250000D01*
X133525000Y-79250000D01*
X133525000Y-77050000D01*
X142422944Y-77050000D01*
X142422944Y-78150000D01*
X142431150Y-78233314D01*
X142455452Y-78313427D01*
X142494916Y-78387260D01*
X142548026Y-78451974D01*
X142612740Y-78505084D01*
X142686573Y-78544548D01*
X142766686Y-78568850D01*
X142850000Y-78577056D01*
X143450000Y-78577056D01*
X143533314Y-78568850D01*
X143613427Y-78544548D01*
X143625878Y-78537893D01*
X143676032Y-78558668D01*
X143758141Y-78575000D01*
X143968750Y-78575000D01*
X144075000Y-78468750D01*
X144075000Y-77625000D01*
X144055000Y-77625000D01*
X144055000Y-77575000D01*
X144075000Y-77575000D01*
X144075000Y-77555000D01*
X144125000Y-77555000D01*
X144125000Y-77575000D01*
X144145000Y-77575000D01*
X144145000Y-77625000D01*
X144125000Y-77625000D01*
X144125000Y-78468750D01*
X144231250Y-78575000D01*
X144441859Y-78575000D01*
X144523968Y-78558668D01*
X144574122Y-78537893D01*
X144586573Y-78544548D01*
X144666686Y-78568850D01*
X144750000Y-78577056D01*
X145350000Y-78577056D01*
X145433314Y-78568850D01*
X145513427Y-78544548D01*
X145587260Y-78505084D01*
X145651974Y-78451974D01*
X145705084Y-78387260D01*
X145744548Y-78313427D01*
X145768850Y-78233314D01*
X145777056Y-78150000D01*
X145777056Y-77050000D01*
X145768850Y-76966686D01*
X145744548Y-76886573D01*
X145722967Y-76846197D01*
X145715233Y-76767677D01*
X145700735Y-76719881D01*
X145676636Y-76640439D01*
X145667285Y-76622944D01*
X145613958Y-76523176D01*
X145529606Y-76420394D01*
X145507261Y-76402056D01*
X146025000Y-76402056D01*
X146108314Y-76393850D01*
X146188427Y-76369548D01*
X146262260Y-76330084D01*
X146268455Y-76325000D01*
X146316853Y-76325000D01*
X146375000Y-76383147D01*
X146375000Y-76945434D01*
X146388385Y-77081331D01*
X146422944Y-77195258D01*
X146422944Y-77500000D01*
X146431150Y-77583314D01*
X146455452Y-77663427D01*
X146494916Y-77737260D01*
X146548026Y-77801974D01*
X146612740Y-77855084D01*
X146686573Y-77894548D01*
X146766686Y-77918850D01*
X146850000Y-77927056D01*
X147750000Y-77927056D01*
X147833314Y-77918850D01*
X147913427Y-77894548D01*
X147987260Y-77855084D01*
X148051974Y-77801974D01*
X148105084Y-77737260D01*
X148144548Y-77663427D01*
X148168850Y-77583314D01*
X148177056Y-77500000D01*
X148177056Y-77195259D01*
X148211615Y-77081332D01*
X148225000Y-76945435D01*
X148225000Y-76045426D01*
X148229474Y-75999999D01*
X148225000Y-75954572D01*
X148225000Y-75954565D01*
X148211615Y-75818668D01*
X148158723Y-75644305D01*
X148072830Y-75483611D01*
X148004212Y-75400000D01*
X148072830Y-75316389D01*
X148158723Y-75155695D01*
X148211615Y-74981332D01*
X148225000Y-74845435D01*
X148225000Y-74845428D01*
X148229474Y-74800001D01*
X148225000Y-74754574D01*
X148225000Y-73754565D01*
X148211615Y-73618668D01*
X148177056Y-73504741D01*
X148177056Y-73200000D01*
X148168850Y-73116686D01*
X148144548Y-73036573D01*
X148105084Y-72962740D01*
X148051974Y-72898026D01*
X147987260Y-72844916D01*
X147913427Y-72805452D01*
X147833314Y-72781150D01*
X147750000Y-72772944D01*
X146850000Y-72772944D01*
X146766686Y-72781150D01*
X146686573Y-72805452D01*
X146612740Y-72844916D01*
X146548026Y-72898026D01*
X146494916Y-72962740D01*
X146455452Y-73036573D01*
X146450000Y-73054546D01*
X146450000Y-72983141D01*
X146433667Y-72901032D01*
X146401630Y-72823687D01*
X146355119Y-72754078D01*
X146295922Y-72694881D01*
X146226313Y-72648370D01*
X146148968Y-72616332D01*
X146066859Y-72600000D01*
X145431250Y-72600000D01*
X145325000Y-72706250D01*
X145325000Y-73575000D01*
X145345000Y-73575000D01*
X145345000Y-73625000D01*
X145325000Y-73625000D01*
X145325000Y-73645000D01*
X145275000Y-73645000D01*
X145275000Y-73625000D01*
X145255000Y-73625000D01*
X145255000Y-73575000D01*
X145275000Y-73575000D01*
X145275000Y-72706250D01*
X145168750Y-72600000D01*
X144533141Y-72600000D01*
X144451032Y-72616332D01*
X144373687Y-72648370D01*
X144304078Y-72694881D01*
X144244881Y-72754078D01*
X144198370Y-72823687D01*
X144166333Y-72901032D01*
X144150000Y-72983141D01*
X144150000Y-73081592D01*
X144116859Y-73075000D01*
X143731250Y-73075000D01*
X143625000Y-73181250D01*
X143625000Y-73925000D01*
X143645000Y-73925000D01*
X143645000Y-73975000D01*
X143625000Y-73975000D01*
X143625000Y-73995000D01*
X143575000Y-73995000D01*
X143575000Y-73975000D01*
X142806250Y-73975000D01*
X142700000Y-74081250D01*
X142700000Y-74441859D01*
X142716333Y-74523968D01*
X142748370Y-74601313D01*
X142794881Y-74670922D01*
X142822557Y-74698598D01*
X142769916Y-74762740D01*
X142730452Y-74836573D01*
X142706150Y-74916686D01*
X142697944Y-75000000D01*
X142697944Y-75237156D01*
X142688385Y-75268668D01*
X142673709Y-75417674D01*
X142670395Y-75420394D01*
X142649264Y-75446142D01*
X142649256Y-75446150D01*
X142586043Y-75523176D01*
X142523365Y-75640439D01*
X142484767Y-75767677D01*
X142471735Y-75900000D01*
X142475001Y-75933162D01*
X142475000Y-76850000D01*
X142455452Y-76886573D01*
X142431150Y-76966686D01*
X142422944Y-77050000D01*
X133525000Y-77050000D01*
X133525000Y-73458141D01*
X142700000Y-73458141D01*
X142700000Y-73818750D01*
X142806250Y-73925000D01*
X143575000Y-73925000D01*
X143575000Y-73181250D01*
X143468750Y-73075000D01*
X143083141Y-73075000D01*
X143001032Y-73091332D01*
X142923687Y-73123370D01*
X142854078Y-73169881D01*
X142794881Y-73229078D01*
X142748370Y-73298687D01*
X142716333Y-73376032D01*
X142700000Y-73458141D01*
X133525000Y-73458141D01*
X133525000Y-72525000D01*
X152875000Y-72525000D01*
X152875000Y-72782944D01*
X152875000Y-72782944D01*
G37*
X152875000Y-72782944D02*
X151780000Y-72782944D01*
X151696686Y-72791150D01*
X151616573Y-72815452D01*
X151542740Y-72854916D01*
X151518268Y-72875000D01*
X151223917Y-72875000D01*
X151187260Y-72844916D01*
X151113427Y-72805452D01*
X151033314Y-72781150D01*
X150950000Y-72772944D01*
X150050000Y-72772944D01*
X149966686Y-72781150D01*
X149886573Y-72805452D01*
X149812740Y-72844916D01*
X149748026Y-72898026D01*
X149694916Y-72962740D01*
X149655452Y-73036573D01*
X149631150Y-73116686D01*
X149622944Y-73200000D01*
X149622944Y-73504741D01*
X149588385Y-73618668D01*
X149570525Y-73800000D01*
X149588385Y-73981332D01*
X149622944Y-74095259D01*
X149622944Y-74400000D01*
X149631150Y-74483314D01*
X149655452Y-74563427D01*
X149694916Y-74637260D01*
X149748026Y-74701974D01*
X149812740Y-74755084D01*
X149886573Y-74794548D01*
X149966686Y-74818850D01*
X150050000Y-74827056D01*
X150950000Y-74827056D01*
X151033314Y-74818850D01*
X151113427Y-74794548D01*
X151187260Y-74755084D01*
X151223917Y-74725000D01*
X151683994Y-74725000D01*
X151696686Y-74728850D01*
X151780000Y-74737056D01*
X152875000Y-74737056D01*
X152875000Y-75325000D01*
X152561250Y-75325000D01*
X152455000Y-75431250D01*
X152455000Y-76275000D01*
X152475000Y-76275000D01*
X152475000Y-76325000D01*
X152455000Y-76325000D01*
X152455000Y-77168750D01*
X152561250Y-77275000D01*
X152875000Y-77275000D01*
X152875000Y-77862944D01*
X152071092Y-77862944D01*
X151425000Y-77216853D01*
X151425000Y-77083685D01*
X151449881Y-77120922D01*
X151509078Y-77180119D01*
X151578687Y-77226630D01*
X151656032Y-77258667D01*
X151738141Y-77275000D01*
X152298750Y-77275000D01*
X152405000Y-77168750D01*
X152405000Y-76325000D01*
X152385000Y-76325000D01*
X152385000Y-76275000D01*
X152405000Y-76275000D01*
X152405000Y-75431250D01*
X152298750Y-75325000D01*
X151738141Y-75325000D01*
X151656032Y-75341333D01*
X151578687Y-75373370D01*
X151509078Y-75419881D01*
X151449881Y-75479078D01*
X151403370Y-75548687D01*
X151371332Y-75626032D01*
X151355000Y-75708141D01*
X151355000Y-76168750D01*
X151461248Y-76274998D01*
X151374593Y-76274998D01*
X151368850Y-76216686D01*
X151344548Y-76136573D01*
X151305084Y-76062740D01*
X151251974Y-75998026D01*
X151187260Y-75944916D01*
X151113427Y-75905452D01*
X151033314Y-75881150D01*
X150950000Y-75872944D01*
X150050000Y-75872944D01*
X149966686Y-75881150D01*
X149886573Y-75905452D01*
X149812740Y-75944916D01*
X149748026Y-75998026D01*
X149694916Y-76062740D01*
X149655452Y-76136573D01*
X149631150Y-76216686D01*
X149622944Y-76300000D01*
X149622944Y-76604742D01*
X149588385Y-76718669D01*
X149575000Y-76854566D01*
X149575000Y-77554573D01*
X149570526Y-77600000D01*
X149575000Y-77645427D01*
X149575000Y-77645435D01*
X149586158Y-77758723D01*
X149588385Y-77781331D01*
X149641277Y-77955694D01*
X149727170Y-78116388D01*
X149813799Y-78221946D01*
X149813802Y-78221949D01*
X149842763Y-78257238D01*
X149878052Y-78286199D01*
X151053801Y-79461949D01*
X151082762Y-79497238D01*
X151223611Y-79612830D01*
X151250608Y-79627260D01*
X151384305Y-79698723D01*
X151550091Y-79749013D01*
X151616573Y-79784548D01*
X151696686Y-79808850D01*
X151780000Y-79817056D01*
X152875000Y-79817056D01*
X152875000Y-83870000D01*
X152874670Y-83870000D01*
X152816389Y-83822170D01*
X152655695Y-83736277D01*
X152481332Y-83683385D01*
X152345435Y-83670000D01*
X151128148Y-83670000D01*
X150902056Y-83443909D01*
X150902056Y-83400000D01*
X150893850Y-83316686D01*
X150869548Y-83236573D01*
X150830084Y-83162740D01*
X150777443Y-83098598D01*
X150805119Y-83070922D01*
X150851630Y-83001313D01*
X150883667Y-82923968D01*
X150900000Y-82841859D01*
X150900000Y-82481250D01*
X150793750Y-82375000D01*
X150025000Y-82375000D01*
X150025000Y-82395000D01*
X149975000Y-82395000D01*
X149975000Y-82375000D01*
X149206250Y-82375000D01*
X149100000Y-82481250D01*
X149100000Y-82841859D01*
X149116333Y-82923968D01*
X149116760Y-82925000D01*
X148908148Y-82925000D01*
X147925000Y-81941853D01*
X147925000Y-81858141D01*
X149100000Y-81858141D01*
X149100000Y-82218750D01*
X149206250Y-82325000D01*
X149975000Y-82325000D01*
X149975000Y-81581250D01*
X150025000Y-81581250D01*
X150025000Y-82325000D01*
X150793750Y-82325000D01*
X150900000Y-82218750D01*
X150900000Y-81858141D01*
X150883667Y-81776032D01*
X150851630Y-81698687D01*
X150805119Y-81629078D01*
X150745922Y-81569881D01*
X150676313Y-81523370D01*
X150598968Y-81491332D01*
X150516859Y-81475000D01*
X150131250Y-81475000D01*
X150025000Y-81581250D01*
X149975000Y-81581250D01*
X149868750Y-81475000D01*
X149483141Y-81475000D01*
X149401032Y-81491332D01*
X149323687Y-81523370D01*
X149254078Y-81569881D01*
X149194881Y-81629078D01*
X149148370Y-81698687D01*
X149116333Y-81776032D01*
X149100000Y-81858141D01*
X147925000Y-81858141D01*
X147925000Y-80926041D01*
X147954078Y-80955119D01*
X148023687Y-81001630D01*
X148101032Y-81033667D01*
X148183141Y-81050000D01*
X148668750Y-81050000D01*
X148775000Y-80943750D01*
X148775000Y-79925000D01*
X148825000Y-79925000D01*
X148825000Y-80943750D01*
X148931250Y-81050000D01*
X149416859Y-81050000D01*
X149498968Y-81033667D01*
X149576313Y-81001630D01*
X149645922Y-80955119D01*
X149705119Y-80895922D01*
X149751630Y-80826313D01*
X149783668Y-80748968D01*
X149800000Y-80666859D01*
X149800000Y-80031250D01*
X149693750Y-79925000D01*
X148825000Y-79925000D01*
X148775000Y-79925000D01*
X148755000Y-79925000D01*
X148755000Y-79875000D01*
X148775000Y-79875000D01*
X148775000Y-78856250D01*
X148825000Y-78856250D01*
X148825000Y-79875000D01*
X149693750Y-79875000D01*
X149800000Y-79768750D01*
X149800000Y-79133141D01*
X149783668Y-79051032D01*
X149751630Y-78973687D01*
X149705119Y-78904078D01*
X149645922Y-78844881D01*
X149576313Y-78798370D01*
X149498968Y-78766333D01*
X149416859Y-78750000D01*
X148931250Y-78750000D01*
X148825000Y-78856250D01*
X148775000Y-78856250D01*
X148668750Y-78750000D01*
X148183141Y-78750000D01*
X148101032Y-78766333D01*
X148023687Y-78798370D01*
X147954078Y-78844881D01*
X147899043Y-78899916D01*
X147876974Y-78873026D01*
X147812260Y-78819916D01*
X147738427Y-78780452D01*
X147658314Y-78756150D01*
X147575000Y-78747944D01*
X146425000Y-78747944D01*
X146341686Y-78756150D01*
X146261573Y-78780452D01*
X146187740Y-78819916D01*
X146123026Y-78873026D01*
X146121406Y-78875000D01*
X145549999Y-78875000D01*
X145513427Y-78855452D01*
X145433314Y-78831150D01*
X145350000Y-78822944D01*
X144750000Y-78822944D01*
X144666686Y-78831150D01*
X144586573Y-78855452D01*
X144512740Y-78894916D01*
X144448026Y-78948026D01*
X144394916Y-79012740D01*
X144355452Y-79086573D01*
X144331150Y-79166686D01*
X144325425Y-79224812D01*
X144277170Y-79283611D01*
X144191277Y-79444305D01*
X144138385Y-79618668D01*
X144120525Y-79800000D01*
X144138385Y-79981332D01*
X144191277Y-80155695D01*
X144277170Y-80316389D01*
X144325425Y-80375188D01*
X144331150Y-80433314D01*
X144355452Y-80513427D01*
X144394916Y-80587260D01*
X144448026Y-80651974D01*
X144512740Y-80705084D01*
X144586573Y-80744548D01*
X144666686Y-80768850D01*
X144750000Y-80777056D01*
X145350000Y-80777056D01*
X145433314Y-80768850D01*
X145513427Y-80744548D01*
X145549999Y-80725000D01*
X146011212Y-80725000D01*
X146030452Y-80788427D01*
X146069916Y-80862260D01*
X146075000Y-80868455D01*
X146075001Y-82279564D01*
X146070526Y-82325000D01*
X146088385Y-82506331D01*
X146141277Y-82680694D01*
X146227170Y-82841388D01*
X146313799Y-82946946D01*
X146313802Y-82946949D01*
X146342763Y-82982238D01*
X146378052Y-83011199D01*
X147838801Y-84471949D01*
X147867762Y-84507238D01*
X147903051Y-84536199D01*
X147903053Y-84536201D01*
X147935942Y-84563192D01*
X148008611Y-84622830D01*
X148169305Y-84708723D01*
X148343668Y-84761615D01*
X148458691Y-84772944D01*
X147825000Y-84772944D01*
X147741686Y-84781150D01*
X147661573Y-84805452D01*
X147606306Y-84834992D01*
X147603934Y-84830554D01*
X147588388Y-84811612D01*
X147569446Y-84796066D01*
X147547835Y-84784515D01*
X147524386Y-84777402D01*
X147500000Y-84775000D01*
X147195874Y-84775000D01*
X147175000Y-84772944D01*
X146325000Y-84772944D01*
X146304126Y-84775000D01*
X144500000Y-84775000D01*
X144475614Y-84777402D01*
X144452165Y-84784515D01*
X144430554Y-84796066D01*
X144411612Y-84811612D01*
X144396066Y-84830554D01*
X144384515Y-84852165D01*
X144377402Y-84875614D01*
X144375000Y-84900000D01*
X144375000Y-85281214D01*
X144341277Y-85344305D01*
X144288385Y-85518668D01*
X144270525Y-85700000D01*
X144288385Y-85881332D01*
X144341277Y-86055695D01*
X144375000Y-86118786D01*
X144375000Y-88100000D01*
X144377402Y-88124386D01*
X144384515Y-88147835D01*
X144396066Y-88169446D01*
X144411612Y-88188388D01*
X144430554Y-88203934D01*
X144452165Y-88215485D01*
X144475614Y-88222598D01*
X144500000Y-88225000D01*
X147500000Y-88225000D01*
X147524386Y-88222598D01*
X147547835Y-88215485D01*
X147569446Y-88203934D01*
X147588388Y-88188388D01*
X147603934Y-88169446D01*
X147606306Y-88165008D01*
X147661573Y-88194548D01*
X147741686Y-88218850D01*
X147825000Y-88227056D01*
X148675000Y-88227056D01*
X148758314Y-88218850D01*
X148838427Y-88194548D01*
X148912260Y-88155084D01*
X148976974Y-88101974D01*
X149030084Y-88037260D01*
X149069548Y-87963427D01*
X149081205Y-87925000D01*
X149163363Y-87925000D01*
X149169916Y-87937260D01*
X149223026Y-88001974D01*
X149287740Y-88055084D01*
X149361573Y-88094548D01*
X149441686Y-88118850D01*
X149525000Y-88127056D01*
X150475000Y-88127056D01*
X150558314Y-88118850D01*
X150638427Y-88094548D01*
X150712260Y-88055084D01*
X150776974Y-88001974D01*
X150830084Y-87937260D01*
X150869548Y-87863427D01*
X150885755Y-87810000D01*
X151211902Y-87810000D01*
X151201425Y-87816073D01*
X151094670Y-87910024D01*
X151008295Y-88022997D01*
X150945620Y-88150650D01*
X150913263Y-88266960D01*
X151006755Y-88380000D01*
X152275000Y-88380000D01*
X152275000Y-88360000D01*
X152325000Y-88360000D01*
X152325000Y-88380000D01*
X152345000Y-88380000D01*
X152345000Y-88430000D01*
X152325000Y-88430000D01*
X152325000Y-89130000D01*
X152875000Y-89130000D01*
X152875000Y-96475000D01*
X133525000Y-96475000D01*
X133525000Y-88543040D01*
X150913263Y-88543040D01*
X150945620Y-88659350D01*
X151008295Y-88787003D01*
X151094670Y-88899976D01*
X151201425Y-88993927D01*
X151324458Y-89065246D01*
X151459040Y-89111192D01*
X151600000Y-89130000D01*
X152275000Y-89130000D01*
X152275000Y-88430000D01*
X151006755Y-88430000D01*
X150913263Y-88543040D01*
X133525000Y-88543040D01*
X133525000Y-79250000D01*
X142422944Y-79250000D01*
X142422944Y-80350000D01*
X142431150Y-80433314D01*
X142455452Y-80513427D01*
X142494916Y-80587260D01*
X142548026Y-80651974D01*
X142612740Y-80705084D01*
X142686573Y-80744548D01*
X142766686Y-80768850D01*
X142850000Y-80777056D01*
X143450000Y-80777056D01*
X143533314Y-80768850D01*
X143613427Y-80744548D01*
X143687260Y-80705084D01*
X143751974Y-80651974D01*
X143805084Y-80587260D01*
X143844548Y-80513427D01*
X143868850Y-80433314D01*
X143877056Y-80350000D01*
X143877056Y-79250000D01*
X143868850Y-79166686D01*
X143844548Y-79086573D01*
X143805084Y-79012740D01*
X143751974Y-78948026D01*
X143687260Y-78894916D01*
X143613427Y-78855452D01*
X143533314Y-78831150D01*
X143450000Y-78822944D01*
X142850000Y-78822944D01*
X142766686Y-78831150D01*
X142686573Y-78855452D01*
X142612740Y-78894916D01*
X142548026Y-78948026D01*
X142494916Y-79012740D01*
X142455452Y-79086573D01*
X142431150Y-79166686D01*
X142422944Y-79250000D01*
X133525000Y-79250000D01*
X133525000Y-77050000D01*
X142422944Y-77050000D01*
X142422944Y-78150000D01*
X142431150Y-78233314D01*
X142455452Y-78313427D01*
X142494916Y-78387260D01*
X142548026Y-78451974D01*
X142612740Y-78505084D01*
X142686573Y-78544548D01*
X142766686Y-78568850D01*
X142850000Y-78577056D01*
X143450000Y-78577056D01*
X143533314Y-78568850D01*
X143613427Y-78544548D01*
X143625878Y-78537893D01*
X143676032Y-78558668D01*
X143758141Y-78575000D01*
X143968750Y-78575000D01*
X144075000Y-78468750D01*
X144075000Y-77625000D01*
X144055000Y-77625000D01*
X144055000Y-77575000D01*
X144075000Y-77575000D01*
X144075000Y-77555000D01*
X144125000Y-77555000D01*
X144125000Y-77575000D01*
X144145000Y-77575000D01*
X144145000Y-77625000D01*
X144125000Y-77625000D01*
X144125000Y-78468750D01*
X144231250Y-78575000D01*
X144441859Y-78575000D01*
X144523968Y-78558668D01*
X144574122Y-78537893D01*
X144586573Y-78544548D01*
X144666686Y-78568850D01*
X144750000Y-78577056D01*
X145350000Y-78577056D01*
X145433314Y-78568850D01*
X145513427Y-78544548D01*
X145587260Y-78505084D01*
X145651974Y-78451974D01*
X145705084Y-78387260D01*
X145744548Y-78313427D01*
X145768850Y-78233314D01*
X145777056Y-78150000D01*
X145777056Y-77050000D01*
X145768850Y-76966686D01*
X145744548Y-76886573D01*
X145722967Y-76846197D01*
X145715233Y-76767677D01*
X145700735Y-76719881D01*
X145676636Y-76640439D01*
X145667285Y-76622944D01*
X145613958Y-76523176D01*
X145529606Y-76420394D01*
X145507261Y-76402056D01*
X146025000Y-76402056D01*
X146108314Y-76393850D01*
X146188427Y-76369548D01*
X146262260Y-76330084D01*
X146268455Y-76325000D01*
X146316853Y-76325000D01*
X146375000Y-76383147D01*
X146375000Y-76945434D01*
X146388385Y-77081331D01*
X146422944Y-77195258D01*
X146422944Y-77500000D01*
X146431150Y-77583314D01*
X146455452Y-77663427D01*
X146494916Y-77737260D01*
X146548026Y-77801974D01*
X146612740Y-77855084D01*
X146686573Y-77894548D01*
X146766686Y-77918850D01*
X146850000Y-77927056D01*
X147750000Y-77927056D01*
X147833314Y-77918850D01*
X147913427Y-77894548D01*
X147987260Y-77855084D01*
X148051974Y-77801974D01*
X148105084Y-77737260D01*
X148144548Y-77663427D01*
X148168850Y-77583314D01*
X148177056Y-77500000D01*
X148177056Y-77195259D01*
X148211615Y-77081332D01*
X148225000Y-76945435D01*
X148225000Y-76045426D01*
X148229474Y-75999999D01*
X148225000Y-75954572D01*
X148225000Y-75954565D01*
X148211615Y-75818668D01*
X148158723Y-75644305D01*
X148072830Y-75483611D01*
X148004212Y-75400000D01*
X148072830Y-75316389D01*
X148158723Y-75155695D01*
X148211615Y-74981332D01*
X148225000Y-74845435D01*
X148225000Y-74845428D01*
X148229474Y-74800001D01*
X148225000Y-74754574D01*
X148225000Y-73754565D01*
X148211615Y-73618668D01*
X148177056Y-73504741D01*
X148177056Y-73200000D01*
X148168850Y-73116686D01*
X148144548Y-73036573D01*
X148105084Y-72962740D01*
X148051974Y-72898026D01*
X147987260Y-72844916D01*
X147913427Y-72805452D01*
X147833314Y-72781150D01*
X147750000Y-72772944D01*
X146850000Y-72772944D01*
X146766686Y-72781150D01*
X146686573Y-72805452D01*
X146612740Y-72844916D01*
X146548026Y-72898026D01*
X146494916Y-72962740D01*
X146455452Y-73036573D01*
X146450000Y-73054546D01*
X146450000Y-72983141D01*
X146433667Y-72901032D01*
X146401630Y-72823687D01*
X146355119Y-72754078D01*
X146295922Y-72694881D01*
X146226313Y-72648370D01*
X146148968Y-72616332D01*
X146066859Y-72600000D01*
X145431250Y-72600000D01*
X145325000Y-72706250D01*
X145325000Y-73575000D01*
X145345000Y-73575000D01*
X145345000Y-73625000D01*
X145325000Y-73625000D01*
X145325000Y-73645000D01*
X145275000Y-73645000D01*
X145275000Y-73625000D01*
X145255000Y-73625000D01*
X145255000Y-73575000D01*
X145275000Y-73575000D01*
X145275000Y-72706250D01*
X145168750Y-72600000D01*
X144533141Y-72600000D01*
X144451032Y-72616332D01*
X144373687Y-72648370D01*
X144304078Y-72694881D01*
X144244881Y-72754078D01*
X144198370Y-72823687D01*
X144166333Y-72901032D01*
X144150000Y-72983141D01*
X144150000Y-73081592D01*
X144116859Y-73075000D01*
X143731250Y-73075000D01*
X143625000Y-73181250D01*
X143625000Y-73925000D01*
X143645000Y-73925000D01*
X143645000Y-73975000D01*
X143625000Y-73975000D01*
X143625000Y-73995000D01*
X143575000Y-73995000D01*
X143575000Y-73975000D01*
X142806250Y-73975000D01*
X142700000Y-74081250D01*
X142700000Y-74441859D01*
X142716333Y-74523968D01*
X142748370Y-74601313D01*
X142794881Y-74670922D01*
X142822557Y-74698598D01*
X142769916Y-74762740D01*
X142730452Y-74836573D01*
X142706150Y-74916686D01*
X142697944Y-75000000D01*
X142697944Y-75237156D01*
X142688385Y-75268668D01*
X142673709Y-75417674D01*
X142670395Y-75420394D01*
X142649264Y-75446142D01*
X142649256Y-75446150D01*
X142586043Y-75523176D01*
X142523365Y-75640439D01*
X142484767Y-75767677D01*
X142471735Y-75900000D01*
X142475001Y-75933162D01*
X142475000Y-76850000D01*
X142455452Y-76886573D01*
X142431150Y-76966686D01*
X142422944Y-77050000D01*
X133525000Y-77050000D01*
X133525000Y-73458141D01*
X142700000Y-73458141D01*
X142700000Y-73818750D01*
X142806250Y-73925000D01*
X143575000Y-73925000D01*
X143575000Y-73181250D01*
X143468750Y-73075000D01*
X143083141Y-73075000D01*
X143001032Y-73091332D01*
X142923687Y-73123370D01*
X142854078Y-73169881D01*
X142794881Y-73229078D01*
X142748370Y-73298687D01*
X142716333Y-73376032D01*
X142700000Y-73458141D01*
X133525000Y-73458141D01*
X133525000Y-72525000D01*
X152875000Y-72525000D01*
X152875000Y-72782944D01*
M02*
