G04 #@! TF.GenerationSoftware,KiCad,Pcbnew,6.0.0-rc1-unknown-5edf350~66~ubuntu18.10.1*
G04 #@! TF.CreationDate,2019-02-07T09:47:30-05:00
G04 #@! TF.ProjectId,current_sensor,63757272-656e-4745-9f73-656e736f722e,rev?*
G04 #@! TF.SameCoordinates,Original*
G04 #@! TF.FileFunction,Copper,L2,Bot*
G04 #@! TF.FilePolarity,Positive*
%FSLAX46Y46*%
G04 Gerber Fmt 4.6, Leading zero omitted, Abs format (unit mm)*
G04 Created by KiCad (PCBNEW 6.0.0-rc1-unknown-5edf350~66~ubuntu18.10.1) date 2019-02-07 09:47:30*
%MOMM*%
%LPD*%
G04 APERTURE LIST*
%ADD10R,20.000000X7.500000*%
%ADD11C,0.800000*%
%ADD12C,0.500000*%
%ADD13C,0.254000*%
G04 APERTURE END LIST*
D10*
X143000000Y-75750000D03*
X143000000Y-93250000D03*
D11*
X161500000Y-93000000D03*
X170300000Y-95900000D03*
X169300000Y-95900000D03*
X169300000Y-94900000D03*
X169300000Y-93900000D03*
X161500000Y-95900000D03*
X162500000Y-95900000D03*
X163500000Y-95900000D03*
X163500000Y-94900000D03*
X163500000Y-93900000D03*
X162600000Y-89600000D03*
X169300000Y-82900000D03*
X169300000Y-83900000D03*
X163764272Y-90210144D03*
X163585651Y-91298110D03*
X162463188Y-83337213D03*
X162600000Y-82200000D03*
X163270745Y-86628392D03*
X167200000Y-75300000D03*
X167200000Y-77300000D03*
X166600000Y-81900000D03*
X162600000Y-81200000D03*
X162600000Y-80200000D03*
X161600000Y-89600000D03*
X169900000Y-87100000D03*
X170132528Y-85476529D03*
X167180400Y-88470994D03*
X145900000Y-85700000D03*
X145200000Y-85700000D03*
X145900000Y-87300000D03*
X151528698Y-89450934D03*
X152507488Y-89450934D03*
X150000000Y-81500000D03*
X151000000Y-81500000D03*
X151000000Y-80500000D03*
X150000000Y-80500000D03*
X145200000Y-87300000D03*
D12*
X170132528Y-85518866D02*
X170132528Y-85476529D01*
X167180400Y-88470994D02*
X170132528Y-85518866D01*
X145200000Y-85700000D02*
X145200000Y-77950000D01*
X145200000Y-77950000D02*
X143000000Y-75750000D01*
X145200000Y-87300000D02*
X145200000Y-91050000D01*
X145200000Y-91050000D02*
X143000000Y-93250000D01*
D13*
G36*
X144315000Y-85161546D02*
G01*
X144282795Y-85209744D01*
X144204774Y-85398102D01*
X144165000Y-85598061D01*
X144165000Y-85801939D01*
X144204774Y-86001898D01*
X144282795Y-86190256D01*
X144396063Y-86359774D01*
X144540226Y-86503937D01*
X144709744Y-86617205D01*
X144898102Y-86695226D01*
X145098061Y-86735000D01*
X145301939Y-86735000D01*
X145501898Y-86695226D01*
X145550000Y-86675301D01*
X145598102Y-86695226D01*
X145798061Y-86735000D01*
X146001939Y-86735000D01*
X146201898Y-86695226D01*
X146390256Y-86617205D01*
X146559774Y-86503937D01*
X146703937Y-86359774D01*
X146817205Y-86190256D01*
X146895226Y-86001898D01*
X146935000Y-85801939D01*
X146935000Y-85598061D01*
X146895226Y-85398102D01*
X146817205Y-85209744D01*
X146703937Y-85040226D01*
X146559774Y-84896063D01*
X146390256Y-84782795D01*
X146201898Y-84704774D01*
X146085000Y-84681522D01*
X146085000Y-80138072D01*
X152873000Y-80138072D01*
X152873000Y-96265000D01*
X133735000Y-96265000D01*
X133735000Y-80138072D01*
X144315001Y-80138072D01*
X144315000Y-85161546D01*
X144315000Y-85161546D01*
G37*
X144315000Y-85161546D02*
X144282795Y-85209744D01*
X144204774Y-85398102D01*
X144165000Y-85598061D01*
X144165000Y-85801939D01*
X144204774Y-86001898D01*
X144282795Y-86190256D01*
X144396063Y-86359774D01*
X144540226Y-86503937D01*
X144709744Y-86617205D01*
X144898102Y-86695226D01*
X145098061Y-86735000D01*
X145301939Y-86735000D01*
X145501898Y-86695226D01*
X145550000Y-86675301D01*
X145598102Y-86695226D01*
X145798061Y-86735000D01*
X146001939Y-86735000D01*
X146201898Y-86695226D01*
X146390256Y-86617205D01*
X146559774Y-86503937D01*
X146703937Y-86359774D01*
X146817205Y-86190256D01*
X146895226Y-86001898D01*
X146935000Y-85801939D01*
X146935000Y-85598061D01*
X146895226Y-85398102D01*
X146817205Y-85209744D01*
X146703937Y-85040226D01*
X146559774Y-84896063D01*
X146390256Y-84782795D01*
X146201898Y-84704774D01*
X146085000Y-84681522D01*
X146085000Y-80138072D01*
X152873000Y-80138072D01*
X152873000Y-96265000D01*
X133735000Y-96265000D01*
X133735000Y-80138072D01*
X144315001Y-80138072D01*
X144315000Y-85161546D01*
G36*
X172265001Y-96265000D02*
G01*
X161127000Y-96265000D01*
X161127000Y-92487077D01*
X162455000Y-92487077D01*
X162455000Y-92692923D01*
X162495159Y-92894815D01*
X162573933Y-93084993D01*
X162688296Y-93256148D01*
X162833852Y-93401704D01*
X163005007Y-93516067D01*
X163195185Y-93594841D01*
X163397077Y-93635000D01*
X163602923Y-93635000D01*
X163804815Y-93594841D01*
X163994993Y-93516067D01*
X164166148Y-93401704D01*
X164311704Y-93256148D01*
X164426067Y-93084993D01*
X164504841Y-92894815D01*
X164545000Y-92692923D01*
X164545000Y-92487077D01*
X168255000Y-92487077D01*
X168255000Y-92692923D01*
X168295159Y-92894815D01*
X168373933Y-93084993D01*
X168488296Y-93256148D01*
X168633852Y-93401704D01*
X168805007Y-93516067D01*
X168995185Y-93594841D01*
X169197077Y-93635000D01*
X169402923Y-93635000D01*
X169604815Y-93594841D01*
X169794993Y-93516067D01*
X169966148Y-93401704D01*
X170111704Y-93256148D01*
X170226067Y-93084993D01*
X170304841Y-92894815D01*
X170345000Y-92692923D01*
X170345000Y-92487077D01*
X170304841Y-92285185D01*
X170226067Y-92095007D01*
X170111704Y-91923852D01*
X169966148Y-91778296D01*
X169794993Y-91663933D01*
X169604815Y-91585159D01*
X169402923Y-91545000D01*
X169197077Y-91545000D01*
X168995185Y-91585159D01*
X168805007Y-91663933D01*
X168633852Y-91778296D01*
X168488296Y-91923852D01*
X168373933Y-92095007D01*
X168295159Y-92285185D01*
X168255000Y-92487077D01*
X164545000Y-92487077D01*
X164504841Y-92285185D01*
X164426067Y-92095007D01*
X164311704Y-91923852D01*
X164166148Y-91778296D01*
X163994993Y-91663933D01*
X163804815Y-91585159D01*
X163602923Y-91545000D01*
X163397077Y-91545000D01*
X163195185Y-91585159D01*
X163005007Y-91663933D01*
X162833852Y-91778296D01*
X162688296Y-91923852D01*
X162573933Y-92095007D01*
X162495159Y-92285185D01*
X162455000Y-92487077D01*
X161127000Y-92487077D01*
X161127000Y-88369055D01*
X166145400Y-88369055D01*
X166145400Y-88572933D01*
X166185174Y-88772892D01*
X166263195Y-88961250D01*
X166376463Y-89130768D01*
X166520626Y-89274931D01*
X166690144Y-89388199D01*
X166878502Y-89466220D01*
X167078461Y-89505994D01*
X167282339Y-89505994D01*
X167482298Y-89466220D01*
X167670656Y-89388199D01*
X167840174Y-89274931D01*
X167984337Y-89130768D01*
X168097605Y-88961250D01*
X168175626Y-88772892D01*
X168186935Y-88716037D01*
X170430421Y-86472552D01*
X170434426Y-86471755D01*
X170622784Y-86393734D01*
X170792302Y-86280466D01*
X170936465Y-86136303D01*
X171049733Y-85966785D01*
X171127754Y-85778427D01*
X171167528Y-85578468D01*
X171167528Y-85374590D01*
X171127754Y-85174631D01*
X171049733Y-84986273D01*
X170936465Y-84816755D01*
X170792302Y-84672592D01*
X170622784Y-84559324D01*
X170434426Y-84481303D01*
X170234467Y-84441529D01*
X170030589Y-84441529D01*
X169830630Y-84481303D01*
X169642272Y-84559324D01*
X169472754Y-84672592D01*
X169328591Y-84816755D01*
X169215323Y-84986273D01*
X169137302Y-85174631D01*
X169115481Y-85284334D01*
X166935357Y-87464459D01*
X166878502Y-87475768D01*
X166690144Y-87553789D01*
X166520626Y-87667057D01*
X166376463Y-87811220D01*
X166263195Y-87980738D01*
X166185174Y-88169096D01*
X166145400Y-88369055D01*
X161127000Y-88369055D01*
X161127000Y-72735000D01*
X172265000Y-72735000D01*
X172265001Y-96265000D01*
X172265001Y-96265000D01*
G37*
X172265001Y-96265000D02*
X161127000Y-96265000D01*
X161127000Y-92487077D01*
X162455000Y-92487077D01*
X162455000Y-92692923D01*
X162495159Y-92894815D01*
X162573933Y-93084993D01*
X162688296Y-93256148D01*
X162833852Y-93401704D01*
X163005007Y-93516067D01*
X163195185Y-93594841D01*
X163397077Y-93635000D01*
X163602923Y-93635000D01*
X163804815Y-93594841D01*
X163994993Y-93516067D01*
X164166148Y-93401704D01*
X164311704Y-93256148D01*
X164426067Y-93084993D01*
X164504841Y-92894815D01*
X164545000Y-92692923D01*
X164545000Y-92487077D01*
X168255000Y-92487077D01*
X168255000Y-92692923D01*
X168295159Y-92894815D01*
X168373933Y-93084993D01*
X168488296Y-93256148D01*
X168633852Y-93401704D01*
X168805007Y-93516067D01*
X168995185Y-93594841D01*
X169197077Y-93635000D01*
X169402923Y-93635000D01*
X169604815Y-93594841D01*
X169794993Y-93516067D01*
X169966148Y-93401704D01*
X170111704Y-93256148D01*
X170226067Y-93084993D01*
X170304841Y-92894815D01*
X170345000Y-92692923D01*
X170345000Y-92487077D01*
X170304841Y-92285185D01*
X170226067Y-92095007D01*
X170111704Y-91923852D01*
X169966148Y-91778296D01*
X169794993Y-91663933D01*
X169604815Y-91585159D01*
X169402923Y-91545000D01*
X169197077Y-91545000D01*
X168995185Y-91585159D01*
X168805007Y-91663933D01*
X168633852Y-91778296D01*
X168488296Y-91923852D01*
X168373933Y-92095007D01*
X168295159Y-92285185D01*
X168255000Y-92487077D01*
X164545000Y-92487077D01*
X164504841Y-92285185D01*
X164426067Y-92095007D01*
X164311704Y-91923852D01*
X164166148Y-91778296D01*
X163994993Y-91663933D01*
X163804815Y-91585159D01*
X163602923Y-91545000D01*
X163397077Y-91545000D01*
X163195185Y-91585159D01*
X163005007Y-91663933D01*
X162833852Y-91778296D01*
X162688296Y-91923852D01*
X162573933Y-92095007D01*
X162495159Y-92285185D01*
X162455000Y-92487077D01*
X161127000Y-92487077D01*
X161127000Y-88369055D01*
X166145400Y-88369055D01*
X166145400Y-88572933D01*
X166185174Y-88772892D01*
X166263195Y-88961250D01*
X166376463Y-89130768D01*
X166520626Y-89274931D01*
X166690144Y-89388199D01*
X166878502Y-89466220D01*
X167078461Y-89505994D01*
X167282339Y-89505994D01*
X167482298Y-89466220D01*
X167670656Y-89388199D01*
X167840174Y-89274931D01*
X167984337Y-89130768D01*
X168097605Y-88961250D01*
X168175626Y-88772892D01*
X168186935Y-88716037D01*
X170430421Y-86472552D01*
X170434426Y-86471755D01*
X170622784Y-86393734D01*
X170792302Y-86280466D01*
X170936465Y-86136303D01*
X171049733Y-85966785D01*
X171127754Y-85778427D01*
X171167528Y-85578468D01*
X171167528Y-85374590D01*
X171127754Y-85174631D01*
X171049733Y-84986273D01*
X170936465Y-84816755D01*
X170792302Y-84672592D01*
X170622784Y-84559324D01*
X170434426Y-84481303D01*
X170234467Y-84441529D01*
X170030589Y-84441529D01*
X169830630Y-84481303D01*
X169642272Y-84559324D01*
X169472754Y-84672592D01*
X169328591Y-84816755D01*
X169215323Y-84986273D01*
X169137302Y-85174631D01*
X169115481Y-85284334D01*
X166935357Y-87464459D01*
X166878502Y-87475768D01*
X166690144Y-87553789D01*
X166520626Y-87667057D01*
X166376463Y-87811220D01*
X166263195Y-87980738D01*
X166185174Y-88169096D01*
X166145400Y-88369055D01*
X161127000Y-88369055D01*
X161127000Y-72735000D01*
X172265000Y-72735000D01*
X172265001Y-96265000D01*
M02*
