M48
; DRILL file {KiCad 6.0.0-rc1-unknown-5edf350~66~ubuntu18.10.1} date Thu 07 Feb 2019 09:47:42 AM EST
; FORMAT={2:4/ absolute / inch / suppress leading zeros}
; #@! TF.CreationDate,2019-02-07T09:47:42-05:00
; #@! TF.GenerationSoftware,Kicad,Pcbnew,6.0.0-rc1-unknown-5edf350~66~ubuntu18.10.1
FMAT,2
INCH,TZ
T1C0.0157
T2C0.0323
%
G90
G05
T1
X57165Y-33740
X57165Y-34370
X57441Y-33740
X57441Y-34370
X59055Y-31693
X59055Y-32087
X59449Y-31693
X59449Y-32087
X59657Y-35217
X60042Y-35217
X63583Y-36614
X63583Y-37756
X63622Y-35276
X63962Y-32810
X63976Y-37756
X64016Y-31575
X64016Y-31969
X64016Y-32362
X64016Y-35276
X64280Y-34106
X64370Y-36969
X64370Y-37362
X64370Y-37756
X64404Y-35944
X64474Y-35516
X65591Y-32244
X65819Y-34831
X65827Y-29646
X65827Y-30433
X66654Y-32638
X66654Y-33031
X66654Y-36969
X66654Y-37362
X66654Y-37756
X66890Y-34291
X66981Y-33652
X67047Y-37756
T2
X64370Y-36453
X66654Y-36453
T0
M30
