G04 #@! TF.GenerationSoftware,KiCad,Pcbnew,6.0.0-rc1-unknown-5edf350~66~ubuntu18.10.1*
G04 #@! TF.CreationDate,2019-02-07T09:47:30-05:00
G04 #@! TF.ProjectId,current_sensor,63757272-656e-4745-9f73-656e736f722e,rev?*
G04 #@! TF.SameCoordinates,Original*
G04 #@! TF.FileFunction,Soldermask,Top*
G04 #@! TF.FilePolarity,Negative*
%FSLAX46Y46*%
G04 Gerber Fmt 4.6, Leading zero omitted, Abs format (unit mm)*
G04 Created by KiCad (PCBNEW 6.0.0-rc1-unknown-5edf350~66~ubuntu18.10.1) date 2019-02-07 09:47:30*
%MOMM*%
%LPD*%
G04 APERTURE LIST*
%ADD10R,1.100000X1.400000*%
%ADD11R,1.050000X1.200000*%
%ADD12R,1.150000X1.650000*%
%ADD13R,1.100000X1.150000*%
%ADD14C,1.020000*%
%ADD15R,0.900000X2.000000*%
%ADD16R,1.800000X2.400000*%
%ADD17R,1.300000X0.800000*%
%ADD18R,1.500000X1.300000*%
%ADD19R,1.150000X1.100000*%
%ADD20R,1.650000X1.350000*%
%ADD21R,1.350000X1.650000*%
%ADD22O,2.150000X0.800000*%
%ADD23R,0.800000X1.300000*%
G04 APERTURE END LIST*
D10*
X150500000Y-76900000D03*
X147300000Y-76900000D03*
D11*
X166150000Y-89000000D03*
X164650000Y-89000000D03*
D12*
X168400000Y-88900000D03*
X170400000Y-88900000D03*
D10*
X167100000Y-83400000D03*
X170300000Y-83400000D03*
D13*
X169750000Y-86600000D03*
X168250000Y-86600000D03*
D14*
X163500000Y-92590000D03*
X169300000Y-92590000D03*
D15*
X164525000Y-91200000D03*
X165775000Y-91200000D03*
X167025000Y-91200000D03*
X168275000Y-91200000D03*
D16*
X162175000Y-94500000D03*
X170625000Y-94500000D03*
D17*
X164300000Y-85650000D03*
X164300000Y-87550000D03*
X164300000Y-86600000D03*
X166500000Y-87550000D03*
X166500000Y-85650000D03*
X166500000Y-86600000D03*
D18*
X161570000Y-78840000D03*
X161570000Y-76300000D03*
X161570000Y-73760000D03*
X152430000Y-73760000D03*
X152430000Y-76300000D03*
X152430000Y-78840000D03*
D19*
X163800000Y-82250000D03*
X163800000Y-83750000D03*
X150000000Y-83850000D03*
X150000000Y-82350000D03*
X150000000Y-87250000D03*
X150000000Y-85750000D03*
X143600000Y-75450000D03*
X143600000Y-73950000D03*
D13*
X163850000Y-80700000D03*
X165350000Y-80700000D03*
X165350000Y-79200000D03*
X163850000Y-79200000D03*
D19*
X165400000Y-82250000D03*
X165400000Y-83750000D03*
D20*
X145300000Y-73600000D03*
X145300000Y-75400000D03*
D21*
X147000000Y-79900000D03*
X148800000Y-79900000D03*
D11*
X168250000Y-85100000D03*
X169750000Y-85100000D03*
X148250000Y-87300000D03*
X146750000Y-87300000D03*
X148250000Y-85700000D03*
X146750000Y-85700000D03*
D22*
X152300000Y-84595000D03*
X152300000Y-85865000D03*
X152300000Y-87135000D03*
X152300000Y-88405000D03*
X161700000Y-88405000D03*
X161700000Y-87135000D03*
X161700000Y-85865000D03*
X161700000Y-84595000D03*
D10*
X147300000Y-73800000D03*
X150500000Y-73800000D03*
D23*
X145050000Y-79800000D03*
X143150000Y-79800000D03*
X144100000Y-77600000D03*
X143150000Y-77600000D03*
X145050000Y-77600000D03*
D17*
X163600000Y-75350000D03*
X163600000Y-77250000D03*
X163600000Y-76300000D03*
X165800000Y-77250000D03*
X165800000Y-75350000D03*
M02*
