G04 #@! TF.GenerationSoftware,KiCad,Pcbnew,(5.1.0-1152-gc9ccd8a64)*
G04 #@! TF.CreationDate,2019-07-16T08:49:00-04:00*
G04 #@! TF.ProjectId,current_sensor,63757272-656e-4745-9f73-656e736f722e,rev?*
G04 #@! TF.SameCoordinates,Original*
G04 #@! TF.FileFunction,Copper,L1,Top*
G04 #@! TF.FilePolarity,Positive*
%FSLAX46Y46*%
G04 Gerber Fmt 4.6, Leading zero omitted, Abs format (unit mm)*
G04 Created by KiCad (PCBNEW (5.1.0-1152-gc9ccd8a64)) date 2019-07-16 08:49:00*
%MOMM*%
%LPD*%
G04 APERTURE LIST*
%ADD10R,2.000000X2.600000*%
%ADD11O,2.000000X2.600000*%
%ADD12R,0.900000X1.200000*%
%ADD13R,0.850000X1.000000*%
%ADD14R,0.950000X1.450000*%
%ADD15R,0.900000X0.950000*%
%ADD16R,1.100000X0.600000*%
%ADD17R,1.300000X1.100000*%
%ADD18R,0.950000X0.900000*%
%ADD19R,1.450000X1.150000*%
%ADD20R,1.150000X1.450000*%
%ADD21O,1.950000X0.600000*%
%ADD22R,0.600000X1.100000*%
%ADD23C,0.800000*%
%ADD24C,0.500000*%
%ADD25C,1.000000*%
%ADD26C,0.250000*%
G04 APERTURE END LIST*
D10*
X170800000Y-93500000D03*
D11*
X168260000Y-93500000D03*
X165720000Y-93500000D03*
X163180000Y-93500000D03*
D12*
X150500000Y-76900000D03*
X147300000Y-76900000D03*
D13*
X166150000Y-89000000D03*
X164650000Y-89000000D03*
D14*
X168400000Y-88900000D03*
X170400000Y-88900000D03*
D12*
X167100000Y-83400000D03*
X170300000Y-83400000D03*
D15*
X169750000Y-86600000D03*
X168250000Y-86600000D03*
D16*
X164300000Y-85650000D03*
X164300000Y-87550000D03*
X164300000Y-86600000D03*
X166500000Y-87550000D03*
X166500000Y-85650000D03*
X166500000Y-86600000D03*
D17*
X161570000Y-78840000D03*
X161570000Y-76300000D03*
X161570000Y-73760000D03*
X152430000Y-73760000D03*
X152430000Y-76300000D03*
X152430000Y-78840000D03*
D18*
X163800000Y-82250000D03*
X163800000Y-83750000D03*
X150000000Y-83850000D03*
X150000000Y-82350000D03*
X150000000Y-87250000D03*
X150000000Y-85750000D03*
X143600000Y-75450000D03*
X143600000Y-73950000D03*
D15*
X163850000Y-80700000D03*
X165350000Y-80700000D03*
X165350000Y-79200000D03*
X163850000Y-79200000D03*
D18*
X165400000Y-82250000D03*
X165400000Y-83750000D03*
D19*
X145300000Y-73600000D03*
X145300000Y-75400000D03*
D20*
X147000000Y-79900000D03*
X148800000Y-79900000D03*
D13*
X168250000Y-85100000D03*
X169750000Y-85100000D03*
X148250000Y-87300000D03*
X146750000Y-87300000D03*
X148250000Y-85700000D03*
X146750000Y-85700000D03*
D21*
X152300000Y-84595000D03*
X152300000Y-85865000D03*
X152300000Y-87135000D03*
X152300000Y-88405000D03*
X161700000Y-88405000D03*
X161700000Y-87135000D03*
X161700000Y-85865000D03*
X161700000Y-84595000D03*
D12*
X147300000Y-73800000D03*
X150500000Y-73800000D03*
D22*
X145050000Y-79800000D03*
X143150000Y-79800000D03*
X144100000Y-77600000D03*
X143150000Y-77600000D03*
X145050000Y-77600000D03*
D16*
X163600000Y-75350000D03*
X163600000Y-77250000D03*
X163600000Y-76300000D03*
X165800000Y-77250000D03*
X165800000Y-75350000D03*
D23*
X145200000Y-85700000D03*
X145900000Y-85700000D03*
X145200000Y-87300000D03*
X150000000Y-80500000D03*
X151000000Y-80500000D03*
X151000000Y-81500000D03*
X150000000Y-81500000D03*
X152507488Y-89450934D03*
X151528698Y-89450934D03*
X145900000Y-87300000D03*
X167180400Y-88470994D03*
X170132528Y-85476529D03*
X169900000Y-87100000D03*
X161600000Y-89600000D03*
X162600000Y-80200000D03*
X162600000Y-81200000D03*
X166600000Y-81900000D03*
X167200000Y-77300000D03*
X167200000Y-75300000D03*
X163270745Y-86628392D03*
X162600000Y-82200000D03*
X162463188Y-83337213D03*
X169300000Y-83900000D03*
X169300000Y-82900000D03*
X162600000Y-89600000D03*
X163500000Y-93900000D03*
D24*
X162019990Y-87454990D02*
X161700000Y-87135000D01*
X163039576Y-87550000D02*
X162944566Y-87454990D01*
X162944566Y-87454990D02*
X162019990Y-87454990D01*
X164300000Y-87550000D02*
X163039576Y-87550000D01*
X164300000Y-85650000D02*
X161915000Y-85650000D01*
X161915000Y-85650000D02*
X161700000Y-85865000D01*
D25*
X145200000Y-85700000D02*
X146750000Y-85700000D01*
X146750000Y-85700000D02*
X145900000Y-85700000D01*
X146900000Y-79800000D02*
X147000000Y-79900000D01*
X145050000Y-79800000D02*
X146900000Y-79800000D01*
X150745000Y-84595000D02*
X150000000Y-83850000D01*
X152300000Y-84595000D02*
X150745000Y-84595000D01*
X148525000Y-83850000D02*
X150000000Y-83850000D01*
X147000000Y-82325000D02*
X148525000Y-83850000D01*
X147000000Y-79900000D02*
X147000000Y-82325000D01*
D24*
X150115000Y-87135000D02*
X150000000Y-87250000D01*
X152300000Y-87135000D02*
X150115000Y-87135000D01*
X148300000Y-87250000D02*
X148250000Y-87300000D01*
X150000000Y-87250000D02*
X148300000Y-87250000D01*
D25*
X168400000Y-89800000D02*
X170800000Y-92200000D01*
X168400000Y-88900000D02*
X168400000Y-89800000D01*
X170800000Y-92200000D02*
X170800000Y-93500000D01*
D24*
X168375000Y-88925000D02*
X168400000Y-88900000D01*
X167050000Y-85100000D02*
X166500000Y-85650000D01*
X168250000Y-85100000D02*
X167050000Y-85100000D01*
X166500000Y-87550000D02*
X166150000Y-87900000D01*
X166150000Y-87900000D02*
X166150000Y-88000000D01*
X166150000Y-88000000D02*
X166150000Y-89000000D01*
D25*
X152430000Y-76300000D02*
X151800000Y-76300000D01*
X149400000Y-79900000D02*
X150000000Y-80500000D01*
X148800000Y-79900000D02*
X149400000Y-79900000D01*
X150000000Y-80500000D02*
X151000000Y-80500000D01*
X151000000Y-80500000D02*
X151000000Y-81500000D01*
X151000000Y-81500000D02*
X150000000Y-81500000D01*
X150000000Y-81500000D02*
X150000000Y-80500000D01*
X150000000Y-82350000D02*
X150000000Y-81500000D01*
X150150000Y-82350000D02*
X151000000Y-81500000D01*
X150000000Y-82350000D02*
X150150000Y-82350000D01*
X150400000Y-79900000D02*
X151000000Y-80500000D01*
X148800000Y-79900000D02*
X150400000Y-79900000D01*
X152300000Y-89243446D02*
X152507488Y-89450934D01*
X152300000Y-88405000D02*
X152300000Y-89243446D01*
X152507488Y-89450934D02*
X151528698Y-89450934D01*
X151528698Y-89176302D02*
X152300000Y-88405000D01*
X151528698Y-89450934D02*
X151528698Y-89176302D01*
X145200000Y-87300000D02*
X146750000Y-87300000D01*
X148800000Y-76289998D02*
X148800000Y-79900000D01*
X149689998Y-75400000D02*
X148800000Y-76289998D01*
X151530000Y-75400000D02*
X149689998Y-75400000D01*
X152430000Y-76300000D02*
X151530000Y-75400000D01*
X146750000Y-87300000D02*
X145900000Y-87300000D01*
D24*
X164650000Y-90250000D02*
X165700000Y-91300000D01*
X164650000Y-89000000D02*
X164650000Y-90250000D01*
X165700000Y-91300000D02*
X165700000Y-93480000D01*
D26*
X165700000Y-93480000D02*
X165720000Y-93500000D01*
D24*
X150115000Y-85865000D02*
X150000000Y-85750000D01*
X152300000Y-85865000D02*
X150115000Y-85865000D01*
X148300000Y-85750000D02*
X148250000Y-85700000D01*
X150000000Y-85750000D02*
X148300000Y-85750000D01*
X167180400Y-88470994D02*
X167180400Y-92420400D01*
X167180400Y-92420400D02*
X168260000Y-93500000D01*
X167125000Y-88526394D02*
X167180400Y-88470994D01*
X169750000Y-85100000D02*
X169797473Y-85100000D01*
X169797473Y-85100000D02*
X170132528Y-85435055D01*
X170132528Y-85435055D02*
X170132528Y-85476529D01*
D25*
X151740000Y-78840000D02*
X150500000Y-77600000D01*
X152430000Y-78840000D02*
X151740000Y-78840000D01*
X150500000Y-76900000D02*
X150500000Y-77600000D01*
X152390000Y-73800000D02*
X152430000Y-73760000D01*
X150500000Y-73800000D02*
X152390000Y-73800000D01*
X147300000Y-76000000D02*
X146700000Y-75400000D01*
X146700000Y-75400000D02*
X145300000Y-75400000D01*
X147300000Y-74800000D02*
X146700000Y-75400000D01*
X147300000Y-73800000D02*
X147300000Y-74800000D01*
X145250000Y-75450000D02*
X145300000Y-75400000D01*
X143600000Y-75450000D02*
X145250000Y-75450000D01*
D24*
X143150000Y-75900000D02*
X143600000Y-75450000D01*
X143150000Y-77600000D02*
X143150000Y-75900000D01*
X145050000Y-76900000D02*
X143600000Y-75450000D01*
X145050000Y-77600000D02*
X145050000Y-76900000D01*
D25*
X147300000Y-76900000D02*
X147300000Y-76000000D01*
X169750000Y-86600000D02*
X169750000Y-86950000D01*
X169750000Y-86950000D02*
X169900000Y-87100000D01*
X165800000Y-75350000D02*
X165800000Y-77250000D01*
X162600000Y-80200000D02*
X162600000Y-81200000D01*
X163350000Y-80200000D02*
X163850000Y-80700000D01*
X162600000Y-80200000D02*
X163350000Y-80200000D01*
X163800000Y-82250000D02*
X163550000Y-82250000D01*
X163800000Y-82250000D02*
X165400000Y-82250000D01*
X167150000Y-77250000D02*
X167200000Y-77300000D01*
X165800000Y-77250000D02*
X167150000Y-77250000D01*
X167150000Y-75350000D02*
X167200000Y-75300000D01*
X165800000Y-75350000D02*
X167150000Y-75350000D01*
D24*
X163299137Y-86600000D02*
X163270745Y-86628392D01*
X164300000Y-86600000D02*
X163299137Y-86600000D01*
D25*
X165400000Y-82250000D02*
X165750000Y-81900000D01*
X165750000Y-81900000D02*
X166034315Y-81900000D01*
X166034315Y-81900000D02*
X166600000Y-81900000D01*
X163350000Y-81200000D02*
X163850000Y-80700000D01*
X162600000Y-81200000D02*
X163350000Y-81200000D01*
X162650000Y-82250000D02*
X162600000Y-82200000D01*
X163800000Y-82250000D02*
X162650000Y-82250000D01*
X163850000Y-80700000D02*
X163850000Y-79200000D01*
X162600000Y-83200401D02*
X162463188Y-83337213D01*
X162600000Y-82200000D02*
X162600000Y-83200401D01*
X162600000Y-82764998D02*
X162600000Y-83200401D01*
X163114998Y-82250000D02*
X162600000Y-82764998D01*
X163800000Y-82250000D02*
X163114998Y-82250000D01*
D24*
X169800000Y-83400000D02*
X169300000Y-83900000D01*
X170300000Y-83400000D02*
X169800000Y-83400000D01*
X169300000Y-83900000D02*
X169300000Y-82900000D01*
X169800000Y-82900000D02*
X170300000Y-83400000D01*
X169300000Y-82900000D02*
X169800000Y-82900000D01*
X169300000Y-82900000D02*
X169800000Y-83400000D01*
X169800000Y-83900000D02*
X170300000Y-83400000D01*
X169300000Y-83900000D02*
X169800000Y-83900000D01*
D25*
X161600000Y-88505000D02*
X161700000Y-88405000D01*
X161600000Y-89600000D02*
X161600000Y-88505000D01*
X162600000Y-89600000D02*
X161600000Y-89600000D01*
X162600000Y-89305000D02*
X161700000Y-88405000D01*
X162600000Y-89600000D02*
X162600000Y-89305000D01*
X171450001Y-82239999D02*
X171450001Y-83300000D01*
X171450001Y-83300000D02*
X171450001Y-85649999D01*
X162955000Y-84595000D02*
X163800000Y-83750000D01*
X161700000Y-84595000D02*
X162955000Y-84595000D01*
X163800000Y-83750000D02*
X165400000Y-83750000D01*
D24*
X164650000Y-76300000D02*
X164700000Y-76350000D01*
X163600000Y-76300000D02*
X164650000Y-76300000D01*
D25*
X165350000Y-79200000D02*
X165350000Y-80700000D01*
D24*
X163600000Y-76300000D02*
X161570000Y-76300000D01*
D25*
X167097060Y-83100010D02*
X167660525Y-82536545D01*
X166440000Y-83750000D02*
X167089990Y-83100010D01*
X165400000Y-83750000D02*
X166440000Y-83750000D01*
X167089990Y-83100010D02*
X167097060Y-83100010D01*
X167660525Y-82536545D02*
X167656990Y-82533010D01*
X169500000Y-80690000D02*
X167660525Y-82536545D01*
X165360000Y-80690000D02*
X165350000Y-80700000D01*
X169500000Y-80690000D02*
X165360000Y-80690000D01*
X165350000Y-78650000D02*
X164700000Y-78000000D01*
X165350000Y-79200000D02*
X165350000Y-78650000D01*
D24*
X164700000Y-76350000D02*
X164700000Y-78000000D01*
X166500000Y-86600000D02*
X168250000Y-86600000D01*
D25*
X170400000Y-88900000D02*
X170400000Y-88650000D01*
X171100000Y-87950000D02*
X171100000Y-86675000D01*
X170400000Y-88650000D02*
X171100000Y-87950000D01*
D24*
X168250000Y-86808014D02*
X168250000Y-86600000D01*
X170400000Y-88900000D02*
X170341986Y-88900000D01*
X170341986Y-88900000D02*
X168250000Y-86808014D01*
D25*
X171450001Y-85649999D02*
X171100000Y-86000000D01*
X169500000Y-80690000D02*
X169900002Y-80690000D01*
X171100000Y-86000000D02*
X171100000Y-86675000D01*
X169900002Y-80690000D02*
X170510002Y-81300000D01*
X170510002Y-81300000D02*
X171450001Y-82239999D01*
X161760000Y-78840000D02*
X161570000Y-78840000D01*
D24*
X163160000Y-77250000D02*
X161570000Y-78840000D01*
X163600000Y-77250000D02*
X163160000Y-77250000D01*
D25*
X161760000Y-73760000D02*
X161570000Y-73760000D01*
D24*
X163160000Y-75350000D02*
X161570000Y-73760000D01*
X163600000Y-75350000D02*
X163160000Y-75350000D01*
D26*
G36*
X152875000Y-72779123D02*
G01*
X151780000Y-72779123D01*
X151755613Y-72781525D01*
X151638559Y-72804809D01*
X151593500Y-72823473D01*
X151516383Y-72875000D01*
X151228583Y-72875000D01*
X151136500Y-72813473D01*
X151091441Y-72794809D01*
X150974387Y-72771525D01*
X150950000Y-72769123D01*
X150050000Y-72769123D01*
X150025613Y-72771525D01*
X149908559Y-72794809D01*
X149863500Y-72813473D01*
X149764266Y-72879778D01*
X149729778Y-72914266D01*
X149663473Y-73013500D01*
X149644809Y-73058559D01*
X149621525Y-73175613D01*
X149619123Y-73200000D01*
X149619123Y-73515858D01*
X149592515Y-73589765D01*
X149585461Y-73622952D01*
X149569408Y-73841550D01*
X149571538Y-73875412D01*
X149614862Y-74090274D01*
X149619123Y-74102509D01*
X149619123Y-74400000D01*
X149621525Y-74424387D01*
X149644809Y-74541441D01*
X149663473Y-74586500D01*
X149729778Y-74685734D01*
X149764266Y-74720222D01*
X149863500Y-74786527D01*
X149908559Y-74805191D01*
X150025613Y-74828475D01*
X150050000Y-74830877D01*
X150950000Y-74830877D01*
X150974387Y-74828475D01*
X151091441Y-74805191D01*
X151136500Y-74786527D01*
X151228583Y-74725000D01*
X151687871Y-74725000D01*
X151755613Y-74738475D01*
X151780000Y-74740877D01*
X152875000Y-74740877D01*
X152875000Y-75319123D01*
X152580000Y-75319123D01*
X152512420Y-75338966D01*
X152466296Y-75392196D01*
X152455000Y-75444123D01*
X152455000Y-77155877D01*
X152474843Y-77223457D01*
X152528073Y-77269581D01*
X152580000Y-77280877D01*
X152875000Y-77280877D01*
X152875000Y-77859123D01*
X152067270Y-77859123D01*
X151425000Y-77216854D01*
X151425000Y-77083684D01*
X151459778Y-77135734D01*
X151494266Y-77170222D01*
X151593500Y-77236527D01*
X151638559Y-77255191D01*
X151755613Y-77278475D01*
X151780000Y-77280877D01*
X152280000Y-77280877D01*
X152347580Y-77261034D01*
X152393704Y-77207804D01*
X152405000Y-77155877D01*
X152405000Y-76450000D01*
X152385157Y-76382420D01*
X152331927Y-76336296D01*
X152280000Y-76325000D01*
X151474123Y-76325000D01*
X151406543Y-76344843D01*
X151380877Y-76374463D01*
X151380877Y-76300000D01*
X151378475Y-76275613D01*
X151362658Y-76196095D01*
X151368966Y-76217580D01*
X151422196Y-76263704D01*
X151474123Y-76275000D01*
X152280000Y-76275000D01*
X152347580Y-76255157D01*
X152393704Y-76201927D01*
X152405000Y-76150000D01*
X152405000Y-75444123D01*
X152385157Y-75376543D01*
X152331927Y-75330419D01*
X152280000Y-75319123D01*
X151780000Y-75319123D01*
X151755613Y-75321525D01*
X151638559Y-75344809D01*
X151593500Y-75363473D01*
X151494266Y-75429778D01*
X151459778Y-75464266D01*
X151393473Y-75563500D01*
X151374809Y-75608559D01*
X151351525Y-75725613D01*
X151349123Y-75750000D01*
X151349123Y-76143910D01*
X151336527Y-76113500D01*
X151270222Y-76014266D01*
X151235734Y-75979778D01*
X151136500Y-75913473D01*
X151091441Y-75894809D01*
X150974387Y-75871525D01*
X150950000Y-75869123D01*
X150050000Y-75869123D01*
X150025613Y-75871525D01*
X149908559Y-75894809D01*
X149863500Y-75913473D01*
X149764266Y-75979778D01*
X149729778Y-76014266D01*
X149663473Y-76113500D01*
X149644809Y-76158559D01*
X149621525Y-76275613D01*
X149619123Y-76300000D01*
X149619123Y-76643900D01*
X149577732Y-76838629D01*
X149575000Y-76864618D01*
X149575000Y-77579454D01*
X149571173Y-77670759D01*
X149574366Y-77704538D01*
X149589429Y-77768760D01*
X149598383Y-77834123D01*
X149607507Y-77866802D01*
X149618246Y-77891617D01*
X149624418Y-77917933D01*
X149641281Y-77957468D01*
X149657648Y-77982671D01*
X149694557Y-78067962D01*
X149712133Y-78096983D01*
X149850072Y-78267322D01*
X149874805Y-78290548D01*
X149901065Y-78309210D01*
X151071376Y-79479522D01*
X151133254Y-79546815D01*
X151159398Y-79568443D01*
X151215465Y-79603206D01*
X151268009Y-79643089D01*
X151297567Y-79659744D01*
X151322702Y-79669696D01*
X151345684Y-79683945D01*
X151385564Y-79699976D01*
X151414963Y-79706225D01*
X151501363Y-79740433D01*
X151534312Y-79748526D01*
X151554820Y-79750682D01*
X151593501Y-79776527D01*
X151638559Y-79795191D01*
X151755613Y-79818475D01*
X151780000Y-79820877D01*
X152875000Y-79820877D01*
X152875000Y-83863084D01*
X152694317Y-83751056D01*
X152654437Y-83735025D01*
X152361372Y-83672732D01*
X152335383Y-83670000D01*
X151128146Y-83670000D01*
X150905877Y-83447731D01*
X150905877Y-83400000D01*
X150903475Y-83375613D01*
X150880191Y-83258559D01*
X150861527Y-83213500D01*
X150795222Y-83114266D01*
X150780956Y-83100000D01*
X150795222Y-83085734D01*
X150861527Y-82986500D01*
X150880191Y-82941441D01*
X150903475Y-82824387D01*
X150905877Y-82800000D01*
X150905877Y-82500000D01*
X150886034Y-82432420D01*
X150832804Y-82386296D01*
X150780877Y-82375000D01*
X149219123Y-82375000D01*
X149151543Y-82394843D01*
X149105419Y-82448073D01*
X149094123Y-82500000D01*
X149094123Y-82800000D01*
X149096525Y-82824387D01*
X149116539Y-82925000D01*
X148908147Y-82925000D01*
X147925000Y-81941854D01*
X147925000Y-81900000D01*
X149094123Y-81900000D01*
X149094123Y-82200000D01*
X149113966Y-82267580D01*
X149167196Y-82313704D01*
X149219123Y-82325000D01*
X149850000Y-82325000D01*
X149917580Y-82305157D01*
X149963704Y-82251927D01*
X149975000Y-82200000D01*
X149975000Y-81594123D01*
X150025000Y-81594123D01*
X150025000Y-82200000D01*
X150044843Y-82267580D01*
X150098073Y-82313704D01*
X150150000Y-82325000D01*
X150780877Y-82325000D01*
X150848457Y-82305157D01*
X150894581Y-82251927D01*
X150905877Y-82200000D01*
X150905877Y-81900000D01*
X150903475Y-81875613D01*
X150880191Y-81758559D01*
X150861527Y-81713500D01*
X150795222Y-81614266D01*
X150760734Y-81579778D01*
X150661500Y-81513473D01*
X150616441Y-81494809D01*
X150499387Y-81471525D01*
X150475000Y-81469123D01*
X150150000Y-81469123D01*
X150082420Y-81488966D01*
X150036296Y-81542196D01*
X150025000Y-81594123D01*
X149975000Y-81594123D01*
X149955157Y-81526543D01*
X149901927Y-81480419D01*
X149850000Y-81469123D01*
X149525000Y-81469123D01*
X149500613Y-81471525D01*
X149383559Y-81494809D01*
X149338500Y-81513473D01*
X149239266Y-81579778D01*
X149204778Y-81614266D01*
X149138473Y-81713500D01*
X149119809Y-81758559D01*
X149096525Y-81875613D01*
X149094123Y-81900000D01*
X147925000Y-81900000D01*
X147925000Y-80930956D01*
X147939266Y-80945222D01*
X148038500Y-81011527D01*
X148083559Y-81030191D01*
X148200613Y-81053475D01*
X148225000Y-81055877D01*
X148650000Y-81055877D01*
X148717580Y-81036034D01*
X148763704Y-80982804D01*
X148775000Y-80930877D01*
X148775000Y-80050000D01*
X148825000Y-80050000D01*
X148825000Y-80930877D01*
X148844843Y-80998457D01*
X148898073Y-81044581D01*
X148950000Y-81055877D01*
X149375000Y-81055877D01*
X149399387Y-81053475D01*
X149516441Y-81030191D01*
X149561500Y-81011527D01*
X149660734Y-80945222D01*
X149695222Y-80910734D01*
X149761527Y-80811500D01*
X149780191Y-80766441D01*
X149803475Y-80649387D01*
X149805877Y-80625000D01*
X149805877Y-80050000D01*
X149786034Y-79982420D01*
X149732804Y-79936296D01*
X149680877Y-79925000D01*
X148950000Y-79925000D01*
X148882420Y-79944843D01*
X148836296Y-79998073D01*
X148825000Y-80050000D01*
X148775000Y-80050000D01*
X148775000Y-78869123D01*
X148825000Y-78869123D01*
X148825000Y-79750000D01*
X148844843Y-79817580D01*
X148898073Y-79863704D01*
X148950000Y-79875000D01*
X149680877Y-79875000D01*
X149748457Y-79855157D01*
X149794581Y-79801927D01*
X149805877Y-79750000D01*
X149805877Y-79175000D01*
X149803475Y-79150613D01*
X149780191Y-79033559D01*
X149761527Y-78988500D01*
X149695222Y-78889266D01*
X149660734Y-78854778D01*
X149561500Y-78788473D01*
X149516441Y-78769809D01*
X149399387Y-78746525D01*
X149375000Y-78744123D01*
X148950000Y-78744123D01*
X148882420Y-78763966D01*
X148836296Y-78817196D01*
X148825000Y-78869123D01*
X148775000Y-78869123D01*
X148755157Y-78801543D01*
X148701927Y-78755419D01*
X148650000Y-78744123D01*
X148225000Y-78744123D01*
X148200613Y-78746525D01*
X148083559Y-78769809D01*
X148038500Y-78788473D01*
X147939266Y-78854778D01*
X147904778Y-78889266D01*
X147900000Y-78896417D01*
X147895222Y-78889266D01*
X147860734Y-78854778D01*
X147761500Y-78788473D01*
X147716441Y-78769809D01*
X147599387Y-78746525D01*
X147575000Y-78744123D01*
X146425000Y-78744123D01*
X146400613Y-78746525D01*
X146283559Y-78769809D01*
X146238500Y-78788473D01*
X146139266Y-78854778D01*
X146119044Y-78875000D01*
X145553751Y-78875000D01*
X145536499Y-78863473D01*
X145491441Y-78844809D01*
X145374387Y-78821525D01*
X145350000Y-78819123D01*
X144750000Y-78819123D01*
X144725613Y-78821525D01*
X144608559Y-78844809D01*
X144563500Y-78863473D01*
X144464266Y-78929778D01*
X144429778Y-78964266D01*
X144363473Y-79063500D01*
X144344809Y-79108559D01*
X144321525Y-79225613D01*
X144321232Y-79228584D01*
X144232481Y-79353469D01*
X144216762Y-79383537D01*
X144142515Y-79589765D01*
X144135461Y-79622952D01*
X144119408Y-79841550D01*
X144121538Y-79875412D01*
X144164862Y-80090274D01*
X144176020Y-80122316D01*
X144275529Y-80317612D01*
X144294893Y-80345473D01*
X144321537Y-80374448D01*
X144344809Y-80491441D01*
X144363473Y-80536500D01*
X144429778Y-80635734D01*
X144464266Y-80670222D01*
X144563500Y-80736527D01*
X144608559Y-80755191D01*
X144725613Y-80778475D01*
X144750000Y-80780877D01*
X145350000Y-80780877D01*
X145374387Y-80778475D01*
X145491441Y-80755191D01*
X145536499Y-80736527D01*
X145553751Y-80725000D01*
X146011566Y-80725000D01*
X146019809Y-80766441D01*
X146038473Y-80811499D01*
X146075000Y-80866167D01*
X146075001Y-82304431D01*
X146071173Y-82395759D01*
X146074366Y-82429539D01*
X146089430Y-82493764D01*
X146098383Y-82559122D01*
X146107508Y-82591801D01*
X146118244Y-82616611D01*
X146124418Y-82642933D01*
X146141282Y-82682470D01*
X146157649Y-82707672D01*
X146194556Y-82792961D01*
X146212133Y-82821983D01*
X146350072Y-82992322D01*
X146374805Y-83015548D01*
X146401065Y-83034210D01*
X147856389Y-84489536D01*
X147918255Y-84556815D01*
X147944398Y-84578443D01*
X148000465Y-84613206D01*
X148053009Y-84653089D01*
X148082568Y-84669745D01*
X148107707Y-84679698D01*
X148130683Y-84693944D01*
X148170562Y-84709975D01*
X148199957Y-84716223D01*
X148286363Y-84750434D01*
X148319314Y-84758527D01*
X148420133Y-84769123D01*
X147897629Y-84769123D01*
X147890229Y-84737659D01*
X147868301Y-84690949D01*
X147801861Y-84602968D01*
X147767913Y-84572020D01*
X147674176Y-84513981D01*
X147631340Y-84497386D01*
X147522968Y-84477128D01*
X147500000Y-84475000D01*
X144500000Y-84475000D01*
X144471381Y-84478320D01*
X144337659Y-84509771D01*
X144290949Y-84531699D01*
X144202968Y-84598139D01*
X144172020Y-84632087D01*
X144113981Y-84725824D01*
X144097386Y-84768660D01*
X144077128Y-84877032D01*
X144075000Y-84900000D01*
X144075000Y-88100000D01*
X144078320Y-88128619D01*
X144109771Y-88262341D01*
X144131699Y-88309051D01*
X144198139Y-88397032D01*
X144232087Y-88427980D01*
X144325824Y-88486019D01*
X144368660Y-88502614D01*
X144477032Y-88522872D01*
X144500000Y-88525000D01*
X147500000Y-88525000D01*
X147528619Y-88521680D01*
X147662341Y-88490229D01*
X147709051Y-88468301D01*
X147797032Y-88401861D01*
X147827980Y-88367913D01*
X147886019Y-88274176D01*
X147902614Y-88231340D01*
X147902701Y-88230877D01*
X148675000Y-88230877D01*
X148699387Y-88228475D01*
X148816441Y-88205191D01*
X148861500Y-88186527D01*
X148960734Y-88120222D01*
X148995222Y-88085734D01*
X149061527Y-87986500D01*
X149080191Y-87941441D01*
X149083461Y-87925000D01*
X149164197Y-87925000D01*
X149204778Y-87985734D01*
X149239266Y-88020222D01*
X149338500Y-88086527D01*
X149383559Y-88105191D01*
X149500613Y-88128475D01*
X149525000Y-88130877D01*
X150475000Y-88130877D01*
X150499387Y-88128475D01*
X150616441Y-88105191D01*
X150661500Y-88086527D01*
X150760734Y-88020222D01*
X150795222Y-87985734D01*
X150861527Y-87886500D01*
X150880191Y-87841441D01*
X150886445Y-87810000D01*
X151209477Y-87810000D01*
X151120980Y-87877906D01*
X151097906Y-87900980D01*
X151001732Y-88026316D01*
X150985416Y-88054576D01*
X150924959Y-88200534D01*
X150916513Y-88232053D01*
X150915640Y-88238684D01*
X150926493Y-88308276D01*
X150973247Y-88360953D01*
X151039571Y-88380000D01*
X152325000Y-88380000D01*
X152325000Y-89005000D01*
X152344843Y-89072580D01*
X152398073Y-89118704D01*
X152450000Y-89130000D01*
X152875000Y-89130000D01*
X152875000Y-96575000D01*
X133425000Y-96575000D01*
X133425000Y-88571316D01*
X150915640Y-88571316D01*
X150916513Y-88577947D01*
X150924959Y-88609466D01*
X150985416Y-88755423D01*
X151001732Y-88783683D01*
X151097906Y-88909020D01*
X151120980Y-88932094D01*
X151246317Y-89028268D01*
X151274577Y-89044584D01*
X151420534Y-89105041D01*
X151452053Y-89113487D01*
X151569361Y-89128931D01*
X151585677Y-89130000D01*
X152150000Y-89130000D01*
X152217580Y-89110157D01*
X152263704Y-89056927D01*
X152275000Y-89005000D01*
X152275000Y-88555000D01*
X152255157Y-88487420D01*
X152201927Y-88441296D01*
X152150000Y-88430000D01*
X151039571Y-88430000D01*
X150971991Y-88449843D01*
X150925867Y-88503073D01*
X150915640Y-88571316D01*
X133425000Y-88571316D01*
X133425000Y-79250000D01*
X142419123Y-79250000D01*
X142419123Y-80350000D01*
X142421525Y-80374387D01*
X142444809Y-80491441D01*
X142463473Y-80536500D01*
X142529778Y-80635734D01*
X142564266Y-80670222D01*
X142663500Y-80736527D01*
X142708559Y-80755191D01*
X142825613Y-80778475D01*
X142850000Y-80780877D01*
X143450000Y-80780877D01*
X143474387Y-80778475D01*
X143591441Y-80755191D01*
X143636500Y-80736527D01*
X143735734Y-80670222D01*
X143770222Y-80635734D01*
X143836527Y-80536500D01*
X143855191Y-80491441D01*
X143878475Y-80374387D01*
X143880877Y-80350000D01*
X143880877Y-79250000D01*
X143878475Y-79225613D01*
X143855191Y-79108559D01*
X143836527Y-79063500D01*
X143770222Y-78964266D01*
X143735734Y-78929778D01*
X143636500Y-78863473D01*
X143591441Y-78844809D01*
X143474387Y-78821525D01*
X143450000Y-78819123D01*
X142850000Y-78819123D01*
X142825613Y-78821525D01*
X142708559Y-78844809D01*
X142663500Y-78863473D01*
X142564266Y-78929778D01*
X142529778Y-78964266D01*
X142463473Y-79063500D01*
X142444809Y-79108559D01*
X142421525Y-79225613D01*
X142419123Y-79250000D01*
X133425000Y-79250000D01*
X133425000Y-77050000D01*
X142419123Y-77050000D01*
X142419123Y-78150000D01*
X142421525Y-78174387D01*
X142444809Y-78291441D01*
X142463473Y-78336500D01*
X142529778Y-78435734D01*
X142564266Y-78470222D01*
X142663500Y-78536527D01*
X142708559Y-78555191D01*
X142825613Y-78578475D01*
X142850000Y-78580877D01*
X143450000Y-78580877D01*
X143474387Y-78578475D01*
X143591441Y-78555191D01*
X143625000Y-78541290D01*
X143658559Y-78555191D01*
X143775613Y-78578475D01*
X143800000Y-78580877D01*
X143950000Y-78580877D01*
X144017580Y-78561034D01*
X144063704Y-78507804D01*
X144075000Y-78455877D01*
X144075000Y-77575000D01*
X144125000Y-77575000D01*
X144125000Y-78455877D01*
X144144843Y-78523457D01*
X144198073Y-78569581D01*
X144250000Y-78580877D01*
X144400000Y-78580877D01*
X144424387Y-78578475D01*
X144541441Y-78555191D01*
X144575000Y-78541290D01*
X144608559Y-78555191D01*
X144725613Y-78578475D01*
X144750000Y-78580877D01*
X145350000Y-78580877D01*
X145374387Y-78578475D01*
X145491441Y-78555191D01*
X145536500Y-78536527D01*
X145635734Y-78470222D01*
X145670222Y-78435734D01*
X145736527Y-78336500D01*
X145755191Y-78291441D01*
X145778475Y-78174387D01*
X145780877Y-78150000D01*
X145780877Y-77050000D01*
X145778475Y-77025613D01*
X145755191Y-76908559D01*
X145736527Y-76863501D01*
X145724240Y-76845111D01*
X145723303Y-76833784D01*
X145718490Y-76804868D01*
X145709598Y-76729741D01*
X145702482Y-76708689D01*
X145700846Y-76698858D01*
X145687550Y-76660025D01*
X145600602Y-76498883D01*
X145575444Y-76466450D01*
X145517236Y-76412643D01*
X145510470Y-76405877D01*
X146025000Y-76405877D01*
X146049387Y-76403475D01*
X146166441Y-76380191D01*
X146211500Y-76361527D01*
X146266167Y-76325000D01*
X146316854Y-76325000D01*
X146375000Y-76383146D01*
X146375000Y-76954904D01*
X146376157Y-76971869D01*
X146398383Y-77134122D01*
X146407507Y-77166800D01*
X146419123Y-77193643D01*
X146419123Y-77500000D01*
X146421525Y-77524387D01*
X146444809Y-77641441D01*
X146463473Y-77686500D01*
X146529778Y-77785734D01*
X146564266Y-77820222D01*
X146663500Y-77886527D01*
X146708559Y-77905191D01*
X146825613Y-77928475D01*
X146850000Y-77930877D01*
X147750000Y-77930877D01*
X147774387Y-77928475D01*
X147891441Y-77905191D01*
X147936500Y-77886527D01*
X148035734Y-77820222D01*
X148070222Y-77785734D01*
X148136527Y-77686500D01*
X148155191Y-77641441D01*
X148178475Y-77524387D01*
X148180877Y-77500000D01*
X148180877Y-77156101D01*
X148222268Y-76961372D01*
X148225000Y-76935383D01*
X148225000Y-76020546D01*
X148228827Y-75929240D01*
X148225634Y-75895460D01*
X148210572Y-75831244D01*
X148201618Y-75765878D01*
X148192493Y-75733198D01*
X148181756Y-75708387D01*
X148175583Y-75682067D01*
X148158718Y-75642530D01*
X148142355Y-75617333D01*
X148105445Y-75532039D01*
X148087868Y-75503017D01*
X148008378Y-75404856D01*
X148028443Y-75380602D01*
X148063206Y-75324535D01*
X148103089Y-75271991D01*
X148119744Y-75242433D01*
X148129696Y-75217298D01*
X148143945Y-75194316D01*
X148159976Y-75154436D01*
X148166225Y-75125037D01*
X148200433Y-75038637D01*
X148208526Y-75005686D01*
X148231436Y-74787701D01*
X148230371Y-74753790D01*
X148225000Y-74722035D01*
X148225000Y-73745095D01*
X148223843Y-73728130D01*
X148201617Y-73565877D01*
X148192493Y-73533199D01*
X148180877Y-73506356D01*
X148180877Y-73200000D01*
X148178475Y-73175613D01*
X148155191Y-73058559D01*
X148136527Y-73013500D01*
X148070222Y-72914266D01*
X148035734Y-72879778D01*
X147936500Y-72813473D01*
X147891441Y-72794809D01*
X147774387Y-72771525D01*
X147750000Y-72769123D01*
X146850000Y-72769123D01*
X146825613Y-72771525D01*
X146708559Y-72794809D01*
X146663500Y-72813473D01*
X146564266Y-72879778D01*
X146529778Y-72914266D01*
X146463473Y-73013500D01*
X146455877Y-73031838D01*
X146455877Y-73025000D01*
X146453475Y-73000613D01*
X146430191Y-72883559D01*
X146411527Y-72838500D01*
X146345222Y-72739266D01*
X146310734Y-72704778D01*
X146211500Y-72638473D01*
X146166441Y-72619809D01*
X146049387Y-72596525D01*
X146025000Y-72594123D01*
X145450000Y-72594123D01*
X145382420Y-72613966D01*
X145336296Y-72667196D01*
X145325000Y-72719123D01*
X145325000Y-73625000D01*
X145275000Y-73625000D01*
X145275000Y-72719123D01*
X145255157Y-72651543D01*
X145201927Y-72605419D01*
X145150000Y-72594123D01*
X144575000Y-72594123D01*
X144550613Y-72596525D01*
X144433559Y-72619809D01*
X144388500Y-72638473D01*
X144289266Y-72704778D01*
X144254778Y-72739266D01*
X144188473Y-72838500D01*
X144169809Y-72883559D01*
X144146525Y-73000613D01*
X144144123Y-73025000D01*
X144144123Y-73080424D01*
X144099387Y-73071525D01*
X144075000Y-73069123D01*
X143750000Y-73069123D01*
X143682420Y-73088966D01*
X143636296Y-73142196D01*
X143625000Y-73194123D01*
X143625000Y-73975000D01*
X142819123Y-73975000D01*
X142751543Y-73994843D01*
X142705419Y-74048073D01*
X142694123Y-74100000D01*
X142694123Y-74400000D01*
X142696525Y-74424387D01*
X142719809Y-74541441D01*
X142738473Y-74586500D01*
X142804778Y-74685734D01*
X142819044Y-74700000D01*
X142804778Y-74714266D01*
X142738473Y-74813500D01*
X142719809Y-74858559D01*
X142696525Y-74975613D01*
X142694123Y-75000000D01*
X142694123Y-75235299D01*
X142692515Y-75239765D01*
X142685461Y-75272952D01*
X142675262Y-75411839D01*
X142644326Y-75451081D01*
X142640395Y-75455012D01*
X142627081Y-75470724D01*
X142610026Y-75494590D01*
X142563203Y-75553985D01*
X142553347Y-75573906D01*
X142547556Y-75582010D01*
X142529497Y-75618873D01*
X142477034Y-75794299D01*
X142471889Y-75835021D01*
X142475001Y-75914231D01*
X142475000Y-76846249D01*
X142463473Y-76863501D01*
X142444809Y-76908559D01*
X142421525Y-77025613D01*
X142419123Y-77050000D01*
X133425000Y-77050000D01*
X133425000Y-73500000D01*
X142694123Y-73500000D01*
X142694123Y-73800000D01*
X142713966Y-73867580D01*
X142767196Y-73913704D01*
X142819123Y-73925000D01*
X143450000Y-73925000D01*
X143517580Y-73905157D01*
X143563704Y-73851927D01*
X143575000Y-73800000D01*
X143575000Y-73194123D01*
X143555157Y-73126543D01*
X143501927Y-73080419D01*
X143450000Y-73069123D01*
X143125000Y-73069123D01*
X143100613Y-73071525D01*
X142983559Y-73094809D01*
X142938500Y-73113473D01*
X142839266Y-73179778D01*
X142804778Y-73214266D01*
X142738473Y-73313500D01*
X142719809Y-73358559D01*
X142696525Y-73475613D01*
X142694123Y-73500000D01*
X133425000Y-73500000D01*
X133425000Y-72425000D01*
X152875000Y-72425000D01*
X152875000Y-72779123D01*
X152875000Y-72779123D01*
G37*
X152875000Y-72779123D02*
X151780000Y-72779123D01*
X151755613Y-72781525D01*
X151638559Y-72804809D01*
X151593500Y-72823473D01*
X151516383Y-72875000D01*
X151228583Y-72875000D01*
X151136500Y-72813473D01*
X151091441Y-72794809D01*
X150974387Y-72771525D01*
X150950000Y-72769123D01*
X150050000Y-72769123D01*
X150025613Y-72771525D01*
X149908559Y-72794809D01*
X149863500Y-72813473D01*
X149764266Y-72879778D01*
X149729778Y-72914266D01*
X149663473Y-73013500D01*
X149644809Y-73058559D01*
X149621525Y-73175613D01*
X149619123Y-73200000D01*
X149619123Y-73515858D01*
X149592515Y-73589765D01*
X149585461Y-73622952D01*
X149569408Y-73841550D01*
X149571538Y-73875412D01*
X149614862Y-74090274D01*
X149619123Y-74102509D01*
X149619123Y-74400000D01*
X149621525Y-74424387D01*
X149644809Y-74541441D01*
X149663473Y-74586500D01*
X149729778Y-74685734D01*
X149764266Y-74720222D01*
X149863500Y-74786527D01*
X149908559Y-74805191D01*
X150025613Y-74828475D01*
X150050000Y-74830877D01*
X150950000Y-74830877D01*
X150974387Y-74828475D01*
X151091441Y-74805191D01*
X151136500Y-74786527D01*
X151228583Y-74725000D01*
X151687871Y-74725000D01*
X151755613Y-74738475D01*
X151780000Y-74740877D01*
X152875000Y-74740877D01*
X152875000Y-75319123D01*
X152580000Y-75319123D01*
X152512420Y-75338966D01*
X152466296Y-75392196D01*
X152455000Y-75444123D01*
X152455000Y-77155877D01*
X152474843Y-77223457D01*
X152528073Y-77269581D01*
X152580000Y-77280877D01*
X152875000Y-77280877D01*
X152875000Y-77859123D01*
X152067270Y-77859123D01*
X151425000Y-77216854D01*
X151425000Y-77083684D01*
X151459778Y-77135734D01*
X151494266Y-77170222D01*
X151593500Y-77236527D01*
X151638559Y-77255191D01*
X151755613Y-77278475D01*
X151780000Y-77280877D01*
X152280000Y-77280877D01*
X152347580Y-77261034D01*
X152393704Y-77207804D01*
X152405000Y-77155877D01*
X152405000Y-76450000D01*
X152385157Y-76382420D01*
X152331927Y-76336296D01*
X152280000Y-76325000D01*
X151474123Y-76325000D01*
X151406543Y-76344843D01*
X151380877Y-76374463D01*
X151380877Y-76300000D01*
X151378475Y-76275613D01*
X151362658Y-76196095D01*
X151368966Y-76217580D01*
X151422196Y-76263704D01*
X151474123Y-76275000D01*
X152280000Y-76275000D01*
X152347580Y-76255157D01*
X152393704Y-76201927D01*
X152405000Y-76150000D01*
X152405000Y-75444123D01*
X152385157Y-75376543D01*
X152331927Y-75330419D01*
X152280000Y-75319123D01*
X151780000Y-75319123D01*
X151755613Y-75321525D01*
X151638559Y-75344809D01*
X151593500Y-75363473D01*
X151494266Y-75429778D01*
X151459778Y-75464266D01*
X151393473Y-75563500D01*
X151374809Y-75608559D01*
X151351525Y-75725613D01*
X151349123Y-75750000D01*
X151349123Y-76143910D01*
X151336527Y-76113500D01*
X151270222Y-76014266D01*
X151235734Y-75979778D01*
X151136500Y-75913473D01*
X151091441Y-75894809D01*
X150974387Y-75871525D01*
X150950000Y-75869123D01*
X150050000Y-75869123D01*
X150025613Y-75871525D01*
X149908559Y-75894809D01*
X149863500Y-75913473D01*
X149764266Y-75979778D01*
X149729778Y-76014266D01*
X149663473Y-76113500D01*
X149644809Y-76158559D01*
X149621525Y-76275613D01*
X149619123Y-76300000D01*
X149619123Y-76643900D01*
X149577732Y-76838629D01*
X149575000Y-76864618D01*
X149575000Y-77579454D01*
X149571173Y-77670759D01*
X149574366Y-77704538D01*
X149589429Y-77768760D01*
X149598383Y-77834123D01*
X149607507Y-77866802D01*
X149618246Y-77891617D01*
X149624418Y-77917933D01*
X149641281Y-77957468D01*
X149657648Y-77982671D01*
X149694557Y-78067962D01*
X149712133Y-78096983D01*
X149850072Y-78267322D01*
X149874805Y-78290548D01*
X149901065Y-78309210D01*
X151071376Y-79479522D01*
X151133254Y-79546815D01*
X151159398Y-79568443D01*
X151215465Y-79603206D01*
X151268009Y-79643089D01*
X151297567Y-79659744D01*
X151322702Y-79669696D01*
X151345684Y-79683945D01*
X151385564Y-79699976D01*
X151414963Y-79706225D01*
X151501363Y-79740433D01*
X151534312Y-79748526D01*
X151554820Y-79750682D01*
X151593501Y-79776527D01*
X151638559Y-79795191D01*
X151755613Y-79818475D01*
X151780000Y-79820877D01*
X152875000Y-79820877D01*
X152875000Y-83863084D01*
X152694317Y-83751056D01*
X152654437Y-83735025D01*
X152361372Y-83672732D01*
X152335383Y-83670000D01*
X151128146Y-83670000D01*
X150905877Y-83447731D01*
X150905877Y-83400000D01*
X150903475Y-83375613D01*
X150880191Y-83258559D01*
X150861527Y-83213500D01*
X150795222Y-83114266D01*
X150780956Y-83100000D01*
X150795222Y-83085734D01*
X150861527Y-82986500D01*
X150880191Y-82941441D01*
X150903475Y-82824387D01*
X150905877Y-82800000D01*
X150905877Y-82500000D01*
X150886034Y-82432420D01*
X150832804Y-82386296D01*
X150780877Y-82375000D01*
X149219123Y-82375000D01*
X149151543Y-82394843D01*
X149105419Y-82448073D01*
X149094123Y-82500000D01*
X149094123Y-82800000D01*
X149096525Y-82824387D01*
X149116539Y-82925000D01*
X148908147Y-82925000D01*
X147925000Y-81941854D01*
X147925000Y-81900000D01*
X149094123Y-81900000D01*
X149094123Y-82200000D01*
X149113966Y-82267580D01*
X149167196Y-82313704D01*
X149219123Y-82325000D01*
X149850000Y-82325000D01*
X149917580Y-82305157D01*
X149963704Y-82251927D01*
X149975000Y-82200000D01*
X149975000Y-81594123D01*
X150025000Y-81594123D01*
X150025000Y-82200000D01*
X150044843Y-82267580D01*
X150098073Y-82313704D01*
X150150000Y-82325000D01*
X150780877Y-82325000D01*
X150848457Y-82305157D01*
X150894581Y-82251927D01*
X150905877Y-82200000D01*
X150905877Y-81900000D01*
X150903475Y-81875613D01*
X150880191Y-81758559D01*
X150861527Y-81713500D01*
X150795222Y-81614266D01*
X150760734Y-81579778D01*
X150661500Y-81513473D01*
X150616441Y-81494809D01*
X150499387Y-81471525D01*
X150475000Y-81469123D01*
X150150000Y-81469123D01*
X150082420Y-81488966D01*
X150036296Y-81542196D01*
X150025000Y-81594123D01*
X149975000Y-81594123D01*
X149955157Y-81526543D01*
X149901927Y-81480419D01*
X149850000Y-81469123D01*
X149525000Y-81469123D01*
X149500613Y-81471525D01*
X149383559Y-81494809D01*
X149338500Y-81513473D01*
X149239266Y-81579778D01*
X149204778Y-81614266D01*
X149138473Y-81713500D01*
X149119809Y-81758559D01*
X149096525Y-81875613D01*
X149094123Y-81900000D01*
X147925000Y-81900000D01*
X147925000Y-80930956D01*
X147939266Y-80945222D01*
X148038500Y-81011527D01*
X148083559Y-81030191D01*
X148200613Y-81053475D01*
X148225000Y-81055877D01*
X148650000Y-81055877D01*
X148717580Y-81036034D01*
X148763704Y-80982804D01*
X148775000Y-80930877D01*
X148775000Y-80050000D01*
X148825000Y-80050000D01*
X148825000Y-80930877D01*
X148844843Y-80998457D01*
X148898073Y-81044581D01*
X148950000Y-81055877D01*
X149375000Y-81055877D01*
X149399387Y-81053475D01*
X149516441Y-81030191D01*
X149561500Y-81011527D01*
X149660734Y-80945222D01*
X149695222Y-80910734D01*
X149761527Y-80811500D01*
X149780191Y-80766441D01*
X149803475Y-80649387D01*
X149805877Y-80625000D01*
X149805877Y-80050000D01*
X149786034Y-79982420D01*
X149732804Y-79936296D01*
X149680877Y-79925000D01*
X148950000Y-79925000D01*
X148882420Y-79944843D01*
X148836296Y-79998073D01*
X148825000Y-80050000D01*
X148775000Y-80050000D01*
X148775000Y-78869123D01*
X148825000Y-78869123D01*
X148825000Y-79750000D01*
X148844843Y-79817580D01*
X148898073Y-79863704D01*
X148950000Y-79875000D01*
X149680877Y-79875000D01*
X149748457Y-79855157D01*
X149794581Y-79801927D01*
X149805877Y-79750000D01*
X149805877Y-79175000D01*
X149803475Y-79150613D01*
X149780191Y-79033559D01*
X149761527Y-78988500D01*
X149695222Y-78889266D01*
X149660734Y-78854778D01*
X149561500Y-78788473D01*
X149516441Y-78769809D01*
X149399387Y-78746525D01*
X149375000Y-78744123D01*
X148950000Y-78744123D01*
X148882420Y-78763966D01*
X148836296Y-78817196D01*
X148825000Y-78869123D01*
X148775000Y-78869123D01*
X148755157Y-78801543D01*
X148701927Y-78755419D01*
X148650000Y-78744123D01*
X148225000Y-78744123D01*
X148200613Y-78746525D01*
X148083559Y-78769809D01*
X148038500Y-78788473D01*
X147939266Y-78854778D01*
X147904778Y-78889266D01*
X147900000Y-78896417D01*
X147895222Y-78889266D01*
X147860734Y-78854778D01*
X147761500Y-78788473D01*
X147716441Y-78769809D01*
X147599387Y-78746525D01*
X147575000Y-78744123D01*
X146425000Y-78744123D01*
X146400613Y-78746525D01*
X146283559Y-78769809D01*
X146238500Y-78788473D01*
X146139266Y-78854778D01*
X146119044Y-78875000D01*
X145553751Y-78875000D01*
X145536499Y-78863473D01*
X145491441Y-78844809D01*
X145374387Y-78821525D01*
X145350000Y-78819123D01*
X144750000Y-78819123D01*
X144725613Y-78821525D01*
X144608559Y-78844809D01*
X144563500Y-78863473D01*
X144464266Y-78929778D01*
X144429778Y-78964266D01*
X144363473Y-79063500D01*
X144344809Y-79108559D01*
X144321525Y-79225613D01*
X144321232Y-79228584D01*
X144232481Y-79353469D01*
X144216762Y-79383537D01*
X144142515Y-79589765D01*
X144135461Y-79622952D01*
X144119408Y-79841550D01*
X144121538Y-79875412D01*
X144164862Y-80090274D01*
X144176020Y-80122316D01*
X144275529Y-80317612D01*
X144294893Y-80345473D01*
X144321537Y-80374448D01*
X144344809Y-80491441D01*
X144363473Y-80536500D01*
X144429778Y-80635734D01*
X144464266Y-80670222D01*
X144563500Y-80736527D01*
X144608559Y-80755191D01*
X144725613Y-80778475D01*
X144750000Y-80780877D01*
X145350000Y-80780877D01*
X145374387Y-80778475D01*
X145491441Y-80755191D01*
X145536499Y-80736527D01*
X145553751Y-80725000D01*
X146011566Y-80725000D01*
X146019809Y-80766441D01*
X146038473Y-80811499D01*
X146075000Y-80866167D01*
X146075001Y-82304431D01*
X146071173Y-82395759D01*
X146074366Y-82429539D01*
X146089430Y-82493764D01*
X146098383Y-82559122D01*
X146107508Y-82591801D01*
X146118244Y-82616611D01*
X146124418Y-82642933D01*
X146141282Y-82682470D01*
X146157649Y-82707672D01*
X146194556Y-82792961D01*
X146212133Y-82821983D01*
X146350072Y-82992322D01*
X146374805Y-83015548D01*
X146401065Y-83034210D01*
X147856389Y-84489536D01*
X147918255Y-84556815D01*
X147944398Y-84578443D01*
X148000465Y-84613206D01*
X148053009Y-84653089D01*
X148082568Y-84669745D01*
X148107707Y-84679698D01*
X148130683Y-84693944D01*
X148170562Y-84709975D01*
X148199957Y-84716223D01*
X148286363Y-84750434D01*
X148319314Y-84758527D01*
X148420133Y-84769123D01*
X147897629Y-84769123D01*
X147890229Y-84737659D01*
X147868301Y-84690949D01*
X147801861Y-84602968D01*
X147767913Y-84572020D01*
X147674176Y-84513981D01*
X147631340Y-84497386D01*
X147522968Y-84477128D01*
X147500000Y-84475000D01*
X144500000Y-84475000D01*
X144471381Y-84478320D01*
X144337659Y-84509771D01*
X144290949Y-84531699D01*
X144202968Y-84598139D01*
X144172020Y-84632087D01*
X144113981Y-84725824D01*
X144097386Y-84768660D01*
X144077128Y-84877032D01*
X144075000Y-84900000D01*
X144075000Y-88100000D01*
X144078320Y-88128619D01*
X144109771Y-88262341D01*
X144131699Y-88309051D01*
X144198139Y-88397032D01*
X144232087Y-88427980D01*
X144325824Y-88486019D01*
X144368660Y-88502614D01*
X144477032Y-88522872D01*
X144500000Y-88525000D01*
X147500000Y-88525000D01*
X147528619Y-88521680D01*
X147662341Y-88490229D01*
X147709051Y-88468301D01*
X147797032Y-88401861D01*
X147827980Y-88367913D01*
X147886019Y-88274176D01*
X147902614Y-88231340D01*
X147902701Y-88230877D01*
X148675000Y-88230877D01*
X148699387Y-88228475D01*
X148816441Y-88205191D01*
X148861500Y-88186527D01*
X148960734Y-88120222D01*
X148995222Y-88085734D01*
X149061527Y-87986500D01*
X149080191Y-87941441D01*
X149083461Y-87925000D01*
X149164197Y-87925000D01*
X149204778Y-87985734D01*
X149239266Y-88020222D01*
X149338500Y-88086527D01*
X149383559Y-88105191D01*
X149500613Y-88128475D01*
X149525000Y-88130877D01*
X150475000Y-88130877D01*
X150499387Y-88128475D01*
X150616441Y-88105191D01*
X150661500Y-88086527D01*
X150760734Y-88020222D01*
X150795222Y-87985734D01*
X150861527Y-87886500D01*
X150880191Y-87841441D01*
X150886445Y-87810000D01*
X151209477Y-87810000D01*
X151120980Y-87877906D01*
X151097906Y-87900980D01*
X151001732Y-88026316D01*
X150985416Y-88054576D01*
X150924959Y-88200534D01*
X150916513Y-88232053D01*
X150915640Y-88238684D01*
X150926493Y-88308276D01*
X150973247Y-88360953D01*
X151039571Y-88380000D01*
X152325000Y-88380000D01*
X152325000Y-89005000D01*
X152344843Y-89072580D01*
X152398073Y-89118704D01*
X152450000Y-89130000D01*
X152875000Y-89130000D01*
X152875000Y-96575000D01*
X133425000Y-96575000D01*
X133425000Y-88571316D01*
X150915640Y-88571316D01*
X150916513Y-88577947D01*
X150924959Y-88609466D01*
X150985416Y-88755423D01*
X151001732Y-88783683D01*
X151097906Y-88909020D01*
X151120980Y-88932094D01*
X151246317Y-89028268D01*
X151274577Y-89044584D01*
X151420534Y-89105041D01*
X151452053Y-89113487D01*
X151569361Y-89128931D01*
X151585677Y-89130000D01*
X152150000Y-89130000D01*
X152217580Y-89110157D01*
X152263704Y-89056927D01*
X152275000Y-89005000D01*
X152275000Y-88555000D01*
X152255157Y-88487420D01*
X152201927Y-88441296D01*
X152150000Y-88430000D01*
X151039571Y-88430000D01*
X150971991Y-88449843D01*
X150925867Y-88503073D01*
X150915640Y-88571316D01*
X133425000Y-88571316D01*
X133425000Y-79250000D01*
X142419123Y-79250000D01*
X142419123Y-80350000D01*
X142421525Y-80374387D01*
X142444809Y-80491441D01*
X142463473Y-80536500D01*
X142529778Y-80635734D01*
X142564266Y-80670222D01*
X142663500Y-80736527D01*
X142708559Y-80755191D01*
X142825613Y-80778475D01*
X142850000Y-80780877D01*
X143450000Y-80780877D01*
X143474387Y-80778475D01*
X143591441Y-80755191D01*
X143636500Y-80736527D01*
X143735734Y-80670222D01*
X143770222Y-80635734D01*
X143836527Y-80536500D01*
X143855191Y-80491441D01*
X143878475Y-80374387D01*
X143880877Y-80350000D01*
X143880877Y-79250000D01*
X143878475Y-79225613D01*
X143855191Y-79108559D01*
X143836527Y-79063500D01*
X143770222Y-78964266D01*
X143735734Y-78929778D01*
X143636500Y-78863473D01*
X143591441Y-78844809D01*
X143474387Y-78821525D01*
X143450000Y-78819123D01*
X142850000Y-78819123D01*
X142825613Y-78821525D01*
X142708559Y-78844809D01*
X142663500Y-78863473D01*
X142564266Y-78929778D01*
X142529778Y-78964266D01*
X142463473Y-79063500D01*
X142444809Y-79108559D01*
X142421525Y-79225613D01*
X142419123Y-79250000D01*
X133425000Y-79250000D01*
X133425000Y-77050000D01*
X142419123Y-77050000D01*
X142419123Y-78150000D01*
X142421525Y-78174387D01*
X142444809Y-78291441D01*
X142463473Y-78336500D01*
X142529778Y-78435734D01*
X142564266Y-78470222D01*
X142663500Y-78536527D01*
X142708559Y-78555191D01*
X142825613Y-78578475D01*
X142850000Y-78580877D01*
X143450000Y-78580877D01*
X143474387Y-78578475D01*
X143591441Y-78555191D01*
X143625000Y-78541290D01*
X143658559Y-78555191D01*
X143775613Y-78578475D01*
X143800000Y-78580877D01*
X143950000Y-78580877D01*
X144017580Y-78561034D01*
X144063704Y-78507804D01*
X144075000Y-78455877D01*
X144075000Y-77575000D01*
X144125000Y-77575000D01*
X144125000Y-78455877D01*
X144144843Y-78523457D01*
X144198073Y-78569581D01*
X144250000Y-78580877D01*
X144400000Y-78580877D01*
X144424387Y-78578475D01*
X144541441Y-78555191D01*
X144575000Y-78541290D01*
X144608559Y-78555191D01*
X144725613Y-78578475D01*
X144750000Y-78580877D01*
X145350000Y-78580877D01*
X145374387Y-78578475D01*
X145491441Y-78555191D01*
X145536500Y-78536527D01*
X145635734Y-78470222D01*
X145670222Y-78435734D01*
X145736527Y-78336500D01*
X145755191Y-78291441D01*
X145778475Y-78174387D01*
X145780877Y-78150000D01*
X145780877Y-77050000D01*
X145778475Y-77025613D01*
X145755191Y-76908559D01*
X145736527Y-76863501D01*
X145724240Y-76845111D01*
X145723303Y-76833784D01*
X145718490Y-76804868D01*
X145709598Y-76729741D01*
X145702482Y-76708689D01*
X145700846Y-76698858D01*
X145687550Y-76660025D01*
X145600602Y-76498883D01*
X145575444Y-76466450D01*
X145517236Y-76412643D01*
X145510470Y-76405877D01*
X146025000Y-76405877D01*
X146049387Y-76403475D01*
X146166441Y-76380191D01*
X146211500Y-76361527D01*
X146266167Y-76325000D01*
X146316854Y-76325000D01*
X146375000Y-76383146D01*
X146375000Y-76954904D01*
X146376157Y-76971869D01*
X146398383Y-77134122D01*
X146407507Y-77166800D01*
X146419123Y-77193643D01*
X146419123Y-77500000D01*
X146421525Y-77524387D01*
X146444809Y-77641441D01*
X146463473Y-77686500D01*
X146529778Y-77785734D01*
X146564266Y-77820222D01*
X146663500Y-77886527D01*
X146708559Y-77905191D01*
X146825613Y-77928475D01*
X146850000Y-77930877D01*
X147750000Y-77930877D01*
X147774387Y-77928475D01*
X147891441Y-77905191D01*
X147936500Y-77886527D01*
X148035734Y-77820222D01*
X148070222Y-77785734D01*
X148136527Y-77686500D01*
X148155191Y-77641441D01*
X148178475Y-77524387D01*
X148180877Y-77500000D01*
X148180877Y-77156101D01*
X148222268Y-76961372D01*
X148225000Y-76935383D01*
X148225000Y-76020546D01*
X148228827Y-75929240D01*
X148225634Y-75895460D01*
X148210572Y-75831244D01*
X148201618Y-75765878D01*
X148192493Y-75733198D01*
X148181756Y-75708387D01*
X148175583Y-75682067D01*
X148158718Y-75642530D01*
X148142355Y-75617333D01*
X148105445Y-75532039D01*
X148087868Y-75503017D01*
X148008378Y-75404856D01*
X148028443Y-75380602D01*
X148063206Y-75324535D01*
X148103089Y-75271991D01*
X148119744Y-75242433D01*
X148129696Y-75217298D01*
X148143945Y-75194316D01*
X148159976Y-75154436D01*
X148166225Y-75125037D01*
X148200433Y-75038637D01*
X148208526Y-75005686D01*
X148231436Y-74787701D01*
X148230371Y-74753790D01*
X148225000Y-74722035D01*
X148225000Y-73745095D01*
X148223843Y-73728130D01*
X148201617Y-73565877D01*
X148192493Y-73533199D01*
X148180877Y-73506356D01*
X148180877Y-73200000D01*
X148178475Y-73175613D01*
X148155191Y-73058559D01*
X148136527Y-73013500D01*
X148070222Y-72914266D01*
X148035734Y-72879778D01*
X147936500Y-72813473D01*
X147891441Y-72794809D01*
X147774387Y-72771525D01*
X147750000Y-72769123D01*
X146850000Y-72769123D01*
X146825613Y-72771525D01*
X146708559Y-72794809D01*
X146663500Y-72813473D01*
X146564266Y-72879778D01*
X146529778Y-72914266D01*
X146463473Y-73013500D01*
X146455877Y-73031838D01*
X146455877Y-73025000D01*
X146453475Y-73000613D01*
X146430191Y-72883559D01*
X146411527Y-72838500D01*
X146345222Y-72739266D01*
X146310734Y-72704778D01*
X146211500Y-72638473D01*
X146166441Y-72619809D01*
X146049387Y-72596525D01*
X146025000Y-72594123D01*
X145450000Y-72594123D01*
X145382420Y-72613966D01*
X145336296Y-72667196D01*
X145325000Y-72719123D01*
X145325000Y-73625000D01*
X145275000Y-73625000D01*
X145275000Y-72719123D01*
X145255157Y-72651543D01*
X145201927Y-72605419D01*
X145150000Y-72594123D01*
X144575000Y-72594123D01*
X144550613Y-72596525D01*
X144433559Y-72619809D01*
X144388500Y-72638473D01*
X144289266Y-72704778D01*
X144254778Y-72739266D01*
X144188473Y-72838500D01*
X144169809Y-72883559D01*
X144146525Y-73000613D01*
X144144123Y-73025000D01*
X144144123Y-73080424D01*
X144099387Y-73071525D01*
X144075000Y-73069123D01*
X143750000Y-73069123D01*
X143682420Y-73088966D01*
X143636296Y-73142196D01*
X143625000Y-73194123D01*
X143625000Y-73975000D01*
X142819123Y-73975000D01*
X142751543Y-73994843D01*
X142705419Y-74048073D01*
X142694123Y-74100000D01*
X142694123Y-74400000D01*
X142696525Y-74424387D01*
X142719809Y-74541441D01*
X142738473Y-74586500D01*
X142804778Y-74685734D01*
X142819044Y-74700000D01*
X142804778Y-74714266D01*
X142738473Y-74813500D01*
X142719809Y-74858559D01*
X142696525Y-74975613D01*
X142694123Y-75000000D01*
X142694123Y-75235299D01*
X142692515Y-75239765D01*
X142685461Y-75272952D01*
X142675262Y-75411839D01*
X142644326Y-75451081D01*
X142640395Y-75455012D01*
X142627081Y-75470724D01*
X142610026Y-75494590D01*
X142563203Y-75553985D01*
X142553347Y-75573906D01*
X142547556Y-75582010D01*
X142529497Y-75618873D01*
X142477034Y-75794299D01*
X142471889Y-75835021D01*
X142475001Y-75914231D01*
X142475000Y-76846249D01*
X142463473Y-76863501D01*
X142444809Y-76908559D01*
X142421525Y-77025613D01*
X142419123Y-77050000D01*
X133425000Y-77050000D01*
X133425000Y-73500000D01*
X142694123Y-73500000D01*
X142694123Y-73800000D01*
X142713966Y-73867580D01*
X142767196Y-73913704D01*
X142819123Y-73925000D01*
X143450000Y-73925000D01*
X143517580Y-73905157D01*
X143563704Y-73851927D01*
X143575000Y-73800000D01*
X143575000Y-73194123D01*
X143555157Y-73126543D01*
X143501927Y-73080419D01*
X143450000Y-73069123D01*
X143125000Y-73069123D01*
X143100613Y-73071525D01*
X142983559Y-73094809D01*
X142938500Y-73113473D01*
X142839266Y-73179778D01*
X142804778Y-73214266D01*
X142738473Y-73313500D01*
X142719809Y-73358559D01*
X142696525Y-73475613D01*
X142694123Y-73500000D01*
X133425000Y-73500000D01*
X133425000Y-72425000D01*
X152875000Y-72425000D01*
X152875000Y-72779123D01*
M02*
