G04 #@! TF.GenerationSoftware,KiCad,Pcbnew,(5.1.0-1152-gc9ccd8a64)*
G04 #@! TF.CreationDate,2019-07-16T08:49:00-04:00*
G04 #@! TF.ProjectId,current_sensor,63757272-656e-4745-9f73-656e736f722e,rev?*
G04 #@! TF.SameCoordinates,Original*
G04 #@! TF.FileFunction,Paste,Top*
G04 #@! TF.FilePolarity,Positive*
%FSLAX46Y46*%
G04 Gerber Fmt 4.6, Leading zero omitted, Abs format (unit mm)*
G04 Created by KiCad (PCBNEW (5.1.0-1152-gc9ccd8a64)) date 2019-07-16 08:49:00*
%MOMM*%
%LPD*%
G04 APERTURE LIST*
%ADD10R,0.900000X1.200000*%
%ADD11R,0.850000X1.000000*%
%ADD12R,0.950000X1.450000*%
%ADD13R,0.900000X0.950000*%
%ADD14R,1.100000X0.600000*%
%ADD15R,1.300000X1.100000*%
%ADD16R,0.950000X0.900000*%
%ADD17R,1.450000X1.150000*%
%ADD18R,1.150000X1.450000*%
%ADD19O,1.950000X0.600000*%
%ADD20R,0.600000X1.100000*%
G04 APERTURE END LIST*
D10*
X150500000Y-76900000D03*
X147300000Y-76900000D03*
D11*
X166150000Y-89000000D03*
X164650000Y-89000000D03*
D12*
X168400000Y-88900000D03*
X170400000Y-88900000D03*
D10*
X167100000Y-83400000D03*
X170300000Y-83400000D03*
D13*
X169750000Y-86600000D03*
X168250000Y-86600000D03*
D14*
X164300000Y-85650000D03*
X164300000Y-87550000D03*
X164300000Y-86600000D03*
X166500000Y-87550000D03*
X166500000Y-85650000D03*
X166500000Y-86600000D03*
D15*
X161570000Y-78840000D03*
X161570000Y-76300000D03*
X161570000Y-73760000D03*
X152430000Y-73760000D03*
X152430000Y-76300000D03*
X152430000Y-78840000D03*
D16*
X163800000Y-82250000D03*
X163800000Y-83750000D03*
X150000000Y-83850000D03*
X150000000Y-82350000D03*
X150000000Y-87250000D03*
X150000000Y-85750000D03*
X143600000Y-75450000D03*
X143600000Y-73950000D03*
D13*
X163850000Y-80700000D03*
X165350000Y-80700000D03*
X165350000Y-79200000D03*
X163850000Y-79200000D03*
D16*
X165400000Y-82250000D03*
X165400000Y-83750000D03*
D17*
X145300000Y-73600000D03*
X145300000Y-75400000D03*
D18*
X147000000Y-79900000D03*
X148800000Y-79900000D03*
D11*
X168250000Y-85100000D03*
X169750000Y-85100000D03*
X148250000Y-87300000D03*
X146750000Y-87300000D03*
X148250000Y-85700000D03*
X146750000Y-85700000D03*
D19*
X152300000Y-84595000D03*
X152300000Y-85865000D03*
X152300000Y-87135000D03*
X152300000Y-88405000D03*
X161700000Y-88405000D03*
X161700000Y-87135000D03*
X161700000Y-85865000D03*
X161700000Y-84595000D03*
D10*
X147300000Y-73800000D03*
X150500000Y-73800000D03*
D20*
X145050000Y-79800000D03*
X143150000Y-79800000D03*
X144100000Y-77600000D03*
X143150000Y-77600000D03*
X145050000Y-77600000D03*
D14*
X163600000Y-75350000D03*
X163600000Y-77250000D03*
X163600000Y-76300000D03*
X165800000Y-77250000D03*
X165800000Y-75350000D03*
M02*
