G04 #@! TF.GenerationSoftware,KiCad,Pcbnew,5.1.0-rc2-unknown-d2d2101~82~ubuntu18.10.1*
G04 #@! TF.CreationDate,2019-03-08T15:06:41-05:00*
G04 #@! TF.ProjectId,LTC6811,4c544336-3831-4312-9e6b-696361645f70,rev?*
G04 #@! TF.SameCoordinates,Original*
G04 #@! TF.FileFunction,Copper,L1,Top*
G04 #@! TF.FilePolarity,Positive*
%FSLAX46Y46*%
G04 Gerber Fmt 4.6, Leading zero omitted, Abs format (unit mm)*
G04 Created by KiCad (PCBNEW 5.1.0-rc2-unknown-d2d2101~82~ubuntu18.10.1) date 2019-03-08 15:06:41*
%MOMM*%
%LPD*%
G04 APERTURE LIST*
%ADD10R,1.000000X3.200000*%
%ADD11R,2.650000X2.030000*%
%ADD12R,1.500000X1.250000*%
%ADD13R,1.200000X0.750000*%
%ADD14R,0.750000X1.200000*%
%ADD15O,1.700000X1.700000*%
%ADD16R,1.700000X1.700000*%
%ADD17O,2.600000X2.000000*%
%ADD18R,2.600000X2.000000*%
%ADD19R,2.000000X1.500000*%
%ADD20R,2.000000X3.800000*%
%ADD21R,0.900000X0.800000*%
%ADD22R,1.200000X0.900000*%
%ADD23R,0.900000X1.200000*%
%ADD24R,1.750000X1.000000*%
%ADD25R,1.753000X1.000000*%
%ADD26R,1.000000X0.285000*%
%ADD27C,5.400000*%
%ADD28C,0.800000*%
%ADD29R,1.000000X1.000000*%
%ADD30C,0.250000*%
%ADD31C,1.000000*%
%ADD32C,0.500000*%
%ADD33C,0.254000*%
G04 APERTURE END LIST*
D10*
X18850000Y-18850000D03*
X25050000Y-18850000D03*
D11*
X11860000Y-2925000D03*
X16040000Y-2925000D03*
D12*
X69550000Y-55950000D03*
X67050000Y-55950000D03*
X67050000Y-53700000D03*
X69550000Y-53700000D03*
D13*
X68650000Y-5500000D03*
X66750000Y-5500000D03*
X66750000Y-2500000D03*
X68650000Y-2500000D03*
D12*
X85300000Y-48300000D03*
X82800000Y-48300000D03*
D13*
X69950000Y-22000000D03*
X68050000Y-22000000D03*
X68050000Y-28000000D03*
X69950000Y-28000000D03*
D14*
X64300000Y-89750000D03*
X64300000Y-91650000D03*
X68300000Y-91650000D03*
X68300000Y-89750000D03*
X72300000Y-89750000D03*
X72300000Y-91650000D03*
X76300000Y-91650000D03*
X76300000Y-89750000D03*
X80300000Y-89750000D03*
X80300000Y-91650000D03*
D11*
X16040000Y-7300000D03*
X11860000Y-7300000D03*
X11860000Y-15000000D03*
X16040000Y-15000000D03*
X16040000Y-22750000D03*
X11860000Y-22750000D03*
X11860000Y-30450000D03*
X16040000Y-30450000D03*
X16040000Y-38150000D03*
X11860000Y-38150000D03*
X11860000Y-45850000D03*
X16040000Y-45850000D03*
X16040000Y-53650000D03*
X11860000Y-53650000D03*
X11910000Y-61350000D03*
X16090000Y-61350000D03*
X16040000Y-69050000D03*
X11860000Y-69050000D03*
X11860000Y-76750000D03*
X16040000Y-76750000D03*
X16040000Y-84450000D03*
X11860000Y-84450000D03*
D15*
X3300000Y-35920000D03*
X3300000Y-38460000D03*
X3300000Y-41000000D03*
X3300000Y-43540000D03*
X3300000Y-46080000D03*
X3300000Y-48620000D03*
X3300000Y-51160000D03*
X3300000Y-53700000D03*
X3300000Y-56240000D03*
X3300000Y-58780000D03*
X3300000Y-61320000D03*
X3300000Y-63860000D03*
D16*
X3300000Y-66400000D03*
D17*
X94000000Y-22540000D03*
D18*
X94000000Y-20000000D03*
X94000000Y-27000000D03*
D17*
X94000000Y-29540000D03*
D15*
X78961495Y-56000000D03*
X81501495Y-56000000D03*
D16*
X84041495Y-56000000D03*
X84000000Y-38000000D03*
D15*
X81460000Y-38000000D03*
X78920000Y-38000000D03*
D19*
X88050000Y-43800000D03*
X88050000Y-48400000D03*
X88050000Y-46100000D03*
D20*
X94350000Y-46100000D03*
D21*
X28950000Y-8250000D03*
X28950000Y-6350000D03*
X26950000Y-7300000D03*
X26950000Y-15000000D03*
X28950000Y-14050000D03*
X28950000Y-15950000D03*
X26950000Y-22750000D03*
X28950000Y-21800000D03*
X28950000Y-23700000D03*
X28950000Y-31400000D03*
X28950000Y-29500000D03*
X26950000Y-30450000D03*
X26950000Y-38150000D03*
X28950000Y-37200000D03*
X28950000Y-39100000D03*
X26950000Y-45850000D03*
X28950000Y-44900000D03*
X28950000Y-46800000D03*
X28950000Y-54600000D03*
X28950000Y-52700000D03*
X26950000Y-53650000D03*
X27000000Y-61350000D03*
X29000000Y-60400000D03*
X29000000Y-62300000D03*
X28950000Y-70000000D03*
X28950000Y-68100000D03*
X26950000Y-69050000D03*
X28950000Y-77700000D03*
X28950000Y-75800000D03*
X26950000Y-76750000D03*
X26950000Y-84450000D03*
X28950000Y-83500000D03*
X28950000Y-85400000D03*
X28950000Y-93400000D03*
X28950000Y-91500000D03*
X26950000Y-92450000D03*
D22*
X56900000Y-2500000D03*
X59100000Y-2500000D03*
X59100000Y-5500000D03*
X56900000Y-5500000D03*
X67100000Y-48000000D03*
X64900000Y-48000000D03*
X64900000Y-46000000D03*
X67100000Y-46000000D03*
D23*
X73000000Y-20800000D03*
X73000000Y-23000000D03*
X73000000Y-29100000D03*
X73000000Y-26900000D03*
X66300000Y-89600000D03*
X66300000Y-91800000D03*
X70300000Y-91800000D03*
X70300000Y-89600000D03*
X74300000Y-89600000D03*
X74300000Y-91800000D03*
X78300000Y-89600000D03*
X78300000Y-91800000D03*
X82300000Y-91800000D03*
X82300000Y-89600000D03*
D22*
X33050000Y-6300000D03*
X30850000Y-6300000D03*
X33050000Y-8300000D03*
X30850000Y-8300000D03*
X33050000Y-14000000D03*
X30850000Y-14000000D03*
X30850000Y-16000000D03*
X33050000Y-16000000D03*
X33050000Y-21750000D03*
X30850000Y-21750000D03*
X30850000Y-23750000D03*
X33050000Y-23750000D03*
X33050000Y-29450000D03*
X30850000Y-29450000D03*
X30850000Y-31450000D03*
X33050000Y-31450000D03*
X33050000Y-37150000D03*
X30850000Y-37150000D03*
X30850000Y-39150000D03*
X33050000Y-39150000D03*
X30850000Y-44850000D03*
X33050000Y-44850000D03*
X33050000Y-46850000D03*
X30850000Y-46850000D03*
X33050000Y-52650000D03*
X30850000Y-52650000D03*
X30850000Y-54650000D03*
X33050000Y-54650000D03*
X30900000Y-60350000D03*
X33100000Y-60350000D03*
X33100000Y-62350000D03*
X30900000Y-62350000D03*
X30850000Y-68050000D03*
X33050000Y-68050000D03*
X30850000Y-70050000D03*
X33050000Y-70050000D03*
X30850000Y-75750000D03*
X33050000Y-75750000D03*
X30850000Y-77750000D03*
X33050000Y-77750000D03*
X33050000Y-83450000D03*
X30850000Y-83450000D03*
X30850000Y-85450000D03*
X33050000Y-85450000D03*
X33050000Y-91450000D03*
X30850000Y-91450000D03*
X30850000Y-93450000D03*
X33050000Y-93450000D03*
D24*
X75125000Y-29900000D03*
X75125000Y-27900000D03*
X75125000Y-25900000D03*
X75125000Y-23900000D03*
X75125000Y-21900000D03*
D25*
X75125000Y-19900000D03*
D24*
X88875000Y-19900000D03*
X88875000Y-21900000D03*
X88875000Y-23900000D03*
X88875000Y-29900000D03*
X88875000Y-27900000D03*
X88875000Y-25900000D03*
D26*
X58050000Y-46950000D03*
X58050000Y-47450000D03*
X58050000Y-47950000D03*
X58050000Y-48450000D03*
X58050000Y-48950000D03*
X58050000Y-49450000D03*
X58050000Y-49950000D03*
X58050000Y-50450000D03*
X58050000Y-50950000D03*
X58050000Y-51450000D03*
X58050000Y-51950000D03*
X58050000Y-52450000D03*
X58050000Y-52950000D03*
X58050000Y-53450000D03*
X58050000Y-53950000D03*
X58050000Y-54450000D03*
X58050000Y-54950000D03*
X58050000Y-55450000D03*
X58050000Y-55950000D03*
X58050000Y-56450000D03*
X58050000Y-56950000D03*
X58050000Y-57450000D03*
X58050000Y-57950000D03*
X58050000Y-58450000D03*
X50550000Y-58450000D03*
X50550000Y-57950000D03*
X50550000Y-57450000D03*
X50550000Y-56950000D03*
X50550000Y-56450000D03*
X50550000Y-55950000D03*
X50550000Y-55450000D03*
X50550000Y-54950000D03*
X50550000Y-54450000D03*
X50550000Y-53950000D03*
X50550000Y-53450000D03*
X50550000Y-52950000D03*
X50550000Y-52450000D03*
X50550000Y-51950000D03*
X50550000Y-51450000D03*
X50550000Y-50950000D03*
X50550000Y-50450000D03*
X50550000Y-49950000D03*
X50550000Y-49450000D03*
X50550000Y-48950000D03*
X50550000Y-48450000D03*
X50550000Y-47950000D03*
X50550000Y-47450000D03*
X50550000Y-46950000D03*
D27*
X5000000Y-5000000D03*
D28*
X7025000Y-5000000D03*
X6431891Y-6431891D03*
X5000000Y-7025000D03*
X3568109Y-6431891D03*
X2975000Y-5000000D03*
X3568109Y-3568109D03*
X5000000Y-2975000D03*
X6431891Y-3568109D03*
X6431891Y-93568109D03*
X5000000Y-92975000D03*
X3568109Y-93568109D03*
X2975000Y-95000000D03*
X3568109Y-96431891D03*
X5000000Y-97025000D03*
X6431891Y-96431891D03*
X7025000Y-95000000D03*
D27*
X5000000Y-95000000D03*
D28*
X96431891Y-3568109D03*
X95000000Y-2975000D03*
X93568109Y-3568109D03*
X92975000Y-5000000D03*
X93568109Y-6431891D03*
X95000000Y-7025000D03*
X96431891Y-6431891D03*
X97025000Y-5000000D03*
D27*
X95000000Y-5000000D03*
X95000000Y-95000000D03*
D28*
X97025000Y-95000000D03*
X96431891Y-96431891D03*
X95000000Y-97025000D03*
X93568109Y-96431891D03*
X92975000Y-95000000D03*
X93568109Y-93568109D03*
X95000000Y-92975000D03*
X96431891Y-93568109D03*
D10*
X25050000Y-7300000D03*
X18850000Y-7300000D03*
X18850000Y-15000000D03*
X25050000Y-15000000D03*
X18850000Y-22750000D03*
X25050000Y-22750000D03*
X25050000Y-30450000D03*
X18850000Y-30450000D03*
X18850000Y-38150000D03*
X25050000Y-38150000D03*
X18850000Y-45850000D03*
X25050000Y-45850000D03*
X18850000Y-53650000D03*
X25050000Y-53650000D03*
X18900000Y-61350000D03*
X25100000Y-61350000D03*
X25050000Y-76750000D03*
X18850000Y-76750000D03*
X25050000Y-84450000D03*
X18850000Y-84450000D03*
X18850000Y-92450000D03*
X25050000Y-92450000D03*
X25050000Y-69050000D03*
X18850000Y-69050000D03*
D12*
X38700000Y-6300000D03*
X41200000Y-6300000D03*
X38700000Y-14000000D03*
X41200000Y-14000000D03*
X41200000Y-21750000D03*
X38700000Y-21750000D03*
X38700000Y-29450000D03*
X41200000Y-29450000D03*
X41200000Y-37150000D03*
X38700000Y-37150000D03*
X38700000Y-44850000D03*
X41200000Y-44850000D03*
X41200000Y-52650000D03*
X38700000Y-52650000D03*
X41250000Y-60350000D03*
X38750000Y-60350000D03*
X41150000Y-68100000D03*
X38650000Y-68100000D03*
X38700000Y-75750000D03*
X41200000Y-75750000D03*
X41200000Y-83450000D03*
X38700000Y-83450000D03*
X38700000Y-91450000D03*
X41200000Y-91450000D03*
D29*
X35850000Y-9550000D03*
X35850000Y-7050000D03*
X35850000Y-17250000D03*
X35850000Y-14750000D03*
X35850000Y-22500000D03*
X35850000Y-25000000D03*
X35850000Y-30200000D03*
X35850000Y-32700000D03*
X35850000Y-37900000D03*
X35850000Y-40400000D03*
X35850000Y-48100000D03*
X35850000Y-45600000D03*
X35850000Y-56400000D03*
X35850000Y-53900000D03*
X35900000Y-61600000D03*
X35900000Y-64100000D03*
X35850000Y-68800000D03*
X35850000Y-71300000D03*
X35850000Y-76500000D03*
X35850000Y-79000000D03*
X35850000Y-86850000D03*
X35850000Y-84350000D03*
X35850000Y-94700000D03*
X35850000Y-92200000D03*
D11*
X16040000Y-92450000D03*
X11860000Y-92450000D03*
D15*
X87860000Y-95000000D03*
X85320000Y-95000000D03*
X82780000Y-95000000D03*
X80240000Y-95000000D03*
X77700000Y-95000000D03*
X75160000Y-95000000D03*
X72620000Y-95000000D03*
X70080000Y-95000000D03*
X67540000Y-95000000D03*
D16*
X65000000Y-95000000D03*
D10*
X25050000Y-11100000D03*
X18850000Y-11100000D03*
X25050000Y-26550000D03*
X18850000Y-26550000D03*
X25050000Y-34250000D03*
X18850000Y-34250000D03*
X25050000Y-41950000D03*
X18850000Y-41950000D03*
X18850000Y-49650000D03*
X25050000Y-49650000D03*
X25050000Y-57450000D03*
X18850000Y-57450000D03*
X25100000Y-65150000D03*
X18900000Y-65150000D03*
X18850000Y-72850000D03*
X25050000Y-72850000D03*
X18850000Y-80550000D03*
X25050000Y-80550000D03*
X18850000Y-88450000D03*
X25050000Y-88450000D03*
X18850000Y-96250000D03*
X25050000Y-96250000D03*
D28*
X64300000Y-87700000D03*
X56300000Y-55700000D03*
X56300000Y-57700000D03*
X68300000Y-86700000D03*
X72300000Y-86700000D03*
X76300000Y-86700000D03*
X80300000Y-86700000D03*
X80300000Y-48300000D03*
X70000000Y-5500000D03*
X70000000Y-2500000D03*
X66000000Y-22000000D03*
X66000000Y-28000000D03*
X67000000Y-44000000D03*
X43450000Y-6300000D03*
X43550000Y-14050000D03*
X43450000Y-21750000D03*
X43450000Y-52650000D03*
X43450000Y-52650000D03*
X43500000Y-60350000D03*
X43450000Y-68050000D03*
X43450000Y-75750000D03*
X43450000Y-83450000D03*
X43250000Y-29450000D03*
X15100000Y-99100000D03*
X16000000Y-99100000D03*
X35850000Y-96450000D03*
X43450000Y-37150000D03*
X42610000Y-6300000D03*
X42670000Y-14020000D03*
X42560000Y-21750000D03*
X42420000Y-29450000D03*
X42600000Y-37160000D03*
X43240000Y-44860000D03*
X42370000Y-44860000D03*
X42590000Y-52650000D03*
X42620000Y-60360000D03*
X42540000Y-68050000D03*
X42620000Y-75750000D03*
X42630000Y-83450000D03*
X43430000Y-91460000D03*
X42570000Y-91460000D03*
X35840000Y-95630000D03*
X70910000Y-5520000D03*
X66870000Y-21990000D03*
X66860000Y-27980000D03*
X67080000Y-44900000D03*
X81170000Y-48290000D03*
X71840000Y-53700000D03*
X71820000Y-55960000D03*
X70990000Y-55950000D03*
X71010000Y-53710000D03*
X70839982Y-2499982D03*
X66300000Y-87700000D03*
X82300000Y-87700000D03*
X78300000Y-87700000D03*
X74300000Y-87700000D03*
X70300000Y-87700000D03*
X65000000Y-53989996D03*
X64990000Y-54860000D03*
X82500000Y-46000000D03*
X54500000Y-44500000D03*
X61000000Y-7500000D03*
X61000000Y-2500000D03*
X54490000Y-43610000D03*
X61950000Y-2490000D03*
X61020000Y-6630000D03*
X81650000Y-46010000D03*
X23950000Y-7300000D03*
X23950000Y-6300000D03*
X23950000Y-8300000D03*
X23950000Y-11100000D03*
X23950000Y-10000000D03*
X23950000Y-12150000D03*
X23950000Y-15000000D03*
X23950000Y-14000000D03*
X23950000Y-16000000D03*
X23950000Y-18850000D03*
X23950000Y-17850000D03*
X23950000Y-19850000D03*
X23950000Y-22750000D03*
X23950000Y-21750000D03*
X23950000Y-23750000D03*
X23950000Y-26550000D03*
X23950000Y-25550000D03*
X23950000Y-27550000D03*
X23950000Y-30450000D03*
X23950000Y-29450000D03*
X23950000Y-31450000D03*
X23950000Y-34250000D03*
X23950000Y-33250000D03*
X23950000Y-35250000D03*
X23950000Y-38150000D03*
X23950000Y-37150000D03*
X23950000Y-39150000D03*
X23950000Y-41950000D03*
X23950000Y-40950000D03*
X23950000Y-42950000D03*
X23950000Y-45850000D03*
X23950000Y-44850000D03*
X23950000Y-46850000D03*
X23950000Y-49700000D03*
X23950000Y-48700000D03*
X23950000Y-50700000D03*
X23950000Y-53650000D03*
X23950000Y-52650000D03*
X23950000Y-54650000D03*
X23950000Y-57450000D03*
X23950000Y-56450000D03*
X23950000Y-58450000D03*
X24000000Y-61350000D03*
X24000000Y-60350000D03*
X24000000Y-62350000D03*
X23950000Y-65150000D03*
X23950000Y-64150000D03*
X23950000Y-66150000D03*
X23950000Y-69050000D03*
X23950000Y-68050000D03*
X23950000Y-70050000D03*
X23950000Y-72850000D03*
X23950000Y-71850000D03*
X23950000Y-73850000D03*
X23950000Y-76750000D03*
X23950000Y-75750000D03*
X23950000Y-77750000D03*
X23950000Y-80550000D03*
X23950000Y-79550000D03*
X23950000Y-81550000D03*
X23950000Y-84450000D03*
X23950000Y-83450000D03*
X23950000Y-85450000D03*
X23950000Y-88400000D03*
X23950000Y-87400000D03*
X23950000Y-89400000D03*
X23950000Y-92450000D03*
X23950000Y-91450000D03*
X23950000Y-93450000D03*
X23950000Y-96450000D03*
X23950000Y-95450000D03*
X23950000Y-97450000D03*
D30*
X64300000Y-89750000D02*
X64300000Y-87700000D01*
X58050000Y-55950000D02*
X56550000Y-55950000D01*
X56550000Y-55950000D02*
X56300000Y-55700000D01*
X56550000Y-55450000D02*
X56300000Y-55700000D01*
X58050000Y-55450000D02*
X56550000Y-55450000D01*
X58050000Y-57950000D02*
X56550000Y-57950000D01*
X56550000Y-57950000D02*
X56300000Y-57700000D01*
X68300000Y-89750000D02*
X68300000Y-86700000D01*
X72300000Y-89750000D02*
X72300000Y-86700000D01*
X76300000Y-89750000D02*
X76300000Y-86700000D01*
X80300000Y-89750000D02*
X80300000Y-86700000D01*
X82800000Y-48300000D02*
X80300000Y-48300000D01*
X68650000Y-5500000D02*
X70000000Y-5500000D01*
X68650000Y-2500000D02*
X70000000Y-2500000D01*
X68050000Y-22000000D02*
X66000000Y-22000000D01*
X67100000Y-46000000D02*
X67100000Y-44100000D01*
X67100000Y-44100000D02*
X67000000Y-44000000D01*
X41200000Y-6300000D02*
X43450000Y-6300000D01*
X41200000Y-14000000D02*
X43450000Y-14000000D01*
X41200000Y-21750000D02*
X43450000Y-21750000D01*
X41200000Y-37150000D02*
X43450000Y-37150000D01*
X41200000Y-52650000D02*
X43450000Y-52650000D01*
X41250000Y-60350000D02*
X43500000Y-60350000D01*
X41200000Y-68050000D02*
X43450000Y-68050000D01*
X41200000Y-75750000D02*
X43450000Y-75750000D01*
X41200000Y-83450000D02*
X43450000Y-83450000D01*
X41200000Y-29450000D02*
X43224990Y-29450000D01*
X17615000Y-92450000D02*
X18850000Y-92450000D01*
X16040000Y-92450000D02*
X17615000Y-92450000D01*
X15090000Y-99110000D02*
X15100000Y-99100000D01*
D31*
X15100000Y-99100000D02*
X16000000Y-99100000D01*
D30*
X68050000Y-28000000D02*
X66000000Y-28000000D01*
X35850000Y-94700000D02*
X35850000Y-96450000D01*
X16040000Y-99060000D02*
X16000000Y-99100000D01*
X16040000Y-92450000D02*
X16040000Y-99060000D01*
X17300000Y-99100000D02*
X16565685Y-99100000D01*
X16565685Y-99100000D02*
X16000000Y-99100000D01*
X18850000Y-96450000D02*
X18850000Y-97550000D01*
X18850000Y-97550000D02*
X17300000Y-99100000D01*
X43230000Y-44850000D02*
X43240000Y-44860000D01*
X41200000Y-44850000D02*
X43230000Y-44850000D01*
X43420000Y-91450000D02*
X43430000Y-91460000D01*
X41200000Y-91450000D02*
X43420000Y-91450000D01*
D31*
X42570000Y-91460000D02*
X43430000Y-91460000D01*
X42630000Y-83450000D02*
X43450000Y-83450000D01*
X42620000Y-75750000D02*
X43450000Y-75750000D01*
X42540000Y-68050000D02*
X43450000Y-68050000D01*
X43490000Y-60360000D02*
X43500000Y-60350000D01*
X42620000Y-60360000D02*
X43490000Y-60360000D01*
X42590000Y-52650000D02*
X43450000Y-52650000D01*
X42370000Y-44860000D02*
X43240000Y-44860000D01*
X43440000Y-37160000D02*
X43450000Y-37150000D01*
X42600000Y-37160000D02*
X43440000Y-37160000D01*
X42420000Y-29450000D02*
X43250000Y-29450000D01*
X42560000Y-21750000D02*
X43450000Y-21750000D01*
X43520000Y-14020000D02*
X43550000Y-14050000D01*
X42670000Y-14020000D02*
X43520000Y-14020000D01*
X42610000Y-6300000D02*
X43450000Y-6300000D01*
X35850000Y-95640000D02*
X35840000Y-95630000D01*
X35850000Y-96450000D02*
X35850000Y-95640000D01*
X70890000Y-5500000D02*
X70910000Y-5520000D01*
X70000000Y-5500000D02*
X70890000Y-5500000D01*
X66860000Y-22000000D02*
X66870000Y-21990000D01*
X66000000Y-22000000D02*
X66860000Y-22000000D01*
X66840000Y-28000000D02*
X66860000Y-27980000D01*
X66000000Y-28000000D02*
X66840000Y-28000000D01*
X67000000Y-44820000D02*
X67080000Y-44900000D01*
X67000000Y-44000000D02*
X67000000Y-44820000D01*
X81160000Y-48300000D02*
X81170000Y-48290000D01*
X80300000Y-48300000D02*
X81160000Y-48300000D01*
D30*
X69550000Y-53700000D02*
X71840000Y-53700000D01*
X71810000Y-55950000D02*
X71820000Y-55960000D01*
X69550000Y-55950000D02*
X71810000Y-55950000D01*
D31*
X71830000Y-53710000D02*
X71840000Y-53700000D01*
X71010000Y-53710000D02*
X71830000Y-53710000D01*
X70990000Y-55950000D02*
X71810000Y-55950000D01*
D30*
X58050000Y-55450000D02*
X58050000Y-55950000D01*
X56300000Y-55700000D02*
X56300000Y-57700000D01*
D31*
X70000000Y-2500000D02*
X70839964Y-2500000D01*
X70839964Y-2500000D02*
X70839982Y-2499982D01*
D30*
X62876984Y-53950000D02*
X64876984Y-55950000D01*
X64876984Y-55950000D02*
X66050000Y-55950000D01*
X66050000Y-55950000D02*
X67050000Y-55950000D01*
X58050000Y-53950000D02*
X62876984Y-53950000D01*
X66800000Y-53450000D02*
X67050000Y-53700000D01*
X66300000Y-87700000D02*
X66300000Y-89600000D01*
X82300000Y-89600000D02*
X82300000Y-87700000D01*
X78300000Y-89600000D02*
X78300000Y-87700000D01*
X74300000Y-89600000D02*
X74300000Y-87700000D01*
X70300000Y-89600000D02*
X70300000Y-87700000D01*
X58050000Y-53450000D02*
X64950000Y-53450000D01*
X64950000Y-53450000D02*
X66800000Y-53450000D01*
X64950000Y-53450000D02*
X65000000Y-53500000D01*
X65000000Y-53500000D02*
X65000000Y-53989996D01*
D31*
X64990000Y-53999996D02*
X65000000Y-53989996D01*
X64990000Y-54860000D02*
X64990000Y-53999996D01*
D30*
X59100000Y-5500000D02*
X66750000Y-5500000D01*
X59100000Y-6500000D02*
X59100000Y-5500000D01*
X49850000Y-46950000D02*
X49500000Y-46600000D01*
X49500000Y-46600000D02*
X49500000Y-13701890D01*
X55551890Y-7650000D02*
X57950000Y-7650000D01*
X49500000Y-13701890D02*
X55551890Y-7650000D01*
X50550000Y-46950000D02*
X49850000Y-46950000D01*
X57950000Y-7650000D02*
X59100000Y-6500000D01*
X59100000Y-2500000D02*
X66750000Y-2500000D01*
X88050000Y-46100000D02*
X82600000Y-46100000D01*
X82600000Y-46100000D02*
X82500000Y-46000000D01*
X54500000Y-14000000D02*
X61000000Y-7500000D01*
X54500000Y-44500000D02*
X54500000Y-14000000D01*
D31*
X54500000Y-43620000D02*
X54490000Y-43610000D01*
X54500000Y-44500000D02*
X54500000Y-43620000D01*
X61940000Y-2500000D02*
X61950000Y-2490000D01*
X61000000Y-2500000D02*
X61940000Y-2500000D01*
X61000000Y-6650000D02*
X61020000Y-6630000D01*
X61000000Y-7500000D02*
X61000000Y-6650000D01*
X82490000Y-46010000D02*
X82500000Y-46000000D01*
X81650000Y-46010000D02*
X82490000Y-46010000D01*
D30*
X87950000Y-48300000D02*
X88050000Y-48400000D01*
X85300000Y-48300000D02*
X87950000Y-48300000D01*
X57300000Y-52450000D02*
X57000000Y-52150000D01*
X58050000Y-52450000D02*
X57300000Y-52450000D01*
X57300000Y-50950000D02*
X58050000Y-50950000D01*
X57000000Y-52150000D02*
X57000000Y-51250000D01*
X57000000Y-51250000D02*
X57300000Y-50950000D01*
X84041495Y-53041495D02*
X84041495Y-56000000D01*
X64600000Y-52500000D02*
X64863590Y-52500000D01*
X64550000Y-52450000D02*
X64600000Y-52500000D01*
X58050000Y-52450000D02*
X64550000Y-52450000D01*
X65313600Y-52049990D02*
X83049990Y-52049990D01*
X64863590Y-52500000D02*
X65313600Y-52049990D01*
X83049990Y-52049990D02*
X84041495Y-53041495D01*
X85300000Y-49799980D02*
X85300000Y-48300000D01*
X83049990Y-52049990D02*
X85300000Y-49799980D01*
X70050000Y-21900000D02*
X69950000Y-22000000D01*
X75025000Y-22000000D02*
X75125000Y-21900000D01*
X69950000Y-22000000D02*
X75025000Y-22000000D01*
X70050000Y-27900000D02*
X69950000Y-28000000D01*
X75025000Y-28000000D02*
X75125000Y-27900000D01*
X69950000Y-28000000D02*
X75025000Y-28000000D01*
X66150000Y-91650000D02*
X66300000Y-91800000D01*
X64300000Y-91650000D02*
X65250000Y-91650000D01*
X65250000Y-91650000D02*
X66150000Y-91650000D01*
X65300000Y-91600000D02*
X65250000Y-91650000D01*
X65300000Y-60800000D02*
X65300000Y-91600000D01*
X58050000Y-57450000D02*
X61950000Y-57450000D01*
X61950000Y-57450000D02*
X65300000Y-60800000D01*
X65000000Y-91900000D02*
X65250000Y-91650000D01*
X65000000Y-95000000D02*
X65000000Y-91900000D01*
X70150000Y-91650000D02*
X70300000Y-91800000D01*
X68300000Y-91650000D02*
X69250000Y-91650000D01*
X69250000Y-91650000D02*
X70150000Y-91650000D01*
X69250000Y-63750000D02*
X69250000Y-91650000D01*
X58050000Y-56950000D02*
X62450000Y-56950000D01*
X62450000Y-56950000D02*
X69250000Y-63750000D01*
X70080000Y-92020000D02*
X70300000Y-91800000D01*
X70080000Y-95000000D02*
X70080000Y-92020000D01*
X74150000Y-91650000D02*
X74300000Y-91800000D01*
X72300000Y-91650000D02*
X73250000Y-91650000D01*
X73250000Y-91650000D02*
X74150000Y-91650000D01*
X73250000Y-66750000D02*
X73250000Y-91650000D01*
X58050000Y-56450000D02*
X62950000Y-56450000D01*
X62950000Y-56450000D02*
X73250000Y-66750000D01*
X75000000Y-91800000D02*
X74300000Y-91800000D01*
X75160000Y-95000000D02*
X75160000Y-91960000D01*
X75160000Y-91960000D02*
X75000000Y-91800000D01*
X76450000Y-91800000D02*
X76300000Y-91650000D01*
X58050000Y-54950000D02*
X62550000Y-54950000D01*
X77200000Y-69600000D02*
X77200000Y-91800000D01*
X62550000Y-54950000D02*
X77200000Y-69600000D01*
X78300000Y-91800000D02*
X77200000Y-91800000D01*
X77200000Y-91800000D02*
X76450000Y-91800000D01*
X79000000Y-91800000D02*
X78300000Y-91800000D01*
X80240000Y-95000000D02*
X80240000Y-93040000D01*
X80240000Y-93040000D02*
X79000000Y-91800000D01*
X80450000Y-91800000D02*
X80300000Y-91650000D01*
X82300000Y-91800000D02*
X81200000Y-91800000D01*
X81200000Y-91800000D02*
X80450000Y-91800000D01*
X64690584Y-56400011D02*
X65000011Y-56400011D01*
X62740573Y-54450000D02*
X64690584Y-56400011D01*
X58050000Y-54450000D02*
X62740573Y-54450000D01*
X81200000Y-72600000D02*
X81200000Y-91800000D01*
X65000011Y-56400011D02*
X81200000Y-72600000D01*
X85320000Y-94970000D02*
X85320000Y-95000000D01*
X82300000Y-91800000D02*
X82300000Y-91950000D01*
X82300000Y-91950000D02*
X85320000Y-94970000D01*
X35850000Y-7050000D02*
X35850000Y-6300000D01*
X33050000Y-6300000D02*
X35850000Y-6300000D01*
X35850000Y-6300000D02*
X38700000Y-6300000D01*
X38700000Y-7650000D02*
X38700000Y-6300000D01*
X49450000Y-47450000D02*
X49000000Y-47000000D01*
X49000000Y-12250000D02*
X46050000Y-9300000D01*
X50550000Y-47450000D02*
X49450000Y-47450000D01*
X49000000Y-47000000D02*
X49000000Y-12250000D01*
X46050000Y-9300000D02*
X40350000Y-9300000D01*
X40350000Y-9300000D02*
X38700000Y-7650000D01*
X33050000Y-14000000D02*
X35850000Y-14000000D01*
X35850000Y-14000000D02*
X38700000Y-14000000D01*
X35850000Y-14750000D02*
X35850000Y-14000000D01*
X35850000Y-9550000D02*
X35850000Y-14000000D01*
X38700000Y-16150000D02*
X38700000Y-14000000D01*
X48813590Y-48450000D02*
X48000000Y-47636410D01*
X39550000Y-17000000D02*
X38700000Y-16150000D01*
X50550000Y-48450000D02*
X48813590Y-48450000D01*
X48000000Y-47636410D02*
X48000000Y-20000000D01*
X48000000Y-20000000D02*
X45000000Y-17000000D01*
X45000000Y-17000000D02*
X39550000Y-17000000D01*
X33050000Y-21750000D02*
X35850000Y-21750000D01*
X35850000Y-21750000D02*
X38700000Y-21750000D01*
X35850000Y-22500000D02*
X35850000Y-21750000D01*
X35850000Y-17250000D02*
X35850000Y-22500000D01*
X49800000Y-49450000D02*
X50550000Y-49450000D01*
X48359230Y-49450000D02*
X49800000Y-49450000D01*
X38700000Y-23400000D02*
X39599989Y-24299989D01*
X38700000Y-21750000D02*
X38700000Y-23400000D01*
X39599989Y-24299989D02*
X43299989Y-24299989D01*
X47000000Y-28000000D02*
X47000000Y-48090770D01*
X43299989Y-24299989D02*
X47000000Y-28000000D01*
X47000000Y-48090770D02*
X48359230Y-49450000D01*
X33050000Y-29450000D02*
X35850000Y-29450000D01*
X35850000Y-29450000D02*
X38700000Y-29450000D01*
X35850000Y-30200000D02*
X35850000Y-29450000D01*
X35850000Y-25000000D02*
X35850000Y-30200000D01*
X49800000Y-50450000D02*
X50550000Y-50450000D01*
X38700000Y-31500000D02*
X39050000Y-31850000D01*
X43950000Y-31850000D02*
X46000000Y-33900000D01*
X48086410Y-50450000D02*
X49800000Y-50450000D01*
X46000000Y-33900000D02*
X46000000Y-48363590D01*
X46000000Y-48363590D02*
X48086410Y-50450000D01*
X38700000Y-29450000D02*
X38700000Y-31500000D01*
X39050000Y-31850000D02*
X43950000Y-31850000D01*
X33050000Y-37150000D02*
X33900000Y-37150000D01*
X33900000Y-37150000D02*
X35850000Y-37150000D01*
X35850000Y-37150000D02*
X38700000Y-37150000D01*
X35850000Y-37900000D02*
X35850000Y-37150000D01*
X35850000Y-32700000D02*
X35850000Y-37900000D01*
X38700000Y-39200000D02*
X38700000Y-37150000D01*
X47300000Y-51450000D02*
X45000000Y-49150000D01*
X39699989Y-40199989D02*
X38700000Y-39200000D01*
X44136400Y-40199989D02*
X39699989Y-40199989D01*
X45000000Y-49150000D02*
X45000000Y-41063589D01*
X50550000Y-51450000D02*
X47300000Y-51450000D01*
X45000000Y-41063589D02*
X44136400Y-40199989D01*
X33050000Y-44850000D02*
X35850000Y-44850000D01*
X35850000Y-44850000D02*
X38700000Y-44850000D01*
X35850000Y-45600000D02*
X35850000Y-44850000D01*
X35850000Y-40400000D02*
X35850000Y-45600000D01*
X49800000Y-52450000D02*
X50550000Y-52450000D01*
X49417199Y-52582477D02*
X49667523Y-52582477D01*
X49399708Y-52599968D02*
X49417199Y-52582477D01*
X38700000Y-44850000D02*
X38700000Y-46300000D01*
X46899968Y-52599968D02*
X49399708Y-52599968D01*
X38700000Y-46300000D02*
X39550000Y-47150000D01*
X39550000Y-47150000D02*
X41450000Y-47150000D01*
X49667523Y-52582477D02*
X49800000Y-52450000D01*
X41450000Y-47150000D02*
X46899968Y-52599968D01*
X33050000Y-52650000D02*
X35850000Y-52650000D01*
X35850000Y-52650000D02*
X38700000Y-52650000D01*
X35850000Y-53900000D02*
X35850000Y-52650000D01*
X35850000Y-48100000D02*
X35850000Y-53900000D01*
X38700000Y-54100000D02*
X39300000Y-54700000D01*
X39300000Y-54700000D02*
X47208713Y-54700000D01*
X48408723Y-53499990D02*
X49772508Y-53499990D01*
X38700000Y-52650000D02*
X38700000Y-54100000D01*
X47208713Y-54700000D02*
X48408723Y-53499990D01*
X50517501Y-53482499D02*
X50550000Y-53450000D01*
X49789999Y-53482499D02*
X50517501Y-53482499D01*
X49772508Y-53499990D02*
X49789999Y-53482499D01*
X33100000Y-60350000D02*
X36000000Y-60350000D01*
X36000000Y-60350000D02*
X38750000Y-60350000D01*
X35900000Y-60450000D02*
X36000000Y-60350000D01*
X35900000Y-61600000D02*
X35900000Y-60450000D01*
X38750000Y-60350000D02*
X38875000Y-60350000D01*
X46250011Y-56931523D02*
X48731534Y-54450000D01*
X49800000Y-54450000D02*
X50550000Y-54450000D01*
X48731534Y-54450000D02*
X49800000Y-54450000D01*
X35900000Y-60250000D02*
X36000000Y-60350000D01*
X35900000Y-57200000D02*
X35900000Y-60250000D01*
X35850000Y-57150000D02*
X35900000Y-57200000D01*
X35850000Y-56400000D02*
X35850000Y-57150000D01*
X38750000Y-60350000D02*
X38750000Y-58450000D01*
X40268477Y-56931523D02*
X46250011Y-56931523D01*
X38750000Y-58450000D02*
X40268477Y-56931523D01*
X33050000Y-68050000D02*
X35850000Y-68050000D01*
X35850000Y-68050000D02*
X38700000Y-68050000D01*
X35850000Y-68800000D02*
X35850000Y-68050000D01*
X38700000Y-68050000D02*
X38825000Y-68050000D01*
X35900000Y-68750000D02*
X35850000Y-68800000D01*
X35900000Y-64100000D02*
X35900000Y-68750000D01*
X49800000Y-55450000D02*
X50550000Y-55450000D01*
X49004356Y-55450000D02*
X49800000Y-55450000D01*
X47150033Y-57304323D02*
X49004356Y-55450000D01*
X47150033Y-59259200D02*
X47150033Y-57304323D01*
X38650000Y-66100000D02*
X40150000Y-64600000D01*
X46400000Y-64600000D02*
X47149967Y-63850033D01*
X38650000Y-68100000D02*
X38650000Y-66100000D01*
X47149967Y-59259266D02*
X47150033Y-59259200D01*
X40150000Y-64600000D02*
X46400000Y-64600000D01*
X47149967Y-63850033D02*
X47149967Y-59259266D01*
X33050000Y-75750000D02*
X35850000Y-75750000D01*
X35850000Y-75750000D02*
X38700000Y-75750000D01*
X35850000Y-76500000D02*
X35850000Y-75750000D01*
X35850000Y-71300000D02*
X35850000Y-76500000D01*
X49800000Y-56450000D02*
X50550000Y-56450000D01*
X49277178Y-56450000D02*
X49800000Y-56450000D01*
X48050055Y-57677123D02*
X49277178Y-56450000D01*
X48050055Y-59632000D02*
X48050055Y-57677123D01*
X48049989Y-59632066D02*
X48050055Y-59632000D01*
X38700000Y-75750000D02*
X38700000Y-74050000D01*
X39500000Y-73250000D02*
X43750000Y-73250000D01*
X38700000Y-74050000D02*
X39500000Y-73250000D01*
X43750000Y-73250000D02*
X48049989Y-68950011D01*
X48049989Y-68950011D02*
X48049989Y-59632066D01*
X35850000Y-83350000D02*
X35750000Y-83450000D01*
X33050000Y-83450000D02*
X35750000Y-83450000D01*
X35850000Y-84500000D02*
X35850000Y-83450000D01*
X35750000Y-83450000D02*
X35850000Y-83450000D01*
X35850000Y-83450000D02*
X38700000Y-83450000D01*
X35850000Y-79750000D02*
X35850000Y-84700000D01*
X35850000Y-79000000D02*
X35850000Y-79750000D01*
X38700000Y-81800000D02*
X38700000Y-83450000D01*
X49550000Y-57450000D02*
X49000000Y-58000000D01*
X50550000Y-57450000D02*
X49550000Y-57450000D01*
X49000000Y-76400000D02*
X44750000Y-80650000D01*
X44750000Y-80650000D02*
X39850000Y-80650000D01*
X49000000Y-58000000D02*
X49000000Y-76400000D01*
X39850000Y-80650000D02*
X38700000Y-81800000D01*
X35850000Y-91350000D02*
X35750000Y-91450000D01*
X33050000Y-91450000D02*
X35750000Y-91450000D01*
X35850000Y-91550000D02*
X35950000Y-91450000D01*
X35850000Y-92200000D02*
X35850000Y-91550000D01*
X35750000Y-91450000D02*
X35950000Y-91450000D01*
X35950000Y-91450000D02*
X38700000Y-91450000D01*
X35850000Y-87200000D02*
X35850000Y-92200000D01*
X50550000Y-82450000D02*
X50550000Y-58950000D01*
X47099990Y-85900010D02*
X50550000Y-82450000D01*
X42099990Y-85900010D02*
X47099990Y-85900010D01*
X38700000Y-91450000D02*
X38700000Y-89300000D01*
X50550000Y-58950000D02*
X50550000Y-58450000D01*
X38700000Y-89300000D02*
X42099990Y-85900010D01*
X11550000Y-3150000D02*
X8000000Y-6700000D01*
X11860000Y-3150000D02*
X11550000Y-3150000D01*
X8000000Y-6700000D02*
X8000000Y-7350000D01*
X3300000Y-12050000D02*
X3300000Y-35920000D01*
X8000000Y-7350000D02*
X3300000Y-12050000D01*
X28950000Y-5700000D02*
X28950000Y-6350000D01*
X30800000Y-6350000D02*
X30850000Y-6300000D01*
X28950000Y-6350000D02*
X30800000Y-6350000D01*
X26400000Y-3150000D02*
X28950000Y-5700000D01*
X16040000Y-3150000D02*
X26400000Y-3150000D01*
X56050000Y-2500000D02*
X56900000Y-2500000D01*
X33950000Y-2500000D02*
X56050000Y-2500000D01*
X30850000Y-6300000D02*
X30850000Y-5600000D01*
X30850000Y-5600000D02*
X33950000Y-2500000D01*
X56900000Y-2500000D02*
X56900000Y-5500000D01*
X16040000Y-7300000D02*
X18850000Y-7300000D01*
X29000000Y-14000000D02*
X28950000Y-14050000D01*
X30850000Y-14000000D02*
X29000000Y-14000000D01*
X18850000Y-7300000D02*
X18850000Y-11100000D01*
X18850000Y-11100000D02*
X19750000Y-11100000D01*
X28250000Y-14050000D02*
X28950000Y-14050000D01*
X27274999Y-13074999D02*
X28250000Y-14050000D01*
X19750000Y-11100000D02*
X21724999Y-13074999D01*
X21724999Y-13074999D02*
X27274999Y-13074999D01*
X11550000Y-7350000D02*
X5750000Y-13150000D01*
X11860000Y-7300000D02*
X11550000Y-7300000D01*
X5750000Y-36010000D02*
X3300000Y-38460000D01*
X5750000Y-13150000D02*
X5750000Y-36010000D01*
X11860000Y-15000000D02*
X11860000Y-16265000D01*
X6249989Y-38050011D02*
X4149999Y-40150001D01*
X7550000Y-24848589D02*
X6249989Y-26148600D01*
X7550000Y-20575000D02*
X7550000Y-24848589D01*
X11860000Y-16265000D02*
X7550000Y-20575000D01*
X6249989Y-26148600D02*
X6249989Y-38050011D01*
X4149999Y-40150001D02*
X3300000Y-41000000D01*
X16040000Y-15000000D02*
X18850000Y-15000000D01*
X30800000Y-21800000D02*
X30850000Y-21750000D01*
X28950000Y-21800000D02*
X30800000Y-21800000D01*
X18850000Y-15000000D02*
X18850000Y-18850000D01*
X28900000Y-21800000D02*
X28950000Y-21800000D01*
X19600000Y-18850000D02*
X21574999Y-20824999D01*
X27924999Y-20824999D02*
X28900000Y-21800000D01*
X21574999Y-20824999D02*
X27924999Y-20824999D01*
X18850000Y-18850000D02*
X19600000Y-18850000D01*
X16040000Y-22750000D02*
X18850000Y-22750000D01*
X30800000Y-29500000D02*
X30850000Y-29450000D01*
X28950000Y-29500000D02*
X30800000Y-29500000D01*
X18850000Y-22750000D02*
X18850000Y-26550000D01*
X19600000Y-26550000D02*
X21574999Y-28524999D01*
X18850000Y-26550000D02*
X19600000Y-26550000D01*
X21574999Y-28524999D02*
X27274999Y-28524999D01*
X27274999Y-28524999D02*
X28250000Y-29500000D01*
X28250000Y-29500000D02*
X28950000Y-29500000D01*
X10285000Y-22750000D02*
X6700000Y-26335000D01*
X11860000Y-22750000D02*
X10285000Y-22750000D01*
X6700000Y-40140000D02*
X3300000Y-43540000D01*
X6700000Y-26335000D02*
X6700000Y-40140000D01*
X10285000Y-30450000D02*
X7200000Y-33535000D01*
X11860000Y-30450000D02*
X10285000Y-30450000D01*
X7200000Y-42180000D02*
X3300000Y-46080000D01*
X7200000Y-33535000D02*
X7200000Y-42180000D01*
X16040000Y-30450000D02*
X18850000Y-30450000D01*
X29000000Y-37150000D02*
X28950000Y-37200000D01*
X30850000Y-37150000D02*
X29000000Y-37150000D01*
X18850000Y-30450000D02*
X18850000Y-34250000D01*
X27225001Y-36175001D02*
X28250000Y-37200000D01*
X21525001Y-36175001D02*
X27225001Y-36175001D01*
X28250000Y-37200000D02*
X28950000Y-37200000D01*
X18850000Y-34250000D02*
X19600000Y-34250000D01*
X19600000Y-34250000D02*
X21525001Y-36175001D01*
X16040000Y-38150000D02*
X18850000Y-38150000D01*
X30800000Y-44900000D02*
X30850000Y-44850000D01*
X28950000Y-44900000D02*
X30800000Y-44900000D01*
X18850000Y-38150000D02*
X18850000Y-41950000D01*
X28250000Y-44900000D02*
X28950000Y-44900000D01*
X27274999Y-43924999D02*
X28250000Y-44900000D01*
X21574999Y-43924999D02*
X27274999Y-43924999D01*
X18850000Y-41950000D02*
X19600000Y-41950000D01*
X19600000Y-41950000D02*
X21574999Y-43924999D01*
X10285000Y-38150000D02*
X7750000Y-40685000D01*
X11860000Y-38150000D02*
X10285000Y-38150000D01*
X7750000Y-44170000D02*
X3300000Y-48620000D01*
X7750000Y-40685000D02*
X7750000Y-44170000D01*
X8610000Y-45850000D02*
X3300000Y-51160000D01*
X11860000Y-45850000D02*
X8610000Y-45850000D01*
X16040000Y-45850000D02*
X18850000Y-45850000D01*
X30800000Y-52700000D02*
X30850000Y-52650000D01*
X28950000Y-52700000D02*
X30800000Y-52700000D01*
X18850000Y-45850000D02*
X18850000Y-49650000D01*
X27274999Y-51724999D02*
X28250000Y-52700000D01*
X21674999Y-51724999D02*
X27274999Y-51724999D01*
X28250000Y-52700000D02*
X28950000Y-52700000D01*
X18850000Y-49650000D02*
X19600000Y-49650000D01*
X19600000Y-49650000D02*
X21674999Y-51724999D01*
X16040000Y-53650000D02*
X18850000Y-53650000D01*
X30850000Y-60400000D02*
X30900000Y-60350000D01*
X29000000Y-60400000D02*
X30850000Y-60400000D01*
X18850000Y-53650000D02*
X18850000Y-57450000D01*
X28300000Y-60400000D02*
X29000000Y-60400000D01*
X27324999Y-59424999D02*
X28300000Y-60400000D01*
X18850000Y-57450000D02*
X19600000Y-57450000D01*
X21574999Y-59424999D02*
X27324999Y-59424999D01*
X19600000Y-57450000D02*
X21574999Y-59424999D01*
X3350000Y-53650000D02*
X3300000Y-53700000D01*
X11860000Y-53650000D02*
X3350000Y-53650000D01*
X11910000Y-61350000D02*
X11600000Y-61350000D01*
X3840000Y-56240000D02*
X3300000Y-56240000D01*
X8410000Y-61350000D02*
X3300000Y-56240000D01*
X11910000Y-61350000D02*
X8410000Y-61350000D01*
X16090000Y-61350000D02*
X18900000Y-61350000D01*
X30800000Y-68100000D02*
X30850000Y-68050000D01*
X28950000Y-68100000D02*
X30800000Y-68100000D01*
X18900000Y-61350000D02*
X18900000Y-65150000D01*
X28250000Y-68100000D02*
X28950000Y-68100000D01*
X27274999Y-67124999D02*
X28250000Y-68100000D01*
X21624999Y-67124999D02*
X27274999Y-67124999D01*
X18900000Y-65150000D02*
X19650000Y-65150000D01*
X19650000Y-65150000D02*
X21624999Y-67124999D01*
X17615000Y-69050000D02*
X18850000Y-69050000D01*
X16040000Y-69050000D02*
X17615000Y-69050000D01*
X30800000Y-75800000D02*
X30850000Y-75750000D01*
X28950000Y-75800000D02*
X30800000Y-75800000D01*
X21574999Y-74824999D02*
X27274999Y-74824999D01*
X28250000Y-75800000D02*
X28950000Y-75800000D01*
X27274999Y-74824999D02*
X28250000Y-75800000D01*
X18850000Y-72850000D02*
X19600000Y-72850000D01*
X19600000Y-72850000D02*
X21574999Y-74824999D01*
X18850000Y-69050000D02*
X18850000Y-72850000D01*
X3300000Y-58780000D02*
X3780000Y-58780000D01*
X10600000Y-69050000D02*
X11860000Y-69050000D01*
X9950000Y-68400000D02*
X10600000Y-69050000D01*
X3300000Y-58780000D02*
X9950000Y-65430000D01*
X9950000Y-65430000D02*
X9950000Y-68400000D01*
X10250000Y-76750000D02*
X11860000Y-76750000D01*
X7650000Y-74150000D02*
X10250000Y-76750000D01*
X3300000Y-61320000D02*
X7650000Y-65670000D01*
X7650000Y-65670000D02*
X7650000Y-74150000D01*
X30800000Y-83500000D02*
X30850000Y-83450000D01*
X28950000Y-83500000D02*
X30800000Y-83500000D01*
X17615000Y-76750000D02*
X18850000Y-76750000D01*
X16040000Y-76750000D02*
X17615000Y-76750000D01*
X18850000Y-76750000D02*
X18850000Y-80550000D01*
X28250000Y-83500000D02*
X28950000Y-83500000D01*
X21539235Y-82489235D02*
X27239235Y-82489235D01*
X18850000Y-80550000D02*
X19600000Y-80550000D01*
X27239235Y-82489235D02*
X28250000Y-83500000D01*
X19600000Y-80550000D02*
X21539235Y-82489235D01*
X17615000Y-84450000D02*
X18850000Y-84450000D01*
X16040000Y-84450000D02*
X17615000Y-84450000D01*
X30800000Y-91500000D02*
X30850000Y-91450000D01*
X28950000Y-91500000D02*
X30800000Y-91500000D01*
X18850000Y-86300000D02*
X18850000Y-88450000D01*
X18850000Y-84450000D02*
X18850000Y-86300000D01*
X28250000Y-91500000D02*
X28950000Y-91500000D01*
X27274999Y-90524999D02*
X28250000Y-91500000D01*
X21674999Y-90524999D02*
X27274999Y-90524999D01*
X18850000Y-88450000D02*
X19600000Y-88450000D01*
X19600000Y-88450000D02*
X21674999Y-90524999D01*
X9950000Y-84450000D02*
X11860000Y-84450000D01*
X6350000Y-80850000D02*
X9950000Y-84450000D01*
X3300000Y-63860000D02*
X6350000Y-66910000D01*
X6350000Y-66910000D02*
X6350000Y-80850000D01*
X94000000Y-23790000D02*
X94000000Y-22540000D01*
X88875000Y-23900000D02*
X93890000Y-23900000D01*
X93890000Y-23900000D02*
X94000000Y-23790000D01*
X93900000Y-19900000D02*
X94000000Y-20000000D01*
X88875000Y-19900000D02*
X93900000Y-19900000D01*
X92900000Y-25900000D02*
X94000000Y-27000000D01*
X88875000Y-25900000D02*
X92900000Y-25900000D01*
X93640000Y-29900000D02*
X94000000Y-29540000D01*
X88875000Y-29900000D02*
X93640000Y-29900000D01*
X80651496Y-55150001D02*
X81501495Y-56000000D01*
X78001495Y-52500000D02*
X80651496Y-55150001D01*
X65500000Y-52500000D02*
X78001495Y-52500000D01*
X58050000Y-52950000D02*
X65050000Y-52950000D01*
X65050000Y-52950000D02*
X65500000Y-52500000D01*
X80610001Y-38849999D02*
X81460000Y-38000000D01*
X73000000Y-51000000D02*
X80610001Y-43389999D01*
X59250000Y-51000000D02*
X73000000Y-51000000D01*
X58050000Y-51450000D02*
X58800000Y-51450000D01*
X80610001Y-43389999D02*
X80610001Y-38849999D01*
X58800000Y-51450000D02*
X59250000Y-51000000D01*
X81200000Y-43800000D02*
X86800000Y-43800000D01*
X73500000Y-51500000D02*
X81200000Y-43800000D01*
X58082499Y-51917501D02*
X58810001Y-51917501D01*
X58050000Y-51950000D02*
X58082499Y-51917501D01*
X58810001Y-51917501D02*
X58827492Y-51900010D01*
X86800000Y-43800000D02*
X88050000Y-43800000D01*
X58827492Y-51900010D02*
X58986401Y-51900009D01*
X58986401Y-51900009D02*
X59386410Y-51500000D01*
X59386410Y-51500000D02*
X73500000Y-51500000D01*
X30800000Y-8250000D02*
X30850000Y-8300000D01*
X28950000Y-8250000D02*
X30800000Y-8250000D01*
X25050000Y-7300000D02*
X26950000Y-7300000D01*
D31*
X23950000Y-6300000D02*
X23950000Y-8300000D01*
X23950000Y-7300000D02*
X25050000Y-7300000D01*
X25050000Y-11100000D02*
X23950000Y-11100000D01*
X23950000Y-10000000D02*
X23950000Y-12150000D01*
D30*
X25050000Y-15000000D02*
X26950000Y-15000000D01*
D31*
X25050000Y-15000000D02*
X23950000Y-15000000D01*
X23950000Y-14000000D02*
X23950000Y-16000000D01*
X23950000Y-18850000D02*
X25050000Y-18850000D01*
X23950000Y-18850000D02*
X23950000Y-17850000D01*
X23950000Y-18850000D02*
X23950000Y-19850000D01*
D30*
X30800000Y-15950000D02*
X30850000Y-16000000D01*
X28950000Y-15950000D02*
X30800000Y-15950000D01*
X25050000Y-22750000D02*
X26950000Y-22750000D01*
D31*
X25050000Y-22750000D02*
X23950000Y-22750000D01*
X23950000Y-21750000D02*
X23950000Y-23750000D01*
X23950000Y-25550000D02*
X23950000Y-27550000D01*
X23950000Y-26550000D02*
X25050000Y-26550000D01*
D30*
X30800000Y-23700000D02*
X30850000Y-23750000D01*
X28950000Y-23700000D02*
X30800000Y-23700000D01*
X30800000Y-31400000D02*
X30850000Y-31450000D01*
X28950000Y-31400000D02*
X30800000Y-31400000D01*
X25050000Y-30450000D02*
X26950000Y-30450000D01*
D31*
X25050000Y-30450000D02*
X23950000Y-30450000D01*
X23950000Y-29450000D02*
X23950000Y-31450000D01*
X23950000Y-34250000D02*
X25050000Y-34250000D01*
X23950000Y-33250000D02*
X23950000Y-35250000D01*
D30*
X25050000Y-38150000D02*
X26950000Y-38150000D01*
D31*
X25050000Y-38150000D02*
X23950000Y-38150000D01*
X23950000Y-37150000D02*
X23950000Y-39150000D01*
X23950000Y-40950000D02*
X23950000Y-42950000D01*
X23950000Y-41950000D02*
X25050000Y-41950000D01*
D30*
X30800000Y-39100000D02*
X30850000Y-39150000D01*
X28950000Y-39100000D02*
X30800000Y-39100000D01*
X25050000Y-45850000D02*
X26950000Y-45850000D01*
D31*
X25050000Y-45850000D02*
X23950000Y-45850000D01*
X23950000Y-44850000D02*
X23950000Y-46850000D01*
X23950000Y-48700000D02*
X23950000Y-50700000D01*
X25000000Y-49700000D02*
X25050000Y-49650000D01*
X23950000Y-49700000D02*
X25000000Y-49700000D01*
D30*
X30800000Y-46800000D02*
X30850000Y-46850000D01*
X28950000Y-46800000D02*
X30800000Y-46800000D01*
X30800000Y-54600000D02*
X30850000Y-54650000D01*
X28950000Y-54600000D02*
X30800000Y-54600000D01*
X26950000Y-53650000D02*
X25050000Y-53650000D01*
D31*
X25050000Y-53650000D02*
X23950000Y-53650000D01*
X23950000Y-52650000D02*
X23950000Y-54650000D01*
X23950000Y-56450000D02*
X23950000Y-58450000D01*
X23950000Y-57450000D02*
X25050000Y-57450000D01*
D30*
X25100000Y-61350000D02*
X27000000Y-61350000D01*
D31*
X25100000Y-61350000D02*
X24000000Y-61350000D01*
X24000000Y-60350000D02*
X24000000Y-62350000D01*
X23950000Y-64150000D02*
X23950000Y-66150000D01*
X23950000Y-65150000D02*
X25100000Y-65150000D01*
D30*
X30850000Y-62300000D02*
X30900000Y-62350000D01*
X29000000Y-62300000D02*
X30850000Y-62300000D01*
X30800000Y-70000000D02*
X30850000Y-70050000D01*
X28950000Y-70000000D02*
X30800000Y-70000000D01*
X25050000Y-69050000D02*
X26950000Y-69050000D01*
D31*
X25050000Y-69050000D02*
X23950000Y-69050000D01*
X23950000Y-68050000D02*
X23950000Y-70050000D01*
X23950000Y-71850000D02*
X23950000Y-73850000D01*
X23950000Y-72850000D02*
X25050000Y-72850000D01*
D30*
X30800000Y-77700000D02*
X30850000Y-77750000D01*
X28950000Y-77700000D02*
X30800000Y-77700000D01*
X25050000Y-76750000D02*
X26950000Y-76750000D01*
D31*
X25050000Y-76750000D02*
X23950000Y-76750000D01*
X23950000Y-75750000D02*
X23950000Y-77750000D01*
X23950000Y-79550000D02*
X23950000Y-81550000D01*
X23950000Y-80550000D02*
X25050000Y-80550000D01*
D30*
X25050000Y-84450000D02*
X26950000Y-84450000D01*
D31*
X25050000Y-84450000D02*
X23950000Y-84450000D01*
X23950000Y-83450000D02*
X23950000Y-85450000D01*
X23950000Y-87400000D02*
X23950000Y-89400000D01*
X25000000Y-88400000D02*
X25050000Y-88450000D01*
X23950000Y-88400000D02*
X25000000Y-88400000D01*
D30*
X30800000Y-85400000D02*
X30850000Y-85450000D01*
X28950000Y-85400000D02*
X30800000Y-85400000D01*
X30800000Y-93400000D02*
X30850000Y-93450000D01*
X28950000Y-93400000D02*
X30800000Y-93400000D01*
X25050000Y-92450000D02*
X26950000Y-92450000D01*
D31*
X25050000Y-92450000D02*
X23950000Y-92450000D01*
X23950000Y-91450000D02*
X23950000Y-93450000D01*
X23950000Y-95450000D02*
X23950000Y-97450000D01*
X23950000Y-96450000D02*
X25050000Y-96450000D01*
D30*
X62000000Y-47000000D02*
X63000000Y-46000000D01*
X63000000Y-46000000D02*
X64900000Y-46000000D01*
X62050000Y-47050000D02*
X62000000Y-47000000D01*
X66000000Y-47050000D02*
X62050000Y-47050000D01*
X67100000Y-48000000D02*
X66950000Y-48000000D01*
X66950000Y-48000000D02*
X66000000Y-47050000D01*
X62000000Y-47000000D02*
X61272821Y-47000000D01*
X61272821Y-47000000D02*
X60422800Y-47850021D01*
X59013892Y-47850021D02*
X58996401Y-47867512D01*
X58996401Y-47867512D02*
X58746078Y-47867512D01*
X58663590Y-47950000D02*
X58050000Y-47950000D01*
X60422800Y-47850021D02*
X59013892Y-47850021D01*
X58746078Y-47867512D02*
X58663590Y-47950000D01*
X64450000Y-48450000D02*
X64900000Y-48000000D01*
X58050000Y-48450000D02*
X64450000Y-48450000D01*
X73000000Y-20650000D02*
X73000000Y-20800000D01*
X75125000Y-19900000D02*
X73750000Y-19900000D01*
X73750000Y-19900000D02*
X73000000Y-20650000D01*
X61000000Y-46000000D02*
X60050000Y-46950000D01*
X61000000Y-23000000D02*
X61000000Y-46000000D01*
X64000000Y-20000000D02*
X61000000Y-23000000D01*
X73000000Y-20800000D02*
X72200000Y-20000000D01*
X60050000Y-46950000D02*
X58050000Y-46950000D01*
X72200000Y-20000000D02*
X64000000Y-20000000D01*
X73000000Y-23150000D02*
X73000000Y-23000000D01*
X75125000Y-23900000D02*
X73750000Y-23900000D01*
X73750000Y-23900000D02*
X73000000Y-23150000D01*
X58082499Y-47417501D02*
X58050000Y-47450000D01*
X58810001Y-47417501D02*
X58082499Y-47417501D01*
X58827492Y-47400010D02*
X58810001Y-47417501D01*
X72600000Y-23400000D02*
X64600000Y-23400000D01*
X73000000Y-23000000D02*
X72600000Y-23400000D01*
X64600000Y-23400000D02*
X62000000Y-26000000D01*
X62000000Y-26000000D02*
X62000000Y-45636410D01*
X62000000Y-45636410D02*
X60236400Y-47400010D01*
X60236400Y-47400010D02*
X58827492Y-47400010D01*
X73000000Y-29250000D02*
X73000000Y-29100000D01*
X58800000Y-50450000D02*
X58050000Y-50450000D01*
X68550000Y-50450000D02*
X58800000Y-50450000D01*
X70000000Y-49000000D02*
X68550000Y-50450000D01*
X70000000Y-45000000D02*
X70000000Y-49000000D01*
X72250000Y-30000000D02*
X65000000Y-30000000D01*
X67000000Y-42000000D02*
X70000000Y-45000000D01*
X73000000Y-29250000D02*
X72250000Y-30000000D01*
X65000000Y-30000000D02*
X64000000Y-31000000D01*
X64000000Y-31000000D02*
X64000000Y-41000000D01*
X64000000Y-41000000D02*
X65000000Y-42000000D01*
X65000000Y-42000000D02*
X67000000Y-42000000D01*
X73525000Y-29775000D02*
X73000000Y-29250000D01*
X75125000Y-29900000D02*
X73650000Y-29900000D01*
X73650000Y-29900000D02*
X73525000Y-29775000D01*
X74000000Y-25900000D02*
X73000000Y-26900000D01*
X75125000Y-25900000D02*
X74000000Y-25900000D01*
X69549989Y-48813601D02*
X68413590Y-49950000D01*
X69549989Y-45186399D02*
X69549989Y-48813601D01*
X66813601Y-42450011D02*
X69549989Y-45186399D01*
X64450011Y-42450011D02*
X66813601Y-42450011D01*
X58800000Y-49950000D02*
X58050000Y-49950000D01*
X68413590Y-49950000D02*
X58800000Y-49950000D01*
X73000000Y-26900000D02*
X72300000Y-26900000D01*
X72300000Y-26900000D02*
X71400000Y-26000000D01*
X71400000Y-26000000D02*
X64000000Y-26000000D01*
X63000000Y-41000000D02*
X64450011Y-42450011D01*
X63000000Y-27000000D02*
X63000000Y-41000000D01*
X64000000Y-26000000D02*
X63000000Y-27000000D01*
X48950000Y-47950000D02*
X50550000Y-47950000D01*
X38450000Y-8300000D02*
X40450000Y-10300000D01*
X33050000Y-8300000D02*
X38450000Y-8300000D01*
X40450000Y-10300000D02*
X46000000Y-10300000D01*
X46000000Y-10300000D02*
X48500000Y-12800000D01*
X48500000Y-12800000D02*
X48500000Y-47500000D01*
X48500000Y-47500000D02*
X48950000Y-47950000D01*
X37913589Y-16000000D02*
X33050000Y-16000000D01*
X50550000Y-48950000D02*
X48495640Y-48950000D01*
X47500000Y-47954360D02*
X47500000Y-20850000D01*
X47500000Y-20850000D02*
X44150000Y-17500000D01*
X48495640Y-48950000D02*
X47500000Y-47954360D01*
X44150000Y-17500000D02*
X39413589Y-17500000D01*
X39413589Y-17500000D02*
X37913589Y-16000000D01*
X38413589Y-23750000D02*
X33050000Y-23750000D01*
X48222820Y-49950000D02*
X46500000Y-48227180D01*
X50550000Y-49950000D02*
X48222820Y-49950000D01*
X46500000Y-48227180D02*
X46500000Y-28350000D01*
X42900000Y-24750000D02*
X39413589Y-24750000D01*
X46500000Y-28350000D02*
X42900000Y-24750000D01*
X39413589Y-24750000D02*
X38413589Y-23750000D01*
X37950000Y-31450000D02*
X33050000Y-31450000D01*
X47950000Y-50950000D02*
X45500000Y-48500000D01*
X45500000Y-34750000D02*
X43200000Y-32450000D01*
X50550000Y-50950000D02*
X47950000Y-50950000D01*
X45500000Y-48500000D02*
X45500000Y-34750000D01*
X43200000Y-32450000D02*
X38950000Y-32450000D01*
X38950000Y-32450000D02*
X37950000Y-31450000D01*
X33050000Y-39150000D02*
X38013589Y-39150000D01*
X38013589Y-39150000D02*
X39513589Y-40650000D01*
X47113589Y-51950000D02*
X49800000Y-51950000D01*
X49800000Y-51950000D02*
X50550000Y-51950000D01*
X44549989Y-49386400D02*
X47113589Y-51950000D01*
X44549989Y-42513600D02*
X44549989Y-49386400D01*
X42686389Y-40650000D02*
X44549989Y-42513600D01*
X39513589Y-40650000D02*
X42686389Y-40650000D01*
X50550000Y-52950000D02*
X49936411Y-52950000D01*
X49853923Y-53032488D02*
X49603599Y-53032488D01*
X39363600Y-47600011D02*
X38563590Y-46800000D01*
X49603599Y-53032488D02*
X49586108Y-53049979D01*
X41263601Y-47600011D02*
X39363600Y-47600011D01*
X49586108Y-53049979D02*
X46713568Y-53049979D01*
X33950000Y-46800000D02*
X33900000Y-46850000D01*
X49936411Y-52950000D02*
X49853923Y-53032488D01*
X38563590Y-46800000D02*
X33950000Y-46800000D01*
X46713568Y-53049979D02*
X41263601Y-47600011D01*
X33900000Y-46850000D02*
X33050000Y-46850000D01*
X49800000Y-53950000D02*
X50550000Y-53950000D01*
X48595123Y-53950000D02*
X49800000Y-53950000D01*
X47395122Y-55150000D02*
X47572561Y-54972561D01*
X33050000Y-54650000D02*
X33550000Y-55150000D01*
X33550000Y-55150000D02*
X47395122Y-55150000D01*
X47572561Y-54972561D02*
X48595123Y-53950000D01*
X33950000Y-62350000D02*
X33100000Y-62350000D01*
X34450000Y-62850000D02*
X33950000Y-62350000D01*
X48867945Y-54950000D02*
X46700022Y-57117923D01*
X46699956Y-61900044D02*
X45750000Y-62850000D01*
X50550000Y-54950000D02*
X48867945Y-54950000D01*
X45750000Y-62850000D02*
X34450000Y-62850000D01*
X46700022Y-59072800D02*
X46699956Y-59072866D01*
X46700022Y-57117923D02*
X46700022Y-59072800D01*
X46699956Y-59072866D02*
X46699956Y-61900044D01*
X49800000Y-55950000D02*
X50550000Y-55950000D01*
X49140767Y-55950000D02*
X49800000Y-55950000D01*
X45450000Y-70050000D02*
X47599978Y-67900022D01*
X47600044Y-59445600D02*
X47600044Y-57490723D01*
X33050000Y-70050000D02*
X45450000Y-70050000D01*
X47599978Y-67900022D02*
X47599978Y-59445666D01*
X47599978Y-59445666D02*
X47600044Y-59445600D01*
X47600044Y-57490723D02*
X49140767Y-55950000D01*
X45950000Y-77750000D02*
X33050000Y-77750000D01*
X49413589Y-56950000D02*
X48500066Y-57863523D01*
X48500066Y-59818400D02*
X48500000Y-59818466D01*
X50550000Y-56950000D02*
X49413589Y-56950000D01*
X48500000Y-75200000D02*
X45950000Y-77750000D01*
X48500066Y-57863523D02*
X48500066Y-59818400D01*
X48500000Y-59818466D02*
X48500000Y-75200000D01*
X49800000Y-57950000D02*
X50550000Y-57950000D01*
X49500000Y-58250000D02*
X49800000Y-57950000D01*
X36675001Y-85450000D02*
X46750000Y-85450000D01*
X46750000Y-85450000D02*
X49500000Y-82700000D01*
X49500000Y-82700000D02*
X49500000Y-58250000D01*
X36675001Y-85450000D02*
X33050000Y-85450000D01*
X58050000Y-77450000D02*
X58050000Y-58450000D01*
X33050000Y-93450000D02*
X49400000Y-93450000D01*
X58050000Y-84800000D02*
X58050000Y-77450000D01*
X49400000Y-93450000D02*
X58050000Y-84800000D01*
D32*
X11860000Y-92450000D02*
X10035000Y-92450000D01*
X3300000Y-67750000D02*
X3300000Y-66400000D01*
X3300000Y-85715000D02*
X3300000Y-67750000D01*
X10035000Y-92450000D02*
X3300000Y-85715000D01*
D33*
G36*
X98813001Y-51373000D02*
G01*
X86627000Y-51373000D01*
X86627000Y-50199396D01*
X86829069Y-50260693D01*
X87050000Y-50282453D01*
X89050000Y-50282453D01*
X89270931Y-50260693D01*
X89483371Y-50196250D01*
X89679157Y-50091600D01*
X89850765Y-49950765D01*
X89991600Y-49779157D01*
X90096250Y-49583371D01*
X90160693Y-49370931D01*
X90182453Y-49150000D01*
X90182453Y-47650000D01*
X90160693Y-47429069D01*
X90096250Y-47216629D01*
X89991600Y-47020843D01*
X89850765Y-46849235D01*
X89685000Y-46713195D01*
X89685000Y-46385750D01*
X92715000Y-46385750D01*
X92715000Y-48062542D01*
X92739403Y-48185223D01*
X92787270Y-48300785D01*
X92856763Y-48404789D01*
X92945211Y-48493237D01*
X93049215Y-48562730D01*
X93164777Y-48610597D01*
X93287458Y-48635000D01*
X94064250Y-48635000D01*
X94223000Y-48476250D01*
X94223000Y-46227000D01*
X94477000Y-46227000D01*
X94477000Y-48476250D01*
X94635750Y-48635000D01*
X95412542Y-48635000D01*
X95535223Y-48610597D01*
X95650785Y-48562730D01*
X95754789Y-48493237D01*
X95843237Y-48404789D01*
X95912730Y-48300785D01*
X95960597Y-48185223D01*
X95985000Y-48062542D01*
X95985000Y-46385750D01*
X95826250Y-46227000D01*
X94477000Y-46227000D01*
X94223000Y-46227000D01*
X92873750Y-46227000D01*
X92715000Y-46385750D01*
X89685000Y-46385750D01*
X89526250Y-46227000D01*
X88177000Y-46227000D01*
X88177000Y-46247000D01*
X87923000Y-46247000D01*
X87923000Y-46227000D01*
X87903000Y-46227000D01*
X87903000Y-45973000D01*
X87923000Y-45973000D01*
X87923000Y-45953000D01*
X88177000Y-45953000D01*
X88177000Y-45973000D01*
X89526250Y-45973000D01*
X89685000Y-45814250D01*
X89685000Y-45486805D01*
X89850765Y-45350765D01*
X89991600Y-45179157D01*
X90096250Y-44983371D01*
X90160693Y-44770931D01*
X90182453Y-44550000D01*
X90182453Y-44137458D01*
X92715000Y-44137458D01*
X92715000Y-45814250D01*
X92873750Y-45973000D01*
X94223000Y-45973000D01*
X94223000Y-43723750D01*
X94477000Y-43723750D01*
X94477000Y-45973000D01*
X95826250Y-45973000D01*
X95985000Y-45814250D01*
X95985000Y-44137458D01*
X95960597Y-44014777D01*
X95912730Y-43899215D01*
X95843237Y-43795211D01*
X95754789Y-43706763D01*
X95650785Y-43637270D01*
X95535223Y-43589403D01*
X95412542Y-43565000D01*
X94635750Y-43565000D01*
X94477000Y-43723750D01*
X94223000Y-43723750D01*
X94064250Y-43565000D01*
X93287458Y-43565000D01*
X93164777Y-43589403D01*
X93049215Y-43637270D01*
X92945211Y-43706763D01*
X92856763Y-43795211D01*
X92787270Y-43899215D01*
X92739403Y-44014777D01*
X92715000Y-44137458D01*
X90182453Y-44137458D01*
X90182453Y-43050000D01*
X90160693Y-42829069D01*
X90096250Y-42616629D01*
X89991600Y-42420843D01*
X89850765Y-42249235D01*
X89679157Y-42108400D01*
X89483371Y-42003750D01*
X89270931Y-41939307D01*
X89050000Y-41917547D01*
X87050000Y-41917547D01*
X86829069Y-41939307D01*
X86627000Y-42000604D01*
X86627000Y-40627000D01*
X98813000Y-40627000D01*
X98813001Y-51373000D01*
X98813001Y-51373000D01*
G37*
X98813001Y-51373000D02*
X86627000Y-51373000D01*
X86627000Y-50199396D01*
X86829069Y-50260693D01*
X87050000Y-50282453D01*
X89050000Y-50282453D01*
X89270931Y-50260693D01*
X89483371Y-50196250D01*
X89679157Y-50091600D01*
X89850765Y-49950765D01*
X89991600Y-49779157D01*
X90096250Y-49583371D01*
X90160693Y-49370931D01*
X90182453Y-49150000D01*
X90182453Y-47650000D01*
X90160693Y-47429069D01*
X90096250Y-47216629D01*
X89991600Y-47020843D01*
X89850765Y-46849235D01*
X89685000Y-46713195D01*
X89685000Y-46385750D01*
X92715000Y-46385750D01*
X92715000Y-48062542D01*
X92739403Y-48185223D01*
X92787270Y-48300785D01*
X92856763Y-48404789D01*
X92945211Y-48493237D01*
X93049215Y-48562730D01*
X93164777Y-48610597D01*
X93287458Y-48635000D01*
X94064250Y-48635000D01*
X94223000Y-48476250D01*
X94223000Y-46227000D01*
X94477000Y-46227000D01*
X94477000Y-48476250D01*
X94635750Y-48635000D01*
X95412542Y-48635000D01*
X95535223Y-48610597D01*
X95650785Y-48562730D01*
X95754789Y-48493237D01*
X95843237Y-48404789D01*
X95912730Y-48300785D01*
X95960597Y-48185223D01*
X95985000Y-48062542D01*
X95985000Y-46385750D01*
X95826250Y-46227000D01*
X94477000Y-46227000D01*
X94223000Y-46227000D01*
X92873750Y-46227000D01*
X92715000Y-46385750D01*
X89685000Y-46385750D01*
X89526250Y-46227000D01*
X88177000Y-46227000D01*
X88177000Y-46247000D01*
X87923000Y-46247000D01*
X87923000Y-46227000D01*
X87903000Y-46227000D01*
X87903000Y-45973000D01*
X87923000Y-45973000D01*
X87923000Y-45953000D01*
X88177000Y-45953000D01*
X88177000Y-45973000D01*
X89526250Y-45973000D01*
X89685000Y-45814250D01*
X89685000Y-45486805D01*
X89850765Y-45350765D01*
X89991600Y-45179157D01*
X90096250Y-44983371D01*
X90160693Y-44770931D01*
X90182453Y-44550000D01*
X90182453Y-44137458D01*
X92715000Y-44137458D01*
X92715000Y-45814250D01*
X92873750Y-45973000D01*
X94223000Y-45973000D01*
X94223000Y-43723750D01*
X94477000Y-43723750D01*
X94477000Y-45973000D01*
X95826250Y-45973000D01*
X95985000Y-45814250D01*
X95985000Y-44137458D01*
X95960597Y-44014777D01*
X95912730Y-43899215D01*
X95843237Y-43795211D01*
X95754789Y-43706763D01*
X95650785Y-43637270D01*
X95535223Y-43589403D01*
X95412542Y-43565000D01*
X94635750Y-43565000D01*
X94477000Y-43723750D01*
X94223000Y-43723750D01*
X94064250Y-43565000D01*
X93287458Y-43565000D01*
X93164777Y-43589403D01*
X93049215Y-43637270D01*
X92945211Y-43706763D01*
X92856763Y-43795211D01*
X92787270Y-43899215D01*
X92739403Y-44014777D01*
X92715000Y-44137458D01*
X90182453Y-44137458D01*
X90182453Y-43050000D01*
X90160693Y-42829069D01*
X90096250Y-42616629D01*
X89991600Y-42420843D01*
X89850765Y-42249235D01*
X89679157Y-42108400D01*
X89483371Y-42003750D01*
X89270931Y-41939307D01*
X89050000Y-41917547D01*
X87050000Y-41917547D01*
X86829069Y-41939307D01*
X86627000Y-42000604D01*
X86627000Y-40627000D01*
X98813000Y-40627000D01*
X98813001Y-51373000D01*
M02*
