G04 #@! TF.GenerationSoftware,KiCad,Pcbnew,5.1.0-rc2-unknown-d2d2101~82~ubuntu18.10.1*
G04 #@! TF.CreationDate,2019-03-08T15:06:41-05:00*
G04 #@! TF.ProjectId,LTC6811,4c544336-3831-4312-9e6b-696361645f70,rev?*
G04 #@! TF.SameCoordinates,Original*
G04 #@! TF.FileFunction,Soldermask,Top*
G04 #@! TF.FilePolarity,Negative*
%FSLAX46Y46*%
G04 Gerber Fmt 4.6, Leading zero omitted, Abs format (unit mm)*
G04 Created by KiCad (PCBNEW 5.1.0-rc2-unknown-d2d2101~82~ubuntu18.10.1) date 2019-03-08 15:06:41*
%MOMM*%
%LPD*%
G04 APERTURE LIST*
%ADD10C,0.100000*%
G04 APERTURE END LIST*
D10*
G36*
X25601000Y-97901000D02*
G01*
X24499000Y-97901000D01*
X24499000Y-94599000D01*
X25601000Y-94599000D01*
X25601000Y-97901000D01*
X25601000Y-97901000D01*
G37*
G36*
X19401000Y-97901000D02*
G01*
X18299000Y-97901000D01*
X18299000Y-94599000D01*
X19401000Y-94599000D01*
X19401000Y-97901000D01*
X19401000Y-97901000D01*
G37*
G36*
X95536693Y-92301859D02*
G01*
X95802437Y-92354719D01*
X96303087Y-92562095D01*
X96483561Y-92682684D01*
X96753660Y-92863158D01*
X97136842Y-93246340D01*
X97317022Y-93516000D01*
X97437905Y-93696913D01*
X97645281Y-94197563D01*
X97655159Y-94247222D01*
X97751000Y-94729049D01*
X97751000Y-95270951D01*
X97715186Y-95451000D01*
X97645281Y-95802437D01*
X97437905Y-96303087D01*
X97381521Y-96387471D01*
X97136842Y-96753660D01*
X96753660Y-97136842D01*
X96490774Y-97312496D01*
X96303087Y-97437905D01*
X95802437Y-97645281D01*
X95536693Y-97698141D01*
X95270951Y-97751000D01*
X94729049Y-97751000D01*
X94463306Y-97698140D01*
X94197563Y-97645281D01*
X93696913Y-97437905D01*
X93509226Y-97312496D01*
X93246340Y-97136842D01*
X92863158Y-96753660D01*
X92618479Y-96387471D01*
X92562095Y-96303087D01*
X92354719Y-95802437D01*
X92284814Y-95451000D01*
X92249000Y-95270951D01*
X92249000Y-94729049D01*
X92344841Y-94247222D01*
X92354719Y-94197563D01*
X92562095Y-93696913D01*
X92682978Y-93516000D01*
X92863158Y-93246340D01*
X93246340Y-92863158D01*
X93516439Y-92682684D01*
X93696913Y-92562095D01*
X94197563Y-92354719D01*
X94463307Y-92301859D01*
X94729049Y-92249000D01*
X95270951Y-92249000D01*
X95536693Y-92301859D01*
X95536693Y-92301859D01*
G37*
G36*
X5536693Y-92301859D02*
G01*
X5802437Y-92354719D01*
X6303087Y-92562095D01*
X6483561Y-92682684D01*
X6753660Y-92863158D01*
X7136842Y-93246340D01*
X7317022Y-93516000D01*
X7437905Y-93696913D01*
X7645281Y-94197563D01*
X7655159Y-94247222D01*
X7751000Y-94729049D01*
X7751000Y-95270951D01*
X7715186Y-95451000D01*
X7645281Y-95802437D01*
X7437905Y-96303087D01*
X7381521Y-96387471D01*
X7136842Y-96753660D01*
X6753660Y-97136842D01*
X6490774Y-97312496D01*
X6303087Y-97437905D01*
X5802437Y-97645281D01*
X5536694Y-97698140D01*
X5270951Y-97751000D01*
X4729049Y-97751000D01*
X4463306Y-97698140D01*
X4197563Y-97645281D01*
X3696913Y-97437905D01*
X3509226Y-97312496D01*
X3246340Y-97136842D01*
X2863158Y-96753660D01*
X2618479Y-96387471D01*
X2562095Y-96303087D01*
X2354719Y-95802437D01*
X2284814Y-95451000D01*
X2249000Y-95270951D01*
X2249000Y-94729049D01*
X2344841Y-94247222D01*
X2354719Y-94197563D01*
X2562095Y-93696913D01*
X2682978Y-93516000D01*
X2863158Y-93246340D01*
X3246340Y-92863158D01*
X3516439Y-92682684D01*
X3696913Y-92562095D01*
X4197563Y-92354719D01*
X4463307Y-92301859D01*
X4729049Y-92249000D01*
X5270951Y-92249000D01*
X5536693Y-92301859D01*
X5536693Y-92301859D01*
G37*
G36*
X85430443Y-94105519D02*
G01*
X85496627Y-94112037D01*
X85666466Y-94163557D01*
X85822991Y-94247222D01*
X85858729Y-94276552D01*
X85960186Y-94359814D01*
X86043448Y-94461271D01*
X86072778Y-94497009D01*
X86156443Y-94653534D01*
X86207963Y-94823373D01*
X86225359Y-95000000D01*
X86207963Y-95176627D01*
X86156443Y-95346466D01*
X86072778Y-95502991D01*
X86043448Y-95538729D01*
X85960186Y-95640186D01*
X85858729Y-95723448D01*
X85822991Y-95752778D01*
X85666466Y-95836443D01*
X85496627Y-95887963D01*
X85430443Y-95894481D01*
X85364260Y-95901000D01*
X85275740Y-95901000D01*
X85209557Y-95894481D01*
X85143373Y-95887963D01*
X84973534Y-95836443D01*
X84817009Y-95752778D01*
X84781271Y-95723448D01*
X84679814Y-95640186D01*
X84596552Y-95538729D01*
X84567222Y-95502991D01*
X84483557Y-95346466D01*
X84432037Y-95176627D01*
X84414641Y-95000000D01*
X84432037Y-94823373D01*
X84483557Y-94653534D01*
X84567222Y-94497009D01*
X84596552Y-94461271D01*
X84679814Y-94359814D01*
X84781271Y-94276552D01*
X84817009Y-94247222D01*
X84973534Y-94163557D01*
X85143373Y-94112037D01*
X85209557Y-94105519D01*
X85275740Y-94099000D01*
X85364260Y-94099000D01*
X85430443Y-94105519D01*
X85430443Y-94105519D01*
G37*
G36*
X82890443Y-94105519D02*
G01*
X82956627Y-94112037D01*
X83126466Y-94163557D01*
X83282991Y-94247222D01*
X83318729Y-94276552D01*
X83420186Y-94359814D01*
X83503448Y-94461271D01*
X83532778Y-94497009D01*
X83616443Y-94653534D01*
X83667963Y-94823373D01*
X83685359Y-95000000D01*
X83667963Y-95176627D01*
X83616443Y-95346466D01*
X83532778Y-95502991D01*
X83503448Y-95538729D01*
X83420186Y-95640186D01*
X83318729Y-95723448D01*
X83282991Y-95752778D01*
X83126466Y-95836443D01*
X82956627Y-95887963D01*
X82890443Y-95894481D01*
X82824260Y-95901000D01*
X82735740Y-95901000D01*
X82669557Y-95894481D01*
X82603373Y-95887963D01*
X82433534Y-95836443D01*
X82277009Y-95752778D01*
X82241271Y-95723448D01*
X82139814Y-95640186D01*
X82056552Y-95538729D01*
X82027222Y-95502991D01*
X81943557Y-95346466D01*
X81892037Y-95176627D01*
X81874641Y-95000000D01*
X81892037Y-94823373D01*
X81943557Y-94653534D01*
X82027222Y-94497009D01*
X82056552Y-94461271D01*
X82139814Y-94359814D01*
X82241271Y-94276552D01*
X82277009Y-94247222D01*
X82433534Y-94163557D01*
X82603373Y-94112037D01*
X82669557Y-94105519D01*
X82735740Y-94099000D01*
X82824260Y-94099000D01*
X82890443Y-94105519D01*
X82890443Y-94105519D01*
G37*
G36*
X65901000Y-95901000D02*
G01*
X64099000Y-95901000D01*
X64099000Y-94099000D01*
X65901000Y-94099000D01*
X65901000Y-95901000D01*
X65901000Y-95901000D01*
G37*
G36*
X67650443Y-94105519D02*
G01*
X67716627Y-94112037D01*
X67886466Y-94163557D01*
X68042991Y-94247222D01*
X68078729Y-94276552D01*
X68180186Y-94359814D01*
X68263448Y-94461271D01*
X68292778Y-94497009D01*
X68376443Y-94653534D01*
X68427963Y-94823373D01*
X68445359Y-95000000D01*
X68427963Y-95176627D01*
X68376443Y-95346466D01*
X68292778Y-95502991D01*
X68263448Y-95538729D01*
X68180186Y-95640186D01*
X68078729Y-95723448D01*
X68042991Y-95752778D01*
X67886466Y-95836443D01*
X67716627Y-95887963D01*
X67650443Y-95894481D01*
X67584260Y-95901000D01*
X67495740Y-95901000D01*
X67429557Y-95894481D01*
X67363373Y-95887963D01*
X67193534Y-95836443D01*
X67037009Y-95752778D01*
X67001271Y-95723448D01*
X66899814Y-95640186D01*
X66816552Y-95538729D01*
X66787222Y-95502991D01*
X66703557Y-95346466D01*
X66652037Y-95176627D01*
X66634641Y-95000000D01*
X66652037Y-94823373D01*
X66703557Y-94653534D01*
X66787222Y-94497009D01*
X66816552Y-94461271D01*
X66899814Y-94359814D01*
X67001271Y-94276552D01*
X67037009Y-94247222D01*
X67193534Y-94163557D01*
X67363373Y-94112037D01*
X67429557Y-94105519D01*
X67495740Y-94099000D01*
X67584260Y-94099000D01*
X67650443Y-94105519D01*
X67650443Y-94105519D01*
G37*
G36*
X70190443Y-94105519D02*
G01*
X70256627Y-94112037D01*
X70426466Y-94163557D01*
X70582991Y-94247222D01*
X70618729Y-94276552D01*
X70720186Y-94359814D01*
X70803448Y-94461271D01*
X70832778Y-94497009D01*
X70916443Y-94653534D01*
X70967963Y-94823373D01*
X70985359Y-95000000D01*
X70967963Y-95176627D01*
X70916443Y-95346466D01*
X70832778Y-95502991D01*
X70803448Y-95538729D01*
X70720186Y-95640186D01*
X70618729Y-95723448D01*
X70582991Y-95752778D01*
X70426466Y-95836443D01*
X70256627Y-95887963D01*
X70190443Y-95894481D01*
X70124260Y-95901000D01*
X70035740Y-95901000D01*
X69969557Y-95894481D01*
X69903373Y-95887963D01*
X69733534Y-95836443D01*
X69577009Y-95752778D01*
X69541271Y-95723448D01*
X69439814Y-95640186D01*
X69356552Y-95538729D01*
X69327222Y-95502991D01*
X69243557Y-95346466D01*
X69192037Y-95176627D01*
X69174641Y-95000000D01*
X69192037Y-94823373D01*
X69243557Y-94653534D01*
X69327222Y-94497009D01*
X69356552Y-94461271D01*
X69439814Y-94359814D01*
X69541271Y-94276552D01*
X69577009Y-94247222D01*
X69733534Y-94163557D01*
X69903373Y-94112037D01*
X69969557Y-94105519D01*
X70035740Y-94099000D01*
X70124260Y-94099000D01*
X70190443Y-94105519D01*
X70190443Y-94105519D01*
G37*
G36*
X72730443Y-94105519D02*
G01*
X72796627Y-94112037D01*
X72966466Y-94163557D01*
X73122991Y-94247222D01*
X73158729Y-94276552D01*
X73260186Y-94359814D01*
X73343448Y-94461271D01*
X73372778Y-94497009D01*
X73456443Y-94653534D01*
X73507963Y-94823373D01*
X73525359Y-95000000D01*
X73507963Y-95176627D01*
X73456443Y-95346466D01*
X73372778Y-95502991D01*
X73343448Y-95538729D01*
X73260186Y-95640186D01*
X73158729Y-95723448D01*
X73122991Y-95752778D01*
X72966466Y-95836443D01*
X72796627Y-95887963D01*
X72730443Y-95894481D01*
X72664260Y-95901000D01*
X72575740Y-95901000D01*
X72509557Y-95894481D01*
X72443373Y-95887963D01*
X72273534Y-95836443D01*
X72117009Y-95752778D01*
X72081271Y-95723448D01*
X71979814Y-95640186D01*
X71896552Y-95538729D01*
X71867222Y-95502991D01*
X71783557Y-95346466D01*
X71732037Y-95176627D01*
X71714641Y-95000000D01*
X71732037Y-94823373D01*
X71783557Y-94653534D01*
X71867222Y-94497009D01*
X71896552Y-94461271D01*
X71979814Y-94359814D01*
X72081271Y-94276552D01*
X72117009Y-94247222D01*
X72273534Y-94163557D01*
X72443373Y-94112037D01*
X72509557Y-94105519D01*
X72575740Y-94099000D01*
X72664260Y-94099000D01*
X72730443Y-94105519D01*
X72730443Y-94105519D01*
G37*
G36*
X77810443Y-94105519D02*
G01*
X77876627Y-94112037D01*
X78046466Y-94163557D01*
X78202991Y-94247222D01*
X78238729Y-94276552D01*
X78340186Y-94359814D01*
X78423448Y-94461271D01*
X78452778Y-94497009D01*
X78536443Y-94653534D01*
X78587963Y-94823373D01*
X78605359Y-95000000D01*
X78587963Y-95176627D01*
X78536443Y-95346466D01*
X78452778Y-95502991D01*
X78423448Y-95538729D01*
X78340186Y-95640186D01*
X78238729Y-95723448D01*
X78202991Y-95752778D01*
X78046466Y-95836443D01*
X77876627Y-95887963D01*
X77810443Y-95894481D01*
X77744260Y-95901000D01*
X77655740Y-95901000D01*
X77589557Y-95894481D01*
X77523373Y-95887963D01*
X77353534Y-95836443D01*
X77197009Y-95752778D01*
X77161271Y-95723448D01*
X77059814Y-95640186D01*
X76976552Y-95538729D01*
X76947222Y-95502991D01*
X76863557Y-95346466D01*
X76812037Y-95176627D01*
X76794641Y-95000000D01*
X76812037Y-94823373D01*
X76863557Y-94653534D01*
X76947222Y-94497009D01*
X76976552Y-94461271D01*
X77059814Y-94359814D01*
X77161271Y-94276552D01*
X77197009Y-94247222D01*
X77353534Y-94163557D01*
X77523373Y-94112037D01*
X77589557Y-94105519D01*
X77655740Y-94099000D01*
X77744260Y-94099000D01*
X77810443Y-94105519D01*
X77810443Y-94105519D01*
G37*
G36*
X75270443Y-94105519D02*
G01*
X75336627Y-94112037D01*
X75506466Y-94163557D01*
X75662991Y-94247222D01*
X75698729Y-94276552D01*
X75800186Y-94359814D01*
X75883448Y-94461271D01*
X75912778Y-94497009D01*
X75996443Y-94653534D01*
X76047963Y-94823373D01*
X76065359Y-95000000D01*
X76047963Y-95176627D01*
X75996443Y-95346466D01*
X75912778Y-95502991D01*
X75883448Y-95538729D01*
X75800186Y-95640186D01*
X75698729Y-95723448D01*
X75662991Y-95752778D01*
X75506466Y-95836443D01*
X75336627Y-95887963D01*
X75270443Y-95894481D01*
X75204260Y-95901000D01*
X75115740Y-95901000D01*
X75049557Y-95894481D01*
X74983373Y-95887963D01*
X74813534Y-95836443D01*
X74657009Y-95752778D01*
X74621271Y-95723448D01*
X74519814Y-95640186D01*
X74436552Y-95538729D01*
X74407222Y-95502991D01*
X74323557Y-95346466D01*
X74272037Y-95176627D01*
X74254641Y-95000000D01*
X74272037Y-94823373D01*
X74323557Y-94653534D01*
X74407222Y-94497009D01*
X74436552Y-94461271D01*
X74519814Y-94359814D01*
X74621271Y-94276552D01*
X74657009Y-94247222D01*
X74813534Y-94163557D01*
X74983373Y-94112037D01*
X75049557Y-94105519D01*
X75115740Y-94099000D01*
X75204260Y-94099000D01*
X75270443Y-94105519D01*
X75270443Y-94105519D01*
G37*
G36*
X87970443Y-94105519D02*
G01*
X88036627Y-94112037D01*
X88206466Y-94163557D01*
X88362991Y-94247222D01*
X88398729Y-94276552D01*
X88500186Y-94359814D01*
X88583448Y-94461271D01*
X88612778Y-94497009D01*
X88696443Y-94653534D01*
X88747963Y-94823373D01*
X88765359Y-95000000D01*
X88747963Y-95176627D01*
X88696443Y-95346466D01*
X88612778Y-95502991D01*
X88583448Y-95538729D01*
X88500186Y-95640186D01*
X88398729Y-95723448D01*
X88362991Y-95752778D01*
X88206466Y-95836443D01*
X88036627Y-95887963D01*
X87970443Y-95894481D01*
X87904260Y-95901000D01*
X87815740Y-95901000D01*
X87749557Y-95894481D01*
X87683373Y-95887963D01*
X87513534Y-95836443D01*
X87357009Y-95752778D01*
X87321271Y-95723448D01*
X87219814Y-95640186D01*
X87136552Y-95538729D01*
X87107222Y-95502991D01*
X87023557Y-95346466D01*
X86972037Y-95176627D01*
X86954641Y-95000000D01*
X86972037Y-94823373D01*
X87023557Y-94653534D01*
X87107222Y-94497009D01*
X87136552Y-94461271D01*
X87219814Y-94359814D01*
X87321271Y-94276552D01*
X87357009Y-94247222D01*
X87513534Y-94163557D01*
X87683373Y-94112037D01*
X87749557Y-94105519D01*
X87815740Y-94099000D01*
X87904260Y-94099000D01*
X87970443Y-94105519D01*
X87970443Y-94105519D01*
G37*
G36*
X80350443Y-94105519D02*
G01*
X80416627Y-94112037D01*
X80586466Y-94163557D01*
X80742991Y-94247222D01*
X80778729Y-94276552D01*
X80880186Y-94359814D01*
X80963448Y-94461271D01*
X80992778Y-94497009D01*
X81076443Y-94653534D01*
X81127963Y-94823373D01*
X81145359Y-95000000D01*
X81127963Y-95176627D01*
X81076443Y-95346466D01*
X80992778Y-95502991D01*
X80963448Y-95538729D01*
X80880186Y-95640186D01*
X80778729Y-95723448D01*
X80742991Y-95752778D01*
X80586466Y-95836443D01*
X80416627Y-95887963D01*
X80350443Y-95894481D01*
X80284260Y-95901000D01*
X80195740Y-95901000D01*
X80129557Y-95894481D01*
X80063373Y-95887963D01*
X79893534Y-95836443D01*
X79737009Y-95752778D01*
X79701271Y-95723448D01*
X79599814Y-95640186D01*
X79516552Y-95538729D01*
X79487222Y-95502991D01*
X79403557Y-95346466D01*
X79352037Y-95176627D01*
X79334641Y-95000000D01*
X79352037Y-94823373D01*
X79403557Y-94653534D01*
X79487222Y-94497009D01*
X79516552Y-94461271D01*
X79599814Y-94359814D01*
X79701271Y-94276552D01*
X79737009Y-94247222D01*
X79893534Y-94163557D01*
X80063373Y-94112037D01*
X80129557Y-94105519D01*
X80195740Y-94099000D01*
X80284260Y-94099000D01*
X80350443Y-94105519D01*
X80350443Y-94105519D01*
G37*
G36*
X36401000Y-95251000D02*
G01*
X35299000Y-95251000D01*
X35299000Y-94149000D01*
X36401000Y-94149000D01*
X36401000Y-95251000D01*
X36401000Y-95251000D01*
G37*
G36*
X25601000Y-94101000D02*
G01*
X24499000Y-94101000D01*
X24499000Y-90799000D01*
X25601000Y-90799000D01*
X25601000Y-94101000D01*
X25601000Y-94101000D01*
G37*
G36*
X19401000Y-94101000D02*
G01*
X18299000Y-94101000D01*
X18299000Y-90799000D01*
X19401000Y-90799000D01*
X19401000Y-94101000D01*
X19401000Y-94101000D01*
G37*
G36*
X31501000Y-93951000D02*
G01*
X30199000Y-93951000D01*
X30199000Y-92949000D01*
X31501000Y-92949000D01*
X31501000Y-93951000D01*
X31501000Y-93951000D01*
G37*
G36*
X33701000Y-93951000D02*
G01*
X32399000Y-93951000D01*
X32399000Y-92949000D01*
X33701000Y-92949000D01*
X33701000Y-93951000D01*
X33701000Y-93951000D01*
G37*
G36*
X29451000Y-93851000D02*
G01*
X28449000Y-93851000D01*
X28449000Y-92949000D01*
X29451000Y-92949000D01*
X29451000Y-93851000D01*
X29451000Y-93851000D01*
G37*
G36*
X17416000Y-93516000D02*
G01*
X14664000Y-93516000D01*
X14664000Y-91384000D01*
X17416000Y-91384000D01*
X17416000Y-93516000D01*
X17416000Y-93516000D01*
G37*
G36*
X13236000Y-93516000D02*
G01*
X10484000Y-93516000D01*
X10484000Y-91384000D01*
X13236000Y-91384000D01*
X13236000Y-93516000D01*
X13236000Y-93516000D01*
G37*
G36*
X27451000Y-92901000D02*
G01*
X26449000Y-92901000D01*
X26449000Y-91999000D01*
X27451000Y-91999000D01*
X27451000Y-92901000D01*
X27451000Y-92901000D01*
G37*
G36*
X36401000Y-92751000D02*
G01*
X35299000Y-92751000D01*
X35299000Y-91649000D01*
X36401000Y-91649000D01*
X36401000Y-92751000D01*
X36401000Y-92751000D01*
G37*
G36*
X66801000Y-92451000D02*
G01*
X65799000Y-92451000D01*
X65799000Y-91149000D01*
X66801000Y-91149000D01*
X66801000Y-92451000D01*
X66801000Y-92451000D01*
G37*
G36*
X70801000Y-92451000D02*
G01*
X69799000Y-92451000D01*
X69799000Y-91149000D01*
X70801000Y-91149000D01*
X70801000Y-92451000D01*
X70801000Y-92451000D01*
G37*
G36*
X78801000Y-92451000D02*
G01*
X77799000Y-92451000D01*
X77799000Y-91149000D01*
X78801000Y-91149000D01*
X78801000Y-92451000D01*
X78801000Y-92451000D01*
G37*
G36*
X74801000Y-92451000D02*
G01*
X73799000Y-92451000D01*
X73799000Y-91149000D01*
X74801000Y-91149000D01*
X74801000Y-92451000D01*
X74801000Y-92451000D01*
G37*
G36*
X82801000Y-92451000D02*
G01*
X81799000Y-92451000D01*
X81799000Y-91149000D01*
X82801000Y-91149000D01*
X82801000Y-92451000D01*
X82801000Y-92451000D01*
G37*
G36*
X64726000Y-92301000D02*
G01*
X63874000Y-92301000D01*
X63874000Y-90999000D01*
X64726000Y-90999000D01*
X64726000Y-92301000D01*
X64726000Y-92301000D01*
G37*
G36*
X68726000Y-92301000D02*
G01*
X67874000Y-92301000D01*
X67874000Y-90999000D01*
X68726000Y-90999000D01*
X68726000Y-92301000D01*
X68726000Y-92301000D01*
G37*
G36*
X80726000Y-92301000D02*
G01*
X79874000Y-92301000D01*
X79874000Y-90999000D01*
X80726000Y-90999000D01*
X80726000Y-92301000D01*
X80726000Y-92301000D01*
G37*
G36*
X76726000Y-92301000D02*
G01*
X75874000Y-92301000D01*
X75874000Y-90999000D01*
X76726000Y-90999000D01*
X76726000Y-92301000D01*
X76726000Y-92301000D01*
G37*
G36*
X72726000Y-92301000D02*
G01*
X71874000Y-92301000D01*
X71874000Y-90999000D01*
X72726000Y-90999000D01*
X72726000Y-92301000D01*
X72726000Y-92301000D01*
G37*
G36*
X39501000Y-92126000D02*
G01*
X37899000Y-92126000D01*
X37899000Y-90774000D01*
X39501000Y-90774000D01*
X39501000Y-92126000D01*
X39501000Y-92126000D01*
G37*
G36*
X42001000Y-92126000D02*
G01*
X40399000Y-92126000D01*
X40399000Y-90774000D01*
X42001000Y-90774000D01*
X42001000Y-92126000D01*
X42001000Y-92126000D01*
G37*
G36*
X31501000Y-91951000D02*
G01*
X30199000Y-91951000D01*
X30199000Y-90949000D01*
X31501000Y-90949000D01*
X31501000Y-91951000D01*
X31501000Y-91951000D01*
G37*
G36*
X29451000Y-91951000D02*
G01*
X28449000Y-91951000D01*
X28449000Y-91049000D01*
X29451000Y-91049000D01*
X29451000Y-91951000D01*
X29451000Y-91951000D01*
G37*
G36*
X33701000Y-91951000D02*
G01*
X32399000Y-91951000D01*
X32399000Y-90949000D01*
X33701000Y-90949000D01*
X33701000Y-91951000D01*
X33701000Y-91951000D01*
G37*
G36*
X68726000Y-90401000D02*
G01*
X67874000Y-90401000D01*
X67874000Y-89099000D01*
X68726000Y-89099000D01*
X68726000Y-90401000D01*
X68726000Y-90401000D01*
G37*
G36*
X72726000Y-90401000D02*
G01*
X71874000Y-90401000D01*
X71874000Y-89099000D01*
X72726000Y-89099000D01*
X72726000Y-90401000D01*
X72726000Y-90401000D01*
G37*
G36*
X80726000Y-90401000D02*
G01*
X79874000Y-90401000D01*
X79874000Y-89099000D01*
X80726000Y-89099000D01*
X80726000Y-90401000D01*
X80726000Y-90401000D01*
G37*
G36*
X64726000Y-90401000D02*
G01*
X63874000Y-90401000D01*
X63874000Y-89099000D01*
X64726000Y-89099000D01*
X64726000Y-90401000D01*
X64726000Y-90401000D01*
G37*
G36*
X76726000Y-90401000D02*
G01*
X75874000Y-90401000D01*
X75874000Y-89099000D01*
X76726000Y-89099000D01*
X76726000Y-90401000D01*
X76726000Y-90401000D01*
G37*
G36*
X78801000Y-90251000D02*
G01*
X77799000Y-90251000D01*
X77799000Y-88949000D01*
X78801000Y-88949000D01*
X78801000Y-90251000D01*
X78801000Y-90251000D01*
G37*
G36*
X74801000Y-90251000D02*
G01*
X73799000Y-90251000D01*
X73799000Y-88949000D01*
X74801000Y-88949000D01*
X74801000Y-90251000D01*
X74801000Y-90251000D01*
G37*
G36*
X70801000Y-90251000D02*
G01*
X69799000Y-90251000D01*
X69799000Y-88949000D01*
X70801000Y-88949000D01*
X70801000Y-90251000D01*
X70801000Y-90251000D01*
G37*
G36*
X66801000Y-90251000D02*
G01*
X65799000Y-90251000D01*
X65799000Y-88949000D01*
X66801000Y-88949000D01*
X66801000Y-90251000D01*
X66801000Y-90251000D01*
G37*
G36*
X82801000Y-90251000D02*
G01*
X81799000Y-90251000D01*
X81799000Y-88949000D01*
X82801000Y-88949000D01*
X82801000Y-90251000D01*
X82801000Y-90251000D01*
G37*
G36*
X25601000Y-90101000D02*
G01*
X24499000Y-90101000D01*
X24499000Y-86799000D01*
X25601000Y-86799000D01*
X25601000Y-90101000D01*
X25601000Y-90101000D01*
G37*
G36*
X19401000Y-90101000D02*
G01*
X18299000Y-90101000D01*
X18299000Y-86799000D01*
X19401000Y-86799000D01*
X19401000Y-90101000D01*
X19401000Y-90101000D01*
G37*
G36*
X36401000Y-87401000D02*
G01*
X35299000Y-87401000D01*
X35299000Y-86299000D01*
X36401000Y-86299000D01*
X36401000Y-87401000D01*
X36401000Y-87401000D01*
G37*
G36*
X19401000Y-86101000D02*
G01*
X18299000Y-86101000D01*
X18299000Y-82799000D01*
X19401000Y-82799000D01*
X19401000Y-86101000D01*
X19401000Y-86101000D01*
G37*
G36*
X25601000Y-86101000D02*
G01*
X24499000Y-86101000D01*
X24499000Y-82799000D01*
X25601000Y-82799000D01*
X25601000Y-86101000D01*
X25601000Y-86101000D01*
G37*
G36*
X31501000Y-85951000D02*
G01*
X30199000Y-85951000D01*
X30199000Y-84949000D01*
X31501000Y-84949000D01*
X31501000Y-85951000D01*
X31501000Y-85951000D01*
G37*
G36*
X33701000Y-85951000D02*
G01*
X32399000Y-85951000D01*
X32399000Y-84949000D01*
X33701000Y-84949000D01*
X33701000Y-85951000D01*
X33701000Y-85951000D01*
G37*
G36*
X29451000Y-85851000D02*
G01*
X28449000Y-85851000D01*
X28449000Y-84949000D01*
X29451000Y-84949000D01*
X29451000Y-85851000D01*
X29451000Y-85851000D01*
G37*
G36*
X17416000Y-85516000D02*
G01*
X14664000Y-85516000D01*
X14664000Y-83384000D01*
X17416000Y-83384000D01*
X17416000Y-85516000D01*
X17416000Y-85516000D01*
G37*
G36*
X13236000Y-85516000D02*
G01*
X10484000Y-85516000D01*
X10484000Y-83384000D01*
X13236000Y-83384000D01*
X13236000Y-85516000D01*
X13236000Y-85516000D01*
G37*
G36*
X27451000Y-84901000D02*
G01*
X26449000Y-84901000D01*
X26449000Y-83999000D01*
X27451000Y-83999000D01*
X27451000Y-84901000D01*
X27451000Y-84901000D01*
G37*
G36*
X36401000Y-84901000D02*
G01*
X35299000Y-84901000D01*
X35299000Y-83799000D01*
X36401000Y-83799000D01*
X36401000Y-84901000D01*
X36401000Y-84901000D01*
G37*
G36*
X39501000Y-84126000D02*
G01*
X37899000Y-84126000D01*
X37899000Y-82774000D01*
X39501000Y-82774000D01*
X39501000Y-84126000D01*
X39501000Y-84126000D01*
G37*
G36*
X42001000Y-84126000D02*
G01*
X40399000Y-84126000D01*
X40399000Y-82774000D01*
X42001000Y-82774000D01*
X42001000Y-84126000D01*
X42001000Y-84126000D01*
G37*
G36*
X29451000Y-83951000D02*
G01*
X28449000Y-83951000D01*
X28449000Y-83049000D01*
X29451000Y-83049000D01*
X29451000Y-83951000D01*
X29451000Y-83951000D01*
G37*
G36*
X33701000Y-83951000D02*
G01*
X32399000Y-83951000D01*
X32399000Y-82949000D01*
X33701000Y-82949000D01*
X33701000Y-83951000D01*
X33701000Y-83951000D01*
G37*
G36*
X31501000Y-83951000D02*
G01*
X30199000Y-83951000D01*
X30199000Y-82949000D01*
X31501000Y-82949000D01*
X31501000Y-83951000D01*
X31501000Y-83951000D01*
G37*
G36*
X19401000Y-82201000D02*
G01*
X18299000Y-82201000D01*
X18299000Y-78899000D01*
X19401000Y-78899000D01*
X19401000Y-82201000D01*
X19401000Y-82201000D01*
G37*
G36*
X25601000Y-82201000D02*
G01*
X24499000Y-82201000D01*
X24499000Y-78899000D01*
X25601000Y-78899000D01*
X25601000Y-82201000D01*
X25601000Y-82201000D01*
G37*
G36*
X36401000Y-79551000D02*
G01*
X35299000Y-79551000D01*
X35299000Y-78449000D01*
X36401000Y-78449000D01*
X36401000Y-79551000D01*
X36401000Y-79551000D01*
G37*
G36*
X19401000Y-78401000D02*
G01*
X18299000Y-78401000D01*
X18299000Y-75099000D01*
X19401000Y-75099000D01*
X19401000Y-78401000D01*
X19401000Y-78401000D01*
G37*
G36*
X25601000Y-78401000D02*
G01*
X24499000Y-78401000D01*
X24499000Y-75099000D01*
X25601000Y-75099000D01*
X25601000Y-78401000D01*
X25601000Y-78401000D01*
G37*
G36*
X31501000Y-78251000D02*
G01*
X30199000Y-78251000D01*
X30199000Y-77249000D01*
X31501000Y-77249000D01*
X31501000Y-78251000D01*
X31501000Y-78251000D01*
G37*
G36*
X33701000Y-78251000D02*
G01*
X32399000Y-78251000D01*
X32399000Y-77249000D01*
X33701000Y-77249000D01*
X33701000Y-78251000D01*
X33701000Y-78251000D01*
G37*
G36*
X29451000Y-78151000D02*
G01*
X28449000Y-78151000D01*
X28449000Y-77249000D01*
X29451000Y-77249000D01*
X29451000Y-78151000D01*
X29451000Y-78151000D01*
G37*
G36*
X17416000Y-77816000D02*
G01*
X14664000Y-77816000D01*
X14664000Y-75684000D01*
X17416000Y-75684000D01*
X17416000Y-77816000D01*
X17416000Y-77816000D01*
G37*
G36*
X13236000Y-77816000D02*
G01*
X10484000Y-77816000D01*
X10484000Y-75684000D01*
X13236000Y-75684000D01*
X13236000Y-77816000D01*
X13236000Y-77816000D01*
G37*
G36*
X27451000Y-77201000D02*
G01*
X26449000Y-77201000D01*
X26449000Y-76299000D01*
X27451000Y-76299000D01*
X27451000Y-77201000D01*
X27451000Y-77201000D01*
G37*
G36*
X36401000Y-77051000D02*
G01*
X35299000Y-77051000D01*
X35299000Y-75949000D01*
X36401000Y-75949000D01*
X36401000Y-77051000D01*
X36401000Y-77051000D01*
G37*
G36*
X39501000Y-76426000D02*
G01*
X37899000Y-76426000D01*
X37899000Y-75074000D01*
X39501000Y-75074000D01*
X39501000Y-76426000D01*
X39501000Y-76426000D01*
G37*
G36*
X42001000Y-76426000D02*
G01*
X40399000Y-76426000D01*
X40399000Y-75074000D01*
X42001000Y-75074000D01*
X42001000Y-76426000D01*
X42001000Y-76426000D01*
G37*
G36*
X29451000Y-76251000D02*
G01*
X28449000Y-76251000D01*
X28449000Y-75349000D01*
X29451000Y-75349000D01*
X29451000Y-76251000D01*
X29451000Y-76251000D01*
G37*
G36*
X33701000Y-76251000D02*
G01*
X32399000Y-76251000D01*
X32399000Y-75249000D01*
X33701000Y-75249000D01*
X33701000Y-76251000D01*
X33701000Y-76251000D01*
G37*
G36*
X31501000Y-76251000D02*
G01*
X30199000Y-76251000D01*
X30199000Y-75249000D01*
X31501000Y-75249000D01*
X31501000Y-76251000D01*
X31501000Y-76251000D01*
G37*
G36*
X25601000Y-74501000D02*
G01*
X24499000Y-74501000D01*
X24499000Y-71199000D01*
X25601000Y-71199000D01*
X25601000Y-74501000D01*
X25601000Y-74501000D01*
G37*
G36*
X19401000Y-74501000D02*
G01*
X18299000Y-74501000D01*
X18299000Y-71199000D01*
X19401000Y-71199000D01*
X19401000Y-74501000D01*
X19401000Y-74501000D01*
G37*
G36*
X36401000Y-71851000D02*
G01*
X35299000Y-71851000D01*
X35299000Y-70749000D01*
X36401000Y-70749000D01*
X36401000Y-71851000D01*
X36401000Y-71851000D01*
G37*
G36*
X25601000Y-70701000D02*
G01*
X24499000Y-70701000D01*
X24499000Y-67399000D01*
X25601000Y-67399000D01*
X25601000Y-70701000D01*
X25601000Y-70701000D01*
G37*
G36*
X19401000Y-70701000D02*
G01*
X18299000Y-70701000D01*
X18299000Y-67399000D01*
X19401000Y-67399000D01*
X19401000Y-70701000D01*
X19401000Y-70701000D01*
G37*
G36*
X31501000Y-70551000D02*
G01*
X30199000Y-70551000D01*
X30199000Y-69549000D01*
X31501000Y-69549000D01*
X31501000Y-70551000D01*
X31501000Y-70551000D01*
G37*
G36*
X33701000Y-70551000D02*
G01*
X32399000Y-70551000D01*
X32399000Y-69549000D01*
X33701000Y-69549000D01*
X33701000Y-70551000D01*
X33701000Y-70551000D01*
G37*
G36*
X29451000Y-70451000D02*
G01*
X28449000Y-70451000D01*
X28449000Y-69549000D01*
X29451000Y-69549000D01*
X29451000Y-70451000D01*
X29451000Y-70451000D01*
G37*
G36*
X13236000Y-70116000D02*
G01*
X10484000Y-70116000D01*
X10484000Y-67984000D01*
X13236000Y-67984000D01*
X13236000Y-70116000D01*
X13236000Y-70116000D01*
G37*
G36*
X17416000Y-70116000D02*
G01*
X14664000Y-70116000D01*
X14664000Y-67984000D01*
X17416000Y-67984000D01*
X17416000Y-70116000D01*
X17416000Y-70116000D01*
G37*
G36*
X27451000Y-69501000D02*
G01*
X26449000Y-69501000D01*
X26449000Y-68599000D01*
X27451000Y-68599000D01*
X27451000Y-69501000D01*
X27451000Y-69501000D01*
G37*
G36*
X36401000Y-69351000D02*
G01*
X35299000Y-69351000D01*
X35299000Y-68249000D01*
X36401000Y-68249000D01*
X36401000Y-69351000D01*
X36401000Y-69351000D01*
G37*
G36*
X41951000Y-68776000D02*
G01*
X40349000Y-68776000D01*
X40349000Y-67424000D01*
X41951000Y-67424000D01*
X41951000Y-68776000D01*
X41951000Y-68776000D01*
G37*
G36*
X39451000Y-68776000D02*
G01*
X37849000Y-68776000D01*
X37849000Y-67424000D01*
X39451000Y-67424000D01*
X39451000Y-68776000D01*
X39451000Y-68776000D01*
G37*
G36*
X31501000Y-68551000D02*
G01*
X30199000Y-68551000D01*
X30199000Y-67549000D01*
X31501000Y-67549000D01*
X31501000Y-68551000D01*
X31501000Y-68551000D01*
G37*
G36*
X29451000Y-68551000D02*
G01*
X28449000Y-68551000D01*
X28449000Y-67649000D01*
X29451000Y-67649000D01*
X29451000Y-68551000D01*
X29451000Y-68551000D01*
G37*
G36*
X33701000Y-68551000D02*
G01*
X32399000Y-68551000D01*
X32399000Y-67549000D01*
X33701000Y-67549000D01*
X33701000Y-68551000D01*
X33701000Y-68551000D01*
G37*
G36*
X4201000Y-67301000D02*
G01*
X2399000Y-67301000D01*
X2399000Y-65499000D01*
X4201000Y-65499000D01*
X4201000Y-67301000D01*
X4201000Y-67301000D01*
G37*
G36*
X25651000Y-66801000D02*
G01*
X24549000Y-66801000D01*
X24549000Y-63499000D01*
X25651000Y-63499000D01*
X25651000Y-66801000D01*
X25651000Y-66801000D01*
G37*
G36*
X19451000Y-66801000D02*
G01*
X18349000Y-66801000D01*
X18349000Y-63499000D01*
X19451000Y-63499000D01*
X19451000Y-66801000D01*
X19451000Y-66801000D01*
G37*
G36*
X3410442Y-62965518D02*
G01*
X3476627Y-62972037D01*
X3646466Y-63023557D01*
X3802991Y-63107222D01*
X3838729Y-63136552D01*
X3940186Y-63219814D01*
X4023448Y-63321271D01*
X4052778Y-63357009D01*
X4136443Y-63513534D01*
X4187963Y-63683373D01*
X4205359Y-63860000D01*
X4187963Y-64036627D01*
X4136443Y-64206466D01*
X4052778Y-64362991D01*
X4023448Y-64398729D01*
X3940186Y-64500186D01*
X3838729Y-64583448D01*
X3802991Y-64612778D01*
X3646466Y-64696443D01*
X3476627Y-64747963D01*
X3410443Y-64754481D01*
X3344260Y-64761000D01*
X3255740Y-64761000D01*
X3189557Y-64754481D01*
X3123373Y-64747963D01*
X2953534Y-64696443D01*
X2797009Y-64612778D01*
X2761271Y-64583448D01*
X2659814Y-64500186D01*
X2576552Y-64398729D01*
X2547222Y-64362991D01*
X2463557Y-64206466D01*
X2412037Y-64036627D01*
X2394641Y-63860000D01*
X2412037Y-63683373D01*
X2463557Y-63513534D01*
X2547222Y-63357009D01*
X2576552Y-63321271D01*
X2659814Y-63219814D01*
X2761271Y-63136552D01*
X2797009Y-63107222D01*
X2953534Y-63023557D01*
X3123373Y-62972037D01*
X3189558Y-62965518D01*
X3255740Y-62959000D01*
X3344260Y-62959000D01*
X3410442Y-62965518D01*
X3410442Y-62965518D01*
G37*
G36*
X36451000Y-64651000D02*
G01*
X35349000Y-64651000D01*
X35349000Y-63549000D01*
X36451000Y-63549000D01*
X36451000Y-64651000D01*
X36451000Y-64651000D01*
G37*
G36*
X19451000Y-63001000D02*
G01*
X18349000Y-63001000D01*
X18349000Y-59699000D01*
X19451000Y-59699000D01*
X19451000Y-63001000D01*
X19451000Y-63001000D01*
G37*
G36*
X25651000Y-63001000D02*
G01*
X24549000Y-63001000D01*
X24549000Y-59699000D01*
X25651000Y-59699000D01*
X25651000Y-63001000D01*
X25651000Y-63001000D01*
G37*
G36*
X31551000Y-62851000D02*
G01*
X30249000Y-62851000D01*
X30249000Y-61849000D01*
X31551000Y-61849000D01*
X31551000Y-62851000D01*
X31551000Y-62851000D01*
G37*
G36*
X33751000Y-62851000D02*
G01*
X32449000Y-62851000D01*
X32449000Y-61849000D01*
X33751000Y-61849000D01*
X33751000Y-62851000D01*
X33751000Y-62851000D01*
G37*
G36*
X29501000Y-62751000D02*
G01*
X28499000Y-62751000D01*
X28499000Y-61849000D01*
X29501000Y-61849000D01*
X29501000Y-62751000D01*
X29501000Y-62751000D01*
G37*
G36*
X13286000Y-62416000D02*
G01*
X10534000Y-62416000D01*
X10534000Y-60284000D01*
X13286000Y-60284000D01*
X13286000Y-62416000D01*
X13286000Y-62416000D01*
G37*
G36*
X17466000Y-62416000D02*
G01*
X14714000Y-62416000D01*
X14714000Y-60284000D01*
X17466000Y-60284000D01*
X17466000Y-62416000D01*
X17466000Y-62416000D01*
G37*
G36*
X3410443Y-60425519D02*
G01*
X3476627Y-60432037D01*
X3646466Y-60483557D01*
X3802991Y-60567222D01*
X3838729Y-60596552D01*
X3940186Y-60679814D01*
X4023448Y-60781271D01*
X4052778Y-60817009D01*
X4136443Y-60973534D01*
X4187963Y-61143373D01*
X4205359Y-61320000D01*
X4187963Y-61496627D01*
X4136443Y-61666466D01*
X4052778Y-61822991D01*
X4031433Y-61849000D01*
X3940186Y-61960186D01*
X3838729Y-62043448D01*
X3802991Y-62072778D01*
X3646466Y-62156443D01*
X3476627Y-62207963D01*
X3410443Y-62214481D01*
X3344260Y-62221000D01*
X3255740Y-62221000D01*
X3189557Y-62214481D01*
X3123373Y-62207963D01*
X2953534Y-62156443D01*
X2797009Y-62072778D01*
X2761271Y-62043448D01*
X2659814Y-61960186D01*
X2568567Y-61849000D01*
X2547222Y-61822991D01*
X2463557Y-61666466D01*
X2412037Y-61496627D01*
X2394641Y-61320000D01*
X2412037Y-61143373D01*
X2463557Y-60973534D01*
X2547222Y-60817009D01*
X2576552Y-60781271D01*
X2659814Y-60679814D01*
X2761271Y-60596552D01*
X2797009Y-60567222D01*
X2953534Y-60483557D01*
X3123373Y-60432037D01*
X3189557Y-60425519D01*
X3255740Y-60419000D01*
X3344260Y-60419000D01*
X3410443Y-60425519D01*
X3410443Y-60425519D01*
G37*
G36*
X36451000Y-62151000D02*
G01*
X35349000Y-62151000D01*
X35349000Y-61049000D01*
X36451000Y-61049000D01*
X36451000Y-62151000D01*
X36451000Y-62151000D01*
G37*
G36*
X27501000Y-61801000D02*
G01*
X26499000Y-61801000D01*
X26499000Y-60899000D01*
X27501000Y-60899000D01*
X27501000Y-61801000D01*
X27501000Y-61801000D01*
G37*
G36*
X39551000Y-61026000D02*
G01*
X37949000Y-61026000D01*
X37949000Y-59674000D01*
X39551000Y-59674000D01*
X39551000Y-61026000D01*
X39551000Y-61026000D01*
G37*
G36*
X42051000Y-61026000D02*
G01*
X40449000Y-61026000D01*
X40449000Y-59674000D01*
X42051000Y-59674000D01*
X42051000Y-61026000D01*
X42051000Y-61026000D01*
G37*
G36*
X29501000Y-60851000D02*
G01*
X28499000Y-60851000D01*
X28499000Y-59949000D01*
X29501000Y-59949000D01*
X29501000Y-60851000D01*
X29501000Y-60851000D01*
G37*
G36*
X31551000Y-60851000D02*
G01*
X30249000Y-60851000D01*
X30249000Y-59849000D01*
X31551000Y-59849000D01*
X31551000Y-60851000D01*
X31551000Y-60851000D01*
G37*
G36*
X33751000Y-60851000D02*
G01*
X32449000Y-60851000D01*
X32449000Y-59849000D01*
X33751000Y-59849000D01*
X33751000Y-60851000D01*
X33751000Y-60851000D01*
G37*
G36*
X3410443Y-57885519D02*
G01*
X3476627Y-57892037D01*
X3646466Y-57943557D01*
X3802991Y-58027222D01*
X3838729Y-58056552D01*
X3940186Y-58139814D01*
X4023448Y-58241271D01*
X4052778Y-58277009D01*
X4136443Y-58433534D01*
X4187963Y-58603373D01*
X4205359Y-58780000D01*
X4187963Y-58956627D01*
X4136443Y-59126466D01*
X4052778Y-59282991D01*
X4023448Y-59318729D01*
X3940186Y-59420186D01*
X3838729Y-59503448D01*
X3802991Y-59532778D01*
X3646466Y-59616443D01*
X3476627Y-59667963D01*
X3415331Y-59674000D01*
X3344260Y-59681000D01*
X3255740Y-59681000D01*
X3184669Y-59674000D01*
X3123373Y-59667963D01*
X2953534Y-59616443D01*
X2797009Y-59532778D01*
X2761271Y-59503448D01*
X2659814Y-59420186D01*
X2576552Y-59318729D01*
X2547222Y-59282991D01*
X2463557Y-59126466D01*
X2412037Y-58956627D01*
X2394641Y-58780000D01*
X2412037Y-58603373D01*
X2463557Y-58433534D01*
X2547222Y-58277009D01*
X2576552Y-58241271D01*
X2659814Y-58139814D01*
X2761271Y-58056552D01*
X2797009Y-58027222D01*
X2953534Y-57943557D01*
X3123373Y-57892037D01*
X3189557Y-57885519D01*
X3255740Y-57879000D01*
X3344260Y-57879000D01*
X3410443Y-57885519D01*
X3410443Y-57885519D01*
G37*
G36*
X25601000Y-59101000D02*
G01*
X24499000Y-59101000D01*
X24499000Y-55799000D01*
X25601000Y-55799000D01*
X25601000Y-59101000D01*
X25601000Y-59101000D01*
G37*
G36*
X19401000Y-59101000D02*
G01*
X18299000Y-59101000D01*
X18299000Y-55799000D01*
X19401000Y-55799000D01*
X19401000Y-59101000D01*
X19401000Y-59101000D01*
G37*
G36*
X51101000Y-58643500D02*
G01*
X49999000Y-58643500D01*
X49999000Y-46756500D01*
X51101000Y-46756500D01*
X51101000Y-58643500D01*
X51101000Y-58643500D01*
G37*
G36*
X58601000Y-58643500D02*
G01*
X57499000Y-58643500D01*
X57499000Y-46756500D01*
X58601000Y-46756500D01*
X58601000Y-58643500D01*
X58601000Y-58643500D01*
G37*
G36*
X3410443Y-55345519D02*
G01*
X3476627Y-55352037D01*
X3646466Y-55403557D01*
X3802991Y-55487222D01*
X3838729Y-55516552D01*
X3940186Y-55599814D01*
X4023448Y-55701271D01*
X4052778Y-55737009D01*
X4136443Y-55893534D01*
X4187963Y-56063373D01*
X4205359Y-56240000D01*
X4187963Y-56416627D01*
X4136443Y-56586466D01*
X4136442Y-56586468D01*
X4107729Y-56640185D01*
X4052778Y-56742991D01*
X4044745Y-56752779D01*
X3940186Y-56880186D01*
X3838729Y-56963448D01*
X3802991Y-56992778D01*
X3646466Y-57076443D01*
X3476627Y-57127963D01*
X3410443Y-57134481D01*
X3344260Y-57141000D01*
X3255740Y-57141000D01*
X3189557Y-57134481D01*
X3123373Y-57127963D01*
X2953534Y-57076443D01*
X2797009Y-56992778D01*
X2761271Y-56963448D01*
X2659814Y-56880186D01*
X2555255Y-56752779D01*
X2547222Y-56742991D01*
X2492271Y-56640185D01*
X2463558Y-56586468D01*
X2463557Y-56586466D01*
X2412037Y-56416627D01*
X2394641Y-56240000D01*
X2412037Y-56063373D01*
X2463557Y-55893534D01*
X2547222Y-55737009D01*
X2576552Y-55701271D01*
X2659814Y-55599814D01*
X2761271Y-55516552D01*
X2797009Y-55487222D01*
X2953534Y-55403557D01*
X3123373Y-55352037D01*
X3189557Y-55345519D01*
X3255740Y-55339000D01*
X3344260Y-55339000D01*
X3410443Y-55345519D01*
X3410443Y-55345519D01*
G37*
G36*
X36401000Y-56951000D02*
G01*
X35299000Y-56951000D01*
X35299000Y-55849000D01*
X36401000Y-55849000D01*
X36401000Y-56951000D01*
X36401000Y-56951000D01*
G37*
G36*
X79071937Y-55105518D02*
G01*
X79138122Y-55112037D01*
X79307961Y-55163557D01*
X79464486Y-55247222D01*
X79475791Y-55256500D01*
X79601681Y-55359814D01*
X79684943Y-55461271D01*
X79714273Y-55497009D01*
X79797938Y-55653534D01*
X79849458Y-55823373D01*
X79866854Y-56000000D01*
X79849458Y-56176627D01*
X79797938Y-56346466D01*
X79714273Y-56502991D01*
X79684943Y-56538729D01*
X79601681Y-56640186D01*
X79500224Y-56723448D01*
X79464486Y-56752778D01*
X79307961Y-56836443D01*
X79138122Y-56887963D01*
X79071938Y-56894481D01*
X79005755Y-56901000D01*
X78917235Y-56901000D01*
X78851052Y-56894481D01*
X78784868Y-56887963D01*
X78615029Y-56836443D01*
X78458504Y-56752778D01*
X78422766Y-56723448D01*
X78321309Y-56640186D01*
X78238047Y-56538729D01*
X78208717Y-56502991D01*
X78125052Y-56346466D01*
X78073532Y-56176627D01*
X78056136Y-56000000D01*
X78073532Y-55823373D01*
X78125052Y-55653534D01*
X78208717Y-55497009D01*
X78238047Y-55461271D01*
X78321309Y-55359814D01*
X78447199Y-55256500D01*
X78458504Y-55247222D01*
X78615029Y-55163557D01*
X78784868Y-55112037D01*
X78851053Y-55105518D01*
X78917235Y-55099000D01*
X79005755Y-55099000D01*
X79071937Y-55105518D01*
X79071937Y-55105518D01*
G37*
G36*
X81611937Y-55105518D02*
G01*
X81678122Y-55112037D01*
X81847961Y-55163557D01*
X82004486Y-55247222D01*
X82015791Y-55256500D01*
X82141681Y-55359814D01*
X82224943Y-55461271D01*
X82254273Y-55497009D01*
X82337938Y-55653534D01*
X82389458Y-55823373D01*
X82406854Y-56000000D01*
X82389458Y-56176627D01*
X82337938Y-56346466D01*
X82254273Y-56502991D01*
X82224943Y-56538729D01*
X82141681Y-56640186D01*
X82040224Y-56723448D01*
X82004486Y-56752778D01*
X81847961Y-56836443D01*
X81678122Y-56887963D01*
X81611938Y-56894481D01*
X81545755Y-56901000D01*
X81457235Y-56901000D01*
X81391052Y-56894481D01*
X81324868Y-56887963D01*
X81155029Y-56836443D01*
X80998504Y-56752778D01*
X80962766Y-56723448D01*
X80861309Y-56640186D01*
X80778047Y-56538729D01*
X80748717Y-56502991D01*
X80665052Y-56346466D01*
X80613532Y-56176627D01*
X80596136Y-56000000D01*
X80613532Y-55823373D01*
X80665052Y-55653534D01*
X80748717Y-55497009D01*
X80778047Y-55461271D01*
X80861309Y-55359814D01*
X80987199Y-55256500D01*
X80998504Y-55247222D01*
X81155029Y-55163557D01*
X81324868Y-55112037D01*
X81391053Y-55105518D01*
X81457235Y-55099000D01*
X81545755Y-55099000D01*
X81611937Y-55105518D01*
X81611937Y-55105518D01*
G37*
G36*
X84942495Y-56901000D02*
G01*
X83140495Y-56901000D01*
X83140495Y-55099000D01*
X84942495Y-55099000D01*
X84942495Y-56901000D01*
X84942495Y-56901000D01*
G37*
G36*
X70351000Y-56626000D02*
G01*
X68749000Y-56626000D01*
X68749000Y-55274000D01*
X70351000Y-55274000D01*
X70351000Y-56626000D01*
X70351000Y-56626000D01*
G37*
G36*
X67851000Y-56626000D02*
G01*
X66249000Y-56626000D01*
X66249000Y-55274000D01*
X67851000Y-55274000D01*
X67851000Y-56626000D01*
X67851000Y-56626000D01*
G37*
G36*
X19401000Y-55301000D02*
G01*
X18299000Y-55301000D01*
X18299000Y-51999000D01*
X19401000Y-51999000D01*
X19401000Y-55301000D01*
X19401000Y-55301000D01*
G37*
G36*
X25601000Y-55301000D02*
G01*
X24499000Y-55301000D01*
X24499000Y-51999000D01*
X25601000Y-51999000D01*
X25601000Y-55301000D01*
X25601000Y-55301000D01*
G37*
G36*
X31501000Y-55151000D02*
G01*
X30199000Y-55151000D01*
X30199000Y-54149000D01*
X31501000Y-54149000D01*
X31501000Y-55151000D01*
X31501000Y-55151000D01*
G37*
G36*
X33701000Y-55151000D02*
G01*
X32399000Y-55151000D01*
X32399000Y-54149000D01*
X33701000Y-54149000D01*
X33701000Y-55151000D01*
X33701000Y-55151000D01*
G37*
G36*
X29451000Y-55051000D02*
G01*
X28449000Y-55051000D01*
X28449000Y-54149000D01*
X29451000Y-54149000D01*
X29451000Y-55051000D01*
X29451000Y-55051000D01*
G37*
G36*
X13236000Y-54716000D02*
G01*
X10484000Y-54716000D01*
X10484000Y-52584000D01*
X13236000Y-52584000D01*
X13236000Y-54716000D01*
X13236000Y-54716000D01*
G37*
G36*
X17416000Y-54716000D02*
G01*
X14664000Y-54716000D01*
X14664000Y-52584000D01*
X17416000Y-52584000D01*
X17416000Y-54716000D01*
X17416000Y-54716000D01*
G37*
G36*
X3410442Y-52805518D02*
G01*
X3476627Y-52812037D01*
X3646466Y-52863557D01*
X3802991Y-52947222D01*
X3838729Y-52976552D01*
X3940186Y-53059814D01*
X4008864Y-53143500D01*
X4052778Y-53197009D01*
X4136443Y-53353534D01*
X4187963Y-53523373D01*
X4205359Y-53700000D01*
X4187963Y-53876627D01*
X4136443Y-54046466D01*
X4052778Y-54202991D01*
X4023448Y-54238729D01*
X3940186Y-54340186D01*
X3838729Y-54423448D01*
X3802991Y-54452778D01*
X3646466Y-54536443D01*
X3476627Y-54587963D01*
X3410443Y-54594481D01*
X3344260Y-54601000D01*
X3255740Y-54601000D01*
X3189557Y-54594481D01*
X3123373Y-54587963D01*
X2953534Y-54536443D01*
X2797009Y-54452778D01*
X2761271Y-54423448D01*
X2659814Y-54340186D01*
X2576552Y-54238729D01*
X2547222Y-54202991D01*
X2463557Y-54046466D01*
X2412037Y-53876627D01*
X2394641Y-53700000D01*
X2412037Y-53523373D01*
X2463557Y-53353534D01*
X2547222Y-53197009D01*
X2591136Y-53143500D01*
X2659814Y-53059814D01*
X2761271Y-52976552D01*
X2797009Y-52947222D01*
X2953534Y-52863557D01*
X3123373Y-52812037D01*
X3189558Y-52805518D01*
X3255740Y-52799000D01*
X3344260Y-52799000D01*
X3410442Y-52805518D01*
X3410442Y-52805518D01*
G37*
G36*
X36401000Y-54451000D02*
G01*
X35299000Y-54451000D01*
X35299000Y-53349000D01*
X36401000Y-53349000D01*
X36401000Y-54451000D01*
X36401000Y-54451000D01*
G37*
G36*
X67851000Y-54376000D02*
G01*
X66249000Y-54376000D01*
X66249000Y-53024000D01*
X67851000Y-53024000D01*
X67851000Y-54376000D01*
X67851000Y-54376000D01*
G37*
G36*
X70351000Y-54376000D02*
G01*
X68749000Y-54376000D01*
X68749000Y-53024000D01*
X70351000Y-53024000D01*
X70351000Y-54376000D01*
X70351000Y-54376000D01*
G37*
G36*
X27451000Y-54101000D02*
G01*
X26449000Y-54101000D01*
X26449000Y-53199000D01*
X27451000Y-53199000D01*
X27451000Y-54101000D01*
X27451000Y-54101000D01*
G37*
G36*
X42001000Y-53326000D02*
G01*
X40399000Y-53326000D01*
X40399000Y-51974000D01*
X42001000Y-51974000D01*
X42001000Y-53326000D01*
X42001000Y-53326000D01*
G37*
G36*
X39501000Y-53326000D02*
G01*
X37899000Y-53326000D01*
X37899000Y-51974000D01*
X39501000Y-51974000D01*
X39501000Y-53326000D01*
X39501000Y-53326000D01*
G37*
G36*
X29451000Y-53151000D02*
G01*
X28449000Y-53151000D01*
X28449000Y-52249000D01*
X29451000Y-52249000D01*
X29451000Y-53151000D01*
X29451000Y-53151000D01*
G37*
G36*
X31501000Y-53151000D02*
G01*
X30199000Y-53151000D01*
X30199000Y-52149000D01*
X31501000Y-52149000D01*
X31501000Y-53151000D01*
X31501000Y-53151000D01*
G37*
G36*
X33701000Y-53151000D02*
G01*
X32399000Y-53151000D01*
X32399000Y-52149000D01*
X33701000Y-52149000D01*
X33701000Y-53151000D01*
X33701000Y-53151000D01*
G37*
G36*
X3410442Y-50265518D02*
G01*
X3476627Y-50272037D01*
X3646466Y-50323557D01*
X3802991Y-50407222D01*
X3838729Y-50436552D01*
X3940186Y-50519814D01*
X4023448Y-50621271D01*
X4052778Y-50657009D01*
X4136443Y-50813534D01*
X4187963Y-50983373D01*
X4205359Y-51160000D01*
X4187963Y-51336627D01*
X4136443Y-51506466D01*
X4052778Y-51662991D01*
X4023448Y-51698729D01*
X3940186Y-51800186D01*
X3838729Y-51883448D01*
X3802991Y-51912778D01*
X3646466Y-51996443D01*
X3476627Y-52047963D01*
X3410443Y-52054481D01*
X3344260Y-52061000D01*
X3255740Y-52061000D01*
X3189557Y-52054481D01*
X3123373Y-52047963D01*
X2953534Y-51996443D01*
X2797009Y-51912778D01*
X2761271Y-51883448D01*
X2659814Y-51800186D01*
X2576552Y-51698729D01*
X2547222Y-51662991D01*
X2463557Y-51506466D01*
X2412037Y-51336627D01*
X2394641Y-51160000D01*
X2412037Y-50983373D01*
X2463557Y-50813534D01*
X2547222Y-50657009D01*
X2576552Y-50621271D01*
X2659814Y-50519814D01*
X2761271Y-50436552D01*
X2797009Y-50407222D01*
X2953534Y-50323557D01*
X3123373Y-50272037D01*
X3189558Y-50265518D01*
X3255740Y-50259000D01*
X3344260Y-50259000D01*
X3410442Y-50265518D01*
X3410442Y-50265518D01*
G37*
G36*
X19401000Y-51301000D02*
G01*
X18299000Y-51301000D01*
X18299000Y-47999000D01*
X19401000Y-47999000D01*
X19401000Y-51301000D01*
X19401000Y-51301000D01*
G37*
G36*
X25601000Y-51301000D02*
G01*
X24499000Y-51301000D01*
X24499000Y-47999000D01*
X25601000Y-47999000D01*
X25601000Y-51301000D01*
X25601000Y-51301000D01*
G37*
G36*
X3410443Y-47725519D02*
G01*
X3476627Y-47732037D01*
X3646466Y-47783557D01*
X3802991Y-47867222D01*
X3838729Y-47896552D01*
X3940186Y-47979814D01*
X4023448Y-48081271D01*
X4052778Y-48117009D01*
X4136443Y-48273534D01*
X4187963Y-48443373D01*
X4205359Y-48620000D01*
X4187963Y-48796627D01*
X4136443Y-48966466D01*
X4052778Y-49122991D01*
X4023448Y-49158729D01*
X3940186Y-49260186D01*
X3838729Y-49343448D01*
X3802991Y-49372778D01*
X3646466Y-49456443D01*
X3476627Y-49507963D01*
X3410442Y-49514482D01*
X3344260Y-49521000D01*
X3255740Y-49521000D01*
X3189558Y-49514482D01*
X3123373Y-49507963D01*
X2953534Y-49456443D01*
X2797009Y-49372778D01*
X2761271Y-49343448D01*
X2659814Y-49260186D01*
X2576552Y-49158729D01*
X2547222Y-49122991D01*
X2463557Y-48966466D01*
X2412037Y-48796627D01*
X2394641Y-48620000D01*
X2412037Y-48443373D01*
X2463557Y-48273534D01*
X2547222Y-48117009D01*
X2576552Y-48081271D01*
X2659814Y-47979814D01*
X2761271Y-47896552D01*
X2797009Y-47867222D01*
X2953534Y-47783557D01*
X3123373Y-47732037D01*
X3189557Y-47725519D01*
X3255740Y-47719000D01*
X3344260Y-47719000D01*
X3410443Y-47725519D01*
X3410443Y-47725519D01*
G37*
G36*
X89101000Y-49201000D02*
G01*
X86999000Y-49201000D01*
X86999000Y-47599000D01*
X89101000Y-47599000D01*
X89101000Y-49201000D01*
X89101000Y-49201000D01*
G37*
G36*
X86101000Y-48976000D02*
G01*
X84499000Y-48976000D01*
X84499000Y-47624000D01*
X86101000Y-47624000D01*
X86101000Y-48976000D01*
X86101000Y-48976000D01*
G37*
G36*
X83601000Y-48976000D02*
G01*
X81999000Y-48976000D01*
X81999000Y-47624000D01*
X83601000Y-47624000D01*
X83601000Y-48976000D01*
X83601000Y-48976000D01*
G37*
G36*
X36401000Y-48651000D02*
G01*
X35299000Y-48651000D01*
X35299000Y-47549000D01*
X36401000Y-47549000D01*
X36401000Y-48651000D01*
X36401000Y-48651000D01*
G37*
G36*
X67751000Y-48501000D02*
G01*
X66449000Y-48501000D01*
X66449000Y-47499000D01*
X67751000Y-47499000D01*
X67751000Y-48501000D01*
X67751000Y-48501000D01*
G37*
G36*
X65551000Y-48501000D02*
G01*
X64249000Y-48501000D01*
X64249000Y-47499000D01*
X65551000Y-47499000D01*
X65551000Y-48501000D01*
X65551000Y-48501000D01*
G37*
G36*
X95401000Y-48051000D02*
G01*
X93299000Y-48051000D01*
X93299000Y-44149000D01*
X95401000Y-44149000D01*
X95401000Y-48051000D01*
X95401000Y-48051000D01*
G37*
G36*
X19401000Y-47501000D02*
G01*
X18299000Y-47501000D01*
X18299000Y-44199000D01*
X19401000Y-44199000D01*
X19401000Y-47501000D01*
X19401000Y-47501000D01*
G37*
G36*
X25601000Y-47501000D02*
G01*
X24499000Y-47501000D01*
X24499000Y-44199000D01*
X25601000Y-44199000D01*
X25601000Y-47501000D01*
X25601000Y-47501000D01*
G37*
G36*
X33701000Y-47351000D02*
G01*
X32399000Y-47351000D01*
X32399000Y-46349000D01*
X33701000Y-46349000D01*
X33701000Y-47351000D01*
X33701000Y-47351000D01*
G37*
G36*
X31501000Y-47351000D02*
G01*
X30199000Y-47351000D01*
X30199000Y-46349000D01*
X31501000Y-46349000D01*
X31501000Y-47351000D01*
X31501000Y-47351000D01*
G37*
G36*
X29451000Y-47251000D02*
G01*
X28449000Y-47251000D01*
X28449000Y-46349000D01*
X29451000Y-46349000D01*
X29451000Y-47251000D01*
X29451000Y-47251000D01*
G37*
G36*
X3410443Y-45185519D02*
G01*
X3476627Y-45192037D01*
X3646466Y-45243557D01*
X3802991Y-45327222D01*
X3831964Y-45351000D01*
X3940186Y-45439814D01*
X4010916Y-45526000D01*
X4052778Y-45577009D01*
X4136443Y-45733534D01*
X4187963Y-45903373D01*
X4205359Y-46080000D01*
X4187963Y-46256627D01*
X4136443Y-46426466D01*
X4052778Y-46582991D01*
X4023448Y-46618729D01*
X3940186Y-46720186D01*
X3838729Y-46803448D01*
X3802991Y-46832778D01*
X3646466Y-46916443D01*
X3476627Y-46967963D01*
X3410443Y-46974481D01*
X3344260Y-46981000D01*
X3255740Y-46981000D01*
X3189557Y-46974481D01*
X3123373Y-46967963D01*
X2953534Y-46916443D01*
X2797009Y-46832778D01*
X2761271Y-46803448D01*
X2659814Y-46720186D01*
X2576552Y-46618729D01*
X2547222Y-46582991D01*
X2463557Y-46426466D01*
X2412037Y-46256627D01*
X2394641Y-46080000D01*
X2412037Y-45903373D01*
X2463557Y-45733534D01*
X2547222Y-45577009D01*
X2589084Y-45526000D01*
X2659814Y-45439814D01*
X2768036Y-45351000D01*
X2797009Y-45327222D01*
X2953534Y-45243557D01*
X3123373Y-45192037D01*
X3189557Y-45185519D01*
X3255740Y-45179000D01*
X3344260Y-45179000D01*
X3410443Y-45185519D01*
X3410443Y-45185519D01*
G37*
G36*
X13236000Y-46916000D02*
G01*
X10484000Y-46916000D01*
X10484000Y-44784000D01*
X13236000Y-44784000D01*
X13236000Y-46916000D01*
X13236000Y-46916000D01*
G37*
G36*
X17416000Y-46916000D02*
G01*
X14664000Y-46916000D01*
X14664000Y-44784000D01*
X17416000Y-44784000D01*
X17416000Y-46916000D01*
X17416000Y-46916000D01*
G37*
G36*
X89101000Y-46901000D02*
G01*
X86999000Y-46901000D01*
X86999000Y-45299000D01*
X89101000Y-45299000D01*
X89101000Y-46901000D01*
X89101000Y-46901000D01*
G37*
G36*
X67751000Y-46501000D02*
G01*
X66449000Y-46501000D01*
X66449000Y-45499000D01*
X67751000Y-45499000D01*
X67751000Y-46501000D01*
X67751000Y-46501000D01*
G37*
G36*
X65551000Y-46501000D02*
G01*
X64249000Y-46501000D01*
X64249000Y-45499000D01*
X65551000Y-45499000D01*
X65551000Y-46501000D01*
X65551000Y-46501000D01*
G37*
G36*
X27451000Y-46301000D02*
G01*
X26449000Y-46301000D01*
X26449000Y-45399000D01*
X27451000Y-45399000D01*
X27451000Y-46301000D01*
X27451000Y-46301000D01*
G37*
G36*
X36401000Y-46151000D02*
G01*
X35299000Y-46151000D01*
X35299000Y-45049000D01*
X36401000Y-45049000D01*
X36401000Y-46151000D01*
X36401000Y-46151000D01*
G37*
G36*
X39501000Y-45526000D02*
G01*
X37899000Y-45526000D01*
X37899000Y-44174000D01*
X39501000Y-44174000D01*
X39501000Y-45526000D01*
X39501000Y-45526000D01*
G37*
G36*
X42001000Y-45526000D02*
G01*
X40399000Y-45526000D01*
X40399000Y-44174000D01*
X42001000Y-44174000D01*
X42001000Y-45526000D01*
X42001000Y-45526000D01*
G37*
G36*
X31501000Y-45351000D02*
G01*
X30199000Y-45351000D01*
X30199000Y-44349000D01*
X31501000Y-44349000D01*
X31501000Y-45351000D01*
X31501000Y-45351000D01*
G37*
G36*
X29451000Y-45351000D02*
G01*
X28449000Y-45351000D01*
X28449000Y-44449000D01*
X29451000Y-44449000D01*
X29451000Y-45351000D01*
X29451000Y-45351000D01*
G37*
G36*
X33701000Y-45351000D02*
G01*
X32399000Y-45351000D01*
X32399000Y-44349000D01*
X33701000Y-44349000D01*
X33701000Y-45351000D01*
X33701000Y-45351000D01*
G37*
G36*
X89101000Y-44601000D02*
G01*
X86999000Y-44601000D01*
X86999000Y-42999000D01*
X89101000Y-42999000D01*
X89101000Y-44601000D01*
X89101000Y-44601000D01*
G37*
G36*
X3410443Y-42645519D02*
G01*
X3476627Y-42652037D01*
X3646466Y-42703557D01*
X3802991Y-42787222D01*
X3838729Y-42816552D01*
X3940186Y-42899814D01*
X4021585Y-42999000D01*
X4052778Y-43037009D01*
X4136443Y-43193534D01*
X4187963Y-43363373D01*
X4205359Y-43540000D01*
X4187963Y-43716627D01*
X4136443Y-43886466D01*
X4052778Y-44042991D01*
X4023448Y-44078729D01*
X3940186Y-44180186D01*
X3838729Y-44263448D01*
X3802991Y-44292778D01*
X3646466Y-44376443D01*
X3476627Y-44427963D01*
X3410443Y-44434481D01*
X3344260Y-44441000D01*
X3255740Y-44441000D01*
X3189557Y-44434481D01*
X3123373Y-44427963D01*
X2953534Y-44376443D01*
X2797009Y-44292778D01*
X2761271Y-44263448D01*
X2659814Y-44180186D01*
X2576552Y-44078729D01*
X2547222Y-44042991D01*
X2463557Y-43886466D01*
X2412037Y-43716627D01*
X2394641Y-43540000D01*
X2412037Y-43363373D01*
X2463557Y-43193534D01*
X2547222Y-43037009D01*
X2578415Y-42999000D01*
X2659814Y-42899814D01*
X2761271Y-42816552D01*
X2797009Y-42787222D01*
X2953534Y-42703557D01*
X3123373Y-42652037D01*
X3189557Y-42645519D01*
X3255740Y-42639000D01*
X3344260Y-42639000D01*
X3410443Y-42645519D01*
X3410443Y-42645519D01*
G37*
G36*
X19401000Y-43601000D02*
G01*
X18299000Y-43601000D01*
X18299000Y-40299000D01*
X19401000Y-40299000D01*
X19401000Y-43601000D01*
X19401000Y-43601000D01*
G37*
G36*
X25601000Y-43601000D02*
G01*
X24499000Y-43601000D01*
X24499000Y-40299000D01*
X25601000Y-40299000D01*
X25601000Y-43601000D01*
X25601000Y-43601000D01*
G37*
G36*
X3410443Y-40105519D02*
G01*
X3476627Y-40112037D01*
X3646466Y-40163557D01*
X3802991Y-40247222D01*
X3838729Y-40276552D01*
X3940186Y-40359814D01*
X4023448Y-40461271D01*
X4052778Y-40497009D01*
X4136443Y-40653534D01*
X4187963Y-40823373D01*
X4205359Y-41000000D01*
X4187963Y-41176627D01*
X4136443Y-41346466D01*
X4052778Y-41502991D01*
X4023448Y-41538729D01*
X3940186Y-41640186D01*
X3838729Y-41723448D01*
X3802991Y-41752778D01*
X3646466Y-41836443D01*
X3476627Y-41887963D01*
X3410443Y-41894481D01*
X3344260Y-41901000D01*
X3255740Y-41901000D01*
X3189557Y-41894481D01*
X3123373Y-41887963D01*
X2953534Y-41836443D01*
X2797009Y-41752778D01*
X2761271Y-41723448D01*
X2659814Y-41640186D01*
X2576552Y-41538729D01*
X2547222Y-41502991D01*
X2463557Y-41346466D01*
X2412037Y-41176627D01*
X2394641Y-41000000D01*
X2412037Y-40823373D01*
X2463557Y-40653534D01*
X2547222Y-40497009D01*
X2576552Y-40461271D01*
X2659814Y-40359814D01*
X2761271Y-40276552D01*
X2797009Y-40247222D01*
X2953534Y-40163557D01*
X3123373Y-40112037D01*
X3189557Y-40105519D01*
X3255740Y-40099000D01*
X3344260Y-40099000D01*
X3410443Y-40105519D01*
X3410443Y-40105519D01*
G37*
G36*
X36401000Y-40951000D02*
G01*
X35299000Y-40951000D01*
X35299000Y-39849000D01*
X36401000Y-39849000D01*
X36401000Y-40951000D01*
X36401000Y-40951000D01*
G37*
G36*
X19401000Y-39801000D02*
G01*
X18299000Y-39801000D01*
X18299000Y-36499000D01*
X19401000Y-36499000D01*
X19401000Y-39801000D01*
X19401000Y-39801000D01*
G37*
G36*
X25601000Y-39801000D02*
G01*
X24499000Y-39801000D01*
X24499000Y-36499000D01*
X25601000Y-36499000D01*
X25601000Y-39801000D01*
X25601000Y-39801000D01*
G37*
G36*
X31501000Y-39651000D02*
G01*
X30199000Y-39651000D01*
X30199000Y-38649000D01*
X31501000Y-38649000D01*
X31501000Y-39651000D01*
X31501000Y-39651000D01*
G37*
G36*
X33701000Y-39651000D02*
G01*
X32399000Y-39651000D01*
X32399000Y-38649000D01*
X33701000Y-38649000D01*
X33701000Y-39651000D01*
X33701000Y-39651000D01*
G37*
G36*
X29451000Y-39551000D02*
G01*
X28449000Y-39551000D01*
X28449000Y-38649000D01*
X29451000Y-38649000D01*
X29451000Y-39551000D01*
X29451000Y-39551000D01*
G37*
G36*
X3410443Y-37565519D02*
G01*
X3476627Y-37572037D01*
X3646466Y-37623557D01*
X3802991Y-37707222D01*
X3838729Y-37736552D01*
X3940186Y-37819814D01*
X4023448Y-37921271D01*
X4052778Y-37957009D01*
X4136443Y-38113534D01*
X4187963Y-38283373D01*
X4205359Y-38460000D01*
X4187963Y-38636627D01*
X4136443Y-38806466D01*
X4052778Y-38962991D01*
X4023448Y-38998729D01*
X3940186Y-39100186D01*
X3838729Y-39183448D01*
X3802991Y-39212778D01*
X3646466Y-39296443D01*
X3476627Y-39347963D01*
X3410443Y-39354481D01*
X3344260Y-39361000D01*
X3255740Y-39361000D01*
X3189557Y-39354481D01*
X3123373Y-39347963D01*
X2953534Y-39296443D01*
X2797009Y-39212778D01*
X2761271Y-39183448D01*
X2659814Y-39100186D01*
X2576552Y-38998729D01*
X2547222Y-38962991D01*
X2463557Y-38806466D01*
X2412037Y-38636627D01*
X2394641Y-38460000D01*
X2412037Y-38283373D01*
X2463557Y-38113534D01*
X2547222Y-37957009D01*
X2576552Y-37921271D01*
X2659814Y-37819814D01*
X2761271Y-37736552D01*
X2797009Y-37707222D01*
X2953534Y-37623557D01*
X3123373Y-37572037D01*
X3189557Y-37565519D01*
X3255740Y-37559000D01*
X3344260Y-37559000D01*
X3410443Y-37565519D01*
X3410443Y-37565519D01*
G37*
G36*
X17416000Y-39216000D02*
G01*
X14664000Y-39216000D01*
X14664000Y-37084000D01*
X17416000Y-37084000D01*
X17416000Y-39216000D01*
X17416000Y-39216000D01*
G37*
G36*
X13236000Y-39216000D02*
G01*
X10484000Y-39216000D01*
X10484000Y-37084000D01*
X13236000Y-37084000D01*
X13236000Y-39216000D01*
X13236000Y-39216000D01*
G37*
G36*
X84901000Y-38901000D02*
G01*
X83099000Y-38901000D01*
X83099000Y-37099000D01*
X84901000Y-37099000D01*
X84901000Y-38901000D01*
X84901000Y-38901000D01*
G37*
G36*
X81570443Y-37105519D02*
G01*
X81636627Y-37112037D01*
X81806466Y-37163557D01*
X81962991Y-37247222D01*
X81998729Y-37276552D01*
X82100186Y-37359814D01*
X82183448Y-37461271D01*
X82212778Y-37497009D01*
X82296443Y-37653534D01*
X82347963Y-37823373D01*
X82365359Y-38000000D01*
X82347963Y-38176627D01*
X82296443Y-38346466D01*
X82212778Y-38502991D01*
X82183448Y-38538729D01*
X82100186Y-38640186D01*
X81998729Y-38723448D01*
X81962991Y-38752778D01*
X81806466Y-38836443D01*
X81636627Y-38887963D01*
X81570443Y-38894481D01*
X81504260Y-38901000D01*
X81415740Y-38901000D01*
X81349557Y-38894481D01*
X81283373Y-38887963D01*
X81113534Y-38836443D01*
X80957009Y-38752778D01*
X80921271Y-38723448D01*
X80819814Y-38640186D01*
X80736552Y-38538729D01*
X80707222Y-38502991D01*
X80623557Y-38346466D01*
X80572037Y-38176627D01*
X80554641Y-38000000D01*
X80572037Y-37823373D01*
X80623557Y-37653534D01*
X80707222Y-37497009D01*
X80736552Y-37461271D01*
X80819814Y-37359814D01*
X80921271Y-37276552D01*
X80957009Y-37247222D01*
X81113534Y-37163557D01*
X81283373Y-37112037D01*
X81349557Y-37105519D01*
X81415740Y-37099000D01*
X81504260Y-37099000D01*
X81570443Y-37105519D01*
X81570443Y-37105519D01*
G37*
G36*
X79030443Y-37105519D02*
G01*
X79096627Y-37112037D01*
X79266466Y-37163557D01*
X79422991Y-37247222D01*
X79458729Y-37276552D01*
X79560186Y-37359814D01*
X79643448Y-37461271D01*
X79672778Y-37497009D01*
X79756443Y-37653534D01*
X79807963Y-37823373D01*
X79825359Y-38000000D01*
X79807963Y-38176627D01*
X79756443Y-38346466D01*
X79672778Y-38502991D01*
X79643448Y-38538729D01*
X79560186Y-38640186D01*
X79458729Y-38723448D01*
X79422991Y-38752778D01*
X79266466Y-38836443D01*
X79096627Y-38887963D01*
X79030443Y-38894481D01*
X78964260Y-38901000D01*
X78875740Y-38901000D01*
X78809557Y-38894481D01*
X78743373Y-38887963D01*
X78573534Y-38836443D01*
X78417009Y-38752778D01*
X78381271Y-38723448D01*
X78279814Y-38640186D01*
X78196552Y-38538729D01*
X78167222Y-38502991D01*
X78083557Y-38346466D01*
X78032037Y-38176627D01*
X78014641Y-38000000D01*
X78032037Y-37823373D01*
X78083557Y-37653534D01*
X78167222Y-37497009D01*
X78196552Y-37461271D01*
X78279814Y-37359814D01*
X78381271Y-37276552D01*
X78417009Y-37247222D01*
X78573534Y-37163557D01*
X78743373Y-37112037D01*
X78809557Y-37105519D01*
X78875740Y-37099000D01*
X78964260Y-37099000D01*
X79030443Y-37105519D01*
X79030443Y-37105519D01*
G37*
G36*
X27451000Y-38601000D02*
G01*
X26449000Y-38601000D01*
X26449000Y-37699000D01*
X27451000Y-37699000D01*
X27451000Y-38601000D01*
X27451000Y-38601000D01*
G37*
G36*
X36401000Y-38451000D02*
G01*
X35299000Y-38451000D01*
X35299000Y-37349000D01*
X36401000Y-37349000D01*
X36401000Y-38451000D01*
X36401000Y-38451000D01*
G37*
G36*
X42001000Y-37826000D02*
G01*
X40399000Y-37826000D01*
X40399000Y-36474000D01*
X42001000Y-36474000D01*
X42001000Y-37826000D01*
X42001000Y-37826000D01*
G37*
G36*
X39501000Y-37826000D02*
G01*
X37899000Y-37826000D01*
X37899000Y-36474000D01*
X39501000Y-36474000D01*
X39501000Y-37826000D01*
X39501000Y-37826000D01*
G37*
G36*
X33701000Y-37651000D02*
G01*
X32399000Y-37651000D01*
X32399000Y-36649000D01*
X33701000Y-36649000D01*
X33701000Y-37651000D01*
X33701000Y-37651000D01*
G37*
G36*
X31501000Y-37651000D02*
G01*
X30199000Y-37651000D01*
X30199000Y-36649000D01*
X31501000Y-36649000D01*
X31501000Y-37651000D01*
X31501000Y-37651000D01*
G37*
G36*
X29451000Y-37651000D02*
G01*
X28449000Y-37651000D01*
X28449000Y-36749000D01*
X29451000Y-36749000D01*
X29451000Y-37651000D01*
X29451000Y-37651000D01*
G37*
G36*
X3410443Y-35025519D02*
G01*
X3476627Y-35032037D01*
X3646466Y-35083557D01*
X3802991Y-35167222D01*
X3838729Y-35196552D01*
X3940186Y-35279814D01*
X4023448Y-35381271D01*
X4052778Y-35417009D01*
X4136443Y-35573534D01*
X4187963Y-35743373D01*
X4205359Y-35920000D01*
X4187963Y-36096627D01*
X4136443Y-36266466D01*
X4052778Y-36422991D01*
X4023448Y-36458729D01*
X3940186Y-36560186D01*
X3838729Y-36643448D01*
X3802991Y-36672778D01*
X3646466Y-36756443D01*
X3476627Y-36807963D01*
X3410443Y-36814481D01*
X3344260Y-36821000D01*
X3255740Y-36821000D01*
X3189557Y-36814481D01*
X3123373Y-36807963D01*
X2953534Y-36756443D01*
X2797009Y-36672778D01*
X2761271Y-36643448D01*
X2659814Y-36560186D01*
X2576552Y-36458729D01*
X2547222Y-36422991D01*
X2463557Y-36266466D01*
X2412037Y-36096627D01*
X2394641Y-35920000D01*
X2412037Y-35743373D01*
X2463557Y-35573534D01*
X2547222Y-35417009D01*
X2576552Y-35381271D01*
X2659814Y-35279814D01*
X2761271Y-35196552D01*
X2797009Y-35167222D01*
X2953534Y-35083557D01*
X3123373Y-35032037D01*
X3189557Y-35025519D01*
X3255740Y-35019000D01*
X3344260Y-35019000D01*
X3410443Y-35025519D01*
X3410443Y-35025519D01*
G37*
G36*
X25601000Y-35901000D02*
G01*
X24499000Y-35901000D01*
X24499000Y-32599000D01*
X25601000Y-32599000D01*
X25601000Y-35901000D01*
X25601000Y-35901000D01*
G37*
G36*
X19401000Y-35901000D02*
G01*
X18299000Y-35901000D01*
X18299000Y-32599000D01*
X19401000Y-32599000D01*
X19401000Y-35901000D01*
X19401000Y-35901000D01*
G37*
G36*
X36401000Y-33251000D02*
G01*
X35299000Y-33251000D01*
X35299000Y-32149000D01*
X36401000Y-32149000D01*
X36401000Y-33251000D01*
X36401000Y-33251000D01*
G37*
G36*
X25601000Y-32101000D02*
G01*
X24499000Y-32101000D01*
X24499000Y-28799000D01*
X25601000Y-28799000D01*
X25601000Y-32101000D01*
X25601000Y-32101000D01*
G37*
G36*
X19401000Y-32101000D02*
G01*
X18299000Y-32101000D01*
X18299000Y-28799000D01*
X19401000Y-28799000D01*
X19401000Y-32101000D01*
X19401000Y-32101000D01*
G37*
G36*
X33701000Y-31951000D02*
G01*
X32399000Y-31951000D01*
X32399000Y-30949000D01*
X33701000Y-30949000D01*
X33701000Y-31951000D01*
X33701000Y-31951000D01*
G37*
G36*
X31501000Y-31951000D02*
G01*
X30199000Y-31951000D01*
X30199000Y-30949000D01*
X31501000Y-30949000D01*
X31501000Y-31951000D01*
X31501000Y-31951000D01*
G37*
G36*
X29451000Y-31851000D02*
G01*
X28449000Y-31851000D01*
X28449000Y-30949000D01*
X29451000Y-30949000D01*
X29451000Y-31851000D01*
X29451000Y-31851000D01*
G37*
G36*
X13236000Y-31516000D02*
G01*
X10484000Y-31516000D01*
X10484000Y-29384000D01*
X13236000Y-29384000D01*
X13236000Y-31516000D01*
X13236000Y-31516000D01*
G37*
G36*
X17416000Y-31516000D02*
G01*
X14664000Y-31516000D01*
X14664000Y-29384000D01*
X17416000Y-29384000D01*
X17416000Y-31516000D01*
X17416000Y-31516000D01*
G37*
G36*
X27451000Y-30901000D02*
G01*
X26449000Y-30901000D01*
X26449000Y-29999000D01*
X27451000Y-29999000D01*
X27451000Y-30901000D01*
X27451000Y-30901000D01*
G37*
G36*
X36401000Y-30751000D02*
G01*
X35299000Y-30751000D01*
X35299000Y-29649000D01*
X36401000Y-29649000D01*
X36401000Y-30751000D01*
X36401000Y-30751000D01*
G37*
G36*
X94403097Y-28494069D02*
G01*
X94506032Y-28504207D01*
X94704146Y-28564305D01*
X94704149Y-28564306D01*
X94800975Y-28616061D01*
X94886729Y-28661897D01*
X95046765Y-28793235D01*
X95178103Y-28953271D01*
X95223939Y-29039025D01*
X95275694Y-29135851D01*
X95275695Y-29135854D01*
X95335793Y-29333968D01*
X95356085Y-29540000D01*
X95335793Y-29746032D01*
X95275695Y-29944146D01*
X95275694Y-29944149D01*
X95246375Y-29999000D01*
X95178103Y-30126729D01*
X95046765Y-30286765D01*
X94886729Y-30418103D01*
X94800975Y-30463939D01*
X94704149Y-30515694D01*
X94704146Y-30515695D01*
X94506032Y-30575793D01*
X94403097Y-30585931D01*
X94351631Y-30591000D01*
X93648369Y-30591000D01*
X93596903Y-30585931D01*
X93493968Y-30575793D01*
X93295854Y-30515695D01*
X93295851Y-30515694D01*
X93199025Y-30463939D01*
X93113271Y-30418103D01*
X92953235Y-30286765D01*
X92821897Y-30126729D01*
X92753625Y-29999000D01*
X92724306Y-29944149D01*
X92724305Y-29944146D01*
X92664207Y-29746032D01*
X92643915Y-29540000D01*
X92664207Y-29333968D01*
X92724305Y-29135854D01*
X92724306Y-29135851D01*
X92776061Y-29039025D01*
X92821897Y-28953271D01*
X92953235Y-28793235D01*
X93113271Y-28661897D01*
X93199025Y-28616061D01*
X93295851Y-28564306D01*
X93295854Y-28564305D01*
X93493968Y-28504207D01*
X93596903Y-28494069D01*
X93648369Y-28489000D01*
X94351631Y-28489000D01*
X94403097Y-28494069D01*
X94403097Y-28494069D01*
G37*
G36*
X76051000Y-30451000D02*
G01*
X74199000Y-30451000D01*
X74199000Y-29349000D01*
X76051000Y-29349000D01*
X76051000Y-30451000D01*
X76051000Y-30451000D01*
G37*
G36*
X89801000Y-30451000D02*
G01*
X87949000Y-30451000D01*
X87949000Y-29349000D01*
X89801000Y-29349000D01*
X89801000Y-30451000D01*
X89801000Y-30451000D01*
G37*
G36*
X39501000Y-30126000D02*
G01*
X37899000Y-30126000D01*
X37899000Y-28774000D01*
X39501000Y-28774000D01*
X39501000Y-30126000D01*
X39501000Y-30126000D01*
G37*
G36*
X42001000Y-30126000D02*
G01*
X40399000Y-30126000D01*
X40399000Y-28774000D01*
X42001000Y-28774000D01*
X42001000Y-30126000D01*
X42001000Y-30126000D01*
G37*
G36*
X29451000Y-29951000D02*
G01*
X28449000Y-29951000D01*
X28449000Y-29049000D01*
X29451000Y-29049000D01*
X29451000Y-29951000D01*
X29451000Y-29951000D01*
G37*
G36*
X31501000Y-29951000D02*
G01*
X30199000Y-29951000D01*
X30199000Y-28949000D01*
X31501000Y-28949000D01*
X31501000Y-29951000D01*
X31501000Y-29951000D01*
G37*
G36*
X33701000Y-29951000D02*
G01*
X32399000Y-29951000D01*
X32399000Y-28949000D01*
X33701000Y-28949000D01*
X33701000Y-29951000D01*
X33701000Y-29951000D01*
G37*
G36*
X73501000Y-29751000D02*
G01*
X72499000Y-29751000D01*
X72499000Y-28449000D01*
X73501000Y-28449000D01*
X73501000Y-29751000D01*
X73501000Y-29751000D01*
G37*
G36*
X89801000Y-28451000D02*
G01*
X87949000Y-28451000D01*
X87949000Y-27349000D01*
X89801000Y-27349000D01*
X89801000Y-28451000D01*
X89801000Y-28451000D01*
G37*
G36*
X76051000Y-28451000D02*
G01*
X74199000Y-28451000D01*
X74199000Y-27349000D01*
X76051000Y-27349000D01*
X76051000Y-28451000D01*
X76051000Y-28451000D01*
G37*
G36*
X68701000Y-28426000D02*
G01*
X67399000Y-28426000D01*
X67399000Y-27574000D01*
X68701000Y-27574000D01*
X68701000Y-28426000D01*
X68701000Y-28426000D01*
G37*
G36*
X70601000Y-28426000D02*
G01*
X69299000Y-28426000D01*
X69299000Y-27574000D01*
X70601000Y-27574000D01*
X70601000Y-28426000D01*
X70601000Y-28426000D01*
G37*
G36*
X19401000Y-28201000D02*
G01*
X18299000Y-28201000D01*
X18299000Y-24899000D01*
X19401000Y-24899000D01*
X19401000Y-28201000D01*
X19401000Y-28201000D01*
G37*
G36*
X25601000Y-28201000D02*
G01*
X24499000Y-28201000D01*
X24499000Y-24899000D01*
X25601000Y-24899000D01*
X25601000Y-28201000D01*
X25601000Y-28201000D01*
G37*
G36*
X95351000Y-28051000D02*
G01*
X92649000Y-28051000D01*
X92649000Y-25949000D01*
X95351000Y-25949000D01*
X95351000Y-28051000D01*
X95351000Y-28051000D01*
G37*
G36*
X73501000Y-27551000D02*
G01*
X72499000Y-27551000D01*
X72499000Y-26249000D01*
X73501000Y-26249000D01*
X73501000Y-27551000D01*
X73501000Y-27551000D01*
G37*
G36*
X76051000Y-26451000D02*
G01*
X74199000Y-26451000D01*
X74199000Y-25349000D01*
X76051000Y-25349000D01*
X76051000Y-26451000D01*
X76051000Y-26451000D01*
G37*
G36*
X89801000Y-26451000D02*
G01*
X87949000Y-26451000D01*
X87949000Y-25349000D01*
X89801000Y-25349000D01*
X89801000Y-26451000D01*
X89801000Y-26451000D01*
G37*
G36*
X36401000Y-25551000D02*
G01*
X35299000Y-25551000D01*
X35299000Y-24449000D01*
X36401000Y-24449000D01*
X36401000Y-25551000D01*
X36401000Y-25551000D01*
G37*
G36*
X89801000Y-24451000D02*
G01*
X87949000Y-24451000D01*
X87949000Y-23349000D01*
X89801000Y-23349000D01*
X89801000Y-24451000D01*
X89801000Y-24451000D01*
G37*
G36*
X76051000Y-24451000D02*
G01*
X74199000Y-24451000D01*
X74199000Y-23349000D01*
X76051000Y-23349000D01*
X76051000Y-24451000D01*
X76051000Y-24451000D01*
G37*
G36*
X19401000Y-24401000D02*
G01*
X18299000Y-24401000D01*
X18299000Y-21099000D01*
X19401000Y-21099000D01*
X19401000Y-24401000D01*
X19401000Y-24401000D01*
G37*
G36*
X25601000Y-24401000D02*
G01*
X24499000Y-24401000D01*
X24499000Y-21099000D01*
X25601000Y-21099000D01*
X25601000Y-24401000D01*
X25601000Y-24401000D01*
G37*
G36*
X31501000Y-24251000D02*
G01*
X30199000Y-24251000D01*
X30199000Y-23249000D01*
X31501000Y-23249000D01*
X31501000Y-24251000D01*
X31501000Y-24251000D01*
G37*
G36*
X33701000Y-24251000D02*
G01*
X32399000Y-24251000D01*
X32399000Y-23249000D01*
X33701000Y-23249000D01*
X33701000Y-24251000D01*
X33701000Y-24251000D01*
G37*
G36*
X29451000Y-24151000D02*
G01*
X28449000Y-24151000D01*
X28449000Y-23249000D01*
X29451000Y-23249000D01*
X29451000Y-24151000D01*
X29451000Y-24151000D01*
G37*
G36*
X17416000Y-23816000D02*
G01*
X14664000Y-23816000D01*
X14664000Y-21684000D01*
X17416000Y-21684000D01*
X17416000Y-23816000D01*
X17416000Y-23816000D01*
G37*
G36*
X13236000Y-23816000D02*
G01*
X10484000Y-23816000D01*
X10484000Y-21684000D01*
X13236000Y-21684000D01*
X13236000Y-23816000D01*
X13236000Y-23816000D01*
G37*
G36*
X73501000Y-23651000D02*
G01*
X72499000Y-23651000D01*
X72499000Y-22349000D01*
X73501000Y-22349000D01*
X73501000Y-23651000D01*
X73501000Y-23651000D01*
G37*
G36*
X94403097Y-21494069D02*
G01*
X94506032Y-21504207D01*
X94704146Y-21564305D01*
X94704149Y-21564306D01*
X94800975Y-21616061D01*
X94886729Y-21661897D01*
X95046765Y-21793235D01*
X95178103Y-21953271D01*
X95223939Y-22039025D01*
X95275694Y-22135851D01*
X95275695Y-22135854D01*
X95335793Y-22333968D01*
X95356085Y-22540000D01*
X95335793Y-22746032D01*
X95275695Y-22944146D01*
X95275694Y-22944149D01*
X95223939Y-23040975D01*
X95178103Y-23126729D01*
X95046765Y-23286765D01*
X94886729Y-23418103D01*
X94800975Y-23463939D01*
X94704149Y-23515694D01*
X94704146Y-23515695D01*
X94506032Y-23575793D01*
X94403097Y-23585931D01*
X94351631Y-23591000D01*
X93648369Y-23591000D01*
X93596903Y-23585931D01*
X93493968Y-23575793D01*
X93295854Y-23515695D01*
X93295851Y-23515694D01*
X93199025Y-23463939D01*
X93113271Y-23418103D01*
X92953235Y-23286765D01*
X92821897Y-23126729D01*
X92776061Y-23040975D01*
X92724306Y-22944149D01*
X92724305Y-22944146D01*
X92664207Y-22746032D01*
X92643915Y-22540000D01*
X92664207Y-22333968D01*
X92724305Y-22135854D01*
X92724306Y-22135851D01*
X92776061Y-22039025D01*
X92821897Y-21953271D01*
X92953235Y-21793235D01*
X93113271Y-21661897D01*
X93199025Y-21616061D01*
X93295851Y-21564306D01*
X93295854Y-21564305D01*
X93493968Y-21504207D01*
X93596903Y-21494069D01*
X93648369Y-21489000D01*
X94351631Y-21489000D01*
X94403097Y-21494069D01*
X94403097Y-21494069D01*
G37*
G36*
X27451000Y-23201000D02*
G01*
X26449000Y-23201000D01*
X26449000Y-22299000D01*
X27451000Y-22299000D01*
X27451000Y-23201000D01*
X27451000Y-23201000D01*
G37*
G36*
X36401000Y-23051000D02*
G01*
X35299000Y-23051000D01*
X35299000Y-21949000D01*
X36401000Y-21949000D01*
X36401000Y-23051000D01*
X36401000Y-23051000D01*
G37*
G36*
X76051000Y-22451000D02*
G01*
X74199000Y-22451000D01*
X74199000Y-21349000D01*
X76051000Y-21349000D01*
X76051000Y-22451000D01*
X76051000Y-22451000D01*
G37*
G36*
X89801000Y-22451000D02*
G01*
X87949000Y-22451000D01*
X87949000Y-21349000D01*
X89801000Y-21349000D01*
X89801000Y-22451000D01*
X89801000Y-22451000D01*
G37*
G36*
X42001000Y-22426000D02*
G01*
X40399000Y-22426000D01*
X40399000Y-21074000D01*
X42001000Y-21074000D01*
X42001000Y-22426000D01*
X42001000Y-22426000D01*
G37*
G36*
X70601000Y-22426000D02*
G01*
X69299000Y-22426000D01*
X69299000Y-21574000D01*
X70601000Y-21574000D01*
X70601000Y-22426000D01*
X70601000Y-22426000D01*
G37*
G36*
X39501000Y-22426000D02*
G01*
X37899000Y-22426000D01*
X37899000Y-21074000D01*
X39501000Y-21074000D01*
X39501000Y-22426000D01*
X39501000Y-22426000D01*
G37*
G36*
X68701000Y-22426000D02*
G01*
X67399000Y-22426000D01*
X67399000Y-21574000D01*
X68701000Y-21574000D01*
X68701000Y-22426000D01*
X68701000Y-22426000D01*
G37*
G36*
X31501000Y-22251000D02*
G01*
X30199000Y-22251000D01*
X30199000Y-21249000D01*
X31501000Y-21249000D01*
X31501000Y-22251000D01*
X31501000Y-22251000D01*
G37*
G36*
X29451000Y-22251000D02*
G01*
X28449000Y-22251000D01*
X28449000Y-21349000D01*
X29451000Y-21349000D01*
X29451000Y-22251000D01*
X29451000Y-22251000D01*
G37*
G36*
X33701000Y-22251000D02*
G01*
X32399000Y-22251000D01*
X32399000Y-21249000D01*
X33701000Y-21249000D01*
X33701000Y-22251000D01*
X33701000Y-22251000D01*
G37*
G36*
X73501000Y-21451000D02*
G01*
X72499000Y-21451000D01*
X72499000Y-20149000D01*
X73501000Y-20149000D01*
X73501000Y-21451000D01*
X73501000Y-21451000D01*
G37*
G36*
X95351000Y-21051000D02*
G01*
X92649000Y-21051000D01*
X92649000Y-18949000D01*
X95351000Y-18949000D01*
X95351000Y-21051000D01*
X95351000Y-21051000D01*
G37*
G36*
X19401000Y-20501000D02*
G01*
X18299000Y-20501000D01*
X18299000Y-17199000D01*
X19401000Y-17199000D01*
X19401000Y-20501000D01*
X19401000Y-20501000D01*
G37*
G36*
X25601000Y-20501000D02*
G01*
X24499000Y-20501000D01*
X24499000Y-17199000D01*
X25601000Y-17199000D01*
X25601000Y-20501000D01*
X25601000Y-20501000D01*
G37*
G36*
X89801000Y-20451000D02*
G01*
X87949000Y-20451000D01*
X87949000Y-19349000D01*
X89801000Y-19349000D01*
X89801000Y-20451000D01*
X89801000Y-20451000D01*
G37*
G36*
X76052500Y-20451000D02*
G01*
X74197500Y-20451000D01*
X74197500Y-19349000D01*
X76052500Y-19349000D01*
X76052500Y-20451000D01*
X76052500Y-20451000D01*
G37*
G36*
X36401000Y-17801000D02*
G01*
X35299000Y-17801000D01*
X35299000Y-16699000D01*
X36401000Y-16699000D01*
X36401000Y-17801000D01*
X36401000Y-17801000D01*
G37*
G36*
X19401000Y-16651000D02*
G01*
X18299000Y-16651000D01*
X18299000Y-13349000D01*
X19401000Y-13349000D01*
X19401000Y-16651000D01*
X19401000Y-16651000D01*
G37*
G36*
X25601000Y-16651000D02*
G01*
X24499000Y-16651000D01*
X24499000Y-13349000D01*
X25601000Y-13349000D01*
X25601000Y-16651000D01*
X25601000Y-16651000D01*
G37*
G36*
X31501000Y-16501000D02*
G01*
X30199000Y-16501000D01*
X30199000Y-15499000D01*
X31501000Y-15499000D01*
X31501000Y-16501000D01*
X31501000Y-16501000D01*
G37*
G36*
X33701000Y-16501000D02*
G01*
X32399000Y-16501000D01*
X32399000Y-15499000D01*
X33701000Y-15499000D01*
X33701000Y-16501000D01*
X33701000Y-16501000D01*
G37*
G36*
X29451000Y-16401000D02*
G01*
X28449000Y-16401000D01*
X28449000Y-15499000D01*
X29451000Y-15499000D01*
X29451000Y-16401000D01*
X29451000Y-16401000D01*
G37*
G36*
X13236000Y-16066000D02*
G01*
X10484000Y-16066000D01*
X10484000Y-13934000D01*
X13236000Y-13934000D01*
X13236000Y-16066000D01*
X13236000Y-16066000D01*
G37*
G36*
X17416000Y-16066000D02*
G01*
X14664000Y-16066000D01*
X14664000Y-13934000D01*
X17416000Y-13934000D01*
X17416000Y-16066000D01*
X17416000Y-16066000D01*
G37*
G36*
X27451000Y-15451000D02*
G01*
X26449000Y-15451000D01*
X26449000Y-14549000D01*
X27451000Y-14549000D01*
X27451000Y-15451000D01*
X27451000Y-15451000D01*
G37*
G36*
X36401000Y-15301000D02*
G01*
X35299000Y-15301000D01*
X35299000Y-14199000D01*
X36401000Y-14199000D01*
X36401000Y-15301000D01*
X36401000Y-15301000D01*
G37*
G36*
X39501000Y-14676000D02*
G01*
X37899000Y-14676000D01*
X37899000Y-13324000D01*
X39501000Y-13324000D01*
X39501000Y-14676000D01*
X39501000Y-14676000D01*
G37*
G36*
X42001000Y-14676000D02*
G01*
X40399000Y-14676000D01*
X40399000Y-13324000D01*
X42001000Y-13324000D01*
X42001000Y-14676000D01*
X42001000Y-14676000D01*
G37*
G36*
X33701000Y-14501000D02*
G01*
X32399000Y-14501000D01*
X32399000Y-13499000D01*
X33701000Y-13499000D01*
X33701000Y-14501000D01*
X33701000Y-14501000D01*
G37*
G36*
X29451000Y-14501000D02*
G01*
X28449000Y-14501000D01*
X28449000Y-13599000D01*
X29451000Y-13599000D01*
X29451000Y-14501000D01*
X29451000Y-14501000D01*
G37*
G36*
X31501000Y-14501000D02*
G01*
X30199000Y-14501000D01*
X30199000Y-13499000D01*
X31501000Y-13499000D01*
X31501000Y-14501000D01*
X31501000Y-14501000D01*
G37*
G36*
X25601000Y-12751000D02*
G01*
X24499000Y-12751000D01*
X24499000Y-9449000D01*
X25601000Y-9449000D01*
X25601000Y-12751000D01*
X25601000Y-12751000D01*
G37*
G36*
X19401000Y-12751000D02*
G01*
X18299000Y-12751000D01*
X18299000Y-9449000D01*
X19401000Y-9449000D01*
X19401000Y-12751000D01*
X19401000Y-12751000D01*
G37*
G36*
X36401000Y-10101000D02*
G01*
X35299000Y-10101000D01*
X35299000Y-8999000D01*
X36401000Y-8999000D01*
X36401000Y-10101000D01*
X36401000Y-10101000D01*
G37*
G36*
X25601000Y-8951000D02*
G01*
X24499000Y-8951000D01*
X24499000Y-5649000D01*
X25601000Y-5649000D01*
X25601000Y-8951000D01*
X25601000Y-8951000D01*
G37*
G36*
X19401000Y-8951000D02*
G01*
X18299000Y-8951000D01*
X18299000Y-5649000D01*
X19401000Y-5649000D01*
X19401000Y-8951000D01*
X19401000Y-8951000D01*
G37*
G36*
X33701000Y-8801000D02*
G01*
X32399000Y-8801000D01*
X32399000Y-7799000D01*
X33701000Y-7799000D01*
X33701000Y-8801000D01*
X33701000Y-8801000D01*
G37*
G36*
X31501000Y-8801000D02*
G01*
X30199000Y-8801000D01*
X30199000Y-7799000D01*
X31501000Y-7799000D01*
X31501000Y-8801000D01*
X31501000Y-8801000D01*
G37*
G36*
X29451000Y-8701000D02*
G01*
X28449000Y-8701000D01*
X28449000Y-7799000D01*
X29451000Y-7799000D01*
X29451000Y-8701000D01*
X29451000Y-8701000D01*
G37*
G36*
X17416000Y-8366000D02*
G01*
X14664000Y-8366000D01*
X14664000Y-6234000D01*
X17416000Y-6234000D01*
X17416000Y-8366000D01*
X17416000Y-8366000D01*
G37*
G36*
X13236000Y-8366000D02*
G01*
X10484000Y-8366000D01*
X10484000Y-6234000D01*
X13236000Y-6234000D01*
X13236000Y-8366000D01*
X13236000Y-8366000D01*
G37*
G36*
X27451000Y-7751000D02*
G01*
X26449000Y-7751000D01*
X26449000Y-6849000D01*
X27451000Y-6849000D01*
X27451000Y-7751000D01*
X27451000Y-7751000D01*
G37*
G36*
X5536694Y-2301860D02*
G01*
X5802437Y-2354719D01*
X6303087Y-2562095D01*
X6483561Y-2682684D01*
X6753660Y-2863158D01*
X7136842Y-3246340D01*
X7317316Y-3516439D01*
X7437905Y-3696913D01*
X7571363Y-4019109D01*
X7645281Y-4197564D01*
X7751000Y-4729049D01*
X7751000Y-5270951D01*
X7715186Y-5451000D01*
X7645281Y-5802437D01*
X7437905Y-6303087D01*
X7381521Y-6387471D01*
X7136842Y-6753660D01*
X6753660Y-7136842D01*
X6490774Y-7312496D01*
X6303087Y-7437905D01*
X5802437Y-7645281D01*
X5536694Y-7698140D01*
X5270951Y-7751000D01*
X4729049Y-7751000D01*
X4463306Y-7698140D01*
X4197563Y-7645281D01*
X3696913Y-7437905D01*
X3509226Y-7312496D01*
X3246340Y-7136842D01*
X2863158Y-6753660D01*
X2618479Y-6387471D01*
X2562095Y-6303087D01*
X2354719Y-5802437D01*
X2284814Y-5451000D01*
X2249000Y-5270951D01*
X2249000Y-4729049D01*
X2354719Y-4197564D01*
X2428637Y-4019109D01*
X2562095Y-3696913D01*
X2682684Y-3516439D01*
X2863158Y-3246340D01*
X3246340Y-2863158D01*
X3516439Y-2682684D01*
X3696913Y-2562095D01*
X4197563Y-2354719D01*
X4463306Y-2301860D01*
X4729049Y-2249000D01*
X5270951Y-2249000D01*
X5536694Y-2301860D01*
X5536694Y-2301860D01*
G37*
G36*
X95536694Y-2301860D02*
G01*
X95802437Y-2354719D01*
X96303087Y-2562095D01*
X96483561Y-2682684D01*
X96753660Y-2863158D01*
X97136842Y-3246340D01*
X97317316Y-3516439D01*
X97437905Y-3696913D01*
X97571363Y-4019109D01*
X97645281Y-4197564D01*
X97751000Y-4729049D01*
X97751000Y-5270951D01*
X97715186Y-5451000D01*
X97645281Y-5802437D01*
X97437905Y-6303087D01*
X97381521Y-6387471D01*
X97136842Y-6753660D01*
X96753660Y-7136842D01*
X96490774Y-7312496D01*
X96303087Y-7437905D01*
X95802437Y-7645281D01*
X95536694Y-7698140D01*
X95270951Y-7751000D01*
X94729049Y-7751000D01*
X94463306Y-7698140D01*
X94197563Y-7645281D01*
X93696913Y-7437905D01*
X93509226Y-7312496D01*
X93246340Y-7136842D01*
X92863158Y-6753660D01*
X92618479Y-6387471D01*
X92562095Y-6303087D01*
X92354719Y-5802437D01*
X92284814Y-5451000D01*
X92249000Y-5270951D01*
X92249000Y-4729049D01*
X92354719Y-4197564D01*
X92428637Y-4019109D01*
X92562095Y-3696913D01*
X92682684Y-3516439D01*
X92863158Y-3246340D01*
X93246340Y-2863158D01*
X93516439Y-2682684D01*
X93696913Y-2562095D01*
X94197563Y-2354719D01*
X94463306Y-2301860D01*
X94729049Y-2249000D01*
X95270951Y-2249000D01*
X95536694Y-2301860D01*
X95536694Y-2301860D01*
G37*
G36*
X36401000Y-7601000D02*
G01*
X35299000Y-7601000D01*
X35299000Y-6499000D01*
X36401000Y-6499000D01*
X36401000Y-7601000D01*
X36401000Y-7601000D01*
G37*
G36*
X42001000Y-6976000D02*
G01*
X40399000Y-6976000D01*
X40399000Y-5624000D01*
X42001000Y-5624000D01*
X42001000Y-6976000D01*
X42001000Y-6976000D01*
G37*
G36*
X39501000Y-6976000D02*
G01*
X37899000Y-6976000D01*
X37899000Y-5624000D01*
X39501000Y-5624000D01*
X39501000Y-6976000D01*
X39501000Y-6976000D01*
G37*
G36*
X31501000Y-6801000D02*
G01*
X30199000Y-6801000D01*
X30199000Y-5799000D01*
X31501000Y-5799000D01*
X31501000Y-6801000D01*
X31501000Y-6801000D01*
G37*
G36*
X29451000Y-6801000D02*
G01*
X28449000Y-6801000D01*
X28449000Y-5899000D01*
X29451000Y-5899000D01*
X29451000Y-6801000D01*
X29451000Y-6801000D01*
G37*
G36*
X33701000Y-6801000D02*
G01*
X32399000Y-6801000D01*
X32399000Y-5799000D01*
X33701000Y-5799000D01*
X33701000Y-6801000D01*
X33701000Y-6801000D01*
G37*
G36*
X59751000Y-6001000D02*
G01*
X58449000Y-6001000D01*
X58449000Y-4999000D01*
X59751000Y-4999000D01*
X59751000Y-6001000D01*
X59751000Y-6001000D01*
G37*
G36*
X57551000Y-6001000D02*
G01*
X56249000Y-6001000D01*
X56249000Y-4999000D01*
X57551000Y-4999000D01*
X57551000Y-6001000D01*
X57551000Y-6001000D01*
G37*
G36*
X69301000Y-5926000D02*
G01*
X67999000Y-5926000D01*
X67999000Y-5074000D01*
X69301000Y-5074000D01*
X69301000Y-5926000D01*
X69301000Y-5926000D01*
G37*
G36*
X67401000Y-5926000D02*
G01*
X66099000Y-5926000D01*
X66099000Y-5074000D01*
X67401000Y-5074000D01*
X67401000Y-5926000D01*
X67401000Y-5926000D01*
G37*
G36*
X17416000Y-3991000D02*
G01*
X14664000Y-3991000D01*
X14664000Y-1859000D01*
X17416000Y-1859000D01*
X17416000Y-3991000D01*
X17416000Y-3991000D01*
G37*
G36*
X13236000Y-3991000D02*
G01*
X10484000Y-3991000D01*
X10484000Y-1859000D01*
X13236000Y-1859000D01*
X13236000Y-3991000D01*
X13236000Y-3991000D01*
G37*
G36*
X59751000Y-3001000D02*
G01*
X58449000Y-3001000D01*
X58449000Y-1999000D01*
X59751000Y-1999000D01*
X59751000Y-3001000D01*
X59751000Y-3001000D01*
G37*
G36*
X57551000Y-3001000D02*
G01*
X56249000Y-3001000D01*
X56249000Y-1999000D01*
X57551000Y-1999000D01*
X57551000Y-3001000D01*
X57551000Y-3001000D01*
G37*
G36*
X67401000Y-2926000D02*
G01*
X66099000Y-2926000D01*
X66099000Y-2074000D01*
X67401000Y-2074000D01*
X67401000Y-2926000D01*
X67401000Y-2926000D01*
G37*
G36*
X69301000Y-2926000D02*
G01*
X67999000Y-2926000D01*
X67999000Y-2074000D01*
X69301000Y-2074000D01*
X69301000Y-2926000D01*
X69301000Y-2926000D01*
G37*
M02*
