G04 #@! TF.GenerationSoftware,KiCad,Pcbnew,5.1.0-rc2-unknown-d2d2101~82~ubuntu18.10.1*
G04 #@! TF.CreationDate,2019-03-08T15:06:41-05:00*
G04 #@! TF.ProjectId,LTC6811,4c544336-3831-4312-9e6b-696361645f70,rev?*
G04 #@! TF.SameCoordinates,Original*
G04 #@! TF.FileFunction,Legend,Top*
G04 #@! TF.FilePolarity,Positive*
%FSLAX46Y46*%
G04 Gerber Fmt 4.6, Leading zero omitted, Abs format (unit mm)*
G04 Created by KiCad (PCBNEW 5.1.0-rc2-unknown-d2d2101~82~ubuntu18.10.1) date 2019-03-08 15:06:41*
%MOMM*%
%LPD*%
G04 APERTURE LIST*
%ADD10C,0.300000*%
%ADD11C,0.120000*%
%ADD12C,0.150000*%
G04 APERTURE END LIST*
D10*
X71285714Y-4678571D02*
X70571428Y-4678571D01*
X70571428Y-3178571D01*
X71571428Y-3178571D02*
X72428571Y-3178571D01*
X72000000Y-4678571D02*
X72000000Y-3178571D01*
X73785714Y-4535714D02*
X73714285Y-4607142D01*
X73500000Y-4678571D01*
X73357142Y-4678571D01*
X73142857Y-4607142D01*
X73000000Y-4464285D01*
X72928571Y-4321428D01*
X72857142Y-4035714D01*
X72857142Y-3821428D01*
X72928571Y-3535714D01*
X73000000Y-3392857D01*
X73142857Y-3250000D01*
X73357142Y-3178571D01*
X73500000Y-3178571D01*
X73714285Y-3250000D01*
X73785714Y-3321428D01*
X75071428Y-3178571D02*
X74785714Y-3178571D01*
X74642857Y-3250000D01*
X74571428Y-3321428D01*
X74428571Y-3535714D01*
X74357142Y-3821428D01*
X74357142Y-4392857D01*
X74428571Y-4535714D01*
X74500000Y-4607142D01*
X74642857Y-4678571D01*
X74928571Y-4678571D01*
X75071428Y-4607142D01*
X75142857Y-4535714D01*
X75214285Y-4392857D01*
X75214285Y-4035714D01*
X75142857Y-3892857D01*
X75071428Y-3821428D01*
X74928571Y-3750000D01*
X74642857Y-3750000D01*
X74500000Y-3821428D01*
X74428571Y-3892857D01*
X74357142Y-4035714D01*
X76071428Y-3821428D02*
X75928571Y-3750000D01*
X75857142Y-3678571D01*
X75785714Y-3535714D01*
X75785714Y-3464285D01*
X75857142Y-3321428D01*
X75928571Y-3250000D01*
X76071428Y-3178571D01*
X76357142Y-3178571D01*
X76500000Y-3250000D01*
X76571428Y-3321428D01*
X76642857Y-3464285D01*
X76642857Y-3535714D01*
X76571428Y-3678571D01*
X76500000Y-3750000D01*
X76357142Y-3821428D01*
X76071428Y-3821428D01*
X75928571Y-3892857D01*
X75857142Y-3964285D01*
X75785714Y-4107142D01*
X75785714Y-4392857D01*
X75857142Y-4535714D01*
X75928571Y-4607142D01*
X76071428Y-4678571D01*
X76357142Y-4678571D01*
X76500000Y-4607142D01*
X76571428Y-4535714D01*
X76642857Y-4392857D01*
X76642857Y-4107142D01*
X76571428Y-3964285D01*
X76500000Y-3892857D01*
X76357142Y-3821428D01*
X78071428Y-4678571D02*
X77214285Y-4678571D01*
X77642857Y-4678571D02*
X77642857Y-3178571D01*
X77500000Y-3392857D01*
X77357142Y-3535714D01*
X77214285Y-3607142D01*
X79500000Y-4678571D02*
X78642857Y-4678571D01*
X79071428Y-4678571D02*
X79071428Y-3178571D01*
X78928571Y-3392857D01*
X78785714Y-3535714D01*
X78642857Y-3607142D01*
D11*
X24550000Y-20670000D02*
X19350000Y-20670000D01*
X19350000Y-17030000D02*
X24550000Y-17030000D01*
X14950000Y-3995000D02*
X12950000Y-3995000D01*
X12950000Y-1855000D02*
X14950000Y-1855000D01*
X67800000Y-56800000D02*
X68800000Y-56800000D01*
X68800000Y-55100000D02*
X67800000Y-55100000D01*
X68800000Y-52850000D02*
X67800000Y-52850000D01*
X67800000Y-54550000D02*
X68800000Y-54550000D01*
X68050000Y-6100000D02*
X67350000Y-6100000D01*
X67350000Y-4900000D02*
X68050000Y-4900000D01*
X67350000Y-1900000D02*
X68050000Y-1900000D01*
X68050000Y-3100000D02*
X67350000Y-3100000D01*
X83550000Y-49150000D02*
X84550000Y-49150000D01*
X84550000Y-47450000D02*
X83550000Y-47450000D01*
X69350000Y-22600000D02*
X68650000Y-22600000D01*
X68650000Y-21400000D02*
X69350000Y-21400000D01*
X68650000Y-27400000D02*
X69350000Y-27400000D01*
X69350000Y-28600000D02*
X68650000Y-28600000D01*
X64900000Y-90350000D02*
X64900000Y-91050000D01*
X63700000Y-91050000D02*
X63700000Y-90350000D01*
X67700000Y-91050000D02*
X67700000Y-90350000D01*
X68900000Y-90350000D02*
X68900000Y-91050000D01*
X72900000Y-90350000D02*
X72900000Y-91050000D01*
X71700000Y-91050000D02*
X71700000Y-90350000D01*
X75700000Y-91050000D02*
X75700000Y-90350000D01*
X76900000Y-90350000D02*
X76900000Y-91050000D01*
X80900000Y-90350000D02*
X80900000Y-91050000D01*
X79700000Y-91050000D02*
X79700000Y-90350000D01*
X12950000Y-6230000D02*
X14950000Y-6230000D01*
X14950000Y-8370000D02*
X12950000Y-8370000D01*
X14950000Y-16070000D02*
X12950000Y-16070000D01*
X12950000Y-13930000D02*
X14950000Y-13930000D01*
X12950000Y-21680000D02*
X14950000Y-21680000D01*
X14950000Y-23820000D02*
X12950000Y-23820000D01*
X14950000Y-31520000D02*
X12950000Y-31520000D01*
X12950000Y-29380000D02*
X14950000Y-29380000D01*
X12950000Y-37080000D02*
X14950000Y-37080000D01*
X14950000Y-39220000D02*
X12950000Y-39220000D01*
X14950000Y-46920000D02*
X12950000Y-46920000D01*
X12950000Y-44780000D02*
X14950000Y-44780000D01*
X12950000Y-52580000D02*
X14950000Y-52580000D01*
X14950000Y-54720000D02*
X12950000Y-54720000D01*
X15000000Y-62420000D02*
X13000000Y-62420000D01*
X13000000Y-60280000D02*
X15000000Y-60280000D01*
X12950000Y-67980000D02*
X14950000Y-67980000D01*
X14950000Y-70120000D02*
X12950000Y-70120000D01*
X14950000Y-77820000D02*
X12950000Y-77820000D01*
X12950000Y-75680000D02*
X14950000Y-75680000D01*
X12950000Y-83380000D02*
X14950000Y-83380000D01*
X14950000Y-85520000D02*
X12950000Y-85520000D01*
X4570000Y-67670000D02*
X3300000Y-67670000D01*
X4570000Y-66400000D02*
X4570000Y-67670000D01*
X2257071Y-35540000D02*
X1860000Y-35540000D01*
X2257071Y-36300000D02*
X1860000Y-36300000D01*
X-6800000Y-35540000D02*
X-800000Y-35540000D01*
X-6800000Y-36300000D02*
X-6800000Y-35540000D01*
X-800000Y-36300000D02*
X-6800000Y-36300000D01*
X1860000Y-37190000D02*
X-800000Y-37190000D01*
X2257071Y-38080000D02*
X1860000Y-38080000D01*
X2257071Y-38840000D02*
X1860000Y-38840000D01*
X-6800000Y-38080000D02*
X-800000Y-38080000D01*
X-6800000Y-38840000D02*
X-6800000Y-38080000D01*
X-800000Y-38840000D02*
X-6800000Y-38840000D01*
X1860000Y-39730000D02*
X-800000Y-39730000D01*
X2257071Y-40620000D02*
X1860000Y-40620000D01*
X2257071Y-41380000D02*
X1860000Y-41380000D01*
X-6800000Y-40620000D02*
X-800000Y-40620000D01*
X-6800000Y-41380000D02*
X-6800000Y-40620000D01*
X-800000Y-41380000D02*
X-6800000Y-41380000D01*
X1860000Y-42270000D02*
X-800000Y-42270000D01*
X2257071Y-43160000D02*
X1860000Y-43160000D01*
X2257071Y-43920000D02*
X1860000Y-43920000D01*
X-6800000Y-43160000D02*
X-800000Y-43160000D01*
X-6800000Y-43920000D02*
X-6800000Y-43160000D01*
X-800000Y-43920000D02*
X-6800000Y-43920000D01*
X1860000Y-44810000D02*
X-800000Y-44810000D01*
X2257071Y-45700000D02*
X1860000Y-45700000D01*
X2257071Y-46460000D02*
X1860000Y-46460000D01*
X-6800000Y-45700000D02*
X-800000Y-45700000D01*
X-6800000Y-46460000D02*
X-6800000Y-45700000D01*
X-800000Y-46460000D02*
X-6800000Y-46460000D01*
X1860000Y-47350000D02*
X-800000Y-47350000D01*
X2257071Y-48240000D02*
X1860000Y-48240000D01*
X2257071Y-49000000D02*
X1860000Y-49000000D01*
X-6800000Y-48240000D02*
X-800000Y-48240000D01*
X-6800000Y-49000000D02*
X-6800000Y-48240000D01*
X-800000Y-49000000D02*
X-6800000Y-49000000D01*
X1860000Y-49890000D02*
X-800000Y-49890000D01*
X2257071Y-50780000D02*
X1860000Y-50780000D01*
X2257071Y-51540000D02*
X1860000Y-51540000D01*
X-6800000Y-50780000D02*
X-800000Y-50780000D01*
X-6800000Y-51540000D02*
X-6800000Y-50780000D01*
X-800000Y-51540000D02*
X-6800000Y-51540000D01*
X1860000Y-52430000D02*
X-800000Y-52430000D01*
X2257071Y-53320000D02*
X1860000Y-53320000D01*
X2257071Y-54080000D02*
X1860000Y-54080000D01*
X-6800000Y-53320000D02*
X-800000Y-53320000D01*
X-6800000Y-54080000D02*
X-6800000Y-53320000D01*
X-800000Y-54080000D02*
X-6800000Y-54080000D01*
X1860000Y-54970000D02*
X-800000Y-54970000D01*
X2257071Y-55860000D02*
X1860000Y-55860000D01*
X2257071Y-56620000D02*
X1860000Y-56620000D01*
X-6800000Y-55860000D02*
X-800000Y-55860000D01*
X-6800000Y-56620000D02*
X-6800000Y-55860000D01*
X-800000Y-56620000D02*
X-6800000Y-56620000D01*
X1860000Y-57510000D02*
X-800000Y-57510000D01*
X2257071Y-58400000D02*
X1860000Y-58400000D01*
X2257071Y-59160000D02*
X1860000Y-59160000D01*
X-6800000Y-58400000D02*
X-800000Y-58400000D01*
X-6800000Y-59160000D02*
X-6800000Y-58400000D01*
X-800000Y-59160000D02*
X-6800000Y-59160000D01*
X1860000Y-60050000D02*
X-800000Y-60050000D01*
X2257071Y-60940000D02*
X1860000Y-60940000D01*
X2257071Y-61700000D02*
X1860000Y-61700000D01*
X-6800000Y-60940000D02*
X-800000Y-60940000D01*
X-6800000Y-61700000D02*
X-6800000Y-60940000D01*
X-800000Y-61700000D02*
X-6800000Y-61700000D01*
X1860000Y-62590000D02*
X-800000Y-62590000D01*
X2257071Y-63480000D02*
X1860000Y-63480000D01*
X2257071Y-64240000D02*
X1860000Y-64240000D01*
X-6800000Y-63480000D02*
X-800000Y-63480000D01*
X-6800000Y-64240000D02*
X-6800000Y-63480000D01*
X-800000Y-64240000D02*
X-6800000Y-64240000D01*
X1860000Y-65130000D02*
X-800000Y-65130000D01*
X2190000Y-66020000D02*
X1860000Y-66020000D01*
X2190000Y-66780000D02*
X1860000Y-66780000D01*
X-800000Y-66120000D02*
X-6800000Y-66120000D01*
X-800000Y-66240000D02*
X-6800000Y-66240000D01*
X-800000Y-66360000D02*
X-6800000Y-66360000D01*
X-800000Y-66480000D02*
X-6800000Y-66480000D01*
X-800000Y-66600000D02*
X-6800000Y-66600000D01*
X-800000Y-66720000D02*
X-6800000Y-66720000D01*
X-6800000Y-66020000D02*
X-800000Y-66020000D01*
X-6800000Y-66780000D02*
X-6800000Y-66020000D01*
X-800000Y-66780000D02*
X-6800000Y-66780000D01*
X-800000Y-67730000D02*
X1860000Y-67730000D01*
X-800000Y-34590000D02*
X-800000Y-67730000D01*
X1860000Y-34590000D02*
X-800000Y-34590000D01*
X1860000Y-67730000D02*
X1860000Y-34590000D01*
X96400000Y-23340000D02*
X97020000Y-23340000D01*
X96400000Y-21740000D02*
X96400000Y-23340000D01*
X97020000Y-21740000D02*
X96400000Y-21740000D01*
X96400000Y-20800000D02*
X97020000Y-20800000D01*
X96400000Y-19200000D02*
X96400000Y-20800000D01*
X97020000Y-19200000D02*
X96400000Y-19200000D01*
X91020000Y-22290000D02*
X92020000Y-22290000D01*
X91020000Y-20250000D02*
X92020000Y-20250000D01*
X92450000Y-22290000D02*
X92020000Y-22540000D01*
X92450000Y-20250000D02*
X92450000Y-22290000D01*
X92020000Y-20000000D02*
X92450000Y-20250000D01*
X92020000Y-22540000D02*
X91020000Y-22540000D01*
X92020000Y-20000000D02*
X92020000Y-22540000D01*
X91020000Y-20000000D02*
X92020000Y-20000000D01*
X97020000Y-23910000D02*
X97020000Y-18630000D01*
X91020000Y-23910000D02*
X97020000Y-23910000D01*
X91020000Y-18630000D02*
X91020000Y-23910000D01*
X97020000Y-18630000D02*
X91020000Y-18630000D01*
X97020000Y-25630000D02*
X91020000Y-25630000D01*
X91020000Y-25630000D02*
X91020000Y-30910000D01*
X91020000Y-30910000D02*
X97020000Y-30910000D01*
X97020000Y-30910000D02*
X97020000Y-25630000D01*
X91020000Y-27000000D02*
X92020000Y-27000000D01*
X92020000Y-27000000D02*
X92020000Y-29540000D01*
X92020000Y-29540000D02*
X91020000Y-29540000D01*
X92020000Y-27000000D02*
X92450000Y-27250000D01*
X92450000Y-27250000D02*
X92450000Y-29290000D01*
X92450000Y-29290000D02*
X92020000Y-29540000D01*
X91020000Y-27250000D02*
X92020000Y-27250000D01*
X91020000Y-29290000D02*
X92020000Y-29290000D01*
X97020000Y-26200000D02*
X96400000Y-26200000D01*
X96400000Y-26200000D02*
X96400000Y-27800000D01*
X96400000Y-27800000D02*
X97020000Y-27800000D01*
X97020000Y-28740000D02*
X96400000Y-28740000D01*
X96400000Y-28740000D02*
X96400000Y-30340000D01*
X96400000Y-30340000D02*
X97020000Y-30340000D01*
X85371495Y-54670000D02*
X85371495Y-56000000D01*
X84041495Y-54670000D02*
X85371495Y-54670000D01*
X82771495Y-54670000D02*
X82771495Y-57330000D01*
X82771495Y-57330000D02*
X77631495Y-57330000D01*
X82771495Y-54670000D02*
X77631495Y-54670000D01*
X77631495Y-54670000D02*
X77631495Y-57330000D01*
X77590000Y-36670000D02*
X77590000Y-39330000D01*
X82730000Y-36670000D02*
X77590000Y-36670000D01*
X82730000Y-39330000D02*
X77590000Y-39330000D01*
X82730000Y-36670000D02*
X82730000Y-39330000D01*
X84000000Y-36670000D02*
X85330000Y-36670000D01*
X85330000Y-36670000D02*
X85330000Y-38000000D01*
X87100000Y-42690000D02*
X93110000Y-42690000D01*
X89350000Y-49510000D02*
X93110000Y-49510000D01*
X93110000Y-42690000D02*
X93110000Y-43950000D01*
X93110000Y-49510000D02*
X93110000Y-48250000D01*
X27190000Y-5720000D02*
X27190000Y-6650000D01*
X27190000Y-8880000D02*
X27190000Y-7950000D01*
X27190000Y-8880000D02*
X29350000Y-8880000D01*
X27190000Y-5720000D02*
X28650000Y-5720000D01*
X27190000Y-13420000D02*
X28650000Y-13420000D01*
X27190000Y-16580000D02*
X29350000Y-16580000D01*
X27190000Y-16580000D02*
X27190000Y-15650000D01*
X27190000Y-13420000D02*
X27190000Y-14350000D01*
X27190000Y-21170000D02*
X28650000Y-21170000D01*
X27190000Y-24330000D02*
X29350000Y-24330000D01*
X27190000Y-24330000D02*
X27190000Y-23400000D01*
X27190000Y-21170000D02*
X27190000Y-22100000D01*
X27190000Y-28870000D02*
X27190000Y-29800000D01*
X27190000Y-32030000D02*
X27190000Y-31100000D01*
X27190000Y-32030000D02*
X29350000Y-32030000D01*
X27190000Y-28870000D02*
X28650000Y-28870000D01*
X27190000Y-36570000D02*
X28650000Y-36570000D01*
X27190000Y-39730000D02*
X29350000Y-39730000D01*
X27190000Y-39730000D02*
X27190000Y-38800000D01*
X27190000Y-36570000D02*
X27190000Y-37500000D01*
X27190000Y-44270000D02*
X28650000Y-44270000D01*
X27190000Y-47430000D02*
X29350000Y-47430000D01*
X27190000Y-47430000D02*
X27190000Y-46500000D01*
X27190000Y-44270000D02*
X27190000Y-45200000D01*
X27190000Y-52070000D02*
X27190000Y-53000000D01*
X27190000Y-55230000D02*
X27190000Y-54300000D01*
X27190000Y-55230000D02*
X29350000Y-55230000D01*
X27190000Y-52070000D02*
X28650000Y-52070000D01*
X27240000Y-59770000D02*
X28700000Y-59770000D01*
X27240000Y-62930000D02*
X29400000Y-62930000D01*
X27240000Y-62930000D02*
X27240000Y-62000000D01*
X27240000Y-59770000D02*
X27240000Y-60700000D01*
X27190000Y-67470000D02*
X27190000Y-68400000D01*
X27190000Y-70630000D02*
X27190000Y-69700000D01*
X27190000Y-70630000D02*
X29350000Y-70630000D01*
X27190000Y-67470000D02*
X28650000Y-67470000D01*
X27190000Y-75170000D02*
X27190000Y-76100000D01*
X27190000Y-78330000D02*
X27190000Y-77400000D01*
X27190000Y-78330000D02*
X29350000Y-78330000D01*
X27190000Y-75170000D02*
X28650000Y-75170000D01*
X27190000Y-82870000D02*
X28650000Y-82870000D01*
X27190000Y-86030000D02*
X29350000Y-86030000D01*
X27190000Y-86030000D02*
X27190000Y-85100000D01*
X27190000Y-82870000D02*
X27190000Y-83800000D01*
X27190000Y-90870000D02*
X27190000Y-91800000D01*
X27190000Y-94030000D02*
X27190000Y-93100000D01*
X27190000Y-94030000D02*
X29350000Y-94030000D01*
X27190000Y-90870000D02*
X28650000Y-90870000D01*
X58500000Y-3180000D02*
X57500000Y-3180000D01*
X57500000Y-1820000D02*
X58500000Y-1820000D01*
X57500000Y-4820000D02*
X58500000Y-4820000D01*
X58500000Y-6180000D02*
X57500000Y-6180000D01*
X65500000Y-47320000D02*
X66500000Y-47320000D01*
X66500000Y-48680000D02*
X65500000Y-48680000D01*
X66500000Y-46680000D02*
X65500000Y-46680000D01*
X65500000Y-45320000D02*
X66500000Y-45320000D01*
X72320000Y-22400000D02*
X72320000Y-21400000D01*
X73680000Y-21400000D02*
X73680000Y-22400000D01*
X73680000Y-27500000D02*
X73680000Y-28500000D01*
X72320000Y-28500000D02*
X72320000Y-27500000D01*
X65620000Y-91200000D02*
X65620000Y-90200000D01*
X66980000Y-90200000D02*
X66980000Y-91200000D01*
X70980000Y-90200000D02*
X70980000Y-91200000D01*
X69620000Y-91200000D02*
X69620000Y-90200000D01*
X73620000Y-91200000D02*
X73620000Y-90200000D01*
X74980000Y-90200000D02*
X74980000Y-91200000D01*
X77620000Y-91200000D02*
X77620000Y-90200000D01*
X78980000Y-90200000D02*
X78980000Y-91200000D01*
X82980000Y-90200000D02*
X82980000Y-91200000D01*
X81620000Y-91200000D02*
X81620000Y-90200000D01*
X31450000Y-5620000D02*
X32450000Y-5620000D01*
X32450000Y-6980000D02*
X31450000Y-6980000D01*
X31450000Y-7620000D02*
X32450000Y-7620000D01*
X32450000Y-8980000D02*
X31450000Y-8980000D01*
X31450000Y-13320000D02*
X32450000Y-13320000D01*
X32450000Y-14680000D02*
X31450000Y-14680000D01*
X32450000Y-16680000D02*
X31450000Y-16680000D01*
X31450000Y-15320000D02*
X32450000Y-15320000D01*
X31450000Y-21070000D02*
X32450000Y-21070000D01*
X32450000Y-22430000D02*
X31450000Y-22430000D01*
X32450000Y-24430000D02*
X31450000Y-24430000D01*
X31450000Y-23070000D02*
X32450000Y-23070000D01*
X31450000Y-28770000D02*
X32450000Y-28770000D01*
X32450000Y-30130000D02*
X31450000Y-30130000D01*
X32450000Y-32130000D02*
X31450000Y-32130000D01*
X31450000Y-30770000D02*
X32450000Y-30770000D01*
X31450000Y-36470000D02*
X32450000Y-36470000D01*
X32450000Y-37830000D02*
X31450000Y-37830000D01*
X32450000Y-39830000D02*
X31450000Y-39830000D01*
X31450000Y-38470000D02*
X32450000Y-38470000D01*
X32450000Y-45530000D02*
X31450000Y-45530000D01*
X31450000Y-44170000D02*
X32450000Y-44170000D01*
X31450000Y-46170000D02*
X32450000Y-46170000D01*
X32450000Y-47530000D02*
X31450000Y-47530000D01*
X31450000Y-51970000D02*
X32450000Y-51970000D01*
X32450000Y-53330000D02*
X31450000Y-53330000D01*
X32450000Y-55330000D02*
X31450000Y-55330000D01*
X31450000Y-53970000D02*
X32450000Y-53970000D01*
X32500000Y-61030000D02*
X31500000Y-61030000D01*
X31500000Y-59670000D02*
X32500000Y-59670000D01*
X31500000Y-61670000D02*
X32500000Y-61670000D01*
X32500000Y-63030000D02*
X31500000Y-63030000D01*
X32450000Y-68730000D02*
X31450000Y-68730000D01*
X31450000Y-67370000D02*
X32450000Y-67370000D01*
X32450000Y-70730000D02*
X31450000Y-70730000D01*
X31450000Y-69370000D02*
X32450000Y-69370000D01*
X32450000Y-76430000D02*
X31450000Y-76430000D01*
X31450000Y-75070000D02*
X32450000Y-75070000D01*
X32450000Y-78430000D02*
X31450000Y-78430000D01*
X31450000Y-77070000D02*
X32450000Y-77070000D01*
X31450000Y-82770000D02*
X32450000Y-82770000D01*
X32450000Y-84130000D02*
X31450000Y-84130000D01*
X32450000Y-86130000D02*
X31450000Y-86130000D01*
X31450000Y-84770000D02*
X32450000Y-84770000D01*
X31450000Y-90770000D02*
X32450000Y-90770000D01*
X32450000Y-92130000D02*
X31450000Y-92130000D01*
X32450000Y-94130000D02*
X31450000Y-94130000D01*
X31450000Y-92770000D02*
X32450000Y-92770000D01*
D12*
X87068830Y-29802200D02*
G75*
G03X87068830Y-29802200I-369830J0D01*
G01*
D11*
X74250000Y-18900000D02*
X89750000Y-18900000D01*
X89750000Y-18900000D02*
X89750000Y-30900000D01*
X89750000Y-30900000D02*
X74250000Y-30900000D01*
X74250000Y-30900000D02*
X74250000Y-18900000D01*
D12*
X51125000Y-46500000D02*
X50050000Y-46500000D01*
X51125000Y-59075000D02*
X57475000Y-59075000D01*
X51125000Y-46325000D02*
X57475000Y-46325000D01*
X51125000Y-59075000D02*
X51125000Y-58817500D01*
X57475000Y-59075000D02*
X57475000Y-58817500D01*
X57475000Y-46325000D02*
X57475000Y-46582500D01*
X51125000Y-46325000D02*
X51125000Y-46500000D01*
D11*
X19350000Y-5480000D02*
X24550000Y-5480000D01*
X24550000Y-9120000D02*
X19350000Y-9120000D01*
X24550000Y-16820000D02*
X19350000Y-16820000D01*
X19350000Y-13180000D02*
X24550000Y-13180000D01*
X24550000Y-24570000D02*
X19350000Y-24570000D01*
X19350000Y-20930000D02*
X24550000Y-20930000D01*
X19350000Y-28630000D02*
X24550000Y-28630000D01*
X24550000Y-32270000D02*
X19350000Y-32270000D01*
X24550000Y-39970000D02*
X19350000Y-39970000D01*
X19350000Y-36330000D02*
X24550000Y-36330000D01*
X24550000Y-47670000D02*
X19350000Y-47670000D01*
X19350000Y-44030000D02*
X24550000Y-44030000D01*
X24550000Y-55470000D02*
X19350000Y-55470000D01*
X19350000Y-51830000D02*
X24550000Y-51830000D01*
X24600000Y-63170000D02*
X19400000Y-63170000D01*
X19400000Y-59530000D02*
X24600000Y-59530000D01*
X19350000Y-74930000D02*
X24550000Y-74930000D01*
X24550000Y-78570000D02*
X19350000Y-78570000D01*
X19350000Y-82630000D02*
X24550000Y-82630000D01*
X24550000Y-86270000D02*
X19350000Y-86270000D01*
X24550000Y-94270000D02*
X19350000Y-94270000D01*
X19350000Y-90630000D02*
X24550000Y-90630000D01*
X19350000Y-67230000D02*
X24550000Y-67230000D01*
X24550000Y-70870000D02*
X19350000Y-70870000D01*
X40450000Y-5450000D02*
X39450000Y-5450000D01*
X39450000Y-7150000D02*
X40450000Y-7150000D01*
X40450000Y-13150000D02*
X39450000Y-13150000D01*
X39450000Y-14850000D02*
X40450000Y-14850000D01*
X39450000Y-22600000D02*
X40450000Y-22600000D01*
X40450000Y-20900000D02*
X39450000Y-20900000D01*
X40450000Y-28600000D02*
X39450000Y-28600000D01*
X39450000Y-30300000D02*
X40450000Y-30300000D01*
X39450000Y-38000000D02*
X40450000Y-38000000D01*
X40450000Y-36300000D02*
X39450000Y-36300000D01*
X40450000Y-44000000D02*
X39450000Y-44000000D01*
X39450000Y-45700000D02*
X40450000Y-45700000D01*
X39450000Y-53500000D02*
X40450000Y-53500000D01*
X40450000Y-51800000D02*
X39450000Y-51800000D01*
X39500000Y-61200000D02*
X40500000Y-61200000D01*
X40500000Y-59500000D02*
X39500000Y-59500000D01*
X39400000Y-68950000D02*
X40400000Y-68950000D01*
X40400000Y-67250000D02*
X39400000Y-67250000D01*
X40450000Y-74900000D02*
X39450000Y-74900000D01*
X39450000Y-76600000D02*
X40450000Y-76600000D01*
X39450000Y-84300000D02*
X40450000Y-84300000D01*
X40450000Y-82600000D02*
X39450000Y-82600000D01*
X40450000Y-90600000D02*
X39450000Y-90600000D01*
X39450000Y-92300000D02*
X40450000Y-92300000D01*
X36700000Y-6400000D02*
X36700000Y-9550000D01*
X35000000Y-6400000D02*
X35000000Y-9550000D01*
X36700000Y-6400000D02*
X35000000Y-6400000D01*
X36700000Y-14100000D02*
X36700000Y-17250000D01*
X35000000Y-14100000D02*
X35000000Y-17250000D01*
X36700000Y-14100000D02*
X35000000Y-14100000D01*
X36700000Y-21850000D02*
X35000000Y-21850000D01*
X35000000Y-21850000D02*
X35000000Y-25000000D01*
X36700000Y-21850000D02*
X36700000Y-25000000D01*
X36700000Y-29550000D02*
X35000000Y-29550000D01*
X35000000Y-29550000D02*
X35000000Y-32700000D01*
X36700000Y-29550000D02*
X36700000Y-32700000D01*
X36700000Y-37250000D02*
X35000000Y-37250000D01*
X35000000Y-37250000D02*
X35000000Y-40400000D01*
X36700000Y-37250000D02*
X36700000Y-40400000D01*
X36700000Y-44950000D02*
X36700000Y-48100000D01*
X35000000Y-44950000D02*
X35000000Y-48100000D01*
X36700000Y-44950000D02*
X35000000Y-44950000D01*
X36700000Y-53250000D02*
X36700000Y-56400000D01*
X35000000Y-53250000D02*
X35000000Y-56400000D01*
X36700000Y-53250000D02*
X35000000Y-53250000D01*
X36750000Y-60950000D02*
X35050000Y-60950000D01*
X35050000Y-60950000D02*
X35050000Y-64100000D01*
X36750000Y-60950000D02*
X36750000Y-64100000D01*
X36700000Y-68150000D02*
X35000000Y-68150000D01*
X35000000Y-68150000D02*
X35000000Y-71300000D01*
X36700000Y-68150000D02*
X36700000Y-71300000D01*
X36700000Y-75850000D02*
X35000000Y-75850000D01*
X35000000Y-75850000D02*
X35000000Y-79000000D01*
X36700000Y-75850000D02*
X36700000Y-79000000D01*
X36700000Y-83700000D02*
X36700000Y-86850000D01*
X35000000Y-83700000D02*
X35000000Y-86850000D01*
X36700000Y-83700000D02*
X35000000Y-83700000D01*
X36700000Y-91550000D02*
X36700000Y-94700000D01*
X35000000Y-91550000D02*
X35000000Y-94700000D01*
X36700000Y-91550000D02*
X35000000Y-91550000D01*
X12950000Y-91380000D02*
X14950000Y-91380000D01*
X14950000Y-93520000D02*
X12950000Y-93520000D01*
X63670000Y-96330000D02*
X63670000Y-95000000D01*
X65000000Y-96330000D02*
X63670000Y-96330000D01*
X66270000Y-96330000D02*
X66270000Y-93670000D01*
X66270000Y-93670000D02*
X89190000Y-93670000D01*
X66270000Y-96330000D02*
X89190000Y-96330000D01*
X89190000Y-96330000D02*
X89190000Y-93670000D01*
X19350000Y-9280000D02*
X24550000Y-9280000D01*
X24550000Y-12920000D02*
X19350000Y-12920000D01*
X19350000Y-24730000D02*
X24550000Y-24730000D01*
X24550000Y-28370000D02*
X19350000Y-28370000D01*
X19350000Y-32430000D02*
X24550000Y-32430000D01*
X24550000Y-36070000D02*
X19350000Y-36070000D01*
X19350000Y-40130000D02*
X24550000Y-40130000D01*
X24550000Y-43770000D02*
X19350000Y-43770000D01*
X24550000Y-51470000D02*
X19350000Y-51470000D01*
X19350000Y-47830000D02*
X24550000Y-47830000D01*
X19350000Y-55630000D02*
X24550000Y-55630000D01*
X24550000Y-59270000D02*
X19350000Y-59270000D01*
X19400000Y-63330000D02*
X24600000Y-63330000D01*
X24600000Y-66970000D02*
X19400000Y-66970000D01*
X24550000Y-74670000D02*
X19350000Y-74670000D01*
X19350000Y-71030000D02*
X24550000Y-71030000D01*
X24550000Y-82370000D02*
X19350000Y-82370000D01*
X19350000Y-78730000D02*
X24550000Y-78730000D01*
X24550000Y-90270000D02*
X19350000Y-90270000D01*
X19350000Y-86630000D02*
X24550000Y-86630000D01*
X24550000Y-98070000D02*
X19350000Y-98070000D01*
X19350000Y-94430000D02*
X24550000Y-94430000D01*
D12*
X20807142Y-19302380D02*
X20473809Y-18826190D01*
X20235714Y-19302380D02*
X20235714Y-18302380D01*
X20616666Y-18302380D01*
X20711904Y-18350000D01*
X20759523Y-18397619D01*
X20807142Y-18492857D01*
X20807142Y-18635714D01*
X20759523Y-18730952D01*
X20711904Y-18778571D01*
X20616666Y-18826190D01*
X20235714Y-18826190D01*
X21664285Y-18635714D02*
X21664285Y-19302380D01*
X21426190Y-18254761D02*
X21188095Y-18969047D01*
X21807142Y-18969047D01*
X22235714Y-19302380D02*
X22426190Y-19302380D01*
X22521428Y-19254761D01*
X22569047Y-19207142D01*
X22664285Y-19064285D01*
X22711904Y-18873809D01*
X22711904Y-18492857D01*
X22664285Y-18397619D01*
X22616666Y-18350000D01*
X22521428Y-18302380D01*
X22330952Y-18302380D01*
X22235714Y-18350000D01*
X22188095Y-18397619D01*
X22140476Y-18492857D01*
X22140476Y-18730952D01*
X22188095Y-18826190D01*
X22235714Y-18873809D01*
X22330952Y-18921428D01*
X22521428Y-18921428D01*
X22616666Y-18873809D01*
X22664285Y-18826190D01*
X22711904Y-18730952D01*
X9116666Y-2853571D02*
X8783333Y-2853571D01*
X8783333Y-3377380D02*
X8783333Y-2377380D01*
X9259523Y-2377380D01*
X10164285Y-3377380D02*
X9592857Y-3377380D01*
X9878571Y-3377380D02*
X9878571Y-2377380D01*
X9783333Y-2520238D01*
X9688095Y-2615476D01*
X9592857Y-2663095D01*
X64133333Y-56057142D02*
X64085714Y-56104761D01*
X63942857Y-56152380D01*
X63847619Y-56152380D01*
X63704761Y-56104761D01*
X63609523Y-56009523D01*
X63561904Y-55914285D01*
X63514285Y-55723809D01*
X63514285Y-55580952D01*
X63561904Y-55390476D01*
X63609523Y-55295238D01*
X63704761Y-55200000D01*
X63847619Y-55152380D01*
X63942857Y-55152380D01*
X64085714Y-55200000D01*
X64133333Y-55247619D01*
X65085714Y-56152380D02*
X64514285Y-56152380D01*
X64800000Y-56152380D02*
X64800000Y-55152380D01*
X64704761Y-55295238D01*
X64609523Y-55390476D01*
X64514285Y-55438095D01*
X64133333Y-54057142D02*
X64085714Y-54104761D01*
X63942857Y-54152380D01*
X63847619Y-54152380D01*
X63704761Y-54104761D01*
X63609523Y-54009523D01*
X63561904Y-53914285D01*
X63514285Y-53723809D01*
X63514285Y-53580952D01*
X63561904Y-53390476D01*
X63609523Y-53295238D01*
X63704761Y-53200000D01*
X63847619Y-53152380D01*
X63942857Y-53152380D01*
X64085714Y-53200000D01*
X64133333Y-53247619D01*
X64514285Y-53247619D02*
X64561904Y-53200000D01*
X64657142Y-53152380D01*
X64895238Y-53152380D01*
X64990476Y-53200000D01*
X65038095Y-53247619D01*
X65085714Y-53342857D01*
X65085714Y-53438095D01*
X65038095Y-53580952D01*
X64466666Y-54152380D01*
X65085714Y-54152380D01*
X67533333Y-4607142D02*
X67485714Y-4654761D01*
X67342857Y-4702380D01*
X67247619Y-4702380D01*
X67104761Y-4654761D01*
X67009523Y-4559523D01*
X66961904Y-4464285D01*
X66914285Y-4273809D01*
X66914285Y-4130952D01*
X66961904Y-3940476D01*
X67009523Y-3845238D01*
X67104761Y-3750000D01*
X67247619Y-3702380D01*
X67342857Y-3702380D01*
X67485714Y-3750000D01*
X67533333Y-3797619D01*
X67866666Y-3702380D02*
X68485714Y-3702380D01*
X68152380Y-4083333D01*
X68295238Y-4083333D01*
X68390476Y-4130952D01*
X68438095Y-4178571D01*
X68485714Y-4273809D01*
X68485714Y-4511904D01*
X68438095Y-4607142D01*
X68390476Y-4654761D01*
X68295238Y-4702380D01*
X68009523Y-4702380D01*
X67914285Y-4654761D01*
X67866666Y-4607142D01*
X67533333Y-1607142D02*
X67485714Y-1654761D01*
X67342857Y-1702380D01*
X67247619Y-1702380D01*
X67104761Y-1654761D01*
X67009523Y-1559523D01*
X66961904Y-1464285D01*
X66914285Y-1273809D01*
X66914285Y-1130952D01*
X66961904Y-940476D01*
X67009523Y-845238D01*
X67104761Y-750000D01*
X67247619Y-702380D01*
X67342857Y-702380D01*
X67485714Y-750000D01*
X67533333Y-797619D01*
X68390476Y-1035714D02*
X68390476Y-1702380D01*
X68152380Y-654761D02*
X67914285Y-1369047D01*
X68533333Y-1369047D01*
X83883333Y-50407142D02*
X83835714Y-50454761D01*
X83692857Y-50502380D01*
X83597619Y-50502380D01*
X83454761Y-50454761D01*
X83359523Y-50359523D01*
X83311904Y-50264285D01*
X83264285Y-50073809D01*
X83264285Y-49930952D01*
X83311904Y-49740476D01*
X83359523Y-49645238D01*
X83454761Y-49550000D01*
X83597619Y-49502380D01*
X83692857Y-49502380D01*
X83835714Y-49550000D01*
X83883333Y-49597619D01*
X84788095Y-49502380D02*
X84311904Y-49502380D01*
X84264285Y-49978571D01*
X84311904Y-49930952D01*
X84407142Y-49883333D01*
X84645238Y-49883333D01*
X84740476Y-49930952D01*
X84788095Y-49978571D01*
X84835714Y-50073809D01*
X84835714Y-50311904D01*
X84788095Y-50407142D01*
X84740476Y-50454761D01*
X84645238Y-50502380D01*
X84407142Y-50502380D01*
X84311904Y-50454761D01*
X84264285Y-50407142D01*
X65833333Y-22357142D02*
X65785714Y-22404761D01*
X65642857Y-22452380D01*
X65547619Y-22452380D01*
X65404761Y-22404761D01*
X65309523Y-22309523D01*
X65261904Y-22214285D01*
X65214285Y-22023809D01*
X65214285Y-21880952D01*
X65261904Y-21690476D01*
X65309523Y-21595238D01*
X65404761Y-21500000D01*
X65547619Y-21452380D01*
X65642857Y-21452380D01*
X65785714Y-21500000D01*
X65833333Y-21547619D01*
X66690476Y-21452380D02*
X66500000Y-21452380D01*
X66404761Y-21500000D01*
X66357142Y-21547619D01*
X66261904Y-21690476D01*
X66214285Y-21880952D01*
X66214285Y-22261904D01*
X66261904Y-22357142D01*
X66309523Y-22404761D01*
X66404761Y-22452380D01*
X66595238Y-22452380D01*
X66690476Y-22404761D01*
X66738095Y-22357142D01*
X66785714Y-22261904D01*
X66785714Y-22023809D01*
X66738095Y-21928571D01*
X66690476Y-21880952D01*
X66595238Y-21833333D01*
X66404761Y-21833333D01*
X66309523Y-21880952D01*
X66261904Y-21928571D01*
X66214285Y-22023809D01*
X65833333Y-28357142D02*
X65785714Y-28404761D01*
X65642857Y-28452380D01*
X65547619Y-28452380D01*
X65404761Y-28404761D01*
X65309523Y-28309523D01*
X65261904Y-28214285D01*
X65214285Y-28023809D01*
X65214285Y-27880952D01*
X65261904Y-27690476D01*
X65309523Y-27595238D01*
X65404761Y-27500000D01*
X65547619Y-27452380D01*
X65642857Y-27452380D01*
X65785714Y-27500000D01*
X65833333Y-27547619D01*
X66166666Y-27452380D02*
X66833333Y-27452380D01*
X66404761Y-28452380D01*
X64657142Y-87866666D02*
X64704761Y-87914285D01*
X64752380Y-88057142D01*
X64752380Y-88152380D01*
X64704761Y-88295238D01*
X64609523Y-88390476D01*
X64514285Y-88438095D01*
X64323809Y-88485714D01*
X64180952Y-88485714D01*
X63990476Y-88438095D01*
X63895238Y-88390476D01*
X63800000Y-88295238D01*
X63752380Y-88152380D01*
X63752380Y-88057142D01*
X63800000Y-87914285D01*
X63847619Y-87866666D01*
X64180952Y-87295238D02*
X64133333Y-87390476D01*
X64085714Y-87438095D01*
X63990476Y-87485714D01*
X63942857Y-87485714D01*
X63847619Y-87438095D01*
X63800000Y-87390476D01*
X63752380Y-87295238D01*
X63752380Y-87104761D01*
X63800000Y-87009523D01*
X63847619Y-86961904D01*
X63942857Y-86914285D01*
X63990476Y-86914285D01*
X64085714Y-86961904D01*
X64133333Y-87009523D01*
X64180952Y-87104761D01*
X64180952Y-87295238D01*
X64228571Y-87390476D01*
X64276190Y-87438095D01*
X64371428Y-87485714D01*
X64561904Y-87485714D01*
X64657142Y-87438095D01*
X64704761Y-87390476D01*
X64752380Y-87295238D01*
X64752380Y-87104761D01*
X64704761Y-87009523D01*
X64657142Y-86961904D01*
X64561904Y-86914285D01*
X64371428Y-86914285D01*
X64276190Y-86961904D01*
X64228571Y-87009523D01*
X64180952Y-87104761D01*
X68657142Y-87866666D02*
X68704761Y-87914285D01*
X68752380Y-88057142D01*
X68752380Y-88152380D01*
X68704761Y-88295238D01*
X68609523Y-88390476D01*
X68514285Y-88438095D01*
X68323809Y-88485714D01*
X68180952Y-88485714D01*
X67990476Y-88438095D01*
X67895238Y-88390476D01*
X67800000Y-88295238D01*
X67752380Y-88152380D01*
X67752380Y-88057142D01*
X67800000Y-87914285D01*
X67847619Y-87866666D01*
X68752380Y-87390476D02*
X68752380Y-87200000D01*
X68704761Y-87104761D01*
X68657142Y-87057142D01*
X68514285Y-86961904D01*
X68323809Y-86914285D01*
X67942857Y-86914285D01*
X67847619Y-86961904D01*
X67800000Y-87009523D01*
X67752380Y-87104761D01*
X67752380Y-87295238D01*
X67800000Y-87390476D01*
X67847619Y-87438095D01*
X67942857Y-87485714D01*
X68180952Y-87485714D01*
X68276190Y-87438095D01*
X68323809Y-87390476D01*
X68371428Y-87295238D01*
X68371428Y-87104761D01*
X68323809Y-87009523D01*
X68276190Y-86961904D01*
X68180952Y-86914285D01*
X72657142Y-88342857D02*
X72704761Y-88390476D01*
X72752380Y-88533333D01*
X72752380Y-88628571D01*
X72704761Y-88771428D01*
X72609523Y-88866666D01*
X72514285Y-88914285D01*
X72323809Y-88961904D01*
X72180952Y-88961904D01*
X71990476Y-88914285D01*
X71895238Y-88866666D01*
X71800000Y-88771428D01*
X71752380Y-88628571D01*
X71752380Y-88533333D01*
X71800000Y-88390476D01*
X71847619Y-88342857D01*
X72752380Y-87390476D02*
X72752380Y-87961904D01*
X72752380Y-87676190D02*
X71752380Y-87676190D01*
X71895238Y-87771428D01*
X71990476Y-87866666D01*
X72038095Y-87961904D01*
X71752380Y-86771428D02*
X71752380Y-86676190D01*
X71800000Y-86580952D01*
X71847619Y-86533333D01*
X71942857Y-86485714D01*
X72133333Y-86438095D01*
X72371428Y-86438095D01*
X72561904Y-86485714D01*
X72657142Y-86533333D01*
X72704761Y-86580952D01*
X72752380Y-86676190D01*
X72752380Y-86771428D01*
X72704761Y-86866666D01*
X72657142Y-86914285D01*
X72561904Y-86961904D01*
X72371428Y-87009523D01*
X72133333Y-87009523D01*
X71942857Y-86961904D01*
X71847619Y-86914285D01*
X71800000Y-86866666D01*
X71752380Y-86771428D01*
X76657142Y-88342857D02*
X76704761Y-88390476D01*
X76752380Y-88533333D01*
X76752380Y-88628571D01*
X76704761Y-88771428D01*
X76609523Y-88866666D01*
X76514285Y-88914285D01*
X76323809Y-88961904D01*
X76180952Y-88961904D01*
X75990476Y-88914285D01*
X75895238Y-88866666D01*
X75800000Y-88771428D01*
X75752380Y-88628571D01*
X75752380Y-88533333D01*
X75800000Y-88390476D01*
X75847619Y-88342857D01*
X76752380Y-87390476D02*
X76752380Y-87961904D01*
X76752380Y-87676190D02*
X75752380Y-87676190D01*
X75895238Y-87771428D01*
X75990476Y-87866666D01*
X76038095Y-87961904D01*
X76752380Y-86438095D02*
X76752380Y-87009523D01*
X76752380Y-86723809D02*
X75752380Y-86723809D01*
X75895238Y-86819047D01*
X75990476Y-86914285D01*
X76038095Y-87009523D01*
X80657142Y-88342857D02*
X80704761Y-88390476D01*
X80752380Y-88533333D01*
X80752380Y-88628571D01*
X80704761Y-88771428D01*
X80609523Y-88866666D01*
X80514285Y-88914285D01*
X80323809Y-88961904D01*
X80180952Y-88961904D01*
X79990476Y-88914285D01*
X79895238Y-88866666D01*
X79800000Y-88771428D01*
X79752380Y-88628571D01*
X79752380Y-88533333D01*
X79800000Y-88390476D01*
X79847619Y-88342857D01*
X80752380Y-87390476D02*
X80752380Y-87961904D01*
X80752380Y-87676190D02*
X79752380Y-87676190D01*
X79895238Y-87771428D01*
X79990476Y-87866666D01*
X80038095Y-87961904D01*
X79847619Y-87009523D02*
X79800000Y-86961904D01*
X79752380Y-86866666D01*
X79752380Y-86628571D01*
X79800000Y-86533333D01*
X79847619Y-86485714D01*
X79942857Y-86438095D01*
X80038095Y-86438095D01*
X80180952Y-86485714D01*
X80752380Y-87057142D01*
X80752380Y-86438095D01*
X9116666Y-7228571D02*
X8783333Y-7228571D01*
X8783333Y-7752380D02*
X8783333Y-6752380D01*
X9259523Y-6752380D01*
X9592857Y-6847619D02*
X9640476Y-6800000D01*
X9735714Y-6752380D01*
X9973809Y-6752380D01*
X10069047Y-6800000D01*
X10116666Y-6847619D01*
X10164285Y-6942857D01*
X10164285Y-7038095D01*
X10116666Y-7180952D01*
X9545238Y-7752380D01*
X10164285Y-7752380D01*
X9116666Y-14928571D02*
X8783333Y-14928571D01*
X8783333Y-15452380D02*
X8783333Y-14452380D01*
X9259523Y-14452380D01*
X9545238Y-14452380D02*
X10164285Y-14452380D01*
X9830952Y-14833333D01*
X9973809Y-14833333D01*
X10069047Y-14880952D01*
X10116666Y-14928571D01*
X10164285Y-15023809D01*
X10164285Y-15261904D01*
X10116666Y-15357142D01*
X10069047Y-15404761D01*
X9973809Y-15452380D01*
X9688095Y-15452380D01*
X9592857Y-15404761D01*
X9545238Y-15357142D01*
X9116666Y-22678571D02*
X8783333Y-22678571D01*
X8783333Y-23202380D02*
X8783333Y-22202380D01*
X9259523Y-22202380D01*
X10069047Y-22535714D02*
X10069047Y-23202380D01*
X9830952Y-22154761D02*
X9592857Y-22869047D01*
X10211904Y-22869047D01*
X9116666Y-30378571D02*
X8783333Y-30378571D01*
X8783333Y-30902380D02*
X8783333Y-29902380D01*
X9259523Y-29902380D01*
X10116666Y-29902380D02*
X9640476Y-29902380D01*
X9592857Y-30378571D01*
X9640476Y-30330952D01*
X9735714Y-30283333D01*
X9973809Y-30283333D01*
X10069047Y-30330952D01*
X10116666Y-30378571D01*
X10164285Y-30473809D01*
X10164285Y-30711904D01*
X10116666Y-30807142D01*
X10069047Y-30854761D01*
X9973809Y-30902380D01*
X9735714Y-30902380D01*
X9640476Y-30854761D01*
X9592857Y-30807142D01*
X9116666Y-38078571D02*
X8783333Y-38078571D01*
X8783333Y-38602380D02*
X8783333Y-37602380D01*
X9259523Y-37602380D01*
X10069047Y-37602380D02*
X9878571Y-37602380D01*
X9783333Y-37650000D01*
X9735714Y-37697619D01*
X9640476Y-37840476D01*
X9592857Y-38030952D01*
X9592857Y-38411904D01*
X9640476Y-38507142D01*
X9688095Y-38554761D01*
X9783333Y-38602380D01*
X9973809Y-38602380D01*
X10069047Y-38554761D01*
X10116666Y-38507142D01*
X10164285Y-38411904D01*
X10164285Y-38173809D01*
X10116666Y-38078571D01*
X10069047Y-38030952D01*
X9973809Y-37983333D01*
X9783333Y-37983333D01*
X9688095Y-38030952D01*
X9640476Y-38078571D01*
X9592857Y-38173809D01*
X9116666Y-45778571D02*
X8783333Y-45778571D01*
X8783333Y-46302380D02*
X8783333Y-45302380D01*
X9259523Y-45302380D01*
X9545238Y-45302380D02*
X10211904Y-45302380D01*
X9783333Y-46302380D01*
X9116666Y-53578571D02*
X8783333Y-53578571D01*
X8783333Y-54102380D02*
X8783333Y-53102380D01*
X9259523Y-53102380D01*
X9783333Y-53530952D02*
X9688095Y-53483333D01*
X9640476Y-53435714D01*
X9592857Y-53340476D01*
X9592857Y-53292857D01*
X9640476Y-53197619D01*
X9688095Y-53150000D01*
X9783333Y-53102380D01*
X9973809Y-53102380D01*
X10069047Y-53150000D01*
X10116666Y-53197619D01*
X10164285Y-53292857D01*
X10164285Y-53340476D01*
X10116666Y-53435714D01*
X10069047Y-53483333D01*
X9973809Y-53530952D01*
X9783333Y-53530952D01*
X9688095Y-53578571D01*
X9640476Y-53626190D01*
X9592857Y-53721428D01*
X9592857Y-53911904D01*
X9640476Y-54007142D01*
X9688095Y-54054761D01*
X9783333Y-54102380D01*
X9973809Y-54102380D01*
X10069047Y-54054761D01*
X10116666Y-54007142D01*
X10164285Y-53911904D01*
X10164285Y-53721428D01*
X10116666Y-53626190D01*
X10069047Y-53578571D01*
X9973809Y-53530952D01*
X9166666Y-61428571D02*
X8833333Y-61428571D01*
X8833333Y-61952380D02*
X8833333Y-60952380D01*
X9309523Y-60952380D01*
X9738095Y-61952380D02*
X9928571Y-61952380D01*
X10023809Y-61904761D01*
X10071428Y-61857142D01*
X10166666Y-61714285D01*
X10214285Y-61523809D01*
X10214285Y-61142857D01*
X10166666Y-61047619D01*
X10119047Y-61000000D01*
X10023809Y-60952380D01*
X9833333Y-60952380D01*
X9738095Y-61000000D01*
X9690476Y-61047619D01*
X9642857Y-61142857D01*
X9642857Y-61380952D01*
X9690476Y-61476190D01*
X9738095Y-61523809D01*
X9833333Y-61571428D01*
X10023809Y-61571428D01*
X10119047Y-61523809D01*
X10166666Y-61476190D01*
X10214285Y-61380952D01*
X8190476Y-68928571D02*
X7857142Y-68928571D01*
X7857142Y-69452380D02*
X7857142Y-68452380D01*
X8333333Y-68452380D01*
X9238095Y-69452380D02*
X8666666Y-69452380D01*
X8952380Y-69452380D02*
X8952380Y-68452380D01*
X8857142Y-68595238D01*
X8761904Y-68690476D01*
X8666666Y-68738095D01*
X9857142Y-68452380D02*
X9952380Y-68452380D01*
X10047619Y-68500000D01*
X10095238Y-68547619D01*
X10142857Y-68642857D01*
X10190476Y-68833333D01*
X10190476Y-69071428D01*
X10142857Y-69261904D01*
X10095238Y-69357142D01*
X10047619Y-69404761D01*
X9952380Y-69452380D01*
X9857142Y-69452380D01*
X9761904Y-69404761D01*
X9714285Y-69357142D01*
X9666666Y-69261904D01*
X9619047Y-69071428D01*
X9619047Y-68833333D01*
X9666666Y-68642857D01*
X9714285Y-68547619D01*
X9761904Y-68500000D01*
X9857142Y-68452380D01*
X8190476Y-76928571D02*
X7857142Y-76928571D01*
X7857142Y-77452380D02*
X7857142Y-76452380D01*
X8333333Y-76452380D01*
X9238095Y-77452380D02*
X8666666Y-77452380D01*
X8952380Y-77452380D02*
X8952380Y-76452380D01*
X8857142Y-76595238D01*
X8761904Y-76690476D01*
X8666666Y-76738095D01*
X10190476Y-77452380D02*
X9619047Y-77452380D01*
X9904761Y-77452380D02*
X9904761Y-76452380D01*
X9809523Y-76595238D01*
X9714285Y-76690476D01*
X9619047Y-76738095D01*
X8190476Y-84428571D02*
X7857142Y-84428571D01*
X7857142Y-84952380D02*
X7857142Y-83952380D01*
X8333333Y-83952380D01*
X9238095Y-84952380D02*
X8666666Y-84952380D01*
X8952380Y-84952380D02*
X8952380Y-83952380D01*
X8857142Y-84095238D01*
X8761904Y-84190476D01*
X8666666Y-84238095D01*
X9619047Y-84047619D02*
X9666666Y-84000000D01*
X9761904Y-83952380D01*
X10000000Y-83952380D01*
X10095238Y-84000000D01*
X10142857Y-84047619D01*
X10190476Y-84142857D01*
X10190476Y-84238095D01*
X10142857Y-84380952D01*
X9571428Y-84952380D01*
X10190476Y-84952380D01*
X6857142Y-52047619D02*
X6904761Y-52095238D01*
X6952380Y-52238095D01*
X6952380Y-52333333D01*
X6904761Y-52476190D01*
X6809523Y-52571428D01*
X6714285Y-52619047D01*
X6523809Y-52666666D01*
X6380952Y-52666666D01*
X6190476Y-52619047D01*
X6095238Y-52571428D01*
X6000000Y-52476190D01*
X5952380Y-52333333D01*
X5952380Y-52238095D01*
X6000000Y-52095238D01*
X6047619Y-52047619D01*
X6904761Y-51238095D02*
X6952380Y-51333333D01*
X6952380Y-51523809D01*
X6904761Y-51619047D01*
X6809523Y-51666666D01*
X6428571Y-51666666D01*
X6333333Y-51619047D01*
X6285714Y-51523809D01*
X6285714Y-51333333D01*
X6333333Y-51238095D01*
X6428571Y-51190476D01*
X6523809Y-51190476D01*
X6619047Y-51666666D01*
X6952380Y-50619047D02*
X6904761Y-50714285D01*
X6809523Y-50761904D01*
X5952380Y-50761904D01*
X6952380Y-50095238D02*
X6904761Y-50190476D01*
X6809523Y-50238095D01*
X5952380Y-50238095D01*
X6904761Y-49761904D02*
X6952380Y-49666666D01*
X6952380Y-49476190D01*
X6904761Y-49380952D01*
X6809523Y-49333333D01*
X6761904Y-49333333D01*
X6666666Y-49380952D01*
X6619047Y-49476190D01*
X6619047Y-49619047D01*
X6571428Y-49714285D01*
X6476190Y-49761904D01*
X6428571Y-49761904D01*
X6333333Y-49714285D01*
X6285714Y-49619047D01*
X6285714Y-49476190D01*
X6333333Y-49380952D01*
X98904761Y-22809523D02*
X98952380Y-22666666D01*
X98952380Y-22428571D01*
X98904761Y-22333333D01*
X98857142Y-22285714D01*
X98761904Y-22238095D01*
X98666666Y-22238095D01*
X98571428Y-22285714D01*
X98523809Y-22333333D01*
X98476190Y-22428571D01*
X98428571Y-22619047D01*
X98380952Y-22714285D01*
X98333333Y-22761904D01*
X98238095Y-22809523D01*
X98142857Y-22809523D01*
X98047619Y-22761904D01*
X98000000Y-22714285D01*
X97952380Y-22619047D01*
X97952380Y-22380952D01*
X98000000Y-22238095D01*
X98952380Y-21666666D02*
X98904761Y-21761904D01*
X98809523Y-21809523D01*
X97952380Y-21809523D01*
X98952380Y-20857142D02*
X98428571Y-20857142D01*
X98333333Y-20904761D01*
X98285714Y-21000000D01*
X98285714Y-21190476D01*
X98333333Y-21285714D01*
X98904761Y-20857142D02*
X98952380Y-20952380D01*
X98952380Y-21190476D01*
X98904761Y-21285714D01*
X98809523Y-21333333D01*
X98714285Y-21333333D01*
X98619047Y-21285714D01*
X98571428Y-21190476D01*
X98571428Y-20952380D01*
X98523809Y-20857142D01*
X98285714Y-20476190D02*
X98952380Y-20238095D01*
X98285714Y-20000000D01*
X98904761Y-19238095D02*
X98952380Y-19333333D01*
X98952380Y-19523809D01*
X98904761Y-19619047D01*
X98809523Y-19666666D01*
X98428571Y-19666666D01*
X98333333Y-19619047D01*
X98285714Y-19523809D01*
X98285714Y-19333333D01*
X98333333Y-19238095D01*
X98428571Y-19190476D01*
X98523809Y-19190476D01*
X98619047Y-19666666D01*
X98952380Y-30484285D02*
X97952380Y-30484285D01*
X98666666Y-30150952D01*
X97952380Y-29817619D01*
X98952380Y-29817619D01*
X98952380Y-28912857D02*
X98428571Y-28912857D01*
X98333333Y-28960476D01*
X98285714Y-29055714D01*
X98285714Y-29246190D01*
X98333333Y-29341428D01*
X98904761Y-28912857D02*
X98952380Y-29008095D01*
X98952380Y-29246190D01*
X98904761Y-29341428D01*
X98809523Y-29389047D01*
X98714285Y-29389047D01*
X98619047Y-29341428D01*
X98571428Y-29246190D01*
X98571428Y-29008095D01*
X98523809Y-28912857D01*
X98904761Y-28484285D02*
X98952380Y-28389047D01*
X98952380Y-28198571D01*
X98904761Y-28103333D01*
X98809523Y-28055714D01*
X98761904Y-28055714D01*
X98666666Y-28103333D01*
X98619047Y-28198571D01*
X98619047Y-28341428D01*
X98571428Y-28436666D01*
X98476190Y-28484285D01*
X98428571Y-28484285D01*
X98333333Y-28436666D01*
X98285714Y-28341428D01*
X98285714Y-28198571D01*
X98333333Y-28103333D01*
X98285714Y-27770000D02*
X98285714Y-27389047D01*
X97952380Y-27627142D02*
X98809523Y-27627142D01*
X98904761Y-27579523D01*
X98952380Y-27484285D01*
X98952380Y-27389047D01*
X98904761Y-26674761D02*
X98952380Y-26770000D01*
X98952380Y-26960476D01*
X98904761Y-27055714D01*
X98809523Y-27103333D01*
X98428571Y-27103333D01*
X98333333Y-27055714D01*
X98285714Y-26960476D01*
X98285714Y-26770000D01*
X98333333Y-26674761D01*
X98428571Y-26627142D01*
X98523809Y-26627142D01*
X98619047Y-27103333D01*
X98952380Y-26198571D02*
X98285714Y-26198571D01*
X98476190Y-26198571D02*
X98380952Y-26150952D01*
X98333333Y-26103333D01*
X98285714Y-26008095D01*
X98285714Y-25912857D01*
X81166666Y-52452380D02*
X81166666Y-53166666D01*
X81119047Y-53309523D01*
X81023809Y-53404761D01*
X80880952Y-53452380D01*
X80785714Y-53452380D01*
X81642857Y-53452380D02*
X81642857Y-52452380D01*
X82023809Y-52452380D01*
X82119047Y-52500000D01*
X82166666Y-52547619D01*
X82214285Y-52642857D01*
X82214285Y-52785714D01*
X82166666Y-52880952D01*
X82119047Y-52928571D01*
X82023809Y-52976190D01*
X81642857Y-52976190D01*
X83166666Y-53452380D02*
X82595238Y-53452380D01*
X82880952Y-53452380D02*
X82880952Y-52452380D01*
X82785714Y-52595238D01*
X82690476Y-52690476D01*
X82595238Y-52738095D01*
X80826666Y-40452380D02*
X80826666Y-41166666D01*
X80779047Y-41309523D01*
X80683809Y-41404761D01*
X80540952Y-41452380D01*
X80445714Y-41452380D01*
X81302857Y-41452380D02*
X81302857Y-40452380D01*
X81683809Y-40452380D01*
X81779047Y-40500000D01*
X81826666Y-40547619D01*
X81874285Y-40642857D01*
X81874285Y-40785714D01*
X81826666Y-40880952D01*
X81779047Y-40928571D01*
X81683809Y-40976190D01*
X81302857Y-40976190D01*
X82255238Y-40547619D02*
X82302857Y-40500000D01*
X82398095Y-40452380D01*
X82636190Y-40452380D01*
X82731428Y-40500000D01*
X82779047Y-40547619D01*
X82826666Y-40642857D01*
X82826666Y-40738095D01*
X82779047Y-40880952D01*
X82207619Y-41452380D01*
X82826666Y-41452380D01*
X91104761Y-42147619D02*
X91009523Y-42100000D01*
X90914285Y-42004761D01*
X90771428Y-41861904D01*
X90676190Y-41814285D01*
X90580952Y-41814285D01*
X90628571Y-42052380D02*
X90533333Y-42004761D01*
X90438095Y-41909523D01*
X90390476Y-41719047D01*
X90390476Y-41385714D01*
X90438095Y-41195238D01*
X90533333Y-41100000D01*
X90628571Y-41052380D01*
X90819047Y-41052380D01*
X90914285Y-41100000D01*
X91009523Y-41195238D01*
X91057142Y-41385714D01*
X91057142Y-41719047D01*
X91009523Y-41909523D01*
X90914285Y-42004761D01*
X90819047Y-42052380D01*
X90628571Y-42052380D01*
X92009523Y-42052380D02*
X91438095Y-42052380D01*
X91723809Y-42052380D02*
X91723809Y-41052380D01*
X91628571Y-41195238D01*
X91533333Y-41290476D01*
X91438095Y-41338095D01*
X27854761Y-4847619D02*
X27759523Y-4800000D01*
X27664285Y-4704761D01*
X27521428Y-4561904D01*
X27426190Y-4514285D01*
X27330952Y-4514285D01*
X27378571Y-4752380D02*
X27283333Y-4704761D01*
X27188095Y-4609523D01*
X27140476Y-4419047D01*
X27140476Y-4085714D01*
X27188095Y-3895238D01*
X27283333Y-3800000D01*
X27378571Y-3752380D01*
X27569047Y-3752380D01*
X27664285Y-3800000D01*
X27759523Y-3895238D01*
X27807142Y-4085714D01*
X27807142Y-4419047D01*
X27759523Y-4609523D01*
X27664285Y-4704761D01*
X27569047Y-4752380D01*
X27378571Y-4752380D01*
X28188095Y-3847619D02*
X28235714Y-3800000D01*
X28330952Y-3752380D01*
X28569047Y-3752380D01*
X28664285Y-3800000D01*
X28711904Y-3847619D01*
X28759523Y-3942857D01*
X28759523Y-4038095D01*
X28711904Y-4180952D01*
X28140476Y-4752380D01*
X28759523Y-4752380D01*
X27854761Y-12547619D02*
X27759523Y-12500000D01*
X27664285Y-12404761D01*
X27521428Y-12261904D01*
X27426190Y-12214285D01*
X27330952Y-12214285D01*
X27378571Y-12452380D02*
X27283333Y-12404761D01*
X27188095Y-12309523D01*
X27140476Y-12119047D01*
X27140476Y-11785714D01*
X27188095Y-11595238D01*
X27283333Y-11500000D01*
X27378571Y-11452380D01*
X27569047Y-11452380D01*
X27664285Y-11500000D01*
X27759523Y-11595238D01*
X27807142Y-11785714D01*
X27807142Y-12119047D01*
X27759523Y-12309523D01*
X27664285Y-12404761D01*
X27569047Y-12452380D01*
X27378571Y-12452380D01*
X28140476Y-11452380D02*
X28759523Y-11452380D01*
X28426190Y-11833333D01*
X28569047Y-11833333D01*
X28664285Y-11880952D01*
X28711904Y-11928571D01*
X28759523Y-12023809D01*
X28759523Y-12261904D01*
X28711904Y-12357142D01*
X28664285Y-12404761D01*
X28569047Y-12452380D01*
X28283333Y-12452380D01*
X28188095Y-12404761D01*
X28140476Y-12357142D01*
X27854761Y-20297619D02*
X27759523Y-20250000D01*
X27664285Y-20154761D01*
X27521428Y-20011904D01*
X27426190Y-19964285D01*
X27330952Y-19964285D01*
X27378571Y-20202380D02*
X27283333Y-20154761D01*
X27188095Y-20059523D01*
X27140476Y-19869047D01*
X27140476Y-19535714D01*
X27188095Y-19345238D01*
X27283333Y-19250000D01*
X27378571Y-19202380D01*
X27569047Y-19202380D01*
X27664285Y-19250000D01*
X27759523Y-19345238D01*
X27807142Y-19535714D01*
X27807142Y-19869047D01*
X27759523Y-20059523D01*
X27664285Y-20154761D01*
X27569047Y-20202380D01*
X27378571Y-20202380D01*
X28664285Y-19535714D02*
X28664285Y-20202380D01*
X28426190Y-19154761D02*
X28188095Y-19869047D01*
X28807142Y-19869047D01*
X27854761Y-27997619D02*
X27759523Y-27950000D01*
X27664285Y-27854761D01*
X27521428Y-27711904D01*
X27426190Y-27664285D01*
X27330952Y-27664285D01*
X27378571Y-27902380D02*
X27283333Y-27854761D01*
X27188095Y-27759523D01*
X27140476Y-27569047D01*
X27140476Y-27235714D01*
X27188095Y-27045238D01*
X27283333Y-26950000D01*
X27378571Y-26902380D01*
X27569047Y-26902380D01*
X27664285Y-26950000D01*
X27759523Y-27045238D01*
X27807142Y-27235714D01*
X27807142Y-27569047D01*
X27759523Y-27759523D01*
X27664285Y-27854761D01*
X27569047Y-27902380D01*
X27378571Y-27902380D01*
X28711904Y-26902380D02*
X28235714Y-26902380D01*
X28188095Y-27378571D01*
X28235714Y-27330952D01*
X28330952Y-27283333D01*
X28569047Y-27283333D01*
X28664285Y-27330952D01*
X28711904Y-27378571D01*
X28759523Y-27473809D01*
X28759523Y-27711904D01*
X28711904Y-27807142D01*
X28664285Y-27854761D01*
X28569047Y-27902380D01*
X28330952Y-27902380D01*
X28235714Y-27854761D01*
X28188095Y-27807142D01*
X27854761Y-35697619D02*
X27759523Y-35650000D01*
X27664285Y-35554761D01*
X27521428Y-35411904D01*
X27426190Y-35364285D01*
X27330952Y-35364285D01*
X27378571Y-35602380D02*
X27283333Y-35554761D01*
X27188095Y-35459523D01*
X27140476Y-35269047D01*
X27140476Y-34935714D01*
X27188095Y-34745238D01*
X27283333Y-34650000D01*
X27378571Y-34602380D01*
X27569047Y-34602380D01*
X27664285Y-34650000D01*
X27759523Y-34745238D01*
X27807142Y-34935714D01*
X27807142Y-35269047D01*
X27759523Y-35459523D01*
X27664285Y-35554761D01*
X27569047Y-35602380D01*
X27378571Y-35602380D01*
X28664285Y-34602380D02*
X28473809Y-34602380D01*
X28378571Y-34650000D01*
X28330952Y-34697619D01*
X28235714Y-34840476D01*
X28188095Y-35030952D01*
X28188095Y-35411904D01*
X28235714Y-35507142D01*
X28283333Y-35554761D01*
X28378571Y-35602380D01*
X28569047Y-35602380D01*
X28664285Y-35554761D01*
X28711904Y-35507142D01*
X28759523Y-35411904D01*
X28759523Y-35173809D01*
X28711904Y-35078571D01*
X28664285Y-35030952D01*
X28569047Y-34983333D01*
X28378571Y-34983333D01*
X28283333Y-35030952D01*
X28235714Y-35078571D01*
X28188095Y-35173809D01*
X27854761Y-43397619D02*
X27759523Y-43350000D01*
X27664285Y-43254761D01*
X27521428Y-43111904D01*
X27426190Y-43064285D01*
X27330952Y-43064285D01*
X27378571Y-43302380D02*
X27283333Y-43254761D01*
X27188095Y-43159523D01*
X27140476Y-42969047D01*
X27140476Y-42635714D01*
X27188095Y-42445238D01*
X27283333Y-42350000D01*
X27378571Y-42302380D01*
X27569047Y-42302380D01*
X27664285Y-42350000D01*
X27759523Y-42445238D01*
X27807142Y-42635714D01*
X27807142Y-42969047D01*
X27759523Y-43159523D01*
X27664285Y-43254761D01*
X27569047Y-43302380D01*
X27378571Y-43302380D01*
X28140476Y-42302380D02*
X28807142Y-42302380D01*
X28378571Y-43302380D01*
X27854761Y-51197619D02*
X27759523Y-51150000D01*
X27664285Y-51054761D01*
X27521428Y-50911904D01*
X27426190Y-50864285D01*
X27330952Y-50864285D01*
X27378571Y-51102380D02*
X27283333Y-51054761D01*
X27188095Y-50959523D01*
X27140476Y-50769047D01*
X27140476Y-50435714D01*
X27188095Y-50245238D01*
X27283333Y-50150000D01*
X27378571Y-50102380D01*
X27569047Y-50102380D01*
X27664285Y-50150000D01*
X27759523Y-50245238D01*
X27807142Y-50435714D01*
X27807142Y-50769047D01*
X27759523Y-50959523D01*
X27664285Y-51054761D01*
X27569047Y-51102380D01*
X27378571Y-51102380D01*
X28378571Y-50530952D02*
X28283333Y-50483333D01*
X28235714Y-50435714D01*
X28188095Y-50340476D01*
X28188095Y-50292857D01*
X28235714Y-50197619D01*
X28283333Y-50150000D01*
X28378571Y-50102380D01*
X28569047Y-50102380D01*
X28664285Y-50150000D01*
X28711904Y-50197619D01*
X28759523Y-50292857D01*
X28759523Y-50340476D01*
X28711904Y-50435714D01*
X28664285Y-50483333D01*
X28569047Y-50530952D01*
X28378571Y-50530952D01*
X28283333Y-50578571D01*
X28235714Y-50626190D01*
X28188095Y-50721428D01*
X28188095Y-50911904D01*
X28235714Y-51007142D01*
X28283333Y-51054761D01*
X28378571Y-51102380D01*
X28569047Y-51102380D01*
X28664285Y-51054761D01*
X28711904Y-51007142D01*
X28759523Y-50911904D01*
X28759523Y-50721428D01*
X28711904Y-50626190D01*
X28664285Y-50578571D01*
X28569047Y-50530952D01*
X27904761Y-58897619D02*
X27809523Y-58850000D01*
X27714285Y-58754761D01*
X27571428Y-58611904D01*
X27476190Y-58564285D01*
X27380952Y-58564285D01*
X27428571Y-58802380D02*
X27333333Y-58754761D01*
X27238095Y-58659523D01*
X27190476Y-58469047D01*
X27190476Y-58135714D01*
X27238095Y-57945238D01*
X27333333Y-57850000D01*
X27428571Y-57802380D01*
X27619047Y-57802380D01*
X27714285Y-57850000D01*
X27809523Y-57945238D01*
X27857142Y-58135714D01*
X27857142Y-58469047D01*
X27809523Y-58659523D01*
X27714285Y-58754761D01*
X27619047Y-58802380D01*
X27428571Y-58802380D01*
X28333333Y-58802380D02*
X28523809Y-58802380D01*
X28619047Y-58754761D01*
X28666666Y-58707142D01*
X28761904Y-58564285D01*
X28809523Y-58373809D01*
X28809523Y-57992857D01*
X28761904Y-57897619D01*
X28714285Y-57850000D01*
X28619047Y-57802380D01*
X28428571Y-57802380D01*
X28333333Y-57850000D01*
X28285714Y-57897619D01*
X28238095Y-57992857D01*
X28238095Y-58230952D01*
X28285714Y-58326190D01*
X28333333Y-58373809D01*
X28428571Y-58421428D01*
X28619047Y-58421428D01*
X28714285Y-58373809D01*
X28761904Y-58326190D01*
X28809523Y-58230952D01*
X27378571Y-66597619D02*
X27283333Y-66550000D01*
X27188095Y-66454761D01*
X27045238Y-66311904D01*
X26950000Y-66264285D01*
X26854761Y-66264285D01*
X26902380Y-66502380D02*
X26807142Y-66454761D01*
X26711904Y-66359523D01*
X26664285Y-66169047D01*
X26664285Y-65835714D01*
X26711904Y-65645238D01*
X26807142Y-65550000D01*
X26902380Y-65502380D01*
X27092857Y-65502380D01*
X27188095Y-65550000D01*
X27283333Y-65645238D01*
X27330952Y-65835714D01*
X27330952Y-66169047D01*
X27283333Y-66359523D01*
X27188095Y-66454761D01*
X27092857Y-66502380D01*
X26902380Y-66502380D01*
X28283333Y-66502380D02*
X27711904Y-66502380D01*
X27997619Y-66502380D02*
X27997619Y-65502380D01*
X27902380Y-65645238D01*
X27807142Y-65740476D01*
X27711904Y-65788095D01*
X28902380Y-65502380D02*
X28997619Y-65502380D01*
X29092857Y-65550000D01*
X29140476Y-65597619D01*
X29188095Y-65692857D01*
X29235714Y-65883333D01*
X29235714Y-66121428D01*
X29188095Y-66311904D01*
X29140476Y-66407142D01*
X29092857Y-66454761D01*
X28997619Y-66502380D01*
X28902380Y-66502380D01*
X28807142Y-66454761D01*
X28759523Y-66407142D01*
X28711904Y-66311904D01*
X28664285Y-66121428D01*
X28664285Y-65883333D01*
X28711904Y-65692857D01*
X28759523Y-65597619D01*
X28807142Y-65550000D01*
X28902380Y-65502380D01*
X27378571Y-74297619D02*
X27283333Y-74250000D01*
X27188095Y-74154761D01*
X27045238Y-74011904D01*
X26950000Y-73964285D01*
X26854761Y-73964285D01*
X26902380Y-74202380D02*
X26807142Y-74154761D01*
X26711904Y-74059523D01*
X26664285Y-73869047D01*
X26664285Y-73535714D01*
X26711904Y-73345238D01*
X26807142Y-73250000D01*
X26902380Y-73202380D01*
X27092857Y-73202380D01*
X27188095Y-73250000D01*
X27283333Y-73345238D01*
X27330952Y-73535714D01*
X27330952Y-73869047D01*
X27283333Y-74059523D01*
X27188095Y-74154761D01*
X27092857Y-74202380D01*
X26902380Y-74202380D01*
X28283333Y-74202380D02*
X27711904Y-74202380D01*
X27997619Y-74202380D02*
X27997619Y-73202380D01*
X27902380Y-73345238D01*
X27807142Y-73440476D01*
X27711904Y-73488095D01*
X29235714Y-74202380D02*
X28664285Y-74202380D01*
X28950000Y-74202380D02*
X28950000Y-73202380D01*
X28854761Y-73345238D01*
X28759523Y-73440476D01*
X28664285Y-73488095D01*
X27378571Y-81997619D02*
X27283333Y-81950000D01*
X27188095Y-81854761D01*
X27045238Y-81711904D01*
X26950000Y-81664285D01*
X26854761Y-81664285D01*
X26902380Y-81902380D02*
X26807142Y-81854761D01*
X26711904Y-81759523D01*
X26664285Y-81569047D01*
X26664285Y-81235714D01*
X26711904Y-81045238D01*
X26807142Y-80950000D01*
X26902380Y-80902380D01*
X27092857Y-80902380D01*
X27188095Y-80950000D01*
X27283333Y-81045238D01*
X27330952Y-81235714D01*
X27330952Y-81569047D01*
X27283333Y-81759523D01*
X27188095Y-81854761D01*
X27092857Y-81902380D01*
X26902380Y-81902380D01*
X28283333Y-81902380D02*
X27711904Y-81902380D01*
X27997619Y-81902380D02*
X27997619Y-80902380D01*
X27902380Y-81045238D01*
X27807142Y-81140476D01*
X27711904Y-81188095D01*
X28664285Y-80997619D02*
X28711904Y-80950000D01*
X28807142Y-80902380D01*
X29045238Y-80902380D01*
X29140476Y-80950000D01*
X29188095Y-80997619D01*
X29235714Y-81092857D01*
X29235714Y-81188095D01*
X29188095Y-81330952D01*
X28616666Y-81902380D01*
X29235714Y-81902380D01*
X27378571Y-89997619D02*
X27283333Y-89950000D01*
X27188095Y-89854761D01*
X27045238Y-89711904D01*
X26950000Y-89664285D01*
X26854761Y-89664285D01*
X26902380Y-89902380D02*
X26807142Y-89854761D01*
X26711904Y-89759523D01*
X26664285Y-89569047D01*
X26664285Y-89235714D01*
X26711904Y-89045238D01*
X26807142Y-88950000D01*
X26902380Y-88902380D01*
X27092857Y-88902380D01*
X27188095Y-88950000D01*
X27283333Y-89045238D01*
X27330952Y-89235714D01*
X27330952Y-89569047D01*
X27283333Y-89759523D01*
X27188095Y-89854761D01*
X27092857Y-89902380D01*
X26902380Y-89902380D01*
X28283333Y-89902380D02*
X27711904Y-89902380D01*
X27997619Y-89902380D02*
X27997619Y-88902380D01*
X27902380Y-89045238D01*
X27807142Y-89140476D01*
X27711904Y-89188095D01*
X28616666Y-88902380D02*
X29235714Y-88902380D01*
X28902380Y-89283333D01*
X29045238Y-89283333D01*
X29140476Y-89330952D01*
X29188095Y-89378571D01*
X29235714Y-89473809D01*
X29235714Y-89711904D01*
X29188095Y-89807142D01*
X29140476Y-89854761D01*
X29045238Y-89902380D01*
X28759523Y-89902380D01*
X28664285Y-89854761D01*
X28616666Y-89807142D01*
X57833333Y-1502380D02*
X57500000Y-1026190D01*
X57261904Y-1502380D02*
X57261904Y-502380D01*
X57642857Y-502380D01*
X57738095Y-550000D01*
X57785714Y-597619D01*
X57833333Y-692857D01*
X57833333Y-835714D01*
X57785714Y-930952D01*
X57738095Y-978571D01*
X57642857Y-1026190D01*
X57261904Y-1026190D01*
X58785714Y-1502380D02*
X58214285Y-1502380D01*
X58500000Y-1502380D02*
X58500000Y-502380D01*
X58404761Y-645238D01*
X58309523Y-740476D01*
X58214285Y-788095D01*
X57833333Y-4502380D02*
X57500000Y-4026190D01*
X57261904Y-4502380D02*
X57261904Y-3502380D01*
X57642857Y-3502380D01*
X57738095Y-3550000D01*
X57785714Y-3597619D01*
X57833333Y-3692857D01*
X57833333Y-3835714D01*
X57785714Y-3930952D01*
X57738095Y-3978571D01*
X57642857Y-4026190D01*
X57261904Y-4026190D01*
X58214285Y-3597619D02*
X58261904Y-3550000D01*
X58357142Y-3502380D01*
X58595238Y-3502380D01*
X58690476Y-3550000D01*
X58738095Y-3597619D01*
X58785714Y-3692857D01*
X58785714Y-3788095D01*
X58738095Y-3930952D01*
X58166666Y-4502380D01*
X58785714Y-4502380D01*
X62833333Y-48452380D02*
X62500000Y-47976190D01*
X62261904Y-48452380D02*
X62261904Y-47452380D01*
X62642857Y-47452380D01*
X62738095Y-47500000D01*
X62785714Y-47547619D01*
X62833333Y-47642857D01*
X62833333Y-47785714D01*
X62785714Y-47880952D01*
X62738095Y-47928571D01*
X62642857Y-47976190D01*
X62261904Y-47976190D01*
X63166666Y-47452380D02*
X63785714Y-47452380D01*
X63452380Y-47833333D01*
X63595238Y-47833333D01*
X63690476Y-47880952D01*
X63738095Y-47928571D01*
X63785714Y-48023809D01*
X63785714Y-48261904D01*
X63738095Y-48357142D01*
X63690476Y-48404761D01*
X63595238Y-48452380D01*
X63309523Y-48452380D01*
X63214285Y-48404761D01*
X63166666Y-48357142D01*
X62833333Y-46452380D02*
X62500000Y-45976190D01*
X62261904Y-46452380D02*
X62261904Y-45452380D01*
X62642857Y-45452380D01*
X62738095Y-45500000D01*
X62785714Y-45547619D01*
X62833333Y-45642857D01*
X62833333Y-45785714D01*
X62785714Y-45880952D01*
X62738095Y-45928571D01*
X62642857Y-45976190D01*
X62261904Y-45976190D01*
X63690476Y-45785714D02*
X63690476Y-46452380D01*
X63452380Y-45404761D02*
X63214285Y-46119047D01*
X63833333Y-46119047D01*
X73452380Y-19166666D02*
X72976190Y-19500000D01*
X73452380Y-19738095D02*
X72452380Y-19738095D01*
X72452380Y-19357142D01*
X72500000Y-19261904D01*
X72547619Y-19214285D01*
X72642857Y-19166666D01*
X72785714Y-19166666D01*
X72880952Y-19214285D01*
X72928571Y-19261904D01*
X72976190Y-19357142D01*
X72976190Y-19738095D01*
X72452380Y-18261904D02*
X72452380Y-18738095D01*
X72928571Y-18785714D01*
X72880952Y-18738095D01*
X72833333Y-18642857D01*
X72833333Y-18404761D01*
X72880952Y-18309523D01*
X72928571Y-18261904D01*
X73023809Y-18214285D01*
X73261904Y-18214285D01*
X73357142Y-18261904D01*
X73404761Y-18309523D01*
X73452380Y-18404761D01*
X73452380Y-18642857D01*
X73404761Y-18738095D01*
X73357142Y-18785714D01*
X73452380Y-31166666D02*
X72976190Y-31500000D01*
X73452380Y-31738095D02*
X72452380Y-31738095D01*
X72452380Y-31357142D01*
X72500000Y-31261904D01*
X72547619Y-31214285D01*
X72642857Y-31166666D01*
X72785714Y-31166666D01*
X72880952Y-31214285D01*
X72928571Y-31261904D01*
X72976190Y-31357142D01*
X72976190Y-31738095D01*
X72452380Y-30309523D02*
X72452380Y-30500000D01*
X72500000Y-30595238D01*
X72547619Y-30642857D01*
X72690476Y-30738095D01*
X72880952Y-30785714D01*
X73261904Y-30785714D01*
X73357142Y-30738095D01*
X73404761Y-30690476D01*
X73452380Y-30595238D01*
X73452380Y-30404761D01*
X73404761Y-30309523D01*
X73357142Y-30261904D01*
X73261904Y-30214285D01*
X73023809Y-30214285D01*
X72928571Y-30261904D01*
X72880952Y-30309523D01*
X72833333Y-30404761D01*
X72833333Y-30595238D01*
X72880952Y-30690476D01*
X72928571Y-30738095D01*
X73023809Y-30785714D01*
X66752380Y-87866666D02*
X66276190Y-88200000D01*
X66752380Y-88438095D02*
X65752380Y-88438095D01*
X65752380Y-88057142D01*
X65800000Y-87961904D01*
X65847619Y-87914285D01*
X65942857Y-87866666D01*
X66085714Y-87866666D01*
X66180952Y-87914285D01*
X66228571Y-87961904D01*
X66276190Y-88057142D01*
X66276190Y-88438095D01*
X65752380Y-87533333D02*
X65752380Y-86866666D01*
X66752380Y-87295238D01*
X70752380Y-87866666D02*
X70276190Y-88200000D01*
X70752380Y-88438095D02*
X69752380Y-88438095D01*
X69752380Y-88057142D01*
X69800000Y-87961904D01*
X69847619Y-87914285D01*
X69942857Y-87866666D01*
X70085714Y-87866666D01*
X70180952Y-87914285D01*
X70228571Y-87961904D01*
X70276190Y-88057142D01*
X70276190Y-88438095D01*
X70180952Y-87295238D02*
X70133333Y-87390476D01*
X70085714Y-87438095D01*
X69990476Y-87485714D01*
X69942857Y-87485714D01*
X69847619Y-87438095D01*
X69800000Y-87390476D01*
X69752380Y-87295238D01*
X69752380Y-87104761D01*
X69800000Y-87009523D01*
X69847619Y-86961904D01*
X69942857Y-86914285D01*
X69990476Y-86914285D01*
X70085714Y-86961904D01*
X70133333Y-87009523D01*
X70180952Y-87104761D01*
X70180952Y-87295238D01*
X70228571Y-87390476D01*
X70276190Y-87438095D01*
X70371428Y-87485714D01*
X70561904Y-87485714D01*
X70657142Y-87438095D01*
X70704761Y-87390476D01*
X70752380Y-87295238D01*
X70752380Y-87104761D01*
X70704761Y-87009523D01*
X70657142Y-86961904D01*
X70561904Y-86914285D01*
X70371428Y-86914285D01*
X70276190Y-86961904D01*
X70228571Y-87009523D01*
X70180952Y-87104761D01*
X74752380Y-87866666D02*
X74276190Y-88200000D01*
X74752380Y-88438095D02*
X73752380Y-88438095D01*
X73752380Y-88057142D01*
X73800000Y-87961904D01*
X73847619Y-87914285D01*
X73942857Y-87866666D01*
X74085714Y-87866666D01*
X74180952Y-87914285D01*
X74228571Y-87961904D01*
X74276190Y-88057142D01*
X74276190Y-88438095D01*
X74752380Y-87390476D02*
X74752380Y-87200000D01*
X74704761Y-87104761D01*
X74657142Y-87057142D01*
X74514285Y-86961904D01*
X74323809Y-86914285D01*
X73942857Y-86914285D01*
X73847619Y-86961904D01*
X73800000Y-87009523D01*
X73752380Y-87104761D01*
X73752380Y-87295238D01*
X73800000Y-87390476D01*
X73847619Y-87438095D01*
X73942857Y-87485714D01*
X74180952Y-87485714D01*
X74276190Y-87438095D01*
X74323809Y-87390476D01*
X74371428Y-87295238D01*
X74371428Y-87104761D01*
X74323809Y-87009523D01*
X74276190Y-86961904D01*
X74180952Y-86914285D01*
X78752380Y-88342857D02*
X78276190Y-88676190D01*
X78752380Y-88914285D02*
X77752380Y-88914285D01*
X77752380Y-88533333D01*
X77800000Y-88438095D01*
X77847619Y-88390476D01*
X77942857Y-88342857D01*
X78085714Y-88342857D01*
X78180952Y-88390476D01*
X78228571Y-88438095D01*
X78276190Y-88533333D01*
X78276190Y-88914285D01*
X78752380Y-87390476D02*
X78752380Y-87961904D01*
X78752380Y-87676190D02*
X77752380Y-87676190D01*
X77895238Y-87771428D01*
X77990476Y-87866666D01*
X78038095Y-87961904D01*
X77752380Y-86771428D02*
X77752380Y-86676190D01*
X77800000Y-86580952D01*
X77847619Y-86533333D01*
X77942857Y-86485714D01*
X78133333Y-86438095D01*
X78371428Y-86438095D01*
X78561904Y-86485714D01*
X78657142Y-86533333D01*
X78704761Y-86580952D01*
X78752380Y-86676190D01*
X78752380Y-86771428D01*
X78704761Y-86866666D01*
X78657142Y-86914285D01*
X78561904Y-86961904D01*
X78371428Y-87009523D01*
X78133333Y-87009523D01*
X77942857Y-86961904D01*
X77847619Y-86914285D01*
X77800000Y-86866666D01*
X77752380Y-86771428D01*
X82752380Y-88342857D02*
X82276190Y-88676190D01*
X82752380Y-88914285D02*
X81752380Y-88914285D01*
X81752380Y-88533333D01*
X81800000Y-88438095D01*
X81847619Y-88390476D01*
X81942857Y-88342857D01*
X82085714Y-88342857D01*
X82180952Y-88390476D01*
X82228571Y-88438095D01*
X82276190Y-88533333D01*
X82276190Y-88914285D01*
X82752380Y-87390476D02*
X82752380Y-87961904D01*
X82752380Y-87676190D02*
X81752380Y-87676190D01*
X81895238Y-87771428D01*
X81990476Y-87866666D01*
X82038095Y-87961904D01*
X82752380Y-86438095D02*
X82752380Y-87009523D01*
X82752380Y-86723809D02*
X81752380Y-86723809D01*
X81895238Y-86819047D01*
X81990476Y-86914285D01*
X82038095Y-87009523D01*
X31107142Y-5252380D02*
X30773809Y-4776190D01*
X30535714Y-5252380D02*
X30535714Y-4252380D01*
X30916666Y-4252380D01*
X31011904Y-4300000D01*
X31059523Y-4347619D01*
X31107142Y-4442857D01*
X31107142Y-4585714D01*
X31059523Y-4680952D01*
X31011904Y-4728571D01*
X30916666Y-4776190D01*
X30535714Y-4776190D01*
X32059523Y-5252380D02*
X31488095Y-5252380D01*
X31773809Y-5252380D02*
X31773809Y-4252380D01*
X31678571Y-4395238D01*
X31583333Y-4490476D01*
X31488095Y-4538095D01*
X32392857Y-4252380D02*
X33011904Y-4252380D01*
X32678571Y-4633333D01*
X32821428Y-4633333D01*
X32916666Y-4680952D01*
X32964285Y-4728571D01*
X33011904Y-4823809D01*
X33011904Y-5061904D01*
X32964285Y-5157142D01*
X32916666Y-5204761D01*
X32821428Y-5252380D01*
X32535714Y-5252380D01*
X32440476Y-5204761D01*
X32392857Y-5157142D01*
X31307142Y-10152380D02*
X30973809Y-9676190D01*
X30735714Y-10152380D02*
X30735714Y-9152380D01*
X31116666Y-9152380D01*
X31211904Y-9200000D01*
X31259523Y-9247619D01*
X31307142Y-9342857D01*
X31307142Y-9485714D01*
X31259523Y-9580952D01*
X31211904Y-9628571D01*
X31116666Y-9676190D01*
X30735714Y-9676190D01*
X32259523Y-10152380D02*
X31688095Y-10152380D01*
X31973809Y-10152380D02*
X31973809Y-9152380D01*
X31878571Y-9295238D01*
X31783333Y-9390476D01*
X31688095Y-9438095D01*
X33116666Y-9485714D02*
X33116666Y-10152380D01*
X32878571Y-9104761D02*
X32640476Y-9819047D01*
X33259523Y-9819047D01*
X31307142Y-13152380D02*
X30973809Y-12676190D01*
X30735714Y-13152380D02*
X30735714Y-12152380D01*
X31116666Y-12152380D01*
X31211904Y-12200000D01*
X31259523Y-12247619D01*
X31307142Y-12342857D01*
X31307142Y-12485714D01*
X31259523Y-12580952D01*
X31211904Y-12628571D01*
X31116666Y-12676190D01*
X30735714Y-12676190D01*
X32259523Y-13152380D02*
X31688095Y-13152380D01*
X31973809Y-13152380D02*
X31973809Y-12152380D01*
X31878571Y-12295238D01*
X31783333Y-12390476D01*
X31688095Y-12438095D01*
X33116666Y-12152380D02*
X32926190Y-12152380D01*
X32830952Y-12200000D01*
X32783333Y-12247619D01*
X32688095Y-12390476D01*
X32640476Y-12580952D01*
X32640476Y-12961904D01*
X32688095Y-13057142D01*
X32735714Y-13104761D01*
X32830952Y-13152380D01*
X33021428Y-13152380D01*
X33116666Y-13104761D01*
X33164285Y-13057142D01*
X33211904Y-12961904D01*
X33211904Y-12723809D01*
X33164285Y-12628571D01*
X33116666Y-12580952D01*
X33021428Y-12533333D01*
X32830952Y-12533333D01*
X32735714Y-12580952D01*
X32688095Y-12628571D01*
X32640476Y-12723809D01*
X31307142Y-17852380D02*
X30973809Y-17376190D01*
X30735714Y-17852380D02*
X30735714Y-16852380D01*
X31116666Y-16852380D01*
X31211904Y-16900000D01*
X31259523Y-16947619D01*
X31307142Y-17042857D01*
X31307142Y-17185714D01*
X31259523Y-17280952D01*
X31211904Y-17328571D01*
X31116666Y-17376190D01*
X30735714Y-17376190D01*
X32259523Y-17852380D02*
X31688095Y-17852380D01*
X31973809Y-17852380D02*
X31973809Y-16852380D01*
X31878571Y-16995238D01*
X31783333Y-17090476D01*
X31688095Y-17138095D01*
X32592857Y-16852380D02*
X33259523Y-16852380D01*
X32830952Y-17852380D01*
X31307142Y-20902380D02*
X30973809Y-20426190D01*
X30735714Y-20902380D02*
X30735714Y-19902380D01*
X31116666Y-19902380D01*
X31211904Y-19950000D01*
X31259523Y-19997619D01*
X31307142Y-20092857D01*
X31307142Y-20235714D01*
X31259523Y-20330952D01*
X31211904Y-20378571D01*
X31116666Y-20426190D01*
X30735714Y-20426190D01*
X32259523Y-20902380D02*
X31688095Y-20902380D01*
X31973809Y-20902380D02*
X31973809Y-19902380D01*
X31878571Y-20045238D01*
X31783333Y-20140476D01*
X31688095Y-20188095D01*
X32735714Y-20902380D02*
X32926190Y-20902380D01*
X33021428Y-20854761D01*
X33069047Y-20807142D01*
X33164285Y-20664285D01*
X33211904Y-20473809D01*
X33211904Y-20092857D01*
X33164285Y-19997619D01*
X33116666Y-19950000D01*
X33021428Y-19902380D01*
X32830952Y-19902380D01*
X32735714Y-19950000D01*
X32688095Y-19997619D01*
X32640476Y-20092857D01*
X32640476Y-20330952D01*
X32688095Y-20426190D01*
X32735714Y-20473809D01*
X32830952Y-20521428D01*
X33021428Y-20521428D01*
X33116666Y-20473809D01*
X33164285Y-20426190D01*
X33211904Y-20330952D01*
X31307142Y-25602380D02*
X30973809Y-25126190D01*
X30735714Y-25602380D02*
X30735714Y-24602380D01*
X31116666Y-24602380D01*
X31211904Y-24650000D01*
X31259523Y-24697619D01*
X31307142Y-24792857D01*
X31307142Y-24935714D01*
X31259523Y-25030952D01*
X31211904Y-25078571D01*
X31116666Y-25126190D01*
X30735714Y-25126190D01*
X31688095Y-24697619D02*
X31735714Y-24650000D01*
X31830952Y-24602380D01*
X32069047Y-24602380D01*
X32164285Y-24650000D01*
X32211904Y-24697619D01*
X32259523Y-24792857D01*
X32259523Y-24888095D01*
X32211904Y-25030952D01*
X31640476Y-25602380D01*
X32259523Y-25602380D01*
X32878571Y-24602380D02*
X32973809Y-24602380D01*
X33069047Y-24650000D01*
X33116666Y-24697619D01*
X33164285Y-24792857D01*
X33211904Y-24983333D01*
X33211904Y-25221428D01*
X33164285Y-25411904D01*
X33116666Y-25507142D01*
X33069047Y-25554761D01*
X32973809Y-25602380D01*
X32878571Y-25602380D01*
X32783333Y-25554761D01*
X32735714Y-25507142D01*
X32688095Y-25411904D01*
X32640476Y-25221428D01*
X32640476Y-24983333D01*
X32688095Y-24792857D01*
X32735714Y-24697619D01*
X32783333Y-24650000D01*
X32878571Y-24602380D01*
X31307142Y-28602380D02*
X30973809Y-28126190D01*
X30735714Y-28602380D02*
X30735714Y-27602380D01*
X31116666Y-27602380D01*
X31211904Y-27650000D01*
X31259523Y-27697619D01*
X31307142Y-27792857D01*
X31307142Y-27935714D01*
X31259523Y-28030952D01*
X31211904Y-28078571D01*
X31116666Y-28126190D01*
X30735714Y-28126190D01*
X31688095Y-27697619D02*
X31735714Y-27650000D01*
X31830952Y-27602380D01*
X32069047Y-27602380D01*
X32164285Y-27650000D01*
X32211904Y-27697619D01*
X32259523Y-27792857D01*
X32259523Y-27888095D01*
X32211904Y-28030952D01*
X31640476Y-28602380D01*
X32259523Y-28602380D01*
X32640476Y-27697619D02*
X32688095Y-27650000D01*
X32783333Y-27602380D01*
X33021428Y-27602380D01*
X33116666Y-27650000D01*
X33164285Y-27697619D01*
X33211904Y-27792857D01*
X33211904Y-27888095D01*
X33164285Y-28030952D01*
X32592857Y-28602380D01*
X33211904Y-28602380D01*
X31307142Y-33302380D02*
X30973809Y-32826190D01*
X30735714Y-33302380D02*
X30735714Y-32302380D01*
X31116666Y-32302380D01*
X31211904Y-32350000D01*
X31259523Y-32397619D01*
X31307142Y-32492857D01*
X31307142Y-32635714D01*
X31259523Y-32730952D01*
X31211904Y-32778571D01*
X31116666Y-32826190D01*
X30735714Y-32826190D01*
X31688095Y-32397619D02*
X31735714Y-32350000D01*
X31830952Y-32302380D01*
X32069047Y-32302380D01*
X32164285Y-32350000D01*
X32211904Y-32397619D01*
X32259523Y-32492857D01*
X32259523Y-32588095D01*
X32211904Y-32730952D01*
X31640476Y-33302380D01*
X32259523Y-33302380D01*
X32592857Y-32302380D02*
X33211904Y-32302380D01*
X32878571Y-32683333D01*
X33021428Y-32683333D01*
X33116666Y-32730952D01*
X33164285Y-32778571D01*
X33211904Y-32873809D01*
X33211904Y-33111904D01*
X33164285Y-33207142D01*
X33116666Y-33254761D01*
X33021428Y-33302380D01*
X32735714Y-33302380D01*
X32640476Y-33254761D01*
X32592857Y-33207142D01*
X31307142Y-36302380D02*
X30973809Y-35826190D01*
X30735714Y-36302380D02*
X30735714Y-35302380D01*
X31116666Y-35302380D01*
X31211904Y-35350000D01*
X31259523Y-35397619D01*
X31307142Y-35492857D01*
X31307142Y-35635714D01*
X31259523Y-35730952D01*
X31211904Y-35778571D01*
X31116666Y-35826190D01*
X30735714Y-35826190D01*
X31688095Y-35397619D02*
X31735714Y-35350000D01*
X31830952Y-35302380D01*
X32069047Y-35302380D01*
X32164285Y-35350000D01*
X32211904Y-35397619D01*
X32259523Y-35492857D01*
X32259523Y-35588095D01*
X32211904Y-35730952D01*
X31640476Y-36302380D01*
X32259523Y-36302380D01*
X33164285Y-35302380D02*
X32688095Y-35302380D01*
X32640476Y-35778571D01*
X32688095Y-35730952D01*
X32783333Y-35683333D01*
X33021428Y-35683333D01*
X33116666Y-35730952D01*
X33164285Y-35778571D01*
X33211904Y-35873809D01*
X33211904Y-36111904D01*
X33164285Y-36207142D01*
X33116666Y-36254761D01*
X33021428Y-36302380D01*
X32783333Y-36302380D01*
X32688095Y-36254761D01*
X32640476Y-36207142D01*
X31307142Y-41102380D02*
X30973809Y-40626190D01*
X30735714Y-41102380D02*
X30735714Y-40102380D01*
X31116666Y-40102380D01*
X31211904Y-40150000D01*
X31259523Y-40197619D01*
X31307142Y-40292857D01*
X31307142Y-40435714D01*
X31259523Y-40530952D01*
X31211904Y-40578571D01*
X31116666Y-40626190D01*
X30735714Y-40626190D01*
X31688095Y-40197619D02*
X31735714Y-40150000D01*
X31830952Y-40102380D01*
X32069047Y-40102380D01*
X32164285Y-40150000D01*
X32211904Y-40197619D01*
X32259523Y-40292857D01*
X32259523Y-40388095D01*
X32211904Y-40530952D01*
X31640476Y-41102380D01*
X32259523Y-41102380D01*
X33116666Y-40102380D02*
X32926190Y-40102380D01*
X32830952Y-40150000D01*
X32783333Y-40197619D01*
X32688095Y-40340476D01*
X32640476Y-40530952D01*
X32640476Y-40911904D01*
X32688095Y-41007142D01*
X32735714Y-41054761D01*
X32830952Y-41102380D01*
X33021428Y-41102380D01*
X33116666Y-41054761D01*
X33164285Y-41007142D01*
X33211904Y-40911904D01*
X33211904Y-40673809D01*
X33164285Y-40578571D01*
X33116666Y-40530952D01*
X33021428Y-40483333D01*
X32830952Y-40483333D01*
X32735714Y-40530952D01*
X32688095Y-40578571D01*
X32640476Y-40673809D01*
X31307142Y-44002380D02*
X30973809Y-43526190D01*
X30735714Y-44002380D02*
X30735714Y-43002380D01*
X31116666Y-43002380D01*
X31211904Y-43050000D01*
X31259523Y-43097619D01*
X31307142Y-43192857D01*
X31307142Y-43335714D01*
X31259523Y-43430952D01*
X31211904Y-43478571D01*
X31116666Y-43526190D01*
X30735714Y-43526190D01*
X31688095Y-43097619D02*
X31735714Y-43050000D01*
X31830952Y-43002380D01*
X32069047Y-43002380D01*
X32164285Y-43050000D01*
X32211904Y-43097619D01*
X32259523Y-43192857D01*
X32259523Y-43288095D01*
X32211904Y-43430952D01*
X31640476Y-44002380D01*
X32259523Y-44002380D01*
X32830952Y-43430952D02*
X32735714Y-43383333D01*
X32688095Y-43335714D01*
X32640476Y-43240476D01*
X32640476Y-43192857D01*
X32688095Y-43097619D01*
X32735714Y-43050000D01*
X32830952Y-43002380D01*
X33021428Y-43002380D01*
X33116666Y-43050000D01*
X33164285Y-43097619D01*
X33211904Y-43192857D01*
X33211904Y-43240476D01*
X33164285Y-43335714D01*
X33116666Y-43383333D01*
X33021428Y-43430952D01*
X32830952Y-43430952D01*
X32735714Y-43478571D01*
X32688095Y-43526190D01*
X32640476Y-43621428D01*
X32640476Y-43811904D01*
X32688095Y-43907142D01*
X32735714Y-43954761D01*
X32830952Y-44002380D01*
X33021428Y-44002380D01*
X33116666Y-43954761D01*
X33164285Y-43907142D01*
X33211904Y-43811904D01*
X33211904Y-43621428D01*
X33164285Y-43526190D01*
X33116666Y-43478571D01*
X33021428Y-43430952D01*
X31307142Y-48702380D02*
X30973809Y-48226190D01*
X30735714Y-48702380D02*
X30735714Y-47702380D01*
X31116666Y-47702380D01*
X31211904Y-47750000D01*
X31259523Y-47797619D01*
X31307142Y-47892857D01*
X31307142Y-48035714D01*
X31259523Y-48130952D01*
X31211904Y-48178571D01*
X31116666Y-48226190D01*
X30735714Y-48226190D01*
X31688095Y-47797619D02*
X31735714Y-47750000D01*
X31830952Y-47702380D01*
X32069047Y-47702380D01*
X32164285Y-47750000D01*
X32211904Y-47797619D01*
X32259523Y-47892857D01*
X32259523Y-47988095D01*
X32211904Y-48130952D01*
X31640476Y-48702380D01*
X32259523Y-48702380D01*
X32735714Y-48702380D02*
X32926190Y-48702380D01*
X33021428Y-48654761D01*
X33069047Y-48607142D01*
X33164285Y-48464285D01*
X33211904Y-48273809D01*
X33211904Y-47892857D01*
X33164285Y-47797619D01*
X33116666Y-47750000D01*
X33021428Y-47702380D01*
X32830952Y-47702380D01*
X32735714Y-47750000D01*
X32688095Y-47797619D01*
X32640476Y-47892857D01*
X32640476Y-48130952D01*
X32688095Y-48226190D01*
X32735714Y-48273809D01*
X32830952Y-48321428D01*
X33021428Y-48321428D01*
X33116666Y-48273809D01*
X33164285Y-48226190D01*
X33211904Y-48130952D01*
X31307142Y-51802380D02*
X30973809Y-51326190D01*
X30735714Y-51802380D02*
X30735714Y-50802380D01*
X31116666Y-50802380D01*
X31211904Y-50850000D01*
X31259523Y-50897619D01*
X31307142Y-50992857D01*
X31307142Y-51135714D01*
X31259523Y-51230952D01*
X31211904Y-51278571D01*
X31116666Y-51326190D01*
X30735714Y-51326190D01*
X31640476Y-50802380D02*
X32259523Y-50802380D01*
X31926190Y-51183333D01*
X32069047Y-51183333D01*
X32164285Y-51230952D01*
X32211904Y-51278571D01*
X32259523Y-51373809D01*
X32259523Y-51611904D01*
X32211904Y-51707142D01*
X32164285Y-51754761D01*
X32069047Y-51802380D01*
X31783333Y-51802380D01*
X31688095Y-51754761D01*
X31640476Y-51707142D01*
X33211904Y-51802380D02*
X32640476Y-51802380D01*
X32926190Y-51802380D02*
X32926190Y-50802380D01*
X32830952Y-50945238D01*
X32735714Y-51040476D01*
X32640476Y-51088095D01*
X31307142Y-56602380D02*
X30973809Y-56126190D01*
X30735714Y-56602380D02*
X30735714Y-55602380D01*
X31116666Y-55602380D01*
X31211904Y-55650000D01*
X31259523Y-55697619D01*
X31307142Y-55792857D01*
X31307142Y-55935714D01*
X31259523Y-56030952D01*
X31211904Y-56078571D01*
X31116666Y-56126190D01*
X30735714Y-56126190D01*
X31640476Y-55602380D02*
X32259523Y-55602380D01*
X31926190Y-55983333D01*
X32069047Y-55983333D01*
X32164285Y-56030952D01*
X32211904Y-56078571D01*
X32259523Y-56173809D01*
X32259523Y-56411904D01*
X32211904Y-56507142D01*
X32164285Y-56554761D01*
X32069047Y-56602380D01*
X31783333Y-56602380D01*
X31688095Y-56554761D01*
X31640476Y-56507142D01*
X32640476Y-55697619D02*
X32688095Y-55650000D01*
X32783333Y-55602380D01*
X33021428Y-55602380D01*
X33116666Y-55650000D01*
X33164285Y-55697619D01*
X33211904Y-55792857D01*
X33211904Y-55888095D01*
X33164285Y-56030952D01*
X32592857Y-56602380D01*
X33211904Y-56602380D01*
X31357142Y-59502380D02*
X31023809Y-59026190D01*
X30785714Y-59502380D02*
X30785714Y-58502380D01*
X31166666Y-58502380D01*
X31261904Y-58550000D01*
X31309523Y-58597619D01*
X31357142Y-58692857D01*
X31357142Y-58835714D01*
X31309523Y-58930952D01*
X31261904Y-58978571D01*
X31166666Y-59026190D01*
X30785714Y-59026190D01*
X31690476Y-58502380D02*
X32309523Y-58502380D01*
X31976190Y-58883333D01*
X32119047Y-58883333D01*
X32214285Y-58930952D01*
X32261904Y-58978571D01*
X32309523Y-59073809D01*
X32309523Y-59311904D01*
X32261904Y-59407142D01*
X32214285Y-59454761D01*
X32119047Y-59502380D01*
X31833333Y-59502380D01*
X31738095Y-59454761D01*
X31690476Y-59407142D01*
X33166666Y-58835714D02*
X33166666Y-59502380D01*
X32928571Y-58454761D02*
X32690476Y-59169047D01*
X33309523Y-59169047D01*
X31357142Y-64302380D02*
X31023809Y-63826190D01*
X30785714Y-64302380D02*
X30785714Y-63302380D01*
X31166666Y-63302380D01*
X31261904Y-63350000D01*
X31309523Y-63397619D01*
X31357142Y-63492857D01*
X31357142Y-63635714D01*
X31309523Y-63730952D01*
X31261904Y-63778571D01*
X31166666Y-63826190D01*
X30785714Y-63826190D01*
X31690476Y-63302380D02*
X32309523Y-63302380D01*
X31976190Y-63683333D01*
X32119047Y-63683333D01*
X32214285Y-63730952D01*
X32261904Y-63778571D01*
X32309523Y-63873809D01*
X32309523Y-64111904D01*
X32261904Y-64207142D01*
X32214285Y-64254761D01*
X32119047Y-64302380D01*
X31833333Y-64302380D01*
X31738095Y-64254761D01*
X31690476Y-64207142D01*
X33214285Y-63302380D02*
X32738095Y-63302380D01*
X32690476Y-63778571D01*
X32738095Y-63730952D01*
X32833333Y-63683333D01*
X33071428Y-63683333D01*
X33166666Y-63730952D01*
X33214285Y-63778571D01*
X33261904Y-63873809D01*
X33261904Y-64111904D01*
X33214285Y-64207142D01*
X33166666Y-64254761D01*
X33071428Y-64302380D01*
X32833333Y-64302380D01*
X32738095Y-64254761D01*
X32690476Y-64207142D01*
X31307142Y-67202380D02*
X30973809Y-66726190D01*
X30735714Y-67202380D02*
X30735714Y-66202380D01*
X31116666Y-66202380D01*
X31211904Y-66250000D01*
X31259523Y-66297619D01*
X31307142Y-66392857D01*
X31307142Y-66535714D01*
X31259523Y-66630952D01*
X31211904Y-66678571D01*
X31116666Y-66726190D01*
X30735714Y-66726190D01*
X31640476Y-66202380D02*
X32259523Y-66202380D01*
X31926190Y-66583333D01*
X32069047Y-66583333D01*
X32164285Y-66630952D01*
X32211904Y-66678571D01*
X32259523Y-66773809D01*
X32259523Y-67011904D01*
X32211904Y-67107142D01*
X32164285Y-67154761D01*
X32069047Y-67202380D01*
X31783333Y-67202380D01*
X31688095Y-67154761D01*
X31640476Y-67107142D01*
X32592857Y-66202380D02*
X33259523Y-66202380D01*
X32830952Y-67202380D01*
X31307142Y-71902380D02*
X30973809Y-71426190D01*
X30735714Y-71902380D02*
X30735714Y-70902380D01*
X31116666Y-70902380D01*
X31211904Y-70950000D01*
X31259523Y-70997619D01*
X31307142Y-71092857D01*
X31307142Y-71235714D01*
X31259523Y-71330952D01*
X31211904Y-71378571D01*
X31116666Y-71426190D01*
X30735714Y-71426190D01*
X31640476Y-70902380D02*
X32259523Y-70902380D01*
X31926190Y-71283333D01*
X32069047Y-71283333D01*
X32164285Y-71330952D01*
X32211904Y-71378571D01*
X32259523Y-71473809D01*
X32259523Y-71711904D01*
X32211904Y-71807142D01*
X32164285Y-71854761D01*
X32069047Y-71902380D01*
X31783333Y-71902380D01*
X31688095Y-71854761D01*
X31640476Y-71807142D01*
X32830952Y-71330952D02*
X32735714Y-71283333D01*
X32688095Y-71235714D01*
X32640476Y-71140476D01*
X32640476Y-71092857D01*
X32688095Y-70997619D01*
X32735714Y-70950000D01*
X32830952Y-70902380D01*
X33021428Y-70902380D01*
X33116666Y-70950000D01*
X33164285Y-70997619D01*
X33211904Y-71092857D01*
X33211904Y-71140476D01*
X33164285Y-71235714D01*
X33116666Y-71283333D01*
X33021428Y-71330952D01*
X32830952Y-71330952D01*
X32735714Y-71378571D01*
X32688095Y-71426190D01*
X32640476Y-71521428D01*
X32640476Y-71711904D01*
X32688095Y-71807142D01*
X32735714Y-71854761D01*
X32830952Y-71902380D01*
X33021428Y-71902380D01*
X33116666Y-71854761D01*
X33164285Y-71807142D01*
X33211904Y-71711904D01*
X33211904Y-71521428D01*
X33164285Y-71426190D01*
X33116666Y-71378571D01*
X33021428Y-71330952D01*
X31307142Y-74902380D02*
X30973809Y-74426190D01*
X30735714Y-74902380D02*
X30735714Y-73902380D01*
X31116666Y-73902380D01*
X31211904Y-73950000D01*
X31259523Y-73997619D01*
X31307142Y-74092857D01*
X31307142Y-74235714D01*
X31259523Y-74330952D01*
X31211904Y-74378571D01*
X31116666Y-74426190D01*
X30735714Y-74426190D01*
X32164285Y-74235714D02*
X32164285Y-74902380D01*
X31926190Y-73854761D02*
X31688095Y-74569047D01*
X32307142Y-74569047D01*
X32878571Y-73902380D02*
X32973809Y-73902380D01*
X33069047Y-73950000D01*
X33116666Y-73997619D01*
X33164285Y-74092857D01*
X33211904Y-74283333D01*
X33211904Y-74521428D01*
X33164285Y-74711904D01*
X33116666Y-74807142D01*
X33069047Y-74854761D01*
X32973809Y-74902380D01*
X32878571Y-74902380D01*
X32783333Y-74854761D01*
X32735714Y-74807142D01*
X32688095Y-74711904D01*
X32640476Y-74521428D01*
X32640476Y-74283333D01*
X32688095Y-74092857D01*
X32735714Y-73997619D01*
X32783333Y-73950000D01*
X32878571Y-73902380D01*
X31307142Y-79702380D02*
X30973809Y-79226190D01*
X30735714Y-79702380D02*
X30735714Y-78702380D01*
X31116666Y-78702380D01*
X31211904Y-78750000D01*
X31259523Y-78797619D01*
X31307142Y-78892857D01*
X31307142Y-79035714D01*
X31259523Y-79130952D01*
X31211904Y-79178571D01*
X31116666Y-79226190D01*
X30735714Y-79226190D01*
X32164285Y-79035714D02*
X32164285Y-79702380D01*
X31926190Y-78654761D02*
X31688095Y-79369047D01*
X32307142Y-79369047D01*
X33211904Y-79702380D02*
X32640476Y-79702380D01*
X32926190Y-79702380D02*
X32926190Y-78702380D01*
X32830952Y-78845238D01*
X32735714Y-78940476D01*
X32640476Y-78988095D01*
X31307142Y-82602380D02*
X30973809Y-82126190D01*
X30735714Y-82602380D02*
X30735714Y-81602380D01*
X31116666Y-81602380D01*
X31211904Y-81650000D01*
X31259523Y-81697619D01*
X31307142Y-81792857D01*
X31307142Y-81935714D01*
X31259523Y-82030952D01*
X31211904Y-82078571D01*
X31116666Y-82126190D01*
X30735714Y-82126190D01*
X32164285Y-81935714D02*
X32164285Y-82602380D01*
X31926190Y-81554761D02*
X31688095Y-82269047D01*
X32307142Y-82269047D01*
X32592857Y-81602380D02*
X33211904Y-81602380D01*
X32878571Y-81983333D01*
X33021428Y-81983333D01*
X33116666Y-82030952D01*
X33164285Y-82078571D01*
X33211904Y-82173809D01*
X33211904Y-82411904D01*
X33164285Y-82507142D01*
X33116666Y-82554761D01*
X33021428Y-82602380D01*
X32735714Y-82602380D01*
X32640476Y-82554761D01*
X32592857Y-82507142D01*
X31307142Y-87402380D02*
X30973809Y-86926190D01*
X30735714Y-87402380D02*
X30735714Y-86402380D01*
X31116666Y-86402380D01*
X31211904Y-86450000D01*
X31259523Y-86497619D01*
X31307142Y-86592857D01*
X31307142Y-86735714D01*
X31259523Y-86830952D01*
X31211904Y-86878571D01*
X31116666Y-86926190D01*
X30735714Y-86926190D01*
X32164285Y-86735714D02*
X32164285Y-87402380D01*
X31926190Y-86354761D02*
X31688095Y-87069047D01*
X32307142Y-87069047D01*
X33116666Y-86735714D02*
X33116666Y-87402380D01*
X32878571Y-86354761D02*
X32640476Y-87069047D01*
X33259523Y-87069047D01*
X31307142Y-90602380D02*
X30973809Y-90126190D01*
X30735714Y-90602380D02*
X30735714Y-89602380D01*
X31116666Y-89602380D01*
X31211904Y-89650000D01*
X31259523Y-89697619D01*
X31307142Y-89792857D01*
X31307142Y-89935714D01*
X31259523Y-90030952D01*
X31211904Y-90078571D01*
X31116666Y-90126190D01*
X30735714Y-90126190D01*
X32164285Y-89935714D02*
X32164285Y-90602380D01*
X31926190Y-89554761D02*
X31688095Y-90269047D01*
X32307142Y-90269047D01*
X33116666Y-89602380D02*
X32926190Y-89602380D01*
X32830952Y-89650000D01*
X32783333Y-89697619D01*
X32688095Y-89840476D01*
X32640476Y-90030952D01*
X32640476Y-90411904D01*
X32688095Y-90507142D01*
X32735714Y-90554761D01*
X32830952Y-90602380D01*
X33021428Y-90602380D01*
X33116666Y-90554761D01*
X33164285Y-90507142D01*
X33211904Y-90411904D01*
X33211904Y-90173809D01*
X33164285Y-90078571D01*
X33116666Y-90030952D01*
X33021428Y-89983333D01*
X32830952Y-89983333D01*
X32735714Y-90030952D01*
X32688095Y-90078571D01*
X32640476Y-90173809D01*
X31307142Y-95402380D02*
X30973809Y-94926190D01*
X30735714Y-95402380D02*
X30735714Y-94402380D01*
X31116666Y-94402380D01*
X31211904Y-94450000D01*
X31259523Y-94497619D01*
X31307142Y-94592857D01*
X31307142Y-94735714D01*
X31259523Y-94830952D01*
X31211904Y-94878571D01*
X31116666Y-94926190D01*
X30735714Y-94926190D01*
X32164285Y-94735714D02*
X32164285Y-95402380D01*
X31926190Y-94354761D02*
X31688095Y-95069047D01*
X32307142Y-95069047D01*
X32592857Y-94402380D02*
X33259523Y-94402380D01*
X32830952Y-95402380D01*
X80738095Y-17452380D02*
X81309523Y-17452380D01*
X81023809Y-18452380D02*
X81023809Y-17452380D01*
X82214285Y-18452380D02*
X81880952Y-17976190D01*
X81642857Y-18452380D02*
X81642857Y-17452380D01*
X82023809Y-17452380D01*
X82119047Y-17500000D01*
X82166666Y-17547619D01*
X82214285Y-17642857D01*
X82214285Y-17785714D01*
X82166666Y-17880952D01*
X82119047Y-17928571D01*
X82023809Y-17976190D01*
X81642857Y-17976190D01*
X83166666Y-18452380D02*
X82595238Y-18452380D01*
X82880952Y-18452380D02*
X82880952Y-17452380D01*
X82785714Y-17595238D01*
X82690476Y-17690476D01*
X82595238Y-17738095D01*
X53538095Y-44852380D02*
X53538095Y-45661904D01*
X53585714Y-45757142D01*
X53633333Y-45804761D01*
X53728571Y-45852380D01*
X53919047Y-45852380D01*
X54014285Y-45804761D01*
X54061904Y-45757142D01*
X54109523Y-45661904D01*
X54109523Y-44852380D01*
X55109523Y-45852380D02*
X54538095Y-45852380D01*
X54823809Y-45852380D02*
X54823809Y-44852380D01*
X54728571Y-44995238D01*
X54633333Y-45090476D01*
X54538095Y-45138095D01*
X20807142Y-7752380D02*
X20473809Y-7276190D01*
X20235714Y-7752380D02*
X20235714Y-6752380D01*
X20616666Y-6752380D01*
X20711904Y-6800000D01*
X20759523Y-6847619D01*
X20807142Y-6942857D01*
X20807142Y-7085714D01*
X20759523Y-7180952D01*
X20711904Y-7228571D01*
X20616666Y-7276190D01*
X20235714Y-7276190D01*
X21759523Y-7752380D02*
X21188095Y-7752380D01*
X21473809Y-7752380D02*
X21473809Y-6752380D01*
X21378571Y-6895238D01*
X21283333Y-6990476D01*
X21188095Y-7038095D01*
X22140476Y-6847619D02*
X22188095Y-6800000D01*
X22283333Y-6752380D01*
X22521428Y-6752380D01*
X22616666Y-6800000D01*
X22664285Y-6847619D01*
X22711904Y-6942857D01*
X22711904Y-7038095D01*
X22664285Y-7180952D01*
X22092857Y-7752380D01*
X22711904Y-7752380D01*
X20807142Y-15452380D02*
X20473809Y-14976190D01*
X20235714Y-15452380D02*
X20235714Y-14452380D01*
X20616666Y-14452380D01*
X20711904Y-14500000D01*
X20759523Y-14547619D01*
X20807142Y-14642857D01*
X20807142Y-14785714D01*
X20759523Y-14880952D01*
X20711904Y-14928571D01*
X20616666Y-14976190D01*
X20235714Y-14976190D01*
X21759523Y-15452380D02*
X21188095Y-15452380D01*
X21473809Y-15452380D02*
X21473809Y-14452380D01*
X21378571Y-14595238D01*
X21283333Y-14690476D01*
X21188095Y-14738095D01*
X22664285Y-14452380D02*
X22188095Y-14452380D01*
X22140476Y-14928571D01*
X22188095Y-14880952D01*
X22283333Y-14833333D01*
X22521428Y-14833333D01*
X22616666Y-14880952D01*
X22664285Y-14928571D01*
X22711904Y-15023809D01*
X22711904Y-15261904D01*
X22664285Y-15357142D01*
X22616666Y-15404761D01*
X22521428Y-15452380D01*
X22283333Y-15452380D01*
X22188095Y-15404761D01*
X22140476Y-15357142D01*
X20807142Y-23202380D02*
X20473809Y-22726190D01*
X20235714Y-23202380D02*
X20235714Y-22202380D01*
X20616666Y-22202380D01*
X20711904Y-22250000D01*
X20759523Y-22297619D01*
X20807142Y-22392857D01*
X20807142Y-22535714D01*
X20759523Y-22630952D01*
X20711904Y-22678571D01*
X20616666Y-22726190D01*
X20235714Y-22726190D01*
X21759523Y-23202380D02*
X21188095Y-23202380D01*
X21473809Y-23202380D02*
X21473809Y-22202380D01*
X21378571Y-22345238D01*
X21283333Y-22440476D01*
X21188095Y-22488095D01*
X22330952Y-22630952D02*
X22235714Y-22583333D01*
X22188095Y-22535714D01*
X22140476Y-22440476D01*
X22140476Y-22392857D01*
X22188095Y-22297619D01*
X22235714Y-22250000D01*
X22330952Y-22202380D01*
X22521428Y-22202380D01*
X22616666Y-22250000D01*
X22664285Y-22297619D01*
X22711904Y-22392857D01*
X22711904Y-22440476D01*
X22664285Y-22535714D01*
X22616666Y-22583333D01*
X22521428Y-22630952D01*
X22330952Y-22630952D01*
X22235714Y-22678571D01*
X22188095Y-22726190D01*
X22140476Y-22821428D01*
X22140476Y-23011904D01*
X22188095Y-23107142D01*
X22235714Y-23154761D01*
X22330952Y-23202380D01*
X22521428Y-23202380D01*
X22616666Y-23154761D01*
X22664285Y-23107142D01*
X22711904Y-23011904D01*
X22711904Y-22821428D01*
X22664285Y-22726190D01*
X22616666Y-22678571D01*
X22521428Y-22630952D01*
X20807142Y-30902380D02*
X20473809Y-30426190D01*
X20235714Y-30902380D02*
X20235714Y-29902380D01*
X20616666Y-29902380D01*
X20711904Y-29950000D01*
X20759523Y-29997619D01*
X20807142Y-30092857D01*
X20807142Y-30235714D01*
X20759523Y-30330952D01*
X20711904Y-30378571D01*
X20616666Y-30426190D01*
X20235714Y-30426190D01*
X21188095Y-29997619D02*
X21235714Y-29950000D01*
X21330952Y-29902380D01*
X21569047Y-29902380D01*
X21664285Y-29950000D01*
X21711904Y-29997619D01*
X21759523Y-30092857D01*
X21759523Y-30188095D01*
X21711904Y-30330952D01*
X21140476Y-30902380D01*
X21759523Y-30902380D01*
X22711904Y-30902380D02*
X22140476Y-30902380D01*
X22426190Y-30902380D02*
X22426190Y-29902380D01*
X22330952Y-30045238D01*
X22235714Y-30140476D01*
X22140476Y-30188095D01*
X20807142Y-38602380D02*
X20473809Y-38126190D01*
X20235714Y-38602380D02*
X20235714Y-37602380D01*
X20616666Y-37602380D01*
X20711904Y-37650000D01*
X20759523Y-37697619D01*
X20807142Y-37792857D01*
X20807142Y-37935714D01*
X20759523Y-38030952D01*
X20711904Y-38078571D01*
X20616666Y-38126190D01*
X20235714Y-38126190D01*
X21188095Y-37697619D02*
X21235714Y-37650000D01*
X21330952Y-37602380D01*
X21569047Y-37602380D01*
X21664285Y-37650000D01*
X21711904Y-37697619D01*
X21759523Y-37792857D01*
X21759523Y-37888095D01*
X21711904Y-38030952D01*
X21140476Y-38602380D01*
X21759523Y-38602380D01*
X22616666Y-37935714D02*
X22616666Y-38602380D01*
X22378571Y-37554761D02*
X22140476Y-38269047D01*
X22759523Y-38269047D01*
X20807142Y-46302380D02*
X20473809Y-45826190D01*
X20235714Y-46302380D02*
X20235714Y-45302380D01*
X20616666Y-45302380D01*
X20711904Y-45350000D01*
X20759523Y-45397619D01*
X20807142Y-45492857D01*
X20807142Y-45635714D01*
X20759523Y-45730952D01*
X20711904Y-45778571D01*
X20616666Y-45826190D01*
X20235714Y-45826190D01*
X21188095Y-45397619D02*
X21235714Y-45350000D01*
X21330952Y-45302380D01*
X21569047Y-45302380D01*
X21664285Y-45350000D01*
X21711904Y-45397619D01*
X21759523Y-45492857D01*
X21759523Y-45588095D01*
X21711904Y-45730952D01*
X21140476Y-46302380D01*
X21759523Y-46302380D01*
X22092857Y-45302380D02*
X22759523Y-45302380D01*
X22330952Y-46302380D01*
X20807142Y-54102380D02*
X20473809Y-53626190D01*
X20235714Y-54102380D02*
X20235714Y-53102380D01*
X20616666Y-53102380D01*
X20711904Y-53150000D01*
X20759523Y-53197619D01*
X20807142Y-53292857D01*
X20807142Y-53435714D01*
X20759523Y-53530952D01*
X20711904Y-53578571D01*
X20616666Y-53626190D01*
X20235714Y-53626190D01*
X21140476Y-53102380D02*
X21759523Y-53102380D01*
X21426190Y-53483333D01*
X21569047Y-53483333D01*
X21664285Y-53530952D01*
X21711904Y-53578571D01*
X21759523Y-53673809D01*
X21759523Y-53911904D01*
X21711904Y-54007142D01*
X21664285Y-54054761D01*
X21569047Y-54102380D01*
X21283333Y-54102380D01*
X21188095Y-54054761D01*
X21140476Y-54007142D01*
X22378571Y-53102380D02*
X22473809Y-53102380D01*
X22569047Y-53150000D01*
X22616666Y-53197619D01*
X22664285Y-53292857D01*
X22711904Y-53483333D01*
X22711904Y-53721428D01*
X22664285Y-53911904D01*
X22616666Y-54007142D01*
X22569047Y-54054761D01*
X22473809Y-54102380D01*
X22378571Y-54102380D01*
X22283333Y-54054761D01*
X22235714Y-54007142D01*
X22188095Y-53911904D01*
X22140476Y-53721428D01*
X22140476Y-53483333D01*
X22188095Y-53292857D01*
X22235714Y-53197619D01*
X22283333Y-53150000D01*
X22378571Y-53102380D01*
X20857142Y-61952380D02*
X20523809Y-61476190D01*
X20285714Y-61952380D02*
X20285714Y-60952380D01*
X20666666Y-60952380D01*
X20761904Y-61000000D01*
X20809523Y-61047619D01*
X20857142Y-61142857D01*
X20857142Y-61285714D01*
X20809523Y-61380952D01*
X20761904Y-61428571D01*
X20666666Y-61476190D01*
X20285714Y-61476190D01*
X21190476Y-60952380D02*
X21809523Y-60952380D01*
X21476190Y-61333333D01*
X21619047Y-61333333D01*
X21714285Y-61380952D01*
X21761904Y-61428571D01*
X21809523Y-61523809D01*
X21809523Y-61761904D01*
X21761904Y-61857142D01*
X21714285Y-61904761D01*
X21619047Y-61952380D01*
X21333333Y-61952380D01*
X21238095Y-61904761D01*
X21190476Y-61857142D01*
X22142857Y-60952380D02*
X22761904Y-60952380D01*
X22428571Y-61333333D01*
X22571428Y-61333333D01*
X22666666Y-61380952D01*
X22714285Y-61428571D01*
X22761904Y-61523809D01*
X22761904Y-61761904D01*
X22714285Y-61857142D01*
X22666666Y-61904761D01*
X22571428Y-61952380D01*
X22285714Y-61952380D01*
X22190476Y-61904761D01*
X22142857Y-61857142D01*
X20857142Y-77202380D02*
X20523809Y-76726190D01*
X20285714Y-77202380D02*
X20285714Y-76202380D01*
X20666666Y-76202380D01*
X20761904Y-76250000D01*
X20809523Y-76297619D01*
X20857142Y-76392857D01*
X20857142Y-76535714D01*
X20809523Y-76630952D01*
X20761904Y-76678571D01*
X20666666Y-76726190D01*
X20285714Y-76726190D01*
X21190476Y-76202380D02*
X21809523Y-76202380D01*
X21476190Y-76583333D01*
X21619047Y-76583333D01*
X21714285Y-76630952D01*
X21761904Y-76678571D01*
X21809523Y-76773809D01*
X21809523Y-77011904D01*
X21761904Y-77107142D01*
X21714285Y-77154761D01*
X21619047Y-77202380D01*
X21333333Y-77202380D01*
X21238095Y-77154761D01*
X21190476Y-77107142D01*
X22285714Y-77202380D02*
X22476190Y-77202380D01*
X22571428Y-77154761D01*
X22619047Y-77107142D01*
X22714285Y-76964285D01*
X22761904Y-76773809D01*
X22761904Y-76392857D01*
X22714285Y-76297619D01*
X22666666Y-76250000D01*
X22571428Y-76202380D01*
X22380952Y-76202380D01*
X22285714Y-76250000D01*
X22238095Y-76297619D01*
X22190476Y-76392857D01*
X22190476Y-76630952D01*
X22238095Y-76726190D01*
X22285714Y-76773809D01*
X22380952Y-76821428D01*
X22571428Y-76821428D01*
X22666666Y-76773809D01*
X22714285Y-76726190D01*
X22761904Y-76630952D01*
X20857142Y-84852380D02*
X20523809Y-84376190D01*
X20285714Y-84852380D02*
X20285714Y-83852380D01*
X20666666Y-83852380D01*
X20761904Y-83900000D01*
X20809523Y-83947619D01*
X20857142Y-84042857D01*
X20857142Y-84185714D01*
X20809523Y-84280952D01*
X20761904Y-84328571D01*
X20666666Y-84376190D01*
X20285714Y-84376190D01*
X21714285Y-84185714D02*
X21714285Y-84852380D01*
X21476190Y-83804761D02*
X21238095Y-84519047D01*
X21857142Y-84519047D01*
X22190476Y-83947619D02*
X22238095Y-83900000D01*
X22333333Y-83852380D01*
X22571428Y-83852380D01*
X22666666Y-83900000D01*
X22714285Y-83947619D01*
X22761904Y-84042857D01*
X22761904Y-84138095D01*
X22714285Y-84280952D01*
X22142857Y-84852380D01*
X22761904Y-84852380D01*
X20807142Y-92902380D02*
X20473809Y-92426190D01*
X20235714Y-92902380D02*
X20235714Y-91902380D01*
X20616666Y-91902380D01*
X20711904Y-91950000D01*
X20759523Y-91997619D01*
X20807142Y-92092857D01*
X20807142Y-92235714D01*
X20759523Y-92330952D01*
X20711904Y-92378571D01*
X20616666Y-92426190D01*
X20235714Y-92426190D01*
X21664285Y-92235714D02*
X21664285Y-92902380D01*
X21426190Y-91854761D02*
X21188095Y-92569047D01*
X21807142Y-92569047D01*
X22664285Y-91902380D02*
X22188095Y-91902380D01*
X22140476Y-92378571D01*
X22188095Y-92330952D01*
X22283333Y-92283333D01*
X22521428Y-92283333D01*
X22616666Y-92330952D01*
X22664285Y-92378571D01*
X22711904Y-92473809D01*
X22711904Y-92711904D01*
X22664285Y-92807142D01*
X22616666Y-92854761D01*
X22521428Y-92902380D01*
X22283333Y-92902380D01*
X22188095Y-92854761D01*
X22140476Y-92807142D01*
X20857142Y-69452380D02*
X20523809Y-68976190D01*
X20285714Y-69452380D02*
X20285714Y-68452380D01*
X20666666Y-68452380D01*
X20761904Y-68500000D01*
X20809523Y-68547619D01*
X20857142Y-68642857D01*
X20857142Y-68785714D01*
X20809523Y-68880952D01*
X20761904Y-68928571D01*
X20666666Y-68976190D01*
X20285714Y-68976190D01*
X21190476Y-68452380D02*
X21809523Y-68452380D01*
X21476190Y-68833333D01*
X21619047Y-68833333D01*
X21714285Y-68880952D01*
X21761904Y-68928571D01*
X21809523Y-69023809D01*
X21809523Y-69261904D01*
X21761904Y-69357142D01*
X21714285Y-69404761D01*
X21619047Y-69452380D01*
X21333333Y-69452380D01*
X21238095Y-69404761D01*
X21190476Y-69357142D01*
X22666666Y-68452380D02*
X22476190Y-68452380D01*
X22380952Y-68500000D01*
X22333333Y-68547619D01*
X22238095Y-68690476D01*
X22190476Y-68880952D01*
X22190476Y-69261904D01*
X22238095Y-69357142D01*
X22285714Y-69404761D01*
X22380952Y-69452380D01*
X22571428Y-69452380D01*
X22666666Y-69404761D01*
X22714285Y-69357142D01*
X22761904Y-69261904D01*
X22761904Y-69023809D01*
X22714285Y-68928571D01*
X22666666Y-68880952D01*
X22571428Y-68833333D01*
X22380952Y-68833333D01*
X22285714Y-68880952D01*
X22238095Y-68928571D01*
X22190476Y-69023809D01*
X39307142Y-4907142D02*
X39259523Y-4954761D01*
X39116666Y-5002380D01*
X39021428Y-5002380D01*
X38878571Y-4954761D01*
X38783333Y-4859523D01*
X38735714Y-4764285D01*
X38688095Y-4573809D01*
X38688095Y-4430952D01*
X38735714Y-4240476D01*
X38783333Y-4145238D01*
X38878571Y-4050000D01*
X39021428Y-4002380D01*
X39116666Y-4002380D01*
X39259523Y-4050000D01*
X39307142Y-4097619D01*
X40259523Y-5002380D02*
X39688095Y-5002380D01*
X39973809Y-5002380D02*
X39973809Y-4002380D01*
X39878571Y-4145238D01*
X39783333Y-4240476D01*
X39688095Y-4288095D01*
X40592857Y-4002380D02*
X41211904Y-4002380D01*
X40878571Y-4383333D01*
X41021428Y-4383333D01*
X41116666Y-4430952D01*
X41164285Y-4478571D01*
X41211904Y-4573809D01*
X41211904Y-4811904D01*
X41164285Y-4907142D01*
X41116666Y-4954761D01*
X41021428Y-5002380D01*
X40735714Y-5002380D01*
X40640476Y-4954761D01*
X40592857Y-4907142D01*
X39307142Y-12607142D02*
X39259523Y-12654761D01*
X39116666Y-12702380D01*
X39021428Y-12702380D01*
X38878571Y-12654761D01*
X38783333Y-12559523D01*
X38735714Y-12464285D01*
X38688095Y-12273809D01*
X38688095Y-12130952D01*
X38735714Y-11940476D01*
X38783333Y-11845238D01*
X38878571Y-11750000D01*
X39021428Y-11702380D01*
X39116666Y-11702380D01*
X39259523Y-11750000D01*
X39307142Y-11797619D01*
X40259523Y-12702380D02*
X39688095Y-12702380D01*
X39973809Y-12702380D02*
X39973809Y-11702380D01*
X39878571Y-11845238D01*
X39783333Y-11940476D01*
X39688095Y-11988095D01*
X41116666Y-12035714D02*
X41116666Y-12702380D01*
X40878571Y-11654761D02*
X40640476Y-12369047D01*
X41259523Y-12369047D01*
X39307142Y-20357142D02*
X39259523Y-20404761D01*
X39116666Y-20452380D01*
X39021428Y-20452380D01*
X38878571Y-20404761D01*
X38783333Y-20309523D01*
X38735714Y-20214285D01*
X38688095Y-20023809D01*
X38688095Y-19880952D01*
X38735714Y-19690476D01*
X38783333Y-19595238D01*
X38878571Y-19500000D01*
X39021428Y-19452380D01*
X39116666Y-19452380D01*
X39259523Y-19500000D01*
X39307142Y-19547619D01*
X40259523Y-20452380D02*
X39688095Y-20452380D01*
X39973809Y-20452380D02*
X39973809Y-19452380D01*
X39878571Y-19595238D01*
X39783333Y-19690476D01*
X39688095Y-19738095D01*
X41164285Y-19452380D02*
X40688095Y-19452380D01*
X40640476Y-19928571D01*
X40688095Y-19880952D01*
X40783333Y-19833333D01*
X41021428Y-19833333D01*
X41116666Y-19880952D01*
X41164285Y-19928571D01*
X41211904Y-20023809D01*
X41211904Y-20261904D01*
X41164285Y-20357142D01*
X41116666Y-20404761D01*
X41021428Y-20452380D01*
X40783333Y-20452380D01*
X40688095Y-20404761D01*
X40640476Y-20357142D01*
X39307142Y-28057142D02*
X39259523Y-28104761D01*
X39116666Y-28152380D01*
X39021428Y-28152380D01*
X38878571Y-28104761D01*
X38783333Y-28009523D01*
X38735714Y-27914285D01*
X38688095Y-27723809D01*
X38688095Y-27580952D01*
X38735714Y-27390476D01*
X38783333Y-27295238D01*
X38878571Y-27200000D01*
X39021428Y-27152380D01*
X39116666Y-27152380D01*
X39259523Y-27200000D01*
X39307142Y-27247619D01*
X40259523Y-28152380D02*
X39688095Y-28152380D01*
X39973809Y-28152380D02*
X39973809Y-27152380D01*
X39878571Y-27295238D01*
X39783333Y-27390476D01*
X39688095Y-27438095D01*
X41116666Y-27152380D02*
X40926190Y-27152380D01*
X40830952Y-27200000D01*
X40783333Y-27247619D01*
X40688095Y-27390476D01*
X40640476Y-27580952D01*
X40640476Y-27961904D01*
X40688095Y-28057142D01*
X40735714Y-28104761D01*
X40830952Y-28152380D01*
X41021428Y-28152380D01*
X41116666Y-28104761D01*
X41164285Y-28057142D01*
X41211904Y-27961904D01*
X41211904Y-27723809D01*
X41164285Y-27628571D01*
X41116666Y-27580952D01*
X41021428Y-27533333D01*
X40830952Y-27533333D01*
X40735714Y-27580952D01*
X40688095Y-27628571D01*
X40640476Y-27723809D01*
X39307142Y-35757142D02*
X39259523Y-35804761D01*
X39116666Y-35852380D01*
X39021428Y-35852380D01*
X38878571Y-35804761D01*
X38783333Y-35709523D01*
X38735714Y-35614285D01*
X38688095Y-35423809D01*
X38688095Y-35280952D01*
X38735714Y-35090476D01*
X38783333Y-34995238D01*
X38878571Y-34900000D01*
X39021428Y-34852380D01*
X39116666Y-34852380D01*
X39259523Y-34900000D01*
X39307142Y-34947619D01*
X40259523Y-35852380D02*
X39688095Y-35852380D01*
X39973809Y-35852380D02*
X39973809Y-34852380D01*
X39878571Y-34995238D01*
X39783333Y-35090476D01*
X39688095Y-35138095D01*
X40592857Y-34852380D02*
X41259523Y-34852380D01*
X40830952Y-35852380D01*
X39307142Y-43457142D02*
X39259523Y-43504761D01*
X39116666Y-43552380D01*
X39021428Y-43552380D01*
X38878571Y-43504761D01*
X38783333Y-43409523D01*
X38735714Y-43314285D01*
X38688095Y-43123809D01*
X38688095Y-42980952D01*
X38735714Y-42790476D01*
X38783333Y-42695238D01*
X38878571Y-42600000D01*
X39021428Y-42552380D01*
X39116666Y-42552380D01*
X39259523Y-42600000D01*
X39307142Y-42647619D01*
X40259523Y-43552380D02*
X39688095Y-43552380D01*
X39973809Y-43552380D02*
X39973809Y-42552380D01*
X39878571Y-42695238D01*
X39783333Y-42790476D01*
X39688095Y-42838095D01*
X40830952Y-42980952D02*
X40735714Y-42933333D01*
X40688095Y-42885714D01*
X40640476Y-42790476D01*
X40640476Y-42742857D01*
X40688095Y-42647619D01*
X40735714Y-42600000D01*
X40830952Y-42552380D01*
X41021428Y-42552380D01*
X41116666Y-42600000D01*
X41164285Y-42647619D01*
X41211904Y-42742857D01*
X41211904Y-42790476D01*
X41164285Y-42885714D01*
X41116666Y-42933333D01*
X41021428Y-42980952D01*
X40830952Y-42980952D01*
X40735714Y-43028571D01*
X40688095Y-43076190D01*
X40640476Y-43171428D01*
X40640476Y-43361904D01*
X40688095Y-43457142D01*
X40735714Y-43504761D01*
X40830952Y-43552380D01*
X41021428Y-43552380D01*
X41116666Y-43504761D01*
X41164285Y-43457142D01*
X41211904Y-43361904D01*
X41211904Y-43171428D01*
X41164285Y-43076190D01*
X41116666Y-43028571D01*
X41021428Y-42980952D01*
X39307142Y-51257142D02*
X39259523Y-51304761D01*
X39116666Y-51352380D01*
X39021428Y-51352380D01*
X38878571Y-51304761D01*
X38783333Y-51209523D01*
X38735714Y-51114285D01*
X38688095Y-50923809D01*
X38688095Y-50780952D01*
X38735714Y-50590476D01*
X38783333Y-50495238D01*
X38878571Y-50400000D01*
X39021428Y-50352380D01*
X39116666Y-50352380D01*
X39259523Y-50400000D01*
X39307142Y-50447619D01*
X40259523Y-51352380D02*
X39688095Y-51352380D01*
X39973809Y-51352380D02*
X39973809Y-50352380D01*
X39878571Y-50495238D01*
X39783333Y-50590476D01*
X39688095Y-50638095D01*
X40735714Y-51352380D02*
X40926190Y-51352380D01*
X41021428Y-51304761D01*
X41069047Y-51257142D01*
X41164285Y-51114285D01*
X41211904Y-50923809D01*
X41211904Y-50542857D01*
X41164285Y-50447619D01*
X41116666Y-50400000D01*
X41021428Y-50352380D01*
X40830952Y-50352380D01*
X40735714Y-50400000D01*
X40688095Y-50447619D01*
X40640476Y-50542857D01*
X40640476Y-50780952D01*
X40688095Y-50876190D01*
X40735714Y-50923809D01*
X40830952Y-50971428D01*
X41021428Y-50971428D01*
X41116666Y-50923809D01*
X41164285Y-50876190D01*
X41211904Y-50780952D01*
X39357142Y-58957142D02*
X39309523Y-59004761D01*
X39166666Y-59052380D01*
X39071428Y-59052380D01*
X38928571Y-59004761D01*
X38833333Y-58909523D01*
X38785714Y-58814285D01*
X38738095Y-58623809D01*
X38738095Y-58480952D01*
X38785714Y-58290476D01*
X38833333Y-58195238D01*
X38928571Y-58100000D01*
X39071428Y-58052380D01*
X39166666Y-58052380D01*
X39309523Y-58100000D01*
X39357142Y-58147619D01*
X39738095Y-58147619D02*
X39785714Y-58100000D01*
X39880952Y-58052380D01*
X40119047Y-58052380D01*
X40214285Y-58100000D01*
X40261904Y-58147619D01*
X40309523Y-58242857D01*
X40309523Y-58338095D01*
X40261904Y-58480952D01*
X39690476Y-59052380D01*
X40309523Y-59052380D01*
X40928571Y-58052380D02*
X41023809Y-58052380D01*
X41119047Y-58100000D01*
X41166666Y-58147619D01*
X41214285Y-58242857D01*
X41261904Y-58433333D01*
X41261904Y-58671428D01*
X41214285Y-58861904D01*
X41166666Y-58957142D01*
X41119047Y-59004761D01*
X41023809Y-59052380D01*
X40928571Y-59052380D01*
X40833333Y-59004761D01*
X40785714Y-58957142D01*
X40738095Y-58861904D01*
X40690476Y-58671428D01*
X40690476Y-58433333D01*
X40738095Y-58242857D01*
X40785714Y-58147619D01*
X40833333Y-58100000D01*
X40928571Y-58052380D01*
X39257142Y-66707142D02*
X39209523Y-66754761D01*
X39066666Y-66802380D01*
X38971428Y-66802380D01*
X38828571Y-66754761D01*
X38733333Y-66659523D01*
X38685714Y-66564285D01*
X38638095Y-66373809D01*
X38638095Y-66230952D01*
X38685714Y-66040476D01*
X38733333Y-65945238D01*
X38828571Y-65850000D01*
X38971428Y-65802380D01*
X39066666Y-65802380D01*
X39209523Y-65850000D01*
X39257142Y-65897619D01*
X39638095Y-65897619D02*
X39685714Y-65850000D01*
X39780952Y-65802380D01*
X40019047Y-65802380D01*
X40114285Y-65850000D01*
X40161904Y-65897619D01*
X40209523Y-65992857D01*
X40209523Y-66088095D01*
X40161904Y-66230952D01*
X39590476Y-66802380D01*
X40209523Y-66802380D01*
X41161904Y-66802380D02*
X40590476Y-66802380D01*
X40876190Y-66802380D02*
X40876190Y-65802380D01*
X40780952Y-65945238D01*
X40685714Y-66040476D01*
X40590476Y-66088095D01*
X39307142Y-74357142D02*
X39259523Y-74404761D01*
X39116666Y-74452380D01*
X39021428Y-74452380D01*
X38878571Y-74404761D01*
X38783333Y-74309523D01*
X38735714Y-74214285D01*
X38688095Y-74023809D01*
X38688095Y-73880952D01*
X38735714Y-73690476D01*
X38783333Y-73595238D01*
X38878571Y-73500000D01*
X39021428Y-73452380D01*
X39116666Y-73452380D01*
X39259523Y-73500000D01*
X39307142Y-73547619D01*
X39688095Y-73547619D02*
X39735714Y-73500000D01*
X39830952Y-73452380D01*
X40069047Y-73452380D01*
X40164285Y-73500000D01*
X40211904Y-73547619D01*
X40259523Y-73642857D01*
X40259523Y-73738095D01*
X40211904Y-73880952D01*
X39640476Y-74452380D01*
X40259523Y-74452380D01*
X40640476Y-73547619D02*
X40688095Y-73500000D01*
X40783333Y-73452380D01*
X41021428Y-73452380D01*
X41116666Y-73500000D01*
X41164285Y-73547619D01*
X41211904Y-73642857D01*
X41211904Y-73738095D01*
X41164285Y-73880952D01*
X40592857Y-74452380D01*
X41211904Y-74452380D01*
X39307142Y-82057142D02*
X39259523Y-82104761D01*
X39116666Y-82152380D01*
X39021428Y-82152380D01*
X38878571Y-82104761D01*
X38783333Y-82009523D01*
X38735714Y-81914285D01*
X38688095Y-81723809D01*
X38688095Y-81580952D01*
X38735714Y-81390476D01*
X38783333Y-81295238D01*
X38878571Y-81200000D01*
X39021428Y-81152380D01*
X39116666Y-81152380D01*
X39259523Y-81200000D01*
X39307142Y-81247619D01*
X39688095Y-81247619D02*
X39735714Y-81200000D01*
X39830952Y-81152380D01*
X40069047Y-81152380D01*
X40164285Y-81200000D01*
X40211904Y-81247619D01*
X40259523Y-81342857D01*
X40259523Y-81438095D01*
X40211904Y-81580952D01*
X39640476Y-82152380D01*
X40259523Y-82152380D01*
X40592857Y-81152380D02*
X41211904Y-81152380D01*
X40878571Y-81533333D01*
X41021428Y-81533333D01*
X41116666Y-81580952D01*
X41164285Y-81628571D01*
X41211904Y-81723809D01*
X41211904Y-81961904D01*
X41164285Y-82057142D01*
X41116666Y-82104761D01*
X41021428Y-82152380D01*
X40735714Y-82152380D01*
X40640476Y-82104761D01*
X40592857Y-82057142D01*
X39307142Y-90057142D02*
X39259523Y-90104761D01*
X39116666Y-90152380D01*
X39021428Y-90152380D01*
X38878571Y-90104761D01*
X38783333Y-90009523D01*
X38735714Y-89914285D01*
X38688095Y-89723809D01*
X38688095Y-89580952D01*
X38735714Y-89390476D01*
X38783333Y-89295238D01*
X38878571Y-89200000D01*
X39021428Y-89152380D01*
X39116666Y-89152380D01*
X39259523Y-89200000D01*
X39307142Y-89247619D01*
X39688095Y-89247619D02*
X39735714Y-89200000D01*
X39830952Y-89152380D01*
X40069047Y-89152380D01*
X40164285Y-89200000D01*
X40211904Y-89247619D01*
X40259523Y-89342857D01*
X40259523Y-89438095D01*
X40211904Y-89580952D01*
X39640476Y-90152380D01*
X40259523Y-90152380D01*
X41116666Y-89485714D02*
X41116666Y-90152380D01*
X40878571Y-89104761D02*
X40640476Y-89819047D01*
X41259523Y-89819047D01*
X38152380Y-9038095D02*
X37152380Y-9038095D01*
X37152380Y-8800000D01*
X37200000Y-8657142D01*
X37295238Y-8561904D01*
X37390476Y-8514285D01*
X37580952Y-8466666D01*
X37723809Y-8466666D01*
X37914285Y-8514285D01*
X38009523Y-8561904D01*
X38104761Y-8657142D01*
X38152380Y-8800000D01*
X38152380Y-9038095D01*
X38152380Y-7514285D02*
X38152380Y-8085714D01*
X38152380Y-7800000D02*
X37152380Y-7800000D01*
X37295238Y-7895238D01*
X37390476Y-7990476D01*
X37438095Y-8085714D01*
X38152380Y-16738095D02*
X37152380Y-16738095D01*
X37152380Y-16500000D01*
X37200000Y-16357142D01*
X37295238Y-16261904D01*
X37390476Y-16214285D01*
X37580952Y-16166666D01*
X37723809Y-16166666D01*
X37914285Y-16214285D01*
X38009523Y-16261904D01*
X38104761Y-16357142D01*
X38152380Y-16500000D01*
X38152380Y-16738095D01*
X37247619Y-15785714D02*
X37200000Y-15738095D01*
X37152380Y-15642857D01*
X37152380Y-15404761D01*
X37200000Y-15309523D01*
X37247619Y-15261904D01*
X37342857Y-15214285D01*
X37438095Y-15214285D01*
X37580952Y-15261904D01*
X38152380Y-15833333D01*
X38152380Y-15214285D01*
X38152380Y-24488095D02*
X37152380Y-24488095D01*
X37152380Y-24250000D01*
X37200000Y-24107142D01*
X37295238Y-24011904D01*
X37390476Y-23964285D01*
X37580952Y-23916666D01*
X37723809Y-23916666D01*
X37914285Y-23964285D01*
X38009523Y-24011904D01*
X38104761Y-24107142D01*
X38152380Y-24250000D01*
X38152380Y-24488095D01*
X37152380Y-23583333D02*
X37152380Y-22964285D01*
X37533333Y-23297619D01*
X37533333Y-23154761D01*
X37580952Y-23059523D01*
X37628571Y-23011904D01*
X37723809Y-22964285D01*
X37961904Y-22964285D01*
X38057142Y-23011904D01*
X38104761Y-23059523D01*
X38152380Y-23154761D01*
X38152380Y-23440476D01*
X38104761Y-23535714D01*
X38057142Y-23583333D01*
X38152380Y-32188095D02*
X37152380Y-32188095D01*
X37152380Y-31950000D01*
X37200000Y-31807142D01*
X37295238Y-31711904D01*
X37390476Y-31664285D01*
X37580952Y-31616666D01*
X37723809Y-31616666D01*
X37914285Y-31664285D01*
X38009523Y-31711904D01*
X38104761Y-31807142D01*
X38152380Y-31950000D01*
X38152380Y-32188095D01*
X37485714Y-30759523D02*
X38152380Y-30759523D01*
X37104761Y-30997619D02*
X37819047Y-31235714D01*
X37819047Y-30616666D01*
X38152380Y-39888095D02*
X37152380Y-39888095D01*
X37152380Y-39650000D01*
X37200000Y-39507142D01*
X37295238Y-39411904D01*
X37390476Y-39364285D01*
X37580952Y-39316666D01*
X37723809Y-39316666D01*
X37914285Y-39364285D01*
X38009523Y-39411904D01*
X38104761Y-39507142D01*
X38152380Y-39650000D01*
X38152380Y-39888095D01*
X37152380Y-38411904D02*
X37152380Y-38888095D01*
X37628571Y-38935714D01*
X37580952Y-38888095D01*
X37533333Y-38792857D01*
X37533333Y-38554761D01*
X37580952Y-38459523D01*
X37628571Y-38411904D01*
X37723809Y-38364285D01*
X37961904Y-38364285D01*
X38057142Y-38411904D01*
X38104761Y-38459523D01*
X38152380Y-38554761D01*
X38152380Y-38792857D01*
X38104761Y-38888095D01*
X38057142Y-38935714D01*
X38152380Y-47588095D02*
X37152380Y-47588095D01*
X37152380Y-47350000D01*
X37200000Y-47207142D01*
X37295238Y-47111904D01*
X37390476Y-47064285D01*
X37580952Y-47016666D01*
X37723809Y-47016666D01*
X37914285Y-47064285D01*
X38009523Y-47111904D01*
X38104761Y-47207142D01*
X38152380Y-47350000D01*
X38152380Y-47588095D01*
X37152380Y-46159523D02*
X37152380Y-46350000D01*
X37200000Y-46445238D01*
X37247619Y-46492857D01*
X37390476Y-46588095D01*
X37580952Y-46635714D01*
X37961904Y-46635714D01*
X38057142Y-46588095D01*
X38104761Y-46540476D01*
X38152380Y-46445238D01*
X38152380Y-46254761D01*
X38104761Y-46159523D01*
X38057142Y-46111904D01*
X37961904Y-46064285D01*
X37723809Y-46064285D01*
X37628571Y-46111904D01*
X37580952Y-46159523D01*
X37533333Y-46254761D01*
X37533333Y-46445238D01*
X37580952Y-46540476D01*
X37628571Y-46588095D01*
X37723809Y-46635714D01*
X38152380Y-55888095D02*
X37152380Y-55888095D01*
X37152380Y-55650000D01*
X37200000Y-55507142D01*
X37295238Y-55411904D01*
X37390476Y-55364285D01*
X37580952Y-55316666D01*
X37723809Y-55316666D01*
X37914285Y-55364285D01*
X38009523Y-55411904D01*
X38104761Y-55507142D01*
X38152380Y-55650000D01*
X38152380Y-55888095D01*
X37152380Y-54983333D02*
X37152380Y-54316666D01*
X38152380Y-54745238D01*
X38202380Y-63588095D02*
X37202380Y-63588095D01*
X37202380Y-63350000D01*
X37250000Y-63207142D01*
X37345238Y-63111904D01*
X37440476Y-63064285D01*
X37630952Y-63016666D01*
X37773809Y-63016666D01*
X37964285Y-63064285D01*
X38059523Y-63111904D01*
X38154761Y-63207142D01*
X38202380Y-63350000D01*
X38202380Y-63588095D01*
X37630952Y-62445238D02*
X37583333Y-62540476D01*
X37535714Y-62588095D01*
X37440476Y-62635714D01*
X37392857Y-62635714D01*
X37297619Y-62588095D01*
X37250000Y-62540476D01*
X37202380Y-62445238D01*
X37202380Y-62254761D01*
X37250000Y-62159523D01*
X37297619Y-62111904D01*
X37392857Y-62064285D01*
X37440476Y-62064285D01*
X37535714Y-62111904D01*
X37583333Y-62159523D01*
X37630952Y-62254761D01*
X37630952Y-62445238D01*
X37678571Y-62540476D01*
X37726190Y-62588095D01*
X37821428Y-62635714D01*
X38011904Y-62635714D01*
X38107142Y-62588095D01*
X38154761Y-62540476D01*
X38202380Y-62445238D01*
X38202380Y-62254761D01*
X38154761Y-62159523D01*
X38107142Y-62111904D01*
X38011904Y-62064285D01*
X37821428Y-62064285D01*
X37726190Y-62111904D01*
X37678571Y-62159523D01*
X37630952Y-62254761D01*
X38152380Y-70788095D02*
X37152380Y-70788095D01*
X37152380Y-70550000D01*
X37200000Y-70407142D01*
X37295238Y-70311904D01*
X37390476Y-70264285D01*
X37580952Y-70216666D01*
X37723809Y-70216666D01*
X37914285Y-70264285D01*
X38009523Y-70311904D01*
X38104761Y-70407142D01*
X38152380Y-70550000D01*
X38152380Y-70788095D01*
X38152380Y-69740476D02*
X38152380Y-69550000D01*
X38104761Y-69454761D01*
X38057142Y-69407142D01*
X37914285Y-69311904D01*
X37723809Y-69264285D01*
X37342857Y-69264285D01*
X37247619Y-69311904D01*
X37200000Y-69359523D01*
X37152380Y-69454761D01*
X37152380Y-69645238D01*
X37200000Y-69740476D01*
X37247619Y-69788095D01*
X37342857Y-69835714D01*
X37580952Y-69835714D01*
X37676190Y-69788095D01*
X37723809Y-69740476D01*
X37771428Y-69645238D01*
X37771428Y-69454761D01*
X37723809Y-69359523D01*
X37676190Y-69311904D01*
X37580952Y-69264285D01*
X38152380Y-78964285D02*
X37152380Y-78964285D01*
X37152380Y-78726190D01*
X37200000Y-78583333D01*
X37295238Y-78488095D01*
X37390476Y-78440476D01*
X37580952Y-78392857D01*
X37723809Y-78392857D01*
X37914285Y-78440476D01*
X38009523Y-78488095D01*
X38104761Y-78583333D01*
X38152380Y-78726190D01*
X38152380Y-78964285D01*
X38152380Y-77440476D02*
X38152380Y-78011904D01*
X38152380Y-77726190D02*
X37152380Y-77726190D01*
X37295238Y-77821428D01*
X37390476Y-77916666D01*
X37438095Y-78011904D01*
X37152380Y-76821428D02*
X37152380Y-76726190D01*
X37200000Y-76630952D01*
X37247619Y-76583333D01*
X37342857Y-76535714D01*
X37533333Y-76488095D01*
X37771428Y-76488095D01*
X37961904Y-76535714D01*
X38057142Y-76583333D01*
X38104761Y-76630952D01*
X38152380Y-76726190D01*
X38152380Y-76821428D01*
X38104761Y-76916666D01*
X38057142Y-76964285D01*
X37961904Y-77011904D01*
X37771428Y-77059523D01*
X37533333Y-77059523D01*
X37342857Y-77011904D01*
X37247619Y-76964285D01*
X37200000Y-76916666D01*
X37152380Y-76821428D01*
X38152380Y-86814285D02*
X37152380Y-86814285D01*
X37152380Y-86576190D01*
X37200000Y-86433333D01*
X37295238Y-86338095D01*
X37390476Y-86290476D01*
X37580952Y-86242857D01*
X37723809Y-86242857D01*
X37914285Y-86290476D01*
X38009523Y-86338095D01*
X38104761Y-86433333D01*
X38152380Y-86576190D01*
X38152380Y-86814285D01*
X38152380Y-85290476D02*
X38152380Y-85861904D01*
X38152380Y-85576190D02*
X37152380Y-85576190D01*
X37295238Y-85671428D01*
X37390476Y-85766666D01*
X37438095Y-85861904D01*
X38152380Y-84338095D02*
X38152380Y-84909523D01*
X38152380Y-84623809D02*
X37152380Y-84623809D01*
X37295238Y-84719047D01*
X37390476Y-84814285D01*
X37438095Y-84909523D01*
X38152380Y-94664285D02*
X37152380Y-94664285D01*
X37152380Y-94426190D01*
X37200000Y-94283333D01*
X37295238Y-94188095D01*
X37390476Y-94140476D01*
X37580952Y-94092857D01*
X37723809Y-94092857D01*
X37914285Y-94140476D01*
X38009523Y-94188095D01*
X38104761Y-94283333D01*
X38152380Y-94426190D01*
X38152380Y-94664285D01*
X38152380Y-93140476D02*
X38152380Y-93711904D01*
X38152380Y-93426190D02*
X37152380Y-93426190D01*
X37295238Y-93521428D01*
X37390476Y-93616666D01*
X37438095Y-93711904D01*
X37247619Y-92759523D02*
X37200000Y-92711904D01*
X37152380Y-92616666D01*
X37152380Y-92378571D01*
X37200000Y-92283333D01*
X37247619Y-92235714D01*
X37342857Y-92188095D01*
X37438095Y-92188095D01*
X37580952Y-92235714D01*
X38152380Y-92807142D01*
X38152380Y-92188095D01*
X8190476Y-92428571D02*
X7857142Y-92428571D01*
X7857142Y-92952380D02*
X7857142Y-91952380D01*
X8333333Y-91952380D01*
X9238095Y-92952380D02*
X8666666Y-92952380D01*
X8952380Y-92952380D02*
X8952380Y-91952380D01*
X8857142Y-92095238D01*
X8761904Y-92190476D01*
X8666666Y-92238095D01*
X9571428Y-91952380D02*
X10190476Y-91952380D01*
X9857142Y-92333333D01*
X10000000Y-92333333D01*
X10095238Y-92380952D01*
X10142857Y-92428571D01*
X10190476Y-92523809D01*
X10190476Y-92761904D01*
X10142857Y-92857142D01*
X10095238Y-92904761D01*
X10000000Y-92952380D01*
X9714285Y-92952380D01*
X9619047Y-92904761D01*
X9571428Y-92857142D01*
X62122380Y-95333333D02*
X62836666Y-95333333D01*
X62979523Y-95380952D01*
X63074761Y-95476190D01*
X63122380Y-95619047D01*
X63122380Y-95714285D01*
X62455714Y-94428571D02*
X63122380Y-94428571D01*
X62074761Y-94666666D02*
X62789047Y-94904761D01*
X62789047Y-94285714D01*
X20807142Y-11552380D02*
X20473809Y-11076190D01*
X20235714Y-11552380D02*
X20235714Y-10552380D01*
X20616666Y-10552380D01*
X20711904Y-10600000D01*
X20759523Y-10647619D01*
X20807142Y-10742857D01*
X20807142Y-10885714D01*
X20759523Y-10980952D01*
X20711904Y-11028571D01*
X20616666Y-11076190D01*
X20235714Y-11076190D01*
X21664285Y-10885714D02*
X21664285Y-11552380D01*
X21426190Y-10504761D02*
X21188095Y-11219047D01*
X21807142Y-11219047D01*
X22330952Y-10980952D02*
X22235714Y-10933333D01*
X22188095Y-10885714D01*
X22140476Y-10790476D01*
X22140476Y-10742857D01*
X22188095Y-10647619D01*
X22235714Y-10600000D01*
X22330952Y-10552380D01*
X22521428Y-10552380D01*
X22616666Y-10600000D01*
X22664285Y-10647619D01*
X22711904Y-10742857D01*
X22711904Y-10790476D01*
X22664285Y-10885714D01*
X22616666Y-10933333D01*
X22521428Y-10980952D01*
X22330952Y-10980952D01*
X22235714Y-11028571D01*
X22188095Y-11076190D01*
X22140476Y-11171428D01*
X22140476Y-11361904D01*
X22188095Y-11457142D01*
X22235714Y-11504761D01*
X22330952Y-11552380D01*
X22521428Y-11552380D01*
X22616666Y-11504761D01*
X22664285Y-11457142D01*
X22711904Y-11361904D01*
X22711904Y-11171428D01*
X22664285Y-11076190D01*
X22616666Y-11028571D01*
X22521428Y-10980952D01*
X20807142Y-27002380D02*
X20473809Y-26526190D01*
X20235714Y-27002380D02*
X20235714Y-26002380D01*
X20616666Y-26002380D01*
X20711904Y-26050000D01*
X20759523Y-26097619D01*
X20807142Y-26192857D01*
X20807142Y-26335714D01*
X20759523Y-26430952D01*
X20711904Y-26478571D01*
X20616666Y-26526190D01*
X20235714Y-26526190D01*
X21711904Y-26002380D02*
X21235714Y-26002380D01*
X21188095Y-26478571D01*
X21235714Y-26430952D01*
X21330952Y-26383333D01*
X21569047Y-26383333D01*
X21664285Y-26430952D01*
X21711904Y-26478571D01*
X21759523Y-26573809D01*
X21759523Y-26811904D01*
X21711904Y-26907142D01*
X21664285Y-26954761D01*
X21569047Y-27002380D01*
X21330952Y-27002380D01*
X21235714Y-26954761D01*
X21188095Y-26907142D01*
X22378571Y-26002380D02*
X22473809Y-26002380D01*
X22569047Y-26050000D01*
X22616666Y-26097619D01*
X22664285Y-26192857D01*
X22711904Y-26383333D01*
X22711904Y-26621428D01*
X22664285Y-26811904D01*
X22616666Y-26907142D01*
X22569047Y-26954761D01*
X22473809Y-27002380D01*
X22378571Y-27002380D01*
X22283333Y-26954761D01*
X22235714Y-26907142D01*
X22188095Y-26811904D01*
X22140476Y-26621428D01*
X22140476Y-26383333D01*
X22188095Y-26192857D01*
X22235714Y-26097619D01*
X22283333Y-26050000D01*
X22378571Y-26002380D01*
X20807142Y-34702380D02*
X20473809Y-34226190D01*
X20235714Y-34702380D02*
X20235714Y-33702380D01*
X20616666Y-33702380D01*
X20711904Y-33750000D01*
X20759523Y-33797619D01*
X20807142Y-33892857D01*
X20807142Y-34035714D01*
X20759523Y-34130952D01*
X20711904Y-34178571D01*
X20616666Y-34226190D01*
X20235714Y-34226190D01*
X21711904Y-33702380D02*
X21235714Y-33702380D01*
X21188095Y-34178571D01*
X21235714Y-34130952D01*
X21330952Y-34083333D01*
X21569047Y-34083333D01*
X21664285Y-34130952D01*
X21711904Y-34178571D01*
X21759523Y-34273809D01*
X21759523Y-34511904D01*
X21711904Y-34607142D01*
X21664285Y-34654761D01*
X21569047Y-34702380D01*
X21330952Y-34702380D01*
X21235714Y-34654761D01*
X21188095Y-34607142D01*
X22711904Y-34702380D02*
X22140476Y-34702380D01*
X22426190Y-34702380D02*
X22426190Y-33702380D01*
X22330952Y-33845238D01*
X22235714Y-33940476D01*
X22140476Y-33988095D01*
X20807142Y-42402380D02*
X20473809Y-41926190D01*
X20235714Y-42402380D02*
X20235714Y-41402380D01*
X20616666Y-41402380D01*
X20711904Y-41450000D01*
X20759523Y-41497619D01*
X20807142Y-41592857D01*
X20807142Y-41735714D01*
X20759523Y-41830952D01*
X20711904Y-41878571D01*
X20616666Y-41926190D01*
X20235714Y-41926190D01*
X21711904Y-41402380D02*
X21235714Y-41402380D01*
X21188095Y-41878571D01*
X21235714Y-41830952D01*
X21330952Y-41783333D01*
X21569047Y-41783333D01*
X21664285Y-41830952D01*
X21711904Y-41878571D01*
X21759523Y-41973809D01*
X21759523Y-42211904D01*
X21711904Y-42307142D01*
X21664285Y-42354761D01*
X21569047Y-42402380D01*
X21330952Y-42402380D01*
X21235714Y-42354761D01*
X21188095Y-42307142D01*
X22140476Y-41497619D02*
X22188095Y-41450000D01*
X22283333Y-41402380D01*
X22521428Y-41402380D01*
X22616666Y-41450000D01*
X22664285Y-41497619D01*
X22711904Y-41592857D01*
X22711904Y-41688095D01*
X22664285Y-41830952D01*
X22092857Y-42402380D01*
X22711904Y-42402380D01*
X20807142Y-50102380D02*
X20473809Y-49626190D01*
X20235714Y-50102380D02*
X20235714Y-49102380D01*
X20616666Y-49102380D01*
X20711904Y-49150000D01*
X20759523Y-49197619D01*
X20807142Y-49292857D01*
X20807142Y-49435714D01*
X20759523Y-49530952D01*
X20711904Y-49578571D01*
X20616666Y-49626190D01*
X20235714Y-49626190D01*
X21711904Y-49102380D02*
X21235714Y-49102380D01*
X21188095Y-49578571D01*
X21235714Y-49530952D01*
X21330952Y-49483333D01*
X21569047Y-49483333D01*
X21664285Y-49530952D01*
X21711904Y-49578571D01*
X21759523Y-49673809D01*
X21759523Y-49911904D01*
X21711904Y-50007142D01*
X21664285Y-50054761D01*
X21569047Y-50102380D01*
X21330952Y-50102380D01*
X21235714Y-50054761D01*
X21188095Y-50007142D01*
X22092857Y-49102380D02*
X22711904Y-49102380D01*
X22378571Y-49483333D01*
X22521428Y-49483333D01*
X22616666Y-49530952D01*
X22664285Y-49578571D01*
X22711904Y-49673809D01*
X22711904Y-49911904D01*
X22664285Y-50007142D01*
X22616666Y-50054761D01*
X22521428Y-50102380D01*
X22235714Y-50102380D01*
X22140476Y-50054761D01*
X22092857Y-50007142D01*
X20857142Y-57952380D02*
X20523809Y-57476190D01*
X20285714Y-57952380D02*
X20285714Y-56952380D01*
X20666666Y-56952380D01*
X20761904Y-57000000D01*
X20809523Y-57047619D01*
X20857142Y-57142857D01*
X20857142Y-57285714D01*
X20809523Y-57380952D01*
X20761904Y-57428571D01*
X20666666Y-57476190D01*
X20285714Y-57476190D01*
X21761904Y-56952380D02*
X21285714Y-56952380D01*
X21238095Y-57428571D01*
X21285714Y-57380952D01*
X21380952Y-57333333D01*
X21619047Y-57333333D01*
X21714285Y-57380952D01*
X21761904Y-57428571D01*
X21809523Y-57523809D01*
X21809523Y-57761904D01*
X21761904Y-57857142D01*
X21714285Y-57904761D01*
X21619047Y-57952380D01*
X21380952Y-57952380D01*
X21285714Y-57904761D01*
X21238095Y-57857142D01*
X22666666Y-57285714D02*
X22666666Y-57952380D01*
X22428571Y-56904761D02*
X22190476Y-57619047D01*
X22809523Y-57619047D01*
X20857142Y-65452380D02*
X20523809Y-64976190D01*
X20285714Y-65452380D02*
X20285714Y-64452380D01*
X20666666Y-64452380D01*
X20761904Y-64500000D01*
X20809523Y-64547619D01*
X20857142Y-64642857D01*
X20857142Y-64785714D01*
X20809523Y-64880952D01*
X20761904Y-64928571D01*
X20666666Y-64976190D01*
X20285714Y-64976190D01*
X21761904Y-64452380D02*
X21285714Y-64452380D01*
X21238095Y-64928571D01*
X21285714Y-64880952D01*
X21380952Y-64833333D01*
X21619047Y-64833333D01*
X21714285Y-64880952D01*
X21761904Y-64928571D01*
X21809523Y-65023809D01*
X21809523Y-65261904D01*
X21761904Y-65357142D01*
X21714285Y-65404761D01*
X21619047Y-65452380D01*
X21380952Y-65452380D01*
X21285714Y-65404761D01*
X21238095Y-65357142D01*
X22714285Y-64452380D02*
X22238095Y-64452380D01*
X22190476Y-64928571D01*
X22238095Y-64880952D01*
X22333333Y-64833333D01*
X22571428Y-64833333D01*
X22666666Y-64880952D01*
X22714285Y-64928571D01*
X22761904Y-65023809D01*
X22761904Y-65261904D01*
X22714285Y-65357142D01*
X22666666Y-65404761D01*
X22571428Y-65452380D01*
X22333333Y-65452380D01*
X22238095Y-65404761D01*
X22190476Y-65357142D01*
X20857142Y-73452380D02*
X20523809Y-72976190D01*
X20285714Y-73452380D02*
X20285714Y-72452380D01*
X20666666Y-72452380D01*
X20761904Y-72500000D01*
X20809523Y-72547619D01*
X20857142Y-72642857D01*
X20857142Y-72785714D01*
X20809523Y-72880952D01*
X20761904Y-72928571D01*
X20666666Y-72976190D01*
X20285714Y-72976190D01*
X21761904Y-72452380D02*
X21285714Y-72452380D01*
X21238095Y-72928571D01*
X21285714Y-72880952D01*
X21380952Y-72833333D01*
X21619047Y-72833333D01*
X21714285Y-72880952D01*
X21761904Y-72928571D01*
X21809523Y-73023809D01*
X21809523Y-73261904D01*
X21761904Y-73357142D01*
X21714285Y-73404761D01*
X21619047Y-73452380D01*
X21380952Y-73452380D01*
X21285714Y-73404761D01*
X21238095Y-73357142D01*
X22666666Y-72452380D02*
X22476190Y-72452380D01*
X22380952Y-72500000D01*
X22333333Y-72547619D01*
X22238095Y-72690476D01*
X22190476Y-72880952D01*
X22190476Y-73261904D01*
X22238095Y-73357142D01*
X22285714Y-73404761D01*
X22380952Y-73452380D01*
X22571428Y-73452380D01*
X22666666Y-73404761D01*
X22714285Y-73357142D01*
X22761904Y-73261904D01*
X22761904Y-73023809D01*
X22714285Y-72928571D01*
X22666666Y-72880952D01*
X22571428Y-72833333D01*
X22380952Y-72833333D01*
X22285714Y-72880952D01*
X22238095Y-72928571D01*
X22190476Y-73023809D01*
X20857142Y-80952380D02*
X20523809Y-80476190D01*
X20285714Y-80952380D02*
X20285714Y-79952380D01*
X20666666Y-79952380D01*
X20761904Y-80000000D01*
X20809523Y-80047619D01*
X20857142Y-80142857D01*
X20857142Y-80285714D01*
X20809523Y-80380952D01*
X20761904Y-80428571D01*
X20666666Y-80476190D01*
X20285714Y-80476190D01*
X21761904Y-79952380D02*
X21285714Y-79952380D01*
X21238095Y-80428571D01*
X21285714Y-80380952D01*
X21380952Y-80333333D01*
X21619047Y-80333333D01*
X21714285Y-80380952D01*
X21761904Y-80428571D01*
X21809523Y-80523809D01*
X21809523Y-80761904D01*
X21761904Y-80857142D01*
X21714285Y-80904761D01*
X21619047Y-80952380D01*
X21380952Y-80952380D01*
X21285714Y-80904761D01*
X21238095Y-80857142D01*
X22142857Y-79952380D02*
X22809523Y-79952380D01*
X22380952Y-80952380D01*
X20857142Y-88852380D02*
X20523809Y-88376190D01*
X20285714Y-88852380D02*
X20285714Y-87852380D01*
X20666666Y-87852380D01*
X20761904Y-87900000D01*
X20809523Y-87947619D01*
X20857142Y-88042857D01*
X20857142Y-88185714D01*
X20809523Y-88280952D01*
X20761904Y-88328571D01*
X20666666Y-88376190D01*
X20285714Y-88376190D01*
X21761904Y-87852380D02*
X21285714Y-87852380D01*
X21238095Y-88328571D01*
X21285714Y-88280952D01*
X21380952Y-88233333D01*
X21619047Y-88233333D01*
X21714285Y-88280952D01*
X21761904Y-88328571D01*
X21809523Y-88423809D01*
X21809523Y-88661904D01*
X21761904Y-88757142D01*
X21714285Y-88804761D01*
X21619047Y-88852380D01*
X21380952Y-88852380D01*
X21285714Y-88804761D01*
X21238095Y-88757142D01*
X22380952Y-88280952D02*
X22285714Y-88233333D01*
X22238095Y-88185714D01*
X22190476Y-88090476D01*
X22190476Y-88042857D01*
X22238095Y-87947619D01*
X22285714Y-87900000D01*
X22380952Y-87852380D01*
X22571428Y-87852380D01*
X22666666Y-87900000D01*
X22714285Y-87947619D01*
X22761904Y-88042857D01*
X22761904Y-88090476D01*
X22714285Y-88185714D01*
X22666666Y-88233333D01*
X22571428Y-88280952D01*
X22380952Y-88280952D01*
X22285714Y-88328571D01*
X22238095Y-88376190D01*
X22190476Y-88471428D01*
X22190476Y-88661904D01*
X22238095Y-88757142D01*
X22285714Y-88804761D01*
X22380952Y-88852380D01*
X22571428Y-88852380D01*
X22666666Y-88804761D01*
X22714285Y-88757142D01*
X22761904Y-88661904D01*
X22761904Y-88471428D01*
X22714285Y-88376190D01*
X22666666Y-88328571D01*
X22571428Y-88280952D01*
X20807142Y-96702380D02*
X20473809Y-96226190D01*
X20235714Y-96702380D02*
X20235714Y-95702380D01*
X20616666Y-95702380D01*
X20711904Y-95750000D01*
X20759523Y-95797619D01*
X20807142Y-95892857D01*
X20807142Y-96035714D01*
X20759523Y-96130952D01*
X20711904Y-96178571D01*
X20616666Y-96226190D01*
X20235714Y-96226190D01*
X21711904Y-95702380D02*
X21235714Y-95702380D01*
X21188095Y-96178571D01*
X21235714Y-96130952D01*
X21330952Y-96083333D01*
X21569047Y-96083333D01*
X21664285Y-96130952D01*
X21711904Y-96178571D01*
X21759523Y-96273809D01*
X21759523Y-96511904D01*
X21711904Y-96607142D01*
X21664285Y-96654761D01*
X21569047Y-96702380D01*
X21330952Y-96702380D01*
X21235714Y-96654761D01*
X21188095Y-96607142D01*
X22235714Y-96702380D02*
X22426190Y-96702380D01*
X22521428Y-96654761D01*
X22569047Y-96607142D01*
X22664285Y-96464285D01*
X22711904Y-96273809D01*
X22711904Y-95892857D01*
X22664285Y-95797619D01*
X22616666Y-95750000D01*
X22521428Y-95702380D01*
X22330952Y-95702380D01*
X22235714Y-95750000D01*
X22188095Y-95797619D01*
X22140476Y-95892857D01*
X22140476Y-96130952D01*
X22188095Y-96226190D01*
X22235714Y-96273809D01*
X22330952Y-96321428D01*
X22521428Y-96321428D01*
X22616666Y-96273809D01*
X22664285Y-96226190D01*
X22711904Y-96130952D01*
M02*
